<!-- Created with Inkscape (http://www.inkscape.org/) -->
<svg role="img" viewBox="-27.37 -25.41 653.59 724.54"
   xmlns="http://www.w3.org/2000/svg"
   xmlns:xlink="http://www.w3.org/1999/xlink"
   version="1.0"
   id="svg1923"><title>Herb gmina Wolbórz</title>
  <metadata
     id="metadata1923">
    <rdf:RDF>
      <cc:Work
         rdf:about="">
        <dc:format>image/svg+xml</dc:format>
        <dc:type
           rdf:resource="http://purl.org/dc/dcmitype/StillImage" />
      </cc:Work>
    </rdf:RDF>
  </metadata>
  <sodipodi:namedview
     guidetolerance="10.0"
     gridtolerance="10.0"
     objecttolerance="10.0"
     borderopacity="1.0"
     bordercolor="#666666"
     pagecolor="#ffffff"
     id="base"
     height="674.72px" />
  <defs
     id="defs1926">
    <linearGradient
       id="linearGradient24264">
      <stop
         style="stop-color:#f9eca5;stop-opacity:1"
         offset="0"
         id="stop24266" />
      <stop
         style="stop-color:#d4b60e;stop-opacity:1"
         offset="1"
         id="stop24268" />
    </linearGradient>
    <radialGradient
       cx="109.26649"
       cy="48.824539"
       r="3.1398418"
       fx="109.26649"
       fy="48.824539"
       id="radialGradient24270"
       xlink:href="#linearGradient24264"
       gradientUnits="userSpaceOnUse"
       gradientTransform="matrix(2.841289,0,0,2.841289,-6.081191,-5.716329)" />
  </defs>
  <path
     d="M 299.42614,672.29463 C 404.49447,668.3899 602.01606,602.15892 597.35041,319.01523 L 597.35041,1.4206444 L 1.5018508,1.4206444 L 1.5018508,319.01523 C -3.163801,602.15892 194.35779,668.3899 299.42614,672.29463 z "
     style="fill:#de432d;fill-opacity:1;fill-rule:evenodd;stroke:black;stroke-width:2.84128881px;stroke-linecap:butt;stroke-linejoin:miter;stroke-opacity:1"
     id="path22470" />
  <path
     d="M 303.93041,135.23858 L 199.99847,242.73901 L 406.52418,248.53779 L 303.93041,135.23858 z "
     style="fill:#4d99cb;fill-opacity:1;fill-rule:evenodd;stroke:black;stroke-width:2.84128881px;stroke-linecap:butt;stroke-linejoin:miter;stroke-opacity:1"
     id="path15328" />
  <g
     transform="matrix(2.841289,0,0,2.841289,-2.06664,-0.363608)"
     style="fill:white;fill-opacity:1"
     id="g15324">
    <path
       d="M 134.94119,195.25277 L 134.94119,71.143398 L 124.50623,71.143398 L 124.50623,83.354508 L 111.40704,83.354508 L 111.40704,70.921378 L 102.74824,70.921378 L 102.74824,83.354508 L 89.649047,83.354508 L 89.649047,71.143398 L 79.214087,71.143398 L 79.214087,195.25277 L 134.94119,195.25277 z "
       style="fill:white;fill-opacity:1;fill-rule:evenodd;stroke:black;stroke-width:1px;stroke-linecap:butt;stroke-linejoin:miter;stroke-opacity:1"
       id="path8161" />
    <path
       d="M 79.281003,94.823219 L 134.8562,94.823219"
       style="fill:white;fill-opacity:1;fill-rule:evenodd;stroke:black;stroke-width:1px;stroke-linecap:butt;stroke-linejoin:miter;stroke-opacity:1"
       id="path15322" />
  </g>
  <path
     d="M 333.76914,565.85569 L 333.76914,493.94176 C 328.51401,467.95411 319.36566,464.27731 301.59712,463.03141 C 283.82858,464.27731 274.68021,467.95411 269.42511,493.94176 L 269.42511,565.85569 L 333.76914,565.85569 z "
     style="fill:black;fill-opacity:1;fill-rule:evenodd;stroke:black;stroke-width:2.84128881px;stroke-linecap:butt;stroke-linejoin:miter;stroke-opacity:1"
     id="path8184" />
  <g
     transform="matrix(2.841289,0,0,2.841289,-4.835468,-147.6334)"
     style="fill:white;fill-opacity:1"
     id="g8168">
    <g
       transform="translate(3.552326,3.108281)"
       style="fill:white;fill-opacity:1"
       id="g4595">
      <rect
         width="91.055412"
         height="26.060686"
         x="58.282631"
         y="244.54475"
         style="opacity:1;fill:white;fill-opacity:1;fill-rule:evenodd;stroke:black;stroke-width:2.5;stroke-linecap:butt;stroke-linejoin:miter;stroke-miterlimit:4;stroke-dasharray:none;stroke-dashoffset:0;stroke-opacity:1"
         id="rect1932" />
      <path
         d="M 57.992732,252.89353 L 149.08052,252.89353"
         style="fill:white;fill-opacity:1;fill-rule:evenodd;stroke:black;stroke-width:2.5;stroke-linecap:butt;stroke-linejoin:miter;stroke-miterlimit:4;stroke-dasharray:none;stroke-opacity:1"
         id="path2821" />
      <path
         d="M 57.992732,261.77434 L 149.30254,261.77434"
         style="fill:white;fill-opacity:1;fill-rule:evenodd;stroke:black;stroke-width:2.5;stroke-linecap:butt;stroke-linejoin:miter;stroke-miterlimit:4;stroke-dasharray:none;stroke-opacity:1"
         id="path3708" />
    </g>
    <path
       d="M 84.811769,265.3085 L 84.811769,273.41224"
       style="fill:white;fill-opacity:1;fill-rule:evenodd;stroke:black;stroke-width:2.5;stroke-linecap:butt;stroke-linejoin:miter;stroke-miterlimit:4;stroke-dasharray:none;stroke-opacity:1"
       id="path4600" />
    <path
       d="M 107.67986,265.3085 L 107.67986,273.41224"
       style="fill:white;fill-opacity:1;fill-rule:evenodd;stroke:black;stroke-width:2.5;stroke-linecap:butt;stroke-linejoin:miter;stroke-miterlimit:4;stroke-dasharray:none;stroke-opacity:1"
       id="path8142" />
    <path
       d="M 129.9929,265.3085 L 129.9929,273.41224"
       style="fill:white;fill-opacity:1;fill-rule:evenodd;stroke:black;stroke-width:2.5;stroke-linecap:butt;stroke-linejoin:miter;stroke-miterlimit:4;stroke-dasharray:none;stroke-opacity:1"
       id="path8144" />
    <path
       d="M 84.811769,247.65788 L 84.811769,255.76162"
       style="fill:white;fill-opacity:1;fill-rule:evenodd;stroke:black;stroke-width:2.5;stroke-linecap:butt;stroke-linejoin:miter;stroke-miterlimit:4;stroke-dasharray:none;stroke-opacity:1"
       id="path8146" />
    <path
       d="M 107.67986,247.65788 L 107.67986,255.76162"
       style="fill:white;fill-opacity:1;fill-rule:evenodd;stroke:black;stroke-width:2.5;stroke-linecap:butt;stroke-linejoin:miter;stroke-miterlimit:4;stroke-dasharray:none;stroke-opacity:1"
       id="path8148" />
    <path
       d="M 129.9929,247.65788 L 129.9929,255.76162"
       style="fill:white;fill-opacity:1;fill-rule:evenodd;stroke:black;stroke-width:2.5;stroke-linecap:butt;stroke-linejoin:miter;stroke-miterlimit:4;stroke-dasharray:none;stroke-opacity:1"
       id="path8150" />
    <path
       d="M 73.488731,256.26117 L 73.488731,264.36491"
       style="fill:white;fill-opacity:1;fill-rule:evenodd;stroke:black;stroke-width:2.5;stroke-linecap:butt;stroke-linejoin:miter;stroke-miterlimit:4;stroke-dasharray:none;stroke-opacity:1"
       id="path8152" />
    <path
       d="M 95.690765,256.26117 L 95.690765,264.36491"
       style="fill:white;fill-opacity:1;fill-rule:evenodd;stroke:black;stroke-width:2.5;stroke-linecap:butt;stroke-linejoin:miter;stroke-miterlimit:4;stroke-dasharray:none;stroke-opacity:1"
       id="path8155" />
    <path
       d="M 118.44785,256.26117 L 118.44785,264.36491"
       style="fill:white;fill-opacity:1;fill-rule:evenodd;stroke:black;stroke-width:2.5;stroke-linecap:butt;stroke-linejoin:miter;stroke-miterlimit:4;stroke-dasharray:none;stroke-opacity:1"
       id="path8157" />
    <path
       d="M 141.09392,256.26117 L 141.09392,264.36491"
       style="fill:white;fill-opacity:1;fill-rule:evenodd;stroke:black;stroke-width:2.5;stroke-linecap:butt;stroke-linejoin:miter;stroke-miterlimit:4;stroke-dasharray:none;stroke-opacity:1"
       id="path8159" />
  </g>
  <g
     transform="matrix(2.841289,0,0,2.841289,-422.7482,-44.01407)"
     id="g15312">
    <path
       d="M 246.88661,115.44477 L 234.89751,115.44477 L 241.11408,134.76054 L 246.88661,115.44477 z "
       style="fill:black;fill-opacity:1;fill-rule:evenodd;stroke:black;stroke-width:1px;stroke-linecap:butt;stroke-linejoin:miter;stroke-opacity:1"
       id="path11737" />
    <path
       d="M 95.024702,118.88609 C 95.02513,120.54174 93.683079,121.88414 92.027428,121.88414 C 90.371776,121.88414 89.029725,120.54174 89.030153,118.88609 C 89.029725,117.23044 90.371776,115.88804 92.027428,115.88804 C 93.683079,115.88804 95.02513,117.23044 95.024702,118.88609 L 95.024702,118.88609 z "
       transform="translate(148.9756,14.87536)"
       style="opacity:1;fill:black;fill-opacity:1;fill-rule:evenodd;stroke:black;stroke-width:2.5;stroke-linecap:butt;stroke-linejoin:miter;stroke-miterlimit:4;stroke-dasharray:none;stroke-dashoffset:0;stroke-opacity:1"
       id="path11739" />
  </g>
  <g
     transform="matrix(2.841289,0,0,2.841289,-341.372,-44.01407)"
     id="g15316">
    <path
       d="M 246.88661,115.44477 L 234.89751,115.44477 L 241.11408,134.76054 L 246.88661,115.44477 z "
       style="fill:black;fill-opacity:1;fill-rule:evenodd;stroke:black;stroke-width:1px;stroke-linecap:butt;stroke-linejoin:miter;stroke-opacity:1"
       id="path15318" />
    <path
       d="M 95.024702,118.88609 C 95.02513,120.54174 93.683079,121.88414 92.027428,121.88414 C 90.371776,121.88414 89.029725,120.54174 89.030153,118.88609 C 89.029725,117.23044 90.371776,115.88804 92.027428,115.88804 C 93.683079,115.88804 95.02513,117.23044 95.024702,118.88609 L 95.024702,118.88609 z "
       transform="translate(148.9756,14.87536)"
       style="opacity:1;fill:black;fill-opacity:1;fill-rule:evenodd;stroke:black;stroke-width:2.5;stroke-linecap:butt;stroke-linejoin:miter;stroke-miterlimit:4;stroke-dasharray:none;stroke-dashoffset:0;stroke-opacity:1"
       id="path15320" />
  </g>
  <path
     d="M 304.78246,50.383195 C 303.63662,50.383065 302.53898,50.844291 301.73713,51.662841 C 300.93529,52.48139 300.49677,53.588314 300.52052,54.733919 L 300.52052,128.78501 C 300.49879,130.32202 301.30634,131.75166 302.6339,132.52651 C 303.96149,133.30135 305.60345,133.30135 306.93104,132.52651 C 308.2586,131.75166 309.06613,130.32202 309.04439,128.78501 L 309.04439,54.733919 C 309.06817,53.588314 308.62965,52.48139 307.82781,51.662841 C 307.02597,50.844291 305.92832,50.383065 304.78246,50.383195 z "
     style="fill:#7e3e34;fill-opacity:1;fill-rule:evenodd;stroke:#590a0d;stroke-width:1.4206444;stroke-linecap:round;stroke-linejoin:miter;stroke-miterlimit:4;stroke-dasharray:none;stroke-opacity:1"
     id="path15332" />
  <path
     d="M 313.29768,133.0083 C 313.30109,136.19781 311.60146,139.1465 308.83984,140.74224 C 306.07822,142.33798 302.67475,142.33798 299.91313,140.74224 C 297.15151,139.1465 295.45188,136.19781 295.45529,133.0083 C 295.45188,129.81878 297.15151,126.8701 299.91313,125.27435 C 302.67475,123.67861 306.07822,123.67861 308.83984,125.27435 C 311.60146,126.8701 313.30109,129.81878 313.29768,133.0083 z "
     style="fill:url(#radialGradient24270);fill-opacity:1;fill-rule:evenodd;stroke:none;stroke-width:2.5;stroke-linecap:butt;stroke-linejoin:miter;stroke-miterlimit:4;stroke-dasharray:none;stroke-dashoffset:0;stroke-opacity:1"
     id="path15330" />
  <path
     d="M 304.59951,90.855629 C 306.60676,90.855629 347.8673,69.444756 347.8673,69.444756 L 304.59951,55.170841 L 304.59951,90.855629 z "
     style="fill:white;fill-opacity:1;fill-rule:evenodd;stroke:black;stroke-width:2.84128881px;stroke-linecap:butt;stroke-linejoin:miter;stroke-opacity:1"
     id="path17109" />
  <path
     d="M 447.92215,125.47855 L 475.363,115.38537 L 447.60674,103.71513 L 447.92215,125.47855 z "
     style="fill:white;fill-opacity:1;fill-rule:evenodd;stroke:none;stroke-width:1px;stroke-linecap:butt;stroke-linejoin:miter;stroke-opacity:1"
     id="path19788" />
  <path
     d="M 447.13364,141.24915 L 447.13364,102.61119"
     style="fill:#d48d5a;fill-opacity:0.75;fill-rule:evenodd;stroke:#db9567;stroke-width:2.84128881px;stroke-linecap:butt;stroke-linejoin:miter;stroke-opacity:1"
     id="path18901" />
  <path
     d="M 391.14803,199.28495 L 447.29136,141.87997 L 500.28057,199.28495 L 500.28057,230.82614 L 396.82544,229.56449 L 391.14803,199.28495 z "
     style="fill:#4d99cb;fill-opacity:1;fill-rule:evenodd;stroke:black;stroke-width:2.84128881px;stroke-linecap:butt;stroke-linejoin:miter;stroke-opacity:1"
     id="path18899" />
  <path
     d="M 381.68461,379.95923 L 495.87592,305.91328 L 495.87592,240.78856 L 508.3656,240.78856 L 508.3656,186.36926 L 484.27837,186.36926 L 484.27837,212.24073 L 453.94628,212.24073 L 453.94628,186.36926 L 432.53541,186.36926 L 432.53541,212.24073 L 403.09548,212.24073 L 403.09548,186.36926 L 381.68461,186.36926 L 381.68461,379.95923 z "
     style="fill:white;fill-opacity:1;fill-rule:evenodd;stroke:black;stroke-width:2.84128881px;stroke-linecap:butt;stroke-linejoin:miter;stroke-opacity:1"
     id="path18001" />
  <path
     d="M 495.87592,240.84268 L 381.68458,240.84268"
     style="fill:none;fill-opacity:0.75;fill-rule:evenodd;stroke:black;stroke-width:2.84128881px;stroke-linecap:butt;stroke-linejoin:miter;stroke-opacity:1"
     id="path18003" />
  <path
     d="M 496.32197,305.46726 L 382.13063,305.46726"
     style="fill:none;fill-opacity:0.75;fill-rule:evenodd;stroke:black;stroke-width:2.84128881px;stroke-linecap:butt;stroke-linejoin:miter;stroke-opacity:1"
     id="path18005" />
  <path
     d="M 453.14251,300.06426 C 451.7436,290.25094 449.16198,278.65339 438.86861,267.94794 C 428.57522,278.65339 425.9936,290.25094 424.59469,300.06426 L 453.14251,300.06426 z "
     style="fill:black;fill-opacity:1;fill-rule:evenodd;stroke:black;stroke-width:2.84128881px;stroke-linecap:butt;stroke-linejoin:miter;stroke-opacity:1"
     id="path18007" />
  <path
     d="M 155.73402,125.47855 L 128.29316,115.38537 L 156.04943,103.71513 L 155.73402,125.47855 z "
     style="fill:white;fill-opacity:1;fill-rule:evenodd;stroke:none;stroke-width:1px;stroke-linecap:butt;stroke-linejoin:miter;stroke-opacity:1"
     id="path22456" />
  <path
     d="M 156.52253,141.24915 L 156.52253,102.61119"
     style="fill:#d48d5a;fill-opacity:0.75;fill-rule:evenodd;stroke:#db9567;stroke-width:2.84128881px;stroke-linecap:butt;stroke-linejoin:miter;stroke-opacity:1"
     id="path22458" />
  <path
     d="M 212.50814,199.28495 L 156.36481,141.87997 L 103.3756,199.28495 L 103.3756,230.82614 L 206.83073,229.56449 L 212.50814,199.28495 z "
     style="fill:#4d99cb;fill-opacity:1;fill-rule:evenodd;stroke:black;stroke-width:2.84128881px;stroke-linecap:butt;stroke-linejoin:miter;stroke-opacity:1"
     id="path22460" />
  <path
     d="M 221.97156,379.95923 L 107.78025,305.91328 L 107.78025,240.78856 L 95.290573,240.78856 L 95.290573,186.36926 L 119.3778,186.36926 L 119.3778,212.24073 L 149.70989,212.24073 L 149.70989,186.36926 L 171.12076,186.36926 L 171.12076,212.24073 L 200.56069,212.24073 L 200.56069,186.36926 L 221.97156,186.36926 L 221.97156,379.95923 z "
     style="fill:white;fill-opacity:1;fill-rule:evenodd;stroke:black;stroke-width:2.84128881px;stroke-linecap:butt;stroke-linejoin:miter;stroke-opacity:1"
     id="path22462" />
  <path
     d="M 107.78025,240.84268 L 221.97159,240.84268"
     style="fill:none;fill-opacity:0.75;fill-rule:evenodd;stroke:black;stroke-width:2.84128881px;stroke-linecap:butt;stroke-linejoin:miter;stroke-opacity:1"
     id="path22464" />
  <path
     d="M 107.3342,305.46726 L 221.52554,305.46726"
     style="fill:none;fill-opacity:0.75;fill-rule:evenodd;stroke:black;stroke-width:2.84128881px;stroke-linecap:butt;stroke-linejoin:miter;stroke-opacity:1"
     id="path22466" />
  <path
     d="M 150.51366,300.06426 C 151.91257,290.25094 154.49419,278.65339 164.78756,267.94794 C 175.08095,278.65339 177.66257,290.25094 179.06148,300.06426 L 150.51366,300.06426 z "
     style="fill:black;fill-opacity:1;fill-rule:evenodd;stroke:black;stroke-width:2.84128881px;stroke-linecap:butt;stroke-linejoin:miter;stroke-opacity:1"
     id="path22468" />
</svg>