<svg><title>Herb Maków Podhalański</title><path d="M0 .004h546.73v348.578l-.313 12.137c-6.765 135.512-126.804 244.074-273.05 244.074-146.243 0-266.285-108.562-273.054-244.074l-.31-12.141V0" style="stroke:none;fill-rule:evenodd;fill:#222"/><path d="M42.898 357.266c14.774 20.641 27.797 34.02 32.375 12.402-2.617 29.993 15.72 39.477 20.489 41.453 4.77 1.973 14.871-4.828 8.86-25.417 4.832 9.164 6.562 13.652 11.034 12.8 3.946-.754 6.11-7.785 13.472-12.8-6.793 11.124-8.327 18.179-3.015 19.937 2.782.918 6.899-.887 14.211-1.781-34.245 18.836-20.243 44.816-16.743 48.738 3.821 4.281 28.396 18.211 24.31-18.176 3.524 14.828 9.112 20.543 17.487 6.774-1.506 10.207-6.03 14.746-2.659 20.343 1.754 2.911 5.155.989 12.101.411-31.909 10.539-10.761 34.707-6.696 42.339 4.907 9.211 27.263 19.512 33.625 8.188 1.892 12.758 12.793 25.785 31.165 39.031 4.992 7.973 14.895 9.403 18.254 15.196 3.871 7.925 8.652 6.949 2.348-1.836-4.387-4.946-11.864-7.711-14.254-12.114 6.785 1.25 12.359.801 9.418-11.566-7.207-19.656-16.762-33.992-27.806-44.938-2.289-2.269-5.006-3.125-7.058-6.394 12.845-1.645 7.515-24.008 3.465-34.195-3.804-9.567-12.157-27.5-27.235-24.711 6.923-8.461-.862-13.879-10.965-18.45 11.11 2.848 15.052.196 9.825-12.578 3.457 4.742 6.453 8.449 9.813 9.895 4.605 1.98 8.761.226 9.433-6.301.097-6.004-3.886-12.84-8.821-19.219-3.265-4.222-7.222-7.976-9.698-12.14 6.566 3.402 9.485 7.609 11.75 6.117 2.566-1.692 2.034-8.215 2.077-17.098 4.119 19.438 9.813 25.289 17.81 11.289-4.368 23.961 2.473 38.778 7.242 40.633 10.832 4.215 12.277-4.711 14.148-18.605.988 15.089 6.992 13.765 14.289 6.074-.765 3.387-5.137 7.449-6.461 10.433-2.074 4.672-2.008 8.364 2.262 10.606 1.305.683 4.027.828 6.184 1.433-2.274.801-5.559 1.168-7.438 1.879-13.148 4.989-14.062 16.973-14.09 24.016-.027 8.566 4.477 27.312 19.168 23.887-11.918 28.121-1.375 55.687 6.496 75.718 2.672 6.801-.273 16.723 7.512 19.418 9.227-4.636 4.734-10.105 8.469-19.683 7.871-20.168 18.414-47.922 6.496-76.238 14.687 3.449 19.195-15.426 19.168-24.051-.027-8.102-1.149-22.028-20.442-25.188 13.684-2.566 9.297-11.523 1.579-22.761 7.293 7.742 12.617 8.32 13.609-6.872 1.867 13.989 3.312 22.977 14.148 18.731 4.766-1.867 11.614-16.785 7.243-40.914 7.996 14.094 13.687 8.199 17.808-11.367.039 8.941-.484 15.511 2.078 17.214 2.262 1.504 5.184-2.73 11.75-6.16-2.472 4.192-6.433 7.969-9.699 12.223-4.934 6.422-8.922 13.301-8.82 19.348 1.164 11.375 11.929 8.074 18.91-2.934-5.363 11.77-.941 14.848 10.164 11.981-10.098 4.597-17.891 10.054-10.965 18.574-15.074-2.805-23.426 15.246-27.234 24.883-4.051 10.257-9.379 32.773 3.465 34.429-2.047 3.289-4.766 4.149-7.059 6.438-11.039 11.019-20.594 25.453-27.805 45.25-2.937 12.453 2.629 12.906 9.418 11.644-2.386 4.43-9.863 7.215-14.254 12.2-6.3 8.847-1.519 9.832 2.348 1.847 3.355-5.828 13.258-7.269 18.254-15.301 18.367-13.336 29.269-26.449 31.164-39.3 6.359 11.398 28.715 1.027 33.625-8.243 4.066-7.683 25.215-32.019-6.695-42.632 6.941.582 10.347 2.515 12.101-.414 3.367-5.633-1.152-10.204-2.66-20.485 8.375 13.86 13.961 8.11 17.488-6.82-4.086 36.64 20.485 22.613 24.305 18.301 3.496-3.946 17.5-30.106-16.742-49.075 7.312.899 11.43 2.719 14.211 1.793 5.308-1.765 3.773-8.871-3.016-20.074 7.363 5.047 9.524 12.129 13.473 12.887 4.469.855 6.199-3.66 11.035-12.887-6.008 20.727 4.09 27.582 8.859 25.594s23.11-11.543 20.489-41.738c4.574 21.761 17.597 8.293 32.375-12.489-7.816 13.797-13.715 23.61-10.755 29.629 2.544 5.164 6.716 3.539 16.15-.711-23.118 16.543-34.161 29.426-31.973 39.614 1.175 5.472 7.222 9.914 24.456 7.324-17.898 5.777-15.656 13.59.359 22.785-8.75-1.605-14.71-1.465-17.069 1.051-2.079 2.222-.629 5.199 2.73 12.656-21.648-22.48-39.851-6.172-44.785-2.305-2.789 2.184-10.844 9.688-11 16.184-.137 5.73 5.625 10.578 26.137 9.883-9.77 1.047-13.289 2.652-12.934 5.539s2.953 7.422 16.32 11.945c-9.941 3.145-33.515-12.367-28.742 11.82-15.57-18.968-35.094-2.414-39.84 2.817-3.691 4.07-6.574 18.543 9.411 21.82-17.043 2.942-28.891 1.715-50.477 10.149-24.168 7.3-40.57 18.14-64.035 24.418-12.063 3.375-12.153 3.414-24.254.042-23.465-6.23-39.867-17-64.035-24.25-21.586-8.374-33.907-6.21-50.953-9.136 15.987-3.254 13.578-18.571 9.886-22.614-4.746-5.199-24.269-21.636-39.84-2.796 4.773-24.024-18.797-8.614-28.742-11.739 13.368-4.492 15.965-8.996 16.321-11.863.351-2.867-3.16-4.461-12.934-5.5 20.508.688 26.273-4.125 26.133-9.816-.153-6.45-8.212-13.899-11.001-16.071-4.928-3.836-23.133-20.035-44.784 2.289 3.359-7.402 4.812-10.359 2.73-12.566-2.36-2.5-8.32-2.641-17.07-1.043 16.02-9.133 18.261-16.891.363-22.633 17.23 2.571 23.281-1.84 24.457-7.277 2.184-10.113-8.852-22.91-31.973-39.344 9.43 4.223 13.606 5.836 16.149.703 2.96-5.976-2.934-15.718-10.754-29.426" style="stroke:none;fill-rule:evenodd;fill:#3ba66d"/><path d="M120.656 34.469c8.449 20.231 18.285 42.953 23.871 66.445 4.778 20.09 7.634 41.27 8.078 63.821h235.461c.442-22.547 3.301-43.727 8.079-63.821 5.585-23.492 15.421-46.214 23.871-66.445-9.036 6.184-17.496 4.938-20.848 10.109-3.566 5.5-.848 11.368.777 22.25-14.531-26.046-29.965-17.273-33.367-13.707-3.211 3.364-7.016 10.684-4.64 18.422 4.5 14.668 6.652 26.465 2.882 32.411 5.188-.727 9.953-3.012 11.778-16.231.011-8.984 8.203-8.301 10.297-6.227 1.843 1.829 5.98 6.579 1.988 16.469-5.137 13.739-21.203 19.403-30.235 19.129-6.175-.183-19.023-2.59-16.05-16.262 5.714-6.843.992-10.461-3.008-10.281-4.735.211-8.199 5.246-2.34 10.922.363 17.387-14.172 15.746-22.422 15.902-9.351.176-25.348-4.312-30.39-14.902-6.844-12.785-9.895-24.004 5.324-27.676 15.488-.226-7.43 20.364 11.468 27.676-7-17.645 25.211-29.289 13.832-51.254-3.289-6.348-19.679-11.367-36.902 7.863.832-6.5 12.024-12.304 9.656-23.441-1.144-5.387-6.781-8.004-14.031-12.637-2.957-1.937-2.367-4.785-3.824-5.093-1.555 1.214-1.367 3.816-3.047 5.093-7.246 4.633-12.887 7.25-14.031 12.637-2.367 11.133 8.82 16.937 9.652 23.441-17.219-19.234-33.614-14.214-36.902-7.863-11.38 21.965 20.836 33.609 13.832 51.254 18.898-7.309-4.02-27.902 11.469-27.676 15.222 3.668 12.168 14.887 5.324 27.676-5.043 10.59-21.039 15.078-30.39 14.902-8.25-.152-22.787 1.481-22.423-15.902 5.86-5.672 2.39-10.711-2.34-10.922-4.003-.18-8.722 3.434-3.007 10.281 2.968 13.672-9.875 16.079-16.056 16.262-9.026.27-25.097-5.387-30.233-19.129-3.993-9.887.145-14.637 1.987-16.469 2.091-2.07 10.285-2.757 10.298 6.227 1.821 13.219 6.59 15.504 11.778 16.231-3.77-5.946-1.619-17.743 2.877-32.411 2.375-7.738-1.425-15.054-4.636-18.422-3.403-3.566-18.836-12.339-33.366 13.707 1.625-10.882 4.347-16.746.776-22.25-3.352-5.167-11.813-3.921-20.852-10.109" style="stroke:none;fill-rule:evenodd;fill:#fff101"/><path d="M246.973 221.028c1.582-2.45-.235-2.11-1.868-.696-11.171 14.786-18.175 29.403-18.589 43.352-.351 11.898.188 25.305 10.644 35.105 3.11 2.829 4.324 1.903 2.91-.238-8.496-10.558-10.293-22.926-9.539-34.812.875-13.903 4.711-25.926 16.446-42.707zm16.586-1.063c.601-3.109-.852-1.918-1.977.031-5.629 12.493-10.43 24.762-11.98 38.739-1.504 13.551-1.899 27.386 8.214 46.32 2.883 2.727 3.375 1.637 3.211-.937-7.781-13.387-8.48-23.774-8.488-35.813-.004-15.98 5.422-31.43 11.023-48.34zm31.347 2.117c-.914-3.015.606-3.238 1.668-.687 20.258 25.926 27.367 52.062 8.481 78.625-2.778 3.453-4.051 1.808-2.203-.715 7.679-12.297 11.066-24.988 9.687-37.883-1.379-12.89-8.316-25.519-17.633-39.332zm-14.062-2.871c-1.227-1.3-3.145-1.504-2.309.817 8.012 19.582 11.953 37.648 11.305 54.008-.426 10.832-1.031 18.125-7.465 30.199-.977 1.898.898 2.613 2.426.215 6.758-10.321 9.652-22.317 9.179-35.77-.515-14.816-5.523-31.379-13.14-49.473zm-26.012-23.465q1.764.458 3.961-1.902c1.984 4.297 5.406 4.199 11.16.086 5.016 4.242 9.184 5.367 13.567 1.652l1.234.922c-2.766 10.371 7.918 16.758 12.461 21.231 23.629 20.07 38.691 59.121 13.723 81.855-13.907 12.418-32.09 12.926-36.321 24.649-.519 5.937 2.004 6.32 3.008 9.484 1.145 2.84 1.391 6.445-2.855 7.617q-6.275 1.23-10.832-1.367c-6.336-3.102-1.395-9.145 1-11.977 1.066-4.668-3.153-10.218-7.098-12.421-27.582-9.727-42.613-24.887-42.492-46.602.179-23.117 14.75-42.875 35.828-61.109 4.289-3.84 4.926-6.395 3.648-12.121zm35.777-8.246 2.434-.269c1.91 1.754 5.238 2.922 5.73 5.262-.726.761-2.421.562-5.082-.61-2.066-1.32-3.097-2.777-3.078-4.375zm-9.773.008q2.088-1.269 6.531-.277c.949 2.172 2.418 4.137 4.399 5.883-2.09 1.304-4.879 1.355-8.129-.379-.391-1.891-1.375-3.758-2.801-5.223zm-3.281-.183c-2.024-.52-3.965-.649-5.711.086-.59 1.71-.617 3.339.523 4.917 3.992 3.118 7.071 3.286 9.223.512-.528-3.422-2.692-3.679-4.035-5.519zm-16.09.269q3.3-1.514 6.699-.426-.4 2.774.227 5.114c-3.071 3.175-5.293 3.718-8.25.39.5-2.285.41-4.39 1.32-5.082zm-2.625-.234c-1.34-.516-2.899-.559-4.672-.117-1.691 1.433-5.371 4.695-5.77 5.765.473 2.297 6.274 1.567 8.93.176 1.289-1.836 1.383-4.188 1.512-5.824m-9.735-.082c-3.218.23-5.699 2.758-7.414 4.226-.73.617.036 1.567 1.657.922 2.609.176 6.398-3.363 8.117-5.203zM65.254 235.895c1.215-.168 2.176-1.242 2.875-3.231 3.617 3.161 6.754 1.782 10.37-4.136 6.407 1.968 10.736 1.418 13.25-3.617l1.529.371c1.741 10.488 14.288 12.265 20.355 14.625 30.215 9.347 60.297 40.894 47.577 70.074-7.323 16.719-24.733 23.355-24.304 35.426 1.981 5.601 4.481 4.996 6.722 7.496 2.24 2.152 3.966 5.343.517 8.015q-5.298 3.488-10.603 2.844c-7.151-.43-2.409-7.582-3.616-11.375-.946-4.652-7.586-8.016-12.153-8.531-29.585 1.558-49.8-6.559-58.699-26.375-9.426-21.113-4.129-44.606 7.82-69.168 2.375-5.117 1.907-7.684-1.648-12.414zm-8.817-5.551c-2.882 1.426-3.437 3.242-5.156 4.863-.418.844.711 1.684 1.946.485 1.636-.633 3.582-3.485 4.96-5.934l-1.75.582zm9.051-3.601q-2.186.047-4.379 1.652c-.972 1.945-3.695 5.254-3.015 6.226 1.39 1.911 5.707-.062 7.586-2.332a20 20 0 0 1-.192-5.543zm2.528-.778q2.426-2.625 6.03-2.918c.516 1.781 1.298 3.305 2.332 4.571q-2.284 6.077-8.464 3.207-.726-3.405.094-4.864zm14.789-6.324c-2.09.289-3.937.906-5.255 2.234.16 1.782.81 3.274 2.529 4.278q7.487 1.99 8.757-3.016c-1.91-2.918-4.02-2.332-6.031-3.5zm3.116-1.07q1.408-1.944 5.935-2.723c1.78 1.617 3.953 2.852 6.519 3.695-1.394 1.977-3.957 3.078-7.683 2.723-1.15-1.57-2.836-2.902-4.766-3.695zm9.048-3.7 2.14-1.164c2.497.875 6.063.68 7.489 2.625q-.532 1.46-4.962 1.36c-2.465-.422-4.018-1.36-4.667-2.821M83.39 254.645c-.73-3.059-1.587-1.422-1.817.773-.028 13.5.614 26.485 4.98 39.797 4.227 12.906 9.606 25.649 26.833 39.067 3.804 1.394 3.808.214 2.586-2.067-12.765-9.242-17.723-18.437-22.726-29.398-6.638-14.547-8.025-30.664-9.853-48.176zm-14.922 7.23c.445-2.828-1.098-1.828-2.02.071-4.21 17.679-4.629 33.636.77 46.492 4.61 10.969 10.68 22.969 24.43 27.941 4.055 1.399 4.796.098 2.597-1.316-12.25-6.402-19.047-16.985-23.285-28.094-4.957-12.988-6.395-25.383-2.488-45.094zm30.617-14.445c-1.68-.719-3.535-.18-1.796 1.617 15.55 14.801 26.694 29.762 32.886 44.899 4.097 10.023 6.567 16.89 5.616 30.316-.116 2.098 1.918 2.035 2.336-.719 1.974-11.949-.319-23.965-6.338-36.035-6.629-13.297-18.142-26.48-32.704-40.078m14.215-2.695c-2.097-2.399-.778-3.176 1.258-1.258 29.522 15.953 46.953 37.066 40.483 68.379-1.136 4.195-2.996 3.176-2.334.18 2.007-14.094-.118-26.93-6.748-38.149-6.625-11.215-18.293-20.094-32.655-29.148zm33.03 118.152-9.67 3.727c33.256 64.058 49.019 107.875 94.125 176.355l4.554 5.707c2.324.957 3.93 2.457 9.148 1.789-32.593-49.051-58.715-98.761-81.114-149.105-5.707-12.832-11.89-25.528-17.039-38.473zm327.173-131.176c-1-.457-1.238-1.359-1.109-2.203-4.2 2.949-7.661-.265-9.602-5.551-6.406 1.981-11.383.133-11.891-3.683-1.347.461-3.195.344-4.547.133-1.742 10.562-15.167 12.968-21.234 15.343-23.098 6.844-45.418 26.391-50.344 47.875-1.925 8.403 1.465 16.829 4.899 25.196 7.324 16.836 22.851 20.25 22.418 32.398-1.981 5.641-4.481 5.031-6.723 7.551-2.238 2.168-3.965 5.379-.516 8.07q5.299 3.512 10.602 2.864c7.152-.434 2.789-7.258 3.996-11.079.945-4.683 8.211-9.203 14.289-8.714 29.586 1.57 46.656-6.985 55.555-26.934 9.426-21.262 4.508-44.031-7.442-68.766-1.933-5.152-1.058-7.734 1.645-12.5zm-45.031 9.278c2.097-2.414.777-3.2-1.258-1.266-14.301 7.777-26.524 17.422-34.039 28.773-7.961 12.024-12.731 26.149-6.446 39.071 2.145 3.847 3.879 2.695 2.336.179-5.277-12.054.118-26.109 6.746-37.402 6.626-11.293 18.293-20.23 32.657-29.351zm13.211 3.597c2.683-1.98 4.543-2.191 2.05 1.504-15.55 14.903-26.445 30.344-32.636 45.586-4.098 10.094-6.063 14.742-5.118 28.262.747 3.621-1.414 4.566-2.589.406-1.977-12.031.066-23 6.086-35.152 6.628-13.387 17.636-26.914 32.203-40.606zm30.742 13.664c-.446-2.847 1.094-1.843 2.019.071 4.211 17.8 4.629 33.867-.769 46.812-4.61 11.043-10.68 23.129-24.43 28.133-4.055 1.406-4.797.102-2.598-1.328 12.25-6.445 19.047-17.102 23.286-28.285 4.953-13.078 6.394-25.559 2.488-45.403zm-14.164-7.281c.73-3.082 1.586-1.433 1.816.777.027 13.594-.613 26.668-4.976 40.075-4.227 12.992-9.606 25.824-26.832 39.336-3.805 1.402-3.805.214-2.582-2.082 12.765-9.309 17.722-18.567 22.726-29.602 6.637-14.645 8.024-30.875 9.852-48.508zm-13.879-40.109-1.34-.692c-2.496.879-6.863.203-8.293 2.16.355.977 2.008 1.274 4.961 1.211 2.465-.421 4.019-1.211 4.668-2.679zm9.527 3.64c-.937-1.304-2.598-1.496-5.613-2.019-3.578.578-5.172 1.754-6.918 3.078 1.394 1.988 5.398 2.777 9.125 2.422 1.148-1.582 1.476-2.68 3.406-3.481m1.836 1c3.211-.265 5.219.43 6.535 1.77-.16 1.793-.011 3.535-1.726 4.551-4.993 1.336-6.633 1.289-7.477-2.071.391-2.453.656-3.074 2.668-4.25m15.512 5.887c-1.621-1.762-4.11-2.902-6.512-3.098-.465 1.93-.281 2.739-.894 4.122 1.523 4.078 4.425 6.203 8.543 4.273.804-2.125-.586-4.316-1.137-5.297m3.086.781c1.457.032 3.476.907 4.937 1.985.973 1.957 3.137 4.968 2.453 5.949-1.394 1.926-5.707-.063-7.589-2.352q.482-2.79.191-5.582zm11.933 4.993c.965 1.433.715 3.023 2.433 4.656.341 1.25-1.671 1.457-2.905.246-1.637-.637-1.422-3.59-2.801-6.055 1.09-.258 2.18.121 3.269 1.149zm-221.07 116.824q4.775-1.33 9.551.886l.219 208.383c-1.446 3.867-.672 8.629-4.336 11.614-4.848-5.278-1.918-12.555-5.211-17.832l-.219-203.051zm128.098 16.98c3.472-.844 6.574.196 9.047 3.375-13.25 25.696-22.723 48.785-32.782 71.016-15.183 33.566-31.066 65.828-58.199 107.308l-4.555 5.747c-2.324.964-5.039 2.031-10.257 1.355 34.593-49.609 57.691-100.254 80.089-150.949 5.707-12.918 11.516-24.824 16.661-37.86" style="stroke:none;fill-rule:evenodd;fill:#fffdfd"/><path d="M6.168 6.172h528.234v338.215l-.301 11.777c-6.539 131.485-122.515 236.817-263.812 236.817-141.296 0-257.273-105.332-263.816-236.817l-.301-11.777V6.176zm256.555 531.379-1.141-2.07c-8.234-24.195-8.91-47.504-1.848-63.34-2.519-3.371-4.796-.66-7.199-.988-9.105-2.172-11.23-14.102-11.453-21.606-.195-6.621-.074-16.906 8.91-20.668 3.832-2.972 10.711-3.511 11.137-5.633-.047-3.464-9.211-1.82-9.149-6.261.09-6.504 8.86-14.953 8.786-20.364-3.094-1.835-9.598 8.372-12.696 6.532-2.73-1.621-2.054-15.297-4.785-16.918-3.332-3.235-4.656 31.812-12.191 25.23-15.074-13.172-4.903-41.828-8.453-45.269-2.86-1.953-3.778 12.765-9.562 11.66-4.375-.832-7.119-24.141-10.798-26.652-2.843 3.253.761 20.874-2.082 24.124-2.508 2.872-11.472-8.617-13.98-5.75.222 4.926 23.871 26.864 18.077 36.821-5.058 8.699-14.965-12.403-17.092-10.024-2.278 2.274 2.655 11.668.582 14.137-3.845 4.57-12.802-5.465-14.942.199 2.198 4.192 14.73 6.235 16.823 13.067 1.494 4.879-6.799 6.035-5.088 9.297 1.972.855 4.726.554 6.691.398 13.839-1.098 19.339 18.121 22.964 26.578 3.856 9 9.711 26.344-4.14 29.035 16.511 15.957 28.968 34.641 36.39 58.715-42.964-62.109-71.246-122.89-97.183-186.64q6.024-5.127-3.778-11.696c-6.058-2.847-4.199-8.664 1.258-15.832 19.55-12.871 23.946-28.211 22.852-44.445-9.403-34.625-35.14-46.227-59.742-53.981-7.316-1.976-11.993-5.398-14.035-10.253q4.675-1.347 5.758-4.856 8.9-1.525 4.855-5.937c-3.598-1.106-7.195-1.829-10.797-1.977-2.156.719-3.535 1.316-3.778 2.516-4.016.476-6.598 1.437-7.734 2.878q-5.127.358-9.535 3.598c-2.937.117-5.395 1.199-7.375 3.238q-3.597-.359-7.195 2.879c-1.496-.238-3.477.477-5.938 2.157-1.918 2.515-4.015 4.316-5.758 7.554q1.08 5.848 8.637-.539c.957 2.156 3.355 2.399 7.195.719.657 2.937.778 5.695-.359 9.535-4.496 16.313-11.695 14.633-13.855 48.762.593 26.633 12.289 46.668 48.402 52.183 9.413 1.676 28.551-1.5 28.609 5.036-1.827 9.625-1.05 16.164 7.554 14.394 14.146 31.57 28.938 63.258 45.649 95.113 13.849 26.395 26.075 50.032 47.039 82.243-11.108-9.25-21.042-22.844-25.003-36.18-4.312 2.801.16 5.891-8.148 6.641-8.395.757-20.125-8.18-23.692-13.434-21.388-31.52.925-31.637 7.418-39.906-1.433-3.223-11.144 1.824-13.552-2.493-2.207-3.96 4.955-15.718 3.11-19.867-3.222-1.808-8.304 8.805-11.375 6.746-6.875-4.605-4.741-15.789-7.965-17.597-4.442.328 1.407 16.691-3.722 23.511-4.673 6.207-15.528 5.672-19.196-2.539-14.925-33.41 19.185-41.589 18.383-46.023-1.769-3.414-15.948 2.434-17.101-1.234-2.563-8.168 8.039-19.383 5.754-20.621-5.067-.211-13.325 15.085-17.562 14.89-5.173-.234-8.138-17.445-11.926-16.117-2.689.133 1.055 9.961.324 18.219-.629 7.09-2.086 12.824-7.532 9.703-24.527-14.043-14.503-40.141-19.007-42.676-5.614-2.203-2.145 13.156-9.22 12.785C58.2 377.789 44.165 349.934 39.98 354c1.247 7.196 15.254 27.641 10.153 32.957-2.973 3.098-11.535-4.351-17.528-4.691-.316 4.402 16.688 14.766 23.993 23.605 15.261 17.243 14.754 26.829-8.797 25.223-3.426-.308-9.07-1.172-10.278.731.59 4.07 15.563 3.16 16.47 11.527.562 5.203-13.65 9.672-12.919 12.914 2.903 2.73 15.371-3.133 18.969.98 2.312 2.649-5.133 12.028-2.57 14.438 1.68 1.129 5.3-4.527 13.078-8.387 13.343-5.433 24.492-1.648 34.14 8.442 11.368 9.679 8.614 15.355-4.776 18.015-5.142 1.168-15.689-.711-15.427 3.504-.34 2.731 14.305.324 13.945 5.153-.484 6.566-15.469 9.246-15.855 12.343 3.554 4.52 22.113-2.195 27.988 1.504 4.571 2.879-1.668 11.582 2.207 13.77 3.532-.547 5.957-9.832 15.595-10.383 5.07.019 13.053 2.57 18.444 7.594 6.504 6.062 9.493 15.168 2.355 20.347-2.987 1.746-8.75 1.832-8.963 5.246 20.377 5.954 25.901-.754 61.5 14.067 12.342 5.14 58.218 24.105 67.937 24.281 22.265-4.5 45.785-14.82 69.879-24.922 35.597-14.926 42.07-8.879 62.449-14.875-.215-3.433-5.977-3.519-8.965-5.281-7.133-5.215-4.145-13.195 2.355-19.301 5.391-5.058 13.371-7.625 18.446-7.648 9.633.551 12.058 9.898 15.593 10.453 3.875-2.199-2.359-10.965 2.207-13.863 5.875-3.727 24.434 3.035 27.989-1.516-.387-3.117-15.367-5.816-15.856-12.43-.355-4.855 14.285-2.433 13.946-5.187.261-4.246-10.282-2.352-15.426-3.528-13.395-2.675-16.149-8.39-4.778-18.14 9.645-10.16 20.797-13.973 34.141-8.504 7.777 3.883 11.399 9.586 13.078 8.445 2.559-2.426-4.883-11.867-2.57-14.535 3.594-4.144 16.062 1.758 18.969-.988.726-3.266-13.481-7.766-12.919-13.004.903-8.422 15.875-7.504 16.466-11.606-1.207-1.922-6.852-1.05-10.277-.738-23.552 1.617-24.059-8.031-8.798-25.398 7.304-8.899 24.312-19.336 23.993-23.77-5.989.34-14.556 7.844-17.528 4.723-5.097-5.352 8.906-25.938 10.153-33.184-4.181-4.094-18.215 23.953-27.235 24.426-7.07.371-3.605-15.098-9.219-12.875-4.504 2.551 5.516 28.828-19.011 42.969-5.446 3.136-6.899-2.633-7.532-9.774-.73-8.312 3.016-18.211.325-18.343-3.789-1.336-6.754 15.992-11.93 16.23-4.238.195-12.492-15.203-17.563-14.992-2.285 1.242 8.317 12.535 5.75 20.762-1.148 3.695-15.328-2.192-17.101 1.242-.801 4.465 33.308 12.699 18.383 46.34-3.668 8.269-14.524 8.808-19.196 2.558-5.132-6.867.719-23.34-3.722-23.676-3.223 1.821-1.09 13.078-7.965 17.719-3.067 2.07-8.402-9.496-11.625-7.676-1.84 4.176 5.57 16.895 3.363 20.887-2.402 4.348-12.117-.734-13.551 2.512 6.489 8.324 28.805 8.441 7.418 40.179-3.566 5.293-15.297 14.293-23.691 13.528-8.309-.754-3.832-3.867-8.148-6.688-3.961 13.426-13.891 27.114-25.004 36.43 20.961-32.43 33.191-56.23 47.039-82.809 6.527-12.531 11.886-25.878 17.601-38.617 8.91-19.867 17.793-39.168 26.41-58.535 7.508 1.047 8.477-5.406 7.555-14.492 2.32-8.969 20.574-4.891 29.992-6.582 29.071-2.66 45.168-24.215 45.762-51.031-2.156-34.364-8.945-31.368-13.441-47.797-3.059-7.481-.778-8.813-.118-11.77 3.836 1.688 7.758 2.735 8.719.559 5.035 4.285 7.196 4.066 7.915.14-1.739-3.261-2.555-4.589-4.478-7.125-2.456-1.687-5.238-3.054-6.738-2.812-2.398-2.172-5.597-3.059-7.996-2.816-1.976-2.051-5.238-3.54-8.176-3.661-2.937-2.172-4.835-3.3-8.253-3.543-1.137-1.449-3.559-1.691-7.575-2.175-.238-1.204-1.136-1.25-3.297-1.973-3.597.148-7.835.07-11.433 1.187-4.297 1.915-3.559 4.469 4.297 5.094.719 2.356 2.156 3.903 5.277 4.809-2.039 4.89-5.035 8.012-12.351 10.008-24.598 7.808-52.641 20-62.043 54.863-1.09 16.344 5.988 34.101 25.543 47.062 5.457 5.329 5.683 10.559.378 14.309-7.039 4.406-9.015 8.586-4.152 12.027-7.187 16.547-14.75 32.008-21.809 48.344l-.828 1.801c-2.726-3.723-10.707 4.992-14.328.66-2.07-2.48 2.864-11.941.582-14.234-2.125-2.395-12.031 18.855-17.093 10.093-5.79-10.023 17.855-32.109 18.078-37.074-2.508-2.89-11.473 8.68-13.981 5.789-2.844-3.273.762-21.015-2.082-24.293-3.68 2.528-6.418 25.996-10.797 26.836-5.781 1.11-6.699-13.711-9.562-11.742-3.547 3.465 6.621 32.32-8.453 45.582-7.532 6.625-8.86-28.66-12.192-25.402-2.73 1.633-2.051 15.402-4.781 17.035-3.094 1.848-9.598-8.43-12.695-6.578-.071 5.445 8.695 13.953 8.785 20.504.058 4.468-8.899 4.988-10.715 7.664 2.938 1.113 8.863 1.316 12.699 4.312 8.989 3.785 9.11 14.141 8.91 20.809-.222 7.554-2.343 19.566-11.453 21.758-2.398.328-4.676-2.399-7.199.996 7.063 15.945 6.387 39.41-1.848 63.777l-2.082 2.961.129-194.578c5.082-2.535 5.914-7.008 2.145-12.258-6.035-5.605-1.93-10.293 7.715-14.187 23.14-8.149 33.507-18.977 39.25-32.532 5.808-35.621-12.805-56.086-31.985-72.562q-8.76-6.891-8.519-14.801 4.816.516 7.258-2.324 8.743 1.944 6.886-3.664c-2.812-2.387-5.793-4.41-9.008-5.91-2.261-.149-3.769-.114-4.484.902q-5.783-1.606-8.238-.254-4.816-1.6-10.176-.266-4.085-1.494-8.059.211c-2.082-1.125-4.578-.879-7.656.211-1.789-.523-3.187-.429-6.125.196-2.793 1.605-6.324 3.269-9.254 6.402-.961 3.883 1.992 3.66 8.348 1.617-.02 3.106 2.41 3.004 6.601 2.242-.617 2.969-1.652 5.571-4.285 8.696-10.863 13.41-16.722 9.136-32.851 39.929-10.942 25.325-9.134 48.821 22.41 66.614 7.875 5.109 26.613 9.394 23.957 15.472-5.66 8.223-9.129 14.574-.555 16.188l.731 194.113zm68.062-49.453.192-.258c14.101-26.293 26.808-53.008 36.843-77.031-3.929 3.297-13.5 5.836-15.324 11.836-1.492 4.914 6.801 6.074 5.09 9.359-1.973.86-4.727.559-6.691.403-14.149-1.309-20.071 17.761-22.965 26.761-3.731 8.766-9.336 25.399 2.855 28.926zm-1.777 3.281c-7.395 13.594-29.754 49.641-33.832 55.77 3.629-19.656 18.41-40.008 33.832-55.77m96.808-463.797c-8.128 26.286-19.41 38.805-28.359 83.723-3.758 18.859-5.824 37.637-6.793 57.246H150.031c-.965-19.605-3.032-38.383-6.793-57.246-8.948-44.914-20.23-57.434-28.36-83.723 9.466 9.024 33.115 4.411 33.25 24.387 14.235-12.168 33.317-6.418 35.974 8.934 2.625 15.195-11.926 25.828-3.332 46.48-7.176-.637-13.325-2.422-16.853-7.101-3.487-4.637-1.983-8.657-3.062-14.231-.906-5.668-5.511-2.101-6.481-.031-1.093 2.344-.746 6.691.748 10.754 6.14 11.804 18.952 16.379 25.116 17.344 7.433 1.16 17.364-2.368 14.813-12.856-7.438-11.348 2.696-13.094 6.948-13.094 2.599 0 13.168 3.942 4.771 13.426-1.875 11.512 15.41 13.563 23.668 12.668 8.253-.891 17.527-5.621 24.031-13.23 3.808-11.438 4.328-20.184-2.387-23.004-4.34-1.254-1.715 4.613-1.023 7.453 2.011 8.273 2.914 18.859-14.821 18.597 4.133-12.226-14.573-27.605-17.278-41.058-2.64-13.168 10.582-29.684 31.321-18.309-6.699-19.769 10.469-19.257 16.508-27.543.316-1.922 1.352-3.363 3.106-4.332h.886q2.63 1.448 3.106 4.332c6.039 8.282 23.211 7.77 16.508 27.543 20.734-11.375 33.964 5.137 31.32 18.309-2.699 13.449-21.414 28.828-17.277 41.058-17.735.262-16.836-10.324-14.821-18.597.692-2.84 3.317-8.711-1.023-7.453-6.719 2.816-6.199 11.562-2.387 23.004 6.504 7.609 15.777 12.339 24.031 13.23s25.543-1.152 23.668-12.668c-8.394-9.484 2.168-13.426 4.77-13.426 4.254 0 14.39 1.746 6.949 13.094-2.551 10.484 7.375 14.016 14.813 12.856 6.16-.961 18.976-5.536 25.117-17.344 1.492-4.059 1.843-8.406.746-10.754-.965-2.066-5.571-5.633-6.481.031-1.074 5.574.426 9.594-3.062 14.231-3.524 4.679-9.672 6.464-16.852 7.101 8.594-20.648-5.961-31.281-3.332-46.48 2.653-15.356 21.738-21.106 35.973-8.934.133-19.973 23.781-15.359 33.25-24.387" style="stroke:none;fill-rule:evenodd;fill:#11b1ee"/></svg>