<svg viewBox="-22.91 -26.73 590.54 721.67"><title>Herb Karczew</title><path d="M.015 0h545.738v433.305c-3.899 67.453-43.563 118.144-128.817 153.773-83.324 29.914-121.171 49.926-149.343 81.133-27.364-31.402-78.825-56.856-145.317-79.668C42.769 550.902-1.04 495.906.019 433.309V.004" style="stroke:none;fill-rule:evenodd;fill:#ec2a32"/><path d="M182.819 106.043c60.383-19.273 119.121-18.723 176.496-1.879 9.469-6.769 16.871-16.305 23.328-27.094 9.567-7.91 6.793-12.297 2.258-16.179-6.644-.875-9.281 4.261-7.902 15.425-4.516 5.493-9.031 8.219-13.547 9.032-6.164-.246-6.91-3.383-6.019-8.653.75-4.261 2.632-8.527 3.386-12.793q7.525-7.711-1.504-12.418c-8.175-1.144-8.418 4.754-7.523 11.664-.609 16.094-6.766 18.086-13.422 18.063-9.184-2.238-8.168-12.664-6.27-21.957 4.891-6.899 4.512-9.774-.628-12.66-6.395.625-8.278 4.261-5.641 10.91-1.406 17.215-7.309 19.906-12.801 18.566-7.023-1.757-8.269-8.531-7.515-20.824 5.418-8.168 2.523-12.051-2.633-13.168-7.399.367-8.778 6.27-4.137 13.168-.375 13.672-3.008 20.32-10.418 19.945-8.805-1.984-8.918-11.023-6.891-21.07 3.887-8.527 2.254-13.047-4.89-13.547q-10.725 1.692-4.891 12.418c1.629 12.168-2.762 19.567-10.164 21.699-10.156-1.191-12.914-9.218-13.539-20.949 3.781-8.043-.359-9.918-5.644-10.91q-10.161 3.382-3.762 12.793c3.91 14.199-.988 18.824-7.149 22.949-8.027-.433-11.414-7.332-13.168-17.304 5.082-9.762.891-12.555-3.761-13.172-7.278.25-9.035 8.293-4.512 12.793 2.008 13.484-1.504 19.379-7.523 21.824-8.782.25-11.29-7.906-12.043-17.692 4.914-9.046.011-12.679-4.891-12.41-6.449 2.02-7.965 7.184-3.008 13.172 7.934 13.32 3.531 17.824-2.633 21.07-9.547.016-12.929-6.132-15.425-13.171q4.887-12.04-5.266-12.039c-5.277.363-6.152 4.257-6.395 8.652 8.899 13.047 18.18 25.723 30.106 35.75zm6.274 2.258c55.507-15.176 109.445-17.512 161.945-1.254 2.758 4.262 1.504 7.527-3.762 8.781-50.676-14.426-101.855-14.297-153.539.375-4.058-.984-6.164-3.316-4.637-7.902zm9.781 10.289c53.281-14.617 100.508-12.016 145.762.121 2.757 7.398-.625 11.789-7.903 12.168-39.261-11.836-82.918-10.664-130.207-.75-11.16 1.129-12.543-4.637-7.648-11.535" style="stroke:none;fill-rule:evenodd;fill:#d2b587"/><path d="M99.585 361.855c-4.899 1.071-6.012 4.02-6.449 9.559 3.066 9.875 3.941 18.879 3.82 27.481-1.512 4.339-2.148 8.242-2.387 11.945q.116 5.374.24 10.754.712 2.508-.478 5.015-3.221 6.928 1.191 13.86 3.106 1.548 5.254.238c2.102-1.687 3.356-.828 4.778-.477 2.625 1.598 5.254.957 7.882 0 1.75-3.183 2.231-6.691 1.434-10.511-1.988-2.875-3.98-3.508-5.973-3.821-3.582-.636-5.257-2.867-5.015-6.691 2.226-2.473 4.461-2.711 6.691-2.625 3.113-.227 3.586-4.613 1.43-9.078-6.371-4.777-8.203-11.785-6.93-21.027 2.149-4.5 3.903-8.801 4.777-12.664q2.985-6.811-1.671-10.754c-2.629-1.75-5.973-1.352-8.602-1.192zm43.93-15.863c-12.817-17.711-14.543-37.008-11.231-57.027 2.879-6.625 4.535-12.84.504-17.16-5.219-2.289 2.949-26.903 5.543-40.727-.801-6.922-9.789-8.641-14.688-12.961-8.07-.746-21.031-.219-21.515-8.344-5.457-.906-9.914-6.586-9.586-13.253 4.031-3.454 8.434-6.168 12.469-9.625 5.648-6.645 13.129-10.157 17.781-11.844 1.351 4.316.226 6.777 2.578 11.097-2.301 1.438-1.629 3.997-3.934 5.434 13.024 4.309 20.711 3.41 23.809-7.164q-3.452-2.226-6.91 0-1.917-2.159-.863-4.316c5.906-3.473 11.5-4.465 16.414 0 2.66 3.382 4.531 7.562 10.367 7.773a36.6 36.6 0 0 1 14.687 0q3.359 12-5.183 12.094-5.18-2.591-10.367 8.64c-3.477-.027-6.692-2.968-11.231 8.641q-3.452 3.767-6.91 6.047c-1.191 2.105-1.793 4.086 1.727 5.183 4.734-3.484 8.73-7.449 11.48-14.906 3.18-2.629 9.68 4.461 10.98 1.946-2.14-5.868.125-8.965 9.504-10.227 3.453 3.453 8.063 2.449 13.825-1.004 5.468-5.473 6.335-12.094 2.589-19.871q-7.34-9.503-18.144-5.184c-9.559 5.528-18.094 4.27-23.328-6.047.574-2.878 2.64-5.757 3.215-8.636-5.184 6.91-11.856 9.215-17.039 6.91q-10.367 6.046-13.825 1.726c-2.59-4.316-1.726-6.031 2.59-10.355 3.168-.285 8.567-3.18 11.735-3.465 4.894-3.82 7.558-8.867 12.453-7.773 2.879 4.031 6.504 6.504 9.382 5.926 1.727-.575 2.711-1.895 4.438-2.469 1.437 4.32 4.031 7.488 7.773 9.504 2.774-9.032 21.981-9.004 24.536-.864 9.207 1.094 13.187 10.368 15.207 20.735q1.723 8.208 10.367 9.504c1.054 1.375-6.492 9.644-10.367 12.961q4.317 9.936 5.183 19.871c-4.031 8.351-3.453 13.25 1.727 14.687 3.492 4.817 7.601 8.41 8.64 18.145 12.254 38.187 80.286 28.773 109.735 21.597 36.648-10.648 77.84-10.07 92.453 32.832 4.531 28.739 9.57 53.942 16.414 66.532 3.598 5.57-1.266 15.41-3.707 17.16-5.207-.485-8.277-5.242-13.02-7.652-2.168-1.813-4.769-2.938-8.125-4.086-2.695-2.454-4.777-4.696-4.437-12.082-.973-.512-1.738-.407-2.301.304-1.023 2.504-1.797 5.114-.766 8.442q-1.612 2.225-4.449 3.836c-4.781 1.761-10.41 1.558-16.426.457-1.414-1.715-2.867-3.407-5.523-4.297-1.687-.305-2.555.406-2.605 2.148.257 2.098.308 4.145-1.075 5.832-.41 1.637-.363 3.121 2.914 3.528q2.915.839 5.219-1.379c4.676-1.965 11.535-.653 17.961 0 3.399-.895 6.676-1.407 9.672-1.075.93-1.179 1.414-2.05 1.453-3.23.164-1.313 4.074-.18 6.113.894 2.512 3.696 4.7 8.071 7.016 11.934-2.223.027-3.949 2.047-5.184 6.047.286 1.437.575 2.879.864 4.316q-4.272 1.101-2.59 5.184 6.504 3.264 2.59 9.504c-10.223 15.406-14.254 34.992-12.961 59.617-5.715-.562-10.555-.894-11.844 6.539 1.324 3.215-.938 5.317-4.57 5.555-4.543-.047-5.118 1.39-1.727 4.32 2.879.981 5.758 1.465 8.637 4.438-1.309 4.078-2.5 5.925-5.793 7.031-2.59-.367-6.301.254-8.891-1.102-5.687-1.074-6.597-6.117-4.316-10.367 6.234-16.617 13.187-36.008 20.734-55.297 4.36-16.418 1.731-30.804-5.183-33.695-1.457-2.859-3.598-5.039-6.047-6.91-7.586-3.934-16.348-6.688-25.918-8.641-19.188-3.656-26.563-19.594-27.887-41.113q-1.724.86-3.453 1.726c2.016 6.625 2.543 15.481 4.559 22.106-.575 1.437-.407 3.992-.981 5.433-3.184 3.918-3.641 5.36.117 4.317 3.535 1.933 7.567 2.258 12.094 3.203 2.16 3.836 6.941 5.93 12.094 7.773q-.86 3.452-1.727 6.911 6.48-1.724 12.961-3.454 6.07 1.22 1.727 6.911l-24.192 20.734c-11.109 10.23-18.812 19.527-19.008 26.785-2.941 12.656-9.109 19.11-19.992 20.856-2.383 1.797-6.008 2.589-9.383 2.468-2.558-.621-3.136.239-1.726 2.59q3.142 4.319 7.773 8.637c.719 4.684-1.199 5.398-2.59 6.91-2.589-1.117-5.183-.254-7.773 2.59q-1.724-1.295-3.453-2.59c.836-6.023-10.852.598-6.047-6.91 1.633-5.102 4.77-8.223 6.418-12.336 3.191.602 4.465-1.832 5.676-3.215-2.582-3.453.062-6.91 3.453-10.367 9.055-5.789 17.863-13.938 24.934-23.699 10.117-17.731 9.941-30.317 6.168-41.102-2.047-4.691-4.469-9.262-9.504-12.961-8.543 1.77-15.907.594-22.465-2.59-7.129 3.524-17.481 3.825-27.649 4.317-2.879.91-4.269.336-7.152-1.727-1.309-2.765-5.102-3.054-8.398-.863-8.965 2.246-11.829.137-13.825-2.59-1.578-2.301-.543-4.605.864-6.91 5.468-10.941 5.183-21.887-.864-32.832-3.425-.547-5.629.125-6.047 2.59 7.457 12.394 9.414 39.863-7.652 41.234-7.258 13.508-13.293 20.481-14.808 30.481-2.973-1.047-4.204 1.382-5.184 4.316.91 8.574 1.449 17.648-.609 18.289-2.141 3.918-4.411.895-4.571-.141q-.429-5.615-.863-11.23c-.941-5.617 2.086-4.871 4.316-8.375 1.743-9.168.016-14.613-5.183-8.902-1.391 8.675-3.656 11.254-6.047 12.961 1.976 9.504 2.594 19.007 2.59 28.511q5.062-5.518 8.64.864-1.723 6.475-3.453 12.957c-1.406 3.793-.832 6.093 1.727 6.91 3.328 3.812 2.629 8.5-.981 16.281-9.23-1.602-12.168 4.777-10.488 7.176-2.016.863-6.262 1.726-8.277 2.59 1.437 2.015 3.625 2.172 5.062 4.187q5.016.166 2.59 7.774-3.575 3.092-8.637 1.726-13.342.118-10.367-8.64c2.184-4.153 5.442-7.227 8.637-10.368 4.98-6.367 9.836-13.109 13.824-22.464-4.551.472-4.746-2.536-4.316-6.047 1.441-11.516 2.265-23.653 1.726-37.153.125-3.297-.734-5.597-2.59-6.91q-3.217-2.085-3.453-8.637c-.285-6.336-.574-16.019-.863-22.355-4.172-4.199-6.977-7.41-6.168-9.625-2.473-5.098-4.699-7.715-5.184-13.813-.863-2.972-1.878-2.972-2.742 0-.113 6.997 3.598 13.11 5.828 15.348-12.953-1-33.05-9.004-50.234-15.226-.91-1.153-1.449-1.559.609-2.711q11.544-2.736 21.598 3.453c.801-3.625.852-7.004-4.316-8.641q-6.048-2.589-12.094-5.183c-3.535 7.054-7.567 9.648-12.094 7.773q-2.708 5.016-6.91 2.59-4.752-1.724-9.504-3.453c-3.203-3.836-.309-5.93 3.453-7.774-4.894-2.199-9.789-.172-14.687 1.606-3.004.121-7.856 1.351-3.453-5.926 2.253-4.414 10.089-6.227 15.324-4.692 6.375 1.461 22 6.973 24.422-2.218zm55.324 38.438c5.019-4.504 9.492-7.641 13.812-10.391 2.41 10.973 9.383 16.957 23.02 15.652.469 4.282-3.242 6.282-6.707 8.418-2.446.145-5 .422-5.656-1.574-1.192-6.269-5.512-10.043-11.969-12.101-1.489-.305-2.981-.524-4.469-.129-1.711 2.019-3.418 2.804-5.129 3.418q-2.233-.852-2.891-3.286zm-23.512-168.114c1.633.836 3.184 1.797 4.149 3.645q.688 3.142 3.394 3.769c2.512.547 5.027 1.137 7.543 1.004 1.719.375 3.266-.418 4.652-2.386 3.903-4.262 7.657-8.825 13.957-8.297 3.059.562 4.653 2.07 3.016 5.656-2.199-.605-5.09.395-8.297 2.137-5.039 4.738-10.008 8.008-14.711 6.035-3.265-1.332-6.535-1.77-9.804-2.387-2.954-1.437-5.68-3.168-7.293-6.285-.04-1.969 1.085-2.934 3.394-2.891m8.777 101.719c-1.113 6.469-2.175 12.164-1.125 17.258-.593 6.191 9.911 4.957 4.145 21.445-.051.117-.078.082-.078.235 0 .636-.52 1.16-1.16 1.16-.637 0-1.16-.52-1.16-1.16 0-1.309 1.027-2.832 1.128-4.118.75-4.136-1.55-8.851-2.367-10.64l-.019.027c-.77-.679-.903-.859-1.25-1.781l.027.062c-2.805-3.507-2.082-16.433-1.375-21.535.742-5.465 1.922-11.925 5.637-17.543l.644-1.078-.008-.008c1.266-2.109 3.715-6.425 5.973-6.425.641 0 2.188-.118 1.16 2.761-2.703 2.285-7.843 9.43-10.168 21.34zm234.352 46.094c.715 1.074.633 1.273.633 2.5a1.16 1.16 0 0 1-2.321 0c0-.266-.015-.609.051-.856l-.011.012-.219-.301a1.162 1.162 0 0 1 .863-1.937c.43 0 .805.234 1.008.586zm-79.949-29.547c.855 1.227 2.027 2.559 3.086 3.777.254.18.461.422.605.7l.004.004c.129.257.203.55.203.859a1.93 1.93 0 0 1-1.926 1.926 1.92 1.92 0 0 1-1.527-.754c-.551-.5-2.902-3.399-3.562-4.278a1.4 1.4 0 0 1-.141-.195s0-.004-.004-.004a1.9 1.9 0 0 1-.293-1.019 1.926 1.926 0 0 1 3.555-1.02zm78.937 20.742c5.922-7.531 5.156-48.133-4.808-52.91l-1.922 1.199c6.094 5.571 7.777 16.875 7.453 30.782-.238 2.722-1.121 4.488-2.645 5.289q-1.8-1.441-4.566 0c-3.398 1.199-1.664 2.402-.961 3.605 5.852.481 3.527 11.945 7.453 12.024" style="stroke:none;fill-rule:evenodd;fill:#fffdfd"/></svg>