<svg xmlns="http://www.w3.org/2000/svg" viewBox="0 0 749.937 914.937"><title>Herb Oleszyce</title><g xmlns="http://www.w3.org/2000/svg"><path d="M0-13.867v639.174l15.736 24.61c41.63 64.712 165.25 158.026 292.132 220.647 29.864 14.738 57.302 27.334 67.132 30.803 9.83-3.47 37.267-16.065 67.131-30.803 126.883-62.62 250.502-155.935 292.132-220.648L750 625.306V-13.866H0z" style="fill:#c60025;fill-opacity:1;stroke:#000;stroke-width:5;stroke-miterlimit:4;stroke-dasharray:none;stroke-opacity:1" transform="translate(2.484 16.689)scale(.99338)"/><path d="M229.75 502.553c-52.372 18.675-68.068 62.655-60.79 96.77-37.444.927-30.798 1.805-109.999.199 1.363-44.077 24.812-166.365 153.106-182.198 96.331-17.147 104.159-19.78 137.644-111.006-1.98-80.28.3-154.259-.198-190.41-66.176 36.968-147.205 78.044-145.408 161.394-51.184-.716-60.46-.665-143.392-1.38C88.118 204.715 274.625 76.722 375 9.236 475.375 78.73 661.88 206.723 689.287 277.931c-82.933.715-92.21.664-143.392 1.38 1.796-83.35-79.233-124.426-145.409-161.395-.498 36.152 1.782 110.13-.198 190.41 33.486 91.227 41.313 93.86 137.644 111.007 128.294 15.833 151.743 138.121 153.106 182.198-79.2 1.605-72.555.728-109.998-.199 7.278-34.115-8.419-78.095-60.79-96.77-43.265-.174-247.236-2.183-290.5-2.01" style="fill:#fff;fill-opacity:1;fill-rule:evenodd;stroke:none;stroke-width:5.35714293px;stroke-linecap:butt;stroke-linejoin:miter;stroke-opacity:1" transform="translate(2.484 16.689)scale(.99338)"/></g></svg>