<svg xmlns="http://www.w3.org/2000/svg" viewBox="0 0 1062.8 1172.8"><title>Herb Recz</title><path fill="#ffec00" stroke="#1d1d1b" stroke-miterlimit="10" stroke-width="3" d="M101.5 101.5v539.9c0 237.4 192.5 429.9 429.9 429.9s429.9-192.5 429.9-429.9V101.5z"/><path fill="#faf3e1" d="m873.6 861.7-342.2 78.6L153.6 837V565h720z"/><g stroke="#ceba85" stroke-miterlimit="10" stroke-width="5"><path fill="none" d="M153.6 603.7h720m-720 52.7h720m-720 52.6h720m-720 43.6h720m-720 50.5h720M244 857.9h540.7M193.9 752.6V709m0-52.6v-52.7m35.6 0V565m84.4 38.7V565m0 91.4V709m0 43.6v50.5m-77.5-50.5v50.5m38-50.5V709m-80.5 43.6V709m35.6 0v-52.6m608.8 96.2v50.5m0-199.4V565m-83.9 0v38.7m0 52.7V709m42.6 43.6V709m-77.5 0v43.6m0-96.2v-52.7m-47.2 0V565m-30.2 238.1v54.8m77.4-105.3V709m0-52.6v-52.7m0 199.4v54.8m-147.8 0v-54.8m-110 0v54.8m-147.8-54.8v-50.5m79.7-148.9V565m138.1 0v38.7M343.3 752.6V709m0-52.6v-52.7"/><circle cx="248.8" cy="656.4" r="39.6" fill="#faf3e1" transform="rotate(-45 248.833 656.374)"/><path fill="#faf3e1" d="m248.8 656.4 16.1-40.8c-5-2-10.4-3.1-16.1-3.1s-11.1 1.1-16.1 3.1zm0 0 40.8 16.1c2-5 3.1-10.4 3.1-16.1s-1.1-11.1-3.1-16.1zm0 0-16.1 40.8c5 2 10.4 3.1 16.1 3.1s11.1-1.1 16.1-3.1zm0 0L208 640.3c-2 5-3.1 10.4-3.1 16.1s1.1 11.1 3.1 16.1z"/></g><path fill="#1d1d1b" d="M248.8 670.9c-8 0-14.5-6.5-14.5-14.5s6.5-14.5 14.5-14.5 14.5 6.5 14.5 14.5c.1 8-6.4 14.5-14.5 14.5"/><circle cx="785.1" cy="656.4" r="39.6" fill="#faf3e1" stroke="#ceba85" stroke-miterlimit="10" stroke-width="5" transform="rotate(-45 785.09 656.374)"/><path fill="#faf3e1" stroke="#ceba85" stroke-miterlimit="10" stroke-width="5" d="M785.1 656.4 769 615.6c5-2 10.4-3.1 16.1-3.1s11.1 1.1 16.1 3.1zm0 0-40.8 16.1c-2-5-3.1-10.4-3.1-16.1s1.1-11.1 3.1-16.1zm0 0 16.1 40.8c-5 2-10.4 3.1-16.1 3.1s-11.1-1.1-16.1-3.1zm0 0 40.8-16.1c2 5 3.1 10.4 3.1 16.1s-1.1 11.1-3.1 16.1z"/><path fill="#1d1d1b" d="M785.1 670.9c8 0 14.5-6.5 14.5-14.5s-6.5-14.5-14.5-14.5-14.5 6.5-14.5 14.5 6.5 14.5 14.5 14.5"/><path fill="#1d1d1b" d="m531.4 941.8-.4-.1-378.9-103.6V563.5h723v299.4l-1.2.3zm-376.3-106 376.3 102.9 340.7-78.2v-294h-717z"/><path fill="#faf3e1" stroke="#1d1d1b" stroke-miterlimit="10" stroke-width="3" d="M134 805.6v-31.4l-12.6-3.1q5.55 17.55 12.6 34.5z"/><path fill="#faf3e1" d="m941.4 771-40 10v42l-68.6 17.1v-42L757 817v42l-60.4 15v-42l-76.4 19v42l-55.8 14v-42l-33 8.2-68.1-17v42l-51.6-12.8v-42l-74.3-18.5v42L285.9 854v-42l-83.8-20.9v42l-63-15.7c67.3 149.7 217.6 253.9 392.3 253.9 192.3 0 355.1-126.2 410-300.3"/><path fill="none" stroke="#ceba85" stroke-miterlimit="10" stroke-width="5" d="m202.1 833.1 83.8 20.9m51.6 12.9 74.3 18.5m208.4 7.7 76.4-19.1m60.4-15 75.8-18.9m68.7-17.1 22.2-5.6m-25.6 48.5-366.7 91.3-366.7-91.3m366.7 167 310-93.7M232.2 950l299.2 82.9m-245.5-38.5v-29.5m-24.6-75v-84.3"/><path fill="none" stroke="#ceba85" stroke-miterlimit="10" stroke-width="5" d="M463.4 940.3v-42.1l68 17 33-8.2m-20.7 164.1 220-67.9m-414.8 27.6 167.6 40.5"/><path fill="#ceba85" d="M564.4 1022.9V949l91.3-22.8v69.1z"/><path fill="none" stroke="#ceba85" stroke-miterlimit="10" stroke-width="5" d="M365.2 1038v-51.1m21.5-65.7v-84m-210.3 31.6v-43.7m355 132.1v-84.1m0 198.2v-38.4m-68-18.9v44.5"/><path fill="#ceba85" d="M411.8 999.8v-72.1l82.1 20v74.8z"/><path fill="none" stroke="#ceba85" stroke-miterlimit="10" stroke-width="5" d="M607.3 1010v41.4m0-155.1v42m69.3 50.7v40.8m0-192.8v84"/><path fill="#ceba85" d="M711.4 978.2v-65.8l79-19.7v61.9z"/><path fill="none" stroke="#ceba85" stroke-miterlimit="10" stroke-width="5" d="M745.8 903.8v-42.1m0 147v-40.6m66.7-20.1v18.7m0-163.6v84.1m-489.8-24v42.1"/><path fill="#ceba85" d="M164.7 865.9c18.9 30.8 41.6 59.1 67.5 84.2l29.1 8.1V890z"/><circle cx="338.9" cy="944.3" r="34" fill="#ceba85" transform="rotate(-25.086 338.968 944.382)"/><path fill="#ceba85" d="M836.3 900.4c-3 13 1.9 26.1 11.7 34 12.3-13.3 23.8-27.4 34.4-42.2 2.6-3.7 5.2-7.4 7.7-11.2-3.7-2.9-8.1-5-13-6.1-18.3-4.2-36.6 7.2-40.8 25.5"/><circle cx="213" cy="913.4" r="10.8" fill="#1d1d1b"/><circle cx="338.9" cy="944.3" r="10.8" fill="#1d1d1b"/><circle cx="610.1" cy="974.6" r="10.8" fill="#1d1d1b"/><circle cx="750.9" cy="935.4" r="10.8" fill="#1d1d1b"/><circle cx="452.9" cy="975.1" r="10.8" fill="#1d1d1b"/><path fill="#1d1d1b" d="M531.4 1072.8c-84.8 0-166.8-24.6-237.3-71.1-68.7-45.3-122.8-108.8-156.4-183.7l-1.3-2.8 64.2 16v-42l86.8 21.6v42l48.6 12.1v-42l77.3 19.3v42l48.6 12.1v-42l69.6 17.3L566 863v42l52.7-13.1v-42l79.4-19.8v42l57.4-14.3v-42l78.9-19.6v42l65.6-16.4v-42l43.7-10.9-.8 2.6c-13.6 43.2-34 83.8-60.4 120.8-26.1 36.5-57.6 68.6-93.6 95.4-74.9 55.7-163.9 85.1-257.5 85.1M141.7 819.7c69.7 152.1 222.3 250.2 389.7 250.2 187 0 350.5-119.1 407.8-296.7l-36.2 9v42L831.3 842v-42l-72.9 18.2v42L695.1 876v-42l-73.4 18.3v42L563 908.9v-42l-31.5 7.9-.4-.1-66.2-16.5v42l-54.6-13.6v-42L339 826.8v42l-54.6-13.6v-42L203.6 793v42z"/><path fill="#1d1d1b" d="M866.8 895.4c-6 0-10.8 4.8-10.8 10.8 0 4.3 2.5 8 6.2 9.8 4.5-5.4 8.8-10.9 13.1-16.5-2-2.5-5.1-4.1-8.5-4.1"/><path fill="#faf3e1" stroke="#1d1d1b" stroke-miterlimit="10" stroke-width="3" d="M518.1 215.4c-53.6 0-97 43.4-97 97v33.3H615v-33.3c0-53.6-43.4-97-96.9-97z"/><path fill="#faf3e1" d="M448.3 313.1c-16.6 3.5-31.1 8.2-42.8 13.7v67c2 1 4.1 1.9 6.3 2.8V565h212.5V396.6c2.2-.9 4.3-1.8 6.3-2.8v-67c-10.4-4.9-23-9.2-37.3-12.5v24.3c-11.3-2.9-23.9-5.2-37.2-6.7v-23.8c-12.1-1.3-24.9-1.9-38.1-1.9-9.9 0-19.6.4-29 1.1V331c-14.5 1.2-28.3 3.3-40.8 6.2z"/><path fill="none" stroke="#ceba85" stroke-miterlimit="10" stroke-width="5" d="M624.3 400.9c-30.6-23.1-67.9-35.6-106.3-35.6-30.7 0-60.8 8-87.3 23.1m193.6 58.2C593.7 423.5 556.4 411 518 411c-30.7 0-60.8 8-87.3 23.1M624.3 500c-30.6-23.1-67.9-35.6-106.3-35.6-30.7 0-60.8 8-87.3 23.1m193.6 62.1C593.7 526.5 556.4 514 518 514c-30.7 0-60.8 8-87.3 23.1m15.7-57.5v-53.4m17.5 46.7v49.5m0-148.6v45.7m19.8 97.8v46.2m0-149.1v53.4m25.5-56.6v-45.7m0 148.7v-49.6m24.3 50V565m0-153.3v53.4m24.3-49.6v-45.7m0 148.7v-49.6m26.6 58v39.6m0-142.5v53.4m21.5-43v-45.3m0 148.3v-49.6"/><path fill="#1d1d1b" d="M525.2 381.1c-8.2 0-14.9 6.7-14.9 14.9v22.6h29.8V396c0-8.2-6.6-14.9-14.9-14.9m-38.7 69.1c-8.2 0-14.9 6.7-14.9 14.9v22.6h29.8v-22.6c.1-8.3-6.6-14.9-14.9-14.9m77.5 0c-8.2 0-14.9 6.7-14.9 14.9v22.6h29.8v-22.6c0-8.3-6.7-14.9-14.9-14.9"/><path fill="#1d1d1b" d="M625.8 566.5H410.3v-169c-1.9-.8-3.8-1.6-5.5-2.4l-.9-.4v-68.8l.9-.4c11.9-5.7 26.4-10.3 43.2-13.9l1.8-.4v24.2c11.7-2.6 24.4-4.5 37.8-5.7V306l1.4-.1c9.5-.7 19.3-1.1 29.1-1.1 13 0 25.9.7 38.3 1.9l1.3.1v23.8c12.2 1.4 23.7 3.5 34.2 6.1v-24.3l1.8.4c14.4 3.4 27.1 7.6 37.6 12.6l.9.4v68.8l-.9.4c-1.7.8-3.5 1.6-5.5 2.4zm-212.5-3h209.5v-168l.9-.4q2.85-1.2 5.4-2.4v-65c-9.7-4.5-21.2-8.4-34.3-11.6v24.4l-1.9-.5c-11.2-2.9-23.7-5.1-37-6.6l-1.3-.1v-23.8c-11.9-1.2-24.2-1.8-36.6-1.8-9.2 0-18.5.3-27.5 1v23.7l-1.4.1c-14.5 1.2-28.1 3.3-40.6 6.2l-1.8.4v-24.3c-15.3 3.3-28.7 7.6-39.8 12.8v65q2.55 1.2 5.4 2.4l.9.4v168.1z"/><path fill="#faf3e1" stroke="#1d1d1b" stroke-miterlimit="10" stroke-width="3" d="M276.6 264.4c-43.6 0-79 34.4-79 76.9v32.5h157.9v-32.5c.1-42.5-35.3-76.9-78.9-76.9z"/><path fill="#faf3e1" d="M342.2 364.3c-8.8-1.8-18.3-3.3-28.3-4.3v-17.1c-11.2-1.1-23-1.7-35.2-1.7-7.4 0-14.6.2-21.7.6v17c-12 .7-23.6 2.1-34.3 3.9v-17.2c-12.7 2.1-24.1 4.9-33.9 8.2v57.6c2.8.9 5.6 1.8 8.6 2.7v151H360V414.1c3-.8 5.9-1.7 8.6-2.7v-57.6c-7.8-2.7-16.7-5-26.4-6.8z"/><path fill="none" stroke="#ceba85" stroke-miterlimit="10" stroke-width="5" d="M359.9 414.1c-17.5-10.2-36.8-17.1-56.9-20.2-28.4-4.4-57.4-1-83.9 9.5m140.8 60.8C342.4 454 323.1 447.1 303 444c-28.5-4.4-57.5-1-84 9.6M359.9 511c-17.5-10.2-36.8-17.1-56.9-20.2-28.4-4.4-57.4-1-83.9 9.5m140.8 53.5c-17.5-10.2-36.8-17.1-56.9-20.2-28.5-4.4-57.5-1-84 9.6m13.7-47.5v42.8m0-139.7v50m56.8 40.2v42.8m0-139.4v49.8m44.8 99.5V565m0-112.9v46.8m-85.5 35.7v28.9m0-118.6v46.9"/><path fill="#1d1d1b" d="M277.9 459.7c-5.3 0-9.7 4.3-9.7 9.7v12.8h19.4v-12.8c-.1-5.3-4.4-9.7-9.7-9.7m-32.9-48c-5.3 0-9.7 4.3-9.7 9.7v12.8h19.4v-12.8c-.1-5.3-4.4-9.7-9.7-9.7m65.8 0c5.3 0 9.7 4.3 9.7 9.7v12.8h-19.4v-12.8c0-5.3 4.3-9.7 9.7-9.7"/><path fill="#1d1d1b" d="M361.4 566.5H195.8V415.2c-2.7-.8-5.2-1.6-7.6-2.4l-1-.3v-59.7l1-.3c10-3.4 21.4-6.2 34.2-8.3l1.7-.3v17.2c9.9-1.7 20.4-2.9 31.4-3.6v-17l1.4-.1c7.1-.4 14.4-.6 21.7-.6 12 0 23.9.6 35.4 1.7l1.4.1v17.1c8.9.9 17.4 2.2 25.3 3.8v-17.3l1.8.3c9.7 1.9 18.7 4.2 26.6 6.9l1 .3v59.7l-1 .3c-2.4.8-5 1.6-7.6 2.4v151.4zm-162.6-3h159.6V413l1.1-.3c2.6-.7 5.2-1.5 7.6-2.3V355c-7-2.3-14.9-4.4-23.4-6.1v17.3l-1.8-.4c-8.7-1.8-18.2-3.3-28.1-4.3l-1.3-.1v-17c-10.9-1-22.3-1.5-33.7-1.5-6.8 0-13.5.2-20.2.5v17l-1.4.1c-12 .7-23.5 2.1-34.2 3.9l-1.5.3-.3-1.8v-15.4c-11.4 2-21.8 4.5-30.9 7.5v55.4c2.4.8 4.9 1.6 7.6 2.3l1.1.3v150.5z"/><path fill="#faf3e1" stroke="#1d1d1b" stroke-miterlimit="10" stroke-width="3" d="M759.7 264.4c-43.6 0-79 34.4-79 76.9v32.5h157.9v-32.5c.1-42.5-35.3-76.9-78.9-76.9z"/><path fill="#faf3e1" d="M825.2 364.3c-8.8-1.8-18.3-3.3-28.3-4.3v-17.1c-11.2-1.1-23-1.7-35.2-1.7-7.4 0-14.6.2-21.7.6v17c-12 .7-23.6 2.1-34.3 3.9v-17.2c-12.7 2.1-24.1 4.9-33.9 8.2v57.6c2.8.9 5.6 1.8 8.6 2.7v151H843V414.1c3-.8 5.9-1.7 8.6-2.7v-57.6c-7.8-2.7-16.7-5-26.4-6.8z"/><path fill="none" stroke="#ceba85" stroke-miterlimit="10" stroke-width="5" d="M843 414.1c-17.5-10.2-36.8-17.1-56.9-20.2-28.4-4.4-57.4-1-83.9 9.5M843 464.2c-17.5-10.2-36.8-17.1-56.9-20.2-28.5-4.4-57.5-1-84 9.6M843 511c-17.5-10.2-36.8-17.1-56.9-20.2-28.4-4.4-57.4-1-83.9 9.5M843 553.8c-17.5-10.2-36.8-17.1-56.9-20.2-28.5-4.4-57.5-1-84 9.6m13.7-47.5v42.8m0-139.7v50m56.8 40.2v42.8m0-139.4v49.8m44.8 99.5V565m0-112.9v46.8m-85.5 35.7v28.9m0-118.6v46.9"/><path fill="#1d1d1b" d="M760.9 459.7c-5.3 0-9.7 4.3-9.7 9.7v12.8h19.4v-12.8c0-5.3-4.3-9.7-9.7-9.7m-32.9-48c-5.3 0-9.7 4.3-9.7 9.7v12.8h19.4v-12.8c0-5.3-4.3-9.7-9.7-9.7m65.8 0c5.3 0 9.7 4.3 9.7 9.7v12.8h-19.4v-12.8c.1-5.3 4.4-9.7 9.7-9.7"/><path fill="#1d1d1b" d="M844.5 566.5H678.9V415.2c-2.7-.8-5.2-1.6-7.6-2.4l-1-.3v-59.7l1-.3c10-3.4 21.4-6.2 34.2-8.3l1.7-.3v17.2c9.9-1.7 20.4-2.9 31.4-3.6v-17l1.4-.1c7.1-.4 14.4-.6 21.7-.6 12 0 23.9.6 35.4 1.7l1.4.1v17.1c8.9.9 17.4 2.2 25.3 3.8v-17.3l1.8.3c9.7 1.9 18.7 4.2 26.6 6.9l1 .3v59.7l-1 .3c-2.4.8-5 1.6-7.6 2.4v151.4zm-162.6-3h159.6V413l1.1-.3c2.6-.7 5.2-1.5 7.6-2.3V355c-7-2.3-14.9-4.4-23.4-6.1v17.3l-1.8-.4c-8.7-1.8-18.2-3.3-28.1-4.3l-1.3-.1v-17c-10.9-1-22.3-1.5-33.7-1.5-6.8 0-13.5.2-20.2.5v17l-1.4.1c-12 .7-23.5 2.1-34.2 3.9l-1.5.3-.3-1.8v-15.4c-11.4 2-21.8 4.5-30.9 7.5v55.4c2.4.8 4.9 1.6 7.6 2.3l1.1.3v150.5z"/><path fill="none" stroke="#e20613" stroke-miterlimit="10" d="M349.8 676s1.9-10.2 18.8 1.1m66.1-89.2s-3.2 16.7 18.1 10.3"/><path fill="#e20613" stroke="#e20613" stroke-miterlimit="10" d="M666.8 678.3c-5.5-3.1-3.8-14.2 3.9-21.9s8.4-19.9 3.7-23.9c-1.7-1.5-44.5-33.4-44.5-33.4-5.7 7.2-13.1 14.4-31.8 13.5-17.2-.8-16.7-8-17.1-17.1s15.3-14.2 18.1-5.7c2.1-8.3-14.5-20-28.6-8.7-14 11.2-53.6 8.1-53.6 8.1s-39.6 3.1-53.6-8.1c-14.1-11.3-30.7.4-28.6 8.7 2.8-8.5 18.5-3.3 18.1 5.7-.4 9.1.2 16.3-17.1 17.1-18.7.9-26.1-6.3-31.8-13.5 0 0-42.8 31.9-44.5 33.4-4.7 4-4 16.2 3.7 23.9s9.4 18.8 3.9 21.9-17.3 3.9-17.3-2.3v35.6s11.1 14.5 24.9 15c0 0 4 26.1-16.6 26.1 0 0 29.6 61.1 105.9 46.2 0 0 13.8 37.4 53.1 46.3 39.2-8.9 53.1-46.3 53.1-46.3 76.3 15 105.9-46.2 105.9-46.2-20.6 0-16.6-26.1-16.6-26.1 13.8-.5 24.9-5.7 24.9-15V676c-.1 6.2-12 5.4-17.5 2.3z"/><path fill="none" stroke="#e20613" stroke-miterlimit="10" d="M684.2 676s-1.9-10.2-18.8 1.1m-66.2-89.2s3.2 16.7-18.1 10.3"/><path fill="#e5dcb7" d="M644.9 660.1c.3-2.4.5-4.8.6-7-33.6-4.8-35.7-4.1-36-7.1-.2-2.1 6.2-2.4 35.8-2.7-.2-2.3-.6-4.5-1.1-6.4-28.6-.3-35.7-.8-35.9-2.5 0-.3.4-2.5 33.6-3.4-1.1-1.8-2.4-3.2-4-4-32.8-.7-29.4-7-47-7-15.7 0-24.5 8.2-24.5 11.9 0 9.2 23.5 12.1 8.2 23-3.4 2.4-8.1 3.7-12.9 2 5.3 11.7-8.9 14.5-22.6 14.7l.6-.2c-9.7-6.8-11-16.3-11-24.7 0-10-2-30 10.2-30.2 0 0-7.2-9.5-22.1-9.5-16.6 0-18.1 2.1-15.6 5.5 0 0-21.7 3.5-19.2 8.5 0 0 12.6-1.1 17.5 12.2 3.6 13.7.4 31.6-18.3 37-7.5-1.8-12.3-5.7-8.8-13.3-4.7 1.6-9.5.4-12.9-2-15.2-11 8.2-13.8 8.2-23 0-3.7-8.7-11.9-24.5-11.9-17.6 0-14.2 6.4-47 7-1.6.8-2.9 2.2-4 4 33.1 1 33.6 3.1 33.6 3.4-.2 1.6-7.3 2.2-35.9 2.5-.5 1.9-.9 4.1-1.1 6.4 29.6.2 36 .5 35.8 2.7-.3 3-2.5 2.3-36 7.1.1 2.3.3 4.6.6 7 23.8-2.7 34.8-8 34.9-5.2.2 4.4-8 11.5-33.1 16.3q.45 2.4 1.2 4.8c27.6-6.4 38.2-12.6 31.6-1.9-3.2 5.2-11.5 12-27.1 15.6 1 2.6 2.2 5.1 3.4 7.6 15.1-3.1 27.6-16.9 29.8-12.9 1.9 3.5-4.1 13.4-25.1 21.2 1.8 2.7 3.6 5.3 5.7 7.7 22.6-10.7 24.5-20 28.2-17.4 1.9 1.3-1.5 7.6-23 22.7 1.7 1.5 3.4 2.9 5.2 4.1 22.8-8 29.3-20 35.1-19 4.7.8-.4 12.1-21.9 24.7 27.7 5.8 39.5-23.8 48.1-25.6 3.7-.8-1.1 8.5-20.3 29.1-1 1.1-1 2.5-.1 3.6.4.5.8 1.1.9 1.6.4 1.3 0 2.6-1 3.6l-11.9 12.9c-5.4-2.6-13.5-3.5-22.9-1.1 0 0 24.2 6.9 24.9 21.1 5.3-4.8 6.4-9.7 4.6-13.8l.1.1 11.9-12.9c2.5-2.7 7-3.8 11.2-3.1 2 .4 4.2-.2 5.4-1.5l9.3-9.9c2.9-3.1 9.7-1.6 9.7 2.1v19.1s-8.5 21.7-31.2 10.7c0 0-.2 16.6 25.4 16.6 0 0-3 8.5-7.9 12 0 0 10.9 1.3 16.5-2.7 0 0 2.8 12.3 10.5 15.4 7.7-3.1 10.5-15.4 10.5-15.4 5.6 4 16.5 2.7 16.5 2.7-4.9-3.5-7.9-12-7.9-12 25.6 0 25.4-16.6 25.4-16.6-22.7 11-31.2-10.7-31.2-10.7v-19.1c0-3.8 6.8-5.2 9.7-2.1l9.3 9.9c1.2 1.3 3.3 1.8 5.4 1.5 4.1-.8 8.7.4 11.2 3.1l11.9 12.9.1-.1c-1.9 4.1-.7 9 4.6 13.8.7-14.2 24.9-21.1 24.9-21.1-9.4-2.3-17.5-1.5-22.9 1.1l-11.9-12.9c-1-1.1-1.3-2.4-1-3.6.2-.6.5-1.1.9-1.6 1-1.1 1-2.5-.1-3.6-19.2-20.6-24-29.9-20.3-29.1 8.6 1.9 20.4 31.4 48.1 25.6-21.5-12.6-26.6-23.9-21.9-24.7 5.7-1 12.3 11.1 35.1 19 1.8-1.2 3.6-2.6 5.2-4.1-21.5-15.1-24.8-21.4-23-22.7 3.7-2.7 5.6 6.7 28.2 17.4 2-2.4 3.9-5 5.7-7.7-21.1-7.8-27-17.7-25.1-21.2 2.2-4 14.7 9.9 29.8 12.9 1.2-2.5 2.4-5 3.4-7.6-15.6-3.6-23.9-10.3-27.1-15.6-6.6-10.7 4.1-4.5 31.6 1.9l1.2-4.8c-25.1-4.7-33.3-11.8-33.1-16.3-.4-2.8 10.6 2.4 34.4 5.2"/></svg>