<svg><title>Herb Lubraniec</title><path d="M525.461 0v322.578c0 344.097-525.461 344.101-525.461 0V0z" style="stroke:none;fill-rule:evenodd;fill:#222"/><path d="m131.145 125.757 9.093-1.839 29.442-18.043c2.723 2.816 15.359 20.785 17.441 32.48 1.028 22.855-3.226 19.895-2.793 36.723.141 5.562 2.078 7.363.891 17.211 2.949 19.074 2.441 20.476-5.402 24.214-.657.063-1.348 1.571-2.063 1.567-5.195.414-1.652 4.215-5.117 8.23-7.609 10.266-6.699 19.344 7.445 20.961 9.727.399 16.688 7.524 22.082 14.082 5.707 9.434 16.598 10.504 20.934 14.547 6.265 6.035 14.262 5.344 18.816 11.41 8.02 10.137 19.043 9.453 18.711-4.711-1.449-8.879-1.238-18.644 0-27.363 4.879-11.644-2.097-9.762-.094-20.797 1.204-23.847-8.035-32.105-28.257-45.656a6 6 0 0 1-.524-.547l.942-.769c-.922-9.391 2.832-11.426 8.718-10.114-2.148-8.211-2.523-14.504.309-17.34a11 11 0 0 1 .621-.527c1.387-.992 3.363-1.355 6.039-.965 1.223-5.207 3.813-8.441 9.418-7.324q3.61-7.578 9.418-3.484l5.23-.348c2.946-7.418 4.926-15.324 5.93-23.719-.351-10.715-5.812-7.207-8.719-10.812l-4.882-17.442 3.488-5.23q-.57-10.366 9.066-9.067 2.028-5.565 6.973-3.835c1.062-7.122 3.891-7.254 9.465-6a22 22 0 0 0 1.551 2.312c3.41 7.422 6.535 11.949 6.308 23.336l3.696 1.227 2.57-1.27c1.894 3.379 4.816 6.449 9.351 9.035 2.911 2.871 3.957 5.746 4.266 8.621l-5.664 4.633q-4.36 1.568-7.988-1.234c-2.848.414-5.211-.868-7.09-3.856q-4.032-1.617-5.145-5.426c-5.621 5.747-5.832 17.875 1.922 11.77 7.16 7.98 5.422 18.012-3.402 15.051.347 4.101 4.89 8.203 1.047 12.308-2.946 1.852-8.082 2.243-8.844 5.555q4.9-3.685 8.348 2.109c9.765.364 17.086 5.207 15.652 26.028l1.394 2.316c-2.671 3.055-4.601 6.301-4.41 10.559-7.175 1.207 4.606 10.941-6.144 13.344q-16.957 9.657-19.633 23.304c-.801 9.68 4.894 9.949 6.609 6.891 2.004-2.996 5.645-.942 2.907 3.262-8.336 19.546-10.657 22.726-8.727 37.246 7.285 18.531 17.098-4.489 41.051-19.52 11.215-8.473 12.738-1.105 22.012-11.949 1.671-1.488 11.789-14.527 12.89-8.961 11.949 5.625 17.973-3.145 16.656-20.715-.054-4.441-4.289-3.82-9.121-3.187-4.691-.528-9.781-4.313-14.476-10.157-.219-4.711-4.137-5.535-6.395-9.023l1.028-4.109 2.39-1.321.215-3.535 1.59-4.07 1.973-1.446 1.367-9.16 2.984-3.554 4.465-1.879 2.996.183 2.348 4.028c9.933-10.457 13.535-3.512 18.468 8.75l6.094.754c3.528 3.851 1.215 6.382 1.82 9.574 5.02.883 4.934 8.656 2.532 18.347-1.5.356-3.078 1.157-4.606 2.497-4.097 3.578-8.179 2.777-8.48 8.421l-.106 9.989c.903 4.769 3.52 5.836 9.946.765 2.918-2.504 6.937-6.996 9.179-9.66 2.539-3.363 2.782-6.551 1.672-8.828l3.211-10.602c-3.59.243-5.41-3.046-6.734-7.328l-2.789-.961-1.77-2.519-2.191-9.059c.414-7.019 2.363-11.691 6.554-12.929 1.54-6.473 4.016-10.641 9.832-6.547l3.434-3.313-1.043-12.32-6.68-.836-5.218-4.801-1.25-8.976 1.668-5.844.832-9.188 2.504-1.25 1.668-3.964 8.976-1.879 5.012-1.043 5.012 2.296 5.843.418 4.383 3.965 3.758 6.473 1.668 7.309-.832 8.976-1.879 4.594-2.297 2.086-5.219 11.066-1.879 18.586 3.34-2.297 4.801 2.086 1.668 4.594 4.176-1.668 2.504 1.043 1.582.824c-.383 9.016-1.313 15.539-3.282 16.543-6.285 3.645-1.714 7.985-8.097 13.141-10.52 5.922-1.676 21.508-21.492 22.215-19.707 1.273-13.446 21.488-35.403 19.093-7.211-.527-19.632 1.161-24.086 9.203-5.875 5.95-13.328 10.477-21.609 14.036-34.227 13.625-46.441 29.105-42.039 74.679 1.355 6.821 6.352 4.051 7.355.254 2.141-5.992 8.321-11.551 7.625-.5-1.304 8.231-8.019 12.907-6.628 21.535.234 10.2-4.903 8.422-4.86 17.985-1.125 13.246-1.269 26.496-.625 39.746.801 12.144 2.098 15.465 9.981 21.387 16.089 13.675 18.878-1.364 23.886 9.031 6.84 15.207 15.446 1.555 28.981 13.058 23.863 10.047 27.07.497 35.519-11.242 3.528-3.097 5.731-2.035 5.028 4.781-24.508 17.989-9.563 18.836-56.36 13.555-4.605 10.043-9.894 5.789-10.933.016-2.77-11.571-16.309.23-23.461-10.645-12.094-13.058-9.274 8.063-14.817 2.125-12.086-5.633-11.75 15.703.793 14.883 24.793-6.57-5.965 31.512 38.102 13.02 2.555-.176 3.437 1.504 3.172 3.453-3.61 4.343-8.465 6.82-13.492 9.035-11.047 10.098-18.321 6.73-23.02-5.844-.785-4.793-1.934-8.871-5.555-7.972-5.839 0 .375-7.086-9.257-7.438-3.969.086-10.317 1.324-12.7-1.328-2.847-4.551-6.136-3.969-10.054 2.125-6.578 13.535-12.75 15.008-19.313 15.68-7.168 6.343-19.887-.024-7.504-3.735 14.645-2.371 26.395-23.715 5.18-17.363-3.93.883-5.668-1.731 2.125-3.91 19.062-6.469 22.332-26.539 10.457-19.696-11.375 9.907-14.242 3.215-19.367 9.465-3.801 5.887-9.239 2.309-13.012 7.121-6.328 4.805-26.66-5.07-30.121 5.145-1.531 7.125-9.66 8.18-8.602-2.039.625-6.695-6.453-7.992-13.804-14.383-4.028-2.344-5.477-3.906-3.696-6.703 6-8.438 8.235-8.774 14.067.812 13.605 19.028 32.574.485 39.328 3.653 9.16 3.691 4.957-14.547 18.523-9.391 11.215.668 7.434-11.07 13.672-15.363 7.606-7.543 1.008-26.86 5.016-31.41 1.488-4.809 2.98-38.551-.684-42.907-9.597-8.91-5.277-16.945-15.441-25.281-4.961-3.32 2.805-18.98 7.172-15.304 5.597 2.871 8.621-3.254 4.453-11.504-12.598-13.192-28.973-17.047-42-30.36-6.469-4.472-12.09-8.523-16.863-9.586-19.829-16.601-28.493-2.168-38.5-12.144-8.332-13.055-30.332.718-24.817-12.145 6.692-11.855-15.308-7.191-15.273-17.894-1.719-11.809-17.297-8.782-19.727-29.403-.262-4.457-.933-7.234-1.844-9.132l2.16-54.469c4.376-2.797-.253-11.34 5.727-10.227 6.649.477 1.805-9.859 6.36-9.586 2.503.446 3.394-.636 3.179-3.515-.074-.977-.39-3.008.266-2.586l25.84 16.425zm-.262 93.344c4.324 6.977 15.562 24.649 25.688 16.469 3.55-3.492 1-6.824 6.339-13.281 2.93-5.598 1.075-9.696-3.496-9.879-5.144 1.41-5.984-4.813-9.836-1.754-2.804 1.59-3.203 3.933-9.507 1.097-9.301-4.16-12.196-1.105-9.18 7.356zm137.418-34.59c5.039-4.746 7.566 3.219 12.359-1.062 8.918-3.766 11.114 4.941 17.668 7.465 5.422 2.148 4.684 7.644-.386 7.855-6.997-1.434-10.293 5.199-14.77 9.793-9.406 11.652-12.238-6.465-18.441-8.144-9.868-2.083 1.543-13.532 3.57-15.903zm-12.75-118.398c.762-.067 1.559.051 2.394.379.758.312 2.59-.555 2.801-2.45.075-.203.149-.417.231-.632l4.152 4.394 3.137 11.512-4.184 2.441-4.883-7.324-3.652-8.32zm69.445 100.344c-1.379 4.578-4.222 8.035-7.234 11.148zm34.61-49.665c.734-.425 1.617-.695 2.683-.757.614-.067 1.098-.18 1.481-.328l2.707 4.871-2.086 12.527-2.297-2.504-2.488-13.805zm7.804-7.171c.45-.125.993-.223 1.645-.289 1.191-.114 2.199-.891 3.101-2.082l6.016 11.449-.207 5.636-2.297 3.965-2.297-2.715z" style="stroke:none;fill-rule:evenodd;fill:#a7715b"/><path d="M349.086 199.039c-.098-1.512-.316-1.528-.203-2.747.59-1.718.406-3.781 3.469 0 2.683 3.446 2.683 13.418 14.441 15.403 1.402.137 1.824.992 1.789 2.008-.863.086-1.781.207-2.719.328-4.691-.528-9.781-4.317-14.476-10.156-.09-1.965-.926-3.497-2.297-4.84zm2.481-7.36c8.031 6.426 2.293 13.977 18.023 17.43 7.211 5.016-.195-8.918-1.23-10.68-4.59-2.547-7.911-7.008-11.305-11.355-3.02-3.406-4.852-1.871-5.484 4.609zm4.589-10.23c5.11 4.644 8.547 11.656 13.321 13.941 3.918 1.797 4.14-2.172 2.683-8.769-1.328-3.653-3.238-6.614-6.043-9.668-1.601-1.422-.746-3.184-2.125-4.836-4.859-3.473-10.156 6.879-7.836 9.332m12.426-6.074c5.082 5.48 6.879 10.714 7.5 17.652.297 2.433 4.141 1.086 3.133-2.695-2.27-7.793 4.711-9.106-1.789-18.664-3.551-4.883-7.273 1.124-8.844 3.71zm13.102 9.894-.446 13.043c-.355 5.07 7.207-2.285 6.715-3.82-.672-4.469.903-4.102 1.731-5.731.887-1.34-1.93-1.312.73-4.051 2.348-2.062-8.918-6.671-8.73.559m.894 18.559c-.34 3.418-.457 6.343 3.692 4.945 6.105-3.234 10.703-11.324 6.379-15.855-1.344-1.911-2.09-1.571-2.239 1.011.539 4.274-2.925 6.785-7.836 9.895zm34.192 1.941c.242-3.523 5.601-.391 7.73 3.863-1.988.7-3.793 2.512-6.207 5.028-2.226 2.226-1.695-5.645-1.519-8.891zm-20.117-30.559c-1.067 3.411-1.657 5.993-.711 9.286 2.175 6.097 4.55 2.726 4.027.234-1.106-2.934-1.344-5.871-1.184-8.809.274-3.093-1.144-2.695-2.132-.711m6.476-10.269c-4.832 15.605 1.535 14.281-1.496 24.91 1.383 5.317 4.465 7.461 5.688 2.262 1.374-8.602-3.09-13.707.472-23.93.828-3.769-2.965-6.379-4.664-3.242m10.109-1.848c2.379 2.871 2.012 3.957 2.852 8.543-3.922 9.762.051 18.114-2.012 27.504-2.488 2.11-4.148.875-5.687-.832 5.211-7.969-4.824-26.476 4.847-35.215m5.11 13.188c2.609-7.09 8.625-.504 7.285 2.59-3.668 7.379-.574 16.589-6.219 22.175-.75.594-3.988 1.426-2.961-.832 2.774-9.023-1.644-17.73 1.895-23.929zm11.851.121c-6.113 7.551-2.66 20.484-8.179 25.953 1.261 1.227 1.933 1.742 3.199 2.977 6.418-2.227 4.387-12.329 8.887-19.168 1.656-4.922-1.5-11.231-3.911-9.762zm6.286 10.359c-3.493 5.739-2.383 13.02-6.282 18.453.391 1.086 1.399 2.196 2.504 3.016.438-.348.918-.672 1.453-.973 5.172-4.175 3.149-7.816 5.543-10.988.301-2.93 1.086-6.012 2.348-9.984 2.23-10.586-4.641-5.121-5.57.476zm-33.993-55.219c1.895 1.579 4.129 4.708 6.414 8.051-4.445 2.453-7.546-5.941-6.414-8.051m1.243-5.124c2.914 3.074 4.566 6.613 6.703 10.468 1.5 2.801 3.769-1.187 3.058-3.144-2.648-4.074-5.222-9.469-7.797-12.078-2.113-.778-3.277 3.437-1.968 4.757zm5.027-7.762c3.465 4.762 5.937 10.191 8.234 15.738 3.098 3.281 3.242.672 2.551-4.902-1.199-6.356-3.711-10.067-6.195-14.203-2.793-3.879-7.602.488-4.59 3.367m8.527-3.074c3.094 6.531 6.434 14.55 5.176 20.058-2.465 6.465 2.055 3.942 3.715.363 1.973-5.164-.524-15.75-5.609-21.378-2.817-2.852-4.348-1.852-3.278.949zm9.332 2.636c2.461 5.157 4.047 10.68 3.207 17.203-.558 4.149 2.16 3.586 3.496.586 2.02-7.41.598-14.234-3.207-19.695-2.816-3.586-5.148-2.437-3.496 1.902zm-33.297 89.903c4.653-2.27 9.102-.153 10.012 3.773l3.539-12.672c-3.176.27-4.195-.082-5.98-4.84-1.324-4.879-3.867-1.043-5.422-4.812-4.82-11.141.371-22.445 3.961-21.238 2.008-7.157 4.629-11.625 9.426-6.477 1.711-2.309 2.796-3.32 4.214-1.742.45-5.395-.05-10.797-.988-16.195-3.234.91-16.215-.876-11.488-17.844-.391-7.149.91-9.805 3.89-10.465-.949-4.481 5.629-7.172 9.411-4.352 2.363-2.769 5.839-3.656 9.593.274 12.414-5.582 19.891 23.855 9.922 30.394-6.156 10.2-8.07 19.325-6.371 32.668 5.004-5.148 9.317-.379 9.176 5.504 3.562-3.699 7.301-3.453 9.16.391.887-14.578-.023-37.668-.184-53.637-1.664-18.726-17.785-16.805-25.687-33.156-5.797-9.875-11.816-5.742-18.375-11.574-7.547-6.383-6.5 5.023-15.574 5.941-7.899.559-9.641 15.672-14.192 20.09 1.727 3.277 3.434 7.383 5.219 11.539.824 3.129-.449 9.711-2.215 4.004-1.726-5.332-3.484-10.16-6.164-14.246-5.742.98-.773 5.23-4.804 6.379.558 1.855 1.171 4.543 1.316 6.347.184 3.035-.379 13.352-2.024 4.301-.675-3.726-1.55-7.391-2.257-10.07-6.243 2.293-3.864 14.254-10.239 20.941-15.8 23.156-1.968 37.063-6.742 52.387.153 2.707.985 4.473 2.051 5.832q.603-4.711 3.574-5.566c.703-7.743 1.922-7.774 4.215-8.719-2.277-11.379 10.961-21.278 12.648-9.465 8.778-11.574 14.305-5.856 18.356 7.723 7.488-.864 9.551 3.191 7.543 7.566-.047 2.281.098 2.496 2.332 2.836 3.203 3.598 3.492 10.656-.859 18.176zm-82.019-23.817c-3.266-5.285-3.84-11.269-3.688-17.207-2.152-5.926-5.043-11.14-13.461-10.347-3.546-5.973-6.312-4.129-8.972-1.168 1.066-11.309 10.269-3.422 9.637-12.016-2.711-7.676-2.325-10.461 1.16-8.344q9.637-4.506 1.328-13.687c-1.824 3.125-3.653 3.121-5.481 2.672l-1.16-8.18c-1.734-5.043 3.699-3.063 4.985-10.016 1.273 4.781 3.21 6.899 5.816 6.34 2.215 5.082 4.43 4.371 6.644 4.004 4.77 3.809 9.063 1.879 13.024-4.066.508 1.914.562 3.828.496 5.746-.262 7.5-1.121 16-1.387 23.504 13.817 26.539-1.242 33.582-8.941 42.769zm-45.551 3.098c-1.094 1.293-2.312 2.848-3.269 4.43-2.352-.891-4.161 2.046-6.247 1.472-9.285-5.367 3.817-4.687 4.262-10.929.746-1.243 1.606-2.036 3.254.335.168 1.563 1.012 3.125 2 4.688zm36.152-22.949c-1.687 6.64-1.125 15.812-1.007 25.472 2.277 4.317 4.187 3.344 7.066-2.254-2.394-6.761-3.254-13.523-3.254-20.285-.484-1.578-1.117-2.554-2.805-2.929zm-5.027 25.769c-1.719-.972-3.144-2.344-4.547-3.66.586-8.469 2.578-17.906 2.727-26.391 2.094.411 3.254.825 4.148 3.043-1.304 4.653-.5 25.207-2.332 27.008zm-9.051-7.039a7.5 7.5 0 0 0-1.687-.535c.281-8.242.172-16.289-.055-24.277 3.215-4.547 5.195-2.481 6.617 2.589-.23 6.989-1.273 13.977-2.691 20.965-.813.418-1.488.836-2.18 1.258zm-10.34 1.574c.969.047 2-.261 3.168-1.308.957-.403 1.84-.664 2.661-.805.671-8.055.004-15.969-.043-23.144-.297-6.348-1.645-4.77-4.938-.899 1.242 9.488-.195 17.031-3.141 23.219 1.422.848 1.985 1.867 2.29 2.941zm-8.574-29.886c1.813 16.785.434 20.347-2.804 23.554.07 1.727.742 3.832 2.019 4.957 3.699-1.8 5.309-4.507 5.723-7.211 1.644-6.234 2.578-11.304 1.793-18.257-2.055-6.122-4.676-7.137-6.731-3.043m-7.742 1.015c1.723 6.688 1.086 13.375.109 20.063-1.101 4.64 4.469.922 5.274-4.508.801-5.223.465-9.543-.223-14.766-.183-5.722-3.777-5.429-5.16-.785zm-9.09 8.793c2.375 4.684 3.051 8.121 1.235 15.215-1.309 3.492 2.39 4.617 4.148.109.746-6.199 2.953-10.82 2.242-18.597-2.972-9.488-8.211-3.567-7.629 3.265zm-6.957 13.188c.203-6.254-.879-9.672-.894-13.188 1.422-4 5.496.926 6.507 5.973 2.731 8.789-5.722 12.211-5.609 7.211zm70.946-71.242c.808 1.097 1.621 2.835 2.433 3.933q-2.433 2.286-4.867 4.57c-3.469-.207-5.949-.632-1.481-2.55 1.243-1.078 2.661-3.739 3.918-5.953zm-5.504-4.465c1.023 1.027 1.621 1.843 2.644 2.871-2.113 2.265-3.172 4.324-6.14 6.594-2.469.707-3.282-.993-2.223-2.125 2.406-2.106 4.152-4.661 5.715-7.336zm-5.403 1.804c-1.761 2.055-3.527 3.473-5.293 5.528-.918-1.024-1.558-2.367-.211-5.953 2.231-3.051 3.848-.86 5.504.421zm-17.789-22.867c1.66 5.301 4.711 10.172 6.781 14.945 1.149 9.77 4.903 7.25 3.434-1.476-.914-5.051-2.543-9.918-3.969-14.848-1.676-4.535-5.91-2.871-6.246 1.379m-6.246 4.043c4.449 7.07 6.574 14.824 6.613 22.664-.562 8.379 6.094-3.101 4.184-8.199-3.168-5.777-4.914-11.344-7.516-17.441-2.203-.317-3.05 1.027-3.281 2.976m-8.047 6.488c-3.301-3.375 3.934-9.562 5.926-3.722 4.66 7.543 6.441 12.625 5.609 22.226-2.386 1.707-4.828 1.93-6.351.211.09-7.156-.481-12.41-5.188-18.718zm-3.812 4.149c1.34 3.367 1.902 8.047 2.113 12.547 1.023.816 2.047 1.281 3.07-.742-.207-4.29-.664-8.543-2.855-12.547-1.656-2.09-2.363-2.266-2.328.742m-35.672 93.891c.047-3.184-.035-5.692.949-9.051.555-2.082 4.883-4.227 7.172-1.528.699-3.382.476-5.515-.121-8.808-1.797-9.836.953-11.731 7.844-9.86 1.07-7.828 5.562-10.035 9.437-7.179q3.154-9.546 8.293-3.446c2.07-1.761 4.094-2.332 6.004-.285 7.055-16.492 10.312-35.457.895-36.207-4.43-.351-4.641-3.148-5.188-6.883.02-3.699-.551-6.957-1.715-9.765-1.562-2.293-.004-4.324 2-6.317.68-5.902 3.121-9.57 9.438-8.328 1.8-2.484 3.894-3.636 6.289-3.445 2.304-8.168 5.652-7.445 9.152-5.457 3.867 8.519 5.656 17.043 7.148 25.566 1.825-1.383 2.778.035 4.305 1.082.711-.785 1.735-1.695 2.602-2.547-1.051-1.8-1.805-3.691-2.348-5.648-1.617-12.59-9.285-13.68-13.086-22.508-3.015-8.254-13.637-7.238-19.234-14.34-6.567-6-10.535 3.383-12.692 9.36-.211 1.894-2.043 2.765-2.8 2.449-3.039-1.191-5.61.34-7.594 3.922 4.699 5.027 6.769 12.422 6.316 15.535-.625 2.168-3.402 1.191-3.722-.746-.965-5.879-3.379-10.164-7.371-14.016-1.008.492-2.676 1.129-3.516 2.606 2.293 4.957 5.484 14.136 5.601 20.523.383 3.379-2.523 3.297-3.464 1.66-.118-4.465-4.313-26.894-11.211-20.773-3.735 3.312-3.114 9.793-8.325 13.73-8.281 9.172-5.605 13.395-5.683 28.176-2.942 3.395-.375 13.082-4.625 16.641-4.305 5.168-6.297 11.5-3.199 20.387.867 9.886-1.571 17.48.964 19.976 3.68 3.625 2.079 5.117 8.676 9.352 3.5-.891 7.614 1.785 11.481 5.293q.668.445 1.32.886zm23.754-123.379c2.422 3.011 4.238 6.086 5.511 9.507-.734 3.977 3.411 5.817 2.344-1.007-1.558-3.793-3.246-7.114-4.785-9.676-.609 1.14-1.875 1.629-2.473 1.379a6 6 0 0 0-.593-.2zm-82.36 114.187c1.008 8.754 2.805 21.449.61 29.793-.063 6.613 7.707 1.031 5.98-5.269-.426-7.356-.551-13.239.363-19.86.973-5.09-4.222-13.121-6.953-4.656zm-13.914-.246c5.223 7.293 2.953 21.293 3.414 32 1.586 4.086 6.672 3.801 8.911-6.004.687-11.613-1.262-18.215-2.684-25.254-1.156-4.062-3.148-6.027-5.977-6.742-1.504 1.305-2.48 3.387-3.66 6.004zm-10.375 3.801c1.813 7.465 3.684 14.906 2.196 24.027 1.097 3.555 5.652 4.289 8.054 2.574.602-9.886.422-19.777-3.539-29.668-3.664-5.949-6.062-2.136-6.711 3.063zm-7.566.98c3.496 7.438 2.766 15.364.73 23.781.121 3.106 1.707 3.719 3.782 1.59 3.57-7.515 2.898-17.613-.852-26.359-.98-3.609-5.539-4.68-3.66.98zm-7.813 2.699c3.176 5.606 3.297 13.512 2.563 22.067q.608 1.284 2.195.121c1.836-9.629 3.086-17.914 0-25.254-2.812-1.973-5.539-2.836-4.758 3.063zm-6.105 5.391c-.063 4.574-.469 9.152.852 13.731 1.503 2.871 3.089 2.089 3.902 0 .324-4.719.203-9.215-.121-13.606-1.707-2.164-3.985-1.961-4.637-.121zm-17.066 14.832c1.578 3.59 2.218 7.942 1.691 12.137q.453.901 1.355 0c.524-3.856.375-7.41-.902-10.664-.602-.793-1.543-1.586-2.144-1.473m-3.165-17.015c-.187 1.472-.3 2.949.11 4.421.488 1.739.828 1.661 1.015-.226v-3.856q-.562-1.529-1.128-.339zm-7.793 2.042c4.5 8.489 5.305 20.055 4.258 28.762.715.602 1.84 2.258 2.555 2.863 2.703-3.132 2.305-10.898 1.086-17.671-2.09-4.68-3.441-9.727-3.727-15.313-.035-2.617-3.761-3.23-4.175 1.359zM98.5 216.031c-.008-9.031-2.176-15.637-4.305-22.274q.845-1.811 3.5-.453c2.911 7.969 5.528 15.672 4.942 25.77-1.324-.965-2.738-1.926-4.137-3.039zm-9.051-21.598c-.02-.699-.023-1.719 1.239-1.133 1.215 5.364 2.91 10.598 3.726 15.996.07 1.2-.043 1.957-.351 2.27a22 22 0 0 1-1.067-1.57c-3.457-5.856-3.761-10.93-3.547-15.563m79.293-73.691c2.875 4.953 4.555 9.246 4.223 15.176-.379 6.73 11.305 9.25 9.801-.317-1.578-6.105-6.649-11.738-8.567-16.367-2.929-7.066-6.699-5.891-5.461 1.508zm-6.886.898c1.953 7.289.422 11.11 1.656 16.008 2.141 5.57 5.16 6.555 6.629.894.676-6.093-.824-12.437-4.59-18.187-2.293-2.133-3.781-1.707-3.695 1.277zm-7.012 3.203c.977 4.778 1.359 10.16 1.656 15.625 2.383 4.715 3.91 2.828 3.953 0-1.707-6.859-.402-9.879-2.55-17.293q-3.06-4.031-3.059 1.664zm-5.996 2.563c.265 5.32.504 9.308 0 14.855 1.105 3.125 4.293 4.028 4.078 0-1.348-5.121-1.371-10.246-1.02-15.371-.507-2.902-3.312-3.371-3.058.512zm-61.176 62.476c1.176-1.273 2.434-1.89 3.988-.121 1.57-2.16 3.368-3.906 6.782-.894 1.949-3.106 4.902-4.762 10.492-4.051-1.422-7.602-6.578-12.457-10.274-15.492 1.414-3.035 5.586-1.61 8.528-1.074q4.548 5.378 4.82-.715.71-7.349 7.141-4.66 14.102-.718 2.5 16.496c2.824 3.464 3.804 8.074 4.355 11.543 1.309-2.567 3.375-4.606 5.637-3.829-1.621-7.367 2.605-8.437 7.676-8.605 2.675-1.738 5.41-2.938 8.566-.355 3.629-7.555 7.258-5.454 10.891-1.973 3.004-10.938 1.097-20.559-3.036-29.586-4.343 5.019-7.378 2.809-9.816-2.688v-16.136c-1.262-6.891 2.074-7.899 6.07-8.071 1.246-2.695 2.731-4.851 5.891-3.226 2.254-1.848 4.445-3.973 7.676-1.434 2.437-4.676 6.379-7.984 9.394-.738 2.879 7.059 9.985 13.645 11.2 24.055.503 2.898-3.356 10.863-11.672 5.379-2.391-.165-2.879.937-3.746 1.793q3.566 14.97 2.855 31.382c4.699-7.351 8.094-4.84 10.891 2.149-.442 11.195-.516 21.418 1.164 26.926.441 6.25-2.11 9.484-7.672 9.703q-1.869 1.441-1.586 2.672a6.5 6.5 0 0 1 1.344-.231c11.492.059 15.394-8.598 9.683-25.598-1.211-6.148-1.672-11.461-1.812-17.023-.434-16.824 4.008-11.09 2.976-33.949.133-9.477-2.199-15.918-6.586-19.844-6.695-6.875-8.722-13.75-8.132-20.625-1.25-15.867-6.735-21.137-18.7-26.648-11.687-6.313-17.215-4.754-25.597 6.48-5.332 7.981-11.399 13.231-11.321 20.469-.054 3.433-.109 6.863-.168 10.301-.129 5.781-3.976 3.754-3.636-.661.793-6.867-8.633-6.886-9.391-.484 2.977 4.801 6.254 10.109 8.172 15.594 1.512 5.504.008 9.683-3.168 1.246-1.578-4.191-4.02-8.117-6.43-11.883-.465.133-1.054.133-1.781 0-2.348-.137-2.195 2.547-2.41 5.113 1.848 4.836 4 10.082 5.805 14.864.55 4.375-.434 3.343-1.641 1.539-2.07-3.836-4.504-8.157-6.61-12.039-.417.109-.913.152-1.5.109-4.023-.75-3.242 2.875-3.636 6.176 3.69 4.195 7.14 8.801 10.105 13.226.098 4.426-1.683 4.411-3.183 1.118-2.356-4.012-5.547-7.325-8.65-10.559q-.167.135-.358.258c-5.524 4.898.309 7.613-7.637 13.101-7.125 2.387-7.222 22.758-2.914 32.016 2.75 5.348 6.313 4.84 8.46 9.508" style="stroke:none;fill-rule:evenodd;fill:#3ba66d"/><path d="M385.207 220.328c-.019 2.257.281 2.429.258 4.687-.41 5.43 2.109 3.41 6.164-.027 1.84-1.699 4.375-4.742 5.789-6.551 4.879-4.754-.625-10.145-5.66-4.918-2.465 2.563-5.922 2.211-6.551 6.809m-114.734-32.817c2.609-3.586 4.984 6.699 12.422.938 6.82-4.492 5.457 2.761 10.609 4.668 5.133.941 4.067 2.961.078 3.117-6.66.949-8.867 4.992-11.906 9.047-6.172 10.359-8.207-5.192-13.922-7.121-6.746-.989 1.906-8.41 2.711-10.653zm-135.742 31.332c4.429 5.766 15.394 21.391 19.902 13.887 1.52-4.66-.242-4.805 3.684-9.562 2.156-4.122 4.398-8.348-2.137-6.29-3.227-.16-3.324-4.843-6.481-.96-7.484 5.503-20.035-8.743-14.964 2.929zm-20.5-115.898c-3.153-6.063 6.797-17.246 12.254-25.418 8.574-11.5 14.949-14.77 26.914-8.309 12.246 5.641 22.152 10.793 23.433 27.035-2.199 20.68 14.86 17.852 15.781 42.86.575 28.426-1.398 17.597-3.046 34.746-.567 5.933 1.57 15.922 2.812 22.219 3.934 17.398-2.203 25.3-12.058 25.242-5.797-1.488-.5 4.074-5.477 8.902-5.82 7.57-4.77 13.145 9.289 13.547 9.953.41 16.84 8.656 22.363 15.371 5.84 9.652 17.778 9.84 21.426 14.891 5.395 5.152 14.02 5.125 19.02 11.679 4.625 7.008 10.257 4.86 9.129-2.66-.895-9.086-.512-18.601 0-27.527 4.996-11.918-2.145-9.992-.098-21.285 1.234-24.41-9.418-31.18-27.731-43.375-5.804-5.922-7.226-1.676-9.812-4.047-7.461-5.098-9.668-10.016-10.582-12.383-1.16-7.828.855-11.285-.031-21.402-3.172-9.098-1.133-16.055 3.273-21.348 4.348-3.641 1.004-12.117 4.016-15.594.078-15.129.203-22.324 8.683-31.714 5.328-4.028.637-8.266 7.563-13.098 5.851-4.156 5.691 2.332 10.242-2.402 3.164-5.555 6.461-1.04 7.055-2.497 2.136-7.23 6.394-1.277 8.605-5.753 2.203-6.114 9.731-17.45 16.457-11.309 5.731 8.707 18.512 8.148 21.598 16.598 3.886 9.035 11.023 8.472 12.679 21.359 1.555 5.605 3.61 10.465 10.579 14.437 4.203 4.145 7.23 8.051 7.089 12.196-.269 7.676-1.148 18.773-1.418 26.453 18.844 33.34-13.953 41.012-13.191 55.465-7.344 1.238 4.238 12.156-6.766 14.617-10.136 5.633-15.402 9.269-18.898 17.621-3.207 8.949.477 8.504 1.754 5.137 5.152-3.547 11.547 3.226 8.742 7.535-2.48 3.297-13.934 23.516-9.937 35.844 2.785 11.347 6.8-4.797 35.648-21.844 11.981-6.141 13.793-2.145 23.285-13.242 1.711-1.524 12.063-14.867 13.192-9.172 5.343 6.848 14.863 4.371 13.265-12.594-.054-4.547-3.887-2.644-8.832-1.992-4.801-.543-10.515-5.684-15.32-11.66-.309-6.559-7.617-5.762-8.117-14.477 4.882-15.679-8.625-33.258 7.547-56.961 7.097-7.441 3.589-21.281 12.378-21.812 6.383-.719-.839-6.082 6.922-6.86 6.629-.64 8.633-21.468 17.957-22.129 9.286-.941 8.922-13.328 16.645-6.793 6.715 5.969 14.992 2.446 20.93 12.555 8.086 16.735 25.648 14.41 27.351 33.582.242 24.742 2.61 69.715-2.668 72.406-6.433 3.731-1.758 8.172-8.285 13.45-10.769 6.062-1.719 22.015-21.996 22.734-20.172 1.305-13.41 21.992-35.883 19.543-7.379-.543-20.094 1.895-24.652 10.133-30.879 25.621-68.52 15.449-63.028 84.41.758-7.168 17.375-19.277 16.043-.25-1.336 11.973-8.211 13.211-6.785 22.043.239 10.437-5.019 8.621-4.976 18.406-1.149 13.559-1.301 27.117-.641 40.68 2.41 11.363 1.617 9.32 8.449 16.211 16.469 14 14.024-3.168 24.45 9.246 7 15.562 12.98 1.238 26.835 13.012 24.426 10.281 23.465.507 32.114-11.508 5.258-6.07 16.465-1.195 13.625 9.508-25.086 18.41-13.672 24.25-59.805 16-5.094 10.664-16.691 6.488-17.195.015-.008-12.195-14.574.946-21.895-10.187-8.137-13.012-5.961 8.961-11.633 2.883-8.484-4.704-7.785 7.91 5.051 7.07 23.914-3.078-7.769 29.207 35.465 11.199 1.535.277 6.77 8.074 3.906 13.66-21.261 14.219-35.344 23.289-42.976 1.653-.809-4.903-1.977-9.078-5.684-8.161-5.976 0 .383-7.25-9.476-7.613-4.77-.621-7.504 1.946-8.758.41-2.918-4.656-4.516-6.547-9.231 3.95-6.734 13.855-17.64 13.586-24.363 14.273-7.336 6.492-21.414-8.543-8.742-12.34 14.992-2.426 28.074-15.754 6.363-9.254-4.019.903-6.512-10.644.055-11.453 19.508-6.617 24.847-22.516 13.844-9.23-4.059 4.773-7.825-1.243-12.008 3.379-3.004 3.644-4.348 4.183-8.071 5.367-9.078-.141-6.023 8.82-21.738 4.398-9.769-.004-13.769-1.738-16.09 5.106-1.566 7.293-14.843 8.187-13.761-2.274.64-6.851-9.079-11.019-16.602-17.558-13.219-4.133 11.473-28.489 14.855-14.903 17.461 25.864 30.868 4.403 37.782 7.645 9.379 3.777 5.074-14.18 18.961-8.903 11.675.985 3.933-5.695 13.64-15.015 5.309-11.625.68-26.426 4.778-31.082 1.507-2.438 1.988-34.133-1.762-38.59-9.117-11.606-5.051-15.926-15.453-24.457-5.078-3.399 3.578-25.461 8.047-21.699 3.964 3.293 8.117.215 2.789-4.676-12.891-13.5-31.422-17.801-43.34-32.848-6.621-4.578-8.84-4.82-13.727-5.91-20.293-16.992-27.394-2.219-37.636-12.43-8.528-13.359-29.985 3.223-27.52-14.914 6.145-10.363-12.137-4.519-13.512-14.058-1.758-12.086-18.058-11.828-20.543-32.934-.914-15.367-5.457-6.957-10.824-18.203-3.953-7.695-4.461-30.832 3.813-36.789 8.132-5.613 3.406-10.578 9.449-13.277 2.074-1.606-.067-11.125 4.898-10.176 6.809.488 1.852-10.09 6.512-9.813 2.559.457 2.031-.265 2.582-3.308 4.887-11.614 10.922-5.645 12.387-5.18zM515.649 13.96v306.2c0 330.16-502.594 330.16-502.594 0V13.96z" style="stroke:none;fill-rule:evenodd;fill:#ec2a32"/></svg>