<svg xmlns="http://www.w3.org/2000/svg" xmlns:xlink="http://www.w3.org/1999/xlink"><title>Herb Piotrków Trybunalski</title><g style="display:inline"><path d="M250.02 559.5c8.506-15.95 25.996-40.263 47.677-40.48l179.645-1.814c11.361-.114 21.493-6.26 21.5-29.79L499 3.502H1.001l.156 483.916c.008 23.529 10.171 29.675 21.533 29.79l179.645 1.812c22.642.156 39.058 24.754 47.685 40.48z" style="fill:#c30;fill-opacity:1;fill-rule:evenodd;stroke:#000;stroke-width:2.00178218;stroke-linecap:butt;stroke-linejoin:miter;marker:none;marker-start:none;marker-mid:none;marker-end:none;stroke-miterlimit:11.30000019;stroke-dasharray:none;stroke-dashoffset:0;stroke-opacity:1;visibility:visible;display:inline;overflow:visible" transform="translate(0 -2.5)"/></g><g style="display:inline"><g style="display:inline" transform="translate(1.156 -2.5)"><g id="a"><path d="M200.818 196.926c-22.34-19.492-41.983-13.605-58.69-8.485-10.683 4.231-15.048-22.252-27.577-27.578 6.425-21.211 46.77-12.458 36.77-55.154-10.366-29.019-39.408-29.03-70.749-4.308-22.832 18.01-14.829 24.7-51.58 37.542 7.429 2.25 11.482 7.454 33.233-2.828-11.54 30.761-24.79 39.293-38.183 45.962 12.963 6.094 25.927 10.622 38.89-9.193-7.176 24.932-22.3 45.89-36.769 67.175 11.18-7.865 14.584 5.265 43.133-49.497-3.898 31.593-19.702 59.614-42.426 85.56 13.393.226 23.9 4.994 48.79-45.255-4.913 34.177-13.249 68.354-21.92 102.53 13.445-19.996 23.546-44.172 33.941-85.56-10.257 45.316-4.984 83.574-49.497 146.372 15.55-9.488 46.723 28.106 74.953-137.18 3.724 27.814-2.372 55.627-7.778 83.44 12.878-20.396 24.837-42.498 24.749-86.975 5.1 41.09-9.698 70.03-21.92 93.338 24.168-1.94 45.13-14.38 48.79-83.438-.376 22.156 2.142 44.312-7.071 66.468 13.6-12.716 19.602-36.83 21.92-66.468.565 25.675-1.355 49.694-12.02 67.882 12.326-2.552 24.195-11.518 34.647-40.305" style="fill:#fff;fill-opacity:1;fill-rule:evenodd;stroke:#000;stroke-width:2;stroke-linecap:butt;stroke-linejoin:miter;stroke-miterlimit:4;stroke-dasharray:none;stroke-opacity:1;display:inline"/><path d="M156.77 264.808c.943-18.236 1.386-38.66 2.329-58.69" style="opacity:1;fill:#c30;fill-opacity:1;fill-rule:evenodd;stroke:#000;stroke-width:2.00000262;stroke-linecap:butt;stroke-linejoin:miter;marker:none;marker-start:none;marker-mid:none;marker-end:none;stroke-miterlimit:4;stroke-dasharray:none;stroke-dashoffset:0;stroke-opacity:1;visibility:visible;display:inline;overflow:visible"/><path d="M129.9 254.909c-1.7-22.433 1.451-38.42.915-49.498" style="opacity:1;fill:#c30;fill-opacity:1;fill-rule:evenodd;stroke:#000;stroke-width:2.00000262;stroke-linecap:butt;stroke-linejoin:miter;marker:none;marker-start:none;marker-mid:none;marker-end:none;stroke-miterlimit:4;stroke-dasharray:none;stroke-dashoffset:0;stroke-opacity:1;visibility:visible;display:inline;overflow:visible"/><path d="M112.93 257.737c-1.706-20.035-.676-40.07 5.157-60.104" style="opacity:1;fill:#fff;fill-opacity:1;fill-rule:evenodd;stroke:#000;stroke-width:2;stroke-linecap:butt;stroke-linejoin:miter;marker:none;marker-start:none;marker-mid:none;marker-end:none;stroke-miterlimit:4;stroke-dasharray:none;stroke-dashoffset:0;stroke-opacity:1;visibility:visible;display:inline;overflow:visible"/><path d="M87.681 248.837c4.814-24.113 8.148-42.42 11.314-60.396" style="opacity:1;fill:#c30;fill-opacity:1;fill-rule:evenodd;stroke:#000;stroke-width:2.00000262;stroke-linecap:butt;stroke-linejoin:miter;marker:none;marker-start:none;marker-mid:none;marker-end:none;stroke-miterlimit:4;stroke-dasharray:none;stroke-dashoffset:0;stroke-opacity:1;visibility:visible;display:inline;overflow:visible"/><path d="M75.66 230.867c3.013-14.85 6.43-29.699 11.314-44.548" style="opacity:1;fill:#c30;fill-opacity:1;fill-rule:evenodd;stroke:#000;stroke-width:2.00000262;stroke-linecap:butt;stroke-linejoin:miter;marker:none;marker-start:none;marker-mid:none;marker-end:none;stroke-miterlimit:4;stroke-dasharray:none;stroke-dashoffset:0;stroke-opacity:1;visibility:visible;display:inline;overflow:visible"/><path d="M62.225 174.298c8.723-11.843 15.02-28.005 17.678-41.719" style="opacity:1;fill:none;fill-opacity:.75;fill-rule:evenodd;stroke:#000;stroke-width:2;stroke-linecap:butt;stroke-linejoin:miter;marker:none;marker-start:none;marker-mid:none;marker-end:none;stroke-miterlimit:4;stroke-dasharray:none;stroke-dashoffset:0;stroke-opacity:1;visibility:visible;display:inline;overflow:visible"/><path d="M68.59 191.269c4.713-10.245 9.427-15.861 14.141-20.506" style="opacity:1;fill:none;fill-opacity:.75;fill-rule:evenodd;stroke:#000;stroke-width:2;stroke-linecap:butt;stroke-linejoin:miter;marker:none;marker-start:none;marker-mid:none;marker-end:none;stroke-miterlimit:4;stroke-dasharray:none;stroke-dashoffset:0;stroke-opacity:1;visibility:visible;display:inline;overflow:visible"/><path d="M203.647 207.532c-38.892-22.016-58.44-4.413-69.297-9.192-17.295-2.068-14.673-11.844-30.405-19.092" style="fill:none;fill-opacity:.75;fill-rule:evenodd;stroke:#000;stroke-width:2;stroke-linecap:butt;stroke-linejoin:miter;stroke-miterlimit:4;stroke-dasharray:none;stroke-opacity:1;display:inline"/><path d="M171.827 264.1c2.228-20.505 2.416-41.011 2.828-61.517" style="opacity:1;fill:#c30;fill-opacity:1;fill-rule:evenodd;stroke:#000;stroke-width:2.00000262;stroke-linecap:butt;stroke-linejoin:miter;marker:none;marker-start:none;marker-mid:none;marker-end:none;stroke-miterlimit:4;stroke-dasharray:none;stroke-dashoffset:0;stroke-opacity:1;visibility:visible;display:inline;overflow:visible"/></g><use xlink:href="#a" width="500" height="562.5" transform="matrix(-1 0 0 1 497.688 0)"/></g><path d="M218.85 166.313c4.596-1.524 9.545-5.445 13.788-14.996-21.635 13.242-25.728 6.18-32.88.708 11.42 2.308 22.852 3.006 32.527-31.113-10.847 9.031-13.776 4.489-18.385 2.828 24.933-6.87 14.892-25.89-8.132-31.82 4.072-8.485 12.115-16.97 5.657-25.455 12.098-4.127 20.599-18.406 49.144-13.435 38.237 16.085 3.41 35.756 41.012 52.679-6.822 1.795-15.343.191-26.87-7.425 3.782 17.249 12.836 26.59 27.93 26.87-7.903 2.684-13.219 8.695-27.223 3.536 1.505 21.917 14.087 31.176 28.638 38.184-8.368.68-16.735.247-25.102-2.829l1.414 1.415" style="opacity:1;fill:#fff;fill-opacity:1;fill-rule:nonzero;stroke:#000;stroke-width:2;stroke-linecap:butt;stroke-linejoin:miter;marker:none;marker-start:none;marker-mid:none;marker-end:none;stroke-miterlimit:4;stroke-dasharray:none;stroke-dashoffset:0;stroke-opacity:1;visibility:visible;display:inline;overflow:visible" transform="translate(0 -2.5)"/><path d="M223.447 66.689c11.767.784 22.296-4.698 33.856 7.392-7.119-1.004-11.35 2.278-17.711.777-4.512-1.065-5.715-6.772-15.792-8.146" style="opacity:1;fill:none;fill-opacity:1;fill-rule:nonzero;stroke:#000;stroke-width:1.99999964;stroke-linecap:butt;stroke-linejoin:miter;marker:none;marker-start:none;marker-mid:none;marker-end:none;stroke-miterlimit:4;stroke-dasharray:none;stroke-dashoffset:0;stroke-opacity:1;visibility:visible;display:inline;overflow:visible" transform="translate(0 -2.5)"/><path d="M235.5 65.25c-.929 2.613-2.732 4.964 2.75 9.5" style="fill:none;fill-opacity:.75;fill-rule:evenodd;stroke:#000;stroke-width:1px;stroke-linecap:butt;stroke-linejoin:miter;stroke-opacity:1;display:inline" transform="translate(0 -2.5)"/><path d="m186 233.5 43.089 70.963L238 358.5l1.877 66.927L250 503.5l9.747-80.02L262 350.5l17.125-54.699 26.342-30.884L296 193.5l-20-32-54.83 4.375L206 187.5z" style="opacity:1;fill:#fff;fill-opacity:1;fill-rule:nonzero;stroke:none;stroke-width:1;stroke-linecap:butt;stroke-linejoin:miter;marker:none;marker-start:none;marker-mid:none;marker-end:none;stroke-miterlimit:4;stroke-dasharray:none;stroke-dashoffset:0;stroke-opacity:1;visibility:visible;display:inline;overflow:visible" transform="translate(0 -2.5)"/><g style="display:inline" transform="translate(0 -2.5)"><g id="b"><path d="M191.98 330.569c-6.078 8.66-5.67 17.36-11.314 25.102-5.068 5.893-13.317 3.73-18.385.707-23.83-11.558-32.352-1.633-33.588 2.122-.044 4.273 5.75 6.11 14.793 3.562 3.953.564 8.252.667 13.492 3.155-33.183 2.022-27.8 9.663-28.992 13.789-2.496 8.647 13.174 4.981 18.853-.983 3.91-2.196 15.435-3.599 26.402-4.32-28.42 16.18-22.272 22.618-20.86 25.809 4.359 9.841 12.74-.09 15.522-5.998 2.625-5.574 10.101-10.47 18.42-16.276 4.39-3.331 11.393-4.824 18.424-3.807 12.68 5.668 19.754 3.613 22.588-3.264-5.376-13.765-39.102-2.758-35.002-11.314 4.603-14.596 10.624-18.4 16.97-31.466l5.405-20.17z" style="opacity:1;fill:#fff;fill-opacity:1;fill-rule:evenodd;stroke:#000;stroke-width:2;stroke-linecap:butt;stroke-linejoin:miter;marker:none;marker-start:none;marker-mid:none;marker-end:none;stroke-miterlimit:4;stroke-dasharray:none;stroke-dashoffset:0;stroke-opacity:1;visibility:visible;display:inline;overflow:visible"/><path d="m156.27 365.364 6.365.353" style="opacity:1;fill:#fff;fill-opacity:1;fill-rule:evenodd;stroke:#000;stroke-width:2;stroke-linecap:butt;stroke-linejoin:miter;marker:none;marker-start:none;marker-mid:none;marker-end:none;stroke-miterlimit:4;stroke-dasharray:none;stroke-dashoffset:0;stroke-opacity:1;visibility:visible;display:inline;overflow:visible"/><path d="M175.716 336.58c15.63-12.758 14.104-25.785 23.986-42.654-3.28 3.41-6.561 3.844-9.842 4.519 9.87-13.083 3.874-38.082 15.908-72.528l.354-.353 33.234-3.89v73.54c-6.743 21.256-28.22 25.156-23.688 49.85-10.62-5.635-14.832-11.806-14.143-18.384-9.273 10.677-17.428 9.047-25.809 9.9z" style="opacity:1;fill:#fff;fill-opacity:1;fill-rule:evenodd;stroke:#000;stroke-width:2;stroke-linecap:butt;stroke-linejoin:miter;marker:none;marker-start:none;marker-mid:none;marker-end:none;stroke-miterlimit:4;stroke-dasharray:none;stroke-dashoffset:0;stroke-opacity:1;visibility:visible;display:inline;overflow:visible"/><path d="M153.5 397c-4.18 2.624-4.482 7.962-2 15.25 1.855-3.61 2.895-7.015 7.25-11.25-.498-3.003-2.784-3.621-5.25-4z" style="opacity:1;fill:#f9e507;fill-opacity:1;fill-rule:evenodd;stroke:#000;stroke-width:2;stroke-linecap:butt;stroke-linejoin:miter;marker:none;marker-start:none;marker-mid:none;marker-end:none;stroke-miterlimit:4;stroke-dasharray:none;stroke-dashoffset:0;stroke-opacity:1;visibility:visible;display:inline;overflow:visible"/><path d="M130.499 375.674c-4.934-.112-9.626 4.928-8.567 12.378 3.036-3.242 4.78-5.012 10.747-6.149 1.238-2.78-.33-4.555-2.18-6.23z" style="opacity:1;fill:#f9e507;fill-opacity:1;fill-rule:evenodd;stroke:#000;stroke-width:2;stroke-linecap:butt;stroke-linejoin:miter;marker:none;marker-start:none;marker-mid:none;marker-end:none;stroke-miterlimit:4;stroke-dasharray:none;stroke-dashoffset:0;stroke-opacity:1;visibility:visible;display:inline;overflow:visible"/><path d="M132.822 354.466c-4.264-2.486-9.383.472-13.189 5.8 4.059-.03 6.308-1.188 12.08.707 2.43-1.834 1.917-4.146 1.109-6.507z" style="opacity:1;fill:#f9e507;fill-opacity:1;fill-rule:evenodd;stroke:#000;stroke-width:2.00000095;stroke-linecap:butt;stroke-linejoin:miter;marker:none;marker-start:none;marker-mid:none;marker-end:none;stroke-miterlimit:4;stroke-dasharray:none;stroke-dashoffset:0;stroke-opacity:1;visibility:visible;display:inline;overflow:visible"/><path d="M223.642 367.904c4.842-.956 9.222 3.973 9.662 10.23-3.825-1.356-4.667-3.623-10.741-3.719-1.696-2.527-.456-4.545 1.079-6.511z" style="opacity:1;fill:#f9e507;fill-opacity:1;fill-rule:evenodd;stroke:#000;stroke-width:2;stroke-linecap:butt;stroke-linejoin:miter;marker:none;marker-start:none;marker-mid:none;marker-end:none;stroke-miterlimit:4;stroke-dasharray:none;stroke-dashoffset:0;stroke-opacity:1;visibility:visible;display:inline;overflow:visible"/></g><use xlink:href="#b" width="500" height="562.5" transform="matrix(-1 0 0 1 498.989 0)"/></g><g style="display:inline" transform="translate(.66 -2.5)"><path id="c" d="M249.609 512.295c-16.521-19.781-14.356-41.5-7.071-76.367-13.435 26.43-26.87 37.319-40.305 43.133 3.557-24.748 16.974-34.648 35.355-57.275-15.131 25.111-60.757 26.859-61.518-3.536-.02-19.11 11.655-32.185 38.183-27.577-37.821 7.961-4.76 49.472 21.214 8.485 4.172-22.627 1.68-45.255-3.536-67.882-11.314-33.06-33.234-110.391-33.941-120.915-7.904-21.76 4.9-33.965 21.213-44.548" style="opacity:1;fill:#fff;fill-opacity:1;fill-rule:nonzero;stroke:#000;stroke-width:2;stroke-linecap:butt;stroke-linejoin:miter;marker:none;marker-start:none;marker-mid:none;marker-end:none;stroke-miterlimit:4;stroke-dasharray:none;stroke-dashoffset:0;stroke-opacity:1;visibility:visible;display:inline;overflow:visible"/><use xlink:href="#c" width="500" height="562.5" transform="matrix(-1 0 0 1 498.678 0)"/></g><path d="M228.395 92.067c-20.914 2.811-37.808 12.521-47.376-2.829 10.84.928 16.528 1.286 28.992-4.242-4.832-2.925-19.917-6.943-26.517 0-13.897-25.333 21.442-12.873 30.76-19.8 4.76 14.446 22.325 20.674 14.141 26.87z" style="opacity:1;fill:#f9e507;fill-opacity:1;fill-rule:nonzero;stroke:#000;stroke-width:2;stroke-linecap:butt;stroke-linejoin:miter;marker:none;marker-start:none;marker-mid:none;marker-end:none;stroke-miterlimit:4;stroke-dasharray:none;stroke-dashoffset:0;stroke-opacity:1;visibility:visible;display:inline;overflow:visible" transform="translate(0 -2.5)"/><path d="m247 339.5-19-30-22-102 61-22 25 39-25 96z" style="opacity:1;fill:#fff;fill-opacity:1;fill-rule:nonzero;stroke:none;stroke-width:1;stroke-linecap:butt;stroke-linejoin:miter;marker:none;marker-start:none;marker-mid:none;marker-end:none;stroke-miterlimit:4;stroke-dasharray:none;stroke-dashoffset:0;stroke-opacity:1;visibility:visible;display:inline;overflow:visible" transform="translate(0 -2.5)"/><path d="M255 473a4.5 36.5 0 1 1-9 0 4.5 36.5 0 1 1 9 0" style="opacity:1;fill:#fff;fill-opacity:1;fill-rule:nonzero;stroke:none;stroke-width:1;stroke-linecap:butt;stroke-linejoin:miter;marker:none;marker-start:none;marker-mid:none;marker-end:none;stroke-miterlimit:4;stroke-dasharray:none;stroke-dashoffset:0;stroke-opacity:1;visibility:visible;display:inline;overflow:visible" transform="translate(0 -2.5)"/></g></svg>