<svg><title>Herb Krzyż Wielkopolski</title><path d="M.317 0H542.46v408.664c.461 146.16-115.902 226.41-276.621 223.414C105.125 629.082-6.75 539.058.317 408.664z" style="stroke:none;fill-rule:evenodd;fill:#222"/><path d="M12.094 12.628h518.297v392.411c.441 140.343-110.805 217.406-264.453 214.527-153.645-2.879-260.602-89.32-253.844-214.527z" style="stroke:none;fill-rule:evenodd;fill:#3ba66d"/><path d="M118.91 210.539 272.625 62.542l150.969 147.997h-74.109l-43.918-44.442v136.684H373.5v48.871h-67.933v59.199h43.574v42.676h-43.574v83.289h-68.622v-83.289h-43.574v-42.676h43.574v-59.199h-67.933v-48.871h67.933V166.718l-42.542 43.821h-75.481" style="stroke:none;fill-rule:evenodd;fill:#fff101"/></svg>