<svg xmlns="http://www.w3.org/2000/svg"><title>Herb Kraśnik</title><path d="M3.734 4.686 5.305 574.68C15.327 755.497 177.971 882.814 375.92 882.814c204.402 0 370.346-153.304 370.346-342.383L745.53 4.686z" style="fill:#da241d;fill-opacity:1;stroke:#000;stroke-width:7.43534088;stroke-miterlimit:4;stroke-dasharray:none;stroke-opacity:1"/><path d="M189.017 58.054c-5.576 6.817-9.39 15.635-8.051 23.661-3.946-.524-7.821 2.352-14.881 8.4l-4.72-3.96c4.731-8.003 6.89-12.319 5.689-16.113 8.137-.076 16.342-5.208 21.963-11.988z" style="fill:#fff;fill-opacity:1;fill-rule:evenodd;stroke:#000;stroke-width:.99999994px;stroke-linecap:butt;stroke-linejoin:miter;stroke-opacity:1" transform="translate(-148.018 -106.823)scale(4.14994)"/><path d="m189.164 57.944-24.247 29.051" style="fill:none;fill-opacity:.75;fill-rule:evenodd;stroke:#000;stroke-width:.99999994px;stroke-linecap:butt;stroke-linejoin:miter;stroke-opacity:1" transform="translate(-148.018 -106.823)scale(4.14994)"/><path d="m162.865 84.263 4.971 4.171-78.864 99.914-10.809-9.07z" style="fill:#eae640;fill-opacity:1;fill-rule:evenodd;stroke:#000;stroke-width:.99999994px;stroke-linecap:butt;stroke-linejoin:miter;stroke-opacity:1" transform="translate(-148.018 -106.823)scale(4.14994)"/><path d="m162.77 84.495 4.84 4.06-80.17 98.626-7.876-6.61z" style="fill:#eae640;fill-opacity:1;fill-rule:evenodd;stroke:#000;stroke-width:.99999994px;stroke-linecap:butt;stroke-linejoin:miter;stroke-opacity:1" transform="translate(-148.018 -106.823)scale(4.14994)"/><path d="M134.004 45.818a7.35 9.838 0 1 1-14.7 0 7.35 9.838 0 1 1 14.7 0z" style="fill:#eae640;fill-opacity:1;stroke:#000;stroke-width:1;stroke-miterlimit:4;stroke-dasharray:none;stroke-opacity:1" transform="rotate(220 428.816 533.14)scale(4.15583 4.74679)"/><path d="m78.044 179.319 10.858 9.112c-3.468.85-4.257 1.144-7.319 5.731l-7.913-6.64c3.986-3.812 4.139-4.64 4.374-8.203z" style="fill:#eae640;fill-opacity:1;fill-rule:evenodd;stroke:#000;stroke-width:.99999994px;stroke-linecap:butt;stroke-linejoin:miter;stroke-opacity:1" transform="translate(-148.018 -106.823)scale(4.14994)"/><path d="M63.043 58.054c5.577 6.817 9.39 15.635 8.051 23.661 3.946-.524 7.821 2.352 14.881 8.4l4.72-3.96c-4.73-8.003-6.89-12.319-5.688-16.113-8.138-.076-16.343-5.208-21.964-11.988z" style="fill:#fff;fill-opacity:1;fill-rule:evenodd;stroke:#000;stroke-width:.99999994px;stroke-linecap:butt;stroke-linejoin:miter;stroke-opacity:1" transform="translate(-148.018 -106.823)scale(4.14994)"/><path d="m62.896 57.944 24.247 29.051" style="fill:none;fill-opacity:.75;fill-rule:evenodd;stroke:#000;stroke-width:.99999994px;stroke-linecap:butt;stroke-linejoin:miter;stroke-opacity:1" transform="translate(-148.018 -106.823)scale(4.14994)"/><path d="m89.196 84.263-4.972 4.171 78.864 99.914 10.809-9.07z" style="fill:#eae640;fill-opacity:1;fill-rule:evenodd;stroke:#000;stroke-width:.99999994px;stroke-linecap:butt;stroke-linejoin:miter;stroke-opacity:1" transform="translate(-148.018 -106.823)scale(4.14994)"/><path d="m89.29 84.495-4.84 4.06 80.17 98.626 7.876-6.61z" style="fill:#eae640;fill-opacity:1;fill-rule:evenodd;stroke:#000;stroke-width:.99999994px;stroke-linecap:butt;stroke-linejoin:miter;stroke-opacity:1" transform="translate(-148.018 -106.823)scale(4.14994)"/><path d="M134.004 45.818a7.35 9.838 0 1 1-14.7 0 7.35 9.838 0 1 1 14.7 0z" style="fill:#eae640;fill-opacity:1;stroke:#000;stroke-width:1;stroke-miterlimit:4;stroke-dasharray:none;stroke-opacity:1" transform="rotate(-40 1839.79 147.858)scale(4.15583 -4.74679)"/><path d="m174.016 179.319-10.858 9.112c3.469.85 4.257 1.144 7.319 5.731l7.913-6.64c-3.986-3.812-4.139-4.64-4.374-8.203z" style="fill:#eae640;fill-opacity:1;fill-rule:evenodd;stroke:#000;stroke-width:.99999994px;stroke-linecap:butt;stroke-linejoin:miter;stroke-opacity:1" transform="translate(-148.018 -106.823)scale(4.14994)"/><path d="M126.642 229.161c-.11-8.806-2.857-18.013-9.042-23.3 3.36-2.136 4.48-6.83 6-16h6.161c1.52 9.17 2.64 13.864 6 16-6.185 5.287-9.171 14.494-9.12 23.3z" style="fill:#fff;fill-opacity:1;fill-rule:evenodd;stroke:#000;stroke-width:1px;stroke-linecap:butt;stroke-linejoin:miter;stroke-opacity:1" transform="translate(-148.018 -106.823)scale(4.14994)"/><path d="m126.6 229.34-.1-37.84" style="fill:none;fill-opacity:.75;fill-rule:evenodd;stroke:#000;stroke-width:1px;stroke-linecap:butt;stroke-linejoin:miter;stroke-opacity:1" transform="translate(-148.018 -106.823)scale(4.14994)"/><path d="M129.829 192.274h-6.49l-3.81-127.232h14.11z" style="fill:#eae640;fill-opacity:1;fill-rule:evenodd;stroke:#000;stroke-width:1px;stroke-linecap:butt;stroke-linejoin:miter;stroke-opacity:1" transform="translate(-148.018 -106.823)scale(4.14994)"/><path d="M129.752 192.035h-6.317l-1.983-127.083h10.282z" style="fill:#eae640;fill-opacity:1;fill-rule:evenodd;stroke:#000;stroke-width:1px;stroke-linecap:butt;stroke-linejoin:miter;stroke-opacity:1" transform="translate(-148.018 -106.823)scale(4.14994)"/><path d="M134.004 45.818a7.35 9.838 0 1 1-14.7 0 7.35 9.838 0 1 1 14.7 0z" style="fill:#eae640;fill-opacity:1;stroke:#000;stroke-width:1;stroke-miterlimit:4;stroke-dasharray:none;stroke-opacity:1" transform="matrix(4.15583 0 0 4.74679 -148.764 -128.069)"/><path d="M133.704 64.935H119.53c2.111-2.881 2.526-3.614 1.923-9.096h10.33c-.603 5.482-.188 6.215 1.922 9.096z" style="fill:#eae640;fill-opacity:1;fill-rule:evenodd;stroke:#000;stroke-width:1px;stroke-linecap:butt;stroke-linejoin:miter;stroke-opacity:1" transform="translate(-148.018 -106.823)scale(4.14994)"/></svg>