<svg xmlns="http://www.w3.org/2000/svg" viewBox="0 0 750 825"><title>Herb Kamionna (województwo wielkopolskie)</title><path d="M3.75 3.75v491.893C18.733 796.125 205.49 668.693 375 821.25c170.806-155.286 358.82-24.99 371.25-334.176l-.001-483.322z" style="fill:#dd4d3f;fill-opacity:1;fill-rule:evenodd;stroke:#000;stroke-width:7.501863;stroke-linecap:butt;stroke-linejoin:miter;stroke-miterlimit:4;stroke-dasharray:none;stroke-opacity:1"/><path d="M580.267 218.307c-2.27 20.04-23.241 40.691-30.326 47.247-5.893 5.453-10.151 38.17-10.925 45.297-.741 6.82 25.592-23.337 38.97-30.346-5.079 4.2-30.048 23.666-38.704 31.676-4.853 4.49-10.56 16.807-15.94 23.66-5.989 7.63-10.83 19.565-6.875 21.856 10.4 6.027 13.943-6.759 36.292-21.576 5.349-3.547 29.132-15.081 32.78-19.272 14.922-17.14 26.91-53.467 14.24-50.187 23.424-40.813-18.582-56.548-19.512-48.355z" style="fill:#fff;fill-opacity:1;fill-rule:evenodd;stroke:#000;stroke-width:2.14402986;stroke-linecap:butt;stroke-linejoin:miter;stroke-miterlimit:4;stroke-dasharray:none;stroke-opacity:1"/><path d="M603.52 292.706c-20.32 15.626-35.784 76.047-42.539 74.228-11.678-3.145-22.209 1-28.881-4.342-8.213-6.576-16.274-16.45-20.982-9.266-36.377 55.5-97.358 47.937-103.573 53.059-30.056 24.768 50.93 12.311 76.966-.522-87.076 27.5-79.852 5.45-83.074 13.978-2.973 7.87 3.38 20.615 7.743 24.827 7.793 7.524 17.263 4.386 29.168 7.592 7.979 2.148 16.52-2.469 26.989.35 10.473 2.82 12.883 4.604 20.354 8.94 6.914 4.011 53.12-25.247 58.044-38.106 3.261-8.516-14.512-9.965-25.54-22.108 5.25 5.069 19.004 14.137 28.346 16.652 8.095 2.18 13.195-4.083 16.699-12.796 10.27-25.54 21.36-20.159 28.83-39.069 12.083-30.59 26.05-78.631 11.45-73.417z" style="fill:#fff;fill-opacity:1;fill-rule:evenodd;stroke:#000;stroke-width:2.14402986;stroke-linecap:butt;stroke-linejoin:miter;stroke-miterlimit:4;stroke-dasharray:none;stroke-opacity:1"/><path d="M588.277 319.376c.593-5.463-30.685 9.894-34.202 10.728-9.726 2.307-16.944 14.928-21.917 19.31-10.341 9.11-5.893 21.95 7.21 25.228 16.714 4.18 28.715-8.791 40.319-16.646 11.176-7.566 14.798-14.596 16.239-27.892.496-4.58-5.99-6.632-7.649-10.728z" style="fill:#fff;fill-opacity:1;fill-rule:evenodd;stroke:#000;stroke-width:2.14402986;stroke-linecap:butt;stroke-linejoin:miter;stroke-miterlimit:4;stroke-dasharray:none;stroke-opacity:1"/><path d="M100.575 211.6c-39.013 0-70.416 31.732-70.416 71.154v83.936c0 39.422 31.403 71.154 70.416 71.154h7.308c39.013 0 70.416-31.732 70.416-71.154v-22.44l404.505-.852v80.528h54.815V394.1h-27.407v-29.825h27.407v-29.683h27.408v29.683h27.407V394.1h-27.407v29.825h54.814V304.768H178.3v-22.014c0-39.422-31.403-71.154-70.416-71.154zm0 36.074h7.308c19.892 0 34.716 14.98 34.716 35.08v22.298c-.472-.035-.924-.142-1.405-.142-10.78 0-19.537 8.848-19.537 19.741s8.757 19.741 19.537 19.741c.48 0 .933-.107 1.405-.142v22.44c0 20.1-14.824 35.08-34.716 35.08h-7.308c-19.893 0-34.717-14.98-34.717-35.08v-83.936c0-20.1 14.824-35.08 34.717-35.08z" style="fill:#fff;fill-rule:evenodd;stroke:#000;stroke-width:3.75;stroke-linecap:butt;stroke-linejoin:miter;stroke-miterlimit:4;stroke-dasharray:none;stroke-opacity:1"/><path d="M222.696 155.71c3.624-5.32-6.398-14.829-12.327-10.73-8.794 3.76-27.76 24.152-39.13 24.01-24.834 14.027-33.62 74.886-29.774 81.476 3.372 4.7 13.365-1.426 24.665-25.512 3.547-6.41 19.832-33.471 31.613 3.73 2.357 4.354 11.363 6.01 11.611-1.266.409-6.623.918-13.298 3.363-19.777 2.717-10.279 9.023-19.734 16.506-27.585 5.104-3.295 11.714-10.44 6.85-15.723-3.896-4.175-5.508-13.44-11.822-11.456-2.724 4.971-11.61 17.436-18.345 25.329 6.687-10.049 16.54-20.14 16.79-22.497z" style="fill:#fff;fill-opacity:1;fill-rule:evenodd;stroke:#000;stroke-width:2.14402986;stroke-linecap:butt;stroke-linejoin:miter;stroke-miterlimit:4;stroke-dasharray:none;stroke-opacity:1"/><path d="M159.374 235.801c-6.29 4.023-3.117 9.82-13.456 14.458-13.93 18.348 2.1 34.39 2.118 50.339.369 9.14 23.551-35.65 25.785-54.256-2.745 35.735-35.349 59.143-22.01 69.653 3.153 3.8 6.931 7.094 10.438 10.512 4.185 1.758 7.49-3.235 9.309-6.568 5.138-8.5 6.45-18.114 8.068-27.375 1.461-6.32 31.495-56.172 22.538-58.114-7.695-19.238-13.285-27.096-24.97-23.458-1.484.793-9.964 6.395-17.82 24.809z" style="fill:#fff;fill-opacity:1;fill-rule:evenodd;stroke:#000;stroke-width:2.14402986;stroke-linecap:butt;stroke-linejoin:miter;stroke-miterlimit:4;stroke-dasharray:none;stroke-opacity:1"/><path d="M201.932 245.267c-23.711 35.876-25.954 70.264-35.394 84.693-11.284 17.247.681 32.702 6.19 31.434 9.13-2.103 15.498-19.982 11.426-10.444-4.086 9.568-15.315 13.068-2.003 33.388 2.394 3.655 5.433 14.076 23.72-42.558 3.61-11.183 18.3-5.77 11.061-35.67-1.049-4.333-9.944 15.81-20.957 25.45 16.578-19.991 22.173-23.102 26.34-44.661 2.75-14.24-3.264-6.966-8.95-21.619-3.483-8.975 2.338-23.847-11.434-20.013z" style="fill:#fff;fill-opacity:1;fill-rule:evenodd;stroke:#000;stroke-width:2.14402986;stroke-linecap:butt;stroke-linejoin:miter;stroke-miterlimit:4;stroke-dasharray:none;stroke-opacity:1"/><path d="M216.702 332.192c-5.352-6-17.987 24.607-18.482 29.17-.591 5.458-7.401 15.76-10.237 20.42-3.601 5.917 4.942 29.932 8.353 30.63 11.62 2.374 7.895-30.465 11.405-37.923 6.635-14.099 15.405-29.575 8.961-42.297z" style="fill:#fff;fill-opacity:1;fill-rule:evenodd;stroke:#000;stroke-width:2.14402986;stroke-linecap:butt;stroke-linejoin:miter;stroke-miterlimit:4;stroke-dasharray:none;stroke-opacity:1"/><path d="M219.736 344.59c-8.546 4.804-10.935 20.119-11.837 28.44-.896 8.266-3.634 29.35-9.296 38.652-2.826 4.645 12.927 35.745 37.219 33.546 5.408-.49 27.08-18.581 12.651-56.153-15.108-39.34-25.592-43.171-28.737-44.486z" style="fill:#fff;fill-opacity:1;fill-rule:evenodd;stroke:#000;stroke-width:2.14402986;stroke-linecap:butt;stroke-linejoin:miter;stroke-miterlimit:4;stroke-dasharray:none;stroke-opacity:1"/><path d="M241.968 371.275c-5.96 10.13 8.628 38.212 11.086 42.924 2.704 5.185-7.387 27.97-17.725 32.03-5.062 1.987 8.612 9.246 17.567 11.109 9.934 2.066 20.488-21.055 24.57-26.718 4.77-6.616 10.19-11.875 12.192-14.03 5.11-5.499 7.29-14.49 4.82-18.812-9.685-16.939-52.09-38.155-52.51-26.503zM443.47 77.957c-13.252-3.933-45.312 14.32-18.606 29.702 3.085-19.862 28.094-8.023 32.371 3.064 2.363 6.125-1.66 22.13-1.111 28.342 2.179 24.653 17.672 3.665 32.319 28.308 4.722 7.945 8.59-19.427 8.566-18.46-.276 11.255-4.44 18.807-2.637 24.333 2.526 7.741 19.653 39.622 24.78 38.776 14.51-2.392 2.361-32.555 2.38-42.912.04-21.375 19.122-36.473 13.55-47.226-3.72-7.178-34.752-31.271-30.147 1.018-.084-40.237-37.346-31.718-61.465-44.945z" style="fill:#fff;fill-opacity:1;fill-rule:evenodd;stroke:#000;stroke-width:2.14402986;stroke-linecap:butt;stroke-linejoin:miter;stroke-miterlimit:4;stroke-dasharray:none;stroke-opacity:1"/><path d="M527.83 145.64c-13.385 19.27-8.892 37.969-.657 56.567 2.198 4.964 26.816-21.738 24-48.412-1.275-12.069-16.446-8.155-23.344-8.155z" style="fill:#fff;fill-opacity:1;fill-rule:evenodd;stroke:#000;stroke-width:2.14402986;stroke-linecap:butt;stroke-linejoin:miter;stroke-miterlimit:4;stroke-dasharray:none;stroke-opacity:1"/><path d="M537.321 125.765c-4.72 7.997-5.38 13.996-8.878 19.794 10.438-.52 17.53 2.956 19.836 9.765 2.21 6.522-4.443 30.951-18.018 40.395-5.787 4.026-4.289 8.262-9.05 13.23-5.472 5.71 7.375 27.95 9.705 29.754 6.042 4.674 11.944-16.462 14.934-21.384-2.547 8.017-15.59 27.798-9.487 30.144 3.304 1.27 2.899 17.885 9.341 20.361 6.685 2.57 30.657-23.578 36.222-52.05 4.881-24.97-28.07-97.663-44.605-90.01zm-313.64 384.368c2.418-3.973-8.892 13.555-12.603 15.315-10.118 4.797 23.068 48.234 23.984 54.695.733 5.173 16.03 7.628 14.548 13.856-2.945 12.371 25.372 1.038 37.571-43.756 2.699-9.91 21.879-62.73 23.303-73.656 2.786-21.373-20.234 9.637-23.053 17.502-2.785 7.768-13.71 54.383-23.85 51.778-6.512-1.672-34.119-33.318-39.9-35.734zM397.03 473.87c2.867 6.87 36.07 32.935 90.804 126.78 5.53 9.482 13.835-.72 13.806-9.627-.046-14.236-5.951-26.354-9.543-41.215-22.094-91.692-38.079-93.003-43.815-98.309-7.763-7.181-58.8 4.292-51.252 22.372z" style="fill:#fff;fill-opacity:1;fill-rule:evenodd;stroke:#000;stroke-width:2.14402986;stroke-linecap:butt;stroke-linejoin:miter;stroke-miterlimit:4;stroke-dasharray:none;stroke-opacity:1"/><path d="M446.159 439.487c-5.9-4.685-5.258 11.18-2.624 16.839 4.007 8.612 10.014 16.293 16.082 20.511 9.681 6.73 16.01 32.518 24.935 38.721 8.866 6.163 3.225 7.263 10.98 2.476 6.317-3.9 68.532 35.506 74.162 36.695 9.301 1.965 51.599-8.706 23.675-21.577-75.73-34.909-111.743-80.281-118.79-84.574-4.02-2.449-22.957-8.518-28.42-9.09z" style="fill:#fff;fill-opacity:1;fill-rule:evenodd;stroke:#000;stroke-width:2.14402986;stroke-linecap:butt;stroke-linejoin:miter;stroke-miterlimit:4;stroke-dasharray:none;stroke-opacity:1"/><path d="M517.898 535.483c-4.546-4.152-1.62-15.413-12.972-22.418-9.564-5.902-25.882-2.488-23.154 5.272 19.299 54.9 4.583 89.777 24.154 105.5 12.767 10.257 19.666 9.607 21.935-4.994 1.683-10.825 9.102-19.138 16.538-27.381 6.298-6.982 17.327-6.692 25.062-33.106 1.611-5.502-18.682-18.955-21.462-21.798-5.82-5.956-11.878-11.373-17.748-18.16-5.964-6.894-14.116 1.779-15.183 5.044-1.155 3.53.897 7.826 2.83 12.041zm-55.588-99.45c.015-.146-17.656-3.357-22.982-3.357-5.663 0-13.591-1.678-20.245-1.678-8.52 0-16.542 4.547-17.505 13.425l-3.091 28.529c-2.253 20.78 17.515 12.254 21.412 12.254 12.634 0 22.474-9.166 34.929-12.639 8.282-2.309 4.598-10.098 15.149-13.04 8.515-2.375 12.312 2.963 21.04 2.963 9.596 0 11.912-16.758 7.042-19.745-7.987-4.898-10.344-6.226-19.518-8.39-4.721-1.114-11.691.659-16.231 1.678zm-143.333-24.351c-5.743-1.174-20.018-16.267-25.631-5.834-14.124 26.254-80.633 72.485-86.42 83.866-3.643 7.164-29.946 25.524-38.513 25.524-8.046 0-9.53 8.189-11.952 16.044-2.484 8.052 20.207 73.656 82.4 74.385 12.472.146 12.72-10.361 10.494-16.044-.478-1.218-35.148-39.187-36.781-51.048-3.674-26.683 11.996-17.4 104.032-105.015.453-12.608 4.59-13.822 2.37-21.878z" style="fill:#fff;fill-opacity:1;fill-rule:evenodd;stroke:#000;stroke-width:2.14402986;stroke-linecap:butt;stroke-linejoin:miter;stroke-miterlimit:4;stroke-dasharray:none;stroke-opacity:1"/><path d="M314.91 435.748c7.282-6.568-32.122 24.123-37.766 32.088-5.916 8.348-44.541 38.198-49.086 42.297-7.805 7.04 23.285 29.716 29.765 35.005 9.93 8.103 15.55-2.18 22.835-8.751 5.725-5.164 5.15-20.59 6.08-29.17.845-7.8 20.49-43.261 25.23-51.05 5.859-9.628 10.94-21.984 2.942-20.42z" style="fill:#fff;fill-opacity:1;fill-rule:evenodd;stroke:#000;stroke-width:2.14402986;stroke-linecap:butt;stroke-linejoin:miter;stroke-miterlimit:4;stroke-dasharray:none;stroke-opacity:1"/><path d="M347.087 439.738c-2.02-2.857 13.28-20.515 3.415-26.996-4.286-2.816-31.359-2.663-35.698-.167-2.55 1.466-11.514 57.676-12.26 64.563-.792 7.304 6.675 9.96 11.372 11.622 23.46 8.296 20.2-21.357 19.97-36.37-.495 21.995-3.23 38.357 3.96 38.952 3.134.26 17.959 5.894 29.967 5.165 9.48-.576-11.386-36.294-13.277-42.612-3.542-11.837 20.081 41.28 15.86 39.742-6.15-2.242 14.76 3.883 20.435 4.161 14.872.73 8.658-27.352 7.57-30.99-1.778-5.939-6.045 1.325-31.458-22.955 4.706 3.092 31.316 30.534 34.963 15.997 2.038-8.128.981-40.307-2.119-44.693-3.54-5.007-25.054-5.165-31.019-5.165-10.816 0-14.878 7.727-21.681 29.746zm81.169-314.216c-14.319-24.932-2.777-38.866 24.624-22.498 9.364 5.126 5.053 35.05 2.009 42.164-4.502 8.316-17.214-6.844-30.51-7.853-12.2.786-26.921-12.614-50.057-34.61 6.412 5.907 17.684 13.974 21.872 21.4 4.078 7.231-45.634 7.178-62.081-8.512-3.13-3.644-5.673-6.693-9.231-11.877 3.477 5.502 7.534 9.158 11.416 14.697-7.386 4.176-36.55 10.952-42.8 1.656-3.596-2.58 1.877 1.428-3.577-7.034 13.78 21.057-19.746 17.022-22.482 13.245-6.848-6.428-5.333-13.148-15.437-16.357-6.875-3.678-20.38-4.396-17.35-12.383 7.866-9.126 32.713-25.108 56.22-23.488-.656-8.843 35.94-28.788 58.281-26.525 11.734-1.435 37.174 16.774 47.655 20.004 33.578 12.42 19.132 44.879 31.448 57.971z" style="fill:#fff;fill-opacity:1;fill-rule:evenodd;stroke:#000;stroke-width:2.14402986;stroke-linecap:butt;stroke-linejoin:miter;stroke-miterlimit:4;stroke-dasharray:none;stroke-opacity:1"/><path d="M248.057 107.106c-3.933-6.93-11.864-7.625-19.412-3.665-7.216 4.06-11.444 13.106-20.04 14.505-14.033 4.902-41.104 39.454-40.334 45.721-.255 6.234 7.97 6.996 11.866 2.692 5.919-3.945 20.26-15.498 30.388-18.31 17.19-4.051 16.92 26.581 27.684 27.19 13.971-10.934 21.563-11.21 3.996-36.493 15.821 28.705 14.296 15.189 27.193 3.547 2.222-7.964-24.953-15.838.68-5.35 11.273-9.17-3.939-18.438-22.02-29.837z" style="fill:#fff;fill-opacity:1;fill-rule:evenodd;stroke:#000;stroke-width:2.14402986;stroke-linecap:butt;stroke-linejoin:miter;stroke-miterlimit:4;stroke-dasharray:none;stroke-opacity:1"/></svg>