<svg
   xmlns="http://www.w3.org/2000/svg"
   xmlns:xlink="http://www.w3.org/1999/xlink"
   id="svg2"
   version="1.0"><title>Herb Bodzentyn</title>
  <metadata
     id="metadata7">
    <rdf:RDF>
      <cc:Work
         rdf:about="">
        <dc:format>image/svg+xml</dc:format>
        <dc:type
           rdf:resource="http://purl.org/dc/dcmitype/StillImage" />
        <dc:title></dc:title>
      </cc:Work>
    </rdf:RDF>
  </metadata>
  <defs
     id="defs5">
    <pattern
       xlink:href="#pattern3201"
       id="pattern3210"
       patternTransform="matrix(2.2388086,0,0,2.2425688,426.32348,-293.23515)" />
    <pattern
       patternUnits="userSpaceOnUse"
       width="33.838135"
       height="33.838135"
       patternTransform="translate(342.4501,87.82343)"
       id="pattern3201">
      <rect
         transform="matrix(0.707107,0.707107,-0.707107,0.707107,0,0)"
         y="-11.649342"
         x="12.277833"
         height="23.298683"
         width="23.298683"
         id="rect3199"
         style="opacity:1;color:#000000;fill:#ffffff;fill-opacity:1;fill-rule:evenodd;stroke:#000000;stroke-width:0.88882178;stroke-linecap:butt;stroke-linejoin:miter;marker:none;marker-start:none;marker-mid:none;marker-end:none;stroke-miterlimit:4;stroke-dasharray:none;stroke-dashoffset:0;stroke-opacity:1;visibility:visible;display:inline;overflow:visible" />
    </pattern>
  </defs>
  <sodipodi:namedview
     borderopacity="1.0"
     bordercolor="#666666"
     pagecolor="#ffffff"
     id="base"
     showgrid="false"
     units="px" />
  <path
     style="fill:#ffffff;fill-opacity:1;fill-rule:evenodd;stroke:#000000;stroke-width:5.48841;stroke-linecap:butt;stroke-linejoin:miter;stroke-miterlimit:4;stroke-dasharray:none;stroke-opacity:1"
     d="m 840.78749,558.53631 1.46788,109.93885 c 0,0 -2.63959,150.4823 -213.33304,226.01979 -210.08728,75.32014 -205.12795,102.73629 -206.42228,102.76087 -1.29434,0.0243 3.66488,-27.39146 -206.4224,-102.71159 C 5.3840787,819.00677 2.7445007,668.52446 2.7445007,668.52446 L 4.1099198,557.73721"
     id="path2516-2" />
  <path
     style="fill:url(#pattern3210);fill-opacity:1;fill-rule:evenodd;stroke:#000000;stroke-width:5.48841;stroke-linecap:butt;stroke-linejoin:miter;stroke-miterlimit:4;stroke-dasharray:none;stroke-opacity:1"
     d="m 840.78749,558.53631 1.46798,109.93885 c 0,0 -2.63969,150.4823 -213.33314,226.01977 -210.08728,75.32013 -205.12795,102.73626 -206.42228,102.76092 -1.29434,0.0246 3.66488,-27.3915 -206.4224,-102.71162 C 5.3841844,819.00677 2.7445007,668.52446 2.7445007,668.52446 L 4.1100254,557.73721"
     id="path2516" />
  <path
     id="path1349"
     style="fill:#db0b10;fill-opacity:1;fill-rule:evenodd;stroke:#000000;stroke-width:5.48841;stroke-linecap:butt;stroke-linejoin:miter;stroke-miterlimit:4;stroke-opacity:1"
     d="M 422.57314,2.793488 H 10.949691 L 4.1100254,557.73721 840.78749,558.53631 833.36657,2.7442046 H 422.42685" />
  <path
     style="fill:#ffffff;fill-opacity:1;fill-rule:evenodd;stroke:#000000;stroke-width:7.00215;stroke-linecap:butt;stroke-linejoin:miter;stroke-miterlimit:4;stroke-dasharray:none;stroke-opacity:1"
     d="m 119.6832,554.47987 v -82.76732 c 2.97757,-11.55758 14.888,-20.87825 29.03166,-24.60649 V 174.19759 C 135.68787,171.5878 126.01058,162.26716 112.9836,149.59109 V 95.904175 h 46.89723 V 131.69543 H 195.6121 V 95.904175 h 40.19764 v 31.317365 h 33.49813 V 98.141107 h 42.43087 v 49.213023 c -10.42163,14.91303 -15.09375,18.36989 -29.98187,26.57205 l -1.28302,273.17988 c 15.26022,0.74565 22.70428,12.67607 29.03166,20.13259 v 87.24122 z"
     id="path2327" />
  <path
     style="fill:#000000;fill-opacity:1;fill-rule:evenodd;stroke:#000000;stroke-width:2.2407px;stroke-linecap:butt;stroke-linejoin:miter;stroke-opacity:1"
     d="m 150.9819,174.3953 128.37538,-0.19773 0.0982,23.1265 c -4.46636,-14.54021 -9.03149,-18.09335 -23.54728,-19.21183 h -79.83703 c -9.8633,0.55925 -21.99375,2.79619 -25.15744,18.45488 z"
     id="path2331" />
  <path
     style="fill:#efa903;fill-opacity:1;fill-rule:evenodd;stroke:#000000;stroke-width:2.11135;stroke-linecap:butt;stroke-linejoin:miter;stroke-miterlimit:4;stroke-dasharray:none;stroke-opacity:1"
     d="m 447.13304,355.03972 12.76102,39.33051 17.66901,-10.8159 26.50363,0.98327 24.54037,39.33051 -18.6507,3.93307 -12.76103,19.66526 -14.72417,-31.46441 -15.17467,1.08887 -28.99797,11.69356 -23.55868,-71.77824 z"
     id="path2312" />
  <path
     id="path2319"
     d="m 393.86965,355.03972 -12.76092,39.33051 -17.66911,-10.8159 -26.50352,0.98327 -24.54037,39.33051 18.65059,3.93307 12.76102,19.66526 14.72418,-31.46441 15.0664,1.47371 29.10635,11.30872 23.55867,-71.77824 z"
     style="fill:#efa903;fill-opacity:1;fill-rule:evenodd;stroke:#000000;stroke-width:2.11135;stroke-linecap:butt;stroke-linejoin:miter;stroke-miterlimit:4;stroke-dasharray:none;stroke-opacity:1" />
  <path
     style="fill:#efa903;fill-opacity:1;fill-rule:evenodd;stroke:#000000;stroke-width:5.27836;stroke-linecap:butt;stroke-linejoin:miter;stroke-miterlimit:4;stroke-dasharray:none;stroke-opacity:1"
     d="m 345.0852,370.00992 h 159.64441 c 32.85435,-60.48865 17.81541,-161.30309 -80.51632,-237.78299 -7.40382,9.03853 -11.33709,13.90545 -13.88214,25.02978 -5.78414,-5.79392 -8.79204,-12.28316 -13.18796,-25.72507 -71.72438,67.90492 -100.41402,169.87812 -52.05799,238.47828 z"
     id="path1364" />
  <path
     style="fill:none;fill-opacity:0.75;fill-rule:evenodd;stroke:#000000;stroke-width:5.27836;stroke-linecap:butt;stroke-linejoin:miter;stroke-miterlimit:4;stroke-dasharray:none;stroke-opacity:1"
     d="m 410.50469,157.25671 c -26.507,31.33534 -34.16178,68.83705 -32.1024,107.07188 1.38824,36.15414 -36.78762,44.49742 -33.31709,0 6.01558,-48.20551 25.73974,-89.80594 52.57852,-130.36347"
     id="path2239" />
  <path
     id="path2321"
     d="m 381.10873,394.37023 -7.51081,23.10551"
     style="fill:none;fill-opacity:0.75;fill-rule:evenodd;stroke:#000000;stroke-width:2.11135;stroke-linecap:butt;stroke-linejoin:miter;stroke-miterlimit:4;stroke-dasharray:none;stroke-opacity:1" />
  <path
     style="fill:none;fill-opacity:0.75;fill-rule:evenodd;stroke:#000000;stroke-width:3.93962;stroke-linecap:butt;stroke-linejoin:miter;stroke-miterlimit:4;stroke-dasharray:none;stroke-opacity:1"
     d="M 340.9205,363.05718 H 508.20014"
     id="path2241" />
  <path
     style="fill:none;fill-opacity:0.75;fill-rule:evenodd;stroke:#000000;stroke-width:5.1749;stroke-linecap:round;stroke-linejoin:miter;stroke-miterlimit:4;stroke-dasharray:none;stroke-opacity:1"
     d="m 332.59131,345.62172 h 81.21037 V 147.57659"
     id="path2243" />
  <path
     style="fill:none;fill-opacity:0.75;fill-rule:evenodd;stroke:#000000;stroke-width:5.0624;stroke-linecap:butt;stroke-linejoin:miter;stroke-miterlimit:4;stroke-dasharray:none;stroke-opacity:1"
     d="m 328.44382,337.93485 h 75.59301 V 165.68482"
     id="path2245" />
  <path
     style="fill:none;fill-opacity:0.75;fill-rule:evenodd;stroke:#000000;stroke-width:7.3897;stroke-linecap:butt;stroke-linejoin:miter;stroke-miterlimit:4;stroke-dasharray:none;stroke-opacity:1"
     d="m 450.88433,158.15275 v 182.13167 h 63.96186"
     id="path2247" />
  <path
     style="fill:none;fill-opacity:0.75;fill-rule:evenodd;stroke:#000000;stroke-width:8.44538;stroke-linecap:butt;stroke-linejoin:miter;stroke-miterlimit:4;stroke-dasharray:none;stroke-opacity:1"
     d="m 464.62439,172.44228 v 153.8759 h 52.44617"
     id="path2249" />
  <path
     style="fill:none;fill-opacity:0.75;fill-rule:evenodd;stroke:#000000;stroke-width:2.11135;stroke-linecap:butt;stroke-linejoin:miter;stroke-miterlimit:4;stroke-dasharray:none;stroke-opacity:1"
     d="m 459.89406,394.37023 7.40244,22.72067"
     id="path2314" />
  <path
     style="fill:none;fill-opacity:0.75;fill-rule:evenodd;stroke:#000000;stroke-width:2.11135;stroke-linecap:butt;stroke-linejoin:miter;stroke-miterlimit:4;stroke-dasharray:none;stroke-opacity:1"
     d="M 482.47117,416.00203 504.0667,385.02924"
     id="path2316" />
  <path
     id="path2323"
     d="M 358.53152,416.00203 336.9361,384.5376"
     style="fill:none;fill-opacity:0.75;fill-rule:evenodd;stroke:#000000;stroke-width:2.11135;stroke-linecap:butt;stroke-linejoin:miter;stroke-miterlimit:4;stroke-dasharray:none;stroke-opacity:1" />
  <path
     style="fill:none;fill-opacity:0.75;fill-rule:evenodd;stroke:#000000;stroke-width:5.60172;stroke-linecap:butt;stroke-linejoin:miter;stroke-miterlimit:4;stroke-dasharray:none;stroke-opacity:1"
     d="M 149.83143,447.66529 H 280.47385"
     id="path2329" />
  <path
     style="fill:#000000;fill-opacity:1;fill-rule:evenodd;stroke:#000000;stroke-width:2.2407px;stroke-linecap:butt;stroke-linejoin:miter;stroke-opacity:1"
     d="m 194.96271,303.86104 h 39.47781 v -82.25181 c 0,-20.19507 -39.87263,-20.58364 -39.87263,0 z"
     id="path2333" />
  <path
     id="path2347"
     d="m 529.7851,554.47987 v -82.76732 c 2.97759,-11.55758 14.888,-20.87825 29.03166,-24.60649 V 174.19759 C 545.78978,171.5878 536.11248,162.26716 523.0855,149.59109 V 95.904175 h 46.89724 v 35.791255 h 35.73127 V 95.904175 h 40.19773 v 31.317365 h 33.49804 V 98.141107 h 42.43087 v 49.213023 c -10.42163,14.91303 -15.09376,18.36989 -29.98186,26.57205 l -1.28304,273.17988 c 15.26023,0.74565 22.70428,12.67607 29.03166,20.13259 v 87.24122 z"
     style="fill:#ffffff;fill-opacity:1;fill-rule:evenodd;stroke:#000000;stroke-width:7.00215;stroke-linecap:butt;stroke-linejoin:miter;stroke-miterlimit:4;stroke-dasharray:none;stroke-opacity:1" />
  <path
     id="path2349"
     d="m 561.0838,174.3953 128.37538,-0.19773 0.0982,23.1265 c -4.46637,-14.54021 -9.0315,-18.09335 -23.54728,-19.21183 h -79.83704 c -9.86329,0.55925 -21.99373,2.79619 -25.15742,18.45488 z"
     style="fill:#000000;fill-opacity:1;fill-rule:evenodd;stroke:#000000;stroke-width:2.2407px;stroke-linecap:butt;stroke-linejoin:miter;stroke-opacity:1" />
  <path
     id="path2351"
     d="M 559.93333,447.66529 H 690.57575"
     style="fill:none;fill-opacity:0.75;fill-rule:evenodd;stroke:#000000;stroke-width:5.60172;stroke-linecap:butt;stroke-linejoin:miter;stroke-miterlimit:4;stroke-dasharray:none;stroke-opacity:1" />
  <path
     id="path2353"
     d="m 605.06463,303.86104 h 39.47779 v -82.25181 c 0,-20.19507 -39.87252,-20.58364 -39.87252,0 z"
     style="fill:#000000;fill-opacity:1;fill-rule:evenodd;stroke:#000000;stroke-width:2.2407px;stroke-linecap:butt;stroke-linejoin:miter;stroke-opacity:1" />
  <path
     id="rect2356"
     style="color:#000000;display:inline;overflow:visible;visibility:visible;opacity:1;fill:#ffffff;fill-opacity:1;fill-rule:evenodd;stroke:#000000;stroke-width:5.60172;stroke-linecap:butt;stroke-linejoin:miter;stroke-miterlimit:4;stroke-dasharray:none;stroke-dashoffset:0;stroke-opacity:1;marker:none;marker-start:none;marker-mid:none;marker-end:none"
     d="m 13.364617,499.99992 h 90.009473 v 53.78004 H 13.364617 Z" />
  <path
     id="rect2358"
     style="color:#000000;display:inline;overflow:visible;visibility:visible;opacity:1;fill:#ffffff;fill-opacity:1;fill-rule:evenodd;stroke:#000000;stroke-width:5.60172;stroke-linecap:butt;stroke-linejoin:miter;stroke-miterlimit:4;stroke-dasharray:none;stroke-dashoffset:0;stroke-opacity:1;marker:none;marker-start:none;marker-mid:none;marker-end:none"
     d="m 741.25784,499.99992 h 90.00948 v 53.78004 h -90.00948 z" />
  <path
     id="rect2360"
     style="color:#000000;display:inline;overflow:visible;visibility:visible;opacity:1;fill:#ffffff;fill-opacity:1;fill-rule:evenodd;stroke:#000000;stroke-width:5.72776;stroke-linecap:butt;stroke-linejoin:miter;stroke-miterlimit:4;stroke-dasharray:none;stroke-dashoffset:0;stroke-opacity:1;marker:none;marker-start:none;marker-mid:none;marker-end:none"
     d="m 325.48718,499.99992 h 182.18294 v 53.78004 H 325.48718 Z" />
  <path
     style="fill:none;fill-opacity:0.75;fill-rule:evenodd;stroke:#ffffff;stroke-width:5.89163;stroke-linecap:butt;stroke-linejoin:miter;stroke-miterlimit:4;stroke-dasharray:none;stroke-opacity:1"
     d="M 6.7766436,561.19076 H 838.0671"
     id="path3206" />
  <path
     id="path3208"
     d="M 4.6641361,566.23513 H 840.17961"
     style="fill:none;fill-opacity:0.75;fill-rule:evenodd;stroke:#000000;stroke-width:5.89163;stroke-linecap:butt;stroke-linejoin:miter;stroke-miterlimit:4;stroke-dasharray:none;stroke-opacity:1" />
  <path
     style="fill:none;stroke:#000000;stroke-width:4.22269;stroke-linecap:butt;stroke-linejoin:miter;stroke-miterlimit:4;stroke-dasharray:none;stroke-opacity:1"
     d="m 449.14721,158.37409 v -4.0739 l 6.89152,6.27778"
     id="path2011" />
  <path
     style="fill:none;stroke:#000000;stroke-width:4.22269;stroke-linecap:butt;stroke-linejoin:miter;stroke-miterlimit:4;stroke-dasharray:none;stroke-opacity:1"
     d="m 462.28088,175.14331 v -4.07391 l 6.89164,6.27778"
     id="path2011-9" />
</svg>