<svg xmlns="http://www.w3.org/2000/svg" viewBox="-20.78 -24.50 642.09 745.56"><title>Herb Biłgoraj</title><g style="fill:#f20300;fill-opacity:1;stroke:#000;stroke-width:2.39747095;stroke-miterlimit:4;stroke-dasharray:none;stroke-opacity:1"><path d="M1.074 2.048v144.466C.846 275.202 87.077 304.16 131.484 304.788h0c.168 0 1.405.013 1.577.013v-.013c43.467-.692 128.776-29.986 128.709-158.274V2.048z" style="color:#000;fill:#f20300;fill-opacity:1;fill-rule:nonzero;stroke:#000;stroke-width:2.39747095;stroke-linecap:round;stroke-linejoin:miter;marker:none;marker-start:none;marker-mid:none;marker-end:none;stroke-miterlimit:4;stroke-dasharray:none;stroke-dashoffset:0;stroke-opacity:1;visibility:visible;display:block" transform="matrix(2.28056 0 0 2.28017 .551 -1.555)"/></g><path d="M462.72 556.686c-53.004 0-216.606-.12-324.909 0 4.98 17.727 10.6 36.083 15 51.754H448.04c4.678-16.655 10.57-37.12 14.68-51.754z" style="fill:#fff;fill-opacity:1;stroke:#000;stroke-width:5.5;stroke-miterlimit:4;stroke-dasharray:none;stroke-opacity:1"/><path d="M487.113 466.107H113.418c4.287 15.765 8.845 33.517 13.818 51.807h345.31c5.386-19.81 9.71-33.949 14.567-51.807z" style="fill:#fff;fill-opacity:1;stroke:#000;stroke-width:5.49999952;stroke-miterlimit:4;stroke-dasharray:none;stroke-opacity:1"/><path d="M509.554 375.745c-139.526-.311-279.051-.103-418.577 0 6.314 23.774 10.343 39.113 13.671 51.643 130.366-.33 260.733-.057 391.099 0 4.576-17.229 9.195-34.468 13.807-51.643z" style="fill:#fff;fill-opacity:1;stroke:#000;stroke-width:5.49999809;stroke-miterlimit:4;stroke-dasharray:none;stroke-opacity:1"/><path d="M-655.941 398.07c-12.1-1.58-20.614-4.491-31.103-10.633-2.875-1.683-3.352-1.701-6.5-.242-4.65 2.154-12.367 4.26-25.397 6.934-14.711 3.017-46.52 3.31-59 .542-39.56-8.773-73.343-31.377-88.445-59.179-7.64-14.062-11.053-27.554-11.054-43.688-.002-23.503 7.678-42.332 23.983-58.8 12.64-12.766 30.804-23.962 72.721-44.822 15.513-7.72 30.205-15.412 32.65-17.094 14.762-10.156 17.017-27.66 5.1-39.578-6.029-6.029-10.06-7.403-22.627-8.476-2.499-.213-4.81-.505-8.658.752-4.44 1.452-9.48 5.532-9.48 5.532-10.472 7.875-20.881 12.588-29.46 13.338-5.02.439-7.365 1.161-9.23 2.843-3.857 3.48-43.777 25.1-49.698 26.917-2.99.917-5.302-3.628-5.302-10.428 0-6.616 1.734-9.782 10.38-18.947 15.107-16.015 20.499-23.017 21.785-26.735 2.532-7.32 5.47-13.58 11.928-20.017 9.737-9.707 12.766-10.524 42.075-7.707 26.105-2.592 48.318-.558 65.51 7.904 14.727 7.25 23.704 17.082 28.575 31.297 3.556 10.38 2.74 27.636-1.877 39.668-.888 2.314.544 1.936 10.76-2.84 9.045-4.229 28.763-11.626 45.402-17.034 4.421-1.436 12.744-4.612 18.495-7.055 5.751-2.444 10.827-4.073 11.28-3.62.926.925-3.225 14.02-6.468 20.412-2.724 5.367-7.156 11.924-12.144 17.964-2.175 2.635-3.713 5.031-3.419 5.326 1.83 1.83 45.723-11.852 70.476-21.97 8.942-3.655 16.48-6.646 16.75-6.646.967 0 .444 6.592-.935 11.771-1.81 6.8-4.015 10.191-11.585 17.818l-6.18 6.227 3.346-.158c2.901-.137 3.386.185 3.646 2.421.55 4.726-3.559 13.405-8.926 18.857-2.782 2.826-6.142 5.849-7.466 6.717-1.785 1.169-2.408 2.483-2.408 5.077 0 4.582-4.31 12.379-8.87 16.051-2.537 2.042-4.059 4.387-5.053 7.784-1.053 3.595-3.07 6.557-7.75 11.377-4.904 5.05-6.332 7.196-6.35 9.537-.027 3.789-2.831 10.03-6.411 14.271-3.472 4.112-1.991 4.25 7.263.672l14.67-5.675c25.775-9.975 48.092-20.955 62.708-30.851 4.789-3.243 9.241-5.896 9.894-5.896 1.723 0 .484 11.086-2.058 18.42-1.129 3.255-3.346 7.98-4.928 10.5-1.928 3.072-3.05 6.426-3.408 10.186-.323 3.393-1.752 8.02-3.62 11.722-2.283 4.522-3.089 7.49-3.093 11.394-.008 7.967-1.57 12.09-6.769 17.872-4.342 4.83-4.73 5.685-4.795 10.56-.04 3.015-.962 7.365-2.138 10.076-1.137 2.624-2.797 7.297-3.689 10.385-2.242 7.769-5.268 11.837-10.998 14.785-4.17 2.146-6.268 2.525-14.177 2.56l-9.283.04-3.076 4.247c-1.692 2.335-4.878 5.551-7.08 7.146-4.741 3.435-14.781 7.588-20.734 8.576-2.335.388-4.454 1.045-4.71 1.46-.257.414.866 1.738 2.494 2.942 4.18 3.09 3.726 4.7-1.712 6.069-5.93 1.493-25.967 2.17-33.827 1.143" style="fill:#000" transform="matrix(1.04678 0 0 1.0466 1030.383 -58.218)"/><path d="m-630.136 393.338 3.804-.63-4.137-2.738c-2.276-1.507-7.942-4.03-12.592-5.61-7.13-2.42-8.409-3.184-8.167-4.87.366-2.552 2.84-2.262 12.48 1.461 7.021 2.713 7.377 2.749 15 1.51 13.776-2.241 24.275-7.406 29.246-14.388 1.665-2.338 1.88-3.21.882-3.572-9.925-3.6-9.21-3.596-14.154-.08-12.148 8.636-26.022 11.988-41.078 9.924-3.997-.547-4.646-.946-4.39-2.693.284-1.937.881-2.037 10.8-1.796 12.089.294 19.542-1.527 28.518-6.967l5.4-3.273-13.709-6.673c-13.539-6.59-32.208-18.075-32.208-19.814 0-.493.573-1.371 1.273-1.953.945-.784 3.59.493 10.25 4.946 10.1 6.754 31.175 17.26 42.477 21.176 23.398 8.107 38.695 5.365 42.69-7.652 1.284-4.183 1.422-4.125-5.1-2.147-7.379 2.239-21.275 1.953-28.034-.575-6.13-2.294-7.263-3.38-5.61-5.371.929-1.119 2.005-.998 6.336.71 7.46 2.94 21.039 2.824 29.065-.251 5.047-1.934 6.105-2.807 7.728-6.382 2.192-4.826 2.605-11.149.675-10.317-12.718 5.48-16.637 6.89-22.7 8.165-7.782 1.637-24.7 2.018-26.928.607-.758-.48-1.07-1.37-.695-1.979.492-.796-2.273-.925-9.872-.46-10.05.615-10.555.552-10.555-1.322 0-1.75 1.126-2.1 10.176-3.162 5.597-.657 13.36-2.129 17.25-3.271 13.697-4.022 39.423-18.071 52.318-28.571 4.926-4.01 8.81-10.21 9.805-15.646l.698-3.815-10.874 7.172c-25.067 16.532-55.71 27.957-74.984 27.957-4.666 0-5.39-.26-5.39-1.938 0-1.568.91-2.047 4.75-2.5 27.16-3.206 48.907-11.315 72.75-27.127 11.879-7.877 14.845-10.52 18.206-16.22 2.465-4.181 6.695-16.148 5.966-16.877-.201-.201-1.555.57-3.008 1.713-5.452 4.288-25.167 14.946-38.44 20.781-12.303 5.408-38.918 15.867-60.56 23.797-7.373 2.702-8.126 3.263-12.75 9.495-5.805 7.823-11.85 13.59-17.976 17.152-6.847 3.98-26.409 10.329-48.437 15.719-24.91 6.095-24.916 6.096-25.305 3.368-.272-1.91.523-2.318 7.5-3.835 26.297-5.72 49.398-12.489 59.952-17.566 7.67-3.69 16.842-11.27 19.384-16.02.808-1.509.433-1.746-2.8-1.772-4.376-.036-28.37 5.56-42.712 9.962-5.51 1.691-16.94 5.98-25.397 9.53s-15.995 6.217-16.75 5.928c-3.825-1.468-.182-3.79 18.878-12.033 20.37-8.81 34.48-16.325 33.98-18.1-.495-1.765-5.657-2.515-15.73-2.285-9.375.214-10.019.1-10.298-1.803-.26-1.78.561-2.185 6.651-3.273 10.596-1.894 25.147-9.61 25.147-13.334 0-.475-1.688-1.596-3.75-2.491-2.859-1.241-6.662-1.597-16-1.498-11.486.123-12.25.01-12.25-1.802 0-1.213.838-2.09 2.25-2.353 10.087-1.885 18.096-4.053 22.484-6.086 4.896-2.268 14.266-10.405 14.266-12.389 0-2.46-9.69-2.69-30.832-.733l-14.332 1.327-4.688 4.617c-2.579 2.54-7.553 6.149-11.055 8.02l-6.366 3.401 5.386.677c11.277 1.417 16.887 2.802 16.887 4.17 0 1.748-12.974 10.816-22.205 15.519l-7.145 3.64 8.425.42c4.634.23 10 1.122 11.925 1.983l3.5 1.564-6.075 5.991c-9.883 9.748-22.428 14.59-40.175 15.505-8.1.418-8.25.383-8.25-1.91 0-2.076.47-2.336 4.25-2.353 6.798-.032 17.76-1.85 24.25-4.024 5.889-1.972 16.526-8.534 17.223-10.626.582-1.746-8.271-2.283-23.723-1.438-19.793 1.082-20.216.597-4.355-4.999 10.008-3.53 20.25-8.482 28.355-13.708l5.5-3.547-4-.908c-2.233-.507-13.501-.618-25.5-.253-13.235.404-21.116.3-20.5-.272.55-.51 7.743-2.549 15.984-4.53 17.43-4.191 27.491-8.717 34.347-15.45l4.669-4.586-4.66-.912c-6.245-1.221-17.36 1.114-29.239 6.142-5.006 2.119-10.297 4.138-11.758 4.487-1.462.35-3.374.91-4.25 1.246s-1.593.153-1.593-.408 5.302-4.19 11.783-8.065 14.919-9.254 18.75-11.952c6.655-4.685 16.892-14.086 16.15-14.828-.965-.965-16.627 4.061-26.684 8.563-6.25 2.798-11.455 5.087-11.565 5.087s-.448-.945-.75-2.1c-.478-1.828.638-2.652 8.633-6.374 12.356-5.751 22.94-9.18 31.002-10.043 5.883-.63 6.68-.514 6.68.97 0 3.746-8.433 13.448-17.883 20.573l-3.35 2.525 7.542-.38c8.707-.44 18.224 2 17.29 4.432-.69 1.798-1.042 1.829 12.95-1.133 15.642-3.31 18.754-4.178 24.852-6.926 5.032-2.268 13.6-8.907 13.6-10.539 0-.462-2.033-1.616-4.518-2.565-4.648-1.775-8.18-1.758-33.482.162-11.438.868-9.574-.648 5-4.068 6.325-1.484 13.386-3.363 15.692-4.176 4.29-1.513 9.308-4.894 9.308-6.272 0-3.207-24.837-4.15-39-1.48-4.675.88-10.945 1.768-13.934 1.97-10.392.707-47.416 20.538-58.35 31.255-13.482 13.215-14.362 26.607-2.234 33.967 4.076 2.472 4.455 3.043 4.464 6.702.019 7.742-5.977 16.656-12.014 17.864-7.827 1.565-18.207-6.344-19.482-14.845-1.518-10.127 1.747-23.327 8.194-33.126 6.44-9.788 15.874-16.964 56.356-42.868 9.622-6.157 21.853-18.048 27.993-27.216 20.573-30.717 13.643-64.886-16.147-79.605-15.552-7.684-28.7-9.903-63.417-7.45-23.137-2.742-26.357-1.483-30.437.371-5.968 2.712-13.265 10.146-16.33 16.636-3.738 7.918-3.932 9.868-1.305 13.162l2.284 2.865 2.66-4.538c5.767-9.84 14.296-13.778 31.449-14.517 10.957-.472 11.25-.43 11.25 1.641 0 1.891-.581 2.133-5.25 2.184-2.888.032-6.862.37-8.832.75l-3.582.692 1.664 3.751c.916 2.063 1.965 3.45 2.332 3.083s.668-.14.668.503-3.38 4.379-7.51 8.302c-6.263 5.95-7.305 7.38-6.28 8.615 3.385 4.078 18.208-2.697 32.702-12.12 7.405-4.814 11.843-6.403 22.85-5.754 8.647.519 16.024 2.728 22.816 9.532 4.26 4.267 6.58 7.563 7.75 11.016 4.258 12.554-.073 25.922-11.026 34.034-2.641 1.956-18.652 10.538-35.58 19.071-44.592 22.479-58.634 31.164-71.758 44.384-15.576 15.69-21.973 31.981-21.957 55.921.015 23.685 8.801 43.902 26.705 61.45 12.383 12.137 23.637 19.67 39.175 26.224 30.943 13.05 58.845 15.114 95.148 7.038 5.794-1.289 12.262-3.065 14.373-3.947l3.838-1.603-5.12-5.25c-2.816-2.887-5.121-5.826-5.123-6.531-.008-3.236 3.155-1.827 9.196 4.096 10.565 10.36 19.132 15.246 30.8 17.57 3.026.603 6.4 1.273 7.5 1.49 3.359.66 21.76.643 25.806-.025" style="fill:#fff;fill-opacity:1" transform="matrix(1.04678 0 0 1.0466 1030.383 -58.218)"/><path d="M-572.851 327.966c4.35-1.113 12.073-4.048 17.16-6.523 7.295-3.549 9.807-5.34 11.878-8.47 2.331-3.521 5.002-12.688 3.991-13.699-.21-.21-5.438 2.997-11.618 7.126-13.608 9.092-26.455 15.838-38.501 20.217l-9 3.271 9.09.05c5.998.033 11.78-.638 17-1.972m-84.59-31.476c8.525-1.943 17.13-3.913 19.12-4.378 8.87-2.07 24.673-16.329 26.626-24.021 1.02-4.016.606-5.03-1.296-3.178-1.507 1.467-19.046 8.98-29.45 12.615-8.545 2.985-18.153 5.914-30.936 9.431l-4.436 1.22 4.368 2.2c2.402 1.21 4.524 2.67 4.716 3.247.192.576-1.464 2.305-3.681 3.84-4.346 3.012-5.055 3.978-2.281 3.108.962-.302 8.725-2.14 17.25-4.083" style="fill:#fff;fill-opacity:1" transform="matrix(1.04678 0 0 1.0466 1030.383 -58.218)"/><path d="M-783.313 292.422c5.816-3.007 7.692-12.02 3.122-14.992-7.903-5.138-11.09-12.334-9.584-21.643.743-4.6.674-5.496-.36-4.638-6.963 5.78-11.844 28.031-7.844 35.766 1.252 2.42 8.376 7.07 10.837 7.073.44 0 2.163-.705 3.83-1.566" style="fill:#f20300;fill-opacity:1" transform="matrix(1.04678 0 0 1.0466 1030.383 -58.218)"/><path d="M-648.941 274.82c19.235-6.434 37.853-15.273 43.885-20.832 4.476-4.126 9.268-10.68 8.425-11.523-.23-.23-3.544.842-7.364 2.38-18.318 7.382-61.953 20.143-68.873 20.143-2.207 0-1.964 1.741.344 2.474 2.471.784 7.083 4.407 7.083 5.564 0 .491-1.459 2.554-3.241 4.584l-3.241 3.691 3.99-.731c2.196-.402 10.742-2.99 18.992-5.75m-9.099-17.865c23.022-5.467 56.575-16.862 65.444-22.225 4.17-2.521 9.155-9.269 9.155-12.392 0-1.292-.216-2.35-.48-2.35s-4.877 1.752-10.25 3.892c-17.365 6.918-40.606 13.798-63.061 18.67-1.26.273-2.03.92-1.71 1.438.878 1.42-2.271 7.032-6.312 11.25-1.976 2.063-3.087 3.75-2.47 3.75.62 0 4.977-.915 9.685-2.033m-7.402-16.935c0-.533-.675-.71-1.5-.393s-1.5.752-1.5.968.675.393 1.5.393 1.5-.436 1.5-.968m22.763-5.652c28.398-6.857 57.84-17.95 66.695-25.13 5.418-4.392 11.795-13.33 10.462-14.663-.316-.316-8.19 1.943-17.497 5.019-17.21 5.687-53.027 15.128-66.158 17.437l-7.234 1.272 3.65 3.156 3.651 3.156-3.916 4.35c-2.154 2.393-5.716 5.665-7.916 7.271l-4 2.92 4-.671c2.2-.37 10.418-2.222 18.263-4.117m1.25-23.838c16.924-3.59 40.98-9.906 51.264-13.458 3.178-1.097 7.678-3.503 10-5.346s7.304-5.8 11.07-8.794c7.707-6.128 12.945-12.687 15.17-18.993.827-2.344 1.364-4.403 1.193-4.574s-5.24 1.73-11.261 4.227c-22.748 9.43-55.998 19.573-79.45 24.235-22.826 4.538-40.616 8.488-46.852 10.403l-7.353 2.258h14.853c14.04 0 15.168.148 20.603 2.695 3.162 1.482 5.75 3.1 5.75 3.597s-1.647 2.597-3.66 4.67l-3.659 3.767 2.91-.591c1.6-.325 10.34-2.168 19.422-4.095m-61.513-13.186c11.197-3.83 33.19-9.364 47.374-11.92 9.307-1.678 9.414-1.73 14.872-7.313 3.024-3.093 7.479-8.396 9.9-11.783 4.324-6.054 11.916-21.112 11.069-21.96-.238-.237-2.633.524-5.324 1.692s-13.441 5.04-23.891 8.606c-22.221 7.582-39.686 14.735-48.294 19.78-5.098 2.988-7.174 5.114-12.305 12.606-3.425 5.001-8.672 11.089-11.787 13.677a6053 6053 0 0 0-6.547 5.444c-.513.43 2.637-.612 7-2.314s12.433-4.634 17.933-6.515m-163.671-38.275c3.119-2.706 11.365-8.668 18.324-13.25 17.812-11.728 16.595-10.787 14.892-11.514-.8-.341-3.546-2.577-6.102-4.967l-4.646-4.346-10.393 11.747c-5.716 6.462-11.42 12.578-12.677 13.593-3.808 3.076-8.184 13.655-5.648 13.655.318 0 3.13-2.213 6.25-4.918m35.671-13.635c5.509-3.326 7.069-4.795 7.322-6.9l.323-2.673-3.323 1.679c-5.25 2.653-34.364 22.186-35.919 24.1-1.488 1.831 19.824-9.1 31.597-16.206m4.745-16.947c-.554-2.894.484-3.252 2.285-.79 1.077 1.474 1.635 1.536 4.016.451l2.766-1.26-3.392-1.7c-1.866-.936-3.902-2.736-4.524-4.002l-1.132-2.302-2.563 3.046c-4.786 5.689-4.453 9.003.91 9.042 1.716.012 2.022-.453 1.634-2.485m13.226-7.855c2.396-1.752 1.405-4.387-1.969-5.233-1.755-.441-3.189-.1-4.475 1.064-2.847 2.576-1.347 4.874 3.532 5.408.582.064 1.893-.494 2.912-1.24" style="fill:#fff;fill-opacity:1" transform="matrix(1.04678 0 0 1.0466 1030.383 -58.218)"/></svg>