<!-- Created with Inkscape (http://www.inkscape.org/) -->
<svg role="img" viewBox="-25.80 -32.48 792.21 972.63"
   xmlns="http://www.w3.org/2000/svg"
   id="svg2180"
   version="1.0"><title>Herb Lipinki Łużyckie</title>
  <defs
     id="defs2182" />
  <sodipodi:namedview
     id="base"
     pagecolor="#ffffff"
     bordercolor="#666666"
     borderopacity="1.0" />
  <metadata
     id="metadata2185">
    <rdf:RDF>
      <cc:Work
         rdf:about="">
        <dc:format>image/svg+xml</dc:format>
        <dc:type
           rdf:resource="http://purl.org/dc/dcmitype/StillImage" />
      </cc:Work>
    </rdf:RDF>
  </metadata>
  <g
     id="layer1"
     transform="translate(10.307005,-72.815338)">
    <g
       id="g2360"
       transform="translate(233.46419,437.43304)">
      <g
         style="stroke:#000000;stroke-width:7.08661413;stroke-miterlimit:4;stroke-dasharray:none;stroke-opacity:1"
         transform="translate(-250.43246,-371.75974)"
         id="g3362">
        <path
           id="path3797"
           d="M 374.8776,454.39682 L 374.23353,10.685345 L 743.73197,10.685345 L 743.73197,454.89498 L 374.8776,454.39682 z "
           style="fill:#06b82d;fill-opacity:1;fill-rule:evenodd;stroke:#000000;stroke-width:7.08661413;stroke-linecap:round;stroke-linejoin:miter;stroke-miterlimit:4;stroke-dasharray:none;stroke-dashoffset:0;stroke-opacity:1" />
        <path
           id="path2822"
           d="M 743.73197,454.39498 L 743.73197,599.09766 C 736.44318,798.54823 546.26939,914.50786 375.97443,911.19472 L 374.8776,454.39682 L 743.73197,454.39498 z "
           style="fill:#f81819;fill-opacity:1;fill-rule:evenodd;stroke:#000000;stroke-width:7.08661413;stroke-linecap:round;stroke-linejoin:miter;stroke-miterlimit:4;stroke-dasharray:none;stroke-dashoffset:0;stroke-opacity:1" />
        <path
           id="path4304"
           d="M 375.97443,911.19472 C 222.24505,908.54422 16.830772,776.68156 10.204572,599.09766 L 10.204572,10.685345 L 374.23353,10.685345 L 375.97443,911.19472 z "
           style="fill:#fefbfa;fill-opacity:1;fill-rule:evenodd;stroke:#000000;stroke-width:7.08661413;stroke-linecap:round;stroke-linejoin:miter;stroke-miterlimit:4;stroke-dasharray:none;stroke-dashoffset:0;stroke-opacity:1" />
      </g>
      <path
         d="M -61.119313,396.7358 L -88.013523,396.7358 L -90.082313,289.15893 C -94.461773,270.55429 -105.87399,260.38896 -127.32045,262.26472 C -173.07004,255.55781 -222.98662,217.42885 -220.41582,154.68786 C -229.52762,42.826348 -182.17992,-12.575629 -143.87074,-77.01615 C -85.388073,-133.56296 -75.388873,-183.90342 -19.743593,-240.45023 C -31.177883,-206.98275 -39.273933,-172.26343 -7.330883,-122.52944 L 75.420547,-23.22772 C 105.44401,41.087971 108.13663,110.3729 77.489337,185.71964 C 53.706217,232.85254 20.448917,267.3532 -36.293883,270.53986 C -47.454783,271.35772 -58.967643,271.57723 -59.050523,291.22772 L -61.119313,396.7358 z M -88.231153,237.75609 L -74.994773,246.29568 L -78.410613,201.46281 C -77.559033,185.16704 6.926257,142.54186 55.661027,96.425781 L -70.073983,178.92368 C -76.047913,181.55748 -81.059743,182.65192 -81.399473,176.27099 L -81.826453,116.92081 C -82.872783,110.63092 -80.944473,106.57201 -77.446523,103.69034 L 46.694457,22.131304 C 6.385887,37.963997 -33.068723,65.705238 -73.377293,88.900166 C -77.712183,89.713083 -80.745603,88.899174 -80.545513,84.043368 L -76.702703,28.536 C -74.885213,14.431627 -4.795123,-20.979658 25.772447,-56.005992 L -60.477473,1.6362755 C -63.841203,1.5754813 -68.919193,4.9432179 -69.183563,-1.3163009 C -73.725953,-13.558765 -54.270593,-109.79335 -46.814113,-164.03187 C -62.327713,-117.73791 -78.695273,-2.8101233 -83.107393,4.6251338 C -101.05485,-10.56802 -117.82068,-28.715263 -133.491,-49.601295 C -121.7712,-21.072079 -102.67259,-4.3489686 -85.669273,15.726607 C -85.440253,31.878794 -84.669313,47.922598 -89.939063,65.174541 C -91.422393,73.106525 -94.158323,72.270347 -96.735333,72.5466 L -167.2224,17.434527 C -151.31856,42.096589 -124.57238,67.072461 -97.027733,89.983361 C -94.130793,92.392952 -90.769713,95.543925 -90.366043,104.5384 L -90.366043,164.74254 C -93.509193,170.29595 -96.849483,175.30724 -104.45638,168.58536 C -134.08946,149.1072 -158.12649,116.57157 -184.72857,90.021085 C -158.73463,131.26076 -124.9972,162.54454 -91.220003,193.77717 L -88.231153,237.75609 z "
         style="fill:#00c127;fill-opacity:1;fill-rule:evenodd;stroke:none;stroke-width:1px;stroke-linecap:butt;stroke-linejoin:miter;stroke-opacity:1"
         id="path3799" />
      <path
         id="path3806"
         style="fill:#00aa00;fill-opacity:1;fill-rule:evenodd;stroke:none;stroke-width:1px;stroke-linecap:butt;stroke-linejoin:miter;stroke-opacity:1"
         d="M -61.119313,396.7358 L -88.013523,396.7358 L -90.082313,289.15893 C -94.461773,270.55429 -105.87399,260.38896 -127.32045,262.26472 C -173.07004,255.55781 -222.98662,217.42885 -220.41582,154.68786 C -229.52762,42.826348 -182.17992,-12.575629 -143.87074,-77.01615 C -85.388073,-133.56296 -75.388873,-183.90342 -19.743593,-240.45023 C -31.177883,-206.98275 -39.273933,-172.26343 -7.330883,-122.52944 L 75.420547,-23.22772 C 105.44401,41.087971 108.13663,110.3729 77.489337,185.71964 C 53.706217,232.85254 20.448917,267.3532 -36.293883,270.53986 C -47.454783,271.35772 -58.967643,271.57723 -59.050523,291.22772 L -61.119313,396.7358 z M -88.231153,237.75609 L -74.994773,246.29568 L -78.410613,201.46281 C -77.559033,185.16704 6.926257,142.54186 55.661027,96.425781 L -70.073983,178.92368 C -76.047913,181.55748 -81.059743,182.65192 -81.399473,176.27099 L -81.826453,116.92081 C -82.872783,110.63092 -80.944473,106.57201 -77.446523,103.69034 L 46.694457,22.131304 C 6.385887,37.963997 -33.068723,65.705238 -73.377293,88.900166 C -77.712183,89.713083 -80.745603,88.899174 -80.545513,84.043368 L -76.702703,28.536 C -74.885213,14.431627 -4.795123,-20.979658 25.772447,-56.005992 L -60.477473,1.6362755 C -63.841203,1.5754813 -68.919193,4.9432179 -69.183563,-1.3163009 C -73.725953,-13.558765 -54.270593,-109.79335 -46.814113,-164.03187 C -62.327713,-117.73791 -78.695273,-2.8101233 -83.107393,4.6251338 C -101.05485,-10.56802 -117.82068,-28.715263 -133.491,-49.601295 C -121.7712,-21.072079 -102.67259,-4.3489686 -85.669273,15.726607 C -85.440253,31.878794 -84.669313,47.922598 -89.939063,65.174541 C -91.422393,73.106525 -94.158323,72.270347 -96.735333,72.5466 L -167.2224,17.434527 C -151.31856,42.096589 -124.57238,67.072461 -97.027733,89.983361 C -94.130793,92.392952 -90.769713,95.543925 -90.366043,104.5384 L -90.366043,164.74254 C -93.509193,170.29595 -96.849483,175.30724 -104.45638,168.58536 C -134.08946,149.1072 -158.12649,116.57157 -184.72857,90.021085 C -158.73463,131.26076 -124.9972,162.54454 -91.220003,193.77717 L -88.231153,237.75609 z " />
      <path
         id="path3811"
         d="M -29.84375,-223.8125 C -69.202923,-179.02964 -92.210601,-121.48694 -135.5,-79.78125 C -145.96799,-69.211941 -151.79194,-55.0324 -160.32897,-42.907474 C -184.90886,-3.9521768 -207.51279,37.599987 -214.25443,83.737007 C -218.92797,113.06417 -217.69808,143.17232 -215.75,172.65625 C -211.52986,205.29928 -189.28603,233.84805 -159.78125,247.8125 C -146.54354,254.83488 -131.78762,258.52719 -116.8511,258.2148 C -102.41518,259.62107 -90.070694,270.90603 -87.095375,285.03116 C -84.308848,298.51084 -86.5967,312.43369 -85.373892,326.0922 C -84.936762,348.31147 -84.499631,370.53073 -84.0625,392.75 C -77.729167,392.75 -71.395833,392.75 -65.0625,392.75 C -63.855899,355.92739 -64.548735,318.94233 -62.15625,282.21875 C -60.082627,272.01205 -49.391632,266.03996 -39.4375,266.96875 C -11.478339,265.58471 16.557311,255.81238 36.815146,235.86413 C 65.166257,209.38504 81.474968,172.58989 89.21875,135.3125 C 99.377872,89.7167 96.702248,41.183926 79.888355,-2.4454573 C 76.062122,-13.839175 70.494362,-24.650354 61.88907,-33.243826 C 36.85287,-63.711334 10.729184,-93.389566 -13.375,-124.5625 C -31.105765,-152.40239 -39.242241,-187.48026 -30.09375,-219.84375 C -30.226102,-220.79605 -27.395247,-227.20999 -29.84375,-223.8125 z M -45.1875,-170.3125 C -40.315265,-167.07089 -44.236287,-159.49685 -44.078682,-154.78764 C -50.991576,-105.32596 -62.50107,-56.417183 -65.875,-6.5625 C -65.877916,-4.4697267 -66.13306,-0.15792195 -63,-2.15625 C -54.066603,-5.8714337 -47.324402,-13.240035 -38.731536,-17.685465 C -16.728741,-32.010686 4.5551905,-47.600185 27.125,-60.9375 C 30.864245,-62.644381 32.312783,-57.710796 30.0625,-55.40625 C 18.937058,-41.005255 3.823637,-30.156992 -10.625,-19.125 C -30.522171,-4.3625316 -52.071117,8.3429626 -70.21875,25.0625 C -75.589758,30.698135 -72.13689,39.275451 -73.839024,46.238493 C -74.597419,59.136032 -76.369598,72.597052 -76.0625,85.21875 C -70.26444,83.73561 -65.627508,78.78958 -60.080692,76.421864 C -25.015628,55.678046 8.9120788,32.123906 47.21875,17.9375 C 51.147404,16.18074 54.115095,21.145801 50.625,23.625 C 40.99161,31.897634 29.279373,37.707086 18.922406,45.182216 C -12.89971,66.346002 -45.40985,86.600716 -76.59375,108.59375 C -80.116617,115.17006 -76.36063,122.99991 -77.685517,130.09271 C -77.130615,145.61397 -78.521098,161.9436 -76.6875,176.96875 C -68.689772,174.92611 -62.50663,168.36486 -55.295034,164.49111 C -18.150587,140.48401 18.421561,115.09955 56.21875,92.0625 C 59.547174,90.158465 62.539552,94.316336 59.96875,97 C 52.233612,106.69642 41.561287,113.6429 32.112088,121.70146 C -0.22243335,147.11851 -36.5184,167.35976 -68.217338,193.60054 C -72.480913,196.74647 -75.944732,201.88324 -73.954935,207.30958 C -72.759862,222.87292 -71.580468,238.43747 -70.375,254 C -77.651124,249.3905 -84.883786,244.71208 -92.09375,240 C -93.087611,225.19753 -94.101255,210.39634 -95.09375,195.59375 C -129.66553,163.72377 -164.73499,130.74692 -189,90.28125 C -191.21407,87.328484 -188.04345,82.922459 -184.75,85.4375 C -175.54736,91.80659 -168.91227,101.40173 -160.98938,109.32027 C -141.72969,130.37626 -122.67245,153.06612 -98.0625,167.65625 C -92.021346,165.27287 -94.984915,156.70743 -94.4375,151.65625 C -94.892099,133.98467 -93.054698,116.01628 -95.5,98.53125 C -100.22886,89.449954 -110.65361,85.60672 -117.21875,77.90625 C -137.73644,59.293331 -158.66402,40.052913 -172.40625,15.75 C -173.92659,11.858256 -168.79892,10.876703 -166.5625,13.21875 C -142.38753,30.94059 -119.20132,50.947861 -95.125,68.21875 C -93.183624,63.547207 -92.505505,58.260332 -91.21875,53.34375 C -89.13781,41.474646 -89.440542,29.269432 -89.65625,17.21875 C -107.92627,-3.9355125 -129.64235,-24.262617 -138,-51.625 C -139.02448,-55.668888 -133.63887,-56.464802 -131.875,-53.4375 C -120.07052,-39.542276 -109.099,-24.805633 -95.734158,-12.312459 C -92.497406,-9.9534098 -87.55575,-2.8045421 -85.036833,-3.5082658 C -73.329199,-57.08131 -66.964378,-112.08159 -50.78125,-164.46875 C -49.580397,-166.74041 -48.42325,-170.874 -45.1875,-170.3125 z "
         style="fill:#00c127;fill-opacity:1;fill-rule:evenodd;stroke:none;stroke-width:1px;stroke-linecap:butt;stroke-linejoin:miter;stroke-opacity:1" />
      <g
         transform="translate(819.46468,0)"
         id="g4819">
        <path
           id="path4786"
           style="fill:#0d1c01;fill-opacity:1;fill-rule:evenodd;stroke:none;stroke-width:1px;stroke-linecap:butt;stroke-linejoin:miter;stroke-opacity:1"
           d="M -529.82684,398.71054 L -482.64623,398.89054 L -484.89106,268.69011 C -411.28226,244.72002 -387.31897,192.58409 -355.62197,144.16545 C -364.38621,134.06171 -379.19708,168.69604 -394.71062,178.80143 C -389.72426,161.32835 -402.39167,154.44752 -415.07491,147.57619 C -412.17121,132.3861 -378.56444,106.3399 -363.48538,70.341878 C -371.53996,65.915258 -387.38667,96.638004 -400.1411,98.701903 C -395.56901,85.905983 -399.75006,75.29835 -409.64443,66.119045 C -396.06824,26.317695 -378.78651,33.791865 -368.91586,0.95332803 C -375.30339,-3.3464251 -392.9276,29.509646 -405.57157,33.536186 C -402.60543,17.680878 -414.26976,11.049849 -423.91203,3.6001451 C -403.95635,-33.643703 -383.78543,-43.482813 -379.93886,-65.271116 C -387.43832,-64.728334 -398.04606,-41.395896 -409.64443,-38.417626 C -409.11524,-53.44999 -418.17152,-56.158171 -427.29348,-58.781913 C -407.64491,-78.761058 -395.31602,-105.67296 -387.55521,-125.37367 C -395.52801,-127.10402 -405.31755,-102.42569 -415.07491,-98.152866 C -415.95082,-105.64165 -419.4143,-111.18975 -425.93586,-114.4443 C -414.9979,-146.69663 -395.59685,-156.55494 -382.49205,-186.39811 C -394.90397,-184.2054 -411.14539,-152.84092 -423.22062,-148.38477 C -423.82005,-158.42967 -426.39937,-167.06036 -436.79681,-170.10668 C -422.62205,-199.63062 -408.288,-205.01464 -397.8868,-233.08652 C -404.65045,-236.51725 -441.5149,-169.652 -459.87634,-175.53716 C -492.36038,-176.85056 -452.92619,-242.66668 -455.80348,-274.64335 C -477.55792,-263.84127 -481.88033,-140.19825 -506.21366,-138.88144 C -530.54698,-140.19825 -534.86939,-263.84127 -556.62383,-274.64335 C -559.50112,-242.66668 -520.06693,-176.85056 -552.55097,-175.53716 C -570.91241,-169.652 -607.77686,-236.51725 -614.54051,-233.08652 C -604.13931,-205.01464 -589.80526,-199.63062 -575.6305,-170.10668 C -586.02794,-167.06036 -588.60726,-158.42967 -589.20669,-148.38477 C -601.28192,-152.84092 -617.52334,-184.2054 -629.93526,-186.39811 C -616.83046,-156.55494 -597.42941,-146.69663 -586.49145,-114.4443 C -593.01301,-111.18975 -596.47649,-105.64165 -597.3524,-98.152866 C -607.10976,-102.42569 -616.8993,-127.10402 -624.8721,-125.37367 C -617.11129,-105.67296 -604.7824,-78.761058 -585.13383,-58.781913 C -594.25579,-56.158171 -603.31207,-53.44999 -602.78288,-38.417626 C -614.38125,-41.395896 -624.98899,-64.728334 -632.48845,-65.271116 C -628.64188,-43.482813 -608.47096,-33.643703 -588.51528,3.6001451 C -598.15755,11.049849 -609.82188,17.680878 -606.85574,33.536186 C -619.49971,29.509646 -637.12392,-3.3464251 -643.51145,0.95332803 C -633.6408,33.791865 -616.35907,26.317695 -602.78288,66.119045 C -612.67725,75.29835 -616.8583,85.905983 -612.28621,98.701903 C -625.04064,96.638004 -640.88735,65.915258 -648.94193,70.341878 C -633.86287,106.3399 -600.2561,132.3861 -597.3524,147.57619 C -610.03564,154.44752 -622.70305,161.32835 -617.71669,178.80143 C -633.23023,168.69604 -648.0411,134.06171 -656.80534,144.16545 C -625.10834,192.58409 -601.14505,244.72002 -527.53625,268.69011 L -529.82684,398.71054 z " />
        <rect
           style="fill:#fcf122;fill-opacity:1;fill-rule:nonzero;stroke:none;stroke-width:7.08661413;stroke-linecap:round;stroke-linejoin:round;stroke-miterlimit:4;stroke-dasharray:none;stroke-dashoffset:0;stroke-opacity:1"
           id="rect4793"
           width="14.105539"
           height="116.20277"
           x="-513.17297"
           y="271.69693" />
        <path
           style="fill:#fffa26;fill-opacity:1;fill-rule:evenodd;stroke:none;stroke-width:1px;stroke-linecap:butt;stroke-linejoin:miter;stroke-opacity:1"
           d="M -417.12095,164.22616 C -447.15497,157.72736 -524.60331,209.89913 -501.0825,245.50093 C -459.34189,257.56575 -403.73269,211.28029 -417.12095,164.22616 z "
           id="path4795" />
        <path
           id="path4797"
           d="M -601.49844,164.22616 C -571.46442,157.72736 -494.01608,209.89913 -517.53689,245.50093 C -559.2775,257.56575 -614.8867,211.28029 -601.49844,164.22616 z "
           style="fill:#fffa26;fill-opacity:1;fill-rule:evenodd;stroke:none;stroke-width:1px;stroke-linecap:butt;stroke-linejoin:miter;stroke-opacity:1" />
        <path
           id="path4799"
           d="M -420.38965,80.386677 C -449.35877,74.118302 -524.06105,124.44024 -501.37421,158.77972 C -461.11358,170.41676 -407.47609,125.77243 -420.38965,80.386677 z "
           style="fill:#fffa26;fill-opacity:1;fill-rule:evenodd;stroke:none;stroke-width:0.9645434px;stroke-linecap:butt;stroke-linejoin:miter;stroke-opacity:1" />
        <path
           style="fill:#fffa26;fill-opacity:1;fill-rule:evenodd;stroke:none;stroke-width:0.9645434px;stroke-linecap:butt;stroke-linejoin:miter;stroke-opacity:1"
           d="M -598.22974,80.386677 C -569.26062,74.118302 -494.55834,124.44024 -517.24518,158.77972 C -557.50581,170.41676 -611.1433,125.77243 -598.22974,80.386677 z "
           id="path4801" />
        <path
           style="fill:#fffa26;fill-opacity:1;fill-rule:evenodd;stroke:none;stroke-width:0.88653886px;stroke-linecap:butt;stroke-linejoin:miter;stroke-opacity:1"
           d="M -427.58079,16.441422 C -454.20712,10.679983 -522.86808,56.932285 -502.01597,88.494663 C -465.0113,99.190589 -415.71158,58.156739 -427.58079,16.441422 z "
           id="path4803" />
        <path
           id="path4805"
           d="M -591.0386,16.441422 C -564.41227,10.679983 -495.75131,56.932285 -516.60342,88.494663 C -553.60809,99.190589 -602.90781,58.156739 -591.0386,16.441422 z "
           style="fill:#fffa26;fill-opacity:1;fill-rule:evenodd;stroke:none;stroke-width:0.88653886px;stroke-linecap:butt;stroke-linejoin:miter;stroke-opacity:1" />
        <path
           id="path4807"
           d="M -432.15697,-46.661113 C -457.29243,-52.099956 -522.10892,-8.4374217 -502.42436,21.357709 C -467.49166,31.454747 -420.95234,-7.2815276 -432.15697,-46.661113 z "
           style="fill:#fffa26;fill-opacity:1;fill-rule:evenodd;stroke:none;stroke-width:0.83689958px;stroke-linecap:butt;stroke-linejoin:miter;stroke-opacity:1" />
        <path
           style="fill:#fffa26;fill-opacity:1;fill-rule:evenodd;stroke:none;stroke-width:0.83689958px;stroke-linecap:butt;stroke-linejoin:miter;stroke-opacity:1"
           d="M -586.46242,-46.661113 C -561.32696,-52.099956 -496.51047,-8.4374217 -516.19503,21.357709 C -551.12773,31.454747 -597.66705,-7.2815276 -586.46242,-46.661113 z "
           id="path4809" />
        <path
           style="fill:#fffa26;fill-opacity:1;fill-rule:evenodd;stroke:none;stroke-width:0.78726029px;stroke-linecap:butt;stroke-linejoin:miter;stroke-opacity:1"
           d="M -436.73315,-103.71842 C -460.37774,-108.83466 -521.34976,-67.761897 -502.83275,-39.734013 C -469.97202,-30.235863 -426.1931,-66.674563 -436.73315,-103.71842 z "
           id="path4811" />
        <path
           id="path4813"
           d="M -581.88624,-103.71842 C -558.24165,-108.83466 -497.26963,-67.761897 -515.78664,-39.734013 C -548.64737,-30.235863 -592.42629,-66.674563 -581.88624,-103.71842 z "
           style="fill:#fffa26;fill-opacity:1;fill-rule:evenodd;stroke:none;stroke-width:0.78726029px;stroke-linecap:butt;stroke-linejoin:miter;stroke-opacity:1" />
        <path
           id="path4815"
           d="M -445.49905,-158.22567 C -466.28781,-162.72396 -519.89554,-126.61202 -503.61505,-101.96939 C -474.72328,-93.618442 -436.23205,-125.65602 -445.49905,-158.22567 z "
           style="fill:#fffa26;fill-opacity:1;fill-rule:evenodd;stroke:none;stroke-width:0.69217384px;stroke-linecap:butt;stroke-linejoin:miter;stroke-opacity:1" />
        <path
           style="fill:#fffa26;fill-opacity:1;fill-rule:evenodd;stroke:none;stroke-width:0.69217384px;stroke-linecap:butt;stroke-linejoin:miter;stroke-opacity:1"
           d="M -573.12034,-158.22567 C -552.33158,-162.72396 -498.72385,-126.61202 -515.00434,-101.96939 C -543.89611,-93.618442 -582.38734,-125.65602 -573.12034,-158.22567 z "
           id="path4817" />
      </g>
    </g>
  </g>
</svg>