<svg viewBox="-22.10 -26.41 596.79 713.06"><title>Herb Gostynin</title><path d="M0 0h552.582v405.34C532.691 734.274 38.828 755.973 0 405.34z" style="stroke:none;fill-rule:evenodd;fill:#222"/><path d="M58.316 353.285h25.47v9.719h-25.47zm48.094-250.402H85.23V67.297h21.18zm23.336-35.59h21.043v35.586h-21.043zm44.617 0h20.449v35.586h-20.449zm47 0h21.52v35.586h-21.52zm44.5 0h20.922v35.586h-20.922zm44.258 0h21.16v35.586h-21.16zm46.883 0h21.875v35.586h-21.875zm44.617 0h21.636v35.586h-21.636zm44.262 0h21.757v35.586h-21.757zM142.347 296.762h42.907v24.668h-42.907zm-4.058 24.672H95.437v-24.668h42.852zm4.058-81.168h42.907v24.668h-42.907zm-4.058 24.668H95.437v-24.668h42.852zm4.058-81.059h42.907v24.348h-42.907zm-4.058 24.348H95.437v-24.348h42.852zm4.058-73.942h42.907v17.692h-42.907zm-4.058 17.696H95.437v-17.692h42.852zm403.515 173.515v50.309H10.57v-50.309h43.703v41.633h2.711v.02h28.141v-.02h2.797v-41.633h38.171v41.633h4.059v-.027h20.836v.027h4.059v-41.633h38.3v41.633h4.578v-.027h25.45v-41.602h39.574v41.633l25.027-.023v.023h4.059v-41.633h36.887v41.676h30.632v-41.676h38.43v41.633h4.059v-.027h23.832v.027h4.058v-41.633h38.953v41.633h4.059v-.027H497.3v.027h4.059v-41.633h40.395zm-139.847 0h23.871v23.633h-23.871zM288 349.121h-20.965v-23.629H288zm-137.004-.011H130.16v-23.618h20.836zm321.949 4.175h24.391v9.688h-24.391zm-70.988 0h23.867v9.688h-23.867zm-68.969 0h22.461v9.688h-22.461zM288 362.973h-20.965v-9.688H288zm-90.645-9.688h22.028v9.688h-22.028zm-46.359 9.688H130.16v-9.688h20.836zm-15.113 248.133c-17.739-10.219-31.126-20.063-50.012-38.121h50.012zm66.492 5.82h-55.723l-6.703-3.754v-40.187h62.43v43.945zm4.058-43.945h19.574v43.945h-19.574zm129.512 43.945h-10.07v-43.945h10.07zm66.508 0h-62.446v-43.945h62.446zm66.355-43.945c-19.949 20.261-40.191 34.59-60.683 43.945h-1.61v-43.945zm4.172-52.071h35.32c7.735-12.8 14.344-27.339 19.34-44.351h-54.664v44.351zm-4.062 0h-62.403v-44.351h62.403zm-66.465 0h-62.446v-44.351h62.446zm-66.508 0h-10.07v-44.351h10.07zm-129.512-44.351h19.574v44.351h-19.574zm-4.058 44.351h-62.43v-44.351h62.43zm-66.492 0h-62.43v-44.351h62.43zm-66.492 0H47.207c-6.02-11.398-15.336-30.015-19.809-44.351h41.997v44.351zm0-96.421H13.914l-3.394-20.411v-24.211h58.875v44.625zm66.492 0h-62.43v-44.625h62.43zm66.492 0h-62.43v-44.625h62.43zm66.593-15.704c-13.699 1.891-23.429 7.317-30.304 15.704h-32.227v-44.625h62.531zm66.977 15.704h-22.531c-8.891-9.594-21.074-17.196-40.379-16.239v-28.383h62.914v44.625zm66.508 0h-62.446v-44.625h62.446zm66.465 0h-62.403v-44.625h62.403zm4.062 0h66.309l2.488-20.426v-24.196H472.98v44.625zm-99.437 207.55c10.035-3.347 15.98-6.418 26.507-11.05h-26.507zm-47.672-11.05v23.55c18.871-3.312 27.394-5.086 43.613-11.238v-12.312zm-99.86 0v23.117c-18.675-3.2-35.718-8.465-52.132-14.528v-8.589zm-56.199 7.308c-5.988-2.43-8.863-4.195-15.125-7.308h15.125zm-66.687-59.379h-20.37c-8.837-9.601-25.138-29.711-32.661-43.945h53.031zm66.687 0h-62.625v-43.945h62.625zm4.063-43.945h52.129v43.945h-52.129zm195.609 43.945h-43.699v-43.945h43.699zm66.488 0h-62.425v-43.945h62.425zm66.629-38.808c-8.918 13.644-17.801 26.726-29.625 38.808h-32.937v-43.945h62.566v5.137zm36.344-101.563c-2.016 14.317-5.387 29.813-9.652 43.945h-22.629v-43.945zm-36.344 43.949h-62.566v-43.945h62.566zm-66.629 0h-62.425v-43.945h62.425zm-66.488 0h-43.773v-21.382c-2.098-10.211-4.539-14.872-9.52-22.559h53.297V472.5zm-134.101-43.949c-4.45 6.047-7.911 13.504-9.36 23.84v20.102h-52.144v-43.946h61.504zm-65.571 43.949h-62.625v-43.945h62.625zm-66.687 0H40.5v-43.945h62.625zm-66.687 0H26.113c-4.187-10.898-9.687-29.183-11.304-43.945H36.44v43.945zm78.745-342.273H98.855c-5.613-.02-13.59-5.844-13.62-10.488v-12.786h29.948v23.278zm45.149 0h-41.086v-23.277h41.086zm4.058-23.281h30.422v13.98c.028 5.922-9.726 9.309-11.883 9.293h-18.535v-23.277zm0 49.097h20.864v23.774H164.39zm-4.058 23.778h-41.086v-23.774h41.086zm-45.149 0h-19.75v-23.774h19.75zm0 56.386h-19.75v-23.918h19.75zm45.149 0h-41.086v-23.918h41.086zm4.058-23.918h20.864v23.918H164.39zm0 56.711h20.864v23.703H164.39zm-4.058 23.707h-41.086V269h41.086zm-45.149 0h-19.75V269h19.75zm135.657-162.48h-16.641c-5.82.039-12.738-4.25-12.836-9.637v-13.637h29.477v23.278zm45.289 0h-41.223v-23.277h41.223zm4.058-23.281h31.098v11.925c-.02 4.618-6.699 11.332-14.16 11.352h-16.934v-23.277zm-49.347 72.875h-19.411v-23.774h19.411zm45.289 0h-41.223v-23.774h41.223zm4.058-23.778h21.481v23.774h-21.481zm-49.347 80.164h-19.411v-23.918h19.411zm45.289 0h-41.223v-23.918h41.223zm4.058-23.918h21.481v23.918h-21.481zm-49.347 80.418h-19.411V269h19.411zm45.289 0h-41.223V269h41.223zm4.058-23.707h21.481v23.703h-21.481zm-21.812 27.766h43.297v24.668h-43.297zm-4.063 24.672h-42.883v-24.668h42.883zm4.063-81.168h43.297v24.668h-43.297zm-4.063 24.668h-42.883v-24.668h42.883zm4.063-81.059h43.297v24.348h-43.297zm-4.063 24.348h-42.883v-24.348h42.883zm4.063-73.942h43.297v17.692h-43.297zm-4.063 17.696h-42.883v-17.692h42.883zm162.149 117.019h21.48v23.703h-21.48zm-4.059 23.707h-41.223V269h41.223zm-45.285 0h-20.098V269h20.098zm49.344-80.418h21.48v23.918h-21.48zm-4.059 23.918h-41.223v-23.918h41.223zm-45.285 0h-20.098v-23.918h20.098zm49.344-80.164h21.48v23.774h-21.48zm-4.059 23.778h-41.223v-23.774h41.223zm-45.285 0h-20.098v-23.774h20.098zm49.344-72.875h31.175v11.73c-.296 4.918-5.793 11.539-12.867 11.543h-18.304v-23.277zm-4.059 23.281h-41.223v-23.277h41.223zm-45.285 0H370.32c-7.555.258-13.355-7.598-13.313-11.774v-11.5h30.11v23.278zm27.254 166.539h43.57v24.668h-43.57zm-4.063 24.672h-43.297v-24.668h43.297zm4.063-81.168h43.57v24.668h-43.57zm-4.063 24.668h-43.297v-24.668h43.297zm4.063-81.059h43.57v24.348h-43.57zm-4.063 24.348h-43.297v-24.348h43.297zm4.063-73.942h43.57v17.692h-43.57zm-4.063 17.696h-43.297v-17.692h43.297" style="stroke:none;fill-rule:evenodd;fill:#fffdfd"/><path d="M230.168 456.883c.023-21.422 16.687-45.293 45.746-45.328 26.824-.031 45.941 23.074 45.906 45.695v187.856c-30.793 5.109-60.859 5.109-91.652-.313zM10.797 321.614l.117-310.707h530.754l-.016 310.98h-44.297v27.195h-24.433v-27.203H462.05l.047-189.605c6.493-3.176 8.344-7.176 9.442-12.493V63.289h-29.653v39.614h-14.574V63.289h-29.715v39.614h-14.629V63.289h-29.933v56.055c1.551 7.254 6.488 11.957 9.883 12.598v189.922h-7.422v27.234h-22.543v-27.203h-7.074V132.063c5.117-2.215 8.39-6.754 9.554-11.723V63.289H306.16v39.614h-15.235V63.285h-29.113v39.618l-14.797.015V63.285H217.3v54.153c.633 9.242 3.153 12.836 10.129 15.261v189.18h-8.004v27.207l-21.984.031v-27.242h-8.027V132.141c7.418-3.274 8.801-6.758 9.5-12.313V63.281h-28.567v39.614H154.84V63.281h-29.11v39.614H110.5V63.27H81.164v50.48c-.489 9.551 2.426 15.258 10.285 18.348v189.777h-7.62v27.242H58.382V321.61h-47.54" style="stroke:none;fill-rule:evenodd;fill:#11b1ee"/></svg>