<svg
   xmlns="http://www.w3.org/2000/svg"
   version="1.1"
   id="svg29"
   viewBox="0 0 824.99999 1000"><title>Herb Jaraczewo</title>
  <metadata
     id="metadata35">
    <rdf:RDF>
      <cc:Work
         rdf:about="">
        <dc:format>image/svg+xml</dc:format>
        <dc:type
           rdf:resource="http://purl.org/dc/dcmitype/StillImage" />
        <dc:title></dc:title>
      </cc:Work>
    </rdf:RDF>
  </metadata>
  <defs
     id="defs33" />
  <sodipodi:namedview
     pagecolor="#ffffff"
     bordercolor="#666666"
     borderopacity="1"
     objecttolerance="10"
     gridtolerance="10"
     guidetolerance="10"
     id="namedview31"
     showgrid="false" />
  <g
     id="g1527">
    <g
       id="Layer1000"
       transform="matrix(2.4497258,0,0,2.4595936,-318.98639,-511.66458)">
      <path
         d="M 130.2131,208.0281 H 466.9855 V 456.945 c 0,57.7983 -47.15557,157.26825 -169.4504,157.6532 -122.91268,0.38689 -167.322,-98.92857 -167.322,-157.6532 z"
         style="fill:#e30016;fill-rule:evenodd"
         id="path2" />
      <path
         d="m 204.0241,282.6903 h 185.4306 c 4.0724,0 7.3303,-3.2579 7.3303,-7.2625 v 0 c 0,-4.0724 -3.4615,-7.3303 -7.3303,-7.3303 h -81.7198 c -0.1357,0 -2.5792,-5.2941 -9.7059,-5.2941 -8.2806,0 -9.7059,5.2941 -9.7059,5.2941 h -84.299 c -3.8688,0 -7.3303,3.2579 -7.3303,7.3303 v 0 c 0,4.0046 3.2579,7.2625 7.3303,7.2625 z"
         style="fill:#ffec00;fill-rule:evenodd;stroke:#1b1918;stroke-width:1.0333;stroke-linecap:round;stroke-linejoin:round;stroke-dasharray:none"
         id="path4" />
      <path
         d="m 204.027,318.7458 h 185.472 c 4.0208,0 7.3107,-3.2895 7.3107,-7.3103 v 0 c 0,-4.0208 -3.2899,-7.3107 -7.3107,-7.3107 H 204.027 c -4.0212,0 -7.3107,3.2899 -7.3107,7.3107 v 0 c 0,4.0208 3.2895,7.3103 7.3107,7.3103 z"
         style="fill:#ffec00;fill-rule:evenodd;stroke:#1b1918;stroke-width:1.0333;stroke-linecap:round;stroke-linejoin:round;stroke-dasharray:none"
         id="path6" />
      <path
         d="m 204.027,354.7327 h 185.472 c 4.0208,0 7.3107,-3.2895 7.3107,-7.3103 v 0 c 0,-4.0212 -3.2899,-7.3107 -7.3107,-7.3107 H 204.027 c -4.0212,0 -7.3107,3.2895 -7.3107,7.3107 v 0 c 0,4.0208 3.2895,7.3103 7.3107,7.3103 z"
         style="fill:#ffec00;fill-rule:evenodd;stroke:#1b1918;stroke-width:1.0333;stroke-linecap:round;stroke-linejoin:round;stroke-dasharray:none"
         id="path8" />
      <path
         d="m 204.027,390.7885 h 185.472 c 4.0208,0 7.3107,-3.2899 7.3107,-7.3107 v 0 c 0,-4.0208 -3.2899,-7.3103 -7.3107,-7.3103 H 204.027 c -4.0212,0 -7.3107,3.2895 -7.3107,7.3103 v 0 c 0,4.0208 3.2895,7.3107 7.3107,7.3107 z"
         style="fill:#ffec00;fill-rule:evenodd;stroke:#1b1918;stroke-width:1.0333;stroke-linecap:round;stroke-linejoin:round;stroke-dasharray:none"
         id="path10" />
      <path
         d="m 204.027,426.844 h 185.472 c 4.0208,0 7.3107,-3.2895 7.3107,-7.3103 v 0 c 0,-4.0212 -3.2899,-7.3107 -7.3107,-7.3107 H 204.027 c -4.0212,0 -7.3107,3.2895 -7.3107,7.3107 v 0 c 0,4.0208 3.2895,7.3103 7.3107,7.3103 z"
         style="fill:#ffec00;fill-rule:evenodd;stroke:#1b1918;stroke-width:1.0333;stroke-linecap:round;stroke-linejoin:round;stroke-dasharray:none"
         id="path12" />
      <path
         d="m 204.027,462.8998 h 185.472 c 4.0208,0 7.3107,-3.2895 7.3107,-7.3107 v 0 c 0,-4.0208 -3.2899,-7.3103 -7.3107,-7.3103 H 204.027 c -4.0212,0 -7.3107,3.2895 -7.3107,7.3103 v 0 c 0,4.0212 3.2895,7.3107 7.3107,7.3107 z"
         style="fill:#ffec00;fill-rule:evenodd;stroke:#1b1918;stroke-width:1.0333;stroke-linecap:round;stroke-linejoin:round;stroke-dasharray:none"
         id="path14" />
      <path
         d="m 213.9192,255.0452 v 0 c 3.5466,0 6.4478,2.9016 6.4478,6.4482 v 209.7289 c 0,3.5466 -2.9012,6.4478 -6.4478,6.4478 v 0 c -3.5466,0 -6.4481,-2.9012 -6.4481,-6.4478 V 261.4934 c 0,-3.5466 2.9015,-6.4482 6.4481,-6.4482 z"
         style="fill:#ffec00;fill-rule:evenodd;stroke:#1b1918;stroke-width:1.0333;stroke-linecap:round;stroke-linejoin:round;stroke-dasharray:none"
         id="path16" />
      <path
         d="m 381.6508,255.3902 v 0 c 3.5465,0 6.4477,2.9012 6.4477,6.4478 v 209.7288 c 0,3.5466 -2.9012,6.4482 -6.4477,6.4482 v 0 c -3.5466,0 -6.4482,-2.9016 -6.4482,-6.4482 V 261.838 c 0,-3.5466 2.9016,-6.4478 6.4482,-6.4478 z"
         style="fill:#ffec00;fill-rule:evenodd;stroke:#1b1918;stroke-width:1.0333;stroke-linecap:round;stroke-linejoin:round;stroke-dasharray:none"
         id="path18" />
      <path
         d="m 291.4394,282.828 h 12.7602 c 0.0373,0 0.0679,0.0305 0.0679,0.0682 V 505.385 c 0,0.0377 -0.0306,0.0682 -0.0679,0.0682 h -12.7602 c -0.0374,0 -0.0679,-0.0305 -0.0679,-0.0682 V 282.8962 c 0,-0.0377 0.0305,-0.0682 0.0679,-0.0682 z"
         style="fill:#ffec00;fill-rule:evenodd;stroke:#1b1918;stroke-width:1.0333;stroke-linecap:round;stroke-linejoin:round;stroke-dasharray:none"
         id="path20" />
      <path
         d="m 297.909,530.1854 c 7.6835,0 13.9146,-6.231 13.9146,-13.9145 0,-7.6835 -6.2311,-13.9142 -13.9146,-13.9142 -7.6831,0 -13.9142,6.2307 -13.9142,13.9142 0,7.6835 6.2311,13.9145 13.9142,13.9145 z"
         style="fill:#ffec00;fill-rule:evenodd;stroke:#1b1918;stroke-width:1.0333;stroke-linecap:round;stroke-linejoin:round;stroke-dasharray:none"
         id="path22" />
      <path
         d="m 298.2841,521.9123 c 2.9796,0 5.3957,-2.416 5.3957,-5.3956 0,-2.9796 -2.4161,-5.3961 -5.3957,-5.3961 -2.9796,0 -5.396,2.4165 -5.396,5.3961 0,2.9796 2.4164,5.3956 5.396,5.3956 z"
         style="fill:#e30016;fill-rule:evenodd;stroke:#1b1918;stroke-width:1.0333;stroke-linecap:round;stroke-linejoin:round;stroke-dasharray:none"
         id="path24" />
      <path
         d="m 298.2841,280.9668 c 2.9796,0 5.3957,-2.4164 5.3957,-5.396 0,-2.9796 -2.4161,-5.3956 -5.3957,-5.3956 -2.9796,0 -5.396,2.416 -5.396,5.3956 0,2.9796 2.4164,5.396 5.396,5.396 z"
         style="fill:#e30016;fill-rule:evenodd;stroke:#1b1918;stroke-width:1.0333;stroke-linecap:round;stroke-linejoin:round;stroke-dasharray:none"
         id="path26" />
    </g>
  </g>
</svg>