<!-- Creator: CorelDRAW -->
<svg
   xmlns="http://www.w3.org/2000/svg"
   style="shape-rendering:geometricPrecision; text-rendering:geometricPrecision; image-rendering:optimizeQuality; fill-rule:evenodd; clip-rule:evenodd"
   viewBox="0 0 210 297"
   id="svg2"
   version="1.0"><title>Herb Drawsko Pomorskie</title><metadata
   id="metadata39"><rdf:RDF><cc:Work
       rdf:about=""><dc:format>image/svg+xml</dc:format><dc:type
         rdf:resource="http://purl.org/dc/dcmitype/StillImage" /></cc:Work></rdf:RDF></metadata><sodipodi:namedview
   guidetolerance="10.0"
   gridtolerance="10.0"
   objecttolerance="10.0"
   borderopacity="1.0"
   bordercolor="#666666"
   pagecolor="#ffffff"
   id="base" />
 <defs
   id="defs4">
  <style
   type="text/css"
   id="style6">
   
    .fil1 {fill:#0093DD}
    .fil0 {fill:#0A0B0C}
    .fil3 {fill:#DA251D}
    .fil4 {fill:#FFF500}
    .fil2 {fill:white}
   
  </style>
 <marker
   id="ArrowStart"
   viewBox="0 0 10 10"
   orient="auto"
   markerHeight="3"
   markerWidth="4"
   refY="5"
   refX="10"
   markerUnits="strokeWidth"><path
     id="path2212"
     d="M 10,0 L 0,5 L 10,10 L 10,0 z " /></marker><marker
   id="ArrowEnd"
   viewBox="0 0 10 10"
   orient="auto"
   markerHeight="3"
   markerWidth="4"
   refY="5"
   refX="0"
   markerUnits="strokeWidth"><path
     id="path7"
     d="M 0,0 L 10,5 L 0,10 L 0,0 z " /></marker></defs>
 <g
   id="Warstwa_x0020_1"
   transform="matrix(1.2752868,0,0,1.2752868,-28.921866,-40.861224)">
  <metadata
   id="CorelCorpID_0Corel-Layer" />
  <path
   class="fil0"
   d="M -0.0002,32.0715 L 209.9998,32.0715 L 209.9998,167.4805 C 208.0828,221.2292 159.2729,263.7412 108.1018,264.9285 C 53.0307,265.1818 0.9388,221.7216 -0.0012,167.4929 L -0.0012,32.0719 L -0.0002,32.0715 z "
   id="path10"
   style="fill:#0a0b0c" />
  <path
   class="fil1"
   d="M 14.4786,210.109 L 195.3936,210.109 C 177.6245,240.8664 143.4094,261.8247 108.0418,262.6452 C 69.7849,262.8212 33.0007,241.4769 14.4788,210.109 L 14.4786,210.109 z "
   id="path12"
   style="fill:#083fcd;fill-opacity:1" />
  <path
   class="fil2"
   d="M 2.0586,34.3545 L 207.9406,34.3545 L 207.9406,167.1085 C 207.5041,179.3461 204.5847,190.9879 199.736,201.6678 L 190.0334,201.6678 L 190.0334,170.5869 L 191.3095,170.5869 L 191.3095,162.5595 L 190.0334,162.5595 L 190.0334,133.4813 L 191.3095,133.4813 L 191.3095,125.4539 L 190.0334,125.4539 L 190.0334,96.6944 L 193.3359,96.6964 L 174.3434,64.5719 L 174.3434,62.9366 C 176.6293,62.5022 178.3673,60.4865 178.3673,58.0772 C 178.3673,55.3528 176.1452,53.1307 173.4207,53.1307 C 170.6963,53.1307 168.4741,55.3528 168.4741,58.0772 C 168.4741,60.574 170.3408,62.6484 172.7496,62.9777 L 172.7496,64.8836 L 153.7118,95.9601 C 144.354,86.5583 131.3687,79.8718 116.639,77.5097 L 116.639,67.4478 L 124.323,67.4478 L 124.3177,50.2189 L 114.9849,50.2189 L 114.9849,59.2435 L 109.3707,59.2435 L 109.3707,50.2189 L 100.038,50.2189 L 100.038,59.2435 L 94.551,59.2435 L 94.551,50.2189 L 85.2182,50.2189 L 85.2154,67.4478 L 93.3358,67.4478 L 93.3358,77.4536 C 78.085,79.8222 64.682,86.8229 55.2024,96.6802 L 36.2194,64.5719 L 36.2194,62.9366 C 38.5054,62.5022 40.2433,60.4865 40.2433,58.0772 C 40.2433,55.3528 38.0212,53.1307 35.2967,53.1307 C 32.5723,53.1307 30.3502,55.3528 30.3502,58.0772 C 30.3502,60.574 32.2168,62.6484 34.6257,62.9777 L 34.6257,64.8836 L 15.1514,96.6725 L 19.1895,96.6749 L 19.1895,125.4539 L 17.6819,125.4539 L 17.6819,133.4813 L 19.1895,133.4813 L 19.1895,162.5595 L 17.6819,162.5595 L 17.6819,170.5869 L 19.1895,170.5869 L 19.1895,201.6678 L 10.0535,201.6678 C 5.129,190.9678 2.2695,179.3238 2.0581,167.1207 L 2.0581,34.3547 L 2.0586,34.3545 z M 180.1856,201.6675 L 167.4896,201.6675 L 167.4896,183.2848 C 168.0299,173.6061 180.0476,173.3827 180.1866,183.2249 L 180.1856,201.6675 z M 157.3142,201.6675 L 51.9102,201.6675 L 51.9102,170.5866 L 53.1864,170.5866 L 53.1864,162.5592 L 51.9102,162.5592 L 51.9102,133.481 L 53.1864,133.481 L 53.1864,125.4536 L 51.9102,125.4536 L 51.9102,123.0346 C 56.5791,101.7038 78.5469,85.474 104.8085,85.474 C 130.4033,85.474 151.9159,100.8912 157.3143,121.4209 L 157.3143,125.4536 L 155.8067,125.4536 L 155.8067,133.481 L 157.3143,133.481 L 157.3143,162.5592 L 155.8067,162.5592 L 155.8067,170.5866 L 157.3143,170.5866 L 157.3143,201.6675 L 157.3142,201.6675 z M 42.0612,201.6675 L 29.3653,201.6675 L 29.3653,183.2848 C 29.9055,173.6061 41.9233,173.3827 42.0622,183.2249 L 42.0612,201.6675 z "
   id="path14"
   style="fill:#ffffff" />
  <path
   class="fil0"
   d="M 108.108,175.622 C 109.241,176.0672 109.9999,176.869 109.9999,177.7806 C 109.9999,178.9 108.8562,179.8532 107.2798,180.1845 C 108.2617,181.7021 109.9783,183.448 112.1483,184.6826 C 115.6948,186.7001 120.8771,187.7307 125.0137,184.0753 C 127.3439,188.7358 125.4629,195.0511 118.798,193.8482 C 118.798,194.3485 121.7575,195.9602 122.4245,195.9602 C 121.0187,198.1812 114.3957,199.7676 108.9184,195.9602 C 108.0872,197.8263 107.1892,199.4237 106.2607,200.8993 C 104.7397,199.1965 103.8532,196.2917 103.4954,195.2488 C 101.4982,196.8475 91.6867,200.7336 88.1591,194.793 C 90.0766,195.3766 90.5998,194.6542 92.0171,193.8205 C 87.6174,194.4982 83.3324,191.4088 85.658,184.0382 C 88.7161,186.1516 91.7311,186.6262 94.5033,186.1561 C 99.2772,185.3466 102.9835,182.7891 104.7277,180.1611 C 103.2067,179.8099 102.1137,178.8746 102.1137,177.7806 C 102.1137,176.8781 102.8577,176.0832 103.972,175.6355 C 102.0273,174.9761 100.6535,173.4085 100.6535,171.5871 C 100.6535,169.9004 101.8317,168.431 103.5502,167.6992 C 100.8401,162.8723 101.8661,159.8253 102.1659,158.4377 C 100.3335,156.4924 100.4452,153.1009 100.3807,151.2479 C 98.8798,154.2497 99.5552,158.8865 99.5552,162.4136 C 97.6021,162.7629 95.9318,162.0621 94.5445,160.311 C 93.569,162.2621 92.5761,165.7546 92.5761,167.9308 C 97.5646,168.8646 97.2149,173.452 94.9397,174.7214 C 95.3149,177.0477 93.3266,177.8726 91.0753,177.8726 C 91.9758,177.4224 91.8257,176.2217 91.8257,175.2461 C 91.1276,174.5199 90.5963,174.5288 90.1389,174.78 C 89.4278,175.1705 89.0857,176.1459 89.4231,177.098 C 89.7447,178.0059 89.4028,179.0604 89.4028,179.6144 C 89.4028,180.665 91.0912,180.5148 91.9167,180.5148 C 91.0771,181.7856 86.7632,183.8639 86.3314,180.5148 C 84.1734,180.3273 84.8767,178.1676 85.5931,176.9072 C 87.0088,174.4164 85.6572,174.675 83.3456,175.9452 C 82.5052,176.407 82.6979,177.7647 82.2201,177.7225 C 82.2201,178.9232 82.2469,179.5707 83.2975,180.0961 C 81.5715,180.315 78.7682,180.5644 78.7681,178.2478 C 76.9974,175.2789 81.0321,173.6203 82.2097,172.5964 C 84.2029,170.8631 81.3848,171.6225 81.2899,171.7409 C 80.9289,172.1913 80.4423,172.4237 80.1028,172.4157 C 79.4274,173.016 79.4274,173.6971 79.4274,174.5225 C 77.2213,174.3922 76.6279,170.4288 78.7359,169.592 C 79.0384,167.558 82.8878,167.6944 83.831,167.9356 C 85.0679,168.2522 85.9951,168.4302 87.0275,166.9812 C 88.4394,165 88.8937,162.837 88.8937,160.4736 C 87.0491,160.8981 85.2677,160.4288 83.7263,160.0011 C 85.9347,156.7936 88.1635,153.6898 90.443,150.8412 C 89.1673,151.5916 87.0709,151.9769 85.495,151.9769 C 86.3074,148.2616 86.8525,144.5243 85.9776,143.2876 C 83.1381,147.8849 83.4586,159.6068 79.1759,165.6041 C 76.061,169.9661 72.159,172.4562 65.0858,171.8862 C 67.1353,170.6407 73.882,161.4373 73.9257,150.8025 C 69.4076,157.9058 62.8425,158.6106 58.2061,156.26 C 64.2506,151.5265 68.113,146.7499 67.9186,140.5215 C 64.6653,144.6719 57.1098,143.4984 56.1781,143.21 C 61.8079,138.8915 63.5389,130.2628 63.8152,125.7351 C 64.1616,120.0584 63.0086,111.6017 65.6072,106.2107 C 67.9556,101.3388 74.1718,99.5374 79.2569,102.3236 C 81.4747,103.5387 83.1264,106.1992 83.0996,109.4345 C 83.08,111.8079 80.9268,116.2346 83.9132,118.4659 C 86.5787,120.4575 89.227,120.8515 91.8293,120.5315 C 92.3546,116.104 93.4767,113.513 96.0281,110.9615 C 94.8256,111.0003 94.3156,110.5283 94.1037,109.509 C 96.1297,108.4107 99.5029,106.5735 99.503,104.9021 C 95.2723,105.1022 94.8601,101.2786 94.7244,98.966 C 93.1825,98.9143 91.7443,99.1241 90.8336,99.7037 C 91.8611,94.6491 92.2952,91.6771 98.2273,94.7355 C 101.5244,91.4695 105.3218,94.01 107.7504,95.6336 C 109.9165,97.0819 114.0481,100.1103 118.7715,101.0672 C 118.5459,101.703 118.2789,102.4092 116.9844,102.5795 C 117.0877,102.9371 117.3257,103.317 117.699,103.7197 C 117.4259,104.1744 114.7021,105.574 113.0711,105.042 C 113.109,106.0854 113.7842,106.9075 116.8214,110.111 C 116.6092,110.3705 115.9283,111.159 114.9842,111.2079 C 117.2217,114.8596 117.5273,116.6875 117.5508,120.4327 C 121.2636,121.8594 125.6905,120.2188 127.5128,118.2974 C 129.1144,116.6087 128.4722,115.0777 127.98,112.6392 C 127.2549,109.0472 128.0259,104.6968 131.3327,102.5157 C 136.388,99.1824 143.336,102.1054 145.5474,107.3739 C 147.1393,111.1659 146.9268,115.9801 146.9451,119.9382 C 146.9856,128.7187 148.5167,136.8795 155.3128,143.6527 C 151.8299,144.7286 145.5014,143.9824 143.4893,140.727 C 142.4249,143.7887 144.5612,150.7045 153.2443,156.875 C 147.8766,158.8304 141.951,157.9932 137.3299,150.4945 C 137.8568,161.5997 141.8509,169.1526 146.8723,172.0475 C 140.8738,173.3023 136.0328,171.5037 133.1706,167.2607 C 129.8816,162.3849 128.1946,156.1224 127.5033,150.7779 C 127.1385,147.9574 126.5206,145.2935 125.4453,143.4069 C 124.4473,145.1612 125.6638,149.0225 126.0852,152.2508 C 124.7817,152.4259 123.0736,152.1549 121.0928,150.7068 C 122.2201,154.345 124.8935,157.6362 127.8435,160.0194 C 126.2174,161.1341 123.7058,160.8504 123.0363,160.7887 C 123.2191,164.2498 123.7873,166.3496 124.4203,167.3414 C 124.8865,168.0719 125.4501,168.5387 126.385,168.3327 C 127.9899,167.979 132.147,166.7588 132.8668,169.9793 C 134.2746,171.1493 134.1661,173.0217 132.4977,174.818 C 132.0909,173.7164 132.0793,172.7356 131.4042,172.2711 C 130.8597,172.36 130.0418,172.3173 129.5926,172.1692 C 129.0885,172.0031 128.9279,172.4392 129.6311,172.9138 C 130.796,173.7001 133.0873,174.685 132.8747,176.9721 C 133.9144,180.2506 129.8129,180.2535 128.6386,180.0818 C 129.2958,179.2744 129.5829,179.2316 129.2565,177.9822 C 128.7453,177.8569 128.4608,177.0496 128.0698,176.4261 C 127.6093,175.692 126.7034,175.0977 125.5076,174.6457 C 125.2939,175.3492 125.9532,176.9097 126.4509,178.2569 C 126.8546,179.3497 126.4636,180.4053 125.3224,180.5768 C 124.1112,183.774 120.0036,181.5004 119.817,180.4759 C 120.9427,180.4759 121.5922,180.5005 122.4177,180.1252 C 121.1567,178.6678 122.3317,177.5142 122.2826,176.3645 C 122.2573,175.7733 121.6624,174.9759 121.3146,174.7478 C 120.9226,174.4906 120.475,174.4244 120.187,174.902 C 119.6328,176.3005 120.2023,177.1972 120.3617,177.9723 C 118.4817,178.1616 117.0304,176.9549 117.1905,175.2992 C 114.808,175.4203 113.1733,168.6883 118.8415,168.5672 C 118.8415,165.1152 118.4994,162.8322 117.2236,160.2056 C 115.6159,162.6068 113.9981,162.7267 111.9794,162.7268 C 112.1361,160.4773 112.5732,154.5476 111.1986,151.9522 C 111.1274,152.8314 110.9692,157.1168 109.7784,158.5113 C 111.4003,160.5216 110.3731,164.8601 108.892,167.8892 C 110.3893,168.6679 111.3861,170.0357 111.3861,171.5871 C 111.3861,173.396 110.0314,174.9547 108.108,175.622 L 108.108,175.622 z "
   id="path16"
   style="fill:#0a0b0c" />
  <path
   class="fil3"
   d="M 98.6199,96.0092 C 100.4929,92.2632 106.2299,95.2483 108.7742,97.3922 C 111.7534,99.9026 114.0828,100.5398 117.3799,101.719 C 116.4625,102.1777 116.8146,102.125 115.7443,102.125 C 115.8377,102.6461 116.1503,103.0213 116.5628,103.3303 C 113.9919,104.2778 112.2969,104.3278 111.433,103.4333 C 112.2452,108.4544 113.9764,108.2419 115.4003,109.9994 C 114.0242,110.611 114.2153,110.5344 112.9922,110.5344 C 115.1324,112.8039 117.3114,117.8493 115.7825,120.8539 C 112.837,119.8685 109.7668,116.3571 109.2462,114.0886 C 108.6788,117.9596 106.9491,120.2476 105.0415,121.3514 C 102.6795,119.4329 101.675,116.8054 100.9515,114.318 C 98.5634,118.0609 96.3507,119.4629 93.1538,119.6706 C 92.8199,117.4425 94.9903,113.0302 97.626,110.5352 C 96.7087,110.5352 95.8677,110.2286 95.1032,109.9228 C 98.2659,108.6018 100.6026,106.3016 101.5572,103.9246 C 102.1362,102.4825 102.3521,101.1076 101.2162,99.8774 C 100.1825,98.7578 98.5148,98.2165 98.6199,96.0092 L 98.6199,96.0092 z M 93.982,120.9823 C 92.1472,123.2248 92.9298,127.6433 93.8472,129.58 C 95.1163,129.4681 97.0062,127.1605 97.9681,124.3904 C 98.3391,123.3217 98.7562,123.3211 98.8447,124.2456 C 98.9614,125.4642 98.8294,129.1457 101.3895,130.4952 C 103.553,128.7057 104.6746,125.8535 104.8555,122.5466 C 102.646,121.3679 100.7279,117.8544 100.6751,116.4985 C 98.8406,118.6007 97.7532,120.3757 93.982,120.9823 L 93.982,120.9823 z M 116.6456,122.3756 C 117.1198,125.5696 117.074,128.3412 116.1011,130.36 C 112.2646,129.0404 112.8289,124.815 112.5954,123.4486 C 112.4186,122.4139 111.7714,122.0985 111.7101,123.4818 C 111.52,127.7705 110.6167,128.7705 109.441,130.6323 C 106.2945,128.2812 105.9459,125.2274 105.8734,122.3756 C 108.006,121.1196 109.4549,118.2172 109.5428,116.5302 C 110.4661,118.8312 113.0954,121.528 116.6456,122.3756 L 116.6456,122.3756 z M 97.9984,127.1665 C 98.6216,129.7048 99.7071,130.816 100.8511,131.4998 C 100.2649,134.5689 98.8449,136.9708 96.7341,138.8203 C 94.4898,136.733 94.1987,134.1173 94.4059,130.8262 C 95.7303,130.46 97.6924,128.3695 97.9984,127.1665 z M 105.3983,126.2857 C 105.429,126.9855 103.3892,130.6592 102.0159,131.476 C 101.6082,135.2474 103.5635,137.6587 105.5002,139.5954 C 107.9431,138.0182 108.6033,134.4351 108.9849,131.4734 C 107.0449,130.5355 105.7632,128.0674 105.3983,126.2857 L 105.3983,126.2857 z M 112.1527,127.3688 C 111.6431,129.1017 111.0315,130.4491 109.9103,131.5703 C 109.8715,133.743 110.5684,137.5804 113.5528,139.3299 C 115.8802,137.7665 116.8348,133.4322 116.8065,131.4731 C 114.8698,131.4731 112.3566,129.4075 112.1527,127.3688 L 112.1527,127.3688 z M 92.0303,121.8599 C 89.1634,121.8599 86.113,121.0602 83.7675,119.5621 C 80.2152,117.2935 81.2047,115.302 81.8266,111.6018 C 82.2977,108.799 81.5418,106.3529 79.9463,104.3854 C 76.4905,100.1234 69.472,101.8509 66.9129,106.1445 C 65.3932,108.6938 65.1003,112.0603 65.1003,114.8097 C 65.1003,119.4212 65.4187,125.3508 64.3203,130.7606 C 63.3701,135.4402 61.226,139.731 58.5136,142.4434 C 68.0595,144.0621 70.2203,133.4883 70.6029,132.8224 C 71.6029,131.0819 72.2824,132.053 71.8538,133.7416 C 71.3467,135.7396 70.4417,138.1457 69.2518,139.4017 C 69.2755,142.2298 69.5912,148.8068 60.4012,155.83 C 66.0579,157.5655 70.5141,154.2524 73.3514,149.2318 C 74.8089,145.4972 75.6556,140.7355 77.1028,137.1565 C 77.622,135.8724 78.4414,135.9657 78.241,137.6736 C 77.9096,140.4971 75.5417,144.9644 75.4362,149.2316 C 75.3045,154.5653 73.1771,167.5623 67.1879,170.59 C 80.7913,171.7156 82.4152,153.4871 83.6814,144.578 C 84.0493,141.9894 86.7146,139.2796 87.5221,142.5917 C 88.3841,146.1271 86.9381,149.2832 86.6169,150.869 C 88.4516,150.869 89.102,149.7524 90.7075,148.9497 C 90.7075,145.7388 93.1156,142.184 94.377,139.6612 C 93.5061,137.0235 93.0091,134.3859 92.6824,131.7488 C 79.4547,128.502 67.6462,122.9152 69.14,112.6969 C 67.127,111.565 66.6271,109.8012 67.0169,108.3029 C 67.4454,106.6562 69.2722,105.6635 71.5301,106.1497 C 72.6894,103.7491 74.2042,103.4022 75.5417,103.6573 C 77.8564,104.099 78.6775,106.9019 77.9689,108.6111 C 81.4618,109.5592 80.6345,115.2072 75.1448,114.3706 C 74.8885,121.1965 84.4489,124.7463 91.8661,126.4738 C 91.6859,124.9357 91.7407,123.3976 92.0303,121.8599 L 92.0303,121.8599 z M 98.6562,152.5045 C 98.3441,155.4199 98.2444,158.3885 98.3568,161.4104 C 95.499,161.0121 95.3059,159.192 94.9913,157.9643 C 94.6493,156.6298 93.9822,156.6575 92.7482,157.508 C 89.1303,160.0014 88.71,159.7782 84.9196,159.2702 C 87.6717,156.9767 88.9572,153.6053 91.3653,151.1972 C 91.592,152.5756 92.2436,153.9009 93.3196,155.1735 C 95.2049,154.6024 96.9838,153.7126 98.6562,152.5045 L 98.6562,152.5045 z M 95.8823,139.5935 C 96.9014,143.2105 97.7845,147.1223 99.4734,149.2888 C 97.8657,151.9878 95.8804,153.6642 93.6148,153.7174 C 89.7959,147.1374 95.3437,141.7907 95.8823,139.5935 z M 101.1172,134.8653 C 100.4789,136.0002 99.6782,138.1306 97.4977,139.6116 C 98.1137,144.1267 99.3021,147.6118 101.3266,149.5916 C 103.4055,148.5272 105.025,143.1254 104.935,140.5531 C 103.1008,139.7042 101.361,136.6535 101.1172,134.8653 L 101.1172,134.8653 z M 109.5775,136.0106 C 108.6586,137.8947 107.6781,139.6554 106.4769,140.9757 C 106.394,144.7562 108.0394,147.8679 110.8674,150.522 C 112.3962,148.774 114.9983,142.7997 114.9984,140.0712 C 114.497,140.2442 114.1012,140.5932 113.5998,140.7663 C 111.9596,139.8793 110.6541,138.2119 109.5775,136.0106 L 109.5775,136.0106 z M 118.1684,122.2469 C 121.0348,122.1968 124.8051,121.2874 127.1241,119.7488 C 130.6361,117.4187 129.5556,115.3882 128.8694,111.6995 C 128.3495,108.9055 128.9496,106.6722 130.5105,104.6772 C 133.8913,100.3558 141.0518,101.8475 143.6855,106.0956 C 145.2492,108.618 145.6011,111.866 145.6491,114.615 C 145.7295,119.2258 145.5146,125.1601 146.7073,130.5498 C 147.7389,135.2121 150.2346,139.9494 152.9939,142.6141 C 143.4777,144.3991 140.8557,133.5184 140.4616,132.8593 C 139.4316,131.1367 138.7691,131.9809 139.227,133.6618 C 139.769,135.6507 140.7157,138.0406 141.9275,139.2757 C 141.9531,142.1038 141.7522,149.3066 151.0634,156.1683 C 145.4378,158.0023 140.9245,154.1461 138,149.1758 C 136.4775,145.4672 135.5479,140.721 134.0384,137.1679 C 133.4968,135.8929 132.6792,136.0006 132.9095,137.7047 C 133.29,140.522 135.7357,144.9474 135.9154,149.212 C 136.1403,154.5425 138.2683,168.1782 144.3093,171.1009 C 130.7277,172.4639 129.0117,153.5885 127.5903,144.703 C 127.1774,142.1214 124.5216,139.402 123.772,142.7275 C 122.972,146.2775 124.4162,149.4644 124.7651,151.0443 C 122.9307,151.0763 122.2608,149.9712 120.6416,149.1967 C 119.7191,142.9531 117.5205,140.9832 116.4152,139.1828 C 117.2399,136.5303 117.7473,134.9577 118.0279,132.3152 C 131.197,128.8381 143.245,122.7637 141.5731,112.573 C 143.566,111.4062 144.035,109.6338 143.6192,108.1426 C 143.162,106.5036 141.3182,105.543 139.0692,106.0685 C 137.8681,103.6885 136.3475,103.3681 135.0146,103.6465 C 132.7079,104.1285 131.9359,106.9453 132.6743,108.6419 C 129.1984,109.6508 130.1241,115.2836 135.5984,114.3513 C 136.0287,121.2265 125.8955,125.0406 118.4131,126.8009 C 118.5664,125.2599 118.4847,123.7794 118.1684,122.2469 L 118.1684,122.2469 z M 116.1468,140.8927 C 115.5009,144.4328 114.5156,147.5582 112.7831,149.7711 C 113.4295,150.8923 114.9501,152.649 117.3128,153.5665 C 120.6235,151.0821 119.2648,144.1391 116.1468,140.8927 L 116.1468,140.8927 z M 112.6609,152.0999 C 112.973,155.0153 113.118,158.8436 113.0055,161.8655 C 115.8633,161.4672 116.4185,159.104 116.733,157.8765 C 117.0748,156.542 117.3217,156.151 118.4784,157.1034 C 121.9129,159.9313 122.5833,160.3969 126.4428,159.7253 C 122.2854,156.6286 121.9297,153.6787 119.9518,151.5165 C 119.725,152.9335 118.9829,153.8974 117.907,155.0856 C 116.0216,154.6744 114.3332,153.3917 112.6609,152.0999 L 112.6609,152.0999 z M 101.396,150.7064 C 101.2131,152.0104 101.9642,158.1551 105.806,161.1432 C 109.5973,158.5127 110,155.5868 110.0297,151.0297 C 108.1098,149.8705 106.6943,147.3668 105.6244,144.6141 C 104.9802,146.6552 103.3235,150.6955 101.396,150.7064 z M 102.9074,159.6001 C 102.3435,164.9062 104.1303,166.9384 106.072,168.8643 C 109.4913,166.8027 109.8505,162.1732 109.2366,159.3469 C 108.3409,160.791 107.2727,161.7373 105.9525,162.5445 C 104.6385,161.8019 103.6898,160.7674 102.9074,159.6001 L 102.9074,159.6001 z M 106.0194,170.233 C 106.6948,169.8251 107.3706,169.3445 108.0466,168.831 C 109.3742,169.3784 110.2785,170.4452 110.2785,171.6669 C 110.2785,173.4438 108.3652,174.893 106.0194,174.893 C 103.6737,174.893 101.7605,173.4438 101.7605,171.6669 C 101.7605,170.3341 102.8367,169.1858 104.3644,168.6948 C 104.7569,169.2074 105.3086,169.7201 106.0194,170.233 L 106.0194,170.233 z M 106.0565,176.3309 C 107.6579,176.3309 108.9641,177.0099 108.9641,177.8424 C 108.9641,178.6749 107.6579,179.3539 106.0565,179.3539 C 104.4551,179.3539 103.149,178.6749 103.149,177.8424 C 103.149,177.0099 104.4551,176.3309 106.0565,176.3309 z M 109.7813,184.7393 C 110.7592,189.0117 109.6869,192.3954 108.9733,194.9139 C 113.4856,197.1299 117.4674,197.9039 120.0634,196.3094 C 118.0644,195.1608 113.9337,192.7069 112.2895,190.9446 C 111.6163,190.2231 112.3669,189.3787 113.4871,190.2448 C 115.8514,192.0727 119.5744,193.9469 122.4875,192.4036 C 124.992,191.0769 125.2729,188.1756 124.6447,185.5714 C 122.2011,190.0194 112.1903,187.0856 109.7813,184.7393 z M 106.1541,180.8217 C 100.2964,185.2965 103.8665,193.4166 106.1409,198.2942 C 110.8283,190.7928 109.71,183.1984 106.1541,180.8217 z M 102.6826,183.9874 C 100.9591,186.5481 101.8992,191.6023 103.0058,194.549 C 96.075,197.1481 92.8983,197.0801 91.4279,195.7998 C 93.4665,194.4747 98.1346,192.3672 99.2387,190.1164 C 99.915,188.7377 99.1018,188.7113 97.9914,189.724 C 96.5923,191.0002 94.7867,192.0944 92.7964,192.4447 C 92.0763,192.5713 91.3321,192.6007 90.5744,192.5062 C 90.4806,192.4945 90.3877,192.4815 90.2957,192.4675 C 87.444,192.0327 85.5037,190.4544 86.541,185.9124 C 87.6623,187.5433 94.8485,187.6366 96.5958,187.1167 C 99.1454,186.358 100.4772,184.3854 102.6826,183.9874 L 102.6826,183.9874 z M 118.3158,128.4823 L 117.8862,130.9553 C 127.0372,128.0652 142.2813,124.1128 140.2831,111.6032 C 142.3039,110.7799 142.5166,109.6331 141.9933,108.5257 C 141.5603,107.609 140.1713,107.1477 138.1771,107.8577 C 137.9366,105.6783 136.1728,104.6067 134.8743,105.1183 C 133.7577,105.558 133.2382,107.2056 134.7357,109.0385 C 130.5116,109.7787 131.4063,114.4346 136.6491,112.8026 C 138.8875,118.1508 132.6663,125.2709 118.3158,128.4823 L 118.3158,128.4823 z M 92.0453,127.9264 L 92.5804,130.7295 C 82.785,127.4281 68.8841,123.8206 70.4104,111.5664 C 68.3756,110.7784 68.2085,109.427 68.7124,108.3103 C 69.1296,107.386 70.583,107.1071 72.5892,107.7822 C 72.7917,105.599 74.4004,104.6376 75.7077,105.1264 C 76.8318,105.5467 77.38,107.1849 75.9147,109.0436 C 80.1511,109.71 79.3377,114.3809 74.0672,112.8405 C 72.4392,118.1532 78.3267,124.8681 92.0453,127.9264 L 92.0453,127.9264 z "
   id="path18"
   style="fill:#da251d" />
  <path
   class="fil3"
   d="M 158.523,170.684 L 188.8555,170.684 L 188.8555,201.6681 L 181.5182,201.6681 L 181.5193,182.6718 C 181.3523,171.7361 166.9029,171.9842 166.2534,182.7383 L 166.2534,201.6681 L 158.523,201.6681 L 158.523,170.684 L 158.523,170.684 z M 196.3125,208.4849 L 13.5365,208.4849 C 12.6149,206.8514 11.7467,205.19 10.9258,203.5059 L 198.8768,203.5059 C 198.0685,205.1906 197.2152,206.8518 196.3126,208.4849 L 196.3125,208.4849 z M 122.7605,65.7709 L 86.7716,65.7709 L 86.7716,60.7691 L 86.7744,60.7691 L 86.7744,51.9853 L 92.9962,51.9853 L 92.9962,60.7691 L 101.5941,60.7691 L 101.5941,51.9853 L 107.8159,51.9853 L 107.8159,60.7691 L 116.5411,60.7691 L 116.5411,51.9853 L 122.7629,51.9853 L 122.7629,63.758 L 122.7605,63.758 L 122.7605,65.7709 z M 94.9024,67.6342 L 115.0892,67.6342 L 115.0892,78.2093 C 133.4013,80.7921 149.0975,90.1544 158.523,103.1632 L 158.523,96.7842 L 188.8555,96.7842 L 188.8555,125.4545 L 181.5184,125.4545 L 181.5193,108.772 C 181.3523,97.8363 166.9029,98.0844 166.2534,108.8385 L 166.2534,125.4545 L 158.523,125.4545 L 158.523,121.7581 C 153.2537,100.5393 131.1503,84.5355 104.8084,84.5355 C 77.8083,84.5355 55.2619,101.3495 50.7315,123.359 L 50.7315,125.4545 L 43.3944,125.4545 L 43.3953,108.772 C 43.2283,97.8363 28.779,98.0844 28.1294,108.8385 L 28.1294,125.4545 L 20.399,125.4545 L 20.399,96.7842 L 50.7315,96.7842 L 50.7315,103.6617 C 60.178,90.3041 76.1948,80.6973 94.9024,78.1586 L 94.9024,67.6342 L 94.9024,67.6342 z M 20.399,170.6842 L 50.7315,170.6842 L 50.7315,201.6683 L 43.3942,201.6683 L 43.3953,182.672 C 43.2283,171.7363 28.779,171.9844 28.1294,182.7385 L 28.1294,201.6683 L 20.399,201.6683 L 20.399,170.6842 L 20.399,170.6842 z M 18.8922,164.0674 L 52.0417,164.0674 L 52.0417,169.3084 L 18.8922,169.3084 L 18.8922,164.0674 z M 20.399,133.5786 L 50.7315,133.5786 L 50.7315,162.56 L 43.3943,162.56 L 43.3953,145.5665 C 43.2283,134.6307 28.779,134.8788 28.1294,145.633 L 28.1294,162.56 L 20.399,162.56 L 20.399,133.5786 L 20.399,133.5786 z M 18.8922,126.9618 L 52.0417,126.9618 L 52.0417,132.2029 L 18.8922,132.2029 L 18.8922,126.9618 z M 35.2974,54.2727 C 37.3931,54.2727 39.1025,55.982 39.1025,58.0777 C 39.1025,60.1734 37.3931,61.8828 35.2974,61.8828 C 33.2017,61.8828 31.4924,60.1734 31.4924,58.0777 C 31.4924,55.982 33.2017,54.2727 35.2974,54.2727 z M 17.3995,95.4004 L 53.0488,95.4216 L 35.5345,65.8948 L 17.3995,95.4004 L 17.3995,95.4004 z M 157.0165,164.0674 L 190.166,164.0674 L 190.166,169.3084 L 157.0165,169.3084 L 157.0165,164.0674 z M 158.5233,133.5786 L 188.8558,133.5786 L 188.8558,162.56 L 181.5186,162.56 L 181.5196,145.5665 C 181.3526,134.6307 166.9032,134.8788 166.2537,145.633 L 166.2537,162.56 L 158.5233,162.56 L 158.5233,133.5786 L 158.5233,133.5786 z M 157.0165,126.9618 L 190.166,126.9618 L 190.166,132.2029 L 157.0165,132.2029 L 157.0165,126.9618 z M 173.4217,54.2727 C 175.5174,54.2727 177.2268,55.982 177.2268,58.0777 C 177.2268,60.1734 175.5174,61.8828 173.4217,61.8828 C 171.326,61.8828 169.6166,60.1734 169.6166,58.0777 C 169.6166,55.982 171.326,54.2727 173.4217,54.2727 z M 155.5238,95.4004 L 191.1731,95.4216 L 173.6588,65.8948 L 155.5238,95.4004 L 155.5238,95.4004 z "
   id="path20"
   style="fill:#da251d" />
  <path
   class="fil2"
   d="M 157.314,99.9316 L 157.314,96.6747 L 154.4099,96.673 C 155.4239,97.7271 156.3922,98.8144 157.314,99.9316 z M 55.187,96.6962 L 51.9097,96.6942 L 51.9097,100.4168 C 52.9421,99.1367 54.0349,97.8951 55.187,96.6962 z "
   id="path22"
   style="fill:#ffffff" />
  <path
   class="fil0"
   d="M 99.9767,77.5445 C 99.9655,75.4341 99.8341,73.0762 101.0422,71.4332 C 102.8938,68.9151 106.9964,69.2468 108.6914,71.5134 C 109.8467,73.0579 109.8394,75.397 109.7942,77.5445 L 107.6108,77.5445 C 106.6815,77.5095 105.7473,77.4899 104.8082,77.4899 C 103.8694,77.4899 102.9361,77.5095 102.0072,77.5445 L 99.9767,77.5445 L 99.9767,77.5445 z "
   id="path24"
   style="fill:#0a0b0c" />
  <path
   class="fil2"
   d="M 101.439,76.1368 C 101.4285,74.8268 101.4572,73.4539 102.1901,72.457 C 103.4862,70.6944 106.3581,70.9266 107.5446,72.5132 C 108.2471,73.4523 108.3354,74.811 108.3258,76.1368 L 101.439,76.1368 z "
   id="path26"
   style="fill:#ffffff" />
  <path
   class="fil0"
   d="M 104.991,98.8877 C 103.5335,99.6733 100.3102,99.5607 101.7292,96.9013 C 101.0253,96.3216 101.3407,95.9779 102.1597,96.0827 C 103.3704,96.2378 106.1609,98.0846 107.4166,99.2759 C 108.3896,100.1992 107.7079,100.1988 106.9368,99.9143 C 106.4235,99.7248 105.5762,99.1494 104.991,98.8877 z "
   id="path28"
   style="fill:#0a0b0c" />
  <path
   class="fil4"
   d="M 117.612,158.645 C 119.1985,161.2892 120.2889,166.2523 120.113,169.3561 C 118.7918,169.3561 117.1665,169.379 116.4366,170.4315 C 115.7145,171.4723 116.0439,173.3407 116.9566,174.1436 C 117.8045,174.8892 119.0205,174.8239 119.4402,173.7281 C 119.7177,173.0035 119.9417,172.9571 120.5921,173.2411 C 121.363,173.5779 122.7824,174.7955 123.0359,175.3709 C 123.4267,176.2576 123.2315,177.1321 122.8821,177.7581 C 121.9405,179.4444 123.8879,180.606 124.9987,179.541 C 126.1248,178.4615 125.0866,177.282 124.5585,176.1883 C 124.0682,175.1726 123.8422,172.0666 125.5567,173.4422 C 126.8626,174.49 128.3114,174.8456 129.1615,176.0803 C 129.7272,176.9021 128.8876,177.7901 130.2645,177.9189 C 131.6379,178.0473 132.4568,176.9285 131.0592,175.4262 C 129.39,173.6324 129.0169,174.2276 127.1785,172.177 C 126.2555,171.1476 125.8991,170.5974 127.764,170.7745 C 128.7957,170.8724 129.5692,170.5333 130.3993,171.1841 C 131.2573,171.8566 131.9347,171.6189 131.9263,170.3141 C 131.9149,168.5687 129.1415,168.6452 127.3094,169.0517 C 124.1608,169.7501 123.683,168.7591 122.4551,165.2174 C 121.9823,163.8536 121.8821,161.336 121.0013,160.4186 C 120.1203,159.777 118.7129,158.7339 117.612,158.645 L 117.612,158.645 z M 93.7448,158.8963 C 92.0924,161.5405 91.1137,166.202 91.2969,169.3058 C 92.6729,169.3058 94.3657,169.3789 95.126,170.4315 C 95.8782,171.4723 95.535,173.3407 94.5844,174.1436 C 93.7013,174.8892 92.4348,174.8239 91.9977,173.7281 C 91.7086,173.0035 91.4753,172.9571 90.798,173.2411 C 89.995,173.5779 88.5166,174.7955 88.2526,175.3709 C 87.8457,176.2576 88.0488,177.1321 88.4128,177.7581 C 89.3935,179.4444 87.3654,180.606 86.2083,179.541 C 85.0354,178.4614 86.2737,177.2821 86.8237,176.1883 C 87.3346,175.1725 87.6223,171.9659 85.8365,173.3417 C 84.4762,174.3897 82.7057,174.8455 81.8202,176.0803 C 81.2309,176.9022 82.158,177.7901 80.7238,177.9189 C 79.2933,178.0474 78.4403,176.9285 79.8961,175.4262 C 81.6346,173.6323 82.3372,174.2277 84.2521,172.177 C 85.2136,171.1475 85.6371,170.4967 83.6947,170.6739 C 82.6199,170.772 81.3957,170.684 80.531,171.3349 C 79.6373,172.0075 78.9835,171.619 78.993,170.3141 C 79.0049,168.6778 81.8408,168.5032 83.7493,168.7501 C 87.0747,169.1804 87.5785,168.7592 88.8576,165.2174 C 89.3501,163.8535 89.5591,161.3863 90.4765,160.4689 C 91.3939,159.7809 92.5981,158.8963 93.7448,158.8963 L 93.7448,158.8963 z M 96.0688,100.0637 C 96.1574,101.948 96.5635,104.286 99.6887,103.8652 C 101.6132,103.606 101.4728,101.1714 99.6315,99.778 C 97.8729,98.4474 97.6269,97.0251 97.9669,95.7779 C 93.0074,92.4819 92.5759,95.8894 91.8579,98.5759 C 94.3846,97.2986 95.8485,98.075 98.4098,100.564 C 100.263,102.365 99.3765,103.1492 98.3439,101.8803 C 97.6901,101.0769 96.4863,100.3334 96.0688,100.0637 L 96.0688,100.0637 z "
   id="path30"
   style="fill:#fff500" />
  <path
   class="fil2"
   d="M 29.3655,125.454 L 42.0615,125.454 L 42.0624,109.3252 C 41.9235,99.4831 29.9057,99.7064 29.3655,109.3851 L 29.3655,125.454 L 29.3655,125.454 z M 42.0615,162.5596 L 42.0624,146.1198 C 41.9235,136.2776 29.9057,136.5009 29.3655,146.1797 L 29.3655,162.5596 L 42.0615,162.5596 z "
   id="path32"
   style="fill:#ffffff" />
  <path
   class="fil2"
   d="M 167.489,125.454 L 180.1851,125.454 L 180.186,109.3252 C 180.047,99.4831 168.0293,99.7064 167.489,109.3851 L 167.489,125.454 z M 180.1851,162.5596 L 180.186,146.1198 C 180.047,136.2776 168.0293,136.5009 167.489,146.1797 L 167.489,162.5596 L 180.1851,162.5596 z "
   id="path34"
   style="fill:#ffffff" />
  <path
   class="fil0"
   d="M 102.126,247.36 C 106.0825,245.2573 108.5406,244.8569 112.4042,247.3273 C 118.8293,251.4353 121.7239,250.0042 127.4241,247.5904 C 131.8488,245.7168 135.5587,245.0615 139.6552,247.7169 C 140.6939,248.3902 140.4632,249.9704 139.1623,249.2244 C 135.5708,247.1648 133.1795,246.6123 128.0864,248.9638 C 121.9801,251.7832 117.8054,252.6024 111.9348,248.7705 C 109.4679,247.1602 106.897,246.2265 102.4957,248.8321 C 97.3424,251.8828 93.6429,252.2002 87.666,249.0872 C 83.9448,247.149 81.359,246.4934 78.8485,247.5965 C 76.9263,248.4412 76.7706,249.3856 75.8873,250.3884 C 75.5324,250.7915 74.6608,250.4609 75.1017,249.483 C 77.4153,244.3505 83.3492,245.1039 87.0717,247.1314 C 92.0818,249.8603 95.0223,251.1351 102.126,247.36 L 102.126,247.36 z M 23.553,216.0986 C 28.103,212.4921 31.6115,213.2903 35.1906,214.8758 C 40.7833,217.3535 43.2987,218.7395 49.2825,215.4554 C 53.9385,212.9004 57.2881,213.9217 61.7541,215.7969 C 66.4919,217.7865 68.4264,219.1801 75.2683,215.4832 C 79.2103,213.3532 81.6829,212.9802 85.5465,215.4505 C 91.9717,219.5586 94.8662,218.1275 100.5664,215.7137 C 104.9913,213.84 108.3185,213.5667 112.4153,216.2224 C 114.9245,217.8491 119.5564,219.9593 126.2236,215.9117 C 130.3536,213.4046 133.8155,214.0128 137.1014,215.9718 C 142.3062,219.0748 146.3582,218.0322 151.4631,215.8875 C 156.0323,213.9678 159.4343,214.0609 163.9266,216.3771 C 169.1731,219.0822 173.2792,218.8224 176.3719,216.5423 C 179.5529,214.1988 183.5115,213.5043 187.0973,215.5715 C 188.6417,216.4618 188.2891,217.2291 187.9604,217.4389 C 187.5378,217.7085 186.7341,217.2385 185.6219,216.8202 C 182.3069,215.5731 180.6636,215.8802 178.1667,217.5298 C 171.4487,221.9677 168.0395,219.9628 162.1873,217.5253 C 158.072,215.8113 155.9138,215.5409 151.6861,217.5414 C 145.2797,220.5728 142.126,220.1648 135.5344,216.7876 C 132.0117,214.9827 130.5923,215.4183 125.5817,217.9291 C 122.886,219.2799 118.0382,221.3566 112.3811,218.1122 C 108.7892,216.0521 106.3219,214.7355 101.2287,217.087 C 95.1224,219.9065 90.9477,220.7256 85.0772,216.8937 C 82.6103,215.2835 80.0393,214.3497 75.638,216.9553 C 70.4848,220.006 66.8813,220.1321 60.8083,217.2104 C 57.0133,215.3847 54.6955,214.3341 48.841,217.4312 C 43.5408,220.2353 40.1724,218.6319 34.5781,216.0536 C 28.3589,213.1871 26.2596,216.438 24.412,217.2667 C 22.7298,218.0212 21.9598,217.3608 23.553,216.0986 L 23.553,216.0986 z M 76.0837,230.671 C 80.0403,228.5683 82.4984,228.1679 86.3619,230.6383 C 92.7871,234.7463 95.6816,233.3153 101.3818,230.9014 C 105.8067,229.0277 109.1339,228.7544 113.2307,231.4102 C 115.74,233.0368 120.3718,235.1469 127.039,231.0995 C 131.1689,228.5923 134.7621,229.5282 138.0479,231.4871 C 143.2526,234.59 146.9773,233.2854 152.082,231.1408 C 155.8658,229.5512 158.8044,229.4769 162.2539,230.8132 C 162.9495,231.0827 163.0716,231.7393 162.7841,232.1171 C 162.6117,232.3437 162.4938,232.5712 161.6979,232.2716 C 158.2745,230.9825 156.366,230.9886 152.5015,232.7291 C 145.7712,235.7604 141.6694,235.5489 136.3499,232.1718 C 133.0082,230.0505 131.4076,230.606 126.3971,233.1168 C 123.7015,234.4675 118.8536,236.5443 113.1965,233.2999 C 109.6047,231.2398 107.1373,229.9232 102.0442,232.2748 C 95.9379,235.0942 91.7632,235.9134 85.8926,232.0814 C 83.4257,230.4712 80.8548,229.5375 76.4535,232.143 C 71.3002,235.1938 67.6007,235.5112 61.6238,232.3982 C 57.9026,230.46 55.3168,229.8043 52.8063,230.9075 C 50.8841,231.7522 50.7284,232.6965 49.8451,233.6994 C 49.4901,234.1025 48.6186,233.7718 49.0594,232.794 C 51.3731,227.6615 57.3069,228.4148 61.0294,230.4424 C 66.0396,233.1713 68.9801,234.4461 76.0837,230.671 L 76.0837,230.671 z "
   id="path36"
   style="fill:#0a0b0c" />
 </g>
</svg>