<!-- Created with Inkscape (http://www.inkscape.org/) -->
<svg
   xmlns="http://www.w3.org/2000/svg"
   id="svg2"
   version="1.0"><title>Herb Busko-Zdrój</title>
  <metadata
     id="metadata7">
    <rdf:RDF>
      <cc:Work
         rdf:about="">
        <dc:format>image/svg+xml</dc:format>
        <dc:type
           rdf:resource="http://purl.org/dc/dcmitype/StillImage" />
      </cc:Work>
    </rdf:RDF>
  </metadata>
  <defs
     id="defs5" />
  <sodipodi:namedview
     borderopacity="1.0"
     bordercolor="#666666"
     pagecolor="#ffffff"
     id="base"
     showgrid="true"
     showguides="true" />
  <path
     style="fill:#ff0000;fill-opacity:1;stroke:none;stroke-width:15;stroke-linecap:round;stroke-miterlimit:4;stroke-dasharray:none;stroke-opacity:1"
     id="path4918"
     d="M -463.86203 430.38773 A 4.2426405 0 0 1 1  -472.34732,430.38773 A 4.2426405 0 0 1 1  -463.86203 430.38773 z" />
  <g
     id="g1820"
     transform="matrix(1.390781,0,0,1.390781,-70.53693,-45.71166)">
    <rect
       ry="0.35951006"
       rx="0.35951009"
       y="47.331173"
       x="62.358765"
       height="486.09341"
       width="616.07849"
       id="rect2230"
       style="fill:#ff0000;fill-opacity:1;stroke:#000000;stroke-width:13.92151165;stroke-linecap:round;stroke-miterlimit:4;stroke-dasharray:none;stroke-opacity:1" />
    <path
       transform="matrix(1.232446,0,0,1.25272,-1070.919,-256.0374)"
       d="M 1419.1371 624.45007 A 249.68915 170.69145 0 1 1  919.75885,624.45007 A 249.68915 170.69145 0 1 1  1419.1371 624.45007 z"
       id="path3105"
       style="fill:#ff0000;fill-opacity:1;stroke:#000000;stroke-width:12.10690975;stroke-linecap:round;stroke-miterlimit:4;stroke-dasharray:none;stroke-opacity:1" />
    <rect
       ry="0.35951006"
       rx="0.35951009"
       y="288"
       x="76"
       height="222"
       width="588"
       id="rect3117"
       style="fill:#ff0000;fill-opacity:1;stroke:none;stroke-width:15;stroke-linecap:round;stroke-miterlimit:4;stroke-dasharray:none;stroke-opacity:1" />
    <path
       transform="matrix(1.333333,0,0,0.704379,253,-145.146)"
       d="M -108 901 A 15 137 0 1 1  -138,901 A 15 137 0 1 1  -108 901 z"
       id="path4000"
       style="fill:#ff0000;fill-opacity:1;stroke:none;stroke-width:15;stroke-linecap:round;stroke-miterlimit:4;stroke-dasharray:none;stroke-opacity:1" />
    <path
       transform="matrix(1.333333,0,0,0.704379,816,-148.6455)"
       d="M -108 901 A 15 137 0 1 1  -138,901 A 15 137 0 1 1  -108 901 z"
       id="path4881"
       style="fill:#ff0000;fill-opacity:1;stroke:none;stroke-width:15;stroke-linecap:round;stroke-miterlimit:4;stroke-dasharray:none;stroke-opacity:1" />
    <g
       transform="translate(-768.0016,56.21411)"
       id="g1780">
      <g
         id="g1740"
         transform="translate(41.28441,-4.128444)">
        <g
           transform="translate(151.5799,-38.38193)"
           id="g1559">
          <path
             style="fill:#ffff00;fill-opacity:1;stroke:none;stroke-width:5;stroke-linecap:round;stroke-miterlimit:4;stroke-dasharray:none;stroke-opacity:1"
             id="path10428"
             d="M -750.2403 1732.5249 A 96.520073 95.812965 0 1 1  -943.28045,1732.5249 A 96.520073 95.812965 0 1 1  -750.2403 1732.5249 z"
             transform="matrix(1.309326,0,0,1.318988,2052.385,-1912.263)" />
          <g
             id="g1541"
             transform="translate(1207.974,-100.1865)">
            <path
               id="path7550"
               d="M -335.70536,580.35923 C -336.22135,584.54908 -330.98977,588.75279 -330.10002,593.82925 C -329.14571,599.27399 -330.35665,604.56986 -330.48924,610.11957 C -330.66878,617.63493 -334.81922,620.03633 -338.97053,623.99375 C -342.59999,627.4539 -343.70316,629.9529 -348.86198,634.8709 C -352.93287,638.75178 -355.04791,645.70251 -355.19263,651.76021 C -355.33417,657.68386 -355.47569,663.6077 -355.61722,669.53144 C -355.74025,674.68186 -356.60674,679.93849 -356.7469,685.80406 C -356.94604,694.14049 -359.20519,697.14107 -361.5966,702.72877 C -364.27733,708.99239 -369.86644,710.86551 -372.29929,716.54995 C -374.12688,720.82016 -360.86977,713.61271 -358.88238,713.16606 C -354.61909,712.20787 -347.84103,708.4288 -346.13519,706.80255 C -342.1618,703.01458 -338.38413,703.01736 -336.22604,695.18508 C -334.39471,688.53873 -333.04495,686.08049 -332.85726,678.22507 C -332.68538,671.0312 -331.55484,665.80194 -328.00755,661.30045 C -324.19275,656.45929 -319.83877,653.91627 -314.39607,649.77131 C -309.59322,646.11376 -308.17659,643.84211 -303.7818,639.65236 C -299.87774,635.93061 -298.31813,628.03978 -298.17395,622.00495 C -298.02444,615.74688 -295.18238,613.34003 -294.15317,608.76506 C -293.08698,604.0257 -288.70016,600.67204 -284.98447,597.1298"
               style="fill:#ffff00;fill-opacity:1;fill-rule:evenodd;stroke:#000000;stroke-width:5.23740339;stroke-linecap:butt;stroke-linejoin:miter;stroke-miterlimit:4;stroke-dasharray:none;stroke-opacity:1" />
            <path
               id="path9298"
               d="M -236.92984,597.10894 L -265.18885,735.30223 L -283.48884,596.19563"
               style="fill:#ffff00;fill-opacity:1;fill-rule:evenodd;stroke:#000000;stroke-width:5.39638329;stroke-linecap:butt;stroke-linejoin:miter;stroke-miterlimit:4;stroke-dasharray:none;stroke-opacity:1" />
            <path
               id="path9300"
               d="M -237.23376,597.0876 C -234.68937,600.45618 -228.00692,599.83585 -223.83598,602.86332 C -219.36242,606.11038 -216.54772,610.75683 -212.78187,614.83558 C -207.68219,620.35879 -208.99273,624.97127 -209.22127,630.70211 C -209.42101,635.71274 -208.47485,638.27517 -208.75888,645.39699 C -208.98293,651.01684 -205.66631,657.4811 -201.55587,661.93293 C -197.53616,666.28658 -193.51644,670.64004 -189.49682,674.9936 C -186.00186,678.77879 -182.96707,683.15742 -178.9869,687.46821 C -173.33012,693.5948 -172.86519,697.32201 -170.69549,702.99927 C -168.26322,709.36364 -170.97473,714.5976 -168.76744,720.37341 C -167.10927,724.71223 -162.60105,710.31178 -161.4843,708.60821 C -159.08866,704.95382 -156.84908,697.52362 -156.75521,695.16872 C -156.5365,689.68331 -153.82104,687.05705 -157.72006,679.92959 C -161.02864,673.88146 -161.76945,671.17655 -167.09982,665.40341 C -171.9814,660.11645 -174.80747,655.57363 -175.39129,649.87225 C -176.01914,643.74088 -174.66094,638.88497 -173.63523,632.12093 C -172.73004,626.15221 -173.29281,623.53504 -173.05093,617.46787 C -172.83602,612.07843 -177.20561,605.32538 -181.30064,600.89011 C -185.54716,596.29093 -185.18023,592.58477 -187.62396,588.58247 C -190.15537,584.43636 -189.33752,578.97544 -189.13301,573.84588"
               style="fill:#ffff00;fill-opacity:1;fill-rule:evenodd;stroke:#000000;stroke-width:5.23740339;stroke-linecap:butt;stroke-linejoin:miter;stroke-miterlimit:4;stroke-dasharray:none;stroke-opacity:1" />
            <path
               id="path5798"
               d="M -334.79716,581.56859 L -446.07226,654.65946 L -365.04078,542.3703 L -365.00782,540.8893"
               style="fill:#ffff00;fill-opacity:1;fill-rule:evenodd;stroke:#000000;stroke-width:5.23740339;stroke-linecap:butt;stroke-linejoin:miter;stroke-miterlimit:4;stroke-dasharray:none;stroke-opacity:1" />
            <path
               id="path9302"
               d="M -157.1136,540.12181 L -75.980127,655.50512 L -189.72644,573.36306"
               style="fill:#ffff00;fill-opacity:1;fill-rule:evenodd;stroke:#000000;stroke-width:5.39638329;stroke-linecap:butt;stroke-linejoin:miter;stroke-miterlimit:4;stroke-dasharray:none;stroke-opacity:1" />
            <path
               id="path9316"
               d="M -157.85216,541.28055 C -153.67763,541.90853 -149.33548,536.79131 -144.23699,536.0377 C -138.76868,535.22945 -133.50709,536.58167 -127.96291,536.86279 C -120.45505,537.24333 -118.16557,541.45661 -114.32058,545.71228 C -110.95881,549.43308 -108.49031,550.60273 -103.71216,555.89132 C -99.941585,560.0646 -93.049914,562.36487 -86.998392,562.67173 C -81.080485,562.9717 -75.162625,563.27167 -69.244776,563.57174 C -64.099465,563.83248 -58.867932,564.83937 -53.008192,565.13647 C -44.680188,565.55863 -41.740984,567.89726 -36.21945,570.4373 C -30.029655,573.28469 -28.306823,578.92195 -22.689528,581.50611 C -18.469718,583.44727 -25.319757,570.00213 -25.713155,568.00337 C -26.556979,563.71603 -30.153222,556.83927 -31.733216,555.09053 C -35.413546,551.01704 -35.30968,547.24085 -43.081421,544.87389 C -49.676345,542.86538 -52.097685,541.45039 -59.945199,541.05244 C -67.131962,540.68817 -72.329086,539.41805 -76.734055,535.7516 C -81.471261,531.80863 -83.896916,527.38809 -87.894767,521.83646 C -91.422508,516.93741 -93.655282,515.46061 -97.72592,510.9552 C -101.34189,506.95299 -109.18812,505.18273 -115.21695,504.87711 C -121.46877,504.56021 -123.79874,501.65474 -128.34461,500.50346 C -133.05366,499.31075 -136.28869,494.83587 -139.73032,491.02666"
               style="fill:#ffff00;fill-opacity:1;fill-rule:evenodd;stroke:#000000;stroke-width:5.23740339;stroke-linecap:butt;stroke-linejoin:miter;stroke-miterlimit:4;stroke-dasharray:none;stroke-opacity:1" />
            <path
               id="path9318"
               d="M -138.24767,446.5993 L 0.46512616,472.18644 L -138.26248,493.16722"
               style="fill:#ffff00;fill-opacity:1;fill-rule:evenodd;stroke:#000000;stroke-width:5.39638329;stroke-linecap:butt;stroke-linejoin:miter;stroke-miterlimit:4;stroke-dasharray:none;stroke-opacity:1" />
            <path
               id="path9320"
               d="M -387.33602,494.74726 C -390.69143,497.30893 -390.03675,503.98801 -393.0427,508.17451 C -396.26663,512.6648 -400.89861,515.50338 -404.95783,519.2901 C -410.45471,524.41823 -415.07396,523.13146 -420.80585,522.93243 C -425.81744,522.75858 -428.37499,523.71791 -435.49814,523.47047 C -441.11914,523.27537 -447.56619,526.62529 -451.99687,530.75858 C -456.32966,534.80059 -460.66246,538.8427 -464.99525,542.8847 C -468.76236,546.39911 -473.12539,549.45642 -477.4156,553.45872 C -483.51292,559.14689 -487.23773,559.63115 -492.9037,561.82989 C -499.25554,564.29502 -504.50337,561.61049 -510.2677,563.8475 C -514.59791,565.52801 -500.1745,569.96194 -498.46509,571.06997 C -494.79845,573.44668 -487.35686,575.64801 -485.00149,575.72982 C -479.51502,575.92023 -476.87479,578.62217 -469.76762,574.68647 C -463.73652,571.34669 -461.03543,570.59203 -455.28986,565.23196 C -450.02806,560.32334 -445.49997,557.47385 -439.80156,556.8607 C -433.67344,556.20124 -428.81065,557.53451 -422.04143,558.52533 C -416.06812,559.39979 -413.45383,558.82357 -407.38558,559.03418 C -401.99503,559.22134 -395.26457,554.81697 -390.85052,550.69918 C -386.27324,546.42906 -382.56523,546.77687 -378.57553,544.31261 C -374.44257,541.75993 -368.97747,542.54962 -363.84692,542.72769"
               style="fill:#ffff00;fill-opacity:1;fill-rule:evenodd;stroke:#000000;stroke-width:5.23740339;stroke-linecap:butt;stroke-linejoin:miter;stroke-miterlimit:4;stroke-dasharray:none;stroke-opacity:1" />
            <path
               id="path9322"
               d="M -387.49467,495.9106 L -526.30197,470.8413 L -387.65365,449.34296"
               style="fill:#ffff00;fill-opacity:1;fill-rule:evenodd;stroke:#000000;stroke-width:5.39638329;stroke-linecap:butt;stroke-linejoin:miter;stroke-miterlimit:4;stroke-dasharray:none;stroke-opacity:1" />
            <path
               id="path9324"
               d="M -137.58078,448.48304 C -134.28261,445.84807 -135.08424,439.18498 -132.17123,434.93332 C -129.04699,430.37318 -124.47868,427.43317 -120.50385,423.55794 C -115.12125,418.31002 -110.47483,419.49469 -104.73986,419.56751 C -99.72573,419.63095 -97.189923,418.61544 -90.063058,418.70587 C -84.439152,418.77715 -78.067422,415.28609 -73.728886,411.05616 C -69.486159,406.91962 -65.243519,402.78307 -61.000792,398.64662 C -57.312013,395.05012 -53.017416,391.8975 -48.81636,387.80162 C -42.845788,381.98045 -39.1326,381.41438 -33.516367,379.09125 C -27.220448,376.48691 -21.914731,379.05518 -16.201072,376.69177 C -11.908896,374.91624 -26.426552,370.80103 -28.159861,369.73099 C -31.878034,367.43552 -39.366319,365.39868 -41.722909,365.36892 C -47.212225,365.29926 -49.911318,362.65626 -56.930116,366.74745 C -62.886164,370.21918 -65.569947,371.03326 -71.196064,376.51858 C -76.348465,381.54202 -80.81275,384.49045 -86.496153,385.22904 C -92.608252,386.02323 -97.499271,384.7975 -104.28865,383.95596 C -110.27976,383.21335 -112.88071,383.84707 -118.95216,383.77014 C -124.34552,383.70172 -130.97734,388.25325 -135.2996,392.4673 C -139.78171,396.83722 -143.4965,396.57112 -147.43094,399.12275 C -149.58283,400.51831 -152.1265,400.99042 -154.80391,401.11567 C -157.19754,401.22772 -163.58848,401.56988 -166.68807,401.20083"
               style="fill:#ffff00;fill-opacity:1;fill-rule:evenodd;stroke:#000000;stroke-width:5.23740339;stroke-linecap:butt;stroke-linejoin:miter;stroke-miterlimit:4;stroke-dasharray:none;stroke-opacity:1" />
            <path
               id="path9326"
               d="M -367.55472,400.47659 C -371.73117,399.86172 -376.05741,404.99233 -381.15352,405.76174 C -386.61931,406.58702 -391.88507,405.25116 -397.4301,404.98726 C -404.9391,404.62998 -407.24166,400.42396 -411.09986,396.18016 C -414.47315,392.46989 -416.94526,391.30799 -421.73983,386.03423 C -425.5234,381.87271 -432.42217,379.59388 -438.47461,379.30587 C -444.39347,379.02418 -450.31224,378.74267 -456.23091,378.46098 C -461.37703,378.21622 -466.61165,377.22559 -472.47234,376.94677 C -480.8016,376.55044 -483.74802,374.2209 -489.27744,371.69808 C -495.47609,368.86993 -497.2164,363.23802 -502.84171,360.67137 C -507.06753,358.74333 -500.17574,372.16722 -499.77616,374.16464 C -498.91902,378.4494 -495.30137,385.31497 -493.71597,387.05873 C -490.02302,391.12064 -490.11516,394.89722 -482.33609,397.23996 C -475.7349,399.228 -473.3092,400.63552 -465.46047,401.00898 C -458.27263,401.35096 -453.0716,402.60491 -448.65527,406.25767 C -443.90577,410.18591 -441.46638,414.59889 -437.45136,420.13807 C -433.90834,425.02603 -431.67104,426.49604 -427.58636,430.98872 C -423.958,434.97963 -416.1063,436.7255 -410.07658,437.01236 C -403.8238,437.30994 -401.48482,440.20813 -396.93537,441.34525 C -392.22264,442.52322 -388.97372,446.98816 -385.52027,450.78665"
               style="fill:#ffff00;fill-opacity:1;fill-rule:evenodd;stroke:#000000;stroke-width:5.23740339;stroke-linecap:butt;stroke-linejoin:miter;stroke-miterlimit:4;stroke-dasharray:none;stroke-opacity:1" />
            <path
               id="path9352"
               d="M -367.55938,400.35756 L -445.43557,282.7513 L -334.03002,368.04101"
               style="fill:#ffff00;fill-opacity:1;fill-rule:evenodd;stroke:#000000;stroke-width:5.39638329;stroke-linecap:butt;stroke-linejoin:miter;stroke-miterlimit:4;stroke-dasharray:none;stroke-opacity:1" />
            <path
               id="path9354"
               d="M -193.72407,368.60249 L -76.627271,289.96229 L -153.50955,391.75216 L -161.18996,401.92076"
               style="fill:#ffff00;fill-opacity:1;fill-rule:evenodd;stroke:#000000;stroke-width:5.39638329;stroke-linecap:butt;stroke-linejoin:miter;stroke-miterlimit:4;stroke-dasharray:none;stroke-opacity:1" />
            <path
               id="path9356"
               d="M -286.77892,346.46822 C -289.33459,343.10825 -296.01493,343.75087 -300.196,340.73748 C -304.68042,337.50544 -307.51071,332.86837 -311.29018,328.80234 C -316.40837,323.29626 -315.1133,318.67938 -314.90397,312.94777 C -314.72106,307.93657 -315.67581,305.37729 -315.41566,298.25462 C -315.21044,292.634 -318.54874,286.18093 -322.67409,281.74288 C -326.70836,277.40282 -330.74266,273.06284 -334.77686,268.72268 C -338.28451,264.94936 -341.33395,260.58087 -345.32857,256.28338 C -351.00586,250.17583 -351.48328,246.45025 -353.672,240.78026 C -356.12563,234.42402 -353.43167,229.18108 -355.6583,223.41272 C -357.33105,219.07945 -361.79094,233.49492 -362.90198,235.20232 C -365.28533,238.86475 -367.49998,246.30232 -367.58594,248.6575 C -367.78627,254.14368 -370.4929,256.77903 -366.57001,263.89328 C -363.24114,269.93032 -362.49128,272.63274 -357.14158,278.38799 C -352.2423,283.65859 -349.40102,288.19184 -348.79808,293.8912 C -348.14967,300.02048 -349.49157,304.88097 -350.49459,311.64837 C -351.37977,317.62005 -350.8082,320.2354 -351.02973,326.30325 C -351.22658,331.69345 -346.83437,338.43186 -342.72448,342.85326 C -338.46256,347.43818 -338.81704,351.14558 -336.35993,355.13974 C -333.81464,359.27725 -334.61416,364.74094 -334.80144,369.87117"
               style="fill:#ffff00;fill-opacity:1;fill-rule:evenodd;stroke:#000000;stroke-width:5.23740339;stroke-linecap:butt;stroke-linejoin:miter;stroke-miterlimit:4;stroke-dasharray:none;stroke-opacity:1" />
            <path
               id="path9358"
               d="M -191.90124,367.92446 C -191.45645,363.72649 -196.75859,359.61224 -197.7343,354.55157 C -198.78087,349.12376 -197.66,343.80809 -197.62154,338.25694 C -197.56954,330.73967 -193.46045,328.26813 -189.37689,324.24076 C -185.80667,320.71957 -184.74607,318.20229 -179.67143,313.1975 C -175.66697,309.24812 -173.67021,302.26247 -173.62825,296.20323 C -173.58723,290.27796 -173.5463,284.35259 -173.50523,278.42731 C -173.46963,273.27546 -172.69247,268.00495 -172.65183,262.13785 C -172.59416,253.79931 -170.38624,250.76065 -168.09002,245.13334 C -165.51593,238.82504 -159.95939,236.85738 -157.62332,231.13247 C -155.86846,226.83182 -169.00136,234.26318 -170.9809,234.74351 C -175.22731,235.77404 -181.9403,239.66745 -183.61826,241.32241 C -187.52687,245.17726 -191.30407,245.23859 -193.32892,253.10636 C -195.04724,259.78286 -196.3551,262.26368 -196.40947,270.12111 C -196.45926,277.31689 -197.50093,282.56462 -200.97129,287.12572 C -204.70343,292.03071 -209.01365,294.6473 -214.38523,298.88403 C -219.1253,302.62262 -220.50317,304.91781 -224.82626,309.18152 C -228.66658,312.96901 -230.09206,320.8851 -230.13385,326.92156 C -230.17717,333.18125 -232.97798,335.63605 -233.92942,340.22786 C -234.91506,344.98454 -239.24435,348.41215 -242.8994,352.01707"
               style="fill:#ffff00;fill-opacity:1;fill-rule:evenodd;stroke:#000000;stroke-width:5.23740339;stroke-linecap:butt;stroke-linejoin:miter;stroke-miterlimit:4;stroke-dasharray:none;stroke-opacity:1" />
            <path
               id="path9360"
               d="M -288.04272,347.98023 L -262.92911,209.18096 L -241.47498,347.83613"
               style="fill:#ffff00;fill-opacity:1;fill-rule:evenodd;stroke:#000000;stroke-width:5.39638329;stroke-linecap:butt;stroke-linejoin:miter;stroke-miterlimit:4;stroke-dasharray:none;stroke-opacity:1" />
          </g>
        </g>
        <g
           id="g1722">
          <rect
             style="fill:#ffff00;fill-opacity:1;stroke:none;stroke-width:5;stroke-linecap:round;stroke-miterlimit:4;stroke-dasharray:none;stroke-opacity:1"
             id="rect2452"
             width="21.405838"
             height="15.316248"
             x="387.49802"
             y="945.20172"
             rx="0.35951099"
             ry="0.35951099"
             transform="matrix(0.609581,-0.792724,0.792724,0.609581,0,0)" />
          <rect
             style="fill:#ffff00;fill-opacity:1;stroke:none;stroke-width:5;stroke-linecap:round;stroke-miterlimit:4;stroke-dasharray:none;stroke-opacity:1"
             id="rect2454"
             width="21.405796"
             height="15.316217"
             x="735.33936"
             y="738.11847"
             rx="0.35951033"
             ry="0.35951033"
             transform="matrix(0.846844,-0.531841,0.531841,0.846844,0,0)" />
          <rect
             style="fill:#ffff00;fill-opacity:1;stroke:none;stroke-width:5;stroke-linecap:round;stroke-miterlimit:4;stroke-dasharray:none;stroke-opacity:1"
             id="rect2456"
             width="21.405802"
             height="15.316218"
             x="995.89362"
             y="422.38446"
             rx="0.35951033"
             ry="0.35951033"
             transform="matrix(0.978879,-0.204439,0.204439,0.978879,0,0)" />
          <rect
             style="fill:#ffff00;fill-opacity:1;stroke:none;stroke-width:5;stroke-linecap:round;stroke-miterlimit:4;stroke-dasharray:none;stroke-opacity:1"
             id="rect2462"
             width="21.405785"
             height="15.316208"
             x="1124.3901"
             y="-85.005409"
             rx="0.35951003"
             ry="0.35951003"
             transform="matrix(0.966449,0.256858,-0.256858,0.966449,0,0)" />
          <rect
             style="fill:#ffff00;fill-opacity:1;stroke:none;stroke-width:5;stroke-linecap:round;stroke-miterlimit:4;stroke-dasharray:none;stroke-opacity:1"
             id="rect2464"
             width="21.405802"
             height="15.31622"
             x="1053.874"
             y="-531.26196"
             rx="0.35951027"
             ry="0.35951027"
             transform="matrix(0.792106,0.610384,-0.610384,0.792106,0,0)" />
          <rect
             style="fill:#ffff00;fill-opacity:1;stroke:none;stroke-width:5;stroke-linecap:round;stroke-miterlimit:4;stroke-dasharray:none;stroke-opacity:1"
             id="rect2466"
             width="21.405827"
             height="15.316238"
             x="746.89447"
             y="-967.82343"
             rx="0.35951081"
             ry="0.35951081"
             transform="matrix(0.434023,0.900902,-0.900902,0.434023,0,0)" />
          <rect
             style="fill:#ffff00;fill-opacity:1;stroke:none;stroke-width:5;stroke-linecap:round;stroke-miterlimit:4;stroke-dasharray:none;stroke-opacity:1"
             id="rect2468"
             width="27.323669"
             height="15.423295"
             x="523.2442"
             y="-1180.6956"
             rx="0.35891443"
             ry="0.35797629"
             transform="matrix(0.115695,0.993285,-0.982168,0.188003,0,0)" />
          <rect
             style="fill:#ffff00;fill-opacity:1;stroke:none;stroke-width:5;stroke-linecap:round;stroke-miterlimit:4;stroke-dasharray:none;stroke-opacity:1"
             id="rect2474"
             width="27.323664"
             height="15.423292"
             x="321.66043"
             y="-1251.498"
             rx="0.35891441"
             ry="0.35797626"
             transform="matrix(-8.855596e-2,0.996071,-0.99988,-1.549753e-2,0,0)" />
          <rect
             style="fill:#ffff00;fill-opacity:1;stroke:none;stroke-width:5;stroke-linecap:round;stroke-miterlimit:4;stroke-dasharray:none;stroke-opacity:1"
             id="rect2476"
             width="27.323687"
             height="15.4233"
             x="-196.87283"
             y="-1241.6003"
             rx="0.35891467"
             ry="0.35797641"
             transform="matrix(-0.515437,0.856928,-0.892318,-0.451408,0,0)" />
          <rect
             style="fill:#ffff00;fill-opacity:1;stroke:none;stroke-width:5;stroke-linecap:round;stroke-miterlimit:4;stroke-dasharray:none;stroke-opacity:1"
             id="rect2478"
             width="27.323647"
             height="15.423291"
             x="-721.5451"
             y="-978.59845"
             rx="0.35891423"
             ry="0.35797623"
             transform="matrix(-0.857532,0.51443,-0.575747,-0.817628,0,0)" />
          <rect
             style="fill:#ffff00;fill-opacity:1;stroke:none;stroke-width:5;stroke-linecap:round;stroke-miterlimit:4;stroke-dasharray:none;stroke-opacity:1"
             id="rect2480"
             width="27.32369"
             height="15.423316"
             x="-922.92413"
             y="-740.13745"
             rx="0.3589147"
             ry="0.35797673"
             transform="matrix(-0.964803,0.262974,-0.332805,-0.942996,0,0)" />
          <rect
             style="fill:#ffff00;fill-opacity:1;stroke:none;stroke-width:5;stroke-linecap:round;stroke-miterlimit:4;stroke-dasharray:none;stroke-opacity:1"
             id="rect2482"
             width="27.323721"
             height="15.423309"
             x="-1151.7927"
             y="-200.41354"
             rx="0.35891515"
             ry="0.35797662"
             transform="matrix(-0.973242,-0.229784,0.158018,-0.987436,0,0)" />
          <rect
             style="fill:#ffff00;fill-opacity:1;stroke:none;stroke-width:5;stroke-linecap:round;stroke-miterlimit:4;stroke-dasharray:none;stroke-opacity:1"
             id="rect2484"
             width="27.323679"
             height="15.423322"
             x="-1115.4272"
             y="274.44781"
             rx="0.35891458"
             ry="0.35797688"
             transform="matrix(-0.792707,-0.609602,0.550018,-0.835153,0,0)" />
          <rect
             style="fill:#ffff00;fill-opacity:1;stroke:none;stroke-width:5;stroke-linecap:round;stroke-miterlimit:4;stroke-dasharray:none;stroke-opacity:1"
             id="rect2486"
             width="27.323696"
             height="15.423308"
             x="-886.90619"
             y="687.75409"
             rx="0.35891476"
             ry="0.35797659"
             transform="matrix(-0.47122,-0.882016,0.845205,-0.534442,0,0)" />
          <rect
             style="fill:#ffff00;fill-opacity:1;stroke:none;stroke-width:5;stroke-linecap:round;stroke-miterlimit:4;stroke-dasharray:none;stroke-opacity:1"
             id="rect2488"
             width="27.323702"
             height="15.423328"
             x="645.77606"
             y="-864.07373"
             rx="0.35891485"
             ry="0.35797712"
             transform="matrix(0.258794,0.965933,-0.944428,0.328719,0,0)" />
          <rect
             style="fill:#ffff00;fill-opacity:1;stroke:none;stroke-width:5;stroke-linecap:round;stroke-miterlimit:4;stroke-dasharray:none;stroke-opacity:1"
             id="rect2490"
             width="27.323721"
             height="15.423328"
             x="115.06607"
             y="-1037.4052"
             rx="0.35891515"
             ry="0.35797706"
             transform="matrix(-0.256276,0.966604,-0.982753,-0.184924,0,0)" />
        </g>
      </g>
      <rect
         style="fill:#ffff00;fill-opacity:1;stroke:none;stroke-width:5;stroke-linecap:round;stroke-miterlimit:4;stroke-dasharray:none;stroke-opacity:1"
         id="rect1778"
         width="25.802752"
         height="32.339447"
         x="1248.5092"
         y="311.69727"
         rx="0.35891485"
         ry="0.35797656" />
    </g>
    <path
       transform="matrix(1.061177,0,0,0.984466,867.7982,-44.60697)"
       d="M -359.21023 437.4588 A 108.89445 117.37972 0 1 1  -576.99912,437.4588 A 108.89445 117.37972 0 1 1  -359.21023 437.4588 z"
       id="path4916"
       style="fill:#ffffff;fill-opacity:1;stroke:#000000;stroke-width:4.89187908;stroke-linecap:round;stroke-miterlimit:4;stroke-dasharray:none;stroke-opacity:1" />
  </g>
</svg>