<svg
   xmlns="http://www.w3.org/2000/svg"
   id="svg"
   version="1.1"
   viewBox="0 0 640 799.99999"><title>Herb Knurów</title>
  <metadata
     id="metadata13">
    <rdf:RDF>
      <cc:Work
         rdf:about="">
        <dc:format>image/svg+xml</dc:format>
        <dc:type
           rdf:resource="http://purl.org/dc/dcmitype/StillImage" />
        <dc:title />
      </cc:Work>
    </rdf:RDF>
  </metadata>
  <defs
     id="defs11">
    <pattern
       id="EMFhbasepattern"
       patternUnits="userSpaceOnUse"
       width="6"
       height="6"
       x="0"
       y="0" />
  </defs>
  <sodipodi:namedview
     pagecolor="#ffffff"
     bordercolor="#666666"
     borderopacity="1"
     objecttolerance="10"
     gridtolerance="10"
     guidetolerance="10"
     id="namedview9"
     showgrid="false" />
  <path
     id="path1-48"
     d="m 320.92804,386.84475 c 0,0 0.14652,92.89623 0.0895,205.13263 l -0.10419,204.06587 -6.6651,-0.0959 C 162.20967,793.74677 28.202936,673.33851 7.4490128,520.27852 5.0346701,502.47368 5.0835162,503.95266 4.9174577,443.06187 L 4.7644194,386.90223 H 162.75184 c 126.01641,0 158.1762,-0.0573 158.1762,-0.0573"
     stroke="none"
     fill="#047cc3"
     fill-rule="evenodd"
     style="fill:#ffffff;fill-opacity:1;stroke-width:1.62664" />
  <path
     id="path1-4"
     d="m 320.8988,387.68734 c -0.10512,0.27773 -0.14555,92.27138 -0.0889,204.43052 l 0.1035,203.92539 6.6212,-0.0958 c 151.0376,-2.1991 284.16202,-122.52448 304.7793,-275.47908 2.39845,-17.7926 2.34992,-16.31462 2.51489,-77.16352 l 0.15203,-56.12097 H 478.0336 c -125.18674,0 -156.98438,0.10232 -157.1348,0.50348"
     stroke="none"
     fill="#047cc3"
     fill-rule="evenodd"
     style="fill:#facf00;fill-opacity:1;fill-rule:nonzero;stroke-width:1.62072" />
  <rect
     style="fill:#ffffff;fill-opacity:1;fill-rule:evenodd;stroke-width:3.04204;stroke-linejoin:round"
     id="rect851"
     width="633.5155"
     height="383.20636"
     x="3.7336545"
     y="2.7794499" />
  <g
     id="svgg"
     transform="matrix(1.6004801,0,0,1.6072665,-0.19205761,0)">
    <path
       id="path3"
       d="m 194.36192,15.710154 c -0.012,1.118 1.21963,40.126156 1.27363,40.213156 0.047,0.074 55.16336,16.770906 55.69036,16.868906 0.235,0.044 4.13592,-6.910892 11.68192,-17.413892 L 275.11931,38.2684 c -6.59701,-3.269391 -10.65905,3.433027 -10.65873,3.434138 0,0 -5.21946,-2.20415 -6.67546,-2.03115 -6.006,0.711 -7.21672,10.581317 -1.33272,12.536317 2.057,0.683 2.38509,0.688691 0.89809,2.301691 -6.414,6.958 -20.12277,0.961604 -23.62077,-10.092396 -1.727,-5.459 -0.87427,-6.458086 2.19173,-3.655086 3.404,3.111 8.85246,2.236349 10.68246,-1.693651 1.519,-3.262 -0.22967,-8.302317 -3.75567,-10.109317 -1.691,-0.865 -1.54364,-0.900946 -1.10564,-1.967946 1.395,-3.396 0.8495,-5.788185 -1.2415,-7.669185 -3.832,-3.445 -10.92206,-1.796985 -11.93406,2.922015 -0.464,2.16 -0.26138,1.503353 -2.49738,1.308353 -3.37716,-0.373988 -8.02754,1.806461 -8.34421,5.839942 -0.43308,5.516329 3.20385,9.424922 8.69985,7.848922 0.964,-0.277 1.93813,-0.0062 2.14813,0.797846 0.554,2.119 -5.38237,5.470697 -10.28437,6.765697 -7.723,2.038 -15.13485,-0.149791 -17.78385,-5.623791 -1.252,-2.586 -1.63712,-3.537683 0.0579,-3.127683 4.32863,1.30296 9.93768,-2.670108 9.86572,-6.833879 -0.0627,-3.629702 -3.96557,-6.256745 -8.95102,-6.000484 -1.52197,0.07823 -1.32097,-0.641584 -1.32097,-2.804584 0,-2.912 -2.13969,-5.125985 -4.64669,-5.839985 -0.805,-0.229 -1.13821,0.22497 -1.14821,1.13597 m -46.04218,42.280839 c -6.88236,1.548558 -11.39975,10.038512 -11.53214,16.707527 -0.11119,5.600478 5.16884,11.740222 9.9178,16.038207 -0.41278,-3.368813 6.27484,-11.236976 12.15143,-10.883712 2.867,0.323 15.58577,7.578771 20.09877,11.665771 2.097,1.899 19.393,20.394724 20.997,22.432724 3.355,4.261 3.61224,6.97381 -0.38576,7.62281 -2.293,0.372 -0.70493,1.16106 -12.32793,-11.75094 -5.413,-6.013 -11.22569,-11.965442 -12.31869,-12.989442 -2.28586,-2.8341 -14.69638,-6.662849 -16.42352,-5.87434 -1.326,0.632 -2.78306,2.695188 3.76494,5.873188 7.959,3.863004 7.50555,2.635107 21.15955,20.167104 5.892,7.565 13.05475,15.31068 13.51875,15.77868 5.731,5.789 14.65155,-5.17885 12.74655,-15.23185 -0.628,-3.312 -0.78345,-5.10578 -9.93945,-19.845782 -11.635,-18.731 -11.42562,-15.994045 -10.27862,-24.037045 0.997,-6.996 0.63866,-9.235955 -1.23634,-11.312955 -3.006,-3.326 -8.87506,-3.191139 -12.59306,0.267861 -1.997,1.858 0.24572,1.787554 -7.75228,-1.297446 -9.662,-3.726 -15.396,-4.26936 -19.567,-3.33036"
       stroke="none"
       fill="#fac704"
       fill-rule="evenodd"
       style="fill:#facf00;fill-opacity:1" />
    <path
       id="path1"
       d="m 201.356,241.4036 c 0,0 -0.09,57.15735 -0.055,126.21435 l 0.064,125.558 4.094,-0.059 c 93.389,-1.354 175.702,-75.439 188.45,-169.614 1.483,-10.955 1.453,-10.045 1.555,-47.51 l 0.094,-34.554 h -97.043 c -77.405,0 -97.159,-0.0353 -97.159,-0.0353 M 282.81,255.645 c 2.007,2.589 11.289,24.504 10.378,24.504 -0.053,0 -0.276,0.069 -0.497,0.154 -0.289,0.111 -1.371,-0.842 -3.873,-3.412 l -3.472,-3.566 0.139,3.226 c 0.076,1.774 0.471,14.504 0.878,28.288 0.407,13.784 0.767,25.322 0.799,25.639 0.038,0.374 5.512,-9.763 15.477,-28.66 l 15.417,-29.237 -1.522,-0.758 c -1.933,-0.962 -1.957,-1.45 -0.249,-4.934 l 1.209,-2.466 1.489,-0.398 c 2.381,-0.637 3.021,-1.142 4.024,-3.169 0.759,-1.535 0.985,-1.8 1.534,-1.808 0.459,-0.007 0.829,-0.276 1.282,-0.931 3.586,-5.184 12.633,-1.347 11.477,4.868 l -0.216,1.159 2.736,1.461 c 38.315,20.466 51.8,57.372 37.084,101.488 -2.713,8.132 -7.823,20.039 -8.754,20.397 -1.6,0.614 -1.647,-0.317 -0.303,-5.976 6.272,-26.406 2.765,-50.134 -10.286,-69.603 -6.688,-9.978 -17.88,-20.335 -27.228,-25.196 -2.4,-1.248 -2.478,-1.36 -1.963,-2.798 0.43,-1.2 0.556,-2.91 0.228,-3.105 -0.237,-0.141 -34.682,65.242 -34.664,65.799 0.007,0.227 10.278,16.157 22.825,35.4 15.33,23.511 22.964,35.434 23.275,36.351 2.205,6.49 -6.226,11.688 -11.181,6.894 -0.439,-0.425 -10.14,-15.103 -21.558,-32.618 -11.417,-17.514 -20.831,-31.844 -20.921,-31.844 -0.089,0 -13.494,25.295 -29.789,56.211 -18.54,35.178 -29.924,56.517 -30.422,57.03 -4.041,4.161 -11.027,1.203 -11.027,-4.669 0,-1.691 -2.464,3.105 31.975,-62.226 16.671,-31.625 30.491,-57.878 30.711,-58.341 0.397,-0.831 0.392,-0.853 -0.494,-2.177 l -0.894,-1.337 -28.85,-13.808 c -15.867,-7.595 -28.879,-13.781 -28.915,-13.748 -0.036,0.034 0.687,1.925 1.606,4.203 1.782,4.416 1.833,4.907 0.526,5.065 -0.974,0.118 -18.029,-19.472 -17.7,-20.33 0.1,-0.261 61.803,-40.666 76.008,-49.772 2.409,-1.544 3.252,-1.829 3.701,-1.25 m -16.867,20.432 c -1.194,0.761 -2.171,1.464 -2.171,1.561 0,0.098 1.507,3.887 3.35,8.421 3.727,9.173 3.514,8.504 2.896,9.064 -0.8,0.724 -1.055,0.517 -7.503,-6.091 l -6.345,-6.502 -1.1,0.652 c -2.202,1.304 -2.163,1.237 -1.315,2.332 0.41,0.529 5.595,8.413 11.522,17.518 10.067,15.464 10.782,16.496 10.839,15.633 0.034,-0.508 -0.196,-9.107 -0.511,-19.11 l -0.571,-18.187 -3.333,-3.339 c -1.832,-1.837 -3.389,-3.339 -3.459,-3.338 -0.07,0 -1.105,0.624 -2.299,1.386 m -25.138,16.396 c -0.538,0.357 -1.066,0.726 -1.174,0.821 -0.107,0.095 1.317,3.864 3.164,8.376 3.488,8.518 3.551,8.708 3.061,9.198 -0.756,0.757 -1.375,0.268 -7.628,-6.029 -3.456,-3.48 -6.376,-6.328 -6.49,-6.328 -0.493,0 -4.474,2.786 -4.366,3.055 0.065,0.162 1.035,2.591 2.157,5.398 l 2.039,5.103 16.66,7.964 c 9.163,4.38 16.696,7.929 16.739,7.887 0.043,-0.043 -4.863,-7.653 -10.904,-16.913 -6.04,-9.26 -11.274,-17.364 -11.631,-18.008 l -0.649,-1.172 -0.978,0.648 m 104.104,50.207 c 1.995,6.129 2.59,7.692 2.929,7.691 0.234,0 3.974,-0.763 8.311,-1.696 4.337,-0.933 7.854,-1.616 7.816,-1.518 -0.038,0.098 -2.512,2.732 -5.497,5.853 -2.986,3.121 -5.482,5.814 -5.547,5.983 -0.066,0.17 2.415,2.942 5.513,6.16 3.098,3.218 5.594,5.889 5.547,5.936 -0.047,0.047 -3.658,-0.684 -8.026,-1.624 -4.367,-0.941 -8.069,-1.713 -8.227,-1.717 -0.159,-0.003 -1.425,3.46 -2.832,7.748 l -2.544,7.755 -2.509,-7.674 c -1.38,-4.22 -2.625,-7.712 -2.766,-7.759 -0.195,-0.065 -12.312,2.429 -15.958,3.286 -0.622,0.146 0.076,-0.638 7.51,-8.436 l 3.442,-3.611 -4.931,-5.119 c -5.89,-6.113 -6.707,-7.034 -6.11,-6.885 0.239,0.059 3.982,0.868 8.319,1.797 l 7.886,1.69 2.536,-7.776 c 1.395,-4.276 2.559,-7.775 2.586,-7.776 0.027,0 1.176,3.461 2.552,7.692 m -105.674,8.133 c 0.263,0.052 12.794,-2.523 15.942,-3.276 0.593,-0.142 0.667,-0.225 -5.891,6.613 l -5.18,5.402 4.684,4.864 c 5.898,6.126 7.035,7.405 6.406,7.21 -1.164,-0.36 -15.832,-3.399 -16.052,-3.326 -0.135,0.045 -1.381,3.539 -2.769,7.763 l -2.523,7.682 -2.543,-7.753 c -1.484,-4.525 -2.668,-7.753 -2.844,-7.753 -0.166,0 -3.874,0.77 -8.242,1.711 -4.367,0.941 -7.976,1.677 -8.02,1.635 -0.045,-0.041 2.504,-2.763 5.663,-6.05 l 5.744,-5.974 -5.726,-5.944 c -5.939,-6.166 -6.006,-6.243 -5.291,-6.073 1.963,0.467 15.573,3.324 15.832,3.324 0.217,0 1.223,-2.696 2.888,-7.738 l 2.554,-7.738 2.508,7.676 c 1.599,4.892 2.636,7.701 2.86,7.745 m 53.321,61.217 v 5.579 l 5.893,0.066 5.893,0.067 0.068,5.025 0.067,5.025 h -5.961 -5.96 v 14.516 14.516 h -5.459 -5.459 v -14.516 -14.516 h -5.832 -5.831 v -5.087 -5.087 h 5.831 5.832 v -5.583 -5.583 h 5.459 5.459 v 5.578"
       stroke="none"
       fill="#047cc3"
       fill-rule="evenodd"
       style="fill:#007cc3;fill-opacity:1" />
    <path
       id="path4"
       d="m 318.774,51.244 c -27.976,4.528 -47.243,33.982 -36.747,56.175 3.854,8.148 11.878,15.293 22.22,19.787 l 2.699,1.173 0.508,1.356 c 5.689,15.205 5.818,30.356 0.352,41.248 -7.088,14.123 -25.503,23.915 -48.315,25.69 -1.194,0.093 -2.171,0.212 -2.171,0.264 0,0.053 0.489,1.07 1.086,2.262 2.842,5.671 5.107,12.826 6.079,19.203 l 0.403,2.644 0.931,-0.32 c 2.968,-1.021 4.537,-4.106 3.894,-7.653 -0.507,-2.795 1.217,-3.199 2.532,-0.594 5.652,11.198 21.518,4.914 16.736,-6.628 -1.256,-3.031 -0.029,-3.549 2.542,-1.072 10.844,10.447 25.545,-2.542 15.51,-13.703 -1.989,-2.212 -0.947,-3.452 1.588,-1.892 5.139,3.162 11.57,2.571 15.565,-1.429 4.597,-4.603 3.464,-10.951 -2.784,-15.588 -2.504,-1.859 -1.72,-2.6 2.286,-2.161 6.299,0.691 11.077,-1.027 13.698,-4.926 5.337,-7.941 1.061,-19.063 -8.575,-22.3 -2.376,-0.798 -2.907,-1.22 -2.631,-2.09 0.206,-0.65 1.009,-0.823 2.364,-0.511 3.027,0.698 7.243,0.227 10.095,-1.126 11.288,-5.357 8.644,-22.181 -4.109,-26.148 -3.352,-1.042 -3.301,-2.731 0.083,-2.731 7.615,0 13.727,-3.188 16.253,-8.477 6.623,-13.872 -7.67,-29.954 -22.563,-25.385 -2.481,0.761 -3.088,0.635 -2.943,-0.608 0.225,-1.932 8.544,-3.144 13.102,-1.908 9.547,2.59 16.187,11.099 16.238,20.81 0.013,2.288 0.075,2.69 0.437,2.804 3.658,1.161 9.098,7.426 12.484,14.377 8.67,17.797 10.058,42.426 3.46,61.414 -1.025,2.95 -1.193,3.226 -1.974,3.226 -0.832,0 -0.998,-0.37 -1.452,-3.226 -0.532,-3.343 -1.638,-7.679 -3.039,-11.911 -0.928,-2.803 -2.117,-5.84 -1.731,-4.42 0.741,2.719 0.759,14.996 0.037,24.271 -0.827,10.629 -0.944,13.182 -0.813,17.725 0.15,5.222 0.507,7.362 1.712,10.265 0.775,1.868 0.635,2.78 -0.428,2.78 -0.394,0 -3.791,-2.215 -5.757,-3.754 -0.85,-0.665 -1.587,-1.209 -1.637,-1.209 -0.841,0 -0.634,28.814 0.227,31.576 0.126,0.405 0.911,0.434 11.865,0.434 h 11.73 l -0.932,-2.792 c -5.021,-15.03 -5.4,-30.055 -1.721,-68.3 1.38,-14.344 1.683,-17.839 2.11,-24.318 1.462,-22.162 0.089,-38.488 -4.356,-51.783 -8.946,-26.764 -33.164,-44.241 -56.148,-40.521 m -247.31,0.378 c -21.9,2.686 -40.789,21.551 -47.003,46.944 -4.177,17.068 -4.183,31.443 -0.031,74.511 3.297,34.199 2.559,51.613 -2.777,65.573 -0.096,0.249 2.263,0.3 11.632,0.248 l 11.752,-0.064 0.313,-2.109 c 0.407,-2.754 0.486,-10.492 0.21,-20.904 l -0.221,-8.372 -1.143,0.868 c -6.318,4.795 -8.438,5.28 -6.894,1.578 2.078,-4.982 2.341,-10.85 1.145,-25.528 -0.651,-7.983 -0.9,-19.647 -0.506,-23.668 0.158,-1.622 0.239,-2.999 0.178,-3.06 -0.439,-0.438 -4.087,12.541 -4.714,16.77 -0.34,2.291 -0.578,2.75 -1.427,2.758 -1.476,0.014 -4.581,-11.008 -5.522,-19.599 -2.732,-24.953 5.844,-52.001 18.721,-59.043 l 1.334,-0.729 -0.072,-1.938 C 46.071,85.826 53.303,76.65 63.43,74.302 c 5.467,-1.268 13.978,0.666 12.225,2.779 -0.363,0.436 -0.941,0.375 -3.571,-0.377 -12.491,-3.573 -25.72,8.84 -23.109,21.683 1.534,7.543 6.755,11.497 16.286,12.334 3.379,0.297 3.784,0.453 3.672,1.417 -0.066,0.571 -0.32,0.723 -2.318,1.386 -2.84,0.942 -4.697,2.068 -6.641,4.027 -10.282,10.355 -2.212,25.83 12.154,23.308 3.691,-0.648 4.321,1.283 0.759,2.33 -13.258,3.896 -15.601,22.459 -3.38,26.782 1.97,0.697 6.87,0.969 9.199,0.511 2.605,-0.512 3.326,1.012 1.097,2.318 -4.615,2.705 -6.927,9.069 -4.741,13.045 3.239,5.892 11.556,7.791 17.478,3.992 2.222,-1.426 3.825,-0.125 1.848,1.499 -2.901,2.38 -4.164,8.598 -2.49,12.252 3.159,6.892 11.271,7.835 17.478,2.03 2.181,-2.04 2.569,-2.204 3.142,-1.33 0.338,0.516 0.316,0.703 -0.249,2.103 -4.352,10.774 9.67,18.029 15.771,8.159 0.477,-0.772 1.095,-1.766 1.373,-2.208 1.159,-1.844 2.406,-0.878 2.005,1.552 -0.656,3.966 1.522,7.152 5.353,7.83 1.06,0.187 0.889,0.745 1.559,-5.077 0.688,-5.982 2.461,-12.105 4.855,-16.764 l 1.191,-2.318 -1.779,-0.163 c -43.053,-3.944 -61.754,-28.172 -49.707,-64.4 1.452,-4.368 0.803,-3.682 5.621,-5.938 19.652,-9.203 27.784,-25.994 21.431,-44.247 C 113.128,63.242 91.292,49.191 71.464,51.622 m 123.862,7.231 c -1.325,0.649 -2.131,1.829 -2.657,3.888 -0.816,3.196 1.13,4.897 7.197,6.294 2.658,0.612 5.487,1.736 13.161,5.227 9.452,4.301 13.699,5.81 19.041,6.77 2.579,0.463 3.061,0.753 2.824,1.698 -0.229,0.91 -0.89,0.977 -3.998,0.401 -1.575,-0.292 -2.761,-0.407 -2.806,-0.273 -0.617,1.85 -4.109,5.329 -6.418,6.395 -11.03,5.089 -23.771,-5.055 -21.287,-16.948 l 0.161,-0.771 -1.45,-0.167 c -1.903,-0.219 -4.454,-1.129 -5.842,-2.084 l -1.112,-0.765 -0.692,5.054 c -0.997,7.293 -1.888,5.076 9.247,23.014 11.293,18.192 11.546,18.757 11.132,24.866 -0.906,13.378 -12.299,19.213 -19.403,9.937 -0.784,-1.023 -1.444,-1.86 -1.465,-1.86 -0.022,0 0.062,0.977 0.186,2.171 1.836,17.626 -13.3,39.827 -39.348,57.714 -1.808,1.242 -2.798,2.067 -2.605,2.169 0.171,0.091 1.596,0.4 3.165,0.687 19.788,3.614 31.352,-1.216 35.256,-14.727 0.943,-3.262 1.417,-3.792 2.819,-3.153 0.565,0.257 0.57,0.303 0.704,6.297 0.294,13.153 2.915,19.589 9.64,23.674 l 1.478,0.898 1.416,-0.83 c 6.839,-4.01 12.189,-15.655 12.215,-26.588 0.005,-2.375 0.611,-3.176 2.115,-2.799 0.635,0.16 0.667,0.245 1.559,4.135 2.771,12.091 16.119,17.547 33.543,13.71 1.569,-0.345 2.895,-0.668 2.946,-0.717 0.051,-0.049 -1.138,-1.406 -2.642,-3.015 C 239.771,174.56 235.554,166 234.696,151.172 l -0.305,-5.279 0.647,-0.647 c 0.89,-0.89 1.662,-0.647 2.779,0.875 1.317,1.794 3.296,3.067 4.988,3.207 1.591,0.132 1.572,0.194 0.643,-2.084 -2.419,-5.937 -2.934,-14.177 -1.812,-29.006 1.172,-15.48 0.874,-20.606 -1.463,-25.237 -1.507,-2.985 0.207,-3.978 2.993,-1.733 5.717,4.606 12.006,5.238 17.405,1.748 l 1.566,-1.012 -0.733,-0.505 c -3.943,-2.717 -9.304,-10.087 -11.41,-15.687 -0.715,-1.899 2.428,-0.781 -26.917,-9.573 -30.014,-8.993 -26.422,-8.037 -27.751,-7.386 m 7.308,13.743 c -0.773,2.015 -0.213,6.049 1.219,8.774 4.396,8.366 16.743,9.379 21.432,1.759 l 0.751,-1.22 -1.769,-0.57 c -1.38,-0.445 -1.793,-0.499 -1.877,-0.246 -1.487,4.461 -8.516,6.154 -12.829,3.09 -3.38,-2.4 -4.108,-7.745 -0.752,-5.523 1.436,0.951 3.718,0.455 4.454,-0.968 l 0.368,-0.711 -4.205,-1.891 c -6.096,-2.743 -6.622,-2.936 -6.792,-2.494 M 353.997,100.3 c -0.673,3.367 -4.898,8.331 -8.805,10.348 l -2.079,1.073 2.248,0.927 c 11.81,4.872 19.998,16.807 23.603,34.407 1.042,5.089 0.992,5.799 -0.409,5.799 -0.725,0 -0.856,-0.326 -1.687,-4.219 -2.896,-13.564 -8.754,-24.036 -16.507,-29.509 -2.566,-1.812 -6.45,-3.772 -5.867,-2.961 2.519,3.502 3.711,7.435 3.62,11.948 l -0.044,2.183 1.633,1.346 c 7.752,6.395 15.269,20.531 19.045,35.818 l 0.819,3.316 0.58,-1.949 c 3.911,-13.153 3.687,-31.647 -0.552,-45.637 -3.379,-11.151 -8.213,-19.247 -13.552,-22.698 -1.843,-1.191 -1.846,-1.191 -2.046,-0.192 m -309.023,0.939 c -13.437,8.974 -20.628,41.57 -14.532,65.876 1.148,4.576 1.109,4.552 1.92,1.187 2.043,-8.483 4.901,-15.512 10.314,-25.374 2.343,-4.268 5.37,-7.93 8.83,-10.684 l 1.526,-1.214 0.144,-3.418 c 0.196,-4.652 1.264,-8.055 3.282,-10.452 0.851,-1.012 0.627,-0.987 -1.668,0.187 -10.261,5.248 -16.994,15.798 -20.578,32.247 -0.714,3.277 -1.054,4.004 -1.872,4.004 -1.238,0 -1.01,-2.934 0.77,-9.887 3.953,-15.439 11.774,-25.911 22.745,-30.459 l 2.239,-0.928 -1.623,-0.802 c -4.185,-2.07 -7.809,-6.012 -8.981,-9.77 -0.554,-1.778 -0.606,-1.788 -2.516,-0.513 m 301.185,34.184 c -1.233,2.39 -3.601,4.681 -6.163,5.963 l -2.035,1.019 1.057,0.729 c 6.096,4.207 9.769,13.367 12.354,30.811 2.231,15.049 3.099,19.099 4.336,20.247 1.376,1.275 -0.338,2.7 -1.819,1.513 -1.359,-1.09 -2.423,-5.12 -3.649,-13.819 -2.656,-18.84 -6.344,-30.655 -10.923,-34.988 l -0.918,-0.868 0.87,1.24 c 3.37,4.806 3.904,11.143 1.407,16.693 -0.676,1.504 -0.687,1.593 -0.324,2.606 0.207,0.577 0.763,3.729 1.236,7.004 2.349,16.275 6.979,25.07 17.216,32.704 2.206,1.645 2.074,1.694 1.597,-0.587 -0.233,-1.113 -0.44,-3.82 -0.523,-6.833 -0.132,-4.801 -0.024,-7.207 0.81,-17.964 1.967,-25.387 -1.252,-37.909 -11.839,-46.056 -1.785,-1.373 -1.667,-1.399 -2.69,0.586 m -294.143,0.3 c -10.592,8.418 -13.637,21.468 -11.319,48.52 0.784,9.155 0.821,18.714 0.085,22.011 -0.27,1.209 -0.368,2.076 -0.223,1.969 12.595,-9.262 16.757,-17.1 19.374,-36.476 0.227,-1.687 0.608,-3.638 0.845,-4.336 l 0.431,-1.269 -0.685,-1.509 c -2.501,-5.518 -2.065,-11.603 1.181,-16.448 1,-1.494 1.032,-1.585 0.326,-0.915 -4.702,4.463 -8.152,15.36 -11.036,34.864 -1.654,11.181 -2.811,14.64 -4.897,14.64 -1.302,0 -1.513,-0.925 -0.48,-2.102 1.101,-1.254 2.241,-6.727 4.135,-19.858 2.471,-17.135 6.099,-26.381 12.077,-30.782 l 1.41,-1.038 -1.409,-0.615 c -2.936,-1.282 -5.598,-3.847 -7.093,-6.833 -0.79,-1.578 -0.488,-1.598 -2.722,0.177 m 283.716,34.311 c -1.578,1.304 -4.998,2.51 -7.988,2.815 l -1.66,0.169 0.714,0.898 c 2.385,2.998 3.367,7.902 2.358,11.776 -0.342,1.314 -0.333,1.652 0.113,4.208 0.267,1.529 0.663,4.064 0.88,5.633 0.217,1.57 0.716,4.529 1.11,6.576 0.393,2.047 0.786,4.281 0.873,4.963 0.758,5.947 6.35,28.541 7.719,31.189 l 0.36,0.697 h 2.847 c 3.287,0 3.078,0.259 2.338,-2.906 -5.943,-25.439 -8.523,-42.655 -8.886,-59.294 l -0.158,-7.237 -0.62,0.513 m -271.045,7.24 c -0.35,15.968 -2.259,29.303 -7.752,54.161 -0.88,3.983 -1.6,7.309 -1.6,7.39 0,0.081 1.365,0.117 3.034,0.078 l 3.034,-0.069 0.671,-1.985 c 2.796,-8.274 6.979,-27.485 9.158,-42.06 0.419,-2.798 0.854,-5.508 0.968,-6.023 0.141,-0.642 0.089,-1.384 -0.168,-2.357 -1.047,-3.972 -0.143,-8.612 2.3,-11.811 l 0.877,-1.149 h -1.218 c -2.509,0 -5.321,-0.837 -7.777,-2.317 l -1.374,-0.827 -0.153,6.969 m 274.389,0.89 c 0.218,12.847 3.505,35.317 8.091,55.321 0.671,2.926 1.22,5.355 1.22,5.397 0,0.042 1.244,0.076 2.763,0.076 h 2.764 l -0.162,-1.179 c -0.739,-5.392 -0.76,-7.605 -0.241,-26.51 l 0.163,-5.977 -1.176,-1.085 c -6.83,-6.296 -11.231,-16 -13.049,-28.773 l -0.476,-3.35 0.103,6.08 M 61.7,175.868 c -1.629,12.413 -5.289,20.861 -12.131,28.005 l -1.926,2.011 -0.002,3.572 c -10e-4,1.964 0.124,7.145 0.278,11.513 0.267,7.552 0.124,13.082 -0.438,16.943 l -0.154,1.063 2.807,-0.071 2.807,-0.07 0.941,-4.095 c 3.234,-14.078 6.242,-32 7.663,-45.657 0.451,-4.339 0.975,-16.625 0.709,-16.625 -0.058,0 -0.308,1.535 -0.554,3.411 m 125.273,10.047 c -0.923,1.435 -3.609,4.355 -5.121,5.567 -1.581,1.268 -7.871,20.071 -11.975,35.796 -1.146,4.39 -1.396,4.98 -2.116,4.98 -1.344,0 -1.319,-0.357 0.592,-8.378 3.158,-13.258 6.058,-24.2 7.441,-28.075 0.489,-1.37 0.544,-1.339 -1.351,-0.749 -1.712,0.533 -4.82,1.092 -7.504,1.349 l -1.672,0.16 -1.092,3.392 c -4.349,13.514 -4.73,24.859 -1.159,34.534 1.541,4.175 1.658,4.332 3.301,4.417 l 1.429,0.075 2.552,-2.556 c 6.01,-6.019 9.92,-13.708 15.795,-31.059 1.519,-4.486 3.022,-8.673 3.34,-9.305 0.542,-1.077 0.557,-1.221 0.234,-2.266 -0.528,-1.71 -1.33,-6.588 -1.33,-8.09 0,-1.703 -0.15,-1.68 -1.364,0.208 m 34.229,3.415 c 0.076,0.341 0.299,1.346 0.495,2.233 0.91,4.113 1.818,11.823 2.483,21.092 1.359,18.913 1.359,18.859 0.113,18.859 -0.853,0 -1.14,-0.988 -1.446,-4.963 -1.011,-13.158 -4.677,-36.725 -5.713,-36.725 -0.078,0 -0.349,0.722 -0.602,1.604 -0.629,2.196 -3.069,7.128 -4.439,8.974 l -1.129,1.521 0.472,4.31 c 1.618,14.763 4.715,23.43 11.006,30.8 2.271,2.66 3.186,2.727 5.096,0.372 4.189,-5.167 6.315,-14.623 5.844,-25.993 -0.207,-5.002 -1.086,-15.45 -1.317,-15.659 -0.098,-0.089 -0.626,-0.301 -1.172,-0.47 -2.78,-0.865 -8.234,-4.352 -9.443,-6.037 l -0.386,-0.538 0.138,0.62 m 103.758,0.985 c -2.185,2.191 -5.413,3.482 -8.706,3.482 h -1.665 l 0.774,0.881 c 4.282,4.877 7.424,20.108 8.355,40.496 l 0.173,3.784 h 3.797 c 2.088,0 3.841,-0.084 3.895,-0.186 0.495,-0.929 -1.835,-31.826 -2.754,-36.539 -0.546,-2.798 -1.31,-6.901 -1.698,-9.119 -0.387,-2.217 -0.76,-4.03 -0.828,-4.027 -0.069,0.003 -0.673,0.556 -1.343,1.228 m -250.749,2.563 c -0.309,1.802 -1.049,5.788 -1.643,8.859 -1.358,7.012 -1.228,5.701 -2.095,21.092 -0.403,7.165 -0.801,13.728 -0.884,14.584 l -0.151,1.558 3.929,-0.069 3.928,-0.068 0.173,-3.474 c 0.997,-20.108 3.725,-33.576 8.02,-39.607 l 0.815,-1.145 -1.931,-0.161 c -3.305,-0.275 -5.835,-1.361 -8.132,-3.487 l -1.466,-1.358 -0.563,3.276 m 74.465,2.771 c -7.31,8.326 -10.83,28.221 -7.421,41.944 l 0.308,1.241 1.25,0.073 1.249,0.073 3.104,-3.175 c 7.131,-7.294 8.787,-10.619 11.161,-22.405 1.221,-6.065 2.114,-9.614 3.446,-13.698 1.159,-3.552 1.295,-3.197 -1.289,-3.359 l -2.076,-0.129 -0.896,1.707 c -1.937,3.689 -4.375,10.195 -6.501,17.351 -2.912,9.798 -3.383,10.732 -4.737,9.379 -0.481,-0.482 -0.504,-0.369 0.988,-5.048 0.631,-1.979 1.918,-6.39 2.861,-9.802 1.688,-6.109 3.397,-11.429 4.126,-12.838 0.56,-1.083 0.375,-1.238 -2.031,-1.71 -2.894,-0.566 -2.676,-0.591 -3.542,0.396 m 163.598,0.257 c 1.18,3.231 -0.079,8.455 -2.684,11.13 l -1.203,1.237 1.032,7.836 c 0.567,4.31 1.444,11.186 1.948,15.281 l 0.916,7.444 4.652,0.067 c 3.636,0.053 4.653,-0.001 4.653,-0.248 -0.005,-11.433 -2.552,-28.495 -5.327,-35.692 -1.151,-2.985 -4.966,-9.736 -3.987,-7.055 m -61.157,0.391 c -1.297,0.248 -2.776,0.458 -3.288,0.465 -1.122,0.015 -1.123,0.033 -0.183,2.129 1.224,2.727 3.297,9.011 5.449,16.515 1.111,3.878 2.691,9.153 3.51,11.723 1.582,4.967 1.662,5.575 0.771,5.903 -0.964,0.354 -1.441,-0.492 -2.915,-5.168 -4.934,-15.657 -7.562,-22.915 -10.198,-28.172 l -1.339,-2.67 -2.045,-0.013 c -1.125,-0.008 -2.979,-0.154 -4.119,-0.326 l -2.074,-0.312 0.168,1.504 c 1.444,12.948 7.608,26.055 16.624,35.346 4.701,4.846 5.855,5.737 7.429,5.737 h 1.326 l 0.624,-1.44 c 3.361,-7.749 2.436,-20.28 -2.414,-32.7 -1.641,-4.201 -4.187,-9.068 -4.71,-9.005 -0.143,0.017 -1.32,0.235 -2.616,0.484 m -163.049,1.036 c -4.52,6.195 -7.271,18.925 -8.314,38.467 l -0.169,3.169 4.686,-0.068 4.687,-0.067 0.807,-6.576 c 0.443,-3.617 1.31,-10.367 1.927,-15 l 1.12,-8.425 -1.207,-1.253 c -2.613,-2.712 -3.771,-7.071 -2.789,-10.497 0.304,-1.059 0.175,-1.016 -0.748,0.25 m 102.302,2.85 c -4.489,11.762 -2.683,25.246 4.846,36.169 l 1.71,2.482 2.307,0.071 c 2.681,0.084 2.681,0.084 3.918,-2.127 3.386,-6.055 5.47,-15.754 5.713,-26.585 l 0.136,-6.06 -1.46,1.143 c -3.389,2.654 -4.981,3.276 -6.572,2.569 -0.746,-0.333 -0.815,9.647 -0.094,13.851 0.247,1.445 0.137,12.049 -0.131,12.55 -0.293,0.548 -1.225,0.656 -1.686,0.196 -0.194,-0.194 -0.298,-1.212 -0.298,-2.916 -10e-4,-2.95 -0.675,-16.612 -0.861,-17.455 -0.067,-0.301 -0.242,-2.305 -0.39,-4.452 l -0.269,-3.905 -1.908,-1.938 c -1.048,-1.067 -2.342,-2.691 -2.875,-3.611 -1.276,-2.202 -1.238,-2.202 -2.086,0.018 m 114.097,10.172 c -2.821,1.075 -6.623,0.959 -9.488,-0.292 -0.358,-0.156 -0.305,0.116 0.315,1.619 2.161,5.242 4.458,19.094 4.458,26.888 0,0.339 0.64,0.388 5.087,0.388 2.797,0 5.087,-0.032 5.087,-0.07 0,-0.982 -3.649,-28.989 -3.792,-29.104 -0.03,-0.025 -0.78,0.232 -1.667,0.571 m -209.521,0.483 c -0.176,0.587 -1.407,9.938 -2.51,19.063 -0.479,3.958 -0.936,7.615 -1.017,8.126 l -0.147,0.931 h 5.079 5.079 l 0.17,-2.668 c 0.653,-10.206 2.156,-18.755 4.162,-23.676 l 0.847,-2.075 -1.63,0.555 c -2.769,0.944 -6.46,0.736 -9.485,-0.535 -0.281,-0.118 -0.455,-0.029 -0.548,0.279 m 197.028,1.691 c -0.347,2.53 -2.802,5.673 -5.36,6.861 -1.171,0.544 -1.251,0.638 -1.137,1.33 0.353,2.126 1.139,8.981 1.494,13.027 0.222,2.525 0.449,4.73 0.505,4.901 0.077,0.234 1.29,0.31 4.948,0.31 h 4.846 v -1.577 c 0,-8.295 -2.124,-20.327 -4.376,-24.788 -0.727,-1.442 -0.731,-1.442 -0.92,-0.064 m -56.241,1.367 c -0.027,10.225 -1.919,18.351 -5.503,23.635 l -0.968,1.427 h 12.292 c 6.761,0 12.292,-0.041 12.292,-0.091 0,-0.051 -1.073,-1.139 -2.384,-2.42 -6.261,-6.114 -11.236,-13.524 -14.474,-21.559 l -1.25,-3.101 -0.005,2.109 M 108.008,213.82 c -2.157,4.826 -4.024,15.628 -4.035,23.344 l -0.003,1.804 4.894,-0.067 4.893,-0.067 0.663,-6.7 c 0.617,-6.234 1.096,-10.153 1.349,-11.042 0.07,-0.248 -0.335,-0.603 -1.214,-1.063 -2.441,-1.278 -5.365,-4.937 -5.378,-6.731 -0.009,-1.315 -0.432,-1.126 -1.169,0.522 m 76.133,3.71 c -3.309,8.462 -7.68,15.874 -12.013,20.373 l -1.015,1.055 h 11.564 11.565 l -1.368,-2.044 c -3.724,-5.563 -6.277,-12.799 -7.03,-19.916 -0.158,-1.502 -0.31,-2.754 -0.336,-2.784 -0.027,-0.029 -0.642,1.463 -1.367,3.316 m 26.316,2.135 c -0.822,6.248 -2.795,13.273 -4.824,17.182 l -1.096,2.111 h 8.28 8.281 l -1.164,-1.427 c -3.8,-4.659 -7.501,-12.574 -8.76,-18.734 -0.372,-1.825 -0.36,-1.84 -0.717,0.868 m 63.11,-0.626 c 0.698,6.042 0.915,8.951 1.046,14.03 l 0.152,5.899 5.095,-0.067 5.095,-0.067 -0.057,-1.613 c -0.067,-1.903 -0.877,-9.308 -1.477,-13.5 l -0.423,-2.953 -1.983,-0.068 c -2.49,-0.085 -4.962,-0.843 -6.449,-1.978 l -1.135,-0.867 0.136,1.184 m -147.14,0.416 c -1.754,1.181 -3.377,1.674 -5.991,1.822 l -2.269,0.128 -0.142,0.898 c -0.794,5.022 -1.965,16.095 -1.74,16.459 0.067,0.108 2.387,0.196 5.157,0.196 h 5.035 l 0.163,-6.142 c 0.091,-3.377 0.365,-7.956 0.611,-10.173 0.246,-2.218 0.44,-4.03 0.432,-4.028 -0.009,0.003 -0.574,0.381 -1.256,0.84 m 143.96,0.779 c -0.981,1.235 -2.488,2.272 -3.987,2.744 l -1.272,0.401 -0.033,3.261 c -0.045,4.356 -0.837,8.662 -2.187,11.884 -0.17,0.404 0.14,0.434 4.559,0.434 h 4.741 v -1.817 c 0,-3.924 -0.551,-14.753 -0.826,-16.231 l -0.29,-1.562 -0.705,0.886 m -140.465,0.489 c -0.331,1.319 -0.622,5.682 -0.791,11.845 l -0.175,6.39 h 5.152 5.152 l -0.136,-0.558 c -0.748,-3.077 -1.406,-8.812 -1.407,-12.249 v -2.012 l -1.3,-0.154 c -1.814,-0.215 -4.181,-1.444 -5.359,-2.782 -0.974,-1.106 -0.978,-1.108 -1.136,-0.48 m 203.088,2.23 c -0.015,0.859 0.732,13.337 0.88,14.702 l 0.141,1.303 h 1.817 1.818 l -0.995,-3.04 c -0.546,-1.672 -1.592,-5.385 -2.323,-8.251 -0.732,-2.866 -1.334,-4.987 -1.338,-4.714 m -265.973,4.478 c -0.924,3.743 -2.629,9.748 -3.15,11.093 -0.151,0.388 0.016,0.434 1.574,0.434 h 1.742 l 0.152,-1.799 c 0.233,-2.757 0.879,-13.921 0.81,-13.99 -0.034,-0.033 -0.541,1.885 -1.128,4.262 m 90.531,-2.452 c -1.285,3.421 -4.2,7.669 -7.964,11.606 l -2.268,2.373 h 7.473 c 4.111,0 7.474,-0.044 7.474,-0.098 0,-0.054 -0.439,-1.204 -0.975,-2.557 -1.46,-3.683 -2.747,-9.256 -2.747,-11.894 0,-1.508 -0.27,-1.354 -0.993,0.57 M 4.467,254.963 v 13.523 h 30.73 c 29.213,0 30.751,0.022 31.133,0.444 0.781,0.864 23,34.602 23,34.925 0,1.051 -0.424,1.108 -8.33,1.108 h -7.551 l -0.004,6.637 c -0.003,3.651 -0.167,24.554 -0.366,46.45 -0.199,21.897 -0.322,39.852 -0.274,39.899 0.047,0.048 0.337,-0.336 0.643,-0.854 0.306,-0.518 12.77,-21.672 27.698,-47.01 l 27.142,-46.068 V 288.733 273.449 H 125.7 c -2.554,0 -3.367,-0.245 -3.367,-1.013 0,-0.238 9.286,-16.724 9.737,-17.287 0.196,-0.244 5.128,-0.31 23.154,-0.31 h 22.906 l 0.471,0.682 c 1.058,1.533 8.992,16.398 8.992,16.847 0,0.914 -0.488,1.081 -3.151,1.081 h -2.556 v 21.29 c 0,16.229 -0.071,21.362 -0.298,21.589 -0.198,0.197 -1.279,0.297 -3.226,0.297 h -2.928 v 28.908 28.909 h 11.663 11.662 V 307.94 241.439 H 101.613 4.467 v 13.524 m 126.054,31.817 c 0,11.165 0.054,13.251 0.33,12.841 1.929,-2.864 4.895,-8.416 5.232,-9.795 4.261,-17.43 28.709,-20.232 36.97,-4.237 2.179,4.217 2.214,4.481 2.322,17.451 l 0.095,11.352 h 2.091 2.092 v -20.471 -20.472 h -24.566 -24.566 v 13.331 m 20.472,-9.119 c -4.774,1.27 -8.962,4.529 -11.135,8.664 l -0.905,1.723 1.181,0.38 c 3.995,1.287 13.289,3.89 13.42,3.758 0.087,-0.086 0.235,-2.3 0.33,-4.918 0.095,-2.619 0.23,-5.962 0.299,-7.429 l 0.125,-2.668 -0.789,0.014 c -0.434,0.007 -1.571,0.222 -2.526,0.476 m 5.667,2.426 c 0.085,1.603 0.228,5.009 0.318,7.568 0.091,2.559 0.257,4.653 0.371,4.653 0.408,0 13.996,-4.039 14.196,-4.22 0.293,-0.265 -1.093,-2.851 -2.425,-4.525 -2.685,-3.374 -8.265,-6.37 -11.897,-6.388 l -0.718,-0.004 0.155,2.916 m -18.521,10.569 c -0.071,0.183 -0.207,0.965 -0.304,1.737 l -0.175,1.404 h 4.785 c 2.631,0 4.738,-0.045 4.681,-0.098 -0.135,-0.128 -8.518,-3.376 -8.712,-3.376 -0.081,0 -0.205,0.15 -0.275,0.333 m 29.854,1.313 c -2.25,0.888 -4.139,1.663 -4.198,1.721 -0.058,0.059 2.043,0.107 4.67,0.107 h 4.775 l -0.13,-0.683 c -0.072,-0.375 -0.202,-1.157 -0.29,-1.737 -0.197,-1.308 0.07,-1.341 -4.827,0.592 m -30.272,4.619 c 0.025,3.781 5.61,13.367 6.874,11.8 0.396,-0.491 7.762,-12.108 7.762,-12.242 0,-0.064 -3.294,-0.116 -7.32,-0.116 h -7.32 l 0.004,0.558 m 24.605,5.707 c 2.193,3.446 4.039,6.322 4.103,6.39 0.064,0.068 0.821,-0.618 1.681,-1.526 2.675,-2.82 4.482,-6.489 4.78,-9.702 l 0.132,-1.427 h -7.342 -7.341 l 3.987,6.265 m -28.772,-2.853 c -3.425,5.818 -3.033,4.516 -3.033,10.071 v 4.879 h 2.481 2.482 v -8.933 c 0,-4.913 -0.048,-8.933 -0.107,-8.933 -0.058,0 -0.879,1.312 -1.823,2.916 m 17.338,4.497 c -2.469,3.287 -4.49,6.041 -4.49,6.121 0,0.08 0.728,0.475 1.618,0.878 4.702,2.132 10.2,2.099 14.842,-0.089 l 1.696,-0.799 -4.383,-5.832 c -2.411,-3.207 -4.475,-5.926 -4.588,-6.043 -0.113,-0.117 -2.225,2.477 -4.695,5.764 m -13.175,5.345 v 5.108 l 6.638,-0.003 6.638,-0.004 -2.047,-0.712 c -4.06,-1.413 -7.667,-4.17 -9.98,-7.629 l -1.249,-1.867 v 5.107 m 34.661,-4.004 c -2.248,3.836 -6.326,7.005 -10.964,8.522 l -1.737,0.568 6.762,0.011 6.762,0.011 v -5.087 c 0,-2.798 -0.045,-5.087 -0.1,-5.087 -0.056,0 -0.381,0.478 -0.723,1.062 m -71.911,50.314 -27.697,47.015 -0.185,13.584 c -0.102,7.471 -0.119,13.584 -0.039,13.584 0.081,0 0.353,-0.419 0.605,-0.931 0.252,-0.512 4.423,-8.077 9.271,-16.811 25.415,-45.797 52.566,-95.024 52.566,-95.308 0,-0.056 -1.39,-0.102 -3.087,-0.102 -3.739,0 -3.457,0.339 -3.613,-4.333 l -0.124,-3.713 -27.697,47.015 m 38.541,-38.162 c 0.196,0.307 3.967,6.342 8.379,13.411 4.413,7.069 8.107,12.764 8.209,12.655 0.252,-0.268 16.364,-26.375 16.364,-26.514 0,-0.061 -7.494,-0.111 -16.654,-0.111 h -16.653 l 0.355,0.559 m 26.718,13.959 c -4.043,6.55 -7.708,12.494 -8.145,13.208 l -0.795,1.299 8.146,13.031 8.145,13.031 0.064,-13.17 c 0.035,-7.244 0.035,-19.051 0,-26.239 l -0.064,-13.069 -7.351,11.909 m -28.009,14.756 v 26.395 l 8.189,-13.256 c 4.504,-7.291 8.131,-13.412 8.059,-13.603 -0.159,-0.419 -15.716,-25.361 -16.028,-25.695 -0.128,-0.137 -0.22,10.82 -0.22,26.159 m -14.008,-4.191 c -5.556,10.12 -10.01,18.488 -9.896,18.596 0.385,0.367 12.269,6.997 12.366,6.9 0.148,-0.148 7.827,-43.702 7.724,-43.805 -0.05,-0.05 -4.637,8.189 -10.194,18.309 M 17.535,325.476 c -0.091,0.091 -0.165,9.489 -0.165,20.885 v 20.721 l 1.397,3.492 c 3.451,8.626 7.949,17.776 12.79,26.014 2.981,5.075 2.686,8.825 2.686,-34.181 V 325.31 h -8.271 c -4.549,0 -8.346,0.075 -8.437,0.166 m 28.536,0 c -0.091,0.091 -0.165,16.952 -0.165,37.469 v 37.303 h 8.436 8.437 V 362.779 325.31 h -8.271 c -4.549,0 -8.346,0.075 -8.437,0.166 m 89.217,3.928 c -0.162,0.598 -6.192,34.746 -6.145,34.801 0.029,0.033 1.468,-2.504 3.199,-5.639 l 3.147,-5.699 -0.067,-11.856 c -0.037,-6.52 -0.097,-11.743 -0.134,-11.607 m 12.023,31.808 -8.09,13.106 8.181,0.065 c 4.5,0.036 11.862,0.036 16.361,0 l 8.18,-0.065 -8.054,-12.889 c -4.429,-7.089 -8.151,-12.986 -8.27,-13.106 -0.124,-0.124 -3.689,5.407 -8.308,12.889 m -15.061,2.125 c -3.609,6.581 -19.217,34.81 -31.383,56.762 -4.803,8.667 -9.243,16.706 -9.868,17.866 -0.625,1.16 -2.817,5.236 -4.873,9.057 l -3.737,6.948 0.679,0.563 c 9.149,7.585 34.813,22.02 44.413,24.981 l 0.559,0.172 v -34.384 -34.384 h -7.551 c -8.043,0 -8.562,-0.077 -8.26,-1.234 0.183,-0.701 18.581,-34.858 18.88,-35.052 0.154,-0.101 1.202,-0.184 2.328,-0.187 l 2.047,-0.003 v -8.313 c 0,-4.572 -0.047,-8.313 -0.103,-8.313 -0.057,0 -1.466,2.485 -3.131,5.521 m -19.35,0.101 c -0.002,0.388 -0.606,8.411 -1.342,17.828 -0.736,9.416 -1.319,17.141 -1.295,17.166 0.085,0.09 15.543,-27.906 15.543,-28.15 0,-0.138 -2.428,-1.62 -5.397,-3.293 -2.968,-1.672 -5.871,-3.315 -6.451,-3.649 l -1.055,-0.608 -0.003,0.706 m -10.376,16.885 c -4.276,7.716 -7.681,14.123 -7.567,14.237 0.114,0.114 2.998,1.777 6.409,3.697 l 6.202,3.49 0.181,-0.936 c 0.225,-1.161 2.742,-33.985 2.63,-34.294 -0.045,-0.124 -3.58,6.089 -7.855,13.806 m -8.487,17.506 c -0.004,0.443 -0.603,8.399 -1.331,17.68 -0.729,9.28 -1.304,16.899 -1.279,16.931 0.047,0.06 15.53,-27.827 15.604,-28.105 0.042,-0.157 -12.458,-7.29 -12.8,-7.305 -0.103,-0.004 -0.19,0.355 -0.194,0.799 m -10.29,16.381 c -4.231,7.643 -7.692,14.015 -7.692,14.161 0,0.378 12.591,7.416 12.765,7.135 0.169,-0.273 2.851,-34.99 2.713,-35.111 -0.052,-0.044 -3.555,6.172 -7.786,13.815 m 57.196,37.155 v 27.295 h 8.437 8.436 v -27.295 -27.296 h -8.436 -8.437 v 27.296 m 31.265,0.124 v 27.171 h 8.437 8.437 v -27.171 -27.171 h -8.437 -8.437 v 27.171 m -98.622,-18.843 -1.129,2.089 0.003,5.647 0.003,5.648 3.161,2.623 c 1.738,1.442 3.568,2.927 4.067,3.299 l 0.907,0.676 0.985,-1.81 c 0.541,-0.996 1.85,-3.43 2.908,-5.409 1.058,-1.978 2.359,-4.397 2.89,-5.374 l 0.966,-1.776 -4.285,-2.421 c -2.357,-1.332 -5.424,-3.065 -6.816,-3.851 l -2.53,-1.43 -1.13,2.089"
       stroke="none"
       fill="#fbfbfb"
       fill-rule="evenodd"
       style="fill:#ffffff;fill-opacity:1" />
    <path
       id="path2"
       d="m 4.467,121.592 v 117.373 l 7.363,-0.066 7.363,-0.065 0.722,-1.985 c 4.611,-12.677 5.416,-29.51 2.79,-58.313 -0.336,-3.685 -0.996,-10.72 -1.467,-15.633 C 17.07,119.449 20.001238,98.329446 30.081238,80.220446 41.006587,60.594243 58.182096,50.731802 75.622192,50.229712 88.617085,49.855597 101.88234,54.309494 112.157,65.769 c 20.572,22.945 14.57,50.998 -13.645,63.767 l -2.604,1.178 -0.827,2.568 c -9.232,28.664 -0.221,48.42 26.259,57.568 8.422,2.909 23.616,5.372 25.064,4.061 0.713,-0.645 0.638,-0.748 -0.79,-1.078 -3.387,-0.781 -2.96,-1.814 2.175,-5.27 29.598,-19.917 44.601,-43.054 39.65,-61.144 -0.224,-0.819 -0.553,-2.015 -0.731,-2.658 -0.254,-0.919 -1.87,-3.162 -7.546,-10.469 -8.199,-10.556 -9.896,-12.409 -12.502,-13.651 -11.537,-5.5 -11.566,-5.519 -11.761,-7.549 -0.223,-2.32 2.504,-4.258 5.992,-4.258 1.532,0 9.23,2.647 12.397,4.262 1.591,0.812 4.955,4.288 15.049,15.548 5.255,5.861 9.818,10.784 10.141,10.94 2.11,1.016 2.292,-1.812 0.287,-4.462 -1.886,-2.493 -19.941,-21.532 -22.299,-23.515 -4.561,-3.835 -16.376,-10.406 -18.188,-10.117 -4.059,0.649 -8.583,5.5 -9.048,9.701 -0.285,2.581 -1.277,2.983 -3.576,1.449 -17.068,-11.385 -11.544,-37.222 7.944,-37.153 4.108,0.015 5.958,0.487 13.896,3.547 l 6.327,2.439 1.193,-1.073 c 3.983,-3.581 10.08,-3.637 13.887,-0.128 l 1.097,1.011 0.341,-1.034 c 0.187,-0.568 0.918,-1.656 1.623,-2.418 l 1.282,-1.385 -0.807,-21.709 c -0.881,-23.675 -0.906,-22.622 0.55,-22.987 3.915,-0.983 9.133,3.116 9.663,7.59 0.131,1.107 0.23,1.281 0.797,1.406 2.376,0.522 4.185,1.401 5.782,2.81 5.327,4.698 1.901,13.963 -5.313,14.37 -1.999,0.113 -2.022,0.194 -0.52,1.8 4.034,4.312 13.281,4.927 19.282,1.282 l 1.467,-0.891 -1.595,-0.518 c -9.765,-3.166 -8.281,-17.172 1.901,-17.942 l 1.81,-0.137 0.898,-1.818 c 4.162,-8.42 17.756,-4.895 17.196,4.459 -0.066,1.11 -0.193,2.187 -0.281,2.393 -0.113,0.262 0.107,0.52 0.72,0.851 3.655,1.968 5.398,7.662 3.551,11.602 -1.95,4.16 -7.383,6.43 -11.573,4.836 l -1.07,-0.407 0.167,0.552 c 2.031,6.716 12.577,12.743 18.169,10.384 l 0.813,-0.343 -1.48,-1.34 c -7.485,-6.773 -0.226,-17.922 9.266,-14.234 l 1.471,0.572 0.707,-0.882 c 2.802,-3.492 9.15,-4.068 12.293,-1.115 1.103,1.036 1.124,1.004 -11.977,19.235 -6.889,9.588 -12.524,17.627 -12.522,17.866 0.03,3.393 7.827,13.724 11.951,15.835 1.967,1.008 1.901,1.913 -0.284,3.885 -5.198,4.691 -11.952,5.694 -18.189,2.701 -1.878,-0.902 -1.765,-1.057 -1.265,1.738 0.596,3.334 0.53,10.791 -0.174,19.7 -1.256,15.872 -0.701,23.404 2.169,29.445 1.383,2.911 1.344,3.372 -0.351,4.205 -2.033,1 -4.92,0.858 -7.104,-0.349 -2.061,-1.139 -1.878,-1.389 -1.602,2.183 0.933,12.111 5.911,21.274 18.921,34.835 4.201,4.377 4.677,5.398 2.746,5.883 -2.418,0.606 3.909,-0.057 8.563,-0.898 30.144,-5.45 44.884,-22.815 41.065,-48.381 -0.76,-5.088 -3.343,-14.503 -4.093,-14.915 -0.204,-0.112 -1.574,-0.76 -3.043,-1.438 -28.388,-13.111 -32.49549,-43.060101 -10.12149,-65.325101 9.5971,-9.549928 20.60735,-13.350761 31.70309,-13.726747 23.4814,-0.795683 46.86288,16.631343 54.65286,47.628949 4.182,16.639999 4.97154,31.997899 1.36754,69.487899 -3.791,39.432 -3.503,53.585 1.394,68.481 l 1.266,3.852 h 6.643 6.9579 V 237.807 120.437 4.218 H 200.124 4.467 V 121.592 M 129.529,263.92 c -2.116,3.755 -3.929,7.03693 -3.929,7.03693 h 29.487 29.487 c 0,0 -1.758,-3.26293 -3.805,-7.03193 l -3.722,-6.852 -21.836,0.01 -21.836,0.009 -3.846,6.828 M 4.467,286.724 v 16.006 h 40.827 c 38.813,0 40.815,-0.022 40.578,-0.435 -0.137,-0.239 -4.87,-7.413 -10.519,-15.943 L 65.082,270.844 34.774,270.781 4.467,270.718 v 16.006 m 119.84,104.901 c -4.404,8.223 -8.28,15.425 -8.613,16.005 l -0.605,1.055 h 42.083 42.084 V 392.68 376.675 h -33.471 -33.471 l -8.007,14.95"
       stroke="none"
       fill="#da241c"
       fill-rule="evenodd"
       style="fill:#da251d;fill-opacity:1" />
    <path
       id="path0"
       d="m 0.12,155.025 c 0.038503,78.36345 -0.13372672,117.40916 0,137.36241 0.11286671,16.84074 0.51783395,20.0809 0.7,21.88059 11.793,116.511 112.713,197.157 226.972,181.373 94.049,-12.992 167.325,-93.454 171.954,-188.817 0.166,-3.417 0.253,-57.14 0.254,-156.018 V 0 H 200.121 0.12 v 155.025 m 395.662,-34.588 c 0.0278,39.50446 -10e-5,118.521 -10e-5,118.521 h -6.9579 l -6.643,-1.2e-4 -1.266,-3.85188 c -4.897,-14.896 -5.185,-29.049 -1.394,-68.481 3.604,-37.49 3.439,-52.917 -0.743,-69.557 -9.031,-35.935 -41.379,-56.78 -70.341,-45.328 -22.704,8.978 -36.282,32.848 -29.984,52.715 3.133,9.885 11.675,18.659 23.466,24.105 1.469,0.678 2.839,1.326 3.043,1.438 0.75,0.412 3.333,9.827 4.093,14.915 3.819,25.566 -10.921,42.931 -41.065,48.381 -4.654,0.841 -10.981,1.504 -8.563,0.898 1.931,-0.485 1.455,-1.506 -2.746,-5.883 -13.01,-13.561 -17.988,-22.724 -18.921,-34.835 -0.276,-3.572 -0.459,-3.322 1.602,-2.183 2.184,1.207 5.071,1.349 7.104,0.349 1.695,-0.833 1.734,-1.294 0.351,-4.205 -2.87,-6.041 -3.425,-13.573 -2.169,-29.445 0.704,-8.909 0.77,-16.366 0.174,-19.7 -0.5,-2.795 -0.613,-2.64 1.265,-1.738 6.237,2.993 12.991,1.99 18.189,-2.701 2.185,-1.972 2.251,-2.877 0.284,-3.885 -4.124,-2.111 -11.921,-12.442 -11.951,-15.835 -0.002,-0.239 5.633,-8.278 12.522,-17.866 13.101,-18.231 13.08,-18.199 11.977,-19.235 -3.143,-2.953 -9.491,-2.377 -12.293,1.115 l -0.707,0.882 -1.471,-0.572 c -9.492,-3.688 -16.751,7.461 -9.266,14.234 l 1.48,1.34 -0.813,0.343 C 248.446,56.731 237.9,50.704 235.869,43.988 l -0.167,-0.552 1.07,0.407 c 4.19,1.594 9.623,-0.676 11.573,-4.836 1.847,-3.94 0.104,-9.634 -3.551,-11.602 -0.613,-0.331 -0.833,-0.589 -0.72,-0.851 0.088,-0.206 0.215,-1.283 0.281,-2.393 0.56,-9.354 -13.034,-12.879 -17.196,-4.459 l -0.898,1.818 -1.81,0.137 c -10.182,0.77 -11.666,14.776 -1.901,17.942 l 1.595,0.518 -1.467,0.891 c -6.001,3.645 -15.248,3.03 -19.282,-1.282 -1.502,-1.606 -1.479,-1.687 0.52,-1.8 7.214,-0.407 10.64,-9.672 5.313,-14.37 -1.597,-1.409 -3.406,-2.288 -5.782,-2.81 -0.567,-0.125 -0.666,-0.299 -0.797,-1.406 -0.53,-4.474 -5.748,-8.573 -9.663,-7.59 -1.456,0.365 -1.431,-0.688 -0.55,22.987 l 0.807,21.709 -1.282,1.385 c -0.705,0.762 -1.436,1.85 -1.623,2.418 l -0.341,1.034 -1.097,-1.011 c -3.807,-3.509 -9.904,-3.453 -13.887,0.128 l -1.193,1.073 -6.327,-2.439 c -7.938,-3.06 -9.788,-3.532 -13.896,-3.547 -19.488,-0.069 -25.012,25.768 -7.944,37.153 2.299,1.534 3.291,1.132 3.576,-1.449 0.465,-4.201 4.989,-9.052 9.048,-9.701 1.812,-0.289 13.627,6.282 18.188,10.117 2.358,1.983 20.413,21.022 22.299,23.515 2.005,2.65 1.823,5.478 -0.287,4.462 -0.323,-0.156 -4.886,-5.079 -10.141,-10.94 -10.094,-11.26 -13.458,-14.736 -15.049,-15.548 -3.167,-1.615 -10.865,-4.262 -12.397,-4.262 -3.488,0 -6.215,1.938 -5.992,4.258 0.195,2.03 0.224,2.049 11.761,7.549 2.606,1.242 4.303,3.095 12.502,13.651 5.676,7.307 7.292,9.55 7.546,10.469 0.178,0.643 0.507,1.839 0.731,2.658 4.951,18.09 -10.052,41.227 -39.65,61.144 -5.135,3.456 -5.562,4.489 -2.175,5.27 1.428,0.33 1.503,0.433 0.79,1.078 -1.448,1.311 -16.642,-1.152 -25.064,-4.061 -26.48,-9.148 -35.491,-28.904 -26.259,-57.568 l 0.827,-2.568 2.604,-1.178 C 126.727,116.767 132.729,88.714 112.157,65.769 83.426,33.726 34.792,50.627 22.581,96.898 c -4.167,15.787 -4.515,32.929 -1.343,66.005 0.471,4.913 1.131,11.948 1.467,15.633 2.626,28.803 1.821,45.636 -2.79,58.313 l -0.722,1.985 -7.363,0.065 -7.363,0.066 V 121.592 4.218 H 200.124 395.7819 V 120.437 M 196.412,15.228 c 2.307,1.074 3.34,2.834 3.34,5.693 0,2.273 0.248,2.543 2.496,2.713 3.812,0.288 6.685,2.768 6.685,5.77 0,3.753 -3.918,6.609 -7.533,5.492 -2.055,-0.634 -2.913,0.135 -2.527,2.264 1.926,10.624 21.725,12.489 29.407,2.77 1.927,-2.437 1.389,-3.266 -1.974,-3.045 -3.558,0.233 -5.575,-0.8 -6.856,-3.51 -2.177,-4.606 1.259,-9.105 6.661,-8.721 2.462,0.175 2.692,0.028 3.038,-1.938 0.738,-4.19 5.021,-6.031 9.236,-3.969 3.01,1.473 3.958,4.433 2.511,7.843 -0.631,1.487 -0.373,2.014 1.363,2.784 6.11,2.71 4.767,11.403 -1.855,12.003 -1.899,0.172 -3.346,-0.385 -5.081,-1.957 -4.54,-4.111 -4.1,4.435 0.538,10.463 5.617,7.299 16.512,10.214 21.671,5.797 2.043,-1.748 2.167,-3.312 0.302,-3.814 -2.668,-0.719 -4.568,-3.089 -4.566,-5.698 0.004,-4.861 4.605,-6.936 9.638,-4.347 2.072,1.066 2.336,1.03 3.243,-0.432 1.797,-2.896 4.855,-4.181 7.381,-3.102 l 0.701,0.3 -11.574,16.128 c -6.365,8.871 -11.705,16.262 -11.867,16.424 -0.25,0.252 -54.229,-15.642 -54.611,-16.08 -0.046,-0.053 -0.377,-8.527 -0.737,-18.831 -0.359,-10.304 -0.708,-19.376 -0.774,-20.161 -0.139,-1.657 -0.076,-1.687 1.744,-0.839 m 132.106,35.648 c 21.127,1.869 39.894,19.116 47.244,43.417 4.778,15.796 5.302,33.381 2.018,67.742 -2.688,28.128 -2.923,31.53 -2.938,42.68 -0.0151,11.0535 0.92321,20.36988 2.82015,27.71735 0.61584,2.38534 1.33271,4.56316 2.15079,6.52553 0.104,0.249 -2.27094,-0.008 -11.73894,-0.0599 l -11.871,-0.064 -0.343,-1.737 c -0.412,-2.078 -0.521,-16.568 -0.189,-24.964 l 0.213,-5.361 2.393,1.778 c 3.769,2.799 4.883,3.44 5.451,3.136 0.79,-0.423 0.802,-0.916 0.062,-2.558 -1.901,-4.221 -2.208,-10.86 -1.157,-25.082 1.008,-13.644 1.084,-21.999 0.245,-27.048 -0.237,-1.429 0.294,-0.207 1.607,3.696 1.455,4.324 2.879,9.93 3.301,12.99 0.828,5.997 3.379,1.753 5.753,-9.569 5.31,-25.324 -3.366,-58.705 -17.133,-65.92 l -1.783,-0.935 -0.007,-2.786 c -0.034,-14.21 -14.765,-24.908 -27.608,-20.049 -1.428,0.541 -1.819,0.98 -1.57,1.766 0.234,0.736 0.801,0.75 2.796,0.072 11.446,-3.895 24.197,5.656 24.236,18.154 0.03,9.369 -6.056,15.156 -16.49,15.68 -3.184,0.16 -3.722,0.329 -3.722,1.172 0,0.779 0.418,1.08 2.119,1.523 6.023,1.569 10.926,7.46 11.424,13.726 0.728,9.159 -7.614,15.738 -17.358,13.691 -3.239,-0.681 -3.287,1.361 -0.056,2.346 9.522,2.905 14.13,13.493 9.485,21.798 -2.673,4.78 -8.473,6.721 -16.339,5.468 -0.83,-0.132 -0.955,-0.078 -1.232,0.529 -0.342,0.75 -0.441,0.633 2.281,2.694 12.012,9.097 -1.687,23.785 -14.683,15.742 -0.894,-0.553 -0.919,-0.554 -1.427,-0.095 -0.725,0.656 -0.656,0.966 0.484,2.179 4.981,5.306 3.924,13.87 -2.075,16.819 -4.492,2.208 -8.952,1.301 -13.104,-2.665 -2.738,-2.616 -4.076,-2.302 -2.827,0.664 0.855,2.031 1.162,4.191 0.842,5.92 -1.517,8.21 -13.066,9.234 -17.185,1.523 -1.773,-3.318 -3.308,-3.104 -2.807,0.393 0.459,3.208 -0.906,5.912 -3.56,7.054 -0.702,0.301 -1.303,0.513 -1.335,0.469 -0.033,-0.044 -0.255,-1.308 -0.493,-2.809 -0.932,-5.879 -3.094,-12.813 -5.749,-18.442 -0.739,-1.566 -1.343,-2.873 -1.343,-2.905 0,-0.032 0.865,-0.135 1.923,-0.229 34.831,-3.093 54.584,-21.011 52.439,-47.567 -0.682,-8.435 -4.037,-21.055 -5.599,-21.055 -0.602,0 -7.787,-3.732 -10.053,-5.221 -11.205,-7.366 -16.927,-16.997 -16.947,-28.526 -0.042,-23.859 24.718,-45.605 49.435,-43.417 M 84.509,52.211 c 25.528,5.356 43.3,31.521 35.913,52.874 -3.403,9.837 -12.3,18.219 -24.815,23.378 -1.528,0.63 -1.582,0.734 -3.177,6.067 -10.346,34.612 7.075,58.088 46.28,62.366 5.338,0.583 5.744,0.642 5.657,0.826 -0.043,0.093 -0.553,1.089 -1.133,2.214 -2.821,5.473 -5.263,14.966 -5.268,20.473 -0.001,1.64 -0.18,1.723 -2.33,1.076 -3.056,-0.92 -4.246,-2.831 -4.246,-6.817 0,-4.066 -0.86,-4.485 -2.586,-1.258 -5.594,10.458 -21.044,4.897 -16.919,-6.09 0.843,-2.244 0.917,-2.876 0.385,-3.266 -0.676,-0.494 -0.751,-0.457 -2.343,1.155 -4.983,5.046 -11.29,5.644 -15.935,1.512 -3.889,-3.459 -3.864,-10.756 0.051,-15.003 2.037,-2.21 0.911,-3.381 -1.702,-1.768 -6.09,3.759 -14.352,1.728 -17.374,-4.272 -2.206,-4.38 -0.513,-8.625 5.386,-13.505 1.358,-1.123 0.386,-2.203 -1.508,-1.674 -6.202,1.732 -13.31,-1.076 -15.908,-6.285 -4.107,-8.232 0.44,-17.911 9.889,-21.05 1.965,-0.652 1.988,-0.669 1.988,-1.502 0,-0.968 0.233,-0.939 -4.839,-0.595 -11.282,0.765 -18.088,-9.732 -12.845,-19.81 1.951,-3.749 5.884,-6.885 9.969,-7.946 1.464,-0.381 1.873,-0.688 1.88,-1.413 0.007,-0.705 -0.577,-0.98 -2.093,-0.985 -7.731,-0.025 -14.134,-3.282 -16.576,-8.432 -6.614,-13.949 7.69,-30.34 22.395,-25.66 3.301,1.05 4.847,-0.519 1.686,-1.713 -13.421,-5.071 -29.346,7.105 -27.889,21.322 0.149,1.459 0.126,1.558 -0.405,1.72 -2.427,0.738 -6.565,4.516 -9.103,8.309 -11.555,17.275 -14.425,47.818 -6.439,68.528 1.247,3.234 2.295,2.928 2.848,-0.832 0.484,-3.29 1.657,-7.87 3.225,-12.589 1.285,-3.868 2.041,-5.715 1.736,-4.246 -0.816,3.942 -0.769,15.712 0.105,26.303 1.22,14.787 0.909,21.727 -1.181,26.385 -1.577,3.514 0.674,3.029 6.317,-1.362 0.85,-0.661 1.585,-1.202 1.634,-1.202 0.674,0 0.676,26.705 0.002,30.707 l -0.136,0.807 H 33.347 c -6.584,0 -11.759,-0.096 -11.759,-0.218 0,-0.12 0.174,-0.633 0.386,-1.141 4.932,-11.805 5.599,-31.769 2.222,-66.507 -2.309,-23.745 -2.605,-27.934 -2.776,-39.33 -0.241,-16.025 0.834,-26.12 3.896,-36.592 8.581,-29.345 34.483,-48.144 59.193,-42.959 m 73.193,6.571 c 1.362,0.281 5.042,1.543 9.372,3.213 7.848,3.027 7.451,2.973 9.127,1.256 3.252,-3.333 7.947,-3.559 11.015,-0.53 2.072,2.045 2.248,3.599 1.223,10.8 -1.097,7.703 -1.624,6.361 9.571,24.383 9.456,15.223 9.932,16.089 10.568,19.231 1.869,9.223 -4.937,18.591 -10.987,15.122 -1.413,-0.811 -0.979,-0.279 -15.411,-18.856 -10.931,-14.069 -10.411,-13.578 -18.436,-17.382 -6.827,-3.236 -7.05,-3.483 -3.807,-4.225 1.241,-0.285 1.297,-0.27 6.328,1.619 7.2,2.704 5.604,1.341 19.112,16.32 5.996,6.65 11.209,12.248 11.584,12.44 4.732,2.418 7.904,-2.681 4.825,-7.757 -1.893,-3.121 -21.19,-23.371 -25.374,-26.626 -4.394,-3.419 -16.19,-9.496 -18.016,-9.281 -4.791,0.563 -11.746,6.84 -11.746,10.602 0,0.843 -0.548,0.497 -2.708,-1.711 -4.028,-4.119 -5.352,-7.352 -5.355,-13.082 -0.005,-11.256 8.066,-17.816 19.115,-15.536 m 65.471,7.44 26.275,7.893 0.672,1.838 c 1.944,5.312 6.825,12.165 10.681,14.995 1.429,1.049 1.419,1.091 -0.577,2.381 -4.983,3.22 -10.933,2.557 -16.824,-1.874 -1.836,-1.382 -2.796,-1.687 -3.4,-1.083 -0.348,0.348 -0.401,1.842 -0.073,2.045 0.378,0.234 1.68,4.124 2.039,6.094 0.523,2.868 0.408,11.999 -0.256,20.348 -1.18,14.823 -0.591,23.111 2.067,29.094 l 0.634,1.427 H 243.1 c -1.69,0 -3.589,-1.097 -5,-2.887 -1.479,-1.877 -2.644,-2.175 -3.349,-0.856 -0.342,0.638 0.07,9.075 0.601,12.303 1.697,10.325 6.509,18.658 17.928,31.039 3.339,3.622 3.266,3.179 0.628,3.79 -18.866,4.363 -32.503,-1.638 -34.831,-15.328 -0.307,-1.807 -0.753,-2.503 -1.604,-2.503 -1.199,0 -1.336,0.445 -1.724,5.583 -0.779,10.324 -5.24,19.391 -11.63,23.64 l -1.713,1.138 -1.389,-0.719 c -6.66,-3.448 -9.95,-11.661 -9.95,-24.836 0,-5.019 -0.132,-5.55 -1.373,-5.55 -0.818,0 -1.093,0.474 -2.205,3.801 -4.562,13.647 -15.808,18.056 -36.124,14.161 -2.836,-0.544 -2.836,-0.545 -0.2,-2.345 25.638,-17.511 39.725,-37.141 39.767,-55.409 l 0.011,-4.929 0.744,0.954 c 3.231,4.138 5.267,5.429 8.566,5.429 9.16,0 14.69,-13.983 9.56,-24.17 -0.49,-0.974 -4.763,-7.993 -9.495,-15.599 -10.649,-17.117 -9.928,-15.255 -8.863,-22.9 0.75,-5.387 0.492,-4.91 2.077,-3.843 1.387,0.933 3.706,1.752 5.721,2.019 0.684,0.091 1.243,0.269 1.243,0.396 0,0.127 -0.12,1.005 -0.267,1.953 -2.315,14.918 19.749,23.287 27.092,10.276 0.421,-0.747 0.839,-1.357 0.928,-1.355 0.09,0.001 1.437,0.225 2.995,0.498 2.643,0.462 2.862,0.468 3.288,0.083 1.131,-1.024 0.435,-1.54 -3.001,-2.223 -5.306,-1.054 -9.735,-2.651 -18.504,-6.671 -7.101,-3.256 -10.34,-4.53 -13.57,-5.339 -6.625,-1.659 -8.336,-3.916 -6.177,-8.146 0.662,-1.297 2.279,-2.499 3.37,-2.504 0.137,-0.001 12.072,3.551 26.523,7.891 m -17.929,6.957 c 3.779,1.578 8.268,3.708 8.353,3.964 0.464,1.393 -3.122,2.533 -4.82,1.531 -2.569,-1.516 -2.872,1.406 -0.453,4.359 3.618,4.415 12.15,3.131 14.048,-2.114 0.046,-0.129 0.866,0.033 1.822,0.36 0.955,0.327 1.767,0.597 1.805,0.6 0.28,0.027 -1.004,1.863 -2.125,3.038 -6.155,6.453 -17.685,3.474 -20.935,-5.408 -0.718,-1.963 -0.807,-7.301 -0.122,-7.301 0.057,0 1.149,0.437 2.427,0.971 m 150.581,27.108 c 13.737,7.877 21.343,43.123 14.604,67.67 -0.83,3.022 -0.953,3.078 -1.449,0.653 -2.839,-13.864 -11.481,-30.457 -19.189,-36.846 l -1.699,-1.407 -0.065,-2.958 c -0.101,-4.51 -1.125,-7.89 -3.214,-10.609 -1.122,-1.46 -0.842,-1.432 2.234,0.226 9.989,5.384 17.376,17.482 20.215,33.108 0.441,2.424 1.258,3.341 2.167,2.432 0.42,-0.42 0.38,-0.982 -0.328,-4.583 -3.654,-18.572 -12.026,-30.721 -24.521,-35.583 l -1.762,-0.685 1.45,-0.641 c 4.289,-1.897 8.37,-6.367 9.593,-10.506 0.372,-1.257 0.269,-1.243 1.964,-0.271 m -308.446,1.016 c 1.216,4.115 4.942,8.211 9.377,10.308 l 1.513,0.716 -2.025,0.827 c -12.426,5.077 -20.727,17.326 -24.242,35.772 -0.629,3.301 -0.628,4.084 0.008,4.424 0.953,0.51 1.381,-0.047 1.849,-2.409 3.483,-17.579 11.503,-29.834 22.532,-34.431 l 0.932,-0.389 -0.886,1.161 c -2.163,2.833 -3.067,5.745 -3.264,10.51 l -0.139,3.349 -1.481,1.117 c -7.321,5.52 -15.476,20.944 -19.189,36.292 -0.388,1.604 -0.78,2.776 -0.872,2.605 -0.336,-0.628 -1.71,-6.348 -2.19,-9.12 -3.911,-22.561 2.822,-50.747 14.29,-59.829 2.796,-2.214 3.36,-2.349 3.787,-0.903 m 301.226,33.289 c 11.082,8.527 14.257,21.468 11.971,48.783 -0.984,11.763 -0.964,19.085 0.066,23.053 0.394,1.522 0.353,1.531 -1.354,0.267 -10.731,-7.946 -15.343,-16.513 -17.696,-32.874 -0.471,-3.275 -1.043,-6.501 -1.271,-7.167 l -0.413,-1.213 0.773,-1.677 c 2.537,-5.504 1.757,-12.458 -1.918,-17.114 l -0.881,-1.117 1.182,1.117 c 4.965,4.691 8.455,15.709 11.304,35.694 1.5,10.523 2.664,13.844 4.783,13.639 1.065,-0.102 1.204,-0.919 0.332,-1.955 -1.094,-1.3 -1.925,-5.155 -3.742,-17.353 -2.388,-16.033 -4.349,-22.894 -8.192,-28.67 -1.344,-2.019 -3.886,-4.631 -5.003,-5.14 -0.831,-0.379 -0.74,-0.524 0.722,-1.135 2.986,-1.249 6.454,-4.702 7.428,-7.396 0.371,-1.027 0.211,-1.048 1.909,0.258 m -293.727,1.202 c 1.241,2.368 4.148,5.171 6.542,6.308 1.922,0.913 1.931,0.922 1.347,1.307 -4.062,2.675 -6.938,7.071 -9.263,14.159 -1.707,5.202 -2.373,8.537 -4.511,22.581 -1.539,10.108 -2.234,13.129 -3.339,14.52 -0.855,1.076 -0.878,1.189 -0.351,1.715 2.079,2.079 3.953,-2.403 5.441,-13.009 2.811,-20.031 6.441,-31.547 11.422,-36.229 l 0.924,-0.868 -0.889,1.255 c -3.597,5.079 -4.205,11.954 -1.528,17.284 0.623,1.239 0.628,1.295 0.232,2.284 -0.224,0.557 -0.79,3.693 -1.26,6.968 -2.395,16.729 -6.558,24.6 -17.434,32.97 -2.154,1.658 -2.069,1.67 -1.628,-0.217 1.046,-4.487 1.04,-9.202 -0.03,-23.82 -2.025,-27.668 0.731,-38.698 11.928,-47.739 1.569,-1.267 1.44,-1.296 2.397,0.531 m 282.199,52.047 c 0.719,8.3 1.94,16.999 3.639,25.931 1.062,5.58 4.86,23.192 5.338,24.752 0.122,0.397 -0.128,0.434 -2.952,0.434 h -3.085 l -0.651,-1.799 c -2.72,-7.522 -7.426,-28.792 -9.456,-42.742 -0.338,-2.32 -0.734,-4.858 -0.881,-5.639 -0.213,-1.128 -0.189,-1.802 0.116,-3.277 0.914,-4.427 0.106,-8.287 -2.43,-11.61 l -0.861,-1.128 2.148,-0.118 c 2.548,-0.14 4.833,-0.853 6.889,-2.151 l 1.461,-0.923 0.164,6.84 c 0.09,3.762 0.343,8.905 0.561,11.43 M 67.971,172.001 c 1.797,0.843 4.282,1.437 6.035,1.444 l 1.177,0.004 -1.089,1.59 c -2.188,3.197 -2.939,7.293 -2.039,11.123 0.351,1.496 0.354,1.874 0.027,3.6 -0.202,1.061 -0.59,3.548 -0.863,5.525 -1.652,11.966 -6.511,34.133 -9.112,41.567 l -0.693,1.98 -3.039,0.069 c -2.082,0.048 -3.04,-0.016 -3.04,-0.202 0,-0.15 0.72,-3.531 1.599,-7.514 5.461,-24.721 7.332,-37.899 7.75,-54.573 l 0.16,-6.389 0.767,0.514 c 0.421,0.283 1.483,0.851 2.36,1.262 m 272.484,9.075 c 1.803,8.967 6.05,17.184 11.741,22.716 l 1.476,1.436 -0.223,8.862 c -0.366,14.519 -0.199,21.942 0.548,24.434 0.119,0.396 -0.121,0.434 -2.73,0.434 h -2.861 l -0.245,-0.931 c -3.251,-12.335 -7.616,-38.187 -8.81,-52.171 -0.87,-10.196 -0.786,-17.483 0.124,-10.736 0.243,1.807 0.685,4.487 0.98,5.956 m -278.417,2.671 c -0.932,13.287 -4.439,35.337 -8.131,51.117 l -0.929,3.97 -2.827,0.07 -2.827,0.071 0.182,-1.436 c 0.367,-2.906 0.515,-9.288 0.352,-15.206 -0.092,-3.344 -0.176,-8.425 -0.188,-11.291 l -0.021,-5.211 2.071,-2.169 c 6.599,-6.914 10.381,-15.782 11.986,-28.104 l 0.453,-3.474 0.078,3.847 c 0.043,2.115 -0.046,5.632 -0.199,7.816 m 126.301,1.551 c 0.002,1.637 0.651,5.786 1.243,7.947 l 0.494,1.805 -0.644,1.271 c -0.354,0.699 -1.815,4.744 -3.247,8.989 -5.817,17.244 -9.702,24.904 -15.714,30.98 l -2.639,2.668 h -1.501 -1.5 l -0.805,-1.799 c -4.795,-10.719 -4.403,-27.191 0.944,-39.665 l 0.488,-1.138 2.32,-0.153 c 2.372,-0.156 4.834,-0.601 7.024,-1.269 1.558,-0.475 1.546,-0.884 0.12,3.835 -3.677,12.167 -8.513,32.553 -7.875,33.191 1.047,1.047 1.488,0.34 2.682,-4.304 2.854,-11.096 6.464,-22.613 10.081,-32.167 1.37,-3.618 1.389,-3.65 2.826,-4.778 1.535,-1.207 4.254,-4.405 4.906,-5.772 0.543,-1.138 0.795,-1.025 0.797,0.359 m 38.12,7.858 c 1.046,0.612 2.751,1.417 3.789,1.789 1.037,0.371 1.92,0.698 1.961,0.727 0.358,0.251 1.119,12.36 1.136,18.1 0.034,11.586 -1.659,18.55 -5.729,23.573 -2.339,2.885 -3.918,2.113 -7.909,-3.864 -4.519,-6.77 -6.891,-14.481 -8.291,-26.951 l -0.507,-4.513 1.411,-2.063 c 1.565,-2.29 3.198,-5.62 4.054,-8.267 0.799,-2.474 0.819,-2.459 1.684,1.176 1.887,7.93 3.713,20.421 4.763,32.571 0.53,6.129 0.673,6.538 2.028,5.812 0.503,-0.269 0.524,-0.408 0.38,-2.552 -1.35,-20.076 -1.686,-24.234 -2.415,-29.919 -0.42,-3.275 -1.095,-7.134 -1.652,-9.445 -0.122,-0.505 0.18,-0.311 1.622,1.046 0.975,0.916 2.628,2.167 3.675,2.78 m 102.071,7.216 c 1.524,8.066 1.368,6.544 2.241,21.961 0.405,7.165 0.807,13.836 0.893,14.826 l 0.156,1.799 h -3.975 -3.975 l -0.152,-2.916 c -1.149,-21.938 -3.826,-35.37 -8.19,-41.087 l -0.885,-1.158 h 1.33 c 3.326,0 7.036,-1.497 9.211,-3.715 l 1.239,-1.264 0.445,2.552 c 0.244,1.403 0.992,5.454 1.662,9.002 M 78.498,192.665 c 1.727,1.002 4.011,1.639 6.093,1.697 l 1.931,0.055 -0.926,1.241 c -4.248,5.69 -7.132,19.895 -8.073,39.764 l -0.167,3.536 h -3.971 -3.97 l 0.154,-1.923 c 0.084,-1.058 0.493,-7.897 0.909,-15.199 l 0.756,-13.275 1.344,-7.196 c 0.74,-3.958 1.529,-8.23 1.754,-9.493 l 0.41,-2.296 1.362,1.245 c 0.75,0.685 1.827,1.515 2.394,1.844 m 74.356,2.65 c 1.023,0.172 1.887,0.327 1.919,0.345 0.032,0.017 -0.323,0.934 -0.788,2.038 -1.087,2.577 -1.789,4.812 -3.759,11.979 -0.882,3.208 -2.223,7.774 -2.981,10.148 -1.368,4.287 -1.374,4.32 -0.891,4.803 1.168,1.169 1.701,0.269 3.56,-6.018 2.678,-9.058 5.332,-16.344 7.359,-20.207 l 1.164,-2.218 2.106,0.064 c 2.61,0.079 2.468,-0.303 1.275,3.427 -1.421,4.442 -2.055,6.984 -3.506,14.038 -2.201,10.705 -3.665,13.92 -9.186,20.178 -3.468,3.931 -4.903,5.066 -6.402,5.066 h -1.244 l -0.282,-1.303 c -1.583,-7.314 -1.574,-17.456 0.021,-25.362 1.679,-8.319 6.606,-17.838 9.018,-17.422 0.415,0.072 1.593,0.272 2.617,0.444 m 162.025,4.561 c 3.782,7.58 5.739,18.146 6.607,35.67 l 0.169,3.412 h -4.705 -4.705 l -1.191,-9.74 c -0.655,-5.356 -1.546,-12.277 -1.979,-15.38 l -0.788,-5.641 1.168,-1.151 c 2.733,-2.692 3.813,-6.933 2.805,-11.016 -0.317,-1.284 1.093,0.787 2.619,3.846 m -59.585,-1.923 c 6.983,12.258 9.548,29.066 5.917,38.772 l -0.789,2.109 -1.442,0.075 -1.442,0.074 -2.509,-2.184 c -10.626,-9.247 -18.17,-23.518 -20.076,-37.975 -0.359,-2.721 -0.425,-2.614 1.419,-2.273 0.808,0.149 2.642,0.345 4.075,0.434 l 2.605,0.161 1.305,2.606 c 1.98,3.954 4.007,9.252 6.787,17.742 5.422,16.558 4.986,15.376 5.701,15.459 1.468,0.171 1.435,-0.281 -0.465,-6.351 -0.97,-3.099 -2.543,-8.37 -3.497,-11.714 -2.062,-7.23 -3.605,-11.914 -5.102,-15.489 l -1.1,-2.625 0.915,-0.024 c 0.503,-0.013 1.976,-0.22 3.272,-0.46 1.297,-0.24 2.545,-0.452 2.773,-0.472 0.28,-0.025 0.822,0.676 1.653,2.135 M 88.853,197.185 c -0.943,3.399 0.195,7.701 2.755,10.407 l 1.231,1.302 -1.007,7.526 c -0.989,7.398 -2.749,21.62 -2.75,22.228 0,0.237 -1.109,0.31 -4.715,0.31 h -4.714 v -1.431 c 0,-10.173 2.32,-25.997 4.828,-32.925 1.661,-4.588 5.302,-10.765 4.372,-7.417 m 104.015,3.479 c 0.649,1.011 1.961,2.596 2.915,3.522 l 1.736,1.685 0.001,2.089 c 0.002,1.149 0.115,3.039 0.252,4.199 0.367,3.1 0.981,14.737 0.984,18.642 0.003,3.554 0.163,4.088 1.164,3.895 1.158,-0.223 1.456,-6.608 0.698,-14.969 -0.596,-6.587 -0.431,-12.225 0.35,-11.888 1.467,0.634 3.286,-0.05 6.228,-2.342 l 1.613,-1.256 0.208,1.787 c 0.892,7.653 -1.937,23.198 -5.449,29.952 -1.664,3.2 -1.387,3.008 -4.219,2.925 l -2.443,-0.071 -1.433,-1.985 c -5.461,-7.567 -8.471,-18.714 -7.404,-27.42 0.597,-4.874 2.774,-12.042 3.357,-11.049 0.144,0.245 0.792,1.273 1.442,2.284 m 113.437,9.696 c 0.29,1.4 3.618,27.524 3.62,28.412 0,0.102 -2.28,0.186 -5.068,0.186 h -5.069 l -0.131,-1.303 c -0.072,-0.716 -0.255,-2.978 -0.407,-5.025 -0.665,-8.979 -2.187,-16.815 -4.111,-21.165 -0.736,-1.665 -0.754,-1.644 0.91,-1.059 2.775,0.975 6.416,0.882 8.79,-0.225 1.307,-0.61 1.303,-0.611 1.466,0.179 m -208.073,1.053 c 1.842,0.434 5.491,0.206 7.185,-0.448 0.808,-0.312 1.273,-0.396 1.194,-0.217 -2.736,6.195 -3.905,12.331 -5.012,26.287 l -0.153,1.923 h -5.065 c -2.786,0 -5.066,-0.084 -5.065,-0.186 0.003,-0.805 3.445,-27.822 3.604,-28.296 0.082,-0.243 0.328,-0.207 1.043,0.153 0.514,0.258 1.535,0.611 2.269,0.784 m 195.329,2.554 c 1.967,5.1 3.121,11.807 3.682,21.393 0.104,1.774 0.146,3.309 0.094,3.412 -0.053,0.102 -2.309,0.186 -5.015,0.186 h -4.919 l -0.164,-1.923 c -0.365,-4.262 -1.171,-11.744 -1.514,-14.064 -0.201,-1.355 -0.365,-2.583 -0.365,-2.729 10e-4,-0.147 0.61,-0.585 1.355,-0.974 2.717,-1.42 4.906,-4.312 5.255,-6.943 0.204,-1.539 0.47,-1.264 1.591,1.642 m -56.849,0.053 c 2.812,7.615 7.894,15.441 14.06,21.65 l 3.264,3.288 h -12.398 c -6.82,0 -12.362,-0.084 -12.316,-0.186 0.046,-0.103 0.636,-1.023 1.312,-2.045 3.16,-4.779 4.835,-12.087 4.877,-21.275 0.011,-2.25 0.099,-3.995 0.198,-3.878 0.098,0.117 0.549,1.218 1.003,2.446 m -127.39,-0.472 c 0.704,2.705 2.868,5.305 5.458,6.559 1.08,0.522 1.14,0.603 0.993,1.329 -0.298,1.476 -1.102,8.243 -1.53,12.869 l -0.429,4.653 h -5.066 -5.065 l 0.137,-1.551 c 0.076,-0.853 0.205,-2.668 0.287,-4.032 0.471,-7.861 1.798,-14.57 3.892,-19.678 0.854,-2.084 0.82,-2.08 1.323,-0.149 m 76.531,2.333 c 0.022,6.063 3.079,15.035 7.252,21.278 l 1.203,1.799 H 182.6 170.892 l 1.513,-1.551 c 4.217,-4.324 8.249,-11.17 11.602,-19.699 1.526,-3.88 1.838,-4.189 1.846,-1.827 m 25.557,3.63 c 1.575,6.549 4.563,12.851 8.485,17.896 l 1.205,1.551 h -8.3 -8.3 l 1.109,-2.171 c 1.99,-3.895 3.981,-10.994 4.839,-17.249 0.164,-1.196 0.342,-2.131 0.395,-2.078 0.054,0.054 0.309,0.976 0.567,2.051 m 65.151,0.259 c 1.229,0.568 1.904,0.7 3.991,0.781 l 2.511,0.098 0.528,3.882 c 0.539,3.967 1.104,9.066 1.385,12.509 l 0.157,1.928 -5.213,-0.067 -5.212,-0.067 -0.119,-5.459 c -0.065,-3.003 -0.285,-6.967 -0.489,-8.809 -0.204,-1.843 -0.444,-4.117 -0.534,-5.055 l -0.163,-1.705 0.84,0.64 c 0.462,0.353 1.505,0.948 2.318,1.324 m -148.902,-0.105 c -0.653,5.575 -0.899,8.829 -1.03,13.648 l -0.154,5.645 h -5.173 c -5.027,0 -5.173,-0.014 -5.173,-0.502 0,-1.078 1.013,-10.282 1.486,-13.5 0.275,-1.867 0.499,-3.428 0.499,-3.469 0,-0.041 1.033,-0.137 2.295,-0.213 2.57,-0.155 4.553,-0.781 6.054,-1.91 1.265,-0.952 1.34,-0.933 1.196,0.301 m 144.289,7.837 c 0.143,3.047 0.26,6.872 0.26,8.498 v 2.958 h -4.714 c -2.593,0 -4.715,-0.039 -4.715,-0.085 0,-0.047 0.23,-0.745 0.51,-1.551 1.176,-3.381 1.51,-5.345 1.652,-9.699 l 0.138,-4.263 1.234,-0.403 c 1.657,-0.542 2.945,-1.387 3.948,-2.587 l 0.831,-0.995 0.297,1.293 c 0.164,0.711 0.415,3.786 0.559,6.834 m -139.505,-5.088 c 1.067,0.738 3.659,1.655 4.676,1.655 0.573,0 0.598,0.071 0.601,1.675 0.005,3.345 0.603,8.725 1.378,12.407 l 0.17,0.807 h -5.118 -5.118 l 0.006,-3.784 c 0.008,-4.927 0.407,-12.36 0.753,-14.028 l 0.273,-1.315 0.682,0.941 c 0.376,0.517 1.139,1.256 1.697,1.642 m 204.155,13.12 c 0.496,1.542 0.961,2.948 1.034,3.125 0.104,0.25 -0.297,0.304 -1.814,0.248 l -1.947,-0.073 -0.415,-6.7 c -0.673,-10.867 -0.675,-10.857 0.901,-4.665 0.737,2.894 1.745,6.523 2.241,8.065 M 67.881,230.193 c -0.222,3.933 -0.461,7.515 -0.531,7.958 l -0.127,0.807 h -1.726 c -0.949,0 -1.725,-0.069 -1.725,-0.153 0,-0.084 0.432,-1.508 0.961,-3.164 0.529,-1.656 1.506,-5.206 2.171,-7.889 0.666,-2.684 1.248,-4.841 1.295,-4.795 0.047,0.046 -0.096,3.302 -0.318,7.236 m 91.433,-0.871 c 0.599,2.941 1.531,5.974 2.485,8.085 l 0.701,1.551 h -7.573 -7.574 l 2.152,-2.295 c 4.039,-4.309 6.939,-8.665 8.465,-12.718 l 0.467,-1.24 0.188,2.082 c 0.104,1.146 0.414,3.186 0.689,4.535 m 39.632,78.556 0.062,66.564 h -11.912 -11.912 l 0.063,-28.846 0.063,-28.847 2.962,-0.07 c 1.664,-0.039 3.105,-0.189 3.288,-0.34 0.264,-0.22 0.326,-4.296 0.326,-21.58 v -21.31 h 2.556 c 2.62,0 3.151,-0.172 3.151,-1.02 -3.20915,-5.81005 -5.84386,-11.74641 -9.441,-17.33751 h -22.805 -23.151 c 0,0 -9.615,16.77151 -9.615,17.27051 0,0.928 0.479,1.087 3.275,1.087 h 2.68 l -0.003,14.951 -0.003,14.95 -0.556,1.153 c -2.365,4.914 -55.152,93.685 -55.224,92.869 -0.043,-0.493 0.097,-20.677 0.311,-44.853 0.215,-24.177 0.39,-44.768 0.389,-45.757 l -0.001,-1.799 h 7.53 c 7.986,0 8.741,-0.118 8.288,-1.294 -0.164,-0.426 -22.475,-34.192 -22.96,-34.748 -0.357,-0.41 -2.152,-0.435 -31.11,-0.435 H 4.467 v -13.482 c 0,-7.415 0.074,-13.557 0.165,-13.648 0.091,-0.091 43.835,-0.138 97.209,-0.103 l 97.042,0.15065 0.063,66.47435 m 196.518,-31.885 c -0.102,37.465 -0.072,36.555 -1.555,47.51 -12.748,94.175 -95.061,168.26 -188.45,169.614 l -4.094,0.059 -0.064,-125.558 c -0.035,-69.057 0.055,-126.21435 0.055,-126.21435 0,0 19.754,0.0353 97.159,0.0353 h 97.043 l -0.094,34.554 M 279.109,256.895 c -14.205,9.106 -75.908,49.511 -76.008,49.772 -0.329,0.858 16.726,20.448 17.7,20.33 1.307,-0.158 1.256,-0.649 -0.526,-5.065 -0.919,-2.278 -1.642,-4.169 -1.606,-4.203 0.036,-0.033 13.048,6.153 28.915,13.748 l 28.85,13.808 0.894,1.337 c 0.886,1.324 0.891,1.346 0.494,2.177 -0.22,0.463 -14.04,26.716 -30.711,58.341 -34.439,65.331 -31.975,60.535 -31.975,62.226 0,5.872 6.986,8.83 11.027,4.669 0.498,-0.513 11.882,-21.852 30.422,-57.03 16.295,-30.916 29.7,-56.211 29.789,-56.211 0.09,0 9.504,14.33 20.921,31.844 11.418,17.515 21.119,32.193 21.558,32.618 4.955,4.794 13.386,-0.404 11.181,-6.894 -0.311,-0.917 -7.945,-12.84 -23.275,-36.351 -12.547,-19.243 -22.818,-35.173 -22.825,-35.4 -0.018,-0.557 34.427,-65.94 34.664,-65.799 0.328,0.195 0.202,1.905 -0.228,3.105 -0.515,1.438 -0.437,1.55 1.963,2.798 9.348,4.861 20.54,15.218 27.228,25.196 13.051,19.469 16.558,43.197 10.286,69.603 -1.344,5.659 -1.297,6.59 0.303,5.976 0.931,-0.358 6.041,-12.265 8.754,-20.397 14.716,-44.116 1.231,-81.022 -37.084,-101.488 l -2.736,-1.461 0.216,-1.159 c 1.156,-6.215 -7.891,-10.052 -11.477,-4.868 -0.453,0.655 -0.823,0.924 -1.282,0.931 -0.549,0.008 -0.775,0.273 -1.534,1.808 -1.003,2.027 -1.643,2.532 -4.024,3.169 l -1.489,0.398 -1.209,2.466 c -1.708,3.484 -1.684,3.972 0.249,4.934 l 1.522,0.758 -15.417,29.237 c -9.965,18.897 -15.439,29.034 -15.477,28.66 -0.032,-0.317 -0.392,-11.855 -0.799,-25.639 -0.407,-13.784 -0.802,-26.514 -0.878,-28.288 l -0.139,-3.226 3.472,3.566 c 2.502,2.57 3.584,3.523 3.873,3.412 0.221,-0.085 0.444,-0.154 0.497,-0.154 0.911,0 -8.371,-21.915 -10.378,-24.504 -0.449,-0.579 -1.292,-0.294 -3.701,1.25 m -98.34,7.03 c 2.047,3.769 3.805,7.03193 3.805,7.03193 H 155.087 125.6 c 0,0 1.813,-3.28193 3.929,-7.03693 l 3.846,-6.828 21.836,-0.009 21.836,-0.01 3.722,6.852 m 151.659,-5.844 c 1.495,0.567 2.791,2.481 2.802,4.14 0.007,0.986 -0.318,1.024 -1.926,0.224 -0.643,-0.321 -2.231,-1.011 -3.527,-1.535 -1.297,-0.524 -2.405,-0.988 -2.462,-1.032 -0.209,-0.157 1.116,-1.389 1.841,-1.711 0.909,-0.404 2.333,-0.442 3.272,-0.086 m -47.436,7.3 c 1.842,3.954 3.413,7.393 3.491,7.641 0.079,0.248 -1.78,-1.508 -4.132,-3.903 -2.351,-2.395 -4.442,-4.355 -4.645,-4.355 -0.816,0 -6.257,3.785 -6.257,4.354 0,0.301 1.067,3.141 2.372,6.312 1.304,3.171 2.332,5.805 2.283,5.854 -0.048,0.048 -2.147,-1.974 -4.664,-4.494 -2.735,-2.738 -4.767,-4.582 -5.049,-4.582 -0.879,0 -7.101,4.211 -7.1,4.805 0,0.292 1.065,3.142 2.365,6.333 1.301,3.192 2.322,5.845 2.27,5.898 -0.052,0.052 -2.088,-1.945 -4.525,-4.438 -4.703,-4.812 -4.919,-4.986 -5.694,-4.587 -2.328,1.198 -6.575,4.258 -6.575,4.737 0,0.296 1.06,3.187 2.357,6.425 1.296,3.238 2.357,5.93 2.357,5.982 0,0.053 -2.036,-1.985 -4.525,-4.527 -5.169,-5.282 -4.963,-5.111 -5.707,-4.725 -2.008,1.042 -6.641,4.31 -6.641,4.685 0,0.346 4.36,11.301 4.886,12.278 0.078,0.144 -2.04,-1.904 -4.706,-4.551 -3.595,-3.57 -4.965,-4.781 -5.305,-4.69 -0.962,0.255 -7.034,4.465 -7.034,4.877 0,0.229 1.061,3.066 2.357,6.304 1.297,3.237 2.358,5.959 2.358,6.048 0,0.088 -2.086,-1.986 -4.634,-4.61 -3.62,-3.727 -4.747,-4.748 -5.149,-4.667 -0.886,0.18 -7.091,4.377 -7.091,4.797 0,0.215 1.004,2.858 2.231,5.873 1.228,3.016 2.203,5.512 2.167,5.547 -0.035,0.036 -2.557,-2.79 -5.603,-6.278 -4.58,-5.246 -5.481,-6.398 -5.206,-6.662 0.589,-0.569 75.015,-48.984 75.211,-48.927 0.104,0.031 1.696,3.291 3.537,7.246 m 42.483,-3.078 c 3.294,1.304 6.539,2.78 6.453,2.934 -0.831,1.478 -2.422,5.137 -2.364,5.437 0.085,0.439 0.145,0.473 3.923,2.224 17.857,8.275 32.206,26.094 37.308,46.333 3.476,13.79 3.533,32.023 0.146,47.246 l -0.474,2.133 0.136,-1.592 c 1.862,-21.82 -2.328,-39.886 -12.975,-55.941 -6.845,-10.321 -17.458,-20.337 -27.285,-25.751 l -1.776,-0.979 0.25,-0.908 c 1.142,-4.135 -2.427,-8.335 -10.389,-12.228 l -3.02,-1.477 0.759,-1.709 c 0.757,-1.704 0.764,-1.711 2.156,-2.098 1.858,-0.516 3.351,-1.64 4.182,-3.147 0.808,-1.464 0.573,-1.426 2.97,-0.477 m 11.677,5.707 c 34.729,19.337 48.258,51.621 37.791,90.179 -0.617,2.271 -0.615,2.055 0.027,-3.226 4.504,-37.088 -10.69,-69.146 -39.609,-83.572 -1.647,-0.822 -3.042,-1.534 -3.102,-1.583 -0.11,-0.092 1.5,-3.555 1.653,-3.555 0.046,0 1.504,0.791 3.24,1.757 m -56.13,3.082 c 0.126,0.498 2.075,61.975 1.97,62.102 -0.031,0.037 -1.524,-2.192 -3.318,-4.954 l -3.262,-5.021 -0.004,-1.994 c -0.003,-1.097 -0.225,-8.861 -0.493,-17.255 -0.269,-8.393 -0.49,-16.368 -0.492,-17.723 l -0.004,-2.462 1.973,1.919 c 1.763,1.716 2.028,1.89 2.495,1.64 0.915,-0.489 0.831,-0.807 -2.094,-7.952 -2.735,-6.684 -2.87,-7.095 -2.87,-8.779 v -1.766 l 1.299,-0.798 1.298,-0.799 1.689,1.673 c 0.928,0.92 1.744,1.896 1.813,2.169 m -207.669,15.26 c 5.649,8.53 10.382,15.704 10.519,15.943 0.237,0.413 -1.765,0.435 -40.578,0.435 H 4.467 v -16.006 -16.006 l 30.307,0.063 30.308,0.063 10.271,15.508 m 104.487,7.631 -0.063,20.533 h -2.234 -2.233 l -0.022,-11.042 c -0.028,-13.307 -0.304,-15.031 -3.108,-19.368 -9.657,-14.942 -32.462,-10.724 -36.292,6.713 -0.125,0.568 -4.639,8.501 -5.147,9.045 -0.128,0.137 -0.22,-5.322 -0.22,-13.09 v -13.325 h 24.691 24.692 l -0.064,20.534 m 145.428,-17.412 c 0.91,0.693 1.688,1.429 1.727,1.634 0.086,0.441 -101.512,193.359 -102.279,194.213 -2.762,3.075 -7.723,0.769 -7.284,-3.387 0.098,-0.921 100.259,-191.737 102.504,-195.279 0.26,-0.409 2.989,1.034 5.332,2.819 m -53.567,1.458 3.333,3.339 0.571,18.187 c 0.315,10.003 0.545,18.602 0.511,19.11 -0.057,0.863 -0.772,-0.169 -10.839,-15.633 -5.927,-9.105 -11.112,-16.989 -11.522,-17.518 -0.848,-1.095 -0.887,-1.028 1.315,-2.332 l 1.1,-0.652 6.345,6.502 c 6.448,6.608 6.703,6.815 7.503,6.091 0.618,-0.56 0.831,0.109 -2.896,-9.064 -1.843,-4.534 -3.35,-8.323 -3.35,-8.421 0,-0.17 4.209,-2.945 4.47,-2.947 0.07,-10e-4 1.627,1.501 3.459,3.338 m -117.445,1.686 c -0.085,1.399 -0.228,4.804 -0.318,7.568 -0.135,4.129 -0.227,5.025 -0.521,5.025 -0.535,0 -14.053,-3.997 -14.305,-4.229 -0.268,-0.249 1.214,-2.904 2.559,-4.58 2.709,-3.378 8.013,-6.251 11.651,-6.31 l 1.088,-0.018 -0.154,2.544 m 7.223,-1.588 c 3.428,1.251 6.291,3.428 8.373,6.364 0.957,1.351 2.217,3.572 2.051,3.616 -0.037,0.01 -3.361,0.995 -7.387,2.189 l -7.32,2.171 -0.154,-2.437 c -0.085,-1.341 -0.237,-4.799 -0.338,-7.686 l -0.183,-5.249 1.492,0.156 c 0.82,0.085 2.38,0.48 3.466,0.876 m 106.807,33.536 c 8.66,13.306 15.827,24.332 15.927,24.501 0.167,0.284 -4.492,9.494 -4.803,9.494 -0.281,0 -35.332,-54.006 -35.43,-54.591 -0.075,-0.446 1.686,1.21 6.267,5.893 6.13,6.267 6.863,6.873 7.52,6.216 0.513,-0.513 0.36,-1.031 -2.21,-7.454 -3.492,-8.728 -3.511,-8.779 -3.25,-8.501 0.128,0.136 7.318,11.135 15.979,24.442 M 147.173,293.62 c 0.19,0.076 -1.874,0.146 -4.587,0.157 l -4.933,0.02 0.17,-1.506 c 0.094,-0.828 0.227,-1.652 0.295,-1.83 0.112,-0.293 2.062,0.388 9.055,3.159 m 25.611,-2.739 c 0.073,0.307 0.21,1.089 0.303,1.737 l 0.17,1.179 -4.929,-0.02 c -2.71,-0.011 -4.817,-0.07 -4.68,-0.132 1.377,-0.627 8.284,-3.274 8.596,-3.295 0.23,-0.016 0.465,0.215 0.54,0.531 m 81.279,20.124 c 6.041,9.26 10.947,16.87 10.904,16.913 -0.043,0.042 -7.576,-3.507 -16.739,-7.887 l -16.66,-7.964 -2.039,-5.103 c -1.122,-2.807 -2.092,-5.236 -2.157,-5.398 -0.108,-0.269 3.873,-3.055 4.366,-3.055 0.114,0 3.034,2.848 6.49,6.328 6.253,6.297 6.872,6.786 7.628,6.029 0.49,-0.49 0.427,-0.68 -3.061,-9.198 -1.847,-4.512 -3.271,-8.281 -3.164,-8.376 0.108,-0.095 0.636,-0.464 1.174,-0.821 l 0.978,-0.648 0.649,1.172 c 0.357,0.644 5.591,8.748 11.631,18.008 M 152.287,296.353 c -0.104,0.27 -7.53,12.041 -7.754,12.29 -0.2,0.222 -1.579,-0.984 -2.779,-2.432 -2.141,-2.582 -4.02,-7.008 -4.033,-9.499 l -0.004,-0.682 h 7.347 c 5.929,0 7.323,0.062 7.223,0.323 m 20.774,0.731 c -0.253,1.831 -1.115,4.469 -2.032,6.222 -0.793,1.514 -4.038,5.379 -4.518,5.379 -0.14,0 -6.448,-9.686 -8.025,-12.323 -0.163,-0.274 1.101,-0.332 7.261,-0.332 h 7.46 l -0.146,1.054 m -37.577,8.375 v 9.181 h -2.482 -2.481 v -5.073 -5.074 l 2.413,-4.107 c 1.327,-2.26 2.443,-4.108 2.481,-4.108 0.038,0 0.069,4.131 0.069,9.181 m 24.596,-1.448 c 5.135,6.835 4.972,6.132 1.72,7.38 -3.655,1.404 -7.804,1.582 -11.356,0.486 -1.76,-0.542 -4.042,-1.598 -4.042,-1.87 0,-0.255 8.791,-11.971 8.991,-11.982 0.1,-0.006 2.209,2.688 4.687,5.986 m -21.679,1.14 c 2.54,4.128 6.348,7.095 11.103,8.651 l 1.737,0.568 -6.886,0.011 -6.886,0.011 v -5.211 c 0,-2.866 0.046,-5.211 0.103,-5.211 0.056,0 0.429,0.532 0.829,1.181 m 34.8,4.03 v 5.211 l -6.886,-0.018 -6.886,-0.017 1.489,-0.429 c 4.538,-1.308 9.192,-4.842 11.415,-8.667 0.409,-0.704 0.772,-1.283 0.806,-1.286 0.034,-0.003 0.062,2.34 0.062,5.206 m 47.702,0.208 3.539,1.697 3.912,4.01 c 2.95,3.024 4.062,4.011 4.52,4.011 1.03,0 1.19,-0.74 0.517,-2.392 -0.326,-0.8 -0.564,-1.484 -0.528,-1.52 0.035,-0.036 7.862,3.663 17.392,8.219 l 17.328,8.286 3.196,4.896 c 1.758,2.693 3.161,4.924 3.119,4.957 -0.107,0.083 -56.293,-26.827 -56.553,-27.086 -0.173,-0.173 -2.209,-4.955 -2.209,-5.189 0,-0.067 2.046,-1.552 2.169,-1.575 0.033,-0.006 1.652,0.753 3.598,1.686 m -92.367,2.991 c 0,4.641 -0.34,4.245 3.645,4.245 2.382,0 2.837,0.06 2.723,0.356 -0.075,0.196 -5.406,9.939 -11.847,21.65 -6.441,11.712 -12.107,22.02 -12.591,22.907 -0.484,0.888 -4.724,8.536 -9.423,16.998 -4.698,8.462 -8.964,16.166 -9.479,17.122 -0.515,0.955 -5.024,9.106 -10.021,18.114 l -9.085,16.377 0.026,-9.802 c 0.014,-5.39 0.097,-11.644 0.185,-13.895 l 0.16,-4.095 27.667,-46.955 c 15.217,-25.826 27.752,-46.958 27.854,-46.96 0.102,-0.003 0.186,1.769 0.186,3.938 m 43.32,4.928 c -1.199,2.237 -16.191,26.196 -16.39,26.191 -0.252,-0.006 -16.756,-26.254 -16.756,-26.648 0,-0.133 6.872,-0.226 16.755,-0.226 h 16.756 l -0.365,0.683 m 1.285,41.552 -0.064,13.202 -8.05,-12.881 c -4.428,-7.085 -8.057,-13.054 -8.065,-13.265 -0.008,-0.21 3.615,-6.267 8.05,-13.46 l 8.065,-13.077 0.064,13.139 c 0.035,7.227 0.035,19.081 0,26.342 m -27.143,-26.168 c 4.453,7.13 8.096,13.07 8.096,13.198 0,0.263 -16.032,26.305 -16.431,26.691 -0.178,0.171 -0.209,-4.219 -0.102,-14.144 0.086,-7.916 0.156,-19.91 0.156,-26.655 0,-6.744 0.042,-12.215 0.093,-12.158 0.051,0.057 3.735,5.937 8.188,13.068 m -11.903,-9.181 c -0.056,0.239 -1.833,10.252 -3.949,22.252 -2.116,12 -3.875,21.837 -3.908,21.861 -0.268,0.194 -12.461,-7.061 -12.433,-7.398 0.018,-0.224 3.637,-6.971 8.043,-14.994 13.4,-24.401 12.502,-22.807 12.247,-21.721 m -99.852,39.02 c 0,39.343 0.038,38.012 -1.055,36.787 -2.12,-2.378 -11.043,-20.112 -14.58,-28.977 L 17.37,367.238 V 346.274 325.31 h 8.436 8.437 v 37.221 m 28.723,0.31 0.063,37.407 h -8.562 -8.561 v -37.472 -37.472 l 8.498,0.065 8.499,0.065 0.063,37.407 m 69.356,-4.134 c -1.741,3.17 -3.198,5.732 -3.238,5.693 -0.06,-0.058 6.022,-34.842 6.211,-35.525 0.033,-0.118 0.09,5.249 0.127,11.927 l 0.067,12.141 -3.167,5.764 m 207.449,-15.943 -2.536,7.776 -7.886,-1.69 c -4.337,-0.929 -8.08,-1.738 -8.319,-1.797 -0.597,-0.149 0.22,0.772 6.11,6.885 l 4.931,5.119 -3.442,3.611 c -7.434,7.798 -8.132,8.582 -7.51,8.436 3.646,-0.857 15.763,-3.351 15.958,-3.286 0.141,0.047 1.386,3.539 2.766,7.759 l 2.509,7.674 2.544,-7.755 c 1.407,-4.288 2.673,-7.751 2.832,-7.748 0.158,0.004 3.86,0.776 8.227,1.717 4.368,0.94 7.979,1.671 8.026,1.624 0.047,-0.047 -2.449,-2.718 -5.547,-5.936 -3.098,-3.218 -5.579,-5.99 -5.513,-6.16 0.065,-0.169 2.561,-2.862 5.547,-5.983 2.985,-3.121 5.459,-5.755 5.497,-5.853 0.038,-0.098 -3.479,0.585 -7.816,1.518 -4.337,0.933 -8.077,1.696 -8.311,1.696 -0.339,0.001 -0.934,-1.562 -2.929,-7.691 -1.376,-4.231 -2.525,-7.692 -2.552,-7.692 -0.027,10e-4 -1.191,3.5 -2.586,7.776 m -108.458,0.366 c -1.665,5.042 -2.671,7.738 -2.888,7.738 -0.259,0 -13.869,-2.857 -15.832,-3.324 -0.715,-0.17 -0.648,-0.093 5.291,6.073 l 5.726,5.944 -5.744,5.974 c -3.159,3.287 -5.708,6.009 -5.663,6.05 0.044,0.042 3.653,-0.694 8.02,-1.635 4.368,-0.941 8.076,-1.711 8.242,-1.711 0.176,0 1.36,3.228 2.844,7.753 l 2.543,7.753 2.523,-7.682 c 1.388,-4.224 2.634,-7.718 2.769,-7.763 0.22,-0.073 14.888,2.966 16.052,3.326 0.629,0.195 -0.508,-1.084 -6.406,-7.21 l -4.684,-4.864 5.18,-5.402 c 6.558,-6.838 6.484,-6.755 5.891,-6.613 -3.148,0.753 -15.679,3.328 -15.942,3.276 -0.224,-0.044 -1.261,-2.853 -2.86,-7.745 l -2.508,-7.676 -2.554,7.738 m 112.939,4.445 c 0.89,2.76 1.677,5.115 1.749,5.232 0.073,0.118 2.621,-0.323 5.663,-0.98 3.043,-0.656 5.625,-1.165 5.738,-1.131 0.114,0.034 -1.586,1.942 -3.778,4.239 l -3.984,4.178 3.954,4.118 c 2.174,2.265 3.905,4.167 3.845,4.226 -0.059,0.059 -2.622,-0.43 -5.695,-1.087 -3.074,-0.657 -5.629,-1.147 -5.679,-1.09 -0.05,0.058 -0.909,2.561 -1.909,5.564 l -1.818,5.459 -1.783,-5.449 c -0.981,-2.997 -1.903,-5.489 -2.048,-5.537 -0.146,-0.049 -2.626,0.421 -5.511,1.044 -2.886,0.623 -5.43,1.133 -5.655,1.133 -0.245,0 0.584,-1.019 2.069,-2.544 1.364,-1.399 3.194,-3.29 4.068,-4.202 l 1.588,-1.659 -3.989,-4.172 c -2.194,-2.294 -3.953,-4.208 -3.909,-4.252 0.066,-0.066 3.775,0.696 10.611,2.182 l 0.931,0.202 1.759,-5.46 c 0.968,-3.002 1.851,-5.363 1.963,-5.246 0.112,0.117 0.931,2.471 1.82,5.232 m -101.2,4.746 c 3.003,-0.655 5.594,-1.166 5.759,-1.136 0.165,0.031 -1.493,1.927 -3.684,4.214 l -3.985,4.159 3.974,4.154 c 2.186,2.285 3.89,4.185 3.787,4.223 -0.103,0.038 -2.553,-0.436 -5.445,-1.054 -2.891,-0.618 -5.412,-1.124 -5.602,-1.124 -0.23,0 -0.964,1.85 -2.19,5.521 l -1.844,5.521 -1.783,-5.521 c -1.233,-3.82 -1.893,-5.521 -2.141,-5.521 -0.197,0 -2.723,0.506 -5.615,1.124 -2.891,0.618 -5.347,1.092 -5.458,1.054 -0.111,-0.038 1.592,-1.939 3.783,-4.225 l 3.985,-4.156 -3.996,-4.155 c -2.198,-2.285 -3.903,-4.186 -3.788,-4.224 0.114,-0.039 2.544,0.435 5.399,1.053 2.856,0.617 5.385,1.122 5.621,1.122 0.341,0 0.799,-1.141 2.216,-5.517 l 1.787,-5.517 1.881,5.598 1.88,5.598 5.459,-1.191 m -79.194,8.929 c 4.456,7.143 8.102,13.034 8.102,13.09 0,0.056 -7.379,0.102 -16.398,0.102 -9.018,0 -16.36,-0.095 -16.315,-0.21 0.342,-0.866 16.245,-26.278 16.36,-26.143 0.082,0.096 3.794,6.018 8.251,13.161 m 151.049,21.877 c 23.034,35.328 23.31,35.768 23.301,37.193 -0.024,3.867 -4.753,6.061 -7.642,3.546 -0.84,-0.731 -42.8,-64.953 -42.83,-65.553 -0.039,-0.777 4.681,-9.421 4.973,-9.107 0.152,0.164 10.141,15.428 22.198,33.921 M 135.484,366.005 v 8.437 h -2.071 c -1.664,0 -2.144,0.085 -2.444,0.434 -0.355,0.413 -18.254,33.664 -18.605,34.563 -0.544,1.393 -0.071,1.479 8.122,1.479 h 7.554 v 34.367 c 0,24.962 -0.075,34.368 -0.275,34.368 -1.884,0 -20.577,-9.246 -28.758,-14.223 -5.395,-3.283 -16.625,-11.004 -16.625,-11.43 0,-0.289 11.239,-20.967 18.897,-34.769 11.027,-19.874 25.799,-46.584 30.499,-55.149 1.966,-3.583 3.604,-6.514 3.64,-6.514 0.036,0 0.066,3.797 0.066,8.437 m -15.509,0.686 c 3.276,1.842 5.987,3.375 6.025,3.407 0.038,0.032 -3.468,6.44 -7.791,14.24 -4.323,7.8 -7.903,14.14 -7.955,14.088 -0.052,-0.052 0.523,-7.983 1.278,-17.624 0.754,-9.642 1.371,-17.645 1.371,-17.785 0,-0.315 -0.282,-0.461 7.072,3.674 M 109.2,383.789 c -0.761,9.713 -1.455,17.731 -1.543,17.818 -0.087,0.087 -3.061,-1.472 -6.608,-3.464 l -6.448,-3.624 7.31,-13.202 c 8.059,-14.556 8.528,-15.388 8.613,-15.269 0.033,0.044 -0.563,8.028 -1.324,17.741 m 90.056,8.891 v 16.005 h -42.084 -42.083 l 0.605,-1.055 c 0.333,-0.58 4.209,-7.782 8.613,-16.005 l 8.007,-14.95 h 33.471 33.471 v 16.005 m -98.507,7.911 c 3.478,1.963 6.301,3.676 6.274,3.806 -0.085,0.415 -15.508,28.144 -15.602,28.05 -0.049,-0.05 0.519,-7.957 1.263,-17.571 0.745,-9.615 1.355,-17.565 1.357,-17.668 0.007,-0.37 0.485,-0.129 6.708,3.383 m -10.393,17.346 c -1.043,13.522 -1.448,17.795 -1.682,17.742 -0.612,-0.14 -12.732,-7.024 -12.738,-7.235 -0.009,-0.336 15.63,-28.546 15.741,-28.393 0.029,0.04 -0.565,8.089 -1.321,17.886 m 191.282,-5.902 v 5.583 h -5.832 -5.831 v 5.087 5.087 h 5.831 5.832 v 14.516 14.516 h 5.459 5.459 v -14.516 -14.516 h 5.96 5.961 l -0.067,-5.025 -0.068,-5.025 -5.893,-0.067 -5.893,-0.066 v -5.579 -5.578 h -5.459 -5.459 v 5.583 m 8.685,2.228 v 5.579 l 5.893,0.067 5.893,0.066 0.07,2.792 0.071,2.791 h -5.964 -5.963 v 14.641 14.64 h -3.226 -3.226 v -14.64 -14.641 h -5.963 -5.964 l 0.07,-2.791 0.07,-2.792 5.894,-0.066 5.893,-0.067 v -5.579 -5.578 h 3.226 3.226 v 5.578 m -132.507,37.102 v 27.295 h -8.56 -8.561 v -27.295 -27.296 h 8.561 8.56 v 27.296 m 31.266,0.124 v 27.171 h -8.437 -8.437 v -27.171 -27.171 h 8.437 8.437 v 27.171 M 82.01,434.606 c 3.139,1.754 5.842,3.31 6.007,3.46 0.278,0.251 -6.488,13.507 -7.317,14.336 -0.274,0.274 -1.599,-0.715 -6.357,-4.749 l -2.209,-1.871 0.167,-5.568 0.166,-5.568 1.132,-2.075 1.131,-2.075 0.786,0.461 c 0.433,0.254 3.355,1.896 6.494,3.649"
       stroke="none"
       fill="#10110e"
       fill-rule="evenodd"
       style="fill:#000000;fill-opacity:1" />
  </g>
</svg>