<!-- Creator: CorelDRAW -->
<svg
   xmlns="http://www.w3.org/2000/svg"
   style="shape-rendering:geometricPrecision; text-rendering:geometricPrecision; image-rendering:optimizeQuality; fill-rule:evenodd; clip-rule:evenodd"
   viewBox="0 0 210 297"
   id="svg2"
   version="1.0"><title>Herb Kleczew</title><metadata
   id="metadata418"><rdf:RDF><cc:Work
       rdf:about=""><dc:format>image/svg+xml</dc:format><dc:type
         rdf:resource="http://purl.org/dc/dcmitype/StillImage" /></cc:Work></rdf:RDF></metadata><sodipodi:namedview
   guidetolerance="10.0"
   gridtolerance="10.0"
   objecttolerance="10.0"
   borderopacity="1.0"
   bordercolor="#666666"
   pagecolor="#ffffff"
   id="base" />
 <defs
   id="defs4">
  <style
   type="text/css"
   id="style6">
   
    .str3 {stroke:black;stroke-width:0.0762}
    .str2 {stroke:black;stroke-width:0.3528}
    .str1 {stroke:black;stroke-width:0.5292}
    .str4 {stroke:black;stroke-width:0.7056}
    .str0 {stroke:black;stroke-width:1.0583}
    .fil5 {fill:none}
    .fil2 {fill:#1F1A17}
    .fil3 {fill:#F8C300}
    .fil1 {fill:white}
    .fil7 {fill:black}
    .fil0 {fill:#D23E3F}
    .fil6 {fill:#DC3432}
    .fil4 {fill:#F1BB00}
   
  </style>
 </defs>
 <g
   id="Warstwa_x0020_1"
   transform="matrix(2.4371386,0,0,2.4371386,-150.89858,-213.41401)">
  <metadata
   id="CorelCorpID_0Corel-Layer" />
  <g
   id="_74706784">
   <path
   id="_74847168"
   class="fil0 str0"
   d="M 54.8704,158.168 L 54.9632,88.1063 L 155.1292,88.0966 L 155.0372,157.7247 L 155.0827,157.7247 C 155.0699,171.8275 149.4353,184.6259 140.3575,193.8963 C 131.2753,203.1712 118.7472,208.9149 104.9533,208.9025 C 91.159,208.8903 78.6412,203.1237 69.576,193.8331 C 60.6288,184.6631 55.0459,172.0591 54.9187,158.168 L 54.87,158.168 L 54.8704,158.168 z "
   style="fill:#d23e3f;stroke:#000000;stroke-width:1.05830002" />
   <g
   id="g12">
    <rect
   id="_74847096"
   class="fil1 str1"
   x="68.815002"
   y="107.653"
   width="24.2306"
   height="51.993301"
   rx="0.3633"
   ry="0.3633"
   style="fill:#ffffff;stroke:#000000;stroke-width:0.52920002" />
    <rect
   id="_74847024"
   class="fil1 str1"
   x="93.721497"
   y="96.556"
   width="7.4359999"
   height="8.1843395"
   rx="1.5669"
   ry="1.5669"
   style="fill:#ffffff;stroke:#000000;stroke-width:0.52920002" />
    <rect
   id="_74846952"
   class="fil1 str1"
   x="62.355099"
   y="96.556"
   width="7.4359999"
   height="8.1843395"
   rx="1.5669"
   ry="1.5669"
   style="fill:#ffffff;stroke:#000000;stroke-width:0.52920002" />
    <g
   id="g17">
     <rect
   id="_74846880"
   class="fil1 str1"
   x="63.6245"
   y="97.182098"
   width="6.6292901"
   height="9.9920502"
   rx="1.5669"
   ry="1.5669"
   style="fill:#ffffff;stroke:#000000;stroke-width:0.52920002" />
     <rect
   id="_74846808"
   class="fil1 str1"
   x="77.999001"
   y="97.182098"
   width="6.6292901"
   height="9.9920502"
   rx="1.5669"
   ry="1.5669"
   style="fill:#ffffff;stroke:#000000;stroke-width:0.52920002" />
     <rect
   id="_74846736"
   class="fil1 str1"
   x="92.848602"
   y="97.182098"
   width="6.6292901"
   height="9.9920502"
   rx="1.5669"
   ry="1.5669"
   style="fill:#ffffff;stroke:#000000;stroke-width:0.52920002" />
    </g>
    <rect
   id="_74846640"
   class="fil1 str1"
   x="90.510902"
   y="155.34599"
   width="5.44627"
   height="6.1083298"
   rx="1.5669"
   ry="1.5669"
   style="fill:#ffffff;stroke:#000000;stroke-width:0.52920002" />
    <rect
   id="_74846568"
   class="fil1 str1"
   x="86.330299"
   y="149.252"
   width="9.6441603"
   height="6.1115098"
   rx="1.6231"
   ry="1.6231"
   style="fill:#ffffff;stroke:#000000;stroke-width:0.52920002" />
    <rect
   id="_74846496"
   class="fil1 str1"
   x="90.510902"
   y="143.11"
   width="5.44627"
   height="6.1083298"
   rx="1.5669"
   ry="1.5669"
   style="fill:#ffffff;stroke:#000000;stroke-width:0.52920002" />
    <rect
   id="_74846424"
   class="fil1 str1"
   x="86.330299"
   y="136.972"
   width="9.6441603"
   height="6.1115098"
   rx="1.6231"
   ry="1.6231"
   style="fill:#ffffff;stroke:#000000;stroke-width:0.52920002" />
    <rect
   id="_74846352"
   class="fil1 str1"
   x="90.510902"
   y="130.793"
   width="5.44627"
   height="6.1083298"
   rx="1.5669"
   ry="1.5669"
   style="fill:#ffffff;stroke:#000000;stroke-width:0.52920002" />
    <rect
   id="_74846280"
   class="fil1 str1"
   x="86.330299"
   y="124.655"
   width="9.6441603"
   height="6.1115098"
   rx="1.6231"
   ry="1.6231"
   style="fill:#ffffff;stroke:#000000;stroke-width:0.52920002" />
    <rect
   id="_74846208"
   class="fil1 str1"
   x="90.510902"
   y="118.571"
   width="5.44627"
   height="6.1083298"
   rx="1.5669"
   ry="1.5669"
   style="fill:#ffffff;stroke:#000000;stroke-width:0.52920002" />
    <rect
   id="_74846136"
   class="fil1 str1"
   x="86.330299"
   y="112.432"
   width="9.6441603"
   height="6.1115098"
   rx="1.6231"
   ry="1.6231"
   style="fill:#ffffff;stroke:#000000;stroke-width:0.52920002" />
    <path
   id="_74846064"
   class="fil1 str1"
   d="M 92.3449,106.322 L 100.2297,106.322 C 97.2956,108.3531 97.3169,112.3542 94.835,112.4551 C 93.6473,112.4523 92.7868,112.4746 91.8472,112.4415 C 91.0892,112.4148 90.4829,111.5828 90.4893,110.801 L 90.4906,107.9486 C 90.7024,106.5059 91.6478,106.2605 92.3449,106.322 L 92.3449,106.322 z "
   style="fill:#ffffff;stroke:#000000;stroke-width:0.52920002" />
    <path
   id="_74845992"
   class="fil1 str1"
   d="M 70.7059,106.305 L 62.8211,106.305 C 65.7552,108.336 65.7339,112.3371 68.2159,112.4381 C 69.4035,112.4352 70.264,112.4575 71.2036,112.4244 C 71.9617,112.3977 72.5679,111.5657 72.5616,110.7839 L 72.5602,107.9315 C 72.3485,106.4889 71.403,106.2434 70.7059,106.305 L 70.7059,106.305 z "
   style="fill:#ffffff;stroke:#000000;stroke-width:0.52920002" />
    <rect
   id="_74845920"
   class="fil1 str1"
   x="60.702999"
   y="100.832"
   width="5.44627"
   height="5.5316401"
   rx="1.5669"
   ry="1.5669"
   style="fill:#ffffff;stroke:#000000;stroke-width:0.52920002" />
    <rect
   id="_74845848"
   class="fil1 str1"
   x="60.702999"
   y="95.304703"
   width="5.44627"
   height="5.5316401"
   rx="1.5669"
   ry="1.5669"
   style="fill:#ffffff;stroke:#000000;stroke-width:0.52920002" />
    <rect
   id="_74845776"
   class="fil1 str1"
   x="91.934196"
   y="100.832"
   width="5.44627"
   height="5.5316401"
   rx="1.5669"
   ry="1.5669"
   style="fill:#ffffff;stroke:#000000;stroke-width:0.52920002" />
    <rect
   id="_74845704"
   class="fil1 str1"
   x="97.342201"
   y="100.832"
   width="5.44627"
   height="5.5316401"
   rx="1.5669"
   ry="1.5669"
   style="fill:#ffffff;stroke:#000000;stroke-width:0.52920002" />
    <rect
   id="_74845632"
   class="fil1 str1"
   x="91.934196"
   y="95.304703"
   width="5.44627"
   height="5.5316401"
   rx="1.5669"
   ry="1.5669"
   style="fill:#ffffff;stroke:#000000;stroke-width:0.52920002" />
    <rect
   id="_74845560"
   class="fil1 str1"
   x="97.342201"
   y="95.304703"
   width="5.44627"
   height="5.5316401"
   rx="1.5669"
   ry="1.5669"
   style="fill:#ffffff;stroke:#000000;stroke-width:0.52920002" />
    <rect
   id="_74845488"
   class="fil1 str1"
   x="77.632698"
   y="96.694702"
   width="7.4359999"
   height="8.1843395"
   rx="1.5669"
   ry="1.5669"
   style="fill:#ffffff;stroke:#000000;stroke-width:0.52920002" />
    <rect
   id="_74845416"
   class="fil1 str1"
   x="67.057404"
   y="155.342"
   width="5.44627"
   height="6.1083298"
   rx="1.5669"
   ry="1.5669"
   style="fill:#ffffff;stroke:#000000;stroke-width:0.52920002" />
    <rect
   id="_74845344"
   class="fil1 str1"
   x="72.503601"
   y="155.356"
   width="8.9703302"
   height="6.1115098"
   rx="1.6231"
   ry="1.6231"
   style="fill:#ffffff;stroke:#000000;stroke-width:0.52920002" />
    <rect
   id="_74845272"
   class="fil1 str1"
   x="81.508797"
   y="155.356"
   width="8.9703302"
   height="6.1138101"
   rx="1.6231"
   ry="1.6231"
   style="fill:#ffffff;stroke:#000000;stroke-width:0.52920002" />
    <rect
   id="_74845200"
   class="fil1 str1"
   x="67.059303"
   y="149.259"
   width="9.6441603"
   height="6.1115098"
   rx="1.6231"
   ry="1.6231"
   style="fill:#ffffff;stroke:#000000;stroke-width:0.52920002" />
    <rect
   id="_74824616"
   class="fil1 str1"
   x="76.695"
   y="149.259"
   width="9.6441603"
   height="6.1138101"
   rx="1.6231"
   ry="1.6231"
   style="fill:#ffffff;stroke:#000000;stroke-width:0.52920002" />
    <rect
   id="_74824544"
   class="fil1 str1"
   x="67.057404"
   y="143.106"
   width="5.44627"
   height="6.1083298"
   rx="1.5669"
   ry="1.5669"
   style="fill:#ffffff;stroke:#000000;stroke-width:0.52920002" />
    <rect
   id="_74824472"
   class="fil1 str1"
   x="72.503601"
   y="143.12"
   width="8.9703302"
   height="6.1115098"
   rx="1.6231"
   ry="1.6231"
   style="fill:#ffffff;stroke:#000000;stroke-width:0.52920002" />
    <rect
   id="_74824400"
   class="fil1 str1"
   x="81.508797"
   y="143.12"
   width="8.9703302"
   height="6.1138101"
   rx="1.6231"
   ry="1.6231"
   style="fill:#ffffff;stroke:#000000;stroke-width:0.52920002" />
    <rect
   id="_74824328"
   class="fil1 str1"
   x="67.059303"
   y="136.979"
   width="9.6441603"
   height="6.1115098"
   rx="1.6231"
   ry="1.6231"
   style="fill:#ffffff;stroke:#000000;stroke-width:0.52920002" />
    <rect
   id="_74824256"
   class="fil1 str1"
   x="76.695"
   y="136.979"
   width="9.6441603"
   height="6.1138101"
   rx="1.6231"
   ry="1.6231"
   style="fill:#ffffff;stroke:#000000;stroke-width:0.52920002" />
    <rect
   id="_74824184"
   class="fil1 str1"
   x="67.057404"
   y="130.789"
   width="5.44627"
   height="6.1083298"
   rx="1.5669"
   ry="1.5669"
   style="fill:#ffffff;stroke:#000000;stroke-width:0.52920002" />
    <rect
   id="_74824112"
   class="fil1 str1"
   x="72.503601"
   y="130.80299"
   width="8.9703302"
   height="6.1115098"
   rx="1.6231"
   ry="1.6231"
   style="fill:#ffffff;stroke:#000000;stroke-width:0.52920002" />
    <rect
   id="_74824040"
   class="fil1 str1"
   x="81.508797"
   y="130.80299"
   width="8.9703302"
   height="6.1138101"
   rx="1.6231"
   ry="1.6231"
   style="fill:#ffffff;stroke:#000000;stroke-width:0.52920002" />
    <rect
   id="_74823968"
   class="fil1 str1"
   x="67.059303"
   y="124.662"
   width="9.6441603"
   height="6.1115098"
   rx="1.6231"
   ry="1.6231"
   style="fill:#ffffff;stroke:#000000;stroke-width:0.52920002" />
    <rect
   id="_74823896"
   class="fil1 str1"
   x="76.695"
   y="124.662"
   width="9.6441603"
   height="6.1138101"
   rx="1.6231"
   ry="1.6231"
   style="fill:#ffffff;stroke:#000000;stroke-width:0.52920002" />
    <rect
   id="_74823824"
   class="fil1 str1"
   x="67.057404"
   y="118.566"
   width="5.44627"
   height="6.1083298"
   rx="1.5669"
   ry="1.5669"
   style="fill:#ffffff;stroke:#000000;stroke-width:0.52920002" />
    <rect
   id="_74823752"
   class="fil1 str1"
   x="72.503601"
   y="118.58"
   width="8.9703302"
   height="6.1115098"
   rx="1.6231"
   ry="1.6231"
   style="fill:#ffffff;stroke:#000000;stroke-width:0.52920002" />
    <rect
   id="_74823680"
   class="fil1 str1"
   x="81.508797"
   y="118.58"
   width="8.9703302"
   height="6.1138101"
   rx="1.6231"
   ry="1.6231"
   style="fill:#ffffff;stroke:#000000;stroke-width:0.52920002" />
    <rect
   id="_74823608"
   class="fil1 str1"
   x="67.059303"
   y="112.439"
   width="9.6441603"
   height="6.1115098"
   rx="1.6231"
   ry="1.6231"
   style="fill:#ffffff;stroke:#000000;stroke-width:0.52920002" />
    <rect
   id="_74823536"
   class="fil1 str1"
   x="76.695"
   y="112.439"
   width="9.6441603"
   height="6.1138101"
   rx="1.6231"
   ry="1.6231"
   style="fill:#ffffff;stroke:#000000;stroke-width:0.52920002" />
    <rect
   id="_74823464"
   class="fil1 str1"
   x="72.503601"
   y="106.31"
   width="8.9703302"
   height="6.1115098"
   rx="1.6231"
   ry="1.6231"
   style="fill:#ffffff;stroke:#000000;stroke-width:0.52920002" />
    <rect
   id="_74823392"
   class="fil1 str1"
   x="81.508797"
   y="106.31"
   width="8.9703302"
   height="6.1138101"
   rx="1.6231"
   ry="1.6231"
   style="fill:#ffffff;stroke:#000000;stroke-width:0.52920002" />
    <rect
   id="_74823320"
   class="fil1 str1"
   x="66.111"
   y="100.832"
   width="5.44627"
   height="5.5316401"
   rx="1.5669"
   ry="1.5669"
   style="fill:#ffffff;stroke:#000000;stroke-width:0.52920002" />
    <rect
   id="_74823248"
   class="fil1 str1"
   x="66.111"
   y="95.304703"
   width="5.44627"
   height="5.5316401"
   rx="1.5669"
   ry="1.5669"
   style="fill:#ffffff;stroke:#000000;stroke-width:0.52920002" />
    <rect
   id="_74823176"
   class="fil1 str1"
   x="76.115799"
   y="100.832"
   width="5.44627"
   height="5.5316401"
   rx="1.5669"
   ry="1.5669"
   style="fill:#ffffff;stroke:#000000;stroke-width:0.52920002" />
    <rect
   id="_74823104"
   class="fil1 str1"
   x="81.523804"
   y="100.832"
   width="5.44627"
   height="5.5316401"
   rx="1.5669"
   ry="1.5669"
   style="fill:#ffffff;stroke:#000000;stroke-width:0.52920002" />
    <rect
   id="_74823032"
   class="fil1 str1"
   x="76.115799"
   y="95.304703"
   width="5.44627"
   height="5.5316401"
   rx="1.5669"
   ry="1.5669"
   style="fill:#ffffff;stroke:#000000;stroke-width:0.52920002" />
    <rect
   id="_74822960"
   class="fil1 str1"
   x="81.523804"
   y="95.304703"
   width="5.44627"
   height="5.5316401"
   rx="1.5669"
   ry="1.5669"
   style="fill:#ffffff;stroke:#000000;stroke-width:0.52920002" />
    <rect
   id="_74822888"
   class="fil2 str1"
   transform="matrix(0,-0.980924,-0.89405,0,79.6975,123.424)"
   width="9.7496004"
   height="6.4417"
   rx="1.6231"
   ry="1.6231"
   x="0"
   y="0"
   style="fill:#1f1a17;stroke:#000000;stroke-width:0.52920002" />
    <rect
   id="_74822816"
   class="fil2 str1"
   transform="matrix(0,-0.980924,-0.89405,0,89.2954,123.424)"
   width="9.7496004"
   height="6.4417"
   rx="1.6231"
   ry="1.6231"
   x="0"
   y="0"
   style="fill:#1f1a17;stroke:#000000;stroke-width:0.52920002" />
    <rect
   id="_74822744"
   class="fil2 str1"
   transform="matrix(0,-0.980924,-0.89405,0,84.2439,141.967)"
   width="9.7496004"
   height="6.4417"
   rx="1.6231"
   ry="1.6231"
   x="0"
   y="0"
   style="fill:#1f1a17;stroke:#000000;stroke-width:0.52920002" />
   </g>
   <g
   id="g70">
    <rect
   id="_74822648"
   class="fil1 str1"
   x="115.911"
   y="107.888"
   width="24.2306"
   height="51.993301"
   rx="0.3633"
   ry="0.3633"
   style="fill:#ffffff;stroke:#000000;stroke-width:0.52920002" />
    <rect
   id="_74781040"
   class="fil1 str1"
   x="140.817"
   y="96.790298"
   width="7.4359999"
   height="8.1843395"
   rx="1.5669"
   ry="1.5669"
   style="fill:#ffffff;stroke:#000000;stroke-width:0.52920002" />
    <rect
   id="_74780968"
   class="fil1 str1"
   x="109.451"
   y="96.790298"
   width="7.4359999"
   height="8.1843395"
   rx="1.5669"
   ry="1.5669"
   style="fill:#ffffff;stroke:#000000;stroke-width:0.52920002" />
    <g
   id="g75">
     <rect
   id="_74780896"
   class="fil1 str1"
   x="110.72"
   y="97.416397"
   width="6.6292901"
   height="9.9920502"
   rx="1.5669"
   ry="1.5669"
   style="fill:#ffffff;stroke:#000000;stroke-width:0.52920002" />
     <rect
   id="_74780824"
   class="fil1 str1"
   x="125.095"
   y="97.416397"
   width="6.6292901"
   height="9.9920502"
   rx="1.5669"
   ry="1.5669"
   style="fill:#ffffff;stroke:#000000;stroke-width:0.52920002" />
     <rect
   id="_74780752"
   class="fil1 str1"
   x="139.944"
   y="97.416397"
   width="6.6292901"
   height="9.9920502"
   rx="1.5669"
   ry="1.5669"
   style="fill:#ffffff;stroke:#000000;stroke-width:0.52920002" />
    </g>
    <rect
   id="_74780656"
   class="fil1 str1"
   x="137.606"
   y="155.58099"
   width="5.44627"
   height="6.1083298"
   rx="1.5669"
   ry="1.5669"
   style="fill:#ffffff;stroke:#000000;stroke-width:0.52920002" />
    <rect
   id="_74780584"
   class="fil1 str1"
   x="133.42599"
   y="149.487"
   width="9.6441603"
   height="6.1115098"
   rx="1.6231"
   ry="1.6231"
   style="fill:#ffffff;stroke:#000000;stroke-width:0.52920002" />
    <rect
   id="_74780512"
   class="fil1 str1"
   x="137.606"
   y="143.345"
   width="5.44627"
   height="6.1083298"
   rx="1.5669"
   ry="1.5669"
   style="fill:#ffffff;stroke:#000000;stroke-width:0.52920002" />
    <rect
   id="_74780440"
   class="fil1 str1"
   x="133.42599"
   y="137.20599"
   width="9.6441603"
   height="6.1115098"
   rx="1.6231"
   ry="1.6231"
   style="fill:#ffffff;stroke:#000000;stroke-width:0.52920002" />
    <rect
   id="_74780368"
   class="fil1 str1"
   x="137.606"
   y="131.028"
   width="5.44627"
   height="6.1083298"
   rx="1.5669"
   ry="1.5669"
   style="fill:#ffffff;stroke:#000000;stroke-width:0.52920002" />
    <rect
   id="_74780296"
   class="fil1 str1"
   x="133.42599"
   y="124.889"
   width="9.6441603"
   height="6.1115098"
   rx="1.6231"
   ry="1.6231"
   style="fill:#ffffff;stroke:#000000;stroke-width:0.52920002" />
    <rect
   id="_74780224"
   class="fil1 str1"
   x="137.606"
   y="118.805"
   width="5.44627"
   height="6.1083298"
   rx="1.5669"
   ry="1.5669"
   style="fill:#ffffff;stroke:#000000;stroke-width:0.52920002" />
    <rect
   id="_74780152"
   class="fil1 str1"
   x="133.42599"
   y="112.666"
   width="9.6441603"
   height="6.1115098"
   rx="1.6231"
   ry="1.6231"
   style="fill:#ffffff;stroke:#000000;stroke-width:0.52920002" />
    <path
   id="_74780080"
   class="fil1 str1"
   d="M 139.44,106.556 L 147.3248,106.556 C 144.3907,108.5871 144.412,112.5882 141.93,112.6891 C 140.7424,112.6863 139.8819,112.7086 138.9423,112.6755 C 138.1843,112.6488 137.578,111.8168 137.5844,111.035 L 137.5857,108.1826 C 137.7974,106.7399 138.7429,106.4945 139.44,106.556 z "
   style="fill:#ffffff;stroke:#000000;stroke-width:0.52920002" />
    <path
   id="_74780008"
   class="fil1 str1"
   d="M 117.802,106.539 L 109.9172,106.539 C 112.8513,108.57 112.83,112.5711 115.312,112.6721 C 116.4996,112.6692 117.3601,112.6915 118.2997,112.6584 C 119.0577,112.6317 119.664,111.7997 119.6576,111.018 L 119.6563,108.1655 C 119.4445,106.7229 118.4991,106.4774 117.802,106.539 L 117.802,106.539 z "
   style="fill:#ffffff;stroke:#000000;stroke-width:0.52920002" />
    <rect
   id="_74779936"
   class="fil1 str1"
   x="107.799"
   y="101.066"
   width="5.44627"
   height="5.5316401"
   rx="1.5669"
   ry="1.5669"
   style="fill:#ffffff;stroke:#000000;stroke-width:0.52920002" />
    <rect
   id="_74779864"
   class="fil1 str1"
   x="107.799"
   y="95.539001"
   width="5.44627"
   height="5.5316401"
   rx="1.5669"
   ry="1.5669"
   style="fill:#ffffff;stroke:#000000;stroke-width:0.52920002" />
    <rect
   id="_74779792"
   class="fil1 str1"
   x="139.03"
   y="101.066"
   width="5.44627"
   height="5.5316401"
   rx="1.5669"
   ry="1.5669"
   style="fill:#ffffff;stroke:#000000;stroke-width:0.52920002" />
    <rect
   id="_74779720"
   class="fil1 str1"
   x="144.438"
   y="101.066"
   width="5.44627"
   height="5.5316401"
   rx="1.5669"
   ry="1.5669"
   style="fill:#ffffff;stroke:#000000;stroke-width:0.52920002" />
    <rect
   id="_74779648"
   class="fil1 str1"
   x="139.03"
   y="95.539001"
   width="5.44627"
   height="5.5316401"
   rx="1.5669"
   ry="1.5669"
   style="fill:#ffffff;stroke:#000000;stroke-width:0.52920002" />
    <rect
   id="_74779576"
   class="fil1 str1"
   x="144.438"
   y="95.539001"
   width="5.44627"
   height="5.5316401"
   rx="1.5669"
   ry="1.5669"
   style="fill:#ffffff;stroke:#000000;stroke-width:0.52920002" />
    <rect
   id="_74779504"
   class="fil1 str1"
   x="124.728"
   y="96.929001"
   width="7.4359999"
   height="8.1843395"
   rx="1.5669"
   ry="1.5669"
   style="fill:#ffffff;stroke:#000000;stroke-width:0.52920002" />
    <rect
   id="_74779432"
   class="fil1 str1"
   x="114.153"
   y="155.576"
   width="5.44627"
   height="6.1083298"
   rx="1.5669"
   ry="1.5669"
   style="fill:#ffffff;stroke:#000000;stroke-width:0.52920002" />
    <rect
   id="_74779360"
   class="fil1 str1"
   x="119.599"
   y="155.59"
   width="8.9703302"
   height="6.1115098"
   rx="1.6231"
   ry="1.6231"
   style="fill:#ffffff;stroke:#000000;stroke-width:0.52920002" />
    <rect
   id="_74779288"
   class="fil1 str1"
   x="128.604"
   y="155.59"
   width="8.9703302"
   height="6.1138101"
   rx="1.6231"
   ry="1.6231"
   style="fill:#ffffff;stroke:#000000;stroke-width:0.52920002" />
    <rect
   id="_74779216"
   class="fil1 str1"
   x="114.155"
   y="149.494"
   width="9.6441603"
   height="6.1115098"
   rx="1.6231"
   ry="1.6231"
   style="fill:#ffffff;stroke:#000000;stroke-width:0.52920002" />
    <rect
   id="_74779144"
   class="fil1 str1"
   x="123.791"
   y="149.494"
   width="9.6441603"
   height="6.1138101"
   rx="1.6231"
   ry="1.6231"
   style="fill:#ffffff;stroke:#000000;stroke-width:0.52920002" />
    <rect
   id="_74757168"
   class="fil1 str1"
   x="114.153"
   y="143.34"
   width="5.44627"
   height="6.1083298"
   rx="1.5669"
   ry="1.5669"
   style="fill:#ffffff;stroke:#000000;stroke-width:0.52920002" />
    <rect
   id="_74757096"
   class="fil1 str1"
   x="119.599"
   y="143.354"
   width="8.9703302"
   height="6.1115098"
   rx="1.6231"
   ry="1.6231"
   style="fill:#ffffff;stroke:#000000;stroke-width:0.52920002" />
    <rect
   id="_74757024"
   class="fil1 str1"
   x="128.604"
   y="143.354"
   width="8.9703302"
   height="6.1138101"
   rx="1.6231"
   ry="1.6231"
   style="fill:#ffffff;stroke:#000000;stroke-width:0.52920002" />
    <rect
   id="_74756952"
   class="fil1 str1"
   x="114.155"
   y="137.213"
   width="9.6441603"
   height="6.1115098"
   rx="1.6231"
   ry="1.6231"
   style="fill:#ffffff;stroke:#000000;stroke-width:0.52920002" />
    <rect
   id="_74756880"
   class="fil1 str1"
   x="123.791"
   y="137.213"
   width="9.6441603"
   height="6.1138101"
   rx="1.6231"
   ry="1.6231"
   style="fill:#ffffff;stroke:#000000;stroke-width:0.52920002" />
    <rect
   id="_74756808"
   class="fil1 str1"
   x="114.153"
   y="131.02299"
   width="5.44627"
   height="6.1083298"
   rx="1.5669"
   ry="1.5669"
   style="fill:#ffffff;stroke:#000000;stroke-width:0.52920002" />
    <rect
   id="_74756736"
   class="fil1 str1"
   x="119.599"
   y="131.037"
   width="8.9703302"
   height="6.1115098"
   rx="1.6231"
   ry="1.6231"
   style="fill:#ffffff;stroke:#000000;stroke-width:0.52920002" />
    <rect
   id="_74756664"
   class="fil1 str1"
   x="128.604"
   y="131.037"
   width="8.9703302"
   height="6.1138101"
   rx="1.6231"
   ry="1.6231"
   style="fill:#ffffff;stroke:#000000;stroke-width:0.52920002" />
    <rect
   id="_74756592"
   class="fil1 str1"
   x="114.155"
   y="124.896"
   width="9.6441603"
   height="6.1115098"
   rx="1.6231"
   ry="1.6231"
   style="fill:#ffffff;stroke:#000000;stroke-width:0.52920002" />
    <rect
   id="_74756520"
   class="fil1 str1"
   x="123.791"
   y="124.896"
   width="9.6441603"
   height="6.1138101"
   rx="1.6231"
   ry="1.6231"
   style="fill:#ffffff;stroke:#000000;stroke-width:0.52920002" />
    <rect
   id="_74756448"
   class="fil1 str1"
   x="114.153"
   y="118.8"
   width="5.44627"
   height="6.1083298"
   rx="1.5669"
   ry="1.5669"
   style="fill:#ffffff;stroke:#000000;stroke-width:0.52920002" />
    <rect
   id="_74756376"
   class="fil1 str1"
   x="119.599"
   y="118.815"
   width="8.9703302"
   height="6.1115098"
   rx="1.6231"
   ry="1.6231"
   style="fill:#ffffff;stroke:#000000;stroke-width:0.52920002" />
    <rect
   id="_74756304"
   class="fil1 str1"
   x="128.604"
   y="118.815"
   width="8.9703302"
   height="6.1138101"
   rx="1.6231"
   ry="1.6231"
   style="fill:#ffffff;stroke:#000000;stroke-width:0.52920002" />
    <rect
   id="_74756232"
   class="fil1 str1"
   x="114.155"
   y="112.673"
   width="9.6441603"
   height="6.1115098"
   rx="1.6231"
   ry="1.6231"
   style="fill:#ffffff;stroke:#000000;stroke-width:0.52920002" />
    <rect
   id="_74756160"
   class="fil1 str1"
   x="123.791"
   y="112.673"
   width="9.6441603"
   height="6.1138101"
   rx="1.6231"
   ry="1.6231"
   style="fill:#ffffff;stroke:#000000;stroke-width:0.52920002" />
    <rect
   id="_74756088"
   class="fil1 str1"
   x="119.599"
   y="106.545"
   width="8.9703302"
   height="6.1115098"
   rx="1.6231"
   ry="1.6231"
   style="fill:#ffffff;stroke:#000000;stroke-width:0.52920002" />
    <rect
   id="_74756016"
   class="fil1 str1"
   x="128.604"
   y="106.545"
   width="8.9703302"
   height="6.1138101"
   rx="1.6231"
   ry="1.6231"
   style="fill:#ffffff;stroke:#000000;stroke-width:0.52920002" />
    <rect
   id="_74755944"
   class="fil1 str1"
   x="113.207"
   y="101.066"
   width="5.44627"
   height="5.5316401"
   rx="1.5669"
   ry="1.5669"
   style="fill:#ffffff;stroke:#000000;stroke-width:0.52920002" />
    <rect
   id="_74755872"
   class="fil1 str1"
   x="113.207"
   y="95.539001"
   width="5.44627"
   height="5.5316401"
   rx="1.5669"
   ry="1.5669"
   style="fill:#ffffff;stroke:#000000;stroke-width:0.52920002" />
    <rect
   id="_74755800"
   class="fil1 str1"
   x="123.211"
   y="101.066"
   width="5.44627"
   height="5.5316401"
   rx="1.5669"
   ry="1.5669"
   style="fill:#ffffff;stroke:#000000;stroke-width:0.52920002" />
    <rect
   id="_74755728"
   class="fil1 str1"
   x="128.619"
   y="101.066"
   width="5.44627"
   height="5.5316401"
   rx="1.5669"
   ry="1.5669"
   style="fill:#ffffff;stroke:#000000;stroke-width:0.52920002" />
    <rect
   id="_74755656"
   class="fil1 str1"
   x="123.211"
   y="95.539001"
   width="5.44627"
   height="5.5316401"
   rx="1.5669"
   ry="1.5669"
   style="fill:#ffffff;stroke:#000000;stroke-width:0.52920002" />
    <rect
   id="_74755584"
   class="fil1 str1"
   x="128.619"
   y="95.539001"
   width="5.44627"
   height="5.5316401"
   rx="1.5669"
   ry="1.5669"
   style="fill:#ffffff;stroke:#000000;stroke-width:0.52920002" />
    <rect
   id="_74755512"
   class="fil2 str1"
   transform="matrix(0,-0.980924,-0.89405,0,126.793,123.658)"
   width="9.7496004"
   height="6.4417"
   rx="1.6231"
   ry="1.6231"
   x="0"
   y="0"
   style="fill:#1f1a17;stroke:#000000;stroke-width:0.52920002" />
    <rect
   id="_74755440"
   class="fil2 str1"
   transform="matrix(0,-0.980924,-0.89405,0,136.391,123.658)"
   width="9.7496004"
   height="6.4417"
   rx="1.6231"
   ry="1.6231"
   x="0"
   y="0"
   style="fill:#1f1a17;stroke:#000000;stroke-width:0.52920002" />
    <rect
   id="_74755368"
   class="fil2 str1"
   transform="matrix(0,-0.980924,-0.89405,0,131.339,142.201)"
   width="9.7496004"
   height="6.4417"
   rx="1.6231"
   ry="1.6231"
   x="0"
   y="0"
   style="fill:#1f1a17;stroke:#000000;stroke-width:0.52920002" />
   </g>
   <path
   id="_74755272"
   class="fil3 str1"
   d="M 108.925,172.177 C 109.371,170.8295 110.7571,169.2673 113.3919,167.6702 C 115.9765,166.2393 118.0533,171.3053 117.3923,172.7746 C 116.7168,174.2758 112.8964,174.6329 111.253,175.4218 C 111.2751,175.2697 111.1386,174.729 111.0506,174.4407 C 111.4842,174.0978 113.9694,172.7277 116.2897,172.091 C 113.992,172.6355 112.2958,173.549 110.9994,174.302 C 110.862,173.9373 110.6664,173.4984 110.5858,173.3199 C 110.8305,173.0481 113.6293,170.9428 115.8427,170.2872 C 114.2524,170.7525 113.1727,171.2154 110.5122,173.2162 C 110.2842,172.8639 110.1438,172.7528 110.0101,172.5334 C 111.9802,170.2522 113.0493,169.5794 114.9462,168.5967 C 113.9259,169.093 112.0747,169.7556 109.9104,172.4315 C 109.6553,172.326 109.2297,172.219 108.925,172.177 L 108.925,172.177 z "
   style="fill:#f8c300;stroke:#000000;stroke-width:0.52920002" />
   <path
   id="_74755200"
   class="fil3 str1"
   d="M 85.696,171.925 C 85.8032,170.5097 86.7706,168.6588 88.9414,166.4723 C 91.1036,164.4592 94.3431,168.8732 94.0567,170.4587 C 93.764,172.0786 90.1432,173.3484 88.7391,174.5111 C 88.7239,174.3581 88.4608,173.8664 88.3057,173.608 C 88.6436,173.1704 90.724,171.2403 92.8216,170.0618 C 90.7237,171.1454 89.2985,172.4417 88.2225,173.4857 C 88.001,173.165 87.7052,172.7863 87.5838,172.6326 C 87.7555,172.3098 89.9626,169.5905 91.952,168.4194 C 90.5213,169.2552 89.5854,169.9654 87.4873,172.5498 C 87.1809,172.2631 87.0178,172.1892 86.8351,172.0086 C 88.1955,169.319 89.0703,168.4077 90.6736,166.9957 C 89.8034,167.7239 88.1672,168.8142 86.7137,171.9338 C 86.4407,171.8931 86.0018,171.8921 85.696,171.925 z "
   style="fill:#f8c300;stroke:#000000;stroke-width:0.52920002" />
   <path
   id="_74726040"
   class="fil2 str1"
   d="M 70.9134,175.749 C 71.7966,175.1159 75.7092,180.251 75.7092,181.5717 C 75.7092,182.8923 72.2694,181.7824 72.2104,180.6989 C 72.07,178.1241 70.0302,176.3821 70.9134,175.749 L 70.9134,175.749 z "
   style="fill:#1f1a17;stroke:#000000;stroke-width:0.52920002" />
   <path
   id="_74725968"
   class="fil3 str1"
   d="M 121.891,182.2 C 128.316,183.6683 132.0946,185.3356 138.1232,187.2543 C 138.5809,187.4503 138.7187,187.3261 138.5368,186.8822 C 137.7406,184.6901 136.97,182.5351 135.7659,180.3431 C 134.7053,178.2377 131.6119,177.88 129.0222,178.0283 C 128.9069,178.1718 128.5075,178.4064 128.0837,178.947 C 127.9906,179.0657 133.6013,180.0509 134.4424,180.7522 C 133.7216,180.3348 128.7873,178.9696 127.0811,179.1426 C 126.7191,179.32 126.1817,179.6462 125.7761,179.8188 C 125.6387,179.8772 134.4787,182.4646 135.4763,183.1822 C 134.7434,182.6725 126.9708,180.0006 125.3592,180.1124 C 124.8143,180.3368 123.6233,180.5512 123.1445,180.739 C 128.1093,182.2543 130.7363,183.1821 136.4584,185.4623 C 136.0919,185.3775 127.5601,181.6125 123.1262,181.1824 C 121.8568,181.7013 121.5504,182.074 121.891,182.2 L 121.891,182.2 z "
   style="fill:#f8c300;stroke:#000000;stroke-width:0.52920002" />
   <path
   id="_74725896"
   class="fil3 str1"
   d="M 120.284,173.804 C 126.709,172.3357 132.0941,170.5223 138.1227,168.6037 C 138.5804,168.4076 138.7182,168.5319 138.5363,168.9758 C 137.7401,171.1679 136.9695,173.3229 135.7654,175.5148 C 134.7048,177.6202 131.6114,177.978 129.0217,177.8297 C 128.9064,177.6861 128.288,177.3054 127.8642,176.7649 C 127.7712,176.6463 133.6008,175.8071 134.4419,175.1058 C 133.7211,175.5232 128.6406,176.7424 126.9345,176.5694 C 126.5724,176.3919 125.9622,176.0657 125.5566,175.8932 C 125.4192,175.8347 134.4782,173.3933 135.4758,172.6758 C 134.7429,173.1854 126.3131,175.8573 124.7015,175.7455 C 124.1565,175.5212 123.6228,175.3067 123.144,175.1189 C 128.1088,173.6036 130.7358,172.6759 136.4579,170.3957 C 136.0914,170.4805 127.2675,174.3914 122.8335,174.8215 C 121.5641,174.3026 119.9434,173.93 120.284,173.804 L 120.284,173.804 z "
   style="fill:#f8c300;stroke:#000000;stroke-width:0.52920002" />
   <path
   id="_74725824"
   class="fil3 str1"
   d="M 82.3794,171.933 C 92.145,170.245 113.3284,170.5468 126.4396,175.884 C 127.4451,176.2694 129.6067,177.0235 128.9447,178.2427 C 127.2038,180.1834 123.8094,182.8914 117.7749,185.5138 C 117.1462,185.8308 116.2946,186.2023 115.2624,186.5946 C 108.0382,189.3397 91.9739,193.1008 81.6551,186.3515 C 85.4326,182.9907 87.3248,178.0196 82.3794,171.933 z "
   style="fill:#f8c300;stroke:#000000;stroke-width:0.52920002" />
   <path
   id="_74725752"
   class="fil3 str1"
   d="M 84.5566,187.844 C 84.8693,189.2285 86.0965,190.9184 88.5631,192.7646 C 90.996,194.4406 93.5566,189.601 93.0419,188.0743 C 92.5159,186.5144 88.7485,185.7868 87.1897,184.8415 C 87.1969,184.995 87.0084,185.5199 86.8927,185.7981 C 87.2909,186.1817 89.6307,187.7875 91.8779,188.6472 C 89.6443,187.8814 88.0451,186.807 86.8283,185.9312 C 86.656,186.2809 86.4186,186.6986 86.321,186.8684 C 86.5379,187.1627 89.1183,189.5308 91.2573,190.3989 C 89.7199,189.7809 88.6904,189.2149 86.2376,186.9644 C 85.9763,187.2928 85.8258,187.3896 85.6713,187.595 C 87.4097,190.0573 88.4082,190.8311 90.2004,191.9939 C 89.2332,191.4006 87.4555,190.5607 85.5621,187.6867 C 85.298,187.7668 84.864,187.8319 84.5566,187.844 L 84.5566,187.844 z "
   style="fill:#f8c300;stroke:#000000;stroke-width:0.52920002" />
   <path
   id="_74725680"
   class="fil3 str1"
   d="M 80.4096,186.34 C 80.2668,186.8659 81.8973,186.5076 82.2943,186.3465 C 88.0233,184.0215 87.0989,175.0037 82.4334,172.0154 C 80.3746,171.8382 74.2413,173.4862 72.7493,175.0368 C 72.573,175.0576 72.1261,175.6344 72.4265,176.2253 C 74.944,179.4234 76.9596,181.5029 74.8768,182.6489 C 74.8456,183.8008 76.4743,184.506 77.2493,185.0127 C 82.9562,188.7297 85.2773,179.8364 83.9972,176.3643 C 85.6589,180.5903 82.982,185.6837 80.4096,186.34 L 80.4096,186.34 z "
   style="fill:#f8c300;stroke:#000000;stroke-width:0.52920002" />
   <path
   id="_74725608"
   class="fil2 str1"
   d="M 79.1281,174.286 C 80.6163,174.286 81.8301,175.5556 81.8301,177.1121 C 81.8301,178.6687 80.6163,179.9383 79.1281,179.9383 C 77.6399,179.9383 76.4261,178.6687 76.4261,177.1121 C 76.4261,175.5556 77.6399,174.286 79.1281,174.286 z "
   style="fill:#1f1a17;stroke:#000000;stroke-width:0.52920002" />
   <path
   id="_74725536"
   class="fil4 str2"
   d="M 79.1333,174.718 C 80.397,174.718 81.4276,175.7961 81.4276,177.1178 C 81.4276,178.4395 80.397,179.5175 79.1333,179.5175 C 77.8697,179.5175 76.839,178.4395 76.839,177.1178 C 76.839,175.7961 77.8697,174.718 79.1333,174.718 z "
   style="fill:#f1bb00;stroke:#000000;stroke-width:0.35280001" />
   <path
   id="_74725464"
   class="fil2 str1"
   d="M 78.8307,175.462 C 79.5553,175.462 80.1463,176.08 80.1463,176.838 C 80.1463,177.5958 79.5553,178.2139 78.8307,178.2139 C 78.1062,178.2139 77.5152,177.5958 77.5152,176.838 C 77.5152,176.08 78.1062,175.462 78.8307,175.462 z "
   style="fill:#1f1a17;stroke:#000000;stroke-width:0.52920002" />
   <polygon
   id="_74725392"
   class="fil1 str3"
   points="78.6429,175.536 79.8319,176.109 78.1443,177.733 78.6429,175.536 "
   style="fill:#ffffff;stroke:#000000;stroke-width:0.0762" />
   <path
   id="_74725320"
   class="fil3 str1"
   d="M 71.6689,179.531 C 71.3526,178.7173 70.8009,177.3498 70.4164,176.6074 C 69.773,174.9391 71.824,174.1965 72.6112,175.1992 C 74.0492,178.4068 79.0446,182.2849 73.9006,182.8296 C 72.6188,182.7148 71.8384,182.2289 71.5784,181.758 C 71.5282,181.4459 71.4535,180.5379 71.6755,180.297 C 71.8833,179.7637 73.0556,179.4391 72.8871,180.1427 C 71.9977,181.5978 73.9255,180.7851 74.1445,181.5329 C 74.6654,182.0895 75.3366,180.8978 74.5579,180.3958 C 72.897,179.017 72.9665,177.5508 71.6069,176.1461 C 71.1067,175.7244 71.2013,176.2746 71.4378,176.7629 C 71.8005,177.4445 72.3463,178.7248 72.7089,179.4065 C 72.7531,179.5311 72.3986,179.7208 72.3432,179.7422 C 72.2565,179.7756 72.0637,179.8407 71.9671,179.9223 C 71.8551,179.8646 71.7517,179.7051 71.6689,179.531 L 71.6689,179.531 z "
   style="fill:#f8c300;stroke:#000000;stroke-width:0.52920002" />
   <path
   id="_74725248"
   class="fil3 str1"
   d="M 119.111,186.423 C 119.5808,188.1251 116.3909,192.3503 114.6495,191.3077 C 113.7454,191.0895 110.8958,190.1279 110.2915,188.1752 C 110.6788,188.0281 111.2206,187.8571 111.5755,187.6996 C 112.0259,188.5876 115.443,190.0732 115.8335,190.1965 C 114.7041,189.6088 111.6372,187.9833 111.8045,187.6049 C 112.3533,187.3402 112.8659,187.0396 113.3758,186.7125 C 114.384,187.792 116.1557,188.3743 117.0869,188.5746 C 115.4168,188.1292 113.6513,186.9577 113.5266,186.5685 C 113.8724,186.3314 114.279,186.0488 114.6732,185.7578 C 115.3837,186.3997 117.354,186.7738 117.8538,186.8234 C 116.5216,186.5672 114.5592,185.8525 114.9055,185.5962 C 115.1653,185.3954 115.5424,185.0813 115.7453,184.8949 C 117.4991,185.7528 118.862,185.3276 119.111,186.423 z "
   style="fill:#f8c300;stroke:#000000;stroke-width:0.52920002" />
   <g
   id="g142">
    <path
   id="_74725176"
   class="fil5 str4"
   d="M 117.782,181.463 C 119.3893,181.2439 120.5616,180.1051 120.4,178.9199 C 120.2385,177.7347 118.8041,176.9511 117.1968,177.1702"
   style="fill:none;stroke:#000000;stroke-width:0.70560002" />
    <path
   id="_74725104"
   class="fil5 str4"
   d="M 89.761,184.335 C 91.2985,184.3739 92.5686,183.486 92.5973,182.3522 C 92.6259,181.2184 91.4024,180.2674 89.8649,180.2285"
   style="fill:none;stroke:#000000;stroke-width:0.70560002" />
    <path
   id="_74725032"
   class="fil5 str4"
   d="M 89.9129,180.221 C 91.4505,180.2599 92.7205,179.3719 92.7492,178.2382 C 92.7779,177.1044 91.5544,176.1533 90.0168,176.1144"
   style="fill:none;stroke:#000000;stroke-width:0.70560002" />
    <path
   id="_74724960"
   class="fil5 str4"
   d="M 93.9343,186.712 C 95.4721,186.7389 96.7352,185.8411 96.7551,184.7072 C 96.775,183.5732 95.5441,182.6317 94.0064,182.6047"
   style="fill:none;stroke:#000000;stroke-width:0.70560002" />
    <path
   id="_74724888"
   class="fil5 str4"
   d="M 94.0548,182.573 C 95.5926,182.6 96.8557,181.7022 96.8756,180.5682 C 96.8955,179.4343 95.6646,178.4927 94.1268,178.4658"
   style="fill:none;stroke:#000000;stroke-width:0.70560002" />
    <path
   id="_74724816"
   class="fil5 str4"
   d="M 94.1748,178.458 C 95.7126,178.485 96.9757,177.5872 96.9956,176.4532 C 97.0155,175.3193 95.7847,174.3777 94.2469,174.3508"
   style="fill:none;stroke:#000000;stroke-width:0.70560002" />
    <path
   id="_74724744"
   class="fil5 str4"
   d="M 98.7236,182.41 C 100.2573,182.295 101.4323,181.2846 101.3475,180.1536 C 101.2627,179.0227 99.9503,178.1987 98.4165,178.3136"
   style="fill:none;stroke:#000000;stroke-width:0.70560002" />
    <path
   id="_74724672"
   class="fil5 str4"
   d="M 98.4636,178.301 C 99.9973,178.186 101.1723,177.1755 101.0875,176.0446 C 101.0027,174.9136 99.6902,174.0896 98.1565,174.2046"
   style="fill:none;stroke:#000000;stroke-width:0.70560002" />
    <path
   id="_74724600"
   class="fil5 str4"
   d="M 103.388,186.208 C 104.9324,186.0943 106.1239,185.1741 106.0488,184.1532 C 105.9737,183.1322 104.6603,182.3963 103.1158,182.51"
   style="fill:none;stroke:#000000;stroke-width:0.70560002" />
    <path
   id="_74724528"
   class="fil5 str4"
   d="M 103.162,182.478 C 104.7064,182.3643 105.8979,181.4441 105.8228,180.4231 C 105.7476,179.4022 104.4343,178.6663 102.8898,178.78"
   style="fill:none;stroke:#000000;stroke-width:0.70560002" />
    <path
   id="_74724456"
   class="fil5 str4"
   d="M 102.937,178.768 C 104.4814,178.6543 105.6729,177.7341 105.5978,176.7132 C 105.5227,175.6922 104.2093,174.9563 102.6648,175.07"
   style="fill:none;stroke:#000000;stroke-width:0.70560002" />
    <path
   id="_74724384"
   class="fil5 str4"
   d="M 108.463,185.849 C 110.0146,185.6817 111.1831,184.7142 111.0725,183.6885 C 110.9619,182.6628 109.614,181.9666 108.0624,182.1339"
   style="fill:none;stroke:#000000;stroke-width:0.70560002" />
    <path
   id="_74724312"
   class="fil5 str4"
   d="M 108.107,182.1 C 109.6586,181.9327 110.8271,180.9651 110.7165,179.9394 C 110.6059,178.9137 109.258,178.2176 107.7064,178.3849"
   style="fill:none;stroke:#000000;stroke-width:0.70560002" />
    <path
   id="_74724240"
   class="fil5 str4"
   d="M 107.754,178.371 C 109.3056,178.2037 110.4741,177.2362 110.3635,176.2105 C 110.2529,175.1848 108.905,174.4886 107.3534,174.6559"
   style="fill:none;stroke:#000000;stroke-width:0.70560002" />
    <path
   id="_74724168"
   class="fil5 str4"
   d="M 113.096,183.916 C 114.6317,183.8312 115.8263,182.844 115.7638,181.7116 C 115.7012,180.5792 114.4052,179.7296 112.8695,179.8144"
   style="fill:none;stroke:#000000;stroke-width:0.70560002" />
    <path
   id="_74724096"
   class="fil5 str4"
   d="M 112.916,179.78 C 114.4517,179.6951 115.6463,178.708 115.5837,177.5756 C 115.5212,176.4432 114.2252,175.5935 112.6895,175.6783"
   style="fill:none;stroke:#000000;stroke-width:0.70560002" />
   </g>
  </g>
  <path
   class="fil6 str2"
   d="M 54.8704,158.168 L 54.9632,88.1063 L 155.1292,88.0966 L 155.0372,157.7247 L 155.0827,157.7247 C 155.0699,171.8275 149.4353,184.6259 140.3575,193.8963 C 131.2753,203.1712 118.7472,208.9149 104.9533,208.9025 C 91.159,208.8903 78.6412,203.1237 69.576,193.8331 C 60.6288,184.6631 55.0459,172.0591 54.9187,158.168 L 54.87,158.168 L 54.8704,158.168 z "
   id="path160"
   style="fill:#dc3432;stroke:#000000;stroke-width:0.35280001" />
  <rect
   class="fil1 str1"
   x="68.815002"
   y="107.653"
   width="24.2306"
   height="51.993301"
   rx="0.3633"
   ry="0.3633"
   id="rect162"
   style="fill:#ffffff;stroke:#000000;stroke-width:0.52920002" />
  <rect
   class="fil1 str1"
   x="93.721497"
   y="96.556"
   width="7.4359999"
   height="8.1843395"
   rx="1.5669"
   ry="1.5669"
   id="rect164"
   style="fill:#ffffff;stroke:#000000;stroke-width:0.52920002" />
  <rect
   class="fil1 str1"
   x="62.355099"
   y="96.556"
   width="7.4359999"
   height="8.1843395"
   rx="1.5669"
   ry="1.5669"
   id="rect166"
   style="fill:#ffffff;stroke:#000000;stroke-width:0.52920002" />
  <g
   id="_74706256">
   <rect
   id="_74706424"
   class="fil1 str1"
   x="63.6245"
   y="97.182098"
   width="6.6292901"
   height="9.9920502"
   rx="1.5669"
   ry="1.5669"
   style="fill:#ffffff;stroke:#000000;stroke-width:0.52920002" />
   <rect
   id="_74706352"
   class="fil1 str1"
   x="77.999001"
   y="97.182098"
   width="6.6292901"
   height="9.9920502"
   rx="1.5669"
   ry="1.5669"
   style="fill:#ffffff;stroke:#000000;stroke-width:0.52920002" />
   <rect
   id="_74706280"
   class="fil1 str1"
   x="92.848602"
   y="97.182098"
   width="6.6292901"
   height="9.9920502"
   rx="1.5669"
   ry="1.5669"
   style="fill:#ffffff;stroke:#000000;stroke-width:0.52920002" />
  </g>
  <rect
   class="fil1 str1"
   x="90.510902"
   y="155.34599"
   width="5.44627"
   height="6.1083298"
   rx="1.5669"
   ry="1.5669"
   id="rect172"
   style="fill:#ffffff;stroke:#000000;stroke-width:0.52920002" />
  <rect
   class="fil1 str1"
   x="86.330299"
   y="149.252"
   width="9.6441603"
   height="6.1115098"
   rx="1.6231"
   ry="1.6231"
   id="rect174"
   style="fill:#ffffff;stroke:#000000;stroke-width:0.52920002" />
  <rect
   class="fil1 str1"
   x="90.510902"
   y="143.11"
   width="5.44627"
   height="6.1083298"
   rx="1.5669"
   ry="1.5669"
   id="rect176"
   style="fill:#ffffff;stroke:#000000;stroke-width:0.52920002" />
  <rect
   class="fil1 str1"
   x="86.330299"
   y="136.972"
   width="9.6441603"
   height="6.1115098"
   rx="1.6231"
   ry="1.6231"
   id="rect178"
   style="fill:#ffffff;stroke:#000000;stroke-width:0.52920002" />
  <rect
   class="fil1 str1"
   x="90.510902"
   y="130.793"
   width="5.44627"
   height="6.1083298"
   rx="1.5669"
   ry="1.5669"
   id="rect180"
   style="fill:#ffffff;stroke:#000000;stroke-width:0.52920002" />
  <rect
   class="fil1 str1"
   x="86.330299"
   y="124.655"
   width="9.6441603"
   height="6.1115098"
   rx="1.6231"
   ry="1.6231"
   id="rect182"
   style="fill:#ffffff;stroke:#000000;stroke-width:0.52920002" />
  <rect
   class="fil1 str1"
   x="90.510902"
   y="118.571"
   width="5.44627"
   height="6.1083298"
   rx="1.5669"
   ry="1.5669"
   id="rect184"
   style="fill:#ffffff;stroke:#000000;stroke-width:0.52920002" />
  <rect
   class="fil1 str1"
   x="86.330299"
   y="112.432"
   width="9.6441603"
   height="6.1115098"
   rx="1.6231"
   ry="1.6231"
   id="rect186"
   style="fill:#ffffff;stroke:#000000;stroke-width:0.52920002" />
  <path
   class="fil1 str1"
   d="M 92.3449,106.322 L 100.2297,106.322 C 97.2956,108.3531 97.3169,112.3542 94.835,112.4551 C 93.6473,112.4523 92.7868,112.4746 91.8472,112.4415 C 91.0892,112.4148 90.4829,111.5828 90.4893,110.801 L 90.4906,107.9486 C 90.7024,106.5059 91.6478,106.2605 92.3449,106.322 L 92.3449,106.322 z "
   id="path188"
   style="fill:#ffffff;stroke:#000000;stroke-width:0.52920002" />
  <path
   class="fil1 str1"
   d="M 70.7059,106.305 L 62.8211,106.305 C 65.7552,108.336 65.7339,112.3371 68.2159,112.4381 C 69.4035,112.4352 70.264,112.4575 71.2036,112.4244 C 71.9617,112.3977 72.5679,111.5657 72.5616,110.7839 L 72.5602,107.9315 C 72.3485,106.4889 71.403,106.2434 70.7059,106.305 L 70.7059,106.305 z "
   id="path190"
   style="fill:#ffffff;stroke:#000000;stroke-width:0.52920002" />
  <rect
   class="fil1 str1"
   x="60.702999"
   y="100.832"
   width="5.44627"
   height="5.5316401"
   rx="1.5669"
   ry="1.5669"
   id="rect192"
   style="fill:#ffffff;stroke:#000000;stroke-width:0.52920002" />
  <rect
   class="fil1 str1"
   x="60.702999"
   y="95.304703"
   width="5.44627"
   height="5.5316401"
   rx="1.5669"
   ry="1.5669"
   id="rect194"
   style="fill:#ffffff;stroke:#000000;stroke-width:0.52920002" />
  <rect
   class="fil1 str1"
   x="91.934196"
   y="100.832"
   width="5.44627"
   height="5.5316401"
   rx="1.5669"
   ry="1.5669"
   id="rect196"
   style="fill:#ffffff;stroke:#000000;stroke-width:0.52920002" />
  <rect
   class="fil1 str1"
   x="97.342201"
   y="100.832"
   width="5.44627"
   height="5.5316401"
   rx="1.5669"
   ry="1.5669"
   id="rect198"
   style="fill:#ffffff;stroke:#000000;stroke-width:0.52920002" />
  <rect
   class="fil1 str1"
   x="91.934196"
   y="95.304703"
   width="5.44627"
   height="5.5316401"
   rx="1.5669"
   ry="1.5669"
   id="rect200"
   style="fill:#ffffff;stroke:#000000;stroke-width:0.52920002" />
  <rect
   class="fil1 str1"
   x="97.342201"
   y="95.304703"
   width="5.44627"
   height="5.5316401"
   rx="1.5669"
   ry="1.5669"
   id="rect202"
   style="fill:#ffffff;stroke:#000000;stroke-width:0.52920002" />
  <rect
   class="fil1 str1"
   x="77.632698"
   y="96.694702"
   width="7.4359999"
   height="8.1843395"
   rx="1.5669"
   ry="1.5669"
   id="rect204"
   style="fill:#ffffff;stroke:#000000;stroke-width:0.52920002" />
  <rect
   class="fil1 str1"
   x="67.057404"
   y="155.342"
   width="5.44627"
   height="6.1083298"
   rx="1.5669"
   ry="1.5669"
   id="rect206"
   style="fill:#ffffff;stroke:#000000;stroke-width:0.52920002" />
  <rect
   class="fil1 str1"
   x="72.503601"
   y="155.356"
   width="8.9703302"
   height="6.1115098"
   rx="1.6231"
   ry="1.6231"
   id="rect208"
   style="fill:#ffffff;stroke:#000000;stroke-width:0.52920002" />
  <rect
   class="fil1 str1"
   x="81.508797"
   y="155.356"
   width="8.9703302"
   height="6.1138101"
   rx="1.6231"
   ry="1.6231"
   id="rect210"
   style="fill:#ffffff;stroke:#000000;stroke-width:0.52920002" />
  <rect
   class="fil1 str1"
   x="67.059303"
   y="149.259"
   width="9.6441603"
   height="6.1115098"
   rx="1.6231"
   ry="1.6231"
   id="rect212"
   style="fill:#ffffff;stroke:#000000;stroke-width:0.52920002" />
  <rect
   class="fil1 str1"
   x="76.695"
   y="149.259"
   width="9.6441603"
   height="6.1138101"
   rx="1.6231"
   ry="1.6231"
   id="rect214"
   style="fill:#ffffff;stroke:#000000;stroke-width:0.52920002" />
  <rect
   class="fil1 str1"
   x="67.057404"
   y="143.106"
   width="5.44627"
   height="6.1083298"
   rx="1.5669"
   ry="1.5669"
   id="rect216"
   style="fill:#ffffff;stroke:#000000;stroke-width:0.52920002" />
  <rect
   class="fil1 str1"
   x="72.503601"
   y="143.12"
   width="8.9703302"
   height="6.1115098"
   rx="1.6231"
   ry="1.6231"
   id="rect218"
   style="fill:#ffffff;stroke:#000000;stroke-width:0.52920002" />
  <rect
   class="fil1 str1"
   x="81.508797"
   y="143.12"
   width="8.9703302"
   height="6.1138101"
   rx="1.6231"
   ry="1.6231"
   id="rect220"
   style="fill:#ffffff;stroke:#000000;stroke-width:0.52920002" />
  <rect
   class="fil1 str1"
   x="67.059303"
   y="136.979"
   width="9.6441603"
   height="6.1115098"
   rx="1.6231"
   ry="1.6231"
   id="rect222"
   style="fill:#ffffff;stroke:#000000;stroke-width:0.52920002" />
  <rect
   class="fil1 str1"
   x="76.695"
   y="136.979"
   width="9.6441603"
   height="6.1138101"
   rx="1.6231"
   ry="1.6231"
   id="rect224"
   style="fill:#ffffff;stroke:#000000;stroke-width:0.52920002" />
  <rect
   class="fil1 str1"
   x="67.057404"
   y="130.789"
   width="5.44627"
   height="6.1083298"
   rx="1.5669"
   ry="1.5669"
   id="rect226"
   style="fill:#ffffff;stroke:#000000;stroke-width:0.52920002" />
  <rect
   class="fil1 str1"
   x="72.503601"
   y="130.80299"
   width="8.9703302"
   height="6.1115098"
   rx="1.6231"
   ry="1.6231"
   id="rect228"
   style="fill:#ffffff;stroke:#000000;stroke-width:0.52920002" />
  <rect
   class="fil1 str1"
   x="81.508797"
   y="130.80299"
   width="8.9703302"
   height="6.1138101"
   rx="1.6231"
   ry="1.6231"
   id="rect230"
   style="fill:#ffffff;stroke:#000000;stroke-width:0.52920002" />
  <rect
   class="fil1 str1"
   x="67.059303"
   y="124.662"
   width="9.6441603"
   height="6.1115098"
   rx="1.6231"
   ry="1.6231"
   id="rect232"
   style="fill:#ffffff;stroke:#000000;stroke-width:0.52920002" />
  <rect
   class="fil1 str1"
   x="76.695"
   y="124.662"
   width="9.6441603"
   height="6.1138101"
   rx="1.6231"
   ry="1.6231"
   id="rect234"
   style="fill:#ffffff;stroke:#000000;stroke-width:0.52920002" />
  <rect
   class="fil1 str1"
   x="67.057404"
   y="118.566"
   width="5.44627"
   height="6.1083298"
   rx="1.5669"
   ry="1.5669"
   id="rect236"
   style="fill:#ffffff;stroke:#000000;stroke-width:0.52920002" />
  <rect
   class="fil1 str1"
   x="72.503601"
   y="118.58"
   width="8.9703302"
   height="6.1115098"
   rx="1.6231"
   ry="1.6231"
   id="rect238"
   style="fill:#ffffff;stroke:#000000;stroke-width:0.52920002" />
  <rect
   class="fil1 str1"
   x="81.508797"
   y="118.58"
   width="8.9703302"
   height="6.1138101"
   rx="1.6231"
   ry="1.6231"
   id="rect240"
   style="fill:#ffffff;stroke:#000000;stroke-width:0.52920002" />
  <rect
   class="fil1 str1"
   x="67.059303"
   y="112.439"
   width="9.6441603"
   height="6.1115098"
   rx="1.6231"
   ry="1.6231"
   id="rect242"
   style="fill:#ffffff;stroke:#000000;stroke-width:0.52920002" />
  <rect
   class="fil1 str1"
   x="76.695"
   y="112.439"
   width="9.6441603"
   height="6.1138101"
   rx="1.6231"
   ry="1.6231"
   id="rect244"
   style="fill:#ffffff;stroke:#000000;stroke-width:0.52920002" />
  <rect
   class="fil1 str1"
   x="72.503601"
   y="106.31"
   width="8.9703302"
   height="6.1115098"
   rx="1.6231"
   ry="1.6231"
   id="rect246"
   style="fill:#ffffff;stroke:#000000;stroke-width:0.52920002" />
  <rect
   class="fil1 str1"
   x="81.508797"
   y="106.31"
   width="8.9703302"
   height="6.1138101"
   rx="1.6231"
   ry="1.6231"
   id="rect248"
   style="fill:#ffffff;stroke:#000000;stroke-width:0.52920002" />
  <rect
   class="fil1 str1"
   x="66.111"
   y="100.832"
   width="5.44627"
   height="5.5316401"
   rx="1.5669"
   ry="1.5669"
   id="rect250"
   style="fill:#ffffff;stroke:#000000;stroke-width:0.52920002" />
  <rect
   class="fil1 str1"
   x="66.111"
   y="95.304703"
   width="5.44627"
   height="5.5316401"
   rx="1.5669"
   ry="1.5669"
   id="rect252"
   style="fill:#ffffff;stroke:#000000;stroke-width:0.52920002" />
  <rect
   class="fil1 str1"
   x="76.115799"
   y="100.832"
   width="5.44627"
   height="5.5316401"
   rx="1.5669"
   ry="1.5669"
   id="rect254"
   style="fill:#ffffff;stroke:#000000;stroke-width:0.52920002" />
  <rect
   class="fil1 str1"
   x="81.523804"
   y="100.832"
   width="5.44627"
   height="5.5316401"
   rx="1.5669"
   ry="1.5669"
   id="rect256"
   style="fill:#ffffff;stroke:#000000;stroke-width:0.52920002" />
  <rect
   class="fil1 str1"
   x="76.115799"
   y="95.304703"
   width="5.44627"
   height="5.5316401"
   rx="1.5669"
   ry="1.5669"
   id="rect258"
   style="fill:#ffffff;stroke:#000000;stroke-width:0.52920002" />
  <rect
   class="fil1 str1"
   x="81.523804"
   y="95.304703"
   width="5.44627"
   height="5.5316401"
   rx="1.5669"
   ry="1.5669"
   id="rect260"
   style="fill:#ffffff;stroke:#000000;stroke-width:0.52920002" />
  <rect
   class="fil7 str1"
   transform="matrix(0,-0.980924,-0.89405,0,79.6975,123.424)"
   width="9.7496004"
   height="6.4417"
   rx="1.6231"
   ry="1.6231"
   id="rect262"
   x="0"
   y="0"
   style="fill:#000000;stroke:#000000;stroke-width:0.52920002" />
  <rect
   class="fil7 str1"
   transform="matrix(0,-0.980924,-0.89405,0,89.2954,123.424)"
   width="9.7496004"
   height="6.4417"
   rx="1.6231"
   ry="1.6231"
   id="rect264"
   x="0"
   y="0"
   style="fill:#000000;stroke:#000000;stroke-width:0.52920002" />
  <rect
   class="fil7 str1"
   transform="matrix(0,-0.980924,-0.89405,0,84.2439,141.967)"
   width="9.7496004"
   height="6.4417"
   rx="1.6231"
   ry="1.6231"
   id="rect266"
   x="0"
   y="0"
   style="fill:#000000;stroke:#000000;stroke-width:0.52920002" />
  <rect
   class="fil1 str1"
   x="115.911"
   y="107.888"
   width="24.2306"
   height="51.993301"
   rx="0.3633"
   ry="0.3633"
   id="rect268"
   style="fill:#ffffff;stroke:#000000;stroke-width:0.52920002" />
  <rect
   class="fil1 str1"
   x="140.817"
   y="96.790298"
   width="7.4359999"
   height="8.1843395"
   rx="1.5669"
   ry="1.5669"
   id="rect270"
   style="fill:#ffffff;stroke:#000000;stroke-width:0.52920002" />
  <rect
   class="fil1 str1"
   x="109.451"
   y="96.790298"
   width="7.4359999"
   height="8.1843395"
   rx="1.5669"
   ry="1.5669"
   id="rect272"
   style="fill:#ffffff;stroke:#000000;stroke-width:0.52920002" />
  <g
   id="_74642344">
   <rect
   id="_74642512"
   class="fil1 str1"
   x="110.72"
   y="97.416397"
   width="6.6292901"
   height="9.9920502"
   rx="1.5669"
   ry="1.5669"
   style="fill:#ffffff;stroke:#000000;stroke-width:0.52920002" />
   <rect
   id="_74642440"
   class="fil1 str1"
   x="125.095"
   y="97.416397"
   width="6.6292901"
   height="9.9920502"
   rx="1.5669"
   ry="1.5669"
   style="fill:#ffffff;stroke:#000000;stroke-width:0.52920002" />
   <rect
   id="_74642368"
   class="fil1 str1"
   x="139.944"
   y="97.416397"
   width="6.6292901"
   height="9.9920502"
   rx="1.5669"
   ry="1.5669"
   style="fill:#ffffff;stroke:#000000;stroke-width:0.52920002" />
  </g>
  <rect
   class="fil1 str1"
   x="137.606"
   y="155.58099"
   width="5.44627"
   height="6.1083298"
   rx="1.5669"
   ry="1.5669"
   id="rect278"
   style="fill:#ffffff;stroke:#000000;stroke-width:0.52920002" />
  <rect
   class="fil1 str1"
   x="133.42599"
   y="149.487"
   width="9.6441603"
   height="6.1115098"
   rx="1.6231"
   ry="1.6231"
   id="rect280"
   style="fill:#ffffff;stroke:#000000;stroke-width:0.52920002" />
  <rect
   class="fil1 str1"
   x="137.606"
   y="143.345"
   width="5.44627"
   height="6.1083298"
   rx="1.5669"
   ry="1.5669"
   id="rect282"
   style="fill:#ffffff;stroke:#000000;stroke-width:0.52920002" />
  <rect
   class="fil1 str1"
   x="133.42599"
   y="137.20599"
   width="9.6441603"
   height="6.1115098"
   rx="1.6231"
   ry="1.6231"
   id="rect284"
   style="fill:#ffffff;stroke:#000000;stroke-width:0.52920002" />
  <rect
   class="fil1 str1"
   x="137.606"
   y="131.028"
   width="5.44627"
   height="6.1083298"
   rx="1.5669"
   ry="1.5669"
   id="rect286"
   style="fill:#ffffff;stroke:#000000;stroke-width:0.52920002" />
  <rect
   class="fil1 str1"
   x="133.42599"
   y="124.889"
   width="9.6441603"
   height="6.1115098"
   rx="1.6231"
   ry="1.6231"
   id="rect288"
   style="fill:#ffffff;stroke:#000000;stroke-width:0.52920002" />
  <rect
   class="fil1 str1"
   x="137.606"
   y="118.805"
   width="5.44627"
   height="6.1083298"
   rx="1.5669"
   ry="1.5669"
   id="rect290"
   style="fill:#ffffff;stroke:#000000;stroke-width:0.52920002" />
  <rect
   class="fil1 str1"
   x="133.42599"
   y="112.666"
   width="9.6441603"
   height="6.1115098"
   rx="1.6231"
   ry="1.6231"
   id="rect292"
   style="fill:#ffffff;stroke:#000000;stroke-width:0.52920002" />
  <path
   class="fil1 str1"
   d="M 139.44,106.556 L 147.3248,106.556 C 144.3907,108.5871 144.412,112.5882 141.93,112.6891 C 140.7424,112.6863 139.8819,112.7086 138.9423,112.6755 C 138.1843,112.6488 137.578,111.8168 137.5844,111.035 L 137.5857,108.1826 C 137.7974,106.7399 138.7429,106.4945 139.44,106.556 z "
   id="path294"
   style="fill:#ffffff;stroke:#000000;stroke-width:0.52920002" />
  <path
   class="fil1 str1"
   d="M 117.802,106.539 L 109.9172,106.539 C 112.8513,108.57 112.83,112.5711 115.312,112.6721 C 116.4996,112.6692 117.3601,112.6915 118.2997,112.6584 C 119.0577,112.6317 119.664,111.7997 119.6576,111.018 L 119.6563,108.1655 C 119.4445,106.7229 118.4991,106.4774 117.802,106.539 L 117.802,106.539 z "
   id="path296"
   style="fill:#ffffff;stroke:#000000;stroke-width:0.52920002" />
  <rect
   class="fil1 str1"
   x="107.799"
   y="101.066"
   width="5.44627"
   height="5.5316401"
   rx="1.5669"
   ry="1.5669"
   id="rect298"
   style="fill:#ffffff;stroke:#000000;stroke-width:0.52920002" />
  <rect
   class="fil1 str1"
   x="107.799"
   y="95.539001"
   width="5.44627"
   height="5.5316401"
   rx="1.5669"
   ry="1.5669"
   id="rect300"
   style="fill:#ffffff;stroke:#000000;stroke-width:0.52920002" />
  <rect
   class="fil1 str1"
   x="139.03"
   y="101.066"
   width="5.44627"
   height="5.5316401"
   rx="1.5669"
   ry="1.5669"
   id="rect302"
   style="fill:#ffffff;stroke:#000000;stroke-width:0.52920002" />
  <rect
   class="fil1 str1"
   x="144.438"
   y="101.066"
   width="5.44627"
   height="5.5316401"
   rx="1.5669"
   ry="1.5669"
   id="rect304"
   style="fill:#ffffff;stroke:#000000;stroke-width:0.52920002" />
  <rect
   class="fil1 str1"
   x="139.03"
   y="95.539001"
   width="5.44627"
   height="5.5316401"
   rx="1.5669"
   ry="1.5669"
   id="rect306"
   style="fill:#ffffff;stroke:#000000;stroke-width:0.52920002" />
  <rect
   class="fil1 str1"
   x="144.438"
   y="95.539001"
   width="5.44627"
   height="5.5316401"
   rx="1.5669"
   ry="1.5669"
   id="rect308"
   style="fill:#ffffff;stroke:#000000;stroke-width:0.52920002" />
  <rect
   class="fil1 str1"
   x="124.728"
   y="96.929001"
   width="7.4359999"
   height="8.1843395"
   rx="1.5669"
   ry="1.5669"
   id="rect310"
   style="fill:#ffffff;stroke:#000000;stroke-width:0.52920002" />
  <rect
   class="fil1 str1"
   x="114.153"
   y="155.576"
   width="5.44627"
   height="6.1083298"
   rx="1.5669"
   ry="1.5669"
   id="rect312"
   style="fill:#ffffff;stroke:#000000;stroke-width:0.52920002" />
  <rect
   class="fil1 str1"
   x="119.599"
   y="155.59"
   width="8.9703302"
   height="6.1115098"
   rx="1.6231"
   ry="1.6231"
   id="rect314"
   style="fill:#ffffff;stroke:#000000;stroke-width:0.52920002" />
  <rect
   class="fil1 str1"
   x="128.604"
   y="155.59"
   width="8.9703302"
   height="6.1138101"
   rx="1.6231"
   ry="1.6231"
   id="rect316"
   style="fill:#ffffff;stroke:#000000;stroke-width:0.52920002" />
  <rect
   class="fil1 str1"
   x="114.155"
   y="149.494"
   width="9.6441603"
   height="6.1115098"
   rx="1.6231"
   ry="1.6231"
   id="rect318"
   style="fill:#ffffff;stroke:#000000;stroke-width:0.52920002" />
  <rect
   class="fil1 str1"
   x="123.791"
   y="149.494"
   width="9.6441603"
   height="6.1138101"
   rx="1.6231"
   ry="1.6231"
   id="rect320"
   style="fill:#ffffff;stroke:#000000;stroke-width:0.52920002" />
  <rect
   class="fil1 str1"
   x="114.153"
   y="143.34"
   width="5.44627"
   height="6.1083298"
   rx="1.5669"
   ry="1.5669"
   id="rect322"
   style="fill:#ffffff;stroke:#000000;stroke-width:0.52920002" />
  <rect
   class="fil1 str1"
   x="119.599"
   y="143.354"
   width="8.9703302"
   height="6.1115098"
   rx="1.6231"
   ry="1.6231"
   id="rect324"
   style="fill:#ffffff;stroke:#000000;stroke-width:0.52920002" />
  <rect
   class="fil1 str1"
   x="128.604"
   y="143.354"
   width="8.9703302"
   height="6.1138101"
   rx="1.6231"
   ry="1.6231"
   id="rect326"
   style="fill:#ffffff;stroke:#000000;stroke-width:0.52920002" />
  <rect
   class="fil1 str1"
   x="114.155"
   y="137.213"
   width="9.6441603"
   height="6.1115098"
   rx="1.6231"
   ry="1.6231"
   id="rect328"
   style="fill:#ffffff;stroke:#000000;stroke-width:0.52920002" />
  <rect
   class="fil1 str1"
   x="123.791"
   y="137.213"
   width="9.6441603"
   height="6.1138101"
   rx="1.6231"
   ry="1.6231"
   id="rect330"
   style="fill:#ffffff;stroke:#000000;stroke-width:0.52920002" />
  <rect
   class="fil1 str1"
   x="114.153"
   y="131.02299"
   width="5.44627"
   height="6.1083298"
   rx="1.5669"
   ry="1.5669"
   id="rect332"
   style="fill:#ffffff;stroke:#000000;stroke-width:0.52920002" />
  <rect
   class="fil1 str1"
   x="119.599"
   y="131.037"
   width="8.9703302"
   height="6.1115098"
   rx="1.6231"
   ry="1.6231"
   id="rect334"
   style="fill:#ffffff;stroke:#000000;stroke-width:0.52920002" />
  <rect
   class="fil1 str1"
   x="128.604"
   y="131.037"
   width="8.9703302"
   height="6.1138101"
   rx="1.6231"
   ry="1.6231"
   id="rect336"
   style="fill:#ffffff;stroke:#000000;stroke-width:0.52920002" />
  <rect
   class="fil1 str1"
   x="114.155"
   y="124.896"
   width="9.6441603"
   height="6.1115098"
   rx="1.6231"
   ry="1.6231"
   id="rect338"
   style="fill:#ffffff;stroke:#000000;stroke-width:0.52920002" />
  <rect
   class="fil1 str1"
   x="123.791"
   y="124.896"
   width="9.6441603"
   height="6.1138101"
   rx="1.6231"
   ry="1.6231"
   id="rect340"
   style="fill:#ffffff;stroke:#000000;stroke-width:0.52920002" />
  <rect
   class="fil1 str1"
   x="114.153"
   y="118.8"
   width="5.44627"
   height="6.1083298"
   rx="1.5669"
   ry="1.5669"
   id="rect342"
   style="fill:#ffffff;stroke:#000000;stroke-width:0.52920002" />
  <rect
   class="fil1 str1"
   x="119.599"
   y="118.815"
   width="8.9703302"
   height="6.1115098"
   rx="1.6231"
   ry="1.6231"
   id="rect344"
   style="fill:#ffffff;stroke:#000000;stroke-width:0.52920002" />
  <rect
   class="fil1 str1"
   x="128.604"
   y="118.815"
   width="8.9703302"
   height="6.1138101"
   rx="1.6231"
   ry="1.6231"
   id="rect346"
   style="fill:#ffffff;stroke:#000000;stroke-width:0.52920002" />
  <rect
   class="fil1 str1"
   x="114.155"
   y="112.673"
   width="9.6441603"
   height="6.1115098"
   rx="1.6231"
   ry="1.6231"
   id="rect348"
   style="fill:#ffffff;stroke:#000000;stroke-width:0.52920002" />
  <rect
   class="fil1 str1"
   x="123.791"
   y="112.673"
   width="9.6441603"
   height="6.1138101"
   rx="1.6231"
   ry="1.6231"
   id="rect350"
   style="fill:#ffffff;stroke:#000000;stroke-width:0.52920002" />
  <rect
   class="fil1 str1"
   x="119.599"
   y="106.545"
   width="8.9703302"
   height="6.1115098"
   rx="1.6231"
   ry="1.6231"
   id="rect352"
   style="fill:#ffffff;stroke:#000000;stroke-width:0.52920002" />
  <rect
   class="fil1 str1"
   x="128.604"
   y="106.545"
   width="8.9703302"
   height="6.1138101"
   rx="1.6231"
   ry="1.6231"
   id="rect354"
   style="fill:#ffffff;stroke:#000000;stroke-width:0.52920002" />
  <rect
   class="fil1 str1"
   x="113.207"
   y="101.066"
   width="5.44627"
   height="5.5316401"
   rx="1.5669"
   ry="1.5669"
   id="rect356"
   style="fill:#ffffff;stroke:#000000;stroke-width:0.52920002" />
  <rect
   class="fil1 str1"
   x="113.207"
   y="95.539001"
   width="5.44627"
   height="5.5316401"
   rx="1.5669"
   ry="1.5669"
   id="rect358"
   style="fill:#ffffff;stroke:#000000;stroke-width:0.52920002" />
  <rect
   class="fil1 str1"
   x="123.211"
   y="101.066"
   width="5.44627"
   height="5.5316401"
   rx="1.5669"
   ry="1.5669"
   id="rect360"
   style="fill:#ffffff;stroke:#000000;stroke-width:0.52920002" />
  <rect
   class="fil1 str1"
   x="128.619"
   y="101.066"
   width="5.44627"
   height="5.5316401"
   rx="1.5669"
   ry="1.5669"
   id="rect362"
   style="fill:#ffffff;stroke:#000000;stroke-width:0.52920002" />
  <rect
   class="fil1 str1"
   x="123.211"
   y="95.539001"
   width="5.44627"
   height="5.5316401"
   rx="1.5669"
   ry="1.5669"
   id="rect364"
   style="fill:#ffffff;stroke:#000000;stroke-width:0.52920002" />
  <rect
   class="fil1 str1"
   x="128.619"
   y="95.539001"
   width="5.44627"
   height="5.5316401"
   rx="1.5669"
   ry="1.5669"
   id="rect366"
   style="fill:#ffffff;stroke:#000000;stroke-width:0.52920002" />
  <rect
   class="fil7 str1"
   transform="matrix(0,-0.980924,-0.89405,0,126.793,123.658)"
   width="9.7496004"
   height="6.4417"
   rx="1.6231"
   ry="1.6231"
   id="rect368"
   x="0"
   y="0"
   style="fill:#000000;stroke:#000000;stroke-width:0.52920002" />
  <rect
   class="fil7 str1"
   transform="matrix(0,-0.980924,-0.89405,0,136.391,123.658)"
   width="9.7496004"
   height="6.4417"
   rx="1.6231"
   ry="1.6231"
   id="rect370"
   x="0"
   y="0"
   style="fill:#000000;stroke:#000000;stroke-width:0.52920002" />
  <rect
   class="fil7 str1"
   transform="matrix(0,-0.980924,-0.89405,0,131.339,142.201)"
   width="9.7496004"
   height="6.4417"
   rx="1.6231"
   ry="1.6231"
   id="rect372"
   x="0"
   y="0"
   style="fill:#000000;stroke:#000000;stroke-width:0.52920002" />
  <path
   class="fil3 str1"
   d="M 108.925,172.177 C 109.371,170.8295 110.7571,169.2673 113.3919,167.6702 C 115.9765,166.2393 118.0533,171.3053 117.3923,172.7746 C 116.7168,174.2758 112.8964,174.6329 111.253,175.4218 C 111.2751,175.2697 111.1386,174.729 111.0506,174.4407 C 111.4842,174.0978 113.9694,172.7277 116.2897,172.091 C 113.992,172.6355 112.2958,173.549 110.9994,174.302 C 110.862,173.9373 110.6664,173.4984 110.5858,173.3199 C 110.8305,173.0481 113.6293,170.9428 115.8427,170.2872 C 114.2524,170.7525 113.1727,171.2154 110.5122,173.2162 C 110.2842,172.8639 110.1438,172.7528 110.0101,172.5334 C 111.9802,170.2522 113.0493,169.5794 114.9462,168.5967 C 113.9259,169.093 112.0747,169.7556 109.9104,172.4315 C 109.6553,172.326 109.2297,172.219 108.925,172.177 L 108.925,172.177 z "
   id="path374"
   style="fill:#f8c300;stroke:#000000;stroke-width:0.52920002" />
  <path
   class="fil3 str1"
   d="M 85.696,171.925 C 85.8032,170.5097 86.7706,168.6588 88.9414,166.4723 C 91.1036,164.4592 94.3431,168.8732 94.0567,170.4587 C 93.764,172.0786 90.1432,173.3484 88.7391,174.5111 C 88.7239,174.3581 88.4608,173.8664 88.3057,173.608 C 88.6436,173.1704 90.724,171.2403 92.8216,170.0618 C 90.7237,171.1454 89.2985,172.4417 88.2225,173.4857 C 88.001,173.165 87.7052,172.7863 87.5838,172.6326 C 87.7555,172.3098 89.9626,169.5905 91.952,168.4194 C 90.5213,169.2552 89.5854,169.9654 87.4873,172.5498 C 87.1809,172.2631 87.0178,172.1892 86.8351,172.0086 C 88.1955,169.319 89.0703,168.4077 90.6736,166.9957 C 89.8034,167.7239 88.1672,168.8142 86.7137,171.9338 C 86.4407,171.8931 86.0018,171.8921 85.696,171.925 z "
   id="path376"
   style="fill:#f8c300;stroke:#000000;stroke-width:0.52920002" />
  <path
   class="fil7 str1"
   d="M 70.9134,175.749 C 71.7966,175.1159 75.7092,180.251 75.7092,181.5717 C 75.7092,182.8923 72.2694,181.7824 72.2104,180.6989 C 72.07,178.1241 70.0302,176.3821 70.9134,175.749 L 70.9134,175.749 z "
   id="path378"
   style="fill:#000000;stroke:#000000;stroke-width:0.52920002" />
  <path
   class="fil3 str1"
   d="M 121.891,182.2 C 128.316,183.6683 132.0946,185.3356 138.1232,187.2543 C 138.5809,187.4503 138.7187,187.3261 138.5368,186.8822 C 137.7406,184.6901 136.97,182.5351 135.7659,180.3431 C 134.7053,178.2377 131.6119,177.88 129.0222,178.0283 C 128.9069,178.1718 128.5075,178.4064 128.0837,178.947 C 127.9906,179.0657 133.6013,180.0509 134.4424,180.7522 C 133.7216,180.3348 128.7873,178.9696 127.0811,179.1426 C 126.7191,179.32 126.1817,179.6462 125.7761,179.8188 C 125.6387,179.8772 134.4787,182.4646 135.4763,183.1822 C 134.7434,182.6725 126.9708,180.0006 125.3592,180.1124 C 124.8143,180.3368 123.6233,180.5512 123.1445,180.739 C 128.1093,182.2543 130.7363,183.1821 136.4584,185.4623 C 136.0919,185.3775 127.5601,181.6125 123.1262,181.1824 C 121.8568,181.7013 121.5504,182.074 121.891,182.2 L 121.891,182.2 z "
   id="path380"
   style="fill:#f8c300;stroke:#000000;stroke-width:0.52920002" />
  <path
   class="fil3 str1"
   d="M 120.284,173.804 C 126.709,172.3357 132.0941,170.5223 138.1227,168.6037 C 138.5804,168.4076 138.7182,168.5319 138.5363,168.9758 C 137.7401,171.1679 136.9695,173.3229 135.7654,175.5148 C 134.7048,177.6202 131.6114,177.978 129.0217,177.8297 C 128.9064,177.6861 128.288,177.3054 127.8642,176.7649 C 127.7712,176.6463 133.6008,175.8071 134.4419,175.1058 C 133.7211,175.5232 128.6406,176.7424 126.9345,176.5694 C 126.5724,176.3919 125.9622,176.0657 125.5566,175.8932 C 125.4192,175.8347 134.4782,173.3933 135.4758,172.6758 C 134.7429,173.1854 126.3131,175.8573 124.7015,175.7455 C 124.1565,175.5212 123.6228,175.3067 123.144,175.1189 C 128.1088,173.6036 130.7358,172.6759 136.4579,170.3957 C 136.0914,170.4805 127.2675,174.3914 122.8335,174.8215 C 121.5641,174.3026 119.9434,173.93 120.284,173.804 L 120.284,173.804 z "
   id="path382"
   style="fill:#f8c300;stroke:#000000;stroke-width:0.52920002" />
  <path
   class="fil3 str1"
   d="M 82.3794,171.933 C 92.145,170.245 113.3284,170.5468 126.4396,175.884 C 127.4451,176.2694 129.6067,177.0235 128.9447,178.2427 C 127.2038,180.1834 123.8094,182.8914 117.7749,185.5138 C 117.1462,185.8308 116.2946,186.2023 115.2624,186.5946 C 108.0382,189.3397 91.9739,193.1008 81.6551,186.3515 C 85.4326,182.9907 87.3248,178.0196 82.3794,171.933 z "
   id="path384"
   style="fill:#f8c300;stroke:#000000;stroke-width:0.52920002" />
  <path
   class="fil3 str1"
   d="M 84.5566,187.844 C 84.8693,189.2285 86.0965,190.9184 88.5631,192.7646 C 90.996,194.4406 93.5566,189.601 93.0419,188.0743 C 92.5159,186.5144 88.7485,185.7868 87.1897,184.8415 C 87.1969,184.995 87.0084,185.5199 86.8927,185.7981 C 87.2909,186.1817 89.6307,187.7875 91.8779,188.6472 C 89.6443,187.8814 88.0451,186.807 86.8283,185.9312 C 86.656,186.2809 86.4186,186.6986 86.321,186.8684 C 86.5379,187.1627 89.1183,189.5308 91.2573,190.3989 C 89.7199,189.7809 88.6904,189.2149 86.2376,186.9644 C 85.9763,187.2928 85.8258,187.3896 85.6713,187.595 C 87.4097,190.0573 88.4082,190.8311 90.2004,191.9939 C 89.2332,191.4006 87.4555,190.5607 85.5621,187.6867 C 85.298,187.7668 84.864,187.8319 84.5566,187.844 L 84.5566,187.844 z "
   id="path386"
   style="fill:#f8c300;stroke:#000000;stroke-width:0.52920002" />
  <path
   class="fil3 str1"
   d="M 80.4096,186.34 C 80.2668,186.8659 81.8973,186.5076 82.2943,186.3465 C 88.0233,184.0215 87.0989,175.0037 82.4334,172.0154 C 80.3746,171.8382 74.2413,173.4862 72.7493,175.0368 C 72.573,175.0576 72.1261,175.6344 72.4265,176.2253 C 74.944,179.4234 76.9596,181.5029 74.8768,182.6489 C 74.8456,183.8008 76.4743,184.506 77.2493,185.0127 C 82.9562,188.7297 85.2773,179.8364 83.9972,176.3643 C 85.6589,180.5903 82.982,185.6837 80.4096,186.34 L 80.4096,186.34 z "
   id="path388"
   style="fill:#f8c300;stroke:#000000;stroke-width:0.52920002" />
  <path
   class="fil2 str1"
   d="M 79.1281,174.286 C 80.6163,174.286 81.8301,175.5556 81.8301,177.1121 C 81.8301,178.6687 80.6163,179.9383 79.1281,179.9383 C 77.6399,179.9383 76.4261,178.6687 76.4261,177.1121 C 76.4261,175.5556 77.6399,174.286 79.1281,174.286 z "
   id="path390"
   style="fill:#1f1a17;stroke:#000000;stroke-width:0.52920002" />
  <path
   class="fil4 str2"
   d="M 79.1333,174.718 C 80.397,174.718 81.4276,175.7961 81.4276,177.1178 C 81.4276,178.4395 80.397,179.5175 79.1333,179.5175 C 77.8697,179.5175 76.839,178.4395 76.839,177.1178 C 76.839,175.7961 77.8697,174.718 79.1333,174.718 z "
   id="path392"
   style="fill:#f1bb00;stroke:#000000;stroke-width:0.35280001" />
  <path
   class="fil7 str1"
   d="M 78.8307,175.462 C 79.5553,175.462 80.1463,176.08 80.1463,176.838 C 80.1463,177.5958 79.5553,178.2139 78.8307,178.2139 C 78.1062,178.2139 77.5152,177.5958 77.5152,176.838 C 77.5152,176.08 78.1062,175.462 78.8307,175.462 z "
   id="path394"
   style="fill:#000000;stroke:#000000;stroke-width:0.52920002" />
  <path
   class="fil3 str1"
   d="M 71.6689,179.531 C 71.3526,178.7173 70.8009,177.3498 70.4164,176.6074 C 69.773,174.9391 71.824,174.1965 72.6112,175.1992 C 74.0492,178.4068 79.0446,182.2849 73.9006,182.8296 C 72.6188,182.7148 71.8384,182.2289 71.5784,181.758 C 71.5282,181.4459 71.4535,180.5379 71.6755,180.297 C 71.8833,179.7637 73.0556,179.4391 72.8871,180.1427 C 71.9977,181.5978 73.9255,180.7851 74.1445,181.5329 C 74.6654,182.0895 75.3366,180.8978 74.5579,180.3958 C 72.897,179.017 72.9665,177.5508 71.6069,176.1461 C 71.1067,175.7244 71.2013,176.2746 71.4378,176.7629 C 71.8005,177.4445 72.3463,178.7248 72.7089,179.4065 C 72.7531,179.5311 72.3986,179.7208 72.3432,179.7422 C 72.2565,179.7756 72.0637,179.8407 71.9671,179.9223 C 71.8551,179.8646 71.7517,179.7051 71.6689,179.531 L 71.6689,179.531 z "
   id="path396"
   style="fill:#f8c300;stroke:#000000;stroke-width:0.52920002" />
  <path
   class="fil3 str1"
   d="M 119.111,186.423 C 119.5808,188.1251 116.3909,192.3503 114.6495,191.3077 C 113.7454,191.0895 110.8958,190.1279 110.2915,188.1752 C 110.6788,188.0281 111.2206,187.8571 111.5755,187.6996 C 112.0259,188.5876 115.443,190.0732 115.8335,190.1965 C 114.7041,189.6088 111.6372,187.9833 111.8045,187.6049 C 112.3533,187.3402 112.8659,187.0396 113.3758,186.7125 C 114.384,187.792 116.1557,188.3743 117.0869,188.5746 C 115.4168,188.1292 113.6513,186.9577 113.5266,186.5685 C 113.8724,186.3314 114.279,186.0488 114.6732,185.7578 C 115.3837,186.3997 117.354,186.7738 117.8538,186.8234 C 116.5216,186.5672 114.5592,185.8525 114.9055,185.5962 C 115.1653,185.3954 115.5424,185.0813 115.7453,184.8949 C 117.4991,185.7528 118.862,185.3276 119.111,186.423 z "
   id="path398"
   style="fill:#f8c300;stroke:#000000;stroke-width:0.52920002" />
  <g
   id="_74155624">
   <path
   id="_74600744"
   class="fil5 str4"
   d="M 117.782,181.463 C 119.3893,181.2439 120.5616,180.1051 120.4,178.9199 C 120.2385,177.7347 118.8041,176.9511 117.1968,177.1702"
   style="fill:none;stroke:#000000;stroke-width:0.70560002" />
   <path
   id="_74600672"
   class="fil5 str4"
   d="M 89.761,184.335 C 91.2985,184.3739 92.5686,183.486 92.5973,182.3522 C 92.6259,181.2184 91.4024,180.2674 89.8649,180.2285"
   style="fill:none;stroke:#000000;stroke-width:0.70560002" />
   <path
   id="_74590512"
   class="fil5 str4"
   d="M 89.9129,180.221 C 91.4505,180.2599 92.7205,179.3719 92.7492,178.2382 C 92.7779,177.1044 91.5544,176.1533 90.0168,176.1144"
   style="fill:none;stroke:#000000;stroke-width:0.70560002" />
   <path
   id="_74590440"
   class="fil5 str4"
   d="M 93.9343,186.712 C 95.4721,186.7389 96.7352,185.8411 96.7551,184.7072 C 96.775,183.5732 95.5441,182.6317 94.0064,182.6047"
   style="fill:none;stroke:#000000;stroke-width:0.70560002" />
   <path
   id="_74590368"
   class="fil5 str4"
   d="M 94.0548,182.573 C 95.5926,182.6 96.8557,181.7022 96.8756,180.5682 C 96.8955,179.4343 95.6646,178.4927 94.1268,178.4658"
   style="fill:none;stroke:#000000;stroke-width:0.70560002" />
   <path
   id="_74590296"
   class="fil5 str4"
   d="M 94.1748,178.458 C 95.7126,178.485 96.9757,177.5872 96.9956,176.4532 C 97.0155,175.3193 95.7847,174.3777 94.2469,174.3508"
   style="fill:none;stroke:#000000;stroke-width:0.70560002" />
   <path
   id="_74590224"
   class="fil5 str4"
   d="M 98.7236,182.41 C 100.2573,182.295 101.4323,181.2846 101.3475,180.1536 C 101.2627,179.0227 99.9503,178.1987 98.4165,178.3136"
   style="fill:none;stroke:#000000;stroke-width:0.70560002" />
   <path
   id="_74590152"
   class="fil5 str4"
   d="M 98.4636,178.301 C 99.9973,178.186 101.1723,177.1755 101.0875,176.0446 C 101.0027,174.9136 99.6902,174.0896 98.1565,174.2046"
   style="fill:none;stroke:#000000;stroke-width:0.70560002" />
   <path
   id="_74590080"
   class="fil5 str4"
   d="M 103.388,186.208 C 104.9324,186.0943 106.1239,185.1741 106.0488,184.1532 C 105.9737,183.1322 104.6603,182.3963 103.1158,182.51"
   style="fill:none;stroke:#000000;stroke-width:0.70560002" />
   <path
   id="_74590008"
   class="fil5 str4"
   d="M 103.162,182.478 C 104.7064,182.3643 105.8979,181.4441 105.8228,180.4231 C 105.7476,179.4022 104.4343,178.6663 102.8898,178.78"
   style="fill:none;stroke:#000000;stroke-width:0.70560002" />
   <path
   id="_74589936"
   class="fil5 str4"
   d="M 102.937,178.768 C 104.4814,178.6543 105.6729,177.7341 105.5978,176.7132 C 105.5227,175.6922 104.2093,174.9563 102.6648,175.07"
   style="fill:none;stroke:#000000;stroke-width:0.70560002" />
   <path
   id="_74589864"
   class="fil5 str4"
   d="M 108.463,185.849 C 110.0146,185.6817 111.1831,184.7142 111.0725,183.6885 C 110.9619,182.6628 109.614,181.9666 108.0624,182.1339"
   style="fill:none;stroke:#000000;stroke-width:0.70560002" />
   <path
   id="_74589792"
   class="fil5 str4"
   d="M 108.107,182.1 C 109.6586,181.9327 110.8271,180.9651 110.7165,179.9394 C 110.6059,178.9137 109.258,178.2176 107.7064,178.3849"
   style="fill:none;stroke:#000000;stroke-width:0.70560002" />
   <path
   id="_74589720"
   class="fil5 str4"
   d="M 107.754,178.371 C 109.3056,178.2037 110.4741,177.2362 110.3635,176.2105 C 110.2529,175.1848 108.905,174.4886 107.3534,174.6559"
   style="fill:none;stroke:#000000;stroke-width:0.70560002" />
   <path
   id="_74589648"
   class="fil5 str4"
   d="M 113.096,183.916 C 114.6317,183.8312 115.8263,182.844 115.7638,181.7116 C 115.7012,180.5792 114.4052,179.7296 112.8695,179.8144"
   style="fill:none;stroke:#000000;stroke-width:0.70560002" />
   <path
   id="_74155552"
   class="fil5 str4"
   d="M 112.916,179.78 C 114.4517,179.6951 115.6463,178.708 115.5837,177.5756 C 115.5212,176.4432 114.2252,175.5935 112.6895,175.6783"
   style="fill:none;stroke:#000000;stroke-width:0.70560002" />
  </g>
 </g>
</svg>