<svg viewBox="-20.81 -28.16 561.87 760.34"><title>Herb Janowiec Wielkopolski</title><path d="M.122 0h520.129v501.094c-4.144 195.75-210.687 106.945-260.062 202.929C206.294 604.637-5.905 674.172.126 501.094V0" style="stroke:none;fill-rule:evenodd;fill:#222"/><path d="M476.15 589.734c-48.856-10.894-58.743-24.984-149.024-30.226 3.43 3.601 6.86 7.207 10.293 10.808 6.469 22.942-1.223 26-8.086 30.227-5.726-2.125-10.258-5.453-17.89-5.652-5.68-3.239-10.747-7.086-14.461-12.286-13.317-3.191-16.829 12.532-26.715 7.371q-8.941.858-19.852 12.532c-5.883-1.559-9.148-5.078-9.801-10.567-13.195 5.035-24.546 4.953-31.863-6.386-4.242 8.351-10.129 16.054-17.644 23.101-12.821 8.516-19.77 3.274-20.832-15.726-2.817-6.27-1.754-11.754 1.961-16.711-3.774-5.899-4.059-11.793-1.961-17.692-47.793-2.945-86.274 14.719-129.415 22.34 26.254 44.563 192.501 42.961 219.504 101.035 26.5-57.429 173.93-40.816 215.801-92.168" style="stroke:none;fill-rule:evenodd;fill:#3ba66d"/><path d="M79.06 246.879c6.789 1.769 13.125 2.183 19.258 1.976-.08-.824-.165-1.648-.247-2.472a47 47 0 0 0 13.579.988c-1.723 1.812-3.864 3.465-8.887 3.961.41 10.547-12.024 2.496-23.7-4.453zm-16.79 41.836c3.868.16 7.735-.656 11.602-2.473 3.203 2.969 2.137 5.277-3.207 6.93-5.93.472-7.738-1.629-8.39-4.453zm13.825-3.219q5.915-2.35 1.973 4.207zm-12.344 9.898c1.89 1.403 3.78 1.481 5.676.247q-1.477 3.462-2.961 6.929c-3.797-2.394-3.543-4.785-2.715-7.179zm-24.441-45.3-.493-2.473c5.43-.766 10.86-1.523 16.293-2.969 5.348-1.812 10.036 4.453 2.223 5.446H39.31zm40.508-7.207 3.003-20.493-4.207-151.281q-6.907-51.227-18.633 1.203v160.926q.01 2.41 5.41 4.82l-5.41-1.203c-5.16.258-6.171 4.735 0 4.821l19.837 1.203zm5.714-1.809h19.227c.828 0 1.504.676 1.504 1.504s-.676 1.504-1.504 1.504H85.532a1.507 1.507 0 0 1-1.503-1.504c0-.828.675-1.504 1.503-1.504m357.727 146.961c2.012-5.98 6.305-22.172 5.23-27.504l-14.351 48.848 3.773.187 5.34-21.535zm-1.758-58.371c6.481.754 17.309-7.949 19.449 2.269 4.657.817 4.469 5.614-1.129 7.004v6.625c1.571 7.192 3.145 14.391 4.719 21.586l-4.531 3.973.187-10.793c.879-8.141-4.843-5.867-3.585 0q.28 19.027.566 38.059c-1.004 6.941 3.269 12.558-1.32 11.738-1.321-1.766-7.551.25-11.328-2.461l7.55-.188c2.961-1.511 3.274-3.468 3.211-5.488l.188-46.387c.687-6.816-.313-14.199 2.074-20.449 2.035-2.644-.809-7.172-3.02-2.269-.312 2.461-.629 4.922-.941 7.382-7.93 2.141-8.117-2.144-3.398-3.218q.75-2.462 1.507-4.922c-1.132-2.524-6.797.629-10.195-2.461zm25.875 18.18 3.02 6.812 1.886-3.785zm-35.504 63.05q3.3.186 6.606.379 2.731 9.083-5.852 6.817c-1.258-1.641-1.508-4.043-.754-7.196m13.785 4.547 5.286 1.512c3.898 2.332 6.671-4.606 1.507-4.352l-4.718-.379c-5.414-.816-5.161 2.336-2.075 3.219m13.786 1.324c-.629 2.457-2.512 3.657-5.661 5.11 8.543 1.082 18.352 1.09 37.012-6.438q-.757-1.985-1.508-3.976c-4.156 1.711-7.429.761-10.574-.567.059 1.578.125 3.153.188 4.731-.375 2.336-9.317 5.551-12.086.566-2.453-.062-4.911.629-7.364.567zm19.265-7.386c-.816-2.27-1.637-4.543-2.453-6.813-.941 2.336-3.398 3.156-7.363 2.461 3.273 1.449 4.09 6.879 9.82 4.352zm-7.367 7.578c-2.703 0-4.906-1.445-4.906-3.219 0-1.769 2.203-3.215 4.906-3.215s4.91 1.446 4.91 3.215c0 1.774-2.203 3.219-4.91 3.219m-98.77 17.797 2.454 17.23c.754 3.91-3.02 5.551-4.532 2.649l2.075-19.879zm-21.714 20.07c-4.438-.887-5.926-5.137.375-5.488l10.195-.188c4.215-.312 3.898 8.266-.375 7.571l-10.195-1.891zm17.562-.758c.75 3.406 1.692 6.813 3.965 10.223-5.098-.348-9.566-1.168-12.652-3.027 3.351-.797 6.343-2.864 8.683-7.192zm8.496 1.137c.188 3.027-.625 6.059-2.453 9.086 4.891-.188 8.887-1.578 12.274-3.785l-9.817-5.301zm7.176.945c-2.703 0-4.906-1.316-4.906-2.933 0-1.614 2.203-2.934 4.906-2.934s4.91 1.316 4.91 2.934c0 1.613-2.203 2.933-4.91 2.933m7.555 2.274 8.308-2.461-1.886-1.133-6.231-13.254-13.219.375-2.074-4.352 1.508 11.36 10.008-.188c3.082-.121 4.906.758 5.472 2.649l.942 3.976zm-16.051-35.032.754 11.93-.754 1.699v-13.632zm-6.988 18.18-.942 5.68-19.07-.945.754-6.626 3.773 2.461 15.485-.566zm64.964-21.777c17.512 6.609 35.231 7.273 53.254-.754-9.972 31.547-45.035 25.758-53.254.754m36.258-60.59c3.848 20.59 13.68 35.184 17.563 50.742-1.571.059-3.145.125-4.719.188-8.055-16.219-12.148-35.657-12.84-50.934zm-62.695-97.137c-4.688-6.719-8.902-9.812-12.086-4.922 3.746.219 7.84 2.176 12.086 4.922m-2.078.949-1.133 5.301c-3.711 2.02 1.066 7.637 3.02 3.785l.753-8.898zm-3.586 3.598c2.832-2.207-4.152-6.875-5.098-3.219-.312 2.965-.629 5.93-.941 8.899-1.258 7.004 5.41 7.574 8.683 13.633 2.137 2.722 4.524 4.183 8.684-3.219 5.977-6.184 1.949-14.074.375-14.008-4.406-1.449-3.711 2.395-2.453 3.594 2.074 5.742-4.91 7.886-8.496 3.597-1.949-3.089-4.09-6.183-.754-9.277m16.238 14.77c-1.062 3.718-2.449 7.445-6.043 11.168-5.75.101-7.476-2.485-10.008-4.543-2.453 2.964 3.774 4.035 5.664 8.898-1.761 3.09-3.523 6.184-5.285 9.273-3.847-4.199-2.23-8.308-6.043-9.843-3.418 4.414.239 8.832 4.91 13.254l.376 20.07c4.972.062 8.433-3.66 12.652-5.488 4.531 2.019 2.449 12.746 6.797 17.039 2.765-2.461 5.16-5.11 8.875-6.434-6.989-.629-8.059-6.121-2.074-10.601 9.316-5.36 11.078-14.516 5.285-25.938-11.879 6.93-10.653 2.367-10.196-1.512.25-1.828.5-3.66.754-5.488q-1.13-.57-2.265-1.133c-3.586-2.523-2.266-5.804-3.399-8.707zm-6.703 30.484c-1.922 0-3.492-1.445-3.492-3.219 0-1.769 1.566-3.215 3.492-3.215 1.922 0 3.492 1.446 3.492 3.215 0 1.774-1.566 3.219-3.492 3.219m.094 18.367c-1.383 12.18-10.887 26.063 4.344 41.656 7.703-7.765 4.664-18.894 3.773-29.347-6.48.062-3.332-19.184-8.117-12.305zm2.738 28.403c-1.715 0-3.113-2.04-3.113-4.543s1.398-4.543 3.113-4.543 3.113 2.039 3.113 4.543-1.398 4.543-3.113 4.543m-11.613-13.825v-11.925c2.324-.567 4.656-1.133 6.984-1.704-6.097 13.207-8.777 26.301.754 39.004q-4.154-2.647-8.309-5.3c-7.046 3.214-14.097 7.382-21.148 10.601-.691 3.09-1.383 5.234-2.074 8.328q-.565 2.08-1.129 4.164-2.455-4.166-4.91-8.328-1.98 1.606-3.965 3.219c-.156-7.18-.91-13.461-2.074-19.125 8.019.031 15.699-4.953 35.879-18.934zm-.567 8.145c3.207 7.035-1.195 10.949-9.062 13.441-15.231 5.867-20.649 5.426-16.238-1.324 8.433-4.039 14.226-17.547 25.304-12.117zm-21.91 14.199c6.485-7.398 12.84-13.406 18.317-9.656.562 4.222-8.715 6.965-18.317 9.656m41.926-23.101c5.539-8.395 13.152-9.844 21.715-8.141-4.563 6.738-12.117 8.976-21.715 8.141m10.387 2.652-5.852 3.972-1.887 6.059q-6.32-12.216 7.739-10.031m-92.723 107.738c9.942 20.539 45.32 32.41 53.629 7.192-18.98 9.472-36.668 5.035-53.629-7.192m9.063-25.375-4.153 22.91-5.664-3.218z" style="stroke:none;fill-rule:evenodd;fill:#d1b179"/><path d="M196.403 275.699q2.103 3.33 4.211 6.664l90.641-2.219c-.887.961-1.769 1.926-2.656 2.887q-3.656.664-7.313 1.332c-10.285 10.485-22.511 20.106-38.117 28.219 3.395 6.367-1.769 8-15.512 4.887-12.925-7.266-25.925-16.504-34.128-25.551.367-5.852-.145-10.145 2.878-16.219zm0 15.555c6.868-3.723 15.282-6.281 29.25-4.664q-.772 1.555-1.55 3.109c5.023-1.48 9.605-2.957 11.078-4.441 3.988 2.961-4.211 9.703 3.988 8.886-.367-8.199 6.277-11.125 17.727-10.441 9.777 13.84-2.403 20.148-15.293 26.219-13.102 7.582-28.559-1.36-45.207-18.664zm66.485.664c1.547-6.555 4.207-9.961 9.305-6.442 1.343 4.75-3.536 5.856-9.305 6.442m5.652-2.891c-1.156 0-2.101-.695-2.101-1.554 0-.856.945-1.555 2.101-1.555s2.102.695 2.102 1.555c0 .855-.942 1.554-2.102 1.554m-49.754.891c-5.836 9.105 1.621 13.109 3.102 8.664l10.191-8.223c-1.711 5.934-2.386 11.121 4.211 11.11 5.981-4.59 4.211-18.293 17.949-13.774 7.7 5.238.645 19.938-22.601 21.551-9.719 2.152-18.504-4.961-27.035-14.664-2.434-2.59-.735-4.297 5.097-5.109q4.54.223 9.086.441zm72.914-4c-6.57-.516-12.183 1.848-16.398 8.441-9.379 6.442-13 14.219-28.141 19.328v9.332c-15.98 1.793-22.621-2.136-27.925-6.886q-14.18-11.11-28.364-22.219c-12.039 24.145 9.16 36.734 13.739 55.105 35.042-11.851 64.464-32.293 87.093-63.101zM189.532 327.25c-10.468-11.07-13.019-20.699-3.988-28.219-3.859 12.383-.449 20.598 3.988 28.219m13.739 51.105c-4.207-13.183-15.953-8.144-12.629-31.55.957 2.961 4.355 2.589 2.879 8.886 7.66 1.992 15.097 4.66 26.371-4.218 14.996-8.516 29.992-17.036 44.988-25.551 13-7.258 4.285-16.739 19.723-19.11 1.254 7.106-5.907 5.329-18.172 31.329-9.41 15.605-20.637 31.343-38.34 47.55-4.875 7.91-12.184 13.785-24.156 15.774-.961-8.074-.887-15.629-.664-23.11m22.386-32.886c-11.238 5.457-26.082 16.34-26.812 6-1.676-5.493-4.223-8.805-7.09-11.332-3.504 6.293-4.98 12.589-5.539 18.886-2.102-5.59-1.809-12.48 3.766-22.218 2.035-2.739.925-5.477.441-8.219 6.059 5.816 9.531 12.926 10.859 21.105l24.375-4.218zm-34.128 21.777c3.394 4.367 6.792 8.734 10.191 13.109-2.438 2.887-3.106 5.778-1.992 8.664 1.898 4.977-2.758 17.895 7.312 14.887 13.832-4.043 21.313-12.723 28.586-21.551-6.066 15.356-26.14 35.223-39.668 34.887q-3.321 2.89-6.648 5.774l4.875-8c4.664-22.348.566-34.559-2.656-47.77m.019 102.805c3.609 5.316 3.156 10.976 10.832 15.953 4.402 4.297 14.223 6.902 9.141-3.395-2.028-3.394-4.063-6.789-6.094-10.183-12.672-3.68-11.871-27.243-9.141-53.641 19.586 2.824 52.993-37.91 97.856-114.75a9337 9337 0 0 1-3.383-10.184l3.723-3.054 6.093 12.898c-8.351 23.535-16.703 47.078-25.054 70.617-9.137 27.61-21.664 55.223-41.649 82.836-13.715 12.012-24.433.008-25.054-15.613-2.368-5.203-7.446-3.508-7.11 6.109-1.277 18.262 15.059 34.7 36.906 20.028 21.356-23.414 33.196-51.598 43.68-80.461q10.833-36.833 21.672-73.672c2.445 24.328-7.863 63.824-29.797 117.129-9.762 23.746-21.5 44.035-34.875 61.449-26.07 35.082-56.207 8.371-47.742-22.066zm103.613-138.52c-17.312 47.375-34.66 94.617-56.547 124.598-17.722 16.402-26.976 6.605-33.859-10.524-2.598 20.36 18.168 36.723 36.906 13.918 31.227-40.836 42.387-84.41 53.5-127.992m17.27-2.375-1.352 12.559q-4.905 19.349-9.816 38.703 4.231-10.016 9.816-5.09.339-1.355.676-2.715c-6.828-2.773-5.582-4.926-.676-6.789 11.219-7.426 6.543-21.93 1.352-36.664zm-7.789 23.422c-6.613 13.574-9.883 27.156-12.863 40.738 5.648-13.238 10.843-26.597 12.863-40.738m5.758 16.641c3.269-4.653 6.543-8.059 9.816-2.715 1.352 2.035.898 4.07-1.352 6.109l-8.464 28.176 2.367 5.77c-.449 10.976-.903 21.953-1.352 32.929q-3.043 19.176-11.512 24.781 4.912-9.843 9.817-19.687-.843-6.447-1.691-12.899c0-7.921.335-13.804.335-21.726-4.511 2.262-5.753-2.035-3.046-8.824l9.14-26.817q2.03-6.62-4.062-5.09zm4.742 31.23c.449-7.695 2.594-15.39 4.738-23.086 3.836 16.067.223 36.551 5.418 48.211 1.926 7.129 2.84 14.254-3.387 21.387-17.945 32.25-27.425 41.758-45.711 50.926-16.941 21.203-29.914 25.711-42.324 27.836-18.293 8.293-30.48 2.507-44.695-2.375q.164-4.582.336-9.165c14.222 11.075 30.781 14.036 58.578-22.066 26.691-8.387 44.305-20.355 45.711-38.699 3.836-8.488 4.289-18.332 11.512-25.461 2.144 31.684-8.575 23.309-12.864 42.098q1.014 6.449 6.094.675c8.805-4.863 15.352-15.39 16.93-38.363-.676-10.637.336-21.273-.336-31.91zm-12.192-3.734q-8.122 14.595-10.836 30.554c5.418-9.726 9.032-19.914 10.836-30.554m-13.207 15.621c-3.515 16.789-5.218 30.055 3.047 18.672-1.804 16.293-11.398 27.16-16.929 40.738-6.883-2.035-11.059 7.465-18.622 9.164q.336-3.733.676-7.465l4.063-2.715c12.64-18.445 18.508-38.929 27.761-58.394zm1.356 38.023c-6.77 6.563-10.832 21.953-16.25 23.762-3.496-.34-8.801 2.938-15.914 9.844 6.281-.848 11.894-4.356 17.265-8.824 7.797.253 11.633-11.411 14.899-24.782m-35.895 24.446c-23.855 33.625-38.621 47.156-63.316 26.48-.563 3.395-1.129 6.785-1.692 10.184 11.454 10.578 25.45 11.824 45.032-7.469 10.519-10.84 15.793-20.172 19.976-29.195m71.789-29.879q-12.016 18.668-24.039 37.343c-8.691 8.914-18.16 14.743-27.765 20.028 1.464 1.922 2.933 3.844 4.398 5.769.508-3.394 4.234-6.789 10.156-10.183 6.696-7.528 12.504-10.625 18.286-13.578l3.722 6.789v-12.559c7.91-2.113 11.86-16.953 15.235-33.609zm-48.761 65.867-5.079-5.09-15.234 13.238 3.047 2.035v13.579l9.141-23.086zm-25.735 11.543-6.094 1.355 2.032 2.715 1.351 9.844 2.707-13.918zm-12.867 3.73-7.785 2.035v2.375l5.078 5.094 2.367-6.109zm-12.527 4.414 2.031 4.75-6.094.34-11.851 1.696-2.032 3.394-2.027-5.43-3.723-3.054c13.317 1.582 15.801-.903 23.704-1.696zm88.039-40.398c3.242 13.012 4.652 30.437 3.387 54.32-6.77-9.617-5.415-19.918-14.219-28.855 7.008-9.059 9.261-17.317 10.832-25.461zm-32.168 19.012 17.945-16.293c4.176-3.395 9.027.34 4.738 5.09-6.246 11.242-12.808 21.484-10.832 40.058q3.213-.335 6.43-.676.505-3.901 1.016-7.808c7.644 14.359 16.73 29.758 1.351 27.5-3.726 4.465-8.691 7.066-14.219 8.824-5.109-16.426-6.746-35.75-6.433-56.695zm-10.836 6.453c-5.043 18.84-7.836 38.64.676 61.109 4.859 1.024 10.05 1.477 12.187-2.035-4.515-19.691-9.703-31.57-12.863-59.07zm-15.238 9.164q2.028 20.199 4.062 40.398 1.183 1.524 2.367 3.055v8.484c-4.402 1.356-8.8 1.469-13.203 1.016v-5.77c-3.945.789-7.898.223-11.847-1.695q0-21.389 4.062-42.777c7.789 3.504 1.352 30.781 9.141 39.043 3.836-3.055.562-27.84 5.418-41.758zm-70.094 0q7.447 2.541 14.898 5.09c-5.082-.231-9.718-.012-11.172 3.394q-3.551 13.578-7.109 27.16l2.707 4.411c-5.887 4.992-14.812 1.832-9.48-7.469 7.718-15.211 8.214-23.176 10.156-32.59zm-.676 37.348q8.964 1.013 20.652 8.824l-2.031-30.895q-3.046-6.28-11.512-7.129l-7.109 29.196zm25.395-20.711c3.722-2.836 7.554-4.989 12.187-2.375q2.536 15.784 7.785-2.375c5.66 1.136 6.348 29.211-2.367 37.003.109-8.937-1.578-14.257-5.078-15.953l-2.367 11.879q-3.386 4.922-5.418-1.015-2.366-13.577-4.738-27.161zm69.754 39.722c-6.317-.562-10.833-2.035-13.543-4.41v3.395a76.8 76.8 0 0 1-20.313 1.015c.227-1.808.449-3.617.676-5.429q-6.264-1.694-12.528-3.395c-9.882 7.965-8.937 2.656-10.156 0-6.937 3.961-11.902 4.527-12.527-2.375-4.399-.898-5.637.453-3.723 4.07q1.353 9.17 27.086 7.469c9.481-4.641 8.801 9.731 17.27 5.43 9.254-7.356 20.539-.453 27.761-5.77zm37.25-33.953v7.809l-5.079-10.864zM260.279 90.18c-.243-.907-.493-1.813-.739-2.719l-10.613 3.215q-3.207.125-1.481-1.731c3.54-1.316 7.075-2.64 10.614-3.961 3.293-.82 2.961-2.304-.985-4.453-8.472 2.969-16.949 2.723-25.429 8.91-9.793.989-14.645 5.938-21.973 8.91-4.133 3.059.398 3.797 6.172 4.208q-3.576 2.842-7.156 1.73c.625 2.242-.489 6.066 7.156 1.977 5.184-.661 7.406-4.29 11.109-4.207 6.336-2.969 11.192-10.395 19.008-8.911 2.797 1.481 9.547-1.98 14.317-2.968m-40.493 78.718q3.084 4.578 6.172 9.157a2687 2687 0 0 0-3.949 3.711c3.203 5.796 6.824 10.015 13.328 3.214 6.746-5.941 15.965-2.226 14.316-7.425 6.5-2.262 13-6.723 19.504-11.633q-8.392 8.784-11.851 17.574c-8.328.73-14.93 2.047-9.379 7.426 9.641 1.742 14.078-1.727 17.773-5.942 2.879-4.023 5.758-9.769 8.641-9.898-1.836 5.672-.496 12.637 2.715 6.434 5.301-.86 6.363-15.399 16.539-5.446 1.644 4.043 8.226 11.305 4.441 14.11-4.855 1.07-9.215 3.132-14.07 5.691q.491-3.462.988-6.93c-1-7.304-6.129-4.629-6.418 0l-1.476 11.879c-5.446 2.801-9.41 5.606-2.961 8.414-.16 4.289 2.301 8.578 7.402 12.871-3.765 17.629-14.472 14.391-26.168 8.168-5.758-5.195-16.375-1.152-13.328 6.188 3.535 7.094 25.84-.414 24.688 12.375 4.605-2.063 7.73-4.207 12.343-4.949.227 7.422 2.539 14.847 4.442 22.277l-18.02-.738c2.477-4.547 3.965-8.512-1.48-8.414-1.813-2.145-3.621-1.977-5.43.492-10.125 7.308-17.945 11.437-17.527 4.207 1.558-4.043 10.035-4.125 15.058-6.188-5.922-2.968-23.945 6.68-30.367-2.968q-2.837-5.198 2.219-6.434c-7.488-3.383 6.5-6.766 6.418-14.602-.988-9.57-12.098-3.05-14.07 2.473-14.153 9.981-31.766-8.746-23.95-18.316 2.348-4.289 6.957-6.766 12.59-8.414 13.906-.657 1.645-9.981-7.16-7.918q.615-5.322-.738-10.645c6.441-2.144 4.211-4.289.738-6.433l-4.195-3.465c-1.739-1.817-.352-6.61 5.183-3.215q3.207 3.584 6.418 7.176-.614 2.965-1.234 5.937c.656 2.145 1.976 2.313 3.949.492 3.125 2.637 4.938 1.321 5.43-3.957 2.566-7.925 1.078-11.804-.985-15.097-2.793-2.391 2.305-6.516 3.454-1.235zm4.446 32.43c-3.125-.738-4.774-7.672 3.945-6.68 9.957.493 6.336 7.672 15.059 7.426 3.207-1.73 6.417-3.465 9.628-5.195l6.665 2.472q-10 6.434-19.997 12.872c-2.179-3.586-4.812-4.907-7.652-5.2q-.363-8.787-7.652-5.691zm11.359 3.961 1.48-1.98 4.688 1.484 8.641-4.453 1.972.492-12.093 7.672zm-7.656-25.004q-1.601.985-3.207 1.977c1.148 4.547 3.453 4.461 5.922 3.711q1.598-2.849-2.715-5.692zm24.32 9.902c-2.242 0-4.07-.718-4.07-1.605 0-.883 1.828-1.606 4.07-1.606s4.07.723 4.07 1.606c0 .887-1.828 1.605-4.07 1.605m-64.812 22.528c5.632-6.824 4.847-15.09 4.441-23.266 1.727-8.25-7.156-7.59-8.145-1.73-7.261 2.308-10.839 5.691-10.859 10.64 3.867 3.055 7.734 4.289 11.602 4.7q1.477 4.822 2.961 9.652zm107.648 47.035c-1.891-7.731-2.219-17.426-1.48-28.469 4.933-9.488 11.929-12.789 19.503-14.355 2.813-9.332-1.882-14.032-7.652-18.071-5.758-6.269-9.547 1.321-14.316 1.977-9.711 1.234-12.262 10.891-.985 11.137 2.395-.254 4.207.312 1.973 6.679-9.852 22.817-7.586 35.442 2.961 41.094zm20.492-44.809c4.547-10.488-.183-16.324-10.121-19.554 7.117 3.918 11.563 9.695 10.121 19.554m-30.367 13.121c.984-3.379 1.973-6.765 2.961-10.148.992-5.207-2.051-5.777-5.676-5.691-6.148-6.817-.887-9.344 3.703-12.129q1.975-.615 3.949-1.235-.986-.491-1.972-.988a5367 5367 0 0 0-6.91 1.73c-.985-2.39-.653-5.441.984-9.156-.242-.824-.492-1.648-.738-2.476-1.602 1.918-2.426 8.148-2.715 17.328l-2.715 1.976c-1.148 16.832 14.484 3.961 9.133 20.793zm16.785-41.093c3.567-12.817-3.269-15.196-11.601-16.09 7.324 3.918 12.179 8.867 11.601 16.09m-19.258 43.57c-6.539 7.277-15.429 7.898-25.922 3.957-9.957-11.797-19.668 1.402-9.875 3.215 4.114 1.648 8.231.328 12.344.492 4.281-.91 7.985-.086 9.629 6.93 4.36-3.133 8.723-4.95 13.082-5.442l-.984-3.961 1.726-5.195zm4.2 37.379c-3.872-7.016-5.02-14.027-4.934-21.039 2.012 8.254 5.469 14.441 12.094 16.09q2.588-.74 5.183-1.485v3.215l-4.687.246q-1.976 3.954-6.91 4.949h-14.071q-.983.991-1.972 1.981-35.179.985-70.364 1.976c-3.863-.41-5.429-2.144-4.687-5.195q10.863 6.555 10.863-1.73c-1.488-4.551-2.07-7.864 3.699-2.473q2.96 2.721 5.926 5.441 14.321-.862 28.637-1.73l6.418-3.465c-.406 1.649.164 3.297 1.726 4.949l7.157-4.453q.863 1.481 1.726 2.969l24.192-.246zm1.726 7.18h-8.144l-2.961 1.484-57.278.738 18.762-2.719 47.895-1.98 1.726 2.473zm-83.941-9.657q-1.355-2.349-2.715-4.699c-2.797-2.226-3.617 1.977-5.43 2.969l2.961 4.453c1.235 3.059 8.067 2.32 5.184-2.723m-4.692-7.672c1.809-4.371.16-9.488 5.43-13.117 3.289 3.879 7.484 5.035 12.094 4.949l7.16 9.157c7.582 4.828 3.07 10.601-5.676 8.168-11.062-3.586-5.687-13.465-19.012-9.157zm29.875.247c-.254 5.71 6.239 8.277 10.368 0-3.458.66-6.915.656-10.368 0m-61.23-44.063c2.301-8.609 5.18-5.625 8.144-.988 4.278 10.023 5.84 23.226 6.172 37.871.071 7.867 6.492 5.461 6.418 0 1.192-5.653 1.024-11.758.246-18.067 7.778.036 6.95 15.051 2.219 36.883-11.273.328-8.723-5.777-13.082-8.664-7.078-6.269 6.086-8.086-1.23-14.355-8.067-.821-14.485-2.887-17.282-7.672-6.91 4.699-10.367-3.711-5.183-7.426l13.578-17.574zm15.555 12.379c3.535 8.906 4.109 18.144 1.726 27.723a197 197 0 0 0-1.726-27.723" style="stroke:none;fill-rule:evenodd;fill:#fffdfd"/><path d="M294.486 575.637c7.785-8.145 15.574-13.461 23.363-12.559q4.905 4.582 7.109 9.164 8.799 5.597 10.836 15.277-1.354-.334-2.707-.675c-3.16-7.809-4.965-9.282-5.418-4.411q-.164 5.428-7.109 1.356c-8.348-2.488-9.481-.902-3.383 4.75-2.973-.289-6.117-.781-14.559-7.469q-4.739-.675-8.125-5.429zm-89.735 3.054c-4.613-6.238-13.195-6.91-22.348-6.789q-4.904 6.453-9.816 12.899c1.918-.793 2.934.672 3.047 4.41 2.031-1.242 2.711-.227 2.031 3.055 3.383-3.735 4.516-1.586 3.383 6.449q3.381 1.864 0 5.094c-1.816 6.355 2.699 4.761 8.125 2.035 7.734-8.547 12.359-17.715 15.574-27.161zm103.613-355.246q-16.049 11.262-3.398 36.164c14.469 13.981 28.922 27.766 41.355 17.231q13.499-10.132 27.004-20.258 3.868-1.892 7.743-3.785c3.964-2.016 7.171-.25 8.117 3.785 2.703.883 4.277-.883 5.285-3.594 6.168-3.219 11.582 5.11 12.273-.566 5.598.691 5.914 6.687 8.875 10.031.942-.187 1.887-.379 2.832-.566 1.383-.25 2.77-.504 4.153-.754-4.719-7.953 1.695-16.66-8.5-24.992-16.532-5.403-32.063-3.75-46.074 5.488-15.547 15.269-29.774 11.992-31.536 17.23l-3.019 5.676-4.531.188c-1.918-15.645-6.2-22.997-11.141-28.024l-9.441-13.254zm-93.515-114.949q1.232-.368 2.465-.742c5.933-.074 8.398-1.891 10.367-3.957 8.558-2.887 10.449-9.985 16.785-8.664 2.055-.164 2.141.66.246 2.472 3.867-1.398 5.266 5.118 11.602-4.207l4.441-1.234c2.184 18.973 2.356 36.465-15.305 40.844-14.269 2.031-20.89-7.442-25.921-19.309q-4.319-1.605-4.688-5.195zm30.121 2.23q-3.826 1.485-8.641.989c-3.121-.324-3.941-2.391-4.441-6.684 1.598-3 2.316-.722 3.207.492.41 2.473 3.125 3.961 8.144 4.453l1.727.743zm-12.098 11.141c2.219-1.484 1.973-2.969 7.653-3.711 3.371-2.473 5.265-.738 8.394-.738-.238 2.312-1.219 4.461-7.406 5.445-3.93 1.781-6.11.043-8.641-.988zm-.246 16.336c8.145 2.641 14.977 1.977 20.488-1.98.079 6.101.161 12.21.247 18.316-1.235 3.793.816 4.945 6.171 3.465 1.395-5.113 5.512-3.301 3.454.988-3.286 5.457-6.993 7.02-11.602 7.18-8.395 5.89-16.379 3.828-23.453-1.485-2.469-4.949-.324-6.273 6.418-3.957-.574-7.507-1.153-15.015-1.727-22.523zm-77.769 112.633c8.082 2.594 14.211 7.547 19.007 14.109-14.238 5.942-30.117 8.91-47.648 8.91-13.25-.617-21.973-2.601-28.637-5.195-3.7 6.266-9.215 9.816-15.55 14.109 0-2.722-.49-3.386-2.47-5.445 1.317-1.734 1.317-5.695 0-7.426 1.973-3.875 2.223-7.257 0-10.144-5.511-.121-11.023-.867-16.538-2.969 1.394-1.301 2.328-2.812 11.105-.738 4.692.742 2.8-4.125-2.715-5.692-3.95-1.316-2.468-5.855 3.7-2.472 11.972 10.644 28.929 12.211 48.144 9.652 10.535-1.793 21.066-4.226 31.602-6.684zm-82.711 12.629c-5.676-1.442-10.942-3.09-15.305-5.196v8.664c6.09.161 11.19-.988 15.305-3.464zm-15.801 5.691c4.933.578 9.87.246 14.812-.492-4.191 2.887-8.554 5.363-14.07 4.949-.242-1.484-.492-2.969-.738-4.453zm1.726 8.418c2.961.949 5.922.699 8.887-.988-1.558 3.469-4.277 4.621-7.156 5.441l-1.727-4.453" style="stroke:none;fill-rule:evenodd;fill:#fcd09e"/><path d="M173.071 546.211c12.872-15.617 3.313-26.352 8.95-39.539 8.906-18.43-9.637-26.293.242-36.125 12.336-17.774-3.758-50.051 4.656-70.281 10.129-7.372-4.734-23.59-7.105-35.387-11.356-25.313 14.297-25.309-1.715-48.656-6.942-19.825 24.836-23.43 10.781-42.27-5.637-.652-15.195-1.062-20.832-1.719-26.348 12.219-46.527 14.559-67.645 3.192-4.183 10.261-10.925 14.89-18.378 17.937-1.883 9.117 2.043 23.613-10.782 22.61-14.742-2.68-14.566-14.563-12.254-27.77-8.656-9.258-4.082-19.742-6.125-29.488-20.011 5.566-27.941-2.949-23.773-25.559l24.02 3.195-.489-161.46c-.785-12.551 5.93-27.254 18.87-43.743 5.845 7.7 10.665 16.629 13.236 28.258l7.105 174.238 26.715.981c1.672 2.348.504 9.676-.488 16.711 17.492-1.106 28.176-3.399 30.636-7.125-3.195-6.149-5.406-11.969-.734-15.481q9.556-12.286 19.117-24.574c-2.855-10.894 3.266-17.285 13.477-21.625 1.387-4.504 6.047-8.355 13.969-11.547q2.204-5.285 6.367-6.633c7.926-3.847 9.722-10.156 16.422-11.546 5.554 4.339 7.515-2.125 7.843-13.516l-5.144-4.422c-11.68.57-12.09-2.781-12.988-14.496-4.258-14.738-7.454-30.133-3.184-50.133-1.223-7.086 6.531-11.015 18.383-13.515 8.902-8.516 17.156-10.157 24.754-4.914 3.508 3.531 7.023 4.753 10.535 5.648 1.785 6.633 4.152 13.187 10.535 19.168-1.551 7.043 4.246 12.367 4.164 21.133 1.633 7.371 4.981 9.336 4.899 22.117-2.86-.242-5.719.16-8.575 1.226q-1.833 5.896-5.636 9.829c1.058 2.453.488 8.839-1.715 19.168 9.144-2.008 16.5 1.839 23.035 8.355l6.863 7.613c11.789.387 19.86 7.09 21.297 25.059 7.883 8.277 13.973 17.258 7.469 31.152l12.25 19.172 13.144.598 30.473-12.578c22.133-7.641 38.117-6.84 45.113 6.289 6.805 8.976 14.477 17.851 7.469 28.457-7.07 8.984 3.484 14.375-6.871 19.769q1.939 4.044 3.883 8.086c.297 5.59 6.074 4.989 5.976.899 5.821 4.34 7.813 10.332 8.063 17.074.394 15.375-5.774 12.18-8.66 18.269 4.629 2.161 17.031-5.961 28.976-3.593l1.196-6.59c1.589.195 3.183.398 4.777.597 2.289-5.589-6.172-5.789-2.985-11.382q5.375-14.976 8.364 8.386c4.777 18.371-13.446 25.36 4.48 34.45-2.09 6.488-1.793 12.98.895 19.468l13.742 28.157c10.652 31.25-4.184 50.324-26.59 52.722-27.238-2.035-39.488-21.633-33.758-44.633l17.926-62.609-19.121 9.887-8.062 28.457c-12.883 5.629-12.547-9.184-18.821-13.778l-19.121 11.082 1.793 10.782 20.316 56.918c5.848 18.644-12.523 43.558-34.656 42.238q-36.755-5.093-36.449-31.754l17.625-56.016c9.957-5.789 4.977-14.878 11.949-17.375l-6.273-23.964c1.488-3.993 4.578-5.989 9.261-5.989l1.493 8.387c4.922-.941 12.984-5.031 32.265-20.367l-1.793-32.652c-9.16-3.293-3.382-11.981-5.074-17.973 2.785 3.691 9.457 4.988 8.363 11.082q5.373-4.495 0-8.984-17.18-7.788-15.234-25.161c-.301-7.589-3.387-9.183-9.262-4.793l-19.718 17.375c-11.254 8.672-22.508 16.762-33.762 6.887-9.25-8.59-18.473-17.137-24.5-20.07 5.875 14.676-1.688 28.457 17.629 44.035 29.476 47.828-1.992 38.941 21.808 124.918-6.172 14.574-12.422 29.187-13.742 41.34 4.403 22.16 5.918 45.773 4.203 71.164 89.305 1.812 119.965 17.191 155.7 29.082 13.652-18.992 19.035-48.59 19.828-85.953V15.695H15.618V492.09c-1.238 35.574 2.582 60.894 17.266 78.699 27.074-10.082 84.668-20.441 140.168-24.59zm195.915-155.57-4.532 49.039-10.765-1.325zm9.066 20.257 2.641 28.778 7.55-.188c-3.398-9.527-3.019-23.414-10.195-28.59zm88.758-32.566 6.609 23.289-7.363 1.133c1.57-9.278-5.16-19.125.754-24.426zm-18.977-.996.613 7.433c-2.687 6.911-2.8 13.032-2.976 18.934l6.797-.187c2.453-7.321-.563-13.883-1.508-20.829-.754-3.597-1.762-5.425-2.922-5.347" style="stroke:none;fill-rule:evenodd;fill:#11b1ee"/></svg>