<svg xmlns="http://www.w3.org/2000/svg" viewBox="-30.00 -39.16 810.00 1063.32"><title>Herb Grybów</title><path d="M256.104 472.385c-61.033-37.576-96.108-68.093-120.532-104.87-30.77-46.33-43.632-99.941-46.996-195.898-.936-26.69-1.417-69.6-.787-70.136.138-.116 13.75-.454 30.25-.75l30-.537-.188-9.5c-.403-20.371-10.472-46.589-24.607-64.07-4.217-5.214-4.539-5.93-2.667-5.93 4.547 0 18.838 4.305 26.471 7.974 7.938 3.816 17.495 11.118 17.487 13.361-.002.64-1.127 3.379-2.5 6.085-4.852 9.564-2.14 19.58 5.301 19.58 3.991 0 6.203-2.792 6.203-7.829 0-3.972.144-4.171 3.014-4.171 1.657 0 3.887-.545 4.954-1.212 2.525-1.577 2.771-1.235 3.596 4.98.564 4.257.419 5.232-.78 5.232-2.273 0-4.784 3.356-4.784 6.395 0 11.685 19.121 12.935 26.534 1.734 3.62-5.47 3.61-8.195-.034-9.403-4.374-1.45-5.5-2.633-5.5-5.78 0-1.98.886-3.44 3-4.946 1.65-1.175 3-2.95 3-3.946 0-4.985 7.596-5.418 9.912-.565.785 1.644 2.5 3.834 3.812 4.866 1.775 1.396 2.308 2.673 2.08 4.988-.277 2.837-1.957 4.45-6.18 5.933-1.627.572.55 6.851 3.566 10.288 6.999 7.97 25.012 8.697 30.25 1.22 5.194-7.417-2.806-15.808-8.852-9.284-2.999 3.236-3.636 3.124-6.338-1.112-2.749-4.31-2.75-4.247.234-7.638 2.762-3.138 3.761-3.365 5.516-1.25 2.015 2.428 6.582 1.848 8.928-1.135 3.099-3.94 2.798-9.996-.678-13.634l-2.75-2.879 3-2.148c4.474-3.204 8.414-7.615 10.56-11.821 1.051-2.061 2.337-4.01 2.858-4.332s2.427 2.192 4.236 5.586c2.9 5.44 8.008 10.568 12.161 12.207.739.292.184 1.351-1.47 2.812-5.185 4.576-6.46 11.229-2.845 14.844 2.358 2.358 7.233 2.629 9 .5 1.8-2.169 2.682-1.905 6.71 2.006l3.61 3.506-3.91 3.43-3.91 3.428-1.833-2.435c-2.135-2.835-6.121-3.206-9.444-.878-3.094 2.167-3.079 8.315.027 11.144 3.784 3.446 6.358 4.3 12.934 4.29 4.514-.008 7.755-.68 11.357-2.358 5.369-2.5 10.362-7.54 10.61-10.71.082-1.057.194-2.476.25-3.152.054-.675-1.176-1.326-2.734-1.446s-3.47-.747-4.25-1.394c-2.3-1.91-1.728-6.541 1.083-8.752 1.375-1.082 2.5-2.62 2.5-3.418 0-2.448 3.609-4.935 6.654-4.586 1.988.228 3.256 1.215 4.258 3.314.785 1.644 2.5 3.834 3.812 4.866 3.586 2.82 2.839 7.677-1.474 9.575-9.389 4.133 3.054 18.884 15.01 17.795 5.574-.507 8.353-2.663 9.693-7.518 1.182-4.279-.021-6.935-3.541-7.819-1.836-.46-2.35-1.081-1.873-2.261.362-.895.901-3.339 1.199-5.43.427-3.011.876-3.663 2.151-3.127.886.373 2.956.977 4.6 1.343 2.5.556 3.088 1.272 3.593 4.373.806 4.96 3.454 7.714 7.418 7.714 7.56 0 9.298-9.223 3.76-19.96l-3.096-6.002 5.084-4.57c5.987-5.383 18.24-11.53 28.732-14.413 7.19-1.976 12.02-2.602 12.02-1.56 0 .272-2.252 3.29-5.005 6.707-13.167 16.34-23.801 47.252-22.808 66.298l.313 6 27.5.54c15.125.298 27.613.635 27.75.75 1.463 1.227-1.057 89.277-3.312 115.71-9.017 105.699-38.14 162.554-111.938 218.533-16.964 12.868-55.781 38.114-58.285 37.908-.393-.032-1.586-.595-2.65-1.25" style="fill:#c4a462" transform="translate(-189.62 -43.68)scale(2.17141)"/><path d="M253.985 470.237c-2.72-1.835-11.92-7.94-20.446-13.564-69.974-46.168-104.154-86.35-123.92-145.68-13.4-40.22-19.846-93.139-21.624-177.549l-.669-31.75h37.44c20.592 0 37.742.303 38.112.672s-.756 1.865-2.502 3.323c-3.97 3.314-3.095 5.005 2.587 5.005 2.906 0 5.204.706 7.067 2.171 3.465 2.726 6.458 9.195 6.487 14.02.012 2.03.514 3.995 1.115 4.367.602.371 2.981-1.177 5.288-3.441s4.756-4.117 5.443-4.117 2.067 1.913 3.068 4.25c6.143 14.334 10.65 42.798 11.796 74.5l.623 17.25-5.905-.022c-7.636-.028-12.894-2.453-18.07-8.334-2.249-2.554-4.326-4.644-4.616-4.644s-1.883 2.4-3.539 5.333c-1.655 2.933-5.983 8.058-9.619 11.389l-6.61 6.056 5.026 3.61c2.764 1.987 7.038 6.424 9.497 9.862s5.127 7.15 5.93 8.25c1.42 1.948 1.539 1.905 4.525-1.66 3.976-4.744 12.19-8.84 17.731-8.84 6.408 0 6.725 1.156 6.018 21.942-.857 25.181-4.468 41.394-14.886 66.825-4.212 10.282-5.734 12.892-9.407 16.125-2.41 2.121-5.794 4.14-7.52 4.485-4.166.833-10.09-.853-13.715-3.903-1.617-1.36-3.421-2.474-4.01-2.474-3.081 0-4.197 9.537-1.79 15.298.743 1.778 3.009 4.689 5.035 6.468 5.51 4.837 10.28 4.415 20.495-1.814 1.635-.997 2.507-1.105 2.786-.344.223.61.994 1.913 1.713 2.897 1.216 1.662 1.774 1.432 7.868-3.238 8.758-6.713 14.364-8.775 23.752-8.737 9.108.037 15.004 2.411 20.79 8.372 2.187 2.254 4.382 4.098 4.878 4.098.495 0 1.695-1.344 2.665-2.986 4.193-7.1 13.823-11.174 21.469-9.085 5.079 1.388 6.102 3.272 3.848 7.087-2.058 3.484-2.093 4.984-.115 4.984.844 0 5.117 1.184 9.496 2.631l7.96 2.631 4.41-4.064c7.675-7.074 19.485-9.021 31.748-5.234 11.135 3.44 17.892 10.042 20.404 19.936.629 2.474 1.637 4.663 2.241 4.865 1.589.53 7.86-9.488 9.238-14.755 5.19-19.845-15.535-35.89-36.212-28.034-2.86 1.087-5.4 1.778-5.642 1.535-.242-.242 2.826-5.45 6.818-11.573 8.922-13.683 37.004-59.953 37.004-60.97 0-.407-17.1-10.351-38-22.1-20.9-11.747-38-21.648-38-22 0-.354 4.163-3.003 9.25-5.888 40.11-22.742 63.432-49.906 69.334-80.752 1.77-9.256 1.763-23.562-.017-32.728-.748-3.85-1.155-7.337-.904-7.75.25-.412 17.316-.75 37.925-.75h37.47l-.568 28.75c-1.65 83.7-7.79 137.266-20.146 175.75-15.435 48.074-38.353 81.281-80.844 117.136-12.633 10.66-39.83 29.798-64.5 45.388a990 990 0 0 0-6.554 4.166c-.58.38-3.28-.811-6-2.647m17.554-119.642c0-3.687-3.105-8.803-6.687-11.017-2.878-1.778-4.484-2.056-9.353-1.614-3.83.347-6.205.132-6.815-.618-3.481-4.28-10.917-32.758-13.224-50.652-1.662-12.887-1.806-39.512-.222-41.097.924-.926 2.524-.934 7-.039 20.228 4.048 38.49 21.816 43.783 42.596 3.856 15.138.366 36.024-9.648 57.75-3.175 6.887-4.834 8.497-4.834 4.691m-35.65-136.64c-1.593-6.349 2.587-31.658 8.22-49.761 7.955-25.573 23.773-57.534 28.43-57.446 2.476.047 12.74 13.825 17.467 23.446 9.16 18.645 8.58 34.764-1.799 50.038-2.982 4.389-16.583 16.735-25.436 23.09-7.528 5.403-22.05 13.332-24.463 13.355-1.06.01-1.997-1.045-2.418-2.722m-19.133-97.375c-2.906-.483-7.18-1.828-9.5-2.989-4.798-2.4-11.717-8.66-11.717-10.6 0-1.032 5.725-1.297 28-1.297 31.571 0 31.304-.079 23.397 6.882-7.69 6.769-19.223 9.828-30.18 8.004m76.842-5.377c-7.859-1.783-17.059-6.142-17.059-8.083 0-1.21 5.76-1.426 38-1.426 24.141 0 38 .357 38 .98 0 1.474-6.892 4.696-15.148 7.08-9.75 2.814-34.204 3.624-43.793 1.449m-111.309-4.64c-2.062-1.684-3.75-3.47-3.75-3.966 0-.497 3.15-.903 7-.903 7.955 0 8.724.974 4.195 5.313-1.542 1.478-3.005 2.672-3.25 2.653-.244-.018-2.132-1.412-4.195-3.096m77-2.558c-3.692-.965-1.508-2.311 3.75-2.311 5.59 0 7.338 1.274 3.25 2.37-2.459.659-4.312.643-7-.06" style="fill:#300771" transform="translate(-189.62 -43.68)scale(2.17141)"/></svg>