<svg xmlns="http://www.w3.org/2000/svg"><title>Herb Uniejów</title><path d="M2.484-10.836v634.94C2.484 745.197 365.235 894.89 375 898.336c9.765-3.446 372.516-153.235 372.516-274.232v-634.94z" style="fill:#34679f;fill-opacity:1;stroke:#000;stroke-width:4.96688509;stroke-miterlimit:4;stroke-dasharray:none;stroke-opacity:1" transform="translate(0 13.75)"/><path d="M-559.674 510.87c-7.455-14.229-9.173-19.771-15.13-28.46 7.265-17.548 4.962-24.332 7.442-36.497 2.702-19.117-5.008-33.45-2.306-52.567-7.037-23.142-22.278-44.585-39.403-65.24-3.644-4.396-3.664-13.533 0-17.75 15.731-18.106 35.203-32.814 49.57-54.603 14.369 21.789 33.84 36.497 49.572 54.604 3.664 4.216 3.644 13.353 0 17.749-17.125 20.655-32.366 42.098-39.403 65.24 2.701 19.117-5.008 33.45-2.307 52.567 2.48 12.165.178 18.95 7.442 36.496-5.956 8.69-7.675 14.232-15.477 28.46z" style="fill:#fff;fill-opacity:1;fill-rule:evenodd;stroke:#000;stroke-width:2.6522913;stroke-linecap:butt;stroke-linejoin:miter;stroke-miterlimit:4;stroke-dasharray:none;stroke-opacity:1" transform="translate(745.436 4.41)scale(1.0614)"/><g style="fill:#fff;fill-opacity:1"><path d="M-188.532 667.147c40.497 30.674 50.903-32.542 50.822-50.822-.082-18.478-23.045-58.372-42.352-59.293-47.835-2.258-11.572 40.843-20.797 59.293-4.892 9.784-22.848 27.465-23.56 20.399-1.498-14.87-13.91-37.63-33.881-53.278-15.179-11.894-31.353-33.029-31.877-47.892-.734-20.82 11.804-53.774 63.119-54.756s117.623 62.06 118.467 127.056c.534 41.168-29.466 108.612-51.072 111.57-15.824 2.165-49.653-8.956-28.87-52.277zm164.622 0c-40.498 30.674-50.904-32.542-50.823-50.822.083-18.478 23.046-58.372 42.352-59.293 47.836-2.258 11.572 40.843 20.797 59.293 4.892 9.784 22.848 27.465 23.56 20.399 1.499-14.87 13.91-37.63 33.882-53.278 15.178-11.894 31.353-33.029 31.877-47.892.733-20.82-11.805-53.774-63.12-54.756s-117.623 62.06-118.466 127.056c-.534 41.168 29.465 108.612 51.071 111.57 15.824 2.165 49.653-8.956 28.87-52.277z" style="fill:#fff;fill-opacity:1;fill-rule:evenodd;stroke:#000;stroke-width:4.30901814;stroke-linecap:butt;stroke-linejoin:miter;stroke-miterlimit:4;stroke-dasharray:none;stroke-opacity:1" transform="translate(220.98 47.38)scale(.65331)"/></g><path d="m-559.8 297.012.599 182.376" style="fill:#fff;fill-opacity:1;fill-rule:evenodd;stroke:#000;stroke-width:2.6522913;stroke-linecap:butt;stroke-linejoin:miter;stroke-miterlimit:4;stroke-dasharray:none;stroke-opacity:1" transform="translate(745.436 4.41)scale(1.0614)"/><path d="M-636.233 396.87c-20.498-21.568.499-41.445 15.641-39.59 36.094 4.423 62.093 62.406 42.96 93.564m97.81-57.068c9.633-21.677-1.608-49.4-17.743-41.71-76.78 36.592-52.453 103.862-23.966 119.916" style="fill:none;fill-opacity:.75;fill-rule:evenodd;stroke:#000;stroke-width:2.6522913;stroke-linecap:butt;stroke-linejoin:miter;stroke-miterlimit:4;stroke-dasharray:none;stroke-opacity:1" transform="translate(745.436 4.41)scale(1.0614)"/><path d="M-161.367 52.222c.002.634-2.694 1.148-6.021 1.148s-6.023-.514-6.021-1.148c-.002-.633 2.694-1.147 6.02-1.147 3.328 0 6.024.514 6.022 1.147z" style="fill:#fff;fill-opacity:1;stroke:#000;stroke-width:.50871456;stroke-miterlimit:4;stroke-dasharray:none;stroke-opacity:1" transform="translate(1077.88 159.506)scale(5.53382)"/><path d="M-559.674 510.87c-7.455-14.229-9.173-19.771-15.13-28.46 7.265-17.548 4.962-24.332 7.442-36.497 2.702-19.117-5.008-33.45-2.306-52.567-7.037-23.142-22.278-44.585-39.403-65.24-3.644-4.396-3.664-13.533 0-17.75 15.731-18.106 35.203-32.814 49.57-54.603 14.369 21.789 33.84 36.497 49.572 54.604 3.664 4.216 3.644 13.353 0 17.749-17.125 20.655-32.366 42.098-39.403 65.24 2.701 19.117-5.008 33.45-2.307 52.567 2.48 12.165.178 18.95 7.442 36.496-5.956 8.69-7.675 14.232-15.477 28.46z" style="fill:#fff;fill-opacity:1;fill-rule:evenodd;stroke:#000;stroke-width:2.6522913;stroke-linecap:butt;stroke-linejoin:miter;stroke-miterlimit:4;stroke-dasharray:none;stroke-opacity:1" transform="translate(1192.267 4.41)scale(1.0614)"/><g style="fill:#fff;fill-opacity:1"><path d="M-188.532 667.147c40.497 30.674 50.903-32.542 50.822-50.822-.082-18.478-23.045-58.372-42.352-59.293-47.835-2.258-11.572 40.843-20.797 59.293-4.892 9.784-22.848 27.465-23.56 20.399-1.498-14.87-13.91-37.63-33.881-53.278-15.179-11.894-31.353-33.029-31.877-47.892-.734-20.82 11.804-53.774 63.119-54.756s117.623 62.06 118.467 127.056c.534 41.168-29.466 108.612-51.072 111.57-15.824 2.165-49.653-8.956-28.87-52.277zm164.622 0c-40.498 30.674-50.904-32.542-50.823-50.822.083-18.478 23.046-58.372 42.352-59.293 47.836-2.258 11.572 40.843 20.797 59.293 4.892 9.784 22.848 27.465 23.56 20.399 1.499-14.87 13.91-37.63 33.882-53.278 15.178-11.894 31.353-33.029 31.877-47.892.733-20.82-11.805-53.774-63.12-54.756s-117.623 62.06-118.466 127.056c-.534 41.168 29.465 108.612 51.071 111.57 15.824 2.165 49.653-8.956 28.87-52.277z" style="fill:#fff;fill-opacity:1;fill-rule:evenodd;stroke:#000;stroke-width:4.30901814;stroke-linecap:butt;stroke-linejoin:miter;stroke-miterlimit:4;stroke-dasharray:none;stroke-opacity:1" transform="translate(667.811 47.38)scale(.65331)"/></g><path d="m-559.8 297.012.599 182.376" style="fill:#fff;fill-opacity:1;fill-rule:evenodd;stroke:#000;stroke-width:2.6522913;stroke-linecap:butt;stroke-linejoin:miter;stroke-miterlimit:4;stroke-dasharray:none;stroke-opacity:1" transform="translate(1192.267 4.41)scale(1.0614)"/><path d="M-636.233 396.87c-20.498-21.568.499-41.445 15.641-39.59 36.094 4.423 62.093 62.406 42.96 93.564m97.81-57.068c9.633-21.677-1.608-49.4-17.743-41.71-76.78 36.592-52.453 103.862-23.966 119.916" style="fill:none;fill-opacity:.75;fill-rule:evenodd;stroke:#000;stroke-width:2.6522913;stroke-linecap:butt;stroke-linejoin:miter;stroke-miterlimit:4;stroke-dasharray:none;stroke-opacity:1" transform="translate(1192.267 4.41)scale(1.0614)"/><path d="M-161.367 52.222c.002.634-2.694 1.148-6.021 1.148s-6.023-.514-6.021-1.148c-.002-.633 2.694-1.147 6.02-1.147 3.328 0 6.024.514 6.022 1.147z" style="fill:#fff;fill-opacity:1;stroke:#000;stroke-width:.50871456;stroke-miterlimit:4;stroke-dasharray:none;stroke-opacity:1" transform="translate(1524.71 159.506)scale(5.53382)"/><path d="M374.868 769.092c-5.635-10.756-6.934-14.946-11.437-21.515 5.492-13.264 3.75-18.393 5.626-27.59 2.042-14.45-3.786-25.286-1.743-39.738-5.32-17.494-16.842-33.705-29.788-49.32-2.755-3.322-2.77-10.229 0-13.417 11.893-13.688 26.612-24.806 37.474-41.278 10.862 16.472 25.581 27.59 37.474 41.278 2.77 3.188 2.754 10.095 0 13.418-12.946 15.614-24.467 31.825-29.788 49.32 2.043 14.45-3.785 25.286-1.743 39.738 1.875 9.196.134 14.325 5.626 27.59-4.503 6.568-5.802 10.758-11.7 21.514z" style="fill:#fff;fill-opacity:1;fill-rule:evenodd;stroke:#000;stroke-width:2.00502872;stroke-linecap:butt;stroke-linejoin:miter;stroke-miterlimit:4;stroke-dasharray:none;stroke-opacity:1" transform="translate(-151.513 -211.786)scale(1.40404)"/><g style="fill:#fff;fill-opacity:1"><path d="M-188.532 667.147c40.497 30.674 50.903-32.542 50.822-50.822-.082-18.478-23.045-58.372-42.352-59.293-47.835-2.258-11.572 40.843-20.797 59.293-4.892 9.784-22.848 27.465-23.56 20.399-1.498-14.87-13.91-37.63-33.881-53.278-15.179-11.894-31.353-33.029-31.877-47.892-.734-20.82 11.804-53.774 63.119-54.756s117.623 62.06 118.467 127.056c.534 41.168-29.466 108.612-51.072 111.57-15.824 2.165-49.653-8.956-28.87-52.277zm164.622 0c-40.498 30.674-50.904-32.542-50.823-50.822.083-18.478 23.046-58.372 42.352-59.293 47.836-2.258 11.572 40.843 20.797 59.293 4.892 9.784 22.848 27.465 23.56 20.399 1.499-14.87 13.91-37.63 33.882-53.278 15.178-11.894 31.353-33.029 31.877-47.892.733-20.82-11.805-53.774-63.12-54.756s-117.623 62.06-118.466 127.056c-.534 41.168 29.465 108.612 51.071 111.57 15.824 2.165 49.653-8.956 28.87-52.277z" style="fill:#fff;fill-opacity:1;fill-rule:evenodd;stroke:#000;stroke-width:4.30901814;stroke-linecap:butt;stroke-linejoin:miter;stroke-miterlimit:4;stroke-dasharray:none;stroke-opacity:1" transform="translate(444.396 368.782)scale(.65331)"/></g><path d="m374.774 607.424.452 137.87" style="fill:#fff;fill-opacity:1;fill-rule:evenodd;stroke:#000;stroke-width:2.00502872;stroke-linecap:butt;stroke-linejoin:miter;stroke-miterlimit:4;stroke-dasharray:none;stroke-opacity:1" transform="translate(-151.513 -211.786)scale(1.40404)"/><path d="M316.993 682.913c-15.496-16.304.377-31.331 11.824-29.928 27.285 3.343 46.94 47.176 32.476 70.73m73.941-43.141c7.282-16.386-1.216-37.344-13.413-31.53-58.043 27.661-39.653 78.515-18.118 90.65" style="fill:none;fill-opacity:.75;fill-rule:evenodd;stroke:#000;stroke-width:2.00502872;stroke-linecap:butt;stroke-linejoin:miter;stroke-miterlimit:4;stroke-dasharray:none;stroke-opacity:1" transform="translate(-151.513 -211.786)scale(1.40404)"/><path d="M398.731 699.186c.009 2.498-10.619 4.524-23.731 4.524s-23.74-2.026-23.732-4.524c-.008-2.497 10.62-4.523 23.732-4.523s23.74 2.026 23.731 4.523z" style="fill:#fff;fill-opacity:1;stroke:#000;stroke-width:2.00502825;stroke-miterlimit:4;stroke-dasharray:none;stroke-opacity:1" transform="translate(-151.513 -211.786)scale(1.40404)"/><path d="M291.813 31.219c18.725 1.077 46.343 47.308 46.343 70.562v44.781H253.25c-24.943 0-62.187-23.206-64.75-44.28v160.812c2.563-21.075 39.807-44.313 64.75-44.313h84.906v320.25h73.688v-320.25h84.906c24.843 0 61.921 22.995 64.75 44V102.594c-2.829 21.005-39.907 43.968-64.75 43.969h-84.906V101.78c0-23.254 27.618-69.485 46.344-70.562z" style="fill:#f4aa2c;fill-opacity:1;fill-rule:evenodd;stroke:#000;stroke-width:3.75;stroke-linecap:butt;stroke-linejoin:miter;stroke-miterlimit:4;stroke-dasharray:none;stroke-opacity:1" transform="translate(0 13.75)"/></svg>