<!-- Created with Inkscape (http://www.inkscape.org/) -->
<svg role="img" viewBox="-17.34 -20.55 554.70 641.10"
   xmlns="http://www.w3.org/2000/svg"
   xmlns:xlink="http://www.w3.org/1999/xlink"
   id="svg13496"><title>Herb Jagiellonów</title>
  <defs
     id="defs3">
    <linearGradient
       id="linearGradient15908">
      <stop
         id="stop15910"
         offset="0"
         style="stop-color:#ffff00;stop-opacity:1;" />
      <stop
         id="stop15912"
         offset="1.0000000"
         style="stop-color:#c6c800;stop-opacity:1.0000000;" />
    </linearGradient>
    <linearGradient
       id="linearGradient10413">
      <stop
         id="stop10415"
         offset="0"
         style="stop-color:#0040ff;stop-opacity:1;" />
      <stop
         id="stop10417"
         offset="1.0000000"
         style="stop-color:#0000c4;stop-opacity:1.0000000;" />
    </linearGradient>
    <linearGradient
       y2="731.13635"
       x2="397.58499"
       y1="220.91516"
       x1="397.58484"
       gradientTransform="matrix(0.224617,0.000000,0.000000,0.261529,437.6852,280.0154)"
       gradientUnits="userSpaceOnUse"
       id="linearGradient13522"
       xlink:href="#linearGradient10413" />
    <linearGradient
       gradientUnits="userSpaceOnUse"
       y2="331.55014"
       x2="704.42664"
       y1="261.74667"
       x1="704.42664"
       gradientTransform="matrix(0.750433,0.000000,0.000000,1.332564,-1.635510,0.000000)"
       id="linearGradient15914"
       xlink:href="#linearGradient15908" />
    <linearGradient
       y2="731.13635"
       x2="397.58499"
       y1="220.91516"
       x1="397.58484"
       gradientTransform="matrix(0.224617,0.000000,0.000000,0.261529,437.6852,280.0154)"
       gradientUnits="userSpaceOnUse"
       id="linearGradient17439"
       xlink:href="#linearGradient10413" />
    <linearGradient
       y2="331.55014"
       x2="704.42664"
       y1="261.74667"
       x1="704.42664"
       gradientTransform="matrix(0.750433,0.000000,0.000000,1.332564,-1.635510,5.311983e-14)"
       gradientUnits="userSpaceOnUse"
       id="linearGradient17441"
       xlink:href="#linearGradient15908" />
  </defs>
  <sodipodi:namedview
     showguides="true"
     borderopacity="1.0"
     bordercolor="#666666"
     pagecolor="#ffffff"
     id="base" />
  <metadata
     id="metadata4">
    <rdf:RDF
       id="RDF5">
      <cc:Work
         id="Work6"
         rdf:about="">
        <dc:format
           id="format7">image/svg+xml</dc:format>
        <dc:type
           rdf:resource="http://purl.org/dc/dcmitype/StillImage"
           id="type9" />
      </cc:Work>
    </rdf:RDF>
  </metadata>
  <g
     id="layer1">
    <g
       transform="matrix(4.280080,0.000000,0.000000,4.240072,-1995.557,-1415.151)"
       id="g17434">
      <path
         id="path6559"
         d="M 466.98949,334.50985 L 466.98949,401.47214 C 466.98950,438.30400 525.41668,473.14779 526.98949,474.50985 C 528.56231,473.14777 586.98949,438.05839 586.74388,400.98091 L 586.98949,334.50985 L 526.98949,334.50985 L 466.98949,334.50985 z "
         style="fill:url(#linearGradient17439);fill-opacity:1.0000000;fill-rule:nonzero;stroke:#000000;stroke-width:1.5000000;stroke-miterlimit:4.0000000;stroke-dashoffset:0.00000000;stroke-opacity:1.0000000" />
      <path
         id="path17432"
         d="M 519.30199,351.10807 L 519.30199,366.07682 L 499.17699,366.07682 L 499.17699,385.48307 L 519.30199,385.48307 L 519.30199,406.23307 L 499.05199,406.23307 L 499.05199,425.63932 L 519.30199,425.63932 L 519.30199,450.32682 L 535.52074,450.32682 L 535.52074,425.63932 L 554.80199,425.63932 L 554.80199,406.23307 L 535.52074,406.23307 L 535.52074,385.48307 L 554.92699,385.48307 L 554.92699,366.07682 L 535.52074,366.07682 L 535.52074,351.10807 L 519.30199,351.10807 z "
         style="opacity:0.55251139;fill:#000000;fill-opacity:0.50196081;fill-rule:nonzero;stroke:none;stroke-width:2.3000000;stroke-miterlimit:4.0000000;stroke-dashoffset:0.00000000;stroke-opacity:1.0000000" />
      <path
         id="rect14385"
         d="M 519.30199,346.46875 L 519.30199,361.43750 L 499.17699,361.43750 L 499.17699,380.84375 L 519.30199,380.84375 L 519.30199,401.59375 L 499.05199,401.59375 L 499.05199,421.00000 L 519.30199,421.00000 L 519.30199,445.68750 L 535.52074,445.68750 L 535.52074,421.00000 L 554.80199,421.00000 L 554.80199,401.59375 L 535.52074,401.59375 L 535.52074,380.84375 L 554.92699,380.84375 L 554.92699,361.43750 L 535.52074,361.43750 L 535.52074,346.46875 L 519.30199,346.46875 z "
         style="fill:url(#linearGradient17441);fill-opacity:1.0000000;fill-rule:nonzero;stroke:#000000;stroke-width:1.5000000;stroke-miterlimit:4.0000000;stroke-dashoffset:0.00000000;stroke-opacity:1.0000000" />
    </g>
  </g>
</svg>