<!-- Creator: CorelDRAW -->
<svg
   xmlns="http://www.w3.org/2000/svg"
   style="shape-rendering:geometricPrecision; text-rendering:geometricPrecision; image-rendering:optimizeQuality; fill-rule:evenodd; clip-rule:evenodd"
   viewBox="0 0 210 297"
   id="svg2"
   version="1.0"><title>Herb Lipno</title><metadata
   id="metadata20"><rdf:RDF><cc:Work
       rdf:about=""><dc:format>image/svg+xml</dc:format><dc:type
         rdf:resource="http://purl.org/dc/dcmitype/StillImage" /></cc:Work></rdf:RDF></metadata><sodipodi:namedview
   guidetolerance="10.0"
   gridtolerance="10.0"
   objecttolerance="10.0"
   borderopacity="1.0"
   bordercolor="#666666"
   pagecolor="#ffffff"
   id="namedview18" />
 <defs
   id="defs4">
  <style
   type="text/css"
   id="style6">
   
    .fil3 {fill:#00923F}
    .fil2 {fill:#0A0B0C}
    .fil4 {fill:#DA251D}
    .fil5 {fill:#F8C300}
    .fil0 {fill:#0A0B0C}
    .fil1 {fill:white}
   
  </style>
 </defs>
 <g
   id="Warstwa_x0020_1"
   transform="matrix(1.2342191,0,0,1.2342191,-24.593004,-34.781544)">
  <metadata
   id="CorelCorpID_0Corel-Layer" />
  <path
   id="path10"
   class="fil0"
   d="M 210,164.911 C 209.9999,222.1419 162.8321,268.819 105,268.819 C 47.2552,268.819 0,222.0558 0,164.911 L 0,28.181 L 210,28.181 L 210,164.911 L 210,164.9106 L 210,164.911 z "
   style="fill:#0a0b0c" />
  <path
   id="path12"
   class="fil1"
   d="M 204.54,164.173 C 204.5399,218.8286 159.8248,263.4051 105.0001,263.4051 C 50.2577,263.4051 5.4602,218.7459 5.4602,164.1726 L 5.4602,33.5956 L 204.5402,33.5956 L 204.5402,164.1726 L 204.5402,164.1726 L 204.54,164.173 z "
   style="fill:#ffffff" />
  <path
   id="path50"
   class="fil2"
   d="M 119.28,159.744 L 117.7454,159.744 L 117.7454,168.2277 L 124.1105,168.2277 C 122.9001,165.4412 121.2122,162.5524 119.28,159.744 z M 125.3671,171.6766 L 117.7454,171.6766 L 117.7454,179.9572 L 116.0189,183.0052 L 114.2965,179.9572 L 114.2965,171.6766 L 106.8344,171.6766 L 106.8344,179.9572 L 105.1079,183.0052 L 103.3855,179.9572 L 103.3855,171.6766 L 95.7605,171.6766 L 95.7605,179.9572 L 94.0341,183.0052 L 92.3116,179.9572 L 92.3116,171.6766 L 84.8502,171.6766 C 84.3465,173.2964 84.0102,174.8865 83.8831,176.4178 L 83.8831,225.2535 C 83.8845,225.6042 83.6035,225.8908 83.2528,225.8963 L 31.9715,225.8963 C 31.607,225.8981 31.3129,225.5924 31.3287,225.2283 L 32.9674,191.5576 C 32.971,191.4701 32.9924,191.3843 33.0304,191.3055 L 35.9046,185.5697 L 35.9046,110.3585 L 33.0658,104.5103 C 32.9976,104.4103 32.9569,104.29 32.9548,104.1601 L 32.9548,90.9616 C 32.9535,90.6069 33.2434,90.3173 33.5977,90.3188 L 38.2846,90.3188 L 48.3329,48.8943 C 46.1161,48.6003 44.4084,46.9287 44.4084,44.9214 C 44.4084,42.7078 46.4848,40.9025 49.0306,40.9025 C 51.5764,40.9025 53.6527,42.7078 53.6527,44.9214 C 53.6527,46.9156 51.967,48.5785 49.7713,48.8882 L 59.6201,90.3188 L 64.722,90.3188 C 65.0763,90.3173 65.3662,90.6069 65.3649,90.9616 L 65.3649,104.1601 C 65.3628,104.2908 65.3216,104.4117 65.2528,104.5119 L 62.3899,110.3596 L 62.3899,123.523 L 68.466,123.523 C 68.8202,123.5216 69.1103,123.8112 69.1088,124.1659 L 69.1088,130.7966 L 74.416,130.7966 L 74.416,124.1659 C 74.4147,123.8113 74.7042,123.5216 75.0589,123.523 L 81.7905,123.523 C 82.1448,123.5216 82.4348,123.8111 82.4334,124.1659 L 82.4334,130.7966 L 87.7279,130.7966 L 87.7279,124.1659 C 87.7266,123.8082 88.0189,123.5216 88.3708,123.523 L 95.1151,123.523 C 95.4658,123.5285 95.7467,123.8151 95.7454,124.1659 L 95.7454,130.7966 L 98.0271,130.7966 L 99.0229,105.4712 C 99.1155,103.1227 98.6705,101.5722 97.9514,100.5926 C 97.2324,99.613 96.2323,99.1336 94.9764,98.9917 C 92.4647,98.7077 89.0272,99.9599 86.3917,101.5507 C 85.0256,102.3753 83.9474,103.2753 83.1898,104.0593 C 83.6188,104.1523 84.1189,104.2276 84.7655,104.2862 C 86.8677,104.4767 88.1417,105.6139 88.6986,106.9208 C 89.2556,108.2278 89.1976,109.6461 89.039,110.6648 C 88.7233,112.6922 87.4941,114.0675 85.9757,114.8248 C 84.4573,115.5821 82.659,115.7832 80.9963,115.6946 C 77.4778,115.5071 72.4755,114.4342 69.487,115.3039 C 68.9892,115.4568 68.5245,114.9768 68.6929,114.4844 C 69.8414,111.1265 69.1893,106.5216 69.4492,102.6979 C 69.5785,100.7965 69.9137,98.6317 71.4536,97.1134 C 72.4858,96.0957 73.8803,95.4174 75.3741,95.2981 C 76.8678,95.1788 78.4675,95.6512 79.7609,96.9117 C 80.6417,97.77 81.3869,99.0905 81.135,100.7817 C 81.1141,100.9219 81.125,101.0355 81.1224,101.1599 C 85.9318,96.854 90.166,95.0397 93.4763,94.5165 C 96.4391,94.0483 98.4602,94.5432 99.7037,94.9199 C 99.9122,92.2331 99.0566,90.1843 97.4219,88.5287 C 95.6388,86.7226 92.9568,85.3871 90.0096,84.4191 C 85.9215,83.0763 81.5258,82.9201 79.0676,83.3602 C 79.3889,83.6013 79.7852,83.8583 80.2652,84.1544 C 82.0564,85.2594 82.6729,86.8281 82.5721,88.2262 C 82.4713,89.6242 81.7692,90.8354 81.1602,91.655 C 79.9478,93.2868 78.2337,93.9414 76.5338,93.9241 C 74.834,93.9067 73.126,93.2816 71.6805,92.4618 C 68.6212,90.7261 64.6361,87.5558 61.5579,86.9781 C 61.0469,86.879 60.8621,86.2369 61.2427,85.8814 C 63.8057,83.4639 65.3094,79.1472 67.2936,75.9227 C 68.28,74.3195 69.589,72.5876 71.6553,71.9518 C 73.041,71.5255 74.5916,71.5534 75.9791,72.1156 C 77.3667,72.6779 78.5741,73.7969 79.1559,75.4815 C 79.5519,76.629 79.6156,78.1356 78.6138,79.5028 C 78.4625,79.7091 78.3896,79.8941 78.3112,80.0826 C 80.9287,79.436 84.6317,79.3936 88.6356,80.0826 C 92.833,80.8049 97.2251,82.3613 100.7247,84.8982 C 101.0855,82.4907 101.197,80.4669 100.6743,78.6708 C 100.0751,76.6114 98.725,74.6836 96.0731,72.456 C 94.0011,70.7155 90.9909,68.4071 87.4758,66.4681 C 87.5337,66.9054 87.6459,67.4041 87.8162,68.0439 C 88.3587,70.0819 87.6812,71.6296 86.606,72.519 C 85.5308,73.4085 84.1582,73.7459 83.1772,73.9183 C 81.1876,74.2679 79.5312,73.6155 78.3364,72.4812 C 77.1418,71.3469 76.3631,69.7672 75.8783,68.1826 C 74.8492,64.8191 74.1367,59.7761 72.2982,57.2405 C 72.0036,56.8211 72.3019,56.2379 72.815,56.2321 C 76.3382,56.2382 80.4021,54.1343 84.0596,53.1562 C 85.8878,52.6673 88.1704,52.3036 90.1231,53.2697 C 92.7285,54.5587 94.5135,57.7616 93.0477,60.9971 C 92.5368,62.1249 91.4845,63.2398 89.8205,63.5436 C 89.711,63.5636 89.639,63.6041 89.5432,63.6318 C 91.6299,64.7104 94.1339,66.133 96.5647,67.8296 C 98.785,69.3792 100.8417,71.0687 102.2627,72.7711 C 102.7953,67.8495 103.0388,62.5932 103.1955,57.1145 C 102.9259,57.3117 102.65,57.5703 102.3635,57.9213 C 101.0263,59.5597 99.3214,59.8446 97.9514,59.4088 C 96.5815,58.973 95.5006,57.9701 94.8503,57.1649 C 93.586,55.5994 93.3652,53.8134 93.7914,52.1981 C 94.2177,50.583 95.2348,49.1108 96.4009,47.9373 C 97.6385,46.6919 99.2914,45.38 100.813,44.0042 C 102.3345,42.6285 103.7115,41.1905 104.3805,39.8065 C 104.604,39.335 105.2695,39.3181 105.515,39.7812 C 107.1924,42.8315 110.9742,45.3564 113.5829,48.0634 C 114.8767,49.406 116.2459,51.0775 116.331,53.2193 C 116.3879,54.6509 115.9655,56.1429 115.0704,57.3414 C 114.1753,58.54 112.778,59.4313 110.9986,59.5601 C 109.8565,59.6427 108.4877,59.2686 107.6076,58.06 C 107.3186,57.6632 107.1139,57.4316 106.9017,57.2658 C 107.0566,62.6098 107.2927,67.9661 107.8093,72.7838 C 109.2306,71.0767 111.2812,69.3833 113.5073,67.8296 C 115.9381,66.133 118.4421,64.7104 120.5288,63.6318 C 120.433,63.6041 120.361,63.5636 120.2515,63.5436 C 118.5875,63.2398 117.5352,62.1249 117.0243,60.9971 C 115.5585,57.7616 117.3436,54.5587 119.9489,53.2697 C 121.9016,52.3036 124.1842,52.6673 126.0124,53.1562 C 129.6699,54.1343 133.7338,56.2382 137.257,56.2321 C 137.7697,56.2379 138.0684,56.821 137.7738,57.2405 C 135.9353,59.7761 135.2228,64.8191 134.1937,68.1826 C 133.7089,69.7672 132.9429,71.3469 131.7481,72.4812 C 130.5534,73.6155 128.8844,74.2679 126.8948,73.9183 C 125.9138,73.7459 124.5412,73.4085 123.466,72.519 C 122.3908,71.6296 121.7133,70.0819 122.2558,68.0439 C 122.4261,67.4041 122.5383,66.9054 122.5962,66.4681 C 119.0811,68.4071 116.0709,70.7155 113.9989,72.456 C 111.347,74.6836 110.0095,76.6114 109.4103,78.6708 C 108.8876,80.4669 108.9865,82.4907 109.3473,84.8982 C 112.8473,82.3602 117.2505,80.8051 121.449,80.0826 C 125.459,79.3926 129.1554,79.4331 131.7733,80.0826 C 131.695,79.8937 131.6098,79.7096 131.4582,79.5028 C 130.4564,78.1356 130.5201,76.629 130.9161,75.4815 C 131.4979,73.7969 132.7053,72.6779 134.0929,72.1156 C 135.4804,71.5534 137.0436,71.5255 138.4293,71.9518 C 140.4956,72.5876 141.792,74.3195 142.7784,75.9227 C 144.7626,79.1472 146.2789,83.4639 148.8419,85.8814 C 149.2235,86.241 149.0299,86.887 148.5141,86.9781 C 145.4359,87.5558 141.4508,90.7261 138.3915,92.4618 C 136.946,93.2816 135.2507,93.9067 133.5508,93.9241 C 131.8509,93.9414 130.1242,93.2868 128.9118,91.655 C 128.3028,90.8354 127.6007,89.6242 127.4999,88.2262 C 127.3991,86.8281 128.0282,85.2594 129.8194,84.1544 C 130.2994,83.8583 130.6957,83.6013 131.017,83.3602 C 128.5601,82.9187 124.1539,83.0753 120.0624,84.4191 C 117.1152,85.3871 114.4332,86.7226 112.6501,88.5287 C 111.0154,90.1843 110.1598,92.2331 110.3683,94.9199 C 111.6118,94.5432 113.6329,94.0483 116.5957,94.5165 C 119.9047,95.0395 124.1425,96.8578 128.9496,101.1599 C 128.947,101.0355 128.9705,100.9219 128.9496,100.7817 C 128.6977,99.0905 129.4303,97.77 130.3111,96.9117 C 131.6045,95.6512 133.2042,95.1788 134.6979,95.2981 C 136.1917,95.4174 137.5862,96.0957 138.6184,97.1134 C 140.1583,98.6317 140.5061,100.7965 140.6354,102.6979 C 140.8953,106.5216 140.2306,111.1265 141.3791,114.4844 C 141.5415,114.97 141.0902,115.4431 140.5976,115.3039 C 137.6091,114.4342 132.5942,115.5071 129.0757,115.6946 C 127.413,115.7832 125.6147,115.5821 124.0963,114.8248 C 122.5779,114.0675 121.3487,112.6922 121.033,110.6648 C 120.8744,109.6461 120.8291,108.2278 121.386,106.9208 C 121.9429,105.6139 123.2043,104.4767 125.3065,104.2862 C 125.9531,104.2276 126.4532,104.1523 126.8822,104.0593 C 126.1246,103.2753 125.0464,102.3753 123.6803,101.5507 C 121.0448,99.9599 117.6199,98.7077 115.1082,98.9917 C 113.8524,99.1336 112.8396,99.613 112.1206,100.5926 C 111.4015,101.5722 110.9565,103.1227 111.0491,105.4712 L 112.0425,130.7966 L 114.3771,130.7966 L 114.3771,124.1659 C 114.3757,123.8151 114.6566,123.5285 115.0074,123.523 L 121.7516,123.523 C 122.1058,123.5216 122.3958,123.8112 122.3945,124.1659 L 122.3945,130.7966 L 127.689,130.7966 L 127.689,124.1659 C 127.6877,123.8113 127.9772,123.5216 128.3319,123.523 L 135.0761,123.523 C 135.4268,123.5285 135.7078,123.8151 135.7064,124.1659 L 135.7064,130.7966 L 141.0136,130.7966 L 141.0136,124.1659 C 141.0122,123.8113 141.3019,123.5216 141.6565,123.523 L 147.7956,123.523 L 147.7956,110.3597 L 144.8962,104.4375 L 144.9001,104.4356 C 144.8586,104.3524 144.8347,104.2591 144.8332,104.1601 L 144.8332,90.9616 C 144.8318,90.6109 145.1128,90.3243 145.4635,90.3188 L 150.5681,90.3188 L 160.4169,48.8882 C 158.2212,48.5785 156.5355,46.9156 156.5355,44.9214 C 156.5355,42.7078 158.6118,40.9025 161.1576,40.9025 C 163.7034,40.9025 165.7798,42.7078 165.7798,44.9214 C 165.7798,46.9287 164.0721,48.6003 161.8553,48.8943 L 171.9036,90.3188 L 176.6003,90.3188 C 176.951,90.3243 177.232,90.6109 177.2306,90.9616 L 177.2306,104.1601 C 177.229,104.259 177.205,104.3524 177.1635,104.4355 L 177.1676,104.4375 L 174.2808,110.3591 L 174.2808,185.5445 L 177.155,191.3055 C 177.1974,191.3834 177.2232,191.4692 177.2306,191.5576 L 178.8568,225.2283 C 178.8723,225.5875 178.5861,225.891 178.2265,225.8963 L 126.7184,225.8963 C 126.5476,225.897 126.3837,225.8295 126.263,225.7088 C 126.1423,225.5881 126.0748,225.4241 126.0754,225.2535 L 126.0754,176.2035 C 126.0754,174.7833 125.8228,173.2616 125.3671,171.6766 L 125.3671,171.6766 z M 86.1466,168.2277 L 92.3116,168.2277 L 92.3116,159.744 L 90.9124,159.744 C 89.0501,162.5009 87.3906,165.3785 86.1466,168.2277 L 86.1466,168.2277 z M 95.7605,153.3114 L 95.7605,156.295 L 103.3855,156.295 L 103.3855,145.1829 C 101.1473,147.2756 98.441,150.0836 95.7605,153.3114 z M 106.8344,145.2212 L 106.8344,156.295 L 114.2965,156.295 L 114.2965,153.2314 C 111.7242,150.1645 109.0997,147.4059 106.8344,145.2212 z M 114.2965,168.2277 L 114.2965,159.744 L 106.8344,159.744 L 106.8344,168.2277 L 114.2965,168.2277 z M 103.3855,168.2277 L 103.3855,159.744 L 95.7605,159.744 L 95.7605,168.2277 L 103.3855,168.2277 z "
   style="fill:#0a0b0c" />
  <sodipodi:namedview
   guidetolerance="10.0"
   gridtolerance="10.0"
   objecttolerance="10.0"
   borderopacity="1.0"
   bordercolor="#666666"
   pagecolor="#ffffff"
   id="base" />
  <path
   id="line24"
   class="fil3"
   d="M 110.767,130.796 L 109.07,130.796 L 109.07,124.1653 C 109.0714,123.8106 108.7814,123.521 108.4271,123.5224 L 101.6955,123.5224 C 101.3409,123.521 101.0512,123.8107 101.0526,124.1653 L 101.0526,130.796 L 99.315,130.796 L 100.3088,105.521 C 100.4087,102.9875 99.9326,101.1264 98.9852,99.8357 C 98.0378,98.5449 96.6299,97.8891 95.1152,97.7179 C 92.0858,97.3754 88.5286,98.768 85.7363,100.4534 C 83.889,101.5684 82.3323,102.8436 81.5133,103.9579 C 81.2972,104.2601 81.3843,104.6854 81.7024,104.8781 C 82.559,105.4066 83.5305,105.4571 84.6522,105.5588 C 86.3807,105.7155 87.1065,106.4561 87.5137,107.4119 C 87.921,108.3677 87.9136,109.5945 87.7785,110.4626 C 87.5237,112.0986 86.642,113.0619 85.4085,113.6771 C 84.1751,114.2922 82.5747,114.5009 81.0721,114.4208 C 78.0519,114.2599 73.6065,113.3157 70.1174,113.9418 C 71.0371,110.3078 70.4979,106.0897 70.7225,102.7855 C 70.8454,100.979 71.1829,99.1825 72.3487,98.033 C 73.1704,97.2228 74.3105,96.6637 75.475,96.5707 C 76.6396,96.4777 77.8273,96.8191 78.866,97.8313 C 79.5551,98.5029 80.0485,99.3389 79.8619,100.592 C 79.7443,101.3811 79.8659,102.0664 80.0636,102.609 C 80.2225,103.0415 80.7783,103.1691 81.1099,102.8485 C 86.155,98.0559 90.4345,96.3018 93.6781,95.7892 C 96.9217,95.2765 99.1154,95.9934 100.1071,96.3312 C 100.4873,96.4633 100.8964,96.213 100.9517,95.8144 C 101.4597,92.3922 100.3388,89.6553 98.3297,87.6205 C 96.3206,85.5856 93.4692,84.2122 90.4131,83.2084 C 85.466,81.5835 80.2055,81.44 77.5676,82.3512 C 77.1853,82.4837 77.0204,82.9367 77.2272,83.284 C 77.7492,84.1589 78.6116,84.6503 79.5846,85.2505 C 81.0598,86.1606 81.3717,87.1165 81.299,88.1247 C 81.2263,89.1329 80.6565,90.2018 80.1392,90.898 C 79.1647,92.2097 77.9355,92.6518 76.5465,92.6377 C 75.1575,92.6235 73.6187,92.0936 72.3109,91.3518 C 69.6858,89.8626 66.1532,87.0589 62.7555,86.0447 C 65.2292,83.2827 66.6833,79.3645 68.3904,76.5902 C 69.3265,75.069 70.4468,73.6584 72.021,73.1739 C 73.1297,72.8329 74.4135,72.8597 75.5002,73.3 C 76.587,73.7404 77.4824,74.5676 77.9458,75.9095 C 78.2529,76.7994 78.3183,77.7386 77.5802,78.7458 C 77.0209,79.5089 76.8334,80.2788 76.7986,80.914 C 76.7694,81.3728 77.2235,81.7135 77.6558,81.557 C 79.8524,80.7676 84.0117,80.586 88.4088,81.3426 C 92.8059,82.0993 97.4706,83.7786 100.8383,86.5237 C 101.2172,86.8297 101.7902,86.6135 101.872,86.133 C 102.3985,83.1435 102.5819,80.6576 101.8972,78.3046 C 101.2125,75.9517 99.6604,73.7971 96.8926,71.4722 C 94.6033,69.5491 91.2109,66.911 87.1608,64.8162 C 86.7969,64.6227 86.3447,64.8213 86.2405,65.2196 C 85.9661,66.248 86.2757,67.2371 86.5809,68.3837 C 87.0257,70.0545 86.5712,70.884 85.7993,71.5226 C 85.0275,72.1611 83.8419,72.5027 82.963,72.6571 C 81.3409,72.9421 80.179,72.4593 79.219,71.5478 C 78.259,70.6363 77.5424,69.2586 77.1012,67.8164 C 76.2183,64.9308 75.5807,60.4633 73.811,57.3912 C 77.5065,57.086 81.2529,55.2326 84.4001,54.391 C 86.1159,53.9322 88.0947,53.6933 89.5559,54.4162 C 91.6287,55.4417 93.0521,57.8698 91.8754,60.4671 C 91.497,61.3024 90.8255,62.0575 89.5937,62.2824 C 88.804,62.4266 88.1965,62.7594 87.7533,63.127 C 87.3931,63.4221 87.4607,63.9952 87.8793,64.1985 C 90.027,65.2474 93.0642,66.9549 95.8337,68.8879 C 98.6033,70.821 101.1159,73.0088 102.2123,74.8506 C 102.5239,75.3698 103.3241,75.2 103.3973,74.5984 C 104.1245,68.8283 104.3274,62.5891 104.5066,56.118 C 104.5185,55.7015 104.1315,55.3831 103.7251,55.4751 C 102.7689,55.6967 102.0365,56.31 101.3803,57.1139 C 100.3049,58.4317 99.3368,58.5018 98.3423,58.1854 C 97.3479,57.869 96.3725,57.0216 95.8463,56.3702 C 94.8263,55.1071 94.6818,53.8204 95.0269,52.5127 C 95.372,51.205 96.2593,49.9003 97.3086,48.8443 C 98.4576,47.6881 100.107,46.3753 101.6703,44.9617 C 102.9513,43.8034 104.1635,42.5684 105.0109,41.2429 C 107.0523,44.2777 110.4315,46.6425 112.6627,48.9578 C 113.8961,50.2376 114.9939,51.6578 115.0579,53.2691 C 115.1032,54.4089 114.7511,55.6323 114.0494,56.5718 C 113.3477,57.5114 112.3242,58.184 110.9105,58.2863 C 110.105,58.3445 109.2284,58.1091 108.6414,57.303 C 107.9495,56.3533 107.2757,55.8638 106.3849,55.639 C 105.9694,55.5269 105.5617,55.8522 105.5782,56.2819 C 105.754,62.5495 105.9844,69.0187 106.6875,74.5984 C 106.7606,75.1997 107.5607,75.3701 107.8725,74.8506 C 108.9689,73.0088 111.4689,70.821 114.2385,68.8879 C 117.008,66.9549 120.0452,65.2474 122.1929,64.1985 C 122.6114,63.9952 122.6791,63.422 122.3189,63.127 C 121.8757,62.7594 121.2809,62.4266 120.4911,62.2824 C 119.2593,62.0575 118.5752,61.3024 118.1968,60.4671 C 117.0201,57.8698 118.4435,55.4417 120.5163,54.4162 C 121.9775,53.6933 123.9689,53.9322 125.6848,54.391 C 128.8343,55.2332 132.5756,57.0882 136.2738,57.3912 C 134.5026,60.4634 133.8542,64.9298 132.971,67.8164 C 132.5298,69.2586 131.8258,70.6363 130.8658,71.5478 C 129.9058,72.4593 128.7439,72.9421 127.1219,72.6571 C 126.2429,72.5027 125.0573,72.1611 124.2855,71.5226 C 123.5136,70.884 123.0465,70.0545 123.4913,68.3837 C 123.7965,67.2371 124.106,66.248 123.8317,65.2196 C 123.7257,64.8292 123.2847,64.6334 122.924,64.8162 C 118.8739,66.911 115.4689,69.5491 113.1796,71.4722 C 110.4118,73.7971 108.8597,75.9517 108.175,78.3046 C 107.4903,80.6576 107.6737,83.1435 108.2002,86.133 C 108.282,86.6132 108.8547,86.8299 109.2339,86.5237 C 112.6016,83.7786 117.2663,82.0993 121.6634,81.3426 C 126.0605,80.586 130.2198,80.7676 132.4164,81.557 C 132.8484,81.7134 133.3027,81.373 133.2736,80.914 C 133.2388,80.2787 133.0513,79.5089 132.492,78.7458 C 131.7539,77.7386 131.8193,76.7994 132.1264,75.9095 C 132.5898,74.5676 133.4852,73.7404 134.572,73.3 C 135.6587,72.8597 136.9425,72.8329 138.0512,73.1739 C 139.6254,73.6584 140.7457,75.069 141.6818,76.5902 C 143.3889,79.3645 144.843,83.2827 147.3167,86.0447 C 143.919,87.0589 140.3864,89.8626 137.7613,91.3518 C 136.4535,92.0936 134.9273,92.6235 133.5383,92.6377 C 132.1493,92.6518 130.9201,92.2097 129.9456,90.898 C 129.4283,90.2018 128.8585,89.1329 128.7858,88.1247 C 128.7131,87.1165 129.0124,86.1606 130.4876,85.2505 C 131.4606,84.6503 132.323,84.1588 132.845,83.284 C 133.0518,82.9367 132.8867,82.4836 132.5046,82.3512 C 129.8667,81.44 124.6062,81.5835 119.6591,83.2084 C 116.603,84.2122 113.7516,85.5856 111.7425,87.6205 C 109.7334,89.6553 108.6125,92.3922 109.1205,95.8144 C 109.1758,96.2128 109.5846,96.4635 109.965,96.3312 C 110.9568,95.9934 113.1505,95.2765 116.3941,95.7892 C 119.6377,96.3018 123.9298,98.0559 128.9749,102.8485 C 129.3057,103.1557 129.8466,103.0306 130.0086,102.609 C 130.2063,102.0664 130.3279,101.3811 130.2103,100.592 C 130.0237,99.3389 130.5171,98.5029 131.2062,97.8313 C 132.2449,96.8191 133.4326,96.4777 134.5972,96.5707 C 135.7617,96.6637 136.9018,97.2228 137.7235,98.033 C 138.8893,99.1825 139.2268,100.979 139.3497,102.7855 C 139.5743,106.0897 139.0477,110.3078 139.9674,113.9418 C 136.4772,113.3127 132.0352,114.2598 129.0128,114.4208 C 127.5101,114.5009 125.8971,114.2922 124.6637,113.6771 C 123.4302,113.0619 122.5611,112.0986 122.3064,110.4626 C 122.1712,109.5945 122.1512,108.3677 122.5585,107.4119 C 122.9657,106.4561 123.6915,105.7155 125.42,105.5588 C 126.5417,105.4571 127.5258,105.4066 128.3825,104.8781 C 128.696,104.6812 128.7772,104.2566 128.5589,103.9579 C 127.7399,102.8436 126.1958,101.5684 124.3485,100.4534 C 121.5562,98.768 117.9864,97.3754 114.957,97.7179 C 113.4423,97.8891 112.0344,98.5449 111.087,99.8357 C 110.1396,101.1264 109.6635,102.9875 109.7634,105.521 L 110.767,130.796 L 110.767,130.796 z "
   style="fill:#00923f" />
  <path
   id="line24_0"
   class="fil4"
   d="M 149.081,186.263 L 173.2086,186.263 L 175.5294,190.9146 L 149.081,190.9146 L 149.081,186.263 z M 172.9946,184.9771 L 149.081,184.9771 L 149.081,110.8412 L 172.9946,110.8412 L 172.9946,184.9771 z M 149.081,192.1878 L 175.9772,192.1878 L 177.5454,224.6104 L 149.081,224.6104 L 149.081,192.1878 L 149.081,192.1878 z M 175.5607,104.7903 L 173.2416,109.568 L 148.8326,109.568 L 146.4935,104.7903 L 175.5607,104.7903 z M 146.106,91.6045 L 151.224,91.6045 L 151.224,98.6386 C 151.2226,98.9929 151.5122,99.2828 151.8669,99.2815 L 158.4473,99.2815 C 158.798,99.2759 159.0789,98.9893 159.0776,98.6386 L 159.0776,91.6045 L 163.5149,91.6045 L 163.5149,98.6386 C 163.5136,98.9929 163.803,99.2828 164.1578,99.2815 L 170.7381,99.2815 C 171.0926,99.2828 171.3824,98.993 171.381,98.6386 L 171.381,91.6045 L 175.957,91.6045 L 175.957,103.5171 L 146.106,103.5171 L 146.106,91.6045 L 146.106,91.6045 z M 147.7952,142.4596 C 144.0518,145.8208 138.7214,151.3365 134.2689,157.4204 C 130.8668,162.0692 127.9605,167.0371 126.7187,171.6824 C 125.4805,167.0376 122.5844,162.069 119.2048,157.4204 C 114.6965,151.2195 109.2929,145.609 105.5651,142.268 C 105.3265,142.0519 104.9638,142.0477 104.7204,142.2554 C 101.3915,145.0598 96.1679,150.3536 91.6102,156.5506 C 87.9104,161.5811 84.6409,167.1954 83.2532,172.6004 C 81.8975,167.1973 78.7046,161.5806 75.0837,156.5506 C 70.6912,150.4487 65.6543,145.2353 62.3895,142.3988 L 62.3895,137.3895 L 147.7952,137.3895 L 147.7952,142.4596 L 147.7952,142.4596 z M 147.7952,136.1037 L 62.3895,136.1037 L 62.3895,124.8087 L 67.8353,124.8087 L 67.8353,131.4395 C 67.8339,131.7902 68.1149,132.0768 68.4656,132.0823 L 75.0585,132.0823 C 75.4092,132.0768 75.6902,131.7902 75.6888,131.4395 L 75.6888,124.8087 L 81.1472,124.8087 L 81.1472,131.4395 C 81.1459,131.7937 81.4353,132.0837 81.7901,132.0823 L 88.3704,132.0823 C 88.7249,132.0837 89.0147,131.7939 89.0134,131.4395 L 89.0134,124.8087 L 94.4717,124.8087 L 94.4717,131.4395 C 94.4704,131.7937 94.7599,132.0837 95.1147,132.0823 L 101.695,132.0823 C 102.0494,132.0837 102.3393,131.7939 102.3379,131.4395 L 102.3379,124.8087 L 107.7963,124.8087 L 107.7963,131.4395 C 107.7949,131.7902 108.0759,132.0768 108.4266,132.0823 L 115.007,132.0823 C 115.3614,132.0837 115.6512,131.7939 115.6499,131.4395 L 115.6499,124.8087 L 121.1083,124.8087 L 121.1083,131.4395 C 121.1069,131.7937 121.3964,132.0837 121.7512,132.0823 L 128.3315,132.0823 C 128.6859,132.0837 128.9757,131.7939 128.9744,131.4395 L 128.9744,124.8087 L 134.4328,124.8087 L 134.4328,131.4395 C 134.4314,131.7937 134.721,132.0837 135.0757,132.0823 L 141.6561,132.0823 C 141.8268,132.083 141.9907,132.0155 142.1114,131.8948 C 142.2321,131.7741 142.2996,131.6101 142.299,131.4395 L 142.299,124.8087 L 147.7952,124.8087 L 147.7952,136.1037 L 147.7952,136.1037 z M 34.2072,192.1878 L 61.1159,192.1878 L 61.1159,224.6104 L 32.639,224.6104 L 34.2072,192.1878 L 34.2072,192.1878 z M 61.1159,190.9146 L 34.655,190.9146 L 36.9757,186.263 L 61.1159,186.263 L 61.1159,190.9146 L 61.1159,190.9146 z M 61.1159,184.9771 L 37.1897,184.9771 L 37.1897,110.8412 L 61.1159,110.8412 L 61.1159,184.9771 z M 34.6255,104.7903 L 63.6908,104.7903 L 61.3518,109.568 L 36.9546,109.568 L 34.6255,104.7903 L 34.6255,104.7903 z M 34.2273,91.6045 L 38.8033,91.6045 L 38.8033,98.6386 C 38.802,98.9929 39.0915,99.2828 39.4462,99.2815 L 46.0266,99.2815 C 46.3809,99.2828 46.6709,98.9931 46.6694,98.6386 L 46.6694,91.6045 L 51.1068,91.6045 L 51.1068,98.6386 C 51.1054,98.9929 51.3949,99.2828 51.7497,99.2815 L 58.33,99.2815 C 58.6807,99.2759 58.9617,98.9893 58.9603,98.6386 L 58.9603,91.6045 L 64.0784,91.6045 L 64.0784,103.5171 L 34.2273,103.5171 L 34.2273,91.6045 L 34.2273,91.6045 z "
   style="fill:#da251d" />
  <path
   id="path34"
   class="fil2"
   d="M 48.6615,119.464 C 47.1008,122.3166 46.1237,125.5278 45.8125,129.1328 C 45.8119,129.1497 45.8119,129.1665 45.8125,129.1833 L 45.8125,173.0522 C 45.8112,173.4065 46.1007,173.6964 46.4555,173.6951 L 51.9138,173.6951 C 52.2646,173.6895 52.5456,173.4029 52.5442,173.0522 L 52.5442,129.1833 C 52.5448,129.1665 52.5448,129.1497 52.5442,129.1328 C 52.3149,126.2468 51.6797,123.1364 49.796,119.4766 C 49.564,119.0071 48.9006,119.0043 48.6615,119.464 L 48.6615,119.464 z M 160.3885,119.4766 C 158.5048,123.1364 157.8696,126.2468 157.6404,129.1328 C 157.6397,129.1497 157.6397,129.1665 157.6404,129.1833 L 157.6404,173.0522 C 157.6391,173.4065 157.9285,173.6964 158.2833,173.6951 L 163.7291,173.6951 C 164.0835,173.6964 164.3733,173.4066 164.372,173.0522 L 164.372,129.1833 C 164.3726,129.1665 164.3726,129.1497 164.372,129.1328 C 164.0609,125.5278 163.0838,122.3166 161.523,119.464 C 161.2802,119.0058 160.62,119.0152 160.3885,119.4766 z "
   style="fill:#0a0b0c" />
  <path
   id="line24_1"
   class="fil5"
   d="M 62.3895,224.61 L 62.3895,144.1106 C 65.5547,146.9951 70.0774,151.8054 74.0374,157.3066 C 78.4286,163.4066 82.118,170.3649 82.6095,176.4173 L 82.6095,224.61 L 62.3895,224.61 L 62.3895,224.61 z M 147.7952,224.61 L 127.3608,224.61 L 127.3608,176.203 C 127.3608,170.9407 130.8359,164.2797 135.3026,158.1764 C 139.3533,152.6415 144.1859,147.5443 147.7952,144.1994 L 147.7952,224.61 z "
   style="fill:#f8c300" />
 </g>
</svg>