<!-- Created with Inkscape (http://www.inkscape.org/) -->
<svg role="img" viewBox="-16.84 -22.84 483.70 645.70"
   xmlns="http://www.w3.org/2000/svg"
   xmlns:xlink="http://www.w3.org/1999/xlink"
   id="svg3143"><title>Herb Hrubieszów</title>
  <defs
     id="defs3">
    <linearGradient
       y2="329.27704"
       x2="1124.3217"
       y1="170.75812"
       x1="1051.2367"
       gradientTransform="matrix(0.999674,0.000000,0.000000,1.000077,-712.9989,8.771726)"
       gradientUnits="userSpaceOnUse"
       id="linearGradient1571"
       xlink:href="#linearGradient10413" />
    <linearGradient
       id="linearGradient10413">
      <stop
         id="stop10415"
         offset="0.00000000"
         style="stop-color:#ffff00;stop-opacity:1.0000000;" />
      <stop
         id="stop10417"
         offset="1.0000000"
         style="stop-color:#ffc800;stop-opacity:1.0000000;" />
    </linearGradient>
    <linearGradient
       y2="329.27704"
       x2="1124.3217"
       y1="170.75812"
       x1="1051.2367"
       gradientTransform="matrix(0.999674,0.000000,0.000000,1.000077,-712.9989,8.771726)"
       gradientUnits="userSpaceOnUse"
       id="linearGradient1566"
       xlink:href="#linearGradient10413" />
    <linearGradient
       xlink:href="#linearGradient19662"
       id="linearGradient33894"
       gradientUnits="userSpaceOnUse"
       gradientTransform="matrix(0.747608,3.252366e-18,4.731369e-18,1.337599,0.303623,-1.039857e-14)"
       x1="271.42917"
       y1="218.31509"
       x2="456.76257"
       y2="218.31509" />
    <linearGradient
       xlink:href="#linearGradient19662"
       id="linearGradient33892"
       gradientUnits="userSpaceOnUse"
       gradientTransform="matrix(0.747608,1.648980e-18,2.963904e-18,1.337599,0.303623,1.071930e-14)"
       x1="271.42917"
       y1="218.31509"
       x2="456.76257"
       y2="218.31509" />
    <linearGradient
       xlink:href="#linearGradient19662"
       id="linearGradient26027"
       gradientUnits="userSpaceOnUse"
       gradientTransform="matrix(0.693075,0.000000,0.000000,1.442845,-32.85410,-10.79372)"
       x1="464.63235"
       y1="305.21262"
       x2="499.82193"
       y2="343.31625" />
    <linearGradient
       xlink:href="#linearGradient19662"
       id="linearGradient26025"
       gradientUnits="userSpaceOnUse"
       gradientTransform="scale(0.693075,1.442845)"
       x1="464.63235"
       y1="305.21262"
       x2="499.82193"
       y2="343.31625" />
    <linearGradient
       xlink:href="#linearGradient19662"
       id="linearGradient26182"
       gradientUnits="userSpaceOnUse"
       gradientTransform="matrix(1.039967,0.000000,0.000000,0.878043,29.76047,5.276166)"
       x1="236.46127"
       y1="454.45706"
       x2="286.82202"
       y2="478.66516" />
    <linearGradient
       xlink:href="#linearGradient19662"
       id="linearGradient26185"
       gradientUnits="userSpaceOnUse"
       gradientTransform="matrix(-1.039967,0.000000,0.000000,0.878043,719.0905,4.609274)"
       x1="236.46127"
       y1="454.45706"
       x2="286.82202"
       y2="478.66516" />
    <linearGradient
       xlink:href="#linearGradient19662"
       id="linearGradient26019"
       gradientUnits="userSpaceOnUse"
       gradientTransform="scale(1.340793,0.745827)"
       x1="266.24524"
       y1="770.94739"
       x2="294.04022"
       y2="804.38831" />
    <linearGradient
       xlink:href="#linearGradient19662"
       id="linearGradient26201"
       gradientUnits="userSpaceOnUse"
       gradientTransform="matrix(0.694191,0.000000,0.000000,1.315395,25.67413,3.211941)"
       x1="507.48239"
       y1="307.18845"
       x2="507.48239"
       y2="449.24820" />
    <linearGradient
       xlink:href="#linearGradient19662"
       id="linearGradient26205"
       gradientUnits="userSpaceOnUse"
       gradientTransform="matrix(1.097206,0.000000,0.000000,0.832237,29.76047,5.276166)"
       x1="183.42874"
       y1="542.36700"
       x2="256.27359"
       y2="477.03027" />
    <linearGradient
       id="linearGradient19662">
      <stop
         style="stop-color:#ffffff;stop-opacity:1;"
         offset="0"
         id="stop19664" />
      <stop
         style="stop-color:#dcdcdc;stop-opacity:1.0000000;"
         offset="1.0000000"
         id="stop19666" />
    </linearGradient>
    <linearGradient
       xlink:href="#linearGradient19662"
       id="linearGradient26209"
       gradientUnits="userSpaceOnUse"
       gradientTransform="matrix(-1.097206,0.000000,0.000000,0.832237,719.0905,4.609274)"
       x1="183.42874"
       y1="542.36700"
       x2="256.27359"
       y2="477.03027" />
    <linearGradient
       id="linearGradient25916">
      <stop
         style="stop-color:#c80000;stop-opacity:1.0000000;"
         offset="0.00000000"
         id="stop25918" />
      <stop
         style="stop-color:#ff0000;stop-opacity:1.0000000;"
         offset="1.0000000"
         id="stop25920" />
    </linearGradient>
    <linearGradient
       xlink:href="#linearGradient25916"
       id="linearGradient24959"
       gradientUnits="userSpaceOnUse"
       gradientTransform="matrix(0.865660,0.000000,0.000000,1.154900,3.713650e-2,0.000000)"
       x1="413.73187"
       y1="425.93259"
       x2="167.21260"
       y2="113.40689" />
  </defs>
  <sodipodi:namedview
     borderopacity="1.0"
     bordercolor="#666666"
     pagecolor="#ffffff"
     id="base" />
  <metadata
     id="metadata4">
    <rdf:RDF
       id="RDF5">
      <cc:Work
         id="Work6"
         rdf:about="">
        <dc:format
           id="format7">image/svg+xml</dc:format>
        <dc:type
           rdf:resource="http://purl.org/dc/dcmitype/StillImage"
           id="type9" />
      </cc:Work>
    </rdf:RDF>
  </metadata>
  <g
     id="layer1">
    <g
       transform="translate(-149.4256,-112.2209)"
       id="g3089">
      <path
         style="fill:url(#linearGradient24959);fill-opacity:1.0000000;fill-rule:nonzero;stroke:#000000;stroke-width:2.1307306;stroke-miterlimit:4.0000000;stroke-dashoffset:0.00000000;stroke-opacity:1.0000000"
         d="M 150.49092,113.28917 L 150.49092,545.04528 C 150.49101,628.91256 305.74691,656.49888 320.41047,660.21392 C 334.58551,663.80510 368.55555,705.33881 374.42570,711.15551 C 380.29584,705.33871 415.66454,663.80510 429.83959,660.21392 C 444.50315,656.49888 598.36035,628.91256 598.36045,545.04528 L 598.36045,113.28917 L 374.42570,113.28917 L 150.49092,113.28917 z "
         id="path5432" />
      <path
         style="fill:url(#linearGradient26209);fill-opacity:1.0000000;fill-rule:evenodd;stroke:#000000;stroke-width:1.9111629;stroke-linecap:butt;stroke-linejoin:miter;stroke-miterlimit:4.0000000;stroke-opacity:1.0000000"
         d="M 473.07904,402.75109 C 473.07904,402.75109 510.28726,382.93342 514.22696,385.23780 C 518.16665,387.54218 520.87586,417.31240 517.72890,424.41225 C 514.66471,431.32538 501.21332,450.64770 488.40007,454.36917 C 475.70550,458.05617 427.55369,458.97793 426.24047,456.67354 C 424.92723,454.36917 422.30077,433.62975 422.30077,433.62975 L 473.07904,402.75109 z "
         id="path24329" />
      <path
         style="fill:none;fill-opacity:0.75000000;fill-rule:evenodd;stroke:#000000;stroke-width:3.8223257;stroke-linecap:butt;stroke-linejoin:miter;stroke-miterlimit:4.0000000;stroke-opacity:1.0000000"
         d="M 440.68601,437.77765 C 440.68601,437.77765 484.02263,440.54289 495.84171,421.18611"
         id="path24331" />
      <path
         style="fill:url(#linearGradient26205);fill-opacity:1.0000000;fill-rule:evenodd;stroke:#000000;stroke-width:1.9111629;stroke-linecap:butt;stroke-linejoin:miter;stroke-miterlimit:4.0000000;stroke-opacity:1.0000000"
         d="M 275.77248,403.41797 C 275.77248,403.41797 238.56427,383.60031 234.62457,385.90469 C 230.68488,388.20907 227.97567,417.97929 231.12263,425.07913 C 234.18683,431.99227 247.63822,451.31459 260.45146,455.03606 C 273.14603,458.72307 321.29784,459.64481 322.61107,457.34043 C 323.92430,455.03606 326.55077,434.29664 326.55077,434.29664 L 275.77248,403.41797 z "
         id="path4449" />
      <path
         style="fill:none;fill-opacity:0.75000000;fill-rule:evenodd;stroke:#000000;stroke-width:3.8223257;stroke-linecap:butt;stroke-linejoin:miter;stroke-miterlimit:4.0000000;stroke-opacity:1.0000000"
         d="M 308.16553,438.44453 C 308.16553,438.44453 264.82889,441.20979 253.00982,421.85300"
         id="path5967" />
      <path
         style="fill:url(#linearGradient26201);fill-opacity:1.0000000;fill-rule:evenodd;stroke:#000000;stroke-width:1.9111629;stroke-linecap:butt;stroke-linejoin:miter;stroke-miterlimit:4.0000000;stroke-opacity:1.0000000"
         d="M 373.93615,399.53695 C 302.17707,398.73974 320.21095,477.37032 321.15554,489.38904 C 332.09270,525.40527 351.44300,603.71016 373.83134,603.33884 C 396.22774,602.96741 415.56110,526.03536 427.17728,489.29712 C 428.12215,477.27458 445.69238,400.33413 373.93615,399.53695 z "
         id="path7485" />
      <path
         style="fill:none;fill-opacity:0.75000000;fill-rule:evenodd;stroke:#000000;stroke-width:1.9111629;stroke-linecap:butt;stroke-linejoin:miter;stroke-miterlimit:4.0000000;stroke-opacity:1.0000000"
         d="M 374.07012,484.94867 L 374.11817,436.71111"
         id="path13570" />
      <path
         style="fill:none;fill-opacity:0.75000000;fill-rule:evenodd;stroke:#000000;stroke-width:1.9111629;stroke-linecap:butt;stroke-linejoin:miter;stroke-miterlimit:4.0000000;stroke-opacity:1.0000000"
         d="M 359.56157,438.52001 C 359.56157,438.52001 369.67938,440.32891 374.07012,455.40315"
         id="path13572" />
      <path
         style="fill:none;fill-opacity:0.75000000;fill-rule:evenodd;stroke:#000000;stroke-width:1.9111629;stroke-linecap:butt;stroke-linejoin:miter;stroke-miterlimit:4.0000000;stroke-opacity:1.0000000"
         d="M 388.57865,438.20630 C 388.57865,438.20630 378.46084,440.01520 374.07012,455.08944"
         id="path13574" />
      <path
         style="fill:#dcdcdc;fill-opacity:1.0000000;stroke:#000000;stroke-width:2.0000000;stroke-miterlimit:4.0000000;stroke-opacity:1.0000000"
         id="path15096"
         d="M 396.32132 607.44250 A 19.841183 12.180979 0 1 1  356.63895,607.44250 A 19.841183 12.180979 0 1 1  396.32132 607.44250 z"
         transform="matrix(0.931291,0.000000,0.000000,0.980505,23.55917,-2.451987)" />
      <g
         id="g16624"
         transform="matrix(0.931291,0.000000,0.000000,0.980505,26.73705,3.211941)">
        <path
           style="fill:none;fill-opacity:0.75000000;fill-rule:evenodd;stroke:#000000;stroke-width:2.0000000;stroke-linecap:butt;stroke-linejoin:miter;stroke-miterlimit:4.0000000;stroke-opacity:1.0000000"
           d="M 360.15512,572.40650 C 360.15512,572.40650 381.00092,532.22183 345.83933,519.91528"
           id="path14336" />
        <path
           style="fill:none;fill-opacity:0.75000000;fill-rule:evenodd;stroke:#000000;stroke-width:2.0000000;stroke-linecap:butt;stroke-linejoin:miter;stroke-miterlimit:4.0000000;stroke-opacity:1.0000000"
           d="M 386.52546,572.22184 C 386.52546,572.22184 365.67966,532.03717 400.84125,519.73062"
           id="path16620" />
      </g>
      <path
         style="fill:url(#linearGradient26019);fill-opacity:1.0000000;stroke:#000000;stroke-width:2.0000000;stroke-miterlimit:4.0000000;stroke-opacity:1.0000000"
         id="path15102"
         d="M 414.90675 588.10364 A 35.789474 19.464451 0 1 1  343.32780,588.10364 A 35.789474 19.464451 0 1 1  414.90675 588.10364 z"
         transform="matrix(0.931291,0.000000,0.000000,0.980505,21.10322,3.211941)" />
      <path
         id="path15251"
         d="M 449.23546,529.67540 L 449.23546,529.67540 z "
         style="fill:none;fill-opacity:0.75000000;fill-rule:evenodd;stroke:#000000;stroke-width:0.82996267px;stroke-linecap:butt;stroke-linejoin:miter;stroke-opacity:1.0000000" />
      <path
         id="path1713"
         d="M 449.23546,529.67540 L 449.23546,529.67540 z "
         style="fill:none;fill-opacity:0.75000000;fill-rule:evenodd;stroke:#000000;stroke-width:0.82996267px;stroke-linecap:butt;stroke-linejoin:miter;stroke-opacity:1.0000000" />
      <g
         id="g25063"
         transform="matrix(0.931291,0.000000,0.000000,0.980505,-421.1469,-1.042396)">
        <path
           id="path25710"
           d="M 833.39898,583.73605 C 827.67969,592.49472 835.64788,600.78292 840.28177,601.00476 C 841.25794,601.05151 842.08133,600.81512 842.93368,600.49286 C 840.33158,598.58548 836.70794,594.81451 838.37237,591.80932 C 840.36955,592.60334 842.62034,592.62300 844.18178,591.03205 C 846.28749,588.88655 845.75766,584.93208 843.95686,583.16735 C 842.20284,581.44898 840.90444,580.75650 839.12327,580.67124 C 837.34206,580.58599 834.63242,581.84711 833.39898,583.73605 z "
           style="fill:#000000;fill-opacity:1.0000000;fill-rule:nonzero;stroke:none;stroke-width:1.1000000;stroke-miterlimit:4.0000000;stroke-dashoffset:0.00000000;stroke-opacity:1.0000000" />
        <path
           id="path25061"
           d="M 875.13681,583.73605 C 880.85610,592.49472 872.88791,600.78292 868.25402,601.00476 C 867.27785,601.05151 866.45446,600.81512 865.60211,600.49286 C 868.20421,598.58548 871.82785,594.81451 870.16342,591.80932 C 868.16624,592.60334 865.91545,592.62300 864.35401,591.03205 C 862.24830,588.88655 862.77813,584.93208 864.57893,583.16735 C 866.33295,581.44898 867.63135,580.75650 869.41252,580.67124 C 871.19373,580.58599 873.90337,581.84711 875.13681,583.73605 z "
           style="fill:#000000;fill-opacity:1.0000000;fill-rule:nonzero;stroke:none;stroke-width:1.1000000;stroke-miterlimit:4.0000000;stroke-dashoffset:0.00000000;stroke-opacity:1.0000000" />
      </g>
      <path
         style="fill:url(#linearGradient26185);fill-opacity:1.0000000;fill-rule:evenodd;stroke:#000000;stroke-width:1.9111629;stroke-linecap:butt;stroke-linejoin:miter;stroke-miterlimit:4.0000000;stroke-opacity:1.0000000"
         d="M 421.86302,433.16887 C 424.05174,426.71662 465.63740,402.75109 472.64130,403.21195 C 479.64520,403.67283 445.50119,448.37778 437.62180,446.53428 C 429.74242,444.69078 420.54979,443.30814 421.86302,433.16887 z "
         id="path24333" />
      <path
         style="fill:url(#linearGradient26182);fill-opacity:1.0000000;fill-rule:evenodd;stroke:#000000;stroke-width:1.9111629;stroke-linecap:butt;stroke-linejoin:miter;stroke-miterlimit:4.0000000;stroke-opacity:1.0000000"
         d="M 326.98851,433.83577 C 324.79978,427.38351 283.21413,403.41797 276.21023,403.87885 C 269.20633,404.33973 303.35035,449.04466 311.22973,447.20117 C 319.10912,445.35767 328.30174,443.97503 326.98851,433.83577 z "
         id="path3689" />
      <g
         id="g25079"
         transform="matrix(0.931291,0.000000,0.000000,0.980505,25.91069,3.211941)">
        <g
           id="g24317"
           transform="translate(0.187527,0.000000)">
          <path
             style="fill:none;fill-opacity:0.75000000;fill-rule:evenodd;stroke:#000000;stroke-width:2.0000000;stroke-linecap:butt;stroke-linejoin:miter;stroke-miterlimit:4.0000000;stroke-opacity:1.0000000"
             d="M 339.86150,494.21260 C 339.86150,494.21260 331.05263,499.71953 338.22715,512.83864 C 331.46261,501.76939 318.34349,500.33448 318.34349,500.33448"
             id="path12052" />
          <path
             style="fill:#ffffff;fill-opacity:1.0000000;fill-rule:evenodd;stroke:#000000;stroke-width:1.7321814;stroke-linecap:butt;stroke-linejoin:miter;stroke-miterlimit:4.0000000;stroke-opacity:1.0000000"
             d="M 339.62653,493.92682 C 338.66283,468.38610 328.43330,463.79259 318.58586,458.11108 C 317.78879,461.63499 314.45138,488.62736 339.62653,493.92682 z "
             id="path9768" />
          <g
             id="g12048"
             transform="translate(1.633436,-10.35803)">
            <path
               style="fill:#ffffff;fill-opacity:1.0000000;stroke:#000000;stroke-width:2.0000000;stroke-miterlimit:4.0000000;stroke-opacity:1.0000000"
               id="path10528"
               d="M 335.19324 486.01993 A 7.8033171 7.9974294 0 1 1  319.58661,486.01993 A 7.8033171 7.9974294 0 1 1  335.19324 486.01993 z"
               transform="matrix(0.996444,0.000000,0.000000,1.006885,1.132621,-3.409670)" />
            <path
               style="fill:#000000;fill-opacity:1.0000000;stroke:none;stroke-width:2.0000000;stroke-miterlimit:4.0000000;stroke-opacity:1.0000000"
               id="path11288"
               d="M 328.43814 485.47641 A 1.3976090 1.3199641 0 1 1  325.64292,485.47641 A 1.3976090 1.3199641 0 1 1  328.43814 485.47641 z"
               transform="matrix(1.788769,0.000000,0.000000,1.893991,-257.6416,-433.5314)" />
          </g>
          <path
             style="fill:url(#linearGradient26025);fill-opacity:1.0000000;fill-rule:evenodd;stroke:#000000;stroke-width:2.0000000;stroke-linecap:butt;stroke-linejoin:miter;stroke-miterlimit:4.0000000;stroke-opacity:1.0000000"
             d="M 345.32282,471.16613 C 345.32282,479.01293 345.66159,487.81060 345.03404,495.11394 C 336.97796,500.17055 329.24725,471.89403 330.01210,464.26305 C 330.33624,461.02908 328.03343,450.91737 324.54885,450.39879 C 323.07729,450.17979 316.36231,450.13603 321.20859,441.33109 C 325.98765,432.64830 336.18154,457.97122 345.32282,471.16613 z "
             id="path8250" />
        </g>
        <g
           id="g24307"
           transform="matrix(-1.000000,0.000000,0.000000,1.000000,715.4136,11.06406)">
          <path
             style="fill:none;fill-opacity:0.75000000;fill-rule:evenodd;stroke:#000000;stroke-width:2.0000000;stroke-linecap:butt;stroke-linejoin:miter;stroke-miterlimit:4.0000000;stroke-opacity:1.0000000"
             d="M 307.00740,483.41888 C 307.00740,483.41888 298.19853,488.92581 305.37305,502.04492 C 298.60851,490.97567 285.48939,489.54076 285.48939,489.54076"
             id="path24293" />
          <path
             style="fill:#ffffff;fill-opacity:1.0000000;fill-rule:evenodd;stroke:#000000;stroke-width:1.7321814;stroke-linecap:butt;stroke-linejoin:miter;stroke-miterlimit:4.0000000;stroke-opacity:1.0000000"
             d="M 306.77243,483.13310 C 305.80873,457.59238 295.57920,452.99887 285.73176,447.31736 C 284.93469,450.84127 281.59728,477.83364 306.77243,483.13310 z "
             id="path24295" />
          <g
             id="g24297"
             transform="translate(-31.22066,-21.15175)">
            <path
               style="fill:#ffffff;fill-opacity:1.0000000;stroke:#000000;stroke-width:2.0000000;stroke-miterlimit:4.0000000;stroke-opacity:1.0000000"
               id="path24299"
               d="M 335.19324 486.01993 A 7.8033171 7.9974294 0 1 1  319.58661,486.01993 A 7.8033171 7.9974294 0 1 1  335.19324 486.01993 z"
               transform="matrix(0.996444,0.000000,0.000000,1.006885,1.132621,-3.409670)" />
            <path
               style="fill:#000000;fill-opacity:1.0000000;stroke:none;stroke-width:2.0000000;stroke-miterlimit:4.0000000;stroke-opacity:1.0000000"
               id="path24301"
               d="M 328.43814 485.47641 A 1.3976090 1.3199641 0 1 1  325.64292,485.47641 A 1.3976090 1.3199641 0 1 1  328.43814 485.47641 z"
               transform="matrix(1.788769,0.000000,0.000000,1.893991,-257.6416,-433.5314)" />
          </g>
          <path
             style="fill:url(#linearGradient26027);fill-opacity:1.0000000;fill-rule:evenodd;stroke:#000000;stroke-width:2.0000000;stroke-linecap:butt;stroke-linejoin:miter;stroke-miterlimit:4.0000000;stroke-opacity:1.0000000"
             d="M 312.46872,460.37241 C 312.46872,468.21921 312.80749,477.01688 312.17994,484.32022 C 304.12386,489.37683 296.39315,461.10031 297.15800,453.46933 C 297.48214,450.23536 295.17933,440.12365 291.69475,439.60507 C 290.22319,439.38607 283.50821,439.34231 288.35449,430.53737 C 293.13355,421.85458 303.32744,447.17750 312.46872,460.37241 z "
             id="path24303" />
        </g>
      </g>
      <path
         style="fill:none;fill-opacity:0.75000000;fill-rule:evenodd;stroke:#000000;stroke-width:1.9997514;stroke-linecap:butt;stroke-linejoin:miter;stroke-miterlimit:4.0000000;stroke-opacity:1.0000000"
         d="M 299.00739,390.51438 L 316.94977,394.62198"
         id="path26217" />
      <g
         id="g33878"
         transform="matrix(0.999751,0.000000,0.000000,1.000000,0.992594,0.000000)">
        <g
           id="g33807"
           transform="matrix(0.999307,3.722191e-2,-3.722191e-2,0.999307,14.16184,-12.45184)">
          <g
             id="g25146"
             transform="matrix(1.008659,0.000000,0.000000,0.980505,3.139527,2.337996)">
            <path
               style="fill:url(#linearGradient33892);fill-opacity:1.0000000;fill-rule:evenodd;stroke:#000000;stroke-width:2.0000000;stroke-linecap:butt;stroke-linejoin:miter;stroke-miterlimit:4.0000000;stroke-opacity:1.0000000"
               d="M 340.78305,405.48895 C 329.56228,398.83961 319.52141,314.82126 314.59352,327.41476 C 309.66563,340.00825 312.53531,373.46752 304.86970,372.37243 C 301.03690,371.82489 273.83734,323.18608 273.52469,273.65997 C 273.21203,224.13386 308.18856,177.43115 295.86479,169.62373 C 283.54102,161.81631 269.83401,236.89319 259.29164,239.80782 C 240.86735,244.90154 213.70288,190.02653 206.83973,195.21259 C 189.59654,208.24222 263.65227,298.86966 254.89158,303.25000 C 246.13088,307.63035 221.32985,266.46697 215.35620,273.35963 C 204.75151,285.59581 281.94358,354.36219 276.26548,359.71981 C 258.68185,376.31098 230.57516,328.83288 225.89149,335.95094 C 221.79783,342.17233 245.19697,382.24194 294.59833,396.20042 C 283.32442,394.78230 268.88350,390.74469 267.78841,396.22012 C 266.69333,401.69556 317.25839,416.00453 324.37645,414.90944 C 331.49452,413.81436 340.78305,405.48895 340.78305,405.48895 z "
               id="path1410" />
            <path
               style="fill:#ffffff;fill-opacity:1.0000000;stroke:#000000;stroke-width:1.9235386;stroke-miterlimit:4.0000000;stroke-opacity:1.0000000"
               d="M 339.00096,404.70887 C 329.13071,408.02819 320.26794,417.94140 322.71780,426.87949 C 325.16766,429.55854 339.85201,420.50627 339.98785,420.38336 C 341.60207,421.15928 343.68831,421.43175 345.88180,420.93232 C 350.00424,419.99370 350.81853,416.52514 352.11903,413.83938 C 357.32232,403.09368 347.76667,403.96679 339.00096,404.70887 z "
               id="path2929" />
          </g>
          <path
             style="fill:#808080;fill-opacity:0.50196081;fill-rule:evenodd;stroke:none;stroke-width:1.0000000px;stroke-linecap:butt;stroke-linejoin:miter;stroke-opacity:1.0000000"
             d="M 237.48070,220.82898 C 243.02514,227.43965 255.70465,252.89663 262.78375,261.61851 C 258.98723,247.09642 272.24922,227.09804 272.31933,226.60732 C 271.54819,228.00939 268.17725,237.83030 262.38720,237.88724 C 251.39867,237.98841 235.98797,220.82898 237.48070,220.82898 z "
             id="path26977" />
          <path
             style="fill:#808080;fill-opacity:0.50196081;fill-rule:evenodd;stroke:none;stroke-width:1.0000000px;stroke-linecap:butt;stroke-linejoin:miter;stroke-opacity:1.0000000"
             d="M 292.14421,400.35389 C 292.14421,400.35389 286.09195,393.48376 295.57927,393.81091 C 305.06660,394.13806 319.29759,395.11950 316.02610,394.30163 C 312.75460,393.48376 276.04333,383.78032 273.33313,390.53941 C 272.29733,393.12264 291.32633,400.35389 292.14421,400.35389 z "
             id="path30771" />
        </g>
        <g
           id="g33864"
           transform="matrix(-0.999307,3.722191e-2,3.722191e-2,0.999307,732.8900,-11.97014)">
          <g
             id="g33866"
             transform="matrix(1.008659,0.000000,0.000000,0.980505,3.139527,2.337996)">
            <path
               style="fill:url(#linearGradient33894);fill-opacity:1.0000000;fill-rule:evenodd;stroke:#000000;stroke-width:2.0000000;stroke-linecap:butt;stroke-linejoin:miter;stroke-miterlimit:4.0000000;stroke-opacity:1.0000000"
               d="M 340.78305,405.48895 C 329.56228,398.83961 319.52141,314.82126 314.59352,327.41476 C 309.66563,340.00825 312.53531,373.46752 304.86970,372.37243 C 301.03690,371.82489 273.83734,323.18608 273.52469,273.65997 C 273.21203,224.13386 308.18856,177.43115 295.86479,169.62373 C 283.54102,161.81631 269.83401,236.89319 259.29164,239.80782 C 240.86735,244.90154 213.70288,190.02653 206.83973,195.21259 C 189.59654,208.24222 263.65227,298.86966 254.89158,303.25000 C 246.13088,307.63035 221.32985,266.46697 215.35620,273.35963 C 204.75151,285.59581 281.94358,354.36219 276.26548,359.71981 C 258.68185,376.31098 230.57516,328.83288 225.89149,335.95094 C 221.79783,342.17233 245.19697,382.24194 294.59833,396.20042 C 283.32442,394.78230 268.88350,390.74469 267.78841,396.22012 C 266.69333,401.69556 317.25839,416.00453 324.37645,414.90944 C 331.49452,413.81436 340.78305,405.48895 340.78305,405.48895 z "
               id="path33868" />
            <path
               style="fill:#ffffff;fill-opacity:1.0000000;stroke:#000000;stroke-width:1.9235386;stroke-miterlimit:4.0000000;stroke-opacity:1.0000000"
               d="M 339.00096,404.70887 C 329.13071,408.02819 320.26794,417.94140 322.71780,426.87949 C 325.16766,429.55854 339.85201,420.50627 339.98785,420.38336 C 341.60207,421.15928 343.68831,421.43175 345.88180,420.93232 C 350.00424,419.99370 350.81853,416.52514 352.11903,413.83938 C 357.32232,403.09368 347.76667,403.96679 339.00096,404.70887 z "
               id="path33870" />
          </g>
          <path
             style="fill:#808080;fill-opacity:0.50196081;fill-rule:evenodd;stroke:none;stroke-width:1.0000000px;stroke-linecap:butt;stroke-linejoin:miter;stroke-opacity:1.0000000"
             d="M 237.48070,220.82898 C 243.02514,227.43965 255.70465,252.89663 262.78375,261.61851 C 258.98723,247.09642 272.24922,227.09804 272.31933,226.60732 C 271.54819,228.00939 268.17725,237.83030 262.38720,237.88724 C 251.39867,237.98841 235.98797,220.82898 237.48070,220.82898 z "
             id="path33872" />
          <path
             style="fill:#808080;fill-opacity:0.50196081;fill-rule:evenodd;stroke:none;stroke-width:1.0000000px;stroke-linecap:butt;stroke-linejoin:miter;stroke-opacity:1.0000000"
             d="M 292.14421,400.35389 C 292.14421,400.35389 286.09195,393.48376 295.57927,393.81091 C 305.06660,394.13806 319.29759,395.11950 316.02610,394.30163 C 312.75460,393.48376 276.04333,383.78032 273.33313,390.53941 C 272.29733,393.12264 291.32633,400.35389 292.14421,400.35389 z "
             id="path33874" />
        </g>
      </g>
      <path
         id="path8106"
         d="M 354.95523,173.82564 L 369.86642,207.90394 L 368.94865,208.82462 L 334.90940,193.83363 L 334.90940,232.88892 L 368.49636,218.09808 L 369.66697,219.27227 L 354.95523,252.89023 L 393.88954,252.89023 L 378.97815,218.81860 L 379.89602,217.89793 L 413.94196,232.88892 L 413.94196,193.83363 L 380.35490,208.61780 L 379.17771,207.43693 L 393.88954,173.82564 L 354.95523,173.82564 z "
         style="fill:url(#linearGradient1566);fill-opacity:1.0000000;fill-rule:evenodd;stroke:#000000;stroke-width:1.9997514;stroke-linecap:butt;stroke-linejoin:miter;stroke-miterlimit:4.0000000;stroke-opacity:1.0000000" />
      <path
         id="path1569"
         d="M 354.95523,264.72696 L 369.86642,298.80526 L 368.94865,299.72594 L 334.90940,284.73495 L 334.90940,323.79024 L 368.49636,308.99940 L 369.66697,310.17359 L 354.95523,343.79155 L 393.88954,343.79155 L 378.97815,309.71992 L 379.89602,308.79925 L 413.94196,323.79024 L 413.94196,284.73495 L 380.35490,299.51912 L 379.17771,298.33825 L 393.88954,264.72696 L 354.95523,264.72696 z "
         style="fill:url(#linearGradient1571);fill-opacity:1.0000000;fill-rule:evenodd;stroke:#000000;stroke-width:1.9997514;stroke-linecap:butt;stroke-linejoin:miter;stroke-miterlimit:4.0000000;stroke-opacity:1.0000000" />
    </g>
  </g>
</svg>