<!-- Creator: CorelDRAW -->
<svg
   xmlns="http://www.w3.org/2000/svg"
   style="shape-rendering:geometricPrecision; text-rendering:geometricPrecision; image-rendering:optimizeQuality; fill-rule:evenodd; clip-rule:evenodd"
   viewBox="0 0 210 297"
   id="svg2"
   version="1.0"><title>Herb Brusy</title><metadata
   id="metadata27"><rdf:RDF><cc:Work
       rdf:about=""><dc:format>image/svg+xml</dc:format><dc:type
         rdf:resource="http://purl.org/dc/dcmitype/StillImage" /></cc:Work></rdf:RDF></metadata><sodipodi:namedview
   guidetolerance="10.0"
   gridtolerance="10.0"
   objecttolerance="10.0"
   borderopacity="1.0"
   bordercolor="#666666"
   pagecolor="#ffffff"
   id="base"
   width="210mm"
   height="248.5mm"
   units="mm" />
 <defs
   id="defs4">
  <style
   type="text/css"
   id="style6">
   
    .fil0 {fill:#1F1A17}
    .fil3 {fill:white}
    .fil1 {fill:#0093DD}
    .fil2 {fill:#DA251D}
    .fil4 {fill:#FFF500}
    .fil5 {fill:yellow}
   
  </style>
 
  <metadata
   id="CorelCorpID_0Corel-Layer" />
  
 
   
   
   
   
   
   
   
   
   
   
   
   
   
   
   
  </defs>
 <path
   id="_90645080"
   class="fil0"
   d="M -20.492363,1.6144553e-005 L 223.24223,1.6144553e-005 L 230.49297,5.5771826 L 230.49297,178.47315 C 228.33198,216.42772 214.42654,242.98826 194.46577,261.80955 C 151.26384,302.5452 83.531529,309.20546 32.313475,275.00727 C 3.9728865,256.08438 -17.57316,225.73047 -20.492961,181.81953 L -20.492961,0.00061614455 L -20.492363,1.6144553e-005 z "
   style="fill:black;fill-opacity:1" /><path
   id="_91146528"
   class="fil1"
   d="M -14.098273,143.67271 L 224.61661,143.67271 L 224.61661,171.39854 C 225.21001,205.74583 212.52293,232.15558 192.86262,253.13915 C 146.32437,302.80975 70.192764,302.21585 21.099961,256.81823 C 0.33710937,237.61824 -12.375316,210.37111 -14.09899,177.13481 L -14.09899,143.67271 L -14.098273,143.67271 z M 111.20693,153.40415 C 109.79663,147.93358 106.41191,145.4087 104.5472,155.17654 C 103.51948,160.5599 99.957637,161.5117 96.984771,162.78069 C 93.390416,164.31518 94.239824,170.63154 97.225239,170.54384 C 97.9574,170.52245 97.721593,172.02204 98.275196,173.01193 C 98.828679,174.00172 100.17181,174.48182 99.889751,175.55011 C 99.55104,176.83241 98.373678,177.8355 95.790676,177.7539 C 94.174687,177.7029 92.879959,176.95751 91.689331,176.18421 C 89.094617,174.49872 87.513885,173.36263 86.006417,177.1965 C 85.68647,178.01 86.21115,179.06869 86.016576,180.00169 C 85.588108,182.05438 84.580938,184.02776 84.86754,184.93986 C 85.175296,185.91975 85.535281,186.47015 86.748259,187.23724 C 87.085775,187.45064 88.594916,187.23134 88.857376,187.53604 C 89.435718,188.20744 90.090552,189.18563 91.634592,189.28473 C 93.445036,189.40093 94.689208,190.06493 94.380017,190.82172 C 92.487346,195.4545 89.754231,197.16979 85.56779,195.52859 C 80.558952,193.56511 75.512227,196.28059 81.993036,202.76115 C 82.118529,202.88665 81.476125,203.61425 80.833124,204.46664 C 79.070487,206.80293 79.908421,208.25762 82.572574,209.57081 C 83.581417,210.06811 85.320629,209.47611 86.113504,210.17131 C 86.58237,210.5826 86.775868,211.1537 87.376919,211.7399 C 88.28226,212.62319 89.698417,212.0574 90.306639,212.50609 C 91.812672,213.61729 88.332457,216.51657 85.549384,216.45837 C 83.093668,216.40707 80.671417,215.22818 79.716835,212.39549 C 79.168491,210.769 76.445296,210.6804 75.178894,212.22859 C 73.975358,213.69969 73.185709,216.55717 74.676325,218.57036 C 73.242838,219.11715 69.676212,224.60222 75.377053,227.9692 C 75.842333,228.2441 77.358645,228.0566 78.005113,228.6874 C 78.328167,229.00269 78.430474,229.52889 78.533378,230.02509 C 78.881053,231.70178 79.676558,231.44378 81.226096,231.45928 C 81.877583,231.46578 82.557754,231.40788 82.948097,231.66208 C 84.92694,232.95067 84.320749,233.60697 86.910563,233.06177 C 90.524757,232.30117 90.908526,235.72935 85.024585,237.77564 C 80.519989,239.34223 76.801098,234.92366 73.421875,235.88725 C 71.083046,236.55425 69.969746,240.27343 71.981814,242.01912 C 72.692223,242.63551 73.574737,242.09062 73.585254,242.61511 C 73.641188,245.3993 69.907955,244.7304 73.349806,249.20817 C 74.455697,250.64676 75.699749,251.88666 76.769546,252.38635 C 77.774206,252.85585 78.600068,252.62125 79.786752,252.83335 C 80.219404,252.91065 79.99758,253.78245 80.236853,254.52304 C 80.823323,256.33883 82.624206,256.30273 84.075979,255.59543 C 84.972834,255.15854 85.736906,254.45924 86.478748,254.80764 C 87.20577,255.14904 87.954186,256.00103 89.067247,256.28573 C 91.490933,256.90563 91.249508,254.65404 92.531448,254.30074 C 93.763907,253.96094 94.365914,255.32074 96.283684,254.34794 C 97.843022,253.55635 98.249021,253.53555 98.255356,251.70646 C 98.257985,250.94846 98.247229,250.18497 98.531679,249.94897 C 99.333638,249.28397 101.06759,250.27847 101.4761,251.30236 C 101.64928,251.73676 101.4455,256.95213 101.49128,256.52453 C 101.50239,256.42103 99.539208,254.46604 97.998633,256.32513 C 95.648571,259.16111 95.582239,261.098 97.17301,262.80499 C 99.760314,265.58127 99.927757,269.31055 99.928474,271.54474 L 99.932538,283.47747 L 113.75623,283.45167 L 113.73746,270.39185 C 113.73484,268.40876 114.03291,266.79747 114.87873,265.94707 C 115.57193,265.24978 116.2637,264.62148 116.78407,264.09328 C 117.69515,263.16849 117.64208,262.1002 117.10282,261.0927 C 116.95199,260.8109 116.1878,260.16011 115.98283,259.88041 C 114.40879,257.73272 112.19534,260.05771 112.26705,259.97571 L 112.26669,254.68744 C 112.26669,254.07444 112.37832,252.31765 112.75754,252.76325 C 113.34676,253.45555 114.15625,254.35764 114.98857,254.40504 C 115.55819,254.43744 116.11956,253.58555 116.70495,253.91424 C 117.37114,254.28824 118.10366,256.17233 119.38847,256.31293 C 121.06266,256.49623 122.40974,254.62824 122.50941,254.95644 C 122.98414,256.51563 125.05537,257.42222 125.76661,257.40292 C 130.59785,257.27182 128.24587,252.38335 130.00026,252.40125 C 130.48622,252.40615 132.37483,254.78454 134.19387,254.32694 C 135.2853,254.05254 137.78476,253.47345 136.09204,248.79788 C 135.3349,246.70659 133.47701,245.1634 134.00898,245.4398 C 136.3704,246.66639 138.53712,240.65712 135.21479,238.62534 C 132.48418,236.95545 128.97337,239.87243 126.12385,238.76854 C 123.75466,237.85064 122.57682,234.81576 123.96071,235.24186 C 125.52411,235.72345 126.7188,233.52507 127.21827,232.49197 C 127.89449,231.09378 129.88648,232.78197 131.56378,232.56927 C 133.76732,232.28977 133.73744,229.75819 134.04591,229.19569 C 134.37303,228.5992 134.49721,228.6052 135.51549,228.7898 C 135.94121,228.86689 137.13184,229.06239 137.79636,227.9827 C 138.99463,226.03661 135.49338,223.22223 134.8603,221.79334 C 134.47904,220.93284 136.93189,219.64745 136.81321,218.64726 C 136.68066,217.52916 136.1616,216.45007 135.55003,215.56187 C 134.99488,214.75558 133.25053,214.65518 132.0538,215.02488 C 127.62307,216.39367 128.58458,218.19846 125.49435,218.39426 C 124.84478,218.43546 122.18481,217.71876 120.70029,216.06407 C 119.5087,214.73588 119.49615,211.5476 120.65296,212.0353 C 123.64435,213.29639 125.80366,213.05089 126.9478,209.25661 C 127.23822,208.29402 127.99572,209.09191 129.23631,209.06251 C 131.03026,209.02001 131.3765,207.82922 132.00839,206.15873 C 132.5737,204.66424 132.01448,204.30804 130.74509,203.12905 C 130.12145,202.54985 129.78202,201.94476 129.57383,201.61546 C 129.32296,201.21816 131.63083,200.74656 132.74987,199.42127 C 134.70015,197.11159 133.03528,195.4667 130.52112,195.1268 C 127.28878,194.6897 123.63598,195.84699 123.4744,195.84699 C 119.8859,195.84699 117.77821,192.22171 119.44321,190.97322 C 120.2809,190.34513 122.65714,191.62222 124.47714,191.09172 C 125.3232,190.84522 125.59259,188.81924 125.49997,188.61034 C 125.3642,188.30404 125.71904,187.68494 126.82697,187.70974 C 127.74235,187.73004 128.91923,187.70784 129.50367,187.36024 C 132.18814,185.76275 130.84585,185.07056 129.12647,181.92378 C 128.01927,179.89739 132.53546,174.20252 127.85792,175.33022 C 124.65749,176.10191 124.20249,178.1336 121.75419,178.0568 C 120.85088,178.0284 119.61173,178.0364 118.51181,176.93641 C 117.92833,176.35301 116.37042,174.98172 116.92857,174.62832 C 120.25126,172.52393 117.8265,170.11125 118.1223,169.10465 C 118.18852,168.87895 122.13879,168.92645 121.81681,165.48208 C 121.61399,163.31269 121.72299,163.28299 118.03135,161.8962 C 116.87479,161.4618 115.51146,161.2141 114.32023,160.11611 C 112.97028,158.87181 111.96551,156.34673 111.20693,153.40415 L 111.20693,153.40415 z M 178.63328,160.12961 C 177.56145,155.97193 174.98909,154.05294 173.57198,161.4765 C 172.79081,165.56787 170.08387,166.29117 167.82452,167.25566 C 165.09284,168.42196 165.73836,173.22233 168.00727,173.15573 C 168.56374,173.13943 168.38434,174.27912 168.80516,175.03142 C 169.22598,175.78361 170.24654,176.14851 170.03224,176.96041 C 169.7748,177.935 168.8801,178.6973 166.91703,178.6352 C 165.68876,178.5965 164.70477,178.0301 163.79991,177.4423 C 161.828,176.16141 160.62661,175.29792 159.48092,178.2117 C 159.23783,178.83 159.63653,179.63449 159.48869,180.34359 C 159.16301,181.90368 158.39762,183.40337 158.61538,184.09656 C 158.8494,184.84136 159.12297,185.25956 160.0448,185.84265 C 160.30129,186.00485 161.44829,185.83815 161.64765,186.06965 C 162.08723,186.58005 162.5849,187.32334 163.75832,187.39884 C 165.13432,187.48714 166.07993,187.99174 165.84484,188.56684 C 164.40634,192.08762 162.32925,193.39131 159.14771,192.14402 C 155.34097,190.65182 151.50531,192.71551 156.43085,197.64088 C 156.52622,197.73618 156.03788,198.28908 155.54929,198.93687 C 154.20963,200.71266 154.84653,201.81816 156.87127,202.81615 C 157.63785,203.19405 158.95971,202.74415 159.56219,203.27245 C 159.91871,203.58505 160.06572,204.01914 160.52251,204.46464 C 161.21069,205.13584 162.28694,204.70584 162.74912,205.04694 C 163.89361,205.89143 161.2487,208.09492 159.13361,208.05062 C 157.26735,208.01162 155.42631,207.11563 154.70084,204.96294 C 154.28408,203.72675 152.21453,203.65945 151.25206,204.83604 C 150.33739,205.95403 149.73718,208.12582 150.87008,209.65581 C 149.78068,210.07131 147.06992,214.23998 151.40265,216.79897 C 151.75618,217.00777 152.90868,216.86527 153.3999,217.34466 C 153.64551,217.58426 153.72331,217.98426 153.80148,218.36136 C 154.06561,219.63565 154.67024,219.43945 155.84785,219.45135 C 156.343,219.45625 156.85992,219.41225 157.15656,219.60545 C 158.66056,220.58484 158.19994,221.08354 160.16815,220.66924 C 162.91489,220.09115 163.20651,222.69653 158.73466,224.25172 C 155.31133,225.44232 152.48488,222.08424 149.91669,222.81663 C 148.13912,223.32353 147.29306,226.15001 148.82228,227.4768 C 149.36214,227.9453 150.03287,227.5311 150.04087,227.9298 C 150.08342,230.04579 147.24609,229.53739 149.86184,232.94047 C 150.7024,234.03376 151.64802,234.97616 152.46085,235.35596 C 153.22445,235.71275 153.85215,235.53435 154.75403,235.69555 C 155.08282,235.75435 154.91418,236.41685 155.09608,236.97975 C 155.54188,238.35974 156.91047,238.33234 158.01373,237.79484 C 158.69546,237.46274 159.27619,236.93125 159.83983,237.19604 C 160.39248,237.45554 160.96126,238.10304 161.8072,238.31934 C 163.64908,238.79044 163.46574,237.07925 164.43992,236.81075 C 165.37658,236.55255 165.83421,237.58594 167.2916,236.84655 C 168.47673,236.24505 168.78532,236.22925 168.7901,234.83916 C 168.79213,234.26306 168.78401,233.68287 169.00021,233.50347 C 169.60963,232.99797 170.92742,233.75387 171.23781,234.53206 C 171.36952,234.86216 171.21462,238.82584 171.2494,238.50084 C 171.25789,238.42214 169.76584,236.93655 168.59505,238.34934 C 166.80899,240.50463 166.75855,241.97672 167.96759,243.27411 C 169.93388,245.384 170.06117,248.21818 170.06164,249.91627 L 170.06475,258.98501 L 180.57077,258.96551 L 180.55655,249.04007 C 180.55452,247.53278 180.78112,246.30829 181.42401,245.66199 C 181.95084,245.132 182.47635,244.6545 182.87195,244.2531 C 183.56432,243.55031 183.52404,242.73841 183.11421,241.97272 C 182.9996,241.75852 182.41886,241.26392 182.26313,241.05132 C 181.06677,239.41903 179.38457,241.18602 179.43907,241.12372 L 179.43883,237.10465 C 179.43883,236.63885 179.52357,235.30366 179.81172,235.64235 C 180.25967,236.16845 180.87482,236.85405 181.50743,236.89015 C 181.94032,236.91465 182.36687,236.26725 182.81184,236.51715 C 183.31811,236.80135 183.87482,238.23324 184.85127,238.34004 C 186.12365,238.47924 187.14744,237.05975 187.22333,237.30904 C 187.58403,238.49404 189.15807,239.18303 189.69865,239.16843 C 193.37033,239.06883 191.58295,235.35366 192.91628,235.36726 C 193.28559,235.37096 194.72099,237.17855 196.10344,236.83065 C 196.93289,236.62205 198.83249,236.18205 197.54601,232.62857 C 196.97054,231.03928 195.55856,229.86639 195.96277,230.07639 C 197.75756,231.00858 199.40426,226.44161 196.87923,224.89762 C 194.80405,223.62833 192.13572,225.84531 189.97007,225.00632 C 188.16966,224.30882 187.27448,222.00224 188.32611,222.32613 C 189.51447,222.69203 190.42232,221.02134 190.80191,220.23625 C 191.31583,219.17345 192.82975,220.45655 194.10452,220.29485 C 195.77919,220.08245 195.75648,218.15856 195.99098,217.73096 C 196.23957,217.27766 196.33387,217.28226 197.10786,217.42246 C 197.43128,217.48116 198.33614,217.62976 198.84134,216.80917 C 199.75194,215.33008 197.09101,213.19119 196.60984,212.1053 C 196.32013,211.4512 198.18435,210.47441 198.09412,209.71421 C 197.99336,208.86451 197.59884,208.04432 197.13404,207.36932 C 196.71214,206.75653 195.38646,206.68023 194.47705,206.96113 C 191.10954,208.00152 191.84039,209.37301 189.49176,209.52201 C 188.99804,209.55311 186.97653,209.00851 185.84817,207.75102 C 184.94271,206.74153 184.93314,204.31844 185.81231,204.68914 C 188.08576,205.64753 189.72685,205.46104 190.59634,202.57735 C 190.81709,201.84576 191.39292,202.45215 192.33567,202.42985 C 193.699,202.39755 193.96229,201.49256 194.44239,200.22287 C 194.87206,199.08707 194.44706,198.81648 193.48231,197.92048 C 193.00831,197.48028 192.75039,197.02029 192.59227,196.77009 C 192.40152,196.46809 194.15543,196.10969 195.0058,195.1024 C 196.48817,193.34711 195.22284,192.09702 193.312,191.83872 C 190.85557,191.50662 188.07931,192.38601 187.95657,192.38601 C 185.22931,192.38601 183.62742,189.63083 184.89287,188.68204 C 185.52941,188.20464 187.33556,189.17533 188.71861,188.77204 C 189.36173,188.58464 189.56634,187.04495 189.49594,186.88625 C 189.3928,186.65345 189.66267,186.18295 190.50455,186.20175 C 191.20026,186.21715 192.0946,186.20025 192.53873,185.93615 C 194.579,184.72206 193.55892,184.19596 192.25225,181.80448 C 191.41073,180.26439 194.8429,175.93631 191.2881,176.79331 C 188.85581,177.3798 188.50993,178.92389 186.64929,178.86549 C 185.96278,178.844 185.02099,178.85 184.18509,178.0141 C 183.74156,177.5706 182.55762,176.52841 182.98179,176.25991 C 185.50706,174.66052 183.66423,172.82693 183.88904,172.06194 C 183.93936,171.89024 186.94151,171.92644 186.69686,169.30875 C 186.54268,167.66006 186.6255,167.63746 183.81996,166.58357 C 182.94091,166.25337 181.9047,166.06517 180.99936,165.23058 C 179.97343,164.28508 179.20983,162.36589 178.63328,160.12961 L 178.63328,160.12961 z M 40.862456,160.12981 C 39.790627,155.97223 37.218263,154.05324 35.80115,161.4767 C 35.019987,165.56807 32.313046,166.29147 30.053697,167.25596 C 27.321897,168.42216 27.967528,173.22253 30.236438,173.15593 C 30.79291,173.13973 30.613515,174.27932 31.034334,175.03172 C 31.455034,175.78391 32.475709,176.14881 32.261415,176.96061 C 32.003975,177.9352 31.109271,178.6975 29.146204,178.6355 C 27.917928,178.5968 26.933945,178.0303 26.029081,177.4426 C 24.057171,176.16161 22.855786,175.29822 21.710096,178.2119 C 21.466998,178.8302 21.865707,179.63479 21.717864,180.34389 C 21.39218,181.90388 20.626674,183.40367 20.844554,184.09686 C 21.078568,184.84166 21.352142,185.25986 22.273977,185.84295 C 22.530341,186.00515 23.677465,185.83835 23.876819,186.06995 C 24.316403,186.58025 24.814072,187.32364 25.98749,187.39904 C 27.363489,187.48734 28.308988,187.99194 28.074017,188.56714 C 26.635511,192.08792 24.558425,193.39151 21.376763,192.14432 C 17.570146,190.65212 13.734487,192.71571 18.660022,197.64108 C 18.755277,197.73648 18.26705,198.28938 17.778464,198.93717 C 16.438798,200.71286 17.075704,201.81836 19.100442,202.81635 C 19.867024,203.19425 21.188882,202.74435 21.791367,203.27275 C 22.147886,203.58525 22.294892,204.01934 22.751686,204.46484 C 23.439746,205.13614 24.516116,204.70614 24.978288,205.04714 C 26.122783,205.89173 23.477872,208.09512 21.362779,208.05082 C 19.496521,208.01192 17.655481,207.11593 16.930013,204.96314 C 16.513257,203.72705 14.443701,203.65965 13.481231,204.83634 C 12.566567,205.95423 11.966352,208.12602 13.099254,209.65601 C 12.009737,210.07151 9.2990916,214.24018 13.631822,216.79917 C 13.985353,217.00807 15.137856,216.86557 15.629071,217.34496 C 15.874678,217.58456 15.952484,217.98446 16.030648,218.36166 C 16.29478,219.63585 16.899417,219.43975 18.077018,219.45165 C 18.572177,219.45655 19.089088,219.41255 19.385729,219.60575 C 20.889731,220.58504 20.429112,221.08384 22.397318,220.66944 C 25.144058,220.09145 25.43568,222.69683 20.963832,224.25192 C 17.540506,225.44262 14.714049,222.08444 12.145867,222.81693 C 10.368291,223.32383 9.5222299,226.15021 11.05145,227.4771 C 11.591308,227.9455 12.262038,227.5313 12.270045,227.93 C 12.312593,230.04599 9.4752597,229.53759 12.091009,232.94077 C 12.931572,234.03396 13.877191,234.97636 14.690026,235.35616 C 15.45362,235.71295 16.081204,235.53465 16.983198,235.69585 C 17.31199,235.75455 17.143351,236.41715 17.325256,236.98005 C 17.771054,238.35994 19.139644,238.33264 20.242905,237.79504 C 20.92463,237.46294 21.505363,236.93145 22.069005,237.19634 C 22.621532,237.45574 23.190433,238.10334 24.036375,238.31964 C 25.878251,238.79074 25.694912,237.07955 26.669095,236.81105 C 27.60575,236.55285 28.06338,237.58614 29.520771,236.84685 C 30.705901,236.24535 31.014494,236.22945 31.019275,234.83946 C 31.021307,234.26326 31.013179,233.68307 31.229266,233.50377 C 31.838803,232.99827 33.156597,233.75407 33.466983,234.53226 C 33.598691,234.86236 33.443797,238.82614 33.478576,238.50114 C 33.487062,238.42244 31.995012,236.93675 30.824223,238.34964 C 29.038161,240.50483 28.987725,241.97702 30.196639,243.27431 C 32.163052,245.3843 32.290338,248.21848 32.290816,249.91647 L 32.293804,258.98531 L 42.799946,258.96571 L 42.785723,249.04027 C 42.783692,247.53308 43.010176,246.30849 43.653058,245.66229 C 44.179889,245.1323 44.705525,244.6548 45.101126,244.2533 C 45.793488,243.55051 45.753211,242.73871 45.343387,241.97292 C 45.22877,241.75882 44.648037,241.26412 44.492187,241.05162 C 43.295942,239.41933 41.61374,241.18632 41.668239,241.12402 L 41.668,237.10485 C 41.668,236.63915 41.752738,235.30396 42.040893,235.64255 C 42.488843,236.16865 43.103878,236.85425 43.736601,236.89035 C 44.169491,236.91495 44.596047,236.26755 45.041009,236.51745 C 45.547283,236.80155 46.103874,238.23344 47.080447,238.34034 C 48.352825,238.47954 49.376608,237.05995 49.452382,237.30934 C 49.813204,238.49434 51.387242,239.18333 51.927818,239.16873 C 55.5995,239.06903 53.812123,235.35386 55.145454,235.36756 C 55.514762,235.37116 56.950042,237.17885 58.332614,236.83095 C 59.162062,236.62235 61.061665,236.18225 59.775185,232.62887 C 59.19971,231.03948 57.787736,229.86669 58.191943,230.07669 C 59.98661,231.00888 61.633435,226.44181 59.108399,224.89782 C 57.033225,223.62863 54.364889,225.84551 52.199241,225.00652 C 50.398837,224.30912 49.503654,222.00254 50.555285,222.32633 C 51.743523,222.69223 52.651493,221.02164 53.031079,220.23645 C 53.545002,219.17375 55.058924,220.45685 56.333692,220.29515 C 58.008365,220.08275 57.985656,218.15886 58.220029,217.73126 C 58.468744,217.27796 58.563043,217.28246 59.336916,217.42276 C 59.660448,217.48136 60.565311,217.62996 61.07051,216.80937 C 61.98111,215.33028 59.320183,213.19149 58.839008,212.1055 C 58.549299,211.4515 60.413525,210.47461 60.323289,209.71441 C 60.222537,208.86471 59.828011,208.04452 59.363209,207.36952 C 58.941314,206.75683 57.615632,206.68053 56.706107,206.96143 C 53.338716,208.00182 54.069562,209.37331 51.720814,209.52221 C 51.227209,209.55341 49.205699,209.00881 48.077339,207.75132 C 47.171878,206.74183 47.162316,204.31864 48.041364,204.68934 C 50.314936,205.64783 51.956024,205.46124 52.82551,202.57765 C 53.046258,201.84596 53.621971,202.45235 54.564841,202.43005 C 55.928171,202.39775 56.191467,201.49286 56.671567,200.22317 C 57.101231,199.08737 56.676228,198.81668 55.711487,197.92068 C 55.237483,197.48048 54.979565,197.02059 54.821444,196.77029 C 54.630695,196.46839 56.384607,196.10989 57.23497,195.1027 C 58.71734,193.34741 57.452013,192.09722 55.541175,191.83892 C 53.084742,191.50682 50.308482,192.38631 50.185738,192.38631 C 47.45848,192.38631 45.856593,189.63113 47.122039,188.68224 C 47.758587,188.20484 49.564728,189.17553 50.947778,188.77234 C 51.59078,188.58494 51.795512,187.04515 51.725117,186.88645 C 51.621974,186.65365 51.891724,186.18325 52.733721,186.20195 C 53.429429,186.21735 54.323775,186.20045 54.7679,185.93635 C 56.808175,184.72226 55.788097,184.19626 54.481299,181.80478 C 53.639899,180.26469 57.072069,175.93651 53.517155,176.79351 C 51.084984,177.38 50.739102,178.92419 48.878461,178.86579 C 48.191836,178.8442 47.250161,178.8503 46.41426,178.0143 C 45.970732,177.5708 44.786797,176.52871 45.210962,176.26011 C 47.736237,174.66072 45.893404,172.82713 46.118216,172.06224 C 46.168533,171.89054 49.17068,171.92674 48.925909,169.30895 C 48.771852,167.66026 48.854677,167.63766 46.049016,166.58377 C 45.170088,166.25357 44.133875,166.06547 43.228534,165.23088 C 42.2026,164.28528 41.439006,162.36619 40.862456,160.12981 L 40.862456,160.12981 z "
   style="fill:#0093dd" /><path
   id="_91146296"
   class="fil2"
   d="M 105.26992,11.455995 C 101.73031,10.745899 98.077754,10.512001 95.61893,11.263596 C 90.302695,12.888587 100.26013,21.029538 102.80775,23.250625 C 105.35167,25.468511 109.0659,30.435682 106.9691,34.948454 C 104.8907,39.422028 101.32144,35.574351 100.94879,41.745214 C 100.32623,52.055352 82.070603,57.38392 75.302594,60.7383 C 77.016468,60.838999 81.686356,61.506395 83.152112,62.151991 C 80.635921,63.128385 77.883205,63.568783 75.438246,64.737176 C 72.490957,66.145667 68.253481,69.953744 65.632235,73.166025 C 68.683982,73.798721 72.930899,70.371342 69.916202,76.418806 C 67.714938,80.834879 66.044449,85.62875 65.466345,89.345428 C 65.121419,91.564215 70.150933,84.456657 69.363794,89.437528 C 69.071575,91.286616 66.559926,106.90283 67.282884,107.20292 C 67.799436,107.41732 69.469925,104.69794 71.625295,101.02026 C 74.251084,96.539985 74.780066,98.066176 74.094994,101.36516 C 73.366897,104.87134 69.872339,114.09808 66.753543,115.39728 C 68.421642,116.29407 72.394985,116.19167 76.825241,112.0957 C 78.065469,110.949 79.438958,109.49691 80.484732,107.52152 C 86.437395,96.278187 81.755197,109.90451 81.328761,111.5633 C 79.998776,116.73587 83.342981,124.08882 86.249276,122.99703 C 86.26792,121.80084 86.03056,120.48315 85.947495,119.32015 C 85.582729,114.21838 89.123899,108.89411 91.077643,107.34482 C 94.519972,104.61524 99.176593,100.64966 94.926568,106.67343 C 92.983461,109.42731 90.364605,111.4271 89.592644,114.83908 C 89.068682,117.15477 91.039637,120.12815 93.908045,121.15114 C 92.748252,120.43455 93.25106,112.77489 95.437743,111.2449 C 96.977122,110.16761 96.693269,112.22519 96.577098,113.32999 C 96.464394,114.40088 96.754222,119.76135 99.668644,118.96585 C 99.494986,118.47526 99.420766,116.96337 99.515304,115.38948 C 100.01823,107.01333 102.65429,113.11129 104.38048,115.56287 C 104.97687,116.41007 106.40808,117.16597 107.11001,117.62216 C 108.12124,114.53638 108.96073,110.8288 108.59895,107.40032 C 108.15841,103.22565 102.99062,98.230575 99.731032,93.394104 C 97.082894,89.464527 96.564429,86.893543 99.582592,83.551863 C 101.85915,81.031378 106.79424,80.064684 111.854,78.173495 C 110.58831,76.208607 108.6611,72.008632 108.41203,69.599347 C 109.67938,69.297348 110.58735,71.960432 111.63169,70.66914 C 113.26836,68.645152 113.98176,59.911905 114.30828,58.070916 C 115.3727,52.072652 113.96694,47.685178 116.50548,55.241033 C 119.01701,62.717188 118.68535,50.425762 118.36206,47.33548 C 118.27768,46.529085 117.53524,43.238205 117.0794,40.76842 C 116.53177,37.801837 116.42361,37.30844 118.1621,39.489527 C 119.29787,40.914319 120.41894,42.36211 120.70782,42.35811 C 121.46006,39.750126 119.32692,31.283276 117.07557,29.170889 C 120.12302,29.170889 121.03852,30.946178 121.17716,30.413682 C 121.57396,28.886791 120.6232,27.652598 119.46759,26.554405 C 116.80678,24.02572 118.23967,25.012214 119.24959,23.228125 C 121.53081,19.198149 107.7591,11.955292 105.26992,11.455995 L 105.26992,11.455995 z M 100.50718,17.723758 C 101.07524,21.463735 104.4388,24.198119 107.36852,22.958126 C 108.55939,22.454129 109.55377,21.657034 110.24709,19.853345 C 110.50812,19.174349 111.43138,18.816551 112.00268,18.825251 C 114.12338,18.857651 113.56787,18.411754 111.94387,17.123761 C 109.24936,14.986874 103.91412,14.151279 101.42781,14.555277 C 97.56395,15.183073 98.611038,15.481871 99.80824,15.817769 C 101.39686,16.263567 100.30603,16.399866 100.50718,17.723758 L 100.50718,17.723758 z "
   style="fill:#da251d" /><path
   id="_91371496"
   class="fil2"
   d="M 129.44224,140.30273 C 125.64267,131.95948 111.02694,123.77713 102.73951,122.46963 C 98.620241,121.81984 102.67437,114.10718 105.68333,119.53405 C 108.40294,124.43922 110.52162,114.15428 111.12697,110.19231 C 111.50513,107.71372 110.6317,109.57101 112.95475,108.90561 C 113.70986,108.68932 114.50572,108.34002 114.95821,107.89292 C 115.96693,106.89633 116.52986,105.36324 118.84,105.98073 C 120.09888,106.31713 123.56977,105.87883 125.09505,106.31113 C 126.48407,106.70463 127.45837,107.86232 128.54753,108.35182 C 136.76182,112.044 152.76646,132.03978 152.08294,140.30613 L 129.44224,140.30273 L 129.44224,140.30273 z "
   style="fill:#da251d" /><path
   id="_91376752"
   class="fil2"
   d="M 98.426026,27.132701 C 96.891069,26.390106 94.318466,25.64921 93.022543,25.828509 C 89.787098,26.276207 86.491178,27.751498 83.154622,28.293094 C 81.14327,28.619592 79.14387,28.575393 77.638673,27.070202 C 76.917986,26.349506 80.061881,30.390982 84.108248,30.64588 C 85.042154,30.70458 86.023986,30.561881 87.017292,30.112284 C 91.106805,28.261795 93.859282,27.225401 98.426026,27.132701 L 98.426026,27.132701 z "
   style="fill:#da251d" /><path
   id="_91696120"
   class="fil2"
   d="M 115.65834,14.330978 C 116.37843,13.821481 122.31962,11.504895 127.39168,12.556389 C 127.05632,13.343684 120.69993,16.617764 118.40317,17.054262 C 117.80989,16.752864 117.13975,14.998974 115.65834,14.330978 z M 120.7763,19.646846 C 122.69275,17.43946 130.12587,17.34416 130.36849,17.697858 C 129.27718,19.495947 121.49233,24.02032 121.27911,23.273825 C 121.33934,22.478529 121.34747,21.256137 120.7763,19.646846 z M 122.67841,104.10794 C 124.26225,103.50795 124.90023,101.79566 124.79099,99.974664 C 124.68929,98.278175 124.26572,95.429992 123.78454,93.932901 C 123.47918,92.982506 122.62116,92.966706 122.08931,93.034706 C 121.03589,93.169405 120.72455,93.827601 120.72574,94.654596 C 120.72718,95.885289 121.91518,99.08457 121.14274,99.915265 C 120.14095,99.933665 119.62858,95.325192 119.058,94.768596 C 118.31078,94.0393 118.12995,93.9534 117.47859,93.9837 C 116.94936,94.0083 116.44333,94.200499 116.12709,95.072994 C 115.86379,95.798989 116.40078,97.559979 116.95104,98.98467 C 117.91183,101.47166 119.30158,104.82924 122.67841,104.10794 L 122.67841,104.10794 z M 131.80999,102.13906 C 133.38319,101.51136 133.99117,99.788265 133.85002,97.969376 C 133.71868,96.274987 133.24527,93.434504 132.7378,91.946112 C 132.41594,91.001318 131.55793,91.000418 131.02727,91.077718 C 129.97636,91.230917 129.67673,91.894413 129.69215,92.721308 C 129.71509,93.9518 130.95903,97.129881 130.20129,97.973976 C 129.19998,98.009776 128.60681,93.411004 128.0268,92.864507 C 127.26679,92.148311 127.08465,92.065712 126.43376,92.107312 C 125.90513,92.141211 125.40256,92.34231 125.10162,93.220305 C 124.85111,93.9507 125.41882,95.70189 125.99393,97.116781 C 126.998,99.586667 128.44642,102.91935 131.80999,102.13906 L 131.80999,102.13906 z M 140.85599,100.05956 C 142.41581,99.399768 142.98817,97.664378 142.80974,95.848889 C 142.64349,94.157499 142.11176,91.327316 141.57405,89.849825 C 141.23259,88.911731 140.3747,88.928431 139.84571,89.01673 C 138.79827,89.191429 138.51226,89.860925 138.54489,90.68732 C 138.59318,91.917013 139.90201,95.068894 139.16172,95.928289 C 138.16148,95.984788 137.4739,91.399116 136.88277,90.864619 C 136.1083,90.164323 135.92436,90.085424 135.27443,90.140523 C 134.74676,90.185323 134.24825,90.396522 133.96548,91.280616 C 133.73015,92.015912 134.33359,93.755202 134.93763,95.157893 C 135.99237,97.606479 137.50892,100.90876 140.85599,100.05956 z M 150.74698,96.270087 C 152.1611,95.337792 152.4085,93.527203 151.90319,91.774314 C 151.43229,90.141423 150.39512,87.455039 149.5977,86.099848 C 149.09155,85.239453 148.25111,85.411852 147.74686,85.594551 C 146.74854,85.956848 146.58898,86.667144 146.77125,87.473839 C 147.04219,88.674332 148.90211,91.535815 148.33035,92.515509 C 147.357,92.752808 145.8475,88.368434 145.16912,87.950236 C 144.28027,87.40234 144.08498,87.35824 143.45596,87.530439 C 142.94515,87.670338 142.49337,87.968736 142.37589,88.889331 C 142.278,89.655326 143.18765,91.255817 144.0367,92.525509 C 145.51871,94.741696 147.61014,97.713378 150.74698,96.270087 L 150.74698,96.270087 z M 160.13731,90.185123 C 161.27451,88.929931 161.06309,87.114941 160.13695,85.543251 C 159.27392,84.07906 157.6002,81.735774 156.49037,80.62178 C 155.78582,79.914685 155.01481,80.290982 154.572,80.593681 C 153.69546,81.193177 153.71793,81.920773 154.09525,82.656768 C 154.65686,83.751862 157.17102,86.059748 156.86147,87.150941 C 155.97788,87.623338 153.42368,83.753262 152.66236,83.517263 C 151.66499,83.208165 151.46492,83.213965 150.89865,83.537463 C 150.43874,83.800361 150.07565,84.201759 150.19134,85.122653 C 150.28732,85.888849 151.56699,87.212241 152.70562,88.230435 C 154.69295,90.007624 157.45905,92.36441 160.13731,90.185123 L 160.13731,90.185123 z M 167.32088,83.595263 C 168.2898,82.205971 167.84986,80.432382 166.7319,78.99079 C 165.69031,77.647798 163.73286,75.535811 162.49072,74.571617 C 161.70215,73.95952 160.98504,74.430618 160.5843,74.786915 C 159.79083,75.492711 159.90533,76.211607 160.373,76.893703 C 161.06883,77.908897 163.85548,79.879285 163.68673,81.000978 C 162.87007,81.581475 159.84581,78.066496 159.0607,77.928997 C 158.03226,77.748798 157.8347,77.779997 157.31384,78.172695 C 156.89111,78.491693 156.5818,78.935891 156.8133,79.834685 C 157.00561,80.582581 158.4428,81.733074 159.70119,82.598569 C 161.89815,84.10936 164.94058,86.096448 167.32088,83.595263 L 167.32088,83.595263 z M 172.29303,73.105926 C 172.69018,71.575235 171.72938,70.165343 170.28275,69.266349 C 168.93508,68.428754 166.53601,67.215161 165.13551,66.774364 C 164.24654,66.494465 163.7717,67.139661 163.53661,67.581659 C 163.07109,68.457053 163.40467,69.04935 164.0356,69.494547 C 164.97428,70.157343 168.05316,70.977738 168.26949,72.014432 C 167.74325,72.787627 163.95468,70.69234 163.22276,70.826739 C 162.264,71.002838 162.10109,71.094338 161.77266,71.607135 C 161.50602,72.023632 161.37957,72.512929 161.87401,73.224525 C 162.28515,73.816721 163.9168,74.357418 165.29937,74.706616 C 167.7129,75.316112 171.02125,76.068108 172.29303,73.105926 L 172.29303,73.105926 z M 173.99602,60.418402 C 173.65241,58.896911 172.17303,58.095216 170.49848,57.960616 C 168.93854,57.835317 166.2867,57.855417 164.85979,58.101716 C 163.95397,58.258015 163.82919,59.03811 163.82274,59.531907 C 163.81019,60.509701 164.37036,60.878099 165.12475,60.983598 C 166.24714,61.140497 169.31729,60.468501 169.97535,61.279596 C 169.86336,62.195391 165.59505,62.070192 165.0142,62.518789 C 164.25312,63.106386 164.15165,63.260185 164.09547,63.858081 C 164.04982,64.343678 164.16001,64.829875 164.91512,65.230373 C 165.54318,65.563871 167.21798,65.300572 168.58788,64.981974 C 170.9793,64.425778 174.21952,63.590083 173.99602,60.418402 L 173.99602,60.418402 z M 168.28992,47.723778 C 167.14376,46.651684 165.45904,46.820783 163.9891,47.655778 C 162.61992,48.433574 160.42403,49.949564 159.37575,50.961458 C 158.71016,51.603755 159.04755,52.32365 159.32137,52.738248 C 159.86386,53.559143 160.53841,53.549143 161.22575,53.210345 C 162.2487,52.706248 164.42403,50.410962 165.43048,50.71396 C 165.85512,51.539555 162.23173,53.848741 162.00201,54.550537 C 161.70083,55.470031 161.70334,55.65543 161.9946,56.184727 C 162.23125,56.614724 162.59793,56.957122 163.45283,56.863523 C 164.16408,56.785823 165.40921,55.61983 166.3694,54.580037 C 168.04515,52.764948 170.26948,50.237163 168.28992,47.723778 L 168.28992,47.723778 z M 143.13793,67.880657 C 147.763,65.125073 143.70324,64.597677 141.36131,62.686688 C 138.46637,60.324602 137.6625,57.713918 138.0985,52.875947 C 138.79707,45.126693 140.2957,37.558039 140.72799,29.752486 C 141.0661,23.654722 140.93882,18.189155 139.96475,16.383066 C 147.02881,24.409818 142.48226,43.521903 141.61863,53.640842 C 141.23319,58.157515 143.09203,63.795081 148.55803,63.035486 C 151.20975,62.667088 151.7263,63.595583 151.11318,64.870975 C 149.16135,68.930951 145.45524,72.42543 141.3992,74.301818 C 132.80724,78.276795 119.14465,79.669786 114.85053,78.413094 C 126.55303,76.104608 133.17894,73.814321 143.13793,67.880657 z M 160.57785,31.483575 C 161.27451,26.839003 161.69366,20.991838 161.84342,16.918463 C 163.91835,19.549147 167.13372,25.076014 168.17806,30.788979 C 169.66078,38.899831 168.18057,45.307692 166.3008,45.048894 C 164.08544,44.743796 163.72378,42.489109 164.60868,39.120429 C 165.63151,35.226953 165.66605,29.692086 163.89803,27.4026 C 164.05257,27.731098 163.72258,31.842373 163.24547,35.443752 C 162.94417,37.717738 161.87461,42.908507 159.57797,42.210511 C 158.85489,41.990812 158.27249,41.350816 158.71948,39.855725 C 159.48331,37.30094 160.16396,34.244059 160.57785,31.483575 L 160.57785,31.483575 z M 175.58799,20.090344 C 181.07203,27.560299 181.34178,46.020688 174.13658,52.963846 C 171.85763,55.159833 171.05459,54.691936 170.75687,54.335738 C 170.47063,53.99294 170.08842,52.151251 171.201,51.076458 C 172.15152,50.158063 178.08912,41.831113 176.49572,30.974378 C 177.01885,31.014078 173.74325,44.625296 171.31227,47.059482 C 170.21068,48.162275 169.6278,48.385474 169.03762,47.453579 C 168.71791,46.948482 168.43657,46.262987 169.09774,45.271693 C 173.0118,39.403528 173.99316,30.455881 175.58799,20.090344 L 175.58799,20.090344 z M 190.67522,39.614126 C 191.64821,48.686972 183.61021,60.194803 175.91093,64.544877 C 175.39593,64.835775 174.60365,64.578177 174.28729,63.98558 C 173.66424,62.817087 175.1594,61.213997 175.98957,60.527001 C 179.85068,57.33102 184.1515,53.523343 185.85558,48.655972 C 182.18593,52.029752 178.98383,55.810829 176.80276,57.188221 C 175.82224,57.807517 174.6113,58.755412 173.93065,57.574619 C 173.10741,56.146027 174.14076,56.052428 175.0718,55.282732 C 179.06773,51.978552 190.74968,40.066324 190.67522,39.614126 L 190.67522,39.614126 z M 177.98048,67.604359 C 183.36424,66.352266 189.82737,64.885875 194.52522,61.851793 C 192.53108,70.030944 179.76929,76.526005 173.92814,77.508999 C 172.42414,77.762198 170.87125,76.835003 170.92073,76.346706 C 171.05268,75.043214 171.99567,74.403118 172.88655,74.227419 C 176.05267,73.602823 184.34476,71.876133 187.31715,67.633958 C 183.35122,69.02255 178.84148,71.198637 175.79296,71.329536 C 174.77707,71.373036 173.69914,71.228537 173.63377,69.812145 C 173.54867,67.967556 176.07108,68.048456 177.98048,67.604359 L 177.98048,67.604359 z M 184.43655,84.827855 C 183.0676,89.434428 167.38159,90.885719 164.2671,89.811825 C 162.20244,89.09983 162.36463,88.659432 162.64334,87.769738 C 162.92206,86.880143 164.11197,86.348946 165.29686,86.722744 C 166.50673,87.104542 174.97499,87.28694 177.7736,86.343146 C 177.86407,86.238847 169.96555,85.475251 169.33653,85.059454 C 168.20184,84.309358 168.46179,83.731662 168.73991,83.119265 C 169.09045,82.34727 169.55955,82.108172 170.52071,82.39287 C 173.38565,83.241865 179.88271,84.425158 184.43655,84.827855 z M 153.77889,98.007776 C 156.01063,99.853665 165.02627,104.13594 173.16885,102.56265 C 169.94308,100.16866 166.83958,98.133475 164.49,95.972488 C 163.4067,94.976194 162.2867,93.422104 161.09643,92.661608 C 160.37013,92.197511 159.73992,92.194111 159.24775,92.38521 C 158.75569,92.576309 158.40145,92.961906 158.77219,94.0944 C 159.41937,96.071788 163.32818,97.733778 164.54474,99.605467 C 161.70585,99.127369 158.58108,96.452185 155.64502,95.114793 C 154.54714,94.614696 153.65638,94.843195 153.1905,95.353792 C 152.47125,96.142187 153.09226,97.43978 153.77889,98.007776 L 153.77889,98.007776 z M 139.13997,103.60655 C 141.77137,105.73683 150.77483,110.47411 156.19349,109.55981 C 154.58503,109.11931 148.87008,100.53386 148.74364,99.343368 C 148.6338,98.310774 146.81834,97.544379 146.08116,97.881477 C 145.26306,98.255675 144.6203,98.897071 144.7593,99.607867 C 145.27418,102.24705 147.20975,103.98884 148.99247,105.88163 C 145.97239,105.19964 143.78165,101.54176 140.72512,101.35696 C 138.9926,101.25266 136.61493,101.56246 139.13997,103.60655 L 139.13997,103.60655 z "
   style="fill:#da251d" /><path
   id="_91369832"
   class="fil2"
   d="M 113.38513,105.08294 C 114.98546,104.52824 115.67185,102.83475 115.61436,101.01136 C 115.56094,99.312768 115.21852,96.453585 114.78001,94.943495 C 114.50178,93.9848 113.64472,93.944601 113.11108,93.9974 C 112.05431,94.1021 111.72444,94.751096 111.70197,95.577891 C 111.66851,96.808083 112.76507,100.03996 111.96921,100.84826 C 110.96742,100.83826 110.58616,96.216987 110.03184,95.64439 C 109.30554,94.894195 109.12734,94.803195 108.47525,94.814995 C 107.94555,94.824595 107.43426,95.002294 107.0934,95.865489 C 106.80954,96.583585 107.29622,98.359074 107.80572,99.798965 C 108.69528,102.31225 109.98917,105.70793 113.38513,105.08294 L 113.38513,105.08294 z "
   style="fill:#da251d" /><path
   id="_91362416"
   class="fil2"
   d="M 155.62961,41.590915 C 154.13051,41.621714 153.11545,42.868307 152.64168,44.412298 C 152.52097,44.805395 152.23999,46.995082 152.19445,49.146269 C 152.13613,51.912153 152.18561,54.685736 150.48667,54.243339 C 149.74782,54.05074 149.41664,52.773848 149.39106,51.261857 C 149.26007,43.510603 149.53054,35.245653 149.44412,27.446199 C 152.30476,34.549357 151.38054,43.281204 152.06943,42.174911 C 153.96235,40.865019 155.53148,38.840731 155.67359,36.635644 C 156.20508,28.385994 146.27979,16.241967 146.26605,16.947362 C 146.54679,18.062656 145.13924,41.935513 145.65042,52.697748 C 145.95973,59.209909 146.5395,61.028798 150.73467,60.158803 C 155.18154,59.236609 156.9235,61.786893 154.52049,65.872269 C 146.80125,78.99629 126.39479,82.843367 112.50835,82.167171 C 109.85519,82.037872 105.37546,84.00946 103.43187,85.68615 C 100.55056,88.171935 100.20647,88.491333 102.27866,91.455715 C 105.58533,96.185887 107.94973,93.631502 108.60206,87.721638 C 112.95594,93.9907 115.95056,92.972806 117.18768,86.192447 C 121.64567,91.828613 124.22018,92.38471 126.34734,85.281252 C 130.99954,91.129417 133.76827,90.501721 134.34996,83.187965 C 139.61959,89.881625 141.59736,87.277741 141.51381,80.564281 C 146.22697,86.321346 148.44986,84.846955 147.68065,77.233701 C 153.70252,81.062878 155.06764,78.463093 154.01206,72.912127 C 158.87354,73.316624 160.26782,71.466135 157.97955,67.39356 C 161.97357,66.025868 164.88488,63.086486 158.72295,59.473807 C 160.53494,55.69723 159.57068,54.01864 155.57547,53.612742 C 154.49061,53.502343 155.02103,48.407874 155.07122,47.563979 C 155.12907,46.589585 155.27775,45.74639 155.66726,45.543591 C 156.19289,45.71959 156.1868,47.34658 156.18393,48.696872 C 156.18249,49.408268 156.13708,51.326056 156.96485,51.577755 C 157.41352,51.714154 157.89266,51.703854 158.41519,51.069758 C 158.84999,50.542261 158.92433,48.914271 158.88776,47.562679 C 158.82394,45.203293 158.6602,41.990512 155.62961,41.590915 L 155.62961,41.590915 z "
   style="fill:#da251d" /><path
   id="_91336568"
   class="fil1"
   d="M 16.217811,59.636206 L 23.267283,59.640206 C 23.443809,59.640206 25.817775,61.248097 28.960714,61.171997 C 29.346634,61.119297 28.499139,59.643106 28.986052,59.643206 L 30.796017,59.644206 C 31.286037,60.109104 32.26751,60.288102 33.327387,60.6411 C 33.617813,60.254103 33.659286,60.074604 33.949951,59.687606 L 41.806043,59.650706 C 43.559835,59.642506 45.631065,59.944005 47.131362,61.611095 L 52.487516,67.562259 C 56.100634,71.576735 54.435165,72.637328 52.007536,74.444118 L 43.732657,80.602481 C 41.060257,82.591369 39.692026,82.43427 43.788113,85.877249 L 53.559344,94.0909 C 56.691646,96.723784 56.550855,98.96677 55.172704,100.82376 C 53.610617,102.92825 50.472818,104.27714 50.46242,103.52325 C 47.933679,100.06836 45.399202,99.980664 43.571787,100.69496 C 43.819426,103.19785 42.577166,106.79933 40.799948,107.63112 C 38.990222,108.47822 41.54203,111.1576 38.168423,111.1664 L 31.009713,111.1868 C 27.268712,111.1974 27.839525,104.34084 27.836537,101.77326 L 27.791599,65.64547 C 27.538223,62.471689 24.800566,63.97588 24.986296,65.73477 L 25.022151,97.601579 C 25.025378,100.48176 25.236206,103.40725 24.289153,104.32604 C 20.085501,106.19743 19.050245,106.40923 18.638031,111.3141 C 17.42087,112.79959 14.299444,111.6207 14.246857,111.515 C 16.131759,111.5973 21.748102,103.81545 21.71882,98.676872 L 21.568109,72.32353 C 21.530103,65.63707 18.996462,61.889393 16.217811,59.636206 L 16.217811,59.636206 z M 41.038982,91.171717 C 41.038982,89.760926 36.196393,85.498751 34.785494,85.498751 C 33.036124,85.244753 31.360376,87.40374 31.795777,89.141129 L 31.801155,105.32844 C 31.8296,107.27052 33.083453,109.28211 35.402561,108.94581 C 36.289018,108.81732 41.473785,104.96024 41.012689,102.82595 L 41.038982,91.171717 z M 41.074957,65.119973 C 41.556969,63.663882 38.071973,60.7081 34.890311,61.054198 C 33.164127,61.092198 31.667655,61.074498 31.865933,63.733782 L 31.863304,78.711792 C 31.706856,80.435082 33.359298,82.30917 34.891984,82.066172 C 36.046996,82.28077 37.733381,81.105878 39.273119,79.857085 C 40.459086,78.895291 41.286741,77.3439 41.093004,75.216513 L 41.074957,65.119973 L 41.074957,65.119973 z "
   style="fill:#0093dd" /><path
   id="_91340720"
   class="fil4"
   d="M 100.05672,164.25058 C 101.20707,164.20688 101.28487,164.02218 102.11982,163.72299 C 106.62967,162.1074 107.01284,157.15233 108.32119,153.02965 C 108.74082,151.70746 110.81492,161.0733 113.96144,163.13929 C 115.2576,163.99018 118.92355,163.85279 119.01593,165.16618 C 119.13151,166.81017 118.01295,166.77587 116.08155,166.26087 C 111.26872,164.97768 118.61424,170.65894 116.0898,172.34173 C 113.21972,174.25492 109.26107,158.70782 109.97124,165.57827 C 110.25283,168.30136 110.49831,169.51275 110.65799,172.24603 C 110.80404,174.74282 108.49796,173.68773 108.70305,171.31394 C 108.8038,170.14665 108.51601,169.14165 107.38071,171.06624 C 106.71787,172.19004 106.1026,173.79003 105.45099,173.98992 C 103.04978,174.72642 105.90695,166.94747 105.90062,166.64797 C 105.77727,160.9544 103.77811,171.37174 102.15448,172.00044 C 98.619883,173.36913 99.881026,170.17125 101.34284,168.41266 C 103.17527,166.20837 101.43331,166.38117 99.313679,167.41886 C 97.901944,168.10986 96.952262,165.44448 100.05672,164.25058 L 100.05672,164.25058 z M 97.150541,180.43849 C 99.732825,179.96329 101.75481,178.1295 102.7027,176.97911 C 103.95476,175.45932 103.57709,176.27861 106.04451,176.29861 C 108.52605,176.31861 111.96049,176.11551 113.71786,175.84901 C 115.15267,175.63191 114.6642,175.62861 115.65679,176.99311 C 116.70208,178.43 118.64328,180.48119 122.10019,180.30809 C 123.83761,180.22119 127.2295,177.09771 127.8621,177.414 C 129.12743,178.0467 127.00337,181.25708 126.21253,181.25708 C 124.63084,181.25708 129.25579,184.30286 128.42682,185.05296 C 126.91242,186.42305 125.83952,186.00995 124.90489,185.26336 C 123.1211,183.83797 122.38034,181.19628 123.81645,187.42534 C 124.33241,189.66343 123.0237,189.62693 122.09553,188.73534 C 120.61208,187.31004 120.62272,179.40179 119.55914,184.48416 C 119.27409,185.84625 119.60635,187.48234 119.34472,188.05804 C 118.77009,189.32303 117.23716,188.55114 116.52496,187.00735 C 115.71798,185.25776 115.47954,182.66127 115.26907,182.25977 C 114.67735,181.13068 113.88196,180.19279 113.85196,181.57618 C 113.79459,184.21336 114.30302,185.92955 113.87551,188.53254 C 113.55365,190.49223 111.79448,189.85493 111.60516,188.08664 C 111.30733,185.30686 110.99598,181.22428 110.62727,187.85914 C 110.49282,190.28083 110.6403,193.32561 109.85197,194.1139 C 106.37271,197.59308 107.23251,186.00195 107.23251,185.68555 C 107.23251,181.77118 106.18423,183.55017 105.85568,186.38945 C 105.54685,189.05693 105.99981,192.70851 104.70186,192.01202 C 103.03782,191.11922 103.76473,188.16524 103.87409,185.89355 C 104.01452,182.97287 103.6672,181.17938 101.53574,186.34045 C 99.316069,191.71512 96.970548,190.01953 97.786849,185.12096 C 98.235516,182.42797 95.980469,183.46057 95.211855,185.05296 C 93.766297,188.04714 88.68814,187.06185 90.783153,185.36926 C 93.511726,183.16467 91.58057,183.25467 90.228714,184.28026 C 89.154614,185.09516 86.935423,183.64617 88.568862,182.04788 C 90.230745,180.42159 91.224171,181.64538 89.359706,179.67549 C 88.029601,178.2702 88.9751,177.10601 91.302215,178.6598 C 92.733312,179.61559 94.179707,180.98528 97.150541,180.43849 L 97.150541,180.43849 z M 95.103693,195.4124 C 89.12103,200.92026 89.872194,197.74738 83.692209,197.71268 C 82.085901,197.70368 80.928259,198.06768 81.888817,199.26947 C 84.151155,202.09946 89.168837,199.66757 85.142787,203.69355 C 81.334259,207.50192 83.406683,208.16402 86.015022,206.89003 C 87.029244,206.39473 88.451257,204.80524 88.943906,203.82435 C 91.025773,199.67987 91.007486,202.30255 90.577823,203.51055 C 90.087325,204.88964 88.190112,208.96181 88.843392,210.07861 C 89.070594,210.46701 90.431415,210.9595 91.610928,208.93041 C 92.50372,207.39442 94.005331,205.55423 94.416231,203.32945 C 94.800956,201.24536 95.719564,200.54966 95.555347,203.17235 C 95.51758,203.77755 95.761514,204.78544 95.551164,205.73853 C 95.006406,208.20592 98.351209,208.53982 98.857124,205.08204 C 99.17743,202.89205 99.217109,200.79706 99.760433,199.15027 C 100.08086,198.17888 100.80011,198.96697 100.73282,200.06867 C 100.64593,201.48976 100.82461,203.24015 101.82963,202.98445 C 103.14479,202.64995 103.46331,201.35976 103.81349,200.52777 C 104.40582,199.12087 105.71979,198.24048 105.15794,200.72666 C 104.58198,203.27455 102.59167,207.85872 101.17241,209.90411 C 99.22428,212.71179 102.66099,216.23507 103.46438,212.61729 C 104.04201,210.01621 108.71524,203.72165 107.08097,209.03271 C 106.51924,210.8587 107.8454,213.55569 108.94304,211.3597 C 109.30888,210.6279 109.15363,208.82912 109.20466,208.29622 C 109.5166,205.04964 109.92511,205.15374 110.35477,207.71552 C 110.45015,208.28392 110.42696,209.70711 111.00829,210.32551 C 112.78898,212.21949 114.03936,209.89951 113.5356,207.43082 C 113.20454,205.80793 112.53955,203.94274 112.53955,203.54245 C 112.53955,202.62745 112.23729,199.64317 113.12052,199.88227 C 113.358,199.94657 113.34736,203.03925 114.40162,202.81045 C 114.90646,202.70095 115.38835,202.18846 115.3164,201.12926 C 115.20525,199.49117 116.59775,198.30398 116.59775,202.07836 C 116.59775,203.93124 116.94375,205.76543 117.06075,207.20612 C 117.34951,210.7596 120.11238,211.663 120.07497,204.82354 C 120.0482,199.88257 120.93538,201.16356 121.52997,203.72545 C 122.12469,206.28743 121.83223,210.23451 122.01521,210.41741 C 123.64447,212.0467 125.05943,210.11351 125.07353,207.93132 C 125.08943,205.45794 124.25424,202.56165 125.19938,204.27444 C 127.91577,209.19641 131.72453,205.41784 129.40877,204.27444 C 128.65235,203.90104 127.95796,202.65995 127.58554,202.31145 C 125.35715,200.22727 126.29022,199.72637 128.67673,199.51627 C 129.42288,199.45057 130.22304,199.36597 130.61434,199.04227 C 133.35343,196.77699 130.21993,195.89449 127.10245,196.88059 C 124.49555,197.70538 119.62045,198.63128 118.35488,195.3621 C 117.23166,192.46081 113.43784,188.90183 113.43784,194.392 C 113.43784,196.58809 110.37521,197.94848 108.36207,197.94848 C 103.75062,197.94848 107.68357,193.61721 102.38395,195.1241 C 100.62382,195.62449 102.19464,191.20152 101.27949,191.20152 C 98.644384,191.20152 96.809678,193.84171 95.103693,195.4124 L 95.103693,195.4124 z M 80.487122,216.99537 C 83.207807,218.83226 87.345844,219.70775 90.178756,218.31506 C 91.255365,217.78576 92.271857,215.46248 93.616065,213.26799 C 96.916168,207.88082 96.780397,211.3076 98.225596,214.12018 C 101.10858,219.73095 109.70018,216.62417 112.40748,213.88288 C 113.15625,213.12459 113.92045,212.86169 114.37246,212.20929 C 115.96084,209.91681 117.55579,215.40648 117.76889,215.88027 C 119.34604,219.38835 123.42993,221.09644 127.66956,219.76425 C 128.16137,219.60975 129.53594,217.75616 131.46626,217.09347 C 133.65414,216.34257 135.32713,217.35926 133.64159,219.04475 C 130.31734,222.36883 131.29953,220.47445 134.7182,224.29712 C 138.0422,228.0141 132.807,227.2185 130.99381,224.75042 C 128.46375,221.30624 130.3618,226.57541 131.53641,227.8171 C 133.54107,229.93599 129.45335,231.84288 127.21623,227.6213 C 122.09063,217.94866 128.5498,235.12186 122.17656,232.00318 C 121.44583,231.64558 122.06493,225.66361 121.62547,224.75042 C 121.14907,223.76113 120.45659,224.31572 120.38094,225.65821 C 120.21433,228.6119 120.77546,234.82426 117.24338,231.29238 C 116.33684,230.38579 117.39457,225.20372 117.39457,223.84383 C 117.39457,219.16925 115.69479,220.36105 115.82961,222.90743 C 116.00709,226.25771 115.56488,229.56699 114.22139,228.5279 C 112.84037,227.4599 114.35142,222.81303 112.28007,220.71074 C 111.56417,219.98435 110.74595,219.49985 110.74595,220.51975 C 110.74595,224.44822 111.67054,228.2652 112.25701,232.60757 C 112.64855,235.50596 109.77739,235.05256 109.38597,232.00318 C 108.982,228.8561 107.65524,221.72714 107.72385,227.9235 L 107.83034,237.54064 C 107.86213,240.41513 103.49295,243.48671 103.49295,238.65154 C 103.49295,235.62955 105.29777,232.05578 105.35944,228.5812 C 105.44275,223.89712 103.48601,229.90159 103.19081,231.85208 C 102.36841,237.28434 98.428656,235.44476 99.76868,232.60757 C 100.52116,231.01408 102.23085,224.65722 102.5092,221.45064 C 102.79652,218.14186 101.41837,219.15955 100.93015,221.21114 C 100.87433,221.44614 100.58056,224.46452 99.92453,226.40701 C 98.74681,229.89389 95.493318,231.73468 96.310456,226.91051 C 96.562637,225.42072 96.814937,223.93102 97.067357,222.44133 C 97.507897,219.83975 96.275318,220.45235 95.588932,223.00443 C 94.806095,225.91501 93.816136,230.50429 93.217953,230.79438 C 89.143738,232.76957 91.253572,225.20372 91.253572,223.54163 C 91.253572,220.36865 89.138121,226.26141 89.138121,228.2257 C 89.138121,231.70098 84.358397,231.94558 85.458432,227.9853 C 87.033666,222.31443 85.397,222.25043 84.547115,224.70152 C 84.159999,225.81821 83.467757,227.2245 82.640699,228.5279 C 81.679065,230.04309 80.085664,229.12549 79.693649,227.6844 C 79.348006,226.41291 80.067617,224.75472 81.129645,223.69273 C 82.338201,222.48423 79.912484,222.92293 79.512222,223.63093 C 77.022922,228.0333 71.450203,223.33293 77.458561,220.73264 C 79.760937,219.73625 80.071322,219.25805 78.28789,218.76556 C 76.092123,218.15906 75.990653,217.72976 76.45665,215.15218 C 77.062601,211.8028 79.545089,216.35947 80.487122,216.99537 L 80.487122,216.99537 z M 99.782783,237.96084 C 98.402959,237.49744 97.908637,235.59905 98.03162,233.93976 C 98.157591,232.23787 96.268983,231.42868 95.571721,232.12608 C 91.079077,236.61855 85.447914,244.1385 77.304743,238.81864 C 74.578441,237.03765 71.258617,239.39033 74.169214,240.81452 C 78.069891,242.72321 78.27534,241.64362 75.137541,244.589 C 72.667005,246.90799 74.883089,249.50037 76.876633,246.76279 C 79.165623,243.61951 80.370473,245.88239 78.035948,247.28318 C 74.800503,249.22437 76.635687,251.38476 79.458798,250.49777 C 80.277848,250.24047 81.114945,247.72788 81.8287,246.17909 C 82.387562,244.9662 83.346805,243.9876 83.012994,246.15209 C 82.799417,247.53818 82.299956,249.50057 82.238763,249.66117 C 80.395572,254.50024 82.092355,255.60093 84.208642,253.19305 C 85.786147,251.39806 86.194298,248.05718 86.405484,245.80459 C 86.685274,242.82151 88.881757,242.23781 87.884149,247.67828 C 87.753995,248.38888 87.060796,256.14553 90.038204,253.69905 C 91.143736,252.79085 91.233374,251.10866 91.249747,249.31087 C 91.266002,247.51308 91.208992,245.59879 91.335919,244.2266 C 91.717298,240.10613 92.663155,241.95962 92.873625,244.3736 C 93.001269,245.83789 92.930276,248.21508 92.873505,250.04317 C 92.769048,253.40245 95.641758,253.51705 96.32922,251.30126 C 96.777409,249.85637 96.580086,248.12888 96.784102,246.40029 C 96.988117,244.6719 97.594068,242.94221 97.594068,241.49302 C 97.594068,237.75694 98.988832,238.30734 98.906604,240.59412 C 98.878278,241.38782 98.880549,244.1776 99.347383,246.06379 C 100.06269,248.95407 102.57362,250.23657 102.20515,242.85001 C 101.95309,237.79284 102.92823,239.01713 99.782783,237.96084 z M 114.14382,234.52486 C 113.59464,237.80094 112.14526,238.06054 110.81922,238.07244 C 109.24386,238.08674 108.3978,240.58552 108.58031,245.3299 C 108.72134,248.99587 111.35884,248.14488 111.81814,245.85519 C 112.04307,244.7344 111.87575,243.29891 112.05192,242.05302 C 112.40114,239.58363 113.42337,239.46443 113.5448,244.3991 C 113.56644,245.2841 112.03566,250.12277 114.78587,250.57036 C 116.98486,250.92816 116.83989,247.09729 117.07378,244.2066 C 117.25342,241.98762 118.25927,241.40602 118.26632,244.4388 C 118.27433,247.74858 117.96347,253.58475 119.92689,253.58475 C 121.92115,253.58475 121.46101,247.25038 121.66813,244.2534 C 121.88685,241.08692 123.16795,243.66801 123.26333,245.206 C 123.39958,247.40118 123.47368,250.62386 123.47368,251.69036 C 123.47368,254.32764 126.97134,255.67993 127.56283,251.69036 C 127.63705,251.18956 127.10831,248.04418 126.90047,246.42789 C 126.48861,243.22561 129.19436,248.25698 129.42276,248.57228 C 132.73063,253.13915 134.47928,251.72486 132.29439,247.11249 C 131.48371,245.4014 130.07867,244.5442 130.61016,243.9337 C 130.75023,243.77271 131.49709,243.11611 132.44689,243.06671 C 134.10029,242.98051 135.88456,241.93722 133.24754,240.43243 C 131.16806,239.24583 124.86617,243.77501 121.76721,238.34884 C 121.20823,237.37004 118.50571,233.46447 115.99144,232.79537 C 114.05418,232.27987 114.36756,233.19017 114.14382,234.52486 L 114.14382,234.52486 z M 103.89775,244.5391 L 103.87887,258.86821 C 103.8711,264.89998 103.25128,261.5417 100.52403,258.44872 C 99.895727,257.73632 100.05779,257.72582 99.432718,258.36592 L 98.663626,259.15331 C 98.202888,259.53541 98.179343,259.91771 98.592752,260.30011 C 99.624543,261.9189 100.84015,263.53029 101.8037,265.16488 C 102.63135,266.56877 102.83512,268.44316 102.72302,270.12805 L 102.63015,280.14119 L 111.43652,280.11509 L 111.42457,267.89756 C 111.42302,266.25437 112.04809,265.55697 112.68787,265.00368 L 114.35023,263.56589 C 114.81037,263.16779 116.38871,262.30009 115.55807,261.444 L 114.79507,260.6579 C 114.33828,260.18691 114.06482,260.29921 113.40891,260.9868 C 109.12124,265.48258 109.89189,263.42699 109.90981,260.534 L 109.95559,253.14885 C 109.95858,252.67255 110.05538,251.79566 110.03208,251.30246 C 109.99993,250.62476 109.75408,249.39977 108.5876,249.54407 C 107.5227,249.67587 107.14467,248.65358 107.36135,246.48189 C 107.57421,244.3499 105.99109,242.94001 103.89775,244.5391 L 103.89775,244.5391 z "
   style="fill:#fff500" /><path
   id="_91405552"
   class="fil4"
   d="M 169.82345,167.75256 C 170.69771,167.71946 170.75699,167.57896 171.39151,167.35166 C 174.81914,166.12397 175.11016,162.35799 176.10442,159.22471 C 176.42341,158.21982 177.99972,165.33798 180.39114,166.90797 C 181.3762,167.55486 184.16226,167.45046 184.23242,168.44846 C 184.32038,169.69785 183.47026,169.67195 182.00247,169.28045 C 178.34465,168.30516 183.92729,172.62303 182.00868,173.90202 C 179.8275,175.35602 176.81878,163.54019 177.35863,168.76166 C 177.57257,170.83124 177.75926,171.75194 177.88045,173.82923 C 177.99148,175.72681 176.239,174.92502 176.39461,173.12063 C 176.47134,172.23373 176.25262,171.46984 175.38983,172.93273 C 174.88595,173.78673 174.4184,175.00262 173.92324,175.15472 C 172.09821,175.71441 174.26972,169.80245 174.26482,169.57475 C 174.17124,165.24758 172.65194,173.16473 171.4178,173.64273 C 168.73142,174.68272 169.69007,172.25233 170.80098,170.91574 C 172.19371,169.24085 170.8697,169.37195 169.25897,170.16035 C 168.18582,170.68574 167.4643,168.66016 169.82345,167.75256 L 169.82345,167.75256 z M 167.61489,180.05559 C 169.57724,179.69439 171.11411,178.3007 171.83444,177.4265 C 172.78615,176.27131 172.49895,176.89381 174.37429,176.90921 C 176.26015,176.92421 178.87041,176.77001 180.20601,176.56761 C 181.29636,176.40251 180.92538,176.40011 181.67953,177.4369 C 182.47408,178.5289 183.9494,180.08789 186.57662,179.95639 C 187.89705,179.89039 190.47491,177.5165 190.95573,177.7569 C 191.91736,178.2377 190.30292,180.67758 189.70199,180.67758 C 188.49977,180.67758 192.015,182.99237 191.38479,183.56247 C 190.23396,184.60376 189.4185,184.28986 188.70833,183.72237 C 187.35241,182.63917 186.78948,180.63128 187.88091,185.36556 C 188.27305,187.06655 187.27843,187.03855 186.57304,186.36105 C 185.44563,185.27796 185.45364,179.26769 184.64535,183.13027 C 184.42866,184.16546 184.6812,185.40896 184.48245,185.84635 C 184.04561,186.80775 182.88056,186.22105 182.33939,185.04786 C 181.72614,183.71817 181.54484,181.74478 181.38504,181.43978 C 180.9353,180.58148 180.33066,179.86889 180.30796,180.92018 C 180.26433,182.92427 180.65085,184.22876 180.326,186.20685 C 180.08111,187.69634 178.7442,187.21194 178.60042,185.86805 C 178.37393,183.75547 178.13741,180.65268 177.85726,185.69515 C 177.75483,187.53584 177.86706,189.84983 177.26792,190.44903 C 174.62361,193.09301 175.27713,184.28366 175.27713,184.04326 C 175.27713,181.06838 174.48031,182.42027 174.23076,184.57816 C 173.99602,186.60565 174.34023,189.38063 173.35374,188.85144 C 172.08913,188.17284 172.64154,185.92785 172.72472,184.20116 C 172.83145,181.98178 172.56756,180.61858 170.94762,184.54106 C 169.26064,188.62584 167.47804,187.33694 168.09858,183.61407 C 168.43932,181.56758 166.72545,182.35227 166.14125,183.56247 C 165.04265,185.83805 161.18332,185.08936 162.77565,183.80297 C 164.84927,182.12748 163.3816,182.19567 162.35423,182.97537 C 161.53805,183.59457 159.85131,182.49327 161.09273,181.27878 C 162.35578,180.04269 163.11089,180.97278 161.69366,179.47549 C 160.68303,178.4075 161.40132,177.5227 163.16993,178.7036 C 164.25778,179.42999 165.35698,180.47099 167.61489,180.05559 L 167.61489,180.05559 z M 166.05914,191.43562 C 161.51235,195.62169 162.08341,193.21021 157.38663,193.18401 C 156.16576,193.17701 155.28576,193.45361 156.01601,194.3672 C 157.73526,196.51789 161.54881,194.6697 158.48893,197.72928 C 155.59447,200.62376 157.16958,201.12696 159.15189,200.15887 C 159.92266,199.78227 161.00321,198.57418 161.3779,197.82868 C 162.96006,194.6789 162.9462,196.67209 162.61944,197.59028 C 162.24679,198.63858 160.80493,201.73316 161.30141,202.58195 C 161.47399,202.87725 162.50817,203.25145 163.40479,201.70936 C 164.08328,200.54226 165.22443,199.14357 165.53673,197.45268 C 165.82907,195.86869 166.52741,195.3401 166.40251,197.33338 C 166.37371,197.79308 166.55908,198.55918 166.39916,199.28357 C 165.98528,201.15876 168.52728,201.41256 168.91189,198.78458 C 169.15535,197.12019 169.18546,195.528 169.59828,194.2765 C 169.84161,193.53831 170.38852,194.1371 170.33737,194.9746 C 170.2714,196.05439 170.40705,197.38468 171.171,197.19049 C 172.1704,196.93619 172.41266,195.95569 172.67871,195.3234 C 173.12869,194.254 174.12737,193.58501 173.70034,195.4745 C 173.26267,197.41098 171.75006,200.89496 170.67142,202.44945 C 169.19084,204.58324 171.80277,207.26102 172.4135,204.51144 C 172.85237,202.53445 176.40393,197.75088 175.16179,201.78716 C 174.73512,203.17475 175.74276,205.22454 176.57711,203.55565 C 176.85511,202.99935 176.73703,201.63236 176.77587,201.22746 C 177.01287,198.76008 177.32338,198.83908 177.65014,200.78606 C 177.72256,201.21806 177.70488,202.29955 178.14673,202.76965 C 179.50002,204.20914 180.4503,202.44585 180.06749,200.56966 C 179.81602,199.33637 179.31047,197.91888 179.31047,197.61448 C 179.31047,196.91889 179.08075,194.6511 179.75196,194.8328 C 179.93255,194.8818 179.92443,197.23208 180.72567,197.05819 C 181.10932,196.97479 181.47552,196.58529 181.42078,195.78049 C 181.3364,194.5355 182.39472,193.63341 182.39472,196.50179 C 182.39472,197.90998 182.65754,199.30387 182.74658,200.39887 C 182.96601,203.09955 185.06581,203.78605 185.03736,198.58808 C 185.01693,194.8331 185.69136,195.80649 186.14301,197.75368 C 186.59515,199.70077 186.37285,202.70055 186.51196,202.83955 C 187.75016,204.07774 188.82569,202.60845 188.83633,200.95006 C 188.8484,199.07027 188.21365,196.86909 188.93218,198.17088 C 190.99636,201.91136 193.89106,199.03977 192.13117,198.17088 C 191.55618,197.88708 191.02839,196.94379 190.74538,196.67889 C 189.05182,195.0949 189.76091,194.7143 191.57482,194.5547 C 192.14193,194.5046 192.75003,194.4404 193.04727,194.1944 C 195.12902,192.47271 192.74764,191.80192 190.37822,192.55141 C 188.39699,193.17831 184.69196,193.882 183.73009,191.39742 C 182.8765,189.19243 179.99327,186.48755 179.99327,190.66032 C 179.99327,192.32911 177.66579,193.36321 176.1355,193.36321 C 172.63102,193.36321 175.6199,190.07133 171.59206,191.21662 C 170.25454,191.59682 171.44828,188.23554 170.75281,188.23554 C 168.75018,188.23554 167.35566,190.24193 166.05914,191.43562 L 166.05914,191.43562 z M 154.95063,207.83872 C 157.01828,209.23481 160.16348,209.90011 162.31634,208.84172 C 163.13444,208.43952 163.907,206.67373 164.92851,205.00594 C 167.43657,200.91166 167.33367,203.51605 168.43179,205.65373 C 170.6229,209.91771 177.15271,207.55662 179.20995,205.47324 C 179.77921,204.89684 180.35983,204.69724 180.70368,204.20134 C 181.91068,202.45895 183.12294,206.63113 183.28477,206.99133 C 184.48328,209.65741 187.58714,210.9556 190.8092,209.94301 C 191.18305,209.82561 192.22786,208.41692 193.69482,207.91322 C 195.35766,207.34272 196.62908,208.11522 195.34797,209.39631 C 192.8215,211.9227 193.56813,210.48291 196.16619,213.38819 C 198.69242,216.21307 194.7137,215.60837 193.33591,213.73269 C 191.413,211.1151 192.85545,215.11948 193.748,216.06327 C 195.2716,217.67366 192.16488,219.12295 190.46487,215.91447 C 186.56921,208.56312 191.47825,221.61494 186.63459,219.24475 C 186.07931,218.97285 186.54985,214.42668 186.21556,213.73269 C 185.85354,212.98079 185.32731,213.40219 185.26994,214.42248 C 185.14325,216.66747 185.56981,221.38864 182.88534,218.70446 C 182.19632,218.01556 183.00043,214.07708 183.00043,213.04369 C 183.00043,209.49091 181.70834,210.39661 181.811,212.33209 C 181.94594,214.87818 181.60973,217.39326 180.5887,216.60357 C 179.5391,215.79177 180.68754,212.26019 179.11326,210.6625 C 178.56922,210.11031 177.94726,209.74211 177.94726,210.51731 C 177.94726,213.50279 178.6499,216.40367 179.09569,219.70415 C 179.39317,221.90694 177.21127,221.56224 176.91379,219.24475 C 176.60675,216.85297 175.59839,211.4349 175.65062,216.14417 L 175.73141,223.45323 C 175.75555,225.63771 172.43525,227.9722 172.43525,224.29752 C 172.43525,222.00074 173.80683,219.28465 173.85356,216.64397 C 173.91678,213.08399 172.42987,217.64746 172.2053,219.12985 C 171.58035,223.25853 168.58621,221.86024 169.60449,219.70415 C 170.17638,218.49296 171.47589,213.66169 171.68755,211.2249 C 171.90579,208.71002 170.85834,209.48361 170.48748,211.0427 C 170.44482,211.2213 170.22168,213.51529 169.72293,214.99148 C 168.82799,217.64176 166.3553,219.04055 166.97619,215.37428 C 167.16802,214.24188 167.35972,213.10979 167.55155,211.9778 C 167.88643,210.00041 166.94966,210.46611 166.42797,212.40559 C 165.83289,214.61758 165.08065,218.10566 164.62613,218.32586 C 161.52956,219.82695 163.13312,214.07708 163.13312,212.81399 C 163.13312,210.40241 161.52538,214.88108 161.52538,216.37377 C 161.52538,219.01515 157.89278,219.20075 158.7288,216.19117 C 159.92612,211.8812 158.68219,211.8325 158.0362,213.69549 C 157.74207,214.54408 157.21596,215.61297 156.5873,216.60357 C 155.85657,217.75516 154.6455,217.05777 154.34755,215.96237 C 154.08473,214.99618 154.63176,213.73579 155.43886,212.92869 C 156.35747,212.0104 154.51392,212.34369 154.20963,212.88159 C 152.31779,216.22767 148.08259,212.65529 152.64885,210.679 C 154.39858,209.92171 154.63475,209.55831 153.27919,209.18411 C 151.61049,208.72312 151.53328,208.39702 151.88765,206.43793 C 152.34779,203.89244 154.23472,207.35532 154.95063,207.83872 L 154.95063,207.83872 z M 169.61525,223.77243 C 168.56661,223.42043 168.19096,221.97754 168.28455,220.71644 C 168.38016,219.42305 166.94488,218.80806 166.4147,219.33805 C 163.00046,222.75233 158.72079,228.4676 152.53185,224.42442 C 150.46002,223.07073 147.9369,224.85892 150.14892,225.94141 C 153.11354,227.3921 153.26962,226.57161 150.8849,228.81 C 149.00717,230.57228 150.6914,232.54257 152.20652,230.46199 C 153.94621,228.0731 154.86195,229.79289 153.08772,230.85738 C 150.62866,232.33287 152.02342,233.97476 154.16911,233.30057 C 154.79143,233.10507 155.42762,231.19568 155.97011,230.01859 C 156.39499,229.09649 157.12393,228.353 156.87031,229.99789 C 156.70789,231.05128 156.3283,232.54267 156.28193,232.66467 C 154.88107,236.34235 156.17054,237.17895 157.779,235.34906 C 158.97788,233.98476 159.28814,231.44578 159.44841,229.73379 C 159.66127,227.4665 161.33045,227.02301 160.57235,231.15778 C 160.47339,231.69798 159.9468,237.59274 162.20938,235.73365 C 163.04958,235.04326 163.11783,233.76497 163.13014,232.39857 C 163.14268,231.03208 163.09918,229.57739 163.19575,228.5347 C 163.48546,225.40292 164.20423,226.81161 164.36439,228.6463 C 164.46132,229.75909 164.40741,231.56578 164.36439,232.95507 C 164.28479,235.50806 166.46825,235.59505 166.99065,233.91116 C 167.33116,232.81317 167.18116,231.50018 167.33642,230.18649 C 167.49119,228.87299 167.95181,227.5584 167.95181,226.45691 C 167.95181,223.61743 169.01193,224.03582 168.94942,225.77381 C 168.92802,226.37691 168.92958,228.4972 169.28442,229.93079 C 169.82799,232.12738 171.73644,233.10207 171.45653,227.4884 C 171.26482,223.64493 172.00583,224.57522 169.61525,223.77243 L 169.61525,223.77243 z M 180.52978,221.16114 C 180.11243,223.65113 179.01084,223.84813 178.00319,223.85733 C 176.80575,223.86822 176.16263,225.76711 176.30139,229.37279 C 176.40859,232.15918 178.41325,231.51238 178.76236,229.77229 C 178.93315,228.92039 178.8061,227.8293 178.93996,226.88261 C 179.20517,225.00582 179.98215,224.91512 180.07442,228.6656 C 180.09103,229.33809 178.92753,233.01557 181.01765,233.35577 C 182.68885,233.62767 182.57878,230.71638 182.75662,228.5193 C 182.89311,226.83291 183.65742,226.39081 183.6628,228.6958 C 183.66889,231.21108 183.43261,235.64665 184.9249,235.64665 C 186.44061,235.64665 186.09102,230.83258 186.24831,228.5549 C 186.41432,226.14831 187.38814,228.1099 187.46057,229.27899 C 187.56419,230.94738 187.62036,233.39647 187.62036,234.20686 C 187.62036,236.21125 190.27866,237.23914 190.72816,234.20686 C 190.78446,233.82627 190.38264,231.43588 190.22476,230.20759 C 189.91186,227.7737 191.96827,231.59758 192.14169,231.83718 C 194.65585,235.30806 195.98476,234.23316 194.32407,230.72788 C 193.70808,229.42729 192.64008,228.7759 193.04417,228.312 C 193.15065,228.1896 193.71824,227.6905 194.44024,227.653 C 195.69673,227.5876 197.05265,226.79451 195.04858,225.65101 C 193.46821,224.74922 188.67881,228.1913 186.32349,224.06742 C 185.8986,223.32353 183.84482,220.35525 181.93386,219.84675 C 180.46165,219.45495 180.69985,220.14675 180.52978,221.16114 z M 172.74277,228.7721 L 172.72831,239.66213 C 172.72245,244.2463 172.25143,241.69392 170.17865,239.34343 C 169.70142,238.80194 169.82452,238.79384 169.34932,239.28043 L 168.76476,239.87883 C 168.41446,240.16933 168.39677,240.45973 168.71086,240.75022 C 169.49513,241.98072 170.41888,243.20521 171.15116,244.4476 C 171.78042,245.5146 171.93507,246.93899 171.84986,248.21978 L 171.77922,255.82953 L 178.47205,255.80983 L 178.46297,246.52449 C 178.4619,245.2757 178.93698,244.7456 179.42317,244.325 L 180.68659,243.23221 C 181.03629,242.92991 182.23576,242.27041 181.60483,241.61972 L 181.0247,241.02242 C 180.67762,240.66432 180.46978,240.74962 179.97128,241.27242 C 176.71276,244.689 177.29828,243.12681 177.31178,240.92822 L 177.34668,235.31556 C 177.34907,234.95336 177.42258,234.28706 177.40477,233.91216 C 177.38039,233.39707 177.19334,232.46617 176.307,232.57597 C 175.49775,232.67607 175.21044,231.89898 175.37513,230.24859 C 175.53672,228.6283 174.33366,227.5567 172.74277,228.7721 L 172.74277,228.7721 z "
   style="fill:#fff500" /><path
   id="_91311760"
   class="fil4"
   d="M 32.364439,167.75256 C 33.238705,167.71946 33.297986,167.57896 33.932502,167.35166 C 37.36013,166.12397 37.651034,162.35799 38.645416,159.22471 C 38.964406,158.21982 40.540716,165.33798 42.932132,166.90797 C 43.917191,167.55486 46.703252,167.45046 46.773408,168.44846 C 46.861373,169.69785 46.011248,169.67195 44.54346,169.28045 C 40.885642,168.30516 46.468281,172.62303 44.549675,173.90202 C 42.36849,175.35602 39.359769,163.54019 39.899627,168.76166 C 40.113562,170.83124 40.300248,171.75194 40.421438,173.82923 C 40.53235,175.72681 38.779992,174.92502 38.935603,173.12063 C 39.012333,172.23373 38.793617,171.46984 37.930823,172.93273 C 37.42694,173.78673 36.959389,175.00262 36.46423,175.15472 C 34.639206,175.71441 36.81071,169.80245 36.80581,169.57475 C 36.712228,165.24758 35.192928,173.16473 33.958795,173.64273 C 31.272412,174.68272 32.231058,172.25233 33.341968,170.91574 C 34.7347,169.24085 33.41069,169.37195 31.79996,170.16035 C 30.726817,170.68574 30.005173,168.66016 32.364439,167.75256 L 32.364439,167.75256 z M 30.155884,180.05559 C 32.118234,179.69439 33.655103,178.3007 34.375432,177.4265 C 35.327146,176.27131 35.039946,176.89381 36.915287,176.90921 C 38.801146,176.92421 41.411397,176.77001 42.747,176.56761 C 43.837354,176.40251 43.466253,176.40011 44.220525,177.4369 C 45.015074,178.5289 46.490392,180.08789 49.117495,179.95639 C 50.438038,179.89039 53.015901,177.5165 53.496598,177.7569 C 54.458351,178.2377 52.843916,180.67758 52.242865,180.67758 C 51.040763,180.67758 54.555997,182.99237 53.925783,183.56247 C 52.774954,184.60376 51.95949,184.28986 51.24932,183.72237 C 49.893399,182.63917 49.330474,180.63128 50.421904,185.36556 C 50.814039,187.06655 49.819418,187.03855 49.114029,186.36105 C 47.986625,185.27796 47.994633,179.26769 47.186339,183.13027 C 46.969655,184.16546 47.222194,185.40896 47.023438,185.84635 C 46.586603,186.80775 45.421551,186.22105 44.880378,185.04786 C 44.267137,183.71817 44.085829,181.74478 43.926035,181.43978 C 43.476293,180.58148 42.871656,179.86889 42.848948,180.92018 C 42.805205,182.92427 43.191842,184.22876 42.866995,186.20685 C 42.622105,187.69634 41.285188,187.21194 41.141409,185.86805 C 40.914924,183.75547 40.67828,180.65268 40.398252,185.69515 C 40.295826,187.53584 40.408052,189.84983 39.808914,190.44903 C 37.1646,193.09301 37.818119,184.28366 37.818119,184.04326 C 37.818119,181.06838 37.021299,182.42027 36.771748,184.57816 C 36.537016,186.60565 36.881225,189.38063 35.894732,188.85144 C 34.630122,188.17284 35.18253,185.92785 35.265714,184.20116 C 35.372442,181.98178 35.108549,180.61858 33.488496,184.54106 C 31.801514,188.62584 30.018917,187.33694 30.639569,183.61407 C 30.980312,181.56758 29.266438,182.35227 28.682239,183.56247 C 27.583639,185.83805 23.724316,185.08936 25.316641,183.80297 C 27.390261,182.12748 25.922592,182.19567 24.895224,182.97537 C 24.079042,183.59457 22.392299,182.49327 23.633602,181.27878 C 24.896777,180.04269 25.651886,180.97278 24.234653,179.47549 C 23.224017,178.4075 23.942315,177.5227 25.710927,178.7036 C 26.798771,179.42999 27.897969,180.47099 30.155884,180.05559 L 30.155884,180.05559 z M 28.600131,191.43562 C 24.053346,195.62169 24.624398,193.21021 19.927619,193.18401 C 18.706753,193.17701 17.826749,193.45361 18.556879,194.3672 C 20.27625,196.51789 24.089799,194.6697 21.029924,197.72928 C 18.135462,200.62376 19.710457,201.12696 21.692885,200.15887 C 22.46365,199.78227 23.544204,198.57418 23.918889,197.82868 C 25.501055,194.6789 25.487191,196.67209 25.160432,197.59028 C 24.787778,198.63858 23.345925,201.73316 23.842398,202.58195 C 24.014981,202.87725 25.049162,203.25145 25.945778,201.70936 C 26.624276,200.54226 27.765424,199.14357 28.077722,197.45268 C 28.370061,195.86869 29.068279,195.3401 28.943504,197.33338 C 28.9147,197.79308 29.100071,198.55918 28.940157,199.28357 C 28.52627,201.15876 31.068277,201.41256 31.452763,198.78458 C 31.696339,197.12019 31.726337,195.528 32.139269,194.2765 C 32.382605,193.53831 32.929515,194.1371 32.878362,194.9746 C 32.812388,196.05439 32.94804,197.38468 33.711873,197.19049 C 34.711394,196.93619 34.953655,195.95569 35.2197,195.3234 C 35.669681,194.254 36.668365,193.58501 36.241331,195.4745 C 35.80366,197.41098 34.291053,200.89496 33.212412,202.44945 C 31.731835,204.58324 34.34376,207.26102 34.954492,204.51144 C 35.393358,202.53445 38.944925,197.75088 37.702785,201.78716 C 37.276109,203.17475 38.283757,205.22454 39.118105,203.55565 C 39.396102,202.99935 39.278019,201.63236 39.316862,201.22746 C 39.553864,198.76008 39.864369,198.83908 40.191129,200.78606 C 40.263437,201.21806 40.245868,202.29955 40.687722,202.76965 C 42.041013,204.20914 42.991293,202.44585 42.60848,200.56966 C 42.357016,199.33637 41.851459,197.91888 41.851459,197.61448 C 41.851459,196.91889 41.621747,194.6511 42.292955,194.8328 C 42.473545,194.8818 42.465418,197.23208 43.26666,197.05819 C 43.650309,196.97479 44.01651,196.58529 43.961771,195.78049 C 43.877392,194.5355 44.935715,193.63341 44.935715,196.50179 C 44.935715,197.90998 45.198533,199.30387 45.287573,200.39887 C 45.507006,203.09955 47.6068,203.78605 47.578355,198.58808 C 47.557918,194.8331 48.232352,195.80649 48.684007,197.75368 C 49.13614,199.70077 48.913838,202.70055 49.052956,202.83955 C 50.291152,204.07774 51.366685,202.60845 51.377323,200.95006 C 51.389394,199.07027 50.754639,196.86909 51.473175,198.17088 C 53.537353,201.91136 56.432055,199.03977 54.672167,198.17088 C 54.097171,197.88708 53.569384,196.94379 53.286368,196.67889 C 51.592812,195.0949 52.301906,194.7143 54.115816,194.5547 C 54.682924,194.5046 55.291026,194.4404 55.588265,194.1944 C 57.670012,192.47271 55.288636,191.80192 52.919211,192.55141 C 50.937978,193.17831 47.232951,193.882 46.271078,191.39742 C 45.417488,189.19243 42.53426,186.48755 42.53426,190.66032 C 42.53426,192.32911 40.206786,193.36321 38.67649,193.36321 C 35.172012,193.36321 38.160894,190.07133 34.133051,191.21662 C 32.795417,191.59682 33.989272,188.23554 33.293803,188.23554 C 31.291176,188.23554 29.896652,190.24193 28.600131,191.43562 L 28.600131,191.43562 z M 17.491624,207.83872 C 19.559268,209.23481 22.704477,209.90011 24.857337,208.84172 C 25.675431,208.43952 26.447989,206.67373 27.4695,205.00594 C 29.977565,200.91166 29.87466,203.51605 30.972783,205.65373 C 33.163888,209.91771 39.69358,207.55662 41.750945,205.47324 C 42.320205,204.89684 42.900818,204.69724 43.244669,204.20134 C 44.451671,202.45895 45.663812,206.63113 45.825638,206.99133 C 47.024274,209.65741 50.128131,210.9556 53.35019,209.94301 C 53.724039,209.82561 54.768856,208.41692 56.235808,207.91322 C 57.898529,207.34272 59.17007,208.11522 57.888967,209.39631 C 55.362497,211.9227 56.109001,210.48291 58.707181,213.38819 C 61.233411,216.21307 57.25469,215.60837 55.876899,213.73269 C 53.95399,211.1151 55.39644,215.11948 56.288993,216.06327 C 57.812596,217.67366 54.705871,219.12295 53.005861,215.91447 C 49.110205,208.56312 54.019246,221.61494 49.17558,219.24475 C 48.620304,218.97285 49.090843,214.42668 48.756554,213.73269 C 48.394537,212.98079 47.868184,213.40219 47.810935,214.42248 C 47.684247,216.66747 48.110803,221.38864 45.426332,218.70446 C 44.737317,218.01556 45.541427,214.07708 45.541427,213.04369 C 45.541427,209.49091 44.249329,210.39661 44.351994,212.33209 C 44.486928,214.87818 44.150727,217.39326 43.129693,216.60357 C 42.080095,215.79177 43.228534,212.26019 41.654256,210.6625 C 41.110215,210.11031 40.488248,209.74211 40.488248,210.51731 C 40.488248,213.50279 41.190889,216.40367 41.636687,219.70415 C 41.934165,221.90694 39.752262,221.56224 39.454785,219.24475 C 39.147745,216.85297 38.139381,211.4349 38.191609,216.14417 L 38.272403,223.45323 C 38.296545,225.63771 34.976244,227.9722 34.976244,224.29752 C 34.976244,222.00074 36.347821,219.28465 36.394552,216.64397 C 36.457776,213.08399 34.970865,217.64746 34.746293,219.12985 C 34.121339,223.25853 31.127199,221.86024 32.145483,219.70415 C 32.717372,218.49296 34.016881,213.66169 34.228545,211.2249 C 34.446783,208.71002 33.399336,209.48361 33.028475,211.0427 C 32.985808,211.2213 32.762669,213.51529 32.263925,214.99148 C 31.368982,217.64176 28.896294,219.04055 29.517185,215.37428 C 29.70889,214.24188 29.900715,213.10979 30.09254,211.9778 C 30.427427,210.00041 29.490652,210.46611 28.968961,212.40559 C 28.373886,214.61758 27.621646,218.10566 27.167003,218.32586 C 24.070556,219.82695 25.674116,214.07708 25.674116,212.81399 C 25.674116,210.40241 24.066373,214.88108 24.066373,216.37377 C 24.066373,219.01515 20.433774,219.20075 21.269676,216.19117 C 22.467116,211.8812 21.223183,211.8325 20.577194,213.69549 C 20.283063,214.54408 19.756949,215.61297 19.128289,216.60357 C 18.397443,217.75516 17.186497,217.05777 16.888541,215.96237 C 16.625723,214.99618 17.172752,213.73579 17.979851,212.92869 C 18.898458,212.0104 17.054909,212.34369 16.750618,212.88159 C 14.858784,216.22767 10.623579,212.65529 15.189846,210.679 C 16.939575,209.92171 17.17574,209.55831 15.820178,209.18411 C 14.151482,208.72312 14.074274,208.39702 14.428522,206.43793 C 14.888782,203.89244 16.775717,207.35532 17.491624,207.83872 L 17.491624,207.83872 z M 32.15624,223.77243 C 31.107598,223.42043 30.731956,221.97754 30.825538,220.71644 C 30.921151,219.42305 29.485872,218.80806 28.955694,219.33805 C 25.541452,222.75233 21.261787,228.4676 15.072839,224.42442 C 13.001011,223.07073 10.477888,224.85892 12.689909,225.94141 C 15.654528,227.3921 15.810617,226.57161 13.425894,228.81 C 11.548162,230.57228 13.232396,232.54257 14.747513,230.46199 C 16.487083,228.0731 17.402942,229.79289 15.628712,230.85738 C 13.16965,232.33287 14.564413,233.97476 16.710102,233.30057 C 17.332427,233.10507 17.968616,231.19568 18.511104,230.01859 C 18.935987,229.09649 19.664801,228.353 19.411306,229.99789 C 19.248882,231.05128 18.869177,232.54267 18.822923,232.66467 C 17.422065,236.34235 18.711534,237.17895 20.319993,235.34906 C 21.518868,233.98476 21.829135,231.44578 21.989407,229.73379 C 22.202267,227.4665 23.871441,227.02301 23.113345,231.15778 C 23.014385,231.69798 22.487793,237.59274 24.750369,235.73365 C 25.590574,235.04326 25.658818,233.76497 25.671128,232.39857 C 25.683677,231.03208 25.640173,229.57739 25.736743,228.5347 C 26.026452,225.40292 26.745227,226.81161 26.90538,228.6463 C 27.002308,229.75909 26.948287,231.56578 26.90538,232.95507 C 26.825782,235.50806 29.009238,235.59505 29.531647,233.91116 C 29.872151,232.81317 29.722157,231.50018 29.877409,230.18649 C 30.032184,228.87299 30.492802,227.5584 30.492802,226.45691 C 30.492802,223.61743 31.552918,224.03582 31.490411,225.77381 C 31.469017,226.37691 31.470571,228.4972 31.825417,229.93079 C 32.36898,232.12738 34.277428,233.10207 33.997519,227.4884 C 33.805814,223.64493 34.546819,224.57522 32.15624,223.77243 L 32.15624,223.77243 z M 43.070771,221.16114 C 42.653418,223.65113 41.55183,223.84813 40.544182,223.85733 C 39.346741,223.86822 38.70362,225.76711 38.84238,229.37279 C 38.949586,232.15918 40.954125,231.51238 41.303354,229.77229 C 41.474144,228.92039 41.347097,227.8293 41.480956,226.88261 C 41.746165,225.00582 42.523145,224.91512 42.615412,228.6656 C 42.631905,229.33809 41.468527,233.01557 43.55864,233.35577 C 45.229846,233.62767 45.119771,230.71638 45.297612,228.5193 C 45.434101,226.83291 46.198412,226.39081 46.20379,228.6958 C 46.209885,231.21108 45.9736,235.64665 47.46589,235.64665 C 48.981604,235.64665 48.631897,230.83258 48.789182,228.5549 C 48.95531,226.14831 49.929015,228.1099 50.001562,229.27899 C 50.105184,230.94738 50.161357,233.39647 50.161357,234.20686 C 50.161357,236.21125 52.819534,237.23914 53.269157,234.20686 C 53.32545,233.82627 52.923633,231.43588 52.765751,230.20759 C 52.452856,227.7737 54.509265,231.59758 54.682685,231.83718 C 57.196844,235.30806 58.525754,234.23316 56.865065,230.72788 C 56.249074,229.42729 55.181071,228.7759 55.585158,228.312 C 55.691647,228.1896 56.259233,227.6905 56.981236,227.653 C 58.237718,227.5876 59.593638,226.79451 57.589577,225.65101 C 56.009204,224.74922 51.219799,228.1913 48.864358,224.06742 C 48.439595,223.32353 46.385815,220.35525 44.474857,219.84675 C 43.002647,219.45495 43.240844,220.14675 43.070771,221.16114 L 43.070771,221.16114 z M 35.283761,228.7721 L 35.269299,239.66213 C 35.263443,244.2463 34.792307,241.69392 32.719643,239.34343 C 32.242412,238.80194 32.365514,238.79384 31.890315,239.28043 L 31.305757,239.87883 C 30.955453,240.16933 30.937764,240.45973 31.251855,240.75022 C 32.036125,241.98072 32.959872,243.20521 33.692153,244.4476 C 34.32141,245.5146 34.476065,246.93899 34.390849,248.21978 L 34.320215,255.82953 L 41.013047,255.80983 L 41.003964,246.52449 C 41.002888,245.2757 41.477968,244.7456 41.964044,244.325 L 43.227578,243.23221 C 43.577285,242.92991 44.776757,242.27041 44.145827,241.61972 L 43.565691,241.02242 C 43.218614,240.66432 43.010774,240.74962 42.512269,241.27242 C 39.253638,244.689 39.839271,243.12681 39.852776,240.92822 L 39.887675,235.31556 C 39.890066,234.95336 39.963569,234.28706 39.94576,233.91216 C 39.921379,233.39707 39.734335,232.46617 38.847997,232.57597 C 38.038747,232.67607 37.751309,231.89898 37.916123,230.24859 C 38.07771,228.6283 36.874652,227.5567 35.283761,228.7721 L 35.283761,228.7721 z "
   style="fill:#fff500" /><path
   id="_90620752"
   class="fil3"
   d="M 35.457061,63.386484 C 37.268938,63.438584 38.002414,64.415278 38.563188,65.540071 L 38.563188,76.221907 C 38.778438,77.512799 37.452636,78.577193 36.022974,79.08609 C 34.560683,79.606787 34.611956,79.453987 34.611956,78.050396 L 34.611956,64.192879 C 34.611956,63.322684 34.481563,63.358984 35.457061,63.386484 L 35.457061,63.386484 z M 95.655503,29.163689 C 97.396507,29.545387 100.23743,33.065066 101.04476,31.280876 C 102.00293,29.163589 97.246991,28.711992 95.655503,29.163689 z M -14.098034,4.2412382 L 224.61685,4.2412382 L 224.61685,140.32643 L 156.91692,140.32643 C 155.73132,134.57146 150.26975,117.00077 131.90799,106.04233 C 130.88457,105.43164 129.12611,104.28454 131.48825,103.26765 C 132.25818,102.93615 133.4751,102.90975 134.43912,103.05985 C 136.23487,103.33945 136.23857,104.53324 137.5486,105.63653 C 142.20378,109.55761 154.66977,113.98938 160.83326,111.8129 C 160.54857,111.4386 152.79335,102.13286 153.07409,101.41356 C 160.80505,105.07714 174.11458,108.88881 180.03199,102.97255 C 173.16084,100.46866 171.81544,98.876171 166.90102,93.642302 C 168.70931,93.459303 187.60196,92.42871 189.49833,82.612568 C 186.32217,82.455569 176.81925,82.120171 173.68564,80.577581 C 177.74587,80.291282 198.86727,71.895033 198.73305,57.201921 C 192.95847,59.796505 189.62407,62.999986 183.71634,62.496789 C 185.50898,63.667982 197.51769,42.39541 193.32001,32.800867 C 188.86023,38.191635 186.53706,41.924113 181.23194,44.929195 C 182.53946,44.598397 183.51029,21.427736 174.38672,15.597171 C 173.82942,18.180755 172.6799,28.892191 170.80743,30.531881 C 170.82094,30.487381 165.72007,13.894381 160.29615,12.628688 C 160.01301,14.277679 159.02855,28.690392 158.2052,30.337782 C 158.29221,31.683674 150.61348,14.669476 143.67026,11.552095 C 143.67994,11.921293 143.77197,16.112967 143.60548,17.40656 C 143.52265,17.065862 137.86101,11.185697 136.80006,11.460895 C 137.03802,12.457189 138.32271,18.581353 138.39729,26.414406 C 138.48358,35.501951 135.73911,44.550897 135.37877,53.544143 C 135.04041,61.982692 140.27896,65.283872 140.90679,65.141973 C 137.5633,68.99235 125.74247,74.242919 120.39157,74.738916 C 118.24314,74.937915 116.11573,74.725516 113.84981,74.09952 C 115.62918,68.667852 116.39815,65.578671 117.19402,59.763906 C 117.55053,59.299608 118.76554,61.322496 120.09637,61.902993 C 122.0323,57.664518 121.21325,50.357662 120.97792,46.927783 C 122.35631,47.849877 122.83617,47.922177 124.18863,48.925671 C 124.85816,46.613384 122.76733,34.648756 122.40221,32.736168 C 123.9643,32.247771 124.45455,33.486263 125.87489,34.09016 C 126.69884,32.36967 123.93824,26.798503 123.00792,26.167207 C 124.43268,24.643416 131.08117,23.350024 134.44761,16.686164 C 133.90154,15.907969 129.6655,15.546971 128.28878,15.70947 C 129.65689,14.422578 131.11846,12.909987 131.81071,11.098797 C 123.28018,8.6874116 115.11107,12.088992 113.99717,12.585989 C 106.95822,9.9733038 97.280695,5.3954313 90.684791,12.43389 C 89.353371,12.452189 88.08673,12.44609 86.904946,12.41749 C 82.1851,12.30279 78.131322,15.512571 79.511624,20.087044 C 79.93591,21.493335 80.297449,23.150725 82.002,23.99682 C 84.96136,20.335842 91.347871,21.911433 92.228711,24.308218 C 91.551886,24.709916 90.197161,24.882615 89.103222,25.245313 C 86.696628,26.043208 84.023511,26.844803 81.807785,26.555105 C 78.526087,26.126207 75.378726,23.865121 74.034758,23.161325 C 74.690189,28.645792 80.849976,34.460457 87.830127,31.698674 C 88.049202,32.199771 88.075376,33.204065 88.124856,33.751262 C 95.170144,33.932561 98.723743,39.215229 98.448854,40.392022 C 98.290255,41.070518 98.458057,42.095312 97.787805,43.353304 C 93.997921,50.467061 84.18199,54.232239 76.989935,57.563819 C 74.227897,58.843411 71.155354,60.202303 70.496098,60.802999 C 71.841621,61.791093 73.451037,62.175091 74.968305,62.753188 C 70.922296,65.583071 66.055086,69.701546 63.625066,70.939239 C 61.735144,71.901833 59.774109,71.362536 59.017088,70.412742 C 54.794433,65.115273 49.607993,61.226297 45.586724,56.805323 C 45.349961,52.31895 44.896394,45.877089 36.422758,49.602267 C 33.539171,46.621484 30.717016,47.499779 28.150389,49.545167 C 20.88244,47.086682 18.149804,51.424856 19.57098,56.714024 C 15.699227,57.36102 15.479435,55.997228 11.278652,58.076816 C 11.332793,59.287108 19.426962,61.033198 19.397442,71.095838 L 19.323222,96.336586 C 19.301231,103.81445 18.159724,107.45222 10.04177,112.49089 C 10.247339,113.36409 15.416211,114.48208 15.922126,114.36568 C 14.484217,118.96735 16.826631,126.94481 27.986889,127.324 C 33.624387,127.5155 38.786804,122.81163 45.69895,121.80224 C 54.586115,120.50435 64.726176,122.57703 73.778513,125.06032 C 77.031527,125.95271 79.538277,121.97674 79.683251,122.40263 C 80.44302,122.94573 83.448753,126.68381 89.093183,126.65471 C 88.555356,125.00002 89.326002,123.77813 90.77646,122.74943 C 91.358149,122.95123 94.11696,124.86432 95.764502,123.97502 C 94.738688,121.39954 96.439056,121.96084 100.33866,124.58072 C 102.29252,125.89351 105.0181,125.70201 107.07535,126.70131 C 115.14657,130.62188 122.03147,135.19236 125.24121,140.32643 L -14.098871,140.32643 L -14.098871,4.2412382 L -14.098034,4.2412382 z M 35.553272,89.273429 C 37.005045,89.505327 37.934887,90.961518 38.659399,92.004412 L 38.659399,102.49375 C 38.71354,103.46255 37.452158,104.84824 36.119304,105.55043 C 34.746054,106.27383 34.708287,105.91833 34.708287,104.51464 L 34.708287,90.65712 C 34.708287,89.787025 34.589845,89.119529 35.553272,89.273429 z M 48.884556,81.488975 C 47.587319,82.919567 47.348285,83.641862 48.556363,85.297852 C 50.702051,88.238835 55.991754,92.39491 57.803513,94.206599 C 62.098236,98.501173 56.326282,105.46554 52.993431,107.41312 C 45.042204,112.0594 53.189678,111.6177 58.147004,111.536 C 59.950635,111.5063 62.36966,111.6599 63.397625,110.46291 C 64.337387,109.36861 65.164804,101.83266 65.325554,99.926965 C 65.506742,97.780577 65.524908,95.73159 65.533992,94.185899 C 65.547019,91.999912 63.423321,90.150123 60.88992,88.136735 C 58.236642,86.028248 55.235092,83.794661 52.59532,81.712574 C 51.271669,80.66858 49.704324,80.584981 48.884556,81.488975 L 48.884556,81.488975 z M 66.182132,77.192601 C 66.94226,77.501599 68.365349,75.72631 68.182249,75.185313 C 67.878079,74.287418 61.811037,75.415012 66.182132,77.192601 z "
   style="fill:white" /><path
   id="_91228464"
   class="fil5"
   d="M 81.627434,22.076832 C 80.841609,21.266537 80.041563,16.618064 82.715038,14.825875 C 84.320869,13.749182 90.148996,14.10748 91.884144,14.753776 C 93.232056,15.255773 94.425673,16.571565 95.747531,18.459553 C 98.261929,22.050732 103.48685,24.655916 105.30231,28.492093 C 107.4884,33.111066 104.39291,36.195647 100.96887,36.402946 C 97.08397,36.638344 97.022777,34.01466 93.673911,32.515869 C 92.649531,32.057472 91.259428,31.740374 90.523323,31.576775 C 92.792831,28.97969 97.171576,30.941379 98.243404,32.179171 C 99.273402,33.368764 101.11635,34.212759 103.07225,32.31657 C 105.68859,29.780385 95.208987,22.187331 93.559294,21.923533 C 91.119832,21.533135 91.680009,20.516941 89.113859,19.819745 C 86.146132,19.01355 82.863718,19.657346 81.627434,22.076832 z M 22.579821,56.414626 C 23.168323,58.480613 25.72754,60.193303 27.71463,59.728406 C 27.067206,59.155509 27.154454,56.299426 27.698136,56.198627 C 26.656307,55.273633 24.384289,55.508931 22.579821,56.414626 z M 22.289992,55.408932 C 22.702206,54.672536 25.577546,53.96724 26.695508,54.388338 C 28.482765,52.041152 25.199155,50.75146 23.302301,51.411256 C 21.811327,51.930253 20.715236,53.582043 22.289992,55.408932 z M 29.681162,54.844135 C 29.667657,56.137027 31.068994,59.140509 32.994054,59.03901 C 32.875254,58.737512 34.815852,54.836935 35.109147,54.787035 C 34.025725,54.405838 30.766496,54.05414 29.681162,54.844135 L 29.681162,54.844135 z M 29.818607,53.572443 C 31.359779,52.782347 34.440449,53.309744 34.813342,53.648142 C 34.968714,53.697142 36.374114,49.936465 32.448459,49.930665 C 28.759208,49.925165 29.616504,52.451449 29.818607,53.572443 L 29.818607,53.572443 z M 36.994766,54.901335 C 37.510602,55.439632 37.436501,58.108116 37.203921,58.148115 C 38.71856,58.687312 41.939543,56.084228 41.565694,54.958434 C 41.565574,54.350538 37.051537,54.06484 36.994766,54.901335 z M 37.269177,53.394844 C 37.953651,52.888047 40.897116,53.170245 41.764212,53.888541 C 44.227218,52.264551 41.592705,50.112664 39.584461,50.108264 C 38.138185,50.105164 36.557573,51.150057 37.269177,53.394844 L 37.269177,53.394844 z M 54.071833,77.002102 C 54.759176,76.238307 55.424168,75.511511 56.131828,74.766616 C 57.260188,73.578823 57.517628,73.609523 59.20473,74.460717 C 60.901991,75.316812 63.278347,76.923303 64.728806,78.287394 C 65.598889,79.10589 66.13576,79.837485 65.992578,80.266883 C 65.277389,82.41297 64.258506,82.111272 63.01792,81.177777 C 62.454278,80.75358 61.626622,80.270783 60.97896,79.756086 C 58.649454,77.904297 58.788333,78.885191 60.158715,80.405482 C 61.056526,81.402576 62.192774,82.222271 62.911072,83.375064 C 63.459416,84.254959 62.926131,84.718856 62.759644,85.046154 C 62.574751,85.409552 61.569374,85.953748 59.707657,84.570357 C 57.728575,83.099566 55.640016,81.703474 53.899968,79.543187 C 52.846186,78.234795 52.979687,78.215895 54.071833,77.002102 L 54.071833,77.002102 z M 22.496757,118.52306 C 20.750733,118.54536 19.388956,116.34527 19.012836,115.16888 C 16.11682,118.73926 19.700895,122.16204 21.258799,122.07884 C 21.160078,121.34274 20.767704,120.00935 22.496757,118.52306 L 22.496757,118.52306 z M 24.473807,111.2061 C 22.834392,110.38051 22.631094,107.66792 22.850646,106.38823 C 18.418119,108.31462 20.101636,113.24499 21.594881,113.92278 C 21.85997,113.18809 22.140357,111.7539 24.473807,111.2061 z M 44.003482,106.30213 C 45.640267,105.19574 45.438164,102.93425 45.003003,101.95106 C 50.075424,102.34405 49.027977,106.80263 47.52529,107.74992 C 47.125386,107.22232 46.601184,106.12923 44.003482,106.30213 z M 61.900316,117.27066 C 66.084845,118.44366 70.919547,118.15076 75.055911,117.00047 C 76.446372,116.61377 77.535172,117.18927 77.661262,119.67285 C 77.863604,123.65853 71.526454,122.07064 68.905447,121.50314 C 65.699403,120.80924 59.797534,119.26675 52.492177,119.40225 C 49.655322,119.45485 46.468401,118.69046 43.703973,119.63055 L 36.528172,122.07114 C 33.832227,122.98793 31.380097,124.37892 28.126366,124.59982 C 24.042709,124.87692 22.352858,123.62813 22.603485,121.73654 C 22.844192,119.91855 24.912434,119.68595 28.623198,120.67564 C 31.458978,121.43204 41.281961,117.93296 40.303714,117.92676 C 35.594864,117.99276 30.886133,117.99016 26.176924,117.83666 C 23.726945,117.75686 21.337322,116.75917 22.911481,113.67909 C 24.285926,110.9897 27.9943,113.83119 32.965131,115.04508 C 34.700757,115.46878 41.575375,114.68668 41.933209,112.37279 C 42.204512,110.6189 41.754889,107.94282 44.032047,107.80632 C 46.798985,107.64042 47.243827,109.72961 45.003003,112.0464 C 43.948624,113.13649 44.978263,114.63718 47.358563,114.51318 C 52.7489,114.23238 59.945257,113.96978 65.932461,114.45568 C 65.350055,115.34228 63.050309,116.37667 61.900316,117.27066 L 61.900316,117.27066 z "
   style="fill:yellow" />
<path
   style="fill:black;fill-opacity:1;fill-rule:evenodd;stroke:none;stroke-width:0.33730382;stroke-linecap:butt;stroke-linejoin:miter;stroke-miterlimit:4;stroke-dasharray:none;stroke-opacity:1"
   d="M 99.326267,14.990693 C 102.08856,14.172184 104.93602,14.406606 107.66612,15.171451 C 109.54811,15.728223 111.31546,16.596933 112.87233,17.846361 C 113.60922,18.444125 113.43017,18.893463 112.47659,18.818077 C 111.6967,18.756423 110.45962,18.973855 110.20533,19.991042 C 108.44724,23.648634 107.19211,23.784204 104.50838,23.031915 C 102.79275,22.432817 101.42561,20.59291 100.78249,18.994151 C 100.40591,17.925933 100.4572,17.219851 100.74897,16.37246 C 100.67278,15.861175 100.18974,15.941861 99.615002,15.794792 C 98.948945,15.547484 98.308455,15.323525 99.326267,14.990693 z "
   id="path1889" /><path
   id="_91352208"
   class="fil3"
   d="M 102.31308,18.472853 C 102.65561,22.984226 109.01176,23.150325 109.07343,18.495653 C 109.08957,17.274261 107.06758,17.202861 106.6862,18.162955 C 106.11204,19.607947 104.90946,20.227943 103.90098,18.262955 C 103.65585,17.785157 103.66075,17.542159 103.10009,17.542159 C 102.33292,17.542159 102.27101,17.915557 102.31308,18.472853 L 102.31308,18.472853 z "
   style="fill:white" /></svg>