<!-- Created with Inkscape (http://www.inkscape.org/) -->
<svg
   xmlns="http://www.w3.org/2000/svg"
   xmlns:xlink="http://www.w3.org/1999/xlink"
   id="svg1593"><title>Herb Gryfice</title>
  <defs
     id="defs3">
    <linearGradient
       id="linearGradient2858">
      <stop
         id="stop2860"
         offset="0.00000000"
         style="stop-color:#ffffff;stop-opacity:1.0000000;" />
      <stop
         id="stop2862"
         offset="1.0000000"
         style="stop-color:#c8c8c8;stop-opacity:1.0000000;" />
    </linearGradient>
    <linearGradient
       y2="468.80719"
       x2="193.01947"
       y1="211.44963"
       x1="-57.529831"
       gradientTransform="matrix(0.819556,0.000000,0.000000,0.983627,315.0054,-11.12026)"
       gradientUnits="userSpaceOnUse"
       id="linearGradient6639"
       xlink:href="#linearGradient2858" />
    <linearGradient
       y2="468.80719"
       x2="193.01947"
       y1="211.44963"
       x1="-57.529831"
       gradientTransform="matrix(0.819556,0.000000,0.000000,0.983627,315.0054,-11.12026)"
       gradientUnits="userSpaceOnUse"
       id="linearGradient1505"
       xlink:href="#linearGradient2858" />
  </defs>
  <sodipodi:namedview
     id="base"
     pagecolor="#ffffff"
     bordercolor="#666666"
     borderopacity="1.0" />
  <metadata
     id="metadata4">
    <rdf:RDF
       id="RDF5">
      <cc:Work
         rdf:about=""
         id="Work6">
        <dc:format
           id="format7">image/svg+xml</dc:format>
        <dc:type
           id="type9"
           rdf:resource="http://purl.org/dc/dcmitype/StillImage" />
      </cc:Work>
    </rdf:RDF>
  </metadata>
  <g
     id="layer1">
    <g
       id="g1606">
      <path
         id="path6195"
         d="M 1.1230251,1.1231998 L 1.1230251,432.79810 C 1.1231251,516.64963 173.67179,544.23073 189.96861,547.94500 C 205.72249,551.53547 243.47618,593.06144 250.00016,598.87697 C 256.52414,593.06134 295.83228,551.53547 311.58618,547.94500 C 327.88300,544.23073 498.87725,516.64963 498.87727,432.79810 L 498.87727,1.1231998 L 250.00016,1.1231998 L 1.1230251,1.1231998 z "
         style="fill:url(#linearGradient1505);fill-opacity:1.0000000;fill-rule:nonzero;stroke:#000000;stroke-width:2.2460501;stroke-miterlimit:4.0000000;stroke-dashoffset:0.00000000;stroke-opacity:1.0000000" />
      <g
         id="g1507">
        <g
           transform="translate(196.0473,-75.04240)"
           id="g6212">
          <path
             style="fill:#ffff00;fill-opacity:1.0000000;fill-rule:evenodd;stroke:#000000;stroke-width:3.5000000;stroke-linecap:butt;stroke-linejoin:miter;stroke-miterlimit:4.0000000;stroke-opacity:1.0000000"
             d="M -79.184110,216.93877 C -48.426990,229.46623 -71.073160,242.97594 -70.519290,253.70600 C -69.942970,264.87103 -58.840620,263.20764 -58.840620,263.20764 C -58.840620,263.20764 -73.533140,280.97157 -76.546990,273.12240 C -79.470860,265.50757 -85.545010,261.96830 -89.732590,261.96830 C -101.36773,261.96830 -101.41126,282.62404 -101.41126,290.06010 C -101.41126,297.49618 -104.80183,292.53880 -106.30876,290.88634 C -118.36416,277.25355 -94.929590,210.52559 -79.184110,216.93877 z "
             id="path5204" />
          <path
             style="fill:#ffff00;fill-opacity:1.0000000;fill-rule:evenodd;stroke:#000000;stroke-width:4.0000000;stroke-linecap:butt;stroke-linejoin:miter;stroke-miterlimit:4.0000000;stroke-opacity:1.0000000"
             d="M -109.85867,276.11393 C -109.85867,276.11393 -101.57059,234.80245 -81.980560,243.47786"
             id="path7488" />
          <path
             style="fill:#ffff00;fill-opacity:1.0000000;fill-rule:evenodd;stroke:#000000;stroke-width:3.5000000;stroke-linecap:butt;stroke-linejoin:miter;stroke-miterlimit:4.0000000;stroke-opacity:1.0000000"
             d="M -128.31852,228.62671 C -128.31852,228.62671 -133.18414,207.67217 -149.03874,212.92835 C -165.23818,218.29884 -157.14969,238.96551 -157.70356,249.69557 C -158.27988,260.86060 -164.10799,266.22017 -164.10799,266.22017 C -164.10799,266.22017 -148.28528,273.65623 -145.27143,265.80705 C -142.34756,258.19223 -144.56150,252.58738 -140.37392,252.58738 C -128.73878,252.58738 -126.81159,278.61361 -126.81159,286.04968 C -126.81159,293.48575 -123.42102,288.52838 -121.91409,286.87592 C -109.85869,273.24313 -128.31852,228.62671 -128.31852,228.62671 z "
             id="path4444" />
          <path
             style="fill:#ffff00;fill-opacity:1.0000000;fill-rule:evenodd;stroke:#000000;stroke-width:4.0000000;stroke-linecap:butt;stroke-linejoin:miter;stroke-miterlimit:4.0000000;stroke-opacity:1.0000000"
             d="M -118.90024,270.76443 C -118.90024,270.76443 -127.18832,229.45294 -146.77835,238.12835"
             id="path6728" />
          <path
             style="fill:#ffff00;fill-opacity:1.0000000;fill-rule:evenodd;stroke:#000000;stroke-width:3.5000000;stroke-linecap:butt;stroke-linejoin:miter;stroke-miterlimit:4.0000000;stroke-opacity:1.0000000"
             d="M -117.45809,290.80903 C -116.09617,269.50317 -144.44187,203.30600 -136.97889,193.48002 C -115.38763,165.05230 -113.37234,158.61588 -112.01043,143.12072 C -108.83262,168.30037 -98.332743,170.64679 -86.587967,195.41692 C -78.357964,212.77429 -112.91836,254.49224 -110.19453,290.32481 C -112.46440,291.29326 -117.45809,290.80903 -117.45809,290.80903 z "
             id="path2166" />
          <path
             style="fill:#ffff00;fill-opacity:1.0000000;fill-rule:evenodd;stroke:#000000;stroke-width:3.5000000;stroke-linecap:butt;stroke-linejoin:miter;stroke-miterlimit:4.0000000;stroke-opacity:1.0000000"
             d="M -115.54269,289.14143 C -114.99306,300.17781 -125.80136,334.08044 -123.42073,339.55760 C -118.09769,351.80439 -116.53092,358.03025 -113.34417,365.64359 C -110.55477,350.94813 -106.69405,346.84090 -103.08439,338.55430 C -99.271390,329.80090 -113.71058,307.95343 -112.61132,289.39226 C -113.52738,288.89061 -115.54269,289.14143 -115.54269,289.14143 z "
             id="path3684" />
          <path
             style="fill:#ffff00;fill-opacity:1.0000000;fill-rule:evenodd;stroke:#000000;stroke-width:3.5000000;stroke-linecap:butt;stroke-linejoin:miter;stroke-miterlimit:4.0000000;stroke-opacity:1.0000000"
             d="M -126.81159,300.92182 C -126.81159,300.92182 -127.56506,319.09888 -133.96949,319.51199 C -140.37392,319.92510 -143.01104,314.55461 -149.41547,317.85952 C -155.81990,321.16444 -158.45702,332.73166 -158.45702,332.73166 C -158.45702,332.73166 -152.05259,328.18740 -149.79220,331.49232 C -147.53181,334.79724 -144.46496,344.29057 -139.24373,343.47265 C -133.96949,342.64642 -111.36561,336.86282 -114.75619,300.09559 L -126.81159,300.92182 z "
             id="path5206" />
          <path
             style="fill:#ffff00;fill-opacity:1.0000000;fill-rule:evenodd;stroke:#000000;stroke-width:3.1541121;stroke-linecap:butt;stroke-linejoin:miter;stroke-miterlimit:4.0000000;stroke-opacity:1.0000000"
             d="M -99.891270,299.86417 C -99.891270,299.86417 -99.137800,318.04123 -92.733370,318.45434 C -86.328940,318.86745 -83.691820,313.49696 -77.287390,316.80188 C -70.882960,320.10679 -68.245840,331.67401 -68.245840,331.67401 C -68.245840,331.67401 -74.650270,327.12976 -76.910660,330.43467 C -79.171050,333.73959 -86.381940,334.55751 -91.603170,333.73958 C -96.877410,332.91336 -115.33725,335.80517 -111.94667,299.03794 L -99.891270,299.86417 z "
             id="path5966" />
          <path
             style="fill:#ffff00;fill-opacity:1.0000000;fill-rule:evenodd;stroke:#000000;stroke-width:4.0000000;stroke-linecap:butt;stroke-linejoin:miter;stroke-miterlimit:4.0000000;stroke-opacity:1.0000000"
             d="M -113.62600,340.99397 L -113.62600,224.08245"
             id="path5968" />
          <path
             transform="matrix(1.000000,0.000000,0.000000,1.096577,-311.0332,-116.0774)"
             style="fill:#ffff00;fill-opacity:1.0000000;fill-rule:evenodd;stroke:#000000;stroke-width:3.3423235;stroke-miterlimit:4.0000000;stroke-dashoffset:0.00000000;stroke-opacity:1.0000000"
             id="path1404"
             d="M 214.73684 373.41483 A 19.473684 10.526316 0 1 1  175.78947,373.41483 A 19.473684 10.526316 0 1 1  214.73684 373.41483 z" />
        </g>
        <path
           id="path10695"
           d="M 185.86852,223.40119 C 177.21280,227.53664 144.60603,289.51433 131.70904,287.11450 C 118.81203,284.71467 108.31447,263.71617 100.51629,265.21607 C 92.248345,266.80632 88.629575,283.83044 94.028325,285.93028 C 99.427075,288.03014 108.04615,285.70924 108.04615,285.70924 C 109.24587,292.00878 116.44436,297.01378 120.34347,296.71381 C 124.24256,296.41383 104.41538,297.31376 100.81622,294.31397 C 97.217055,291.31419 85.819705,293.71402 84.619975,298.21370 C 83.420265,302.71337 83.793405,312.06902 92.197145,313.22833 C 100.89513,314.42825 105.59530,307.49714 105.59530,307.49714 L 121.25897,306.70773 L 113.11335,312.61267 C 108.18844,312.99156 96.017335,321.61202 101.11615,329.11148 C 107.73032,338.12654 121.60602,337.55819 121.00616,323.45921 C 120.40630,321.35936 133.31919,309.34432 136.61842,311.14419 C 139.91766,312.94406 146.67394,310.90742 150.57304,310.00748 C 154.47214,309.10756 160.04457,306.96039 160.04457,310.86011 C 160.04457,314.75984 169.20030,313.51260 174.29912,312.31269 C 179.39794,311.11278 180.82125,296.49292 172.12327,296.49292 C 163.42530,296.49292 154.51925,301.18188 155.71897,296.98218 C 156.91869,292.78248 236.76576,266.46846 242.15414,238.03104 L 185.86852,223.40119 z "
           style="fill:#000000;fill-opacity:1.0000000;fill-rule:evenodd;stroke:#000000;stroke-width:1.8312621;stroke-linecap:butt;stroke-linejoin:miter;stroke-miterlimit:4.0000000;stroke-opacity:1.0000000" />
        <path
           id="path9933"
           d="M 188.27689,149.70839 C 189.54732,139.85625 127.00048,93.479050 128.52048,80.447010 C 130.04050,67.414950 150.01885,56.803080 147.99423,49.123200 C 145.84765,40.980690 130.14487,33.722200 125.32976,41.566760 C 123.60090,47.096260 124.33190,51.776340 126.90377,54.863080 C 120.70101,56.487100 117.63637,71.330230 118.19982,75.200670 C 118.76327,79.071100 116.23965,55.188950 118.98818,51.394210 C 121.73670,47.599470 118.57048,36.389100 114.00057,35.496840 C 109.43066,34.604600 99.551995,34.615710 98.964985,43.080040 C 98.357405,51.840740 105.32118,55.592080 106.60712,54.563160 L 106.99342,68.462970 L 99.253055,59.760430 C 99.253055,57.702590 91.432055,48.455340 84.296545,54.051430 C 77.161015,59.647520 78.075585,73.115530 92.099255,71.561590 C 94.153295,70.820720 106.91913,83.286440 105.34725,86.700580 C 103.77537,90.114730 105.07956,97.325680 106.24149,101.15544 C 107.40342,104.98522 109.06784,108.70081 105.17771,108.96506 C 101.28757,109.22931 100.73065,122.89068 106.01302,125.93967 C 110.50246,128.53100 121.72148,130.34697 121.13209,121.66759 C 120.54270,112.98820 115.48218,103.39267 119.75285,104.30524 C 124.02353,105.21783 138.24111,183.46518 167.24823,182.79714 L 188.27689,149.70839 z "
           style="fill:#000000;fill-opacity:1.0000000;fill-rule:evenodd;stroke:#000000;stroke-width:1.8312632;stroke-linecap:butt;stroke-linejoin:miter;stroke-miterlimit:4.0000000;stroke-opacity:1.0000000" />
        <path
           style="fill:#000000;fill-opacity:1.0000000;fill-rule:evenodd;stroke:#000000;stroke-width:2.0915017;stroke-linecap:butt;stroke-linejoin:miter;stroke-miterlimit:4.0000000;stroke-opacity:1.0000000"
           d="M 336.91836,197.47580 C 336.91835,197.47579 236.63362,247.28478 236.63362,247.28478 C 256.41029,264.38240 276.59157,276.01728 286.02319,275.00408 C 286.17129,251.42028 320.78175,277.54112 321.03912,277.73100 C 320.69413,264.69764 336.72043,263.24157 351.49954,266.65081 C 345.05261,269.51678 300.29221,288.12874 290.61366,296.80712 C 263.27603,298.60737 254.22628,308.20345 251.83777,318.56561 C 250.81034,323.02296 249.19471,327.56673 249.72678,333.86380 C 192.04596,331.48164 143.26313,349.33518 139.92542,366.42256 C 135.98197,386.61119 115.48216,416.29511 115.48216,416.29511 C 115.48216,416.29511 140.64278,406.74158 152.74887,405.96177 C 165.83939,400.61687 164.51625,347.48273 250.09005,353.06780 C 249.90952,354.66878 245.31798,358.37368 238.84376,368.99208 C 249.75077,370.12304 253.43061,366.91081 248.02739,384.15352 C 265.19318,375.51423 269.01147,374.14341 266.18414,393.39704 C 259.43526,404.93751 252.91772,407.62333 237.78741,419.38857 C 234.40369,421.18213 224.04508,426.38545 215.54055,424.73550 C 187.80394,411.83639 190.70236,430.47410 198.72021,435.42474 C 171.28475,426.23259 167.90373,472.44093 195.38873,456.74400 C 182.98679,482.38681 225.06252,489.18925 225.89513,465.06519 C 244.07196,459.03763 232.53446,452.71172 242.19147,450.58873 C 244.62634,475.25031 287.54459,462.38146 264.56613,437.56599 C 269.69270,430.48400 293.78010,422.63824 299.66257,412.91479 L 313.98428,410.97829 C 316.12887,409.69670 329.29368,399.83011 322.85233,387.29183 C 319.58462,380.93113 312.06936,373.99209 311.31572,366.37389 C 327.85909,371.98538 340.83493,375.86401 363.79377,378.06580 C 364.59259,381.58927 367.98221,388.77503 368.58951,394.04739 C 368.54772,394.26555 372.78002,382.36272 374.30977,385.41364 C 376.48382,391.65257 375.18024,395.19044 374.14898,400.65964 C 378.02821,397.18594 381.26392,393.69226 383.47419,393.39889 C 380.53904,403.69894 370.61626,422.94941 364.97412,432.45657 C 359.81621,436.03912 351.85289,439.21344 350.03123,439.90694 C 352.41629,438.68340 342.17287,442.72949 341.36287,440.61109 C 336.14062,431.45011 322.95827,433.52972 324.64059,449.42391 C 331.53740,455.28867 330.50978,462.86757 336.78739,459.43784 C 337.50072,459.04808 330.61602,453.96634 331.35990,453.61260 C 314.83885,464.83806 334.13402,492.36234 344.46486,472.04220 C 340.66404,489.74969 366.83954,495.30156 371.21431,473.95097 C 372.42988,468.01842 375.23805,470.64667 385.12041,463.35924 C 397.30266,478.46590 402.68187,472.93650 407.10618,465.16600 C 407.95856,454.82365 399.67965,441.78604 398.17328,439.89603 C 405.78590,424.18198 417.75732,407.10601 427.93019,395.46477 C 439.28866,382.46692 433.57805,373.39942 431.17881,371.98674 C 430.53299,371.60637 427.77777,363.91486 427.84071,364.22782 C 439.52839,352.21387 446.46135,344.14281 449.99791,317.48251 C 453.31197,282.92758 398.23783,231.65999 386.39133,230.66940 L 336.91836,197.47580 z M 414.06076,286.36291 C 424.88257,295.18397 433.60457,308.91323 431.80342,317.91612 C 428.75625,333.14703 424.04981,338.79052 409.30013,343.73033 C 409.88716,334.25834 418.13318,294.97074 414.06076,286.36291 z M 360.21257,313.35008 C 354.27284,336.61604 344.00730,351.98098 352.92624,353.71339 C 349.20343,350.29579 326.25863,348.29745 311.07225,345.33795 C 311.60200,339.01333 310.07952,339.23323 313.70520,338.51978 C 323.23889,337.90990 346.19586,324.93035 360.21257,313.35008 z "
           id="path9142" />
        <path
           id="path6638"
           d="M 362.71668,264.71315 C 371.92272,261.33706 303.16970,288.90078 292.72929,298.29863 C 266.63863,300.02356 254.49209,312.21668 252.21253,322.14469 C 250.48901,329.65095 255.02854,336.71222 251.89643,354.46371 C 250.29864,358.71087 248.12914,357.98902 241.95023,368.16248 C 254.87654,369.23294 255.73972,362.91661 250.58295,379.43696 C 265.84913,371.84317 270.66887,362.67286 270.03126,389.55616 C 266.41230,401.16584 256.78501,410.10791 239.70398,423.09369 C 227.43152,437.41388 256.04485,446.25893 259.78193,439.30907 C 263.37989,432.61795 293.59109,420.62905 299.36506,411.04776 L 316.05207,407.15205 C 318.09884,405.92415 326.85018,396.64809 319.97221,384.98524 L 310.80172,376.93792 C 308.96052,373.25491 303.33227,337.68926 313.27892,335.72434 C 324.75993,334.98707 369.89432,303.06463 372.34927,297.54011 L 362.71668,264.71315 z "
           style="fill:#c80000;fill-opacity:1.0000000;fill-rule:evenodd;stroke:#000000;stroke-width:1.9999870;stroke-linecap:butt;stroke-linejoin:miter;stroke-miterlimit:4.0000000;stroke-opacity:1.0000000" />
        <g
           id="g8250"
           transform="matrix(0.999913,0.000000,0.000000,1.000074,-109.4674,-114.4064)">
          <path
             style="fill:#c80000;fill-opacity:1.0000000;fill-rule:evenodd;stroke:#000000;stroke-width:2.0000000;stroke-linecap:butt;stroke-linejoin:miter;stroke-miterlimit:4.0000000;stroke-opacity:1.0000000"
             d="M 480.42685,368.61079 C 480.42685,368.61079 551.25678,398.05831 543.16699,435.99836 C 530.98872,493.11288 409.58505,459.69366 381.66921,454.00710 C 318.92907,441.22670 253.93279,463.63338 250.37965,481.89161 C 246.61574,501.23290 230.04720,526.62301 230.04720,526.62301 L 241.40631,521.32040 C 241.40631,521.32040 253.56218,521.51804 259.08135,519.25612 C 273.16618,513.48374 282.33065,443.55042 396.77332,469.11121 C 417.94144,473.83911 543.85157,534.32019 557.69017,429.60816 C 561.27939,402.44969 500.75930,343.63092 491.46447,345.37370 C 482.16963,347.11648 480.42685,368.61079 480.42685,368.61079 z "
             id="path5214" />
          <path
             style="fill:none;fill-opacity:0.75000000;fill-rule:evenodd;stroke:#000000;stroke-width:2.0000000;stroke-linecap:butt;stroke-linejoin:miter;stroke-miterlimit:4.0000000;stroke-opacity:1.0000000"
             d="M 232.39125,524.78459 C 232.39125,524.78459 260.32765,511.92891 259.58597,498.82600"
             id="path5974" />
        </g>
        <path
           id="path2821"
           d="M 239.72254,248.31222 C 258.59713,264.69357 284.74242,272.75346 284.55626,272.55139 C 284.69762,249.95554 320.03169,274.23230 320.27732,274.41418 C 319.86561,258.79972 354.83510,258.42292 364.92335,275.74667 C 378.98322,296.38274 342.45612,350.07816 355.16411,352.55613 C 356.79867,362.01208 365.38900,354.90775 369.17669,387.91885 C 369.13680,388.12800 374.68374,375.69727 376.14371,378.62038 C 378.21858,384.59790 375.61506,397.11558 375.78642,397.27940 C 376.02192,397.50453 382.74404,383.79926 385.21461,388.88451 C 388.99130,400.82576 366.11868,438.46222 366.01960,438.26425 C 365.91211,438.04947 392.51591,444.07725 393.45777,444.44247 C 399.49097,429.63403 416.66639,404.03602 427.43758,391.66209 C 438.27794,379.20868 427.66115,369.13699 425.37134,367.78336 C 422.96319,366.35978 405.89548,358.58173 405.89548,351.26735 C 405.89548,343.95297 413.40928,309.18248 412.65572,298.01874 C 411.90395,286.88127 402.44027,262.82130 395.12708,260.12652 C 387.81384,257.43176 388.76474,234.95339 388.76474,234.95339 L 335.41771,200.57802 C 335.41771,200.57802 239.72254,248.31222 239.72254,248.31222 z "
           style="fill:#c80000;fill-opacity:1.0000000;fill-rule:evenodd;stroke:#000000;stroke-width:1.9999870;stroke-linecap:butt;stroke-linejoin:miter;stroke-miterlimit:4.0000000;stroke-opacity:1.0000000" />
        <g
           transform="matrix(0.915557,0.000000,0.000000,0.915705,738.5265,-86.53346)"
           id="g1475"
           style="fill-opacity:1.0000000;fill:#c80000">
          <path
             id="path1477"
             d="M -596.68661,344.42017 C -608.20956,346.45364 -647.96149,411.86089 -662.04799,409.24015 C -676.13449,406.61940 -687.60025,383.68788 -696.11767,385.32585 C -705.14817,387.06249 -708.89380,403.99865 -702.99712,406.29180 C -697.10045,408.58495 -687.27265,405.63662 -687.27265,405.63662 C -685.96228,412.51607 -674.16894,420.05071 -669.91023,419.72312 C -665.65152,419.39552 -691.85896,420.37830 -695.79007,417.10237 C -699.72119,413.82644 -712.16972,416.44718 -713.48010,421.36108 C -714.79047,426.27498 -714.79669,434.83673 -705.61786,436.10277 C -696.11766,437.41314 -692.01844,429.22332 -692.01844,429.22332 L -670.56541,428.56813 L -682.35876,437.08555 C -682.35876,437.08555 -701.03156,446.91334 -695.46248,455.10316 C -689.89340,463.29299 -675.15171,463.29299 -675.80690,447.89612 C -676.46208,445.60297 -660.08243,430.20610 -656.47891,432.17165 C -652.87538,434.13721 -646.32352,433.15443 -642.06481,432.17165 C -637.80610,431.18888 -630.27147,429.87850 -630.27147,434.13721 C -630.27147,438.39592 -621.09886,438.06833 -615.52978,436.75796 C -609.96070,435.44759 -608.40611,419.48190 -617.90631,419.48190 C -627.40651,419.48190 -642.72000,423.98183 -641.40963,419.39553 C -640.09925,414.80922 -549.78448,384.00397 -543.89912,352.94873 L -596.68661,344.42017 z "
             style="fill-rule:evenodd;stroke:#000000;stroke-width:2.0000000;stroke-linecap:butt;stroke-linejoin:miter;stroke-miterlimit:4.0000000;stroke-opacity:1.0000000" />
          <path
             transform="translate(-534.2867,-113.0765)"
             id="path1479"
             d="M -184.76248,514.45440 C -184.76248,514.45440 -176.90025,507.90254 -176.24506,509.54050 C -175.58987,511.17847 -170.67598,513.14403 -168.05524,511.83366 C -161.83097,511.50606 -158.88262,501.02309 -164.77930,499.05752 C -169.03801,498.72993 -180.55723,499.17336 -182.46933,503.31623 C -184.43488,507.57494 -184.76248,514.45440 -184.76248,514.45440 z "
             style="fill-rule:evenodd;stroke:#000000;stroke-width:2.0000000;stroke-linecap:butt;stroke-linejoin:miter;stroke-miterlimit:4.0000000;stroke-opacity:1.0000000" />
          <path
             id="path1481"
             d="M -717.21056,443.96256 C -717.21056,443.96256 -715.52831,433.86743 -713.96300,434.68106 C -712.39768,435.49470 -707.39156,433.77758 -706.26076,431.07450 C -701.75809,426.76466 -706.36455,416.89724 -712.11539,419.25567 C -715.55621,421.78642 -723.99556,429.63922 -722.74106,434.02621 C -721.45146,438.53586 -717.21056,443.96256 -717.21056,443.96256 z "
             style="fill-rule:evenodd;stroke:#000000;stroke-width:2.0000000;stroke-linecap:butt;stroke-linejoin:miter;stroke-miterlimit:4.0000000;stroke-opacity:1.0000000" />
          <path
             id="path1483"
             d="M -694.43014,467.30858 C -694.43014,467.30858 -692.74789,457.21345 -691.18258,458.02708 C -689.61726,458.84072 -684.61114,457.12360 -683.48034,454.42052 C -678.97767,450.11068 -683.58413,440.24326 -689.33497,442.60169 C -692.77579,445.13244 -701.21514,452.98524 -699.96064,457.37223 C -698.67104,461.88188 -694.43014,467.30858 -694.43014,467.30858 z "
             style="fill-rule:evenodd;stroke:#000000;stroke-width:2.0000000;stroke-linecap:butt;stroke-linejoin:miter;stroke-miterlimit:4.0000000;stroke-opacity:1.0000000" />
          <path
             id="path1485"
             d="M -609.02747,448.30818 C -609.02747,448.30818 -610.70972,438.21305 -612.27503,439.02668 C -613.84035,439.84032 -618.84647,438.12320 -619.97727,435.42012 C -624.47994,431.11028 -619.87348,421.24286 -614.12264,423.60129 C -610.68182,426.13204 -602.24247,433.98484 -603.49697,438.37183 C -604.78657,442.88148 -609.02747,448.30818 -609.02747,448.30818 z "
             style="fill-rule:evenodd;stroke:#000000;stroke-width:2.0000000;stroke-linecap:butt;stroke-linejoin:miter;stroke-miterlimit:4.0000000;stroke-opacity:1.0000000" />
        </g>
        <path
           id="path2622"
           d="M 181.14568,148.55497 C 182.41611,138.70283 125.27020,92.325630 126.79020,79.293580 C 128.31022,66.261530 148.54576,54.363510 146.52114,46.683630 C 144.37455,38.541120 128.67178,36.169980 126.94292,41.699480 C 125.21406,47.228980 128.51693,56.024720 128.51693,56.024720 C 122.31417,57.648740 116.16328,68.890660 116.72673,72.761100 C 117.29018,76.631520 114.76656,52.749380 117.51509,48.954640 C 120.26361,45.159900 117.09739,33.949530 112.52748,33.057270 C 107.95756,32.165020 100.13641,32.690590 99.549385,41.154930 C 98.941815,49.915630 106.67715,53.152510 106.67715,53.152510 L 108.60658,72.711350 L 100.09466,62.465440 C 100.09466,62.465440 89.958965,46.015770 82.823455,51.611860 C 75.687925,57.207950 76.602495,70.675960 90.626165,69.122020 C 92.680205,68.381150 107.76073,82.390240 106.18885,85.804380 C 104.61696,89.218540 105.92116,95.143330 107.08309,98.973110 C 108.24502,102.80288 109.90943,109.60522 106.01930,109.86946 C 102.12917,110.13371 102.99746,118.49349 104.53993,123.50010 C 106.08240,128.50670 120.76276,128.93632 120.17337,120.25693 C 119.58398,111.57754 114.52346,97.866360 118.79413,98.778930 C 123.06481,99.691520 139.08271,178.45332 168.08983,177.78528 L 181.14568,148.55497 z "
           style="fill:#c80000;fill-opacity:1.0000000;fill-rule:evenodd;stroke:#000000;stroke-width:1.8312632;stroke-linecap:butt;stroke-linejoin:miter;stroke-miterlimit:4.0000000;stroke-opacity:1.0000000" />
        <path
           style="fill:#000000;fill-opacity:1.0000000;fill-rule:evenodd;stroke:#000000;stroke-width:2.2762210;stroke-linecap:butt;stroke-linejoin:miter;stroke-miterlimit:4.0000000;stroke-opacity:1.0000000"
           d="M 235.04265,20.073820 C 228.87543,19.889970 227.39739,23.851480 227.39739,23.851480 C 218.91632,22.679000 214.49010,25.117990 213.42396,28.280440 C 210.23606,27.369040 206.94119,26.775740 203.78710,26.847540 C 199.74086,26.939660 196.02077,27.879650 193.44354,29.745910 C 183.29648,37.093770 193.28291,58.729540 193.28292,58.729560 C 195.24652,55.494680 210.08321,36.188200 219.65579,60.325280 C 221.48220,59.399480 233.32430,59.546050 238.03006,68.955250 C 223.49968,59.495980 196.29835,68.441270 184.60974,61.302250 C 175.22695,55.571520 185.38845,47.278700 182.03992,47.103520 C 168.47780,52.307300 170.77951,66.362770 179.14887,71.299990 C 185.50059,75.046950 194.85677,76.453570 204.65441,76.901310 C 201.91814,78.281380 199.50058,79.495190 199.12928,81.753640 C 201.76557,81.371840 219.81861,79.852500 230.27367,98.166850 C 230.66360,98.226970 225.40052,115.12086 206.87174,115.64648 C 192.15741,119.90855 178.68787,134.21335 178.68787,134.21335 C 204.68601,138.81553 183.11619,137.49055 173.13146,142.28537 C 163.14674,147.08021 156.06901,162.46300 156.06901,162.46300 C 156.06901,162.46299 176.19105,162.09878 177.76758,158.90224 C 177.32513,159.79938 157.81025,177.02868 156.75923,185.02009 C 155.70821,193.01149 152.54724,198.84174 142.85609,205.39168 C 150.12446,204.98224 157.74450,204.81472 165.13277,196.32868 C 167.27347,199.26678 159.02095,208.99307 160.59749,214.85319 C 165.40443,222.76049 159.05995,245.81933 157.21937,250.19161 C 163.20125,244.66889 172.19351,239.09933 171.91142,240.03569 C 171.63932,240.93890 167.91071,250.74656 160.03483,263.12786 C 168.47018,261.89975 191.45971,245.30144 194.85228,243.52239 C 197.92230,241.91233 183.50703,270.60042 200.19073,282.20456 C 202.33770,269.83153 197.91625,249.00065 213.58130,248.80500 C 209.86408,256.79643 208.83540,269.44605 220.75030,275.16557 C 217.72470,262.87290 221.39693,248.40381 224.02450,253.19872 C 226.65204,257.99355 230.24796,256.58358 237.35595,271.63465 C 243.25255,260.48563 234.65368,254.48379 235.58873,254.28773 C 241.77317,261.86973 247.09992,262.64704 256.02214,260.30853 C 252.83040,256.74181 248.06983,242.80041 263.14968,256.62160 C 268.87888,205.49182 272.04111,165.33808 262.82892,150.98872 C 276.03494,171.81855 269.79456,126.80501 270.28141,126.40147 C 283.68982,157.51920 280.22021,103.07109 279.98253,102.62837 C 295.49296,136.57243 278.41902,69.856880 285.25068,76.250010 C 295.88229,83.437320 286.48281,63.530540 285.34705,61.171980 C 294.10575,57.362030 306.68858,49.863640 322.19196,39.873890 C 314.62134,39.097780 306.79317,39.278610 299.28836,39.743640 C 305.81245,36.095770 311.65561,31.852610 314.28974,27.596550 C 298.62951,26.153260 282.15556,30.301340 272.62640,33.849210 C 263.39268,30.333000 240.47216,20.235720 235.04265,20.073820 z M 239.57196,76.575660 C 239.63550,76.576840 239.66959,76.574350 239.73258,76.575660 C 239.83566,78.340180 239.95670,80.131550 239.66833,82.274690 C 238.83711,88.417240 228.44422,82.322930 220.65160,76.933890 C 227.76927,76.750590 234.66086,76.484620 239.57196,76.575660 z "
           id="path8258" />
        <path
           style="fill:none;fill-opacity:0.75000000;fill-rule:evenodd;stroke:#000000;stroke-width:0.91563094px;stroke-linecap:butt;stroke-linejoin:miter;stroke-opacity:1.0000000"
           d="M 167.06831,440.25815 L 167.06831,440.25815 z "
           id="path15251" />
        <path
           id="path12801"
           d="M 369.05858,433.84268 C 364.41461,437.55843 352.40786,438.28764 351.14170,444.78102 C 306.89277,457.57624 333.61265,490.62069 344.93627,468.26087 C 341.30883,485.22658 363.20677,496.32838 367.38200,475.87227 C 368.54213,470.18838 376.20766,468.47807 385.63925,461.49581 C 397.26582,475.96958 398.55824,467.57295 402.78073,460.12800 C 406.96541,452.74966 393.43330,435.52484 393.43330,435.52484 L 388.84379,437.51136 L 384.65539,429.46845 L 374.85142,437.07145 L 369.05858,433.84268 z "
           style="fill:#c80000;fill-opacity:1.0000000;fill-rule:evenodd;stroke:#000000;stroke-width:1.9999870;stroke-linecap:butt;stroke-linejoin:miter;stroke-miterlimit:4.0000000;stroke-opacity:1.0000000" />
        <path
           id="path15797"
           d="M 350.56743,442.57480 C 349.50447,442.38151 340.80746,444.79773 340.03440,442.76811 C 339.26134,437.06582 325.92595,434.06970 323.70338,441.99491 C 321.48083,449.92012 329.30811,454.84920 335.29938,451.56315 C 341.29064,448.27709 348.82804,446.53741 350.56743,442.57480 z "
           style="fill:#c80000;fill-opacity:1.0000000;fill-rule:evenodd;stroke:#000000;stroke-width:1.9999870;stroke-linecap:butt;stroke-linejoin:miter;stroke-miterlimit:4.0000000;stroke-opacity:1.0000000" />
        <path
           style="fill:#c80000;fill-opacity:1.0000000;fill-rule:evenodd;stroke:#000000;stroke-width:2.1992419;stroke-linecap:butt;stroke-linejoin:miter;stroke-miterlimit:4.0000000;stroke-opacity:1.0000000"
           d="M 183.64114,46.755670 C 170.44870,51.749540 172.68579,65.238580 180.82702,69.976650 C 197.12407,79.461270 233.77901,73.520790 244.90920,75.425670 C 235.15923,54.544600 199.78210,68.582280 186.15442,60.370840 C 177.02737,54.871280 186.89839,46.923790 183.64114,46.755670 z "
           id="path2084" />
        <g
           transform="matrix(0.999913,0.000000,0.000000,1.000074,166.5813,-172.9157)"
           id="g25716">
          <path
             id="path25698"
             d="M 102.74982,220.22049 C 101.77281,226.32679 137.92209,213.38144 145.73814,200.92460 C 124.24399,198.97059 100.55155,207.76364 97.620528,210.45041 L 102.74982,220.22049 z "
             style="fill:#c80000;fill-opacity:1.0000000;fill-rule:evenodd;stroke:#000000;stroke-width:2.0000000;stroke-linecap:butt;stroke-linejoin:miter;stroke-miterlimit:4.0000000;stroke-opacity:1.0000000" />
          <path
             id="path25700"
             d="M 67.470388,267.52637 C 67.470388,267.52637 62.395658,289.07335 42.581578,289.62778 C 28.267068,293.71765 12.930078,307.00970 12.930078,307.00970 C 12.930078,307.00970 27.443808,307.87056 27.755828,308.03216 C 27.675028,313.30051 18.553638,310.58833 8.8402177,315.18942 C -0.87320235,319.79052 -7.5192323,332.57134 -7.5192323,332.57134 C -7.5192323,332.57134 11.396388,330.01517 12.930078,326.94778 C 12.499648,327.80864 -6.4967623,344.32969 -7.5192323,351.99818 C -8.5416923,359.66667 -10.511412,370.12814 -19.939232,376.41335 C -12.868372,376.02052 2.1639377,369.43711 9.3514477,358.64421 C 11.433988,361.46360 -5.9855323,381.40727 -4.4518323,387.03083 C 0.22447765,394.61852 -7.5192323,420.50337 -7.5192323,420.50337 C -7.5192323,420.50337 13.398118,402.22300 13.123698,403.12146 C 12.858978,403.98817 4.3617544,420.82915 -3.7845823,433.35940 C 4.4215577,432.18092 29.056538,410.96345 32.356928,409.25625 C 35.343518,407.71137 19.350478,445.24734 33.890628,451.10212 C 34.289038,451.45734 34.499438,415.06783 49.738838,414.87981 C 46.122608,422.54830 41.726318,441.08787 53.317468,446.57624 C 50.374078,434.78029 55.362398,419.48091 57.918568,424.08200 C 60.474728,428.68309 63.703728,427.60780 70.618578,442.05036 C 76.354958,431.35207 68.256038,418.64646 69.165688,418.45844 C 75.182078,425.73410 78.379058,433.99464 87.058828,431.75049 C 83.953838,428.32788 77.856638,418.96967 82.968968,422.03707 C 88.081298,425.10447 90.605448,417.73277 96.261018,427.66063 C 99.952468,415.59026 80.924038,395.96420 88.081298,404.65516 C 95.238558,413.34611 120.28896,425.61570 116.19910,420.50337 C 112.10924,415.39104 94.721728,319.34890 95.668988,319.35449 C 107.61536,339.78702 102.43342,296.14981 102.90705,295.76258 C 115.95110,325.62292 112.57727,273.37555 112.34605,272.95072 C 127.43504,305.52323 110.84996,241.49110 117.49598,247.62590 C 128.46309,254.93917 117.22157,232.36971 117.22157,232.36971 L 112.88030,222.04128 L 101.62755,214.53153 L 62.077798,200.60528 L 57.563908,221.97634 L 77.719428,240.17212 L 75.892308,261.54318 L 67.470388,267.52637 z "
             style="fill:#c80000;fill-opacity:1.0000000;fill-rule:evenodd;stroke:#000000;stroke-width:2.0000000;stroke-linecap:butt;stroke-linejoin:miter;stroke-miterlimit:4.0000000;stroke-opacity:1.0000000" />
          <path
             id="path25702"
             d="M 61.187787,197.35629 C 49.205321,195.72232 45.392720,201.35044 48.116008,205.88926 C 50.839296,210.42807 74.985768,207.70478 78.616819,209.88341 C 82.247870,212.06204 102.76331,217.69017 107.84678,216.96396 C 112.93024,216.23775 121.46321,208.43099 121.46321,208.43099 C 121.46321,208.43099 113.11179,209.15720 109.29919,208.43099 C 105.48659,207.70478 74.804218,193.90679 68.631439,193.72524 C 62.631811,193.54878 61.187787,197.35629 61.187787,197.35629 z "
             style="fill:#c80000;fill-opacity:1.0000000;fill-rule:evenodd;stroke:#000000;stroke-width:2.0000000;stroke-linecap:butt;stroke-linejoin:miter;stroke-miterlimit:4.0000000;stroke-opacity:1.0000000" />
          <path
             id="path25704"
             d="M 65.150459,205.97613 C 76.831634,202.22519 74.463867,212.88557 92.828842,214.49251 C 95.343699,216.00142 90.299054,220.05934 82.000029,222.82570 C 70.934636,223.58015 63.139043,208.54766 65.150459,205.97613 z "
             style="fill:#000000;fill-opacity:1.0000000;fill-rule:evenodd;stroke:none;stroke-width:1.0000000px;stroke-linecap:butt;stroke-linejoin:miter;stroke-opacity:1.0000000" />
          <path
             id="path25706"
             d="M 84.328086,213.44740 L 76.744084,212.04511 C 76.744084,212.04511 76.053292,212.09343 74.643047,210.24623 C 73.798105,210.97435 73.082343,211.83256 72.751792,212.97584 C 71.829409,216.16612 73.728045,219.54286 76.984784,220.48446 C 80.241524,221.42605 83.621704,219.57553 84.544067,216.38525 C 84.980858,214.87452 85.000188,214.75787 84.328086,213.44740 z "
             style="fill:#ffff9e;fill-opacity:1.0000000;fill-rule:nonzero;stroke:#000000;stroke-width:1.0072006;stroke-miterlimit:4.0000000;stroke-dashoffset:0.00000000;stroke-opacity:1.0000000" />
          <path
             id="path25708"
             d="M 28.007917,230.80711 C 28.007917,230.80711 18.302058,210.04950 28.173388,202.99855 C 38.202188,195.83512 65.743081,203.01075 62.161360,218.77031 C 64.787948,221.63568 81.620358,230.15683 82.336700,240.78258 C 83.053043,251.40834 84.560187,271.46543 66.010751,268.64448 C 55.839771,251.07015 36.256362,252.53867 33.691714,252.90505 C 34.420277,248.53368 43.201293,248.31921 46.430943,242.40963 C 46.442073,242.38857 71.856169,262.73483 73.137523,253.39471 C 76.087222,231.77136 56.054122,231.14250 53.666314,232.33640 C 44.353846,209.17465 29.918163,227.70296 28.007917,230.80711 z "
             style="fill:#c80000;fill-opacity:1.0000000;fill-rule:evenodd;stroke:#000000;stroke-width:2.0000000;stroke-linecap:butt;stroke-linejoin:miter;stroke-miterlimit:4.0000000;stroke-opacity:1.0000000" />
          <path
             style="fill:#000000;fill-opacity:1.0000000;fill-rule:nonzero;stroke:none;stroke-width:1.1000000;stroke-miterlimit:4.0000000;stroke-dashoffset:0.00000000;stroke-opacity:1.0000000"
             d="M 46.953584,203.69445 C 42.090740,204.57529 41.960359,209.50549 43.434104,210.99093 C 43.744555,211.30386 44.099366,211.48492 44.492807,211.64905 C 44.266046,210.27920 44.325936,208.03658 45.894871,207.64314 C 46.294692,208.49323 47.040205,209.18827 48.098128,209.18827 C 49.524822,209.18827 50.680415,207.83776 50.673355,206.75611 C 50.666295,205.70271 50.465765,205.09709 49.899293,204.52612 C 49.332811,203.95514 48.002327,203.50448 46.953584,203.69445 z "
             id="path25710" />
          <path
             id="path25712"
             d="M 104.55078,233.16973 C 105.77204,240.98579 124.61036,231.03648 153.43207,212.71760 C 131.69366,210.51934 105.55871,214.91586 102.62769,217.60263 L 107.51537,222.98242 L 104.55078,233.16973 z "
             style="fill:#c80000;fill-opacity:1.0000000;fill-rule:evenodd;stroke:#000000;stroke-width:2.0000000;stroke-linecap:butt;stroke-linejoin:miter;stroke-miterlimit:4.0000000;stroke-opacity:1.0000000" />
          <path
             id="path25714"
             d="M 107.38319,223.43312 C 120.22606,216.64737 120.94624,229.02628 129.66977,217.41866"
             style="fill:none;fill-opacity:0.75000000;fill-rule:evenodd;stroke:#000000;stroke-width:2.0999999;stroke-linecap:butt;stroke-linejoin:miter;stroke-miterlimit:4.0000000;stroke-opacity:1.0000000" />
        </g>
        <g
           transform="matrix(0.999913,0.000000,0.000000,1.000074,52.34424,-303.1604)"
           id="g35950">
          <path
             id="path34295"
             d="M 217.25391,469.71935 C 219.18176,465.31283 246.28981,453.70372 249.59470,436.00153 C 249.59470,418.29934 245.95013,391.74606 254.28057,382.37431 C 262.61102,373.00256 316.75889,349.05254 320.40345,337.59818 C 326.74347,348.03079 318.49904,352.75017 319.17723,354.56464 C 330.85282,360.47616 351.47728,343.27956 354.58556,336.00606 C 359.41891,348.46318 357.60387,357.65392 352.39735,365.46371 C 347.19082,373.27350 273.54472,406.84498 273.54472,406.84498 L 263.13167,457.86894 L 211.58706,491.71136 L 217.25391,469.71935 z "
             style="fill:#000000;fill-opacity:1.0000000;fill-rule:evenodd;stroke:#000000;stroke-width:2.1032116;stroke-linecap:butt;stroke-linejoin:miter;stroke-miterlimit:4.0000000;stroke-opacity:1.0000000" />
          <path
             id="path35190"
             d="M 220.61311,466.99160 C 220.61311,466.99160 251.36683,451.76191 251.36683,434.92842 C 251.36683,418.09494 247.90111,392.84471 255.82275,383.93287 C 263.74439,375.02102 315.23505,352.24631 318.70076,341.35405 C 324.72965,351.27470 315.58034,354.97681 316.22525,356.70223 C 327.32788,362.32366 351.39240,347.28041 354.34815,340.36385 C 358.94431,352.20966 354.07563,360.42559 349.12461,367.85213 C 344.17358,375.27866 274.14154,407.20268 274.14154,407.20268 L 264.23949,455.99814 L 215.22435,487.90439 L 220.61311,466.99160 z "
             style="fill:#c80000;fill-opacity:1.0000000;fill-rule:evenodd;stroke:#000000;stroke-width:2.0000000;stroke-linecap:butt;stroke-linejoin:miter;stroke-miterlimit:4.0000000;stroke-opacity:1.0000000" />
        </g>
        <g
           transform="matrix(0.999913,0.000000,0.000000,1.000074,133.4312,-614.8319)"
           id="g34272">
          <path
             id="path16778"
             d="M 108.79694,831.27458 C 109.73683,841.74102 144.07000,866.67156 148.73904,863.40323 C 153.40808,860.13490 145.00626,848.25678 148.27458,851.99201 C 151.54290,855.72724 176.13296,853.95154 178.06147,851.41362 C 179.98997,848.87568 207.68121,845.16512 206.25552,839.93759 C 203.40414,833.75960 230.32737,834.18324 227.99284,828.58040 C 225.65832,822.97756 217.64532,821.12654 221.92239,822.55223 C 211.46733,822.07700 244.53005,810.94447 245.13063,804.21794 C 245.73122,797.49140 230.53512,803.70065 234.80124,795.25983 C 240.48734,792.04978 259.53185,794.29696 270.93737,767.68408 C 267.13553,765.30793 263.81947,766.96492 260.80830,767.10894 C 283.63600,761.49776 302.36556,746.74998 295.77895,737.82052 C 287.76666,738.39567 279.25005,740.30329 279.25005,740.30329 C 279.25005,740.30329 301.22049,729.12161 301.25705,719.22524 C 285.97307,717.98455 278.16762,717.56301 278.60040,716.52433 C 288.55443,715.39909 314.95470,687.00280 313.38997,676.16999 C 301.46794,677.37314 294.31082,684.17590 281.17013,685.43371 C 279.36839,682.19056 315.46700,660.09272 319.69182,642.98209 C 313.35670,638.42219 259.04803,669.15352 253.44520,668.21971 C 247.84235,667.28591 190.09391,684.34823 185.55441,685.83318 C 181.09110,687.29322 176.31872,687.30294 175.53086,701.36649 C 174.74235,715.44142 176.89468,740.85323 173.04864,747.38988 C 148.91965,788.39909 99.759121,771.30446 93.807323,802.73389 C 92.970063,828.01381 112.51121,805.51660 108.79694,831.27458 z "
             style="fill:#000000;fill-opacity:1.0000000;fill-rule:evenodd;stroke:none;stroke-width:1.0000000px;stroke-linecap:butt;stroke-linejoin:miter;stroke-opacity:1.0000000" />
          <path
             id="path2880"
             d="M 276.09514,667.31826 C 275.54836,667.59165 187.77511,683.25282 182.12127,695.52978 C 176.38715,707.98104 184.60595,726.00221 176.50694,747.91628 C 168.46355,769.67984 151.56754,774.06048 125.82920,781.82845 C 116.32825,784.69589 109.28391,784.06855 98.529113,798.93082 C 92.051383,824.24815 105.65844,806.06297 115.59388,808.48502 C 123.65612,822.20765 123.13756,803.48600 130.99857,811.34702 C 138.85958,819.20804 135.00163,802.38460 145.10865,804.63061 C 155.21567,806.87661 144.30996,797.44400 162.27801,797.44400 C 180.24605,797.44400 162.27512,784.03991 177.99714,781.79390 C 193.71918,779.54789 181.23106,769.03757 191.33808,764.54555 C 201.44510,760.05354 186.62322,750.43256 196.73024,744.81754 C 206.83725,739.20252 190.36766,736.60853 201.93696,726.36347 C 213.50628,716.11841 195.05486,721.61052 201.14615,712.48042 C 207.66297,702.71251 210.28616,701.89605 204.88401,695.82952 C 199.48186,689.76299 276.09514,667.31826 276.09514,667.31826 z "
             style="fill:#c80000;fill-opacity:1.0000000;fill-rule:evenodd;stroke:none;stroke-width:2.0000000;stroke-linecap:butt;stroke-linejoin:miter;stroke-miterlimit:4.0000000;stroke-opacity:1.0000000" />
          <path
             id="path31216"
             d="M 189.08783,804.91174 C 188.71576,809.67927 190.60473,812.38120 195.99900,813.79846 C 208.58099,817.10419 228.47181,819.37392 240.28266,803.62917 C 229.77247,802.20420 219.62602,787.35862 202.69341,791.74426 C 198.58309,791.51537 195.25663,795.33315 193.67318,799.91469 C 197.33687,800.47489 200.93660,801.00408 204.90407,801.66505 C 229.08199,805.69300 219.95760,810.69379 195.77970,806.66584 C 191.74231,805.99322 192.79262,805.58078 189.08783,804.91174 z "
             style="fill:#c80000;fill-opacity:1.0000000;fill-rule:evenodd;stroke:none;stroke-width:2.0000000;stroke-linecap:butt;stroke-linejoin:miter;stroke-miterlimit:4.0000000;stroke-opacity:1.0000000" />
          <path
             id="path31214"
             d="M 206.62943,786.10366 C 207.68812,790.76703 210.29346,792.78713 215.86536,792.54072 C 228.86166,791.96598 260.78810,790.72497 263.09786,769.07568 C 252.63796,770.83207 230.58739,760.28296 215.71744,769.49335 C 211.72418,770.49385 209.67972,775.12645 209.52637,779.97148 C 213.19136,779.41985 216.78607,778.85758 220.77106,778.31208 C 245.05573,774.98780 241.63118,775.05736 241.79497,776.25393 C 241.72530,778.38430 237.82510,782.46980 213.54045,785.79408 C 209.48523,786.34918 210.36595,785.64379 206.62943,786.10366 z "
             style="fill:#c80000;fill-opacity:1.0000000;fill-rule:evenodd;stroke:none;stroke-width:2.0000000;stroke-linecap:butt;stroke-linejoin:miter;stroke-miterlimit:4.0000000;stroke-opacity:1.0000000" />
          <path
             id="path31212"
             d="M 220.70270,762.95096 C 221.76139,767.61433 224.36673,769.63443 229.93863,769.38802 C 242.93494,768.81328 294.61528,757.67229 293.66179,740.85512 C 283.20188,742.61151 247.55659,745.41580 229.79071,746.34065 C 225.79745,747.34115 223.75299,751.97375 223.59964,756.81878 C 227.26463,756.26715 230.85934,755.70488 234.84433,755.15938 C 259.12900,751.83510 258.03728,751.66333 258.20107,752.85990 C 258.13140,754.99027 251.89837,759.31710 227.61372,762.64138 C 223.55850,763.19648 224.43922,762.49109 220.70270,762.95096 z "
             style="fill:#c80000;fill-opacity:1.0000000;fill-rule:evenodd;stroke:none;stroke-width:2.0000000;stroke-linecap:butt;stroke-linejoin:miter;stroke-miterlimit:4.0000000;stroke-opacity:1.0000000" />
          <path
             id="path16726"
             d="M 223.58542,742.87040 C 224.64411,747.53377 227.24945,749.55387 232.82135,749.30746 C 245.81766,748.73272 297.49800,737.59173 296.54451,720.77456 C 286.08460,722.53095 247.54339,717.04970 232.67343,726.26009 C 228.68017,727.26059 226.63571,731.89319 226.48236,736.73822 C 230.14735,736.18659 233.74206,735.62432 237.72705,735.07882 C 262.01172,731.75454 275.07782,726.75624 275.24161,727.95281 C 275.17194,730.08318 254.78109,739.23654 230.49644,742.56082 C 226.44122,743.11592 227.32194,742.41053 223.58542,742.87040 z "
             style="fill:#c80000;fill-opacity:1.0000000;fill-rule:evenodd;stroke:none;stroke-width:2.0000000;stroke-linecap:butt;stroke-linejoin:miter;stroke-miterlimit:4.0000000;stroke-opacity:1.0000000" />
          <path
             id="path16732"
             d="M 225.44443,713.39478 C 230.03282,717.98342 233.96093,722.97842 238.67511,722.45870 C 279.88119,727.86792 313.84733,681.47428 310.69238,678.02673 C 289.53498,689.06324 245.70830,694.96792 236.91588,698.97925 C 234.18326,700.17165 236.01445,704.88255 239.67777,709.71168 C 242.47321,708.98217 245.19838,708.24552 248.28043,707.50634 C 267.06261,703.00174 288.98293,695.14836 290.06524,696.33107 C 291.14755,697.51377 270.99144,707.29495 252.20927,711.79954 C 249.07290,712.55174 228.37479,712.75307 225.44443,713.39478 z "
             style="fill:#c80000;fill-opacity:1.0000000;fill-rule:evenodd;stroke:none;stroke-width:2.0000000;stroke-linecap:butt;stroke-linejoin:miter;stroke-miterlimit:4.0000000;stroke-opacity:1.0000000" />
          <path
             id="path18310"
             d="M 173.41795,794.31048 C 175.29029,791.58475 177.22956,789.39189 178.06503,789.79508 C 180.01373,790.73551 183.26391,802.67317 181.91569,804.72637 C 180.56736,806.77975 169.99498,805.88684 169.06922,803.27293 C 168.77021,802.49378 170.11611,799.64344 171.85332,796.75380 C 172.26113,797.25078 172.65341,797.75082 173.11656,798.25890 C 175.93917,801.35503 178.60952,803.28670 179.07204,802.58234 C 179.53454,801.87798 177.61808,798.79823 174.79548,795.70210 C 174.32414,795.18508 173.87103,794.75613 173.41795,794.31048 z "
             style="fill:#c80000;fill-opacity:1.0000000;fill-rule:evenodd;stroke:none;stroke-width:1.0000000px;stroke-linecap:butt;stroke-linejoin:miter;stroke-opacity:1.0000000" />
          <path
             id="path18312"
             d="M 186.70094,779.16213 C 188.22832,775.46800 189.83964,774.47062 190.77829,774.93829 C 192.96758,776.02916 204.21710,787.21761 203.13166,789.99586 C 202.04607,792.77436 184.95521,794.53070 183.57111,791.18077 C 183.13442,790.18385 184.09092,786.36419 185.45083,782.46545 C 185.95667,783.08596 186.44669,783.71158 187.01221,784.34268 C 190.45859,788.18842 198.90478,787.65366 199.27714,786.70057 C 199.64951,785.74746 191.81033,784.72875 188.36394,780.88299 C 187.78843,780.24079 187.24601,779.71237 186.70094,779.16213 z "
             style="fill:#c80000;fill-opacity:1.0000000;fill-rule:evenodd;stroke:none;stroke-width:1.0000000px;stroke-linecap:butt;stroke-linejoin:miter;stroke-opacity:1.0000000" />
          <path
             id="path16734"
             d="M 245.02978,687.21206 C 250.17968,691.16017 249.28337,700.30084 253.88887,699.16812 C 264.63108,696.52606 317.75756,649.82546 314.17822,646.82086 C 310.59844,643.81597 289.39371,658.61385 216.27475,686.79576 C 213.72185,688.33582 236.59035,686.10709 239.54903,684.97058 C 257.57936,678.04463 273.83920,671.93486 275.06711,672.96561 C 276.29500,673.99636 247.85084,686.19205 245.02978,687.21206 z "
             style="fill:#c80000;fill-opacity:1.0000000;fill-rule:evenodd;stroke:none;stroke-width:2.0000000;stroke-linecap:butt;stroke-linejoin:miter;stroke-miterlimit:4.0000000;stroke-opacity:1.0000000" />
          <path
             id="path31218"
             d="M 172.14453,816.77105 C 170.59851,821.29627 171.75618,824.38308 176.62851,827.09732 C 187.99310,833.42824 206.69454,840.57334 222.04991,828.26052 C 212.22431,824.26652 206.08861,807.36400 188.59731,807.40086 C 184.67304,806.15695 180.50164,809.02752 177.82855,813.07133 C 181.23782,814.52506 184.59284,815.93285 188.27129,817.55973 C 210.68788,827.47399 200.60650,830.04851 178.18993,820.13425 C 174.44666,818.47870 175.56654,818.34042 172.14453,816.77105 z "
             style="fill:#c80000;fill-opacity:1.0000000;fill-rule:evenodd;stroke:none;stroke-width:2.0000000;stroke-linecap:butt;stroke-linejoin:miter;stroke-miterlimit:4.0000000;stroke-opacity:1.0000000" />
          <path
             id="path31220"
             d="M 158.29829,823.24569 C 155.92843,827.39920 156.48462,830.64869 160.75922,834.23122 C 170.72963,842.58739 184.92241,851.35478 202.32026,842.15110 C 193.42165,836.37968 193.40609,820.39347 176.22027,817.13857 C 172.60015,815.17850 167.96313,817.21292 164.57691,820.68154 C 167.65176,822.75078 170.68198,824.76470 173.98862,827.05465 C 194.13939,841.00966 183.75366,841.64132 163.60290,827.68631 C 160.23800,825.35601 161.36389,825.43091 158.29829,823.24569 z "
             style="fill:#c80000;fill-opacity:1.0000000;fill-rule:evenodd;stroke:none;stroke-width:2.0000000;stroke-linecap:butt;stroke-linejoin:miter;stroke-miterlimit:4.0000000;stroke-opacity:1.0000000" />
          <path
             id="path31222"
             d="M 136.20266,832.12764 C 134.29256,835.47536 134.74084,838.09443 138.18616,840.98194 C 146.22227,847.71699 157.66160,854.78347 171.68421,847.36534 C 164.51197,842.71359 164.49942,829.82876 150.64771,827.20532 C 147.72990,825.62552 143.99248,827.26525 141.26320,830.06095 C 143.74152,831.72875 146.18387,833.35196 148.84901,835.19765 C 165.09046,846.44534 156.71960,846.95446 140.47816,835.70677 C 137.76605,833.82855 138.67352,833.88892 136.20266,832.12764 z "
             style="fill:#c80000;fill-opacity:1.0000000;fill-rule:evenodd;stroke:none;stroke-width:1.6119931;stroke-linecap:butt;stroke-linejoin:miter;stroke-miterlimit:4.0000000;stroke-opacity:1.0000000" />
          <path
             id="path31224"
             d="M 119.17610,835.03238 C 116.83736,837.47121 116.65948,839.79388 118.97267,842.98454 C 124.36810,850.42666 132.58652,858.87703 146.09331,855.56264 C 140.98773,850.07633 143.72740,839.11775 132.50935,833.93033 C 130.36557,831.96421 126.83765,832.56070 123.92020,834.35528 C 125.67150,836.30242 127.40173,838.20396 129.27391,840.34222 C 140.68306,853.37290 133.45668,852.01899 122.04755,838.98832 C 120.14238,836.81237 120.90111,837.05740 119.17610,835.03238 z "
             style="fill:#c80000;fill-opacity:1.0000000;fill-rule:evenodd;stroke:none;stroke-width:1.4131988;stroke-linecap:butt;stroke-linejoin:miter;stroke-miterlimit:4.0000000;stroke-opacity:1.0000000" />
          <path
             id="path31984"
             d="M 195.61331,762.37308 C 196.11482,758.40723 197.40692,757.02100 198.43554,757.22520 C 200.83473,757.70156 214.63186,765.53562 214.31571,768.50158 C 213.99949,771.46782 197.97306,777.65941 195.75626,774.79174 C 195.07264,773.94485 194.99036,770.00811 195.27647,765.88893 C 195.92776,766.35447 196.56513,766.82910 197.27678,767.28916 C 201.61365,770.09252 209.62148,767.35414 209.72992,766.33666 C 209.83838,765.31916 202.00740,766.39908 197.67052,763.59570 C 196.94631,763.12757 196.28396,762.76050 195.61331,762.37308 z "
             style="fill:#c80000;fill-opacity:1.0000000;fill-rule:evenodd;stroke:none;stroke-width:1.0000000px;stroke-linecap:butt;stroke-linejoin:miter;stroke-opacity:1.0000000" />
          <path
             id="path31986"
             d="M 201.22311,743.90765 C 201.64967,739.92597 203.14147,738.49293 204.38724,738.65896 C 207.29290,739.04629 224.22924,746.36492 223.98107,749.34054 C 223.73282,752.31644 204.74009,759.09630 201.94734,756.31254 C 201.08778,755.49151 200.81375,751.56050 200.97451,747.43356 C 201.77825,747.87470 202.56565,748.32545 203.44172,748.75887 C 208.78050,751.39999 218.28630,748.36743 218.37142,747.34664 C 218.45656,746.32582 209.08962,747.69452 203.75082,745.05339 C 202.85930,744.61235 202.04664,744.27002 201.22311,743.90765 z "
             style="fill:#c80000;fill-opacity:1.0000000;fill-rule:evenodd;stroke:none;stroke-width:1.0000000px;stroke-linecap:butt;stroke-linejoin:miter;stroke-opacity:1.0000000" />
          <path
             id="path31988"
             d="M 208.65915,719.57328 C 209.08571,715.59160 210.57751,714.15856 211.82327,714.32459 C 214.72894,714.71192 231.66528,722.03055 231.41711,725.00617 C 231.16886,727.98207 212.17613,734.76193 209.38338,731.97817 C 208.52381,731.15714 208.24979,727.22613 208.41055,723.09919 C 209.21429,723.54033 210.00169,723.99108 210.87776,724.42450 C 216.21654,727.06562 225.72234,724.03306 225.80746,723.01227 C 225.89260,721.99145 216.52566,723.36015 211.18686,720.71902 C 210.29534,720.27798 209.48268,719.93565 208.65915,719.57328 z "
             style="fill:#c80000;fill-opacity:1.0000000;fill-rule:evenodd;stroke:none;stroke-width:1.0000000px;stroke-linecap:butt;stroke-linejoin:miter;stroke-opacity:1.0000000" />
          <path
             id="path31990"
             d="M 210.14629,699.39744 C 209.48346,695.44821 210.53362,693.66601 211.77801,693.48999 C 214.68050,693.07951 232.96291,695.56051 233.52625,698.49284 C 234.08960,701.42546 217.62836,713.07526 214.18845,711.14762 C 213.13935,710.58876 211.81555,706.87723 210.85760,702.85979 C 211.75051,703.06788 212.63029,703.28962 213.59077,703.47078 C 219.44395,704.57457 227.78001,699.09126 227.58674,698.08533 C 227.39349,697.07936 218.74251,700.92299 212.88931,699.81919 C 211.91189,699.63487 211.03703,699.52434 210.14629,699.39744 z "
             style="fill:#c80000;fill-opacity:1.0000000;fill-rule:evenodd;stroke:none;stroke-width:1.0000000px;stroke-linecap:butt;stroke-linejoin:miter;stroke-opacity:1.0000000" />
          <path
             id="path32750"
             d="M 157.81820,803.68675 C 160.65797,801.13900 163.42805,799.20691 164.25534,799.88592 C 166.18494,801.46971 166.58687,815.73800 164.51746,817.67402 C 162.44787,819.61022 150.83577,815.73740 150.50771,812.55501 C 150.38406,811.60015 152.66739,808.76968 155.40016,806.00143 C 155.72245,806.66945 156.02649,807.33669 156.40781,808.03219 C 158.73180,812.27049 161.20135,815.16174 161.91127,814.49758 C 162.62118,813.83341 161.30879,809.85961 158.98482,805.62131 C 158.59674,804.91356 158.20519,804.30951 157.81820,803.68675 z "
             style="fill:#c80000;fill-opacity:1.0000000;fill-rule:evenodd;stroke:none;stroke-width:1.0000000px;stroke-linecap:butt;stroke-linejoin:miter;stroke-opacity:1.0000000" />
          <path
             id="path32752"
             d="M 140.53517,812.67474 C 143.84607,811.47244 146.88490,810.77335 147.35916,811.64025 C 148.46535,813.66226 143.88753,826.02044 141.44740,826.96461 C 139.00706,827.90886 130.39830,820.58638 131.21516,817.74777 C 131.43865,816.88736 134.37053,815.25098 137.66586,813.82293 C 137.71143,814.50621 137.74164,815.18252 137.82828,815.90969 C 138.35651,820.34112 139.47409,823.66913 140.31119,823.34522 C 141.14828,823.02132 141.39515,819.16538 140.86693,814.73396 C 140.77872,813.99396 140.65177,813.34158 140.53517,812.67474 z "
             style="fill:#c80000;fill-opacity:1.0000000;fill-rule:evenodd;stroke:none;stroke-width:1.0000000px;stroke-linecap:butt;stroke-linejoin:miter;stroke-opacity:1.0000000" />
          <path
             id="path32754"
             d="M 121.19743,817.06721 C 124.64363,816.33834 127.75026,816.06983 128.09900,816.99439 C 128.91243,819.15090 122.65604,830.74999 120.10810,831.34467 C 117.55992,831.93940 110.05636,823.48801 111.26106,820.79104 C 111.60235,819.97021 114.73378,818.75865 118.19604,817.80406 C 118.14588,818.48702 118.08149,819.16093 118.06589,819.89309 C 117.97102,824.35488 118.61360,827.80621 119.48769,827.60220 C 120.36177,827.39819 121.14391,823.61435 121.23880,819.15257 C 121.25464,818.40750 121.21990,817.74379 121.19743,817.06721 z "
             style="fill:#c80000;fill-opacity:1.0000000;fill-rule:evenodd;stroke:none;stroke-width:1.0000000px;stroke-linecap:butt;stroke-linejoin:miter;stroke-opacity:1.0000000" />
        </g>
        <path
           style="fill:none;fill-opacity:0.75000000;fill-rule:evenodd;stroke:#000000;stroke-width:0.91563094px;stroke-linecap:butt;stroke-linejoin:miter;stroke-opacity:1.0000000"
           d="M 167.06831,440.25815 L 167.06831,440.25815 z "
           id="path1713" />
        <path
           id="path1719"
           d="M 244.97083,419.28738 C 244.97083,419.28738 227.59200,428.96631 218.42472,427.18076 C 191.95327,414.82209 182.87572,429.20956 200.48106,437.79638 C 175.82829,425.14567 172.21526,468.64045 198.44658,453.60114 C 186.61032,478.16970 224.06540,485.84772 224.86003,462.73431 C 242.20775,456.95929 234.65579,449.34414 243.87231,447.31004 C 245.04767,460.17615 254.77900,466.20813 263.97354,460.01002 C 273.27923,453.73699 269.26084,442.11388 260.34623,438.70958 L 262.11795,429.44109 L 251.85631,428.99848 L 251.22136,421.73587 L 244.97083,419.28738 z "
           style="fill:#c80000;fill-opacity:1.0000000;fill-rule:evenodd;stroke:#000000;stroke-width:2.4447436px;stroke-linecap:butt;stroke-linejoin:miter;stroke-opacity:1.0000000" />
        <path
           id="path1721"
           d="M 210.00889,460.55029 C 207.04706,458.39305 202.95603,458.91712 200.90966,461.72767 C 200.34125,462.50831 191.80834,477.30444 195.42255,483.69553 C 195.44603,483.66972 201.64744,469.61478 211.62383,469.53146 C 213.67020,466.72099 212.97075,462.70771 210.00889,460.55029 z "
           style="fill:#c80000;fill-opacity:1.0000000;fill-rule:nonzero;stroke:#000000;stroke-width:2.2682712;stroke-miterlimit:4.0000000;stroke-dashoffset:0.00000000;stroke-opacity:1.0000000" />
        <path
           id="path1725"
           d="M 350.56743,442.57480 C 349.50447,442.38151 340.80746,444.79773 340.03440,442.76811 C 339.26134,437.06582 325.92595,434.06970 323.70338,441.99491 C 321.48083,449.92012 329.30811,454.84920 335.29938,451.56315 C 341.29064,448.27709 348.82804,446.53741 350.56743,442.57480 z "
           style="fill:#c80000;fill-opacity:1.0000000;fill-rule:evenodd;stroke:#000000;stroke-width:1.9999870;stroke-linecap:butt;stroke-linejoin:miter;stroke-miterlimit:4.0000000;stroke-opacity:1.0000000" />
        <path
           id="path1727"
           d="M 199.31424,428.67073 C 198.42077,425.77274 195.44997,424.09181 192.70098,424.93967 C 191.93741,425.17518 178.94960,430.74968 178.17700,436.77673 C 178.20539,436.77131 189.28082,430.53210 195.93314,435.42293 C 198.68211,434.57509 200.20777,431.56880 199.31424,428.67073 z "
           style="fill:#c80000;fill-opacity:1.0000000;fill-rule:nonzero;stroke:#000000;stroke-width:1.8771293;stroke-miterlimit:4.0000000;stroke-dashoffset:0.00000000;stroke-opacity:1.0000000" />
        <path
           id="path1729"
           d="M 189.55247,440.62800 C 188.79348,437.63414 186.30535,436.59672 184.01365,438.33057 C 183.37708,438.81222 172.55673,448.76262 171.93839,455.73882 C 171.96208,455.72465 181.18256,445.57417 186.75915,449.16038 C 189.05085,447.42653 190.31143,443.62179 189.55247,440.62800 z "
           style="fill:#c80000;fill-opacity:1.0000000;fill-rule:nonzero;stroke:#000000;stroke-width:1.8173007;stroke-miterlimit:4.0000000;stroke-dashoffset:0.00000000;stroke-opacity:1.0000000" />
        <path
           id="path1731"
           d="M 268.20617,452.14378 C 271.25378,454.65557 271.80675,459.06708 269.42409,461.95895 C 268.76225,462.76219 255.61592,475.64794 247.97464,473.59346 C 247.99523,473.56200 260.99498,463.30948 258.39965,452.87282 C 260.78227,449.98097 265.15853,449.63200 268.20617,452.14378 z "
           style="fill:#c80000;fill-opacity:1.0000000;fill-rule:nonzero;stroke:#000000;stroke-width:2.4447436;stroke-miterlimit:4.0000000;stroke-dashoffset:0.00000000;stroke-opacity:1.0000000" />
        <path
           id="path1733"
           d="M 198.51468,453.49971 C 199.32510,452.68916 208.07763,447.33955 214.23681,449.77119 C 216.18181,450.90596 229.63476,440.69303 229.63476,440.69303"
           style="fill:#c80000;fill-opacity:1.0000000;fill-rule:evenodd;stroke:#000000;stroke-width:1.9999870;stroke-linecap:butt;stroke-linejoin:miter;stroke-miterlimit:4.0000000;stroke-opacity:1.0000000" />
        <path
           id="path1735"
           d="M 199.73031,437.85612 C 208.48283,440.93621 226.14995,435.74869 226.14995,431.53384"
           style="fill:#c80000;fill-opacity:1.0000000;fill-rule:evenodd;stroke:#000000;stroke-width:1.9999870;stroke-linecap:butt;stroke-linejoin:miter;stroke-miterlimit:4.0000000;stroke-opacity:1.0000000" />
        <path
           id="path1487"
           d="M 163.30213,298.69227 C 163.30213,298.69227 156.92999,301.17936 160.03834,305.68720"
           style="fill:none;fill-opacity:0.75000000;fill-rule:evenodd;stroke:#000000;stroke-width:0.91563106px;stroke-linecap:butt;stroke-linejoin:miter;stroke-opacity:1.0000000" />
        <path
           id="path1489"
           d="M 158.36748,299.39176 C 158.36748,299.39176 154.32660,301.25708 154.94826,304.21049"
           style="fill:none;fill-opacity:0.75000000;fill-rule:evenodd;stroke:#000000;stroke-width:0.91563106px;stroke-linecap:butt;stroke-linejoin:miter;stroke-opacity:1.0000000" />
        <path
           id="path1499"
           d="M 107.49476,268.73670 C 107.49476,268.73670 113.94129,278.04986 110.12114,282.34823"
           style="fill:none;fill-opacity:0.75000000;fill-rule:evenodd;stroke:#000000;stroke-width:0.91563106px;stroke-linecap:butt;stroke-linejoin:miter;stroke-opacity:1.0000000" />
        <path
           id="path1501"
           d="M 113.93322,275.41452 C 113.93322,275.41452 120.37975,282.12516 116.55959,285.22236"
           style="fill:none;fill-opacity:0.75000000;fill-rule:evenodd;stroke:#000000;stroke-width:0.77723753px;stroke-linecap:butt;stroke-linejoin:miter;stroke-opacity:1.0000000" />
        <path
           id="path1503"
           d="M 103.62161,296.67151 C 104.70953,297.13784 106.88538,301.17937 106.10829,303.82189"
           style="fill:none;fill-opacity:0.75000000;fill-rule:evenodd;stroke:#000000;stroke-width:0.91563106px;stroke-linecap:butt;stroke-linejoin:miter;stroke-opacity:1.0000000" />
        <path
           id="path1505"
           d="M 106.71361,296.90467 C 107.80153,297.37101 110.90990,298.92544 110.59905,301.87886"
           style="fill:none;fill-opacity:0.75000000;fill-rule:evenodd;stroke:#000000;stroke-width:0.91563106px;stroke-linecap:butt;stroke-linejoin:miter;stroke-opacity:1.0000000" />
        <path
           id="path2624"
           d="M 130.43567,26.729370 C 130.43567,26.729370 136.90825,33.505760 135.45270,34.205990 C 133.99714,34.906200 132.50655,39.517500 133.86610,41.830500 C 134.55150,47.496670 144.31012,49.539820 145.73975,44.030640 C 145.77477,40.119550 144.65508,29.623110 140.75213,28.133280 C 136.74006,26.601790 130.43567,26.729370 130.43567,26.729370 z "
           style="fill:#c80000;fill-opacity:1.0000000;fill-rule:evenodd;stroke:#000000;stroke-width:1.8312632;stroke-linecap:butt;stroke-linejoin:miter;stroke-miterlimit:4.0000000;stroke-opacity:1.0000000" />
        <path
           id="path2626"
           d="M 91.650625,31.051530 C 91.650625,31.051530 100.97643,31.962040 100.33033,33.442590 C 99.684215,34.923160 101.56331,39.390200 104.10260,40.255570 C 108.31878,44.101800 117.04643,39.281060 114.53533,34.173430 C 112.01014,31.186920 104.31340,23.964000 100.38392,25.382310 C 96.344565,26.840320 91.650625,31.051530 91.650625,31.051530 z "
           style="fill:#c80000;fill-opacity:1.0000000;fill-rule:evenodd;stroke:#000000;stroke-width:1.8312632;stroke-linecap:butt;stroke-linejoin:miter;stroke-miterlimit:4.0000000;stroke-opacity:1.0000000" />
        <path
           id="path2628"
           d="M 71.738405,53.312350 C 71.738405,53.312350 81.064205,54.222860 80.418115,55.703410 C 79.772005,57.183970 81.651085,61.651020 84.190375,62.516390 C 88.406555,66.362620 97.134205,61.541880 94.623105,56.434250 C 92.097915,53.447740 84.401175,46.224810 80.471695,47.643130 C 76.432355,49.101140 71.738405,53.312350 71.738405,53.312350 z "
           style="fill:#c80000;fill-opacity:1.0000000;fill-rule:evenodd;stroke:#000000;stroke-width:1.8312632;stroke-linecap:butt;stroke-linejoin:miter;stroke-miterlimit:4.0000000;stroke-opacity:1.0000000" />
        <path
           id="path2630"
           d="M 94.392735,130.15731 C 94.392735,130.15731 103.50981,127.99400 102.66948,126.61441 C 101.82916,125.23482 103.08709,120.55469 105.48607,119.35386 C 109.14356,114.97279 118.44277,118.56899 116.64524,123.96930 C 114.54698,127.26986 107.89739,135.46733 103.81225,134.59342 C 99.612885,133.69507 94.392735,130.15731 94.392735,130.15731 z "
           style="fill:#c80000;fill-opacity:1.0000000;fill-rule:evenodd;stroke:#000000;stroke-width:1.8312632;stroke-linecap:butt;stroke-linejoin:miter;stroke-miterlimit:4.0000000;stroke-opacity:1.0000000" />
        <path
           id="path2634"
           d="M 118.42851,110.85689 C 118.42851,110.85689 115.51575,104.66690 111.22962,108.07406"
           style="fill:none;fill-opacity:0.75000000;fill-rule:evenodd;stroke:#000000;stroke-width:0.91563147px;stroke-linecap:butt;stroke-linejoin:miter;stroke-opacity:1.0000000" />
        <path
           id="path2636"
           d="M 117.39636,105.98019 C 117.39636,105.98019 115.26182,102.07434 112.35778,102.89480"
           style="fill:none;fill-opacity:0.75000000;fill-rule:evenodd;stroke:#000000;stroke-width:0.91563147px;stroke-linecap:butt;stroke-linejoin:miter;stroke-opacity:1.0000000" />
        <path
           id="path2644"
           d="M 144.52884,53.138980 C 144.52884,53.138980 135.67540,60.202800 131.12875,56.682070"
           style="fill:none;fill-opacity:0.75000000;fill-rule:evenodd;stroke:#000000;stroke-width:0.91563147px;stroke-linecap:butt;stroke-linejoin:miter;stroke-opacity:1.0000000" />
        <path
           id="path2646"
           d="M 138.30371,60.016180 C 138.30371,60.016180 132.04640,66.903650 128.69796,63.301530"
           style="fill:none;fill-opacity:0.75000000;fill-rule:evenodd;stroke:#000000;stroke-width:0.77723789px;stroke-linecap:butt;stroke-linejoin:miter;stroke-opacity:1.0000000" />
        <path
           id="path2648"
           d="M 116.40026,51.167010 C 116.00879,52.284190 112.12464,54.729250 109.43596,54.132900"
           style="fill:none;fill-opacity:0.75000000;fill-rule:evenodd;stroke:#000000;stroke-width:0.91563147px;stroke-linecap:butt;stroke-linejoin:miter;stroke-opacity:1.0000000" />
        <path
           id="path2650"
           d="M 116.37719,54.268200 C 115.98571,55.385390 114.64573,58.592450 111.67851,58.482390"
           style="fill:none;fill-opacity:0.75000000;fill-rule:evenodd;stroke:#000000;stroke-width:0.91563147px;stroke-linecap:butt;stroke-linejoin:miter;stroke-opacity:1.0000000" />
        <path
           id="path1637"
           d="M 331.32252,442.51509 C 330.35898,438.93542 327.12986,436.85020 324.13416,437.88664 C 323.30204,438.17449 309.14377,445.00734 308.28345,452.44273 C 308.31430,452.43607 320.39262,444.77608 327.61983,450.83599 C 330.61550,449.79959 332.28611,446.09494 331.32252,442.51509 z "
           style="fill:#c80000;fill-opacity:1.0000000;fill-rule:nonzero;stroke:#000000;stroke-width:2.1759143;stroke-miterlimit:4.0000000;stroke-dashoffset:0.00000000;stroke-opacity:1.0000000" />
        <path
           id="path1641"
           d="M 330.90370,466.32077 C 327.86900,467.28209 326.10674,470.48503 326.99215,473.45088 C 327.23802,474.27472 333.06332,488.28844 339.37253,489.12694 C 339.36684,489.09636 332.84405,477.14474 337.96991,469.97350 C 337.08458,467.00765 333.93847,465.35949 330.90370,466.32077 z "
           style="fill:#c80000;fill-opacity:1.0000000;fill-rule:nonzero;stroke:#000000;stroke-width:1.9947398;stroke-miterlimit:4.0000000;stroke-dashoffset:0.00000000;stroke-opacity:1.0000000" />
        <path
           id="path1639"
           d="M 350.63379,476.20033 C 348.00533,477.77620 347.03008,481.17040 348.47347,483.75369 C 348.87435,484.47117 357.22482,496.31186 363.28073,495.69475 C 363.26906,495.66735 354.69815,485.91480 357.98181,478.05285 C 356.53847,475.46963 353.26235,474.62438 350.63379,476.20033 z "
           style="fill:#c80000;fill-opacity:1.0000000;fill-rule:nonzero;stroke:#000000;stroke-width:1.9134067;stroke-miterlimit:4.0000000;stroke-dashoffset:0.00000000;stroke-opacity:1.0000000" />
        <path
           id="path1635"
           d="M 399.72172,455.92240 C 403.16161,456.10576 405.82603,458.75731 405.64110,461.82778 C 405.58975,462.68065 402.98588,477.59009 396.54970,479.93893 C 396.54797,479.90815 400.40679,466.81272 393.19766,461.16442 C 393.38259,458.09395 396.28179,455.73896 399.72172,455.92240 z "
           style="fill:#c80000;fill-opacity:1.0000000;fill-rule:nonzero;stroke:#000000;stroke-width:2.0687313;stroke-miterlimit:4.0000000;stroke-dashoffset:0.00000000;stroke-opacity:1.0000000" />
        <path
           id="path8254"
           d="M 344.82686,468.98775 C 345.63728,468.17720 347.82026,459.67369 356.60726,461.05403 C 358.55226,462.18880 365.96122,453.55283 371.47964,454.07847"
           style="fill:#c80000;fill-opacity:1.0000000;fill-rule:evenodd;stroke:#000000;stroke-width:1.9999870;stroke-linecap:butt;stroke-linejoin:miter;stroke-miterlimit:4.0000000;stroke-opacity:1.0000000" />
        <path
           id="path8256"
           d="M 350.06770,461.86270 C 355.14127,461.26325 363.34823,455.02442 363.34823,450.80957"
           style="fill:#c80000;fill-opacity:1.0000000;fill-rule:evenodd;stroke:#000000;stroke-width:1.9999870;stroke-linecap:butt;stroke-linejoin:miter;stroke-miterlimit:4.0000000;stroke-opacity:1.0000000" />
      </g>
    </g>
  </g>
</svg>