<!-- Creator: CorelDRAW -->
<svg
   xmlns="http://www.w3.org/2000/svg"
   style="shape-rendering:geometricPrecision; text-rendering:geometricPrecision; image-rendering:optimizeQuality; fill-rule:evenodd; clip-rule:evenodd"
   viewBox="0 0 210 297"
   id="svg2"
   version="1.0"><title>Herb Lubaczów</title><metadata
   id="metadata14"><rdf:RDF><cc:Work
       rdf:about=""><dc:format>image/svg+xml</dc:format><dc:type
         rdf:resource="http://purl.org/dc/dcmitype/StillImage" /></cc:Work></rdf:RDF></metadata><sodipodi:namedview
   guidetolerance="10.0"
   gridtolerance="10.0"
   objecttolerance="10.0"
   borderopacity="1.0"
   bordercolor="#666666"
   pagecolor="#ffffff"
   id="base" />
 <defs
   id="defs4">
  <style
   type="text/css"
   id="style6">
   
    .str1 {stroke:#1F1A17;stroke-width:1.4}
    .str0 {stroke:#171A1C;stroke-width:1.5}
    .fil0 {fill:#D62926}
    .fil1 {fill:#E3AB0D}
   
  </style>
 </defs>
 <g
   id="Warstwa_x0020_1"
   transform="matrix(1.3229709,0,0,1.3229709,-33.298557,-37.041221)">
  <metadata
   id="CorelCorpID_0Corel-Layer" />
  <g
   id="_74162760">
   <path
   id="_73372968"
   class="fil0 str0"
   d="M 199.287,28.7489 C 198.8309,74.9323 200.1888,120.0606 199.027,163.8529 C 197.0369,238.8686 123.3774,251.794 104.428,251.7431 C 58.171,251.6186 9.557,217.3164 9.7259,167.9875 C 9.8398,134.7394 10.2491,105.1576 9.5624,28.7485 L 199.2874,28.7485 L 199.287,28.7489 z "
   style="fill:#d62926;stroke:#171a1c;stroke-width:1.5" />
   <path
   id="_73373088"
   class="fil1 str1"
   d="M 127.326,189.792 C 112.5778,192.205 96.701,190.8467 86.7849,189.9112 C 84.5969,175.9937 83.2337,164.9244 84.1462,137.9725 C 84.3594,131.6809 84.5377,119.715 85.4113,110.7097 C 87.1154,94.7458 89.0536,73.4532 107.0157,53.8917 C 94.0125,57.544 72.1917,59.3847 58.805,55.8429 C 68.638,67.3717 68.8392,94.0333 69.451,109.216 C 70.3007,146.214 69.7065,183.8948 57.4804,204.792 C 79.1958,202.5144 128.5685,194.9534 151.7738,214.0367 C 152.6509,200.115 156.0916,189.1205 162.3224,176.3445 C 150.8688,183.6496 140.7792,187.5909 127.326,189.792 L 127.326,189.792 z "
   style="fill:#e3ab0d;stroke:#1f1a17;stroke-width:1.39999998" />
  </g>
 </g>
</svg>