<!-- Created with Inkscape (http://www.inkscape.org/) -->
<svg role="img" viewBox="0 0 500 580"
   xmlns="http://www.w3.org/2000/svg"
   id="svg2"
   version="1.0"><title>Herb Kobylin</title>
  <metadata
     id="metadata7">
    <rdf:RDF>
      <cc:Work
         rdf:about="">
        <dc:format>image/svg+xml</dc:format>
        <dc:type
           rdf:resource="http://purl.org/dc/dcmitype/StillImage" />
        <dc:title>Ustrzyki_Dolne_COA</dc:title>
        <dc:creator>
          <cc:Agent>
            <dc:title />
          </cc:Agent>
        </dc:creator>
        <cc:license
           rdf:resource="http://web.resource.org/cc/PublicDomain" />
      </cc:Work>
      <cc:License
         rdf:about="http://web.resource.org/cc/PublicDomain">
        <cc:permits
           rdf:resource="http://web.resource.org/cc/Reproduction" />
        <cc:permits
           rdf:resource="http://web.resource.org/cc/Distribution" />
        <cc:permits
           rdf:resource="http://web.resource.org/cc/DerivativeWorks" />
      </cc:License>
    </rdf:RDF>
  </metadata>
  <defs
     id="defs5" />
  <sodipodi:namedview
     borderopacity="1.0"
     bordercolor="#666666"
     pagecolor="#ffffff"
     id="base"
     borderlayer="top"
     showguides="true" />
  <g
     id="layer1"
     style="display:inline" />
  <g
     id="layer5"
     style="display:inline">
    <path
       style="color:#000000;fill:#e50203;fill-opacity:1;fill-rule:evenodd;stroke:none;stroke-width:2.00000215;stroke-linecap:butt;stroke-linejoin:miter;marker:none;marker-start:none;marker-mid:none;marker-end:none;stroke-miterlimit:4;stroke-dasharray:none;stroke-dashoffset:0;stroke-opacity:1;visibility:visible;display:inline;overflow:visible"
       d="M 497.49337,331.31563 C 497.49337,467.95003 386.56421,578.87916 249.92981,578.87916 C 113.29542,578.87916 2.4825082,467.94998 2.3662709,331.31563 L 2.0859656,1.8229512 L 496.68208,2.530058 L 497.49337,331.31563 z "
       id="path10311" />
  </g>
  <g
     id="layer4"
     style="display:inline">
    <g
       id="g7112"
       transform="translate(-6.39e-2,-7.5)" />
  </g>
  <g
     id="layer3"
     style="display:inline">
    <g
       id="g5991">
      <path
         transform="translate(22.62741,-12.72793)"
         d="M 251.73002 423.02231 A 4.2426405 4.2426405 0 1 1  243.24474,423.02231 A 4.2426405 4.2426405 0 1 1  251.73002 423.02231 z"
         id="path5899"
         style="opacity:1;color:#000000;fill:#f9ff26;fill-opacity:1;fill-rule:evenodd;stroke:#000000;stroke-width:1.99999905;stroke-linecap:butt;stroke-linejoin:miter;marker:none;marker-start:none;marker-mid:none;marker-end:none;stroke-miterlimit:4;stroke-dasharray:none;stroke-dashoffset:0;stroke-opacity:1;visibility:visible;display:inline;overflow:visible" />
      <path
         transform="translate(22.62741,8.131708)"
         d="M 251.73002 423.02231 A 4.2426405 4.2426405 0 1 1  243.24474,423.02231 A 4.2426405 4.2426405 0 1 1  251.73002 423.02231 z"
         id="path5901"
         style="opacity:1;color:#000000;fill:#f9ff26;fill-opacity:1;fill-rule:evenodd;stroke:#000000;stroke-width:1.99999905;stroke-linecap:butt;stroke-linejoin:miter;marker:none;marker-start:none;marker-mid:none;marker-end:none;stroke-miterlimit:4;stroke-dasharray:none;stroke-dashoffset:0;stroke-opacity:1;visibility:visible;display:inline;overflow:visible" />
      <path
         transform="translate(22.62741,28.99137)"
         d="M 251.73002 423.02231 A 4.2426405 4.2426405 0 1 1  243.24474,423.02231 A 4.2426405 4.2426405 0 1 1  251.73002 423.02231 z"
         id="path5903"
         style="opacity:1;color:#000000;fill:#f9ff26;fill-opacity:1;fill-rule:evenodd;stroke:#000000;stroke-width:1.99999905;stroke-linecap:butt;stroke-linejoin:miter;marker:none;marker-start:none;marker-mid:none;marker-end:none;stroke-miterlimit:4;stroke-dasharray:none;stroke-dashoffset:0;stroke-opacity:1;visibility:visible;display:inline;overflow:visible" />
      <path
         transform="translate(22.62741,49.85101)"
         d="M 251.73002 423.02231 A 4.2426405 4.2426405 0 1 1  243.24474,423.02231 A 4.2426405 4.2426405 0 1 1  251.73002 423.02231 z"
         id="path5905"
         style="opacity:1;color:#000000;fill:#f9ff26;fill-opacity:1;fill-rule:evenodd;stroke:#000000;stroke-width:1.99999905;stroke-linecap:butt;stroke-linejoin:miter;marker:none;marker-start:none;marker-mid:none;marker-end:none;stroke-miterlimit:4;stroke-dasharray:none;stroke-dashoffset:0;stroke-opacity:1;visibility:visible;display:inline;overflow:visible" />
      <path
         transform="translate(22.62741,70.71066)"
         d="M 251.73002 423.02231 A 4.2426405 4.2426405 0 1 1  243.24474,423.02231 A 4.2426405 4.2426405 0 1 1  251.73002 423.02231 z"
         id="path5907"
         style="opacity:1;color:#000000;fill:#f9ff26;fill-opacity:1;fill-rule:evenodd;stroke:#000000;stroke-width:1.99999905;stroke-linecap:butt;stroke-linejoin:miter;marker:none;marker-start:none;marker-mid:none;marker-end:none;stroke-miterlimit:4;stroke-dasharray:none;stroke-dashoffset:0;stroke-opacity:1;visibility:visible;display:inline;overflow:visible" />
      <g
         id="g4037"
         style="display:inline">
        <path
           style="opacity:1;color:#000000;fill:#f7ffff;fill-opacity:1;fill-rule:evenodd;stroke:none;stroke-width:1.87616622;stroke-linecap:butt;stroke-linejoin:miter;marker:none;marker-start:none;marker-mid:none;marker-end:none;stroke-miterlimit:4;stroke-dasharray:none;stroke-dashoffset:0;stroke-opacity:1;visibility:visible;display:inline;overflow:visible"
           id="path2284"
           d="M 310 190 A 60.25 10 0 1 1  189.5,190 A 60.25 10 0 1 1  310 190 z"
           transform="matrix(1,0,0,1.298864,0,-57.40909)" />
        <path
           style="color:#000000;fill:#f7ffff;fill-opacity:1;fill-rule:evenodd;stroke:#000000;stroke-width:2;stroke-linecap:butt;stroke-linejoin:miter;marker:none;marker-start:none;marker-mid:none;marker-end:none;stroke-miterlimit:4;stroke-dashoffset:0;stroke-opacity:1;visibility:visible;display:inline;overflow:visible"
           d="M 197.94983,192 C 210.2702,179.81596 287.59057,182.08949 300.91094,192 L 300.91094,422 L 197.94983,422 L 197.94983,192 z "
           id="rect2263" />
        <path
           style="opacity:1;color:#000000;fill:#0759d6;fill-opacity:1;fill-rule:evenodd;stroke:#000000;stroke-width:1.99999988;stroke-linecap:butt;stroke-linejoin:miter;marker:none;marker-start:none;marker-mid:none;marker-end:none;stroke-miterlimit:4;stroke-dasharray:none;stroke-dashoffset:0;stroke-opacity:1;visibility:visible;display:inline;overflow:visible"
           d="M 286.05227,170.95209 L 301.56375,155.44061 L 249.92388,65.997741 L 197.29702,157.15014 L 213.20692,173.06004 L 286.05227,170.95209 z "
           id="path2280" />
        <path
           style="color:#000000;fill:#f7ffff;fill-opacity:1;fill-rule:evenodd;stroke:#000000;stroke-width:2.00000048;stroke-linecap:butt;stroke-linejoin:miter;marker:none;marker-start:none;marker-mid:none;marker-end:none;stroke-miterlimit:4;stroke-dashoffset:0;stroke-opacity:1;visibility:visible;display:inline;overflow:visible"
           d="M 188.44242,155.78618 C 196.57415,149.96745 204.70588,147.93589 212.83761,145.78618 L 212.83761,162.6103 C 220.96934,160.09356 229.10107,158.74511 237.2328,158.1103 L 237.2328,140.78618 C 245.99222,139.53079 253.78326,140.21219 261.62799,140.78618 L 261.62799,158.1103 C 269.75971,159.07996 277.89144,159.78051 286.02316,162.6103 L 286.02316,145.78618 C 294.15488,148.12683 302.28661,149.02578 310.41833,155.78618 L 310.41835,190.43441 C 292.69043,172.01052 202.1777,172.85479 188.44242,190.43441 L 188.44242,155.78618 z "
           id="rect1387" />
        <g
           id="g2272"
           transform="translate(0.115095,0)">
          <path
             id="path2268"
             d="M 188.75,190.5 C 187.9664,192.58333 187.90581,194.66667 198.25,196.75"
             style="opacity:1;color:#000000;fill:none;fill-opacity:1;fill-rule:evenodd;stroke:#000000;stroke-width:2.00000048;stroke-linecap:butt;stroke-linejoin:miter;marker:none;marker-start:none;marker-mid:none;marker-end:none;stroke-miterlimit:4;stroke-dasharray:none;stroke-dashoffset:0;stroke-opacity:1;visibility:visible;display:inline;overflow:visible" />
          <path
             id="path2270"
             d="M 309.88058,190.5 C 310.66418,192.58333 310.72477,194.66667 300.38058,196.75"
             style="opacity:1;color:#000000;fill:none;fill-opacity:1;fill-rule:evenodd;stroke:#000000;stroke-width:2.00000048;stroke-linecap:butt;stroke-linejoin:miter;marker:none;marker-start:none;marker-mid:none;marker-end:none;stroke-miterlimit:4;stroke-dasharray:none;stroke-dashoffset:0;stroke-opacity:1;visibility:visible;display:inline;overflow:visible" />
        </g>
        <path
           style="color:#000000;fill:#070002;fill-opacity:1;fill-rule:evenodd;stroke:#000000;stroke-width:1.99999988;stroke-linecap:butt;stroke-linejoin:miter;marker:none;marker-start:none;marker-mid:none;marker-end:none;stroke-miterlimit:4;stroke-dashoffset:0;stroke-opacity:1;visibility:visible;display:inline;overflow:visible"
           d="M 236.77881,280.36825 C 236.77881,261.94142 261.43316,263.96901 262.08195,280.36825 L 262.08195,315.80311 L 236.77881,315.80311 L 236.77881,280.36825 z "
           id="rect2276" />
        <path
           style="opacity:1;color:#000000;fill:#f9ff26;fill-opacity:1;fill-rule:evenodd;stroke:#000000;stroke-width:1.99999988;stroke-linecap:butt;stroke-linejoin:miter;marker:none;marker-start:none;marker-mid:none;marker-end:none;stroke-miterlimit:4;stroke-dasharray:none;stroke-dashoffset:0;stroke-opacity:1;visibility:visible;display:inline;overflow:visible"
           d="M 250,65.5 L 250,30.5 L 222.77516,37.794873 L 249.85256,45.05024"
           id="path4035" />
        <path
           style="opacity:1;color:#000000;fill:#f9ff26;fill-opacity:1;fill-rule:evenodd;stroke:#000000;stroke-width:1.99999988;stroke-linecap:butt;stroke-linejoin:miter;marker:none;marker-start:none;marker-mid:none;marker-end:none;stroke-miterlimit:4;stroke-dasharray:none;stroke-dashoffset:0;stroke-opacity:1;visibility:visible;display:inline;overflow:visible"
           id="path3159"
           d="M 257 60.75 A 6.25 6.25 0 1 1  244.5,60.75 A 6.25 6.25 0 1 1  257 60.75 z"
           transform="translate(-0.75,5)" />
      </g>
      <g
         transform="translate(-0.249956,0)"
         id="g4095"
         style="display:inline">
        <g
           style="display:inline"
           id="g4051"
           transform="matrix(0.733819,0,0,0.733819,-72.5368,62.97345)">
          <path
             transform="matrix(1,0,0,1.298864,0,-57.40909)"
             d="M 310 190 A 60.25 10 0 1 1  189.5,190 A 60.25 10 0 1 1  310 190 z"
             id="path4053"
             style="opacity:1;color:#000000;fill:#f7ffff;fill-opacity:1;fill-rule:evenodd;stroke:none;stroke-width:1.87616622;stroke-linecap:butt;stroke-linejoin:miter;marker:none;marker-start:none;marker-mid:none;marker-end:none;stroke-miterlimit:4;stroke-dasharray:none;stroke-dashoffset:0;stroke-opacity:1;visibility:visible;display:inline;overflow:visible" />
          <path
             id="path4055"
             d="M 197.94983,192 C 210.2702,179.81596 287.59057,182.08949 300.91094,192 L 300.91094,490.13669 L 197.94983,422 L 197.94983,192 z "
             style="color:#000000;fill:#f7ffff;fill-opacity:1;fill-rule:evenodd;stroke:#000000;stroke-width:2.72546673;stroke-linecap:butt;stroke-linejoin:miter;marker:none;marker-start:none;marker-mid:none;marker-end:none;stroke-miterlimit:4;stroke-dashoffset:0;stroke-opacity:1;visibility:visible;display:inline;overflow:visible" />
          <path
             id="path4057"
             d="M 286.05227,170.95209 L 301.56375,155.44061 L 249.92388,65.997741 L 197.29702,157.15014 L 213.20692,173.06004 L 286.05227,170.95209 z "
             style="opacity:1;color:#000000;fill:#0759d6;fill-opacity:1;fill-rule:evenodd;stroke:#000000;stroke-width:2.72546649;stroke-linecap:butt;stroke-linejoin:miter;marker:none;marker-start:none;marker-mid:none;marker-end:none;stroke-miterlimit:4;stroke-dasharray:none;stroke-dashoffset:0;stroke-opacity:1;visibility:visible;display:inline;overflow:visible" />
          <path
             id="path4059"
             d="M 188.44242,155.78618 C 196.57415,149.96745 204.70588,147.93589 212.83761,145.78618 L 212.83761,162.6103 C 220.96934,160.09356 229.10107,158.74511 237.2328,158.1103 L 237.2328,140.78618 C 245.99222,139.53079 253.78326,140.21219 261.62799,140.78618 L 261.62799,158.1103 C 269.75971,159.07996 277.89144,159.78051 286.02316,162.6103 L 286.02316,145.78618 C 294.15488,148.12683 302.28661,149.02578 310.41833,155.78618 L 310.41835,190.43441 C 292.69043,172.01052 202.1777,172.85479 188.44242,190.43441 L 188.44242,155.78618 z "
             style="color:#000000;fill:#f7ffff;fill-opacity:1;fill-rule:evenodd;stroke:#000000;stroke-width:2.72546721;stroke-linecap:butt;stroke-linejoin:miter;marker:none;marker-start:none;marker-mid:none;marker-end:none;stroke-miterlimit:4;stroke-dashoffset:0;stroke-opacity:1;visibility:visible;display:inline;overflow:visible" />
          <g
             transform="translate(0.115095,0)"
             id="g4061">
            <path
               style="opacity:1;color:#000000;fill:none;fill-opacity:1;fill-rule:evenodd;stroke:#000000;stroke-width:2.72546721;stroke-linecap:butt;stroke-linejoin:miter;marker:none;marker-start:none;marker-mid:none;marker-end:none;stroke-miterlimit:4;stroke-dasharray:none;stroke-dashoffset:0;stroke-opacity:1;visibility:visible;display:inline;overflow:visible"
               d="M 188.75,190.5 C 187.9664,192.58333 187.90581,194.66667 198.25,196.75"
               id="path4063" />
            <path
               style="opacity:1;color:#000000;fill:none;fill-opacity:1;fill-rule:evenodd;stroke:#000000;stroke-width:2.72546721;stroke-linecap:butt;stroke-linejoin:miter;marker:none;marker-start:none;marker-mid:none;marker-end:none;stroke-miterlimit:4;stroke-dasharray:none;stroke-dashoffset:0;stroke-opacity:1;visibility:visible;display:inline;overflow:visible"
               d="M 309.88058,190.5 C 310.66418,192.58333 310.72477,194.66667 300.38058,196.75"
               id="path4065" />
          </g>
          <path
             id="path4067"
             d="M 236.77881,305.57882 C 236.77881,287.15199 261.43316,289.17958 262.08195,305.57882 L 262.08195,341.01368 L 236.77881,341.01368 L 236.77881,305.57882 z "
             style="color:#000000;fill:#070002;fill-opacity:1;fill-rule:evenodd;stroke:#000000;stroke-width:2.72546649;stroke-linecap:butt;stroke-linejoin:miter;marker:none;marker-start:none;marker-mid:none;marker-end:none;stroke-miterlimit:4;stroke-dashoffset:0;stroke-opacity:1;visibility:visible;display:inline;overflow:visible" />
          <path
             id="path4069"
             d="M 250,65.5 L 250,30.5 L 222.77516,37.794873 L 249.85256,45.05024"
             style="opacity:1;color:#000000;fill:#f9ff26;fill-opacity:1;fill-rule:evenodd;stroke:#000000;stroke-width:2.72546649;stroke-linecap:butt;stroke-linejoin:miter;marker:none;marker-start:none;marker-mid:none;marker-end:none;stroke-miterlimit:4;stroke-dasharray:none;stroke-dashoffset:0;stroke-opacity:1;visibility:visible;display:inline;overflow:visible" />
          <path
             transform="translate(-0.75,5)"
             d="M 257 60.75 A 6.25 6.25 0 1 1  244.5,60.75 A 6.25 6.25 0 1 1  257 60.75 z"
             id="path4071"
             style="opacity:1;color:#000000;fill:#f9ff26;fill-opacity:1;fill-rule:evenodd;stroke:#000000;stroke-width:2.72546649;stroke-linecap:butt;stroke-linejoin:miter;marker:none;marker-start:none;marker-mid:none;marker-end:none;stroke-miterlimit:4;stroke-dasharray:none;stroke-dashoffset:0;stroke-opacity:1;visibility:visible;display:inline;overflow:visible" />
        </g>
        <g
           style="display:inline"
           id="g4073"
           transform="matrix(0.733819,0,0,0.733819,206.9632,62.97345)">
          <path
             transform="matrix(1,0,0,1.298864,0,-57.40909)"
             d="M 310 190 A 60.25 10 0 1 1  189.5,190 A 60.25 10 0 1 1  310 190 z"
             id="path4075"
             style="opacity:1;color:#000000;fill:#f7ffff;fill-opacity:1;fill-rule:evenodd;stroke:none;stroke-width:1.87616622;stroke-linecap:butt;stroke-linejoin:miter;marker:none;marker-start:none;marker-mid:none;marker-end:none;stroke-miterlimit:4;stroke-dasharray:none;stroke-dashoffset:0;stroke-opacity:1;visibility:visible;display:inline;overflow:visible" />
          <path
             id="path4077"
             d="M 197.94983,192 C 210.2702,179.81596 287.59057,182.08949 300.91094,192 L 300.91094,428.81367 L 197.94983,490.13669 L 197.94983,192 z "
             style="color:#000000;fill:#f7ffff;fill-opacity:1;fill-rule:evenodd;stroke:#000000;stroke-width:2.72546673;stroke-linecap:butt;stroke-linejoin:miter;marker:none;marker-start:none;marker-mid:none;marker-end:none;stroke-miterlimit:4;stroke-dashoffset:0;stroke-opacity:1;visibility:visible;display:inline;overflow:visible" />
          <path
             id="path4079"
             d="M 286.05227,170.95209 L 301.56375,155.44061 L 249.92388,65.997741 L 197.29702,157.15014 L 213.20692,173.06004 L 286.05227,170.95209 z "
             style="opacity:1;color:#000000;fill:#0759d6;fill-opacity:1;fill-rule:evenodd;stroke:#000000;stroke-width:2.72546649;stroke-linecap:butt;stroke-linejoin:miter;marker:none;marker-start:none;marker-mid:none;marker-end:none;stroke-miterlimit:4;stroke-dasharray:none;stroke-dashoffset:0;stroke-opacity:1;visibility:visible;display:inline;overflow:visible" />
          <path
             id="path4081"
             d="M 188.44242,155.78618 C 196.57415,149.96745 204.70588,147.93589 212.83761,145.78618 L 212.83761,162.6103 C 220.96934,160.09356 229.10107,158.74511 237.2328,158.1103 L 237.2328,140.78618 C 245.99222,139.53079 253.78326,140.21219 261.62799,140.78618 L 261.62799,158.1103 C 269.75971,159.07996 277.89144,159.78051 286.02316,162.6103 L 286.02316,145.78618 C 294.15488,148.12683 302.28661,149.02578 310.41833,155.78618 L 310.41835,190.43441 C 292.69043,172.01052 202.1777,172.85479 188.44242,190.43441 L 188.44242,155.78618 z "
             style="color:#000000;fill:#f7ffff;fill-opacity:1;fill-rule:evenodd;stroke:#000000;stroke-width:2.72546721;stroke-linecap:butt;stroke-linejoin:miter;marker:none;marker-start:none;marker-mid:none;marker-end:none;stroke-miterlimit:4;stroke-dashoffset:0;stroke-opacity:1;visibility:visible;display:inline;overflow:visible" />
          <g
             transform="translate(0.115095,0)"
             id="g4083">
            <path
               style="opacity:1;color:#000000;fill:none;fill-opacity:1;fill-rule:evenodd;stroke:#000000;stroke-width:2.72546721;stroke-linecap:butt;stroke-linejoin:miter;marker:none;marker-start:none;marker-mid:none;marker-end:none;stroke-miterlimit:4;stroke-dasharray:none;stroke-dashoffset:0;stroke-opacity:1;visibility:visible;display:inline;overflow:visible"
               d="M 188.75,190.5 C 187.9664,192.58333 187.90581,194.66667 198.25,196.75"
               id="path4085" />
            <path
               style="opacity:1;color:#000000;fill:none;fill-opacity:1;fill-rule:evenodd;stroke:#000000;stroke-width:2.72546721;stroke-linecap:butt;stroke-linejoin:miter;marker:none;marker-start:none;marker-mid:none;marker-end:none;stroke-miterlimit:4;stroke-dasharray:none;stroke-dashoffset:0;stroke-opacity:1;visibility:visible;display:inline;overflow:visible"
               d="M 309.88058,190.5 C 310.66418,192.58333 310.72477,194.66667 300.38058,196.75"
               id="path4087" />
          </g>
          <path
             id="path4089"
             d="M 236.77881,305.57882 C 236.77881,287.15199 261.43316,289.17958 262.08195,305.57882 L 262.08195,341.01368 L 236.77881,341.01368 L 236.77881,305.57882 z "
             style="color:#000000;fill:#070002;fill-opacity:1;fill-rule:evenodd;stroke:#000000;stroke-width:2.72546649;stroke-linecap:butt;stroke-linejoin:miter;marker:none;marker-start:none;marker-mid:none;marker-end:none;stroke-miterlimit:4;stroke-dashoffset:0;stroke-opacity:1;visibility:visible;display:inline;overflow:visible" />
          <path
             id="path4091"
             d="M 250,65.5 L 250,30.5 L 222.77516,37.794873 L 249.85256,45.05024"
             style="opacity:1;color:#000000;fill:#f9ff26;fill-opacity:1;fill-rule:evenodd;stroke:#000000;stroke-width:2.72546649;stroke-linecap:butt;stroke-linejoin:miter;marker:none;marker-start:none;marker-mid:none;marker-end:none;stroke-miterlimit:4;stroke-dasharray:none;stroke-dashoffset:0;stroke-opacity:1;visibility:visible;display:inline;overflow:visible" />
          <path
             transform="translate(-0.75,5)"
             d="M 257 60.75 A 6.25 6.25 0 1 1  244.5,60.75 A 6.25 6.25 0 1 1  257 60.75 z"
             id="path4093"
             style="opacity:1;color:#000000;fill:#f9ff26;fill-opacity:1;fill-rule:evenodd;stroke:#000000;stroke-width:2.72546649;stroke-linecap:butt;stroke-linejoin:miter;marker:none;marker-start:none;marker-mid:none;marker-end:none;stroke-miterlimit:4;stroke-dasharray:none;stroke-dashoffset:0;stroke-opacity:1;visibility:visible;display:inline;overflow:visible" />
        </g>
      </g>
      <path
         id="rect4119"
         d="M 61.202487,334.58368 L 145.60125,409.58368 L 250.00001,409.58368 L 354.39876,409.58368 L 438.79751,334.58368 L 438.79751,389.23906 L 354.39876,514.23906 L 250.00001,514.23906 L 145.60125,514.23906 L 61.202487,389.23906 L 61.202487,334.58368 z "
         style="color:#000000;fill:#f9ff26;fill-opacity:1;fill-rule:evenodd;stroke:#000000;stroke-width:1.99999988;stroke-linecap:butt;stroke-linejoin:miter;marker:none;marker-start:none;marker-mid:none;marker-end:none;stroke-miterlimit:4;stroke-dashoffset:0;stroke-opacity:1;visibility:visible;display:inline;overflow:visible" />
      <path
         id="path4997"
         d="M 60.141843,343.92684 L 150.07093,431.42684 L 250.00001,431.42684 L 349.92908,431.42684 L 439.85816,343.92684"
         style="opacity:1;color:#000000;fill:none;fill-opacity:1;fill-rule:evenodd;stroke:#000000;stroke-width:1.99999905;stroke-linecap:butt;stroke-linejoin:miter;marker:none;marker-start:none;marker-mid:none;marker-end:none;stroke-miterlimit:4;stroke-dasharray:none;stroke-dashoffset:0;stroke-opacity:1;visibility:visible;display:inline;overflow:visible" />
      <path
         id="path5874"
         d="M 60.141843,355.12989 L 150.07093,452.12989 L 250.00001,452.12989 L 349.92908,452.12989 L 439.85816,355.12989"
         style="opacity:1;color:#000000;fill:none;fill-opacity:1;fill-rule:evenodd;stroke:#000000;stroke-width:1.99999905;stroke-linecap:butt;stroke-linejoin:miter;marker:none;marker-start:none;marker-mid:none;marker-end:none;stroke-miterlimit:4;stroke-dasharray:none;stroke-dashoffset:0;stroke-opacity:1;visibility:visible;display:inline;overflow:visible" />
      <path
         id="path5876"
         d="M 60.141843,367.83295 L 150.07093,472.83295 L 250.00001,472.83295 L 349.92908,472.83295 L 439.85816,367.83295"
         style="opacity:1;color:#000000;fill:none;fill-opacity:1;fill-rule:evenodd;stroke:#000000;stroke-width:1.99999905;stroke-linecap:butt;stroke-linejoin:miter;marker:none;marker-start:none;marker-mid:none;marker-end:none;stroke-miterlimit:4;stroke-dasharray:none;stroke-dashoffset:0;stroke-opacity:1;visibility:visible;display:inline;overflow:visible" />
      <path
         id="path5878"
         d="M 60.141843,378.536 L 150.07093,493.536 L 250.00001,493.536 L 349.92908,493.536 L 439.85816,378.536"
         style="opacity:1;color:#000000;fill:none;fill-opacity:1;fill-rule:evenodd;stroke:#000000;stroke-width:1.99999905;stroke-linecap:butt;stroke-linejoin:miter;marker:none;marker-start:none;marker-mid:none;marker-end:none;stroke-miterlimit:4;stroke-dasharray:none;stroke-dashoffset:0;stroke-opacity:1;visibility:visible;display:inline;overflow:visible" />
      <g
         transform="translate(-3.362698,72.5)"
         id="g5885">
        <path
           style="color:#000000;fill:#f9ff26;fill-opacity:1;fill-rule:evenodd;stroke:#000000;stroke-width:1.99999845;stroke-linecap:butt;stroke-linejoin:miter;marker:none;marker-start:none;marker-mid:none;marker-end:none;stroke-miterlimit:4;stroke-dashoffset:0;stroke-opacity:1;visibility:visible;display:inline;overflow:visible"
           d="M 62.505897,259.45269 C 63.985563,256.70066 65.465229,256.70066 66.944895,259.45269 L 66.944895,319.72172 C 65.465229,323.57454 63.985563,323.57454 62.505897,319.72172 L 62.505897,259.45269 z "
           id="rect5880" />
        <path
           style="color:#000000;fill:#f9ff26;fill-opacity:1;fill-rule:evenodd;stroke:#000000;stroke-width:1.99999845;stroke-linecap:butt;stroke-linejoin:miter;marker:none;marker-start:none;marker-mid:none;marker-end:none;stroke-miterlimit:4;stroke-dashoffset:0;stroke-opacity:1;visibility:visible;display:inline;overflow:visible"
           d="M 439.7805,259.45269 C 441.26017,256.70066 442.73983,256.70066 444.2195,259.45269 L 444.2195,319.72172 C 442.73983,323.57454 441.26017,323.57454 439.7805,319.72172 L 439.7805,259.45269 z "
           id="path5883" />
      </g>
      <path
         transform="translate(2.512619,38.89087)"
         d="M 251.73002 423.02231 A 4.2426405 4.2426405 0 1 1  243.24474,423.02231 A 4.2426405 4.2426405 0 1 1  251.73002 423.02231 z"
         id="path5893"
         style="opacity:1;color:#000000;fill:#f9ff26;fill-opacity:1;fill-rule:evenodd;stroke:#000000;stroke-width:1.99999905;stroke-linecap:butt;stroke-linejoin:miter;marker:none;marker-start:none;marker-mid:none;marker-end:none;stroke-miterlimit:4;stroke-dasharray:none;stroke-dashoffset:0;stroke-opacity:1;visibility:visible;display:inline;overflow:visible" />
      <path
         transform="translate(2.512619,59.75051)"
         d="M 251.73002 423.02231 A 4.2426405 4.2426405 0 1 1  243.24474,423.02231 A 4.2426405 4.2426405 0 1 1  251.73002 423.02231 z"
         id="path5895"
         style="opacity:1;color:#000000;fill:#f9ff26;fill-opacity:1;fill-rule:evenodd;stroke:#000000;stroke-width:1.99999905;stroke-linecap:butt;stroke-linejoin:miter;marker:none;marker-start:none;marker-mid:none;marker-end:none;stroke-miterlimit:4;stroke-dasharray:none;stroke-dashoffset:0;stroke-opacity:1;visibility:visible;display:inline;overflow:visible" />
      <path
         transform="translate(2.512619,80.61016)"
         d="M 251.73002 423.02231 A 4.2426405 4.2426405 0 1 1  243.24474,423.02231 A 4.2426405 4.2426405 0 1 1  251.73002 423.02231 z"
         id="path5897"
         style="opacity:1;color:#000000;fill:#f9ff26;fill-opacity:1;fill-rule:evenodd;stroke:#000000;stroke-width:1.99999905;stroke-linecap:butt;stroke-linejoin:miter;marker:none;marker-start:none;marker-mid:none;marker-end:none;stroke-miterlimit:4;stroke-dasharray:none;stroke-dashoffset:0;stroke-opacity:1;visibility:visible;display:inline;overflow:visible" />
      <g
         transform="translate(-0.669354,0)"
         id="g5938">
        <g
           id="g5919"
           transform="translate(0.707107,0.70712)">
          <path
             transform="translate(-84.85283,-3.535538)"
             d="M 251.73002 423.02231 A 4.2426405 4.2426405 0 1 1  243.24474,423.02231 A 4.2426405 4.2426405 0 1 1  251.73002 423.02231 z"
             id="path5909"
             style="opacity:1;color:#000000;fill:#f9ff26;fill-opacity:1;fill-rule:evenodd;stroke:#000000;stroke-width:1.99999905;stroke-linecap:butt;stroke-linejoin:miter;marker:none;marker-start:none;marker-mid:none;marker-end:none;stroke-miterlimit:4;stroke-dasharray:none;stroke-dashoffset:0;stroke-opacity:1;visibility:visible;display:inline;overflow:visible" />
          <path
             transform="translate(-84.85283,17.3241)"
             d="M 251.73002 423.02231 A 4.2426405 4.2426405 0 1 1  243.24474,423.02231 A 4.2426405 4.2426405 0 1 1  251.73002 423.02231 z"
             id="path5911"
             style="opacity:1;color:#000000;fill:#f9ff26;fill-opacity:1;fill-rule:evenodd;stroke:#000000;stroke-width:1.99999905;stroke-linecap:butt;stroke-linejoin:miter;marker:none;marker-start:none;marker-mid:none;marker-end:none;stroke-miterlimit:4;stroke-dasharray:none;stroke-dashoffset:0;stroke-opacity:1;visibility:visible;display:inline;overflow:visible" />
          <path
             transform="translate(-84.85283,38.18375)"
             d="M 251.73002 423.02231 A 4.2426405 4.2426405 0 1 1  243.24474,423.02231 A 4.2426405 4.2426405 0 1 1  251.73002 423.02231 z"
             id="path5913"
             style="opacity:1;color:#000000;fill:#f9ff26;fill-opacity:1;fill-rule:evenodd;stroke:#000000;stroke-width:1.99999905;stroke-linecap:butt;stroke-linejoin:miter;marker:none;marker-start:none;marker-mid:none;marker-end:none;stroke-miterlimit:4;stroke-dasharray:none;stroke-dashoffset:0;stroke-opacity:1;visibility:visible;display:inline;overflow:visible" />
          <path
             transform="translate(-84.85283,59.04339)"
             d="M 251.73002 423.02231 A 4.2426405 4.2426405 0 1 1  243.24474,423.02231 A 4.2426405 4.2426405 0 1 1  251.73002 423.02231 z"
             id="path5915"
             style="opacity:1;color:#000000;fill:#f9ff26;fill-opacity:1;fill-rule:evenodd;stroke:#000000;stroke-width:1.99999905;stroke-linecap:butt;stroke-linejoin:miter;marker:none;marker-start:none;marker-mid:none;marker-end:none;stroke-miterlimit:4;stroke-dasharray:none;stroke-dashoffset:0;stroke-opacity:1;visibility:visible;display:inline;overflow:visible" />
          <path
             transform="translate(-84.85283,79.90304)"
             d="M 251.73002 423.02231 A 4.2426405 4.2426405 0 1 1  243.24474,423.02231 A 4.2426405 4.2426405 0 1 1  251.73002 423.02231 z"
             id="path5917"
             style="opacity:1;color:#000000;fill:#f9ff26;fill-opacity:1;fill-rule:evenodd;stroke:#000000;stroke-width:1.99999905;stroke-linecap:butt;stroke-linejoin:miter;marker:none;marker-start:none;marker-mid:none;marker-end:none;stroke-miterlimit:4;stroke-dasharray:none;stroke-dashoffset:0;stroke-opacity:1;visibility:visible;display:inline;overflow:visible" />
        </g>
        <g
           style="display:inline"
           id="g5926"
           transform="translate(175.3625,0.70712)">
          <path
             transform="translate(-84.85283,-3.535538)"
             d="M 251.73002 423.02231 A 4.2426405 4.2426405 0 1 1  243.24474,423.02231 A 4.2426405 4.2426405 0 1 1  251.73002 423.02231 z"
             id="path5928"
             style="opacity:1;color:#000000;fill:#f9ff26;fill-opacity:1;fill-rule:evenodd;stroke:#000000;stroke-width:1.99999905;stroke-linecap:butt;stroke-linejoin:miter;marker:none;marker-start:none;marker-mid:none;marker-end:none;stroke-miterlimit:4;stroke-dasharray:none;stroke-dashoffset:0;stroke-opacity:1;visibility:visible;display:inline;overflow:visible" />
          <path
             transform="translate(-84.85283,17.3241)"
             d="M 251.73002 423.02231 A 4.2426405 4.2426405 0 1 1  243.24474,423.02231 A 4.2426405 4.2426405 0 1 1  251.73002 423.02231 z"
             id="path5930"
             style="opacity:1;color:#000000;fill:#f9ff26;fill-opacity:1;fill-rule:evenodd;stroke:#000000;stroke-width:1.99999905;stroke-linecap:butt;stroke-linejoin:miter;marker:none;marker-start:none;marker-mid:none;marker-end:none;stroke-miterlimit:4;stroke-dasharray:none;stroke-dashoffset:0;stroke-opacity:1;visibility:visible;display:inline;overflow:visible" />
          <path
             transform="translate(-84.85283,38.18375)"
             d="M 251.73002 423.02231 A 4.2426405 4.2426405 0 1 1  243.24474,423.02231 A 4.2426405 4.2426405 0 1 1  251.73002 423.02231 z"
             id="path5932"
             style="opacity:1;color:#000000;fill:#f9ff26;fill-opacity:1;fill-rule:evenodd;stroke:#000000;stroke-width:1.99999905;stroke-linecap:butt;stroke-linejoin:miter;marker:none;marker-start:none;marker-mid:none;marker-end:none;stroke-miterlimit:4;stroke-dasharray:none;stroke-dashoffset:0;stroke-opacity:1;visibility:visible;display:inline;overflow:visible" />
          <path
             transform="translate(-84.85283,59.04339)"
             d="M 251.73002 423.02231 A 4.2426405 4.2426405 0 1 1  243.24474,423.02231 A 4.2426405 4.2426405 0 1 1  251.73002 423.02231 z"
             id="path5934"
             style="opacity:1;color:#000000;fill:#f9ff26;fill-opacity:1;fill-rule:evenodd;stroke:#000000;stroke-width:1.99999905;stroke-linecap:butt;stroke-linejoin:miter;marker:none;marker-start:none;marker-mid:none;marker-end:none;stroke-miterlimit:4;stroke-dasharray:none;stroke-dashoffset:0;stroke-opacity:1;visibility:visible;display:inline;overflow:visible" />
          <path
             transform="translate(-84.85283,79.90304)"
             d="M 251.73002 423.02231 A 4.2426405 4.2426405 0 1 1  243.24474,423.02231 A 4.2426405 4.2426405 0 1 1  251.73002 423.02231 z"
             id="path5936"
             style="opacity:1;color:#000000;fill:#f9ff26;fill-opacity:1;fill-rule:evenodd;stroke:#000000;stroke-width:1.99999905;stroke-linecap:butt;stroke-linejoin:miter;marker:none;marker-start:none;marker-mid:none;marker-end:none;stroke-miterlimit:4;stroke-dasharray:none;stroke-dashoffset:0;stroke-opacity:1;visibility:visible;display:inline;overflow:visible" />
        </g>
      </g>
    </g>
  </g>
  <g
     id="layer2"
     style="display:inline">
    <path
       style="color:#000000;fill:none;fill-opacity:1;fill-rule:evenodd;stroke:#000000;stroke-width:2.00000262;stroke-linecap:butt;stroke-linejoin:miter;marker:none;marker-start:none;marker-mid:none;marker-end:none;stroke-miterlimit:4;stroke-dasharray:none;stroke-dashoffset:0;stroke-opacity:1;visibility:visible;display:inline;overflow:visible"
       d="M 497.04869,331.31563 C 497.04869,411.22999 459.10187,482.35107 400.25948,527.62761 C 391.75756,534.16945 382.81943,540.17175 373.4965,545.58308 C 337.02238,566.75384 294.65864,578.87916 249.48513,578.87916 C 169.84563,578.87916 98.961472,541.19293 53.669323,482.69637 C 43.644207,469.74854 34.872916,455.78116 27.538033,440.97722 C 11.157319,407.91616 1.940624,370.68284 1.9215879,331.31563 L 1.7626029,2.530058 L 498.2374,2.530058 L 497.04869,331.31563 z "
       id="path3989" />
  </g>
</svg>