<svg viewBox="-21.68 -25.86 585.23 698.30"><title>Herb Kuźnia Raciborska</title><path d="M541.871 0v377.293c-6.308 161.016-132.926 267.582-267.105 269.258C138.035 648.258 5.258 548 0 377.293V0h541.875" style="stroke:none;fill-rule:evenodd;fill:#222"/><path d="M242.711 70.301c-2.086-1.758-2.797-4.351-2.563-8.433q1.922-.155 3.848.992c-1.695 2.222-2.488 4.633-1.281 7.437" style="stroke:none;fill-rule:evenodd;fill:#fffdfd"/><path d="M271.305 102.977c4.965.047 9.875.277 14.734.66L298.254 63.5a240 240 0 0 1 28.437 5.356l-1.332 41.672a203.6 203.6 0 0 1 32.465 12.054l23.918-32.496a249 249 0 0 1 25.571 15.676L392.5 143.328a210 210 0 0 1 26.024 22.829l31.843-22.379a260 260 0 0 1 18.848 23.418l-25.418 30.609a221 221 0 0 1 16.926 30.992l37.851-8.351a264 264 0 0 1 9.91 28.988L473.918 267.5a231 231 0 0 1 5.559 33.711l38.386 5.676c.25 4.738.387 9.508.387 14.313 0 5.445-.184 10.851-.504 16.218l-38.148 4.508a228 228 0 0 1-5.543 34.516l33.676 19.148a264 264 0 0 1-10.18 28.801l-36.617-9.449a215.6 215.6 0 0 1-17.219 31.269l24.742 30.078a260 260 0 0 1-19.191 23.563l-31.141-22.137a207 207 0 0 1-25.793 22.184l14.758 36.898a249 249 0 0 1-26.207 15.969l-24.156-32.117a206 206 0 0 1-30.774 11.148l1.043 41.676a241 241 0 0 1-29.918 5.57l-11.594-40.289c-4.675.348-9.398.563-14.171.61v-42.586c94.668-1.063 168.656-80.903 168.656-175.817s-73.985-175.328-168.656-176.394V102.93zm67.058 63.148-52.425 120.196 3.293 2.332 75.214-107.938c-8.734-6.949-15.156-10.511-26.082-14.59m96.164 139.036-127.351 14.507.055 3.977 127.355 12.324c.477-4.867.496-8.344.555-13.32v-3.766c-.055-5.195-.094-8.64-.61-13.719zm-69.761 155.867-75.825-107.262-2.875 1.621 52.258 120.883c10.422-4.574 17.231-8.75 26.438-15.238zm-93.461-159.875c10.07.992 17.98 9.527 17.98 19.855 0 10.324-7.91 18.86-17.98 19.856v14.515c18.051-1.023 32.461-16.07 32.461-34.375 0-18.3-14.407-33.347-32.461-34.375zm-3.801-241.137c-11.168-10.09-23.859-14.094-37.621-13.828-6.324-.34-9.574 2.394-9.75 8.211.512 1.453 2.051 2.648 3.848 3.59 16.25-.598 26.597 2.476 39.507 11.289-2.004.902-3.882.812-5.64-.254-4.567 12.019-27.367 15.281-27.965-7.949l-5.645-.254c-1.109 16.418 11.629 21.55 19.754 30.785 12.106 11.547 4.918 23.773-6.41 22.32 6.059 27.66-4.437 35.77-17.523 40.528-10.176 3.699-25-1.137-28.657 13.093 16.676-13.426 34.379 5.473 50.801-14.879.153 6.41-5.336 9.84-6.34 13.754-2.566 10.004 2.993 16.481-2.125 26.266 9.426-3.27 12.188-7.672 15.707-16.469 2.77-6.922 5.036-6.098 9.176-24.066-.422 10.976 2.535 20.597 8.887 28.867v-121zm-34.543 1.305h3.512c-1.469 11.507 10.086 18.41 17.265 6.156l2.067.812c-8.848 13.352-22.418 8.086-22.848-6.972zm-59.523 11.8c5.527-7.015 12.582-9.23 22.058-3.597 7.074 1.441 14.77 4.234 23.352 13.347q5.257 5.9 12.57 7.696c13.953 3.078 13.945 19.754-.512 13.082-13.597-8.637-20.781-27.024-40.793-25.91 15.762 7.683 31.282 24.949 44.641 32.324 5.609 2.609 16.324-.547 12.312-11.285-8.035-11.887-25.312-14.024-26.425-39.512-17.746-10.441-29.621-13.676-37.094-12.398-9.606 1.636-16.035 8.242-10.113 26.253zm94.066 204.325c-4.477 4.593-8.336 7.824-13.633 14.734v15.715c3.863 4.926 9.246 5.801 13.633 13.836v-44.289zm-17.063 35.382q-7.317 5.473-13.148 12.938c.039 28.941 12.734 18.824 19.102 28.234 2.73-3.961 6.164-7.425 11.105-9.804v-16.532c-3.027-7.621-7.785-11.773-13.34-14.336l-1.484 24.254-2.231-24.754zm-32.503-14.554c4.093-9.949 10.418-12.688 15.628-19.031l1.735 24.257 1.984-23.882c4.938 2.714 9.571 6.57 13.52 12.933l-.246 16.047c-5.332 5.637-11.907 9.035-16 16.918-5.539-9.078-12.446-8.582-16.621-27.242m-2.266-56.903 1.691 30.028c1.11-8.344 1.985-20.653 2.477-29.305 3.23 6.613 11.094 9.36 12.84 15.777.937 4.547 1.133 10.094.578 16.641-1.93 6.406-12.254 10.367-16.27 18.977-2.351-9.614-9.242-8.418-12.41-15.137-3.277-7.32-4.734-14.035-3.523-19.856.949-5.101 11.582-7.992 14.617-17.125m34.797 2.817 1.504 25.715c1.109-8.344 2.172-16.711 2.66-25.367 3.141 6.429 10.836 8.144 12.863 14.128v12.93c-2.828 5.828-11.808 11.106-15.527 19.086-2.352-9.613-11.676-9.547-14.844-17.578l.211-14.043c1.137-6.789 11.211-9.117 13.125-14.871zm-16.278-36.02 1.504 25.711c1.11-8.34 2.172-16.711 2.664-25.363 3.231 6.613 10.532 8.988 12.278 15.402l.578 14.016c-1.93 6.406-11.504 9.805-15.52 18.414-2.351-9.613-12.238-11.234-15.402-17.953l-.348-9.727c1.137-6.789 11.211-11.367 14.246-20.5m21.645-37.718 1.027 27.086 2.571-26.227c2.074 5.309 4.359 10.508 8.07 15.004v18c-5.402 9.996-11.703 12.539-13.898 18.078-4.227-9.543-16.684-12.914-15.77-28.113 13.199-3.828 12-15.883 18-23.828m-60.348 85.886c5.219-23.004-5.293-21.804-3.066-51.949 1.23-16.664 10.973-30.324 33.41-38.223-7.055 12.399-10.027 25.543-7.027 39.77.398-19.793 5.484-32.262 13.199-40.629-3.941 10.742 8.91 22.684-8.742 33.258 3.996.34 7.312-1.371 10.969-2.055-.969 16.113-11.711 18.856-15.254 28.285-4.797-10.629-14.227-9.425-12.34-34.968-12.914 21.543 1.426 30.226-5.313 52.285 7.715-15.598 2.055-25.028 3.086-37.543 1.371 13.484 9.086 13.769 11.828 22.457v9.254c-6.269 8.398-13.097 15.312-20.742 20.054zm72.016-45.894c-4.523 6.285-11.398 9.91-12.527 16.406v9.77c1.25 7.929 8.074 11.519 12.527 16.964zm-58.371 146.426c-4.567 3.109-8.824 5.39-12.402 5.843-5.727 16.25 1.011 20.563 3.472 30.848 5.5-7.336 15.465-6.344 17.988-15.672-3.781-4.125-5.066-9.391-5.21-15.176l-10.543 21.27c2.23-9.035 6.945-19.942 6.695-27.117zm-3.141-25.606q-2.573 1.19-5.152 1.383c-3 14.195-8.887 21.84-15.582 27.648 7.918.68 15.836-1.222 23.75-6.91.375-5.445-1.254-7.875-1.883-11.812-2.574 5.976-5.969 10.73-10.555 13.695 4.504-7.32 8.278-15.008 9.426-24.004zm-18.476 32.176 5.781.125c-.754 4.355-2.762 8.082-2.262 13.066-5.738 2.762-4.312 7.289-17.215 8.293q9.364 3.954 17.719-5.152c1.926 6.406 3.852 7.789 5.777 11.687-13.738 8.875-24.296 2.61-32.675-9.296 12.566-1.297 21.031-6.7 22.871-18.723zm-64.094 81.437q3.517 4.396-2.008 7.286-6.973-1.694-11.433 3.14c-1.563-8.836 3.281-11.984 13.445-10.43zm83.449 3.266q-2.823 1.57-1.633 7.664c6.032.313 9.758 2.402 8.418 8.418 6.879-6.828 2.543-13.238-6.785-16.086zM84.754 88.582c-14.285 4.403-22.473-1.308-18.305-13.66 5.77-9.133 14.754-7.847 23.348 6.41-4.336-13.757 5.73-23.679 15.137-15.648 9.558 8.16 3.929 17.516-10.262 19.496 13.027.164 20.797 9.606 10.492 19.703-12.09 6.645-17.18-1.812-15.79-14.715-12.276 14.567-10.167 31.887 5.04 51.711 30.856 39.473 62.117 50.782 94.16 61.317v8.722c-43.82-14.406-83.492-40.382-100.765-67.445-10.36-16.234-18.313-36.676-3.051-55.895zm1.789 11.489-3.141 11.777c13.664 22.129 51.016 1.77 40.575-40.312-20.235-39.004-62.055-24.555-74.083 3.14-7.05 17.36-3.68 39.793 16.493 70.418 42.144 49.024 82.109 68.559 121.465 79.844l.238-8.629c-23.531-8.859-48.133-21.27-68.324-35.957-34.797-25.309-56.989-57.125-41.602-87.348-14.121-.34-18.254-7.879-15.27-18.695 5.223-10.477 14.41-10.266 22.602-4.602 6.063-14.527 18.149-9.945 21.594-7.461s10.82 14.922-.914 22.383c8.648 3.25 7.898 17.699 1.305 23.035-4.903 3.965-17.54 4.657-20.938-7.589zm20.156 51.047c-3.093-7.414-3.793-13.872-3.402-19.895-.348-8.027-13.785-8.199-8.9 4.973 3.447 5.3 7.462 10.316 12.302 14.918zm17.043 16.863c-3.094-7.414-5.066-16.141-4.676-22.16-.558-9.09-14.656-6.903-9.605 7.097 3.445 5.301 9.437 10.461 14.281 15.063m15.606 10.601c-3.098-7.414-5.914-13.589-5.52-19.609-1.48-11.297-14.121-10.254-7.344 8.371 3.446 5.301 8.024 6.633 12.868 11.234zm17.664 8.793c-4.793-4.011-7.188-10.472-7.641-18.191-.566-8.356-13.5-8.477-8.051 5.539 3.446 5.301 6.614 9.043 15.696 12.652zm14.515 6.164c-3.093-7.414-7.324-8.203-6.933-14.226-.84-8.125-14.051-9.215-7.629 4.262 3.445 5.3 8.449 6.773 14.562 9.961zm13.649 5.192c-3.098-7.414-5.207-7.922-4.813-13.942-.347-8.027-13.363-8.625-8.476 4.547 3.445 5.301 5.906 7.485 13.293 9.395zm-12.367 24.629 6.418 2.523c-.567 5.321-.817 10.535-.375 15.52l3.394-14.891 8.43 2.524c-2.703 10.402-6.27 20.058-12.332 24.734-4.207-9.695-7.039-20.047-5.535-30.414zm-5.035 10.347c-3.188 7.993-7.383 11.821-10.946 17.918 2.684 7.403 2.852 14.176 8.305 22.59 5.199-5.426 9.144-11.273 10.316-18.047-3.965-7.218-5.347-14.652-5.285-22.211a163 163 0 0 1-4.027 22.336c.043-7.675.922-15.25 1.633-22.589zm1.386-11.484c-1.894 8.191-6.781 16.586-13.715 25.113q-9.123-15.71-7.675-33.945l8.808 4.035 1.258 17.793q2.45-6.435 2.895-16.402zm16.992 26.504c-2.074 3.363-4.257 6.098-6.668 7.445q1.511 11.984 8.055 22.461c4.067-5.594 6.418-11.945 6.797-18.551-1.34.293-2.938 1.469-4.027.883q3.708-11.166 2.39-26.879l-3.269 9.465c-.629 6.856-.375 13.965-1.887 20.57l-1.383-15.394zm-40.906-17.543c2.09 6.883 4.785 13.644 8.555 20.191-2.641 8.137-6.668 13.731-11.324 18.172-7.047-10.011-7.297-17.5-10.95-26.25 4.196-5.047 7.93-11.019 11.45-17.414-.094 8.75.218 17.496 1.132 26.25 1.227-6.84 1.918-13.769 1.133-20.949zm-21.519-31.551q3.58 3.153 7.675 4.793c-.714 7.149-1.218 14.301-.25 21.453 1.93-5.59 2.977-12.363 3.899-19.308l9.941 5.929q-3.902 14.32-14.847 26.629c-6.231-11.801-8.243-25.008-6.418-39.5zm-78.036-89.707c2.196 7.817 5.57 16.926 10.043 25.199.067 10.852.383 19.961 2.723 29.453l.34-24.687 13.793 16.004c-2.14 9.098-6.766 15.707-12.09 21.625-11.324-16.91-14.844-40.695-14.812-67.598zm29.286 49.207 6.468 6.301 1.36 27.242 2.55-23.324q4.343 5.445 10.043 8.852c-.082 9.007-4.226 17.097-14.3 23.835-5.54-11.421-8.309-25.128-6.13-42.906zm-6.81 13.965c-2.21 2.551-4.085 5.957-6.636 7.66.508 13.563-3.742 18.785 3.574 42.227 13.336-8.91 9.309-12.371 13.96-18.559-5.42-9.496-6.838-22-6.807-35.586-1.531 10.895-1.531 23.156-4.594 32.692l.508-28.434zm30.31 8.344 8.339 6.469c-1.304 7.433-1.246 16.57-1.871 24.859 2.883-6.254 4.293-13.981 5.786-21.625l10.043 6.809c-4.114 9.773-9.336 18.261-16.176 24.859-8.172-15.152-5.617-28.945-6.13-41.375zm-4.938 12.429c-3.461 4.426-6.922 8.286-10.387 10.895-4.086 13.703-1.925 28.348 3.063 43.418q10.894-8.768 15.664-22.984c-4.367-10.016-5.617-19.723-5.445-29.286l-7.321 32.008c.028-12.074 1.672-23.34 4.426-34.054zm25.027 15.665c-4.445 6.757-9.058 12.703-13.96 17.195-.106 12.379 3.511 24.512 10.214 36.437l13.45-20.769c-6.172-9.805-6.926-20.598-8-31.328a261 261 0 0 1-4.426 32.179c-.535-11.476.535-22.687 2.722-33.711zm-69.3-49.719c1.613 6.781 4.793 13.25 8.683 19.578-.933 28.094-.265 48.609-12.258 66.574 6.133-6.566 11.813-14.445 14.301-31.5l2.895 13.621c6.636-2.609 8.172-6.582 12.258-9.875-18.52 36.235-33.665 39.192-48.528 39.332 26.79-24.746 21.395-67.711 22.645-97.734zm29.629 70.492c-1.973 25.637-3.266 62.516-11.2 81.344-8.183 19.425-16.199 29.996-37.156 33.418 14.914 9.726 40.895 9.918 53.258-4.364 13.574-15.683 20.851-33.414 24.555-85.539q-6.129-12.257-6.129-24.515l-2.551 6.98c-4.227 28.957-5.973 49.153-9.488 64.969-5.047 22.707-15.098 32.469-25.075 36 29.512-26.277 24.46-66.348 29.286-94.16-2.895 3.121-5.79 5.558-8.684 9.363-3.633-7.488-4.54-15.664-6.81-23.496zm40.586 31.023 10.269-14.242 4.305 14.242c-4.461 70.856-6.508 138.899-37.102 165.637 12.61-6.539 22.637-21.555 28.199-43.707 7.317-29.152 10.25-67.297 13.539-112.984l3.641 5.629c2.555-4.227 4.856-6.403 7.285-9.606-5.019 64.285-5.113 116.035-21.551 145.043-15.441 27.242-40.04 38.551-73.523 26.227 21.223-9.25 40.777-22.399 45.52-40.985 14.457-56.664 16.554-73.609 19.406-135.25zm41.742 10.934q1.47 4.077 3.972 6.625c3.543-3.344 6.743-7.535 9.606-12.586-.051 23.492-1.047 46.516-4.637 68.242 8.5-22.414 5.738-45.492 8.613-68.242 2.2 6.039 4.723 11.863 7.95 17.223l6.953-8.942c-2.953 38.262-14.602 62.996-33.457 76.524q5.134-39.423.992-78.844zm44.808 12.449c2.809 4.063 6.864 5.512 8.434 12.188l-8.063 23.633 9.801-18.036c.16 4.063 1.817 8.125 4.961 12.188-8.289 8.5-16.476 14.512-24.437 15.051 6-14.153 8.925-29.219 9.3-45.032zm3.348 42.918c4.617-2.472 9.105-5.894 13.395-10.695-1.774 10.863-4.422 21.437-7.192 31.969 4.098-9.493 7.93-18.989 11.039-28.485 1.817 3.274 5.125 5.305 7.442 7.961-3.223 19.238-14.637 19.817-21.707 29.731-.125-15.133-4.465-10.864-2.977-30.477zm6.574 30.852c2.871-3.606 6.141-6.426 9.676-8.707-.824 8.582-5.746 13.183-2.481 25.75 1.696-11.688 4.086-21.543 7.258-29.828 1.692-2.782 3.34-5.883 4.524-9.602.761 4.289 2.043 8.063 4.465 10.695-4.793 5.805-15.547 11.61-11.411 36.821-7.386-4.571-12.589-11.598-12.031-25.125zm-12.347 35.113c3.316 9.707 10.668 15.383 23.375 15.707-4.27-7.824-6.114-16.559-5.024-26.391l-1.883-1.882c-1.265 3.507-3.84 5.707-6.785 7.539a24.2 24.2 0 0 0 2.195 8.101c1.192 2.532 3.098 2.891 4.965 7.102-5.883-3.016-9.109-7.875-10.304-13.57-2.555.374-4.356 2.261-6.532 3.39zm-35.192 72.645c4-1.821 6.848-4.168 7.16-7.665q1.192-1.886 3.391-1.757 6.47 3.012 11.937-2.008c1.821 2.891 4.168 5.152 7.664 6.031 3.348 1.117 4.313-.742 3.645-4.648-1.234-3.227-.48-6.45 1.633-9.676-3.938-6.074-19.184 1.926-28.778 2.887 9.184-16.786 18.84-32.942 29.032-48.383l-3.266-4.774-2.762 2.637-.625-3.641-12.816 3.895-16.715 39.965c-3.621 8.691-8.437 12.211-14.074 12.187-11.938.168-18.348-5.191-27.52-7.789q3.517 6.217-2.007 10.43c-2.387.625-3.141 2.762 0 3.77 3.046 1.957 6.293.929 9.675-2.137 1.883 3.265 5.95 3.851 12.188 1.758 2.312 1.695 5.937 1.82 9.926 1.507-16.379 13.614-37.536 3.977-40.469 12.567 4.629 1.191 7.269 4.375 5.527 11.937q7.542 2.51 10.051-5.527c7.477 1.484 12.965.355 14.074-6.535 6.742.496 12.524-1.293 16.59-7.16-3.141 11.203-10.262 19.625-20.105 26.14-3.016 1.18-3.641 3.758-2.637 7.285 5.015-1.109 8.808.227 10.808 5.153 6.618-1.215 3.434-7.453 5.149-11.184q7.288-1.13 7.539-10.808c4.598-1.989 6.879-6.43 5.777-14.45zm-53.918 7.789c3.809.754 5.11 3.515 3.895 8.293q-7.6 1.693-2.637 10.933c-8.793-5.66-9.934-15.492-1.254-19.226zm25.391 26.015q4.017-1.383 6.535 2.262c-2.598 5.023-3.52 9.844-.754 14.199-7.059-1.82-10.453-6.262-5.777-16.461zm103.832-149.644c-.992 23.093 6.015 24.578 14.683 30.144 3.301-2.531 6.254-5.683 9.098-8.953v-23.766c-3.098 2.516-6.504 3.649-9.195 8.012l-1.18 17.395-2.465-17c-3.644-4.215-7.293-3.887-10.937-5.828zm4.633 26.785c2.89 2.105 6.964 3.723 8.672 6.324l1.277 13.242 1.379-13.539c2.816-1.687 4.863-5.523 7.816-7.906v22.758c-3.273 3.137-6.32 6.508-8.902 10.351-2.953-4.086-6.438-7.773-10.446-11.07l.196-20.164zm-.594 23.824c3.473 2.981 6.41 6.176 8.574 9.684h-8.082zm12.223 9.688a83 83 0 0 1 7.519-8.754v8.992zm-17.528 3.148H267.5v28.992h-25.047c-7.336 0-13.34-6.004-13.34-13.34v-2.308c0-7.336 6.004-13.34 13.34-13.34zm5.199 33.027c-1.074 28.68-21.468 44.661-33.656 45.598-8.402.645-22.484-1.805-25.418-16.023-12.14 8.937-12.613 24.937-8.601 33.964 2.925 6.586 11.457 14.731 24.507 14.524 9.321-4.551 17.02-10.324 23.602-16.93q-30.017 8.592-42.59-13.597c15 15.679 34.918 15.753 45.25 7.757 11.344-8.777 17.621-28.843 21.024-55.304zm6.93-.027c-2.641 29.004-11.652 48.168-24.32 62.676-13.485 15.441-32.242 26.43-55.024 25.933 8.004 12.887 22.653 19.133 35.012 18.895 10.902-.207 23.191-2.418 34.77-20.18 5.293-10.64 10.328-21.121 13.152-34.14 3.406-15.711 4.711-33.629 4.551-53.09h-2.309c-5.07 50.601-16.344 68.918-28.453 82.242-10.035 11.039-20.762 16.305-33.633 14.223 15.199-2.258 20.649-5.653 32.774-18.582 13.875-14.789 20.566-32.145 26.746-77.981h-3.266zm11.305.582c-.735 34.824-3.789 63.465-16.5 84.953-17.102 38.91 11.972 36.258 17.957 54.391l.16-.028V447.395l-1.617.031" style="stroke:none;fill-rule:evenodd;fill:#fdd303"/><path d="M535.117 6.657v368.086c-6.148 157.089-129.554 261.054-260.328 262.691-133.262 1.664-262.672-96.148-267.797-262.691V6.657zM234.109 112.918c6.118 17.121 2.762 30.403-12.144 39-19.395 2.41-35.453-.07-31.754 21.95 13.141-15.77 17.758-5.54 26.641-8.309q-22.59 9.375-28.133 33.246c-2.555-2.262-4.613-7.613-5.133-13.086-.816-8.668-7.066-16.172-15.324-5.027-1.633-10.867-11.078-13.567-15.344-7.883-.105-14.777-10.051-15.984-14.703-9.16-.211-14.778-9.305-20.531-16.41-12.149 1.277-14.632-6.18-19.32-14.492-11.718-2.477-5.828 2.211-10.235-4.262-15.559 18.578-5.852 27.883-20.715 26-46.461-11.219-38.57-49.735-43.695-75.66-16.41-12.36 10.68-13.496 44.516-7.672 92.711-2.555 40.707 6.39 87.168-28.77 104.219 23.656 9.629 41.844-5.36 57.543-31.543l-1.703 32.179c-1.676 55.371-17.715 84.153-50.086 82.692 19.254 20.09 43.711 19.496 61.293 3.676 17.035-15.332 26.231-44.985 26.942-83.176 1.277 2.554 1.918 5.324 3.836 7.672l2.128-4.262c-2.41 34.879-7.171 69.762-13 104.644-6.77 35.957-31.445 61.223-57.543 63.723 22.645 26.895 82.571 15.813 95.27-46.246 7.18-39.578 8.883-82.613 10.652-124.254l2.344-3.836 1.918 3.621c4.387 31.852 4.137 64.481-1.703 98.039 28.055-18.879 41.496-50.812 42.84-93.562l4.261 12.359c1.215 19.434-2.847 37.32-11.293 53.922l6.18.637c-3.726 11.898-10.972 21.062-19.82 28.984l7.031.211q-6.815 17.262-24.723 14.063c2.184 10.492 8.754 17.988 21.739 21.097l-19.395 44.969c-8.027 6.395-16.054 3.836-23.441 1.277-5.61-4.332-10.442-4.757-14.918-3.406-16.301-1.633-19.781 6.18-14.492 20.461 3.48-6.074 6.961-9.484 10.441-7.031 3.02 7.367 8.063 8.328 14.492 4.898l8.735 2.344-16.411 1.703c-8.382-.711-12.074 2.484-13.636 7.457-13.196 8.422-5.942 20.781 7.031 24.934-.07-3.621-7.172-12.145-.211-10.867q6.602 5.963 14.066-4.262 10.014 2.556 14.918-7.672c3.125.57 6.25-.848 9.375-2.555l-12.785 12.785q-12.996 7.033-8.097 15.77c-4.051 14.316 2.836 19.641 14.703 20.887-6.035-5.825-6.961-11.082-2.77-15.77 6.321 1.133 9.52-2.555 9.59-11.082q6.821-2.766 6.816-11.508c4.688-2.164 7.602-6.285 6.606-14.703 3.09-1.223 5.715-3.605 7.672-7.672 3.375 2.664 7.14 1.809 11.082-.636 5.683 5.894 11.012 7.527 15.558-.211 4.973-.426 6.961 4.046 2.77 8.949 11.754-.781 16.91-18.399-1.488-21.524-5.895-11.082-18.184-.851-27.278-1.277l25.36-41.344c6.679 6.887 15.558 9.516 26.215 7.883-4.848-9.144-7.368-18.062-5.965-26.641l5.965 4.047c-2.051-16.765-.86-30.261 7.882-37.933-.004 9.097.555 17.765 5.114 23.441l.425 35.59c-26.062.258-25.652 29.438-7.671 36.445h6.816c-5.184 51.821-55.84 51.907-52.215 21.524-21.519 16.09-28.238 47.914 5.324 60.101-8.847 3.746-18.586 3.942-28.574 3.137 17.078 29.859 49.149 37.348 72.766 12.863-6.449 26.996 20.769 30.762 29.875 52.215v-50.301l12.957.106 10.219 38.152a247 247 0 0 0 37.621-7.14l-1.336-41.059q12.81-2.754 25.625-9.305l23.613 31.844a255 255 0 0 0 33.398-20.414l-14.574-36.109 20.07-17.457 31.067 21.586a265.5 265.5 0 0 0 24.781-30.317l-25.125-29.848q8.473-11.379 14.426-25.296l36.601 9.148a268 268 0 0 0 12.793-35.875l-31.625-17.809 4.645-30.105 36.18-4.945c.488-6.649.738-13.368.738-20.141 0-5.902-.207-11.758-.578-17.57l-37.067-5.887c-1.16-10.785-2.921-19.02-5.566-29.211l34.121-17.16a268 268 0 0 0-12.359-36.024l-39.071 7.024c-5.222-9.981-7.211-15.879-13.023-24.371l25.84-30.356a266 266 0 0 0-23.324-29.105l-33.336 21.414c-6.817-6.465-13.496-12.336-21.203-17.609l15.535-38.356a256 256 0 0 0-31.461-19.406l-24.578 32.539a322 322 0 0 0-26.743-9.715l2.348-42.086a247 247 0 0 0-36.789-7.172l-12.461 41.11-12.355-.317V59.254c-16.961-16.515-54.133-24.16-53.321-5.328-42.351-21.539-57.3-8.215-44.949 27.078q6.984-17.28 20.789-9.84c7.492 1.918 14.457 4.899 20.246 10.227 5.114 6.781 12.574 10.832 21.098 13.641 5.043 5.324 1.207 9.234-4.473 4.046-13.425-10.937-39-39.144-46.886-17.476 12.929-3.836 33.531 24.082 50.296 31.328zm37.196 379.493V359.45c3.929-.2 7.715-.993 11.25-2.293l51.773 121.464c-18.918 9.262-40.68 14.098-63.027 13.79zm0-155.622v-31.554c7.828.972 13.929 7.683 13.929 15.773s-6.097 14.801-13.929 15.778zm0-54.218v-131.02c22.437.258 43.851 4.922 63.422 13.153l-52.051 120.21a38.3 38.3 0 0 0-11.367-2.343zm98.582-97.922c36.273 27.004 57.324 68.75 63.137 115.742l-125.715 14.367c-1.602-9.758-6.899-18.301-14.399-24.137l76.977-105.976zm63.215 155.629c-5.696 47.562-26.739 90.121-63.551 117.242l-76.684-106.086c7.688-5.961 13.071-14.77 14.551-24.816l125.688 13.66zM85.981 121.016q.74 4.576 4.046 9.164.21-4.474 2.98-5.539c-2.624-.355-4.972-1.563-7.03-3.621" style="stroke:none;fill-rule:evenodd;fill:#1da3df"/></svg>