<svg viewBox="-21.73 -26.07 586.76 703.94"><title>Herb Dzierżoniów</title><path d="M543.301 0v381.839c0 359.953-543.301 359.953-543.301 0V0z" style="stroke:none;fill-rule:evenodd;fill:#222"/><path d="M337.145 116.089c1.383-1.921-1.059-3.695-2.824-1.304-4.129 7.695-8.258 15.398-12.391 23.097-5.433 7.7-10.355.145-6.953-5.011 3.332-3.485 6.668-6.973 9.996-10.457 1.668-2.254-.062-3.348-1.953-1.305-3.617 4.062-7.242 8.133-10.863 12.203-5.793 5.375-7.528 1.012-5.215-4.578 1.59-.578 3.187-1.453 4.777-2.613 6.664-4.141 12.028-4.793 21.305-18.961 2.473-.711 4.418-4.489 6.301-8.715-.149-6.027-.082-11.981 1.519-17.434 2.094.141 3.035-2.902 2.824-9.152-.004-2.246-2.609-2.027-2.605 0 .801 9.547-3.981 8.809-6.305 5.664-1.519-3.922-3.043-7.844-4.562-11.766-11.516 6.684-23.035 9.227-34.559 8.934-14.195 18.742-14.848 6.324-23.476 16.344-1.95 1.523-.5 3.484 1.519 1.961 1.375-1.231 2.754-2.465 4.129-3.703q-.322 1.635-.648 3.265c-.575 2.688 2.539 3.125 2.82 0l.433-3.051c1.379-.14 2.758-.57 4.129-1.304-1.14 11.847-3.296 23.699-16.082 30.293-7.242 3.168-12.312 2.777-18.257 2.828-3.762-.293-4.34-3.93-1.739-4.356 3.571.418 8.844-.054 11.75-1.316 2.906-.785 2.422-3.203-.652-2.418-3.313 1.008-8.426 1.664-11.961 1.074-3.051-.867-4.133-4.527-1.305-5.398 10.11.765 14.895-4.098 14.344-12.203.367-5.879 3.918-10.313 10.648-13.293 2.825-.969 2.481-3.793-.214-3.266-3.625 1.52-7.172 3.41-10.215 7.844-6.809 8.351 2.679 19.758-15.215 18.523-.938-1.012-3.906-5.226-2.609-7.844-2.606-7.117-2.094-13.289 4.566-14.597 6.738-2.539 19.34 1.453 22.82-12.856 4.274-8.062 12.028-14.453 23.91-20.703 13.641-8.469 24.403-7.504 35.864 4.141 13.636 5.394 18.957 11.168 19.343 23.535.082 7.777-2.675 13.078-6.085 20.266-.036 18.742-4.02 34.722-12.172 41.843-5.356 2.977-9.485 2.688-6.52-1.523l12.387-22.664zm-79.34-26.152c-3.832-.07-7.555 1.668-7.879 5.637-.406 2.726-2.863 3.043-2.555.461.653-5.668 4.161-8.426 10.02-8.282 2.758-.078 2.125 2.301.41 2.18zm14.504 10.844c-1.27 2.59-2.938 4.929-5.184 6.887-1.754 1.406.114 3.5 2.172 1.933 2.254-1.898 4.012-4.437 5.297-7.609 1.289-1.973-1.043-2.735-2.285-1.207zm-6.148-6.766c-.399 1.852-1.282 3.465-1.688 5.317-.68 2.128 1.887 2.773 2.77.355.437-1.609 1.121-2.98 1.562-4.59.879-2.011-1.848-2.414-2.648-1.086zm31.816-25.496-1.926 3.625c-.922 1.004.242 3.211 2.047 1.57.875-1.007 1.594-2.339 2.168-3.984.563-2.535-1.285-2.937-2.289-1.207zm3.375-12.324c3.379-.16 2.418-2.777 0-2.656-12.086.921-20 7.64-23.738 20.179-.727 3.344 1.761 3.543 2.648.965 4.231-10.691 11.078-17.148 21.09-18.484zm-11.328 13.172c-.692 2.457 2.199 2.894 2.769.722 3.344-9.211 11.793-13.14 24.465-12.687 3.449.359 4.133-2.734.961-3.141-16.043-.355-25.652 4.508-28.199 15.102zm33.019-9.305q-4.33-.546-6.746 1.809c-2.281-.934-4.574-.731-6.867-.364-3.449 0-3.449 2.934-.359 2.657 1.886-.321 3.781-.528 5.664.117-1.606 5.879 2.933 4.828 2.527 3.019.117-2.898 2.055-4.351 6.027-4.347 2.329.355 2.852-2.543-.242-2.899zm10.125 3.379c1.426 1.687 2.547 3.375 3.012 5.074.797 1.848 3.77 1.563 2.891-1.207-.305-1.656-1.594-2.988-2.532-3.984-1.972-2.856-4.175-1.848-3.375.117" style="stroke:none;fill-rule:evenodd;fill:#fff"/><path d="M449.039 344.011c-.21 1.75-.351 3.641 0 4.836-2.019-1.89-5.511-2.941-9.222-3.152 1.402-2.102 5.035-2.942 9.222-1.68zm.418 14.504q.521 3.044 1.047 6.098c-5.308-1.403-8.66-3.649-10.062-6.727 3.215.84 6.359 1.477 9.015.629m33.125 37.418-2.3 3.574c6.547 3.567 12.515 7.137 17.398 10.719q13.406-.525 16.77-10.297-23.067 3.041-31.868-3.992zm-16.351-20.387c4.402 3.219 5.453 9.875.629 13.032-3.774-2.313-3.774-8.969-.629-13.032m-14.774-33.832c1.223-7.925 5.829-7.355 9.606-1.128 3.289 6.601 5.644 13.214 5.934 19.828 15.324-1.578 19.226 30.379 9.32 39.66 5.551 2.84 8.594 4.297 15.543 9.347 13.086 7.551 4.039 17.09-3.391 9.063-5.555-3.777-9.137-9.535-16.668-11.328-3.008-1.039-3.293 1.887 0 2.832 11.863 3.113 18.363 20.109 27.969 11.898 7.863 5.559 10.027 10.098 9.605 14.16-9.226 2.215-20.816-2.41-37.578-22.097-2.168 10.761-7.347 16.996-15.535 18.695q-21.186-.142-22.039-9.348c-13.992-2.293-21.41-17.918-20.059-32.011 1.415-6.141 8.192-5.477 8.192-.567-.942 13.555 5.836 25.266 29.098 18.414 8.941-4.156 10.164-17.847 5.367-28.613-2.918-9.348-6.688-28.613-5.367-38.812zm12.258 24.157c-.418-3.637 2.86-3.071 3.145-.207.203 2.519.203 5.043.414 7.566 6.387 4.406 6.32 14.359 1.258 17.023 0 4.411-3.141 3.989-3.563 0-5.105-5.183-3.008-12.683-1.047-16.812l-.211-7.566zm-4.195 43.726q-6.598 10.927-19.078 8.406c-3.91-1.046-3.625 2.313-.418 3.153 8.707.738 16.664-.735 22.012-10.086 1.394-3.016-1.332-3.926-2.516-1.469zm4.613-9.25c.141 1.399-.281 2.516-1.258 3.363-2.168 1.887.411 3.708 2.723 2.309 1.324-1.754 1.676-3.504 1.887-5.254.07-3.222-3.145-3.367-3.352-.418m-187.636 159.34c8.929-13.328.445-21.215-15.926-17.656q-12.78.315-4.614-11.141c6.239-13.332 7.071-20.262 7.129-26.273.282-7.219-3.203-4.067-3.562-.629q-4.816-.84-8.805-5.043c-2.098-2.102-4.398-.629-2.098 2.101 2.653 3.434 7.129 5.536 10.899 6.727-.141 6.863-1.676 13.234-6.289 21.227-3.617 8.191-14.203 5.953-20.125 1.05 4.418-5.816 1.101-14.507-5.031-20.179-6.637-3.641-1.954-24.102-2.934-36.153 7.309-4.289 21.773-4.617 40.254-2.73 3.641-11.356-2.02-18.707-14.047-23.328 14.535-8.098 29.981-14.821 46.75-19.547-1.004 8.086-.867 16.566-.203 25.223-14.801 3.933-24.953 11.472-32.492 21.019-1.813 1.605.351 4.27 2.094 2.313 8.367-9.411 18.324-16.313 30.605-19.551.672 5.105.945 10.226 1.047 15.343-11.348 3.481-14.074 11.293-4.188 25.434 8.301 1.637 16.371 1.012 24.11-2.937q3.562 6.403 11.32 9.457 5.975 4.09 14.465 4.832 10.905 3.773 25.156-1.676c-4.394-7.66-9.703-13.715-16.351-17.445-2.965-4.661-7.09-7.391-11.739-9.247-2.715-4.492-6.425-7.015-10.269-9.25q-2.615-2.102-5.242-4.199c2.304-1.543 4.613-3.082 6.918-4.625 2.378-.984.277-3.363-1.258-2.101l-6.918 4.414c3.672-9.813 7.094-19.621 9.644-29.43l15.301-.84c-8.519 5.809-10.125 11.203-9.219 15.766 1.121 3.355 3.563 3.219 2.93 0-.859-4.418.656-7.988 8.172-13.242 12.312-11.496 8.605-21.93-1.465-33.422-3-2.664-3.957-.426-2.098 1.679 7.012 9.321 12.125 18.493 3.981 26.696l-16.77.629c3.2-12.243 6.164-24.254 8.805-35.946 4.125-.273 8.523.286 13.203 1.68 14.957 3.488 21.664 29.867 1.891 41.199-15.164 8.574-17.473 16.492-11.742 22.071 2.589 2.308 4.543 1.05 3.351-1.68-1.117-2.313-.344-2.102.418-4.621 8.598-14.153 38.785-.559 56.813 6.722 23.253 6.793 45.25 9.922 61.214-4.625 6.399-7.132 3.954-19.851-5.238-24.8 4.332-3.575 7.27-7.707 8.805-12.403 5.496 5.723 13.152 11.645 20.336 16.817.625 6.722 1.043 12.816 1.047 19.547.14 29.746-16.836 43.254-48.008 43.3-16.695 1.356-33.399.395-50.106-1.05-3.593-17.805-17.14-22.743-26.625-24.383-2.793-.426-4.265 2.66 0 2.941 11.746.86 26.774 12.836 22.43 29.008-5.328 13.633-29.035 13.828-51.781 10.297-16.442-1.332-31.274-.215-43.813 2.941.325-4.179-.164-8.59-.418-12.187.141-4.207-3.351-2.387-2.933-.211.566 10.777.847 21.144-8.172 18.914 1.828 12.902 12.629 9.504 14.465 17.867 1.258 3.922 1.258 7.844 3.769 11.77 4.367-6.551 12.059-12.934 27.043-18.918 6.219-2.313 6.985-13.875 19.074-7.356 3.286 1.61 4.407 7.281 1.047 8.617-11.949 5.813-14.465 21.09-35.851 17.446-4.957-.559-5.727 1.605-1.047 3.359 17.074 3.309 23.75-2.262 35.223-16.394 5.101-4.137 13.488-2.598 9.433 5.253-15.058 19.981-23.305 20.016-58.699 17.024-8.836-.914-10.371 2.023-8.594 6.726.703 5.633-5.515 10.887-14.883 15.973.106-8.254-3.871-13.543-13.836-14.5 4.543-6.598 9.52-6.402 14.25-13.66zm-10.903-33.004c2.52-3.707-1.254-4.265-3.14-1.051-4.426 8.805-1.801 13.743 11.109 13.032 4.469-.629 2.226-4.344-.418-3.571-8.668 1.395-11.18-1.402-7.543-8.41zm6.711 33.637c-5.375 3.293-9.637 7.14-12.785 11.558-4.535-3.57-15.789-.628-12.367-4.414 3.894-3.714 4.847-7.421 4.82-11.136 2.164-6.231 10.34-3.219 20.332 3.992m32.074-10.305c-1.324-3.429-2.652-6.867-3.98-10.301 6.148-4.546 15.445 3.293 17.609-9.457.766-3.504 12.293-4.55 15.93.211-3.703 5.532-11.387 4.973-19.285 11.559-4.262 2.101-7.688 4.766-10.27 7.984zm104.981-46.816c4.707 2.265 6.308 6.609 6.496 11.898q-6.072-3.258-12.149.281c-5.75.946-10.836 1.329-11.3-2.265q3.675-4.817 3.953-10.766 6.493.423 12.992.852zm8.57 11.179c2.504-.976 6.121-1.839 9.559-.597.968-4.457.586-8.383-4.282-10.453-3.222.472-6.437.324-9.66 0 3.203 2.984 5.16 6.472 4.379 11.054zm10.059-10.757c1.593 1.472 2.523 3.367 1.992 6.175 6.933-1.183 10.812-3.031 9.262-6.074-4 .461-7.789.488-11.254-.097zM298.954 398.175l-1.278 8.731q-32.4.382-64.812.769c8.133-10.117 10.992-21.632 6.148-35.187 16.809 11.031 36.985 19.449 59.942 25.683zm-64.043 12.332c20.918.082 41.582-.855 62.507-1.027.168 4.621.594 10.527.766 15.152-21.051 7.446-35.055 12.836-52.004 22.348-4.363 2.137-6.254-.605-2.305-2.824 13.946-13.32 2.122-27.617-8.964-33.645zM49.176 358.628c20.008-4.597 18.605 22.235 27.91 33.356-5.105 2.809-7.523 5.617-9.559 8.434-6.117-13.93 0-25.942-18.351-41.79m55.445 132.657c-8.457 4.008-26.898-5.856-28.296-.383 6.312 2.59 11.156 6.41 5.734 18.785-2.91 8.836 12.918 4.523 16.82 4.109 11.309-4.66 17.43 2.852 18.356 21.571-.985 7.902 12.269 14.383 15.676 4.597q3.247-5.173 6.5-10.347c-6.606-2.274-3.719-8.446-10.325-5.856-4.406 2.219-6.211-3.508-6.882-7.941-.868-13.125 9.941-17.488 14.91-37.188.98-2.679 4.074-2.027 2.465 2.196-4.336 14.078-12.805 22.804-12.754 29.097 3.066 3.801 7.675 5.743 13.347 4.356 4.86-1.684 11.137-1.379 10.567 4.812 8.566-4.672 20.129-6.047 38.687-.734 1.18-2.559 4.195-5.359 7.336-7.91-.555-13.246-3.058-19.68-4.586-29.52-9.453-.765-19.719 2.321-31.769 8.047-6.235-15.195-16.286-30.816-23.813-34.57-8.39-5.289-16.863-.957-20.058 26.875-4.012 7.988-2.735 8.707-11.918 9.996zm-6.117-1.918c-8.668.379-22.933-7.754-26.242 1.879-13.45-6.676-25.035-39.075-17.727-63.606 4.203-14.515 11.852-26.824 25.79-34.851 16.379-8.45 37.257-7.379 46.093 9.16 10.18 14.172 3.805 41.898-11.086 44.961-15.48 2.718-27.882-3.324-39.386-20.805 2.1-5.906 5.492-10.355 8.238-12.371 9.18 12.703 20.465 13.484 22.906 3.555 2.133-11.903-10.574-17.957-24.988-5.75-12.985 10.629-13.875 36.714-2.188 54.41 5.375 8.004 15.735 14.812 33.848 15.32-3.281 8.258-5.949 7.652-15.254 8.094zm37.219-28.153c-5.105-.648-6.973 1.942-5.598 7.789 1.137 1.946 3.25 1.946 2.676 0-1.129-3.976-.074-5.847 2.676-4.867 2.191.727 3.328-1.461.242-2.922zm5.356 65.735c1.535-2.102 4.05-4.215 7.546-6.328.411-3.328-1.199-6.176-9.25-3.649-5.472.895-10.097-1.617-14.363-5.109.074 4.383.731 10.07 3.406 9.004 10.145-2.27 7.629 5.683 12.657 6.086" style="stroke:none;fill-rule:evenodd;fill:#39a66d"/><path d="m243.403 108.363-.047-.168.082.117q-.013.024-.031.047zm-2.797-23.106c1.918-35.043 31.094-63.039 66.605-63.039 36.743 0 66.711 29.969 66.711 66.711 0 25.59-14.539 47.891-35.773 59.074-2.5-1.75-5.156-3.269-7.949-4.605 11.14-7.648 14.816-23.672 15.097-43.496 12.465-22.543 8.539-37.699-10.304-46.137-5.321-1.207-8.25-6.297-12.375-8.047-9.77-4.902-20.032-3.828-29.809 3-12.102 5.301-19.926 13.516-25.641 23.309-.773 6.578-9.972 8.66-20.371 10.09-3.226-.203-5.156.984-6.183 3.136zM102.473 21.406c-2.094-1.696-6.473 1.691-4.72 3.855L114.369 43.5q2.442-2.546 5.593-2.981zm47.731 52.418 198.027 216.91q.18 4.823-3.395 5.105L143.715 75.605c2.164-.59 4.328-.742 6.492-1.777zm215.945 245.293c1.492-.067 3.406-.793 5.937-2.485l80.832 88.461c-1.648 1.739-3.523 2.676-5.605 2.813zm-93.844 269.367c.414-7.774-3.07-11.629-10.48-11.559-13.34 1.602-16.762 20.34-3.77 23.336-1.637-4.453-1.984-8.801 2.516-11.562 5.937-3.078 8.597 2.383 11.734-.211zm-23.48-31.949q-.315 4.406-3.981 8.824c-2.582-3.754-5.933-4.031-9.64-2.731 1.847-5.714 5.625-8.796 13.625-6.093zm112.789-14.926q1.46 2.409.418 4.836c2.093.07 4.187 2.098 6.285 6.094 2.082-5.407.121-9.485-6.707-10.93zm-8.383-12.191c2.254 2.511 2.215 5.039 1.676 7.562 2.297-.195 3.695.629 5.449 2.102 1.043-.422 2.512-.071 3.562.628-1.679-8.792-5.66-11.031-10.691-10.296zm52.25-12.352c2.32-1.594 5.473-2.023 10.453.098-.215 8.535-4.5 13.3-12.148 14.937 3.851-4.867 3.683-9.91 1.691-15.035zm21.808-1.594c-.199 7.668-7.168 10.223-10.453 7.367 3.899-1.16 4.2-3.687 2.188-6.273 1.859-.668 4.812-.965 8.265-1.094m2.293-3.785c1.856.289 3.715-.273 5.575-.797.078 3.442-1.782 5.91-6.473 6.969 1.598-1.156 2.762-2.617.895-6.172zm-355.207-18.09c5.594-.242 10.305 6.727 5.11 14.606-4.055-2.274-9-1.875-14.364-.243.668-5.582 4.04-10.734 9.25-14.359zm67.922 37.004a8946 8946 0 0 1-5.355 9.735c6.406-.567 10.547 2.105 12.414 8.031 3.324-10.543 0-15.676-7.059-17.77zm1.219-2.191q1.823-3.407 6.57-5.84c6.77 4.055 9.852 10.219 7.543 19.473-1.625-3.172-3.734-4.633-5.355-5.84q-1.46-5.357-8.762-7.789" style="stroke:none;fill-rule:evenodd;fill:#fff100"/><path d="M352.825 266.398v-31.426c-.973-3.926-.973-7.195 0-9.82-2.036-1.551-3.418-3.43-4.157-5.645-10.039-7.765-20.074-16.785-30.121-26.515q-10.52 19.641-23.996 34.371l46.278 50.332c2.898-7.082 7.144-10.113 11.996-11.293zM529.473 13.832v268.152h-32.684v26.211h-35.3v-26.211h-47.692v26.211H378.5v-.258c2.387-6.266 1.981-13.133 0-15.648v-10.301h-.437c.527-2.988.988-6.203.316-9.297 3.43-1.043 4.95-3.363 4.551-6.969 2.074-8.89 4.152-17.785 6.231-26.676 3.191-3.847 3.753-7.687 3.113-11.531q7.06-18.743-7.906-23.066c.714-7.774-2.957-10.254-8.625-10.328.566-4.082.101-8.723-7.668-17.301-6.125-6.949-11.375-10.992-15.578-11.531-2.965-6.579-7.059-11.555-11.895-15.446 21.48-11.84 36.098-34.707 36.098-60.89 0-38.266-31.211-69.477-69.481-69.477-38.265 0-69.476 31.211-69.476 69.477 0 9.5 1.921 18.566 5.402 26.828-15.309-3.395-29.508.254-43.074 7.929-15.774-17.128-31.422-34.48-47.203-51.609 2.328-2.504 2.031-6.027-1.422-8.336 1.086-6.707-3.227-10.156-9.055-12.707.363-5.711-4.125-7.176-9.309-8.035-1.113-3.449-5.078-4.055-10.343-3.367L103.86 18.652c-4.653-3.973-12.754 2.859-9.567 8.035 6.036 6.484 12.067 12.965 18.102 19.445-1.563 11.758-2.422 23.086 1.551 31.379 1.886 3.117 1.523 8.492 1.293 13.742q-2.713 3.883-.258 7.778c.305 24.156 2.976 43.351 10.863 51.605-.769 8.856 1.031 15.34 8.531 16.594 3.008 8.133 7.219 15.148 19.914 14.262 5.133 2.285 11.344 2.203 19.915-3.11v-1.812a1398 1398 0 0 0 38.277-6.742q.901 22.946 1.808 45.898c.692 5.789.344 10.895-1.031 15.301-16.465 12.207-27.597 30.168-36.117 50.969h-12.312v26.211h-35.301v-26.211H81.836v26.211h-35.3v-26.211H13.851V13.843h515.645zM330.797 285.503v22.696h-10.511c-2.594-4.961-5.575-10.324-9-16.324.558-.375 1.121-.754 1.683-1.125-5.195-16.497-13.812-33.848-25.004-51.836l42.836 46.593zm-82.996 21.848v.848h-4.355c.234-1.574.465-3.164.683-4.778 1.059 1.516 2.266 2.848 3.672 3.926zM140.563 77.23q23.789 25.929 47.59 51.863c-7.582 2.852-14.711 5.532-22.293 7 0 1.469 1.09 4.188 1.09 5.66-.786-1.402-2.973-2.648-3.442-1.628-.203-3.313-2.824-5.922-3.5-4.934-1.051-7.246-2.469-7.66-3.668-7.648-.687-7.348-10.172-15.473-16.808-30.602 1.562-4.684-.504-6.922-3.102-8.816q-1.02-5.968 4.137-10.891" style="stroke:none;fill-rule:evenodd;fill:#0fb1ee"/><path d="M118.039 92.609c-2.628 1.105-2.273 5.199.52 4.91 5.648-1.082 11.305-1.609 16.965-1.754 3.902-.262 2.558-5.644-1.922-5.433a89.7 89.7 0 0 0-15.563 2.277m-.699 7.539c.535 23.453 3.414 41.195 10.492 48.754 7.055.988 12.477-1.289 16.266-6.84q-7.261-21.834-14.516-43.668c-4.406-.391-8.308.723-12.238 1.754zm15.043-1.926c1.746-.172 3.492-.347 5.246-.523 5.477 15.137 15.508 21.16 16.438 31.742-2.567 4.387-5.137 8.18-7.696 10.695q-6.991-20.957-13.988-41.91zm-4.375 52.965c-1.222 9.469 1.508 14.023 8.219 13.68 7.82-4.426 15.262-11.586 21.687-26.305-.519-9.027-1.863-8.605-3.32-6.84-10.004 18.203-18.461 20.485-26.586 19.465m9.274 15.609c1.922 8.711 7.339 12.743 16.269 12.098 5.973-8.766 7.778-21.391 7.696-35.773q-.88-6.928-2.45-1.227c-6.695 13.77-13.886 21.895-21.511 24.902zm19.238 12.454c5.769 1.816 10.844.234 15.391-2.805-1.461-11.629-2.161-20.809-4.547-29.633-.879-3.562-3.969-5.316-3.848-1.402-.699 16.429-3.035 27.715-6.996 33.847zm15.57-21.047c11.719-2.805 22.735-5.61 34.453-8.418l-17.14-18.942c-6.883 3.332-14.114 5.282-20.989 7.188.875 6.722 4.028 15.375 3.676 20.168zm.524 2.101c.519 4.5 1.047 9 1.57 13.504 12.152-1.113 24.629-3.512 37.258-6.488l-.352-13.149q-1.22-1.226-2.445-2.453c-12.008 2.864-24.024 5.727-36.031 8.59zm40.929-3.328.352 9.82 6.992-1.753-7.348-8.067zm-11.191-31.219q15.387 17.01 30.785 34.02c12.285-3.895 19.559-12.469 19.621-27.77-1.605-1.988-3.652-6.004-4.14-8.683-2.989-.645-3.536-3.117-4.247-4.797-15.843-3.785-29.542-.348-42.011 7.234zm12.766 43.321 2.097 46.297c12.446 4.375 27.953 6.957 46.004 8.066q2.436-4.209 3.496-8.418l-44.078-48.051zm20.117-6.84c11.664-4.942 18.488-13.852 20.472-26.738 7.848 8.668 18.497 13.617 29.79 17.472-1.626 18.215-6.743 35.578-13.356 49.25zm72.226-9.539c-3.086 4.851-8.047 11.199-11.136 16.054 1.504 6.567 9.394 16.657 19.898 22.418-6.852 13.551-14.539 25.196-23.262 34.551q-9.44-10.523-18.886-21.047c5.687-10.043 10.398-24.679 14.164-51.379 5.304.536 13.922.258 19.226-.597zm-38.644 64.781a35.6 35.6 0 0 1-2.625 6.313q4.37.346 8.746.699c-2.039-2.34-4.082-4.676-6.121-7.012m-51.598.352c.235 4.613-.226 9.23-1.398 13.851 20.906 5.074 44.375 6.313 69.965 4.383q-4.459-4.823-8.922-9.645c-30.575-1.128-46.399-4.656-59.645-8.589m-2.801 15.609c-16.574 12.645-28.308 30.664-36.027 53.137 1.398 9.035 11.137 5.523 24.66-3.68 8.715 18.297 19.32 24.605 34.106 4.559 9.886 19.429 19.89 28.234 30.257 6.488 1.567-4.219 5.997-7.336 9.969-2.102 13.465 17.68 18.711 10.973 20.988-4.558 3.555 3.355 7.11 4.816 10.668 2.101-2.054-11.718-11.765-30.019-23.613-50.156-31.703 1.879-55.179-.203-71.015-5.785zm-12.769 54.719c-7.098 3.968-12.254 6.773-16.09 7.015-.516 29.411-.887 57.43 0 78.395 6.008-5.926 12.012-14.942 18.012-25.078 2.765 8.855 5.734 17.504 9.445 25.429 9.75-21.304 14.848-45.16 14.34-72.078-8.785 5.035-18.625 1.551-25.711-13.679zm20.094 92.062c8.754-25.488 16.093-52.929 19.961-79.262-2.215-3.042-3.903-5.382-4.719-8.417-1.399 2.679-3.5 5.136-6.297 7.363-1.262 31.89-6.027 58.656-15.813 75.93 3.223.761 5.52 2.222 6.872 4.382zm-6.875 35.426c13.687-.773 12.488-35.262-2.024-37.344-3.375-5.554-6.758-12.742-10.14-21.566a208 208 0 0 1-12.418 15.957c8.703-2.305 16.894-.414 23.261 16.484.407 3.035-2.504 3.797-3.492.172-6.019-20.066-25.176-15.453-25.187-6.664-1.743 15.598-.168 25.918 3.671 32.621 10.352 2.035 18.809-2.195 24.489-15.605 1.051-3.68 3.847-3.157 3.144-.528-5.547 15.926-15.254 21.309-27.808 19.465-1.192 3.508-1.364 7.016.699 10.524 3.148 3.972 7.348 8.125 10.492 9.289 1.606-10.895-5.234-20.078 15.313-22.805m-25.637 18.074c-1.402 16.485 7.867 50.856 9.793 76.465 3.988-1.172 9.168-2.848 13.644 1.227-3.242-26.735-2.597-45.414.7-58.575 2.793-7.722.574-26.308-4.02-33.144-11.016 1.344-4.547 16.363-6.82 24.551q-8.048-5.262-13.293-10.524zm26.238 76.114c-2.828-16.997-3.293-35.571-.523-52.086 3.738-12.965 4.097-19.387-2.797-39.282 3.437-1.168 5.828-.23 10.32-3.508 3.961 12.825 5.594 24.641 2.098 34.2-3.266 8.937-1.981 33.316-2.973 49.98.051 6.137 1.274 11.395 5.07 14.731 10.317 9.175 2.68 18.351-6.121 20.168.536-7.024-1.238-13.789-4.894-20.344q-.083-1.926-.172-3.859zm-5.422 31.394c-.535-15.559-9.015-23.598-17.14-21.922 5.32-8.551 17.25-12.664 22.562.176 4.465 16.781 2.594 21.277-5.422 21.746m-26.062-10.695c1.629-7.594 11.015-10.696 16.09-6.313 8.855 9.992 8.39 21.742-1.399 24.375.875-10.582-7.988-19.285-14.691-18.058zm-11.895 26.656c1.098-7.938 4.192-15.672 9.965-23.148 6.762-4.852 17.422 9.117 12.942 16.132-7.641 3.215-15.282 5.668-22.911 7.016zm145.055-413.66c1.73.273 2.941-.43 4-1.067-.066 2.2 4.195 2.438 6.195 1.907 11.797 5.293 18.699 12.98 22.961 22.316-.719 10.457-12.789 17.328-32.625 21.742-9.629-5.261-16.199-11.758-18.293-20.043 5.848-8.066 11.91-16.789 17.758-24.859zm35.988 25.047c-2.633 9.101-10.804 14.398-21.5 17.965 7.606 7.558 17.16 15.503 26.781 23.066 4.618-3.438 9.583-7.727 13.766-14.367 2.274-3.239.672-8.543-6.601-16.824-5.407-6.051-9.555-9.332-12.446-9.832zm-23.949 18.531c6.992 7.129 16.641 15.547 27.156 24.203a4338 4338 0 0 0-6.597 5.859c-10.375-8.195-20.746-17.339-29.61-27.043a64 64 0 0 0 9.051-3.023zm23.762 29.879c-3.098 2.898.109 7.371 3.769 6.238 10.547-4.824 19.125-9.73 24.137-17.586 3.453-7.215-3.523-11.117-6.977-7.75-5.109 6.102-12.308 12.5-20.933 19.098zm9.054 5.859c7.161-3.594 14.329-8.062 21.5-15.691 8.231 1.703 10.426 8.195 6.598 19.472-4.582-2.761-15.461-3.55-28.101-3.781zm-5.281 2.082c-2.961.059-3.078 8.188.188 8.508 11.535-.82 21.964-.07 29.988 4.16 2.824-3.148 3.641-6.051 2.449-8.695-6.637-3.313-18.453-4.195-32.625-3.969zm7.731 10.024c8.609.472 16.277 1.726 21.875 4.726l-5.844 25.336c-5.422-2.078-11.192-3.043-16.594-3.59zm-2.258.375c-.063 9.515-.125 18.086-.188 27.605 5.59.692 12.317 1.387 17.348 3.594 2.133 1.637-.379 4.16-3.582 3.594-6.668-1.426-13.328-2.305-19.992-3.211q-.75-15.698 0-31.391l6.414-.187zM259.25 308.941c3.981-2.875 7.219-6.496 9.719-10.871 12.18 26.101 28.879 46.543 51.031 60.168-1.253 4.496-3.746 8.996-7.476 13.492-22.746-15.684-40.508-36.617-53.274-62.789m10.942-13.066c1.312-4.028 3.176-4.758 5.594-2.176 10.925 14.328 19.957 17.976 24.851-1.867 1.645 1.836 4.754 1.871 8.074.933q9.78 16.343 17.082 32.703c.774 8.692-.464 18.399-4.656 29.594-19.617-11.34-36.297-32.055-50.949-59.184zm58.582 37.921c-2.356 17.082-6.559 31.204-14.426 39.473 10.309 4.098 19.434 13.516 24.938 31.617 2.628-5.562 4.031-13.316 3.914-19.426-6.457-8.148-14.356-10.968-22.465-13.019l15.254-22.109c-1.578-8.817-3.989-14.325-7.211-16.532zm-4.121 37.407c4.394-6.27 8.789-12.535 13.187-18.805 8.328.254 15.973 20.898 7.004 30.793-5.191-6.793-12.265-10.168-20.195-11.984zm-22.879 103.949c-.203-20.527-.406-38.988-.613-59.516-.067-13.363 3.98-26.73 12.156-40.09 2.469 1.231 4.945 2.403 7.418 4.754-17.242 23.075-6.66 46.356-12.156 77.493-5.286 14.531 1.371 23.492 14.011 9.917 2.196 1.579 4.805 3.579 7.004 5.165-1.031 8.019-3.437 15.179-8.863 20.461-3.231-1.657-5.5-4.754-7.621-8.059-.203 2.82.961 5.367 3.5 7.644-6.797 3.079-13.598 4.145-20.403 2.274-7.773-12.539-4.785-18.531 5.563-20.043zm20.816-93c5.699 3.473 11.055 11.254 15.66 28.519-3.734 18.45-9.043 36.372-16.074 53.731-10.508 13.082-14.972 7.43-12.16-2.066 5.699-24.594 1.926-29.758 2.883-44.637-.735-13.559 2.734-25.305 9.687-35.543zm9.481 93.207q-3.597 13.94-9.684 19.629c1.938 3.578 4.86 5.851 8.445 7.234q9.164-6.821 9.274-19.426c-2.68-5.187-5.363-6.187-8.035-7.437m10.304 8.473c3.129.996 6.079 2.851 8.653 6.613-6.395 9.512-7.633 13.848-7.418 16.738-4.739-.344-8.719-1.723-10.715-3.719 5.875-4.566 9.105-11.218 9.48-19.632m10.512 7.851c-4.355 6.574-7.172 12.289-6.594 16.117 5.149 1.305 11.95.953 20.403-1.031-3.672-6.273-8.485-11.027-13.809-15.086m-101.601-368.84c4.418.692 8.832.18 13.253-.867 9.739 12.492 22.481 19.758 40.93 15.984 2.102.508 4.336 1.149 6.301-1.351-.414 2.672 1.164 5.262 3.273 6.351-2.027 2.543-3.914 4.801-5.945 7.348-26.227 5.278-52.023-9.867-57.816-27.461" style="stroke:none;fill-rule:evenodd;fill:#e6e7e8"/><path d="M118.563 89.98c4.281-.93 9-1.57 14.691-1.574-.57-6.547 1.903-10.871 6.473-13.68 3.148-2.16 7.687-1.168 10.492-3.855 2.52-1.864-.105-6.539-4.367-6.133-2.625.523-5.016 1.285-7.172 2.277-2.098.821-3.387-1.742-1.398-2.629 2.91-1.222 5.941-2.328 9.793-2.629 2.765-2.132-2.657-7.976-7.516-7.539-1.926 1.461-4.375 2.571-6.297 4.032-2.242 1.55-3.941-1.192-1.57-2.981 2.215-2.043 4.426-3.269 6.644-4.383 2.973-1.836-2.91-6.16-6.82-4.73l-4.195 3.68c-2.914 1.871-3.614-.461-1.571-1.754q2.27-1.748 4.543-3.508c.114-3.008-6.238-4.114-10.664-1.051-3.402 2.168-4.57 5.613-4.722 9.645-.625 9.355-1.801 18.703 2.273 21.918 1.75 4.386 2.328 11.519 1.399 14.906zm236.461 178.441c7.457 1.254 15.008 2.516 20.933 3.778.938 3.906-1.507 11.027-1.128 16.261.433 5.672 3.707 5.481 3.015 13.614-3.305 9.57-6.949 13.605-10.75 15.125-3.055 1.097-4.75-.981-2.449-1.887 1.441-1.824 2.891-3.656 4.336-5.48 1.941-4.536-.629-4.789-2.074-1.891q-2.45 4.909-7.168 9.074c-5.469 1.317-8.047-3.66-4.903-4.726 3.926-3.086 6.633-6.684 9.055-10.778 2.195-3.152-.887-3.09-1.699-1.695-2.266 4.484-4.785 8.168-9.051 11.152-3.781 2.328-6.922-3.281-3.77-4.347 3.27-2.457 5.844-5.485 8.11-9.453 1.32-2.458.25-3.657-1.508-1.512-2.226 4.094-4.93 7.558-8.676 9.64-2.281 1.766-4.863 1.633-4.336-6.808 4.625.691 7.828-2.836 7.918-7.184-.625-4.605-.242-9.203 1.129-13.804-5.215-.442-2.324 4.222-5.469 6.617-1.128-1.387-2.261-2.774-3.39-4.16.551-4.032 2.242-8.008 11.879-11.536zm-73.961-159.089c-4.121 5.98-9.41 9.832-14.125 11.765 8.566 12.071 21.027 18.578 37.715 15.547-1.203-2.258-.981-4.512-.11-6.832-15.199.957-21.613-6.922-23.476-20.484zm1.992-2.918c.859 9.945 3.949 17.359 11.027 20.25 6.622 2.336 13.457.722 20.508-4.828 7.461-3.876 12.09-9.774 16.625-15.731 3.383-2.434 4.782-4.875 5.282-7.316-1.79-6.137-12.973-10.106-17.243-5.45-4.711 4.204-4.761 7.786-6.211 13.707.114 9.036-12.543 7.024-12.738-.621.258-2.754 2.43-2.547 2.637-.156 0 5.5 8.387 6.59 8.078-.461.773-3.582 1.09-5.297 2.488-8.879 4.5-8.988 11.071-8.57 17.242-5.918 2.641.934 4.661 2.496 6.059 4.672-.52-4.562-.367-8.976.777-13.551-3.156 1.192-6.058-2.957-8.39-12.148-10.133 4.742-20.942 6.988-32.313 7.16-1.5 3.219-4.66 6.442-9.476 9.656-.129 6.981-1.731 13.473-4.348 19.625zm9.477 4.207c3.922-.098 6.683 1.101 7.297 2.156.644.82-.184 2.402 2.683 2.137.52-.328 1.367.449 1.652 1.285.895 1.84.399 2.414 1.407 3.761-2.485-.624-4.703.579-7.457-1.246-.739-.867-1.344-1.554-2.016-2.023-2.992-2.492-2.383-4.047-3.57-6.074zm19.265-23.368c-.058 3.235 3.668 3.278 2.95-.464-2.176-5.086-8.075-7.055-17.711-5.918 8.347.675 14.722 2.398 14.761 6.386zm-5.343 3.965c-2.555 2.219-6.875-3.57-8.098-6.008-.945-.699-2.102-.171-1.574 1.262.488 1.231 1.16 2.492 1.679 3.16.516 2.551 1.528 3.848 3.996 4.43 1.809.574 4.442-.094 5.575-1.578.98-.774-.598-2.106-1.578-1.266m15.035 8.215c-.438 3.145 6.324 3.59 8.863 3.309 1.043.379 1.207 1.562-.191 1.879-1.215.242-2.551.355-3.336.293-2.282.886-3.813.754-5.532-.891-1.375-1.129-2.203-3.531-1.609-5.187.113-1.168 1.973-.614 1.813.589" style="stroke:none;fill-rule:evenodd;fill:#f7adaf"/><path d="M13.898 382.539c-.007-1.032-.07-2.028-.07-3.067v-29.789h24.32v32.86h-24.25zm515.575-32.871v29.8c0 1.035-.062 2.028-.07 3.059h-24.614v-32.859h24.688zm-.176 37.339c-.254 11.336-1.058 22.293-2.406 32.86h-23.426a54 54 0 0 0-2.086-1.614c.426-1.648-.172-3.636-1.808-5.964 13.215-1.024 16.742-8.114 18.879-16.079-15.348 3.278-27.332 3.192-34.399-1.812.309-2.551.535-5.016.645-7.387h44.601zm-2.945 37.301a276 276 0 0 1-6.742 32.86h-14.821v-17.075c3.129.285 6.04-.074 8.743-1.09.398-5.632-1.703-10.429-5.422-14.687h18.242zm-8.02 37.367c-3.316 11.508-7.293 22.477-11.933 32.86H481.75c9.508-6.977 14.836-17.992 16.106-32.86zm-17.957 45.317a233 233 0 0 1-14.949 24.871h-38.547v-28.367c3.473-.11 7.176-.028 10.27-.442 6.293-.633 11.851-1.988 16.68-4.047h26.546v7.989zm-18.023 29.34c-2.035 2.812-4.152 5.535-6.293 8.234v-8.234zm-10.578 13.441a231 231 0 0 1-18.434 19.418h-35.058v-32.859h53.496v13.441zm-28.602 28.43c-13.078 10.933-27.211 20.383-42.156 28.316h-11.34V573.66h53.496zm-51.051 32.785a263 263 0 0 1-31.05 12.57v-12.57zm-35.332 13.992c-17.371 5.477-35.328 9.184-53.496 11.195v-25.187h53.496zm-57.777 11.649a289 289 0 0 1-53.496.125v-25.766h53.496zm-57.777-.325c-18.156-1.922-36.114-5.535-53.496-10.922v-14.39h53.496zm-57.781-12.343c-11.024-3.625-21.809-7.942-32.254-12.969h32.254zm-41.145-17.442a244.2 244.2 0 0 1-41.527-27.773v-5.086h53.496v32.859zm-52.332-37.324a231 231 0 0 1-18.368-19.348v-13.511h42.723c.262 6.382 5.473 10.406 10.77 11.148v21.711h-35.13zm-22.653-24.551a211 211 0 0 1-6.36-8.312h6.36zm-9.437-12.777a234 234 0 0 1-15.457-25.809v-7.047h23.328c-2.633 3.949-3.16 8.098-2.531 12.344 5.09-2.172 10.171-3.734 15.258-1.031.586 3.656-.211 10.199 17.437 6.722v14.825h-38.04zm-20.973-37.328c-4.625-10.391-8.605-21.356-11.93-32.86h26.422c2.66 12.172 8.207 22.992 15.918 29.817v3.043zm-13.203-37.336a274 274 0 0 1-6.742-32.86h21.18v32.86zm-7.293-37.332c-1.344-10.571-2.156-21.524-2.414-32.86h46.879c.82 5.055 1.719 10.117 4.426 14.938-4.942 5.183-8.621 11.304-11.172 17.918H16.418zm408.379-31.368c5.711 6.102 12.547 14.176 18.262 20.282-7.773 1.261-14.988-1.274-18.262-11.266-.465-3.851.465-6.293 0-9.016M223.731 536.332h15.711c.387.078.785.148 1.215.23v15.844c-5.762 1.176-8.817 7.062-9.828 16.512 3.117-2.629 6.285-4.59 9.828-2.461v2.726h-53.496v-13.328a102 102 0 0 0 10.562-4.051q6.212-1.945 11.379-7 8.285-1.299 11.379-7.777a19.4 19.4 0 0 0 3.246-.691zm-7.395 37.328h38.645c1.078.222 2.113.593 3.004 1.226-16.699 5.438-15.711 30.422 5.429 29.305-6.257-15.625.813-12.762 6.415-11.938v14.266h-53.497V573.66zm28.606-261.313h12.289c5.492 11.418 12.449 22.41 21.328 32.86h-33.621v-32.86zm-10.668 37.328h34.984v32.86h-5.043c-10.73-5.098-21.847-11.438-33.297-18.825 3.973 6.415 6.477 12.696 7.094 18.825h-13.66c-.055-.172-.113-.34-.172-.512 3.465-10.621 6.938-21.227 10.098-32.348zm40.019 37.332h24.141v7.594c-7.766-1.625-15.82-4.191-24.141-7.594m-45.574 37.336h16.895c2.929 6.203 2.726 13.313-3.735 17.969-4.965 3.379-5.242 8.731 5.618 7.043 5.988 1.805 10.32 4.469 12.941 7.844h-34.77c2.203-10.117 6.883-16.961 3.043-32.86zm16.219 37.332h17.84c.617 2.02.777 4.215.453 6.559-6.18-1.008-12.277-1.449-18.297-1.309v-5.246zm51.832 74.657h1.668v.39a9 9 0 0 0-.356.301c-.441-.23-.886-.465-1.308-.691zm1.668 31.859v1h-4.149c.575-.711 1.813-1.113 4.149-1m-53.496-15.852v-15.074c1.219.176 2.543.36 3.992.535.863 6.004 5.691 9.028 17.586 6.743 10.262-.266 13.879 7.339 6.98 12.707-8.019-8.086-23.621-10.598-23.793-3.633-1.718-.649-3.304-1.078-4.769-1.281zm49.617 21.321h33.055v32.859h-53.496v-14.656c.152-.11.296-.227.425-.375 11.778-3.602 20.805-11.664 20.016-17.824zm27.848-261.313h23.914c.953.836 2.484 1.43 4.574 1.778-.066 2.761 1.699 4.41 5.316 4.961v26.117h-18.515c-1.942-5.227-4.27-10.797-7.867-16.43-2.032-5.215-4.458-10.555-7.418-16.426zm-48.864 37.328h8.961c7.856 8.567 17.086 16.743 27.934 24.457-2.203 2.801-4.004 5.602-5.469 8.399h-31.426v-32.86zm29.172 37.332h.192q-.099.241-.192.481zm43.227 0h10.269v8.692c-3.382-.953-7.144-1.453-11.211-1.563l.938-7.129zm-18.903 131.7v5.058c-6.375-.543-13.222 2.227-12.691 8.098h-23.871c-.73-.785-1.23-1.57-1.449-2.36q5.17-1.166 6.203-6.48c15.64-3.215 25.027-4.266 31.805-4.313zm29.176 38.086v12.398h-21.097c7.023-1.125 14.058-3.981 21.097-12.398m-43.894 12.402h-9.602v-.504zm19.574 4.465h53.496v32.859h-53.496zm44.316-261.313h37.786v32.86h-11.52a15408 15408 0 0 1-27.953-30.688c.625-.68 1.183-1.41 1.691-2.168zm9.352 32.863h-25.066v-25.933c.437-.016.89-.035 1.359-.074 7.902 8.672 15.801 17.336 23.703 26.007zm-45.34 4.465h44.594v32.86h-36.336c6.723-11.035 1.68-26.973-8.258-32.86m20.27 37.332h52.328c-1.184 2.157-1.774 5.379-1.508 9.664.508 4.434 1.41 8.317 2.68 11.7v11.488h-40.262c.035-1.43.004-2.863-.067-4.316-1.367-9.254-6.117-15.09-13.164-18.293v-10.247zm12.847 37.336h11.477v26.325a120 120 0 0 0-5.258-1.59c-15.668-4.715-28.582-1.403-30.855 8.125h-1.426c-1.012-4.664 4.59-10.024 13.457-15.731 8.437-4.961 11.605-10.847 12.605-17.125zm11.481 93.668v13.852h-20.965c-2.82-5.016-6.809-6.485-11.977-4.434-7.168-4.773-11.902-2.859-16.293 0-1.086-1.203-2.57-2.117-4.257-2.734v-5.875c9.355.555 13.992 3.023 29.347 2.387 11.11.461 18.641-1.02 24.149-3.192zm-19.051 18.321h48.223v32.859h-53.496v-18.219c.316-.488.632-.98.949-1.5 2.664.43 4.652 2.938 5.945 7.52 7.063-5.875 6.895-11.406-.516-16.598a44 44 0 0 0-1.105-4.062m52.504-223.985h53.496v32.86h-4.965c-.031-.114-.055-.227-.09-.348-6.242-16.305-18.203-13.859-17.586-2.852-4.3-1.488-8.093-.425-11.375 3.2h-19.476v-32.86zm-29.172 37.328h.531c9.985 10.953 19.961 21.899 29.949 32.86h-30.48zm17.441 0h36.051v6.5c-1.683-.48-3.285-1.261-4.847-2.238-.227 3.32 1.003 6.449 4.847 9.262v19.332h-6.039c-10.012-10.977-20.008-21.906-30.008-32.86zm34.086 37.332h15.063c1.199 5.661 1.531 11.016-1.078 15.368q-6.998-7.704-13.985-15.368m-19.113 32.864h-3.242v-3.563a26 26 0 0 0 3.242 3.563m-32.414 4.472h39.184a31 31 0 0 0 4.378 1.629c.375 3.742 3.86 6.254 9.93 7.77v23.453h-40.031c-4.457-1.688-8.91-3.453-13.461-5.07v-27.786zm29.172 37.332h40.82c-5.398 2.446-12.613 3.84-21.367 3.457-6.887.028-13.281-1.035-19.449-2.683v-.774zm24.324 42.125v28.063h-31.211c1.91-1.324 3.453-3.301 5.152-5.988 4.133 1.976 10.254.511 11.379-4.407 6.891-2.336 10-6.05 9.309-11.148 4.047-1.387 5.254-3.719 5.172-6.484.066-.008.125-.02.191-.028zm-42.16 28.067h-11.336v-15.864q.679-.373 1.316-.757c2.055 3.632 7.149 3.632 12.672 3.109 2.653 3.992 2.012 10.289-2.652 13.512m75.617-219.52h53.496v32.86h-53.496zm-29.18 37.328h.215c.492.27 1.004.567 1.52.887v5.965a14 14 0 0 1-1.735.176zm21.137 0h32.363v32.86h-15.617c-.183-12.727-4.144-21.977-14.676-25.227-.687-2.543-1.382-5.09-2.066-7.633zm-13.398 32.864h-7.735v-16.86a45 45 0 0 0 4.321 1.746c.461 4.813 2.07 10.004 3.414 15.11zm45.761 56.769v17.891h-2.277c.176-5.801-.187-12.129-1.113-18.981q1.732.652 3.394 1.086zm-34.496 17.895h-19v-22.617c4.262.648 9.395.96 15.289.972 9.739 6.453 10.293 15.301 3.707 21.645zm35.059-171.071h28.535v22.192h-28.535zm-82.996 0h39.394v22.192h-39.394zm-73.547 22.196h-9.445v-18.305c1.945 2.113 3.886 4.238 5.836 6.355-2.118 5.918-.918 10.844 3.609 11.946zm-175.438-22.196h6.504l-.242.633c.426 3.805 3.008 7.348 6.981 7.52-.086 4.679-.184 9.351-.262 14.031h-12.981v-22.191zm-82.992 0h39.395v22.192H85.965zm-72.137 0h28.535v22.192H13.828zm0 26.215h53.496v32.86H13.828zm57.778 0h53.496v32.86H71.606zM42.43 349.675h53.496v32.86H75.465c-5.02-13.153-6.703-33.262-33.031-25.891v-6.965zm17.683 32.864h-17.68v-24.118c13.173 6.934 16.07 15.403 17.68 24.118m17.399 4.468h7.23a53 53 0 0 0-5.738 2.196 16 16 0 0 1-1.488-2.196zm36.66 0h10.926v7.27c-3.09-3.309-6.816-5.688-10.926-7.27m-10.707 32.864h-9.398c-3.551-1.918-6.97-5.145-8.551-7.977 7.188-8.086 20.266-5.355 19.613 2.293-.086 2.68-.699 4.512-1.66 5.684zm-61.035 4.472h10.164c-3.196 10.586-3.727 22.102-2.04 32.86H42.43zm53.5 22.965v9.895H77.95c-3.243-7.676-4.462-17.262-3.08-28.575 5.025 8.778 12.79 15.258 21.06 18.68m-15.742 14.367h38.277c-1.808 4.586-3.168 10.387-4.023 17.258-15.004.504-27.375-5.558-34.25-17.258zm49.195-149.328h52.492c-.16 10.953-.254 21.903-.144 32.86h-52.348zm-29.176 37.328h53.497v32.86h-53.497zm29.172 37.332h52.153c-.61 7.926-.235 15.219 1.339 21.75v11.11h-49.035c.004-.614.008-1.235 0-1.875-.297-7.188-1.906-13.055-4.453-17.754v-13.227zm4.223 37.336h20.102v32.86h-8.899c-10.199-10.571-18.66-9.66-24.219 0h-20.375v-8.414c15.453 4.339 31.293-2.184 33.391-24.442zm14.961 37.332h34.312v16.973c-7.593 1.18-14.976 3.387-21.105 6.766-2.535-7.918-7.488-15.825-13.203-23.743zm5.144 58.668v.996a32 32 0 0 0-.726-.652c.242-.113.48-.234.726-.344m-39.07 11.524h-14.426v-15.778q.637-.151 1.297-.32c6.981-1.871 12.082 3.656 13.125 16.102zm46.258 4.465h16.144c-5.871 8.515-7.8 16.421-7.765 24.031 4.473-.938 8.953-1.906 13.605-3.207v12.035h-53.496v-21.859c2.535-.575 4.75-2.063 6.004-4.598 9.75-.348 13.625 3.801 11.637 12.445 4.316-2.984 5.777-8.343 5.949-14.781 2.504 1.805 3.793 4.23 4.91 6.742 1.953-3.793 2.949-7.394 3-10.808zm-2.336 37.328h53.496v32.859h-53.496zm82.102-249.907v21.454h-5.137c1.875-6.891 3.609-14 5.137-21.454m-82.676 25.922h23.793c.133 9.2.426 18.399.937 27.598a134 134 0 0 0-.742 5.258h-23.988v-32.86zm67.758 37.332h12.375c-.446 7.86-4.293 15.43-12.532 22.625 2.637-5.214 2.985-12.488.157-22.625m14.914 30.399v2.465h-13.176a100 100 0 0 0-2.738-7.696c5.296-1.82 11.378.762 15.914 5.231m-82.672 6.937h26.933q.322 3.434 2.196 6.617c-1.84 2.782-.852 12.481 1.34 26.239h-30.473v-32.86zm29.176 37.332h2.031c.824 4.953 1.773 10.34 2.769 16.047a91 91 0 0 0-4.804.371v-16.422zm37.765 0h15.731v5.446a92 92 0 0 0-15.914 2.519c-.184-2.961-.094-5.574.179-7.965zm-44.48 70.192h-20.059c-.473-1.903-1.269-3.731-2.398-5.5v-7.617c8.562-2.551 18.785-1.985 30.683 1.679-5.175 2.321-6.726 6.473-7.758 10.891q-.235.269-.464.543" style="stroke:none;fill-rule:evenodd;fill:#ec2a32"/></svg>