<!-- Created with Inkscape (http://www.inkscape.org/) -->

<svg
   xmlns="http://www.w3.org/2000/svg"
   version="1.1"
   id="svg2"><title>Herb Lubsza (woj śląskie)</title>
  <metadata
     id="metadata8">
    <rdf:RDF>
      <cc:Work
         rdf:about="">
        <dc:format>image/svg+xml</dc:format>
        <dc:type
           rdf:resource="http://purl.org/dc/dcmitype/StillImage" />
        <dc:title></dc:title>
      </cc:Work>
    </rdf:RDF>
  </metadata>
  <defs
     id="defs6" />
  <g
     transform="matrix(1.0726811,0,0,1.0726811,-1029.2169,-2.3077846)"
     id="g4757">
    <g
       id="g3765">
      <path
         d="M 959.93486,37.957368 C 956.31706,357.84202 965.555,712.30953 1328.9515,744.71158 1692.348,712.30953 1701.5859,357.84202 1697.9681,37.957368 L 1328.9515,2.1514172 z"
         id="path3757"
         style="fill:#000000;stroke:none" />
      <path
         d="M 1328.0608,726.40291 C 985.91665,684.88974 979.43022,368.81122 987.00411,58.111976 l 683.63069,0 c 8.6527,310.699244 0.2625,630.239144 -342.574,668.290934 z"
         id="path3762"
         style="fill:#0093dd;fill-opacity:1;stroke:none" />
    </g>
    <g
       transform="translate(958.46437,-206.5656)"
       id="g4619">
      <g
         transform="translate(55.947108,165.94481)"
         id="g4438">
        <g
           transform="translate(-273.81884,0)"
           id="g4440">
          <path
             d="m 423.53758,486.84375 c -2.68098,0 -5.04089,1.32248 -6.5,3.34375 l -10.71875,0 0,9.375 10.71875,0 c 1.45911,2.02127 3.81902,3.34375 6.5,3.34375 2.68578,0 5.05061,-1.31634 6.5,-3.34375 l 11.09375,0 0,-9.375 -11.09375,0 c -1.44939,-2.02741 -3.81422,-3.34375 -6.5,-3.34375 z"
             id="path4442"
             style="fill:#ffffff;fill-opacity:1;stroke:#000000;stroke-width:2;stroke-linecap:round;stroke-linejoin:round;stroke-miterlimit:4;stroke-opacity:1;stroke-dasharray:none;stroke-dashoffset:0" />
          <path
             d="m 440.67307,458.21385 c -1.99236,-1.79393 -4.63102,-2.39022 -7.06785,-1.86446 l -7.96558,-7.17224 -6.2731,6.96698 7.96558,7.17224 c -0.26816,2.47844 0.60068,5.04032 2.59304,6.83424 1.99592,1.79714 4.63414,2.40129 7.06785,1.86446 l 8.24426,7.42317 6.2731,-6.96698 -8.24426,-7.42317 c 0.27949,-2.47649 -0.59712,-5.0371 -2.59304,-6.83424 z"
             id="path4444"
             style="fill:#ffffff;fill-opacity:1;stroke:#000000;stroke-width:2;stroke-linecap:round;stroke-linejoin:round;stroke-miterlimit:4;stroke-opacity:1;stroke-dasharray:none;stroke-dashoffset:0" />
          <path
             d="m 477.40184,448.98907 c 0,-2.68098 -1.32248,-5.04089 -3.34375,-6.5 l 0,-10.71875 -9.375,0 0,10.71875 c -2.02127,1.45911 -3.34375,3.81902 -3.34375,6.5 0,2.68578 1.31634,5.05061 3.34375,6.5 l 0,11.09375 9.375,0 0,-11.09375 c 2.02741,-1.44939 3.34375,-3.81422 3.34375,-6.5 z"
             id="path4446"
             style="fill:#ffffff;fill-opacity:1;stroke:#000000;stroke-width:2;stroke-linecap:round;stroke-linejoin:round;stroke-miterlimit:4;stroke-opacity:1;stroke-dasharray:none;stroke-dashoffset:0" />
          <path
             d="m 508.83353,470.11128 c 1.99236,-1.79392 2.8612,-4.35581 2.59304,-6.83424 l 7.96558,-7.17224 -6.2731,-6.96698 -7.96558,7.17224 c -2.43683,-0.52576 -5.07549,0.0705 -7.06785,1.86446 -1.99592,1.79714 -2.87253,4.35775 -2.59304,6.83424 l -8.24426,7.42317 6.2731,6.96698 8.24426,-7.42317 c 2.43371,0.53683 5.07193,-0.0673 7.06785,-1.86446 z"
             id="path4448"
             style="fill:#ffffff;fill-opacity:1;stroke:#000000;stroke-width:2;stroke-linecap:round;stroke-linejoin:round;stroke-miterlimit:4;stroke-opacity:1;stroke-dasharray:none;stroke-dashoffset:0" />
          <path
             d="m 515.25652,502.85333 c 2.68098,0 5.04089,-1.32248 6.5,-3.34375 l 10.71875,0 0,-9.375 -10.71875,0 c -1.45911,-2.02127 -3.81902,-3.34375 -6.5,-3.34375 -2.68578,0 -5.05061,1.31634 -6.5,3.34375 l -11.09375,0 0,9.375 11.09375,0 c 1.44939,2.02741 3.81422,3.34375 6.5,3.34375 z"
             id="path4450"
             style="fill:#ffffff;fill-opacity:1;stroke:#000000;stroke-width:2;stroke-linecap:round;stroke-linejoin:round;stroke-miterlimit:4;stroke-opacity:1;stroke-dasharray:none;stroke-dashoffset:0" />
          <path
             d="m 494.13431,534.28501 c 1.79392,1.99236 4.35581,2.8612 6.83424,2.59304 l 7.17224,7.96558 6.96698,-6.2731 -7.17224,-7.96558 c 0.52576,-2.43683 -0.0705,-5.07549 -1.86446,-7.06785 -1.79714,-1.99592 -4.35775,-2.87253 -6.83424,-2.59304 l -7.42317,-8.24426 -6.96698,6.2731 7.42317,8.24426 c -0.53683,2.43371 0.0673,5.07193 1.86446,7.06785 z"
             id="path4452"
             style="fill:#ffffff;fill-opacity:1;stroke:#000000;stroke-width:2;stroke-linecap:round;stroke-linejoin:round;stroke-miterlimit:4;stroke-opacity:1;stroke-dasharray:none;stroke-dashoffset:0" />
          <path
             d="m 461.39227,540.70801 c 0,2.68098 1.32248,5.04089 3.34375,6.5 l 0,10.71875 9.375,0 0,-10.71875 c 2.02127,-1.45911 3.34375,-3.81902 3.34375,-6.5 0,-2.68578 -1.31634,-5.05061 -3.34375,-6.5 l 0,-11.09375 -9.375,0 0,11.09375 c -2.02741,1.44939 -3.34375,3.81422 -3.34375,6.5 z"
             id="path4454"
             style="fill:#ffffff;fill-opacity:1;stroke:#000000;stroke-width:2;stroke-linecap:round;stroke-linejoin:round;stroke-miterlimit:4;stroke-opacity:1;stroke-dasharray:none;stroke-dashoffset:0" />
          <path
             d="m 429.96059,519.5858 c -1.99236,1.79392 -2.8612,4.35581 -2.59304,6.83424 l -7.96558,7.17224 6.2731,6.96698 7.96558,-7.17224 c 2.43683,0.52576 5.07549,-0.0705 7.06785,-1.86446 1.99592,-1.79714 2.87253,-4.35775 2.59304,-6.83424 l 8.24426,-7.42317 -6.2731,-6.96698 -8.24426,7.42317 c -2.43371,-0.53683 -5.07193,0.0673 -7.06785,1.86446 z"
             id="path4456"
             style="fill:#ffffff;fill-opacity:1;stroke:#000000;stroke-width:2;stroke-linecap:round;stroke-linejoin:round;stroke-miterlimit:4;stroke-opacity:1;stroke-dasharray:none;stroke-dashoffset:0" />
        </g>
        <path
           d="m 195.81249,412.875 c -44.83046,0 -81.15625,36.35703 -81.15625,81.1875 0,44.83046 36.32579,81.15625 81.15625,81.15625 44.83047,0 81.1875,-36.32579 81.1875,-81.15625 0,-44.83047 -36.35703,-81.1875 -81.1875,-81.1875 z m 0,18.1875 c 34.79336,0 63,28.20664 63,63 0,34.79336 -28.20664,63 -63,63 -34.79336,0 -63,-28.20664 -63,-63 0,-34.79336 28.20664,-63 63,-63 z"
           id="path4458"
           style="fill:#ffffff;stroke:#000000;stroke-width:3.13083839;stroke-linecap:butt;stroke-linejoin:miter;stroke-miterlimit:4;stroke-opacity:1;stroke-dasharray:none" />
        <path
           d="m 195.81249,464.84375 c -16.13544,0 -29.21875,13.08331 -29.21875,29.21875 0,16.13544 13.08331,29.21875 29.21875,29.21875 16.13545,0 29.21875,-13.08331 29.21875,-29.21875 0,-16.13544 -13.0833,-29.21875 -29.21875,-29.21875 z m -0.96875,10 c 0.32757,-0.0166 0.63706,0 0.96875,0 10.61422,0 19.21875,8.60454 19.21875,19.21875 0,10.61421 -8.60453,19.21875 -19.21875,19.21875 -10.61421,0 -19.21875,-8.60454 -19.21875,-19.21875 0,-10.28252 8.0954,-18.70401 18.25,-19.21875 z"
           id="path4460"
           style="fill:#ffffff;stroke:#000000;stroke-width:2.5;stroke-linecap:butt;stroke-linejoin:miter;stroke-miterlimit:4;stroke-opacity:1;stroke-dasharray:none" />
        <path
           d="m 115.10241,494.84853 17.66096,1e-5"
           id="path4462"
           style="fill:none;stroke:#000000;stroke-width:1px;stroke-linecap:butt;stroke-linejoin:miter;stroke-opacity:1" />
        <path
           d="m 127.04252,502.40182 a 2.8656206,2.8656206 0 1 1 -5.73124,0 2.8656206,2.8656206 0 1 1 5.73124,0 z"
           transform="translate(-1e-5,2.446713)"
           id="path4464"
           style="fill:#000000;fill-opacity:1;fill-rule:evenodd;stroke:#000000;stroke-width:1px;stroke-linecap:butt;stroke-linejoin:miter;stroke-opacity:1" />
        <path
           d="m 127.04252,502.40182 a 2.8656206,2.8656206 0 1 1 -5.73124,0 2.8656206,2.8656206 0 1 1 5.73124,0 z"
           transform="translate(-1e-5,-17.553287)"
           id="path4466"
           style="fill:#000000;fill-opacity:1;fill-rule:evenodd;stroke:#000000;stroke-width:1px;stroke-linecap:butt;stroke-linejoin:miter;stroke-opacity:1" />
        <g
           id="g4468">
          <g
             transform="translate(-1e-5,0)"
             id="g4470">
            <path
               d="m 127.04252,502.40182 a 2.8656206,2.8656206 0 1 1 -5.73124,0 2.8656206,2.8656206 0 1 1 5.73124,0 z"
               transform="matrix(0.80303806,0,0,0.80303806,72.144059,86.084192)"
               id="path4472"
               style="fill:#000000;fill-opacity:1;fill-rule:evenodd;stroke:#000000;stroke-width:1px;stroke-linecap:butt;stroke-linejoin:miter;stroke-opacity:1" />
            <path
               d="m 166.44752,494.84853 9.8541,1e-5"
               id="path4474"
               style="fill:none;stroke:#000000;stroke-width:1px;stroke-linecap:butt;stroke-linejoin:miter;stroke-opacity:1" />
            <path
               d="m 127.04252,502.40182 a 2.8656206,2.8656206 0 1 1 -5.73124,0 2.8656206,2.8656206 0 1 1 5.73124,0 z"
               transform="matrix(0.80303806,0,0,0.80303806,72.264165,96.773583)"
               id="path4476"
               style="fill:#000000;fill-opacity:1;fill-rule:evenodd;stroke:#000000;stroke-width:1px;stroke-linecap:butt;stroke-linejoin:miter;stroke-opacity:1" />
          </g>
          <g
             transform="matrix(-1,0,0,1,391.31691,0)"
             id="g4478">
            <g
               id="g4480">
              <path
                 d="m 127.04252,502.40182 a 2.8656206,2.8656206 0 1 1 -5.73124,0 2.8656206,2.8656206 0 1 1 5.73124,0 z"
                 transform="matrix(0.80303806,0,0,0.80303806,72.144059,86.084192)"
                 id="path4482"
                 style="fill:#000000;fill-opacity:1;fill-rule:evenodd;stroke:#000000;stroke-width:1px;stroke-linecap:butt;stroke-linejoin:miter;stroke-opacity:1" />
              <path
                 d="m 166.44752,494.84853 9.8541,1e-5"
                 id="path4484"
                 style="fill:none;stroke:#000000;stroke-width:1px;stroke-linecap:butt;stroke-linejoin:miter;stroke-opacity:1" />
              <path
                 d="m 127.04252,502.40182 a 2.8656206,2.8656206 0 1 1 -5.73124,0 2.8656206,2.8656206 0 1 1 5.73124,0 z"
                 transform="matrix(0.80303806,0,0,0.80303806,72.264165,96.773583)"
                 id="path4486"
                 style="fill:#000000;fill-opacity:1;fill-rule:evenodd;stroke:#000000;stroke-width:1px;stroke-linecap:butt;stroke-linejoin:miter;stroke-opacity:1" />
            </g>
          </g>
        </g>
        <g
           transform="matrix(0.74314483,0.66913061,-0.66913061,0.74314483,381.35357,-3.7629645)"
           id="g4488">
          <path
             d="m 115.10242,494.84853 17.66096,1e-5"
             id="path4490"
             style="fill:none;stroke:#000000;stroke-width:1px;stroke-linecap:butt;stroke-linejoin:miter;stroke-opacity:1" />
          <path
             d="m 127.04252,502.40182 a 2.8656206,2.8656206 0 1 1 -5.73124,0 2.8656206,2.8656206 0 1 1 5.73124,0 z"
             transform="translate(0,2.446713)"
             id="path4492"
             style="fill:#000000;fill-opacity:1;fill-rule:evenodd;stroke:#000000;stroke-width:1px;stroke-linecap:butt;stroke-linejoin:miter;stroke-opacity:1" />
          <path
             d="m 127.04252,502.40182 a 2.8656206,2.8656206 0 1 1 -5.73124,0 2.8656206,2.8656206 0 1 1 5.73124,0 z"
             transform="translate(0,-17.553287)"
             id="path4494"
             style="fill:#000000;fill-opacity:1;fill-rule:evenodd;stroke:#000000;stroke-width:1px;stroke-linecap:butt;stroke-linejoin:miter;stroke-opacity:1" />
        </g>
        <g
           transform="matrix(0,1,-1,0,690.42675,299.27032)"
           id="g4496">
          <path
             d="m 115.10242,494.84853 17.66096,1e-5"
             id="path4498"
             style="fill:none;stroke:#000000;stroke-width:1px;stroke-linecap:butt;stroke-linejoin:miter;stroke-opacity:1" />
          <path
             d="m 127.04252,502.40182 a 2.8656206,2.8656206 0 1 1 -5.73124,0 2.8656206,2.8656206 0 1 1 5.73124,0 z"
             transform="translate(0,2.446713)"
             id="path4500"
             style="fill:#000000;fill-opacity:1;fill-rule:evenodd;stroke:#000000;stroke-width:1px;stroke-linecap:butt;stroke-linejoin:miter;stroke-opacity:1" />
          <path
             d="m 127.04252,502.40182 a 2.8656206,2.8656206 0 1 1 -5.73124,0 2.8656206,2.8656206 0 1 1 5.73124,0 z"
             transform="translate(0,-17.553287)"
             id="path4502"
             style="fill:#000000;fill-opacity:1;fill-rule:evenodd;stroke:#000000;stroke-width:1px;stroke-linecap:butt;stroke-linejoin:miter;stroke-opacity:1" />
        </g>
        <g
           transform="matrix(-0.74314483,0.66913061,-0.66913061,-0.74314483,672.03946,731.7253)"
           id="g4504">
          <path
             d="m 115.10242,494.84853 17.66096,1e-5"
             id="path4506"
             style="fill:none;stroke:#000000;stroke-width:1px;stroke-linecap:butt;stroke-linejoin:miter;stroke-opacity:1" />
          <path
             d="m 127.04252,502.40182 a 2.8656206,2.8656206 0 1 1 -5.73124,0 2.8656206,2.8656206 0 1 1 5.73124,0 z"
             transform="translate(0,2.446713)"
             id="path4508"
             style="fill:#000000;fill-opacity:1;fill-rule:evenodd;stroke:#000000;stroke-width:1px;stroke-linecap:butt;stroke-linejoin:miter;stroke-opacity:1" />
          <path
             d="m 127.04252,502.40182 a 2.8656206,2.8656206 0 1 1 -5.73124,0 2.8656206,2.8656206 0 1 1 5.73124,0 z"
             transform="translate(0,-17.553287)"
             id="path4510"
             style="fill:#000000;fill-opacity:1;fill-rule:evenodd;stroke:#000000;stroke-width:1px;stroke-linecap:butt;stroke-linejoin:miter;stroke-opacity:1" />
        </g>
        <g
           transform="matrix(-1,0,0,-1,391.15643,989.69708)"
           id="g4512">
          <path
             d="m 115.10242,494.84853 17.66096,1e-5"
             id="path4514"
             style="fill:none;stroke:#000000;stroke-width:1px;stroke-linecap:butt;stroke-linejoin:miter;stroke-opacity:1" />
          <path
             d="m 127.04252,502.40182 a 2.8656206,2.8656206 0 1 1 -5.73124,0 2.8656206,2.8656206 0 1 1 5.73124,0 z"
             transform="translate(0,2.446713)"
             id="path4516"
             style="fill:#000000;fill-opacity:1;fill-rule:evenodd;stroke:#000000;stroke-width:1px;stroke-linecap:butt;stroke-linejoin:miter;stroke-opacity:1" />
          <path
             d="m 127.04252,502.40182 a 2.8656206,2.8656206 0 1 1 -5.73124,0 2.8656206,2.8656206 0 1 1 5.73124,0 z"
             transform="translate(0,-17.553287)"
             id="path4518"
             style="fill:#000000;fill-opacity:1;fill-rule:evenodd;stroke:#000000;stroke-width:1px;stroke-linecap:butt;stroke-linejoin:miter;stroke-opacity:1" />
        </g>
        <g
           transform="matrix(-0.66913061,-0.74314483,0.74314483,-0.66913061,-41.29855,971.30978)"
           id="g4520">
          <path
             d="m 115.10242,494.84853 17.66096,1e-5"
             id="path4522"
             style="fill:none;stroke:#000000;stroke-width:1px;stroke-linecap:butt;stroke-linejoin:miter;stroke-opacity:1" />
          <path
             d="m 127.04252,502.40182 a 2.8656206,2.8656206 0 1 1 -5.73124,0 2.8656206,2.8656206 0 1 1 5.73124,0 z"
             transform="translate(0,2.446713)"
             id="path4524"
             style="fill:#000000;fill-opacity:1;fill-rule:evenodd;stroke:#000000;stroke-width:1px;stroke-linecap:butt;stroke-linejoin:miter;stroke-opacity:1" />
          <path
             d="m 127.04252,502.40182 a 2.8656206,2.8656206 0 1 1 -5.73124,0 2.8656206,2.8656206 0 1 1 5.73124,0 z"
             transform="translate(0,-17.553287)"
             id="path4526"
             style="fill:#000000;fill-opacity:1;fill-rule:evenodd;stroke:#000000;stroke-width:1px;stroke-linecap:butt;stroke-linejoin:miter;stroke-opacity:1" />
        </g>
        <g
           transform="matrix(0,-1,1,0,-299.27032,690.42676)"
           id="g4528">
          <path
             d="m 115.10242,494.84853 17.66096,1e-5"
             id="path4530"
             style="fill:none;stroke:#000000;stroke-width:1px;stroke-linecap:butt;stroke-linejoin:miter;stroke-opacity:1" />
          <path
             d="m 127.04252,502.40182 a 2.8656206,2.8656206 0 1 1 -5.73124,0 2.8656206,2.8656206 0 1 1 5.73124,0 z"
             transform="translate(0,2.446713)"
             id="path4532"
             style="fill:#000000;fill-opacity:1;fill-rule:evenodd;stroke:#000000;stroke-width:1px;stroke-linecap:butt;stroke-linejoin:miter;stroke-opacity:1" />
          <path
             d="m 127.04252,502.40182 a 2.8656206,2.8656206 0 1 1 -5.73124,0 2.8656206,2.8656206 0 1 1 5.73124,0 z"
             transform="translate(0,-17.553287)"
             id="path4534"
             style="fill:#000000;fill-opacity:1;fill-rule:evenodd;stroke:#000000;stroke-width:1px;stroke-linecap:butt;stroke-linejoin:miter;stroke-opacity:1" />
        </g>
        <g
           transform="matrix(0.74314483,-0.66913061,0.66913061,0.74314483,-280.88302,257.97178)"
           id="g4536">
          <path
             d="m 115.10242,494.84853 17.66096,1e-5"
             id="path4538"
             style="fill:none;stroke:#000000;stroke-width:1px;stroke-linecap:butt;stroke-linejoin:miter;stroke-opacity:1" />
          <path
             d="m 127.04252,502.40182 a 2.8656206,2.8656206 0 1 1 -5.73124,0 2.8656206,2.8656206 0 1 1 5.73124,0 z"
             transform="translate(0,2.446713)"
             id="path4540"
             style="fill:#000000;fill-opacity:1;fill-rule:evenodd;stroke:#000000;stroke-width:1px;stroke-linecap:butt;stroke-linejoin:miter;stroke-opacity:1" />
          <path
             d="m 127.04252,502.40182 a 2.8656206,2.8656206 0 1 1 -5.73124,0 2.8656206,2.8656206 0 1 1 5.73124,0 z"
             transform="translate(0,-17.553287)"
             id="path4542"
             style="fill:#000000;fill-opacity:1;fill-rule:evenodd;stroke:#000000;stroke-width:1px;stroke-linecap:butt;stroke-linejoin:miter;stroke-opacity:1" />
        </g>
        <g
           transform="matrix(0,1,-1,0,690.53512,299.21822)"
           id="g4544">
          <g
             transform="translate(-1e-5,0)"
             id="g4546">
            <path
               d="m 127.04252,502.40182 a 2.8656206,2.8656206 0 1 1 -5.73124,0 2.8656206,2.8656206 0 1 1 5.73124,0 z"
               transform="matrix(0.80303806,0,0,0.80303806,72.144059,86.084192)"
               id="path4548"
               style="fill:#000000;fill-opacity:1;fill-rule:evenodd;stroke:#000000;stroke-width:1px;stroke-linecap:butt;stroke-linejoin:miter;stroke-opacity:1" />
            <path
               d="m 166.44752,494.84853 9.8541,1e-5"
               id="path4550"
               style="fill:none;stroke:#000000;stroke-width:1px;stroke-linecap:butt;stroke-linejoin:miter;stroke-opacity:1" />
            <path
               d="m 127.04252,502.40182 a 2.8656206,2.8656206 0 1 1 -5.73124,0 2.8656206,2.8656206 0 1 1 5.73124,0 z"
               transform="matrix(0.80303806,0,0,0.80303806,72.264165,96.773583)"
               id="path4552"
               style="fill:#000000;fill-opacity:1;fill-rule:evenodd;stroke:#000000;stroke-width:1px;stroke-linecap:butt;stroke-linejoin:miter;stroke-opacity:1" />
          </g>
          <g
             transform="matrix(-1,0,0,1,391.31691,0)"
             id="g4554">
            <g
               id="g4556">
              <path
                 d="m 127.04252,502.40182 a 2.8656206,2.8656206 0 1 1 -5.73124,0 2.8656206,2.8656206 0 1 1 5.73124,0 z"
                 transform="matrix(0.80303806,0,0,0.80303806,72.144059,86.084192)"
                 id="path4558"
                 style="fill:#000000;fill-opacity:1;fill-rule:evenodd;stroke:#000000;stroke-width:1px;stroke-linecap:butt;stroke-linejoin:miter;stroke-opacity:1" />
              <path
                 d="m 166.44752,494.84853 9.8541,1e-5"
                 id="path4560"
                 style="fill:none;stroke:#000000;stroke-width:1px;stroke-linecap:butt;stroke-linejoin:miter;stroke-opacity:1" />
              <path
                 d="m 127.04252,502.40182 a 2.8656206,2.8656206 0 1 1 -5.73124,0 2.8656206,2.8656206 0 1 1 5.73124,0 z"
                 transform="matrix(0.80303806,0,0,0.80303806,72.264165,96.773583)"
                 id="path4562"
                 style="fill:#000000;fill-opacity:1;fill-rule:evenodd;stroke:#000000;stroke-width:1px;stroke-linecap:butt;stroke-linejoin:miter;stroke-opacity:1" />
            </g>
          </g>
        </g>
      </g>
      <path
         d="m 563.95037,643.85785 -24.18272,0.71394 C 499.4863,571.70807 490.52307,471.98396 597.74586,408.91784 l 11.72495,10.70901 c -100.2339,69.17355 -82.01791,147.13241 -45.52044,224.231 z"
         id="path4613"
         style="fill:#ffffff;fill-opacity:1;stroke:#000000;stroke-width:0.97211784px;stroke-linecap:butt;stroke-linejoin:miter;stroke-opacity:1" />
      <rect
         width="514.27838"
         height="58.653099"
         x="-887.42999"
         y="1153.1322"
         transform="matrix(1,0,0.84578908,0.53351742,0,0)"
         id="rect4564"
         style="fill:#000000;fill-opacity:1;fill-rule:evenodd;stroke:#000000;stroke-width:2.73814034;stroke-linecap:round;stroke-linejoin:round;stroke-miterlimit:4;stroke-opacity:1;stroke-dasharray:none;stroke-dashoffset:0" />
      <rect
         width="398.26755"
         height="19.913378"
         x="254.08559"
         y="646.50861"
         id="rect4566"
         style="fill:#ffffff;fill-opacity:1;fill-rule:evenodd;stroke:#000000;stroke-width:2;stroke-linecap:round;stroke-linejoin:round;stroke-miterlimit:4;stroke-opacity:1;stroke-dasharray:none;stroke-dashoffset:0" />
      <g
         transform="translate(0,203.87505)"
         id="g4374">
        <g
           transform="translate(-273.81884,0)"
           id="g4123">
          <path
             d="m 423.53758,486.84375 c -2.68098,0 -5.04089,1.32248 -6.5,3.34375 l -10.71875,0 0,9.375 10.71875,0 c 1.45911,2.02127 3.81902,3.34375 6.5,3.34375 2.68578,0 5.05061,-1.31634 6.5,-3.34375 l 11.09375,0 0,-9.375 -11.09375,0 c -1.44939,-2.02741 -3.81422,-3.34375 -6.5,-3.34375 z"
             id="rect3884"
             style="fill:#ffffff;fill-opacity:1;stroke:#000000;stroke-width:2;stroke-linecap:round;stroke-linejoin:round;stroke-miterlimit:4;stroke-opacity:1;stroke-dasharray:none;stroke-dashoffset:0" />
          <path
             d="m 440.67307,458.21385 c -1.99236,-1.79393 -4.63102,-2.39022 -7.06785,-1.86446 l -7.96558,-7.17224 -6.2731,6.96698 7.96558,7.17224 c -0.26816,2.47844 0.60068,5.04032 2.59304,6.83424 1.99592,1.79714 4.63414,2.40129 7.06785,1.86446 l 8.24426,7.42317 6.2731,-6.96698 -8.24426,-7.42317 c 0.27949,-2.47649 -0.59712,-5.0371 -2.59304,-6.83424 z"
             id="path3907"
             style="fill:#ffffff;fill-opacity:1;stroke:#000000;stroke-width:2;stroke-linecap:round;stroke-linejoin:round;stroke-miterlimit:4;stroke-opacity:1;stroke-dasharray:none;stroke-dashoffset:0" />
          <path
             d="m 477.40184,448.98907 c 0,-2.68098 -1.32248,-5.04089 -3.34375,-6.5 l 0,-10.71875 -9.375,0 0,10.71875 c -2.02127,1.45911 -3.34375,3.81902 -3.34375,6.5 0,2.68578 1.31634,5.05061 3.34375,6.5 l 0,11.09375 9.375,0 0,-11.09375 c 2.02741,-1.44939 3.34375,-3.81422 3.34375,-6.5 z"
             id="path3919"
             style="fill:#ffffff;fill-opacity:1;stroke:#000000;stroke-width:2;stroke-linecap:round;stroke-linejoin:round;stroke-miterlimit:4;stroke-opacity:1;stroke-dasharray:none;stroke-dashoffset:0" />
          <path
             d="m 508.83353,470.11128 c 1.99236,-1.79392 2.8612,-4.35581 2.59304,-6.83424 l 7.96558,-7.17224 -6.2731,-6.96698 -7.96558,7.17224 c -2.43683,-0.52576 -5.07549,0.0705 -7.06785,1.86446 -1.99592,1.79714 -2.87253,4.35775 -2.59304,6.83424 l -8.24426,7.42317 6.2731,6.96698 8.24426,-7.42317 c 2.43371,0.53683 5.07193,-0.0673 7.06785,-1.86446 z"
             id="path3931"
             style="fill:#ffffff;fill-opacity:1;stroke:#000000;stroke-width:2;stroke-linecap:round;stroke-linejoin:round;stroke-miterlimit:4;stroke-opacity:1;stroke-dasharray:none;stroke-dashoffset:0" />
          <path
             d="m 515.25652,502.85333 c 2.68098,0 5.04089,-1.32248 6.5,-3.34375 l 10.71875,0 0,-9.375 -10.71875,0 c -1.45911,-2.02127 -3.81902,-3.34375 -6.5,-3.34375 -2.68578,0 -5.05061,1.31634 -6.5,3.34375 l -11.09375,0 0,9.375 11.09375,0 c 1.44939,2.02741 3.81422,3.34375 6.5,3.34375 z"
             id="path3943"
             style="fill:#ffffff;fill-opacity:1;stroke:#000000;stroke-width:2;stroke-linecap:round;stroke-linejoin:round;stroke-miterlimit:4;stroke-opacity:1;stroke-dasharray:none;stroke-dashoffset:0" />
          <path
             d="m 494.13431,534.28501 c 1.79392,1.99236 4.35581,2.8612 6.83424,2.59304 l 7.17224,7.96558 6.96698,-6.2731 -7.17224,-7.96558 c 0.52576,-2.43683 -0.0705,-5.07549 -1.86446,-7.06785 -1.79714,-1.99592 -4.35775,-2.87253 -6.83424,-2.59304 l -7.42317,-8.24426 -6.96698,6.2731 7.42317,8.24426 c -0.53683,2.43371 0.0673,5.07193 1.86446,7.06785 z"
             id="path3955"
             style="fill:#ffffff;fill-opacity:1;stroke:#000000;stroke-width:2;stroke-linecap:round;stroke-linejoin:round;stroke-miterlimit:4;stroke-opacity:1;stroke-dasharray:none;stroke-dashoffset:0" />
          <path
             d="m 461.39227,540.70801 c 0,2.68098 1.32248,5.04089 3.34375,6.5 l 0,10.71875 9.375,0 0,-10.71875 c 2.02127,-1.45911 3.34375,-3.81902 3.34375,-6.5 0,-2.68578 -1.31634,-5.05061 -3.34375,-6.5 l 0,-11.09375 -9.375,0 0,11.09375 c -2.02741,1.44939 -3.34375,3.81422 -3.34375,6.5 z"
             id="path3967"
             style="fill:#ffffff;fill-opacity:1;stroke:#000000;stroke-width:2;stroke-linecap:round;stroke-linejoin:round;stroke-miterlimit:4;stroke-opacity:1;stroke-dasharray:none;stroke-dashoffset:0" />
          <path
             d="m 429.96059,519.5858 c -1.99236,1.79392 -2.8612,4.35581 -2.59304,6.83424 l -7.96558,7.17224 6.2731,6.96698 7.96558,-7.17224 c 2.43683,0.52576 5.07549,-0.0705 7.06785,-1.86446 1.99592,-1.79714 2.87253,-4.35775 2.59304,-6.83424 l 8.24426,-7.42317 -6.2731,-6.96698 -8.24426,7.42317 c -2.43371,-0.53683 -5.07193,0.0673 -7.06785,1.86446 z"
             id="path3979"
             style="fill:#ffffff;fill-opacity:1;stroke:#000000;stroke-width:2;stroke-linecap:round;stroke-linejoin:round;stroke-miterlimit:4;stroke-opacity:1;stroke-dasharray:none;stroke-dashoffset:0" />
        </g>
        <path
           d="m 195.81249,412.875 c -44.83046,0 -81.15625,36.35703 -81.15625,81.1875 0,44.83046 36.32579,81.15625 81.15625,81.15625 44.83047,0 81.1875,-36.32579 81.1875,-81.15625 0,-44.83047 -36.35703,-81.1875 -81.1875,-81.1875 z m 0,18.1875 c 34.79336,0 63,28.20664 63,63 0,34.79336 -28.20664,63 -63,63 -34.79336,0 -63,-28.20664 -63,-63 0,-34.79336 28.20664,-63 63,-63 z"
           id="path3799"
           style="fill:#ffffff;stroke:#000000;stroke-width:3.13083839;stroke-linecap:butt;stroke-linejoin:miter;stroke-miterlimit:4;stroke-opacity:1;stroke-dasharray:none" />
        <path
           d="m 195.81249,464.84375 c -16.13544,0 -29.21875,13.08331 -29.21875,29.21875 0,16.13544 13.08331,29.21875 29.21875,29.21875 16.13545,0 29.21875,-13.08331 29.21875,-29.21875 0,-16.13544 -13.0833,-29.21875 -29.21875,-29.21875 z m -0.96875,10 c 0.32757,-0.0166 0.63706,0 0.96875,0 10.61422,0 19.21875,8.60454 19.21875,19.21875 0,10.61421 -8.60453,19.21875 -19.21875,19.21875 -10.61421,0 -19.21875,-8.60454 -19.21875,-19.21875 0,-10.28252 8.0954,-18.70401 18.25,-19.21875 z"
           id="path3792"
           style="fill:#ffffff;stroke:#000000;stroke-width:2.5;stroke-linecap:butt;stroke-linejoin:miter;stroke-miterlimit:4;stroke-opacity:1;stroke-dasharray:none" />
        <path
           d="m 115.10241,494.84853 17.66096,1e-5"
           id="path3802"
           style="fill:none;stroke:#000000;stroke-width:1px;stroke-linecap:butt;stroke-linejoin:miter;stroke-opacity:1" />
        <path
           d="m 127.04252,502.40182 a 2.8656206,2.8656206 0 1 1 -5.73124,0 2.8656206,2.8656206 0 1 1 5.73124,0 z"
           transform="translate(-1e-5,2.446713)"
           id="path3804"
           style="fill:#000000;fill-opacity:1;fill-rule:evenodd;stroke:#000000;stroke-width:1px;stroke-linecap:butt;stroke-linejoin:miter;stroke-opacity:1" />
        <path
           d="m 127.04252,502.40182 a 2.8656206,2.8656206 0 1 1 -5.73124,0 2.8656206,2.8656206 0 1 1 5.73124,0 z"
           transform="translate(-1e-5,-17.553287)"
           id="path3806"
           style="fill:#000000;fill-opacity:1;fill-rule:evenodd;stroke:#000000;stroke-width:1px;stroke-linecap:butt;stroke-linejoin:miter;stroke-opacity:1" />
        <g
           id="g4343">
          <g
             transform="translate(-1e-5,0)"
             id="g4219">
            <path
               d="m 127.04252,502.40182 a 2.8656206,2.8656206 0 1 1 -5.73124,0 2.8656206,2.8656206 0 1 1 5.73124,0 z"
               transform="matrix(0.80303806,0,0,0.80303806,72.144059,86.084192)"
               id="path4213"
               style="fill:#000000;fill-opacity:1;fill-rule:evenodd;stroke:#000000;stroke-width:1px;stroke-linecap:butt;stroke-linejoin:miter;stroke-opacity:1" />
            <path
               d="m 166.44752,494.84853 9.8541,1e-5"
               id="path4215"
               style="fill:none;stroke:#000000;stroke-width:1px;stroke-linecap:butt;stroke-linejoin:miter;stroke-opacity:1" />
            <path
               d="m 127.04252,502.40182 a 2.8656206,2.8656206 0 1 1 -5.73124,0 2.8656206,2.8656206 0 1 1 5.73124,0 z"
               transform="matrix(0.80303806,0,0,0.80303806,72.264165,96.773583)"
               id="path4217"
               style="fill:#000000;fill-opacity:1;fill-rule:evenodd;stroke:#000000;stroke-width:1px;stroke-linecap:butt;stroke-linejoin:miter;stroke-opacity:1" />
          </g>
          <g
             transform="matrix(-1,0,0,1,391.31691,0)"
             id="g4224">
            <g
               id="g4232">
              <path
                 d="m 127.04252,502.40182 a 2.8656206,2.8656206 0 1 1 -5.73124,0 2.8656206,2.8656206 0 1 1 5.73124,0 z"
                 transform="matrix(0.80303806,0,0,0.80303806,72.144059,86.084192)"
                 id="path4226"
                 style="fill:#000000;fill-opacity:1;fill-rule:evenodd;stroke:#000000;stroke-width:1px;stroke-linecap:butt;stroke-linejoin:miter;stroke-opacity:1" />
              <path
                 d="m 166.44752,494.84853 9.8541,1e-5"
                 id="path4228"
                 style="fill:none;stroke:#000000;stroke-width:1px;stroke-linecap:butt;stroke-linejoin:miter;stroke-opacity:1" />
              <path
                 d="m 127.04252,502.40182 a 2.8656206,2.8656206 0 1 1 -5.73124,0 2.8656206,2.8656206 0 1 1 5.73124,0 z"
                 transform="matrix(0.80303806,0,0,0.80303806,72.264165,96.773583)"
                 id="path4230"
                 style="fill:#000000;fill-opacity:1;fill-rule:evenodd;stroke:#000000;stroke-width:1px;stroke-linecap:butt;stroke-linejoin:miter;stroke-opacity:1" />
            </g>
          </g>
        </g>
        <g
           transform="matrix(0.74314483,0.66913061,-0.66913061,0.74314483,381.35357,-3.7629645)"
           id="g3899">
          <path
             d="m 115.10242,494.84853 17.66096,1e-5"
             id="path3901"
             style="fill:none;stroke:#000000;stroke-width:1px;stroke-linecap:butt;stroke-linejoin:miter;stroke-opacity:1" />
          <path
             d="m 127.04252,502.40182 a 2.8656206,2.8656206 0 1 1 -5.73124,0 2.8656206,2.8656206 0 1 1 5.73124,0 z"
             transform="translate(0,2.446713)"
             id="path3903"
             style="fill:#000000;fill-opacity:1;fill-rule:evenodd;stroke:#000000;stroke-width:1px;stroke-linecap:butt;stroke-linejoin:miter;stroke-opacity:1" />
          <path
             d="m 127.04252,502.40182 a 2.8656206,2.8656206 0 1 1 -5.73124,0 2.8656206,2.8656206 0 1 1 5.73124,0 z"
             transform="translate(0,-17.553287)"
             id="path3905"
             style="fill:#000000;fill-opacity:1;fill-rule:evenodd;stroke:#000000;stroke-width:1px;stroke-linecap:butt;stroke-linejoin:miter;stroke-opacity:1" />
        </g>
        <g
           transform="matrix(0,1,-1,0,690.42675,299.27032)"
           id="g3911">
          <path
             d="m 115.10242,494.84853 17.66096,1e-5"
             id="path3913"
             style="fill:none;stroke:#000000;stroke-width:1px;stroke-linecap:butt;stroke-linejoin:miter;stroke-opacity:1" />
          <path
             d="m 127.04252,502.40182 a 2.8656206,2.8656206 0 1 1 -5.73124,0 2.8656206,2.8656206 0 1 1 5.73124,0 z"
             transform="translate(0,2.446713)"
             id="path3915"
             style="fill:#000000;fill-opacity:1;fill-rule:evenodd;stroke:#000000;stroke-width:1px;stroke-linecap:butt;stroke-linejoin:miter;stroke-opacity:1" />
          <path
             d="m 127.04252,502.40182 a 2.8656206,2.8656206 0 1 1 -5.73124,0 2.8656206,2.8656206 0 1 1 5.73124,0 z"
             transform="translate(0,-17.553287)"
             id="path3917"
             style="fill:#000000;fill-opacity:1;fill-rule:evenodd;stroke:#000000;stroke-width:1px;stroke-linecap:butt;stroke-linejoin:miter;stroke-opacity:1" />
        </g>
        <g
           transform="matrix(-0.74314483,0.66913061,-0.66913061,-0.74314483,672.03946,731.7253)"
           id="g3923">
          <path
             d="m 115.10242,494.84853 17.66096,1e-5"
             id="path3925"
             style="fill:none;stroke:#000000;stroke-width:1px;stroke-linecap:butt;stroke-linejoin:miter;stroke-opacity:1" />
          <path
             d="m 127.04252,502.40182 a 2.8656206,2.8656206 0 1 1 -5.73124,0 2.8656206,2.8656206 0 1 1 5.73124,0 z"
             transform="translate(0,2.446713)"
             id="path3927"
             style="fill:#000000;fill-opacity:1;fill-rule:evenodd;stroke:#000000;stroke-width:1px;stroke-linecap:butt;stroke-linejoin:miter;stroke-opacity:1" />
          <path
             d="m 127.04252,502.40182 a 2.8656206,2.8656206 0 1 1 -5.73124,0 2.8656206,2.8656206 0 1 1 5.73124,0 z"
             transform="translate(0,-17.553287)"
             id="path3929"
             style="fill:#000000;fill-opacity:1;fill-rule:evenodd;stroke:#000000;stroke-width:1px;stroke-linecap:butt;stroke-linejoin:miter;stroke-opacity:1" />
        </g>
        <g
           transform="matrix(-1,0,0,-1,391.15643,989.69708)"
           id="g3935">
          <path
             d="m 115.10242,494.84853 17.66096,1e-5"
             id="path3937"
             style="fill:none;stroke:#000000;stroke-width:1px;stroke-linecap:butt;stroke-linejoin:miter;stroke-opacity:1" />
          <path
             d="m 127.04252,502.40182 a 2.8656206,2.8656206 0 1 1 -5.73124,0 2.8656206,2.8656206 0 1 1 5.73124,0 z"
             transform="translate(0,2.446713)"
             id="path3939"
             style="fill:#000000;fill-opacity:1;fill-rule:evenodd;stroke:#000000;stroke-width:1px;stroke-linecap:butt;stroke-linejoin:miter;stroke-opacity:1" />
          <path
             d="m 127.04252,502.40182 a 2.8656206,2.8656206 0 1 1 -5.73124,0 2.8656206,2.8656206 0 1 1 5.73124,0 z"
             transform="translate(0,-17.553287)"
             id="path3941"
             style="fill:#000000;fill-opacity:1;fill-rule:evenodd;stroke:#000000;stroke-width:1px;stroke-linecap:butt;stroke-linejoin:miter;stroke-opacity:1" />
        </g>
        <g
           transform="matrix(-0.66913061,-0.74314483,0.74314483,-0.66913061,-41.29855,971.30978)"
           id="g3947">
          <path
             d="m 115.10242,494.84853 17.66096,1e-5"
             id="path3949"
             style="fill:none;stroke:#000000;stroke-width:1px;stroke-linecap:butt;stroke-linejoin:miter;stroke-opacity:1" />
          <path
             d="m 127.04252,502.40182 a 2.8656206,2.8656206 0 1 1 -5.73124,0 2.8656206,2.8656206 0 1 1 5.73124,0 z"
             transform="translate(0,2.446713)"
             id="path3951"
             style="fill:#000000;fill-opacity:1;fill-rule:evenodd;stroke:#000000;stroke-width:1px;stroke-linecap:butt;stroke-linejoin:miter;stroke-opacity:1" />
          <path
             d="m 127.04252,502.40182 a 2.8656206,2.8656206 0 1 1 -5.73124,0 2.8656206,2.8656206 0 1 1 5.73124,0 z"
             transform="translate(0,-17.553287)"
             id="path3953"
             style="fill:#000000;fill-opacity:1;fill-rule:evenodd;stroke:#000000;stroke-width:1px;stroke-linecap:butt;stroke-linejoin:miter;stroke-opacity:1" />
        </g>
        <g
           transform="matrix(0,-1,1,0,-299.27032,690.42676)"
           id="g3959">
          <path
             d="m 115.10242,494.84853 17.66096,1e-5"
             id="path3961"
             style="fill:none;stroke:#000000;stroke-width:1px;stroke-linecap:butt;stroke-linejoin:miter;stroke-opacity:1" />
          <path
             d="m 127.04252,502.40182 a 2.8656206,2.8656206 0 1 1 -5.73124,0 2.8656206,2.8656206 0 1 1 5.73124,0 z"
             transform="translate(0,2.446713)"
             id="path3963"
             style="fill:#000000;fill-opacity:1;fill-rule:evenodd;stroke:#000000;stroke-width:1px;stroke-linecap:butt;stroke-linejoin:miter;stroke-opacity:1" />
          <path
             d="m 127.04252,502.40182 a 2.8656206,2.8656206 0 1 1 -5.73124,0 2.8656206,2.8656206 0 1 1 5.73124,0 z"
             transform="translate(0,-17.553287)"
             id="path3965"
             style="fill:#000000;fill-opacity:1;fill-rule:evenodd;stroke:#000000;stroke-width:1px;stroke-linecap:butt;stroke-linejoin:miter;stroke-opacity:1" />
        </g>
        <g
           transform="matrix(0.74314483,-0.66913061,0.66913061,0.74314483,-280.88302,257.97178)"
           id="g3971">
          <path
             d="m 115.10242,494.84853 17.66096,1e-5"
             id="path3973"
             style="fill:none;stroke:#000000;stroke-width:1px;stroke-linecap:butt;stroke-linejoin:miter;stroke-opacity:1" />
          <path
             d="m 127.04252,502.40182 a 2.8656206,2.8656206 0 1 1 -5.73124,0 2.8656206,2.8656206 0 1 1 5.73124,0 z"
             transform="translate(0,2.446713)"
             id="path3975"
             style="fill:#000000;fill-opacity:1;fill-rule:evenodd;stroke:#000000;stroke-width:1px;stroke-linecap:butt;stroke-linejoin:miter;stroke-opacity:1" />
          <path
             d="m 127.04252,502.40182 a 2.8656206,2.8656206 0 1 1 -5.73124,0 2.8656206,2.8656206 0 1 1 5.73124,0 z"
             transform="translate(0,-17.553287)"
             id="path3977"
             style="fill:#000000;fill-opacity:1;fill-rule:evenodd;stroke:#000000;stroke-width:1px;stroke-linecap:butt;stroke-linejoin:miter;stroke-opacity:1" />
        </g>
        <g
           transform="matrix(0,1,-1,0,690.53512,299.21822)"
           id="g4354">
          <g
             transform="translate(-1e-5,0)"
             id="g4356">
            <path
               d="m 127.04252,502.40182 a 2.8656206,2.8656206 0 1 1 -5.73124,0 2.8656206,2.8656206 0 1 1 5.73124,0 z"
               transform="matrix(0.80303806,0,0,0.80303806,72.144059,86.084192)"
               id="path4358"
               style="fill:#000000;fill-opacity:1;fill-rule:evenodd;stroke:#000000;stroke-width:1px;stroke-linecap:butt;stroke-linejoin:miter;stroke-opacity:1" />
            <path
               d="m 166.44752,494.84853 9.8541,1e-5"
               id="path4360"
               style="fill:none;stroke:#000000;stroke-width:1px;stroke-linecap:butt;stroke-linejoin:miter;stroke-opacity:1" />
            <path
               d="m 127.04252,502.40182 a 2.8656206,2.8656206 0 1 1 -5.73124,0 2.8656206,2.8656206 0 1 1 5.73124,0 z"
               transform="matrix(0.80303806,0,0,0.80303806,72.264165,96.773583)"
               id="path4362"
               style="fill:#000000;fill-opacity:1;fill-rule:evenodd;stroke:#000000;stroke-width:1px;stroke-linecap:butt;stroke-linejoin:miter;stroke-opacity:1" />
          </g>
          <g
             transform="matrix(-1,0,0,1,391.31691,0)"
             id="g4364">
            <g
               id="g4366">
              <path
                 d="m 127.04252,502.40182 a 2.8656206,2.8656206 0 1 1 -5.73124,0 2.8656206,2.8656206 0 1 1 5.73124,0 z"
                 transform="matrix(0.80303806,0,0,0.80303806,72.144059,86.084192)"
                 id="path4368"
                 style="fill:#000000;fill-opacity:1;fill-rule:evenodd;stroke:#000000;stroke-width:1px;stroke-linecap:butt;stroke-linejoin:miter;stroke-opacity:1" />
              <path
                 d="m 166.44752,494.84853 9.8541,1e-5"
                 id="path4370"
                 style="fill:none;stroke:#000000;stroke-width:1px;stroke-linecap:butt;stroke-linejoin:miter;stroke-opacity:1" />
              <path
                 d="m 127.04252,502.40182 a 2.8656206,2.8656206 0 1 1 -5.73124,0 2.8656206,2.8656206 0 1 1 5.73124,0 z"
                 transform="matrix(0.80303806,0,0,0.80303806,72.264165,96.773583)"
                 id="path4372"
                 style="fill:#000000;fill-opacity:1;fill-rule:evenodd;stroke:#000000;stroke-width:1px;stroke-linecap:butt;stroke-linejoin:miter;stroke-opacity:1" />
            </g>
          </g>
        </g>
      </g>
      <path
         d="m 576.2649,430.81818 -4.33935,7.81083 28.63967,30.80934 6.94295,-6.07508 z"
         id="path4615"
         style="fill:#ffffff;fill-opacity:1;stroke:#000000;stroke-width:1px;stroke-linecap:butt;stroke-linejoin:miter;stroke-opacity:1" />
      <path
         d="m 608.63782,674.30963 -24.55385,0.74406 C 543.18441,599.11573 536.28658,469.40626 649.5609,433.97954 l 11.9049,11.16084 c -105.29699,45.40977 -89.88559,148.81774 -52.82798,229.16925 z"
         id="path4611"
         style="fill:#ffffff;fill-opacity:1;stroke:#000000;stroke-width:1px;stroke-linecap:butt;stroke-linejoin:miter;stroke-opacity:1" />
      <path
         d="m 593.47046,656.51892 c 0,2.54308 -2.06157,4.60465 -4.60464,4.60465 -2.54308,0 -4.60464,-2.06157 -4.60464,-4.60465 0,-2.54307 2.06156,-4.60464 4.60464,-4.60464 2.54307,0 4.60464,2.06157 4.60464,4.60464 z m -71.4644,-0.53247 c 0,2.56208 -3.09741,4.63907 -6.91825,4.63907 -3.82085,0 -6.91826,-2.07699 -6.91826,-4.63907 0,-2.56208 3.09741,-4.63907 6.91826,-4.63907 3.82084,0 6.91825,2.07699 6.91825,4.63907 z m -22.00001,0 c 0,2.56208 -3.0974,4.63907 -6.91824,4.63907 -3.82085,0 -6.91826,-2.07699 -6.91826,-4.63907 0,-2.56208 3.09741,-4.63907 6.91826,-4.63907 3.82084,0 6.91824,2.07699 6.91824,4.63907 z m -22,0 c 0,2.56208 -3.0974,4.63907 -6.91825,4.63907 -3.82084,0 -6.91824,-2.07699 -6.91824,-4.63907 0,-2.56208 3.0974,-4.63907 6.91824,-4.63907 3.82085,0 6.91825,2.07699 6.91825,4.63907 z m -21.99999,0 c 0,2.56208 -3.09741,4.63907 -6.91826,4.63907 -3.82085,0 -6.91825,-2.07699 -6.91825,-4.63907 0,-2.56208 3.0974,-4.63907 6.91825,-4.63907 3.82085,0 6.91826,2.07699 6.91826,4.63907 z m -58.00001,0 c 0,2.56208 -3.0974,4.63907 -6.91825,4.63907 -3.82084,0 -6.91825,-2.07699 -6.91825,-4.63907 0,-2.56208 3.09741,-4.63907 6.91825,-4.63907 3.82085,0 6.91825,2.07699 6.91825,4.63907 z"
         id="path4582"
         style="fill:#000000;fill-opacity:1;fill-rule:evenodd;stroke:#000000;stroke-width:0.79071528px;stroke-linecap:butt;stroke-linejoin:miter;stroke-opacity:1" />
      <path
         d="m 369.70721,637.43544 -18.57223,-52.67519 72.3019,0.10032 -17.19511,52.58569 z"
         id="path4605"
         style="fill:#ffffff;fill-opacity:1;stroke:#000000;stroke-width:1px;stroke-linecap:butt;stroke-linejoin:miter;stroke-opacity:1" />
      <path
         d="m 375.00423,666.67275 36.64476,0.18602 c -7.94332,31.40426 -33.73034,52.50315 -52.64196,60.46485 5.58678,-20.2898 33.82466,-30.26081 15.9972,-60.65087 z"
         id="path4607"
         style="fill:#ffffff;fill-opacity:1;stroke:#000000;stroke-width:1px;stroke-linecap:butt;stroke-linejoin:miter;stroke-opacity:1" />
      <path
         d="m 432.66857,666.67275 99.70351,0.19632 c -19.66629,73.6885 -85.86814,117.42151 -160.34407,119.42099 20.6343,-22.74661 84.71003,-54.77532 60.64056,-119.61731 z"
         id="path4609"
         style="fill:#ffffff;fill-opacity:1;stroke:#000000;stroke-width:1px;stroke-linecap:butt;stroke-linejoin:miter;stroke-opacity:1" />
      <path
         d="m 609.14489,467.64417 a 3.5622509,3.5622509 0 1 1 -7.1245,0 3.5622509,3.5622509 0 1 1 7.1245,0 z"
         id="path4617"
         style="fill:#000000;fill-opacity:1;fill-rule:evenodd;stroke:#000000;stroke-width:1px;stroke-linecap:butt;stroke-linejoin:miter;stroke-opacity:1" />
    </g>
  </g>
</svg>