<!-- Created with Inkscape (http://www.inkscape.org/) -->
<svg
   xmlns="http://www.w3.org/2000/svg"
   id="svg1340"
   version="1.0"><title>Herb Lipsk</title>
  <metadata
     id="metadata1345">
    <rdf:RDF>
      <cc:Work
         rdf:about="">
        <dc:format>image/svg+xml</dc:format>
        <dc:type
           rdf:resource="http://purl.org/dc/dcmitype/StillImage" />
      </cc:Work>
    </rdf:RDF>
  </metadata>
  <defs
     id="defs1343" />
  <sodipodi:namedview
     borderopacity="1.0"
     bordercolor="#666666"
     pagecolor="#ffffff"
     id="base"
     showguides="true" />
  <g
     id="g2446"
     transform="translate(0.000000,2.000000)">
    <g
       transform="translate(-756.8576,0.000000)"
       id="g2210">
      <path
         id="rect2306"
         d="M 767.57488,8.4394958 L 1495.7964,8.4394958 L 1495.7964,506.44895 C 1496.4644,801.20673 1221.9122,775.70085 1145.1539,870.44786 C 1063.4674,778.37244 770.03481,773.67792 767.57488,506.44895 L 767.57488,8.4394958 z "
         style="fill:none;fill-opacity:1;fill-rule:nonzero;stroke:#000000;stroke-width:3.54330707;stroke-linecap:round;stroke-linejoin:round;stroke-miterlimit:4;stroke-dasharray:none;stroke-dashoffset:0;stroke-opacity:1" />
      <path
         style="fill:#ffffff;fill-opacity:1;fill-rule:nonzero;stroke:#000000;stroke-width:7.08661413;stroke-linecap:round;stroke-linejoin:round;stroke-miterlimit:4;stroke-dasharray:none;stroke-dashoffset:0;stroke-opacity:1"
         d="M 1462.5778,656.87382 C 1387.2528,795.79839 1205.36,796.13215 1145.1539,870.44786 C 1082.7189,800.07238 896.58364,780.74409 811.21796,656.22162 L 1462.5778,656.87382 z "
         id="path2186" />
      <path
         style="fill:#4375fc;fill-opacity:1;fill-rule:nonzero;stroke:#000000;stroke-width:7.08661413;stroke-linecap:round;stroke-linejoin:round;stroke-miterlimit:4;stroke-dasharray:none;stroke-dashoffset:0;stroke-opacity:1"
         d="M 811.21796,656.22162 C 784.89587,617.82573 768.15463,569.42832 767.57488,506.44895 L 767.57488,8.4394958 L 1495.7964,8.4394958 L 1495.7964,506.44895 C 1495.9404,570.01069 1483.2865,618.67989 1462.5778,656.87382 L 811.21796,656.22162 z "
         id="path2190" />
      <path
         style="fill:none;fill-opacity:0.75;fill-rule:evenodd;stroke:#000000;stroke-width:10.62992096;stroke-linecap:round;stroke-linejoin:miter;stroke-miterlimit:4;stroke-dasharray:none;stroke-opacity:1"
         d="M 857.35194,704.05496 L 1424.6481,704.05496"
         id="path2202" />
      <path
         style="fill:none;fill-opacity:0.75;fill-rule:evenodd;stroke:#000000;stroke-width:10.62992096;stroke-linecap:round;stroke-linejoin:miter;stroke-miterlimit:4;stroke-dasharray:none;stroke-opacity:1"
         d="M 921.14215,748.94437 L 1367.9457,751.30697"
         id="path2204" />
      <path
         style="fill:none;fill-opacity:0.75;fill-rule:evenodd;stroke:#000000;stroke-width:10.62992096;stroke-linecap:round;stroke-linejoin:miter;stroke-miterlimit:4;stroke-dasharray:none;stroke-opacity:1"
         d="M 1015.3741,795.15111 L 1273.9858,794.10584"
         id="path2206" />
      <path
         style="fill:none;fill-opacity:0.75;fill-rule:evenodd;stroke:#000000;stroke-width:10.62992096;stroke-linecap:round;stroke-linejoin:miter;stroke-miterlimit:4;stroke-dasharray:none;stroke-opacity:1"
         d="M 1113.5581,843.17633 L 1171.8499,843.44839"
         id="path2208" />
    </g>
    <g
       transform="translate(757.2172,0.000000)"
       id="g2368">
      <path
         style="fill:none;fill-opacity:0.75;fill-rule:evenodd;stroke:#000000;stroke-width:5.31496048;stroke-linecap:butt;stroke-linejoin:miter;stroke-miterlimit:4;stroke-dasharray:none;stroke-opacity:1"
         d="M -180.6758,461.87113 L -386.40883,103.15713 L -216.28344,479.01555"
         id="path2356" />
      <path
         style="fill:none;fill-opacity:0.75;fill-rule:evenodd;stroke:#000000;stroke-width:5.31496048;stroke-linecap:butt;stroke-linejoin:miter;stroke-miterlimit:4;stroke-dasharray:none;stroke-opacity:1"
         d="M -243.97827,490.88476 L -385.09003,104.47593 L -270.3543,498.79757"
         id="path2358" />
      <path
         style="fill:none;fill-opacity:0.75;fill-rule:evenodd;stroke:#000000;stroke-width:5.31496048;stroke-linecap:butt;stroke-linejoin:miter;stroke-miterlimit:4;stroke-dasharray:none;stroke-opacity:1"
         d="M -395.64044,109.75113 L -635.66231,389.33705"
         id="path2366" />
      <path
         style="fill:none;fill-opacity:0.75;fill-rule:evenodd;stroke:#000000;stroke-width:5.31496048;stroke-linecap:butt;stroke-linejoin:miter;stroke-miterlimit:4;stroke-dasharray:none;stroke-opacity:1"
         d="M -536.7522,476.37795 L -393.00284,105.79473 L -557.85302,465.82754"
         id="path2362" />
      <g
         id="g2326">
        <g
           style="stroke-width:4.96062994;stroke-miterlimit:4;stroke-dasharray:none"
           id="g2281">
          <path
             style="fill:#f8fefa;fill-opacity:1;fill-rule:evenodd;stroke:#000000;stroke-width:4.96062994;stroke-linecap:butt;stroke-linejoin:miter;stroke-miterlimit:4;stroke-dasharray:none;stroke-opacity:1"
             d="M -464.00053,115.31611 L -473.99097,129.74675 L -316.364,189.6894 L -309.7037,176.36881 L -464.00053,115.31611 z "
             id="path2230" />
          <path
             style="fill:#f9f9f9;fill-opacity:1;fill-rule:evenodd;stroke:#000000;stroke-width:4.96062994;stroke-linecap:butt;stroke-linejoin:miter;stroke-miterlimit:4;stroke-dasharray:none;stroke-opacity:1"
             d="M -449.36421,378.53319 C -423.8311,309.20987 -380.16697,243.17585 -324.62431,186.91467 L -455.37577,138.07073 C -489.73535,225.26297 -476.70028,303.28205 -449.36421,378.53319 z "
             id="path2275" />
          <path
             style="fill:none;fill-opacity:0.75;fill-rule:evenodd;stroke:#000000;stroke-width:4.96062994;stroke-linecap:butt;stroke-linejoin:miter;stroke-miterlimit:4;stroke-dasharray:none;stroke-opacity:1"
             d="M -411.79195,153.85108 L -475.66479,244.77595"
             id="path2277" />
          <path
             style="fill:none;fill-opacity:0.75;fill-rule:evenodd;stroke:#000000;stroke-width:4.96062994;stroke-linecap:butt;stroke-linejoin:miter;stroke-miterlimit:4;stroke-dasharray:none;stroke-opacity:1"
             d="M -359.19079,174.89155 C -407.46973,221.05589 -436.45208,274.93887 -465.14456,328.9378"
             id="path2279" />
        </g>
        <path
           id="path2226"
           d="M -406.27798,514.93379 L -396.28753,40.94282 L -384.07699,40.94282 L -387.40714,514.93379 L -406.27798,514.93379 z "
           style="fill:#5f5d60;fill-opacity:1;fill-rule:evenodd;stroke:#000000;stroke-width:3.54330707;stroke-linecap:butt;stroke-linejoin:miter;stroke-miterlimit:4;stroke-dasharray:none;stroke-opacity:1" />
        <g
           id="g2321">
          <path
             style="fill:#ffffff;fill-opacity:1;fill-rule:evenodd;stroke:#000000;stroke-width:4.96062994;stroke-linecap:butt;stroke-linejoin:miter;stroke-miterlimit:4;stroke-dasharray:none;stroke-opacity:1"
             d="M -456.12721,138.07073 C -485.92212,156.52461 -518.35205,200.32235 -541.79196,258.30196 C -554.45604,352.49292 -525.98721,419.26195 -504.2197,490.49852 C -456.05839,477.84787 -407.09969,481.14514 -356.93645,508.5332 C -452.73672,412.54672 -506.01177,297.91905 -456.12721,138.07073 z "
             id="path2287" />
          <path
             style="fill:#ffffff;fill-opacity:1;fill-rule:evenodd;stroke:#000000;stroke-width:4.96062994;stroke-linecap:butt;stroke-linejoin:miter;stroke-miterlimit:4;stroke-dasharray:none;stroke-opacity:1"
             d="M -492.94803,171.88577 C -518.94953,276.63482 -497.96689,380.23791 -441.84976,482.98406"
             id="path2289" />
          <path
             style="fill:#ffffff;fill-opacity:1;fill-rule:evenodd;stroke:#000000;stroke-width:4.96062994;stroke-linecap:butt;stroke-linejoin:miter;stroke-miterlimit:4;stroke-dasharray:none;stroke-opacity:1"
             d="M -532.02318,235.00716 C -532.6742,322.58268 -501.8754,403.41895 -475.66479,485.2384"
             id="path2291" />
        </g>
        <g
           id="g2256">
          <g
             id="g2211">
            <path
               style="opacity:1;fill:#5f5d60;fill-opacity:1;fill-rule:evenodd;stroke:#000000;stroke-width:5.58770561;stroke-linecap:round;stroke-linejoin:round;stroke-miterlimit:4;stroke-dasharray:none;stroke-dashoffset:0;stroke-opacity:1"
               d="M -88.15625,186.34375 L -99.90625,187.46875 L -104.25,366.1875 L -121,366.1875 L -122.09375,391.71875 L -195.375,406.15625 L -228.65625,436.125 L -222,443.90625 C -193.112,418.48201 -159.03512,413.77327 -124.3125,411.6875 C -205.54471,520.09545 -468.21831,562.6956 -612.75,428.34375 L -613.21875,427.875 C -607.85278,417.61039 -608.18723,405.86965 -615.09375,398 C -622.92781,389.07345 -636.78704,387.90369 -648.75,394.25 L -717.09375,329.5625 C -698.80275,355.7095 -680.5538,381.87093 -663.78125,408.71875 C -669.83711,419.26245 -669.74608,431.6584 -662.5625,439.84375 C -657.31309,445.82521 -649.36765,448.31991 -641.09375,447.40625 C -607.1412,509.72654 -584.08858,577.09105 -588.3125,657.03125 L -124.3125,658.125 C -121.51237,577.46143 -110.386,496.78856 -81.03125,416.125 L -61.0625,415.03125 C -72.851079,405.35755 -73.682157,382.10362 -61.0625,366.1875 L -84.84375,366.1875 L -88.15625,186.34375 z "
               id="path2219" />
            <path
               id="path2195"
               d="M -136.53604,440.5605 C -238.76066,519.81771 -452.29826,577.77373 -626.0677,437.23035 C -551.57026,508.82731 -371.92725,599.20372 -135.42599,452.77104 L -136.53604,440.5605 z "
               style="fill:#fffdff;fill-opacity:1;fill-rule:evenodd;stroke:#000000;stroke-width:3.54330707;stroke-linecap:butt;stroke-linejoin:miter;stroke-miterlimit:4;stroke-dasharray:none;stroke-opacity:1" />
            <path
               id="path2197"
               d="M -144.30638,470.53183 L -148.74658,503.8333 C -345.03408,578.32729 -525.0817,609.34032 -630.5079,440.5605 C -495.22312,613.70496 -328.34257,553.23316 -163.17722,501.6132 L -144.30638,470.53183 z "
               style="fill:#fffdff;fill-opacity:1;fill-rule:evenodd;stroke:#000000;stroke-width:3.54330707;stroke-linecap:butt;stroke-linejoin:miter;stroke-miterlimit:4;stroke-dasharray:none;stroke-opacity:1" />
            <path
               id="path2199"
               d="M -159.84707,517.15389 L -164.28727,554.89556 C -410.83008,628.22195 -554.87031,600.67277 -614.96721,490.51271 C -510.71328,625.28192 -345.71296,591.61798 -177.60786,549.34531 L -159.84707,517.15389 z "
               style="fill:#fffdff;fill-opacity:1;fill-rule:evenodd;stroke:#000000;stroke-width:3.54330707;stroke-linecap:butt;stroke-linejoin:miter;stroke-miterlimit:4;stroke-dasharray:none;stroke-opacity:1" />
            <path
               id="path2201"
               d="M -179.82796,570.43625 L -182.04805,602.62767 C -305.55981,615.95437 -508.76964,668.89089 -587.21598,567.1061 L -593.87628,539.35487 C -540.10454,667.12554 -285.42415,604.2419 -195.36864,594.85733 L -179.82796,570.43625 z "
               style="fill:#fffdff;fill-opacity:1;fill-rule:evenodd;stroke:#000000;stroke-width:3.54330707;stroke-linecap:butt;stroke-linejoin:miter;stroke-miterlimit:4;stroke-dasharray:none;stroke-opacity:1" />
            <path
               id="path2203"
               d="M -572.78534,611.50807 L -475.10102,653.68993 L -506.1824,653.68993 C -529.74369,643.71025 -552.18025,630.35635 -572.78534,611.50807 z "
               style="fill:#fffdff;fill-opacity:1;fill-rule:evenodd;stroke:#000000;stroke-width:3.54330707;stroke-linecap:butt;stroke-linejoin:miter;stroke-miterlimit:4;stroke-dasharray:none;stroke-opacity:1" />
            <path
               id="path2205"
               d="M -193.14855,612.61811 L -195.36864,642.58944 L -223.11987,644.80954 L -193.14855,612.61811 z "
               style="fill:#fffdff;fill-opacity:1;fill-rule:evenodd;stroke:#000000;stroke-width:3.54330707;stroke-linecap:butt;stroke-linejoin:miter;stroke-miterlimit:4;stroke-dasharray:none;stroke-opacity:1" />
            <path
               id="path2207"
               d="M -569.4552,654.79998 C -578.45045,596.45225 -589.1336,542.01252 -608.30691,491.62276"
               style="fill:none;fill-opacity:0.75;fill-rule:evenodd;stroke:#000000;stroke-width:1px;stroke-linecap:butt;stroke-linejoin:miter;stroke-opacity:1" />
          </g>
          <path
             style="fill:#fefefd;fill-opacity:1;fill-rule:evenodd;stroke:#000000;stroke-width:3.54330707;stroke-linecap:butt;stroke-linejoin:miter;stroke-miterlimit:4;stroke-dasharray:none;stroke-opacity:1"
             d="M -103.23457,206.34014 L -192.0385,207.45019 C -182.03442,235.11232 -191.52949,257.89967 -192.0385,282.93353 L -104.34462,284.04358 L -103.23457,206.34014 z "
             id="path2228" />
          <g
             id="g2248">
            <path
               id="path2224"
               d="M -397.39758,43.162918 C -397.7676,43.162918 -398.13762,43.162918 -397.39758,43.162918 z "
               style="fill:none;fill-opacity:0.75;fill-rule:evenodd;stroke:#000000;stroke-width:1px;stroke-linecap:butt;stroke-linejoin:miter;stroke-opacity:1" />
            <path
               id="path2232"
               d="M -396.28753,59.17543 L -396.28753,105.32567 L -552.63174,106.43572 C -560.79462,96.151632 -569.69529,86.912741 -568.5937,63.503989 C -497.88141,57.855161 -454.33334,59.68432 -396.28753,59.17543 z "
               style="fill:#fdfeff;fill-opacity:1;fill-rule:evenodd;stroke:#000000;stroke-width:3.54330707;stroke-linecap:butt;stroke-linejoin:miter;stroke-miterlimit:4;stroke-dasharray:none;stroke-opacity:1" />
            <path
               id="path2244"
               d="M -553.91451,147.50754 L -552.63174,106.43572 C -561.10222,94.928106 -571.04162,84.693561 -567.99549,63.204887 L -599.70035,111.06127 L -584.14702,152.33741 L -553.91451,147.50754 z "
               style="fill:#fafcf9;fill-opacity:1;fill-rule:evenodd;stroke:#000000;stroke-width:3.54330707;stroke-linecap:butt;stroke-linejoin:miter;stroke-miterlimit:4;stroke-dasharray:none;stroke-opacity:1" />
            <path
               id="path2240"
               d="M -554.53588,147.85087 L -658.04639,164.84283 C -659.90501,176.02828 -657.65877,187.21373 -652.34237,198.39918 L -579.06228,187.03329 L -554.53588,147.85087 z "
               style="fill:#fefff7;fill-opacity:1;fill-rule:evenodd;stroke:#000000;stroke-width:3.54330707;stroke-linecap:butt;stroke-linejoin:miter;stroke-miterlimit:4;stroke-dasharray:none;stroke-opacity:1" />
            <path
               id="path2234"
               d="M -658.25913,165.26832 C -661.89939,196.02673 -637.50381,217.63859 -627.00503,242.03443 L -622.73755,255.1823 L -649.50511,278.91882 L -650.48878,261.84259 L -679.35006,200.78989 L -658.25913,165.26832 z "
               style="fill:#fefff7;fill-opacity:1;fill-rule:evenodd;stroke:#000000;stroke-width:3.54330707;stroke-linecap:butt;stroke-linejoin:miter;stroke-miterlimit:4;stroke-dasharray:none;stroke-opacity:1" />
            <path
               id="path2238"
               d="M -650.84686,262.10799 L -627.51687,241.76903"
               style="fill:none;fill-opacity:0.75;fill-rule:evenodd;stroke:#000000;stroke-width:3.54330707;stroke-linecap:butt;stroke-linejoin:miter;stroke-miterlimit:4;stroke-dasharray:none;stroke-opacity:1" />
          </g>
        </g>
      </g>
      <path
         style="fill:none;fill-opacity:0.75;fill-rule:evenodd;stroke:#000000;stroke-width:1px;stroke-linecap:butt;stroke-linejoin:miter;stroke-opacity:1"
         d="M -536.7522,477.69675 C -536.7522,477.25715 -536.7522,476.81755 -536.7522,477.69675 z "
         id="path2360" />
      <path
         style="fill:none;fill-opacity:0.75;fill-rule:evenodd;stroke:#000000;stroke-width:1px;stroke-linecap:butt;stroke-linejoin:miter;stroke-opacity:1"
         d="M -393.00284,126.89556 C -393.44244,126.89556 -393.88204,126.89556 -393.00284,126.89556 z "
         id="path2364" />
    </g>
    <g
       transform="translate(754.5487,1.000000)"
       id="g2431">
      <path
         style="opacity:1;fill:#ffffff;fill-opacity:1;fill-rule:evenodd;stroke:#000000;stroke-width:3.54330707;stroke-linecap:round;stroke-linejoin:round;stroke-miterlimit:4;stroke-dasharray:none;stroke-dashoffset:0;stroke-opacity:1"
         id="path2405"
         d="M -113.42073 452.03799 A 5.0495529 7.380116 0 1 1  -123.51984,452.03799 A 5.0495529 7.380116 0 1 1  -113.42073 452.03799 z"
         transform="matrix(1.569441,0.000000,0.000000,1.297100,69.79235,-131.5815)" />
      <path
         transform="matrix(1.569441,0.000000,0.000000,1.297100,51.92470,-59.33405)"
         d="M -113.42073 452.03799 A 5.0495529 7.380116 0 1 1  -123.51984,452.03799 A 5.0495529 7.380116 0 1 1  -113.42073 452.03799 z"
         id="path2407"
         style="opacity:1;fill:#ffffff;fill-opacity:1;fill-rule:evenodd;stroke:#000000;stroke-width:3.54330707;stroke-linecap:round;stroke-linejoin:round;stroke-miterlimit:4;stroke-dasharray:none;stroke-dashoffset:0;stroke-opacity:1" />
      <path
         style="opacity:1;fill:#ffffff;fill-opacity:1;fill-rule:evenodd;stroke:#000000;stroke-width:3.54330707;stroke-linecap:round;stroke-linejoin:round;stroke-miterlimit:4;stroke-dasharray:none;stroke-dashoffset:0;stroke-opacity:1"
         id="path2409"
         d="M -113.42073 452.03799 A 5.0495529 7.380116 0 1 1  -123.51984,452.03799 A 5.0495529 7.380116 0 1 1  -113.42073 452.03799 z"
         transform="matrix(1.569441,0.000000,0.000000,1.297100,33.28020,12.91340)" />
      <path
         transform="matrix(0.927911,0.000000,0.000000,0.797457,-405.1246,156.4247)"
         d="M -113.42073 452.03799 A 5.0495529 7.380116 0 1 1  -123.51984,452.03799 A 5.0495529 7.380116 0 1 1  -113.42073 452.03799 z"
         id="path2411"
         style="opacity:1;fill:#ffffff;fill-opacity:1;fill-rule:evenodd;stroke:#000000;stroke-width:3.54330707;stroke-linecap:round;stroke-linejoin:round;stroke-miterlimit:4;stroke-dasharray:none;stroke-dashoffset:0;stroke-opacity:1" />
      <path
         style="opacity:1;fill:#ffffff;fill-opacity:1;fill-rule:evenodd;stroke:#000000;stroke-width:3.54330707;stroke-linecap:round;stroke-linejoin:round;stroke-miterlimit:4;stroke-dasharray:none;stroke-dashoffset:0;stroke-opacity:1"
         id="path2413"
         d="M -113.42073 452.03799 A 5.0495529 7.380116 0 1 1  -123.51984,452.03799 A 5.0495529 7.380116 0 1 1  -113.42073 452.03799 z"
         transform="matrix(0.927911,0.000000,0.000000,0.797457,-280.8279,180.5072)" />
      <path
         transform="matrix(0.927911,0.000000,0.000000,0.797457,-143.3247,158.7553)"
         d="M -113.42073 452.03799 A 5.0495529 7.380116 0 1 1  -123.51984,452.03799 A 5.0495529 7.380116 0 1 1  -113.42073 452.03799 z"
         id="path2415"
         style="opacity:1;fill:#ffffff;fill-opacity:1;fill-rule:evenodd;stroke:#000000;stroke-width:3.54330707;stroke-linecap:round;stroke-linejoin:round;stroke-miterlimit:4;stroke-dasharray:none;stroke-dashoffset:0;stroke-opacity:1" />
      <path
         style="opacity:1;fill:#ffffff;fill-opacity:1;fill-rule:evenodd;stroke:#000000;stroke-width:3.54330707;stroke-linecap:round;stroke-linejoin:round;stroke-miterlimit:4;stroke-dasharray:none;stroke-dashoffset:0;stroke-opacity:1"
         id="path2417"
         d="M -113.42073 452.03799 A 5.0495529 7.380116 0 1 1  -123.51984,452.03799 A 5.0495529 7.380116 0 1 1  -113.42073 452.03799 z"
         transform="matrix(0.927911,0.000000,0.000000,0.797457,-134.0024,227.8953)" />
      <path
         transform="matrix(0.927911,0.000000,0.000000,0.797457,-281.6047,243.4324)"
         d="M -113.42073 452.03799 A 5.0495529 7.380116 0 1 1  -123.51984,452.03799 A 5.0495529 7.380116 0 1 1  -113.42073 452.03799 z"
         id="path2419"
         style="opacity:1;fill:#ffffff;fill-opacity:1;fill-rule:evenodd;stroke:#000000;stroke-width:3.54330707;stroke-linecap:round;stroke-linejoin:round;stroke-miterlimit:4;stroke-dasharray:none;stroke-dashoffset:0;stroke-opacity:1" />
      <path
         style="opacity:1;fill:#ffffff;fill-opacity:1;fill-rule:evenodd;stroke:#000000;stroke-width:3.54330707;stroke-linecap:round;stroke-linejoin:round;stroke-miterlimit:4;stroke-dasharray:none;stroke-dashoffset:0;stroke-opacity:1"
         id="path2421"
         d="M -113.42073 452.03799 A 5.0495529 7.380116 0 1 1  -123.51984,452.03799 A 5.0495529 7.380116 0 1 1  -113.42073 452.03799 z"
         transform="matrix(0.927911,0.000000,0.000000,0.797457,-426.8765,222.4573)" />
      <path
         transform="matrix(0.927911,0.000000,0.000000,0.797457,-357.7365,207.6971)"
         d="M -113.42073 452.03799 A 5.0495529 7.380116 0 1 1  -123.51984,452.03799 A 5.0495529 7.380116 0 1 1  -113.42073 452.03799 z"
         id="path2423"
         style="opacity:1;fill:#ffffff;fill-opacity:1;fill-rule:evenodd;stroke:#000000;stroke-width:3.54330707;stroke-linecap:round;stroke-linejoin:round;stroke-miterlimit:4;stroke-dasharray:none;stroke-dashoffset:0;stroke-opacity:1" />
      <path
         style="opacity:1;fill:#ffffff;fill-opacity:1;fill-rule:evenodd;stroke:#000000;stroke-width:3.54330707;stroke-linecap:round;stroke-linejoin:round;stroke-miterlimit:4;stroke-dasharray:none;stroke-dashoffset:0;stroke-opacity:1"
         id="path2425"
         d="M -113.42073 452.03799 A 5.0495529 7.380116 0 1 1  -123.51984,452.03799 A 5.0495529 7.380116 0 1 1  -113.42073 452.03799 z"
         transform="matrix(0.927911,0.000000,0.000000,0.797457,-210.9110,206.9202)" />
      <path
         transform="matrix(0.927911,0.000000,0.000000,0.797457,-192.2665,277.6139)"
         d="M -113.42073 452.03799 A 5.0495529 7.380116 0 1 1  -123.51984,452.03799 A 5.0495529 7.380116 0 1 1  -113.42073 452.03799 z"
         id="path2427"
         style="opacity:1;fill:#ffffff;fill-opacity:1;fill-rule:evenodd;stroke:#000000;stroke-width:3.54330707;stroke-linecap:round;stroke-linejoin:round;stroke-miterlimit:4;stroke-dasharray:none;stroke-dashoffset:0;stroke-opacity:1" />
      <path
         style="opacity:1;fill:#ffffff;fill-opacity:1;fill-rule:evenodd;stroke:#000000;stroke-width:3.54330707;stroke-linecap:round;stroke-linejoin:round;stroke-miterlimit:4;stroke-dasharray:none;stroke-dashoffset:0;stroke-opacity:1"
         id="path2429"
         d="M -113.42073 452.03799 A 5.0495529 7.380116 0 1 1  -123.51984,452.03799 A 5.0495529 7.380116 0 1 1  -113.42073 452.03799 z"
         transform="matrix(0.927911,0.000000,0.000000,0.797457,-367.8356,273.7296)" />
    </g>
  </g>
</svg>