<svg xmlns="http://www.w3.org/2000/svg"><title>Herb Chojna</title><path d="M0 0h527.445v362.3c.137 209.051-175.535 188.793-263.3 283.192C176.098 551.097.145 571.351.004 362.3V0" style="fill:#222;fill-rule:evenodd;stroke:none"/><path d="M343.012 547.98a5.547 5.547 0 0 1-5.539-5.539 5.547 5.547 0 0 1 5.539-5.539 5.55 5.55 0 0 1 5.539 5.539 5.55 5.55 0 0 1-5.539 5.539m-143.453-2.91a5.55 5.55 0 0 1-5.539-5.539 5.547 5.547 0 0 1 5.539-5.539 5.55 5.55 0 0 1 5.539 5.539 5.547 5.547 0 0 1-5.539 5.539m155.027-9.067a3.84 3.84 0 0 1-3.832-3.832 3.84 3.84 0 0 1 3.832-3.832 3.84 3.84 0 0 1 3.832 3.832 3.84 3.84 0 0 1-3.832 3.832m-143.453-2.91a3.84 3.84 0 0 1-3.832-3.832 3.84 3.84 0 0 1 3.832-3.832 3.84 3.84 0 0 1 3.832 3.832 3.84 3.84 0 0 1-3.832 3.832m142.855-17.035a3.84 3.84 0 0 1-3.832-3.832 3.84 3.84 0 0 1 3.832-3.832 3.84 3.84 0 0 1 3.832 3.832 3.84 3.84 0 0 1-3.832 3.832m-143.453-2.91a3.84 3.84 0 0 1-3.832-3.832 3.84 3.84 0 0 1 3.832-3.832 3.84 3.84 0 0 1 3.832 3.832 3.84 3.84 0 0 1-3.832 3.832m121.652 2.91a3.84 3.84 0 0 1-3.832-3.832 3.84 3.84 0 0 1 3.832-3.832 3.84 3.84 0 0 1 3.833 3.832 3.84 3.84 0 0 1-3.833 3.832m-143.453-2.91a3.84 3.84 0 0 1-3.832-3.832 3.84 3.84 0 0 1 3.832-3.832 3.84 3.84 0 0 1 3.832 3.832 3.84 3.84 0 0 1-3.832 3.832m143.157 23.004a3.84 3.84 0 0 1-3.832-3.832 3.84 3.84 0 0 1 3.832-3.832 3.84 3.84 0 0 1 3.832 3.832 3.84 3.84 0 0 1-3.832 3.832m-143.457-2.91a3.84 3.84 0 0 1-3.832-3.832 3.84 3.84 0 0 1 3.832-3.832 3.84 3.84 0 0 1 3.832 3.832 3.84 3.84 0 0 1-3.832 3.832m182.832-11.078a5.55 5.55 0 0 1-5.539 5.539 5.55 5.55 0 0 1-5.54-5.539 5.55 5.55 0 0 1 5.54-5.539 5.55 5.55 0 0 1 5.539 5.539m-143.453-2.911a5.55 5.55 0 0 1-5.54 5.539 5.547 5.547 0 0 1-5.539-5.539 5.55 5.55 0 0 1 5.539-5.539 5.55 5.55 0 0 1 5.54 5.539m115.199-11.39a5.547 5.547 0 0 1-5.539-5.539 5.547 5.547 0 0 1 5.539-5.539 5.547 5.547 0 0 1 5.539 5.539 5.55 5.55 0 0 1-5.539 5.539m-143.453-2.91a5.547 5.547 0 0 1-5.539-5.539 5.547 5.547 0 0 1 5.539-5.539 5.55 5.55 0 0 1 5.539 5.539 5.55 5.55 0 0 1-5.539 5.539m126.734 17.211a5.547 5.547 0 0 1-5.539 5.539 5.547 5.547 0 0 1-5.539-5.539 5.55 5.55 0 0 1 5.539-5.539 5.547 5.547 0 0 1 5.539 5.539m-143.453-2.911a5.547 5.547 0 0 1-5.539 5.539 5.547 5.547 0 0 1-5.539-5.539 5.55 5.55 0 0 1 5.539-5.539 5.55 5.55 0 0 1 5.539 5.539m146.883 2.911 13.289-11.395 13.285 11.395-13.285 11.394zm-143.453-2.911 13.289-11.394 13.285 11.394-13.285 11.395z" style="fill:#fff101;fill-rule:evenodd;stroke:none"/><path d="M226.98 511.644a8.95 8.95 0 0 1 4.239 7.606 8.94 8.94 0 0 1-4.106 7.515c19.328 14.293 71.52 14.141 89.278 3.203-2.731-1.531-4.586-4.461-4.586-7.808 0-3.899 2.515-7.227 6.004-8.45-13.067-10.57-73.454-14.253-90.825-2.066zm-70.953-312.262c77.004-13.816 145.625-14.492 206.61-2.32 11.285 2.918 17.066-7.949.461-10.676-57.989-9.183-129.668-7.676-209.844.461-8.934 2.321-10.32 14.852 2.769 12.531zm-3.234-33.062c-8.883 1.203-11.309-9.152-2.578-10.621 63.43-10.172 135.726-10.547 219.797 2.07 12.343 2.07 7.336 11.918-2.578 9.324-70.879-10.965-142.383-11.918-214.637-.773z" style="fill:#fff101;fill-rule:evenodd;stroke:none"/><path d="M261.016 177.976c-4.618 0-8.383-3.766-8.383-8.383s3.765-8.383 8.383-8.383 8.382 3.766 8.382 8.383-3.765 8.383-8.382 8.383m-104.645 6.281c-4.988 1.11-9.859-1.558-10.836-5.945-.976-4.387 2.297-8.871 7.289-9.984 4.992-1.11 9.86 1.558 10.84 5.945.977 4.387-2.297 8.871-7.289 9.984zm43.977-6.043c-9.84.821-18.078-1.058-18.34-4.187-.258-3.125 7.551-6.348 17.39-7.172 9.84-.82 18.079 1.059 18.34 4.184.258 3.125-7.551 6.347-17.39 7.171zm115.828.258c-8-.656-14.274-4.265-13.965-8.031s7.086-6.305 15.086-5.649c8 .657 14.273 4.266 13.965 8.032-.309 3.765-7.086 6.304-15.086 5.648m48.691 6.016c-5.504-1.399-9.195-5.699-8.211-9.574.985-3.868 6.281-5.883 11.785-4.485 5.508 1.399 9.196 5.703 8.211 9.574-.984 3.872-6.281 5.887-11.789 4.485z" style="fill:#fff101;fill-rule:evenodd;stroke:none"/><path d="M212.129 164.765c9.285-3.461 19.949-5.109 31.988-2.847 6.793 1.121 8.254 14.851-.515 16.839-8.555 1.27-17.754 1.313-30.438.516 3.18-4.492 9.195-7.082 16.508-8.809-5.844-.855-11.692-2.066-17.539-5.695zm69.137-2.594c-8.168.95-10.489 10.621-.774 14.25 6.922 1.899 14.317 1.899 21.926 1.036-1.977-3.325-6.02-5.872-10.059-7.125 3.696-1.25 6.618-2.762 10.575-6.606-7.223-2.027-14.446-2.976-21.668-1.555m69.914 7.774c4.039 3.453 4.211 8.719-1.028 11.398-4.382 1.293-13.757.258-19.605-1.812q2.32-3.887 10.84-5.699-5.679-2.203-10.321-8.547c6.907.543 13.93.531 20.121 4.66zm-166.657-4.922c-1.625 3.875-4.113 7.316-8.496 9.809 3.864 1.046 7.043 3.128 9.528 6.25-5.071 1.597-9.629 2.027-15.219.515-6.535-2.199-5.934-11.269-1.031-13.988q7.606-3.363 15.218-2.59zm3.629-17.398q8.549-.812 17.102-1.622c-5.016-3.55-6.32-9.277-5.774-14.386 11.399-.77 14.25-12.223-6.238-19.957-2.004 3.941-5.621 5.57-8.086 8.355-7.742 8.293-4.105 14.09 6.469 12.067q1.956 8.239-3.465 15.546z" style="fill:#fff101;fill-rule:evenodd;stroke:none"/><path d="M113.156 43.594a5.4 5.4 0 0 0-.812.062c7.473 15.316 4.55 32.958 14.562 47.344 2.312 4.176 6.718 5.87 12.031 5.563 2.161.02 5.897-.37 8.47 6.093l7.062-.781-6.188 3.875c1.685 17.42-11.983 8.803-7.969 21 1.81 9.711 3.973 18.606 6.938 26.688 8.551-1.234 21.012-3.173 29.563-4.407l.03-.031c-2.772-5.336-7.402-10.226-9.25-15.562-2.773-8.278 4.622-7.262 3.47-11.594-8.883 1.754-17.551 3.215-18.97-4.406-.256-4.66 2.118-8.016 10.407-5.563 9.629 4.797 10.032-5.481 21.969-7.875-1.16-4.094-3.25-5.024-6.25-2.781q-8.204 4.755-9.938-1.625c-.383-6.688 3.824-6.712 9-5.344 6.547-.078 3.872-7.114 7.875-12.062-6.066-2.32-10.656-7.29-19.187-1.876 2.85-5.8 4.535-10.44 3.687-12.53-2.309 1.472-7.14 3.397-10.375 2.78-7.469-1.7-11.117 2.406-10.656 10.22 1.078 8.428-5.547 11.917-11.094 6.968-5.238-4.68-1.992-10.48 5.094-15.781C147 66.48 145.793 59.51 141 51.313c-.617 3.25-1.23 6.503-1.844 9.75-.383 5.956-10.245 6.097-8.094-3.032 2.154-10.92-13.137-14.563-17.906-14.437" style="fill:#fff101;fill-rule:evenodd;stroke:none"/><path d="M133.379 99.351c-2.981 3.461 1.367 16.027 5.773 18.332 11.707-2.703 7.934-24.91-5.773-18.332m124.797 46.184q6.352-.231 12.711.465c-3.86-2.313-5.551-4.242-6.93-9.039-1.172 4.342-2.55 5.333-5.781 8.574" style="fill:#fff101;fill-rule:evenodd;stroke:none"/><path d="M265.02 111.175c9.59-3.04 14.315-7.463 17.515-17.515 3.06-.77 4.102-.71 6.727-2.039-2.782-.375-5.817-.5-6.727-.5-2.389-9.077-8.59-14.104-17.515-17.516 0-3.512-.625-10.523-1.375-14.289-1.055 4.45-1.165 10.551-1.165 14.289-10.447 4.816-14.376 9.53-17.515 17.516-.906 0-4.192.5-7.602 1 3.134 1.104 4.979.914 7.602 1.539 3.853 8.337 7.128 13.772 17.515 17.519v21.969c-2.585 7.773-5.562 11.418-9.382 12.387q-17.445.229-34.895.465c6.586-4.293 13.676-14.817 16.867-22.743-15.636-.847-7.855-10.519 1.153-10.211 5.547-.808 9.168-2.589 8.547-6.496-.961-2.433-4.04-3.132-11.786 0-13.711 5.106-16.793-3.246-25.187-4.871.844-3.554 11.168-6.652 16.867-9.515-12.598-.321-21.074-.977-21.492-8.352-.113-7.504 8.277-8.199 19.875-5.801-.613-5.027-11.86-12.609-.461-16.476 8.703-.153 9.09 8.972 13.633 13.461 12.711 9.711 16.179-6.457 9.703-8.817-18.488-6.379-18.336-14.89-9.703-24.367 2.039 3.328 5.429 5.879 11.781 6.73-2.309-9.839 2.695-16.378 12.711-20.652q10.048 4.179 14.559 20.422 4.505-4.87 9.011-9.746c7.547 10.363 8.008 16.711 1.383 19.031-5.32 2.86-8.559 3.785-11.781 9.281-5.317 8.122 1.613 14.622 9.703 9.051 6.086-7.051 11.941-13.015 16.176-11.371 3.543 1.043 3.695 5.918 2.308 12.531 15.176-8.507 23.418 16.633-1.613 15.547 4.543 2.938 10.473 5.879 12.707 10.442-9.394-.153-10.473 7.117-20.797 3.945-5.004-1.547-12.554-7.734-14.094 1.16-1.617 10.133 9.704 3.324 14.79 5.336 1.617 4.68-1.848 8.082-7.626 10.906 6.352 4.871 11.36 11.676 13.403 22.743q-11.9-.926-23.801-1.856c-3.687-.887-6.953-4.457-10.023-12.156.206-6.654.02-15.323.004-21.981" style="fill:#fff101;fill-rule:evenodd;stroke:none"/><path d="M263.75 103.941c-6.363 0-11.555-5.188-11.555-11.555 0-6.363 5.192-11.554 11.555-11.554s11.555 5.187 11.555 11.554c0 6.364-5.188 11.555-11.555 11.555m44.113 43.801c5.239-2.512 9.321-7.344 10.86-17.289-10.817-3.328-7.676-9.825-2.157-13.407 3.778-2.449 5.571-.539 10.243-4.461 10.589 9.532 13.921 21.305 1.152 19.493 1.422 7.464 3.426 13.964 6.699 18.336-8.933-1.547-17.871-2.36-26.805-2.668z" style="fill:#fff101;fill-rule:evenodd;stroke:none"/><path d="M14.375 14.344v346.219c.05 79.117 26.191 123.019 62.906 152.812l29.75-30.937c18.496-19.851 28.945-16.735 54.219-31.907 1.269-4.82 3.824-9.211 5.094-14.031-8.543-2.055-13.203-9.566-16.094-19.562-47.297-21.274-43.199-72.742-13.125-109.75.985-5.387 2.54-10.946 4.656-14.063-10.273-.726-10.918-84.61 2.531-90.156-2.407-3.114-3.258-7.649 0-15.313-4.094-5.957-3.405-14.328.407-18.719-5.433-2.98-6.418-12.07-1.688-17.03-2.824-10.783-6.91-22.82-5.5-31.47-3.812-2.555-8.046-11.636-8.469-22.124-3.246-1.704-4.933-3.824-6.343-8.5-8.754-20.133-4.79-28.379-14.813-48.938 7.876.255 15.865.16 21.938 5.844.013.018.017.044.031.062 3.287 3.944 3.841 8.053 2.813 13.125-.152 3.324 3.148 4.02 4.843 0 .69-3.631 1.447-7.02.063-10.531 2.806-2.486 5.6-1.072 8.406 4.281 4.168 12.973 1.477 20.47-6.781 25.5-4.136 4.407 4.554 12.793 5.937 4.281q.633-16.163 13.125-15.312c4.094.847 8.187-.598 12.281-4.281 1.56 2.976 2.567 6.39-.406 12.781 6.778-4.825 13.536 3.098 20.313 4.656-7.484 4.536-2.684 9.52-8.469 14.906 2.82 2.552 6.488 6.793 4.656 9.344-13.133 3.543-7.203 5.82-15.25 8.938.922.996.922 3.258 0 4.25 2.13 2.692 3.426 5.656-1.25 10.625-.562 2.125.555 5.387 3.375 9.781 5.359 9.9 17.36 7.164 12.719-4.25-8.469-.425-11.312-7.933-3.406-16.156 3.25-2.633 6.504-5.722 9.75-10.625 24.004 9.926 23.145 22.253 11 25.937-.231 8.77 12.215 11.22 19.937 2.125 2.117-3.262 3.79-6.524 5.906-9.781-9.21-3.54-6.519-9.063-2.125-14.875-14.12-.141-10.019-5.829-24.562-8.094 2.117-4.825 6.523-7.926 13.156-9.344-11.016 1.56-16.406-2.008-16.125-10.656.684-9.813 7.624-10.625 16.531-10.187-6.637-10.207 3.098-17.731 13.97-12.344-5.509-8.649-3.09-16.738 7.218-24.25 2.082 3.481 3.543 8.169 8.031 6.813-2.715-6.954 5.49-12.906 15.25-18.72 7.778 4.107 14.683 8.923 15.656 18.72 3.953-.992 3.688-7.078 8.063-10.626 2.824 4.115 15.82 21.402 5.938 25.938-5.224 1.843-11.305 5.39-14.407 11.063-3.25 3.398 2.543 7.781 7.625 1.687 12.426-14.746 24.414-13.31 21.594 1.719 18.918-3.118 18.07 20.969 3.813 21.25 4.516 2.27 8.183 6.965 9.312 11.5-17.227 1.137-5.23 1.832-22.031 7.219 1.41 4.534-.543 8.504-5.906 11.906 4.233 4.113 8.029 9.06 9.75 15.312 3.164 11.5 13.504 1.04 15.218-8.094-11.016-1.559-8.48-15.855 2.531-18.687 6.22-1.692 6.953-3.992 8.5-8.531 6.351 10.918 24.845 26.11 5.5 30.219-.14 2.125 1.037 4.41 1.25 6.375.498 4.57 6.13 6.86 11.44-1.812 2.044-3.339 2.67-3.596 6.342-9.689q-4.451-7.868 4.656-14.03c-13.418-1.419-9.015-9.618-21.156-14.438 1.41-3.547 4.516-5.976 9.312-7.25-4.449-1.703-8.121-6.511-11.437-12.75 3.03-6.312 10.755-9.554 19.6-6.942 8.425 2.488 7.14-1.876 4.526-2.981-10.238-4.33-.045-7.773 4.655-7.515 5.676.527 7.844 2.734 11.875 8.5 8.469 14.04 13.961 5.544 3.375-1.687-7.399-6.996-.34-22.246 13.125-31.5-.563 6.379-1.125 12.777-1.687 19.156-.281 5.242 5.937 8.376 5.937.438-3.25-20.278 14.266-6.125 22.031-17.47-3.882 18.435-10.105 36.88-17.375 55.313-.992 10.066-3.606 15.664-8.875 18.281 1.27 3.121.278 9.083-2.969 17.876-2.117 7.37-4.26 14.754-6.375 22.125 6 6.026 5.028 17.93-.406 18.28 3.106 6.38 2.266 11.642-2.531 15.75 2.969 5.818 1.414 9.907-4.656 12.313 15.246 22.121 16.52 36.442 11.437 47.219 12.703 11.629 16.364 28.933 11 51.906 19.254 11.433 27.2 61.735 6.781 85.5-5.379 4.25-5.788 8.528-5.5 12.781 1.554 10.779-3.129 15.293-14 13.594-1.98 1.98-3.934 2.258-5.906.844-.129 8.102-5.238 9.246-11.031 9.375-2.684 2.269-5.351 4.516-8.031 6.781l.062.031 12.688 17.438c31.648 1.27 62.359 18.883 91.906 56.125 30.492-29.488 51.234-72.07 51.188-142.687V14.342zm217.688 47.625c1.847 5.03 6.23 17.02 12.468 13 7.043-7.695-7.633-9.344-12.469-13M172.875 95.25c-1.805.014-2.922.793-2.75 3.156.308 3.942 4.328 3.094 9.719-1.625-2.655-.793-5.164-1.545-6.969-1.531m109.531 10.719c-1.164.084-1.934.818-2.031 2.656.844 6.653 4.442.324 12.219 1.406-3.21-1.273-7.627-4.248-10.188-4.062m-42.25.344c-2.627-.104-6.082 2-9.469 3.937 5.551 1.09 10.559 1.5 11.782-3-.66-.616-1.437-.903-2.313-.937m-82.562 7.03c-1.784.047-3.118.734-3.406 2.938.308 3.946 4.621 5.41 12.937 4.406 2.539-.078 2.469-6.492.469-6.03-2.793.338-7.028-1.39-10-1.313m207.375.188c-2.235-.025-4.365 1.6-6.5 2.063 1.543 1.317 3.305 3.094 4.844 4.406 4.077.696 6.554-3.54 3.937-5.781a4.3 4.3 0 0 0-2.281-.688" style="opacity:1;fill:#11b1ee;fill-opacity:1;fill-rule:evenodd;stroke:none;stroke-width:1;stroke-linecap:butt;stroke-linejoin:miter;marker:none;marker-start:none;marker-mid:none;marker-end:none;stroke-miterlimit:4;stroke-dasharray:none;stroke-dashoffset:0;stroke-opacity:1;visibility:visible;display:inline;overflow:visible"/><path d="M200.738 439.023c21.262 27.187 99.172 32.008 128.434 7.879-3.781 9.875-8.395 19.535-16.359 28.812-36.114 5.813-56.532 4.61-87.415 2.024-10.128-8.625-20.511-25.281-24.652-38.715zm27.121 41.645c4.684 7.55 11.379 15.218 19.723 20.933 14.941-1.258 28.613-1.293 45.945.449 7.059-7.726 12.364-15.457 17.036-23.183-25.215 4.277-52.114 5.925-82.711 1.801zm91.215-220.747c-1.265 1.938-2.945 3.469-5.031 4.594 1.41-3.711-1.586-9.281-10.57-9.613-8.653-.481-11.91 4.043-10.93 8.39a19.04 19.04 0 0 1-4.727-6.89c12.821-2.789 24.133-3.082 31.258 3.519m-121.683 1.071q1.903 2.906 5.031 4.593c-1.41-3.714 1.414-9.687 10.765-9.789 9.368.438 11.715 4.215 10.731 8.563a19 19 0 0 0 4.723-6.891c-12.821-2.789-24.133-3.082-31.258 3.52zm-49.309-58.274c5.316-.347 12.992-.437 18.836-1.84-12.426 13.989-8.195 21.438-15.75 32.223-6.051 11.844-10.684 18.363-3.867 39.766-1.446 11.355-2.137 14.363-2.875 17.863-3.813-2.418-6.125-14.656-5.754-44.402.391-17.91 2.742-33.41 9.418-43.614zm22.762-2.89c-11.074 11.734-10.375 25.836-18.313 36.781q-10.068 16.811-4.445 30.476c2.18-11.472 6.801-20.144 13.863-26.007-2.351-15.325 28.254-21.985 42.383-45.981-5.406.61-10.812 1.227-16.219 1.836-8.109 8.93-11.511 5.516-24.328 26.801 2.524-8.758 6.883-17.516 17.789-26.274q-5.36 1.18-10.726 2.364zm-31.657 132.953c-1.042-40.461 8.11-30.215 9.418-48.867 1.176-16.2 4.75-30.215 13.602-39.411.262.7 2.352 1.399 2.613 2.102-.609-9.02-1.742-11.734 6.535-16.289v15.238c-20.117 10.039-20.824 42.18-19.882 76.196 1.832-33.868 4.711-65.536 19.882-71.204-.085 3.325-.171 6.657-.261 9.985-9.883 8.824-10.063 39.105-9.418 71.203 2.258-29.809 4.605-58.875 9.679-64.633-.015 5.828-.214 11.699 2.614 16.813-5.188 10.55-3.184 28.328 2.09 49.394-2.188-18.051-3.153-35.137.261-45.453 2.7 4.641 5.407 7.18 8.371 10.77-1.046 19.441 1.043 37.832 6.278 55.175 2.359 4.629 2.269 12.953 1.828 21.805q-2.351-12.873-7.848-25.746c1.664 7.164 5.336 18.641 5.196 28.785-6.422 15.508-6.864 24.828-4.852 29.731-2.871 8.886-6.781 16.203-11.07 20.304 16.828-67.961-7.672-62.355-11.512-93.535 3.398 31.703 21.976 37.133 10.199 95.113-8.894 2.321-14.215-2.14-9.152-21.543 8.719-38.007-11.598-34.769-10.727-80.925-4.293 5.164-3.203 16.988 1.567 33.367q-15.041-12.084-15.434-28.375zm55.727 26.535c3.75 27.148-10.812 24.871-6.801 47.555 7.063-.086 4.969-18.305 10.2-27.848q-1.827 13.396-3.661 26.797c4.453-.992 8.821-2.52 10.461-20.492v-14.977q-6.67-5.515-10.199-11.031zm-58.082-45.191c-25.488 35.488-25.355 73.367 8.371 96.953-4.328-18.907-23.144-27.512-13.078-54.387-6.016 27.324 9.941 35.996 16.48 55.437 8.602 4.907 5.223-9.738-4.089-24.421-5.727-12.329-11.18-20.356-10.036-32.852a148 148 0 0 1 2.09-17.34c-1.656-8.406-.871-16.375.258-23.383zm20.145 103.523c4.488-8.445 7.019-19.309 5.23-35.469-3.574-21.105-14.996-16.988-24.066-36.519-6.278 31.351 21.711 47.992 18.836 71.992zm207.015-216.352c11.621 10.551 18.156 24.789 15.629 45.61-15.937-15.922-41.902-20.293-45.75-33.254-3.609-7.383-9.695-15.645-18.832-20.649l21.527 3.258c16 25.492 27.942 38.77 34.504 35.836q-19.166-11.25-28.898-35.539 8.256 1.63 16.512 3.254c3.855 7.328 7.246 16.066 10.32 25.766-.391-8.094-1.473-16.192-5.012-24.286zm-20.644 25.473c-.207 15.59 2.379 16.16 3.965 28.602 16.82 8.004 9.292 22.625 19.921 26.48-4.027-11.254-3.339-18.359-12.089-33.762 15.628 16.977 11.007 28.825 17.988 40.868 2.16 3.945 4.324 7.894 6.484 11.843-1.18-39.093-17.105-33.172-21.23-64.859-4.52-2.664-10.516-6.516-15.039-9.18zm53.968 82.633c-1.964-1.875-1.57-2.567-3.535-4.442-2.508 9.473-6.633 17.868-11.5 25.766 3.504-9.215 7.266-18.172 9.141-29.023 7.129-30.508-6.828-50.153-30.375-64.86 4.324 28.133 23.098 27.543 20.051 71.078a126.5 126.5 0 0 1-13.563-21.914q-3.094-.74-5.012-2.664c-1.57 21.617 8.946 20.137 8.551 44.426l.293 19.25q4.719-4.886 10.613-5.031c-26.644 14.605-26.64 50.344-8.253 67.82-8.7-25.223-6.832-48.918 3.535-49.461-8.606 14.113-7.524 30.403-1.18 47.684 3.242 6.613 7.371 1.972 5.895-2.367-1.719-4.539-1.817-9.082-1.176-13.625-.203 15.621 13.453 18.105 11.793 10.363-1.489-9.774-1.696-19.258 7.074-26.652 13.367-27.27 11.793-44.696 0-55.383 3.93 49.851-15.727 37.511-18.281 69.597 2.554-42.449 19.558-25.964 15.922-80.558zm-61.929 43.832c-7.567 11.348-8.453 42.152 6.191 47.09-4.816-16.586-5.699-32.086-6.191-47.09m4.129-51.535c1.421 14.879.929 30.726-2.356 47.976 2.992 44.082 10.168 73.602 26.539 71.078-10.394-8.07-16.734-28.359-17.691-64.859-.867-31.789 3.988-60.613 2.062-90.922-1.25 13.528-3.363 26.36-8.55 36.723zm10.027-39.985c5.418 0 7.242 10.008 10.078 16.61-.773 11.258.945 21.668 5.547 30.476 4.812 10.364 2.555 26.653 3.832 39.981l-2.945 3.847c-4.817-16.976-3.145-46.695-10.91-51.828 4.914 13.426 2.75 35.442 7.668 55.383-8.024 21.977-6.426 40.016 6.781 53.309 4.125 6.414.488 10.758-6.781 5.922-10.004-8.95-14.184-34.676-13.86-65.75.195-29.321 3.047-58.641.59-87.961zm-138.539-67.519 6.445-.188-5.879 14.094-.566-13.902zm9.48-.766-6.257 15.235c6.195-.825 12.386-6.219 18.582-16.188l-12.325.949zm15.743-.758c-.946 4.059-.883 8.125.187 12.188 4.074-3.555 7.363-7.742 8.91-13.328l-9.101 1.14zm13.273-.953c-1.484 4.407-4.012 7.774-7.016 10.664 4.551-1.062 9.102-4.394 13.653-11.043zm21.617-.383c7.457 9.133 14.914 15.434 22.375 13.903-4.785-4.141-9.117-8.746-12.894-13.903zm13.656.192c3.192 4.664 6.54 8.535 10.239 10.664-2.211-3.426-3.16-6.856-2.844-10.281l-7.395-.379zm18.606 402.16c-14.266 9.082-27.582 19.5-39.254 32.184-8.73-9.457-18.375-17.657-28.648-24.981 6.71-9.66 11.507-28.734 13.503-61.562q19.166 2.958 43.055 1.183c2.137 23.492 4.996 44.449 11.34 53.172" style="fill:#fffdfd;fill-rule:evenodd;stroke:none"/><path d="M249.391 265.894c-.305 15.16 1.98 30.934 1.675 46.094-.355 10.105 17.637 11.535 18.754-1.531-.547 9.464 15.993 17.41 14.637-.762 3.508 10.566 4.879 21.133 10.52 31.699-8.739-10.562-6.657-14.086-10.063-20.672-4.738 3.551-10.203 2.223-14.18-1.375-.961 1.586-3.047 3.168-4.421 3.52q-.3 5.97-.61 11.941c.024-17.535-9.73-13.555-8.387-.457l-.761-11.176c-2.184.055-4.012-1.32-5.793-2.906-5.996 4.848-10.317 3.523-13.875-.609-3.149 7.043-7.215 7.504-9.453 21.132.66-19.292 7.265-20.824 11.281-28.023-2.235 12.606 11.687 8.523 10.976 1.527.2-16.691-2.031-33.535-1.828-50.226-1.058-19.731-9.89-34.184-25.308-37.672-31.895-1.504-32.832 1.484-39.34 10.566 1.101-9.429 11.297-14.711 34.765-13.933 20.356.754 29.813 10.121 31.106 35.679l.305 7.196zm-17.082 85.449c14.738 1.172 15.296-11.738 25.769-5.511 3.809 3.125 6.809 1.847 9.301-.153 8.484-4.949 11.941 6.633 23.328 3.52-.223 2.41-6.602 1.629-6.707 4.437-.051 2.051-13.598.047-16.621 2.297-.277-1.223 3.734-3.316 14.027-2.906-4.32-5.817-10.113-7.195-14.027-4.438-4.293 2.016-7.192 1.813-9.91-.304-5.336-4.082-8.739-2.703-14.789 4.285 5.285.762 10.57 3.672 15.855 3.519-3.098 1.684-7.265-.304-10.519-.304-2.539.609-1.727 7.504 4.57 8.574 11.691 2.75 16.547-1.102 23.633.457 3.429 1.016 4.902 3.262 5.488 6.734-1.906-4.082-4.242-6.328-8.996-5.511-2.172 1.554-11.551 1.964-20.582.457q-2.82-.916-5.641-1.836l-2.285 4.746.762-7.656c-2.031-2.297-.867-4.086-.457-6.582-4.625-.637-8.692-2.219-12.195-3.825zm112.582-79.828c1.308-23.64-3.918-23.148-3.981-44.754-10.555-7.301-11.25-23.172-30.531-33.898l-14.789-.949c-1.008 6.406 2.144 11.425 7.203 15.804-13.621 2.965-25.695-1.062-35.27-16.375h-7.773c-4.867 7.41-8.813 13.157-25.031 17.52-1.137-2.031-1.516-5.332-2.086-10.473-5.668 6.676-12.203 12.567-22.946 14.664-.277-6.445-.593-12.863-1.894-18.281-7.848 12.227-19.391 22.43-32.805 31.613v40.375c-1.769 22.219 12.766 27.297 19.153 40.946-2.211-2.754-4.422-5.247-6.637-6.473-.391 31.23 3.113 52.562 12.324 59.422 14.793 11.679 29.582 23.359 44.375 35.043 9.039 7.613 37.106 8.379 43.234 1.332 5.434-6.762 14.282-13.528 21.422-15.344 4.235-3.453 6.954-7.863 11.192-11.316 8.879-9.079 16.34-22.473 17.633-41.707.312-8.317.312-16.633-.379-24.946-2.782 3.364-5.563 5.395-8.344 7.235 8.152-6.95 13.84-19.266 15.93-39.422zm-115.629-4.398c-10.477 10.234-22.254 8.957-34.766 1.222 6.672 11.575 32.617 10.426 34.766-1.222m11.129-9.645c-9.145-10.258-15.043-17.402-25.922-17.609-7.176.664-11.981 1.429-17.535 5.969-3.911 3.113-8.383 3.418-13.114 2.449 1.621 1.734 3.45 3.371 6.707 4.285.707 4.598 1.77 8.734 5.336 9.644 7.625 11.075 31.207 11.024 35.071-6.125 3.406-.308 6.453.457 9.453 1.379zm35.683-1.074c9.145-10.258 15.043-17.402 25.922-17.609 7.176.664 11.977 1.429 17.531 5.968 3.91 3.114 8.383 3.422 13.114 2.45-1.621 1.734-3.454 3.371-6.707 4.285-.707 4.597-1.77 8.734-5.336 9.644-7.625 11.074-31.207 11.024-35.071-6.125-3.406-.308-6.453.453-9.449 1.375zm11.133 9.648c10.477 10.235 22.254 8.957 34.766 1.223-6.672 11.574-32.618 10.426-34.766-1.223m-15.859 27.797c.656-10.078 1.32-30.5 1.828-40.965 1.41-17.773 2.629-30.898 29.887-28.941 18.195.586 21.957 4.672 24.699 8.113-.774-4.324-4.852-10.07-28.36-10.871-20.191-1.222-28.55 10.156-28.816 30.168zm-63.887 75.848c.598 40.215-6.871 28.887-5.602 65.953 21.973 29.863 104.141 32.785 131.125 4.051 1.094-15.156-4.472-24.461-2.015-45.469-3.098-7.558-4.071-16.898-3.586-27.461-5.461 5.793-10.703 10.434-17.231 17.93-10.379 9.113-12.234 35.199-15.043 53.871-2.207-10.57-.492-25.274 8.067-52.672-13.074 8.102-12.699 17.555-26.672 19.582-7.547.672-15.09-.148-22.637-.672-10.308-2.851-14.344-8.629-21.515-13.504 5.937 20.641 7.953 35.703 6.722 46.145-1.847-18.418-5.472-34.703-10.308-49.52-6.602-7.574-14.043-12.613-21.293-18.23zm26.07-115.438c-7.265-9.031-12.195-12.656-21.043-12.25-10.367 1.317-10.316 4.997-19.515 8.422-.453 5.051.507 8.266 2.894 9.645 5.305-5.504 13.637-8.949 32.781-5.051.977-1.234 3.036-.836 4.879-.766zm49.406-1.07c7.266-9.031 12.196-12.656 21.043-12.25 10.368 1.317 10.317 4.996 19.516 8.422q.685 7.576-2.894 9.645c-5.305-5.508-13.637-8.954-32.782-5.051-.976-1.235-3.035-.836-4.879-.766" style="fill:#fbd2c1;fill-rule:evenodd;stroke:none"/><path d="M326.289 515.156c-.352-.871-.449-1.864-.281-2.938 0-3.406 2.777-6.187 6.187-6.187a6.13 6.13 0 0 1 3.121.844 8.9 8.9 0 0 1-1.25-4.555c0-4.93 4.016-8.949 8.946-8.949s8.949 4.019 8.949 8.949c0 1.726-.492 3.34-1.344 4.711a6.15 6.15 0 0 1 3.371-1.004c3.407 0 6.192 2.781 6.192 6.191.148 1.371-.157 2.625-.805 3.641a8.92 8.92 0 0 1 6.344-2.649c4.929 0 8.949 4.02 8.949 8.95 0 4.925-4.016 8.945-8.949 8.945a8.92 8.92 0 0 1-5.883-2.215c.594.949.937 2.07.937 3.27 0 3.41-2.781 6.191-6.191 6.191-1.617.223-3.074-.133-4.176-.945a8.87 8.87 0 0 1 1.547 5.023c0 4.93-4.016 8.949-8.949 8.949-4.93 0-8.945-4.019-8.945-8.949 0-2.011.671-3.875 1.8-5.375a6.15 6.15 0 0 1-3.972 1.446c-3.41 0-6.192-2.782-6.192-6.192a6.15 6.15 0 0 1 1.192-3.648 8.92 8.92 0 0 1-5.887 2.441c-6.496 3.945-14.031 7.203-24.48 8.508 2.363 27.269 6.566 43.008 12.027 50.851 47.726-28.933 104.875-44.679 146.621-81q-21.851-36.377-85.504-55.257c.383 13.89 12.965 11.461 19.445 22.441h-15.093c-13.836-26.816-21.286-54.219-41.508-80.453-.387 10.199.383 20.402 2.32 30.605 5.32-2.136 7.156.387 5.512 7.579-11.309 24.617-25.07 47.476-41.797 68.21 8.602 1.915 17.105 4.735 25.254 10.782l-.012.359a8.7 8.7 0 0 1 2.492 1.406zm-143.453-2.914c-.352-.871-.449-1.864-.281-2.934 0-3.41 2.777-6.191 6.187-6.191a6.2 6.2 0 0 1 3.121.843 8.9 8.9 0 0 1-1.25-4.554c0-4.93 4.016-8.946 8.946-8.946s8.949 4.016 8.949 8.946c0 1.726-.492 3.34-1.344 4.711a6.15 6.15 0 0 1 3.371-1.004c3.41 0 6.192 2.781 6.192 6.191.148 1.371-.157 2.625-.805 3.637a8.95 8.95 0 0 1 5.433-2.606q9.643-7.001 21.418-7.582c-21.5-17.445-39.218-40.765-51.41-72.668-1.476-4.992-1.265-9.132.633-12.429 2.336.094 1.695 3.179.633 6.691-2 6.723 10.484 7.488 6.344-10.515-1.996-8.754-7.715-1.829-13.961 7.328-10.262 10.566-15.762 28.097-20.946 49.718-2.613 12.25-10.453 11.918-21.261 9.879q11.104-3.024 18.406-12.429c5.289-7.649.738-16.039-6.981-8.602-5.066 4.465-8.656 9.781-19.039 11.152-22.933 14.446-37.265 31.551-49.187 49.399 48.766 34.633 92.141 46 143.445 78.082 8.766-8.551 14.078-27.883 15.231-60.234q-13.166-3.827-21.754-9.961a8.9 8.9 0 0 1-6.535-2.192c.593.949.937 2.07.937 3.27 0 3.41-2.781 6.191-6.191 6.191-1.617.223-3.074-.133-4.176-.941a8.9 8.9 0 0 1 1.551 5.019c0 4.93-4.02 8.949-8.949 8.949s-8.946-4.019-8.946-8.949c0-2.011.672-3.875 1.801-5.371a6.18 6.18 0 0 1-3.973 1.445c-3.41 0-6.191-2.781-6.191-6.191 0-1.359.441-2.625 1.191-3.648a8.9 8.9 0 0 1-6.136 2.445c-4.93 0-8.95-4.016-8.95-8.945s4.02-8.95 8.946-8.95c2.101 0 4.039.731 5.535 1.942" style="fill:#ec2a32;fill-rule:evenodd;stroke:none"/><path d="M385.75 46.219c-3.621 3.328-6.644 8.218-9.031 12.781-3.777 8.82 5.398 10.664 8.094 16 2.235 5.496-1.305 10.762-7.157 7.438-4.426-3.403-5.731-5.907-7.406-8.844-6.864-7.988-11.012-7.258-14.781-5.313q4.508 1.512 5.312 4.875c1.231 4.254.09 6.938-5.531 5.313-6.906-.797-14.66-3.235-18.281 2.562 2.64 8.937 9.305 12.734 18.719 13-7.433 1.043-13.508 3.052-16.625 7.188 3.469 1.239 6.62 4.016 9.468 8.344 3.238 3.206 5.64 4.234 13.188 1.874 12.168-4.948 13.925 17.466-3.25 9.032-5.157-1.7-8.371 5.894-2.75 9.062-4.66 8.008-10.617 14.726-17.125 20.875 12.247 1.2 24.504 2.91 36.75 5.344 4.812-14.914 8.824-28.864 9.937-39.437-7.835.639-12.167-8.872-10.562-14.25l-7.656-4.094 9.218.969c2.752-3.735 7.504-6.736 11.484-6.142 2.13.318 5.418.14 7.673 1.704 6.71-17.184 12.804-33.66 14.562-45.25-3.543 1.156-6.543 1.383-9.469.688-6.16-1.47-2.378 6.816-3.687 10.218-1.996 10.797-13.316 5.965-11.781-1.875.23-3.71.457-8.351.687-12.062m-8.649 56.48c-1.786 7.528 6.079 13.2 11.649 7.582 7.551-8.973 3.234-14.569-3-15.094-2.8-.235-7.758 3.756-8.649 7.511" style="fill:#fff101;fill-rule:evenodd;stroke:none"/></svg>