<svg viewBox="-21.51 -25.83 580.77 697.35"><title>Herb Maszewo</title><path d="M537.75 0v378.481c0 356.277-537.75 356.277-537.75 0V0z" style="stroke:none;fill-rule:evenodd;fill:#222"/><path d="M525.953 414.121c-.321 2.907-.742 5.727-1.164 8.578h-160.5v-8.578zm-54.387 11.086v32.184h46.273c2.809-10.285 5.071-21.016 6.735-32.184h-53.012zm-27.543 34.676H396.41v32.195h47.613zm-79.601 32.195h29.496v-32.195h-29.496zm79.601 37.18H396.41v32.195h47.613zm-79.601 32.199h29.496v-32.195h-29.496zm31.988 37.176v9.328a255 255 0 0 0 16.48-9.328zm-2.492 10.606v-10.602h-29.496v23.18c9.429-3.465 20.527-8.055 29.496-12.575zm75.16-184.032h-47.613v32.184h47.613zm-104.656 32.184h54.55v-32.184h-54.55zm104.656 37.18h-47.613v32.195h47.613zM364.422 526.77h54.55v-32.196h-54.55zm57.039 37.176v29.152c12.605-8.516 24.468-18.235 35.367-29.152zm-2.489 30.812v-30.812h-54.55v32.195h52.421c.711-.453 1.418-.918 2.125-1.383zm75.157-134.875h-47.614v32.195h47.614zm-47.614 69.375v32.195h12.766a231.3 231.3 0 0 0 26.035-32.195h-38.805zm50.106-69.375v32.195h9.027c4.449-10.195 8.305-20.929 11.5-32.195zm-25.055 34.688v32.195h15.399a236.6 236.6 0 0 0 17.574-32.195h-32.977zm55.793-96.965a303 303 0 0 1-1.148 14.004H364.289v-14.004h25.187v-26.45h23.102v26.45h23.101v-26.45h23.102v26.45h23.101v-26.45h23.102v26.45zm-39.941-28.957h-8.032v26.449h-18.089v-26.449h-28.114v26.449h-18.09v-26.449h-8.851V153.36h81.183v215.289zm-51.95-201.614h-10.562v44.563h10.562zm33.282 0h-10.563v44.563h10.563zm-30.907 92.536v50.738h17.961v-50.738c0-11.899-17.961-11.899-17.961 0m49.575-108.723h-81.184l-5.828-6.606h92.359l-5.343 6.606zM11.66 414.121c.32 2.907.742 5.727 1.164 8.578h158.492v-8.578H11.656zm54.387 11.086v32.184H19.773c-2.808-10.285-5.066-21.016-6.734-32.184h53.012zm27.542 34.676h47.614v32.195H93.589zm77.731 32.195h-27.625v-32.195h27.625zm-77.73 37.18h47.613v32.195H93.589zm77.73 32.199h-27.625v-32.195h27.625zm-30.117 37.176v9.328a254 254 0 0 1-16.481-9.328zm2.492 10.606v-10.602h27.625v22.586a262 262 0 0 1-27.625-11.984M68.539 425.207h47.613v32.184H68.539zm102.781 32.184h-52.676v-32.184h52.676zm-102.781 37.18h47.613v32.195H68.539zM171.32 526.77h-52.676v-32.196h52.676zm-55.168 37.176v29.152c-12.605-8.516-24.469-18.235-35.367-29.152zm2.488 30.812v-30.812h52.68v32.195h-50.551c-.711-.453-1.418-.918-2.125-1.383zM43.484 459.883h47.613v32.195H43.484zm47.613 69.375v32.195H78.332a231 231 0 0 1-26.035-32.195H91.1zm-50.105-69.375v32.195h-9.027c-4.45-10.195-8.305-20.929-11.5-32.195zm25.055 34.688v32.195H50.648a236.5 236.5 0 0 1-17.574-32.195h32.977zm-55.79-96.965c.274 4.742.669 9.398 1.15 14.004H171.32v-14.004h-23.18v-26.45h-23.101v26.45h-23.102v-26.45h-23.1v26.45H55.733v-26.45h-23.1v26.45zm39.938-28.957h8.032v26.449h18.09v-26.449h28.112v26.449h18.09v-26.449h8.852V153.36H50.187v215.289zm51.949-201.614h10.563v44.563h-10.563zm-33.277 0H79.43v44.563H68.867zm30.902 92.536v50.738H81.812v-50.738c0-11.899 17.957-11.899 17.957 0M50.195 150.848h81.184l5.828-6.606H44.844l5.343 6.606zm116.922 181.394h202.285l-7.937 12.5H174.101l-6.976-12.5zm132.687 304.45V469.199c0-42.378-63.965-42.378-63.965 0v167.258c-21.074-2.422-41.855-7.172-61.773-14.25V346.91h187.516v276.043c-19.934 6.899-40.711 11.477-61.774 13.735zm-31.98-235.032c1.613 3.426 5.105 5.813 9.137 5.813 5.558 0 10.093-4.531 10.093-10.094 0-5.558-4.531-10.094-10.093-10.094q-.716 0-1.407.098a10.06 10.06 0 0 0 2.727-6.887c0-5.558-4.531-10.093-10.094-10.093-5.558 0-10.094 4.531-10.094 10.093 0 2.739 1.102 5.231 2.887 7.055a10 10 0 0 0-2.297-.262c-5.558 0-10.094 4.532-10.094 10.094 0 5.559 4.532 10.094 10.094 10.094 4.032 0 7.524-2.383 9.137-5.813zm56.117 84.743h13.156v50.289h-13.156zm-125.742 0h13.156v50.289h-13.156zm93.187-435.422c-.875-.821-2.187-1.067-3.558-1.231-2.567 4.047-1.828 7.313 1.164 10.047 2.965 2.32 6.18 2.957 9.144 1.66-.57-.902-1.144-2.011-1.226-3.082-2.188.821-3.988.84-6.321-1.969-1.265-2.421-1.203-4.312.797-5.425m1.289 1.23c1.645.656 2.914 2.832 3.743 4.809-3.457 3.008-7.532-3.688-3.743-4.809" style="stroke:none;fill-rule:evenodd;fill:#fffdfd"/><path d="M289.425 16.547q-1.364 11.24-2.734 22.481c9.863 6.285 19.734 12.57 29.602 18.859 6.425-2.12 13.679-6.078 21.765-11.863-1.285-1.371-3.48-.457-6.093 1.496-.997-6.246-6.137-5.328-7.461-1.871 3.398.289 4.269 3.496.371 5.992-4.692 2.047-8.614 1.402-12.313-2.871-2.816-3.289-3.316-6.578-1.488-9.867 1.16-3.079 6.383-2.497 7.09 2.121 4.89-1.621 3.398-5.911-.992-7.118 1.82-2.808 3.023-5.722 2.859-8.867q-5.345.496-8.703 5.492c-3.961-2.996-6.321-1.871-7.957 1.122 5.554-1.454 8.332 3.91 4.601 6.742-3.605 2.414-9.699 2.535-13.308 0-4.063-3.953-4.063-7.117-2.985-9.989.621-3.41 4.227-3.246 6.34-.625 1.969-3.703-.39-5.117-4.722-5.492-.415-4.66-2.571-3.828-3.856-5.742zm-72.511 105.047c-4.973 3.121-3.356 5.492-9.078 9.367 4.308 3.285 10.57 3.328 17.535-1.371-1.719 3.348-4.621 6.305-8.332 8.992q11.814 5.68 23.629-8.117-2.92 4.553-5.844 9.117c5.18 3.035 17.453-3.289 21.515-11.113.661 4.41-4.89 5.578-3.23 10.988 4.395-3.765 3.98.059 14.551-6.742 6.879-4.16 6.547-12.324 10.57-14.363-1.242 5.285-3.855 6.949-3.73 15.859 7.328-2.578 16.675-14.363 17.785-28.351 0-1.371 1.367-1.914 1.492-.125.785 5.578-2.652 10.281-.621 11.863 8.25-5.434 11.773-12.051 12.062-19.485-.121-1.624 1.243-1.578 1.118.126a25.8 25.8 0 0 1-.371 7.117c5.179-7.973 8.785-21.297 9.824-27.227q-7.647 1.87-12.809.746c-1.324-.25-1.035-1.039.867-.871 2.778.277 5.555.668 8.332-.75.164-3.953 3.442-1.539 5.719-4.367q-4.665-1.745-9.324-3.496c-4.145-1.582-5.555-.414-5.719 1.996-.683-3.102.184-4.852 4.477-3.62 4.433 1.577 8.871 3.163 13.304 4.745-4.351 3.871-7.586 2.496-7.211 4.617.786-.082 1.7-.289 2.485-.371 2.816-4.16 7.129-2.578 8.828-4.996-7.563-4.559-14.199-7.348-18.777-6.242-2.153.414-2.817-.832-1.243-1.496q4.29-.749 10.571 1.496c1.285-2.164.828-4.328.121-6.492q-14.052-9.056-28.106-18.11c-4.578.766-5.406 5.848-.867 7.367 2.36.454 5.637.828 7.211 2.246 5.348 3.747 4.723 8.493 7.09 12.739q-1.18-.31-2.359-.625c-4.965 1.855-7.739-.192-10.696-2.371-2.922-2.871-3.129-5.868-1.738-10.114-2.238-1.039-2.738-1.98-3.984-3.687-3.543-.227-5.817-2.035-5.715-3.93q-8.888-2.309-16.293-2.121-3.166.872-1.367 2.746c-5.18 4.91-3.024 9.074 5.347 10.238 10.168-.019 16.239 7.055 14.301 11.489-3.582 7.429-12.539 6.554-21.641 1.246-1.863-1.629-4.558-2.676-4.101.375 2.363 8.117 9.078 11.863 19.398 11.988-1.644 4.684-5.312 6.391-11.937 3.746-8.453-4.558-16.91-6.554-25.371-7.117-15.34-1.082-18.985 2.078-35.196 3.121-2.281 3.578 9.864 6.785 16.664 3.996.954 1.957-4.804 1.539-8.207 4.496-5.73 4.379-7.41 8.481-7.711 12.364 9.079 1.871 8.954-1.497 13.43-2.247-1.531 2.747-4.683 2.497-6.094 5.993-1.921 3.507-6.441 4.152-11.691 3.996.121 3.16 13.391 4.785 15.297 1.996 2.422-3.684 4.164-4.391 5.594-3.746-8.953 6.492-3.856 8.242-11.567 13.863q-2.859 1.37-5.719 2.746c-.328 3.621 11.606 2.578 17.536-.125zm59.375-38.168c1.484-.461 2.972-2.52 4.465-4.48-.364-3.274.988-3.407 1.488-1.336 2.453-1.938 3.965-6.684 3.367-8.493q-.628-1.176-1.25-2.359c-1.41-3.301-.051-4.141 1.484-1.809.977 3.231 1.274 6.934-1.722 12.899 1.726-.344 2.176 2.773-.938 2.277-.652-.129-1.304-.262-1.957-.39-.926 1.675-2.047 3.355-3.601 5.031-2.426 1.597-3.184-.574-1.328-1.336zm-.172-18.039c-.41.582-.828.914-1.242 1.496-3.461-5.402-10.325-7.828-17.715-8.234-4.102.09-8.727.57-13.25 1.242-15.031 3.078-19.004-14.078-8.703-15.485-.203 7.743 3.73 10.782 14.925 12.239 6.586-.008 12.629.152 17.344 1.922 3.137 1.906 5.961 4.382 8.649 6.816zm6.277-21.926c-.496.625-.617 1.313-.429 1.938-2.149-.055-4.989-1.032-4.348-3.305.617-1.379 3.75-.051 4.777 1.363zM90.789 61.617c-3.395 0-6.164-2.769-6.164-6.164s2.77-6.164 6.164-6.164 6.164 2.766 6.164 6.164c0 3.395-2.77 6.164-6.164 6.164m356.035 0c3.394 0 6.164-2.769 6.164-6.164s-2.77-6.164-6.164-6.164a6.174 6.174 0 0 0-6.164 6.164c0 3.395 2.769 6.164 6.164 6.164M200 94.113c1.554-3.558 4.039-6.804 8.578-9.367-6.676-.789-11.278-2.828-11.317-7.617 2.735-.246 5.348 0 8.207-.746-4.558-5.109-9.492-9.918-14.054-14.363.289-4.328-2.653-3.289-1.367-9.242 2.066-8.571-.274-11.672-3.856-13.239-2.402 3.246-4.809 4.828-7.211 4.746-1.367 1.145.621 8.137 3.731 9.118-1.5 1.062-1.895 2.429.246 4.496 1.945 1.664 1.156 3.703-.868 2.371-5.472-3.41-10.074-7.199-11.566-9.867-1.305-3.391-5.367-3.309-7.836-2.122-.621 2.29.867 4.079-2.609 6.493 2.859 4.496 6.465.871 10.07 4.492 1.531 1.332 4.063 1.79 6.094 2.496 1.613.539 1.16 1.746-.246 1.371-4.477-2.121-8.953-3.16-13.43-2.621-4.66.996-6.363 2.91-6.715 5.242 1.285 1.684 2.156 3.477 2.114 5.492 6.921 1.703 5.261-7.324 13.304-3.996 3.356.664 5.969.082 9.699 2.121-2.566 6.91-8.746 5.453-6.964 11.864.992 1.875 2.027 3.375 3.355 3.246 3.316 1.703 5.473-1.414 6.465-9.368.164-2.453 1.988-2.496 2.484-.5 4.434 8.126 8.91 15.708 13.68 19.485zm-15.047-54.957c-1.988 2.2-3.977 4.004-5.969 3.872.145-3.977-1.305-5.891-3.48-6.868 2.5-1.918 6.585-2.199 9.449 2.996m-23.758 9.118c.496 2.121.121 4.535-2.484 5.617-2.485-1.75-4.227-1.918-6.715-1.996.804-3.27 3.418-5.348 9.203-3.621zm-6.219 18.113q1.554 2.368 1.613 4.742c-3.109 3.121-3.855-.75-7.835 4.121-2.122-4.515-.61-7.679 6.218-8.867zm18.281 15.238q1.115 3.868 4.227 3.746c-2.84 3.539-6.363 2.953-10.195.5 4.722-.414 2.609-3.078 5.968-4.246m47.016 52.086c-2.609.914-5.223 1.164-7.832.75l-14.176 13.988c-6.113 5.766-17.39 5.141-18.531-2.496-1.367-4.453-3.066-6.078-5.098-4.867-.867 2.035-2.898 3.41-6.093 4.117-.727 2.246-.555 4.981 1.539 6.223 3.507.344 4.097 4.813 16.492 3.391-6.012 1.394-11.067 1.683-14.426-1.246-2.902-1.922-8.379-1.512-8.828 2.246 1.305 1.601 2.094 3.722 1.738 6.992 1.821.953 4.559 1.414 7.086-.125 5.43-3.828 6.633-.289 12.559-3.621-1.988 4.453-14.426 1.789-12.063 8.742 3.438.203 5.098 2.371 5.098 4.367 7.461-.332 4.101-9.531 11.937-10.488 3.918-.477 6.489-1.645 8.207-3.371 1.739 3.285.618 10.199 5.223 9.863 1.656-1.75 3.477-3.129 6.465-1.871q1.428-3.247-1.613-4.496c-2.485-1.207-4.063-2.871-5.223-4.746 3.066-1.246 5.098-2.664 7.836-4.242.328 1.121.91 2.496 1.863 3.371 8.785-7.266 19.567-8.727 26.364-14.989-2.114.207-4.227.25-6.34-.871l1.613-1.996c-7.387 4.723-13.793 4.305-19.523.371 2.05-1.515 4-3.14 5.718-4.992zm-46.516 6.492q-1.863 2.683-5.718 3.871c-2.36-.664-2.235-3.203-4.477-3.871 2.153-2.496 5.387-2.828 10.195 0m-11.691 16.864c1.242 1.621 1.574 3.203 1.492 5.492-2.609.164-5.222-1.164-7.836.5-.039-2.828 2.071-4.742 6.34-5.992zm10.074 11.742q3.481.183 4.477 3.371c-2.008.476-3.336 2.101-4.352 4.246-2.031-1.875-2.07-4.41-.121-7.617zm37.188-1.625q-2.918-1.184-5.348 1.621 1.675 1.494 1.863 4.992c2.102-.984 3.7-2.629 3.481-6.617zm-17.285 74.914c.296 2.105-.039 4.105-1.778 5.875-2.84 0-3.898-1.785-8.519 0 .761-4.344 3.433-6.984 10.301-5.875zm-.891 17.117c1.781 1.488 3.352 3.063 3.434 5.234-2.754.422-4.579 2.723-5.977 5.875-2.883-3.703-2.031-7.41 2.543-11.113zm16.664 12.902c1.777-1.402 4.238-.933 7.375 1.403q-2.096 3.316-3.18 8.683c-3.879-2.597-4.726-6.132-4.195-10.09zm28.496-21.269c-1.441 1.68-2.84 3.359-3.941 5.043 1.738 1.105 3.855-.34 5.215 3.32 3.582-2.789 2.265-5.578-1.27-8.367zm7.25-32.516c-3.754 7.961-8.117 15.926-14.246 23.891q-1.526 2.426-4.07 2.297c4.449 3.617 12.34-.426 11.066 4.98-1.863 1.235-3.73 3.278-5.594 5.875-3.476 1.68-6.019-.148-8.14-3.574-4.746 2.512-.719 8.473-6.231 9.07q4.894 10.665-.379 11.625c-2.5-2.66-6.484-3.004-8.648-1.66-3.094-2.211-3.731-7.578.508-10.601 6.277-5.258 6.269-6.625 6.359-8.43-5.598 9.238-9.668 5.703-10.558 12.262-2.84 1.195-5.383 1.836-7.887.636q.19-4.47-3.688-6.894c-2.371-7.836 8.989-5.196 13.485-6.258q1.207-2.233 4.957-2.938-3.177-.954-5.34 1.661c-3.305.722-5.344-.594-9.922 1.019-2.336.473-4.328.516-3.941-2.426 1.523-1.703 2.203-4.086 2.031-7.152q3.305-4.786 8.648-.894c7.332 6.976 14 6.136 15.645-4.086.972-7.75 2.457-15.883 3.18-23.25 1.652-.637 2.542-1.786 3.179-3.45-5.531 3.407-9.687 4.684-10.812 1.278 4.789.851 2.711-2.895 9.031-4.344-1.324-1.613-2.824.988-5.262-1.371-2.148-1.805-2.683-3.82-2.367-6.418 4.598 2.66 7.992 3.387 11.32-3.445 3.075-7.278 12.739-10.602 19.336-9.965 29.766 2.793 52.707.566 63.477-10.602.644 4.043-.774 9.75-5.215 17.883-7.609 1.852-10.281 3.469-18.191 10.73-11.637 9.196-29.364 15.29-41.723 14.563zm81.445 29.543c.485 2.539-.085 4.543-1.73 6.016-1.504-2.637-4.254-1.832-7.188-.531 1.364-4.411 4.004-6.774 8.918-5.481zm-2.132 15.242q1.928 1.736 2.261 4.543c-2.527-.535-5.054 1.868-7.586 5.614-1.64-3.387-.843-6.774 5.325-10.161zm11.984 14.039c2.727.223 4.234 1.915 5.191 4.278-4.48 2.851-6.964.086-11.449 4.679-.219-3.476 1.864-6.55 6.258-8.957m31.152-4.144c1.239-2.051 2.7-3.879 5.723-4.145 1.617 3.809.285 7.196-3.059 10.293.672-4.062-.839-5.308-2.66-6.148zm10.383-223.273c2.672 14.722-4.359 24.179-19.433 29.277-10.993 3.285-15.809 7.676-17.973 17.379-1.117 9.851.531 15.41 20.766 29.547-5.5-10.203-5.723-23.973 3.859-31.016q9.116-7.151 12.379-13.234c.707 15.285-7.5 12.656-13.043 25.8-2.961 7.942-.231 18.215 6.387 30.079-2.153-14.481 1.484-25.09 12.113-31.016-6.652 9.672-9.442 21.992-8.649 39.172.043 11.676-4.257 22.105-15.175 25.402-8.852 1.457-19.41.231-29.684-2.269 5.524 6.804 7.254 16.632 5.324 27.003-1.465 3.321.485 4.434 3.992 4.543 2.129.446 5.235 3.34 8.786 7.352 9.996-2.363 18.672-2.453 23.695 3.742 1.019 1.133 2.652 4.086 2.258 4.504-.922 1.363-.903-3.769-6.387-2.367 3.074 2.156 5.074 5.562 1.195 4.676 4.774 4.773 4.321 16.172.93 31.281-1.418 3.562-.043 6.461-1.062 6.684q-1.198-.335-2.395-1.204c.484 4.5 12.023 9.27 7.453 12.297-2.441.707-4.836 1.684-6.922 4.543-1.82.492-3.465.586-3.859-2.136-.977-3.875-1.418-7.618-2.926-11.629q.265 2.807-.531 4.007c-9.985 6.461-8.653 21.211-16.371 18.985-.489-2.774-2.66-4.488-5.989-5.481-1.109-1.648-1.109-5.48 1.329-6.816q6.785-3.61 13.578-7.219-6.92 2.537-13.844 5.078c-4.613 1.825-8.344 2.317-10.117-.132l-2.262-4.813c-1.664-2.539-1.219-4.41 3.859-4.812 7.141-.622 16.684 5.3 19.434.531-7.629 2.715-14.332-2.852-19.969-1.871-1.418.086-2.261-.578-2.261-1.2q1.53-2.403 1.46-6.417c2.063-1.915 4.68-2.493 8.52-.133 4.523 2.004 5.059 8.285 12.91 6.015 3.68-1.234 7.141-10.394 3.324-16.843-4.214-6.25-9.273-11.442-14.906-15.907-1.598-1.824-4.125-2.316-4.793-5.48.692 5.851.766 10.457-.664 12.031-2.262-7.484-5.457-4.812-8.387-13.637.133 3.075 2.926 6.684.399 9.223-2.406-2.824-5.223-4.965-10.781-7.754-8.469-4.277-10.965-12.074-7.188-22.726 4.301-6.391 6.301-13.075 4.922-20.188-.531-6.414-4.969-9.09-13.313-8.019-10.804.429-43.199-8.891-54.179-23.528 3.48-.824 6.676-2.515 9.449-5.48-.754 2.316-.219 4.633.797 6.949 3.812-6.551 10.824-.801 21.031-14.035a21.8 21.8 0 0 0-.398 8.289c8.605-3.473 14.554-9.981 17.836-19.52l.797 2.407c8.71 15.168 17.73 29.23 28.222 37.968 10.395 8.055 23.449 13.508 38.074 8.153 9.106-4.953 11.793-12.243 9.184-21.121-2.324-8.629-11.188-14.5-21.301-21.125-10.226-7.528-15.465-19.918-11.715-30.75 2.282-6.739 8.805-12.555 18.903-17.512 11.043-6.692 16.746-6 16.507-17.781-.929-5.746-4.347-8.645-10.25-8.688-8.796.723-10.371 7.387-7.718 15.238-10.453-2.472-8.102-25.425 10.383-26.07q10.91 1.337 14.375 11.766" style="stroke:none;fill-rule:evenodd;fill:#fff101"/><path d="M169.98 329.879h196.774l-98.926-97.719zM44.535 141.965h92.504l-46.25-76.598zm448.543 0h-92.504l46.25-76.598z" style="stroke:none;fill-rule:evenodd;fill:#ec2a32"/><path d="M217.953 261.711c5.008-1.992 1.465-4.637 4.531-7.543 2.523 2.688 5.375 4.074 8.934 2.602 1.511 1.476 3.816-.824 4.828 3.019l-22.785 22.719c.953-2.727 1.785-5.453 2.796-8.18 5.125-2.289 4.844-6.199 1.684-12.617zm23.133-6.734c-.278-1.574-1.426-3.18-3.442-4.84.836-7.645-5.129-3.91-8.289-5.594a132.3 132.3 0 0 0 14.766-24.062c14.699-1.055 28.386-5.231 41.707-14.961 5.566-5.551 11.656-9.801 17.226-11.184-3.05 9.57-1.793 18.223 11.399 24.324 4.121 1.821 6.582 4.594 8.285 7.805q2.134-1.952 2.199-4.941c2.524 2.359 4.512 5.05 5.309 8.453q4.014-2.47 2.847-9.625c11.524 9.387 20.356 17.582 17.485 26.797-2.113 6.066-4.965 7.629-9.844 3.64-6.734-6.242-10.449-7.804-15.414-3.902-6.52-2.84-10.922 2.793-10.231 8.453 3.149-2.383 5.958-2.516 8.418-.387.508 1.102 1.332 1.27 2.2 1.301-4.547.25-4.239 2.942-3.235 5.981-6.863 2.597-8.547 7.109-5.05 13.527 2.187-3.313 4.242-6.801 8.546-7.281q4.078 2.66 8.676.129-2.912 3.896-.644 7.804c-5.575 1.668-8.11 7.825-5.957 11.836 7.347-6.394 8.668-2.406 12.304-5.461 3.973.797 6.391-.715 8.289-4.422 2.696-6.804 5.719-12.312 9.453-14.957 2.243 3.469-.429 11.098 6.735 10.407q3.821 2.08 1.941 7.804c5.793-2.468 8.364-6.632 6.215-13.269q3.106-2.47-.515-5.981c-1.469-1.429-3.711-3.25-5.18-4.679 1.984.867.73-4.637 1.035-5.2.902-5.679 1.68-3.164 2.719-13.136.765-10.692 1.176-14.028-1.422-19.77 1.472-.515.82-2.25-.129-4.16.816 1.73 2.156 2.602 4.012 2.602-1.27-12.84-15.004-15.907-27.2-11.836-3.933-4.672-7.246-7.598-9.453-7.414q-3.17.002-2.199-3.641c1.875-9.473 1.488-17.973-3.883-24.324 23.258 5.816 39.782 2.894 43.004-17.301 2.328-14.785-3.625-28.531 11.656-50.602-12.476 5.68-18.609 14.829-17.613 27.446-7.453-12.52-4.723-23.512 1.293-29.789 9.594-9.364 9.012-11.231 7.641-23.934-7.121 18.516-28.239 16.867-20.594 44.75-15.617-10.633-20.992-21.453-11.398-33.82 5.523-7.371 13.382-5.766 22.019-11.703 9.395-5.614 13.313-14.375 10.617-26.926-4.004-13.758-18.23-15.168-28.496-6.762-6.82 6.328-6.605 23.977 5.051 23.934-3.973-10.664-1.164-16.477 7.25-15.867 7.004 1.449 10.133 10.73 3.496 16.91-7.512 4.203-14.508 8.539-22.019 12.746-12.168 7.535-15.075 24.508-4.403 37.984 9.324 10.969 22.535 13.356 27.977 28.75 2.437 10.207-5.981 19.969-19.172 20.031-13.211-.636-22.883-6.168-30.567-14.437-8.339-8.297-15.757-20.301-23.054-32.781q7.453-4.196 11.285-12.551c.109.797.227 1.594.34 2.39 6.308-8.769 10.078-19.359 11.746-31.46 3.098-4.29 7.066-1.582 10.043-6.497q-5.022-2.562-10.043-5.128c.781-2.075 1.043-4.254.168-6.668 6.66-2.36 15.027-7.5 24.344-14.192-2.836-.055-4.555-2.984-8.512-.168-3.203-7.129-11.051-3.265-9.363 2.219 1.183-.598 2.031-.199 2.554 1.195-.035 1.02-1.394 2.125-4.086 2.813-6.695 1.258-11.734-6.305-10.386-10.336 1.488-4.617 5.714-2.992 5.461 1.754 7.293-.867 7-8.285 1.855-9.45 1.969-2.046 2.57-5.703 2.551-10.085-3.461 1.82-6.754-.114-10.383 5.468-4.41-3.715-10.625.797-8.852 4.614 3.067-1.375 9.032.211 4.594 4.101q-5.87 2.73-11.066 0c-2.61-2.336-3.461-3.816-3.231-7.008.055-3.757 4.028-4.613 4.934 0 4.933-4.84 3.289-9.117-2.891-9.23 1.418-4.102-3.972-5.469-5.957-8.203l-3.402 26.672.848.511q-2.552.17-3.063 2.391c-2.492-2.277-4.539-2.734-6.129-1.363-6.129-1.368-12.144-2.68-17.363-2.223-2.844.277-3.578 2.445-2.551 4.102-4.992 5.468-2.496 10.543 7.488 11.625 7.266.195 13.621 4.414 12.43 9.574-8.91-8.438-11.746-8.606-20.769-8.891-17.52-.32-20.129-5.48-18.559-12.652-7.289-.77-12.227 6.008-7.828 14.359 6.64 7.864 19.406 1.535 31.668 3.074 4.933 1.051 9.304 3.102 12.426 7.352-4.993 2.336-10.668 1.25-17.024-3.246-2.496-2.391-6.523-1.938-5.617 2.391 1.699 7.406 7.887 11.851 18.215 13.335-1.699 2.571-4.821 2.34-6.977 1.708-13.73-7.036-21.168-8.004-31.496-8.036-10.047.098-17.254 1.266-23.664 2.735-5.359-6.629-10.293-11.68-14.66-14.645.703-4.328-2.445-4.785-1.242-8.492q3.104-12.363-5.223-15.234c-4.672-5.661-8.754-5.786-12.434-2.121 2.571 1.664 4.309 3.953 4.227 7.617-1.082 2.953-1.504 6.031 2.734 9.988-.414 1.496-.625 2.996.622 4.492q-5.905-3.304-8.829-7.617c-2.773-5.398-6.589-5.063-10.695-3.12-7.355-2.56-10.633.64-11.687 5.741 2.961.125 5.699.664 8.328 2.121 2.277 4.66 6.175 2.578 9.078 4.121-5.867-.933-10.922-.32-12.809 5.742-8.414 1.528-9.738 6.004-6.219 11.864 4.188-4.246 6.012-2.121 8.829-4.496 8.953 1.164 7.711-6.286 12.312-4.743 4.02 2.829 6.672.665 9.824 2.122-1.449 4.285-8 3.328-6.965 10.613-4.144 2.246-1.074 3.621-6.839 4.867 3.894 4.434 8.207 5.848 13.429.625 3.946 1.348 5.27-4.027 6.219-10.367 3.555 7.199 8.051 13.863 13.93 19.734-.621 1.664-.742 3.328-.371 4.996 3.691 1.211 6.218.957 8.578.496-3.067 1.414-.785 5.454-13.68 4.997 1.281 4.617 6.547 6.41 15.793 5.367-1.719 5.058-6.402 8.054-12.437 10.117 2.019 4.578 7.39 5.203 15.046 3.121-2.152 2.164-2.941 4.203-6.464 6.492 1.14 1.746 2.796 3.078 5.593 3.496q-7.77 7.306-15.547 14.614c-6.484 3.015-13.863 2.14-14.796-3.122-.809-4.558-2.547-7.347-6.34-6.242-5.293-5.308-11.637-2.347-13.059 1.746 3.231-.582 3.356 2.578 5.594 3.871q-.742 2.932.496 5.868c-2.691.144-4.766 1.226-5.469 4.367-6.301 2.328-8.703 4.785-6.715 9.617 2.899-2.66 5.801-.828 8.704-1.246q3.229 2.056 7.46.621c-.828.578-.828 1.664 0 3.246-2.632 3.621-3.085 7.242 1.243 10.863 1.054-2.871 2.797-4.371 4.847-5.242 3.606.371 6.676-2.496 7.211-5.992 3.231-7.117 6.59-2.871 12.063-6.367 1.906 2.828.453 8.781 5.718 8.492 2.122 1.703 2.2 3.992 1.989 6.367q7.149-2.681 5.844-8.867c2.32-2.121 1.531-5.621-2.735-6.742-1.406-.582-2.238-1.453-2.984-2.371l4.972-2.871c.082 1.578 1.493 2.328 3.231 3.246 3.355-6.203 21.516-9.035 27.484-16.985 5.825 6.457 12 11.946 19.153 14.739 15.879 6.652 29.41 10.394 40.109 9.765 5.395.106 8.547 2.403 8.418 8.063-10.422 10.707-32.012 12.496-57.641 11.054-10.488-1.461-21.898-1.128-27.472 12.754-1.703 2.578-5.707 1.703-8.926-.914-2.676 4.117-1.164 7.977 3.625 11.055-1.941.215-2.848 4.594-5.828.648-.613 3.996-.192 7.297 7.511 5.723l-3.624 24.973c-2.372 5.636-6.172 5.547-10.622 2.859-4.617-5.375-9.8-5.723-12.82-1.039-5.48-2.555-12.391 1.082-11.785 8.973 3.84-2.125 6.391-.606 9.586-.907-.176 1.692-.047 3.254 2.199 3.899-1.742-.082-2.094 3.098-1.562 4.957-5.524 3.988-6.551 9.437-2.063 14.812 1.465-2.859 3.145-5.55 6.344-7.023 2.328 1.32 5.137.973 8.156-.129.106 2.645.969 5.07 3.496 7.024-1.445 4.523.945 8.253 5.59 11.191l-48.703 48.562 7.75 12.434v50.398h-20.672v-26.449h-16.758V153.332l7.231-8.883h.023L92.386 63.946c3.993-.77 7.028-4.297 7.028-8.512 0-4.774-3.895-8.668-8.668-8.668-4.774 0-8.668 3.894-8.668 8.668 0 4.211 3.031 7.738 7.023 8.512l-48.714 80.503h.004l7.254 8.883v215.293H30.066v26.449l-20.277-.132c-.281-5.274-.191-11.356-.191-16.778V9.61h518.48v368.554c0 5.293-.117 11.778-.469 16.91h-20.141v-26.449H489.89V153.332l7.254-8.883h.004l-48.715-80.503c3.992-.77 7.024-4.297 7.024-8.512 0-4.774-3.891-8.668-8.668-8.668-4.774 0-8.668 3.894-8.668 8.668 0 4.211 3.031 7.738 7.027 8.512l-48.719 80.503h.024l7.23 8.883v215.293h-16.754v26.449h-22.664l.02-50.394h.004l7.742-12.438h-.024.024L267.789 228.285l-26.742 26.668zm-1.395 381.883a289.3 289.3 0 0 0 56.258.218V471.586c0-40.914-56.258-40.914-56.258 0z" style="stroke:none;fill-rule:evenodd;fill:#11b1ee"/></svg>