<svg><title>Herb Lubomierz</title><path d="M521.863 0v360.063c0 345.75-521.863 345.75-521.863 0V0z" style="stroke:none;fill-rule:evenodd;fill:#222"/><path d="M513.883 7.985v350.781c0 76.777-26.336 136-66.918 177.769q-6.205-63.287-23.918-117.945-22.03-63.363-53.543-98.297 8.287-24.685 16.578-49.371c4.625 2.063 7.93-2.641 6.938-6.441 9.004-1.071 9.168-12.555.492-15.114 5.668-11.367.855-20.933-12.637-28.996-18.711-13.691-26.723-32.898-20.074-57.25 8.176-24.699 33.703-36.679 57.992-30.73 30.227 7.742 42.473 39.672 31.723 64.93-5.41 13.183-22.512 24.921-34.942 17.347-7.879-4.883-10.871-14.281-4.707-22.305 2.395-2.476 5.285-3.218 7.434-1.734 4.723 3.395 1.082 6.695-2.231 7.434-1.75 8.285 15.008 14.332 16.356-1.239 10.16 2.395 9.168-4.129 18.586-3.218-6.113-4.953-1.817-11.895-11.645-14.868 3.551-9.992-7.765-13.793-11.644-8.425 1.32 3.468-1.899 6.691-5.945 4.461-2.559-2.559-4.379-7.848 2.726-7.68 5.664.379 10.039 1.914 10.656-3.223.246-7.183-2.972-8.918-7.433-8.918 4.379-9.91-3.137-9.418-3.965-17.097-5.699 5.367-13.133.574-14.125 10.902-5.367-5.203-15.613 2.477-9.91 9.664 5.203.492 7.101 5.781 2.726 8.426-4.211 1.898-8.425-1.899-4.461-6.938.762-7.543-11.386-9.929-12.64-1.484-11.235-4.871-10.821 3.137-19.578 3.965 6.773 4.461-.329 13.383 13.628 14.125-7.679 9.168 2.477 15.363 10.407 11.894-2.973-3.632-.492-7.019 4.457-6.441 3.551 1.566 3.883 3.883 1.734 6.195q-3.095 6.192-3.219 12.391c-6.937-7.27-14.539-7.516-19.824 0 14.621 8.84 6.442 14.953 16.356 18.34 3.304 1.492 5.121-.16 7.679-1.735q3.468 5.697 9.91 9.418c-12.64 6.856-12.554 19.825-1.98 27.754 10.449 5.578 21.93-.531 23.543-8.918-5.027.645-10.348 1.59-10.656-2.476.66-7.516 8.011-5.121 13.133-7.68 4.953-2.23 9.582-4.793 13.878-7.68l3.965 4.461c5.117-4.789 10.243-9.582 15.364-14.375-1.403-1.73-2.809-3.469-4.211-5.203 5.843-7.308 8.941-16.976 10.16-28.25l5.699-.246-.742-20.57c-2.227.16-4.461.328-6.692.492-4.562-16.871-13.691-30.789-29.492-40.395l1.981-4.953c-5.285-2.226-10.571-4.461-15.86-6.691q-1.113 2.472-2.226 4.957c-17.852-3.551-33.61-2.313-46.84 4.707q-1.606-1.735-3.219-3.469-8.174 5.7-16.355 11.399c.988 1.32 1.98 2.644 2.972 3.964-14.043 13.875-20.156 30.399-18.336 49.563l-6.441 1.734c1.402 6.524 2.809 13.051 4.211 19.578q3.218-.739 6.441-1.484c4.348 11.203 11.422 22.086 27.012 31.969 3.965 1.898 5.121 5.449 4.211 9.168-10.324-4.75-13.715 6.316-8.672 12.14-2.226 2.645-2.719 6.336.426 8.829l-14.379 40.777-9.027-6.399-24.071-84.261c1.211-6.996-.425-13.828-3.691-23.067 2.086-1.324 2.086-4.605 1.34-6.379 5.781-16.699 11.68-33.629 17.465-50.328-16.258-38.687-34.223-71.418-53.465-99.656q-2.936 4.196-8.117 9.516c-2.145-3.172-4.946-6.344-7.836-9.516-33.367 33.227-61.246 71.555-75.86 107.773 6.532 13.997 13.426 28.719 19.957 42.719-.488 2.137.008 4.867 1.313 6.547l-5.035 6.438c-12.129 10.589-12.969 20.668-8.676 30.511l-31.633 77.262-41.988 2.238c-23.797 8.117-22.863 21.739-11.758 27.711l1.117 23.512c-29.847 42.738-46.168 98.02-46.191 168.402-36.418-41.23-59.633-97.836-59.633-169.918V8.004h505.898" style="stroke:none;fill-rule:evenodd;fill:#fff100"/><path d="M227.91 413.067c-.074 1.699-.152 3.406-.23 5.105.539-.926 2.012-1.547 4.41-1.855-2.012-.77-3.402-1.856-4.18-3.25m20.539 198.047 55.489-155.012c.828.203 1.66.414 2.488.621 1.973 2.594 4.355 5.187 7.16 7.781l-52.137 146.879q-6.504.013-13.004-.273zm122.754-344.961-48.886 139.5q6.07 1.398 10.894 5.292l49.82-140.433-11.832-4.356zm94.93-99.575 6.441-.492.989 15.613h-5.946c-.554 11.461-4.644 21.746-11.152 31.227q1.858 2.228 3.715 4.461a29996 29996 0 0 1-11.399 10.902l-3.714-3.965c-4.129 2.809-9.086 5.536-13.879 7.684-4.543 2.395-7.598.574-13.133 3.965-5.781 3.219-4.953 13.629 5.699 12.887-7.187 9.707-22.223 4.668-23.293-6.938 0-10.328 7.266-13.383 17.844-13.133-9.543-2.414-17.473-8.32-23.047-19.328 1.238 10.902-8.258 7.93-9.91 1.484-1.317-4.378-4.375-7.601-7.68-10.656 2.684-4.379 9.621-3.801 17.594 7.68-.574-8.508.492-14.371 3.223-17.594 4.312-5.301.253-9.836-3.715-11.398-7.516-.082-9.582 3.551-9.168 7.929q-11.894-1.114-.989-13.132c-15.777 1.816-11.48-7.516-13.875-10.161 4.707-1.98 9.911-8.671 17.098 2.231-2.734-10.176 6.34-13.57 6.692-6.688-2.727 5.907-.333 13.422 9.167 9.911 5.368-2.559 6.196-11.235-2.722-12.637-1.567-7.27 7.019-10.078 13.133.492-3.879-16.687 3.386-11.812 7.679-15.113 1.817 4.211 10.575 9.414-3.468 16.355 5.585-.769 12.058-3.304 14.125 2.973q.992 5.448-7.93 3.965c-6.774-1.239-11.067 4.461-4.953 10.902 5.863 3.633 9.582 2.231 12.14-4.707 5.161-2.93 9.953 8.051-1.238 10.16 15.941-1.156 12.059 5.614 15.117 9.91-6.277.411-7.101 8.258-18.836-2.476 9.047 10.367-2.929 21.105-7.929 11.398 9.91-6.191 1.566-17.511-7.93-11.644-6.113 5.718-7.93 12.781-3.469 21.808q14.62 18.83 38.164-.988c15.633-17.016 15.59-45.434.246-63.691-22.402-25.797-67.57-24.129-85.504 11.398-10.953 26.145-2.257 52.664 21.313 66.168 11.027 7.414 15.074 15.633 8.922 25.031l-11.649-3.965c2.262-5.882-1.183-10.136-8.175-13.378-10.098-6.813-18.235-17.555-25.032-30.977l-5.203.988c-.906-4.789-1.816-9.578-2.722-14.375q3.094-.861 6.195-1.734c-2.848-17.43 2.933-34.363 18.586-51.797l-2.973-3.469q6.192-4.335 12.391-8.672l2.972 3.219c16.192-8.301 32.383-9.375 48.575-4.457q1.113-2.35 2.226-4.707 5.825 2.35 11.649 4.707l-1.981 4.457c15.035 9.332 26.27 22.469 30.731 42.379zm-95.418 87.985c6.359 2.226 12.719 4.461 19.082 6.691 5.633 2.492 12.004-5.75 1.238-10.406q-7.927-2.474-15.859-4.953c-5.215-2.824-10.754 4.097-4.457 8.672zm.742 2.972c-1.57-.09-4.219 2.461-.988 5.7q7.308 2.473 14.621 4.953c4.625 2.062 6.605-2.395 3.715-4.461q-8.671-3.096-17.348-6.192m-160.734 56.828 5.34 5.805q2.666 48.186 5.339 96.379-12.884-1.623-20.203 2.32c.387-1.082.77-2.164 1.161-3.25 4.722.114 15.015-8.629 14.164-17.418q-.579-8.707-10.45-2.554c-21.328 12.113-28.601 19.547-29.492 24.847q-1.276 3.133-4.41 5.34c-1.082.153-2.168.309-3.25.465q-4.76-1.621-9.52.461c-8.066-.172-14.792.996-21.597 2.09l-.926-17.879q8.356-5.455 20.434-9.984c-5.86-3.543-13.176-4.664-20.899-5.106l-.926-28.562q8.825-3.365 17.649-6.735c-6.27-4.351-12.539-6.867-18.809-8.129l-1.625-29.957 15.789-7.894 62.239-.231zm-81.051 9.059 1.856 28.797c-6.754 1.769-12.52 4.031-15.559 7.66q-.345-11.84-.695-23.687c-2.149-2.52 6.437-7.723 14.398-12.77m14.863 35.535c-6.734-3.558-12.23-4.644-16.488-3.25-15.984 7.672-17.824 12.078-17.648 16.024 11.078-10.559 22.437-15.219 34.136-12.77zm.235 2.086c-3.868 1.547-8.203 2.863-12.075 4.41-13.082 6.309-17.648 10.489-18.343 13.7-2.25-1.157-3.957-2.551-1.856-5.571 10.602-10.508 21.676-14.492 32.278-12.539zm1.16-47.605c-5.262 2.707-9.828 4.023-15.094 6.73-14.168 8.59-19.508 12.153-18.113 16.024-3.328-1.547-6.192-2.86-2.321-8.125 9.899-11.094 22.52-13.485 35.532-14.629zm.695-2.789q-9.751.112-19.508.23c-12.656 5.922-18.074 11.418-20.203 16.719q11.96-15.441 39.711-16.949m-13.933 57.363.925 28.098c-8.515 1.738-12.769 3.906-15.093 6.269-.387-7.894-.77-15.789-1.161-23.687 3.364-3.911 8.864-7.391 15.325-10.68zm15.093 31.816c-13.332-5.629-35.511 5.008-35.992 13.934 7.352-8.047 19.352-12.695 35.992-13.934m-.465 2.325c-11.824 5.957-23.015 11.918-31.117 17.878-2.172-1.078-3.961-3.089-1.16-6.035 10.313-8.965 21.344-10.937 32.277-11.843m-13.699 10.449.926 16.719q-7.892 1.624-14.863 4.179-.113-6.152-.231-12.305c3.555-2.863 8.742-5.726 14.164-8.589" style="stroke:none;fill-rule:evenodd;fill:#ec2a32"/><path d="M243.004 334.805c-5.125 14.707-11.047 26.238-17.414 35.992.383 9.984.77 19.973 1.16 29.957.77-.461 2.477-.309 5.106.461 9.675-14.766 18.343-30.285 25.543-46.91q-12.652-5.571-7.661-18.578c-2.242.308-4.488 0-6.73-.926zm21.133 19.969c7.312-2.899 11.34-8.317 8.129-19.274q3.363 1.277 8.59-.23c10.691 24.238 22.203 47.984 35.992 70.367-4.953-.828-14.785 5.937-14.86 12.308-1.894.461-3.597 1.313-4.875 3.016-13.867-22.062-24.683-44.125-32.976-66.187m33.676 163.265 8.125 35.067c-5.961-1.934-11.918-4.723-17.879-7.895l9.754-27.168zm16.953-47.84c1.929 5.575 4.019 10.84 7.195 13.934-6.402 21.422-5.824 34.387-.461 41.566 7.051 11.961 12.992 24.809 16.949 39.246q-16.019-4.64-29.261-10.218-4.757-21.012-9.52-42.035 7.547-21.245 15.094-42.497zm-55.504-27.171c2.531 35.96 6.055 68.628 12.308 92.195q-12.305-6.734-22.757-15.324c5.015-24.473 7.918-50.532 10.449-76.868zm2.715-124.508-4.676 5.613 4.676 4.676 4.519-4.836-4.519-5.457zm-5.965-1.832c-5.746-8.301-3.774-19.95 6.269-18.809 9.055.852 13.235 9.598 4.875 19.274 10.18-5.266 16.911 0 16.95 7.195-.77 8.863-8.125 10.101-16.254 7.43 3.984 11.105 3.519 18.925-6.735 19.507-9.984-.074-15.093-10.371-4.875-19.043-11.222 1.7-16.875-.929-16.949-7.894.309-9.363 5.883-11.922 16.719-7.66m5.262-1.067-6.676 7.809h-4a2.5 2.5 0 0 0-2.344-1.637 2.496 2.496 0 0 0-2.492 2.492 2.5 2.5 0 0 0 2.492 2.493c1.07 0 1.992-.684 2.344-1.637h4.129l6.551 6.551v8.027a2.5 2.5 0 0 0-1.637 2.344 2.496 2.496 0 0 0 2.492 2.492 2.494 2.494 0 0 0 .855-4.836v-8.113l5.864-6.461h5.593a2.5 2.5 0 0 0 2.344 1.636 2.496 2.496 0 0 0 2.492-2.492 2.494 2.494 0 0 0-4.836-.855h-5.234l-6.219-7.742v-7.457a2.51 2.51 0 0 0 1.637-2.344 2.494 2.494 0 0 0-2.492-2.492 2.496 2.496 0 0 0-2.492 2.492c0 1.07.683 1.992 1.636 2.344v7.394zm22.836 88.387c1.062 14.008 2.492 28.02 4.179 42.035 0-.93.617-1.855 1.856-2.785-.16-3.715.144-7.43 3.715-11.145q-.81-4.874 1.16-9.753-5.455-9.173-10.914-18.344zm74.781 80.125q-1.16 1.622-2.321 3.25-10.681-.112-21.363-.23c-7.644-.903-14.34-4.653-17.648-18.579-.461-1.468-.926-2.941-1.391-4.41l-9.055-10.914c-2.242 1.711-4.488.699-6.734-.695 2.18 3.336-1.07 3.41-5.105 3.019 1.601 1.114 2.878 2.723 5.804 1.856l-3.48 8.59c-8.028-4.961-10.547-14.231-5.805-19.969 6.035-5.922 13.625-7.395 24.613.926-5.105-7.934-12.148-11.418-23.453-5.106-1.293-7.738 10.66-15.25 19.274-11.379a35.9 35.9 0 0 0 10.679 5.805l-.925-2.09c-3.25-2.168-5.571-4.332-9.754-6.5-4.875-1.508-10.141-1.273-16.254 2.785-.93-7.16 6.344-14.511 19.504-11.843 4.875.925 10.683 7.429 14.398 4.179-8.902-1.933-12.074-9.363-24.847-6.269 4.062-8.242 14.046-11.883 24.382-4.41q11.261 7.194 16.95 19.043c6.152 15.347 10.101 33.265 12.539 52.949zm-67.582-20.438c.617 4.876 1.238 9.754 1.855 14.629q1.622-5.22 3.25-10.449-2.55-.692-5.105-4.18m-29.957-69.906c-1.16 50.184 3.328 96.125 12.074 138.879l17.648-50.16c-4.66-28.02-7.566-56.043-9.754-84.07-7.515-13.407-13.843-27.614-19.507-42.266l-.461 37.621zm-3.02 27.406q.345-32.51.696-65.023c-7.196 16.988-15.403 32.473-25.079 45.75 13.625 8.902 17.957 20.125 11.61 27.402q1.855 4.178-1.856 7.43c2.645 3.016-.144 6.578-3.715 10.215 2.164 5.418-1.546 10.219-11.144 14.394-1.156 12.5-2.707 24.422-5.106 35.067 6.036 7.117 14.008 14.242 22.528 21.363 6.969-32.203 10.066-64.406 12.074-96.609zm-32.976 40.876c-.227 11.457-2.086 21.828-4.18 32.046-11.027-10.457-20.242-22.285-28.797-34.601 11.223-.074 10.836 3.793 32.977 2.555m-60.618-28.102q-.112 11.379-.23 22.758c12.461 2.941 23.996-.617 37.391 1.16 22.738 4.992 37.484-1.352 35.761-9.52-8.754 3.957-16.734 6.981-19.273 3.481 13.148-4.617 26.562-9.246 22.758-13.235-7.274 3.172-14.164 5.184-20.203 4.645 12.312-3.75 24.195-7.539 22.757-12.539-8.601 4.5-14.48 5.191-19.972 5.34 16.453-4.574 27.961-10.418 18.343-23.688-6.367-7.66-13.679-11.531-15.324-9.289l.461 4.18c1.778 4.101 6.113 7.351 11.61 10.215-5.418.965-10.063 2.515-13.004 5.34-4.11-9.082-25.594-2.43-36.926 3.48 7.699-4.855 11.883-9.461 10.914-13.699 4.281 1.91 13.867-5.008 14.164-13.004l-9.984 4.641c1.894-2.071 4.601-4.274 10.214-6.965q-1.622-3.131-6.964.23c-8.051 4.563-15.875 9.285-22.059 15.094-7.121 5.961-3.328 12.617-14.398 16.719-4.024.812-5.188 1.508-6.036 4.64zm2.325 15.793c4.257 1.625 8.511.695 12.769-1.391-1.699 5.418-13.156 5.883-12.769 1.391m46.547-258.121c10.402-2.215 24.421-3.754 46.41-3.797 21.769.094 44.359.195 55.113 2.496 2.344-.484 2.125-4.773-1.707-5.098-16.024-1.91-34.219-2.355-54.219-2.281-15.469-.223-29.222.406-41.797 1.625-6 .629-5.769 3.527-3.797 7.055zm52.652-152c-33.715 32.953-57.113 67.558-72.738 103.41 6.062 13.57 12.242 27.566 18.304 41.137 1.231-1.602 8.266-1.715 14.528-2.235 11.363-.937 26.172-1.195 37.73-1.175 16.84.027 43.606.453 51.84 2.984l14.383-40.711c-23.387-44.309-45.008-80.094-64.055-103.41zm2.715 39.629v78.711c14.203-.114 28.406.562 42.613 1.898-11.262-27.238-25.559-54.098-42.613-80.609m-19 6.785v72.199q-30.124 1.488-45.055 6.234c12.813-31.293 27.898-57.281 45.055-78.437zm-50.883 146.68c1.879 2.839 4.277 6.265 5.957 5.957-.238 2.5 1.398 5.507 7.187 9.652l-19.101 43.961-23.211 13.555c9.926-24.649 19.238-48.481 29.168-73.133zm14.789 16.843-17.871 41.493 7.805-4.313 8.214-17.664c1.555-5.477 6.45-10.066 16.227-13.352l-1.641-5.957c-2.328 2.887-4.175 1.446-5.953-.613-.41 2.324-1.64 3.012-3.695 2.055-.754-1.094-1.777-1.645-3.078-1.641zm105.797-30.402 22.183 79.09c-8.765-5.145-17.531-9.305-26.293-11.707.067-3.356-1.23-6.711-3.902-10.063l-4.516-22.801c2.876-.148 2.098-1.761 2.055-3.078 3.969-1.093 1.367-4.242 2.051-6.367.066-2.187 1.164-4.176.203-6.57 4.586-5.543 6.914-11.844 8.215-18.488zm-21.778 25.062c-.472 1.981-1.703 4.102-4.929 7.188-.34 1.641-.27 3.285-.613 4.93 4.019 2.562 8.914 6.879 16.226 16.023-1.23-6.434-2.465-12.871-3.695-19.308-4.176-.477-6.094-3.969-6.981-8.833zm16.438-43.343c1.027-1.774 1.852-3.828 1.23-7.805 3.403 9.926 4.809 18.074 3.286 23.625-2.567 11.742-6.262 17.836-10.477 21.363 3.969.547-.477 6.844 2.051 9.653-5.477 2.668-3.149-5.34-4.723-8.008 6.129-16.195 9.348-29.481 6.16-36.36q-2.316-6.145-4.632-12.296c2.304.226 4.39.5 6.214.82 1.129 2.316 1.321 5.32.883 9.012zm-14.84-10.422c2.528 4.203 5.117 8.328 6.004 14.73 1.848-.008 3.695.938 5.547 8.625 1.187-3.636.184-10.144-5.629-22.941a200 200 0 0 0-5.918-.414zm6.004 16.172q5.233 2.152 3.898 14.992c-.269 6.23-5.679 15.953-5.542 19.516 2.738 3.285-1.165 5.613 3.902 10.679-7.297-.027-8.594-4.344-8.215-9.859 1.504-11.914 6.914-6.778 6.981-19.719 0-6.234-.477-11.027-1.024-15.609m-8.219-16.231q-.55-.052-1.101-.109a425 425 0 0 0-4.828-.188c4.546 6.426 6.32 11.215 6.757 18.989 3.149 4.793.133 11.64 2.051 14.992q2.05 3.183 0 9.652c1.504-3.148 3.832-3.215 4.52-9.445.547-16.5-1.914-27.801-7.395-33.895zm-83.519 3.059c-1.531 1.191-3.071 3.051-4.606 5.57 1.785 1.02 3.024 2.453.41 6.778-10.613 24.374.137 18.554-1.64 30.605-1.785 1.984-1.289 4.516 1.848 7.598q3.487 2.361 6.98 4.722c-.82-5.203-8.215-8.351-3.078-11.297-.402 5 4.801 6.094 4.722 12.118 2.739-1.985.34-5.614.411-8.012.32-11.969-11.606-10.703-8.629-31.223l1.023-5.133c.137-1.847 2.738-1.847 2.258 0-.34 6.024-3.148 11.434-1.023 18.075 1.16 2.738 2.601 5.199 4.312 7.394.203-3.801.609-6.543 2.465-8.832l-.203-3.285c-4.738 1.043-4.664-3.688-3.903-9.242.918-5.821 2.321-11.481 4.403-16.918-2.039.336-3.949.695-5.754 1.074zm-7.278 8.242c-8.25 7.434-10.507 15.773-7.804 24.856 3.968 11.468 8.215 12.156 7.394 5.75-.871-7-5.972-4.637-2.258-17.665.887-3.421 2.122-6.847 4.106-10.269 1.98-2.192.684-4.52-1.438-2.668zm14.684-9.586c-2.711 7.524-4.332 16.106-5.027 21.91-.067 3.766 3.422 3.899 3.078-.203-.27-3.695.547-6.57 2.465-8.625-.34-1.711.406-3.422 2.257-5.133.028-2.879.961-5.761 2.36-8.64-1.801.215-3.508.449-5.137.699zm2.57 9.996c.34 1.574.684 3.149 1.024 4.723-.649 4.039-.172 6.57.82 8.422-.75 1.711-1.305 3.422-1.437 5.133q-1.742-1.232-3.489 0l-.41-3.079c1.242-1.933.641-4.793.844-7.187.137-1.574.613-3.149 1.848-4.723-.465-1.211.222-2.652.796-3.285zm-3.007 20.27c-1.735 3-2.27 5.926-2.54 9.929 1.114 2 1.653 3.539 1.961 5.657.422-2.231 1.461-3.696 3.118-3.461-.305-4.254-.461-8.219.461-11.547q-1.038-2.596-3-.574zm3.003 14.203c.809 2.539 2.54 2.887 2.77 5.078-.422 1.922-.191 3.387 0 5.312-1.535 3.192-3.461 3.04-5.309.114.883-2.348-.652-3.657-.23-5.774.461-3.117 1.383-5.312 2.769-4.734zm7.172-24.313c2.961-4.605 10.985-5.984 17.766-2.418-1.668-3.632-.113-3.703 1.547-3.66q.089-1.3.183-2.605c-1.238-.629-2.25-1.602-3.156-2.731-4.137.848-8.406 1.157-12.875.68-3.359 1.27-5.941 3.133-7.984 5.398v6.887c.863-.66 2.297-1.324 4.519-1.551m13.992-2.672c1.86.625 3.676 1.391 4.208 3.848-2.688 5.442-15.571 5.461-16.836-.492q1.171-2.046 3.339-2.606c.028 3.344 1.969 6.231 5.2 6.082 3.773-1.003 4.168-3.671 4.082-6.824zm-4.425 3.665a1.147 1.147 0 0 1-1.145-1.145c0-.629.512-1.145 1.145-1.145a1.146 1.146 0 0 1 0 2.29m35.441 1.793a1.146 1.146 0 0 1 0-2.29c.629 0 1.145.512 1.145 1.145 0 .629-.512 1.145-1.145 1.145m-3.406-3.782c-1.629 2.586-.309 6.125 3.281 6.766 3.485.078 5.57-2.211 5.074-6.203 1.567.629 3.133 1.301 4.703 3.101-1.421 1.934-4.187 3.442-8.914 3.723-4.546-.395-7.168-2.398-8.914-4.777q2.011-2.048 4.766-2.606zm-43.25-20.191c-3.887 3.797-4.219 8.781-2.817 14.347 1.891-1.792 4.586-3.585 8.075-5.382 5.285.199 10.273.152 13.16-1.641q1.416 1.115 2.84 2.242c.293-2.347 1.64-2.941 3.14-3.289-.82 3.438-1.269 6.875-.894 10.317q-.67 10.617-1.344 21.234-.82 5.233-1.644 10.465c-2.368 5.012 4.507 6.703 9.718 3.59 2.699 2.625 4.864.394 2.989-1.793q-2.092-2.24.597-3.289c1.942-.598 2.988 1.644 1.793 3.589 2.242 2.84.895 5.829-1.793 4.036-1.094-.2-2.191-.395-3.289-.598-5.234 2.316-8.312.742-11.515-.598-2.594 1.598-4.485 1.793-6.278 1.793 1.992-.922 3.488-1.968 3.887-3.289 0-2.84 1.043-6.031 2.242-9.269l1.492-11.364c-.793-2.5-2.289-2.543-3.886-2.242 1.343-.695 2.089-1.594 2.242-2.687q-6.729 1.567-11.664.742c-3.754-.934-4.477-2.734-5.383-4.484q-2.988.148-4.184 1.492.595 1.564 5.383 4.933c-2.242 0-5.98-5.98-6.727 0-1.054 7.922-.882 13.008 1.196 16.149 2.59 1.816 1.195 5.703 5.082 7.027q-1.94.669-3.887-1.047c.195 18.492 18.242 37.086 29.906 38.281 12.434 1.504 33.27-15.113 31.703-29.906 5.493-3.215 7.911-7.851 8.223-13.457-8.89 4.18-12.59 4.903-16.597 5.832 8.374-3.051 15.355-6.367 17.343-10.617 2.293-6.078-1.843-6.18-1.195-11.961q.968-7.33-1.047-9.269c-12.16-7.29-21.734-10.204-27.516-6.727l-2.988-.895q-1.42 2.015-2.84 4.036c2.102 9.793-2.757 5.804 3.141 20.785-2.641-2.688-3.887-1.196-3.738 4.484-.203 2.199-2.446 1.949-2.094-.445-.258-9.34.344-19.113.894-28.86-.097-1.644-.199-3.289-.296-4.933-1.844-3.539 1.492-4.785 2.39.297l3.285.445q-.448 3.733 6.278 2.094 2.09-1.044 5.98.894c6.309.164 11.84 3.836 17.344 7.625.644-7.019-2.688-13.472-7.266-19.746-8.961-.242-18.906-.285-28.691-.328-12.594.024-22.574.539-30.758 1.391zm40.094 14.73c-4.082.961-6.641 8.676-2.661 13.098.04-1.387.02-2.832.43-4.219.805 2.067 5.403 4.465 9.719 4.59 5.027-.125 8.078-1.148 10.09-3.785.265.598.758 1.195 1.855 1.797-1.023 1.601-3.304 3.031-5.508 4.469 2.848-1.153 5.645-2.333 6.993-4.157 1.109.578 2.226.723 3.339.805q-5.508-3.382-4.578-9.992c-1.527.812-2.539 2.304-2.414 5.273-3.48-2.703-7.144-4.14-10.953-4.527-4.754.262-6.465 1.781-8.355 3.226-.2-1.503.757-3.914 2.043-6.578m-1.489 55.102c-2.863-.348-4.859-1.195-4.933-3.141q-8.223 3.961-11.664-1.043c-2.887 2.192-5.778 3.289-8.672 3.887q3.286.075 6.578.148c1.512 3.18 6.543 5 11.812 3.438.446-.047.895-.25 1.344-.297.797-.246 1.594.047 2.391.598-.047-1.742-.895-2.492-2.539-2.242-6.43 2.566-9.02 1.566-9.867-1.043 5.207 1.543 7.203-.696 9.57-.149 2.492.449 4.285.199 5.98-.148zm-34.847 3.504-1.856 10.91c6.535 4.805 13.031 9.691 20.203 13.234 5.145 3.867 11.571 3.481 18.575 1.16q8.244-4.177 16.488-8.359c-1.004-4.719-2.012-7.062-3.016-11.785-8.668 9.676-16.148 12.625-24.82 13.012-9.598-1.176-18.453-8.946-25.57-18.18" style="stroke:none;fill-rule:evenodd;fill:#fff"/><path d="M331.676 139.797c.543-1.355 1.082-2.711 1.629-4.07-12.891-31.711-28.723-63.645-51.024-96.082l-6.511 7.328c16.629 23.715 35.66 56.078 55.91 92.824zm-60.527-52.113v68.125c12.031-.27 24.066.179 36.097 1.355-9.937-22.742-22.535-46.015-36.097-69.484zm-23.614 6.785v61.07c-15.558.27-28.226 1.989-37.996 5.156 10.856-24.968 23.52-47.046 37.996-66.226m43.766 164.086c-1.313 3.082-3.227 7.058-5.731 9.844 1.082 4.875 1.868 6.48 2.954 11.355q7.546-4.759 12.304-10.449c-3.5-5.652-5.406-7.582-9.527-10.754zm-60.012 3.156c-.773 4.102-2.14 7.906-2.914 12.008-5.031-3.559-8.047-5.336-11.219-8.895 2.086-2.554 7.289-5.457 11.239-7.394 1.855 1.625 1.035 2.652 2.894 4.277zm-24.918 27.078c9.696 7.981 20.989 15.965 34.539 23.949 2.938-1.007 5.957-1.785 9.52-.929-2.938-9.364 1.469-17.492 12.769-16.488 9.289.5 14.09 8.472 10.215 16.949 2.629.211 5.262.09 7.895 1.625 12.98-9.629 24.343-18.942 29.261-26.703-.773-5.497-3.402-10.68-7.894-15.559l-15.559 12.309-16.488 8.589c-7.566 3.137-14.648 1.434-21.598-1.625-15.601-10.242-25.597-17.496-33.234-23.492l-9.434 21.371zm32.453 26.274c-4.023 5.183-4.566 13.234 1.856 18.578-4.207 11.879-9.258 22.64-15.324 32.047l-2.555-57.825-52.715.465 32.047-18.578q17.414 13.582 36.691 25.313m75.012-26.707q-14.86 16.717-29.726 26.937c4.101 4.875 4.566 12.695-.696 17.879 10.895 25.176 22.856 49.289 36.227 71.992l32.742-94.519c-9.945-8.301-22.41-15.848-38.551-22.293zM73.469 497.371c4.074-40.172 10.633-80.582 34.601-122.621.145 4.25 2.407 6.738 6.27 7.895l.926 21.363c-8.203 6.344-7.738 15.789 1.39 19.973q.113 4.875.231 9.75-6.967 2.086-11.145 5.105c-5.031-1.933-8.203-8.746 1.625-14.164-9.636.77-12.113 8.746-5.105 16.254-9.637 7.078-8.63 13.738-2.785 20.203-4.973-9.394-1.141-16.848 15.093-23.223 14.332-4.57 26.965-6.945 41.106-9.054-18.219 13.562-25.301 29.547-29.258 46.215-7.996 29.562-10.355 60.539-10.914 91.964l-.117 2.731c-16.16-10.457-31.098-22.906-44.406-37.309-.086-10.992 1.812-26.097 2.488-35.09zm58.293-30.426c-9.93 31.946-13.801 68.075-13.918 104.333 16.156 10.183 33.453 18.449 51.492 24.749-4.187-35.804-6.758-78.089-7.383-128.156q.113-15.325.231-30.652 0-6.964 3.715-8.359c-8.43-2.399-27.477 16.457-34.137 38.085m80.914 140.301c-13.648-41.246-26.238-83.199-36.32-126.828l-12.075-15.558c1.075 48.492 3.875 92.714 7.981 132.14a273 273 0 0 0 40.41 10.242zm-33.535-123.113c23.301 30.031 50.855 55.812 84.066 75.938-5.961 16.945-11.929 33.89-17.89 50.839a282 282 0 0 1-29.454-3.152c-13.664-41.207-25.992-82.418-36.718-123.629zm100.554 83.836-15.074 43.351c28.574-.367 57.071-5.05 84.063-14.019-24.516-9.328-48.594-18.16-68.985-29.328zm7.668-19.973c-2.164 5.805-4.335 11.61-6.5 17.414 20.258 9.754 42.434 19.274 68.278 28.797-2.863-8.746-6.422-17.027-9.285-25.777-18.047-4.879-35.676-11.219-52.485-20.434zm36.926-61.773c-5.011 17.742-5.281 29.394-1.625 35.992 10.512-4.922 21.379-16.207 32.512-32.277h-16.254c-5.496.308-10.371-.926-14.629-3.715zm35.301 2.32c3.383 30.043 5.254 63.543 4.445 103.168a268 268 0 0 1-11.453 4.297c-4.242-12.363-8.488-24.73-12.73-37.098-5.727-16.375-10.602-26.359-15.094-33.441q22.525-15.212 34.836-36.922zm-170.465-29.262c-8.047 1.243-15.711 2.094-24.847.231 28.031 40.215 60.292 74.199 100.093 97.074 2.242-6.035 4.489-12.074 6.731-18.113-36.34-22.059-62.36-49.086-81.977-79.192m157.789-34.324c11.442 2.903 22.699 7.258 33.317 16.813 11.316 38.949 15.765 84.769 17.359 133.449-9.773 5.742-19.941 10.785-30.402 15.16 1.136-75.074-4.301-133.551-20.274-165.43zm-2.804-2.801c23.562 3.782 45.562 16.133 64.144 47.329 8.969 13.05 13.754 7.91 11.207-10.586 6.434 15.984 2.176 23.769-5.601 20.55 4.773 8.821 5.914 18.575 7.472 26.465 1.555 7.887 3.32 11.832 9.965 12.766-7.473 1.449-11.312-1.035-12.453-10.274-6.613-31.363-19.328-49.918-34.25-63.832 7.512 30.7 14.312 65.5 16.141 128.723 15.054-9.156 29.16-19.934 41.941-32.394-4.891-40.637-13.113-85.641-26.012-125.282-15.672-44.426-32.488-71.722-49.82-91.234q-15.722 43.904-31.449 87.808 3.11 3.58 6.226 7.161c17.75-23.043 25.531-41.102 23.352-54.18 4.566 4.305 4.98 13.023-3.735 31.449 13.286-1.242 23.25 4.981 29.891 18.68q-13.23 5.759-23.977-2.176c6.329 1.453 12.766 2.809 19.926.93-9.754-17.789-27.269-16.266-30.515-10.274q-6.224 9.185-12.453 18.371" style="stroke:none;fill-rule:evenodd;fill:#39a66d"/></svg>