<svg xmlns="http://www.w3.org/2000/svg" xmlns:xlink="http://www.w3.org/1999/xlink" viewBox="-18.50 -18.40 736.98 736.99"><title>Herb Katowice-Załęże</title><defs><linearGradient id="b"><stop offset="0" style="stop-color:#002738;stop-opacity:1"/><stop offset=".338" style="stop-color:#7f924a;stop-opacity:1"/><stop offset="1" style="stop-color:#fffd5d;stop-opacity:1"/></linearGradient><linearGradient id="a"><stop offset="0" style="stop-color:#002738;stop-opacity:1"/><stop offset=".5" style="stop-color:#7f924a;stop-opacity:1"/><stop offset="1" style="stop-color:#fffd5d;stop-opacity:1"/></linearGradient><linearGradient xlink:href="#a" id="d" x1="579.537" x2="579.537" y1="491.824" y2="385.969" gradientTransform="translate(-210.96 64.608)" gradientUnits="userSpaceOnUse"/><linearGradient xlink:href="#b" id="c" x1="350.049" x2="350.049" y1="678.288" y2="478.987" gradientTransform="translate(12.774 64.608)" gradientUnits="userSpaceOnUse"/></defs><path d="M701.032 366.35a346.942 339.788 0 1 1 .004-1.066" style="fill:#6070a3;fill-opacity:1;fill-rule:evenodd;stroke:none;stroke-width:17.71653557;stroke-linecap:round;stroke-linejoin:round;stroke-miterlimit:4;stroke-dasharray:none;stroke-dashoffset:0;stroke-opacity:1" transform="matrix(.98344 0 0 1.00415 1.768 -15.994)"/><path d="M654.182 592.848c-60.298 98.631-169.246 164.244-293.2 163.563-122.664-.674-229.92-66.104-289.52-163.686l145.199-4.491c116.708-5.763 138.064-53.323 111.762-107.273-18.55 9.587-35.71 64.513-78.674 62.557 23.624-24.843 24.1-63.054 58.104-76.871-72.888 2.57-77.184 143.663-227.977 20.577 137.78 54.794 151.022-94.905 265.533-29.52-10.756-19.053-17.518-41.6-46.498-44.708-14.024 33.68-43.204 33.68-78.688 19.672 24.448-5.354 52.313-4.848 60.805-37.556l-28.614-26.825 12.518-17.884 46.498 33.98c9.29-13.057-1.614-29.48-5.365-44.71 8.345 5.364 18.555 7.596 25.037 17.524 5.444 8.338 1.154 23.542 12.823 47.203 8.77 17.78 21.14 41.696 28.309 65.823 2.923-21.787 8.987-42.003 21.46-59.015 4.503-5.962 3.663-11.923 3.577-17.884-.827-40.952 11.558-44.56 26.804-62.55-2.015 20.438-16.212 46.377-3.555 58.068l50.964-39.322 14.3 17.862-33.074 29.519c14.803 18.024 35.82 27.347 62.593 28.613-32.387 13.502-61.516 19.282-84.413-14.666-22.645 12.203-28.949 36.373-35.055 51.865 125.622-61.92 94.652 44.86 237.5 25.394-129.153 100.38-169.376-34.179-205.662-25.04 20.116 24.901 29.922 62.37 59.002 83.151-46.249 3.26-51.58-63.954-91.192-63.476-15.315 68.814 31.022 97.018 80.476 103.725 56.203 10.969 117.08 12.933 178.223 6.38" style="fill:url(#c);fill-opacity:1;fill-rule:evenodd;stroke:#000;stroke-width:4;stroke-linecap:round;stroke-linejoin:round;stroke-miterlimit:4;stroke-dasharray:none;stroke-dashoffset:0;stroke-opacity:1" transform="translate(-12.857 -65.22)"/><path d="M701.032 366.35a346.942 339.788 0 1 1 .004-1.066" style="fill:none;fill-opacity:1;fill-rule:evenodd;stroke:#000;stroke-width:17.71653557;stroke-linecap:round;stroke-linejoin:round;stroke-miterlimit:4;stroke-dasharray:none;stroke-dashoffset:0;stroke-opacity:1" transform="matrix(.98344 0 0 1.00415 1.768 -15.994)"/><path d="M354.876 332.478h27.402c-.433 74.724-4.349 148.932-6.5 225.375l-14.902.5c-3.524-75.125-5.878-150.75-6-225.875" style="fill:url(#d);fill-opacity:1;fill-rule:evenodd;stroke:#000;stroke-width:4;stroke-linecap:round;stroke-linejoin:round;stroke-miterlimit:4;stroke-dasharray:none;stroke-dashoffset:0;stroke-opacity:1" transform="translate(-12.857 -65.22)"/><g style="stroke:#000;stroke-width:4;stroke-miterlimit:4;stroke-dasharray:none;stroke-opacity:1"><g style="stroke:#000;stroke-width:4;stroke-miterlimit:4;stroke-dasharray:none;stroke-opacity:1"><path d="M-263.737 195.941c38.896 7.202 80.988 6.948 125.36 1.37-.072 37.017-24.817 76.916-62.337 76.724-50.054 1.388-64.625-48.55-63.023-78.094z" style="fill:#1f3835;fill-opacity:1;fill-rule:evenodd;stroke:#000;stroke-width:4;stroke-linecap:butt;stroke-linejoin:miter;stroke-miterlimit:4;stroke-dasharray:none;stroke-opacity:1" transform="translate(558.174 -.611)"/><path d="M-263.737 195.941c2.287-56.086 29.105-122.628 66.448-125.36 43.795 12.555 59.33 84.82 58.913 125.36-40.572 12.288-82.817 11.752-125.361 0z" style="fill:#774344;fill-opacity:1;fill-rule:evenodd;stroke:#000;stroke-width:4;stroke-linecap:butt;stroke-linejoin:miter;stroke-miterlimit:4;stroke-dasharray:none;stroke-opacity:1" transform="translate(558.174 -.611)"/></g><g style="stroke:#000;stroke-width:4.29006004;stroke-miterlimit:4;stroke-dasharray:none;stroke-opacity:1"><path d="M-263.737 195.941c38.896 7.202 80.988 6.948 125.36 1.37-.072 37.017-24.817 76.916-62.337 76.724-50.054 1.388-64.625-48.55-63.023-78.094z" style="fill:#1f3835;fill-opacity:1;fill-rule:evenodd;stroke:#000;stroke-width:4.29006004;stroke-linecap:butt;stroke-linejoin:miter;stroke-miterlimit:4;stroke-dasharray:none;stroke-opacity:1" transform="rotate(48.55 55.132 1004.676)scale(1 .86935)"/><path d="M-263.737 195.941c2.287-56.086 29.105-122.628 66.448-125.36 43.795 12.555 59.33 84.82 58.913 125.36-45.32 24.448-85.813 16.503-125.361 0z" style="fill:#774344;fill-opacity:1;fill-rule:evenodd;stroke:#000;stroke-width:4.29006004;stroke-linecap:butt;stroke-linejoin:miter;stroke-miterlimit:4;stroke-dasharray:none;stroke-opacity:1" transform="rotate(48.55 55.132 1004.676)scale(1 .86935)"/></g><g style="stroke:#000;stroke-width:4.29005957;stroke-miterlimit:4;stroke-dasharray:none;stroke-opacity:1"><path d="M-263.737 195.941c38.896 7.202 80.988 6.948 125.36 1.37-.072 37.017-24.817 76.916-62.337 76.724-50.054 1.388-64.625-48.55-63.023-78.094z" style="fill:#1f3835;fill-opacity:1;fill-rule:evenodd;stroke:#000;stroke-width:4.29005957;stroke-linecap:butt;stroke-linejoin:miter;stroke-miterlimit:4;stroke-dasharray:none;stroke-opacity:1" transform="rotate(126.929 -110.84 144.047)scale(1 -.86935)"/><path d="M-263.737 195.941c2.287-56.086 29.105-122.628 66.448-125.36 43.795 12.555 59.33 84.82 58.913 125.36-38.809 15.404-77.887 20.91-125.361 0z" style="fill:#774344;fill-opacity:1;fill-rule:evenodd;stroke:#000;stroke-width:4.29005957;stroke-linecap:butt;stroke-linejoin:miter;stroke-miterlimit:4;stroke-dasharray:none;stroke-opacity:1" transform="rotate(126.929 -110.84 144.047)scale(1 -.86935)"/></g></g></svg>