<svg viewBox="-21.55 -25.98 581.85 701.52"><title>Herb Kazimierza Wielka</title><path d="M0 0h538.75v420.152c0 82.918-97.235 168.578-166.407 199.504-57.265 25.602-128.562 29.895-197.664 0C93.843 584.683 0 492.715 0 425.672V.004" style="stroke:none;fill-rule:evenodd;fill:#222"/><path d="M7.191 8.547h524.367V417.48c0 80.703-94.636 164.078-161.961 194.176-55.738 24.918-125.129 29.098-192.386 0C98.531 577.617 7.195 488.105 7.195 422.848V8.543zM172.734 253.73q-24.111-16.676-40.266-54.582c-19.281-42.367-43.433-66.488-69.796-82.32q-8.948-5.814-17.895-11.633c-4.812-3.43-2.078-5.566 5.368-3.578 14.316 2.703 28.632 7.18 42.948 13.422 21.356 13.074 34.946 30.812 47.422 49.215 10.598 18.929 21.641 37.414 35.793 52.793l12.524-9.84 12.293 5.137 6.492-6.032c-3.766-6.8-7.863-14.711-11.633-25.054-6.562 2.59-13.125 10.34-19.684 16.535-3.281-5.067-6.558-11.465-9.839-16.535 9.3-2.625 17.496-6.36 23.261-12.528-6.847-15.859-12.812-31.558-17.894-47.425-10.508-1.872-18.637-17.969-10.305-26.844 8.629-9.188 26.207-8.75 29.098 8.945.594 3.637-.461 5.828-1.356 9.41 9.242 11.942 17.164 26.094 26.41 39.801 3.551 1.199 13.493-5.719 24.157-13.422.164 6.477 5.429 14.055 9.148 18.758-12.492 2.172-20.094 4.566-25.484 8.516l18.789 42.285 4.937-1.125 14.977 11.863 17.894-11.633 17 5.598 12.528-8.945 11.633 9.843 8.945-6.261 16.105 8.945q18.74-17.029 29.528-39.371c29.199-49.992 64.597-65.449 100.883-72.942 8.843-.562 8.179.196-.661 4.938-26.359 17.129-50.511 37.574-69.797 65.32-6.593 13.422-12.41 27.508-20.808 40.93-6.141 10.68-13.828 22.91-25.719 36.023 9.84-2.468 19.684-6.488 29.527-10.734q35.298-12.258 62.637 20.578c-26.258 16.317-53.398 25.567-81.426 27.738-11.574.688-22.293-6.386-31.316-4.472l8.715 22.801L320.359 379l38.242 84.312-5.801 24.821-21.703-13.391-25.054-53.687-.895 1.785 12.293 36.687-25.715 26.844-13.422-16.106-13.851 23.032-17.465-21.242-14.746 15.41-28.199-31.516 12.527-33.105-43.844-115.43 6.262-22.367c-4.184-2.949-9.254-3.25-15.211-.895-9.027 6.442-19.613 5.117-30.422 2.684-20.879-3.364-41.758-13.649-62.636-24.16 12.714-17.496 30.074-24.825 48.085-24.621 18.192 3.445 34.399 13.316 53.918 15.671" style="stroke:none;fill-rule:evenodd;fill:#ec2a32"/><path d="m220.871 166.754 19.203 42.676-9.719 3.078-18.492-37.934zm-21.578 13.043 12.089 27.027 7.586 9.008 8.059-2.606-18.02-37.695-9.718 4.266zm11.855 80.851-17.305 40.778 18.254 21.336-25.605-16.832 15.883-45.758 8.769.472zm95.789 2.844 17.309 40.777-18.254 21.336 25.605-16.832-15.882-45.758-8.77.473zM183.91 234.711c5.801-6.981 11.101-12.196 11.805-11.613.699.582-3.454 6.753-9.25 13.734-5.797 6.98-11.102 12.199-11.805 11.613-.703-.582 3.453-6.754 9.25-13.734m30.558-.973c2.063-1.375 4.278-1.703 4.93-.726.649.976-.496 2.898-2.562 4.273-2.063 1.375-4.278 1.699-4.93.723-.649-.977.496-2.895 2.562-4.274zm108.641-4.664c-2.945-1.965-6.113-2.43-7.043-1.035-.93 1.394.711 4.141 3.66 6.105 2.946 1.965 6.113 2.43 7.043 1.036s-.711-4.141-3.66-6.106m-83.629 2.57c3.43-1.886 6.922-2.168 7.774-.625.847 1.543-1.254 4.344-4.688 6.231-3.43 1.887-6.922 2.168-7.773.625-.848-1.543 1.254-4.344 4.687-6.235zm54.859-1.089c-1.863-3.442-4.648-5.567-6.199-4.731-1.547.84-1.289 4.332.571 7.777 1.863 3.442 4.648 5.567 6.199 4.731 1.547-.84 1.289-4.332-.571-7.777m-21.812.378c1.402.692 2.242 1.879 1.867 2.641-.375.758-1.824.813-3.23.121-1.403-.691-2.242-1.879-1.867-2.64.375-.758 1.824-.813 3.23-.122m-73.746 92.77c1.637 3.363 1.953 6.602.699 7.215-1.25.609-3.609-1.633-5.25-4.996-1.637-3.364-1.953-6.606-.699-7.215 1.25-.609 3.609 1.633 5.25 4.996m122.297 2.605c-1.637 3.364-1.953 6.606-.699 7.215 1.25.61 3.609-1.633 5.25-4.996 1.636-3.363 1.953-6.605.699-7.215-1.25-.609-3.61 1.633-5.25 4.996m40.156-50.011c12.828 1.765 25.215 3.535 39.355.711 7.899-.227 6.454-12.524 34.614-17.309-5.293-9.305-15.094-11.477-27.977-8.769q-16.477 2.132-25.367 7.109c-5.137 1.785-10.59 2.258-16.359 2.133-2.528-1.34-2.211-2.055.945-2.133 6.535.949 15.82-1.891 26.789-6.637 10.32-3.617 19.406-3.527 28.449-3.316 6.282-.356 13 4.937 19.914 12.801-9.168.382-17.781 4.101-26.316 8.296-3.664.875-3.035 8.891-19.442 11.379-11.539 1.746-22.523.16-33.429-1.894q-5.807-2.608-1.184-2.367zm-200.707-1.66c-12.828 1.765-25.215 3.535-39.355.711-7.899-.227-6.454-12.524-34.614-17.309 5.293-9.305 15.094-11.477 27.977-8.77q16.477 2.134 25.367 7.11c5.137 1.785 10.59 2.254 16.359 2.133q3.79-2.016-.945-2.133c-6.535.949-15.824-1.895-26.789-6.637-10.32-3.617-19.406-3.527-28.449-3.316-6.28-.356-13 4.937-19.914 12.8 9.168.383 17.781 4.102 26.316 8.297 3.664.875 3.035 8.891 19.442 11.379 11.539 1.746 22.523.16 33.429-1.894q5.807-2.608 1.184-2.368zm102.309 187.785c4.046 0 7.347 1.011 7.347 2.25 0 1.238-3.301 2.25-7.347 2.25s-7.348-1.012-7.348-2.25c0-1.239 3.301-2.25 7.348-2.25m-63.782-115.469 25.368 66.625-.235-8.535zm118.078.473-25.367 66.625.235-8.536 25.132-58.085zm-83.222 30.113 20.152 48.367.473-5.926zm49.793-1.66-20.153 48.367-.472-5.926 20.625-42.437zm-52.942 64.953c-2.429-4.695-3.894-8.793-3.257-9.125.636-.328 3.14 3.23 5.574 7.926 2.429 4.695 3.894 8.793 3.258 9.125-.637.328-3.141-3.231-5.575-7.926m64.438 2.609c2.43-4.695 3.894-8.793 3.258-9.125-.637-.328-3.141 3.227-5.575 7.926-2.429 4.695-3.894 8.793-3.257 9.125.636.328 3.14-3.227 5.574-7.926m25.203-58.519 35.895 77.968-4.989 19.727-17.351-10.219-25.672-55.625 4.277-11.883 29.715 63.946c2.059 2.136 2.848 1.738 2.375-1.188l-30.426-67.511 6.18-15.211" style="stroke:none;fill-rule:evenodd;fill:#fffdfd"/><path d="M219.449 157.269q9.957-4.74 18.016-11.379l5.687 9.719q-11.614 2.014-21.336 6.875zm-3.387 2.332 2.653 5.305-10.016 7.16-11.203 4.114-2.653-4.641 9.286-10.609 11.937-1.325zM172.5 183.828l4.738 8.77c5.254-6.063 11.023-10.844 17.543-13.75l-3.316-6.876c-5.313 4.622-11.754 8.493-18.965 11.852zm3.765-62.695 16.578 45.101 9.946-7.957 9.945-3.976-26.527-37.805c-3.313 3.312-6.633 4.863-9.946 4.641zm-1.871-28.52c6.641 0 12.055 5.414 12.055 12.055 0 6.64-5.414 12.054-12.055 12.054-6.64 0-12.055-5.414-12.055-12.054 0-6.637 5.415-12.055 12.055-12.055M385.98 552.312c14.606-5.343 28.168-5.203 30.188.309 2.019 5.516-8.243 14.379-22.856 19.727-14.605 5.343-28.168 5.203-30.187-.309-2.02-5.516 8.246-14.379 22.855-19.727m-34.488 27.86c14.605-5.344 28.168-5.203 30.187.308 2.02 5.516-8.242 14.379-22.855 19.727-14.606 5.348-28.168 5.207-30.188-.309-2.019-5.515 8.243-14.379 22.856-19.726m62.484-59.836c13.848-7.082 27.324-8.59 30.004-3.356 2.676 5.231-6.437 15.274-20.289 22.356-13.848 7.082-27.328 8.59-30.004 3.355-2.676-5.23 6.438-15.273 20.289-22.355m21.391-35.301c12.129-9.738 25.023-13.945 28.699-9.363 3.68 4.578-3.211 16.261-15.34 26-12.129 9.738-25.023 13.945-28.699 9.363-3.68-4.578 3.211-16.262 15.34-26.004zm11.64-34.906c11.766-10.176 24.497-14.848 28.34-10.403 3.844 4.442-2.613 16.368-14.382 26.543-11.766 10.176-24.497 14.848-28.34 10.403-3.844-4.442 2.613-16.367 14.382-26.543m11.762-36.324c11.535-10.43 24.164-15.383 28.106-11.02 3.937 4.355-2.254 16.422-13.797 26.852-11.539 10.429-24.164 15.382-28.106 11.023-3.941-4.359 2.254-16.422 13.797-26.855m4.371-32.243c11.164-10.828 23.61-16.218 27.699-12.004s-1.675 16.489-12.843 27.321c-11.164 10.828-23.61 16.222-27.699 12.004-4.09-4.215 1.675-16.493 12.843-27.321m-36.886 8.973c-2.883-15.285-.528-28.641 5.246-29.73 5.773-1.09 12.836 10.484 15.722 25.773 2.883 15.285.528 28.641-5.242 29.727-5.773 1.089-12.836-10.485-15.723-25.774zm-9.465 46.176c.379-15.547 5.48-28.113 11.355-27.969 5.875.141 10.356 12.941 9.969 28.496-.379 15.551-5.481 28.117-11.356 27.973-5.875-.141-10.351-12.946-9.968-28.5m-15.832 49.965c1.992-15.426 8.379-27.395 14.203-26.637 5.828.754 8.953 13.949 6.953 29.379-1.992 15.426-8.379 27.394-14.203 26.637-5.824-.75-8.949-13.95-6.953-29.379m-24.114 29.925c4.782-14.8 13.243-25.398 18.832-23.593 5.594 1.804 6.254 15.351 1.469 30.152-4.781 14.801-13.242 25.402-18.832 23.594-2.551-.821-4.07-4.09-4.523-8.801a73 73 0 0 1-.996 4.465c-3.848 15.07-11.637 26.176-17.328 24.719-1.981-.504-3.454-2.469-4.372-5.45-1.378 5.469-4.875 12.36-10.007 19.059-9.454 12.352-20.973 19.512-25.641 15.941-4.664-3.57-.758-16.558 8.695-28.91s20.973-19.512 25.637-15.937q.105.082.211.172c.078-4.457.769-9.571 2.129-14.879 3.848-15.071 11.637-26.176 17.328-24.719 3.144.801 5.012 5.281 5.402 11.676a73 73 0 0 1 1.989-7.492zm71.364-223.019h2.652l-9.309 67.652h-2.652zm23.215-1.324h2.652l-9.309 67.652h-2.652zm23.875.66h2.652l-9.309 67.652h-2.652zM148.82 545.019c-14.605-5.343-28.168-5.203-30.188.309-2.019 5.516 8.247 14.379 22.856 19.727 14.605 5.343 28.168 5.207 30.187-.309s-8.242-14.379-22.855-19.727m34.492 27.856c-14.605-5.348-28.168-5.207-30.187.308-2.02 5.516 8.246 14.379 22.855 19.727 14.606 5.348 28.168 5.207 30.188-.309 2.019-5.515-8.243-14.379-22.856-19.726m-62.484-59.836c-13.848-7.082-27.328-8.59-30.004-3.356-2.676 5.231 6.437 15.274 20.289 22.356 13.848 7.082 27.328 8.59 30.004 3.355 2.676-5.23-6.438-15.273-20.289-22.355m-21.39-35.301c-12.13-9.738-25.024-13.945-28.7-9.363-3.68 4.582 3.211 16.262 15.34 26 12.13 9.738 25.023 13.945 28.699 9.363 3.68-4.578-3.211-16.262-15.34-26.004zm-11.64-34.902C76.03 432.66 63.3 427.988 59.456 432.433c-3.844 4.442 2.613 16.368 14.382 26.543 11.766 10.176 24.497 14.848 28.34 10.403 3.844-4.442-2.613-16.367-14.382-26.543M76.03 406.512c-11.539-10.43-24.164-15.383-28.105-11.024-3.942 4.36 2.254 16.422 13.797 26.856 11.538 10.429 24.163 15.382 28.105 11.019 3.937-4.355-2.254-16.422-13.797-26.851m-4.367-32.247c-11.164-10.828-23.61-16.218-27.7-12.003s1.677 16.492 12.845 27.32c11.164 10.828 23.61 16.219 27.698 12.004 4.09-4.215-1.675-16.492-12.843-27.321m36.883 8.973c2.882-15.285.527-28.64-5.247-29.73-5.773-1.09-12.835 10.484-15.722 25.773-2.883 15.285-.528 28.641 5.242 29.731 5.773 1.089 12.836-10.485 15.723-25.774zm9.468 46.18c-.379-15.551-5.484-28.117-11.355-27.969-5.875.141-10.356 12.941-9.969 28.496.38 15.551 5.481 28.117 11.356 27.973 5.871-.141 10.351-12.946 9.968-28.496zm15.832 49.961c-1.992-15.426-8.379-27.391-14.203-26.637s-8.949 13.949-6.953 29.379c1.992 15.426 8.379 27.394 14.203 26.637 5.824-.75 8.949-13.95 6.953-29.379m24.114 29.929c-4.782-14.8-13.243-25.398-18.832-23.593s-6.25 15.351-1.465 30.152c4.777 14.805 13.242 25.402 18.832 23.594 2.547-.821 4.07-4.09 4.523-8.801.278 1.465.61 2.957.996 4.465 3.848 15.07 11.637 26.176 17.328 24.719 1.981-.504 3.454-2.469 4.372-5.45 1.378 5.469 4.874 12.36 10.007 19.059 9.453 12.352 20.973 19.512 25.641 15.941 4.664-3.57.758-16.558-8.695-28.91s-20.973-19.512-25.641-15.937q-.105.082-.211.172c-.078-4.457-.769-9.571-2.129-14.879-3.848-15.071-11.637-26.176-17.328-24.719-3.144.801-5.012 5.281-5.402 11.676a73 73 0 0 0-1.989-7.492zM86.597 286.285h-2.652l9.31 67.652h2.651zm-23.214-1.324H60.73l9.309 67.652h2.652zm-23.88.664h-2.651l9.308 67.652h2.653z" style="stroke:none;fill-rule:evenodd;fill:#d0ac69"/></svg>