<!-- Created with Inkscape (http://www.inkscape.org/) -->
<svg
   xmlns="http://www.w3.org/2000/svg"
   id="svg2"
   version="1.0"><title>Herb Wiskitki</title>
  <metadata
     id="metadata7">
    <rdf:RDF>
      <cc:Work
         rdf:about="">
        <dc:format>image/svg+xml</dc:format>
        <dc:type
           rdf:resource="http://purl.org/dc/dcmitype/StillImage" />
      </cc:Work>
    </rdf:RDF>
  </metadata>
  <defs
     id="defs5" />
  <sodipodi:namedview
     guidetolerance="10.0"
     gridtolerance="10.0"
     objecttolerance="10.0"
     borderopacity="1.0"
     bordercolor="#666666"
     pagecolor="#ffffff"
     id="base" />
  <g
     id="g5307">
    <g
       style="fill:#ef1c2c;fill-opacity:1;stroke:#000000;stroke-width:7.08661413;stroke-miterlimit:4;stroke-dasharray:none;stroke-opacity:1"
       transform="translate(-3.4968714,-33.737943)"
       id="layer1">
      <path
         style="fill:#ef1c2c;fill-opacity:1;fill-rule:nonzero;stroke:#000000;stroke-width:7.08661413;stroke-linecap:round;stroke-linejoin:round;stroke-miterlimit:4;stroke-dasharray:none;stroke-dashoffset:0;stroke-opacity:1"
         d="M 7.0401785,37.28125 L 7.0401785,567 L 7.7589285,567 C 13.615519,701.38583 182.69141,857.5625 375.13393,857.5625 C 567.57646,857.56247 733.94044,701.3858 742.38393,567 L 743.25893,567 C 743.25893,567 743.81137,185.49529 743.25893,37.28125 C 618.84028,37.28125 110.69725,37.28125 7.0401785,37.28125 z "
         id="path2972" />
    </g>
    <g
       transform="translate(804.29572,0)"
       id="g4274">
      <path
         id="path3285"
         style="fill:#ffff00;fill-rule:evenodd;stroke:#000000;stroke-width:5.31496048;stroke-linecap:butt;stroke-linejoin:miter;stroke-miterlimit:4;stroke-dasharray:none;stroke-opacity:1"
         d="M -276.95968,215.667 C -379.16246,155.27317 -488.14166,156.21675 -587.33701,215.55337 C -596.64475,211.00144 -599.1489,204.18164 -602.09929,197.51059 C -624.83711,176.87699 -648.04288,157.64725 -675.09056,149.94324 C -669.02695,137.24262 -659.64826,136.48928 -649.69473,139.12881 C -649.77867,127.99447 -627.43642,124.90308 -626.70309,149.12311 C -621.90666,163.44649 -614.50462,167.53855 -602.94751,159.78476 C -588.97386,151.00865 -594.67998,144.56822 -597.84587,137.46046 C -610.01855,134.7267 -619.79434,114.95117 -609.48043,103.19602 C -596.12944,97.642648 -580.35867,115.06256 -586.18321,129.41198 C -581.4277,143.10183 -573.77397,148.39085 -560.86443,143.61075 C -546.85585,132.12261 -550.37617,123.59248 -559.79297,112.10434 C -575.22711,101.84229 -570.65344,82.723965 -562.20888,69.745982 C -541.32419,71.098927 -528.01274,85.424228 -534.13041,103.97763 C -538.24713,116.07717 -527.10466,130.25226 -510.18188,122.65603 C -497.73713,116.99494 -492.89573,110.61072 -499.7245,97.957277 C -510.53726,80.207767 -504.57383,63.954283 -497.28949,57.256637 C -487.71711,63.780852 -480.26793,67.591344 -480.81889,92.625696 C -484.07754,104.78619 -482.29898,120.5963 -464.05963,117.0215 C -450.76127,117.9836 -433.76951,105.97545 -449.15093,88.690243 C -468.47139,69.909054 -439.74182,48.850332 -432.26991,43.751203 C -424.798,48.850332 -396.06843,69.909054 -415.38889,88.690243 C -430.77031,105.97545 -413.77855,117.9836 -400.48019,117.0215 C -382.24084,120.5963 -380.46228,104.78619 -383.72093,92.625696 C -384.27189,67.591344 -376.82271,63.780852 -367.25033,57.256637 C -359.96599,63.954283 -354.00256,80.207767 -364.81532,97.957277 C -371.64409,110.61072 -366.80269,116.99494 -354.35794,122.65603 C -337.43516,130.25226 -326.29269,116.07717 -330.40941,103.97763 C -336.52708,85.424228 -323.21563,71.098927 -302.33094,69.745982 C -293.88638,82.723965 -289.31271,101.84229 -304.74685,112.10434 C -314.16365,123.59248 -317.68397,132.12261 -303.67539,143.61075 C -290.76585,148.39085 -283.11212,143.10183 -278.35661,129.41198 C -284.18115,115.06256 -268.41038,97.642648 -255.05939,103.19602 C -244.74548,114.95117 -254.52127,134.7267 -266.69395,137.46046 C -269.85984,144.56822 -275.56596,151.00865 -261.59231,159.78476 C -250.0352,167.53855 -242.63316,163.44649 -237.83673,149.12311 C -237.1034,124.90308 -214.76115,127.99447 -214.84509,139.12881 C -204.89156,136.48928 -195.51287,137.24262 -189.44926,149.94324 C -216.49694,157.64725 -239.70271,176.87699 -262.44053,197.51059 C -265.39092,204.18164 -267.65194,211.11507 -276.95968,215.667 z " />
      <path
         style="fill:none;fill-rule:evenodd;stroke:#000000;stroke-width:5.31496048;stroke-linecap:butt;stroke-linejoin:miter;stroke-miterlimit:4;stroke-dasharray:none;stroke-opacity:1"
         d="M -602.01483,197.54016 C -508.89221,136.33569 -368.64751,135.59078 -262.35444,197.1813"
         id="path3292" />
      <path
         id="path3294"
         d="M -602.01483,197.54016 C -589.1703,189.09814 -575.42927,181.80638 -561.00449,175.66978 C -550.17007,171.06059 -535.10779,153.27146 -537.11631,135.21399 C -529.43184,150.74235 -500.29405,157.00888 -486.26737,154.93896 C -451.27486,149.77511 -414.68052,150.11685 -378.67522,156.01487 C -364.65067,158.31222 -336.03811,151.17841 -327.31209,135.79061 C -330.3198,153.68891 -314.97685,172.43307 -304.24829,176.76017 C -289.8482,182.56809 -275.82854,189.37386 -262.35444,197.1813"
         style="fill:none;fill-rule:evenodd;stroke:#000000;stroke-width:5.31496048;stroke-linecap:butt;stroke-linejoin:miter;stroke-miterlimit:4;stroke-dasharray:none;stroke-opacity:1" />
      <path
         style="fill:#ffff00;fill-opacity:1;fill-rule:nonzero;stroke:#000000;stroke-width:5.31496048;stroke-linecap:round;stroke-linejoin:round;stroke-miterlimit:4;stroke-dasharray:none;stroke-opacity:1"
         id="path4267"
         d="M -418.1497 139.29799 A 13.593102 11.65123 0 1 1  -445.3359,139.29799 A 13.593102 11.65123 0 1 1  -418.1497 139.29799 z" />
      <path
         style="fill:#ffff00;fill-opacity:1;fill-rule:nonzero;stroke:#000000;stroke-width:5.31496;stroke-linecap:round;stroke-linejoin:round;stroke-miterlimit:4;stroke-opacity:1"
         d="M -262.78271,196.18097 C -267.90306,190.69619 -268.24321,182.68279 -263.54197,178.29391 C -258.84072,173.90504 -250.86957,174.79447 -245.74922,180.27925 C -240.62887,185.76404 -257.66236,201.66576 -262.78271,196.18097 z "
         id="path4269" />
      <path
         id="path4272"
         d="M -600.48097,196.18097 C -595.36062,190.69619 -595.02047,182.68279 -599.72171,178.29391 C -604.42296,173.90504 -612.39411,174.79447 -617.51446,180.27925 C -622.63481,185.76404 -605.60132,201.66576 -600.48097,196.18097 z "
         style="fill:#ffff00;fill-opacity:1;fill-rule:nonzero;stroke:#000000;stroke-width:5.31496;stroke-linecap:round;stroke-linejoin:round;stroke-miterlimit:4;stroke-opacity:1" />
    </g>
    <g
       transform="translate(816.64077,0)"
       id="g4286">
      <path
         style="fill:#ffffff;fill-rule:evenodd;stroke:#000000;stroke-width:5.31496048;stroke-linecap:butt;stroke-linejoin:miter;stroke-miterlimit:4;stroke-dasharray:none;stroke-opacity:1"
         d="M -338.64114,311.04464 C -353.67384,342.10026 -401.43316,395.6444 -443.16001,430.19615 C -475.23653,398.37596 -497.83811,366.55577 -540.01416,334.73558 C -545.24587,328.92898 -544.03966,323.12237 -540.01416,317.31577 L -474.51567,255.30124 L -456.39907,279.68898 L -503.78096,326.37407 C -461.8741,369.93055 -414.98889,331.91471 -381.84227,301.98634 C -373.22285,309.34149 -353.9784,301.06316 -338.64114,311.04464 z "
         id="path4282" />
      <path
         style="fill:#ffff00;fill-rule:evenodd;stroke:#000000;stroke-width:5.31496048;stroke-linecap:butt;stroke-linejoin:miter;stroke-miterlimit:4;stroke-dasharray:none;stroke-opacity:1"
         d="M -475.90926,255.30124 L -456.39907,280.38577 L -392.99095,216.28086 C -383.42941,200.42239 -402.98295,181.226 -415.28831,193.9835 L -475.90926,255.30124 z "
         id="path4284" />
    </g>
    <path
       id="path4290"
       d="M 334.57934,680.76392 C 307.68942,676.55763 301.43052,652.53488 310.14534,630.83359 C 315.01348,607.95668 308.14045,600.41235 302.70891,596.83847 C 296.634,553.55696 274.89433,546.01433 276.15023,508.66364 C 216.97626,532.52623 217.52081,492.55179 195.41182,476.79321 C 198.07085,464.01223 261.13071,476.62526 274.03236,469.35678 C 192.56996,413.40435 261.46113,343.67804 192.75937,308.94687 C 187.47886,304.14548 189.88942,299.07401 197.54335,298.85799 C 296.39836,314.59701 246.87836,423.95383 313.33239,432.17462 C 353.20803,415.99937 393.96131,418.2725 431.25295,431.11228 C 492.33572,426.61264 448.14318,314.39196 548.11116,300.44355 C 557.903,304.69294 553.67933,308.94232 548.11116,313.19171 C 487.49684,335.62231 546.41409,431.14931 472.6845,470.41913 C 501.02809,476.4437 536.93823,465.35819 549.71038,475.73087 C 527.43561,496.73885 513.15655,533.98845 465.77583,510.78833 C 465.51367,545.20653 446.17534,568.64455 440.81408,594.71378 C 432.16815,601.87613 426.85958,612.0421 432.3153,631.89594 C 439.39278,649.52737 435.37065,676.10364 408.94365,678.63922 C 384.83931,706.01412 360.10279,708.73427 334.57934,680.76392 z "
       style="fill:#000000;fill-rule:evenodd;stroke:none;stroke-width:1px;stroke-linecap:butt;stroke-linejoin:miter;stroke-opacity:1" />
    <g
       style="stroke:#000000;stroke-opacity:1"
       id="g4326">
      <path
         style="fill:#ffffff;fill-rule:evenodd;stroke:#000000;stroke-width:1px;stroke-linecap:butt;stroke-linejoin:miter;stroke-opacity:1"
         d="M 295.7873,509.57546 C 302.96582,508.97531 310.90751,505.09873 327.91832,517.87818 C 345.35237,532.39931 339.65072,539.19839 346.78708,548.61465 C 336.41961,550.96195 338.19144,529.64438 326.71171,529.88415 C 315.96221,532.2564 295.70424,524.3588 295.7873,509.57546 z "
         id="path4292" />
      <path
         style="fill:#ffffff;fill-rule:evenodd;stroke:#000000;stroke-width:1px;stroke-linecap:butt;stroke-linejoin:miter;stroke-opacity:1"
         d="M 296.32335,496.65924 C 306.59692,485.04836 338.0466,500.95433 337.00783,519.1112 C 329.53383,513.85345 326.84436,507.90358 316.9319,505.8971 C 313.18877,501.34428 309.35277,500.25405 296.32335,496.65924 z "
         id="path4294" />
      <path
         style="fill:#ffffff;fill-rule:evenodd;stroke:#000000;stroke-width:1px;stroke-linecap:butt;stroke-linejoin:miter;stroke-opacity:1"
         d="M 406.8234,517.31999 C 413.43563,514.37451 416.99864,507.69254 427.47413,504.41328 C 434.7751,498.59202 438.5813,496.40038 451.85348,491.50657 C 437.06875,486.70656 406.24854,492.18085 406.8234,517.31999 z "
         id="path4302" />
      <path
         id="path4304"
         d="M 450.72471,507.14417 C 443.54619,506.54402 435.6045,502.66744 418.59369,515.44689 C 401.15964,529.96802 406.86129,536.7671 399.72493,546.18336 C 410.0924,550.98002 407.53147,527.21309 419.8003,527.45286 C 431.76308,531.98167 451.98772,520.26473 450.72471,507.14417 z "
         style="fill:#ffffff;fill-rule:evenodd;stroke:#000000;stroke-width:1px;stroke-linecap:butt;stroke-linejoin:miter;stroke-opacity:1" />
      <path
         style="fill:#ffffff;fill-rule:evenodd;stroke:#000000;stroke-width:1px;stroke-linecap:butt;stroke-linejoin:miter;stroke-opacity:1"
         d="M 342.08829,573.91765 C 347.50973,594.719 343.15874,616.02711 328.10838,631.66077 C 317.93634,645.01363 326.43946,662.00475 343.55644,656.3407 C 350.84343,651.98616 351.73262,640.8896 347.8112,637.4982 C 338.33024,633.38681 344.60931,659.29553 331.63748,648.18973 C 323.25832,630.9895 347.72369,627.77672 356.91682,634.08035 C 368.46545,642.41138 382.66272,641.66378 391.5627,634.08035 C 403.12061,625.98773 418.66676,634.73026 415.30605,649.35231 C 404.83769,658.51677 406.01889,639.61964 400.27785,646.16911 C 394.93689,649.05942 400.83434,658.71359 407.40382,657.48606 C 420.63525,659.9294 424.71496,644.81103 419.82505,634.23004 C 412.15803,623.4768 396.96719,607.00743 406.15043,576.33722 L 405.76387,576.46868 C 393.09866,580.0223 391.18277,604.01458 402.63365,623.1812 C 388.26674,622.74445 385.30476,634.8594 374.79043,633.20624 C 360.21521,635.07064 363.36085,622.35749 342.6779,624.62591 C 352.4904,605.45654 358.90949,582.25033 342.08829,573.91765 z "
         id="path4306" />
      <path
         style="fill:#ffffff;fill-rule:evenodd;stroke:#000000;stroke-width:1px;stroke-linecap:butt;stroke-linejoin:miter;stroke-opacity:1"
         d="M 348.45677,663.87405 C 357.08571,665.42046 363.128,668.70035 374.06807,667.66337 C 387.26187,668.73449 392.44843,665.5156 399.91385,664.00811 C 399.65136,679.23563 388.53589,676.34356 374.42347,676.1657 C 360.44199,677.18166 345.18101,675.46019 348.45677,663.87405 z "
         id="path4308" />
    </g>
    <path
       style="fill:#ffff00;fill-rule:evenodd;stroke:#000000;stroke-width:5.31496048;stroke-linecap:butt;stroke-linejoin:miter;stroke-miterlimit:4;stroke-dasharray:none;stroke-opacity:1"
       d="M 673.68248,164.1795 C 643.16239,207.50706 581.78928,241.01775 586.16896,295.44978 L 577.96457,532.00975 C 559.58526,680.35771 434.96966,719.43404 293.54564,741.22174 C 312.11931,743.72897 326.31642,739.63461 341.53343,748.85516 C 401.29322,736.72852 462.35479,719.15258 515.16086,680.42081 C 525.38312,674.16064 562.77376,688.01578 577.96457,664.64742 C 564.73507,670.97207 549.06485,664.42551 531.53743,666.618 C 551.15583,642.442 616.108,662.8966 624.45613,629.09505 C 599.84295,644.48637 571.22421,629.1096 550.6166,644.13644 C 573.44974,609.05152 631.45506,631.18036 650.4367,583.9709 C 627.73894,610.1175 597.4487,584.04741 565.65798,619.52326 C 582.74278,574.94647 661.04889,587.68413 668.21288,537.47934 C 628.56694,570.32081 607.24246,555.76022 579.33197,588.07309 C 598.34224,539.82532 672.05492,547.27934 676.41728,482.78339 C 640.11265,529.88073 606.14131,518.22532 587.53636,557.99032 C 593.13187,504.74702 668.43679,514.85289 675.04988,444.49623 C 647.70191,480.13274 609.67241,487.29254 593.00596,518.33576 C 602.13165,465.76959 672.98567,468.46038 673.68248,408.94386 C 648.87563,442.87839 614.81934,440.67652 594.37336,481.41599 C 610.64906,425.02427 674.58768,421.43457 674.38228,363.15211 C 647.94591,396.82956 620.17435,393.99128 595.74076,443.12883 C 598.92355,379.13365 671.64975,388.49756 676.41728,321.43035 C 650.4367,356.72505 615.22877,363.29995 598.47555,395.26988 C 614.01889,331.643 676.05296,340.77709 673.68248,274.93879 C 654.0382,316.09446 617.00857,312.52127 599.81074,361.02049 C 610.56493,275.90305 677.70607,303.86675 675.04988,221.61025 C 639.08759,281.09941 623.71208,261.28464 601.21035,315.96076 C 614.16405,239.13748 684.0561,238.86627 673.68248,164.1795 z "
       id="path5305" />
    <path
       id="path4334"
       d="M 74.638889,164.1795 C 105.15898,207.50706 166.53209,241.01775 162.15241,295.44978 L 170.3568,532.00975 C 188.7361,680.35771 313.3517,719.43404 454.77572,741.22174 C 436.20205,743.72897 422.00494,739.63461 406.78793,748.85516 C 347.02814,736.72852 285.96657,719.15258 233.1605,680.42081 C 222.93824,674.16064 185.5476,688.01578 170.3568,664.64742 C 183.58629,670.97207 199.25651,664.42551 216.78393,666.618 C 197.16553,642.442 132.21337,662.8966 123.86524,629.09505 C 148.47842,644.48637 177.09716,629.1096 197.70476,644.13644 C 174.87163,609.05152 116.86631,631.18036 97.884669,583.9709 C 120.58243,610.1175 150.87267,584.04741 182.66338,619.52326 C 165.57859,574.94647 87.272479,587.68413 80.108489,537.47934 C 119.75443,570.32081 141.07891,555.76022 168.9894,588.07309 C 149.97913,539.82532 76.266449,547.27934 71.904089,482.78339 C 108.20872,529.88073 142.18006,518.22532 160.78501,557.99032 C 155.1895,504.74702 79.884579,514.85289 73.271489,444.49623 C 100.61946,480.13274 138.64896,487.29254 155.31541,518.33576 C 146.18972,465.76959 75.335699,468.46038 74.638889,408.94386 C 99.445739,442.87839 133.50203,440.67652 153.94801,481.41599 C 137.67231,425.02427 73.733689,421.43457 73.939089,363.15211 C 100.37546,396.82956 128.14702,393.99128 152.58061,443.12883 C 149.39782,379.13365 76.671619,388.49756 71.904089,321.43035 C 97.884669,356.72505 133.0926,363.29995 149.84582,395.26988 C 134.30248,331.643 72.268409,340.77709 74.638889,274.93879 C 94.283169,316.09446 131.3128,312.52127 148.51063,361.02049 C 137.75644,275.90305 70.615299,303.86675 73.271489,221.61025 C 109.23378,281.09941 124.60929,261.28464 147.11102,315.96076 C 134.15732,239.13748 64.265269,238.86627 74.638889,164.1795 z "
       style="fill:#ffff00;fill-rule:evenodd;stroke:#000000;stroke-width:5.31496048;stroke-linecap:butt;stroke-linejoin:miter;stroke-miterlimit:4;stroke-dasharray:none;stroke-opacity:1" />
  </g>
</svg>