<!-- Created with Inkscape (http://www.inkscape.org/) -->
<svg role="img" viewBox="-24.60 -24.55 806.34 927.50"
   xmlns="http://www.w3.org/2000/svg"
   id="svg1384"
   version="1.0"><title>Herb Kamiensk</title>
  <metadata
     id="metadata1389">
    <rdf:RDF>
      <cc:Work
         rdf:about="">
        <dc:format>image/svg+xml</dc:format>
        <dc:type
           rdf:resource="http://purl.org/dc/dcmitype/StillImage" />
      </cc:Work>
    </rdf:RDF>
  </metadata>
  <defs
     id="defs1387" />
  <sodipodi:namedview
     borderopacity="1.0"
     bordercolor="#666666"
     pagecolor="#ffffff"
     id="base"
     showgrid="true"
     gridspacingx="4px"
     gridspacingy="4px"
     gridtolerance="3.4px"
     showguides="true">
    <sodipodi:guide
       orientation="horizontal"
       position="342"
       id="guide11896" />
  </sodipodi:namedview>
  <g
     id="g11874"
     transform="matrix(-0.995237,0,0,0.995237,579.9218,-5.90383)">
    <g
       transform="translate(3.732978e-5,0)"
       id="g11870">
      <path
         style="fill:#ffffff;fill-opacity:1;fill-rule:evenodd;stroke:#014488;stroke-width:5.0239296;stroke-linecap:butt;stroke-linejoin:miter;stroke-miterlimit:4;stroke-dasharray:none;stroke-opacity:1"
         d="M 414.73113,15.78125 C 414.73113,15.78125 468.20772,84.475118 511.20011,94.71875 C 553.59414,104.81987 576.26538,133.74853 572.60636,156.09375 C 567.4496,187.58553 525.36345,202.3937 504.73134,167.90625 C 495.58887,152.62456 474.66863,154.65625 474.66863,154.65625 C 471.797,190.37587 492.5271,233.32397 560.91886,255.5 C 565.88554,257.98334 580.06342,337.34607 576.98136,413.40625 C 573.00938,511.42839 548.51653,601.17852 506.45009,662.59375 C 444.25815,753.39111 355.54516,807.75586 315.3249,828.5625 C 272.4056,850.7655 200.2314,878.6875 200.2314,878.6875 C 200.2314,878.6875 132.2494,850.7518 89.356097,828.5625 C 49.135797,807.75586 -39.608403,753.39111 -101.79993,662.59375 C -143.8663,601.17852 -168.3592,511.42839 -172.3311,413.40625 C -175.4132,337.34607 -161.2041,257.98334 -156.2374,255.5 C -87.846103,233.32397 -67.116003,190.37587 -69.987603,154.65625 C -69.987703,154.65625 -90.907903,152.62456 -100.04993,167.90625 C -120.682,202.3937 -162.7994,187.58553 -167.9561,156.09375 C -171.6151,133.74853 -148.9439,104.81987 -106.5499,94.71875 C -63.558003,84.475118 -10.050103,15.78125 -10.050103,15.78125 L 90.793597,56.6875 C 144.7165,78.569167 200.4823,77.2299 201.3564,77.3125 C 201.5653,77.331964 201.8506,77.321588 202.1064,77.34375 C 202.1747,77.349666 202.2245,77.362853 202.2939,77.375 C 202.3118,77.372999 202.339,77.378037 202.3564,77.375 C 202.4258,77.362853 202.5068,77.349666 202.5751,77.34375 C 202.8309,77.321588 203.0849,77.331964 203.2939,77.3125 C 204.1679,77.2299 259.9337,78.569167 313.8561,56.6875 L 414.73113,15.78125 z "
         id="path1481" />
      <path
         style="fill:#014488;fill-opacity:1;fill-rule:evenodd;stroke:none;stroke-width:3.0999999;stroke-linecap:butt;stroke-linejoin:miter;stroke-miterlimit:4;stroke-dasharray:none;stroke-opacity:1"
         d="M 393.77857,57.73439 L 459.77857,99.73439 C 415.74126,211.61526 510.38671,256.53577 536.77866,272.73439 C 547.09894,357.91377 546.45431,438.21986 532.77866,512.73439 C 502.5864,627.52056 460.13905,659.58432 419.77857,705.73439 C 276.37393,823.38166 213.27835,833.44496 205.77866,835.89066 L 198.87241,835.89066 C 191.37272,833.44496 128.27714,823.38166 -15.127673,705.73439 C -55.488173,659.58432 -97.935473,627.52056 -128.12758,512.73439 C -141.80328,438.21986 -142.44788,357.91377 -132.12758,272.73439 C -105.73568,256.53577 -11.090373,211.61526 -55.127673,99.73439 L 10.872327,57.73439 C 62.707537,85.41849 145.54209,99.70654 202.34116,102.67189 C 259.14008,99.70588 341.94507,85.41757 393.77857,57.73439 z "
         id="path10140" />
    </g>
    <g
       transform="translate(0.642537,0)"
       id="g11866">
      <path
         id="path7485"
         d="M 511.15541,96.254348 C 511.6352,96.298547 487.28048,119.49276 482.51125,128.39 C 481.00915,131.19224 483.37468,126.24387 489.93565,128.49324 C 499.43039,131.74842 512.44244,140.02644 509.01124,142.39 C 502.79714,151.68956 506.92204,164.60335 508.51124,173.89 C 501.68098,164.71258 486.97559,151.34813 473.51125,155.89 C 475.34794,142.22846 476.06908,139.38194 480.89195,131.12791"
         style="fill:#fffcfc;fill-opacity:1;fill-rule:evenodd;stroke:#004389;stroke-width:5.0239296;stroke-linecap:butt;stroke-linejoin:miter;stroke-miterlimit:4;stroke-dasharray:none;stroke-opacity:1" />
      <path
         style="fill:#fffcfc;fill-opacity:1;fill-rule:evenodd;stroke:#004389;stroke-width:5.0239296;stroke-linecap:butt;stroke-linejoin:miter;stroke-miterlimit:4;stroke-dasharray:none;stroke-opacity:1"
         d="M -107.78937,96.254349 C -108.26916,96.298548 -83.91444,119.49276 -79.14521,128.39 C -77.64311,131.19224 -80.00864,126.24387 -86.56961,128.49324 C -96.06435,131.74842 -109.0764,140.02644 -105.6452,142.39 C -99.43111,151.68956 -103.556,164.60335 -105.1452,173.89 C -98.31495,164.71258 -83.60955,151.34813 -70.14521,155.89 C -71.9819,142.22846 -72.70304,139.38194 -77.52591,131.12791"
         id="path11864" />
    </g>
  </g>
  <g
     id="g11882"
     transform="matrix(0.995237,0,0,0.995237,177.7613,31.91518)">
    <g
       transform="translate(-7.13174,-43)"
       id="g4845">
      <path
         id="path6608"
         d="M 324.26502,186.95376 L 359.06864,205.80572 L 344.56713,233.35859 L 412.72423,271.06251 L 422.87529,256.561 L 448.978,272.51266 L 418.52483,329.06855 L 369.2197,300.06553 L 377.92061,282.66372 L 350.36774,266.71206 L 338.76653,284.11387 L 325.71517,276.86312 L 312.66381,302.96584 L 322.81487,313.11689 L 314.11396,331.96886 L 343.11698,347.92052 L 353.26804,330.5187 L 402.57317,356.62142 L 369.2197,414.62746 L 341.66683,397.22565 L 347.46743,384.17429 L 279.31034,345.02021 L 156.0475,561.09271 C 156.0475,561.09271 165.83602,573.8193 161.84811,581.39483 C 155.86019,589.47036 140.09584,581.39483 140.09584,581.39483 L 134.29524,591.54588 C 199.40899,650.49098 182.88988,687.21654 172.48944,700.17712 C 156.9219,719.57671 99.234574,720.018 52.437229,691.75586 C 20.074852,672.1515 -23.676653,630.35961 -2.7275428,591.76267 C 12.972262,562.83713 42.542692,562.95872 105.29222,578.49453 L 112.54297,566.89332 C 112.54297,566.89332 97.342069,555.25435 104.24237,546.5912 C 108.48612,541.26329 124.14418,542.24075 124.14418,542.24075 L 324.26502,186.95376 z "
         style="fill:#ffdf00;fill-opacity:1;fill-rule:evenodd;stroke:none;stroke-width:3;stroke-linecap:butt;stroke-linejoin:miter;stroke-miterlimit:4;stroke-dasharray:none;stroke-opacity:1" />
      <path
         id="path6610"
         d="M 106.58543,577.58007 C 135.58845,593.53174 134.674,592.61729 134.674,592.61729"
         style="fill:none;fill-opacity:0.75;fill-rule:evenodd;stroke:#000000;stroke-width:1.00478506px;stroke-linecap:butt;stroke-linejoin:miter;stroke-opacity:1" />
      <path
         id="path6612"
         d="M 123.38666,541.87615 C 152.38968,560.72811 157.0475,561.14256 157.0475,561.14256"
         style="fill:none;fill-opacity:0.75;fill-rule:evenodd;stroke:#000000;stroke-width:1.00478506px;stroke-linecap:butt;stroke-linejoin:miter;stroke-opacity:1" />
      <path
         id="path6614"
         d="M 111.54297,566.44317 C 142.59584,583.29513 139.42474,583.05176 139.42474,583.05176"
         style="fill:none;fill-opacity:0.75;fill-rule:evenodd;stroke:#000000;stroke-width:1.00478506px;stroke-linecap:butt;stroke-linejoin:miter;stroke-opacity:1" />
      <path
         id="path6616"
         d="M 25.14951,604.89266 C 32.244289,590.49582 54.48721,578.86966 105.92937,604.29296 C 147.10277,624.64132 160.50459,661.10692 146.62001,681.54387 C 133.77117,700.45629 85.780716,686.93537 64.14665,673.46421 C 25.584014,649.45192 17.347514,620.7246 25.14951,604.89266 z "
         style="fill:#004389;fill-opacity:0.99500002;fill-rule:evenodd;stroke:none;stroke-width:2.9000001;stroke-linecap:butt;stroke-linejoin:miter;stroke-miterlimit:4;stroke-dasharray:none;stroke-opacity:1" />
    </g>
    <g
       transform="matrix(-1,0,0,1,410.6511,-43)"
       id="g4852">
      <path
         style="fill:#ffdf00;fill-opacity:1;fill-rule:evenodd;stroke:none;stroke-width:3;stroke-linecap:butt;stroke-linejoin:miter;stroke-miterlimit:4;stroke-dasharray:none;stroke-opacity:1"
         d="M 324.26502,186.95376 L 359.06864,205.80572 L 344.56713,233.35859 L 412.72423,271.06251 L 422.87529,256.561 L 448.978,272.51266 L 418.52483,329.06855 L 369.2197,300.06553 L 377.92061,282.66372 L 350.36774,266.71206 L 338.76653,284.11387 L 325.71517,276.86312 L 312.66381,302.96584 L 322.81487,313.11689 L 314.11396,331.96886 L 343.11698,347.92052 L 353.26804,330.5187 L 402.57317,356.62142 L 369.2197,414.62746 L 341.66683,397.22565 L 347.46743,384.17429 L 279.31034,345.02021 L 156.0475,561.09271 C 156.0475,561.09271 165.83602,573.8193 161.84811,581.39483 C 155.86019,589.47036 140.09584,581.39483 140.09584,581.39483 L 134.29524,591.54588 C 199.40899,650.49098 182.88988,687.21654 172.48944,700.17712 C 156.9219,719.57671 99.234574,720.018 52.437229,691.75586 C 20.074852,672.1515 -23.676653,630.35961 -2.7275428,591.76267 C 12.972262,562.83713 42.542692,562.95872 105.29222,578.49453 L 112.54297,566.89332 C 112.54297,566.89332 97.342069,555.25435 104.24237,546.5912 C 108.48612,541.26329 124.14418,542.24075 124.14418,542.24075 L 324.26502,186.95376 z "
         id="path4854" />
      <path
         style="fill:none;fill-opacity:0.75;fill-rule:evenodd;stroke:#000000;stroke-width:1.00478506px;stroke-linecap:butt;stroke-linejoin:miter;stroke-opacity:1"
         d="M 106.58543,577.58007 C 135.58845,593.53174 134.674,592.61729 134.674,592.61729"
         id="path4856" />
      <path
         style="fill:none;fill-opacity:0.75;fill-rule:evenodd;stroke:#000000;stroke-width:1.00478506px;stroke-linecap:butt;stroke-linejoin:miter;stroke-opacity:1"
         d="M 123.38666,541.87615 C 152.38968,560.72811 157.0475,561.14256 157.0475,561.14256"
         id="path4858" />
      <path
         style="fill:none;fill-opacity:0.75;fill-rule:evenodd;stroke:#000000;stroke-width:1.00478506px;stroke-linecap:butt;stroke-linejoin:miter;stroke-opacity:1"
         d="M 111.54297,566.44317 C 142.59584,583.29513 139.42474,583.05176 139.42474,583.05176"
         id="path4860" />
      <path
         style="fill:#004389;fill-opacity:0.99500002;fill-rule:evenodd;stroke:none;stroke-width:2.9000001;stroke-linecap:butt;stroke-linejoin:miter;stroke-miterlimit:4;stroke-dasharray:none;stroke-opacity:1"
         d="M 25.14951,604.89266 C 32.244289,590.49582 54.48721,578.86966 105.92937,604.29296 C 147.10277,624.64132 160.50459,661.10692 146.62001,681.54387 C 133.77117,700.45629 85.780716,686.93537 64.14665,673.46421 C 25.584014,649.45192 17.347514,620.7246 25.14951,604.89266 z "
         id="path4862" />
    </g>
  </g>
</svg>