<!-- Creator: CorelDRAW -->
<svg
   xmlns="http://www.w3.org/2000/svg"
   style="shape-rendering:geometricPrecision; text-rendering:geometricPrecision; image-rendering:optimizeQuality; fill-rule:evenodd; clip-rule:evenodd"
   viewBox="0 0 210 297"
   id="svg2"
   version="1.0"><title>Herb Głuszyca</title><metadata
   id="metadata66"><rdf:RDF><cc:Work
       rdf:about=""><dc:format>image/svg+xml</dc:format><dc:type
         rdf:resource="http://purl.org/dc/dcmitype/StillImage" /></cc:Work></rdf:RDF></metadata><sodipodi:namedview
   guidetolerance="10.0"
   gridtolerance="10.0"
   objecttolerance="10.0"
   borderopacity="1.0"
   bordercolor="#666666"
   pagecolor="#ffffff"
   id="base" />
 <defs
   id="defs4">
  <style
   type="text/css"
   id="style6">
   
    .str0 {stroke:black;stroke-width:0.1763}
    .str1 {stroke:black;stroke-width:0.1764}
    .fil3 {fill:none}
    .fil2 {fill:white}
    .fil0 {fill:#007CC3}
    .fil1 {fill:#DA251D}
    .fil4 {fill:#FFF500}
   
  </style>
 </defs>
 <g
   id="Warstwa_x0020_1"
   transform="matrix(14.192294,0,0,14.192294,-1031.3678,-311.63582)">
  <metadata
   id="CorelCorpID_0Corel-Layer" />
  <path
   class="fil0 str0"
   d="M 71.261,22.0463 L 88.8777,22.0463 L 88.8777,33.9077 C 88.8777,38.7966 84.9277,42.7968 80.0693,42.7968 C 75.2247,42.7968 71.261,38.7966 71.261,33.9077 L 71.261,22.0463 z "
   id="path10"
   style="fill:#007cc3;stroke:#000000;stroke-width:0.1763" />
  <polygon
   class="fil1 str1"
   points="71.261,22.0463 88.8777,22.0463 88.8777,27.9771 71.261,27.9771 71.261,22.0463 "
   id="polygon12"
   style="fill:#da251d;stroke:#000000;stroke-width:0.17640001" />
  <g
   id="_78357368">
   <g
   id="g15">
    <polygon
   id="_78974344"
   class="fil2 str0"
   points="79.7729,22.8936 80.2271,22.8936 80.2271,27.4771 79.7729,27.4771 79.7729,22.8936 "
   style="fill:#ffffff;stroke:#000000;stroke-width:0.1763" />
    <polygon
   id="_78974416"
   class="fil2 str0"
   points="78.8508,23.0881 81.0804,23.0881 81.8374,27.241 78.1626,27.241 78.8508,23.0881 "
   style="fill:#ffffff;stroke:#000000;stroke-width:0.1763" />
    <line
   id="_78974488"
   class="fil3 str0"
   x1="78.162598"
   y1="27.240999"
   x2="81.713501"
   y2="26.5464"
   style="fill:none;stroke:#000000;stroke-width:0.1763" />
    <line
   id="_78974560"
   class="fil3 str0"
   x1="78.217697"
   y1="26.9214"
   x2="81.658401"
   y2="26.2409"
   style="fill:none;stroke:#000000;stroke-width:0.1763" />
    <line
   id="_78974632"
   class="fil3 str0"
   x1="78.272697"
   y1="26.601999"
   x2="81.5896"
   y2="25.921499"
   style="fill:none;stroke:#000000;stroke-width:0.1763" />
    <line
   id="_78974704"
   class="fil3 str0"
   x1="78.327797"
   y1="26.2687"
   x2="81.534599"
   y2="25.615801"
   style="fill:none;stroke:#000000;stroke-width:0.1763" />
    <line
   id="_78974776"
   class="fil3 str0"
   x1="78.369102"
   y1="25.949301"
   x2="81.4795"
   y2="25.3519"
   style="fill:none;stroke:#000000;stroke-width:0.1763" />
    <line
   id="_78974848"
   class="fil3 str0"
   x1="78.437897"
   y1="25.615801"
   x2="81.4245"
   y2="25.0326"
   style="fill:none;stroke:#000000;stroke-width:0.1763" />
    <line
   id="_78974920"
   class="fil3 str0"
   x1="78.492996"
   y1="25.310301"
   x2="81.3694"
   y2="24.7409"
   style="fill:none;stroke:#000000;stroke-width:0.1763" />
    <line
   id="_78974992"
   class="fil3 str0"
   x1="78.534203"
   y1="24.9909"
   x2="81.3144"
   y2="24.4352"
   style="fill:none;stroke:#000000;stroke-width:0.1763" />
    <line
   id="_78975064"
   class="fil3 str0"
   x1="78.589302"
   y1="24.6437"
   x2="81.2593"
   y2="24.1297"
   style="fill:none;stroke:#000000;stroke-width:0.1763" />
    <line
   id="_78975136"
   class="fil3 str0"
   x1="78.644302"
   y1="24.337999"
   x2="81.2043"
   y2="23.8381"
   style="fill:none;stroke:#000000;stroke-width:0.1763" />
    <line
   id="_78975208"
   class="fil3 str0"
   x1="78.713203"
   y1="24.0186"
   x2="81.1492"
   y2="23.5326"
   style="fill:none;stroke:#000000;stroke-width:0.1763" />
    <line
   id="_78975280"
   class="fil3 str0"
   x1="78.7407"
   y1="23.6852"
   x2="81.080399"
   y2="23.2269"
   style="fill:none;stroke:#000000;stroke-width:0.1763" />
   </g>
   <g
   id="g31">
    <polygon
   id="_78343904"
   class="fil2 str0"
   points="74.6329,22.8936 75.0871,22.8936 75.0871,27.4771 74.6329,27.4771 74.6329,22.8936 "
   style="fill:#ffffff;stroke:#000000;stroke-width:0.1763" />
    <polygon
   id="_78343976"
   class="fil2 str0"
   points="73.7108,23.0881 75.9404,23.0881 76.6974,27.241 73.0226,27.241 73.7108,23.0881 "
   style="fill:#ffffff;stroke:#000000;stroke-width:0.1763" />
    <line
   id="_78344048"
   class="fil3 str0"
   x1="73.022598"
   y1="27.240999"
   x2="76.573502"
   y2="26.5464"
   style="fill:none;stroke:#000000;stroke-width:0.1763" />
    <line
   id="_78344120"
   class="fil3 str0"
   x1="73.077698"
   y1="26.9214"
   x2="76.518402"
   y2="26.2409"
   style="fill:none;stroke:#000000;stroke-width:0.1763" />
    <line
   id="_78344264"
   class="fil3 str0"
   x1="73.132698"
   y1="26.601999"
   x2="76.4496"
   y2="25.921499"
   style="fill:none;stroke:#000000;stroke-width:0.1763" />
    <line
   id="_78344336"
   class="fil3 str0"
   x1="73.187798"
   y1="26.2687"
   x2="76.3946"
   y2="25.615801"
   style="fill:none;stroke:#000000;stroke-width:0.1763" />
    <line
   id="_78344408"
   class="fil3 str0"
   x1="73.229103"
   y1="25.949301"
   x2="76.3395"
   y2="25.3519"
   style="fill:none;stroke:#000000;stroke-width:0.1763" />
    <line
   id="_78344480"
   class="fil3 str0"
   x1="73.297897"
   y1="25.615801"
   x2="76.2845"
   y2="25.0326"
   style="fill:none;stroke:#000000;stroke-width:0.1763" />
    <line
   id="_78344552"
   class="fil3 str0"
   x1="73.352997"
   y1="25.310301"
   x2="76.229401"
   y2="24.7409"
   style="fill:none;stroke:#000000;stroke-width:0.1763" />
    <line
   id="_78343040"
   class="fil3 str0"
   x1="73.394203"
   y1="24.9909"
   x2="76.1744"
   y2="24.4352"
   style="fill:none;stroke:#000000;stroke-width:0.1763" />
    <line
   id="_77890800"
   class="fil3 str0"
   x1="73.449303"
   y1="24.6437"
   x2="76.119301"
   y2="24.1297"
   style="fill:none;stroke:#000000;stroke-width:0.1763" />
    <line
   id="_78804304"
   class="fil3 str0"
   x1="73.504303"
   y1="24.337999"
   x2="76.064301"
   y2="23.8381"
   style="fill:none;stroke:#000000;stroke-width:0.1763" />
    <line
   id="_78804160"
   class="fil3 str0"
   x1="73.573196"
   y1="24.0186"
   x2="76.009201"
   y2="23.5326"
   style="fill:none;stroke:#000000;stroke-width:0.1763" />
    <line
   id="_78975568"
   class="fil3 str0"
   x1="73.6007"
   y1="23.6852"
   x2="75.940399"
   y2="23.2269"
   style="fill:none;stroke:#000000;stroke-width:0.1763" />
   </g>
   <g
   id="g47">
    <polygon
   id="_78357152"
   class="fil2 str0"
   points="84.9139,22.8936 85.3681,22.8936 85.3681,27.4771 84.9139,27.4771 84.9139,22.8936 "
   style="fill:#ffffff;stroke:#000000;stroke-width:0.1763" />
    <polygon
   id="_78357224"
   class="fil2 str0"
   points="83.9918,23.0881 86.2214,23.0881 86.9784,27.241 83.3036,27.241 83.9918,23.0881 "
   style="fill:#ffffff;stroke:#000000;stroke-width:0.1763" />
    <line
   id="_78357296"
   class="fil3 str0"
   x1="83.303596"
   y1="27.240999"
   x2="86.8545"
   y2="26.5464"
   style="fill:none;stroke:#000000;stroke-width:0.1763" />
    <line
   id="_78357440"
   class="fil3 str0"
   x1="83.358704"
   y1="26.9214"
   x2="86.7994"
   y2="26.2409"
   style="fill:none;stroke:#000000;stroke-width:0.1763" />
    <line
   id="_78357512"
   class="fil3 str0"
   x1="83.413696"
   y1="26.601999"
   x2="86.730598"
   y2="25.921499"
   style="fill:none;stroke:#000000;stroke-width:0.1763" />
    <line
   id="_78357584"
   class="fil3 str0"
   x1="83.468803"
   y1="26.2687"
   x2="86.675598"
   y2="25.615801"
   style="fill:none;stroke:#000000;stroke-width:0.1763" />
    <line
   id="_78357656"
   class="fil3 str0"
   x1="83.510101"
   y1="25.949301"
   x2="86.620499"
   y2="25.3519"
   style="fill:none;stroke:#000000;stroke-width:0.1763" />
    <line
   id="_78357728"
   class="fil3 str0"
   x1="83.578903"
   y1="25.615801"
   x2="86.565498"
   y2="25.0326"
   style="fill:none;stroke:#000000;stroke-width:0.1763" />
    <line
   id="_78357800"
   class="fil3 str0"
   x1="83.634003"
   y1="25.310301"
   x2="86.510399"
   y2="24.7409"
   style="fill:none;stroke:#000000;stroke-width:0.1763" />
    <line
   id="_78357872"
   class="fil3 str0"
   x1="83.675201"
   y1="24.9909"
   x2="86.455399"
   y2="24.4352"
   style="fill:none;stroke:#000000;stroke-width:0.1763" />
    <line
   id="_78357944"
   class="fil3 str0"
   x1="83.730301"
   y1="24.6437"
   x2="86.400299"
   y2="24.1297"
   style="fill:none;stroke:#000000;stroke-width:0.1763" />
    <line
   id="_78358016"
   class="fil3 str0"
   x1="83.785301"
   y1="24.337999"
   x2="86.345299"
   y2="23.8381"
   style="fill:none;stroke:#000000;stroke-width:0.1763" />
    <line
   id="_78358088"
   class="fil3 str0"
   x1="83.854202"
   y1="24.0186"
   x2="86.290199"
   y2="23.5326"
   style="fill:none;stroke:#000000;stroke-width:0.1763" />
    <line
   id="_78358160"
   class="fil3 str0"
   x1="83.881699"
   y1="23.6852"
   x2="86.221397"
   y2="23.2269"
   style="fill:none;stroke:#000000;stroke-width:0.1763" />
   </g>
  </g>
  <path
   class="fil4 str0"
   d="M 83.2279,30.4561 C 83.3211,30.3844 83.4091,30.2325 83.4911,29.9845 L 83.5154,29.9106 L 83.9475,29.9106 L 83.9475,33.3075 L 83.5154,33.3075 L 83.4911,33.2336 C 83.2075,32.375 82.7783,31.7419 82.2063,31.2991 C 81.6452,30.8676 81.021,30.6406 80.3446,30.6406 C 79.7056,30.6406 79.1675,30.8277 78.7491,31.1841 C 78.3261,31.5574 78.0206,32.0525 77.8466,32.7142 C 77.6567,33.385 77.5614,34.0703 77.5614,34.7827 C 77.5614,35.6345 77.6701,36.3731 77.8594,37.0148 C 78.0605,37.6505 78.379,38.113 78.8081,38.4016 C 79.2278,38.6928 79.7431,38.8413 80.3446,38.8413 C 80.5582,38.8413 80.7695,38.8147 80.9831,38.7742 C 81.1905,38.725 81.3849,38.6763 81.6,38.5969 L 81.6001,36.7966 C 81.6001,36.4421 81.5699,36.2374 81.5316,36.1697 C 81.4954,36.076 81.4228,35.9956 81.2842,35.9193 C 81.1523,35.8466 80.9784,35.8075 80.785,35.8075 L 80.444,35.8075 L 80.444,35.3552 L 84.9935,35.3552 L 84.9935,35.7988 L 84.8953,35.8071 C 84.5647,35.8349 84.3654,35.8747 84.2482,35.9339 C 84.1488,35.9896 84.0677,36.0822 84.0065,36.2304 C 83.9783,36.2873 83.9475,36.4733 83.9475,36.7966 L 83.9475,38.7407 C 83.3134,39.0371 82.7136,39.2343 82.086,39.361 C 81.4599,39.4874 80.806,39.5576 80.1381,39.5576 C 79.2909,39.5576 78.5597,39.4459 77.9909,39.2018 C 77.4169,38.9616 76.9117,38.6504 76.4757,38.2671 C 76.0388,37.8831 75.6997,37.4407 75.4461,36.9572 C 75.135,36.3294 74.98,35.6168 74.98,34.8521 C 74.98,33.4625 75.4596,32.2956 76.4158,31.3306 C 77.3873,30.3787 78.5991,29.9106 80.0556,29.9106 C 80.5173,29.9106 80.9242,29.9395 81.2881,30.01 C 81.4838,30.0523 81.7932,30.1512 82.2407,30.3206 C 82.6776,30.4912 82.9161,30.5634 82.9733,30.5634 C 83.0698,30.5634 83.1524,30.5324 83.2279,30.4561 L 83.2279,30.4561 z "
   id="path63"
   style="fill:#fff500;stroke:#000000;stroke-width:0.1763" />
 </g>
</svg>