<svg xmlns="http://www.w3.org/2000/svg"><title>Herb Nowy Staw</title><path d="M12.309 587.156V61.27H0V40.465h130.246V61.27h-12.168l-.07 61.125c.863-.286 1.726-.575 2.445-.864 33.336-12.238 66.742-21.023 102.527-25.343l.07-75.383h-12.238V0h130.75v20.805h-12.383l.071 75.168c31.965 3.886 61.918 11.375 90.933 22.246V61.27H408.09V40.465h130.246V61.27h-12.383v525.238c.574 63.719-44.567 98.855-108.574 109.222-70.774 12.598-119.52 28.727-148.247 48.094-27.933-19.222-83.085-37.511-156.453-55.078-57.308-13.101-100.292-39.383-100.366-101.59zm504.359-358.847c-33.981-9.504-68.688-18.141-110.446-23.828-42.476-5.829-86.254-9.36-130.964-9.575-46.797-.359-93.168 3.024-138.024 9.36-41.973 5.902-75.093 13.605-114.62 23.902l494.061.141" style="stroke:none;fill-rule:evenodd;fill:#222"/><path d="M521.707 232.199V585.5c.215 63.141-42.047 94.965-105.262 105.621-70.344 12.527-118.727 28.512-147.309 47.805-27.718-19.223-82.367-36.934-155.3-54.43-56.52-13.82-97.055-37.008-97.414-98.277V232.195h505.293zM284.828 469.871c-11.52 4.82-15.84 10.582-17.567 16.848-2.66 9.429 3.239 19.941 11.231 27.429 5.758 5.399 12.887 9.504 18.07 10.872 24.696 2.086 36.215-6.118 47.66-18.286 11.95-12.597 24.047-28.941 51.981-42.336 3.887-1.941 10.008-4.46 14.613-6.191-5.039-.644-9.574-1.582-13.75-2.445-41.687-8.856-42.695-33.91-65.301-38.016-32.039-2.734-53.133 17.207-44.277 49.391l-20.445 2.519c-4.821.215-6.621.071-6.766-1.293-.359-20.015-.789-40.031-1.223-60.047-.504-4.46-1.078-7.988 2.446-11.085 4.535 3.023 9.718 4.175 15.047 3.812 22.246-1.293 47.3-29.375 39.168-61.269-5.758-24.047-27.141-39.887-42.622-56.735-8.636-9.43-15.55-21.094-16.414-33.117-1.582 12.887-7.414 24.91-14.828 33.84-7.414 8.926-16.703 16.484-25.847 24.191-22.391 25.055-28.872 49.317-25.414 67.535 5.253 28.008 33.191 42.262 57.742 22.032 1.941.789 2.66 1.726 2.3 5.398.286 20.086.575 40.102.864 60.191-.215 3.383.504 7.125-2.735 7.2-5.613.07-10.007.14-15.695.215 6.336-5.829 9.215-11.95 10.008-17.711 1.797-12.239-6.766-23.399-18.789-28.293-3.742-1.512-8.492-2.59-12.742-2.661-27.36 1.079-43.125 15.911-59.254 27.215-11.375 7.918-22.965 14.039-40.68 13.68 6.336.644 14.324 1.652 18.504 3.238 10.512 3.887 13.102 10.582 16.055 19.871 3.742 12.094 4.605 27 21.238 39.672 8.566 7.774 23.758 9.071 37.871 5.039 15.477-4.316 29.59-14.972 32.828-29.804 1.727-8.133.36-17.422-6.191-27.864 6.621.071 11.879.141 18.504.215l-.36 79.918-.718 126.43c2.445 10.223-4.102 13.246-1.942 19.582 9.141 1.222 15.336 9.359 19.727 19.293 4.246-24.696-3.528-24.336-3.672-34.848-.789-42.91-1.582-85.68-2.301-128.519l-.863-78.621c-.504-3.239.215-4.176 2.804-3.528 7.848-.574 13.895-2.156 21.743-2.949" style="stroke:none;fill-rule:evenodd;fill:#fffdfd"/><path d="m256.172 381.668 26.351-1.797c2.949-.14 2.805-2.23.359-2.086l-26.855 1.727.07-1.582 31.317-27.36c1.797-1.726.574-3.453-.789-2.015l-30.453 26.492V362.52l25.054-23.254c2.446-2.231-.14-3.168-.933-2.375l-24.118 22.246-.07-13.246 25.414-22.461c1.653-1.438.215-3.239-.574-2.59l-24.98 21.598-.071-40.965c.071-1.367-2.015-1.149-2.015.07l.214 40.391-19.582-25.629c-1.293-1.223-2.3.644-1.007 2.156l20.589 26.422v14.039l-23.613-30.309c-.719-1.007-1.941.864-.719 2.375l24.336 31.246v13.247l-41.039-17.567c-1.797-.504-2.519 1.652-.359 2.52l41.324 17.492.07 1.871-37.078.719c-2.519-.071-3.168 2.23-.789 2.23l37.871-.933-.07 6.695c-21.383 24.336-46.293 18.789-57.023-1.008-9.575-17.711-7.344-46.512 20.23-77.758 17.711-15.047 35.492-28.871 39.383-51.621 4.461 29.735 48.023 45.43 56.66 81.934 4.535 20.156-2.59 37.367-14.109 47.949-13.317 12.309-31.895 15.477-42.981.574v-6.91zm-3.383 169.488.07-79.773c.863-2.52 1.008-5.469 1.223-8.856-.285-19.726-.574-39.382-.789-59.183 0-4.82-1.078-6.91-3.024-7.485 2.66-2.589 1.942-2.23 4.606-4.82 2.015 2.52 2.23 2.949 4.679 4.606-3.597 2.734-2.949 6.046-2.879 12.742.36 19.726.864 39.308 1.223 59.039.07 1.367.36 3.598 2.231 3.383-1.797.504-2.375 1.726-2.301 4.101l.719 77.903c.718 42.191 1.007 83.66 1.726 125.925-.285 19.727 5.973 11.52 5.399 30.742-4.247-8.855-7.704-10.796-15.696-13.031-.359-4.965 2.52-3.742 2.949-12.812.141-3.094-.718-3.239-.503-8.278l.359-124.199zm63.504-84.093 25.054 23.183c2.086 2.016 3.598 0 2.301-1.008l-24.117-22.461 13.461-1.222 22.68 22.176 1.652 1.582c-19.078 19.367-26.422 36.285-60.117 33.476-10.797-2.734-28.008-16.848-28.008-31.246 0-8.062 4.68-16.055 20.445-21.957-.07-.07 1.367-.141 1.653-.504 17.421-1.437 11.949-.934 24.98-2.016zm42.765 20.734-23.039-22.461 40.965-3.453c1.367-.07 1.078-2.086-.215-2.016l-40.031 3.309 22.461-20.156c1.367-1.653-.43-2.735-2.016-1.008l-24.047 21.453-13.316 1.078 28.148-25.773c.934-.789-1.222-1.942-2.589-.575l-29.231 26.711c-7.414.575-14.324 1.149-25.848 2.086-5.398-16.988-1.367-30.023 8.133-38.23 7.629-6.621 18.645-10.223 32.399-9.071 14.828 2.735 18.789 12.813 31.75 23.11 8.062 6.336 20.015 13.176 40.246 16.344-9.645 3.671-17.207 7.847-23.543 12.023-8.207 5.324-14.399 10.871-20.231 16.629zm-134.277-17.711-25.27-32.543c-1.078-1.437-2.804-.43-2.015.574l24.191 31.821-12.308-.79-21.383-26.062c-1.438-1.871-3.453-.359-2.66.504l20.804 25.558-13.605-.863-20.375-26.062c-1.293-1.727-3.094-.285-2.445.504l19.652 25.558-40.75-2.23c-1.652-.141-1.942 1.871-.141 2.086l39.957 2.156-26.277 17.781c-1.512 1.078.141 2.52 2.23 1.293l27.286-18.789 13.75.504-31.032 21.527c-1.511 1.008-.718 3.024 1.942 1.293l32.543-22.461 13.535.719-19.871 39.813c-.719 1.511 1.008 2.804 2.156.644l20.086-40.176 3.887-.14c10.367 15.98 9.718 28.726 2.375 38.734-13.606 18.789-47.879 25.485-62.422 12.453-18-13.965-17.133-33.621-22.461-45.504-3.168-6.91-7.199-12.453-17.278-15.117 9.141-2.301 16.485-5.973 22.965-10.078 18.43-11.66 30.168-27 59.543-28.367 11.805.359 22.461 6.695 27.215 15.695 4.535 8.637 3.672 19.797-8.566 30.168l-5.254-.215" style="stroke:none;fill-rule:evenodd;fill:#3ba66d"/><path d="M329.035 18.5h10.148V2.375h-10.148zm-2.16 77.473V94.32h-11.52v.504c3.887.36 7.703.719 11.52 1.149m-13.68-1.657h-3.453c1.148.071 2.301.215 3.453.286zm-67.969 0h-5.758v.504c1.872-.214 3.813-.359 5.758-.504m-7.988 0h-11.52v1.872c3.813-.43 7.704-.864 11.52-1.223zM213.332 18.5h10.148V2.375h-10.148zm12.383 73.656h30.382V75.887h-30.382zm0-18.429h11.3v-16.2h-11.3zm0-18.36h30.382V39.098h-30.382zm0-18.504h11.3V20.738h-11.3zm101.16-16.129H315.14v16.125h11.735zm0 18.36h-30.743v16.269h30.743zm0 18.433H315.14v16.2h11.735zm0 18.36h-30.743v16.269h30.743zm-68.543 16.269h35.636V75.887h-35.636zm68.543-89.781h-29.016V18.5h29.016zm-87.621 71.352h35.711v-16.2h-35.711zm37.941 0h35.711v-16.2h-35.711zm-18.863-18.36h35.636V39.098h-35.636zm-19.078-18.504h35.711V20.738h-35.711zm37.941 0h35.711V20.738h-35.711zM256.82 18.5h38.879V2.375H256.82zm-31.105 0h28.941V2.375h-28.941zm196.707 100.371v-2.519h30.742v15.621c-9.934-4.75-20.156-9.141-30.742-13.102m36.503 15.91h13.247v6.981c-4.391-2.375-8.782-4.75-13.247-6.981m15.407 8.207v-8.207h35.781v16.125h-22.391c-4.39-2.734-8.855-5.324-13.39-7.918m18.937 11.379v-1.293h30.453v16.344h-8.636c-7.125-5.254-14.399-10.223-21.813-15.047zm24.696 17.207h5.757v4.461c-1.941-1.511-3.812-2.949-5.757-4.461m5.757-20.664h-11.375v-16.125h11.375zm0-18.289h-30.453v-16.269h30.453zm-11.375-71.422h11.375v16.125h-11.375zm-19.078 18.36h30.453v16.269h-30.453zm19.078 18.429h11.375v16.2h-11.375zm-89.925 0h11.734v16.2h-11.734zm30.742-2.16h-30.742V79.559h30.742zm-19.008-18.504h-11.734V61.199h11.734zm56.879 55.297h-35.637v-16.269h35.637zm19.082-18.43h-35.781V97.992h35.781zm-37.945 0H436.39V97.992h35.782zm18.863-18.363h-35.637V79.559h35.637zm-80.856-52.992h10.079v16.125h-10.079zm125.856 16.129h-10.149V42.84h10.149zm-25.918 18.359h-35.781V61.199h35.781zm-37.945 0H436.39V61.199h35.782zm51.55-18.359h-28.941V42.84h28.941zm-31.175 0h-38.95V42.84h38.95zm-41.11 0h-29.015V42.84h29.015zm-335.594 64.008v-6.621H85.031v16.269h7.125c7.848-3.453 15.766-6.695 23.687-9.644zm-28.51 11.808h-21.24v10.512c7.055-3.742 14.11-7.269 21.24-10.512m-23.4 11.664v-11.66H28.079v16.125h27.863c1.653-.933 3.239-1.871 4.895-2.734 1.008-.574 2.016-1.149 3.094-1.727zM52.27 153.07l-5.11 3.094v-3.094zm-7.274 4.465v-4.461H14.543v16.344h12.309c6.046-4.031 12.093-8.062 18.14-11.879zm-21.383 14.039h-9.07v6.117c3.023-2.015 6.047-4.031 9.07-6.117M14.54 150.91h11.375v-16.125H14.54zm0-18.289h30.453v-16.269H14.54zm11.379-71.422H14.543v16.125h11.375zm19.078 18.36H14.543v16.269h30.453zM25.918 97.988H14.543v16.2h11.375zm89.925 0h-11.804v16.2h11.804zm-30.816-2.16h30.813V79.559H85.027zm19.008-18.504h11.805V61.199h-11.805zm-56.879 55.297h35.711v-16.269h-35.71zm-19.078-18.43h35.856V97.992H28.078zm38.016 0h35.781V97.992H66.094zM47.156 95.828h35.711V79.559h-35.71zm80.93-52.992h-10.078v16.125h10.078zM2.226 58.965h10.149V42.84H2.227zm25.852 18.359h35.856V61.199H28.078zm38.016 0h35.781V61.199H66.094zM14.539 58.965H43.48V42.84H14.54zm31.106 0h39.023V42.84H45.644zm41.183 0h29.015V42.84H86.828zm436.894 162.863c-4.39-1.726-8.781-3.383-13.175-5.039l-2.661 6.477c5.325 1.511 10.582 3.023 15.84 4.535v-5.973zm-15.047-5.687a586 586 0 0 0-32.828-10.871l-3.308 9.14c11.375 2.59 22.461 5.324 33.336 8.352l2.804-6.621zm-34.847-11.446c-11.375-3.382-22.895-6.406-34.559-9.14l-3.383 11.375c11.805 2.156 23.325 4.461 34.629 6.98l3.309-9.215zm-36.649-9.648c-12.023-2.734-24.117-5.184-36.359-7.27l-3.023 13.102c12.238 1.652 24.261 3.598 36 5.687zm-38.449-7.633c-12.383-2.156-24.84-3.887-37.437-5.398l-2.375 14.398c12.527 1.223 24.765 2.59 36.718 4.176zm-39.598-5.617c-12.812-1.438-25.703-2.59-38.66-3.383l-1.652 15.117a869 869 0 0 1 37.871 2.735l2.445-14.469zm-40.894-3.527c-12.957-.789-26.133-1.293-39.309-1.438l-.644 15.336a938 938 0 0 1 38.375 1.223l1.582-15.117zm-41.547-1.442c-13.031 0-25.848.36-38.66.934l.359 14.758a823 823 0 0 1 37.653-.43l.644-15.262zm-40.894 1.008c-13.102.645-26.133 1.582-39.024 2.879l1.367 14.109c12.672-1.008 25.414-1.797 38.086-2.23zm-41.184 3.098a717 717 0 0 0-38.016 4.679l2.086 13.176c12.453-1.512 24.84-2.805 37.223-3.812l-1.293-14.039zm-40.176 4.968c-12.453 1.872-24.765 4.102-36.933 6.551l2.734 11.879c12.094-2.016 24.191-3.742 36.285-5.254zm-39.097 6.985c-12.024 2.445-23.829 5.254-35.493 8.277l2.95 10.078c11.804-2.375 23.543-4.605 35.277-6.551zm-37.657 8.855a669 669 0 0 0-17.132 4.75 644 644 0 0 0-16.918 5.184l2.804 7.848c7.126-1.797 14.184-3.528 21.239-5.04 4.316-1.007 8.636-1.871 12.956-2.804l-2.949-9.934zM41.54 212.324c-9.07 2.95-18.14 6.047-27 9.36v6.261c9.934-2.66 19.871-5.398 29.734-7.918zm482.183-1.511c-3.023-1.368-5.972-2.735-8.925-4.032l3.023-7.269c1.941 1.078 3.887 2.156 5.902 3.308zm-10.797-4.895q-16.52-7.342-32.398-13.391l3.598-10.007c10.652 4.82 21.238 10.222 31.894 15.98l-3.094 7.414zm-34.343-14.113c-11.879-4.461-23.399-8.352-34.703-11.735l3.671-12.382c11.52 4.175 23.11 8.781 34.704 13.964l-3.672 10.149zm-36.793-12.383a548 548 0 0 0-36.79-9.574l3.308-14.324c12.383 3.308 24.766 7.054 37.223 11.445zm-38.953-10.008a533 533 0 0 0-38.301-6.98l2.59-15.84a466 466 0 0 1 39.023 8.422l-3.308 14.398zm-40.536-7.273a616 616 0 0 0-39.671-4.176l1.796-16.988c13.461 1.222 27 2.949 40.536 5.254zm-41.906-4.391a884 884 0 0 0-40.605-1.797l.719-17.133c2.589 0 5.183 0 7.773.071q16.952.428 33.91 1.941zm-42.765-1.871c-13.391-.07-26.711.359-40.176 1.223l-.43-16.989a563 563 0 0 1 41.324-1.293l-.718 17.063zm-42.336 1.367a638 638 0 0 0-40.317 3.887l-1.582-16.414c13.75-2.016 27.574-3.453 41.469-4.461zm-42.481 4.106a760 760 0 0 0-35.351 5.398c-1.223.215-2.52.43-3.743.645l-2.375-14.903c13.247-3.023 26.493-5.468 39.887-7.484zm-41.258 6.476c-12.597 2.301-25.199 5.11-37.796 8.278l-2.95-12.887c12.672-3.887 25.485-7.344 38.375-10.293l2.375 14.902zm-39.957 8.86a629 629 0 0 0-35.925 10.437l-3.168-10.582c12.023-4.68 24.046-8.855 36.214-12.672l2.879 12.813zm-38.015 11.16a565 565 0 0 0-33.98 12.383l-2.95-8.278a558 558 0 0 1 33.84-14.613l3.094 10.512zm-36.074 13.176a686 686 0 0 0-22.965 9.789v-7.848c6.695-3.527 13.39-6.84 20.086-10.078l2.879 8.133zm486.214-11.379a9 9 0 0 1-1.367-.934l1.367-3.168zm-3.093-2.086a414 414 0 0 0-30.454-18.645q-.429-.211-.863-.43l3.813-10.652c10.367 6.621 20.519 13.895 30.597 21.672v.789l-3.093 7.27zm-33.192-20.09c-11.445-6.192-23.039-11.735-34.847-16.774l4.101-13.75c11.734 5.903 23.324 12.453 34.629 19.727l-3.887 10.797zm-36.863-17.567a434 434 0 0 0-37.797-13.894l3.742-16.125c13.031 4.68 25.774 10.008 38.231 16.125zm-39.891-14.543a443 443 0 0 0-40.031-10.367l2.949-17.781c10.293 2.445 20.446 5.324 30.528 8.492 3.453 1.149 6.91 2.231 10.293 3.453l-3.743 16.2zm-42.121-10.8a445 445 0 0 0-41.758-6.551l2.086-19.223c14.325 1.871 28.512 4.535 42.621 7.848zm-43.918-6.77c-14.469-1.512-28.941-2.23-43.125-2.301l.863-19.797c14.903.071 29.661 1.008 44.352 2.879l-2.086 19.223zm-45.289-2.305c-14.398 0-28.652.504-42.91 1.653l-.504-19.149a523 523 0 0 1 33.477-2.156c3.597-.07 7.199-.141 10.726-.141l-.789 19.797zm-45.07 1.875c-14.324 1.223-28.653 3.024-42.91 5.469l-1.727-18.215c14.688-2.879 29.375-4.965 44.133-6.406l.504 19.149zm-45.074 5.832a493 493 0 0 0-41.039 9.141l-2.661-16.773c13.965-4.246 27.934-7.774 41.973-10.512l1.727 18.141zm-43.2 9.719c-13.101 3.598-26.207 7.774-39.308 12.672l-3.383-14.758a459 459 0 0 1 25.988-9.933c4.68-1.653 9.36-3.168 14.039-4.68l2.661 16.703zm-41.398 13.391a504 504 0 0 0-36.504 15.336l-3.671-12.239c12.237-6.55 24.476-12.453 36.862-17.71l3.309 14.613zm-38.52 16.273c-11.23 5.254-22.46 11.086-33.695 17.352l-3.308-9.141c7.2-4.82 14.469-9.359 21.812-13.679 3.887-2.231 7.703-4.536 11.59-6.622l3.598 12.094zm-35.64 18.434c-5.324 3.023-10.582 6.117-15.91 9.285v-9.07c4.176-3.168 8.422-6.192 12.742-9.141zm493.269 38.734c-9.644-3.886-19.582-7.484-29.734-10.797l3.094-7.847a667 667 0 0 1 26.636 11.66v6.98zm-31.75-11.449c-10.871-3.527-22.031-6.766-33.476-9.789l3.453-10.512a559 559 0 0 1 33.191 12.309l-3.168 7.988zm-35.566-10.297c-11.59-3.023-23.469-5.828-35.637-8.492l3.383-12.742c12.023 3.168 23.902 6.621 35.781 10.582zm-37.731-8.926c-2.375-.504-4.82-1.007-7.199-1.511-9.933-2.086-19.871-3.813-29.734-5.254l2.805-14.254a561 561 0 0 1 37.511 8.207zm-39.093-7.129a674 674 0 0 0-38.59-4.316l2.156-15.621a590 590 0 0 1 39.238 5.613zm-40.754-4.464c-12.672-1.008-25.559-1.727-38.879-2.231l1.223-16.344c13.316.504 26.636 1.438 39.812 2.879zm-41.039-2.375c-6.766-.215-13.68-.43-20.66-.575-6.262 0-12.454.071-18.575.141l.141-16.125c6.621-.141 13.391-.141 20.086-.07 6.766 0 13.461.14 20.23.359zm-41.473-.36c-13.101.285-26.133.934-39.168 1.871l-.933-15.839c13.535-1.149 27-1.872 40.246-2.157l-.141 16.125zm-41.328 2.016c-12.957.933-25.848 2.23-38.66 3.812l-1.871-14.757a592 592 0 0 1 39.597-4.821zm-40.75 4.105c-12.813 1.582-25.559 3.528-38.156 5.758l-2.446-13.031a599 599 0 0 1 38.661-7.414zm-40.32 6.192c-12.094 2.156-24.118 4.679-36.07 7.484l-2.88-11.015c12.239-3.598 24.407-6.696 36.504-9.504l2.446 13.031zm-38.235 7.992a724 724 0 0 0-34.703 9.285l-2.949-8.855a669 669 0 0 1 34.773-11.301zm-36.792 9.863c-11.157 3.309-22.317 6.91-33.336 10.871l-2.59-6.84a675 675 0 0 1 33.047-12.742zM23.539 216.5c-3.023 1.078-5.973 2.156-9 3.238v-7.199c2.156-.933 4.317-1.797 6.406-2.734l2.59 6.695zm500.183-15.766c-7.269-4.101-14.613-8.062-21.886-11.734l3.527-9.07c6.336 3.812 12.527 7.847 18.359 12.094zm-23.757-12.671c-10.942-5.469-22.032-10.438-33.118-14.973l3.887-11.805a348 348 0 0 1 18.645 9.504c4.82 2.59 9.574 5.254 14.183 8.063l-3.597 9.214zm-35.067-15.77a434 434 0 0 0-36.14-12.957l3.671-13.895c12.453 4.461 24.621 9.43 36.36 14.973l-3.887 11.879zm-38.23-13.605a448 448 0 0 0-38.301-10.149l3.094-15.695c13.101 3.383 26.132 7.344 38.879 11.879zm-40.465-10.657c-13.317-2.879-26.711-5.183-40.176-6.98l2.375-17.277c13.606 2.23 27.359 5.039 40.895 8.492zm-42.336-7.273a559 559 0 0 0-41.039-3.672l1.367-18.359c13.75.863 27.863 2.445 42.047 4.679zm-43.27-3.742a349 349 0 0 0-12.308-.43c-9.864-.285-19.653-.359-29.446-.07l.141-18.215c6.621-.285 13.391-.43 20.231-.43 7.484 0 15.046.215 22.75.719l-1.368 18.43zm-43.922-.504c-13.894.429-27.789 1.367-41.687 2.879l-1.008-17.493c13.895-1.726 28.149-2.949 42.84-3.527l-.141 18.141zm-43.847 3.094a529 529 0 0 0-40.895 6.117l-2.086-16.344a509 509 0 0 1 41.903-7.27l1.078 17.493zm-43.055 6.55a554 554 0 0 0-39.598 9.285l-2.734-14.757c13.031-4.102 26.422-7.774 40.246-10.797zm-41.687 9.868c-12.454 3.453-24.911 7.343-37.293 11.734l-3.309-12.527c12.238-5.11 24.84-9.719 37.797-13.895zm-39.387 12.453a588 588 0 0 0-34.988 13.82l-3.309-9.934c11.375-5.828 23.04-11.23 34.988-16.269zm-37.008 14.687a610 610 0 0 0-32.757 15.406l-2.66-7.125a536 536 0 0 1 32.183-18.07l3.238 9.789zM17.06 199.512c-.864.429-1.653.863-2.52 1.293v-7.774l2.52 6.477" style="stroke:none;fill-rule:evenodd;fill:#ec2a32"/></svg>