<svg viewBox="-22.26 -26.42 601.08 713.46"><title>Herb Iłża</title><path d="M53.594 98.274 277.766 0l224.535 100.016c-10.918 15.359-22.805 20.547 7.301 25.828l46.957 193.562c-20.75 1.219-27.539 14.301-10.649 24.852-3.769 86.555-28.234 150.633-70.191 177.691-36.711 22.536-62.445 24.036-95.555 38.254-35.656 15.313-62.093 39.403-83.234 67.34-9.746 9.692-17.734 23.379-21.605 33.071-32.083-57.79-79.11-95.196-125.043-110.016C17.891 522.395 18.625 429.219 9.176 343.352c16.25-11.824 10.84-20.988-9.176-23.817l46.953-195.976c20.54-1.668 20.028-9.887 6.649-25.285" style="stroke:none;fill-rule:evenodd;fill:#222"/><path d="M237.192 235.75h34.121V120.539l2.133-2.945h2.086l3.925 4.297V235.75h34.887v10.949h-77.16V235.75" style="stroke:none;fill-rule:evenodd;fill:#fffdfd"/><path d="M65.813 331.985q.057-15.154 7.41-28.848c2.355-8.012 5.93-15.719 12.176-22.762 3.46-1.426 2.469-4.515 1.785-6.98-3.504-24.403 4.19-37.422 24.016-44.332 21.925-6.188 43.851-2.781 62.863 12.402 13.195 14.184 25.906 26.902 35.203 29.379 22.418 9.281 37.43 2.652 44.301-19.156-6.969-.176-14.305.011-21.274-.164q-.322-21.175-10.851-39.438c-10.352-3.105-10.317-14.867-3.176-32.554 9.355-22.036 18.941-43.083 31.23-52.407 7.282-6.742 14.934-13.121 25.145-16.937 11.23 5.539 22.297 12.254 32.555 24.613 12.468 15.844 23.453 32.754 29.113 53.465q6.691 17.274-5.555 24.351c-7.988 12.793-11.242 26.68-10.488 39.473-7.762.352-15.891-.387-23.656-.031 6.293 18.519 16.054 30.867 39.867 21.172 46.344-21.274 51.258-35.039 82.582-37.055 26.195.957 41.883 21.844 37.949 45.523-.207 5.383-1.023 10.762-3.176 16.145l7.938 18.527c7.996 7.571 16.801 14.278 11.91 35.731q-5.953 1.452-11.91 2.91c-8.805 3.301-15.906 1.484-22.762-1.059q-4.101 1.39-8.203-1.586c1.223-23.121 4.121-44.066 15.086-54.523-6.32-25.855-19.684-37.18-41.555-30.969l-61.406 29.114c-24.582 11.543-47.59 6.507-68.289-22.762-17.606 21.531-38.57 34.285-68.816 22.762-20.504-9.207-37-30.989-58.231-41.29-10.359-6.105-21.203-10.378-35.469-1.851a44365 44365 0 0 1-16.675 25.406c2.757 6.473 4.304 13.551 3.175 21.969 7.18 6.68 11.625 14.574 10.055 25.144-.207 6.489-3.828 8.711-7.938 10.321-1.515 4.32-5.707 5.301-11.113 4.761-4.761-.613-9.527-1.234-14.293-1.851-3.66 1.191-6.836-1.008-9.527-6.617zm156.265 79.632 18.075 54.844c2.453 4.594 2.761 9.903 2.757 15.317h65.875l.61-11.946c8.703-19.812 16.211-39.629 23.285-59.441-10.316 2.937-20.531 7.723-30.023 25.43q5.052 2.144 5.207 6.738c-5.981 9.023-12.196 15.691-18.996 16.543-6.024-4.696-5.004-11.028-1.223-18.996 4.492.304 8.68-.817 13.172-2.145-2.246-8.808-7.149-13.965-15.93-13.785-2.656-7.453-4.699-12.051-7.352-13.785-4.191 3.566-6.23 8.574-7.964 13.785-7.157 1.004-13.696 3.141-15.93 13.172 3.367 2.652 7.965 4.391 13.785 4.594 1.785 8.375 1.274 14.398-4.285 16.238-9.754-3.266-14.453-8.781-16.852-15.316q.917-5.051 5.512-6.434c-6.566-10.551-15.809-23.813-29.719-24.816zm-76.601-94.984c6.023 18.281 12.051 36.563 18.074 54.844 2.453 4.59 2.758 9.902 2.758 15.316h65.875l.609-11.949c8.703-19.812 16.211-39.629 23.285-59.441-10.316 2.937-20.527 7.722-30.023 25.429q5.052 2.145 5.207 6.739c-5.98 9.027-12.195 15.691-18.996 16.543-6.027-4.696-5.004-11.028-1.223-18.997 4.492.305 8.68-.816 13.172-2.144-2.246-8.809-7.148-13.965-15.93-13.785-2.66-7.453-4.699-12.051-7.351-13.785-4.192 3.566-6.231 8.574-7.965 13.785-7.156 1.008-13.695 3.14-15.93 13.172 3.368 2.652 7.965 4.39 13.786 4.593 1.785 8.375 1.273 14.399-4.29 16.239-9.753-3.266-14.449-8.782-16.851-15.317.609-3.367 2.449-5.515 5.512-6.433-6.567-10.551-15.809-23.813-29.719-24.817zm154.43 0 18.074 54.844c2.453 4.59 2.758 9.902 2.754 15.316h65.875l.609-11.949c8.703-19.812 16.211-39.629 23.285-59.441-10.316 2.937-20.527 7.722-30.023 25.429q5.052 2.145 5.207 6.739c-5.981 9.027-12.196 15.691-18.996 16.543-6.028-4.696-5.004-11.028-1.223-18.997 4.492.305 8.68-.816 13.172-2.144-2.246-8.809-7.149-13.965-15.93-13.785-2.656-7.453-4.699-12.051-7.351-13.785-4.192 3.566-6.235 8.574-7.965 13.785-7.153 1.008-13.695 3.14-15.93 13.172 3.367 2.652 7.965 4.39 13.785 4.593 1.785 8.375 1.274 14.399-4.289 16.239-9.754-3.266-14.449-8.782-16.851-15.317.609-3.367 2.449-5.515 5.511-6.433-6.566-10.551-15.808-23.813-29.718-24.817zM88.364 105.34l189.058-78.355 188.332 78.972c-6.23 20.032.293 33.684 25.473 38.012l33.691 167.543c-17.324-.074-17.883 25.727-7.629 36.16-3.359 76.16-21.523 129.09-58.91 152.899-32.715 19.828-59.219 16.734-84.316 28.253-32.266 14.813-58.969 32.692-77.809 52.063-8.683 8.527-15.738 17.055-19.187 25.586q-55.6-64.335-115.137-81.555C43.246 500.102 43.727 421.375 37.2 345.817c13.57-14.875 11.44-27.137-6.395-36.778L64.383 141.86c30.988-8.891 29.785-22.379 23.985-36.524" style="stroke:none;fill-rule:evenodd;fill:#11b1ee"/><path d="M239.992 148.914c-4.824 15.614-9.546 31.36-10.949 51.391-1.187 6.578-10.355 5.953-9.675-2.184 4.453-21.511 12.093-36.449 20.624-49.203zm71.301 3.821c4.825 14.543 9.547 29.214 10.949 47.875 1.188 6.129 10.356 5.546 9.676-2.036-4.449-20.039-12.093-33.957-20.625-45.835zM89.711 285.074c-3.886 3.571-6.34 6.942-6.125 11.336 2.96.918 3.879.711 7.656 0 1.02-4.8 1.532-8.168-1.531-11.336m-6.125 17.465q-1.683 4.441 3.98 5.207 3.522-1.988 2.145-5.207-3.065-1.224-6.125 0m365.242.305c3.887 3.57 6.34 6.941 6.129 11.336-2.961.918-3.879.715-7.656 0-1.019-4.797-1.531-8.168 1.527-11.336m6.129 17.465c1.121 2.961-.203 4.695-3.98 5.207-2.348-1.324-3.063-3.063-2.145-5.207q3.064-1.225 6.129 0zm-148.617 3.984 18.059 51.785c.41 2.754.828 5.508 1.242 8.266h56.988q.632-4.794 1.27-9.594 9.164-24.92 18.336-49.847-7.35.457-15.93 14.398.304 3.978 3.063 6.738c-3.063 7.121-7.454 13.914-13.786 20.223-7.761 1.531-13.48 1.02-14.703-3.98-3.199-19.016 4.227-20.325 11.028-22.672-1.293-3.196-3.403-6.086-11.258-6.821-.942-3.902-3.012-7.246-5.59-10.336-2.867 2.848-4.305 6.414-5.535 10.086-6.227.407-11.844 1.434-13.153 6.766q18.536 7.044 11.336 22.672c-3.105 4.91-8.457 5.328-14.832 3.703-5.929-5.316-10.586-11.148-12.433-18.102 2.039-1.734 3.676-4.289 4.898-7.656-5.41-7.508-11.949-12.203-18.996-15.625zm27.117 45.961a5.677 5.677 0 0 1 5.668 5.668 5.677 5.677 0 0 1-5.668 5.668 5.68 5.68 0 0 1-5.668-5.668 5.68 5.68 0 0 1 5.668-5.668m14.707 0a5.677 5.677 0 0 1 5.668 5.668 5.677 5.677 0 0 1-5.668 5.668 5.68 5.68 0 0 1-5.668-5.668 5.677 5.677 0 0 1 5.668-5.668m13.786 0a5.677 5.677 0 0 1 5.668 5.668 5.677 5.677 0 0 1-5.668 5.668 5.68 5.68 0 0 1-5.668-5.668 5.677 5.677 0 0 1 5.668-5.668m13.789 0a5.677 5.677 0 0 1 5.668 5.668 5.677 5.677 0 0 1-5.668 5.668 5.68 5.68 0 0 1-5.668-5.668 5.677 5.677 0 0 1 5.668-5.668M151.91 324.293l18.059 51.785c.41 2.754.828 5.508 1.242 8.266H228.2q.63-4.794 1.269-9.594 9.165-24.92 18.336-49.847c-4.898.304-10.211 5.105-15.93 14.398q.304 3.978 3.063 6.738c-3.063 7.121-7.453 13.914-13.785 20.223-7.762 1.531-13.481 1.02-14.703-3.98-3.2-19.016 4.226-20.325 11.027-22.672-1.293-3.196-3.402-6.086-11.258-6.821-.941-3.902-3.012-7.246-5.59-10.336-2.871 2.848-4.304 6.414-5.535 10.086-6.226.407-11.844 1.434-13.152 6.766q18.534 7.044 11.336 22.672c-3.106 4.91-8.457 5.328-14.832 3.703-5.93-5.316-10.586-11.148-12.434-18.102 2.039-1.734 3.676-4.289 4.898-7.656-5.41-7.508-11.949-12.203-18.996-15.625zm27.118 45.961a5.677 5.677 0 0 1 5.668 5.668 5.68 5.68 0 0 1-5.668 5.668 5.68 5.68 0 0 1-5.668-5.668 5.677 5.677 0 0 1 5.668-5.668m14.711 0a5.677 5.677 0 0 1 5.668 5.668 5.677 5.677 0 0 1-5.668 5.668 5.68 5.68 0 0 1-5.668-5.668 5.677 5.677 0 0 1 5.668-5.668m13.785 0a5.677 5.677 0 0 1 5.668 5.668 5.677 5.677 0 0 1-5.668 5.668 5.68 5.68 0 0 1-5.668-5.668 5.677 5.677 0 0 1 5.668-5.668m13.789 0a5.677 5.677 0 0 1 5.668 5.668 5.677 5.677 0 0 1-5.668 5.668 5.68 5.68 0 0 1-5.668-5.668 5.677 5.677 0 0 1 5.668-5.668m7.199 49.024 18.059 51.785 1.242 8.265h56.988l1.27-9.593q9.164-24.922 18.336-49.848-7.353.458-15.93 14.398.304 3.98 3.062 6.739c-3.062 7.121-7.453 13.914-13.785 20.218-7.762 1.532-13.48 1.02-14.703-3.98-3.199-19.02 4.227-20.324 11.027-22.672-1.289-3.195-3.402-6.086-11.257-6.82-.942-3.903-3.012-7.246-5.59-10.332-2.867 2.847-4.305 6.414-5.535 10.086-6.227.406-11.844 1.433-13.153 6.765q18.536 7.044 11.336 22.672c-3.105 4.91-8.457 5.328-14.832 3.703-5.929-5.316-10.586-11.148-12.433-18.101 2.039-1.735 3.675-4.289 4.898-7.657-5.41-7.507-11.949-12.203-18.996-15.624zm27.117 45.961a5.677 5.677 0 0 1 5.668 5.667 5.677 5.677 0 0 1-5.668 5.668 5.68 5.68 0 0 1-5.668-5.668 5.677 5.677 0 0 1 5.668-5.667m14.707 0a5.677 5.677 0 0 1 5.668 5.667 5.68 5.68 0 0 1-5.668 5.668 5.68 5.68 0 0 1-5.668-5.668 5.677 5.677 0 0 1 5.668-5.667m13.789 0a5.677 5.677 0 0 1 5.668 5.667 5.68 5.68 0 0 1-5.668 5.668 5.68 5.68 0 0 1-5.668-5.668 5.677 5.677 0 0 1 5.668-5.667m13.789 0a5.677 5.677 0 0 1 5.668 5.667 5.68 5.68 0 0 1-5.668 5.668 5.68 5.68 0 0 1-5.668-5.668 5.677 5.677 0 0 1 5.668-5.667m145.082-140.946q-6.586 2.908-8.269 22.977c1.734 1.633 4.289 1.633 7.656 0-2.094-4.899-1.375-13.172.609-22.977zm5.821 4.289q-3.522 6.123-4.594 23.285c2.344.922 4.797 1.536 7.965 0 .254-8.679-1.172-16.238-3.367-23.285zm5.207 0c0 7.864.508 15.727 2.144 23.59q4.9-.15 7.352-1.531-3.524-14.706-9.496-22.059m4.293-3.371c3.14 7.938 6.254 15.649 8.578 23.59 1.324-1.019 2.652-2.043 3.98-3.062-3.726-13.739-8.015-19.047-12.562-20.528zM96.453 307.133q6.588 2.908 8.27 22.977c-1.734 1.632-4.289 1.632-7.656 0 2.09-4.899 1.375-13.172-.61-22.977zm-5.82 4.289q3.522 6.123 4.594 23.285c-2.348.922-4.797 1.535-7.965 0-.254-8.679 1.172-16.238 3.367-23.285zm-5.211 0c0 7.86-.508 15.727-2.144 23.59-3.266-.102-5.72-.613-7.352-1.531q3.52-14.707 9.496-22.059m-4.29-3.371c-3.14 7.938-6.253 15.648-8.577 23.59l-3.98-3.063c3.726-13.738 8.015-19.046 12.562-20.527zM79.32 101.125l198.016-83.457 199.223 85.082c-6.461 20.836-5.582 29.145 20.527 33.645l37.883 176.297c-17.965-.078-20.508 23.734-9.875 34.586-3.48 79.211-23.301 134.257-62.074 159.019-33.926 20.621-60.426 19.367-86.453 31.352-33.461 15.406-60.168 33.023-79.707 56.109-9.008 8.867-18.282 18.719-21.86 27.59-36.476-46.57-75.293-77.789-116.449-89.727C35.477 505.813 36.957 427.856 28.227 349.274q21.111-23.21-6.633-38.25l38.75-174.856c32.133-9.246 25-20.328 18.98-35.043zm-10.332-.289L277.297 6.867l210.547 94.7c-6.734 16.097-7.781 25.851 16.481 31.582l41.437 181.257c-18.723 6.192-24.312 23.106-9.309 32.465-3.628 83.598-26.246 143.657-66.648 169.789-35.352 21.766-59.187 21.317-91.07 35.051-34.336 14.789-60.739 36.156-81.094 63.145-9.387 9.359-18.969 20.683-22.699 30.047-35.149-52.969-78.543-84.989-119.465-101.516-133.16-27.238-128.672-113.438-137.77-196.371 15.648-11.422 11.383-28.805-7.89-31.535l43.32-184.539c20.726-2.559 22.125-15.239 15.855-30.114" style="stroke:none;fill-rule:evenodd;fill:#fff101"/><path d="M284.047 124.465V230.91h30.559l9.676-19.097c-.168-2.289-1.356-2.887-3.563-1.781-3.43-2.61-3.922-6.696-4.582-10.696-6.645-43.988-19.269-61.043-32.086-74.867zm-16.808.254v106.445H236.68l-9.676-19.097c.168-2.289 1.356-2.887 3.563-1.782 3.433-2.609 3.922-6.695 4.582-10.691 6.644-43.988 19.269-61.047 32.086-74.867zm-19.864 78.18q-1.272-1.652.508-3.309c-.34-2.121-.168-4.41-.508-5.855-1.695-1.016-3.902-.508-5.601.507-1.34-3.273-.867-7.457-.762-11.457.508-1.695 1.356-2.203 2.547-.507.933-.93 1.867-.676 2.801-.254q1.143-1.911.254-3.817-1.143-2.034.761-4.074h9.676q1.91 2.035.762 4.074-.89 1.906.254 3.817c.929-.422 1.863-.676 2.801.254 1.187-1.696 2.035-1.188 2.546.507.106 4 .575 8.18-.761 11.457-1.696-1.015-3.903-1.527-5.602-.507-.336 1.441-.168 3.734-.508 5.855q1.781 1.651.508 3.309c-3.254.09-6.422.09-9.676 0m47.621-.508c-.847-1.102-.675-2.203.508-3.309-.336-2.121-.168-4.414-.508-5.855-1.695-1.016-3.902-.508-5.601.508-1.34-3.274-.871-7.457-.762-11.457.508-1.696 1.356-2.204 2.543-.508.934-.934 1.867-.676 2.801-.254q1.144-1.905.254-3.817-1.143-2.033.761-4.074h9.676c1.27 1.356 1.528 2.715.762 4.074q-.89 1.906.254 3.817c.93-.422 1.863-.676 2.801.254 1.183-1.696 2.035-1.188 2.543.508.105 4 .574 8.179-.762 11.457-1.695-1.016-3.902-1.528-5.602-.508-.336 1.441-.168 3.734-.507 5.855q1.78 1.652.507 3.309c-3.254.09-6.422.09-9.675 0zm-15.007 52.043c-2.043 23.59 12.66 36.969 44.121 40.137 17.82-4.543 33.652-11.082 46.57-20.528 54.742-31.351 66.566-10.523 79.051 9.496.176-16.679-.363-33.05-23.285-39.828-14.297-2.449-34.723 4.492-61.278 20.832-18.168 13.508-35.25 22.242-49.328 17.77-13.601-2.731-20.742-14.793-26.961-28.188-3.394-.765-7.23-2.406-8.883.305zm-7.047 0c2.926 19.055-15.324 32.035-46.266 39.219-17.82.511-31.508-10.825-44.426-24.204-57.5-45.906-71.261-27.531-88.547-2.753-3.136-20.383 5.676-32.309 32.172-34.622 25.266-2.117 48.61 16.622 59.746 31.559 18.168 13.508 33.719 21.324 47.797 16.852 13.602-2.731 22.274-13.875 28.492-27.27 3.395-.766 9.375-1.488 11.028 1.223" style="stroke:none;fill-rule:evenodd;fill:#ec2a32"/></svg>