<svg viewBox="-21.04 -27.72 567.95 748.49"><title>Herb Jedlina Zdrój</title><path d="M518.317 7.836v455.457L502.91 518.27l-21.39 53-50.906 54.316-60.563 37.695-71.367 17.364-99.195-1.661-102.922-50.003-69.364-89.618-16.062-115.257V7.836h507.195" style="stroke:none;fill-rule:evenodd;fill:#fff"/><path d="m165.707 510.731 98.551 83.48 246.141-219.394 2.726 57.691c-2.273 263.98-318.722 318.844-440.984 158.469l93.555-80.246zm-45.265 86.308c81.718 79.567 228.468 72.043 288.211 0z" style="stroke:none;fill-rule:evenodd;fill:#39a66d"/><path d="M525.879 0v431.746c0 348.41-525.879 348.41-525.879 0V0zm-16.566 19.535v409.77c0 327.98-488.957 327.98-488.957 0V19.535z" style="stroke:none;fill-rule:evenodd;fill:#222"/><path d="M132.957 78.004c32.516 0 59.036 26.887 59.036 59.852s-26.52 59.851-59.036 59.851c-32.515 0-59.035-26.887-59.035-59.851 0-32.965 26.52-59.852 59.035-59.852m344.106 43.289h-68.559v34.867h32.977l1.121 47.809c.945 40.453-59.606 47.101-62.746-.379h-37.309c3.293 91.02 130.778 84.098 134.516 12.719zM59.668 17.602l-37.098.773 63.883 69.242a68.7 68.7 0 0 1 11.485-8.828l-38.27-61.183zm451.676 1.258-151.59-1.458-166.433 88.743a69 69 0 0 1 4.875 12.215zM371.618 136.805l66.519-56.699-238.984 41.828.019.179a69.8 69.8 0 0 1 1.789 14.735l.129 1.062 170.52-1.105zm-55.258 47.101 35.492-30.254-150.953-12.601a69.3 69.3 0 0 1-1.895 13.293l117.36 29.562zm-40.149 34.223 28.578-24.359-106.386-37.137a68.8 68.8 0 0 1-5.532 13.809l83.344 47.683zM243.508 246l24.11-20.551-75.762-53.179a69.4 69.4 0 0 1-9.215 12.593zm-31.738 27.059 23.738-20.235-55.191-65.55a68.7 68.7 0 0 1-9.02 7.488l-2.523 2.137 43 76.156zm-33.285 28.371 25.605-21.824-37.902-81.618a67 67 0 0 1-14.199 6.071zm-41.461 35.34 30.461-25.965-18.219-106a66.8 66.8 0 0 1-14.906 1.996l2.66 129.973zm-69.418 59.175 50.804-43.304 12.418-145.856a66.7 66.7 0 0 1-15.382-2.289l-47.84 191.457zm-48.07 40.973 10.523-8.969 83.078-224.129a67 67 0 0 1-14.898-6.71L19.582 336.117l-.043 100.801zM98.34 17.988l-29.711.192 32.973 58.515a67 67 0 0 1 14.754-5.711l-18.016-53zm33.156-.582-24.863.387 12.172 52.613a67 67 0 0 1 13.559-1.504zm31.758.582H136.27l-.652 50.973a66.4 66.4 0 0 1 15.437 2.438zm34.11.434-28.954.098-15.292 53.492a67.2 67.2 0 0 1 14.296 6.441l29.946-60.039zm48.058 0-39.976-.102-35.547 61.625.515.422a69 69 0 0 1 9.653 7.848l65.351-69.797zm76.793.402-61.09-.199-78.058 72.703a69.7 69.7 0 0 1 8.355 11.371L322.215 18.82zM19.195 250.25v49.715l75.86-104.898-.035-.032a68.7 68.7 0 0 1-10.547-8.906zm-1.156-44.922 1.152 33.289 63.489-54.41a69.7 69.7 0 0 1-8.75-12.172zm.965-36.844.191 27.348 53.212-25.789-.981-2.867a69 69 0 0 1-4.203-11.633l-48.22 12.945zm-.965-29.097.77 22.894 47.598-10.195a69.7 69.7 0 0 1-1.462-13.887l-46.902 1.188zm-.578-29.727-1.348 23.137 48.899 1.918c.207-4.695.887-9.27 1.98-13.68L17.458 109.66zm1.156-34.879-.383 27.067 49.434 16.683a69 69 0 0 1 5.524-13.539L18.617 74.777zm0-45.152-.383 37.047L74.903 102a69 69 0 0 1 9.773-12.629z" style="stroke:none;fill-rule:evenodd;fill:#fff100"/><path d="M311.543 553.488 510.524 375.77V216.664l-105.465 88.262L293.231 203.09 19.547 436.738c1.16 55.774 16.703 112.192 52.699 155.086l93.461-79.625 52.575 45V439.637c-1.661-62.285-89.93-65.637-91.723 0h-15.348c6.985-90.77 119.469-76.051 121.551-8.848l-.102 114.547 24.622 22.406V315.281c-9.786-27.531-52.875-31.562-51.774 17.895l-14.183-.328c-3.633-45.961 42.113-70.598 73.574-34.797 33.57-37.684 80.476-7.441 72.914 34.961l-13.195.168c2.433-46.52-41.239-48.043-52.235-17.367v252.082l24.727-23.262-.141-106.149c1.207-81.957 116.922-90.015 120.891.77h-15.735c2.235-66.207-88.074-68.711-90.57 0v114.238zm119.719-128.64c3.988 0 7.242 3.359 7.242 7.484 0 4.121-3.254 7.485-7.242 7.485s-7.242-3.36-7.242-7.485c0-4.121 3.254-7.484 7.242-7.484m-331.687 1.215c3.988 0 7.242 3.359 7.242 7.484 0 4.121-3.254 7.484-7.242 7.484-3.99 0-7.243-3.359-7.243-7.484 0-4.121 3.254-7.484 7.243-7.484m166-185.071c3.988 0 7.242 3.149 7.242 7.008s-3.254 7.008-7.242 7.008-7.243-3.145-7.243-7.008c0-3.859 3.254-7.008 7.243-7.008m19.398 72.485c3.988 0 7.242 3.148 7.242 7.011 0 3.86-3.254 7.008-7.242 7.008-3.984 0-7.242-3.144-7.242-7.008 0-3.859 3.254-7.011 7.242-7.011m-39.746 216.504c3.988 0 7.242 3.148 7.242 7.011 0 3.86-3.254 7.008-7.242 7.008s-7.242-3.148-7.242-7.008 3.254-7.011 7.242-7.011m.945-84.368c3.988 0 7.242 3.149 7.242 7.012 0 3.859-3.25 7.008-7.242 7.008-3.984 0-7.238-3.149-7.238-7.008s3.254-7.012 7.238-7.012m-.238-65.832c3.988 0 7.242 3.145 7.242 7.008 0 3.86-3.254 7.008-7.242 7.008s-7.242-3.148-7.242-7.008 3.254-7.008 7.242-7.008m.473-48.718c3.988 0 7.242 3.144 7.242 7.011 0 3.86-3.254 7.008-7.242 7.008-3.985 0-7.239-3.148-7.239-7.008 0-3.863 3.25-7.011 7.239-7.011m.238-17.348c3.988 0 7.242 3.148 7.242 7.012 0 3.859-3.254 7.007-7.242 7.007-3.985 0-7.242-3.148-7.242-7.007 0-3.86 3.254-7.012 7.242-7.012m-40.758 113.891c3.988 0 7.242 3.144 7.242 7.007 0 3.86-3.254 7.008-7.242 7.008s-7.242-3.148-7.242-7.008 3.254-7.007 7.242-7.007m-5.914-14.735c3.988 0 7.242 3.149 7.242 7.012 0 3.859-3.254 7.008-7.242 7.008s-7.242-3.145-7.242-7.008c0-3.859 3.254-7.012 7.242-7.012m-12.305-10.695c3.989 0 7.242 3.148 7.242 7.008s-3.253 7.008-7.242 7.008c-3.984 0-7.242-3.145-7.242-7.008 0-3.86 3.254-7.008 7.242-7.008m-16.09-4.754c3.989 0 7.243 3.145 7.243 7.008 0 3.859-3.254 7.008-7.243 7.008-3.984 0-7.242-3.149-7.242-7.008s3.254-7.008 7.242-7.008m-15.14 4.043c3.988 0 7.242 3.145 7.242 7.008 0 3.859-3.254 7.008-7.242 7.008s-7.242-3.149-7.242-7.008 3.254-7.008 7.242-7.008m-11.832 10.934c3.988 0 7.242 3.148 7.242 7.007 0 3.86-3.254 7.008-7.242 7.008s-7.242-3.148-7.242-7.008 3.254-7.007 7.242-7.007m-5.68 14.968c3.988 0 7.242 3.149 7.242 7.008s-3.254 7.008-7.242 7.008-7.242-3.145-7.242-7.008c0-3.859 3.254-7.008 7.242-7.008m252.52-2.191c3.988 0 7.242 3.144 7.242 7.008 0 3.859-3.254 7.008-7.242 7.008s-7.243-3.149-7.243-7.008 3.254-7.008 7.243-7.008m-5.918-14.734c3.988 0 7.242 3.148 7.242 7.011 0 3.86-3.254 7.008-7.242 7.008s-7.242-3.144-7.242-7.008c0-3.859 3.25-7.011 7.242-7.011m-12.301-10.696c3.988 0 7.242 3.149 7.242 7.012 0 3.859-3.254 7.008-7.242 7.008-3.984 0-7.238-3.149-7.238-7.008s3.254-7.012 7.238-7.012m-16.09-4.754c3.988 0 7.242 3.149 7.242 7.012 0 3.859-3.25 7.008-7.242 7.008-3.984 0-7.242-3.149-7.242-7.008s3.254-7.012 7.242-7.012m-15.144 4.039c3.988 0 7.242 3.149 7.242 7.012 0 3.859-3.254 7.008-7.242 7.008s-7.243-3.149-7.243-7.008 3.254-7.012 7.243-7.012m-11.829 10.934c3.989 0 7.243 3.148 7.243 7.012 0 3.859-3.254 7.007-7.243 7.007-3.988 0-7.242-3.148-7.242-7.007 0-3.86 3.254-7.012 7.242-7.012m-5.679 14.973c3.988 0 7.242 3.148 7.242 7.011 0 3.86-3.254 7.008-7.242 7.008s-7.242-3.144-7.242-7.008c0-3.859 3.253-7.011 7.242-7.011m33.363-84.368c3.988 0 7.242 3.36 7.242 7.485 0 4.121-3.25 7.484-7.242 7.484-3.984 0-7.238-3.359-7.238-7.484 0-4.121 3.254-7.485 7.238-7.485m-184.859 1.215c3.988 0 7.242 3.36 7.242 7.485 0 4.121-3.254 7.484-7.242 7.484-3.985 0-7.243-3.359-7.243-7.484 0-4.121 3.254-7.485 7.243-7.485m111.75 37.996c3.988 0 7.242 3.145 7.242 7.008 0 3.86-3.254 7.008-7.242 7.008-3.985 0-7.243-3.148-7.243-7.008s3.254-7.008 7.243-7.008m.234 32.086c3.988 0 7.242 3.149 7.242 7.008s-3.254 7.008-7.242 7.008c-3.984 0-7.242-3.145-7.242-7.008 0-3.859 3.254-7.008 7.242-7.008m0 33.27c3.988 0 7.242 3.144 7.242 7.012 0 3.859-3.254 7.007-7.242 7.007-3.984 0-7.242-3.148-7.242-7.007 0-3.864 3.254-7.012 7.242-7.012m.945-180.141c3.989 0 7.242 3.149 7.242 7.008s-3.253 7.008-7.242 7.008-7.242-3.145-7.242-7.008c0-3.859 3.25-7.008 7.242-7.008m-20.343 7.606c3.988 0 7.242 3.148 7.242 7.011 0 3.86-3.254 7.008-7.242 7.008s-7.243-3.148-7.243-7.008 3.254-7.011 7.243-7.011m-18.696-7.844c3.989 0 7.242 3.148 7.242 7.008s-3.253 7.008-7.242 7.008-7.242-3.145-7.242-7.008c0-3.86 3.254-7.008 7.242-7.008m38.094 98.152c3.988 0 7.242 3.149 7.242 7.008s-3.254 7.008-7.242 7.008c-3.984 0-7.242-3.145-7.242-7.008 0-3.859 3.254-7.008 7.242-7.008m-38.566-15.687c3.988 0 7.242 3.148 7.242 7.011 0 3.86-3.254 7.008-7.242 7.008-3.985 0-7.239-3.148-7.239-7.008s3.25-7.011 7.239-7.011m0 16.16c3.988 0 7.242 3.148 7.242 7.012 0 3.859-3.254 7.007-7.242 7.007-3.985 0-7.239-3.148-7.239-7.007 0-3.86 3.25-7.012 7.239-7.012m38.566 32.797c3.988 0 7.242 3.148 7.242 7.008s-3.254 7.007-7.242 7.007c-3.984 0-7.242-3.148-7.242-7.007 0-3.86 3.254-7.008 7.242-7.008m-38.801 0c3.988 0 7.242 3.148 7.242 7.008s-3.25 7.007-7.242 7.007c-3.984 0-7.238-3.148-7.238-7.007 0-3.86 3.254-7.008 7.238-7.008m0 32.797c3.988 0 7.242 3.148 7.242 7.011 0 3.86-3.25 7.008-7.242 7.008-3.984 0-7.238-3.148-7.238-7.008s3.254-7.011 7.238-7.011m0 33.507c3.988 0 7.242 3.149 7.242 7.008s-3.25 7.008-7.242 7.008c-3.984 0-7.238-3.144-7.238-7.008 0-3.859 3.254-7.008 7.238-7.008m0-49.906c3.988 0 7.242 3.145 7.242 7.012 0 3.859-3.25 7.008-7.242 7.008-3.984 0-7.238-3.149-7.238-7.008s3.254-7.012 7.238-7.012m38.801 48.719c3.988 0 7.242 3.148 7.242 7.012 0 3.859-3.254 7.008-7.242 7.008-3.984 0-7.242-3.149-7.242-7.008s3.254-7.012 7.242-7.012m0 16.637c3.988 0 7.242 3.148 7.242 7.008s-3.254 7.007-7.242 7.007c-3.984 0-7.242-3.144-7.242-7.007 0-3.86 3.254-7.008 7.242-7.008m-39.273 0c3.988 0 7.242 3.148 7.242 7.008s-3.254 7.007-7.242 7.007-7.243-3.144-7.243-7.007c0-3.86 3.25-7.008 7.243-7.008m0 17.824c3.988 0 7.242 3.144 7.242 7.012 0 3.859-3.254 7.007-7.242 7.007s-7.243-3.148-7.243-7.007c0-3.864 3.25-7.012 7.243-7.012m-.473 16.16c3.988 0 7.242 3.149 7.242 7.012 0 3.859-3.254 7.008-7.242 7.008s-7.242-3.149-7.242-7.008 3.254-7.012 7.242-7.012m38.801 18.063c3.988 0 7.242 3.148 7.242 7.011 0 3.86-3.254 7.008-7.242 7.008s-7.242-3.148-7.242-7.008 3.25-7.011 7.242-7.011m.945-34.7c3.988 0 7.242 3.149 7.242 7.008s-3.254 7.008-7.242 7.008c-3.984 0-7.242-3.145-7.242-7.008 0-3.859 3.254-7.008 7.242-7.008m0 16.399c3.988 0 7.242 3.148 7.242 7.008s-3.254 7.007-7.242 7.007c-3.984 0-7.242-3.144-7.242-7.007 0-3.86 3.254-7.008 7.242-7.008m0-83.176c3.988 0 7.242 3.145 7.242 7.008 0 3.859-3.254 7.008-7.242 7.008-3.984 0-7.242-3.149-7.242-7.008s3.254-7.008 7.242-7.008m-.234-97.441c3.988 0 7.242 3.144 7.242 7.011 0 3.86-3.254 7.008-7.242 7.008s-7.243-3.148-7.243-7.008c0-3.863 3.254-7.011 7.243-7.011m.129 16.343c3.687 0 6.699 2.969 6.699 6.614s-3.012 6.613-6.699 6.613c-3.692 0-6.704-2.969-6.704-6.613s3.012-6.614 6.704-6.614" style="stroke:none;fill-rule:evenodd;fill:#0fb1ee"/></svg>