<svg viewBox="-21.27 -25.32 574.35 683.76"><title>Herb Błaszki</title><path d="M531.578 377.84c-5.617 141.554-122.781 255.269-265.671 255.269C123.016 633.109 5.852 519.398.231 377.84L0 0h531.813l-.231 377.84" style="stroke:none;fill-rule:evenodd;fill:#222"/><path d="M162.227 123.195c-6.254.551-9.188-1.961-1.879-6.015 70.953-15.899 154.262-15.25 211.738-3.758 5.774 3.289 2.594 6.324-2.633 5.261-50.57-9.628-136.941-11.902-207.226 4.512m6.39 17.301c-4.734 2.008-4.097 6.324.376 5.262 65.964-11.938 130.824-14.723 194.062-4.137 4.734 1.059 5.125-4.02-.375-5.262-63.293-10.472-133.16-9.617-194.063 4.137m-5.64-15.422c59.898-12.867 134.496-16.75 206.098-3.383 6.156 4.262-.481 13.387-5.071 12.528-60.426-8.442-120.273-12.868-195.761 4.015-6.532 1.328-10.336-9.199-5.262-13.16zm232.492-41.219q3.98 9.475-4.586 13.641c-1.363-5.676.16-10.223 4.586-13.641M128.582 55.07c6.25 4.106 10.926 3.949 14.024 5.688 9.769 4.843.469 17.75-2.363 24.968-2.258.629-4.043.157-2.993-2.367-.238-4.945 4.563-9.422.7-15.32-1.86-.895-2.461-1.949-1.801-4.586-5.121 2.5-7.012-.234-7.563-8.375zm4.032 12.305c.918-.578 2.367.055 3.226 1.418.856 1.359.809 2.94-.105 3.519-.914.578-2.368-.054-3.227-1.418-.859-1.359-.808-2.941.106-3.523zm204.468.969c5.469 0 9.926 4.398 9.926 9.796 0 5.395-4.457 9.797-9.926 9.797-5.468 0-9.925-4.398-9.925-9.797 0-5.394 4.457-9.796 9.925-9.796m-66.347 23.863c5.343 5.121 11.882 9.047 20.172 11.219a210 210 0 0 0-36.403-.157c5.883-3.367 11.61-6.843 16.231-11.058zm8.351-9.164c11.856 11.586 38.727 15.273 51.531 5.844 1.868 1.484 4.243 1.714 4.098 5.214-21.152 13.465-42.297 13.336-63.035-5.214 3.047-1.422 5.617-3.161 7.402-5.844zm3.153-.793c10.031 1.262 14.39-5.055 21.589-7.582 5.985 7.508 12.762 11.457 21.274 7.582l2.992 4.265c-5.969 8.598-34.687 6.989-45.859-4.265zm60.671 6.637c8.704 10.253 20.344 15.89 38.45 11.378-5.239-5.253-6.953-10.007-10.43-15.011 6.68-1.156 11.852-5.086 20.043-3.473-19.211-22.785 5.172-23.172 14.496-26.07.875 6.558-2.398 11.73-7.562 16.273-1.172-2.203-.332-5.418 2.519-9.636-8.457 3.359-4.844 11.308-8.351 12.253.156 3.043 6.953 5.844.468 9.125-1.359 4.93-5.015 5.274-10.238 2.477-.852 1.316-1.871 1.672-3.047 1.059 1.078 1.546 3 1.566 1.785 3.679 2.203-1.39 4.895-1.136 7.102.043-.934 4.442 3.125 7.848-1.11 10.067-16.39 7.906-35.55 7.82-49.421-6.922.253-3.258 3.023-4.25 5.293-5.242zm-6.933 6.796q6.914 5.825 16.859 11.657c-11.219-1.742-22.777-3.235-34.668-2.965 6.543-2.59 12.606-5.426 17.805-8.688zm11.348-8.375-1.418.786c7.941 8.089 17.566 13.039 30.886 11.058-3.777-3.433-4.285-7.375-6.808-11.058-7.301-.262-15.36 6.519-22.66-.786m2.835-15.171c6.356 4.371 14.723-6.36 19.067 13.113-5.149.844-23.891 8.23-19.223-4.266 1.336-1.086 4.938 1.598 9.297 1.262-1.031-5.133-11.379-.445-9.137-10.113zm-47.543.714c-7.335-18.23-15.882-9.461-21.675-6.261q-2.849 2.477 0 4.574c3.062.934 5.937-1.551 8.91.238-2.649 2.328-11.09-.387-7.945 6.985 7 7.097 13.808-3.692 20.714-5.539zm22.286 2.938c1.054-13.481-16.618-11.031-19.762-2.887 4.742 4.551 8.82 12.242 19.641 7.656-2.157-5.273-6.403-4.839-9.602-7.257 3.242-.2 6.484.148 9.727 2.488zm15.543-9.539q-3.612-1.268-7.223-.004c-1.477-19.145 11.223-19.645 15.887-26.148 2.836 5.441 10.246 16.101-.934 30.55-1.691-1.75-6.383-2.558-5.082-5.258 2.258-4.574 3.516-9.152 4.094-13.726-4.606 3.547-4.645 10.098-6.735 14.594zm-137.453 6.047c5.468 0 9.929 4.718 9.929 10.508 0 5.785-4.461 10.503-9.929 10.503-5.469 0-9.93-4.718-9.93-10.503 0-5.79 4.461-10.508 9.93-10.508m-8.719 35.711c4.426-2.211 8.855-5.743 13.285-9.645 3.703 2.5 11.141 5.684 15.691 7.34-9.394-.129-19.898.859-28.976 2.305m11.5-10.368-5.758-2.183c-13.191 8.129-26.824 15.637-54.02 3.769q-7.04-4.67-6.523-11.242c-1.414-.379-3.145-1.867-4.402-2.726-1.563 8.007 1.148 15.226 8.148 17.543 6.098 1.019 10.305 4.726 16.875 5.902 21.863 3.812 37.399-2.875 45.684-11.066zm52.234-27.207c2.067-4.695-1.176-4.078-3.574-5.757-7.774-6.235-11.809 5.511-16.449 9.175 6.156 2.282 10.621 13.86 19.316 6-.535-2.211-1.031-4.425-.281-6.636-2.563-.942-6.543-.473-10.723.195 2.848-2.051 6.613-3.184 11.715-2.977zm.199 11.719c-13.535 5.43-14.515-4.101-21.05-6.156-6.95 3.043-5.329 11.766-21.817 8.41.008 1.82-.461 3.316-1.418 4.496 15.992 8.543 32.992 7.746 49.305-2.383q-3.475-1.699-5.016-4.367zm7.348 5.594c-17.77 10.859-35.223 11.715-52.352 2.613-1.722 2.203-3.886 3.406-6.257 4.324 18.359 14.016 48.109 12.543 63.593-5.73-1.656-.078-3.32-.484-4.98-1.211zm-99.109-1.227c-8.485-2.675-10.325-7.855-14.309-6.648-3.98 1.203-6.477 7.059-11.707 7.965.297 1.875 1.223 3.758 2.777 5.636 3.594-3.957 8.055-5.019 12.907-4.765-5.52 1.44-7.575 4.312-12.313 5.758l1.996 3.308c3.383-.633 6.77-.109 10.156.938 3.493-4.063 8.567-7.656 10.485-12.196zm31.207 7.789c-21.34.278-18.414-4.812-27.621-7.222L155.7 100.82c14.156 5.945 30.32 2.285 41.953-6.512M193.2 75.312c-13.09-4.964-13.993 1.657-19.797 10.215 4.918 1.797 5.851 8.063 20.91 5.758-2.52-2.336-3.836-4.891-4.426-7.547-3.035-.863-7.281.926-10.922 1.391q3.733-3.714 11.809-4.047c-.094-2.164.91-4.246 2.426-5.766zm-.434-5.23c-12.117-8.399-.434-20.324 1.016-30.055 7.171 9.192 21.941 12.301 15.691 29.918-10.324 2.516-9.973-10.949-14.356-16.305.512 5.465 2.297 10.762 4.75 16.551-2.246.848-5.175.973-7.097-.105zm18.238 2.223c6.934-8.961 15.641-10.293 25.153.707-4.528 3.507-4.954 11-16.485 10.523-8.383-2.734-4.062-8.105 5.465-8.383 1.621-.34 2.52-1.281.887-1.742-3.926.285-7.856 1.461-11.781 3.035-.598-1.699-1.676-3.082-3.239-4.14m57.926-6.637c5.578 0 10.129 4.324 10.129 9.629s-4.547 9.633-10.129 9.633c-5.578 0-10.129-4.325-10.129-9.633 0-5.301 4.547-9.629 10.129-9.629m-4.801-2.199c-7.64-5.637-9.332-11.45-4.031-19.868 3.504-5.269 5.812-5.574 10.508-15.812 2.847 8.898 10.461 12.637 10.527 22.133 1.442 4.144-3.445 8.6-5.363 13.906-2.516-.695-4.039 0-4.77-2.48l-.109-15.051c-.422-2.942-2.629-3.102-2.457.105l.016 14.188c-.227 3.683-2.184 3.769-4.321 2.875zm-50.375 379.55c1.055 0 2.231.121 3.172 1.411 1.691 4.933.82 9.867 1.231 14.804-8.614 9.059-16.778 1.477-15.512-7.402q6.95-2.765 11.105-8.813zm-2.574-11.238c-3.789 2.57-8.395 3.731-10.777 2.543 1.34 4.551-1.618 7.871 3.781 14.297 2.562-.828 6.293-3.223 8.855-6.234 1.297-7.61-1.046-7.223-1.859-10.602zM206 409.703q-.48 5.863-4.23 7.051c-.117 3.816-1.285 6.695-1.641 10.047-.512 3.437.66 7.211 5.164 5.816 5.125-.367 7.778-3.531 7.93-9.516-.168-6.257-1.93-9.355-2.465-12.867q-2.379 1.137-4.758-.527zm-6.297-4.988c-6.418 2.312-7.199 7.55-1.988 10.449 3.746 1.59 7.028-1.301 6.461-5.871-2.539-1.309-4.418-2.328-4.469-4.574zm2.946-2.414c-3.903 2.695.008 6.211 2.289 3.875.867-1.407-.242-4.223-2.289-3.875m7.215-14.27 14.043 21.371-4.34.762-10.571-14.391-.707-4.375zm72.636-37.91c-4.285.559-8.574 1.851-12.867 4.758l-53.586 38.601 1.762 2.817 56.84-40.895-2.856 3.535-52.926 38.766 2.465 3.875 51.118-38.25q7.657-5.291 10.046-13.219zm3.598 88.07c-1.172-3.269-4.66-2.328-6.988-3.492-3.555 8.848-20.266 7.242-23.766 1.047-2.098.465-4.824-.438-6.289 1.394 10.707 29.329 30.129 21.543 37.051 1.047zm-15.231-7.437c1.379 2.461 4.305 3.625 7.93 3.273-3.461 6.195-15.972 6.977-21.855 1.762l3.875-2.641 1.761 2.465c.59-2.566 2.336-2.398 3.348-4.23 1.785.347 3.43.14 4.934-.629zm-8.921.312c-3.075-2.605-6.043-5.008-7.645-8.14-.023 2.406-.137 5.027 1.234 7.437l5.711 2.149.696-1.442zm16.894-8.844c-1.344 2.598-3.035 4.934-5.504 6.692l.668 2.684c1.305 1.464 2.61 1.195 3.914.132 1.817-2.465 2.121-6.59.922-9.515zm-10.574-35.468c8.191 4.562 14.668 11.449 16.695 22.761-4.933-.406-11.133-6.929-16.695-10.39zm-18.41 25.297c.914-11.055 8.113-20.829 15.758-25.422l.054 12.726c-8.578 5.102-8.914 13.703-15.812 12.692zm-10.781 27.187c8.363-.535 13.25 5.68 12.546 9.164-.546 2.707-3.976 6.051-11.136 9.363.418-6.175-.407-12.351-1.407-18.527zm-20.829 6.168c.844 4.402 1.301 8.621.903 12.715 6.59 3.191 12.879 2.601 19.054.297 1.18-5.024 1.293-10.75.11-15.774-7.438-1.539-5.391-4.039-20.074 2.758zm34.293 5.719c6.168 3.336 6.746 6.91 14.868 7.347l-.176 29.215c-4.801-8.027-11.008-15.343-19.063-17.336-6.953-3.425-3.082-8.277-4.715-12.238 3.782-.566 6.723-3.105 9.086-6.988m-7.339 21.32c11.976 1.938 21.695 12.653 22.375 25.715-5.946-3.992-11.715-4.258-17.665-7.184l-4.71-18.527zm3.847 20.973c6.113 3.035 14.18.926 18.34 9.109-1.102 3.137-1.32 8.227-3.309 9.414-7.511.571-16.328-3.23-22.718-7.687 2.09-5.032 4.652-8.641 7.687-10.836m22.367 5.242q5.58-5.442 12.582-7.34c2.579-.551 2.672 2.09 4.012 3.133l-5.058 12.594c-2.211 2.379-4.426 3.726-6.641 2.797-4.293-2.129-5.332-6.215-4.891-11.184zm-1.574-1.898c1.195-14.649 8.195-22.774 16.613-26.422.305 8.656-2.222 12.523-2.804 19.582-4.602 1.57-9.203 3.847-13.809 6.84m-.172-9.786.696-28.507c3.988-1.153 7.832-2.899 11.347-5.946-.023 2.809 4.028 3.848 5.774 5.594.918 3.559 1.097 6.824-.348 9.438-7.109 1.753-13.203 7.253-17.473 19.421zm-26.785 20.672c5.723 2.817 11.656 5.418 18.352 7.266.117 2.422-.121 5.387-1.817 7.266-6.027.117-11.718-2.422-17.261-6.176-1.211-3.512-.543-5.813.726-8.356m-1.09 10.723c6.36 3.691 12.719 5.812 19.078 5.633 2.301-1.453 1.329-6.176 1.996-9.266 3.813-.359 4.36-7.266 6.54-10.902.906 3.453 2.418 6.601 5.265 9.086-.242 2.785.059 6.297 4.176 8.902q7.354-1.723 11.809-6.359l1.816 1.449c-.484 3.512.48 6.539 2.906 9.086q-2.18 3.087-5.812 1.09l-5.641 5.109-5.984-4.383-5.977 5.434-6.738-6.524c-6.207 5.485-12.508 8.454-15.809 3.27l-2.175-1.727c-1.786-.906-4.876.938-7.086 3.364-.907-4.907-.36-9.325 1.632-13.262zm0 15.625c.723-2.117 2.418-3.512 5.086-4.176q6.628 8.993 14.715 2.723c1.332 5.418.664 10.508-.906 15.441-3.571.059-6.781-4.238-10.172-6.359-3.086 2.781-5.207 6.297-6.359 10.535-4.301-3.812-2.422-12.719-2.36-18.168zm3.633 20.898c1.301-4.843 3.055-8.781 5.813-10.718 2.964 2.058 4.843 4.843 8.902 6.175l-1.09 5.45c-4.965-2.664-4.844-4.239-7.266-6.36-1.753 1.817-2.421 4.36-6.359 5.449zm41.793 7.996c.301-7.812 4.602-9.265 3.813-14.535 2.238-1.328 3.933-4.297 6.722-3.996q.45 2.907 3.813 5.086c-6.117 3.149-9.571 7.633-11.809 12.719 3.449-2.785 6.539-7.207 10.356-8.719 1.996-1.711 4.359.035 6.074 4.336 1.047 2.617-1.051 6.797-3.168 10.559-3.086 1.179-6.176 1.3-9.266-.907l-5.812-1.449-.36 3.633c-1.574.422-2.785-.422-3.632-1.996.363 2.301-.18 3.875-1.45 5.086-1.211-2.422-.785-4.906-.543-7.813l-2.179-3.632c-2.422-3.512 2.965-5.571 4.175-2.36 1.875.848 2.301 2.785 3.27 3.996zm.91-10.539-.363-5.086q-5.994-5.174-7.629-14.714l-2.543-2.543-4.445 5.304c2.476 7.391 6.683 13.532 14.988 17.043zm10.176-10.906c-2.422-3.238-3.512-7.84-3.996-12.535-1.328.848-3.391 1.637-4.723.543-1.812 2.969-3.875 4.723-6.176 5.269.727 4.059 3.086 8.84 6.723 12.899 2.727-3.27 5.449-5.328 8.176-6.176zm-46.156 11.633c2.051 1.281 3.929 1.684 5.633 4.902 2.14 6.778.933 11.325-2.559 14.344-2.508 2.918-6.875 1.145-10.52-4.168.774 2.602 1.282 5.824-.714 6.934-1.379.761-2.989.097-3.098-2.934l1.094-3.82c-4.715-5.028-5.02-11.465-1.274-9.442 1.86.536 1.254 4.25 3.996 6.903.485-5.739 3.203-9.801 7.45-12.719zm-6.723 23.801c1.313-.731 2.277-1.285 2.359-2.723 2.192 2.016 5.211 2.27 8.348 1.461-2.836 4.418-6.461 6.246-10.707 1.258zm1.637 4.906c2.734 4.859 5.765 5.906 9.445-1.453q-4.723 2.841-9.445 1.453m-5.996-3.09 2.906-.543c2.164 5.906 4.922 10.692 11.809 7.629-1.325 6.844-2.079 13.688-1.997 20.531-3.312 3.059-5.57 4.711-8.355.727-1.453-9.445-5.375-20.836-4.359-28.344zm35.824 24.168c.684-10.621.184-21.625 10.633-29.808-.145 8.601-5.535 15.421-7.133 26.48-.754 2.746-2.145 3.856-3.496 3.324zm4.695-1.633c.035 2.25 2.188 3.27 3.813 1.996 5.289-6.625 9.699-13.839 12.172-22.347-3.594-1.407-6.348-3.934-8.532-7.227-2.043 8.781-4.468 18.797-7.453 27.578m8.539-31.617c2.762-1.683 7.992 1.914 11.992 1.817.715 2.773-3.148 4.843-4.722 7.265-5.598-3.027-7.313-6.055-7.266-9.082zm4.727-76.863c-1.688-1.34-3.141-1.035-4.359.906-.727 5.75-9.563 11.508-3.415 17.613 2.618.231 7.704 6.453 10.5-.714-1.23-3.618-3.343-1.95-5.812-3.45l2.723-1.633q-2.292-2.01-1.055-4.722c1.672 1 2.816 1.472 5.019.887 2.676-4.133-.46-7.563-3.597-8.879zm-11.266 16.547c-2.48 1.609-4.965 2.98-7.449 2.715 1.09 2.421-.637 4.668 3.27 7.265 5.269-.988 8.66-2.687 10.175-5.086-2.746-.015-4.656-2.058-5.992-4.894zm21.172 102.586c-3.625 8.714-17.254 6.504-30.074 2.25-5.813-3.242-2.441-7.325 1.269-9.446q4.121 2.762 10.356 1.996c5.637 5.797 9.523 6.672 18.445 5.2zm-49.687-5.008c2.418 2.355 8.187 6.828 1.441 12.891-7.355 3.16-13.418.828-18.895-3.997 1.493-2.949 3.43-5.609 6.329-7.617 4.117 3.57 7.004 3.145 11.121-1.269zm32.187-169.711c5.207 4.055 14.469 4.234 16.859 12.699-5.812 5.395-13.953 8.824-21.41 1.645 2.809-5.371 4.032-9.274 4.551-14.348zm1.777 20.336c1.934 5.976 7.895 10.945 18.762 12.695 3.235-1.887 7.18-3.418 8.481-7.597-3.801-2.68-7.485-5.473-10.344-9.094-5.633 2.742-11.266 2.664-16.899 3.996m16.719 15.265c-2.601-.789-5.211-2.05-7.816-3.781 1.957 4.258.211 7.813 1.465 11.196q1.582-2.379 4.578-2.637c-.348-1.766.242-3.473 1.773-4.77zm-.16 7.45c4.156.312 7.449 2.191 9.871 5.636-3.84 4.676-8.504 8.524-13.734 11.809-2.149-3.59-3.696-6.422-7.238-7.578 2.937-4.203 6.425-7.754 11.101-9.867m.352-4.141c1.418-6.609 9.359-7.871 12.867-9.785 9.308 6.066 9.226 13.719-1.668 17.219-3.16-2.672-6.242-4.953-9.754-5.543l-1.441-1.891" style="stroke:none;fill-rule:evenodd;fill:#ffc905"/><path d="M165.621 219.355h13.344v26.61h-13.344zm-3.214 26.61H133.2v-26.61h29.207zm-32.43 0h-33.84v-26.61h33.84zm-37.063 0H75.02v-26.61h17.894zm140.524-59.86h-16.141v-25.367h16.141zm3.219-25.367h30.753v25.367h-30.753zm33.972 0h31.524v25.367h-31.524zm34.746 0h16.422v25.367h-16.422zm68.16 85.227h-13.668v-26.61h13.668zm3.219-26.61h31.524v26.61h-31.524zm34.742 0h33.071v26.61h-33.071zm36.293 0h13.418v26.61h-13.418zm-214.351 26.61h-16.141v-26.61h16.141zm3.219-26.61h30.753v26.61h-30.753zm33.972 0h31.524v26.61h-31.524zm34.746 0h16.422v26.61h-16.422zm142.414 59.657h13.418v26.609h-13.418zm-3.218 26.609H411.5v-26.609h33.071zm-36.289 0h-31.524v-26.609h31.524zm-34.747 0h-32.64v-26.609h32.64zm-35.863 0h-32.297v-26.609h32.297zm-35.515 0h-31.524v-26.609h31.524zm-34.747 0h-30.753v-26.609h30.753zm-33.972 0h-33.84v-26.609h33.84zm-37.059 0h-30.754v-26.609h30.754zm-33.972 0H133.2v-26.609h29.207zm-32.43 0h-33.84v-26.609h33.84zm-37.063 0H75.02v-26.609h17.894zm354.875 35.258h13.418v24.398h-13.418zm-3.218 24.398H411.5v-24.398h33.071zm-36.289 0h-31.524v-24.398h31.524zm-34.747 0h-25.75a90 90 0 0 0-6.886-10.512v-13.886h32.64v24.398zm-35.863-14.504a90.4 90.4 0 0 0-9.867-9.894h9.867zm-146.183 14.504h-25.864v-24.398h30.754v16.617a90 90 0 0 0-4.89 7.777zm8.109-24.398h11.867a90.5 90.5 0 0 0-11.867 12.316zm-37.191 24.398H133.2v-24.398h29.207zm-32.43 0h-33.84v-24.398h33.84zm-37.063 0H75.02v-24.398h17.894zm354.875 90.492h13.418v24.95h-13.418zm-3.218 24.953H411.5v-24.949h33.071zm-36.289 0h-31.524v-24.949h31.524zm-34.747 0h-14.812v-24.949h14.812zm87.672 34.153v22.863a262 262 0 0 1-3.797 4.293h-9.621v-27.16h13.418zm-16.636 27.16H411.5v-27.16h33.071zm-36.289 0h-31.524v-27.16h31.524zm-34.747 0h-14.812v-27.16h14.812zm-192.984 0h-14.926v-27.16h14.926zm-18.144 0H133.2v-27.16h29.207zm-32.43 0h-33.84v-27.16h33.84zm-37.063 0H75.313c-.094-.105-.196-.211-.293-.316v-26.84h17.894v27.16zm318.582 40.125v-7.629h10.563a261 261 0 0 1-10.563 7.629m-27.07 16.219h-7.672v-23.848h31.524v9.809a258 258 0 0 1-23.852 14.035zm-10.891 0h-14.812v-23.848h14.812zm-192.984 0h-14.926v-23.848h14.926zm-18.144 0h-13a256 256 0 0 1-16.207-9.168v-14.68h29.21v23.848zm-50.637-23.848h18.207v12.676a257 257 0 0 1-18.207-12.676m-18.856-93.809H75.02v-24.949h17.894zm3.219-24.953h33.84v24.95h-33.84zm37.063 0h29.207v24.95h-29.207zm32.425 0h14.926v24.95h-14.926zm282.168-57.445h13.418v26.609h-13.418zm-3.218 26.609H411.5v-26.609h33.071zm-36.289 0h-31.524v-26.609h31.524zm-34.747 0h-14.812v-24.558a92 92 0 0 0-.215-2.047h15.027v26.609zm-192.984 0h-14.926v-26.609h15.141q-.117 1.02-.215 2.047zm-18.144 0H133.2v-26.609h29.207zm-32.43 0h-33.84v-26.609h33.84zm-37.063 0H75.02v-26.609h17.894zm335.571 59.008h32.722v27.715h-32.722zm-3.219 27.715h-31.523v-27.715h31.523zm-34.742 0h-31.801v-27.715h31.801zm-209.973 0h-30.367v-27.715h30.367zm-33.59 0h-31.523v-27.715h31.523zm-34.746 0H75.02v-27.715h37.195zm316.27-83.504h32.722v24.399h-32.722zm-3.219 24.403h-31.523v-24.399h31.523zm-34.742 0h-31.801v-24.399h31.801zm-209.973 0h-30.367v-24.399h30.367zm-33.59 0h-31.523v-24.399h31.523zm-34.746 0H75.02v-24.399h37.195zm316.27-84.059h32.722v26.609h-32.722zm-3.219 26.609h-31.523v-26.609h31.523zm-34.742 0h-31.098v-26.609h31.098zm-34.321-8.949a89 89 0 0 0-6.699-17.656h6.699zm-175.269 8.949H150.18v-26.609h30.754zm3.219-26.609h5.617a89 89 0 0 0-5.617 13.871zm-37.192 26.609h-31.523v-26.609h31.523zm-34.746 0H75.02v-26.609h37.195zm316.27-86.265h32.722v28.816h-32.722zm-3.219 28.82h-31.523v-28.816h31.523zm-34.742 0h-31.098v-28.816h31.098zm-34.321 0H323.84q-.351-.269-.703-.531v-28.281h33.07v28.816zm-36.289-2.836a89.2 89.2 0 0 0-29.98-13.199v-12.781h29.98v25.984zm-33.199-13.891a89.5 89.5 0 0 0-17.074-1.64c-5.727 0-11.328.543-16.762 1.578V308.84h33.84v12.093zm-37.062.622a89 89 0 0 0-29.981 13.058V308.84h29.981zm-33.2 15.339q-.507.375-1.015.762h-31.281V308.84h32.296zm-35.519.766H150.18v-28.816h30.754zm-33.973 0h-31.523v-28.816h31.523zm-34.746 0H75.02v-28.816h37.195zm37.965-88.477h28.785v26.606H150.18zm-3.219 26.61h-31.523v-26.606h31.523zm-34.746 0H75.02v-26.606h37.195zm137.438 0h-32.356v-26.606h32.356zm3.218-26.61h33.84v26.606h-33.84zm37.063 0h31.863v26.606h-31.863zm100.59 26.61h-30.653v-26.606h30.653zm3.215-26.61h31.523v26.606h-31.523zm34.746 0h32.722v26.606h-32.722zm-37.961-33.046h-30.653v-27.649h30.653zm3.215-27.649h31.523v27.649h-31.523zm34.746 0h32.722v27.649h-32.722zm-178.832 27.649h-32.356v-26.813h32.356zm3.218-26.813h33.84v26.813h-33.84zm37.063 0h31.863v26.813h-31.863zm-214.914-.836h37.195v27.649H75.02zm40.418 0h31.523v27.649h-31.523zm34.742 0h28.785v27.649H150.18zM358.723 609.98v-8.379h19.285a254 254 0 0 1-19.285 8.379m-202.898-8.383h24.726v10.411a256 256 0 0 1-24.726-10.411m272.66-32.125v-24.214h25.968a262 262 0 0 1-25.968 24.214m-3.219 1.84h-31.523v-26.054h31.523zm-34.742 0h-31.801v-26.054h31.801zm-209.973 0h-30.367v-26.054h30.367zm-33.59 0h-31.523v-26.054h31.523zm-34.746 0h-4.574a261 261 0 0 1-28.262-26.054h32.84v26.054zm70.66-168.722c4.141-44.992 41.469-80.407 86.653-80.407 45.183 0 82.504 35.415 86.648 80.407v208.336a259 259 0 0 1-9.008 3.187V409.035c-3.73-43.902-37.355-78.457-78.058-78.457s-74.328 34.555-78.063 78.457v206.481a246 246 0 0 1-8.172-2.704zm71.856 10.437c4.117-1.57 4.453-7.465 11.41-11.676 6.066 1.219 9.75 4.7 13.57 9.59l-.23 1.785q4.787-2.313 4.535 2.95-1.524 4.289-5.156 1.839c-3.18 12.442-11.653 14.688-16.848 11.793-3.559-1.98-5.844-4.734-6.246-8.437-.113-1.07-.504-2.145-.629-3.332-2.996.101-4.254.851-5.199-.652-1.164-1.86 1.758-4.774 4.265-1.942l.528-1.914zm11.722 9.176-1.855-1.309c1.074-.433 2.359-.48 3.437 0zm.313 1.035c1.609 0 2.922.711 2.922 1.586 0 .871-1.313 1.586-2.922 1.586s-2.922-.711-2.922-1.586c0-.871 1.313-1.586 2.922-1.586m1.34-13.387-.067 7.934 1.098-3.656c.984.965 2.797-.828 2.957 2.898l1.168-2.691 2.199-.137c-1.851-3.004-4.226-4.656-7.359-4.348zm-10.391 4.485c.695-2.664 3.356-4.024 7.363-4.485l-.824 1.93.274 3.793q-2.577.312-2.957-1.586c-1.215-.984-2.567.231-3.852.344zm-45.668-10.926q-1.472-3.281-4.812-5.168l-3.989 1.879c1.743 1 3.563 3.293 4.993 6.168z" style="stroke:none;fill-rule:evenodd;fill:#fffdfd"/><path d="M524.493 377.887c-2.313 58.648-24.118 112.394-59.047 154.839v-15.14c-.825-.961-1.684-1.781-2.536-2.383.825-.5 1.692-1.25 2.536-2.129v-27.68c-.825-.961-1.684-1.781-2.536-2.382.825-.5 1.692-1.25 2.536-2.129v-24.637c-.825-.961-1.684-1.781-2.536-2.383.825-.5 1.692-1.25 2.536-2.129v-22.355c-.825-.961-1.684-1.781-2.536-2.383.825-.5 1.692-1.25 2.536-2.129v-25.398c-.825-.961-1.684-1.782-2.536-2.383.825-.5 1.692-1.25 2.536-2.129v-25.399c-.825-.96-1.684-1.781-2.536-2.386.825-.5 1.692-1.25 2.536-2.129v-23.371c-.825-.961-1.684-1.782-2.536-2.387.825-.5 1.692-1.25 2.536-2.129v-26.668c-.825-.965-1.684-1.785-2.536-2.387.825-.5 1.692-1.25 2.536-2.129v-26.16c-.825-.961-1.684-1.781-2.536-2.386.825-.5 1.692-1.25 2.536-2.129V250.66c-.825-.965-1.684-1.781-2.536-2.387.825-.496 1.692-1.25 2.536-2.129v-26.16c-.825-.961-1.684-1.781-2.536-2.386.825-.5 1.692-1.25 2.536-2.129v-27.282c-1.008-2.656-2.266-3.57-6.016-4.238h-28.617c-.488.543-.91 1.082-1.231 1.609a12 12 0 0 0-1.382-1.609h-34.774c-.488.543-.91 1.082-1.23 1.609a12 12 0 0 0-1.383-1.609h-27.199c-3.786.602-7.571 3.606-7.516 7.09v24.769c.773.778 1.555 1.442 2.309 1.895-.778.547-1.555 1.277-2.309 2.129v25.957c.773.777 1.555 1.441 2.309 1.894-.778.547-1.555 1.278-2.309 2.129v24.715h-30.195v-24.488c-.817-.949-1.664-1.758-2.508-2.352.816-.492 1.672-1.23 2.508-2.097v-25.532c-.817-.945-1.664-1.757-2.508-2.351.816-.492 1.672-1.231 2.508-2.098v-25.707c-.817-.945-1.664-1.758-2.508-2.351.816-.493 1.672-1.231 2.508-2.098v-24.926c-.727-4.031-1.453-2.879-4.778-4.32h-14.773c-.883.851-1.645 1.719-2.149 2.551-.605-.86-1.429-1.723-2.402-2.551h-29.496c-.887.851-1.645 1.719-2.148 2.551-.606-.86-1.43-1.723-2.403-2.551h-30.187c-.883.851-1.645 1.719-2.149 2.551-.605-.86-1.429-1.723-2.402-2.551h-11.285c-4.27.141-6.375 1.586-7.621 4.32v24.371c1 1.102 2.035 2.055 3.023 2.653-1.023.722-2.051 1.757-3.023 2.98v24.524c1 1.101 2.035 2.054 3.023 2.652-1.023.723-2.051 1.762-3.023 2.98v24.352c1 1.101 2.035 2.055 3.023 2.652-1.023.723-2.051 1.758-3.023 2.981v23.863h-30.196v-25.277a13 13 0 0 0-1.793-1.567c.586-.351 1.188-.832 1.793-1.394v-27.024c-.589-.609-1.191-1.144-1.793-1.566.586-.352 1.188-.828 1.793-1.391v-27.082c-.254-3.238-.933-4.574-3.941-5.281H152.5c-.488.543-.91 1.082-1.23 1.609a12 12 0 0 0-1.383-1.609h-34.773c-.489.543-.911 1.082-1.231 1.609a12 12 0 0 0-1.383-1.609H75.82c-3.468.281-5.035 2.043-5.34 5.281v25.305c1.11 1.273 2.282 2.391 3.39 3.062-1.151.813-2.307 2.024-3.39 3.45v24.164c1.11 1.273 2.282 2.39 3.39 3.062-1.151.813-2.307 2.024-3.39 3.449v22.645c1.11 1.273 2.282 2.391 3.39 3.062-1.151.813-2.307 2.024-3.39 3.45v24.164c1.11 1.273 2.282 2.39 3.39 3.062-1.151.813-2.307 2.024-3.39 3.449v24.672c1.11 1.274 2.282 2.391 3.39 3.063-1.151.812-2.307 2.023-3.39 3.449v21.375c1.11 1.273 2.282 2.391 3.39 3.063-1.151.812-2.307 2.023-3.39 3.449v23.402c1.11 1.274 2.282 2.395 3.39 3.063-1.151.812-2.307 2.019-3.39 3.445v23.402c1.11 1.274 2.282 2.395 3.39 3.063-1.151.812-2.307 2.019-3.39 3.445v20.359c1.11 1.274 2.282 2.395 3.39 3.063-1.151.812-2.307 2.019-3.39 3.445v22.641c1.11 1.273 2.282 2.394 3.39 3.062-1.151.813-2.307 2.02-3.39 3.446v25.683c1.11 1.274 2.282 2.395 3.39 3.063-1.151.812-2.307 2.019-3.39 3.445v16.508c-36.105-42.813-58.718-97.488-61.078-157.266l.809-368.769h514.571l-.223 368.769zM190.7 40.859c.164-7.484 2.539-7.39 6.175-3.508 2.289 10.239 14.684 4.067 17.289 28.832 9.774-6.617 13.758-3.875 23.325 3.497q9.134-15.64 19.535-7.286c-10.301-17.07 5.121-22.214 11.422-37.566 1.859-6.238 3.945-5.031 4.91 1.543 2.23 12.394 17.726 13.742 6.699 37.187q15.207-10.389 25.363 3.204 11.709-7.965 22.157 1.75l4.078-2.914c-4.18-16.586 7.629-18.856 14.601-27.653 3.235-4.883 5.207-6.293 5.918 4.293 4.258 7.567 7.891 7.875.469 27.438 11.121-.684 15.437.308 19.824 13.41 4.274-1.832 8.551-3.09 12.828-4.078q-12.357-20.596 14.426-24.774c5.953-.148 6.223-5.664 11.231-6.129-2.625 9.547-1.411 18.465-13.411 27.7 6.762 16-1.203 27.371-23.906 34.113 6.508 4.597 6.699 8.777.582 12.535 2.805 6.363.399 10.414-4.371 13.41 3.649 6.047-.066 10.199-6.414 9.621-26.047-5.433-61.992-8.582-100.41-7.703-30.844.703-63.281 3.902-93.485 11.445-6.652 1.071-10.152-2.855-6.703-9.57-4.035-2.996-6.23-7.047-4.371-13.41-7.496-2.453-9.203-6.488 1.821-13.992-3.887-1.715-8.719-3.856-12.61-6.414-10.762 1.086-16.738-3.985-15.719-18.051 2.153-3.75 2.727-7.817 2.356-11.563l-4.422-8.574c-3.234-6.414-4.793-12.828-4.664-19.242 4.336 1.914 5.359 6.934 16.328 8.746 8.102 2.926 9.938 9.172 4.566 23.152 8.844-7.187 16.422 2.672 24.004 3.375 4.801-8.597 10.133-14.043 16.618-12.535l1.164-2.621c-8.547-9.426 2.793-19.172 2.769-27.652zm5.937 359.867c7.879-37.457 37.422-65.433 72.492-65.433 38.699 0 70.672 34.07 74.219 77.363v202.68c-24.168 7.586-49.836 11.691-76.434 11.691-24.976 0-49.14-3.625-72.007-10.351v-181.5c.839.254 2.035.316 3.648.172-.859 3.628-.457 9.421 1.199 13.05-3.625 13.106 8.102 24.313 20.25 14.481 5.934.761 12.731 1.551 17.946-.203l2.652 3.437c1.871 8.481 6.312 18.719 5.617 25.442-4.785 5.246-7.23 10.054-6.246 14.222-2.383 5.137-2.606 9.559-.66 13.254-2.899 5.602-3.098 11.57-.586 17.895-.656 5.41-.184 10.687.601 16.101-5.628 1.973-6.523 6.969-1.335 14.715 1.277 4.629-1.633 5.879.992 8.613.773 9.387-.481 14.723 2.722 25.871q1.201 3.954-1.91 5.207c-4.75 6.508-5.347 10.309-1.804 13.571 8.644 2.941 13.109 6.578 20.089 1.851 8.11-6.64 7.43-12.953-.535-18.996-3.351-3.293.442-10.383.66-15.574 3.45-4.637 1.766-9.277 2.649-13.918 1.547-1.895 1.609-4.039.992-6.297 3.871-5.433 3.23-11.711 1.324-18.226 1.719-4.223 1.547-8.172 2.317-12.262l.218-4.578 2.41 1.144 2.989 2.887c3.504 6.691 5.301 10.176 10.656 15.652-6.863 3.012-7.145 8.063-2.695 14.055.398 2.672.152 4.695-1.524 5.289-.16 2.371 2.129 3.067 2.192 4.77-3.672 6.152-4.782 13.011-5.176 20.062.875 6.856-15.668 14.606 2.625 20.566 14.805 3.411 27.926 4.473 31.379-7.941-6.297-1.215-14.602 3.711-19.559-3.531q-1.225-1.595.668-4.086c4.649-6.766 8.926-13.684 10.59-21.649a28.8 28.8 0 0 0 4.813-9.535c6.968-10.461 4.05-16.722-.918-22.109q-2.608-2.398-3.434-5.691l.312-.911c-1.988-4.859-3.64-6.816-4.734-12.011l1.656-1.325c-.035-4.578-.336-8.832-1.566-11.918 2.16-.972 5.16-5.523 6.207-8.957q-.822-2.828-2.981-2.98c1.067-.805 1.844-1.91 2.317-3.313 6.641-4.312 12.312-9.23 16.57-15.031 6.418-3.687 10.399-6.48 10.379-9.722 4.313-6.325 1.61-9.266-3.754-10.043-2.472-.946-4.328-2.711-5.91-4.848-3.144-4.102-6.219-7.34-9.664-9.945-2.762-7.61-7.34-14.387-15.91-17.004l-2.442-5.039c-2.398 2.359-5.339 2.382-8.82.058-1.191-2.488 1.535-4.98-.328-8.285 2.668-.805 3.758-4.047 4.625-8.101l2.66-2.172-1.457-1.711c-1.125-17.699-10.457-23.055-23.394-27.453-8.649 7.527-14.93 14.75-17.223 24.711-1.91 2.933-2.699 5.644-1.004 7.863.477 1.992-2.152 3.586 2.648 6.527 3.02 1.004 1.989 5.524 2.981 8.281l-5.633 4.637c-4.715.121-7.808 2.137-9.277 3.34-5.149-.297-10.637.668-15.242 2.625l-3.18.484-1.469-2.113c.348-2.648.473-6.652-.98-9.305 4.007-5.461-1.985-12.812-2.981-19.222l1.988-1.656 3.778 4.035 11.82-.918-4.484-4-2.828-4.086 49.711-37.781a63 63 0 0 0 9.941-9.61c8.598-10.898 3.402-13.148-11.93-4.308L214.7 390.996l-2.184-3.031-1.027-6.875-6.68 8.691 1.598 5.387c-2.762.32-5.184 1.656-6.864 5.226a7.2 7.2 0 0 0-2.91.328zm-1.73 28.399v-12.602c.929.821 2.144 1.305 3.648 1.438l-.66 6.629c-1.211 1.703-2.223 3.215-2.985 4.531zm95.628 36.383q2.997 3.128 6.52 4.691c-1 4.172-.605 7.691.129 11.863-2.281 1.825-4.238 4.082-5.477 7.301l-2.214 2.606q-1.497-1.694-3.52-2.344c2.227-6.313 3.641-13.07 3.777-20.078l.782-4.039" style="stroke:none;fill-rule:evenodd;fill:#ec2a32"/></svg>