<svg xmlns="http://www.w3.org/2000/svg"><title>Herb Okuniew</title><path d="M3.035 22.617h732.08v524.715c3.04 281.83-337.751 279.632-362.681 367.043C343.709 828.793.054 829.974 3.035 547.332z" style="fill:#000;fill-opacity:1;fill-rule:nonzero;stroke:none;stroke-width:3.54330707;stroke-linecap:round;stroke-linejoin:round;stroke-miterlimit:4;stroke-dasharray:none;stroke-dashoffset:0;stroke-opacity:1" transform="translate(-3.055 -22.912)scale(1.01301)"/><path d="M21.094 44.625v498.813C18.26 812.132 344.974 811.016 372.28 892.375c23.7-83.098 347.67-81.016 344.782-348.937V44.625zm174.344 20.438 23.687 34.718-15.969 11.75c33.67 21.614 69.922 40.033 92.313 87.563 17.734 37.645 8.71 84.136-28.875 111.937-31.602 23.39-86.407 22.659-117.094-7.312-32.071-31.323-44.11-75.136-44.406-126.031l-28.813 17.78-23.875-33.374 40.469-28.875 36.469 7.5c8.342 2.266 6.508 9.38 8.469 14.687-5.79 47.541 42.753 138.172 93.406 104.969 63.997-41.97-38.137-115.62-73.219-124.969-2.54-2.678-8.878-3.665-6.062-8.687L158.094 90zm341.968 0L574.781 90l6.157 36.719c2.815 5.022-3.555 6.01-6.094 8.687-35.082 9.349-137.185 82.998-73.188 124.969 50.653 33.203 99.165-57.428 93.375-104.969 1.96-5.308.158-12.421 8.5-14.687l36.469-7.5 40.469 28.875-23.907 33.375-28.812-17.781c-.296 50.895-12.304 94.708-44.375 126.03-30.687 29.972-85.523 30.703-117.125 7.313-37.585-27.801-46.61-74.292-28.875-111.937 22.391-47.53 58.642-65.949 92.313-87.563l-15.938-11.75zM304.25 297.905c8.761 3.732 17.52 7.246 26.281 1.531 5.915 7.197 13.235 12.43 24.75 11.625 3.12 7.693 6.087 15.573 13.906 17 2.343 6.614 1.832 14.837 9.282 18.532-.758 9.135.555 16.544 4.625 21.656 10.485-20.69 18.978-44.866 38.656-49.469 29.716 24.815 61.849 47.467 106.688 58.75-15.731 13.975-30.723 24.23-44.844 30.156 79.902 36.998 123.353-7.532 169.312-46.406 14.871 35.201 6.939 63.411-4.656 90.469 14.045 28.406 26.36 56.915 10.063 87.344-51.554-36.477-102.798-64.746-152.313-50.25 13.251 13.352 1.987 44.405-6.156 71.125-21.646-4.862-43.292-21.713-64.938-38.657-39.145 17.852-83.058 21.446-128.343 20.875-5.399 27.509-25.403 30.7-42.532 38.657-39.685 37.323-48.991-16.63-61.844-37.875-6.049-.42-11.755-2.528-17-6.969-32.794-5.002-49.142-22.64-72.656-34.781-19.304-12.404-10.166-20.086-3.875-23.969-5.284-5.48-12.42-9.268-9.281-22.406-4.052-15.171 3.708-19.928 13.156-23.188 19.585-10.385 39.166-26.85 58.75-41.75 13.604-12.871 32.145-23.715 63.375-29.375-6.692-2.86-15.587-4.938-13.906-10.844 12.226-4.96 27.618-7.64 34.781-16.218 6.512-3.141 13.556-4.72 18.563-12.375 10.981-4.936 22.283-8.926 30.156-23.188m56.563 260.063c1.237-.03 2.49-.002 3.718.031 46.733 1.258 80.722 34.172 87.75 75.188 8.873 51.784-10.282 87.683-25.5 124.687l19.813.469.469 42-44.875.968-26.094-26.562c-5.185-2.504-.548-6.975 0-10.625 23.4-27.76 64.936-146.6-11.563-144.344-60.538 1.8-48.416 103.88-16.437 139.532 1.433 5.474 7.008 10.27 1.469 16.906l-25.594 27.031-49.719-.5.469-41.031 33.781-1.938c-28.912-41.887-44.158-84.672-35.812-128.718 7.735-40.829 49.774-72.15 88.125-73.094" style="fill:#004797;fill-opacity:1;fill-rule:nonzero;stroke:none;stroke-width:3.3684566;stroke-linecap:round;stroke-linejoin:round;stroke-miterlimit:4;stroke-dasharray:none;stroke-dashoffset:0;stroke-opacity:1" transform="translate(-3.055 -22.912)scale(1.01301)"/><path d="m277.131 764.62 34.712-1.245 11.202 11.916c4.229.673 2.55-.818 2.694-2.869-13.943-10.512-22.106-28.01-33.483-48.115l16.662-6.468-4.877-23.166-15.323.86c-.924-8.071-.888-16.066.382-26.332l14.15 1.402 5.003-26.96-12.062-4.547c3.215-8.8 5.074-12.75 7.9-17.052l11.663 9.327 15.932-17.38-10.621-11.587c3.42-3.455 7.554-7.297 13.035-11.104 17.504 14.126 38.224 17.456 66.142-3.38 4.643 2.952 9.277 5.841 15.558 12.83l-12.661 11.792 13.161 15.295 12.63-7.724c4.925 7.816 5.742 14.184 7.217 20.621l-11.688 1.972 1.42 26.882 13.315-.28c.605 4.825.757 10.103-.126 16.415l-12.755-.28-3.863 26.554 16.124 5.711c-5.358 14.315-10.091 26.755-16.606 39.67l-15.827 11.79c-1.138 3.363-.72 4.636 2.617 4.269 4.904-6.048 9.978-11.078 15.624-12.679l19.031.406.203 35.957-37.58.33c-8.674-7.15-16.954-12.138-27.036-27.037 17.469-30.064 30.691-60.35 32.893-94.581 3.366-52.331-29.159-60.109-46.894-59.911-39.6.44-51.028 39.35-47.751 71.407 3.67 35.896 19.583 59.28 31.336 82.602-6.388 11.934-17.958 21.276-27.036 31.864l-44.417-.965zm10.709-48.155c-36.162-90.416 10.062-150.181 76.696-156.192 90.312 7.19 97.957 98.65 76.137 155.632 2.236-50.986 8.003-102.841-41.921-132.692-23.772 17.904-45.827 17.35-66.686 3.932-42.237 29.763-51.427 75.564-44.226 129.32m30.572-112.017 9.266 8.893-11.754 13.668-10.014-7.252c3.651-5.945 7.47-11.206 12.502-15.309m99.135-.912c3.738 4.03 7.242 8.409 10.063 13.813l-9.995 7.473-10.388-12.301zm9.49 41.587 9.842-1.64c1.346 7.44 2.36 14.992 2.331 22.89l-10.66.274zm-132.48-2.834 10.979 3.309-4.1 21.869-11.482-2.187c.188-6.856 2.125-14.761 4.603-22.99m-5.15 56.615 11.755-1.64 4.1 18.041-12.418 4.302zm139.689-10.115 9.797 1.021-3.208 22.717-10.416-2.416zm227.151-497.08-29.166-18.863-2.356-16.184c-3.08-2.974-2.56-.79-3.85.808 5.406 16.603 2.074 35.622-.118 58.619l-17.363-4.243s-11.42 15.013-9.273 21.782c1.393 4.389 13.053 8.073 13.053 8.073-3.866 7.145-8.475 13.677-15.396 21.364l-10.797-9.254-19.543 19.232 7.282 10.637c-7.677 5.372-11.462 7.544-16.243 9.452l-4.218-14.327-23.015 5.12 2.069 15.582c-4.782.873-10.372 1.653-17.046 1.634-6.255-21.605-21.331-36.204-56.15-35.118-2.115-5.079-4.258-10.102-5.404-19.428l17.134-2.413-2.026-20.076-14.777-.903c.44-9.229 3.418-14.916 5.897-21.037l10.71 5.079 14.234-22.848L468.811 177c2.268-4.302 5.167-8.715 9.506-13.383l10.295 7.536 18.376-19.552-9.944-13.919c12.592-8.663 23.598-16.148 36.337-23.003l19.726-.598c2.859-2.104 3.246-3.387.3-4.997-7.485 2.148-14.525 3.364-20.07 1.442L517.972 99.29l20.43-29.59 30.993 21.259c3.014 10.828 6.944 19.66 6.673 37.648-31.54 14.635-60.711 32.04-82.125 58.837-32.736 40.967-10.427 65.7 5.103 75.816 33.233 21.644 61.364-5.704 80.442-31.827 10.788-14.77 22.555-65.326 21.235-85.007 12.071-6.123 26.907-7.153 40.413-10.631l35.854 26.234zm-36.362 33.337c-22.153 94.826-94.277 117.336-152.339 84.092-69.907-57.627-23.781-136.974 26.745-171.18-31.04 40.51-65.471 79.711-41.65 132.778 29.742-1.059 47.503 12.03 56.913 34.976 51.67-.2 85.44-32.479 110.33-80.666m-89.226 74.305-2.502-12.597 17.465-4.47 4.054 11.68c-6.399 2.781-12.542 4.906-19.017 5.387m-81.781-56.04c-.756-5.444-1.12-11.042-.336-17.088l12.474-.399 1.468 16.034zm16.043-39.525-9.006-4.293c3.16-6.87 6.653-13.64 11.201-20.098l8.896 5.883zm106.968 78.212-7.104-9 15.888-15.577 8.158 8.37c-4.08 5.511-10.197 10.881-16.942 16.207m36.651-43.455-10.575-5.389 6.975-17.137 12.642 3.588zm-120.293-71.728-7.445-6.449 15.643-16.783 7.153 7.947zM76.614 191.71l29.166-18.863 2.356-16.184c3.08-2.974 2.56-.79 3.85.808-5.406 16.603-2.074 35.622.118 58.619l17.363-4.243 9.273 21.782-13.053 8.073c3.866 7.145 8.475 13.677 15.397 21.364l10.796-9.254 19.543 19.232-7.281 10.637c7.676 5.372 11.461 7.544 16.242 9.452l4.218-14.327 23.015 5.12-2.069 15.582c4.782.873 10.372 1.653 17.046 1.634 6.255-21.605 21.331-36.204 56.15-35.118 2.115-5.079 4.258-10.102 5.404-19.428l-17.134-2.413 2.027-20.076 14.777-.903c-.44-9.229-3.419-14.916-5.897-21.037l-10.71 5.079-14.235-22.848L264.05 177c-2.268-4.302-5.167-8.715-9.506-13.383l-10.295 7.536-18.376-19.552 9.944-13.919c-12.592-8.663-23.598-16.148-36.337-23.003l-19.726-.598c-2.859-2.104-3.245-3.387-.3-4.997 7.485 2.148 14.525 3.364 20.07 1.442L214.89 99.29 194.458 69.7l-30.992 21.259c-3.014 10.828-6.944 19.66-6.673 37.648 31.54 14.635 60.596 31.787 82.01 58.584 32.736 40.967 9.662 66.07-4.988 76.069-32.71 22.322-65.689-4.91-81.366-33.064-17.554-31.525-16.584-57.921-20.31-83.77-12.072-6.123-26.908-7.153-40.414-10.631L55.872 162.03zm36.363 33.337c22.152 94.826 94.276 117.336 152.338 84.092 69.907-57.627 23.781-136.974-26.745-171.18 31.04 40.51 65.471 79.711 41.65 132.778-29.742-1.059-47.503 12.03-56.913 34.976-51.67-.2-85.44-32.479-110.33-80.666m89.225 74.305 2.502-12.597-17.465-4.47-4.053 11.68c6.398 2.781 12.541 4.906 19.016 5.387m81.781-56.04c.756-5.444 1.12-11.042.336-17.088l-12.474-.399-1.468 16.034zm-16.043-39.525 9.006-4.293c-3.16-6.87-6.653-13.64-11.201-20.098l-8.895 5.883zm-106.967 78.212 7.104-9-15.889-15.577-8.158 8.37c4.08 5.511 10.197 10.881 16.943 16.207m-36.652-43.455 10.575-5.389-6.974-17.137-12.643 3.588zm120.293-71.728 7.445-6.449-15.643-16.783-7.153 7.947z" style="fill:#fff;fill-opacity:1;fill-rule:evenodd;stroke:none;stroke-width:1px;stroke-linecap:butt;stroke-linejoin:miter;stroke-opacity:1" transform="translate(-3.055 -22.912)scale(1.01301)"/><path d="M241.342 360.21c-3.75-3.587-9.347-3.767-11.88-7.79 7.56-3.275 16.68-3.822 22.396-10.322 3.305 5.13 3.391 11.18 3.116 17.332zm17.917-1.364c.774-7.53-.333-15.06-2.143-22.59 6.214-.876 11.766-4.066 16.943-8.57.876 9.487.217 20.124-.973 31.16zm17.722-.195c1.196-12.28 1.957-24.386.584-35.638 8.374-1.573 16.748-8.275 25.122-16.554-4.916 18.26-10.167 36.183-17.138 52.387zm13.437-.195c7.913-19.018 12.61-37.118 16.943-55.113 6.621 3.59 13.243 3.166 19.864 2.142-9.152 17.918-15.2 36.603-23.954 53.75zm18.696 1.169c6.305-18.861 13.382-37.08 22.785-53.36 4.803 4.833 10.99 8.129 20.449 7.79-11.807 13.964-22.273 29.27-30.965 46.349zm17.137 1.168c7.797-16.416 17.391-30.777 28.823-43.039 1.279 5.99 5.346 10.432 11.295 13.827-9.718 8.97-19.035 19.545-28.238 30.576zm16.943 1.753c7.03-10.529 15.11-19.589 24.733-26.485.01 5.483 2.522 9.577 7.206 12.463l-15.97 16.164zm20.644 3.116 11.88-13.437c-.516 5.128-1.045 10.256.973 15.385zm23.82 3.588c9.815-15.694 14.474-33.965 32.409-45.599l8.29 6.595c-12.687 13.102-23.113 30.113-34.67 40.7zm9.044 2.45c12.636-11.218 21.364-29.05 33.54-39.381l7.725 6.971c-10.865 8.71-21.543 26.022-32.597 35.236zm12.813 4.145c9.65-9.584 19.091-24.402 31.09-35.99l6.784 5.653c-11.33 8.596-21.237 21.46-31.656 32.786zm9.61 3.58c9.397-12.02 18.926-23.91 31.278-32.974l6.972 4.333c-10.65 7.984-20.69 19.03-30.336 32.033zm11.305 5.276c8.802-13.734 18.966-24.061 29.772-32.786l8.479 4.71c-11.035 8.298-21.239 19.502-31.279 31.28zm10.929 4.899c8.848-10.668 19.237-23.434 30.902-30.902l7.725 3.769c-12.894 8.87-18.826 20.453-31.467 31.278zm10.363 5.653c10.461-9.188 18.589-22.65 31.279-31.279l6.595 3.392c-10.137 8.736-16.766 21.687-29.96 31.844zm11.871 5.652c10.937-7.81 18.862-22.397 29.206-31.843l8.29 3.203c-10.444 10.344-18.268 23.31-31.466 30.902zm9.61 3.957c14.288-10.088 19.529-19.693 31.467-30.336l12.059 4.145c-11.975 11.85-25.133 19.564-38.062 28.076zm86.483 19.814c31.275-9.643 61.895-26.053 91.22-55.848 4.558 11.128 8.946 34.446 5.133 49.629-7.241 28.84-5.068 34.327-50.93 33.399-1.914-6.47 9.932-3.478 11.17-7.447-3.451-3.593-12.413.996-14.893-2.233 15.26-5.02 37.777-3.212 43.19-17.5-16.97 13.962-34.949 10.775-52.498 14.893-.93-8.966 39.874-12.33 51.287-31.286-9.518 5.617-19.488 12.816-32.835 17.43-10.62 3.67-17.857 9.435-32.205 4.199 14.54-3.852 61.297-29.702 61.41-36.883-12.521 10.185-24.188 16.793-35.688 23.042-15.276 8.302-25.671 15.325-44.361 8.605m44.587 29.108c31.853-.74 39.291-2.045 51.734 22.885 4.474 14.462 11.407 35.807.961 55.58-39.192-27.51-73.989-46.216-107.697-51.926 38.949-17.518 96.925 20.279 97.697 30.002-5.119-19.564-39.619-27.719-64.426-39.81 17.349-8.061 61.12 13.61 66.734 23.463-3.136-10.688-31.278-23.303-54.041-30.386 6.478-7.486 35.846.995 40.963 4.423-8.014-10.874-36.844-7.24-31.925-14.231m-488.335 22.894c4.614-1.492-4.935-20.943-15.421-19.104-2.644 10.907 12.087 20.964 15.421 19.104m-14.5-23.478c11.277 4.259 17.626 11.598 18.183 22.557 6.367 4.608 14.88 8.49 20.298 18.477 2.289 2.246 5.502 2.966 3.138 7.072-6.215-.07-2.62-3.497-4.288-5.69-7.791-10.58-13.455-14.786-21.094-16.72-2.793.997-4.864.88-7.03.314-9.087 4.752-7.18 10.003-1.612 15.421 3.665 3.157 9.303 3.905 16.342-2.532 5.943 6.946-4.51 26.771 27.433 14.333-2.14-1.953-5.632-18.32-5.796-21.698-.081-1.657-37.838-42.243-37.058-47.416-6.08.887-10.728 3.72-8.517 15.882m110.86-13.72c-2.218 32.695-9.042 62.48-21.948 88.425 27.425-16.97 35.716-69.632 21.948-88.425m-6.331 17.517c6.807-25.065-2.874-46.265-32.078-62.89-20.374 15.21-40.93 32.783-60.779 41.153 11.24 21.812 27.406 33.18 35.244 48.116 4.533 8.46 10.197 16.363 9.707 25.325-8.365 1.614-16.205 2.93-20.681 2.321 11.23 10.434 23.804 17.063 38.409 17.939 22.54-5.752 24.382-34.142 29.756-58.67-4.476-28.94-12.19-54.714-42.208-58.668 31.996.303 36.922 23.165 42.63 45.374m-21.506-2.436c0 11.015-8.909 19.956-19.886 19.956s-19.885-8.94-19.885-19.956 8.909-19.956 19.885-19.956 19.886 8.94 19.886 19.956m-3.757-.184c0 9.127-7.267 16.534-16.22 16.534-8.954 0-16.22-7.407-16.22-16.534s7.266-16.533 16.22-16.533 16.22 7.407 16.22 16.533m-10.938-.55c0 3.593-2.94 6.51-6.563 6.51s-6.563-2.917-6.563-6.51 2.94-6.51 6.563-6.51 6.563 2.917 6.563 6.51m9.967-62.121c44.004-44.258 198.644-25.772 239.262-6.6 42.58 18.998 82.502 42.723 136.133 42.076 20.554 2.547 35.52 10.683 47.027 22.277-17.626 24.384-58.218 27.237-95.705 33.001-30.515 3.946-52.83 17.11-74.303 33.973-26.562 18.74-86.23 23.812-128.263 22.545-19.178-19.494-33.514-19.69-53.315-26.445-12.937 20.746-30.225 22.652-44.435 26.855-7.032.686-13.727.784-15.676-7.425 19.285-10.93 33.645-37.418 33.585-75.225 112.206-1.925 342.123-1.198 340.985-4.804.126-4.851-227.744.582-341.859.63-4.935-25.693-28.31-49.593-43.436-60.858m72.344 123.516c-8.835 10.054-16.728 20.078-33.204 23.036 14.002 6.38 26.069 25.145 43.995 38.392 4.726.289 7.667-2.395 10.792-4.773-15.983-8.953-26.523-19.975-40.382-32.645-1.25-1.036.305-3.712 2.906-1.037 13.081 12.651 22.736 23.519 39.55 32.437 5.048.107 8.083-2.2 10.377-5.396-12.85-5.406-28.688-18.585-44.203-30.921-.813-1.8.782-1.672 2.49-1.453 13.528 11.755 26.949 23.678 43.166 31.129 4.257-1.302 8.222-3.13 9.753-9.339-18.907-7.158-34.516-16.672-49.598-26.563-.402-1.391-.978-2.89 1.868-2.283 15.201 10.883 31.5 20.304 50.013 26.771 1.968-3.442 3.197-7.007 1.868-10.999-15.702-2.757-31.683-9.14-47.938-19.092-.446-1.528-.33-2.634 2.282-1.868 12.768 8.422 27.979 14.89 46.279 18.885-14.66-13.373-33.177-19.617-50.014-24.28m-44.954 27.104c3.393-.105 6.787-1.086 10.18-2.545 3.251 19.403 11.527 33.78 17.818 50.143-16.168-9.82-19.822-30.709-27.999-47.598m13.108 1.273c8.07-1.577 26.47 26.431 41.489 34.744-2.208 3.685-4.644 6.732-8.527 5.727-7.601-12.528-15.35-21.96-23.29-27.363 6.682 8.436 13.666 13.854 19.727 28.508-3.352 6.024-7.172 6.42-11.2 4.327-6.066-15.155-12.133-22.787-18.199-45.943m278.992-.089c1.357 4.49.581 8.524-2.355 10.042-23.603-7.556-39.871-22.447-58.268-35.209l8.058-6.818c17.977 11.49 34.59 25.856 52.565 31.985m-49.837-33.35c16.521 11.55 32.204 24.46 51.201 31.986 2.87-2.032 3.07-4.955 1.984-8.306-14.154-5.226-26.286-13.23-37.812-22.067 12.852 7.685 25.704 15.465 38.556 20.58 2.16-1.603 3.451-3.858 2.975-7.44-16.249-4.861-30.115-13.892-43.763-23.306-4.692 2.851-9.702 5.702-13.141 8.554m15.869-9.793c11.647 9.503 25.15 18.151 41.035 22.44 1.188-.949 2.98-2.466 1.612-5.332-11.434-3.928-21.303-10.046-31.118-16.24 10.373 5.312 20.125 11.057 30.498 13.513 2.327-1.734 4.158-6.036-.496-8.678-10.549-1.186-17.202-6.382-26.159-12.026-4.54 1.535-11.16 4.461-15.372 6.323m18.224-7.067c6.233 5.64 14.605 9.51 23.803 10.538 2.156-2.5 2.753-5.447-1.984-9.918-4.121-3.738-9.161-2.426-13.885-2.851z" style="fill:#fc0;fill-opacity:1;fill-rule:evenodd;stroke:none;stroke-width:1px;stroke-linecap:butt;stroke-linejoin:miter;stroke-opacity:1" transform="translate(-3.055 -22.912)scale(1.01301)"/></svg>