<svg viewBox="-23.43 -27.35 632.52 738.47"><title>Herb Glinojeck</title><path d="M5.695 4.75h551.766v474.629c-3.031 76.723-37.566 105.739-125.328 132.414-59.828 18.184-138.332 34.465-149.621 62.481-20.809-39.863-139.731-46.332-198.535-79.551-36.942-20.867-76.758-37.945-78.278-115.344V4.75" style="stroke:none;fill-rule:evenodd;fill:#fffdfd"/><path d="M9.496 10.45H121.56c49.383 142.449 113.961 105.414 190.887 168.093 165.124 114.77 59.968 208.555 241.218 310.547l-4.894 45.024-41.637 46.144c-95.187-22.234-134.57-60.605-160.207-110.89-18.703-36.692-28.762-79.731-54.418-127.477-51.664-84.969-124.676-83.254-185.691-132.613-38.2-30.902-61.805-91.25-99.211-149.438l1.898-49.382" style="stroke:none;fill-rule:evenodd;fill:#11b1ee"/><path d="M358.004 29.254h35.348l9.285 94.688 60.629.258v16.511h35.09v15.739h34.054v16.769H343.805L357.992 29.25" style="stroke:none;fill-rule:evenodd;fill:#ec2a32"/><path d="M0 0h562.211v476.739c-3.09 78.355-41.25 114.859-130.672 142.105-60.961 18.571-131.054 26.328-149.484 64.922-21.203-48.699-141.32-50.394-203.215-85.32C41.168 577.188 2.539 558.778.004 476.739V0zm12.344 13.297h539.422v461.164c-2.965 74.547-36.731 106.43-122.524 132.348-58.488 17.668-135.238 29.797-146.273 57.02-20.344-38.735-139.391-42.25-196.88-74.528-36.112-20.277-72.257-39.636-73.741-114.84V13.297zm45.531 407.762c0-33.219 8.027-61.094 24.144-83.566 19.247-26.84 46.954-39.367 83.055-39.367 26.098 0 47.68 5.035 66.704 22.003 15.16 13.524 23.503 36.336 28.421 59.028h-40.613c-2.25-10.485-6.156-24.223-15.687-31.332-11.95-8.91-26.442-13.617-42.051-12.313-17.5 1.457-36.934 8.676-47.652 25.192-9.77 15.05-14.633 33.218-14.633 54.472s5.715 37.696 13.492 54.473c8.281 17.867 32.152 27.004 54.508 26.062 14.863-.625 30.074-5.777 41.32-18.136 9.973-10.957 13.262-29.91 13.262-40.438h-63.489v-35.836H261.5v127.465h-30.57l-1.625-24.937c-6.422 9.054-14.039 13.91-25.016 20.203-10.972 6.293-23.324 9.371-36.289 9.683-29.992.719-55.144-7.414-76.398-28.222-22.165-21.696-33.727-51.836-33.727-84.442zm475.551-246.457H342.422L356.781 27.77h38.004l9.082 95.344h60.789v16.609l34.86-.066.015 15.679h33.883v19.266zm-1.992-2.324h-61.543v-14.543h61.543zm-64.004 0h-58.352l-1.574-14.543h59.93v14.543zm-60.199-17.008-1.442-13.34h32.907v13.34zm-1.711-15.805-1.578-14.582h58.41v14.582zm91.843 2.465.012 13.34H441.16v-13.34zm-91.558 30.348h-60.727l13.934-142.113h33.172l8.859 94.718 4.758 47.391" style="stroke:none;fill-rule:evenodd;fill:#222"/></svg>