<!-- Created with Inkscape (http://www.inkscape.org/) -->
<svg role="img" viewBox="0 0 500 580"
   xmlns="http://www.w3.org/2000/svg"
   id="svg2"
   version="1.0"><title>Herb Annopol</title>
  <metadata
     id="metadata7">
    <rdf:RDF>
      <cc:Work
         rdf:about="">
        <dc:format>image/svg+xml</dc:format>
        <dc:type
           rdf:resource="http://purl.org/dc/dcmitype/StillImage" />
        <dc:title>Annopol_COA</dc:title>
        <dc:creator>
          <cc:Agent>
            <dc:title />
          </cc:Agent>
        </dc:creator>
        <cc:license
           rdf:resource="" />
      </cc:Work>
    </rdf:RDF>
  </metadata>
  <defs
     id="defs5" />
  <sodipodi:namedview
     borderopacity="1.0"
     bordercolor="#666666"
     pagecolor="#ffffff"
     id="base"
     borderlayer="top"
     showguides="true" />
  <g
     id="layer1"
     style="display:inline" />
  <g
     id="layer5"
     style="display:inline">
    <path
       style="color:#000000;fill:#e40500;fill-opacity:1;fill-rule:evenodd;stroke:none;stroke-width:2.00000215;stroke-linecap:butt;stroke-linejoin:miter;marker:none;marker-start:none;marker-mid:none;marker-end:none;stroke-miterlimit:4;stroke-dasharray:none;stroke-dashoffset:0;stroke-opacity:1;visibility:visible;display:inline;overflow:visible"
       d="M 497.49337,331.31563 C 497.49337,467.95003 386.56421,578.87916 249.92981,578.87916 C 113.29542,578.87916 2.3662709,467.95003 2.3662709,331.31563 L 4.2072859,2.530058 L 4.2072859,2.530058 L 496.68208,2.530058 L 497.49337,331.31563 z "
       id="path10311" />
  </g>
  <g
     id="layer3"
     style="display:inline">
    <g
       id="g13000"
       transform="translate(-5,0)">
      <path
         transform="translate(2.5,1)"
         d="M 313 84 A 62 62 0 1 1  189,84 A 62 62 0 1 1  313 84 z"
         id="path12868"
         style="color:#000000;fill:#dfa947;fill-opacity:1;fill-rule:nonzero;stroke:#000000;stroke-width:2;stroke-linecap:butt;stroke-linejoin:miter;marker:none;marker-start:none;marker-mid:none;marker-end:none;stroke-miterlimit:4;stroke-dasharray:none;stroke-dashoffset:0;stroke-opacity:1;visibility:visible;display:inline;overflow:visible" />
      <path
         id="path10197"
         d="M 244,48.5 C 230.51787,51.408619 215.098,79.216775 208.78694,92.083054 C 202.90794,104.06848 203.41389,120.40891 206,138.5 C 194.73557,151.49709 181.46022,156.30054 181,186 C 180.67338,194.88441 173.15341,205.39773 172,218 C 166.41293,239.87129 163.2555,261.47852 167.87028,268.11005 C 175.51808,279.1001 174.23082,287.06879 178.5,290.5 L 167,325.5 C 151.86638,357.3998 125.25442,345.55558 140.5,381 C 147.5162,404.42499 144.54663,418.75802 167.50917,417.84632 C 173.67268,417.60161 177.38716,426.67427 182,434.5 C 170.02466,435.19915 157.50854,444.42962 165,466.5 C 147.88172,459.7878 147.10619,500.2712 167.5,492.5 C 153.25643,514.11171 193.09694,532.82998 200.5,511.5 C 198.8164,532.49038 237.25232,543.71342 245.5,524 C 244.44723,545.04667 306.57878,543.56178 304.5,515 C 316.27257,539.5174 372.2282,510.9718 357.5,489.5 C 394.10405,507.16319 404.21131,441.46809 373.5,443.5 C 395.54923,419.59598 373.11104,415.32584 365.73329,405.29824 C 358.61302,395.62061 358.22205,383.40111 346,378.5 C 336.23039,348.7383 361.44279,335.98066 317,298 C 325.1667,276.83336 340.42789,261.34231 341.5,234.5 C 356.44774,201.5 326.19063,201 311,176 C 310.87937,164.66667 311.98608,153.33333 305.5,142 C 313.68103,99.442021 290.59514,63.485988 268.5,49 C 257.62294,45.219474 251.01714,47.133968 244,48.5 z "
         style="color:#000000;fill:#ffffff;fill-opacity:1;fill-rule:nonzero;stroke:#000000;stroke-width:2;stroke-linecap:butt;stroke-linejoin:miter;marker:none;marker-start:none;marker-mid:none;marker-end:none;stroke-miterlimit:4;stroke-dasharray:none;stroke-dashoffset:0;stroke-opacity:1;visibility:visible;display:inline;overflow:visible" />
      <path
         id="path8411"
         d="M 190.91883,470.39845 C 187.04567,479.11306 179.73834,488.06997 180.31223,494.44008 C 188.07565,503.76805 207.01229,491.56911 219.91021,476.76241 L 214.96046,461.20606 L 190.91883,470.39845 z "
         style="color:#000000;fill:#dfa947;fill-opacity:1;fill-rule:nonzero;stroke:#000000;stroke-width:2;stroke-linecap:butt;stroke-linejoin:miter;marker:none;marker-start:none;marker-mid:none;marker-end:none;stroke-miterlimit:4;stroke-dasharray:none;stroke-dashoffset:0;stroke-opacity:1;visibility:visible;display:inline;overflow:visible" />
      <path
         id="path9286"
         d="M 294.15642,473.22688 C 302.406,484.22296 316.31243,488.73581 327.39044,488.78323 C 332.87904,475.54351 314.39957,462.16972 309.71277,445.64971 L 283.54982,454.13499 L 294.15642,473.22688 z "
         style="color:#000000;fill:#dfa947;fill-opacity:1;fill-rule:nonzero;stroke:#000000;stroke-width:2;stroke-linecap:butt;stroke-linejoin:miter;marker:none;marker-start:none;marker-mid:none;marker-end:none;stroke-miterlimit:4;stroke-dasharray:none;stroke-dashoffset:0;stroke-opacity:1;visibility:visible;display:inline;overflow:visible" />
      <path
         id="path4004"
         d="M 191,446 C 175.78541,437.71911 183.22497,428.58482 186,381 C 209.65082,365.25361 213.97949,331.66144 248,342 C 258.13378,339.017 265.4763,333.94056 265,323 C 287.94049,330.93614 309.33567,322.21106 322,347 C 323.47306,364.53759 321.22371,379.59358 330,402 C 329.51147,421.91093 340.82429,437.42119 344,454 C 337.07312,469.10968 315.38892,461.08339 297,460 C 295.20309,464.33333 293.2142,468.66667 294,473 C 278.81859,478.32154 243.74762,480.73143 220,477 C 212.32484,468.35033 199.92712,469.14575 187,471 C 190.2194,462.66667 190.31287,454.33333 191,446 z "
         style="color:#000000;fill:#4f8e57;fill-opacity:1;fill-rule:nonzero;stroke:#000000;stroke-width:2;stroke-linecap:butt;stroke-linejoin:miter;marker:none;marker-start:none;marker-mid:none;marker-end:none;stroke-miterlimit:4;stroke-dasharray:none;stroke-dashoffset:0;stroke-opacity:1;visibility:visible;display:inline;overflow:visible" />
      <path
         id="path6647"
         d="M 310.41988,296.45018 C 296.55318,290.19673 271.16116,295.27296 244.65895,288.67201 C 242.65095,272.0754 231.07818,256.57291 224.15285,241.29585 C 227.93999,241.09196 230.88936,239.21251 233.34524,236.3461 C 213.0376,198.26034 222.11385,179.43934 222.73864,152.9075 C 238.25659,172.44956 267.56112,169.41209 278.60007,151.49329 C 297.13935,161.72467 303.41237,204.57395 315.36962,232.81057 C 317.2047,233.82918 318.97219,234.94919 318.19805,239.88164 C 337.89924,260.13442 349.87072,257.29501 365.57421,265.33748 C 373.44666,270.24104 375.38688,317.86773 366.28131,316.95628 C 342.23968,316.38507 318.69805,279.47359 294.15642,267.4588 C 290.71418,278.16139 305.39592,285.19456 310.41988,296.45018 z "
         style="color:#000000;fill:#4f8e57;fill-opacity:1;fill-rule:nonzero;stroke:#000000;stroke-width:2;stroke-linecap:butt;stroke-linejoin:miter;marker:none;marker-start:none;marker-mid:none;marker-end:none;stroke-miterlimit:4;stroke-dasharray:none;stroke-dashoffset:0;stroke-opacity:1;visibility:visible;display:inline;overflow:visible" />
      <path
         id="path6627"
         d="M 361,291.5 C 360.69703,285.16667 360.85886,278.83333 364.5,272.5 C 377.58664,275.17043 414.06888,261.66778 400.5,278 C 418.48959,280.61707 421.95066,283.44226 420.5297,288.41474 C 421.83261,291.1558 422.63672,294.04537 418.79055,296.55473 C 417.41612,299.54945 414.9309,302.39754 409.73857,301.44822 C 407.03643,302.93904 409.69477,305.4716 393.5,303.5 C 377.80417,299.5 371.45562,293.5 361,291.5 z "
         style="opacity:1;color:#000000;fill:#e6af9b;fill-opacity:1;fill-rule:nonzero;stroke:#000000;stroke-width:2;stroke-linecap:butt;stroke-linejoin:miter;marker:none;marker-start:none;marker-mid:none;marker-end:none;stroke-miterlimit:4;stroke-dasharray:none;stroke-dashoffset:0;stroke-opacity:1;visibility:visible;display:inline;overflow:visible" />
      <path
         id="path6641"
         d="M 402.5,286 C 407.5,287 413.83333,288 421.5,289"
         style="fill:none;fill-opacity:0.75;fill-rule:evenodd;stroke:#000000;stroke-width:1px;stroke-linecap:butt;stroke-linejoin:miter;stroke-opacity:1" />
      <path
         id="path6643"
         d="M 398.5,291.5 C 405.16667,293.16667 411.83333,294.83333 418.5,296.5"
         style="fill:none;fill-opacity:0.75;fill-rule:evenodd;stroke:#000000;stroke-width:1px;stroke-linecap:butt;stroke-linejoin:miter;stroke-opacity:1" />
      <path
         id="path6645"
         d="M 394,297 C 398.75715,297.34763 403.91447,298.49561 410,301.5"
         style="fill:none;fill-opacity:0.75;fill-rule:evenodd;stroke:#000000;stroke-width:1px;stroke-linecap:butt;stroke-linejoin:miter;stroke-opacity:1" />
      <path
         id="path4879"
         d="M 249.60869,247.65981 L 243.24473,235.639 C 248.26836,227.00668 244.48157,208.36754 253.85133,205.23341 C 257.75166,204.87743 261.72836,203.13759 264.62693,199.34729 C 267.75934,195.25119 272.15837,192.27934 274.94322,194.4197 C 277.1763,193.15138 280.10108,194.97872 280.03225,197.40758 C 281.82598,197.99644 285.02752,200.30692 282.22187,204.76824 C 289.18717,206.91735 276.78197,231.99609 267.99347,237.76032 L 249.60869,247.65981 z "
         style="color:#000000;fill:#e6af9b;fill-opacity:1;fill-rule:nonzero;stroke:#000000;stroke-width:2;stroke-linecap:butt;stroke-linejoin:miter;marker:none;marker-start:none;marker-mid:none;marker-end:none;stroke-miterlimit:4;stroke-dasharray:none;stroke-dashoffset:0;stroke-opacity:1;visibility:visible;display:inline;overflow:visible" />
      <path
         id="path6629"
         d="M 252.5,214 C 258.52041,208.66667 262.14613,204.33333 265.5,199"
         style="fill:none;fill-opacity:0.75;fill-rule:evenodd;stroke:#000000;stroke-width:1px;stroke-linecap:butt;stroke-linejoin:miter;stroke-opacity:1" />
      <path
         id="path6639"
         d="M 400.5,277.5 C 383.63604,277.58579 383.16667,287.5 375.5,286.5"
         style="fill:none;fill-opacity:0.75;fill-rule:evenodd;stroke:#000000;stroke-width:1px;stroke-linecap:butt;stroke-linejoin:miter;stroke-opacity:1" />
      <path
         id="path6631"
         d="M 263.5,213.5 L 263.5,213.5 z "
         style="fill:none;fill-opacity:0.75;fill-rule:evenodd;stroke:#000000;stroke-width:1px;stroke-linecap:butt;stroke-linejoin:miter;stroke-opacity:1" />
      <path
         id="path6633"
         d="M 275.5,193.5 C 271.33333,203.35444 266.16667,209.01567 262,215"
         style="fill:none;fill-opacity:0.75;fill-rule:evenodd;stroke:#000000;stroke-width:1px;stroke-linecap:butt;stroke-linejoin:miter;stroke-opacity:1" />
      <path
         id="path6635"
         d="M 267,219.5 C 272.05595,212.33333 275.73695,204.66667 279.5,197.5"
         style="fill:none;fill-opacity:0.75;fill-rule:evenodd;stroke:#000000;stroke-width:1px;stroke-linecap:butt;stroke-linejoin:miter;stroke-opacity:1" />
      <path
         id="path6637"
         d="M 270.5,224.5 C 274.99138,219.15804 278.82336,211.15669 282,204.5"
         style="fill:none;fill-opacity:0.75;fill-rule:evenodd;stroke:#000000;stroke-width:1px;stroke-linecap:butt;stroke-linejoin:miter;stroke-opacity:1" />
      <path
         id="path6649"
         d="M 190.21172,444.9426 C 196.032,429.83986 193.2068,412.63789 200.81833,404.63752"
         style="fill:none;fill-opacity:0.75;fill-rule:evenodd;stroke:#000000;stroke-width:1px;stroke-linecap:butt;stroke-linejoin:miter;stroke-opacity:1" />
      <path
         id="path6651"
         d="M 325.26912,447.06393 C 321.94839,426.06553 327.40043,413.83989 325.97623,388.37406"
         style="fill:none;fill-opacity:0.75;fill-rule:evenodd;stroke:#000000;stroke-width:1px;stroke-linecap:butt;stroke-linejoin:miter;stroke-opacity:1" />
      <path
         id="path6653"
         d="M 279.30718,392.6167 C 279.16087,420.89283 269.68733,434.18075 271.44322,465.15581"
         style="fill:none;fill-opacity:0.75;fill-rule:evenodd;stroke:#000000;stroke-width:1px;stroke-linecap:butt;stroke-linejoin:miter;stroke-opacity:1" />
      <path
         id="path6655"
         d="M 296.98485,459.79185 C 272.53374,459.09376 255.80157,468.52908 292.74221,474.64109"
         style="fill:none;fill-opacity:0.75;fill-rule:evenodd;stroke:#000000;stroke-width:2;stroke-linecap:butt;stroke-linejoin:miter;stroke-miterlimit:4;stroke-dasharray:none;stroke-opacity:1" />
      <path
         id="path7530"
         d="M 262.33662,384.83853 C 266.96702,431.19994 248.06633,457.16329 247.67507,406.32845 C 247.5928,395.78724 242.93621,381.54495 240.41631,362.21111"
         style="fill:none;fill-opacity:0.75;fill-rule:evenodd;stroke:#000000;stroke-width:1px;stroke-linecap:butt;stroke-linejoin:miter;stroke-opacity:1" />
      <path
         id="path7532"
         d="M 244.65895,388.37406 C 245.06347,368.43129 252.21838,366.50681 247.48737,340.99791"
         style="fill:none;fill-opacity:0.75;fill-rule:evenodd;stroke:#000000;stroke-width:1px;stroke-linecap:butt;stroke-linejoin:miter;stroke-opacity:1" />
      <path
         id="path7534"
         d="M 265.16504,324.02735 C 277.37652,335.43464 278.08631,350.67582 279.30718,365.74665"
         style="fill:none;fill-opacity:0.75;fill-rule:evenodd;stroke:#000000;stroke-width:1px;stroke-linecap:butt;stroke-linejoin:miter;stroke-opacity:1" />
      <path
         id="path7536"
         d="M 299.10617,408.88016 C 296.90721,377.94691 311.97052,354.64915 303.34881,329.6842"
         style="fill:none;fill-opacity:0.75;fill-rule:evenodd;stroke:#000000;stroke-width:1px;stroke-linecap:butt;stroke-linejoin:miter;stroke-opacity:1" />
      <path
         id="path9288"
         d="M 231.22392,184.72731 C 229.06975,175.12019 232.85598,169.47333 236.17366,163.51411"
         style="fill:none;fill-opacity:0.75;fill-rule:evenodd;stroke:#000000;stroke-width:1px;stroke-linecap:butt;stroke-linejoin:miter;stroke-opacity:1" />
      <path
         id="path9290"
         d="M 273.65032,180.48467 C 273.24068,173.26487 270.03131,167.44493 265.87215,162.09989"
         style="fill:none;fill-opacity:0.75;fill-rule:evenodd;stroke:#000000;stroke-width:1px;stroke-linecap:butt;stroke-linejoin:miter;stroke-opacity:1" />
      <path
         id="path9292"
         d="M 233.34524,236.3461 L 242.24473,234.72478 C 252.0015,250.41391 256.3208,269.46552 256.67976,290.79333"
         style="color:#000000;fill:none;fill-opacity:1;fill-rule:nonzero;stroke:#000000;stroke-width:2;stroke-linecap:butt;stroke-linejoin:miter;marker:none;marker-start:none;marker-mid:none;marker-end:none;stroke-miterlimit:4;stroke-dasharray:none;stroke-dashoffset:0;stroke-opacity:1;visibility:visible;display:inline;overflow:visible" />
      <path
         id="path9294"
         d="M 282.84271,170.58517 C 302.41335,217.73297 282.05775,234.14692 279.30718,249.78113 C 285.51188,254.10658 292.89758,256.07005 295.57063,267.4588"
         style="color:#000000;fill:none;fill-opacity:1;fill-rule:nonzero;stroke:#000000;stroke-width:2;stroke-linecap:butt;stroke-linejoin:miter;marker:none;marker-start:none;marker-mid:none;marker-end:none;stroke-miterlimit:4;stroke-dasharray:none;stroke-dashoffset:0;stroke-opacity:1;visibility:visible;display:inline;overflow:visible" />
      <path
         id="path9296"
         d="M 278.60007,249.07403 C 266.63577,251.33365 258.77246,252.22626 252.43712,252.60956"
         style="fill:none;fill-opacity:0.75;fill-rule:evenodd;stroke:#000000;stroke-width:1px;stroke-linecap:butt;stroke-linejoin:miter;stroke-opacity:1" />
      <path
         id="path9298"
         d="M 253.14423,257.55931 C 260.67383,257.58505 268.49875,257.02015 277.89297,253.31667"
         style="fill:none;fill-opacity:0.75;fill-rule:evenodd;stroke:#000000;stroke-width:1px;stroke-linecap:butt;stroke-linejoin:miter;stroke-opacity:1" />
      <path
         id="path9300"
         d="M 277.89297,263.21616 C 270.8219,276.33474 263.75083,283.55322 256.67976,287.25779"
         style="fill:none;fill-opacity:0.75;fill-rule:evenodd;stroke:#000000;stroke-width:1px;stroke-linecap:butt;stroke-linejoin:miter;stroke-opacity:1" />
      <path
         id="path9302"
         d="M 301.9346,255.43799 C 304.71185,244.72904 311.82645,242.69479 318.19805,239.17453"
         style="fill:none;fill-opacity:0.75;fill-rule:evenodd;stroke:#000000;stroke-width:1px;stroke-linecap:butt;stroke-linejoin:miter;stroke-opacity:1" />
      <path
         id="path9304"
         d="M 299.10617,223.61818 C 304.29162,231.85884 309.47707,231.81681 314.66252,232.81057"
         style="fill:none;fill-opacity:0.75;fill-rule:evenodd;stroke:#000000;stroke-width:1px;stroke-linecap:butt;stroke-linejoin:miter;stroke-opacity:1" />
      <path
         id="path9306"
         d="M 366.28131,267.4588 C 362.57047,273.00073 357.4166,286.97033 362.74578,316.24917"
         style="color:#000000;fill:none;fill-opacity:1;fill-rule:nonzero;stroke:#000000;stroke-width:2;stroke-linecap:butt;stroke-linejoin:miter;marker:none;marker-start:none;marker-mid:none;marker-end:none;stroke-miterlimit:4;stroke-dasharray:none;stroke-dashoffset:0;stroke-opacity:1;visibility:visible;display:inline;overflow:visible" />
      <path
         id="path9308"
         d="M 225,93.499999 C 228.88423,80.98972 238.78644,82.351612 248.99757,82.431723 C 261.07104,82.526445 270.37739,82.518368 272.5,95.999999 C 272.42502,106.62554 266.65436,144.99154 245.34857,138.55592 C 231.3783,134.33606 230.45074,125.56171 225,93.499999 z "
         style="color:#000000;fill:#e6af9b;fill-opacity:1;fill-rule:nonzero;stroke:#000000;stroke-width:2;stroke-linecap:butt;stroke-linejoin:miter;marker:none;marker-start:none;marker-mid:none;marker-end:none;stroke-miterlimit:4;stroke-dasharray:none;stroke-dashoffset:0;stroke-opacity:1;visibility:visible;display:inline;overflow:visible" />
      <path
         id="path9310"
         d="M 250.75514,117.22374 C 244.90094,118.90515 241.5264,118.2169 242.79424,113.84779 C 243.48349,111.47255 244.13266,105.92283 245.97697,101.68516"
         style="fill:none;fill-opacity:0.75;fill-rule:evenodd;stroke:#000000;stroke-width:1px;stroke-linecap:butt;stroke-linejoin:miter;stroke-opacity:1" />
      <path
         id="path9312"
         d="M 240.35565,125.62323 C 240.8709,125.03812 247.86826,126.61058 254.49778,125.18389"
         style="fill:none;fill-opacity:0.75;fill-rule:evenodd;stroke:#000000;stroke-width:1px;stroke-linecap:butt;stroke-linejoin:miter;stroke-opacity:1" />
      <path
         id="path9314"
         d="M 252.9698,102.8752 C 253.43703,100.28685 262.11417,99.72938 262.85097,103.47726 C 260.25087,106.74369 254.66209,105.47119 252.9698,102.8752 z "
         style="fill:#47464c;fill-opacity:1;fill-rule:evenodd;stroke:#000000;stroke-width:1px;stroke-linecap:butt;stroke-linejoin:miter;stroke-opacity:1" />
      <path
         id="path9316"
         d="M 231.17334,103.01273 C 231.35104,100.38857 239.91306,98.87354 241.0604,102.51676 C 238.83805,106.05106 233.14271,105.40534 231.17334,103.01273 z "
         style="fill:#47464c;fill-opacity:1;fill-rule:evenodd;stroke:#000000;stroke-width:1px;stroke-linecap:butt;stroke-linejoin:miter;stroke-opacity:1;display:inline" />
      <path
         id="path9318"
         d="M 229.39549,98.253175 C 232.57149,96.143814 237.75572,94.967751 241.4163,97.546068"
         style="fill:none;fill-opacity:0.75;fill-rule:evenodd;stroke:#000000;stroke-width:1px;stroke-linecap:butt;stroke-linejoin:miter;stroke-opacity:1" />
      <path
         id="path9320"
         d="M 251.84144,98.140543 C 255.71787,95.895055 261.56459,96.818042 265.30324,99.107483"
         style="fill:none;fill-opacity:0.75;fill-rule:evenodd;stroke:#000000;stroke-width:1px;stroke-linecap:butt;stroke-linejoin:miter;stroke-opacity:1" />
      <path
         id="path9322"
         d="M 240.7092,125.97678 C 244.71352,127.75598 250.07453,128.07237 253.79068,126.68389"
         style="fill:none;fill-opacity:0.75;fill-rule:evenodd;stroke:#000000;stroke-width:0.5;stroke-linecap:butt;stroke-linejoin:miter;stroke-miterlimit:4;stroke-dasharray:none;stroke-opacity:1" />
      <path
         id="path11945"
         d="M 190,267 C 195.40242,250.70322 211.78627,249.04837 224.5,242.5"
         style="color:#000000;fill:none;fill-opacity:1;fill-rule:nonzero;stroke:#000000;stroke-width:2;stroke-linecap:butt;stroke-linejoin:miter;marker:none;marker-start:none;marker-mid:none;marker-end:none;stroke-miterlimit:4;stroke-dasharray:none;stroke-dashoffset:0;stroke-opacity:1;visibility:visible;display:inline;overflow:visible" />
      <path
         id="path12820"
         d="M 186,248 C 197.16667,233.97417 208.33333,244.01088 219.5,243"
         style="fill:none;fill-opacity:0.75;fill-rule:evenodd;stroke:#000000;stroke-width:1px;stroke-linecap:butt;stroke-linejoin:miter;stroke-opacity:1" />
      <path
         id="path12822"
         d="M 206,240.5 C 202.25864,233.76867 206.90622,218.94011 202,209.5"
         style="fill:none;fill-opacity:0.75;fill-rule:evenodd;stroke:#000000;stroke-width:1px;stroke-linecap:butt;stroke-linejoin:miter;stroke-opacity:1" />
      <path
         id="path12824"
         d="M 265,323 C 243.77554,294.06681 190.82217,302.31114 179,290"
         style="color:#000000;fill:none;fill-opacity:1;fill-rule:nonzero;stroke:#000000;stroke-width:2;stroke-linecap:butt;stroke-linejoin:miter;marker:none;marker-start:none;marker-mid:none;marker-end:none;stroke-miterlimit:4;stroke-dasharray:none;stroke-dashoffset:0;stroke-opacity:1;visibility:visible;display:inline;overflow:visible" />
      <path
         id="path12826"
         d="M 196,323 C 207.60901,308.49371 222.56587,304.03094 239.5,305.5"
         style="color:#000000;fill:none;fill-opacity:1;fill-rule:nonzero;stroke:#000000;stroke-width:2;stroke-linecap:butt;stroke-linejoin:miter;marker:none;marker-start:none;marker-mid:none;marker-end:none;stroke-miterlimit:4;stroke-dasharray:none;stroke-dashoffset:0;stroke-opacity:1;visibility:visible;display:inline;overflow:visible" />
      <path
         id="path12828"
         d="M 163,345.5 C 170.96522,360.43552 173.19433,345.36757 170,318.5"
         style="fill:none;fill-opacity:0.75;fill-rule:evenodd;stroke:#000000;stroke-width:1px;stroke-linecap:butt;stroke-linejoin:miter;stroke-opacity:1" />
      <path
         id="path12830"
         d="M 186.5,380.5 C 149.10857,413.47676 176.73085,400.35901 182,426.5"
         style="color:#000000;fill:none;fill-opacity:1;fill-rule:nonzero;stroke:#000000;stroke-width:2;stroke-linecap:butt;stroke-linejoin:miter;marker:none;marker-start:none;marker-mid:none;marker-end:none;stroke-miterlimit:4;stroke-dasharray:none;stroke-dashoffset:0;stroke-opacity:1;visibility:visible;display:inline;overflow:visible" />
      <path
         id="path12832"
         d="M 331.5,419.5 C 331.80741,395.5 348.82714,371.5 321.5,347.5"
         style="color:#000000;fill:none;fill-opacity:1;fill-rule:nonzero;stroke:#000000;stroke-width:2;stroke-linecap:butt;stroke-linejoin:miter;marker:none;marker-start:none;marker-mid:none;marker-end:none;stroke-miterlimit:4;stroke-dasharray:none;stroke-dashoffset:0;stroke-opacity:1;visibility:visible;display:inline;overflow:visible" />
      <path
         id="path12834"
         d="M 344.5,452.5 C 353.28897,458.18827 362.51019,441.41846 374,444.5"
         style="color:#000000;fill:none;fill-opacity:1;fill-rule:nonzero;stroke:#000000;stroke-width:2;stroke-linecap:butt;stroke-linejoin:miter;marker:none;marker-start:none;marker-mid:none;marker-end:none;stroke-miterlimit:4;stroke-dasharray:none;stroke-dashoffset:0;stroke-opacity:1;visibility:visible;display:inline;overflow:visible" />
      <path
         id="path12838"
         d="M 327.5,479 C 366.4562,487.95303 368.53147,462.97562 375.5,442.5"
         style="color:#000000;fill:none;fill-opacity:1;fill-rule:nonzero;stroke:#000000;stroke-width:2;stroke-linecap:butt;stroke-linejoin:miter;marker:none;marker-start:none;marker-mid:none;marker-end:none;stroke-miterlimit:4;stroke-dasharray:none;stroke-dashoffset:0;stroke-opacity:1;visibility:visible;display:inline;overflow:visible" />
      <path
         id="path12840"
         d="M 309.5,295.5 L 317.5,298"
         style="color:#000000;fill:none;fill-opacity:1;fill-rule:nonzero;stroke:#000000;stroke-width:2;stroke-linecap:butt;stroke-linejoin:miter;marker:none;marker-start:none;marker-mid:none;marker-end:none;stroke-miterlimit:4;stroke-dasharray:none;stroke-dashoffset:0;stroke-opacity:1;visibility:visible;display:inline;overflow:visible" />
      <path
         id="path12842"
         d="M 341,234.5 C 335.34809,211.32043 302.02059,201.10699 295,173.5"
         style="color:#000000;fill:none;fill-opacity:1;fill-rule:nonzero;stroke:#000000;stroke-width:2;stroke-linecap:butt;stroke-linejoin:miter;marker:none;marker-start:none;marker-mid:none;marker-end:none;stroke-miterlimit:4;stroke-dasharray:none;stroke-dashoffset:0;stroke-opacity:1;visibility:visible;display:inline;overflow:visible" />
      <path
         id="path12844"
         d="M 231,284 C 235.09526,285.5714 239.11151,287.22183 244.5,287.5"
         style="color:#000000;fill:none;fill-opacity:1;fill-rule:nonzero;stroke:#000000;stroke-width:2;stroke-linecap:butt;stroke-linejoin:miter;marker:none;marker-start:none;marker-mid:none;marker-end:none;stroke-miterlimit:4;stroke-dasharray:none;stroke-dashoffset:0;stroke-opacity:1;visibility:visible;display:inline;overflow:visible" />
      <path
         id="path12846"
         d="M 223,152 C 228.52161,131.44409 210.06953,115.5507 225,92"
         style="color:#000000;fill:none;fill-opacity:1;fill-rule:nonzero;stroke:#000000;stroke-width:2;stroke-linecap:butt;stroke-linejoin:miter;marker:none;marker-start:none;marker-mid:none;marker-end:none;stroke-miterlimit:4;stroke-dasharray:none;stroke-dashoffset:0;stroke-opacity:1;visibility:visible;display:inline;overflow:visible" />
      <path
         id="path12848"
         d="M 273,96 C 279.52454,121.12015 271.27115,136.07338 280,152.5"
         style="color:#000000;fill:none;fill-opacity:1;fill-rule:nonzero;stroke:#000000;stroke-width:2;stroke-linecap:butt;stroke-linejoin:miter;marker:none;marker-start:none;marker-mid:none;marker-end:none;stroke-miterlimit:4;stroke-dasharray:none;stroke-dashoffset:0;stroke-opacity:1;visibility:visible;display:inline;overflow:visible" />
      <path
         id="path12850"
         d="M 286,144 C 277.09318,127.10827 292.96808,108.95892 275,82.5"
         style="fill:none;fill-opacity:0.75;fill-rule:evenodd;stroke:#000000;stroke-width:1px;stroke-linecap:butt;stroke-linejoin:miter;stroke-opacity:1" />
      <path
         id="path12852"
         d="M 288,132.5 C 287.14674,143.06703 297.8966,145.64967 296.5,120.5"
         style="fill:none;fill-opacity:0.75;fill-rule:evenodd;stroke:#000000;stroke-width:1px;stroke-linecap:butt;stroke-linejoin:miter;stroke-opacity:1" />
      <path
         id="path12854"
         d="M 287,121 C 290.34397,112.30425 286.5923,100.77025 283.5,89.5 C 287.48998,96.850027 293.62009,100.63318 294,114"
         style="fill:none;fill-opacity:0.75;fill-rule:evenodd;stroke:#000000;stroke-width:1px;stroke-linecap:butt;stroke-linejoin:miter;stroke-opacity:1" />
      <path
         id="path12856"
         d="M 206.5,138 C 206.30658,144.26886 206.099,150.533 202,155.5"
         style="fill:none;fill-opacity:0.75;fill-rule:evenodd;stroke:#000000;stroke-width:1px;stroke-linecap:butt;stroke-linejoin:miter;stroke-opacity:1" />
      <path
         id="path12858"
         d="M 244,157 C 236.3946,156.2635 229.45439,153.86402 224.5,146.5"
         style="fill:none;fill-opacity:0.75;fill-rule:evenodd;stroke:#000000;stroke-width:1px;stroke-linecap:butt;stroke-linejoin:miter;stroke-opacity:1" />
      <path
         id="path12860"
         d="M 240.5,144.5 C 233.57307,141.48849 226.62738,138.60831 221,126.5"
         style="fill:none;fill-opacity:0.75;fill-rule:evenodd;stroke:#000000;stroke-width:1px;stroke-linecap:butt;stroke-linejoin:miter;stroke-opacity:1" />
      <path
         id="path12862"
         d="M 257.5,144.5 C 264.56542,141.22584 270.76509,132.7572 276.5,121.5"
         style="fill:none;fill-opacity:0.75;fill-rule:evenodd;stroke:#000000;stroke-width:1px;stroke-linecap:butt;stroke-linejoin:miter;stroke-opacity:1" />
      <path
         id="path12864"
         d="M 267,150.5 C 271.97388,147.48694 274.65786,143.32893 277,139"
         style="fill:none;fill-opacity:0.75;fill-rule:evenodd;stroke:#000000;stroke-width:1px;stroke-linecap:butt;stroke-linejoin:miter;stroke-opacity:1" />
      <path
         id="path12866"
         d="M 355.5,405 C 346.55627,399.47727 343.96779,389.60588 344.5,377.5"
         style="fill:none;fill-opacity:0.75;fill-rule:evenodd;stroke:#000000;stroke-width:1px;stroke-linecap:butt;stroke-linejoin:miter;stroke-opacity:1" />
    </g>
  </g>
  <g
     id="layer4"
     style="display:inline">
    <g
       id="g3997"
       transform="translate(-5.268782,0)"
       style="stroke:#000000;stroke-opacity:1;stroke-width:2;stroke-miterlimit:4;stroke-dasharray:none">
      <path
         id="path1366"
         d="M 386.0803,391.9096 C 372.44383,357.02566 406.33216,347.59757 403.05087,338.16948 C 382.3584,340.09676 370.55183,322.76621 408.70772,325.44156 C 420.37373,326.85827 434.05279,328.49154 448.3057,326.85577 C 466.38637,320.54155 466.37053,336.90224 456.08387,341.70501 C 452.50175,346.41906 449.42947,351.1331 453.25545,355.84715 C 456.56376,361.7024 463.75902,365.89181 454.66966,377.06035 C 452.7819,382.0101 450.38331,386.95985 453.96255,391.9096 C 463.69497,398.54358 460.64514,411.51435 448.3057,404.63752 C 442.35653,405.73242 438.42914,403.90039 433.45516,404.63752 C 411.33984,407.91493 415.21428,393.45951 431.33514,393.32381 C 433.20519,386.96814 435.01,380.50068 432.73039,377.27494 C 429.86534,373.2208 422.18793,373.46754 418.60618,376.22916 C 415.37688,378.71903 415.29306,385.46044 414.36457,394.03092 C 415.78439,401.49011 415.14294,405.29095 408.92469,404.63752 C 402.22186,403.93317 399.61466,402.49048 402.14752,393.31291 C 409.17848,376.84575 399.67005,363.5941 415.07168,341.70501 C 403.90162,361.83682 396.68995,377.27838 400.28992,391.57321 C 401.97075,398.24745 401.94519,395.77401 399.51533,404.63752 C 381.58124,404.51461 361.1346,404.17698 386.0803,391.9096 z "
         style="opacity:1;color:#000000;fill:#ffffff;fill-opacity:1;fill-rule:nonzero;stroke:#000000;stroke-width:2;stroke-linecap:butt;stroke-linejoin:miter;marker:none;marker-start:none;marker-mid:none;marker-end:none;stroke-miterlimit:4;stroke-dasharray:none;stroke-dashoffset:0;stroke-opacity:1;visibility:visible;display:inline;overflow:visible" />
      <path
         id="path2241"
         d="M 419.40011,361.50401 C 420.4418,347.44811 425.7854,346.89539 432.24935,341.87659 C 434.04457,351.48547 432.75017,356.78832 434.87067,361.504 C 429.21382,360.11631 425.05696,359.17272 419.40011,361.50401 z "
         style="opacity:1;color:#000000;fill:#e40500;fill-opacity:1;fill-rule:nonzero;stroke:#000000;stroke-width:2;stroke-linecap:butt;stroke-linejoin:miter;marker:none;marker-start:none;marker-mid:none;marker-end:none;stroke-miterlimit:4;stroke-dasharray:none;stroke-dashoffset:0;stroke-opacity:1;visibility:visible;display:inline;overflow:visible" />
      <path
         id="path3122"
         d="M 48.790368,351.60451 C 52.416093,395.72509 115.85743,359.4142 108.18734,387.66696 C 84.085225,405.16341 63.565948,382.88479 54.447222,373.52482 C 42.028023,364.24277 50.200283,396.14364 49.497475,410.29437 C 50.758571,414.71916 52.582898,412.04197 58.695177,412.38389 C 62.576687,412.60103 61.387513,402.55401 60.104076,391.20249 C 61.553527,398.68544 118.35239,430.47835 125.86501,377.06035 C 129.77393,358.75399 110.97808,343.33794 72.124892,353.72583 C 64.248787,355.65737 56.650383,323.74035 109.60155,342.41212 C 116.5759,349.40151 123.94341,358.16011 127.27922,348.77608 C 127.19357,309.34896 121.73117,316.21403 113.46864,318.87756 C 109.90173,320.02739 114.4849,328.3047 113.84419,329.6842 C 70.372359,308.79574 42.975429,336.7448 48.790368,351.60451 z "
         style="opacity:1;color:#000000;fill:#ffffff;fill-opacity:1;fill-rule:nonzero;stroke:#000000;stroke-width:2;stroke-linecap:butt;stroke-linejoin:miter;marker:none;marker-start:none;marker-mid:none;marker-end:none;stroke-miterlimit:4;stroke-dasharray:none;stroke-dashoffset:0;stroke-opacity:1;visibility:visible;display:inline;overflow:visible" />
    </g>
  </g>
  <g
     id="layer2"
     style="display:inline">
    <path
       style="color:#000000;fill:none;fill-opacity:1;fill-rule:evenodd;stroke:#000000;stroke-width:2.00000262;stroke-linecap:butt;stroke-linejoin:miter;marker:none;marker-start:none;marker-mid:none;marker-end:none;stroke-miterlimit:4;stroke-dasharray:none;stroke-dashoffset:0;stroke-opacity:1;visibility:visible;display:inline;overflow:visible"
       d="M 497.04869,331.31563 C 497.04869,467.95003 386.11953,578.87916 249.48513,578.87916 C 112.85074,578.87916 1.9876578,467.95001 1.9215879,331.31563 L 1.7626029,2.530058 L 498.2374,2.530058 L 497.04869,331.31563 z "
       id="path3989" />
  </g>
</svg>