<!-- Created with Inkscape (http://www.inkscape.org/) -->
<svg role="img" viewBox="-18.10 -21.29 536.19 623.88"
   xmlns="http://www.w3.org/2000/svg"
   id="svg2"
   version="1.0"><title>Herb Zbąszynek</title>
  <metadata
     id="metadata7">
    <rdf:RDF>
      <cc:Work
         rdf:about="">
        <dc:format>image/svg+xml</dc:format>
        <dc:type
           rdf:resource="http://purl.org/dc/dcmitype/StillImage" />
        <dc:title>Zbąszynek_COA</dc:title>
        <dc:creator>
          <cc:Agent>
            <dc:title />
          </cc:Agent>
        </dc:creator>
        <cc:license
           rdf:resource="http://web.resource.org/cc/PublicDomain" />
      </cc:Work>
      <cc:License
         rdf:about="http://web.resource.org/cc/PublicDomain">
        <cc:permits
           rdf:resource="http://web.resource.org/cc/Reproduction" />
        <cc:permits
           rdf:resource="http://web.resource.org/cc/Distribution" />
        <cc:permits
           rdf:resource="http://web.resource.org/cc/DerivativeWorks" />
      </cc:License>
    </rdf:RDF>
  </metadata>
  <defs
     id="defs5" />
  <sodipodi:namedview
     borderopacity="1.0"
     bordercolor="#666666"
     pagecolor="#ffffff"
     id="base"
     borderlayer="top"
     showguides="true" />
  <g
     id="layer1"
     style="display:inline" />
  <g
     id="layer5"
     style="display:inline">
    <path
       style="color:black;fill:#116ce4;fill-opacity:1;fill-rule:evenodd;stroke:none;stroke-width:2.00000215;stroke-linecap:butt;stroke-linejoin:miter;marker:none;marker-start:none;marker-mid:none;marker-end:none;stroke-miterlimit:4;stroke-dasharray:none;stroke-dashoffset:0;stroke-opacity:1;visibility:visible;display:inline;overflow:visible"
       d="M 497.49337,331.31563 C 497.49337,467.95003 386.56421,578.87916 249.92981,578.87916 C 113.29542,578.87916 2.4825082,467.94998 2.3662709,331.31563 L 2.0859656,1.8229512 L 496.68208,2.530058 L 497.49337,331.31563 z "
       id="path10311" />
  </g>
  <g
     id="layer4"
     style="display:inline">
    <g
       id="g7112"
       transform="translate(-6.39e-2,-7.5)" />
    <path
       style="opacity:1;color:#000000;fill:#f5fd50;fill-opacity:1;fill-rule:evenodd;stroke:#000000;stroke-width:2;stroke-linecap:butt;stroke-linejoin:miter;marker:none;marker-start:none;marker-mid:none;marker-end:none;stroke-miterlimit:4;stroke-dasharray:none;stroke-dashoffset:0;stroke-opacity:1;visibility:visible;display:inline;overflow:visible"
       d="M 141.42136,525.55278 C 159.07326,525.736 177.69369,525.67708 188.0904,527.6741 C 204.90968,528.1455 222.01196,528.61691 242.53763,529.08831 L 207.18229,513.53196 L 141.42136,525.55278 z "
       id="path3156" />
    <path
       style="opacity:1;color:#000000;fill:#f5fd50;fill-opacity:1;fill-rule:evenodd;stroke:#000000;stroke-width:2;stroke-linecap:butt;stroke-linejoin:miter;marker:none;marker-start:none;marker-mid:none;marker-end:none;stroke-miterlimit:4;stroke-dasharray:none;stroke-dashoffset:0;stroke-opacity:1;visibility:visible;display:inline;overflow:visible"
       d="M 205,474 C 208.82844,494.18873 204.17021,504.47635 192,506 C 154.72625,517.10229 135.61094,497.20954 134,528 C 148.12866,520.96698 160.43926,523.29229 189,520 C 182.16903,524.16667 179.16774,528.33333 179,532.5 C 198.12352,531.25242 206.18845,521.97388 214.03714,522.40126 C 228.01352,523.1623 233.37673,532.5038 249,532 C 249.75094,512.98106 230.02683,517.95104 223,501 L 222,473 C 227.16759,463.98576 202.42511,458.50148 205,474 z "
       id="path3152" />
    <path
       style="fill:#ffffff;fill-opacity:1;fill-rule:evenodd;stroke:#000000;stroke-width:2.5;stroke-linecap:butt;stroke-linejoin:miter;stroke-miterlimit:4;stroke-dasharray:none;stroke-opacity:1"
       d="M 250,228 C 202.4311,235.5611 169.29951,252.14553 143,273 C 170.83139,236.54104 204.82294,212.24154 218.32627,184.19919 C 278.04029,60.191155 132.65082,-19.676807 72,126 C 69.125089,131.06335 60.324531,128.15097 51.392826,143.65922 C 43.954326,156.5748 43.116396,190.83656 65,203 C 115.71784,195.15353 99.516967,159.5509 108,131 C 114.61454,96.909407 168.34332,74.076866 183.40419,95.759566 C 226.63977,158.00461 135.73314,210.11221 102,244 C 69.039364,262.85754 5.7898261,419.36756 178,436 C 192.10932,445.78137 191.01275,471.97451 205,475 C 211.66667,469.66667 218.33333,469.66667 225,475 C 240.33333,465.68883 238.66667,445.2694 250,437 L 250,228 z "
       id="path2270" />
    <path
       style="opacity:1;color:#000000;fill:none;fill-opacity:0.75;fill-rule:evenodd;stroke:#000000;stroke-width:2;stroke-linecap:butt;stroke-linejoin:miter;marker:none;marker-start:none;marker-mid:none;marker-end:none;stroke-miterlimit:4;stroke-dasharray:none;stroke-dashoffset:0;stroke-opacity:1;visibility:visible;display:inline;overflow:visible"
       d="M 143,272.5 C 129.28153,289.68964 125.4195,312.15057 133,334"
       id="path3145" />
    <path
       style="opacity:1;color:#000000;fill:#f5fd50;fill-opacity:1;fill-rule:evenodd;stroke:#000000;stroke-width:2;stroke-linecap:butt;stroke-linejoin:miter;marker:none;marker-start:none;marker-mid:none;marker-end:none;stroke-miterlimit:4;stroke-dasharray:none;stroke-dashoffset:0;stroke-opacity:1;visibility:visible;display:inline;overflow:visible"
       d="M 55,253 C 69.663091,235.09473 94.764183,184.82345 67,193 C 50.677398,181.37925 52.219866,186.86783 48.471391,203.42093 C 44.456526,221.15038 50.696627,250.24821 55,253 z "
       id="path3147" />
    <path
       style="opacity:1;color:#000000;fill:none;fill-opacity:0.75;fill-rule:evenodd;stroke:#000000;stroke-width:2;stroke-linecap:butt;stroke-linejoin:miter;marker:none;marker-start:none;marker-mid:none;marker-end:none;stroke-miterlimit:4;stroke-dasharray:none;stroke-dashoffset:0;stroke-opacity:1;visibility:visible;display:inline;overflow:visible"
       d="M 66,194 C 64.666667,214.04295 57.333333,228.62314 55,251"
       id="path3149" />
    <path
       style="opacity:1;color:#000000;fill:none;fill-opacity:0.75;fill-rule:evenodd;stroke:#000000;stroke-width:2;stroke-linecap:butt;stroke-linejoin:miter;marker:none;marker-start:none;marker-mid:none;marker-end:none;stroke-miterlimit:4;stroke-dasharray:none;stroke-dashoffset:0;stroke-opacity:1;visibility:visible;display:inline;overflow:visible"
       d="M 175.36248,435.75021 C 189.08986,437.63584 197.07235,438.81434 214.96046,437.16443"
       id="path3154" />
    <g
       id="g3225"
       style="fill:#ffffff;fill-opacity:1;display:inline"
       transform="matrix(1.527322,-0.731677,0.800293,1.702616,-352.1853,-315.6463)">
      <path
         id="path3227"
         d="M 160.51324,405.34462 C 183.3914,412.99942 196.23481,408.61253 210.01071,405.34462 C 196.73474,401.11427 192.54875,393.09644 158.39192,397.56645"
         style="opacity:1;color:#000000;fill:#ffffff;fill-opacity:1;fill-rule:evenodd;stroke:#000000;stroke-width:1.120489;stroke-linecap:butt;stroke-linejoin:miter;marker:none;marker-start:none;marker-mid:none;marker-end:none;stroke-miterlimit:4;stroke-dasharray:none;stroke-dashoffset:0;stroke-opacity:1;visibility:visible;display:inline;overflow:visible" />
      <path
         id="path3229"
         d="M 160.51324,401.10198 L 209.30361,405.34462"
         style="fill:#ffffff;fill-opacity:1;fill-rule:evenodd;stroke:#000000;stroke-width:0.5602445px;stroke-linecap:butt;stroke-linejoin:miter;stroke-opacity:1" />
    </g>
    <g
       id="g3231"
       style="fill:#ffffff;fill-opacity:1;display:inline"
       transform="matrix(1.57566,-0.620774,0.6767,1.755405,-304.9864,-335.2004)">
      <path
         id="path3233"
         d="M 160.51324,405.34462 C 183.3914,412.99942 196.23481,408.61253 210.01071,405.34462 C 196.73474,401.11427 192.54875,393.09644 158.39192,397.56645"
         style="opacity:1;color:#000000;fill:#ffffff;fill-opacity:1;fill-rule:evenodd;stroke:#000000;stroke-width:1.120489;stroke-linecap:butt;stroke-linejoin:miter;marker:none;marker-start:none;marker-mid:none;marker-end:none;stroke-miterlimit:4;stroke-dasharray:none;stroke-dashoffset:0;stroke-opacity:1;visibility:visible;display:inline;overflow:visible" />
      <path
         id="path3235"
         d="M 160.51324,401.10198 L 209.30361,405.34462"
         style="fill:#ffffff;fill-opacity:1;fill-rule:evenodd;stroke:#000000;stroke-width:0.5602445px;stroke-linecap:butt;stroke-linejoin:miter;stroke-opacity:1" />
    </g>
    <g
       id="g3237"
       style="fill:#ffffff;fill-opacity:1;display:inline"
       transform="matrix(1.52237,-0.42087,0.488885,1.627385,-219.9988,-296.8636)">
      <path
         id="path3239"
         d="M 160.51324,405.34462 C 183.3914,412.99942 196.23481,408.61253 210.01071,405.34462 C 196.73474,401.11427 192.54875,393.09644 158.39192,397.56645"
         style="opacity:1;color:#000000;fill:#ffffff;fill-opacity:1;fill-rule:evenodd;stroke:#000000;stroke-width:1.22095811;stroke-linecap:butt;stroke-linejoin:miter;marker:none;marker-start:none;marker-mid:none;marker-end:none;stroke-miterlimit:4;stroke-dasharray:none;stroke-dashoffset:0;stroke-opacity:1;visibility:visible;display:inline;overflow:visible" />
      <path
         id="path3241"
         d="M 160.51324,401.10198 L 209.30361,405.34462"
         style="fill:#ffffff;fill-opacity:1;fill-rule:evenodd;stroke:#000000;stroke-width:0.61047906px;stroke-linecap:butt;stroke-linejoin:miter;stroke-opacity:1" />
    </g>
    <g
       id="g3243"
       style="fill:#ffffff;fill-opacity:1;display:inline"
       transform="matrix(1.564631,-0.216039,0.269583,1.677711,-142.8987,-333.2357)">
      <path
         id="path3245"
         d="M 160.51324,405.34462 C 183.3914,412.99942 196.23481,408.61253 210.01071,405.34462 C 196.73474,401.11427 192.54875,393.09644 158.39192,397.56645"
         style="opacity:1;color:#000000;fill:#ffffff;fill-opacity:1;fill-rule:evenodd;stroke:#000000;stroke-width:1.22095811;stroke-linecap:butt;stroke-linejoin:miter;marker:none;marker-start:none;marker-mid:none;marker-end:none;stroke-miterlimit:4;stroke-dasharray:none;stroke-dashoffset:0;stroke-opacity:1;visibility:visible;display:inline;overflow:visible" />
      <path
         id="path3247"
         d="M 160.51324,401.10198 L 209.30361,405.34462"
         style="fill:#ffffff;fill-opacity:1;fill-rule:evenodd;stroke:#000000;stroke-width:0.61047906px;stroke-linecap:butt;stroke-linejoin:miter;stroke-opacity:1" />
    </g>
    <g
       id="g3249"
       style="fill:#ffffff;fill-opacity:1;display:inline"
       transform="matrix(1.578978,-3.964831e-2,8.020599e-2,1.697338,-66.6871,-353.3168)">
      <path
         id="path3251"
         d="M 160.51324,405.34462 C 183.3914,412.99942 196.23481,408.61253 210.01071,405.34462 C 196.73474,401.11427 192.54875,393.09644 158.39192,397.56645"
         style="opacity:1;color:#000000;fill:#ffffff;fill-opacity:1;fill-rule:evenodd;stroke:#000000;stroke-width:1.22095811;stroke-linecap:butt;stroke-linejoin:miter;marker:none;marker-start:none;marker-mid:none;marker-end:none;stroke-miterlimit:4;stroke-dasharray:none;stroke-dashoffset:0;stroke-opacity:1;visibility:visible;display:inline;overflow:visible" />
      <path
         id="path3253"
         d="M 160.51324,401.10198 L 209.30361,405.34462"
         style="fill:#ffffff;fill-opacity:1;fill-rule:evenodd;stroke:#000000;stroke-width:0.61047906px;stroke-linecap:butt;stroke-linejoin:miter;stroke-opacity:1" />
    </g>
    <g
       id="g3255"
       style="fill:#ffffff;fill-opacity:1;display:inline"
       transform="matrix(1.57818,6.395701e-2,-3.124643e-2,1.698945,-27.98553,-353.4693)">
      <path
         id="path3257"
         d="M 160.51324,405.34462 C 183.3914,412.99942 196.23481,408.61253 210.01071,405.34462 C 196.73474,401.11427 192.54875,393.09644 158.39192,397.56645"
         style="opacity:1;color:#000000;fill:#ffffff;fill-opacity:1;fill-rule:evenodd;stroke:#000000;stroke-width:1.22095811;stroke-linecap:butt;stroke-linejoin:miter;marker:none;marker-start:none;marker-mid:none;marker-end:none;stroke-miterlimit:4;stroke-dasharray:none;stroke-dashoffset:0;stroke-opacity:1;visibility:visible;display:inline;overflow:visible" />
      <path
         id="path3259"
         d="M 160.51324,401.10198 L 209.30361,405.34462"
         style="fill:#ffffff;fill-opacity:1;fill-rule:evenodd;stroke:#000000;stroke-width:0.61047906px;stroke-linecap:butt;stroke-linejoin:miter;stroke-opacity:1" />
    </g>
    <g
       id="g3261"
       style="fill:#ffffff;fill-opacity:1;display:inline"
       transform="matrix(1.565919,0.206498,-0.184849,1.689148,35.465,-355.8624)">
      <path
         id="path3263"
         d="M 160.51324,405.34462 C 183.3914,412.99942 196.23481,408.61253 210.01071,405.34462 C 196.73474,401.11427 192.54875,393.09644 158.39192,397.56645"
         style="opacity:1;color:#000000;fill:#ffffff;fill-opacity:1;fill-rule:evenodd;stroke:#000000;stroke-width:1.22095811;stroke-linecap:butt;stroke-linejoin:miter;marker:none;marker-start:none;marker-mid:none;marker-end:none;stroke-miterlimit:4;stroke-dasharray:none;stroke-dashoffset:0;stroke-opacity:1;visibility:visible;display:inline;overflow:visible" />
      <path
         id="path3265"
         d="M 160.51324,401.10198 L 209.30361,405.34462"
         style="fill:#ffffff;fill-opacity:1;fill-rule:evenodd;stroke:#000000;stroke-width:0.61047906px;stroke-linecap:butt;stroke-linejoin:miter;stroke-opacity:1" />
    </g>
    <g
       id="g3267"
       style="fill:#ffffff;fill-opacity:1;display:inline"
       transform="matrix(1.538994,0.355302,-0.345537,1.663729,103.3596,-354.1777)">
      <path
         id="path3269"
         d="M 160.51324,405.34462 C 183.3914,412.99942 196.23481,408.61253 210.01071,405.34462 C 196.73474,401.11427 192.54875,393.09644 158.39192,397.56645"
         style="opacity:1;color:#000000;fill:#ffffff;fill-opacity:1;fill-rule:evenodd;stroke:#000000;stroke-width:1.22095811;stroke-linecap:butt;stroke-linejoin:miter;marker:none;marker-start:none;marker-mid:none;marker-end:none;stroke-miterlimit:4;stroke-dasharray:none;stroke-dashoffset:0;stroke-opacity:1;visibility:visible;display:inline;overflow:visible" />
      <path
         id="path3271"
         d="M 160.51324,401.10198 L 209.30361,405.34462"
         style="fill:#ffffff;fill-opacity:1;fill-rule:evenodd;stroke:#000000;stroke-width:0.61047906px;stroke-linecap:butt;stroke-linejoin:miter;stroke-opacity:1" />
    </g>
    <g
       id="g3162"
       style="fill:#ffffff;fill-opacity:1"
       transform="matrix(1.230316,0.224318,-0.219743,1.255928,61.12654,-170.4242)">
      <path
         id="path3158"
         d="M 160.51324,405.34462 C 183.3914,412.99942 196.23481,408.61253 210.01071,405.34462 C 196.73474,401.11427 192.54875,393.09644 158.39192,397.56645"
         style="opacity:1;color:#000000;fill:#ffffff;fill-opacity:1;fill-rule:evenodd;stroke:#000000;stroke-width:1.58387423;stroke-linecap:butt;stroke-linejoin:miter;marker:none;marker-start:none;marker-mid:none;marker-end:none;stroke-miterlimit:4;stroke-dasharray:none;stroke-dashoffset:0;stroke-opacity:1;visibility:visible;display:inline;overflow:visible" />
      <path
         id="path3160"
         d="M 160.51324,401.10198 L 209.30361,405.34462"
         style="fill:#ffffff;fill-opacity:1;fill-rule:evenodd;stroke:#000000;stroke-width:0.79193711px;stroke-linecap:butt;stroke-linejoin:miter;stroke-opacity:1" />
    </g>
    <g
       id="g3172"
       style="fill:#ffffff;fill-opacity:1;display:inline"
       transform="matrix(1.147017,0.102692,-9.250324e-2,1.273352,31.2941,-171.6651)">
      <path
         id="path3174"
         d="M 160.51324,405.34462 C 183.3914,412.99942 196.23481,408.61253 210.01071,405.34462 C 196.73474,401.11427 192.54875,393.09644 158.39192,397.56645"
         style="opacity:1;color:#000000;fill:#ffffff;fill-opacity:1;fill-rule:evenodd;stroke:#000000;stroke-width:1.64954281;stroke-linecap:butt;stroke-linejoin:miter;marker:none;marker-start:none;marker-mid:none;marker-end:none;stroke-miterlimit:4;stroke-dasharray:none;stroke-dashoffset:0;stroke-opacity:1;visibility:visible;display:inline;overflow:visible" />
      <path
         id="path3176"
         d="M 160.51324,401.10198 L 209.30361,405.34462"
         style="fill:#ffffff;fill-opacity:1;fill-rule:evenodd;stroke:#000000;stroke-width:0.8247714px;stroke-linecap:butt;stroke-linejoin:miter;stroke-opacity:1" />
    </g>
    <g
       id="g3178"
       style="fill:#ffffff;fill-opacity:1;display:inline"
       transform="matrix(1.174337,3.217293e-3,-3.217293e-3,1.174337,-2.281322,-126.5874)">
      <path
         id="path3180"
         d="M 160.51324,405.34462 C 183.3914,412.99942 196.23481,408.61253 210.01071,405.34462 C 196.73474,401.11427 192.54875,393.09644 158.39192,397.56645"
         style="opacity:1;color:#000000;fill:#ffffff;fill-opacity:1;fill-rule:evenodd;stroke:#000000;stroke-width:1.70308495;stroke-linecap:butt;stroke-linejoin:miter;marker:none;marker-start:none;marker-mid:none;marker-end:none;stroke-miterlimit:4;stroke-dasharray:none;stroke-dashoffset:0;stroke-opacity:1;visibility:visible;display:inline;overflow:visible" />
      <path
         id="path3182"
         d="M 160.51324,401.10198 L 209.30361,405.34462"
         style="fill:#ffffff;fill-opacity:1;fill-rule:evenodd;stroke:#000000;stroke-width:0.85154247px;stroke-linecap:butt;stroke-linejoin:miter;stroke-opacity:1" />
    </g>
    <g
       id="g3184"
       style="fill:#ffffff;fill-opacity:1;display:inline"
       transform="matrix(1.244338,-0.115031,0.104318,1.372135,-58.5676,-201.0041)">
      <path
         id="path3186"
         d="M 160.51324,405.34462 C 183.3914,412.99942 196.23481,408.61253 210.01071,405.34462 C 196.73474,401.11427 192.54875,393.09644 158.39192,397.56645"
         style="opacity:1;color:#000000;fill:#ffffff;fill-opacity:1;fill-rule:evenodd;stroke:#000000;stroke-width:1.52525437;stroke-linecap:butt;stroke-linejoin:miter;marker:none;marker-start:none;marker-mid:none;marker-end:none;stroke-miterlimit:4;stroke-dasharray:none;stroke-dashoffset:0;stroke-opacity:1;visibility:visible;display:inline;overflow:visible" />
      <path
         id="path3188"
         d="M 160.51324,401.10198 L 209.30361,405.34462"
         style="fill:#ffffff;fill-opacity:1;fill-rule:evenodd;stroke:#000000;stroke-width:0.76262718px;stroke-linecap:butt;stroke-linejoin:miter;stroke-opacity:1" />
    </g>
    <g
       id="g3190"
       style="fill:#ffffff;fill-opacity:1;display:inline"
       transform="matrix(1.2319,-0.169779,0.156554,1.408772,-78.17317,-221.6547)">
      <path
         id="path3192"
         d="M 160.51324,405.34462 C 183.3914,412.99942 196.23481,408.61253 210.01071,405.34462 C 196.73474,401.11427 192.54875,393.09644 158.39192,397.56645"
         style="opacity:1;color:#000000;fill:#ffffff;fill-opacity:1;fill-rule:evenodd;stroke:#000000;stroke-width:1.50668359;stroke-linecap:butt;stroke-linejoin:miter;marker:none;marker-start:none;marker-mid:none;marker-end:none;stroke-miterlimit:4;stroke-dasharray:none;stroke-dashoffset:0;stroke-opacity:1;visibility:visible;display:inline;overflow:visible" />
      <path
         id="path3194"
         d="M 160.51324,401.10198 L 209.30361,405.34462"
         style="fill:#ffffff;fill-opacity:1;fill-rule:evenodd;stroke:#000000;stroke-width:0.75334179px;stroke-linecap:butt;stroke-linejoin:miter;stroke-opacity:1" />
    </g>
    <g
       id="g3196"
       style="fill:#ffffff;fill-opacity:1;display:inline"
       transform="matrix(1.180544,-0.285314,0.291824,1.284169,-123.4166,-167.6721)">
      <path
         id="path3198"
         d="M 160.51324,405.34462 C 183.3914,412.99942 196.23481,408.61253 210.01071,405.34462 C 196.73474,401.11427 192.54875,393.09644 158.39192,397.56645"
         style="opacity:1;color:#000000;fill:#ffffff;fill-opacity:1;fill-rule:evenodd;stroke:#000000;stroke-width:1.58149683;stroke-linecap:butt;stroke-linejoin:miter;marker:none;marker-start:none;marker-mid:none;marker-end:none;stroke-miterlimit:4;stroke-dasharray:none;stroke-dashoffset:0;stroke-opacity:1;visibility:visible;display:inline;overflow:visible" />
      <path
         id="path3200"
         d="M 160.51324,401.10198 L 209.30361,405.34462"
         style="fill:#ffffff;fill-opacity:1;fill-rule:evenodd;stroke:#000000;stroke-width:0.79074842px;stroke-linecap:butt;stroke-linejoin:miter;stroke-opacity:1" />
    </g>
    <g
       id="g3202"
       style="fill:#ffffff;fill-opacity:1;display:inline"
       transform="matrix(1.172929,-0.414474,0.42327,1.337495,-172.6384,-182.1416)">
      <path
         id="path3204"
         d="M 160.51324,405.34462 C 183.3914,412.99942 196.23481,408.61253 210.01071,405.34462 C 196.73474,401.11427 192.54875,393.09644 158.39192,397.56645"
         style="opacity:1;color:#000000;fill:#ffffff;fill-opacity:1;fill-rule:evenodd;stroke:#000000;stroke-width:1.51436162;stroke-linecap:butt;stroke-linejoin:miter;marker:none;marker-start:none;marker-mid:none;marker-end:none;stroke-miterlimit:4;stroke-dasharray:none;stroke-dashoffset:0;stroke-opacity:1;visibility:visible;display:inline;overflow:visible" />
      <path
         id="path3206"
         d="M 160.51324,401.10198 L 209.30361,405.34462"
         style="fill:#ffffff;fill-opacity:1;fill-rule:evenodd;stroke:#000000;stroke-width:0.75718081px;stroke-linecap:butt;stroke-linejoin:miter;stroke-opacity:1" />
    </g>
    <g
       id="g3208"
       style="fill:#ffffff;fill-opacity:1;display:inline"
       transform="matrix(1.190759,-0.575645,0.585921,1.402649,-245.944,-196.6478)">
      <path
         id="path3210"
         d="M 160.51324,405.34462 C 183.3914,412.99942 196.23481,408.61253 210.01071,405.34462 C 196.73474,401.11427 192.54875,393.09644 158.39192,397.56645"
         style="opacity:1;color:#000000;fill:#ffffff;fill-opacity:1;fill-rule:evenodd;stroke:#000000;stroke-width:1.41157115;stroke-linecap:butt;stroke-linejoin:miter;marker:none;marker-start:none;marker-mid:none;marker-end:none;stroke-miterlimit:4;stroke-dasharray:none;stroke-dashoffset:0;stroke-opacity:1;visibility:visible;display:inline;overflow:visible" />
      <path
         id="path3212"
         d="M 160.51324,401.10198 L 209.30361,405.34462"
         style="fill:#ffffff;fill-opacity:1;fill-rule:evenodd;stroke:#000000;stroke-width:0.70578557px;stroke-linecap:butt;stroke-linejoin:miter;stroke-opacity:1" />
    </g>
    <g
       id="g3214"
       style="fill:#ffffff;fill-opacity:1;display:inline"
       transform="matrix(1.140274,-0.739509,0.812159,1.272727,-336.225,-130.1818)">
      <path
         id="path3216"
         d="M 160.51324,405.34462 C 183.3914,412.99942 196.23481,408.61253 210.01071,405.34462 C 196.73474,401.11427 192.54875,393.09644 158.39192,397.56645"
         style="opacity:1;color:#000000;fill:#ffffff;fill-opacity:1;fill-rule:evenodd;stroke:#000000;stroke-width:1.39622962;stroke-linecap:butt;stroke-linejoin:miter;marker:none;marker-start:none;marker-mid:none;marker-end:none;stroke-miterlimit:4;stroke-dasharray:none;stroke-dashoffset:0;stroke-opacity:1;visibility:visible;display:inline;overflow:visible" />
      <path
         id="path3218"
         d="M 160.51324,401.10198 L 209.30361,405.34462"
         style="fill:#ffffff;fill-opacity:1;fill-rule:evenodd;stroke:#000000;stroke-width:0.69811481px;stroke-linecap:butt;stroke-linejoin:miter;stroke-opacity:1" />
    </g>
    <path
       style="opacity:1;color:#000000;fill:#ffffff;fill-opacity:1;fill-rule:evenodd;stroke:none;stroke-width:2.5;stroke-linecap:butt;stroke-linejoin:miter;marker:none;marker-start:none;marker-mid:none;marker-end:none;stroke-miterlimit:4;stroke-dasharray:none;stroke-dashoffset:0;stroke-opacity:1;visibility:visible;display:inline;overflow:visible"
       d="M 174,379 C 174.97352,374.73676 175.73892,370.36946 184.5,370 C 182.81803,366.16667 180.00012,362.33333 186,358.5 C 180.17826,351.3383 186.70654,349.46947 189.5,346 C 182.14081,340.37177 187.81913,336.37322 190.5,332 C 182.61289,326.10514 187.27259,321.60436 191,317 C 187.0013,312 184.75129,307 190,302 C 189.04728,297.55969 181.89209,296.22062 190.5,287 C 184.00472,283.8796 186.35826,278.23097 189,272.5 C 177.9538,269.8436 183.01127,263.60861 183,258.5 C 175.82925,259.58639 173.55159,257.25297 171.5,254.5 C 168.314,255.25266 155.80674,265.07098 150.29201,282.7788 C 140.5169,314.1667 136.64733,361.77506 131,366.5"
       id="path3273" />
    <path
       style="opacity:1;color:#000000;fill:none;fill-opacity:1;fill-rule:evenodd;stroke:#000000;stroke-width:2.5;stroke-linecap:butt;stroke-linejoin:miter;marker:none;marker-start:none;marker-mid:none;marker-end:none;stroke-miterlimit:4;stroke-dasharray:none;stroke-dashoffset:0;stroke-opacity:1;visibility:visible;display:inline;overflow:visible"
       d="M 174,379 C 174.97352,374.73676 175.73892,370.36946 184.5,370 C 182.81803,366.16667 180.00012,362.33333 186,358.5 C 180.17826,351.3383 186.70654,349.46947 189.5,346 C 182.14081,340.37177 187.81913,336.37322 190.5,332 C 182.61289,326.10514 187.27259,321.60436 191,317 C 187.0013,312 184.75129,307 190,302 C 189.04728,297.55969 181.89209,296.22062 190.5,287 C 184.00472,283.8796 186.35826,278.23097 189,272.5 C 177.9538,269.8436 183.01127,263.60861 183,258.5 C 175.82925,259.58639 173.55159,257.25297 171.5,254.5 C 162.66667,256.58679 151.33333,266.10943 142.5,273.5"
       id="path3222" />
    <path
       style="opacity:1;color:#000000;fill:#000000;fill-opacity:1;fill-rule:evenodd;stroke:#000000;stroke-width:2.5;stroke-linecap:butt;stroke-linejoin:miter;marker:none;marker-start:none;marker-mid:none;marker-end:none;stroke-miterlimit:4;stroke-dasharray:none;stroke-dashoffset:0;stroke-opacity:1;visibility:visible;display:inline;overflow:visible"
       d="M 79.19596,144.42222 C 86.073078,170.03661 74.617399,164.36598 69.296465,180.48467 C 61.21907,157.79515 68.349677,152.70531 79.19596,144.42222 z "
       id="path3275" />
  </g>
  <g
     id="layer3"
     style="display:inline">
    <path
       style="color:#000000;fill:#df0405;fill-opacity:1;fill-rule:evenodd;stroke:none;stroke-width:2.00000215;stroke-linecap:butt;stroke-linejoin:miter;marker:none;marker-start:none;marker-mid:none;marker-end:none;stroke-miterlimit:4;stroke-dasharray:none;stroke-dashoffset:0;stroke-opacity:1;visibility:visible;display:inline;overflow:visible"
       d="M 497.49337,331.31563 C 497.49337,467.95003 386.56421,578.87916 249.92981,578.87916 L 249.38402,2.1802442 L 496.68207,2.530058 L 497.49337,331.31563 z "
       id="path1393" />
    <path
       style="fill:#ffffff;fill-opacity:1;fill-rule:evenodd;stroke:#000000;stroke-width:2.5;stroke-linecap:butt;stroke-linejoin:miter;stroke-opacity:1;opacity:1;color:#000000;marker:none;marker-start:none;marker-mid:none;marker-end:none;stroke-miterlimit:4;stroke-dasharray:none;stroke-dashoffset:0;visibility:visible;display:inline;overflow:visible"
       d="M 304.5,288 L 324.5,272 L 324.5,135 L 362.62616,109.25665 L 441.5,56 L 441.5,95.400024 L 362.62616,147.61841 L 362.62616,185.98016 L 441.5,134.80002 L 441.5,174.20001 L 362.62616,224.34192 L 362.62616,262.70367 L 441.5,213.60001 L 441.5,253 L 362.62616,302.5654 L 304.5,340 L 304.5,288 z "
       id="path3277" />
    <path
       style="opacity:1;color:#000000;fill:#ffffff;fill-opacity:1;fill-rule:evenodd;stroke:#000000;stroke-width:2.5;stroke-linecap:butt;stroke-linejoin:miter;marker:none;marker-start:none;marker-mid:none;marker-end:none;stroke-miterlimit:4;stroke-dasharray:none;stroke-dashoffset:0;stroke-opacity:1;visibility:visible;display:inline;overflow:visible"
       id="path3279"
       d="M 637 364.5 A 29 111.5 0 1 1  579,364.5 A 29 111.5 0 1 1  637 364.5 z"
       transform="translate(-316,-32)" />
    <path
       style="opacity:1;color:#000000;fill:#ffffff;fill-opacity:1;fill-rule:evenodd;stroke:#000000;stroke-width:1.25;stroke-linecap:butt;stroke-linejoin:miter;marker:none;marker-start:none;marker-mid:none;marker-end:none;stroke-miterlimit:4;stroke-dasharray:none;stroke-dashoffset:0;stroke-opacity:1;visibility:visible;display:inline;overflow:visible"
       id="path3281"
       d="M 637 364.5 A 29 111.5 0 1 1  579,364.5 A 29 111.5 0 1 1  637 364.5 z"
       transform="translate(-321,-31.5)" />
    <path
       style="color:#000000;fill:#ffffff;fill-opacity:1;fill-rule:evenodd;stroke:#000000;stroke-width:1.25;stroke-linecap:butt;stroke-linejoin:miter;marker:none;marker-start:none;marker-mid:none;marker-end:none;stroke-miterlimit:4;stroke-dashoffset:0;stroke-opacity:1;visibility:visible;display:inline;overflow:visible;stroke-dasharray:none"
       d="M 307.70128,333 C 307.70128,390.37068 295.59106,436.93238 280.66954,436.93238 C 273.94044,436.93238 263.12953,428.16248 263.05028,411.80356 L 262.29921,256.77608 C 262.2127,238.91925 273.57856,229.06762 280.66954,229.06762 C 295.59106,229.06762 307.70128,275.62932 307.70128,333 z "
       id="path3288" />
    <path
       style="opacity:1;color:#000000;fill:#ffffff;fill-opacity:1;fill-rule:evenodd;stroke:none;stroke-width:1px;stroke-linecap:butt;stroke-linejoin:miter;marker:none;marker-start:none;marker-mid:none;marker-end:none;stroke-miterlimit:4;stroke-dasharray:none;stroke-dashoffset:0;stroke-opacity:1;visibility:visible;display:inline;overflow:visible"
       d="M 268.25,435.75 L 291.75,405.75 L 283.25,436.25 L 268.25,435.75 z "
       id="path3298" />
    <path
       style="fill:#ffffff;fill-opacity:1;fill-rule:evenodd;stroke:none;stroke-width:1px;stroke-linecap:butt;stroke-linejoin:miter;stroke-opacity:1;opacity:1;color:#000000;marker:none;marker-start:none;marker-mid:none;marker-end:none;stroke-miterlimit:4;stroke-dasharray:none;stroke-dashoffset:0;visibility:visible;display:inline;overflow:visible"
       d="M 266.5,229 L 281.5,229 L 286,265.5 L 266.5,229 z "
       id="path3294" />
    <path
       transform="matrix(0.932129,0,0,0.932129,-298.726,-6.170132)"
       style="color:#000000;fill:#ffffff;fill-opacity:1;fill-rule:evenodd;stroke:#000000;stroke-width:2.68203211;stroke-linecap:butt;stroke-linejoin:miter;stroke-miterlimit:4;stroke-dashoffset:0;stroke-opacity:1;marker:none;marker-start:none;marker-mid:none;marker-end:none;visibility:visible;display:inline;overflow:visible"
       d="M 637,364.5 C 637,426.048 624.008,476 608,476 C 600.78093,476 589.18285,466.59154 589.09783,449.04147 L 588.29207,282.726 C 588.19926,263.56896 600.3927,253 608,253 C 624.008,253 637,302.952 637,364.5 z "
       id="path3283" />
    <path
       style="fill:none;fill-opacity:0.75;fill-rule:evenodd;stroke:#000000;stroke-width:1px;stroke-linecap:butt;stroke-linejoin:miter;stroke-opacity:1"
       d="M 267.5,229 L 282.5,229"
       id="path3290" />
    <path
       style="fill:none;fill-opacity:0.75;fill-rule:evenodd;stroke:#000000;stroke-width:1px;stroke-linecap:butt;stroke-linejoin:miter;stroke-opacity:1;display:inline"
       d="M 269,436.5 L 284,436.5"
       id="path3292" />
    <path
       style="opacity:1;color:#000000;fill:#ffffff;fill-opacity:1;fill-rule:evenodd;stroke:#000000;stroke-width:1.07666084;stroke-linecap:butt;stroke-linejoin:miter;marker:none;marker-start:none;marker-mid:none;marker-end:none;stroke-miterlimit:4;stroke-dasharray:none;stroke-dashoffset:0;stroke-opacity:1;visibility:visible;display:inline;overflow:visible"
       id="path3305"
       d="M 263.75083 333.57327 A 6.3639612 25.102291 0 1 1  251.02291,333.57327 A 6.3639612 25.102291 0 1 1  263.75083 333.57327 z"
       transform="matrix(1.160997,0,0,1.160997,-40.09138,-53.05785)" />
    <path
       style="opacity:1;color:#000000;fill:#ffffff;fill-opacity:1;fill-rule:evenodd;stroke:#000000;stroke-width:2.5;stroke-linecap:butt;stroke-linejoin:miter;marker:none;marker-start:none;marker-mid:none;marker-end:none;stroke-miterlimit:4;stroke-dasharray:none;stroke-dashoffset:0;stroke-opacity:1;visibility:visible;display:inline;overflow:visible"
       id="path3303"
       d="M 263.75083 333.57327 A 6.3639612 25.102291 0 1 1  251.02291,333.57327 A 6.3639612 25.102291 0 1 1  263.75083 333.57327 z"
       transform="translate(-1.5,0.5)" />
  </g>
  <g
     id="layer2"
     style="display:inline">
    <path
       style="color:black;fill:none;fill-opacity:1;fill-rule:evenodd;stroke:black;stroke-width:2.00000262;stroke-linecap:butt;stroke-linejoin:miter;marker:none;marker-start:none;marker-mid:none;marker-end:none;stroke-miterlimit:4;stroke-dasharray:none;stroke-dashoffset:0;stroke-opacity:1;visibility:visible;display:inline;overflow:visible"
       d="M 497.04869,331.31563 C 497.04869,411.22999 459.10187,482.35107 400.25948,527.62761 C 391.75756,534.16945 382.81943,540.17175 373.4965,545.58308 C 337.02238,566.75384 294.65864,578.87916 249.48513,578.87916 C 169.84563,578.87916 98.961472,541.19293 53.669323,482.69637 C 43.644207,469.74854 34.872916,455.78116 27.538033,440.97722 C 11.157319,407.91616 1.940624,370.68284 1.9215879,331.31563 L 1.7626029,2.530058 L 498.2374,2.530058 L 497.04869,331.31563 z "
       id="path3989" />
    <path
       style="fill:none;fill-opacity:0.75;fill-rule:evenodd;stroke:black;stroke-width:2.00000072;stroke-linecap:butt;stroke-linejoin:miter;stroke-miterlimit:4;stroke-dasharray:none;stroke-opacity:1"
       d="M 250,2.7808394 C 250,158.49131 250,543.20687 250,579.48893"
       id="path1395" />
  </g>
</svg>