<?xml version="1.0" encoding="utf-8"?>

<!DOCTYPE svg PUBLIC "-//W3C//DTD SVG 1.0//EN"    "http://www.w3.org/TR/2001/REC-SVG-20010904/DTD/svg10.dtd" [
	<!ENTITY ns_flows "http://ns.adobe.com/Flows/1.0/">
	<!ENTITY ns_svg "http://www.w3.org/2000/svg">
	<!ENTITY ns_xlink "http://www.w3.org/1999/xlink">
]>
<svg  xmlns="&ns_svg;" xmlns:xlink="&ns_xlink;" xmlns:a="http://ns.adobe.com/AdobeSVGViewerExtensions/3.0/"
	 width="365.033" height="410.414" viewBox="0 0 365.033 410.414"
	 style="overflow:visible;enable-background:new 0 0 365.033 410.414" xml:space="preserve">
	<style type="text/css">
	<![CDATA[
		.st0{fill:none;stroke:#000000;stroke-width:2.0001;stroke-miterlimit:2.4142;}
		.st1{fill:#87B518;}
		.st2{fill:#8FCB1D;}
		.st3{fill:none;stroke:#0C080C;stroke-width:2.0001;stroke-miterlimit:2.4142;}
		.st4{fill:#FF0000;}
		.st5{fill:#FFD616;}
		.st6{fill:#FFD900;}
		.st7{fill:#FFFFFF;}
		.st8{fill:none;stroke:#000000;stroke-width:1.0001;stroke-miterlimit:2.4142;}
		.st9{fill:#0C080C;}
	]]>
	</style>
	<metadata>
<?xpacket begin='' id='W5M0MpCehiHzreSzNTczkc9d' bytes='824'?><?adobe-xap-filters esc="CR"?>
<x:xapmeta xmlns:x='adobe:ns:meta/'>
<rdf:RDF xmlns:rdf='http://www.w3.org/1999/02/22-rdf-syntax-ns#'
 xmlns:iX='http://ns.adobe.com/iX/1.0/'>

 <rdf:Description about=''
  xmlns='http://ns.adobe.com/pdf/1.3/'
  xmlns:pdf='http://ns.adobe.com/pdf/1.3/'>
  <pdf:CreationDate>2009-11-11T23:31:59Z</pdf:CreationDate>
  <pdf:ModDate>2009-11-11T23:31:59Z</pdf:ModDate>
 </rdf:Description>

 <rdf:Description about=''
  xmlns='http://ns.adobe.com/xap/1.0/'
  xmlns:xap='http://ns.adobe.com/xap/1.0/'>
  <xap:CreateDate>2009-11-11T23:31:59Z</xap:CreateDate>
  <xap:ModifyDate>2009-11-11T23:31:59Z</xap:ModifyDate>
  <xap:CreatorTool>Adobe Illustrator 10.0</xap:CreatorTool>
 </rdf:Description>

</rdf:RDF>
</x:xapmeta>
<?xpacket end='r'?>
			</metadata>
		<g id="Layer_1">
			<path class="st4" d="M1,1v226.935c0,100.221,81.27,181.466,181.518,181.466c100.249,0,181.515-81.245,181.515-181.466V1H1z"/>
			<path class="st0" d="M1,1v226.935c0,100.221,81.27,181.466,181.518,181.466c100.249,0,181.515-81.245,181.515-181.466V1H1z"/>
			<path class="st7" d="M358.597,271.662v0.402c-19.713,78.899-91.073,137.35-176.103,137.35
				c-85.09,0-156.496-58.538-176.147-137.525L358.597,271.662z"/>
			<path class="st0" d="M358.597,271.662v0.402c-19.713,78.899-91.073,137.35-176.103,137.35
				c-85.09,0-156.496-58.538-176.147-137.525L358.597,271.662z"/>
			<path class="st0" d="M26.433,320.898l312.312-0.25"/>
			<path class="st0" d="M44.245,345.898l276.25-0.25"/>
			<path class="st0" d="M69.995,370.398l225.25-0.25"/>
			<path class="st0" d="M112.454,395.398l140.833-0.25"/>
			<path class="st0" d="M38.953,320.94v-24.124"/>
			<path class="st0" d="M87.953,320.94v-24.124"/>
			<path class="st0" d="M184.953,320.607v-24"/>
			<path class="st0" d="M233.287,320.94v-24.124"/>
			<path class="st0" d="M281.954,320.523v-24"/>
			<path class="st0" d="M330.287,320.939v-24.375"/>
			<path class="st0" d="M63.287,345.939v-25.125"/>
			<path class="st0" d="M112.287,345.689v-25"/>
			<path class="st0" d="M160.621,345.606v-24.875"/>
			<path class="st0" d="M209.288,345.606v-24.875"/>
			<path class="st0" d="M257.955,345.606v-25"/>
			<path class="st0" d="M306.622,345.939v-25.375"/>
			<path class="st0" d="M87.622,370.314v-24.5"/>
			<path class="st0" d="M136.289,370.231v-24.5"/>
			<path class="st0" d="M184.956,370.273v-24.125"/>
			<path class="st0" d="M233.623,369.94v-24.125"/>
			<path class="st0" d="M281.956,369.939v-24.125"/>
			<path class="st0" d="M111.956,395.356v-24.875"/>
			<path class="st0" d="M160.623,395.273v-25"/>
			<path class="st0" d="M209.29,395.273v-25.375"/>
			<path class="st0" d="M257.956,392.898v-22.75"/>
			<path class="st0" d="M136.287,320.939v-24.125"/>
			<path class="st0" d="M184.706,409.356v-14.208"/>
			<path class="st0" d="M233.581,402.231v-7.083"/>
			<path class="st0" d="M136.206,403.44v-7.917"/>
			<path class="st0" d="M15.62,296.691v-25.209"/>
			<path class="st0" d="M64.245,296.523v-25.125"/>
			<path class="st0" d="M112.953,296.607v-25.375"/>
			<path class="st0" d="M161.286,296.941v-25.25"/>
			<path class="st0" d="M209.953,296.275v-24.959"/>
			<path class="st0" d="M258.619,296.607v-25.291"/>
			<path class="st0" d="M307.286,296.607v-24.875"/>
			<path class="st0" d="M354.62,284.566v-12.75"/>
			<path class="st0" d="M14.37,296.648l336.375-0.25"/>
			<path class="st6" d="M152.203,208.316c0,0-7.355,10.27-7.666,10.666c-4.447,5.688-8.917,10.893-13.834,16.168
				c-1.289,1.383-14.613,15.643-14.867,15.492c-1.446,1.758-6.002,6.516-8.188,8.352c-1.926,1.398-2.165,1.715-4.201,2.361
				c-1.13,0.359-6.225,2.447-12.033,3.336c-5.487,0.252-6.976-2.109-10.388-1.979c-1.445,0.055-2.862,0.631-3.938,1.402
				c-1.985,1.42-1.992,3.828-1.75,5.16c0.463,2.547,3.191,4.023,5.775,4.025c1.513-0.092,4.045-0.707,4.899-1.43
				c-1.597,3.721,0.897,8.553,7.022,7.68c3.763-0.352,4.069-3.086,4.987-4.594c0.394-0.92,0.853-1.773,1.655-2.584
				c0.773-0.633,2.285-1.229,4.397-1.367c-2.551,1.543-3.249,3.684-2.464,6.094c0.834,1.389,2.31,2.502,5.086,2.709
				c2.638,0.047,4.56-1.006,5.75-2.139c2.515-2.393,0.914-4.459,0.65-6.248c0.169-0.104,0.432-0.129,0.849-0.025
				c2.62,0.654,3.874,0.754,6.958,1.469c3.02,1.389,5.813,4.514,9.53,4.063c4.155-0.645,6.118-7.232,1.379-9.113
				c-3.194-0.904-5.15-0.391-8.316-0.383c-7.316-1.121-4.954-5.648-4.954-5.648c0.337-0.592,1.115-1.707,1.706-2.297l3.012-2.779
				c8.944-7.557,28.447-24.719,29.444-25.557c15.5-13,19.061-20.85,19.061-20.85L152.203,208.316z"/>
			<path class="st0" d="M152.203,208.316c0,0-7.355,10.27-7.666,10.666c-4.447,5.688-8.917,10.893-13.834,16.168
				c-1.289,1.383-14.613,15.643-14.867,15.492c-1.446,1.758-6.002,6.516-8.188,8.352c-1.926,1.398-2.165,1.715-4.201,2.361
				c-1.13,0.359-6.225,2.447-12.033,3.336c-5.487,0.252-6.976-2.109-10.388-1.979c-1.445,0.055-2.862,0.631-3.938,1.402
				c-1.985,1.42-1.992,3.828-1.75,5.16c0.463,2.547,3.191,4.023,5.775,4.025c1.513-0.092,4.045-0.707,4.899-1.43
				c-1.597,3.721,0.897,8.553,7.022,7.68c3.763-0.352,4.069-3.086,4.987-4.594c0.394-0.92,0.853-1.773,1.655-2.584
				c0.773-0.633,2.285-1.229,4.397-1.367c-2.551,1.543-3.249,3.684-2.464,6.094c0.834,1.389,2.31,2.502,5.086,2.709
				c2.638,0.047,4.56-1.006,5.75-2.139c2.515-2.393,0.914-4.459,0.65-6.248c0.169-0.104,0.432-0.129,0.849-0.025
				c2.62,0.654,3.874,0.754,6.958,1.469c3.02,1.389,5.813,4.514,9.53,4.063c4.155-0.645,6.118-7.232,1.379-9.113
				c-3.194-0.904-5.15-0.391-8.316-0.383c-7.316-1.121-4.954-5.648-4.954-5.648c0.337-0.592,1.115-1.707,1.706-2.297l3.012-2.779
				c8.944-7.557,28.447-24.719,29.444-25.557c15.5-13,19.061-20.85,19.061-20.85L152.203,208.316z"/>
			<path class="st6" d="M78.559,271.298c0,0-3.541,0.322-5.019,3.154c-0.033,0.063-1.299-5.516,2.558-7.551
				C79.209,265.261,81.021,269.894,78.559,271.298z"/>
			<path class="st0" d="M78.559,271.298c0,0-3.541,0.322-5.019,3.154c-0.033,0.063-1.299-5.516,2.558-7.551
				C79.209,265.261,81.021,269.894,78.559,271.298z"/>
			<path class="st6" d="M109.982,277.042c0,0-1.019,5.125-2.591,7.348c0,0-2.521-4.574-2.394-8.09
				C105.124,272.785,110.376,274.236,109.982,277.042z"/>
			<path class="st0" d="M109.982,277.042c0,0-1.019,5.125-2.591,7.348c0,0-2.521-4.574-2.394-8.09
				C105.124,272.785,110.376,274.236,109.982,277.042z"/>
			<path class="st6" d="M92.378,278.57c0,0-3.047,2.648-4.148,5.561c-0.274,0.723-2.495-6.219-0.057-9.664
				C90.566,271.087,94.465,275.998,92.378,278.57z"/>
			<path class="st0" d="M92.378,278.57c0,0-3.047,2.648-4.148,5.561c-0.274,0.723-2.495-6.219-0.057-9.664
				C90.566,271.087,94.465,275.998,92.378,278.57z"/>
			<path class="st6" d="M133.663,275.65c0,0,3.831-0.121,5.691,1.664c0.476,0.459-1.354-5.033-4.523-6.564
				C133.544,270.128,129.819,274.755,133.663,275.65z"/>
			<path class="st0" d="M133.663,275.65c0,0,3.831-0.121,5.691,1.664c0.476,0.459-1.354-5.033-4.523-6.564
				C133.544,270.128,129.819,274.755,133.663,275.65z"/>
			<path class="st0" d="M85.946,271.937c0,0,0.788-1.574,2.297-2.428c1.297-0.734,2.21-0.852,4.989-1.314
				c2.775-0.463,4.225-1.131,4.997-1.85"/>
			<path class="st0" d="M103.927,271.115c0.788-0.785,1.199-1.1,1.843-1.857c1.964-2.309,2.292-4.736,2.292-4.736"/>
			<path class="st0" d="M113.095,271.421c0,0-0.669-1.617-0.505-3.355"/>
			<path class="st6" d="M33.896,137.239c0,0,6.234-2.887,10.5-2.821l1.575,4.135l-0.985,3.872l-7.743-0.656l-3.544-1.838
				L33.896,137.239z"/>
			<path class="st0" d="M33.896,137.239c0,0,6.234-2.887,10.5-2.821l1.575,4.135l-0.985,3.872l-7.743-0.656l-3.544-1.838
				L33.896,137.239z"/>
			<path class="st5" d="M38.936,271.373l-7.691,0.01L31.008,67.331l7.69-0.01L38.936,271.373z"/>
			<path class="st3" d="M38.936,271.373l-7.691,0.01L31.008,67.331l7.69-0.01L38.936,271.373z"/>
			<path class="st7" d="M38.037,62.065c-0.16,0.002-0.208-1.333-0.208-1.333c0.254-3.203,0.911-6.167,5.154-6.528l-8.146-40.751
				l-8.01,40.748c4.402,0.843,4.781,3.626,4.961,6.781c0,0-0.042,1.332-0.084,1.333c-5.892,0.074-13.166,0.834-16.974-6.601
				C16.03,66.9,23.786,69.656,30.995,69.336l0.02,3.304l7.689-0.107l0.042-3.383c4.601-0.079,12.613-1.122,16.234,5.538
				C53.203,63.315,45.286,61.967,38.037,62.065z"/>
			<path class="st3" d="M38.037,62.065c-0.16,0.002-0.208-1.333-0.208-1.333c0.254-3.203,0.911-6.167,5.154-6.528l-8.146-40.751
				l-8.01,40.748c4.402,0.843,4.781,3.626,4.961,6.781c0,0-0.042,1.332-0.084,1.333c-5.892,0.074-13.166,0.834-16.974-6.601
				C16.03,66.9,23.786,69.656,30.995,69.336l0.02,3.304l7.689-0.107l0.042-3.383c4.601-0.079,12.613-1.122,16.234,5.538
				C53.203,63.315,45.286,61.967,38.037,62.065z"/>
			<path class="st3" d="M34.836,13.453l0.074,49.335"/>
			<path class="st9" d="M35.412,71.08c0,0.302-0.245,0.547-0.546,0.546c-0.301,0.001-0.547-0.244-0.547-0.545
				c0-0.302,0.245-0.55,0.546-0.55C35.167,70.531,35.412,70.777,35.412,71.08z"/>
			<path class="st3" d="M35.412,71.08c0,0.302-0.245,0.547-0.546,0.546c-0.301,0.001-0.547-0.244-0.547-0.545
				c0-0.302,0.245-0.55,0.546-0.55C35.167,70.531,35.412,70.777,35.412,71.08z"/>
			<path class="st6" d="M95.703,181.231c3.03-0.29,9.794-2.882,14.083-5.333c1.387-0.792,2.531-3.712,3.917-4.75
				c1.844-1.381-5.582-12.91-7.416-11.333c-3.292,2.833-11.761,5.431-12.412,5.199c-2.338-0.833-6.755-3.033-6.755-3.033
				c-22.804-11.21-35.222-19.309-35.222-19.309c-5.421-3.086-4.851-7.912-4.851-7.912s0.748-7.892-1.362-10.818
				c-1.819-2.516-5.626-3.409-8.907-2.311c-2.184,0.731-3.075,2.45-2.328,4.948c1.445,4.813,3.452,4.271,4.55,4.832
				c0,0-0.116,21.38-0.116,21.381c0-0.024,3.986-2.957,11.049,0.543c0,0,3.5,2.125,4.937,3.313
				c7.106,5.87,15.47,11.348,22.917,16.667C81.287,175.815,92.966,181.494,95.703,181.231z"/>
			<path class="st0" d="M95.703,181.231c3.03-0.29,9.794-2.882,14.083-5.333c1.387-0.792,2.531-3.712,3.917-4.75
				c1.844-1.381-5.582-12.91-7.416-11.333c-3.292,2.833-11.761,5.431-12.412,5.199c-2.338-0.833-6.755-3.033-6.755-3.033
				c-22.804-11.21-35.222-19.309-35.222-19.309c-5.421-3.086-4.851-7.912-4.851-7.912s0.748-7.892-1.362-10.818
				c-1.819-2.516-5.626-3.409-8.907-2.311c-2.184,0.731-3.075,2.45-2.328,4.948c1.445,4.813,3.452,4.271,4.55,4.832
				c0,0-0.116,21.38-0.116,21.381c0-0.024,3.986-2.957,11.049,0.543c0,0,3.5,2.125,4.937,3.313
				c7.106,5.87,15.47,11.348,22.917,16.667C81.287,175.815,92.966,181.494,95.703,181.231z"/>
			<path class="st6" d="M22.695,147.413c-1.575,0.262-2.645,4.899-0.085,6.387l3.061,1.837c7.262,3.063,12.774,0,10.772-5.111
				C34.566,146.9,25.632,145.606,22.695,147.413z"/>
			<path class="st0" d="M22.695,147.413c-1.575,0.262-2.645,4.899-0.085,6.387l3.061,1.837c7.262,3.063,12.774,0,10.772-5.111
				C34.566,146.9,25.632,145.606,22.695,147.413z"/>
			<path class="st6" d="M27.86,137.489c9.449-0.053,9.842,8.348-0.368,10.324c-1.523,0-2.929-0.331-4.446-0.488
				c-1-0.105-2.144,0.088-3.193-0.306c-2.581-0.919-3.719-3.983-3.02-6.52c0.573-2.075,1.39-3.096,3.151-4.638l1.042,0.466
				l3.507,0.06C25.816,136.1,26.87,137.461,27.86,137.489z"/>
			<path class="st0" d="M27.86,137.489c9.449-0.053,9.842,8.348-0.368,10.324c-1.523,0-2.929-0.331-4.446-0.488
				c-1-0.105-2.144,0.088-3.193-0.306c-2.581-0.919-3.719-3.983-3.02-6.52c0.573-2.075,1.39-3.096,3.151-4.638l1.042,0.466
				l3.507,0.06C25.816,136.1,26.87,137.461,27.86,137.489z"/>
			<path class="st6" d="M31.104,128.89c-0.035-0.011-0.08-2.051-0.08-2.035c0.033-1.443,0.016-1.919,0.016-2.543
				c-0.116-0.27-5.238,0.504-6.244,0.876c-0.952,0.328-2.422,0.883-3.063,1.313c-1.743,1.168-2.275,1.925-2.712,3.063
				c-0.701,2.012-1.192,5.468,0.963,6.65c2.582,1.312,6.824,1.969,6.824,1.969C34.946,137.962,34.552,129.431,31.104,128.89z"/>
			<path class="st0" d="M31.104,128.89c-0.035-0.011-0.08-2.051-0.08-2.035c0.033-1.443,0.016-1.919,0.016-2.543
				c-0.116-0.27-5.238,0.504-6.244,0.876c-0.952,0.328-2.422,0.883-3.063,1.313c-1.743,1.168-2.275,1.925-2.712,3.063
				c-0.701,2.012-1.192,5.468,0.963,6.65c2.582,1.312,6.824,1.969,6.824,1.969C34.946,137.962,34.552,129.431,31.104,128.89z"/>
			<path class="st6" d="M29.74,131.53c1.32-0.941,3.15-0.174,7.875,0c0,0,0.481,2.888-6.44,4.329
				C28.466,136.424,27.09,133.419,29.74,131.53z"/>
			<path class="st0" d="M29.74,131.53c1.32-0.941,3.15-0.174,7.875,0c0,0,0.481,2.888-6.44,4.329
				C28.466,136.424,27.09,133.419,29.74,131.53z"/>
			<path class="st6" d="M31.208,139.051c0,0,5.444,0.224,9.119,1.405c0,0-0.958,2.655-6.928,3.82
				C29.368,145.06,28.887,139.563,31.208,139.051z"/>
			<path class="st0" d="M31.208,139.051c0,0,5.444,0.224,9.119,1.405c0,0-0.958,2.655-6.928,3.82
				C29.368,145.06,28.887,139.563,31.208,139.051z"/>
			<path class="st6" d="M35.043,148.302c0,0,7.342-0.531,7.319-0.549c-0.008-0.008-4.213,5.989-8.592,6.573
				C29.392,154.909,31.57,148.422,35.043,148.302z"/>
			<path class="st0" d="M35.043,148.302c0,0,7.342-0.531,7.319-0.549c-0.008-0.008-4.213,5.989-8.592,6.573
				C29.392,154.909,31.57,148.422,35.043,148.302z"/>
			<path class="st6" d="M36.996,127.677c0,0-4.404-0.645-7.346-0.604c-0.198,0.002,2.009-4.279,7.867-4.598
				C40.673,122.302,41.385,127.143,36.996,127.677z"/>
			<path class="st0" d="M36.996,127.677c0,0-4.404-0.645-7.346-0.604c-0.198,0.002,2.009-4.279,7.867-4.598
				C40.673,122.302,41.385,127.143,36.996,127.677z"/>
			<path class="st0" d="M30.921,128.862c0,0-1.794-0.656-4.025,0.481"/>
			<path class="st0" d="M39,131.412c0,0,2.246,0.906,4.346-0.799"/>
			<path class="st7" d="M123.729,170.669c0.976-0.304-2.158-0.403-3.091-2.034c-0.757-1.325,1.862-3.402,0.552-3.543
				c-1.322-0.144-1.006-3.66-2.33-3.732c0.753-1.241-4.554-4.061-3.822-5.313c-4.886-0.035-3.113-1.942-10.084,1.437
				c-2.75,1.333-11.157-2.576-12.924-4.278c0.784,2.071,1.577,4.139,2.477,6.162c0.931,2.087,2.317,4.745,4.107,6.499
				c-1.647-0.419-4.869,2.283-7.369,2.283c3.863,9.568,16.029,5.431,15.59,5.664c-5.402,2.845-7.772,6.849-9.238,12.658
				c1.479-0.893,3.465-1.014,5.127-1.216c3.928-0.481,6.993,4.551,10.729,5.978c9.167,3.5,11.995-10.425,14.398-9.041
				c12.341,5.184,14.089-1.347,11.886-5.627C137.9,172.986,127.235,170.83,123.729,170.669z"/>
			<path class="st0" d="M123.729,170.669c0.976-0.304-2.158-0.403-3.091-2.034c-0.757-1.325,1.862-3.402,0.552-3.543
				c-1.322-0.144-1.006-3.66-2.33-3.732c0.753-1.241-4.554-4.061-3.822-5.313c-4.886-0.035-3.113-1.942-10.084,1.437
				c-2.75,1.333-11.157-2.576-12.924-4.278c0.784,2.071,1.577,4.139,2.477,6.162c0.931,2.087,2.317,4.745,4.107,6.499
				c-1.647-0.419-4.869,2.283-7.369,2.283c3.863,9.568,16.029,5.431,15.59,5.664c-5.402,2.845-7.772,6.849-9.238,12.658
				c1.479-0.893,3.465-1.014,5.127-1.216c3.928-0.481,6.993,4.551,10.729,5.978c9.167,3.5,11.995-10.425,14.398-9.041
				c12.341,5.184,14.089-1.347,11.886-5.627C137.9,172.986,127.235,170.83,123.729,170.669z"/>
			<path class="st7" d="M239.413,115.428c-5.97,2.517-12.788,6.003-20.596,10.283c-9.109,4.989-0.621,11.278,3.551,9.704
				c43.547-5.84,45.686-27.55,45.882-27.973C268.25,107.442,263.024,107.049,239.413,115.428z"/>
			<path class="st0" d="M239.413,115.428c-5.97,2.517-12.788,6.003-20.596,10.283c-9.109,4.989-0.621,11.278,3.551,9.704
				c43.547-5.84,45.686-27.55,45.882-27.973C268.25,107.442,263.024,107.049,239.413,115.428z"/>
			<path class="st7" d="M273.012,87.705c-12.464,4.323-28.94,12.83-50.727,23.63c-5.059,2.504-2.076,12.637,1.895,11.572
				c60.646-10.408,81.221-45,81.445-45.436C305.625,77.472,295.501,80.314,273.012,87.705z"/>
			<path class="st0" d="M273.012,87.705c-12.464,4.323-28.94,12.83-50.727,23.63c-5.059,2.504-2.076,12.637,1.895,11.572
				c60.646-10.408,81.221-45,81.445-45.436C305.625,77.472,295.501,80.314,273.012,87.705z"/>
			<path class="st7" d="M280.418,71.396c-15.267,5.565-36.787,15.047-66.408,31.166l-2.209,5.153l7.733,1.286
				c64.451-8.643,93.124-43.413,93.359-48.133C312.894,60.868,300.919,65.012,280.418,71.396z"/>
			<path class="st0" d="M280.418,71.396c-15.267,5.565-36.787,15.047-66.408,31.166l-2.209,5.153l7.733,1.286
				c64.451-8.643,93.124-43.413,93.359-48.133C312.894,60.868,300.919,65.012,280.418,71.396z"/>
			<path class="st7" d="M284.954,52.692c-15.324,5.681-36.948,14.514-66.737,31.351l4.548,4.754l1.379,6.447
				c84.193-26.855,95.266-51.538,95.503-57.12C319.646,38.124,307.568,45.986,284.954,52.692z"/>
			<path class="st0" d="M284.954,52.692c-15.324,5.681-36.948,14.514-66.737,31.351l4.548,4.754l1.379,6.447
				c84.193-26.855,95.266-51.538,95.503-57.12C319.646,38.124,307.568,45.986,284.954,52.692z"/>
			<path class="st7" d="M238.254,57.273c-7.997,4.31-15.954,8.71-23.831,13.212l4.57,4.729l1.409,6.441
				c103.704-36.6,100.622-55.838,101.343-65.583c-12.042,6.816-38.009,19.979-53.033,25.814c-8.471,3.291-15.42,7.401-20.188,9.916
				C245.094,53.609,241.669,55.435,238.254,57.273z"/>
			<path class="st0" d="M238.254,57.273c-7.997,4.31-15.954,8.71-23.831,13.212l4.57,4.729l1.409,6.441
				c103.704-36.6,100.622-55.838,101.343-65.583c-12.042,6.816-38.009,19.979-53.033,25.814c-8.471,3.291-15.42,7.401-20.188,9.916
				C245.094,53.609,241.669,55.435,238.254,57.273z"/>
			<path class="st7" d="M284.594,239.787c1.751-1.688,1.776-3.467-1.733-4.83c-15.601-6.057-8.32,1.041-13.995-0.865
				c-1.483-0.498-0.11-5.814,2.186-8.348c5.2-6.383,15.396-11.174,29.378-16.053c0.132-2.316-7.81-5.596-9.637-6.333
				c-1.53-0.515-3.163,2.289-3.124,2.294c-4.049,0.609-31.538,18.918-26.025,31.752c2.227,5.182,4.4,6.803,6.889,7.607
				C271.713,246.041,281.275,242.99,284.594,239.787z"/>
			<path class="st0" d="M284.594,239.787c1.751-1.688,1.776-3.467-1.733-4.83c-15.601-6.057-8.32,1.041-13.995-0.865
				c-1.483-0.498-0.11-5.814,2.186-8.348c5.2-6.383,15.396-11.174,29.378-16.053c0.132-2.316-7.81-5.596-9.637-6.333
				c-1.53-0.515-3.163,2.289-3.124,2.294c-4.049,0.609-31.538,18.918-26.025,31.752c2.227,5.182,4.4,6.803,6.889,7.607
				C271.713,246.041,281.275,242.99,284.594,239.787z"/>
			<path class="st7" d="M276.556,237.947c0,0,4.942,2.789,8.432,1.42L276.556,237.947z"/>
			<path class="st0" d="M276.556,237.947c0,0,4.942,2.789,8.432,1.42"/>
			<path class="st7" d="M280.711,242.281c0,0-4.649-0.229-8.644-3.189L280.711,242.281z"/>
			<path class="st0" d="M280.711,242.281c0,0-4.649-0.229-8.644-3.189"/>
			<path class="st7" d="M275.16,244.324c0,0-2.451-0.398-3.138-1.895L275.16,244.324z"/>
			<path class="st0" d="M275.16,244.324c0,0-2.451-0.398-3.138-1.895"/>
			<path class="st7" d="M249.638,239.017l2.966-4.777c0,0,1.072-1.557,1.996-2.324c0.924-0.77,2.742-1.848,3.377-3.141
				c0.477-0.969,0.801-1.613,0.936-2.582c0.208-1.482-0.109-2.91-0.059-3.541c0.091-1.125,0.257-2.523,1.08-3.379
				c0.506-0.525,2.455-3.869,2.124-4.938c-0.317-1.023-5.504-1.146-3.667-2.896c0.04-0.02,2.877-2.615,2.888-2.625
				c2.45-2.361-2.888-6.824,11.289-8.01c6.818-0.57,32.37-38.626,32.37-38.626l-14.081-19.374l-34.216,7.298
				c0,0,34.354,13.118-7.104,23.048c-4.823,1.155-5.135,6.687-7.604,8.26c-28.036,17.873-4.349,32.331-3.807,40.979
				c0.118,1.885,0.357,3.047-0.334,6.715c-0.84,4.463-9.01,17.48-9.871,18.883c-0.449,0.734-2.493,3.328-2.493,3.328
				c-4.267,3.186-10.843,5.783-12.248,6.09c-1.671,0.363-4.081,0.609-5.06,0.662s-2.113-0.217-2.113-0.217s-3.233-1.111-6.149,0.172
				c-8.022,3.527-7.092,7.947-7.092,7.947s-0.116,1.824,2.104,2.574c0,0-0.017,2.43,1.358,3.561
				c1.863,1.533,4.045,0.869,4.705,0.633c0,0,1.969,7.145,11.013,2.363c0,0,1.342,3.27,4.675,3.088
				c1.378-0.074,4.396-0.018,6.208-3.465c2.633-5.014,3.365-3.602,6.508-7.951c3.537-4.896,6.817-4.949,6.817-4.949
				s1.189-0.176,2.06-0.223c0,0,1.986,0.438,3.334-0.836c1.35-1.273,1.204-1.92,1.204-1.92c-0.288-2.158-1.271-4.357-0.715-6.527
				C242.787,249.4,249.638,239.017,249.638,239.017z"/>
			<path class="st0" d="M249.638,239.017l2.966-4.777c0,0,1.072-1.557,1.996-2.324c0.924-0.77,2.742-1.848,3.377-3.141
				c0.477-0.969,0.801-1.613,0.936-2.582c0.208-1.482-0.109-2.91-0.059-3.541c0.091-1.125,0.257-2.523,1.08-3.379
				c0.506-0.525,2.455-3.869,2.124-4.938c-0.317-1.023-5.504-1.146-3.667-2.896c0.04-0.02,2.877-2.615,2.888-2.625
				c2.45-2.361-2.888-6.824,11.289-8.01c6.818-0.57,32.37-38.626,32.37-38.626l-14.081-19.374l-34.216,7.298
				c0,0,34.354,13.118-7.104,23.048c-4.823,1.155-5.135,6.687-7.604,8.26c-28.036,17.873-4.349,32.331-3.807,40.979
				c0.118,1.885,0.357,3.047-0.334,6.715c-0.84,4.463-9.01,17.48-9.871,18.883c-0.449,0.734-2.493,3.328-2.493,3.328
				c-4.267,3.186-10.843,5.783-12.248,6.09c-1.671,0.363-4.081,0.609-5.06,0.662s-2.113-0.217-2.113-0.217s-3.233-1.111-6.149,0.172
				c-8.022,3.527-7.092,7.947-7.092,7.947s-0.116,1.824,2.104,2.574c0,0-0.017,2.43,1.358,3.561
				c1.863,1.533,4.045,0.869,4.705,0.633c0,0,1.969,7.145,11.013,2.363c0,0,1.342,3.27,4.675,3.088
				c1.378-0.074,4.396-0.018,6.208-3.465c2.633-5.014,3.365-3.602,6.508-7.951c3.537-4.896,6.817-4.949,6.817-4.949
				s1.189-0.176,2.06-0.223c0,0,1.986,0.438,3.334-0.836c1.35-1.273,1.204-1.92,1.204-1.92c-0.288-2.158-1.271-4.357-0.715-6.527
				C242.787,249.4,249.638,239.017,249.638,239.017z"/>
			<path class="st0" d="M194.87,268.542c0,0-0.367-3.742,7.238-8.246"/>
			<path class="st0" d="M200.992,272.824c0,0-1.078-4.412,3.732-8.854c0,0,2.095-1.604,3.266-2.758"/>
			<path class="st0" d="M211.946,275.099c0,0-1.919-4.551,2.015-8.361c1.439-1.393,4.598-2.359,5.804-3.551"/>
			<path class="st6" d="M191.654,264.791c0,0-3.988,2.744-0.847,6.344c0,0-0.133-3.885,3.289-3.359c0,0,1.183-0.566,0.052-2.494
				C193.343,263.908,191.654,264.791,191.654,264.791z"/>
			<path class="st0" d="M191.654,264.791c0,0-3.988,2.744-0.847,6.344c0,0-0.133-3.885,3.289-3.359c0,0,1.183-0.566,0.052-2.494
				C193.343,263.908,191.654,264.791,191.654,264.791z"/>
			<path class="st6" d="M194.991,269.81c0,0-4.177,4.65,0.856,6.699c0,0-1.445-4.131,2.857-4.656c0,0,0.804-1.979-1.055-2.723
				C196.174,268.542,194.991,269.81,194.991,269.81z"/>
			<path class="st0" d="M194.991,269.81c0,0-4.177,4.65,0.856,6.699c0,0-1.445-4.131,2.857-4.656c0,0,0.804-1.979-1.055-2.723
				C196.174,268.542,194.991,269.81,194.991,269.81z"/>
			<path class="st6" d="M202.303,272.994c0,0-2.822,5.021,1.707,7.16c0,0-0.068-3.916,2.684-5.371c0,0,1.018-2.301-1.035-3.174
				C204.031,270.916,202.303,272.994,202.303,272.994z"/>
			<path class="st0" d="M202.303,272.994c0,0-2.822,5.021,1.707,7.16c0,0-0.068-3.916,2.684-5.371c0,0,1.018-2.301-1.035-3.174
				C204.031,270.916,202.303,272.994,202.303,272.994z"/>
			<path class="st6" d="M214.114,277.197c-0.165-1.486,0.323-3.473,2.099-3.666c1.066-0.115,2.442,0.195,2.448,1.51
				c0.017,3.418-2.269,4.197-3.052,6.674c-0.438-0.768-0.716-1.609-0.821-1.902c-0.286-0.783-0.533-1.627-0.653-2.453
				C214.127,277.306,214.12,277.251,214.114,277.197z"/>
			<path class="st0" d="M214.114,277.197c-0.165-1.486,0.323-3.473,2.099-3.666c1.066-0.115,2.442,0.195,2.448,1.51
				c0.017,3.418-2.269,4.197-3.052,6.674c-0.438-0.768-0.716-1.609-0.821-1.902c-0.286-0.783-0.533-1.627-0.653-2.453
				C214.127,277.306,214.12,277.251,214.114,277.197z"/>
			<path class="st7" d="M309.279,253.664c-0.246-1.93-0.366-3.066-0.366-3.066c-0.942-4.641,1.216-14.723,1.396-16.01
				c0.128-0.9,0.72-2.865,1.678-5.461l3.397-7.344c0.534-0.998,0.98-2.061,1.369-2.908c0.963-2.098,0.599-4.043-0.306-5.555
				c-0.503-0.846-1.67-1.766-2.589-2.373c-3.849-2.553-9.405-2.426-13.807-4.133c2.406-1.109,5.058-2.214,7.951-3.25
				c32.288-11.55,27.825-50.925-7.559-56.415c-0.117-0.019-0.27-0.008-0.446,0.019c-3.842-4.504-8.522-8.482-13.567-10.908
				c-7.58-3.644-16.084-2.293-23.984-0.546c-9.302,2.058-18.29,4.352-27.433,7.023c-8.531,2.493-14.045,4.769-27.563,6.825
				c-2.712,0.438-5.013,0.022-4.987-0.263c0.263-2.801,3.675-4.199,3.675-4.199c16.625,0.175,17.04-8.365,17.04-8.365
				c11.018-4.756,11.888-14.341,11.888-14.341c10.141-7.916,9.563-15.851,9.452-16.688c-3.137,1.087-9.909,4.678-11.881,6.241
				c1.732-1.372,12.9-8.563,13.889-20.229c-2.149,1.019-7.448,3.628-10.557,5.541c8.326-7.672,12.194-16.386,12.704-22.097
				c-4.236,1.905-8.055,4.434-13.143,8.8c4.975-4.549,12.872-12.649,9.942-20.028c-5.888,2.652-9.446,6.259-14.35,9.932
				c4.724-3.608,9.215-11.021,7.301-16.481c10.19-6.188,20.858-10.456,25.957-13.136c7.744-4.068,24.688-8.209,25.11-22.646
				c-9.229,7.947-28.391,2.435-69.857,36.135c0.842-4.835-0.456-7.603-0.456-7.603c-4.13,5.412-53.046,35.659-27.814,54.988
				c3.841,2.942,4.674,5.359,4.924,8.942c0.458,6.561-7.543,16.333-17.917,19.708c-0.278,0.091-4.246,1.164-7.75,0.625l-11-4.5
				c-4.06-2.565-17.085-7.099-18.566-6.134c-2.572,1.673-10.196-3.9-12.863-2.101c-2.829,1.908-6.384,11.304-8.925,13.125
				c-2.57,1.842-6.737,22.195-8.578,27.892c-5.185,16.034,5.774,27.19,10.872,30.933c0.035,0.024,0.134,0.081,0.093,0.081
				c-0.006,0,2.602-1.259,3.34-1.723c0.098-0.062,0.665-0.366,0.739-0.263c1.065,1.494,2.545,3.28,4.15,4.578
				c4.758,3.85,10.194,5.775,15.583,5.854c0.692,2.722-1.343,4.89-1.343,4.89c-2.49,2.414-5.094,6.168-7.02,6.846
				c2.23,2.848,4.087,3.043,6.3,3.148c2.28,0.107,3.367-2.57,5.738-3.383c-0.688,2.529,1.479,4.891,1.261,6.883
				c6.651,0,10.491-8.195,10.5-7.701c0.109,6.105,1.654,7.074,6.184,10.996c-0.131-1.721,0.654-3.545,1.223-5.125
				c1.336-3.723,6.893-5.17,9.611-8.102c4.463-4.813,3.282-9.056,3.282-9.056c5.086,5.779,17.386,1.453,22.669,4.923
				c0.467-2.97-2.575-7.902-4.97-9.861c6.074,0.078,10.637,4.883,17.468,4.461c-0.915-1.245-0.248-4.161-3.255-6.729
				c1.327-0.328,2.658-0.665,3.959-1.086c7.137-2.309,11.174-4.848,17.344-8.845c12.426-8.049,31.6-8.187,32.375-7.35
				c1.39,1.503-3.162,6.117-4.146,7.51c-4.916,6.944-11.158,16.229-10.894,25.143c0.181,6.041,5.07,8.592,10.208,10.234
				c5.674,1.813,11.568,2.805,17.533,2.516c3.108-0.148,6.174-0.648,9.271-0.91c1.734-0.148,4.123,0.262,6.023,0.896
				c0.728,0.242,1.978,0.813,2.083,1.082c1.542,1.502,0.74,3.934,0.74,3.934c-0.49,2.984-1.196,7.012-1.743,12.021
				c-0.771,7.057-3.46,11.428-3.46,11.428l-1.454,1.16c-0.304,0.24-1.939,1.029-2.307,1.348c-1.882,1.627-6.99,2.625-10.421,3.887
				c-3.432,1.262-7.686,3.129-7.616,7.283c0.046,2.793,2.896,3.434,2.896,3.434c-0.136,0.396-1.331,3.197,0.429,5.287
				c2.748,3.266,7.052,1.441,7.052,1.441c1.266,2.111,3.351,2.434,3.351,2.434c4.219,0.73,7.151-1.988,7.151-1.988
				s0.799,1.029,2.296,1.287c3.176,0.547,4.925-0.666,6.119-1.504c1.227-0.859,2.078-2.227,2.411-3.615
				c0.309-1.279,0.281-5.346,0.281-5.346s0.059-0.936,0.386-1.867c0.589-1.676,1.951-3.244,3.78-3.572
				c0.964-0.17,2.168-0.184,2.771-1.543c0.595-1.346,0.12-3.602-0.099-4.57L309.279,253.664z"/>
			<path class="st0" d="M309.279,253.664c-0.246-1.93-0.366-3.066-0.366-3.066c-0.942-4.641,1.216-14.723,1.396-16.01
				c0.128-0.9,0.72-2.865,1.678-5.461l3.397-7.344c0.534-0.998,0.98-2.061,1.369-2.908c0.963-2.098,0.599-4.043-0.306-5.555
				c-0.503-0.846-1.67-1.766-2.589-2.373c-3.849-2.553-9.405-2.426-13.807-4.133c2.406-1.109,5.058-2.214,7.951-3.25
				c32.288-11.55,27.825-50.925-7.559-56.415c-0.117-0.019-0.27-0.008-0.446,0.019c-3.842-4.504-8.522-8.482-13.567-10.908
				c-7.58-3.644-16.084-2.293-23.984-0.546c-9.302,2.058-18.29,4.352-27.433,7.023c-8.531,2.493-14.045,4.769-27.563,6.825
				c-2.712,0.438-5.013,0.022-4.987-0.263c0.263-2.801,3.675-4.199,3.675-4.199c16.625,0.175,17.04-8.365,17.04-8.365
				c11.018-4.756,11.888-14.341,11.888-14.341c10.141-7.916,9.563-15.851,9.452-16.688c-3.137,1.087-9.909,4.678-11.881,6.241
				c1.732-1.372,12.9-8.563,13.889-20.229c-2.149,1.019-7.448,3.628-10.557,5.541c8.326-7.672,12.194-16.386,12.704-22.097
				c-4.236,1.905-8.055,4.434-13.143,8.8c4.975-4.549,12.872-12.649,9.942-20.028c-5.888,2.652-9.446,6.259-14.35,9.932
				c4.724-3.608,9.215-11.021,7.301-16.481c10.19-6.188,20.858-10.456,25.957-13.136c7.744-4.068,24.688-8.209,25.11-22.646
				c-9.229,7.947-28.391,2.435-69.857,36.135c0.842-4.835-0.456-7.603-0.456-7.603c-4.13,5.412-53.046,35.659-27.814,54.988
				c3.841,2.942,4.674,5.359,4.924,8.942c0.458,6.561-7.543,16.333-17.917,19.708c-0.278,0.091-4.246,1.164-7.75,0.625l-11-4.5
				c-4.06-2.565-17.085-7.099-18.566-6.134c-2.572,1.673-10.196-3.9-12.863-2.101c-2.829,1.908-6.384,11.304-8.925,13.125
				c-2.57,1.842-6.737,22.195-8.578,27.892c-5.185,16.034,5.774,27.19,10.872,30.933c0.035,0.024,0.134,0.081,0.093,0.081
				c-0.006,0,2.602-1.259,3.34-1.723c0.098-0.062,0.665-0.366,0.739-0.263c1.065,1.494,2.545,3.28,4.15,4.578
				c4.758,3.85,10.194,5.775,15.583,5.854c0.692,2.722-1.343,4.89-1.343,4.89c-2.49,2.414-5.094,6.168-7.02,6.846
				c2.23,2.848,4.087,3.043,6.3,3.148c2.28,0.107,3.367-2.57,5.738-3.383c-0.688,2.529,1.479,4.891,1.261,6.883
				c6.651,0,10.491-8.195,10.5-7.701c0.109,6.105,1.654,7.074,6.184,10.996c-0.131-1.721,0.654-3.545,1.223-5.125
				c1.336-3.723,6.893-5.17,9.611-8.102c4.463-4.813,3.282-9.056,3.282-9.056c5.086,5.779,17.386,1.453,22.669,4.923
				c0.467-2.97-2.575-7.902-4.97-9.861c6.074,0.078,10.637,4.883,17.468,4.461c-0.915-1.245-0.248-4.161-3.255-6.729
				c1.327-0.328,2.658-0.665,3.959-1.086c7.137-2.309,11.174-4.848,17.344-8.845c12.426-8.049,31.6-8.187,32.375-7.35
				c1.39,1.503-3.162,6.117-4.146,7.51c-4.916,6.944-11.158,16.229-10.894,25.143c0.181,6.041,5.07,8.592,10.208,10.234
				c5.674,1.813,11.568,2.805,17.533,2.516c3.108-0.148,6.174-0.648,9.271-0.91c1.734-0.148,4.123,0.262,6.023,0.896
				c0.728,0.242,1.978,0.813,2.083,1.082c1.542,1.502,0.74,3.934,0.74,3.934c-0.49,2.984-1.196,7.012-1.743,12.021
				c-0.771,7.057-3.46,11.428-3.46,11.428l-1.454,1.16c-0.304,0.24-1.939,1.029-2.307,1.348c-1.882,1.627-6.99,2.625-10.421,3.887
				c-3.432,1.262-7.686,3.129-7.616,7.283c0.046,2.793,2.896,3.434,2.896,3.434c-0.136,0.396-1.331,3.197,0.429,5.287
				c2.748,3.266,7.052,1.441,7.052,1.441c1.266,2.111,3.351,2.434,3.351,2.434c4.219,0.73,7.151-1.988,7.151-1.988
				s0.799,1.029,2.296,1.287c3.176,0.547,4.925-0.666,6.119-1.504c1.227-0.859,2.078-2.227,2.411-3.615
				c0.309-1.279,0.281-5.346,0.281-5.346s0.059-0.936,0.386-1.867c0.589-1.676,1.951-3.244,3.78-3.572
				c0.964-0.17,2.168-0.184,2.771-1.543c0.595-1.346,0.12-3.602-0.099-4.57L309.279,253.664z"/>
			<path class="st7" d="M273.532,267.947c0,0,0.622-1.838,2.465-3.521c2.138-1.953,3.839-2.314,4.031-2.406
				c0.211-0.102,2.581-1.283,3.042-1.791L273.532,267.947z"/>
			<path class="st0" d="M273.532,267.947c0,0,0.622-1.838,2.465-3.521c2.138-1.953,3.839-2.314,4.031-2.406
				c0.211-0.102,2.581-1.283,3.042-1.791"/>
			<path class="st7" d="M280.985,274.746c0,0-1.162-1.898,0.025-4.365c1.203-2.504,3.309-3.6,3.309-3.6s1.76-1.174,1.954-2.375
				L280.985,274.746z"/>
			<path class="st0" d="M280.985,274.746c0,0-1.162-1.898,0.025-4.365c1.203-2.504,3.309-3.6,3.309-3.6s1.76-1.174,1.954-2.375"/>
			<path class="st7" d="M291.487,275.191c0,0-1.57-1.295-0.906-3.848c0.552-2.117,2.262-3.555,2.262-3.555s1.255-1.074,0.951-1.924
				L291.487,275.191z"/>
			<path class="st0" d="M291.487,275.191c0,0-1.57-1.295-0.906-3.848c0.552-2.117,2.262-3.555,2.262-3.555s1.255-1.074,0.951-1.924"
				/>
			<path class="st6" d="M281.216,274.099c0,0-4.025,5.424,1.896,7.111c0,0-1.818-4.826,2.54-5.439c0,0,0.957-2.326-1.119-3.146
				C282.888,271.976,281.216,274.099,281.216,274.099z"/>
			<path class="st0" d="M281.216,274.099c0,0-4.025,5.424,1.896,7.111c0,0-1.818-4.826,2.54-5.439c0,0,0.957-2.326-1.119-3.146
				C282.888,271.976,281.216,274.099,281.216,274.099z"/>
			<path class="st6" d="M274.284,270.066c0,0-5.331,3.266-1.09,6.664c0,0-0.206-4.371,4.067-3.645c0,0,1.335-1.668-0.235-2.912
				C275.779,269.187,274.284,270.066,274.284,270.066z"/>
			<path class="st0" d="M274.284,270.066c0,0-5.331,3.266-1.09,6.664c0,0-0.206-4.371,4.067-3.645c0,0,1.335-1.668-0.235-2.912
				C275.779,269.187,274.284,270.066,274.284,270.066z"/>
			<path class="st6" d="M270.741,263.892c0,0-4.188,2.43-1.332,6.26c0,0,0.166-3.883,3.538-3.096c0,0,1.223-0.473,0.244-2.482
				C272.492,263.146,270.741,263.892,270.741,263.892z"/>
			<path class="st0" d="M270.741,263.892c0,0-4.188,2.43-1.332,6.26c0,0,0.166-3.883,3.538-3.096c0,0,1.223-0.473,0.244-2.482
				C272.492,263.146,270.741,263.892,270.741,263.892z"/>
			<path class="st6" d="M293.335,275.603c-0.204-1.484,0.232-3.482,2.001-3.723c1.063-0.145,2.447,0.131,2.487,1.443
				c0.107,3.416-2.155,4.258-2.875,6.75c-0.456-0.752-0.755-1.586-0.871-1.875c-0.305-0.777-0.574-1.615-0.716-2.438
				C293.353,275.708,293.342,275.658,293.335,275.603z"/>
			<path class="st0" d="M293.335,275.603c-0.204-1.484,0.232-3.482,2.001-3.723c1.063-0.145,2.447,0.131,2.487,1.443
				c0.107,3.416-2.155,4.258-2.875,6.75c-0.456-0.752-0.755-1.586-0.871-1.875c-0.305-0.777-0.574-1.615-0.716-2.438
				C293.353,275.708,293.342,275.658,293.335,275.603z"/>
			<path class="st0" d="M258.834,254.82"/>
			<path class="st0" d="M280.521,250.83"/>
			<path class="st0" d="M271.136,256.201"/>
			<path class="st0" d="M300.054,255.343"/>
			<path class="st7" d="M165.137,68.892c-0.001,0.004,1.642-4.618,6.345-6.683c3.034-1.332,5.862-4.207,7.584-7.115
				c1.102-1.86,1.884-4.369,2.067-6.525c-3.346,2.83-12.096,1.705-16.346,7.205C164.552,56.078,165.151,68.807,165.137,68.892z"/>
			<path class="st0" d="M165.137,68.892c-0.001,0.004,1.642-4.618,6.345-6.683c3.034-1.332,5.862-4.207,7.584-7.115
				c1.102-1.86,1.884-4.369,2.067-6.525c-3.346,2.83-12.096,1.705-16.346,7.205C164.552,56.078,165.151,68.807,165.137,68.892z"/>
			<path class="st2" d="M194.742,194.275c1.474,0.563,2.892,1.28,4.231,2.199L194.742,194.275z"/>
			<path class="st0" d="M194.742,194.275c1.474,0.563,2.892,1.28,4.231,2.199"/>
			<path class="st7" d="M171.259,135.104l-3.184-1.031C168.869,134.593,170.008,134.911,171.259,135.104z"/>
			<path class="st0" d="M171.259,135.104l-3.184-1.031C168.869,134.593,170.008,134.911,171.259,135.104z"/>
			<path class="st4" d="M294.994,201.961c-0.792-2.654,0.335-5.676,1.469-8.096c2.141-4.576,5.15-8.698,7.644-13.079
				c3.877-6.813,5.649-13.587,3.672-20.509c11.667,3.078,22.416,25.721-0.168,35.675
				C302.447,198.227,298.321,200.211,294.994,201.961z"/>
			<path class="st0" d="M294.994,201.961c-0.792-2.654,0.335-5.676,1.469-8.096c2.141-4.576,5.15-8.698,7.644-13.079
				c3.877-6.813,5.649-13.587,3.672-20.509c11.667,3.078,22.416,25.721-0.168,35.675
				C302.447,198.227,298.321,200.211,294.994,201.961z"/>
			<path class="st0" d="M130.769,175.631c0,0,2.75,3.3,6.825,4.725c4.075,1.427,6.547,0.429,8.787,0.77
				c2.446,0.369,3.261,0.745,4.144,1.29c0,0,0.068-2.58,0.339-4.278c0.272-1.698,1.019-6.587,0.543-10.119
				c-0.475-3.532-2.92-7.538-5.365-9.169"/>
			<path class="st0" d="M160.755,168.472c2.039,0.61,3.445,0.716,6.249,0.067c1.766-0.406,4.075-0.271,5.161-0.203
				c0,0-0.928-1.696-0.883-3.803c0.072-3.333-1.018-7.675-5.297-11.206"/>
			<path class="st0" d="M110.911,162.46c-0.654,1.17-1.215,4.234-1.329,4.78c-1.124,5.376,0.493,18.234,12.043,26.284
				c7.701-2.624,10.587-8.576,9.013-18.157"/>
			<path class="st7" d="M115.15,161.062c0,0,2.94,11.419,16.196,10.5c0.755-0.058-1.575-3.938,0.525-8.925
				c1.556-3.695,1.727-5.583,2.311-8.925c0,0-0.74-4.486-3.365-7.897l-1.837-7.351l-8.925,4.463l-4.891,13.543l-2.197,1.42
				C112.966,157.89,116.129,158.28,115.15,161.062z"/>
			<path class="st0" d="M115.15,161.062c0,0,2.94,11.419,16.196,10.5c0.755-0.058-1.575-3.938,0.525-8.925
				c1.556-3.695,1.727-5.583,2.311-8.925c0,0-0.74-4.486-3.365-7.897l-1.837-7.351l-8.925,4.463l-4.891,13.543l-2.197,1.42
				C112.966,157.89,116.129,158.28,115.15,161.062z"/>
			<path class="st7" d="M123.996,143.212c0.135,7.018-4.218,13.12-5.25,14.044c-3.325,2.976-5.722,4.141-7.963,5.158
				c-2.006,0.912-7.267,2.31-7.267,2.31c0.748-0.748,0.853-1.762,1.056-4.273c0.141-1.72-1.485-4.618-1.751-5.775
				c-0.787-3.412-1.005-5.949,1.751-10.675c1.199-2.055,4.782-5.086,5.643-6.038l1.438-7.897l11.813-2.888l3.15,7.875
				L123.996,143.212z"/>
			<path class="st0" d="M123.996,143.212c0.135,7.018-4.218,13.12-5.25,14.044c-3.325,2.976-5.722,4.141-7.963,5.158
				c-2.006,0.912-7.267,2.31-7.267,2.31c0.748-0.748,0.853-1.762,1.056-4.273c0.141-1.72-1.485-4.618-1.751-5.775
				c-0.787-3.412-1.005-5.949,1.751-10.675c1.199-2.055,4.782-5.086,5.643-6.038l1.438-7.897l11.813-2.888l3.15,7.875
				L123.996,143.212z"/>
			<path class="st7" d="M148.256,137.166c0,0,0.279,6.72,3.988,8.889s6.299,2.1,8.328,1.679c2.031-0.42,4.881,0.52,6.211,0.729
				c1.329,0.211,3.588,0.91,6.038,3.15c0,0,0.91-4.018,0.84-5.174c-0.071-1.151-0.028-5.948-1.648-10.001
				c-1.049-2.624-7.262-7.963-4.713-13.613c0,0-7.972,0.257-6.755-3.462l-4.941-7.164l-3.639-2.241h-7.839l-1.681,8.398l-4.197,2.8
				l1.679-6.998l-3.64-5.879l-9.358,1.711l-8.277,6.407c-10.799,3.716-13.163,13.69-13.163,13.69
				c-1.574,4.594-0.524,11.156-0.524,11.156c1.181-0.787,4.032-2.287,4.728-2.701c0.49-0.291,1.796-1.026,3.15-1.341
				c1.548-0.36,3.813-0.49,6.275-2.205c2.194-1.527,3.733-4.572,3.733-4.572c0.28,1.4,0,3.453,0,3.453
				c-0.468,2.052-0.487,6.435,0.84,9.238c2.405,5.085,5.786,7.371,6.906,8.118c1.118,0.747,6.699,3.792,6.699,3.792
				s3.792-4.474,5.192-6.246s2.59-5.146,2.706-9.287c0.063-2.22-0.361-4.419-1.984-7.305L148.256,137.166z"/>
			<path class="st0" d="M148.256,137.166c0,0,0.279,6.72,3.988,8.889s6.299,2.1,8.328,1.679c2.031-0.42,4.881,0.52,6.211,0.729
				c1.329,0.211,3.588,0.91,6.038,3.15c0,0,0.91-4.018,0.84-5.174c-0.071-1.151-0.028-5.948-1.648-10.001
				c-1.049-2.624-7.262-7.963-4.713-13.613c0,0-7.972,0.257-6.755-3.462l-4.941-7.164l-3.639-2.241h-7.839l-1.681,8.398l-4.197,2.8
				l1.679-6.998l-3.64-5.879l-9.358,1.711l-8.277,6.407c-10.799,3.716-13.163,13.69-13.163,13.69
				c-1.574,4.594-0.524,11.156-0.524,11.156c1.181-0.787,4.032-2.287,4.728-2.701c0.49-0.291,1.796-1.026,3.15-1.341
				c1.548-0.36,3.813-0.49,6.275-2.205c2.194-1.527,3.733-4.572,3.733-4.572c0.28,1.4,0,3.453,0,3.453
				c-0.468,2.052-0.487,6.435,0.84,9.238c2.405,5.085,5.786,7.371,6.906,8.118c1.118,0.747,6.699,3.792,6.699,3.792
				s3.792-4.474,5.192-6.246s2.59-5.146,2.706-9.287c0.063-2.22-0.361-4.419-1.984-7.305"/>
			<path class="st6" d="M100.964,62.499c0,0,1.761,10.788,16.846,8.859c12.235-1.564,10.994-0.494,12.568,2.664
				c0.996,2,7.166,2.94,7.166,2.94l7.068-7.441c0,0-12.547-7.198-24.983-4.042C111.578,67.521,103.518,65.053,100.964,62.499z"/>
			<path class="st0" d="M100.964,62.499c0,0,1.761,10.788,16.846,8.859c12.235-1.564,10.994-0.494,12.568,2.664
				c0.996,2,7.166,2.94,7.166,2.94l7.068-7.441c0,0-12.547-7.198-24.983-4.042C111.578,67.521,103.518,65.053,100.964,62.499z"/>
			<path class="st6" d="M138.012,56.468l6.515,8l-1.103,13.052l-4.667,3.617c0,0-2.681-3.347-14.328-4.909
				c-4.677-0.627-11.213,2.205-11.213,2.205s1.532-7.993,10.26-7.993c5.821,0,9.192,2.48,13.786,2.48
				c4.594,0-0.438-12.006-8.731-10.65c0,0-3.981-6.816-15.927-0.078c0,0-3.197-17.285,25.292-9.628L138.012,56.468z"/>
			<path class="st0" d="M138.012,56.468l6.515,8l-1.103,13.052l-4.667,3.617c0,0-2.681-3.347-14.328-4.909
				c-4.677-0.627-11.213,2.205-11.213,2.205s1.532-7.993,10.26-7.993c5.821,0,9.192,2.48,13.786,2.48
				c4.594,0-0.438-12.006-8.731-10.65c0,0-3.981-6.816-15.927-0.078c0,0-3.197-17.285,25.292-9.628L138.012,56.468z"/>
			<path class="st7" d="M174.745,52.523c-2.411,0.532-3.5,1.125-5.458,2.376c-1.16-3.332-6.239-4.209-9.25-4.834
				c-5.582-1.161-9.25-1.416-17.087,0.574c-3.635,0.924-7.081,2.629-5.992,6.946c0.953,3.778,4.983,5.237,5.284,9.424
				c0.343,4.77-1.166,9.979-3.428,14.128c2.706,2.537,3.274,5.03,3.274,5.03c1.182,2.888-1.706,8.794-4.463,10.852
				c-2.579,1.925-5.923,1.877-5.906,1.969c0.46,2.362,3.118,2.556,3.106,2.626c-0.659,3.538-6.715,5.199-9.989,6.872
				c-3.054,1.559-5.086,3.921-7.063,6.649c4.703,2.11,16.443,5.504,18.932-1.435c1.062,2.515-0.777,5.467-0.517,8.117
				c0.233,2.362,1.47,5.728,3.994,6.461c1.292-2.416,5.817-2.362,8.042-3.5c2.677-1.37,4.244-3.49,5.165-6.359
				c2.088,7.079,14.132,13.01,20.725,8.83c-4.56-1.991-5.337-9.449-4.462-13.913c0.933-4.765,1.681-9.845,1.968-12.731
				c0.012-0.11,1.969,2.231,6.3,1.051c-2.581-2.493-3.815-6.264-3.805-8.706c0-0.075,0.962,0.263,2.624-1.007
				c0.001-0.001-2.1-0.263-2.625-8.269c0,0-0.408-6.492-1.575-10.237c-1.298-4.165-3.777-5.905-3.588-5.949
				c2.254-0.506,5.556-0.669,10.004-4.673c3.333-3,5.79-9.979,6.249-12.166C182.537,52.482,178.995,51.586,174.745,52.523z"/>
			<path class="st0" d="M174.745,52.523c-2.411,0.532-3.5,1.125-5.458,2.376c-1.16-3.332-6.239-4.209-9.25-4.834
				c-5.582-1.161-9.25-1.416-17.087,0.574c-3.635,0.924-7.081,2.629-5.992,6.946c0.953,3.778,4.983,5.237,5.284,9.424
				c0.343,4.77-1.166,9.979-3.428,14.128c2.706,2.537,3.274,5.03,3.274,5.03c1.182,2.888-1.706,8.794-4.463,10.852
				c-2.579,1.925-5.923,1.877-5.906,1.969c0.46,2.362,3.118,2.556,3.106,2.626c-0.659,3.538-6.715,5.199-9.989,6.872
				c-3.054,1.559-5.086,3.921-7.063,6.649c4.703,2.11,16.443,5.504,18.932-1.435c1.062,2.515-0.777,5.467-0.517,8.117
				c0.233,2.362,1.47,5.728,3.994,6.461c1.292-2.416,5.817-2.362,8.042-3.5c2.677-1.37,4.244-3.49,5.165-6.359
				c2.088,7.079,14.132,13.01,20.725,8.83c-4.56-1.991-5.337-9.449-4.462-13.913c0.933-4.765,1.681-9.845,1.968-12.731
				c0.012-0.11,1.969,2.231,6.3,1.051c-2.581-2.493-3.815-6.264-3.805-8.706c0-0.075,0.962,0.263,2.624-1.007
				c0.001-0.001-2.1-0.263-2.625-8.269c0,0-0.408-6.492-1.575-10.237c-1.298-4.165-3.777-5.905-3.588-5.949
				c2.254-0.506,5.556-0.669,10.004-4.673c3.333-3,5.79-9.979,6.249-12.166C182.537,52.482,178.995,51.586,174.745,52.523z"/>
			<path class="st0" d="M159.556,59.887c-8.043,2.77-14.046-6.173-17.464-0.097"/>
			<path class="st0" d="M144.511,57.571c-2.563,7.082,7.366,9.259,7.996,2.109"/>
			<path d="M148.996,61.146c-0.178,0.933-1.119,1.534-2.097,1.344c-0.979-0.188-1.625-1.097-1.446-2.027
				c0.179-0.931,1.118-1.534,2.096-1.344C148.529,59.308,149.177,60.216,148.996,61.146z"/>
			<path class="st7" d="M294.884,201.794c0,0,0.273,3.61,5.168,5.02L294.884,201.794z"/>
			<path class="st0" d="M294.884,201.794c0,0,0.273,3.61,5.168,5.02"/>
			<path class="st0" d="M166.12,57.482c3.833,1.25,5.917-3.084,13.5-2.209c0,0-2.5,7.875-8.375,9"/>
			<path class="st7" d="M181.287,201.732c-1.619-5.862-4.024-8.42-8.399-10.258L181.287,201.732z"/>
			<path class="st0" d="M181.287,201.732c-1.619-5.862-4.024-8.42-8.399-10.258"/>
			<path class="st7" d="M145.457,202.149c0,0-0.48-3.325-3.499-5.382L145.457,202.149z"/>
			<path class="st0" d="M145.457,202.149c0,0-0.48-3.325-3.499-5.382"/>
			<path class="st6" d="M171.353,31.545c-0.837-3.858-6.914-2.341-5.544,4.376c0.486,2.369,2.602,4.004,2.598,3.946
				c-0.157-1.631,1.843-2.395,2.166-0.722c0.176,0.891-0.13,1.854-0.625,2.467c-0.486,0.596-1.546,0.667-2.054,0.48
				c-0.075-0.022-1.361-0.815-2.114-1.059c-0.895-0.388-1.948-0.685-2.844-0.902c-1.844-0.445-3.886-1.106-5.972-1.296
				c-0.202-0.017-0.086-0.588-0.114-1.129c-0.221-4.32,2.939-2.84,2.494-0.318c-0.022,0.13,3.034-1.512,4.093-4.294
				c1.724-4.534-2.464-8.716-5.759-4.482c2.857-5.13-4.156-9.651-4.156-9.651c-1.914,1.945-6.403,4.637-4.252,9.597
				c-3.245-4.266-7.483-0.137-5.811,4.417c1.027,2.797,4.065,4.473,4.044,4.342c-0.416-2.527,2.759-3.972,2.49,0.345
				c-0.034,0.54,0.075,1.112-0.129,1.13c-2.085,0.163-4.133,0.804-5.983,1.229c-0.9,0.207-1.956,0.492-2.856,0.873
				c-0.753,0.233-2.049,1.007-2.123,1.032c-0.512,0.181-1.572,0.097-2.048-0.506c-0.492-0.618-0.785-1.585-0.602-2.474
				c0.349-1.667,2.337-0.883,2.158,0.749c-0.003,0.054,2.131-1.558,2.643-3.921c1.449-6.701-4.611-8.283-5.492-4.437
				c-0.218-4.786-6.168-4.059-8.523-4.521l10.326,25.146c0.923-1.39,3.326-0.772,4.508-1.729c0.175-0.097,1.563-0.333,1.75-0.417
				c4.124-1.917,9.06-1.552,9.5-1.666c0.059,0.021,0.942,0.188,1,0.166c0.438,0.119,4.9-0.544,9,1.417
				c0.187,0.09,1.573,0.485,1.75,0.583c1.167,0.974,3.536,0.431,4.446,1.834l10.72-25.167
				C177.677,27.422,171.624,26.764,171.353,31.545z"/>
			<path class="st0" d="M171.353,31.545c-0.837-3.858-6.914-2.341-5.544,4.376c0.486,2.369,2.602,4.004,2.598,3.946
				c-0.157-1.631,1.843-2.395,2.166-0.722c0.176,0.891-0.13,1.854-0.625,2.467c-0.486,0.596-1.546,0.667-2.054,0.48
				c-0.075-0.022-1.361-0.815-2.114-1.059c-0.895-0.388-1.948-0.685-2.844-0.902c-1.844-0.445-3.886-1.106-5.972-1.296
				c-0.202-0.017-0.086-0.588-0.114-1.129c-0.221-4.32,2.939-2.84,2.494-0.318c-0.022,0.13,3.034-1.512,4.093-4.294
				c1.724-4.534-2.464-8.716-5.759-4.482c2.857-5.13-4.156-9.651-4.156-9.651c-1.914,1.945-6.403,4.637-4.252,9.597
				c-3.245-4.266-7.483-0.137-5.811,4.417c1.027,2.797,4.065,4.473,4.044,4.342c-0.416-2.527,2.759-3.972,2.49,0.345
				c-0.034,0.54,0.075,1.112-0.129,1.13c-2.085,0.163-4.133,0.804-5.983,1.229c-0.9,0.207-1.956,0.492-2.856,0.873
				c-0.753,0.233-2.049,1.007-2.123,1.032c-0.512,0.181-1.572,0.097-2.048-0.506c-0.492-0.618-0.785-1.585-0.602-2.474
				c0.349-1.667,2.337-0.883,2.158,0.749c-0.003,0.054,2.131-1.558,2.643-3.921c1.449-6.701-4.611-8.283-5.492-4.437
				c-0.218-4.786-6.168-4.059-8.523-4.521l10.326,25.146c0.923-1.39,3.326-0.772,4.508-1.729c0.175-0.097,1.563-0.333,1.75-0.417
				c4.124-1.917,9.06-1.552,9.5-1.666c0.059,0.021,0.942,0.188,1,0.166c0.438,0.119,4.9-0.544,9,1.417
				c0.187,0.09,1.573,0.485,1.75,0.583c1.167,0.974,3.536,0.431,4.446,1.834l10.72-25.167
				C177.677,27.422,171.624,26.764,171.353,31.545z"/>
			<path class="st5" d="M153.287,47.482c0,0-8.75-0.25-16.166,3.333l0.62,2.449c3.962-2.254,8.754-2.866,15.629-2.991
				c0.016,0,8.375-0.125,15.506,3.217l0.719-2.199C165.747,48.643,159.704,47.565,153.287,47.482z"/>
			<path class="st0" d="M153.287,47.482c0,0-8.75-0.25-16.166,3.333l0.62,2.449c3.962-2.254,8.754-2.866,15.629-2.991
				c0.016,0,8.375-0.125,15.506,3.217l0.719-2.199C165.747,48.643,159.704,47.565,153.287,47.482z"/>
			<path class="st2" d="M252.435,76.492c0,0,37.913-16.122,40.885-19.846L252.435,76.492z"/>
			<path class="st0" d="M252.435,76.492c0,0,37.913-16.122,40.885-19.846"/>
			<path class="st2" d="M251.479,93.985c0,0,34.479-15.429,36.231-17.728L251.479,93.985z"/>
			<path class="st0" d="M251.479,93.985c0,0,34.479-15.429,36.231-17.728"/>
			<path class="st0" d="M247.692,109.184c0,0,22.706-8.142,32.21-15.123"/>
			<path class="st2" d="M240.038,124.537c0,0,9.628-1.959,12.492-4.163L240.038,124.537z"/>
			<path class="st0" d="M240.038,124.537c0,0,9.628-1.959,12.492-4.163"/>
			<path class="st2" d="M249.592,62.009c0,0,28.613-12.085,44.852-20.523L249.592,62.009z"/>
			<path class="st0" d="M249.592,62.009c0,0,28.613-12.085,44.852-20.523"/>
			<path class="st0" d="M220.607,95.218c7.112-2.008,8.697,8.865,2.031,10.721"/>
			<path class="st0" d="M222.639,105.938c6.143,0.669,6.725,10.086-1.834,11.516"/>
			<path class="st0" d="M220.805,117.454c0.554,0.151,1.185,0.64,1.665,0.953c0.46,0.304,0.915,0.643,1.276,1.063
				c0.657,0.757,0.876,1.692,0.771,2.673c-0.238,2.278-1.635,4.452-3.741,5.403c-1.48,0.669-3.504,1.122-5.13,1.104"/>
			<path class="st0" d="M210.161,137.765c4.862,0.684,11.404-6.581,5.485-9.115"/>
			<path class="st1" d="M215.091,83.658c0,0,11.001-5.946,16.032-9.792L215.091,83.658z"/>
			<path class="st0" d="M215.091,83.658c0,0,11.001-5.946,16.032-9.792"/>
			<path class="st1" d="M222.398,92.752c4.691-2.153,9.179-5.346,13.132-8.789L222.398,92.752z"/>
			<path class="st0" d="M222.398,92.752c4.691-2.153,9.179-5.346,13.132-8.789"/>
			<path class="st1" d="M226.002,103.423c2.996-1.171,7.034-3.564,9.967-6.163L226.002,103.423z"/>
			<path class="st0" d="M226.002,103.423c2.996-1.171,7.034-3.564,9.967-6.163"/>
			<path class="st1" d="M224.895,115.752c2.569-0.874,5.319-2.182,7.879-3.909L224.895,115.752z"/>
			<path class="st0" d="M224.895,115.752c2.569-0.874,5.319-2.182,7.879-3.909"/>
			<path class="st0" d="M217.272,128.614c0,0,9.477,0.357,17.793-6.22"/>
			<path class="st0" d="M210.161,137.765c1.956,0.32,5.723,1.627,13.017-1.029"/>
			<path class="st2" d="M243.808,49.369c0,0,12.071-6.082,16.91-7.702L243.808,49.369z"/>
			<path class="st0" d="M243.808,49.369c0,0,12.071-6.082,16.91-7.702"/>
			<path class="st0" d="M204.215,82.164c4.694-7.282,14.026-2.83,9.862,6.492"/>
			<path class="st0" d="M214.077,88.656c6.337-4.932,11.494,2.347,6.53,6.562"/>
			<path class="st0" d="M206.138,145.362c0,0,1.452-3.828,4.484-7.794"/>
			<path class="st0" d="M172.669,137.449c18.075,1.449,33.826-19.301,31.826-29.301c-0.819-4.096-2-6.375-4.835-9.406
				c-21.315-22.783,28.305-36.286,37.398-44.971c0,0,0.977,1.499,1.433,3.951"/>
			<path class="st8" d="M149.328,59.106c1.605,1.417,0.73,4.25-1.958,4.479"/>
		</g>
	</svg>