<svg xmlns="http://www.w3.org/2000/svg" style="shape-rendering:geometricPrecision;text-rendering:geometricPrecision;image-rendering:optimizeQuality;fill-rule:evenodd;clip-rule:evenodd" viewBox="0 0 210 229.478"><title>Herb Kcynia</title><defs><style>.fil0{fill:#0a0b0c}</style></defs><g id="Warstwa_x0020_1"><g id="_70878680"><path id="_70878992" d="M210 134.25c.318 56.233-46.99 97.298-105 95.153-55.745 0-105-44.701-105-95.153V0h206.06L210 3.839z" class="fil0"/><path id="_70878920" d="M204.196 131.93c0 50.714-45.341 92.076-100.933 92.076-55.509 0-100.934-41.438-100.934-92.076V2.02h201.867z" style="fill:#da251d"/><path id="_70878848" d="M76.822 75.185c-13.454-.717-45.543-7.102-49.144-30.551-1.138-7.414 4.79-12.264 10.958-13.606 5.99-1.303 13.89 2.192 14.618 8.89.766 7.041-9.002 8.584-11.208 3.56 1.321-1.15 1.728-3.037 1.104-4.744-1.336-3.654-5.89-3.468-8.37-1.218-2.328 2.114-2.8 5.69-1.787 8.89 2.06 6.51 9.464 8.974 15.601 8.88 10.491-.16 18.584-7.966 15.26-18.943-2.967-9.8-13.793-14.445-24.347-14.816-8.085-.284-15.934 2.59-21.223 8.459-6.281 6.968-7.956 19.306-6.797 28.184.616 4.725 1.67 9.412 4.308 9.486.345 18.13-4.501 29.94-12.9 37.426 15.613 1.802 24.382-7.263 29.028-18.348-.811 18.08-12.553 38.09-23.032 49.999 23.96-2.088 37.3-19.086 41.493-48.924.461-.38.8-.819 1.084-1.286 1.25 23.414-9.791 38.704-20.262 56.032 18.879-.89 34.26-24.548 38.79-46.191-.68 4.97-1.47 9.939-2.34 14.908 3.788-1.056 9.777-5.484 13.295-10.57.52 1.689 1.123 3.456 2.667 5.333.54.656.903 1.49 1.175 2.401-6.755.509-13.714 5.548-15.918 13.053-2.272 7.736-5.157 14.42-9.803 18.147 1.142.485 2.564.691 4.176.707-3.87 2.254-7.73 4.447-11.879 6.187-3.64 1.526-7.291 3.289-11.054 4.994-1.406.638-3.652 1.093-5.109.295-1.63-.894-1.78-1.872-1.676-3.525.126-2-.449-4.762-3.492-5.177-4.67-4.04-9.551-1.35-9.066 3.874.927-.155 2.582-.339 2.891.434-1.097 1.18-.761 3.123.57 3.935 2.052 1.25 2.667 2.258 2.612 2.924-1.275 0-2.033-.853-2.98-1.453-1.467-.927-4.806-.879-6.138.098-2.652-.371-4.077 1.013-4.369 2.805-.383 2.355.692 5.048 2.74 5.196-.004-.617.554-2.069 1.225-2.176.368 3.685 5.717 1.668 6.719 1.571-.142.427-.641.99-1.317 1.094-1.139.176-1.563.883-1.465 2.1-5.364 4.15-.777 10.846 5.15 8.011-1.235-.309-2.24-2.73-.54-2.73 2.34.72 4.99-.098 5.615-2.573.21-.833.314-1.704.863-2.286.872-.925 1.948-1.42 3.44-.982 1.457.427 3.155 1.2 4.782 2.19.218 3.41 4.507 3.291 5.385 2.234.694.667.79 1.856.802 3.12 3.392.647 6.345-1.067 5.423-7.579.211-1.413-.572-2.415-1.546-3.074-1.573-1.063-4.184-1.033-5.53-.998-1.335.036-2.834-.202.456-1.364 7.362-2.6 14.915-5.009 22.807-7.079 2.15-.564 7.65.773 8.875-2.627 2.403 3.933 6.141 5.074 10.487 4.945-1.771-16.37 2.689-19.372 6.915-20.013.53 2.53.929 5.385 1.118 8.63-5.113 1.682-8.498 7.818-.746 12.075 0 7.123-.322 13.92-7.15 17.76-3.674 2.068-9.031 2.787-10.597-2.14-.906-2.85.492-5.918 1.763-8.46-8.01-1.259-14.53 10.563-11.905 17.543 3.373 8.973 16.795 8.531 23.365 4.808-4.094 3.95-8.791 6.107-13.548 6.053-5.434-.062-10.65-3.041-16.029-9.903-1.216 10.635-1.61 24.824 15.88 26.63 5.758.594 12.095-.67 16.844-3.184 1.404 3.13 2.688 6.315 4.211 9.388 1.976 3.986 3.862 8.105 5.59 12.461 1.124-6.177 2.616-10.363 4.721-14.298 1.709-3.193 3.844-6.39 4.894-10.574 7.451 5.486 12.472 5.856 16.877 5.303 5.96-.748 11.292-3.444 14.152-8.953 3.237-6.233 4.045-14.806-.244-18.994-4.016 13.148-23.323 14.94-26.902 7.35 5.012 1.827 11.399 2.657 16.971-1.452 3.619-2.67 4.576-8.326 3.635-12.625-1.199-5.48-5.615-7.91-9.794-9.299 1.403 3.549 2.52 7.96-1.469 10.483-10.427 6.592-14.562-12.053-13.914-17.975 3.46-2.767 3.857-10.105-1.004-12.71 0-2.183.228-4.343.583-6.488 3.437 2.152 6.17 6.982 4.69 18.592 2.248-.526 4.403-1.983 6.506-3.963 5.21.663 4.944-.174 6.189-.35 1.341-.191 2.369-.175 3.068.032 7.397 2.193 15.578 5.28 23.085 7.843 2.476.845 2.224 1.523 1.38 1.794-1.61.516-1.014.064-2.637 1.161-4.136 1.606-4.436 7.83 1.431 8.837-.015-1.29.325-1.791 1.099-2.379.767.925 3.75 1.868 4.63-.194.575-1.35 1.706-1.883 3.033-2.064.893-.122 2.085.057 2.392.354 2.169 2.105 4.147 2.934 5.44 2.945.72.006 1.215.766 1.31 1.212.492 2.344 2.52 1.836 5.429 1.683 1.44.712 1.51 3.548 1.312 3.954 5.086-.752 7.477-7.256 2.482-10.976.098-1.217-1.697-1.294-2.835-1.47-.677-.105-3.375 0-3.516-.428.29-.81 2.596-.885 3.56-.454 2.087.93 4.892 1.27 5.762-1.667.615-.02 1.355-.054 1.746 1.452 1.77-1.1 1.458-4.297.554-5.93-.929-1.679-2.977-2.599-5.569-2.533-1.22-.895-3.383-.503-4.485.42-.6.503-.887 1.195-1.768 1.195-.093-.82.175-1.337 2.265-2.432 1.38-.724 1.946-2.688.85-3.867.116-.966 1.378-.913 2.499-.565.628-5.222-4.283-6.461-8.685-4.202-2.812-.184-4.262 1.262-4.317 3.622-.036 1.525-.158 3.237-1.331 4.443-1.94 1.996-4.327 1.14-6.457.184a390 390 0 0 0-9.553-4.127c-4.149-1.74-7.136-3.823-11.006-6.078 1.612-.015 1.343-.33 2.485-.816-4.051-3.25-5.858-5.254-7.282-10.145-.726-2.493-1.595-4.922-3.066-6.802.537-8.114-7.287-14.153-15.154-14.401.299-1.158.883-1.611 1.954-2.623 1.798-1.697 2.86-5.307 3.7-8.27 2.289 6.789 9.175 14.129 14.778 15.238-1.156-5.543-.267-15.161-.316-18.87 1.412 27.14 11.885 45.998 36.513 47.54-10.72-11.356-16.465-32.293-21.105-55.358.284.467 3.657 3.014 4.118 3.393 5.374 31.937 20.804 52.117 41.746 48.84-11.58-9.306-25.615-36.936-25.054-58.258.994 1.708 1.328 3.68 1.8 5.81 2.836 12.822 12.407 22.08 27.143 19.617-9.41-7.233-11.84-18.088-10.708-36.414 1.769-5.176 2.344-9.26 2.234-14.879-.161-8.221-2.382-17.924-7.504-23.803-5.19-5.957-12.658-8.797-20.742-8.514-10.554.371-21.914 4.989-24.784 14.816-3.653 12.509 5.999 19.597 16.876 18.826 4.422-.314 8.857-1.538 11.574-4.97 3.346-4.227 4.055-15.3-4.27-14.133-3.042.427-5.619 3.945-2.717 6.718-2.207 5.508-11.724 5.305-10.96-2.49.51-5.186 5.281-9.02 10.446-9.401 8.453-.624 15.776 5.38 14.922 13.574-2.228 21.388-31.965 30.467-48.731 30.349-.335-5.188-2.176-8.604-6.813-12.39-8.135-6.641-7.568-9.202-7.09-14.954.41.405 1.095.672 1.969.845.406-.506 1.224-1.856 1.377-3.467.234-2.466 3.28-4.408 2.889-6.217 4.317.057 6.534-1.049 6.685-2.064-2.798-.62-3.808-2.102-4.674-3.847-.99-1.992-2.375-5.145-5.16-7.003L131.934 13.4c-2.076-1.133-7.34-.73-9.333-.48-2.054-1.331-4.743-1.389-6.02-1.34-.377-.312-.856-.573-1.563-.72-.364-3.005-1.14-5.701-2.82-7.718q-4.656 2.526-6.843 6.658c-1.875-.491-2.385-.502-4.094.617-.822-1.778-3.718-2.878-5.283-1.142-2.368-3.262-7.698-4.473-8.626-3.97.067 1.503.834 3.427 2.744 5.811 2.23 2.785 2.53 6.865 2.53 10.183-4.313.087-4.445.225-5.73 3.229-3.254-.937-6.713-1.2-8.96 1.885-2.398 3.293-.684 6.614.308 9.87.796 2.608 2.327.015 2.856-1.043 4.763.383 9.237 1.983 12.787 4.634.208 2.106 1.405 2.669 1.522 5.159.224 4.77-.012 6.882-1.824 9.358-3.218 4.397-8.052 7.664-11.476 11.886-2.272 2.8-4.086 5.753-5.286 8.909" class="fil0"/><path id="_70878776" d="M79.187 75.51c.64-8.326 9.156-11.752 14.575-18.495 1.637-2.037 3.14-4.2 3.562-7.861.27-2.342.158-4.997-.35-7.604-.447-2.29-.187-2.027 1.387-2.834 1.212-.621 1.4-2.34.797-3.7-1.019-2.298-3.12-4.343-3.532-4.709-1.972-1.75.925-2.983 3.906-.86.687 2.767 2.5 3.773 4.58 3.954 2.035.177 3.882-.786 4.77-1.633.834-.796 2.656-.832 3.724-.832-1.016-.62-2.037-1.16-2.788-1.813-1.607-1.397-2.92-1.797-4.965-2.313-1.97-.498-3.848-.455-5.62.254-1.656.142-7.18.358-8.697-1.035-.748-.686-1.327-1.62-.445-2.343.289-.237.78-.321 1.65.615.404.435 1.212.647 1.423-.073.202-.688 1.513-2.338 2.92-2.8 1.409 0 16.164 2.721 18.795 3.98 1.709 2.036 3.12 3.386 4.123 5.91.45 1.137.748 2.081 1.279 2.418 1.6 1.018 1.008 2.718-1.717 1.117.173 1.765.15 3.507-.548 4.89-.86 1.698-1.335 3.224-2.254 4.406-.92 1.182-2.03-.524-2.461-1.435-.392-.827-1.086-.538-1.34.25-.969 3.01-1.13 6.423-.762 9.005.22 1.55.48 2.51 1.172 3.773 2.013 3.67 5.223 6.967 7.485 8.593 2.632 1.892 7.1 7.32 5.423 15.406-1.476-1.737-3.588-2.172-4.683-3.016-3.669-2.828-5.235-4.922-6.924-10.442-.235-.766-1.139-.868-.79.239.833 2.65.542 8.006-1.03 10.556-1.047 1.7-2.623 3.422-3.191 4.955-6.643-5.363-3.889-13.657-3.787-14.58.16-1.436-.562-1.056-.946-.168-.678 1.568-.929 8.619-9.585 15.094-4.309-9.44.204-14.534 1.67-17.033.664-1.133-.176-.949-.702-.348-3.768 4.302-6.234 8.79-16.124 10.512m59.851 62.687c-5.843-.506-10.125-6.003-10.28-10.088l1.642-3.703c2.386 2.666 2.908 6.26 4.986 9.184 1.181 1.663 2.568 3.2 3.652 4.607m-17.164-7.075c1.02 2.6 4.144 10.064 7.857 10.543.555.038 1.56-6.174-1.925-12.051-1.912-.903-3.593-1.958-4.729-3.073-.454-.446-1.112-.192-1.113.453 0 .48.2 3.055-.09 4.128m-2.777 18.892c6.51-6.326 3.624-14.852 2.08-17.51-2.609-.794-5.28-2.809-8.007-5.835-.653 1.083-1.028 2.586-1.212 4.374 9.571 7.569 6.374 15.232 7.14 18.97m1.338-19.531c1.225-2.267 1.032-6.239-.424-8.813-.691-.874-.292-1.549.447-.817.958.948 2.804 6.003 7.077 7.26.57-2.496.92-4.219 1.483-6.323.762-2.846-.227-5.865-1.583-7.268-3.821-3.952-5.816-4.665-10.222-4.605-.95 2.1-.413 7.034-3.423 9.764-1.314 1.825-1.114 4.273.04 5.964 1.42 2.077 4.292 4.102 6.605 4.838m-40.115 4.793c-1.838 3.122-7.047 8.603-10.217 8.737-.556.038.615-8.026 4.1-13.903 1.61-.985 3.103-2.318 4.712-3.304.815-.5 1.47-.467 1.386.614-.163 2.065-.924 3.698.02 7.856m-17.538 3.35c4.492 1.1 9.599-4.072 10.662-8.998-1.873-2.802-2.066-6.722-2.251-7.828-2.131 2.381-2.939 6.51-4.207 9.569-1.031 2.489-2.689 6.356-4.204 7.257m22.737 12.402c-6.02-.266-8.233-7.18-6.838-11.694 1.362-4.409 6.38-6.848 9.769-9.052.927-.603.195-1.243-.438-.938-2.016.976-3.936 4.312-6.298 4.312-1.37-3.022-.537-8.249 1.129-10.355.69-.874-.149-1.372-.887-.641-.959.948-3.774 4.505-8.047 5.761-2.778-6.486-1.743-11.272.54-13.634 3.822-3.952 7.536-4.93 11.942-4.87 1.194 2.222 3.303 10.572 5.845 13.07.935.917 1.584 1.75 1.798 3.242.146 1.021.217 2.397.044 3.501-14.722 6.833-8.61 16.672-8.559 21.298m-14.507-44.076c4.53-3.425 6.731-7.162 7.826-10.649.194-.618.192-1.109-.067-1.68-.332-.732-.655-1.366-.789-2.437-.075-.6-.655-.626-1.026.101-.638 1.254-1.093 4.734-2.23 6.485-.106-3.632.567-7.063.95-8.025.526-1.317-.438-1.768-1.009-1.298-.353.291-.89 1.215-1.767 1.935-.88.722-.836.384-.854 1.58-.073 4.747-.932 10.91-1.034 13.988m-34.465 31.49c14.869-4.253 27.274-24.773 30.418-45.667.117-.778-.303-1.116-.766-1.45-.473-.342-1.335-.855-1.935-2.099-.534-1.106-1.496-.122-1.735.656-1.023 3.33-5.422 21.53-11.526 31.01 3.469-8.013 7.826-22.586 8.962-29.148.273-1.575.094-2.339-1.125-2.59-1.07-.22-2.407.05-3.541.002-.466-.02-.98.114-1.141 1.202-1.282 8.64-1.013 22.39-17.61 48.085m-23.543-4.084c23.539-5.772 31.287-24.931 34.7-46.424.147-.923.222-1.692-.79-1.865-1.361-.233-2.62-.919-3.67-1.97-1.178-1.182-1.581.025-1.716 1.329-.417 4.035-6.12 29.304-11.923 33.755 3.43-3.893 9.543-24.292 10.369-37.993.073-1.212-.325-.788-1.133-.734-1.212.08-1.692.025-2.153-.077-1.312-.291-1.46.496-1.67 1.667-.972 5.404-2.794 30.78-22.014 52.312M7.21 103.542c16.93-1.793 22.556-17.102 23.589-29.258.207-2.442-1.421-1.798-3.147-1.798-.623 0-1.33-.267-1.953 1.4-2.248 6.026-1.582 12.735-7.828 20.292 2.406-4.266 5.687-13.95 5.953-20.534.031-.787-.23-1.14-.64-1.532-1.44-1.375-1.705-2.649-2.627-4.346-.451-.83-2.497-1.313-2.572.83-.32 9.183.196 22.133-10.775 34.946m69.519-26.206c-15.392-.095-41.81-8.487-49.353-26.447-2.722-6.48-1.812-14.369 3.822-18.8 3.899-3.067 9.713-3.448 14.541-2.327 6.329 1.47 10.74 6.608 8.92 13.32-.958 3.531-4.583 5.197-8.063 4.703-3.058-.435-6.102-2.327-6.799-5.528 1.367.035 1.976-1.094 2.012-2.118.055-1.582-1.5-2.396-2.938-2.499-2.216-.158-3.477 1.077-3.908 3.683-1.164 7.03 5.749 11.668 11.959 11.984 8.739.444 15.266-4.373 15.39-13.353.158-11.449-11.31-15.402-19.748-16.091-10.967-.895-20.008 2.393-25.594 12.797-2.854 5.315-2.933 10.245-3.346 15.966-.352 4.876-.55 11.782 3.208 13.004 2.103.683 4.125-3.789 4.279-6.111.056-.85.937-1.153.937.008 0 .903-.773 4.784-.078 7.77.557 2.395 2.465 4.007 3.446 4.085 3.258.26 5.439-3.337 5.708-6.61.056-.677.757-1.057.806.145.119 2.962-2.16 12.825 3.503 13.661 4.914.726 5.07-4.06 5.456-5.384.462-1.588 1.52-1.165 1.291.1-.43 2.378-.537 6.89 1.597 9.497 1.88 2.295 4.672 2.382 6.36.693 1.054-1.054 1.529-2.866 1.76-5.004.125-1.159 1.399-1.347 1.084.142-.258 1.222.513 8.12 4.415 8.61 3.66.458 5.368-3.775 5.77-6.253.213-1.319.805-1.218.806-.097.002 2.887-.06 6.021 2.236 8.097 1.359 1.229 3.283 2.134 4.934 1.59 3.976-1.309 5.587-9.394 5.587-13.233m50.578-.155c15.823.812 42.702-7.781 50.456-26.424 2.71-6.516 1.599-14.237-4.193-18.668-4.009-3.067-9.39-3.448-14.354-2.327-4.955 1.12-8.378 4.81-8.902 9.473-.592 5.276 1.786 9.411 8.021 8.55 3.144-.435 5.937-2.242 6.653-5.444-1.056.026-1.639-1.01-1.724-1.98-.15-1.704 1.403-2.609 3.013-2.72 2.279-.159 3.8.92 3.976 3.555.498 7.52-5.973 11.716-12.126 11.942-8.989.33-15.411-4.164-15.189-13.141.283-11.45 11.604-15.5 19.707-16.189 10.916-.928 19.33 2.206 25.066 11.862 3.057 5.146 3.672 12.558 3.979 18.354.141 2.673.365 13.043-3.903 13.688-2.116.32-4.434-3.26-4.499-6.304-.018-.85-1.355-.832-1.355.328 0 3.334 2.886 12.149-2.323 12.711-3.216.347-5.061-3.163-5.832-6.93-.137-.667-1.782-.814-1.505.358.496 2.102 2.661 11.129-3.001 11.9-4.792.651-5.148-2.941-5.996-4.266-.898-1.404-1.947-.586-1.712.679.296 1.597.773 4.102.478 6.078-.387 2.593-2.13 3.98-4.9 3.306-2.48-.604-4.47-3.35-4.564-5.51-.05-1.164-2.782-.831-2.62.682.397 3.687.979 9.195-4.71 8.737-4.798-.388-4.714-4.03-5.258-7.576-.202-1.321-2.217-.948-2.218.173-.002 2.662.445 4.615-1.334 6.53-1.885 2.03-4.599 1.218-6.572-.117-3.292-2.227-2.662-7.892-2.559-11.31m70.03 26.129c-15.697-.15-18.643-12.971-20.053-25.63-.096-.866.413-1.31 1.093-1.514.69-.207 1.942-.435 2.618-.363.945.1 1.104.71 1.39 1.468 2.09 5.544 1.715 11.585 5.481 16.166-3.323-7.773-4.018-18.84-3.554-22.658.204-1.673.68-1.802 1.3-1.639.66.174 1.987.23 2.587.244.837.019.803.786.782 1.428-.27 8.195-1.635 19.785 8.356 32.498m-3.634 33.443c-22.316-4.55-30.05-25.124-34.508-47.662-.153-.773.02-1.526.678-1.88 1.3-.697 1.635-.57 2.857-1.724.83-.785 1.515.193 1.723 1.017 1.93 7.645 5.459 27.225 14.581 37.933-3.278-3.76-12.046-28.195-13.596-42.183-.187-1.684.95-1.054 1.782-.751.404.146 1.122.33 2.256.39.848.046 1.423.638 1.535 1.56 1.13 9.334 3.564 34.048 22.692 53.3m-25.572 2.111c-20.934-6.16-28.503-25.812-28.51-47.81 0-1.31.815-1.865 1.465-1.257.63.591 1.42 1.063 2.103 1.541.735.515.95 1.545 1.088 2.314 1.209 6.738 3.584 19.706 10.325 30.19-4.813-10.14-8.48-26.791-8.489-31.481-.002-.9.41-1.25 1.005-1.309.801-.08 1.777-.29 2.435-.435.825-.18 1.343.106 1.551.998 2.013 8.641 2.038 21.554 17.026 47.25m-33.516-30.755c-9.815-5.597-9.115-13.786-8.845-18.704.06-1.103.617-1.097.917-1.278.303-.184.929-.17 1.056.374.147.626.599 1.499.875 1.95.276.448.482 1.108.586 1.81.404 2.73.832 6.404 2.02 7.668.037-2.543-.428-5.508-.68-7.733-.108-.96.242-1.049.672-1.102.614-.076 1.34.193 1.861.595.75.579.704 1.134.76 1.965.33 4.87 1.099 11.775.778 14.455M95.55 174.487c-3.157 7.749-8.717 10.666-19.352 8.814-10.075-1.754-8.777-17.046-1.495-18.71-1.718 7.008 3.2 9.83 7.33 10.046 5.342.28 9.468-1.978 12.074-6.714 2.199-3.996 2.878-9.19 3.126-13.023.035-.537.244-.872.468-1.06.913-.766.652.925.652 1.333 0 7.694.514 13.884-5.606 19.364-2.997 2.683-7.726 4.128-13.572 3.468 5.21 2.844 12.927-.582 16.375-3.518m-1.882 18.214c.19 1.923-.198 3.99-.618 5.317-.925 2.92-3.162 3.797-7.475 4.753-4.311.956-9.53 1.094-14.144-.507-7.371-2.559-10.19-10.884-9.339-19.162 5.146 6.924 9.95 8.304 14.462 8.27 8.005-.059 16.199-5.703 18.818-13.316 2.53-7.353 4.32-15.03 4.26-22.856-.008-.917.237-1.557.844-1.582.362-.015.742.22.802 1.401.463 9.034-.513 14.711-2.877 21.182-1.55 4.241-2.431 8.316-3.456 10.95-.997 2.562-1.54 3.12-3.378 4.52-4.953 3.771-14.442 6.453-20.763 4.221 6.04 3.4 14.96 1.487 22.864-3.191m8.105-20.674c-3.14 5.65-4.514 12.823-6.142 19.561-1.287 5.329-.857 5.659.537 11.104.43 1.683 5.744 12.194 6.623 13.958 1.702-4.754 4.901-10.516 7.207-15.844 1.657-3.829 1.08-8.716-.267-12.539-4.353-12.34-4.48-21.172-5.528-33.657-.1-1.193-1.39-1.444-1.42-.6-.063 1.86.217 8.219.551 15.952.194 4.487.595 9.342.466 14.296a97.5 97.5 0 0 1-1.986 17.091c.404-9.812.992-19.544-.041-29.322m10.46 3.514c-.221 1.91.393 3.602 1.902 4.862 4.325 3.613 12.531 4.295 17.163 1.228 5.41-3.583 5.506-13.106.32-15.93-.977 4.897-3.97 8.947-9.719 8.78-4.84-.14-7.078-1.818-9.192-6.516-2.274-5.053-2.706-9.85-2.916-13.149-.072-1.135-1.136-1.617-1.12.315.054 6.095.78 14.956 5.438 19.87 4.16 4.387 9.167 3.865 13.572 2.498-4.87 4.144-11.806 1.398-15.448-1.958m.403 15.41c-.233 2.345.233 4.195 1.943 5.788 1.672 1.556 3.5 2.937 5.71 4.025 5.589 2.752 13.668 1.504 18.45-2.352 5.035-4.06 6.112-10.783 4.598-15.104-5.146 6.924-12.781 8.098-17.294 8.065-7.754-.057-12.46-4.073-14.828-11.349-2.27-6.974-3.895-17.665-4.152-25.132-.03-.893-.304-1.01-.585-.982-.28.027-.53.197-.577 1.11-.438 8.562 2.163 30.902 9.711 36.65 4.953 3.772 12.795 4.962 19.116 2.73-6.46 3.822-15.18 2.216-22.092-3.45M97.08 122.902c.012 3.215.86 5.234 1.806 7.484 1.232 2.934 1.977 6.092 2.025 9.379.011.816-.021 2.599-1.436 2.222-.494-.13-1.004-.322-1.091-.957-.315-2.3-.68-8.422-1.613-11.019-.654-1.817-1.227-4.04-1.227-6.048 0-1.082 1.613-1.756 1.536-1.06m13.122-.724c-.085 2.974-.179 6.482-.945 9.769-.66 2.828-.524 5.587-.848 8.477-.071.637-.462.908-.832.9-.947-.02-1.327-.265-1.321-1.32.02-3.336.355-7.969 1.054-11.375.489-2.38.901-4.64 1.134-6.064.059-.362.294-.805.67-1.049.746-.484 1.108-.022 1.088.662M98.187 143.36c2.781 1.317 7.064 1.305 9.135.447 1.303-.54 2.57-1.309 3.775-.002 1.41 1.529 1.161 4.878-.418 6.19-3.31 2.749-13.838 2.552-16.754-1.219-1.312-1.695-1-3.829.68-5.106 1.135-.863 2.266-.933 3.582-.31m5.45.01c1.612-.751 1.652-4.978 1.694-6.257.042-1.276-.7-1.742-1.348-.582-.316.565-.775 1.2-1.14.033-.257-.82-1.599-1.24-1.252.453.216 1.057.23 2.924.603 4.423.282 1.133.855 1.949 1.442 1.93m-1.258-14.545c.33-1.353.816-3.785 1.941-5.615.689-1.12 1.298-2.247 1.953-3.148 1.504-2.072 1.347.697 1.074 2.046-.877 4.335-2.392 8.24-4.242 11.802-4.665-4.949-5.08-9.472-4.645-14.562.099-1.157.958-1.457 1.344-.842.46.733.883 2.245 1.368 3.908.675 2.311.822 5.237 1.207 6.41m.637-14.707c-.517-.848-.644-3.515-1.004-5.87-.056-.365-.12-.732-.256-1.074-.412-1.033-.877-3.1-1.187-4.143-.27-.91-.9-.613-1.109.12-.256.897-.578 2.41-.904 3.636-.15.565-.37 1.752-.362 3.07.025 4.202 2.8 8.753 5.087 11.487 1.152-.47 4.96-5.854 4.258-10.55-.095-.632-.688-1.514-1.267-.589-.284.453-.729 1.242-1.003 1.34-.208-.17-.379-.39-.542-.562-.396-.414-.958-.204-1.175.519-.157.522-.272 1.609-.536 2.616m-10.888-4.405c-.345-.077-.493-1.58-.736-3.328-.167-1.21-.867-2.343-1.222-3.111-.346-.748-.952-.783-1.223-.125-.846 2.059-1.156 5.981-.613 8.02 1.324 4.975 4.964 10.442 6.623 10.598 1.241-3.22 1.553-5.55 1.524-8.886-.01-1.07-.036-1.741-.662-2.465-.625-.725-1.436-1.827-2.074-2.545-.403-.454-.885-.5-1.206.142-.17.338-.31.883-.411 1.7m19.4 3.123c1.002-.798 1.081-4.583 1.261-6.229.067-.608.108-.978.728-.571.673.441.876 1.272.94 1.998.287 3.302-.292 10.353-3.292 12.039-2.337-3.011-2.734-6.34-2.417-11.785.062-1.06.297-2.786.735-3.662.29-.58.54-1.01.757-1.308.648-.889.984-.575 1.151.495.326 2.085.045 7.509.137 9.023m4.848-14.01c1.403-1.609 1.22-6.768 1.673-8.883.134-.626.807-.693 1.042-.129.281.677.8 1.759 1.229 2.774.278.66.695 1.337.528 2.758-.4 3.411-2.5 8.602-5.032 10.905-1.662-1.435-3.141-4.076-3.665-6.434-.365-1.647-.514-3.505.41-5.03.9-1.486 2.369-3.878 2.906-5.255.303-.776 1.078-.812 1.125.302.114 2.642-.197 6.32-.216 8.993m-31.038 7.313c2.321-2.745 2.745-7.006 3.263-10.388.12-.78.319-2.083-.19-2.8-.5-.705-.827-1.286-1.296-1.657-.942-.746-1.68.563-1.812 1.382-.304 1.88-.487 3.742-.812 5.838-.323-2.93-.491-6.515-.007-9.223.251-1.405-.101-1.685-.763-1.054s-1.546 2.192-2.094 3.175c-.624 1.116-.456 1.343-.404 2.517.187 4.27 2.492 9.429 4.115 12.21m4.839-8.123c.02 5.608 5.501 10.141 5.742 9.975 1.821-2.428 3.317-8.393 3.198-12.727-.024-.866-.046-1.456-.448-2.242-.46-.898-.881-1.694-1.128-2.229-.436-.942-.984-.604-1.054.299-.251 3.282-.564 5.967-1.41 8.566-.046-1.4-.37-3.84-.663-5.335-.287-1.457-.836-.626-1.136.166-.437 1.154-1.01 2.573-2.02 3.488-.154-.094-.214-.383-.404-.52-.69-.496-.679.076-.677.559m15.324 2.015c-.686-3.754-.06-6.653-.273-8.886-.071-.752-.236-1.314-.69-.405-.874 1.754-1.773 3.358-3.274 5.193-.831 1.016-.92 2.255-.245 3.974.66 1.675 2.249 4.934 3.864 8.979 2.37-1.939 3.829-5.379 4.517-8.335.477-2.049.576-4.168-.077-6.214-.363-1.134-.86-2.41-1.288-3.078-.36-.562-.892-.716-1.117.167-.7 2.747-.469 5.738-1.417 8.605m2.185-14.506c-.192 3.211 2.978 7.294 3.28 8.339 4.786-6.923 5.45-11.203 4.742-18.723-.05-.529 0-1.04-.742-.713-.654.287-1.094 1.145-1.212 2.066-.22 1.704-.1 3.59-.882 5.534-.598 1.484-1.171 3.022-1.171 4.314-.925-1.564-.185-3.538.07-5.237.155-1.024.2-1.719-.609-.441-.802 1.266-1.956 3.7-3.476 4.86m10.509-8.212c-.161 1.035-.258 2.41-.655 3.691-.099 2.218.473 6.653 4.74 10.915 1.202-1.429 3.355-4.356 2.954-9.44-.076-.968-.085-1.586-1.29-1.758-.668-.096-1.094.102-1.072.775.034 1.046-.36 2.332-.597 3.173-.572-2.297-.707-4.287-1.147-5.658-.387-1.202-1.227-1.964-2.933-1.698m-38.906 13.99c1.752-1.16 3.183-3.689 4.523-6.601.04-3.877.701-6.844.895-7.877.11-.585.054-.68-.476-.61-.63.084-1.306.345-1.642 1.001-.45.882-.762 2.205-1.173 3.575-.5 1.67-.67 3.402-1.219 4.21-.103-.509-.17-3.85.156-7.053.073-.718-.693-.532-1.391-.193-.397.194-.374.217-.467.63-1.336 5.954-1.397 10.595.794 12.919m12.075 2.805c-8.32-8.977-5.78-17.872-5.147-19.14 1.115-.464 1.877-1.198 2.467-1.772.875-.852 1.59-.787 1.411.457-.578 4.022-.51 10.224.307 13.155.282-2.627.53-5.254 1.096-7.88.183-.85.347-1.131.494-.085.342 2.439.412 4.534 2.045 6.895a5.6 5.6 0 0 0 1.173-.771c.3-.25.522-.472.481.102-.267 3.711-3.053 8.164-4.327 9.039m5.773-12.432c-.803 6.654 3.235 11.475 3.54 11.948 1.55-1.389 5.653-7.994 5.738-11.584-1.104-1.615-1.788-3.342-2.154-4.384-.137-.39-.831-.351-1.028.029-.997 1.927-1.34 6.041-2.114 8.814-1.038-4.666.5-7.902.422-8.789-.598.258-.891.257-1.213.852-.68 1.255-1.723 2.739-3.19 3.114m4.865-52.201c1.105 2.619 3.814 2.53 5.015.25.503-.957 1.61-.282 1.2.599-1.473 3.155-6.029 3.042-7.233-.437-.17-.491-.132-.834.454-.817.296.008.437.103.564.405m2.342-1c-.524-.005-.944.284-1.054.73-.097.396.293 1.154.863 1.108.276-.022.82-.264 1.074-.517.73-.732-.17-1.314-.883-1.32" style="fill:#fff"/><path id="_70878704" d="M79.378 33.502c-1.806-4.863-.203-7.792 4.721-8.139 2.223-.157 5.884.847 7.416 2.765.933 1.167 1.71 1.813 3.812 3.44.803.62 1.328 1.541 1.832 2.422 1.69 2.953-1.162 4.132-3.582 3.068-2.714-1.194-6.9-4.63-11.208-3.999.504-2.18 4.646-2.43 5.33.095 1.551-.277 3.382.54 4.608 1.12 1.202.57 2.269.588 2.269-.172 0-.684-.358-1.126-.903-1.408-1.391-.72-4.007-.393-5.006-.393-1.598-4.41-8.339-2.632-9.289 1.2m51.506 111.524c1.38-2.013 1.453-4.51 1.836-6.808 1 .22 2.791.94 3.97 1.177 4.687 4.487 11.514 8.181 25.147 13.283 1.845.69 4.48.42 6.288-.372 1.15-.504 2.062-.997 2.735-2.355.207-.42.517-1.243.487-1.927-.038-.88-.47-1.622-.603-1.976-.573-1.51 1.858-2.802 1.566-1.17-.157.884-.02 2.654 3.745 2.636 1.42-.007 1.292 1.175.802 1.748-.988 1.155-2.429.698-2.973.428-.847-.42-.931-.128-.608.518.561 1.123.715 1.799.197 2.418-.402.48-1.217 1.296-1.925 1.541-1.274.44-2.953.317-4.205.458 1 1.2 4.023 1.613 6.355.805 1.135-.393 1.601-.414 2.186-.438.743-.03 1.114-.178 2.322-1.145 1.16-.928 2.546-.431 2.438.218-.285 1.715.64 2.039 2.004 3.223.406.354.58.98-.22 1.07-1.491.171-2.679-.21-3.641-1.397-.297-.367-.98-.337-1.078.145-.232 1.154-.725 1.76-1.952 1.72-1.476-.05-3.775.301-5.183-.379-.636-.307-1.28-.534-2.29-.528.848 2.379 4.119 3.713 6.721 3.717.792 0 1.963-.046 3.05.081.423.05.48.424.85.539.371.114 1.021.02 1.32.174 1.177.61 1.638 1.422.55 1.695-1.656.415-2.192 1.874-2.884 3.247-.398.79-1.627 1.56-1.73-.226-.055-.964.227-2.165.383-2.39.466-.673-.446-.97-1.076-.618-2.589 1.446-6.844-1.333-8.125-3.118-.542-.754-.54-.94-1.625-.435-1.738.808-2.314.451-4.233.359-1.153-.055-1.358.277-1.382.717-.051.988.037 1.737-.896 2.458-.723.559-1.685.534-1.95-.455-.26-.97-.016-1.824-.708-2.726-.542-.706-.454-1.072.43-1.151.974-.088 1.99-.192 2.931-.367 3.039-.566 2.665-2.463.057-3.63-7.353-3.29-16.296-6.635-25.489-8.807-2.245-.531-2.895-1.149-5.305-.342-2.198.735-3.713.247-4.48-.435-1.28-1.135-.728-3.33.727-5.044 1.495 1.533 3.42 2.743 5.464 3.864m48.24-1.233c-.817-1.143-3.626-1.103-4.797.396-.764.98-.36 1.545.871 1.678 1.221.133 1.053-1.478 3.926-2.074m7.35 12.187c.663-1.758-1.503-2.241-2.417-2.203-1.084.046-2.035.296-1.841 1.33.17.913.84.96 1.585.845.639-.098 1.669-.3 2.673.028m-4.326 13.823c1.78.127 1.604-3.508-.003-3.858-.581-.127-1.226-.052-1.512.462-.504.91.149 1.64.732 2.208.31.301.662.711.782 1.188m-28.158-5.152c-1.312-.995-.983-2.546-.287-3.03.485-.338 1.397-.482 1.753.09.449.724.206 1.526-.546 1.852-.37.16-.928.63-.92 1.088m-86.171-19c.309-2.162 1.41-4.234 1.41-6.602-.967.22-2.15.632-3.289.868-4.78 4.66-13.693 9.579-25.65 13.844-1.547.552-3.278.681-4.822-.012-.89-.4-1.73-.653-2.584-1.171-.761-.462-1.032-1.233-1.1-2.102a32 32 0 0 1-.055-2.89c.056-1.608-.983-2.817-2.045-1.546-.854 1.023-1.47 1.56-3.757 1.42-2.087-.127-1.215 1.53-.511 2.32.385.433 2.092.284 3.079.308.617.016.696-.162.475.402-.455 1.16-.21 1.781.29 2.4.389.482 1.176 1.297 1.86 1.542 1.23.44 2.567.131 3.776.273-1.405.854-3.443 1.305-5.788 1.238-2.484-.071-4.911-.84-7.251-2.462-1.473-1.02-1.928.137-.958.952 1.303 1.094.282 2.414-.924 3.518-.915.837-.278 1.765.873 1.343.93-.341 1.704-1.128 2.233-1.73.307-.35.85-.227 1.02.235.53 1.444 2.647 1.06 3.743.628 1.793-.708 3.288-.519 5.035-1.302-1.116 1.594-2.67 2.516-4.101 3.38-.938.566-1.583 1.045-2.76 1.045-1.182 0-1.821.137-2.366.493-.908.595-.965 1.496.31 1.626 2.1.214 2.58 1.549 2.588 2.587.006.697 1.497 1.342 2.208.304.549-.801.251-2.069.022-2.293-.579-.568-.116-1.277.581-1.181 1.22.167 1.678-.152 2.275-1.158.285-.48 1.356-1.07 1.864-1.47.7-.55 1.548-.157 2.31.066 1.504.44 2.379.836 3.469 1.732.37.305.906.558 1.378.558 1.786 0 1.822.328 1.953 1.281.235 1.712 2.451 2.673 2.842 1.085.295-1.195 1.303-2.61 3.167-2.884.762-.112 1.024.035 1.212-.31.202-.37.132-1.154-1.293-1.51-1.459-.366-4.871.008-7.028-.404-2.265-.432-3.228-2.614.798-4.017 7.846-2.735 15.818-5.501 23.829-7.675 1.934-.525 3.249-.996 6.12-1.033 4.07-.053 5.02-2.033 4.172-4.942-3.94 2.232-5.503 3.425-8.61 3.246m-45.014-1.471c.68-1.074 3.65-1.651 4.943-.213.83.924.07 2.227-1.164 2.336-1.297.113-1.1-1.576-3.78-2.123m-7.116 13.688c-1.207-2.122.808-3.55 2.442-3.69 1.08-.093 2.034.441 1.84 1.476-.147.787-.486 1.142-1.117 1.178-.912.052-2.167-.095-3.165 1.036m7.213 12.365c-1.014.318-2.106-.865-2.056-2.301.035-.981.597-2.327 1.899-2.803.735-.268 1.548-.133 1.924.544.37.67.217 1.262-.303 1.746-.51.473-1.745.942-1.464 2.814m25.576-.97c2.566-.789 2.513-4.453.945-5.174-.84-.387-1.46-.287-1.84.027-.363.303-.75.909-.023 1.787.929 1.122 1.169 1.867.918 3.36M91.097 8.787c2.271 3.833 3.353 7.79 3.939 10.735a397 397 0 0 1 22.125 4.635 197 197 0 0 1 10.93-9.578c-2.317-.521-3.797-.019-5.714 1.198-.348-.814-.92-1.348-1.532-1.753-1.205-.797-2.752-.598-3.844.277-.99.793-1.51 1.987-.572 3.251.87 1.174 3.222.423 2.68-.818-.241-.557-.128-.918.225-1.056.797-.31 1.673.351 1.66 1.26-.023 1.496-1.584 1.918-2.8 2.194-2.538.577-5.903.32-6.824-1.35-.954-1.73-.648-3.302.962-3.325 1.298-.019 1.422 1.383.16 1.86 4.185 1.004 3.736-3.657.878-3.14-.632.114-1.242.053-2.308.128.864-2.22 1.127-4.075-.89-5.368-1.597.122-2.611 1.64-2.702 4.712-.668-.258-.927-.362-1.262-.73-1.781-1.954-5.46 1.065-2.561 3.085 2.344-2.995 4.418-.176 1.942 1.407-1.57 1.005-6.192.392-7.697-.512-.963-.578-1.558-1.157-1.558-2.272 0-.715.747-1.142 1.515-1.168.56-.02 1.186.2 1.272.543a.366.366 0 0 1-.281.438c-.324.079-.431.318-.31.609.118.28.52.502 1.078.366 1.317-.321.924-2.34.24-3.046-1.385-1.429-3.733-.958-4.928.237-1.43-1.963-2.356-3.083-3.823-2.82" style="fill:#f8c300"/></g></g></svg>