<svg viewBox="-21.61 -28.08 583.51 758.13"><title>Herb Kunów</title><path d="M0 0h540.293v486.196C538.41 625.375 383.77 660.871 263.074 701.969 102.543 643.707 10.606 628.993 0 486.196z" style="stroke:none;fill-rule:evenodd;fill:#222"/><path d="M174.641 201.172c-13.781-17.59-15.418-52.324-3.262-78.898 23.578 22.488 59.672 14.508 82.707 31.015 4.715 4.532 7.797-5.078 8.703-8.703a164 164 0 0 1 26.66 0c-.359 3.989 3.082 13.422 8.161 9.25 26.066-19.574 58.515-7.039 84.339-30.468 10.02 26.523 7.301 57.543-1.086 82.164-11.062-9.067-22.671-23.579-36.457-26.661-15.414-1.632-27.566-2.718-42.984-2.175q-7.072 0-7.617 6.527c-11.789.633-23.578.812-35.367 0q-1.63-5.712-9.793-7.07c-12.149.211-24.305.285-36.453 2.718-12.516.497-25.028 8.75-37.543 22.309" style="stroke:none;fill-rule:evenodd;fill:#ec2a32"/><path d="M298.703 456.379V218.047c-2.382-5.258 5.789-7.254 13.602-12.512 3.738-6.98-2.172-17.812-11.02-15.992-14.875-14.816 25.801-7.566 42.719-5.496 12.695 5.621 24.168 15.688 36.863 28.567 18.504-21.766 18.141-76.364 2.719-97.399-12.32 9.442-25.734 17.973-46.797 20.133-14.879 1.805-29.211 4.336-39.718 11.969-2.731-4.715-1.637-9.43 0-14.145 7.437-26.121-5.075-32.285-26.661-29.383-10.808 1.122-22.73.766-15.777 25.575q3.532 7.886.543 17.953c-13.512-7.254-24.531-9.34-39.719-11.969-23.218-4.172-35.187-12.332-45.16-22.309-18.59 31.786-18.773 64.887 3.262 99.575 11.242-14.145 22.172-25.075 36.32-27.614 27.567-5.437 45.301-6.3 42.578 4.215-18.5-.18-24.121 8.887-11.426 16.867 5.258 1.993 8.344 6.891 5.985 14.688-.18 11.605.18 225.094 0 236.699.195 23.805 51.301 22.621 51.691-1.086zM89.207 194.645q14.96-.27 29.926-.543l63.664 27.75q-.269 16.32-.543 32.644-9.247 2.718-18.5 5.442c-16.937 64.004-15.308 121.14-1.086 170.859 32.668 94.883 183.168 94.293 218.742-4.351 14.329-51.192 10.516-109.508-1.086-162.153l-18.5-10.882q-.54-15.505-1.085-31.016l62.574-25.574h31.015v13.601q-5.713.54-11.425 1.086v2.719h9.25l10.375 40.918-22.852 2.156c21.016 61.895 22.656 125.738 10.301 196.344-58.914 194.66-344.531 173.742-368.926-27.75-5.984-50.852 3.406-111.844 20.641-171.402l-20.06-2.719 11.388-37.543h6.527v-5.442l-11.426-.543zm-78.562-184h519.004v471.453c-1.809 134.957-150.356 169.375-266.293 209.23-154.207-56.496-242.52-70.761-252.707-209.23V10.645" style="stroke:none;fill-rule:evenodd;fill:#11b1ee"/><path d="m347.258 503.825 21.324-16.989 5.426 6.809-20.363 16.566zM161.93 492.321l7.355-8.375c6.204 6.468 13.114 12.765 20.602 18.914l-7.715 8.078-20.246-18.621zm-28.672-85.614q1.747 12.347 5.902 25.664l-8.914 1.684-6.871-23.918zm272.922 3.133-7.828 26.988 9.637 1.446 6.988-24.942-8.793-3.492zm4.215-99.89 8.07 1.203 1.445 22.531-8.671 2.289zm-287.739 21.449 1.622-21.867 8.375-1.266c-.934 8.113-1.477 16.227-1.446 24.34l-8.554-1.203zM260.75 115.746c0 5.622-.316 14.918 2.582 20.543H288.5c2.719-5.437 2.086-16.187 1.492-21.628-1.535-5.442-28.296-3.172-29.246 1.085zm-7.211 102.297v238.879c-.785 16.055 39.875 11.156 39.274 0V217.5c.234-9.16 3.832-13.328 11.328-15.234 6.711-3.988 1.086-9.066-7.07-5.441-9.157 8.836-26.645 11.125-42.985 2.175-11.426-7.797-17.41-1.449-8.16 3.809 6.164 3.988 8.703 8.34 7.617 15.234zM94.106 199.676h22.988l59.039 25.981-.812 23.804-18.774 5.442C140 350.168 141.68 396.828 165.934 453.106c42.215 72.051 168.183 71.84 209.492-.117 29.629-61.055 25.629-124.399 10.883-194.68l-17.41-8.297-.543-22.988 57.679-24.211 21.762-1.086v3.808l-12.512 2.176 1.633 10.883 8.703 1.629 7.618 26.66-58.168 5.004c13.761 77.402 16.253 146.504-17.465 210.473-47.996 72.98-162.223 80.101-220.922-6.528-23.668-42.078-27.133-110.711-6.004-206.117l-58.785-4.969 7.652-27.242 5.438-.543.543-11.426-10.883-.542-.543-5.305zm46.797 60.266c-2.719 13.781-4.352 27.566-7.071 41.351l-14.691 1.629-3.262 34.102 15.18 2.418c-1.645 23.023-1.426 43 2.23 61.426l-16.687 5.316 9.918 35.496 15.109-3.512c8.16 17.594 15.598 30.715 23.762 41.055l-9.856 13.543 27.508 23.883 11.363-10.34c50.696 25.348 99.489 29.004 147.282.664l11.605 11.668 28.844-23.52-9.191-13.113c8.886-13.781 17.71-27.086 23.695-40.871l14.504 2.359 9.386-33.679-13.55-5.676c2.718-20.492 4.293-42.074 4.109-62.57l13.547-3.028-1.754-32.648-13.727-2.41c-2.902-13.782-4.152-29.254-7.054-43.039l29.906-1.086c17.637 57.699 22.805 120.828 11.426 187.238q-27.205 96.856-113.18 124.063c-42.984 15.96-85.973 16.14-128.961-2.719-43.285-16.016-80.789-43.992-102.297-105.02-15.777-48.062-12.695-116.445 9.25-205.14 11.243.722 21.403 1.449 32.649 2.175zm-26.664 4.898c-15.512 61.758-20.59 115.992-9.793 173.578 10.882 41.762 29.562 78.309 64.207 100.664 22.898 13.692 46.386 16.778 70.738 4.352 20.355-11.715 41.851-7.535 63.66 1.086 25.98 13.691 48.383 10.609 70.738-6.527 40.356-36.321 61.032-82.665 66.383-143.653 3.277-43.144-3.07-85.09-11.426-126.781-2.898.359-5.804.723-8.703 1.086 9.82 39.797 13.59 80.445 12.516 124.605-1.067 51.282-22.696 98.172-59.856 136.035-17.679 16.879-36.175 24.864-66.929 9.793-22.852-11.156-46.614-12.968-71.282-1.085-19.132 9.066-41.625 8.703-63.664-5.438-28.746-23.625-45.98-44.937-57.675-89.238-12.696-57.227-7.618-116.172 8.703-176.301a5439 5439 0 0 1-7.617-2.176m143.656-75.637 35.23-.406c-1.574 12.75-33.39 14.289-35.23.406" style="stroke:none;fill-rule:evenodd;fill:#fff101"/></svg>