<!-- Creator: CorelDRAW -->
<svg
   xmlns="http://www.w3.org/2000/svg"
   style="shape-rendering:geometricPrecision; text-rendering:geometricPrecision; image-rendering:optimizeQuality; fill-rule:evenodd; clip-rule:evenodd"
   viewBox="-29.03 -11.84 268.02 320.72"
   id="svg2"
   version="1.0"><title>Herb Drawno</title><metadata
   id="metadata26"><rdf:RDF><cc:Work
       rdf:about=""><dc:format>image/svg+xml</dc:format><dc:type
         rdf:resource="http://purl.org/dc/dcmitype/StillImage" /></cc:Work></rdf:RDF></metadata><sodipodi:namedview
   guidetolerance="10.0"
   gridtolerance="10.0"
   objecttolerance="10.0"
   borderopacity="1.0"
   bordercolor="#666666"
   pagecolor="#ffffff"
   id="base" />
 <defs
   id="defs4">
  <style
   type="text/css"
   id="style6">
   
    .fil0 {fill:#0A0B0C}
    .fil3 {fill:#DA251D}
    .fil4 {fill:#FFF500}
    .fil2 {fill:white}
    .fil1 {fill:#0000FE}
   
  </style>
 </defs>
 <g
   id="Warstwa_x0020_1"
   transform="matrix(1.1817791,0,0,1.1817791,-19.102562,-26.975404)">
  <metadata
   id="CorelCorpID_0Corel-Layer" />
  <path
   class="fil0"
   d="M 210,169.913 L 210,169.9131 C 209.9999,227.3207 162.8322,274.1421 105,274.1421 C 47.1679,274.1421 0,227.3209 0,169.9131 L 0,169.913 L 0,22.858 L 210,22.858 L 210,169.913 L 210,169.913 z "
   id="path10"
   style="fill:#0a0b0c" />
  <path
   class="fil1"
   d="M 205.8,169.271 L 205.8,169.2711 C 205.8,224.7691 160.8221,270.0611 105.559,270.3661 L 105.559,26.6281 L 205.8,26.6281 L 205.8,169.2711 L 205.8,169.271 z "
   id="path12"
   style="fill:#0000fe" />
  <g
   id="_75446120">
   <path
   id="_75578792"
   class="fil2"
   d="M 139.108,68.8293 C 139.0037,69.4183 139.0481,70.0077 139.1596,70.5973 C 146.8111,77.3946 144.888,89.0498 141.2063,95.5969 C 136.5649,103.8507 134.2181,112.1146 135.3209,121.8714 C 136.7457,134.4763 146.0785,144.4121 161.3298,146.5392 C 162.2559,150.0195 163.9776,152.5846 165.5129,154.6001 C 166.2349,155.5478 165.9133,157.107 166.3874,158.2001 C 169.4475,158.1487 167.8782,154.3315 168.3762,154.6574 C 168.8681,154.4227 171.135,155.3433 171.1146,156.787 C 171.1055,157.4288 170.8623,158.1418 172.2919,158.7028 C 173.7534,157.7233 172.959,156.7734 172.3835,155.321 C 171.7523,153.7281 172.3346,151.808 173.2378,151.5726 C 173.1394,153.281 173.2974,154.936 174.491,155.2312 C 175.5129,155.484 175.9239,156.0523 177.0983,158.5116 C 177.7488,159.874 178.9514,161.3808 180.2959,161.7458 C 181.9375,162.1916 182.7953,161.0775 184.3042,164.2399 C 185.8782,162.4302 187.7582,160.8217 189.7848,159.611 C 191.9042,158.3448 192.8148,156.0801 192.5483,153.4711 C 192.1896,149.9599 190.5755,146.7227 189.2072,145.2671 C 187.9633,145.4958 188.1705,146.5319 188.201,147.7429 C 188.2557,149.9065 186.9597,152.4744 185.9305,154.2701 C 183.0851,154.4814 182.8592,150.9693 182.9294,148.6154 C 182.2459,148.0684 180.5799,149.2552 180.4243,150.2086 C 179.1414,150.1115 178.0242,148.7377 178.7899,145.7778 C 179.133,144.4512 179.1676,143.2418 178.1217,142.0669 C 177.5047,142.8837 175.3826,147.2836 173.2157,145.7598 C 173.4772,143.5768 175.252,142.0499 174.3807,138.6674 C 173.3352,139.3684 172.0941,140.4278 170.761,140.4898 C 169.1276,138.2894 169.4237,137.3757 169.7032,135.9064 C 170.0762,133.9453 170.3565,132.0651 168.8761,131.6855 C 168.9012,133.0208 167.5176,134.9963 165.6083,135.7063 C 163.6584,132.1522 164.3221,129.6764 164.8779,128.0189 C 165.5563,125.996 165.6823,119.5684 163.5217,119.14 C 162.0362,122.1112 158.2716,126.7733 155.0541,128.2152 C 152.3306,129.4356 148.454,128.925 147.8457,124.2599 C 150.859,124.317 150.0225,122.3322 149.5225,120.6582 C 148.8491,118.4042 149.0878,116.0256 149.9641,113.7537 C 151.1356,110.7168 153.6842,107.2723 157.1763,104.1031 C 155.8151,103.1419 152.8934,102.5589 148.474,102.9542 C 146.5951,103.1222 146.1727,101.3662 145.9834,99.7951 C 145.7085,97.514 146.7967,94.0392 147.5001,91.9033 C 150.5818,82.5457 153.9622,72.2642 150.0053,61.7869 C 147.1842,63.2771 143.4407,59.8255 143.326,64.6269 C 143.252,67.731 145.7126,66.7135 146.6572,68.7078 C 147.3564,70.1839 146.7773,71.1242 146.7773,72.2202 C 145.7583,71.9672 145.2319,70.7702 144.5441,70.0978 C 142.9819,68.5708 139.5488,68.7546 139.108,68.8293 L 139.108,68.8293 z "
   style="fill:#ffffff" />
   <path
   id="_75578720"
   class="fil0"
   d="M 164.632,146.837 C 166.7235,146.3687 167.2557,150.3275 166.3307,150.4816 C 165.1145,150.6843 164.8865,149.2828 164.6718,148.2429 C 164.5535,147.6698 164.5604,147.2307 164.632,146.837 z "
   style="fill:#0a0b0c" />
   <path
   id="_75578648"
   class="fil0"
   d="M 157.115,104.158 C 166.4343,105.5618 175.1523,110.0235 180.5356,114.6039 C 184.0856,117.6244 184.1442,120.4186 186.4893,126.687 C 188.6742,132.5272 192.0038,137.2629 189.1198,145.2847 C 187.9724,145.5452 188.1705,146.5606 188.2003,147.7427 C 188.255,149.9063 186.959,152.4742 185.9298,154.2699 C 183.0844,154.4812 182.8585,150.9691 182.9287,148.6152 C 182.2452,148.0682 180.5792,149.255 180.4236,150.2084 C 179.1407,150.1113 178.0235,148.7375 178.7892,145.7776 C 179.1323,144.451 179.1669,143.2416 178.121,142.0667 C 177.504,142.8835 175.3819,147.2834 173.215,145.7596 C 173.4765,143.5766 175.2513,142.0497 174.38,138.6672 C 173.3345,139.3682 172.0934,140.4276 170.7603,140.4896 C 169.1269,138.2892 169.423,137.3755 169.7025,135.9062 C 170.0755,133.9451 170.3558,132.0649 168.8754,131.6853 C 168.9005,133.0206 167.5169,134.9961 165.6076,135.7061 C 163.6577,132.152 164.3214,129.6762 164.8772,128.0187 C 165.5556,125.9958 165.6816,119.5682 163.521,119.1398 C 162.0355,122.111 158.2709,126.7731 155.0534,128.215 C 152.3299,129.4354 148.4533,128.9248 147.845,124.2597 C 150.8583,124.3168 150.0218,122.332 149.5218,120.658 C 148.8484,118.404 149.0871,116.0254 149.9634,113.7535 C 151.1281,110.7342 153.654,107.312 157.115,104.158 L 157.115,104.158 z "
   style="fill:#0a0b0c" />
   <path
   id="_75578576"
   class="fil3"
   d="M 149.508,61.9976 C 148.3346,58.6319 145.1006,57.4953 142.5749,58.6741 C 140.6737,59.5615 138.9522,60.3851 137.9813,61.3456 C 137.4299,61.891 137.2441,62.5814 137.2094,63.3363 C 137.191,63.7409 137.2658,64.4488 136.8293,65.0411 C 137.8101,65.9643 138.7057,67.5934 139.1063,68.8353 C 139.1067,68.8333 139.1069,68.8314 139.1073,68.8293 C 139.5481,68.7546 142.9812,68.5708 144.5434,70.0978 C 145.2312,70.7702 145.7576,71.9672 146.7766,72.2202 C 146.7766,71.1242 147.3557,70.1839 146.6565,68.7078 C 145.7119,66.7135 143.2513,67.731 143.3253,64.6269 C 143.4334,60.1026 146.7636,62.9058 149.508,61.9976 L 149.508,61.9976 z "
   style="fill:#da251d" />
   <path
   id="_75446360"
   class="fil0"
   d="M 143.814,62.6033 C 142.8424,62.6309 141.6137,62.9099 140.8158,63.5426 C 139.7349,64.4 140.7897,65.8504 141.8986,65.4071 C 142.3801,65.2146 142.8904,64.7504 143.3342,64.4115 C 143.6602,63.5198 143.907,62.9429 143.814,62.6033 L 143.814,62.6033 z "
   style="fill:#0a0b0c" />
   <path
   id="_75446288"
   class="fil0"
   d="M 139.15,70.5496 C 135.0904,70.5224 127.0736,75.5397 122.4188,73.7318 C 121.5725,73.4032 121.0122,71.8266 122.2758,70.9803 C 126.4144,68.2085 130.7155,65.7065 135.0822,63.3145 C 135.3269,62.4504 135.7919,61.6396 136.4626,60.9152 C 139.0799,58.088 142.7368,56.229 146.5761,57.8745 C 148.098,58.5267 149.7957,60.3519 150.0369,61.8756 C 150.0259,61.846 150.0156,61.8165 150.0044,61.7869 C 149.8417,61.8729 149.6758,61.9419 149.5078,61.9975 C 148.3343,58.6319 145.1004,57.4953 142.5747,58.6741 C 140.6735,59.5615 138.952,60.3851 137.9811,61.3456 C 137.4297,61.891 137.2439,62.5814 137.2092,63.3363 C 137.1908,63.7409 137.2656,64.4488 136.8291,65.0411 C 137.8099,65.9643 138.7055,67.5934 139.1061,68.8353 C 139.0061,69.4064 139.0454,69.9779 139.15,70.5496 z "
   style="fill:#0a0b0c" />
   <path
   id="_75446216"
   class="fil0"
   d="M 166.312,158.003 C 165.9392,158.459 165.5197,158.9416 165.2274,159.3149 C 164.6426,160.0616 164.985,160.8531 165.1995,161.7611 C 165.789,164.2576 167.375,168.9884 163.3319,169.1077 C 157.3986,169.2823 151.4422,169.0284 145.524,169.4348 C 139.6799,169.8362 133.7206,171.1848 130.9413,175.3181 C 126.3671,176.282 125.1288,178.2774 123.1589,180.9568 C 122.4188,181.9634 120.9799,182.6674 119.9001,183.3253 C 119.1621,183.775 118.0185,184.5309 117.4181,185.8613 C 116.9385,186.9237 116.7695,188.3234 116.8071,189.4068 C 116.8639,191.0535 116.7783,191.7409 118.8132,191.3987 C 116.8786,186.4756 122.4774,182.3741 122.0961,187.7236 C 122.0407,188.5003 122.2254,189.3354 123.674,190.078 C 124.8576,189.1989 125.2065,188.7448 126.1308,187.3706 C 128.7443,188.2102 128.677,185.7529 128.8255,184.5588 C 128.9903,183.2294 130.2313,182.8194 130.7975,184.3958 C 131.2961,185.7841 132.1765,187.3163 133.0524,187.2675 C 133.3146,185.9564 134.1919,182.4673 135.2409,181.9428 C 132.3247,179.7743 133.5723,177.5372 136.4262,175.6425 C 140.4078,172.9991 146.0244,172.139 151.5947,172.4694 C 156.0795,172.7355 160.0372,172.4593 162.7745,171.7782 C 165.1175,172.8981 166.2749,175.0081 169.0601,172.2184 C 170.2005,171.0764 170.2936,169.3455 169.9635,167.8427 C 169.9222,167.6541 169.3921,164.1332 169.4844,162.0922 C 169.5475,160.6959 170.2561,159.8124 170.9041,161.5229 C 172.3173,165.253 172.2272,168.2148 172.303,170.7166 C 172.3556,172.4502 172.3042,172.3941 172.7174,174.0163 C 173.3477,176.4912 172.7539,181.7063 171.8589,187.7537 C 171.4056,190.8158 170.7342,192.6861 170.2461,195.9275 C 169.7613,199.1478 169.9749,201.8708 168.9417,205.0832 C 168.5257,206.3768 168.3014,207.4223 168.1849,208.4286 C 168.0887,209.2594 167.3867,209.8487 166.6147,209.9051 C 165.4835,209.9877 162.3137,209.9642 160.3963,211.7029 C 153.1579,212.6345 154.2169,215.9769 155.1057,217.3414 C 156.8603,216.7641 158.6169,216.0035 159.8386,215.3289 C 161.1568,214.601 162.4271,214.7442 162.9101,215.3754 C 163.3436,215.942 164.1798,217.069 164.1798,218.0155 C 166.4508,217.3059 169.4238,215.1525 171.3834,213.9251 C 171.9476,213.5717 172.9666,213.9664 173.3127,214.9136 C 173.6665,215.8821 174.1491,216.8869 174.7908,217.0886 C 177.5645,214.2111 178.222,208.4298 173.003,208.2101 C 172.3073,208.1808 172.1139,207.4561 172.2897,206.1057 C 172.396,205.2891 172.6248,204.3074 172.9229,203.2574 C 173.7297,200.4159 173.9359,197.2803 174.323,193.9961 C 174.9472,188.7013 175.5927,183.0943 176.6162,178.2698 C 177.6634,173.3347 178.6718,170.6848 176.439,166.2427 C 174.5614,162.5071 176.6356,161.9612 177.8111,163.2002 C 179.1716,164.6343 180.8297,168.0882 182.2924,168.0882 C 182.7967,166.8833 183.7323,165.5732 184.3525,164.1843 C 184.3364,164.2028 184.3203,164.2214 184.3042,164.2398 C 182.7953,161.0774 181.9375,162.1915 180.2959,161.7457 C 178.9514,161.3807 177.7488,159.8739 177.0983,158.5115 C 175.9239,156.0522 175.5129,155.4839 174.491,155.2311 C 173.2974,154.9359 173.1394,153.2809 173.2378,151.5725 C 172.3346,151.8079 171.7523,153.728 172.3835,155.3209 C 172.959,156.7733 173.7534,157.7232 172.2919,158.7027 C 170.8623,158.1417 171.1055,157.4287 171.1146,156.7869 C 171.135,155.3432 168.8681,154.4226 168.3762,154.6573 C 167.8782,154.3314 169.4475,158.1486 166.3874,158.2 C 166.3596,158.1359 166.3347,158.07 166.312,158.003 L 166.312,158.003 z "
   style="fill:#0a0b0c" />
   <path
   id="_75446144"
   class="fil4"
   d="M 134.939,181.706 C 137.5733,181.5554 139.7956,183.6477 140.5508,186.123 C 142.2388,191.6554 138.8807,197.313 133.0196,197.5585 C 127.2205,197.8013 119.4672,195.059 118.4883,190.2438 C 117.7323,185.8831 122.447,182.8001 122.096,187.724 C 122.0406,188.5007 122.2253,189.3358 123.6739,190.0784 C 124.8575,189.1993 125.2064,188.7452 126.1307,187.371 C 128.7442,188.2106 128.6769,185.7533 128.8254,184.5592 C 128.9902,183.2298 130.2312,182.8198 130.7974,184.3962 C 131.296,185.7845 132.1764,187.3167 133.0523,187.2679 C 133.3145,185.9568 134.1918,182.4677 135.2408,181.9432 C 135.1345,181.8642 135.0343,181.7852 134.939,181.706 L 134.939,181.706 z "
   style="fill:#fff500" />
  </g>
  <path
   class="fil4"
   d="M 103.733,147.258 C 98.0504,145.9657 93.7868,140.866 93.7868,134.8019 C 93.7868,128.7378 98.0504,123.6385 103.733,122.3461 L 103.733,147.258 z M 52.6099,142.5204 L 70.7089,137.7975 L 70.7089,140.9216 L 83.7272,139.0458 C 84.2882,142.0628 85.4353,144.8775 87.0459,147.3676 L 76.6652,154.861 L 79.1858,157.3747 L 62.8429,166.7446 C 57.8788,160.3151 54.3147,152.4023 52.6099,142.5204 L 52.6099,142.5204 z M 103.733,225.1361 C 101.3311,225.1455 99.055,225.157 96.576,224.8846 L 93.8205,208.1782 L 89.1692,207.234 L 80.4144,221.7799 C 74.4567,220.0479 68.8502,217.7061 63.5082,214.9052 L 67.3065,198.4207 L 63.0612,195.6116 L 49.432,205.8127 C 44.7332,201.9754 40.3284,197.8466 36.3984,193.2461 L 46.5272,179.5707 C 45.1837,177.9616 43.9839,176.3055 43.1013,174.544 L 26.4184,178.7574 C 23.4258,173.2624 21.1055,167.7678 19.3431,162.2728 L 33.8662,153.4024 L 32.6746,147.3407 L 15.6936,145.1231 C 15.1803,139.061 15.0513,132.9997 15.7682,126.9383 L 32.7492,124.2772 C 32.9433,122.4757 33.2905,120.7512 33.7916,119.1026 L 18.9707,110.6017 C 20.6782,105.0327 22.8852,99.4638 25.8227,93.8952 L 42.5801,97.7391 L 45.9316,92.7125 L 35.7281,79.1108 C 39.6857,74.378 43.9659,70.2074 48.5382,66.5441 L 62.4655,76.4496 C 63.9777,75.3133 65.5663,74.2542 67.232,73.2711 L 62.9122,56.9343 C 68.1081,54.1812 73.7,51.8219 79.8186,49.9856 L 88.7558,64.4004 C 90.3477,64.0084 92.0013,63.6785 93.7461,63.4393 L 95.7479,46.6593 L 103.733,46.1711 L 103.733,26.6273 L 4.2001,26.6273 L 4.2001,169.2703 L 4.2001,169.2704 C 4.2001,224.5308 48.7949,269.6704 103.733,270.3564 L 103.733,225.1365 L 103.733,225.1361 z M 62.6514,102.4151 L 78.783,111.8968 L 76.578,114.1059 L 87.1698,122.0484 C 85.5467,124.5053 84.3777,127.2862 83.783,130.2698 L 70.9511,128.182 L 70.9589,131.7448 L 52.7896,126.7932 C 53.8172,118.7303 56.8821,110.6103 62.6514,102.4151 L 62.6514,102.4151 z M 98.0328,81.1256 L 102.7472,99.2579 L 99.6288,99.2579 L 101.4785,112.1421 C 98.4944,112.8127 95.7243,114.0604 93.2927,115.7611 L 85.7145,105.2249 L 83.2055,107.7498 L 73.8529,91.3774 C 80.2702,86.4042 88.1689,82.8337 98.0328,81.1256 L 98.0328,81.1256 z M 73.6619,178.1606 L 83.1262,161.9997 L 85.3312,164.2086 L 93.1499,153.744 C 95.5925,155.4796 98.3827,156.755 101.3924,157.4433 L 99.3816,169.846 L 102.9383,169.8379 L 97.9956,188.0404 C 89.9475,187.0107 81.8421,183.9404 73.6619,178.1606 z "
   id="path23"
   style="fill:#fff500" />
 </g>
</svg>