<svg
   xmlns="http://www.w3.org/2000/svg"
   style="clip-rule:evenodd;fill-rule:evenodd;image-rendering:optimizeQuality;shape-rendering:geometricPrecision;text-rendering:geometricPrecision"
   viewBox="0 0 179.91666 211.66667"
   version="1.1"
   id="svg23"><title>Herb gmina Brzostek</title><metadata
   id="metadata27"><rdf:RDF><cc:Work
       rdf:about=""><dc:format>image/svg+xml</dc:format><dc:type
         rdf:resource="http://purl.org/dc/dcmitype/StillImage" /><dc:title /></cc:Work></rdf:RDF></metadata><sodipodi:namedview
   pagecolor="#ffffff"
   bordercolor="#666666"
   borderopacity="1"
   objecttolerance="10"
   gridtolerance="10"
   guidetolerance="10"
   id="namedview25"
   showgrid="false"
   units="px" />
 <defs
   id="defs4"><style
     type="text/css"
     id="style2">
   <![CDATA[
    .str0 {stroke:#1F1A17;stroke-width:0.0762}
    .str1 {stroke:#1F1A17;stroke-width:1.5}
    .str2 {stroke:#141516;stroke-width:1.5}
    .fil5 {fill:none}
    .fil3 {fill:#FFF500}
    .fil0 {fill:#0065A9}
    .fil2 {fill:#0067AA}
    .fil4 {fill:#141516}
    .fil1 {fill:white}
   ]]>
  </style></defs>
 <g
   id="Herb"
   transform="matrix(0.8991697,0,0,0.89669089,-4.4543069,-6.2531635)">
  <metadata
   id="CorelCorpID_0Corel-Layer" />
  <g
   id="_100045064">
   <path
   id="_59744528"
   class="fil0 str0"
   d="m 4.9542,6.9736 c 0,61.1647 0,105.271 0,166.436 0,69.6171 54.1942,61.5593 69.5237,61.7782 13.3388,0.4663 24.4975,2.4596 30.5221,7.8389 6.0246,-5.3793 17.1833,-7.3726 30.5221,-7.8389 15.3295,-0.2189 69.5237,7.8389 69.5237,-61.7782 0,-61.1648 0,-105.271 0,-166.436 H 4.9538 Z"
   style="stroke:none;stroke-width:1.47385;stroke-miterlimit:4;stroke-dasharray:none" />
   <polygon
   id="_98893784"
   class="fil1 str1"
   points="135.189,40.8948 147.172,40.8948 147.172,159.117 173.905,185.849 141.18,218.574 108.456,185.849 135.189,159.116 " />
   <rect
   id="_98873328"
   class="fil2 str1"
   transform="matrix(0.950175,-0.950175,0.950175,0.950175,122.277,185.849)"
   width="19.893999"
   height="19.893999"
   x="0"
   y="0" />
   <path
   id="_98519472"
   class="fil1 str1"
   d="m 141.18,152.093 c 15.0634,0 15.0634,1.4955 15.0634,3.3396 0,1.8441 0,3.3396 -15.0634,3.3396 -15.0635,0 -15.0635,-1.4955 -15.0635,-3.3396 0,-1.8441 0,-3.3396 15.0635,-3.3396 z" />
   <rect
   id="_98894480"
   class="fil1 str1"
   x="147.172"
   y="47.577999"
   width="27.6544"
   height="9.6790304" />
   <rect
   id="_23065168"
   class="fil1 str1"
   x="147.172"
   y="63.702999"
   width="27.6544"
   height="9.6790304" />
   <rect
   id="_23065488"
   class="fil1 str1"
   x="147.172"
   y="79.828003"
   width="27.6544"
   height="9.6790304" />
   <polygon
   id="_60862448"
   class="fil1 str2"
   points="83.7976,160.73 83.7976,42.7526 72.275,31.4462 60.7523,42.7526 60.7523,160.73 " />
   <path
   id="_59675616"
   class="fil3 str2"
   d="m 72.2751,162.573 -8.7919,4.7159 c 3.0458,3.3095 4.2209,13.1835 4.6436,27.549 l 4.148,0.9355 v 2e-4 h 3e-4 3e-4 v -2e-4 l 4.148,-0.9355 c 0.4228,-14.3655 1.5979,-24.2395 4.6436,-27.549 z" />
   <path
   id="_99381536"
   class="fil3 str2"
   d="m 36.2478,162.803 v -10.134 h 7.3702 c 8.1454,4.1479 18.4047,6.2202 28.6621,6.2194 10.2576,-8e-4 20.5134,-2.0749 28.6521,-6.2194 h 7.3702 v 19.8074 h -7.3702 c -7.3431,-3.7394 -17.3244,-6.2113 -28.6569,-6.2113 v 0 c -11.3617,0.6811 -21.2885,2.4589 -28.6573,6.2113 h -7.3702 z" />
   <circle
   id="_99835592"
   class="fil3 str2"
   cx="72.275398"
   cy="207.13901"
   r="13.7038" />
   <circle
   id="_98542928"
   class="fil4 str2"
   cx="72.275398"
   cy="207.13901"
   r="8.7519798" />
   <path
   id="_98894168"
   class="fil1"
   d="m 77.9719,202.706 c 0.2482,0.356 0.4596,0.7261 0.6347,1.1071 -3.2891,-2.452 -8.4457,-2.4795 -13.0153,0.0515 0.5118,-1.143 1.3299,-2.1663 2.4319,-2.9344 3.2371,-2.2565 7.6922,-1.4613 9.9487,1.7758 z" />
   <line
   id="_59104032"
   class="fil5 str2"
   x1="72.275002"
   y1="31.446199"
   x2="72.280098"
   y2="158.888" />
  </g>
 </g>
</svg>