<svg><title>Herb Jastrowie</title><path d="M530.675 383.555c-2.972 111.949-121.007 202.527-265.3 202.527-144.297 0-262.312-90.586-265.305-202.527L0 0h530.753l-.07 383.555" style="stroke:none;fill-rule:evenodd;fill:#222"/><path d="M524.664 381.68c-2.907 109.629-118.266 198.332-259.293 198.332-141.024 0-255.504-88.711-258.43-198.332V6.066h517.793zM243.253 482.133c-1.082-.586-2.371-1.168-3.675-1.953-5.571-6.192-6.66-15.059-11.219-19.157-4.445-.437-8.879-.57-13.215-1.839-5.598-5.032-8.199-7.032-11.633-13.739-.492-6.484-.992-6.125-7.211-7.445-10.765-4.281-19.527-16.527-20.402-27.992-.09-1.215.207-2.707.094-4.156-14.821-9.579-20.285-15.063-20.02-33.825l-1.351-4.109c-16.961-9.586-15.246-21.953-13.286-38 1.965-3.406 1.563-3.871-.761-7.246-13.18-11.848-10.918-32.399-5.02-46.59 3.567-6.191-6-16.559-1.25-21.777 3.266-10.262 20.817-21.68 32.02-20.817 4.695 4.219 4.992-6.047 6.273-7.48 3.094-9.719 16.137-22.602 27.278-15.047 4.687 1.371 6.074 7.504 11.269 6.269 1.766-1.304 3.52-2.816 5.27-4.332 3.671-4.117 13.437-5.191 18.851-5.828 4-2.222 2.77-3.23 1.879-7.961l.543-19.964c-.359-4.727-20.441-.426-22.781.554-12.957.434-29.61 5.367-42.254 3.703-2.547 1.414-1.461 3.993.824 5.375 3.938 6.723 7.106 5.535 0 13.508.297 3.906 3.004 5.215.301 9.34.312 4.09-7.379 8.109-10.492 9.285-6.035.199-6.516 1.133-10.985 5.563-6.515 2.918-15.433 3.437-18.832-4.77-1.883-1.691-.781-3.5-3.722-5.277-3.368-.985-8.11-3.074-7.004-7.453 2.414-2.704-2.024-5.114-3.77-5.899-3.707-4.883 4.145-15.004 7.867-19.176 3.43-5.953 7.661-10.003-2.527-11.343-3.434 3.847-3.492 4.55-4.234 9.699-1.977 3.015-8.907 11.293-4.649 15.117 1.317 5.981 3.449 17.098-2.582 20.449-3.437 3.852-6.75 2.899-11.828 2.68l-9.359-.305c-4.067 5.782-7.82 13.438-16.989 8.465-2.378-2.476-6.035-7.484-8.722-2.82-8.148 6.023-10.386 4.82-15.824-3.414-1.855-5.09-.68-10.426-2.352-14.465-7.695-5.414-11.886-9.734-5.742-18.094 5.02-2.789 4.028-5.91 1.735-9.824-.711-9.289.605-11.18 7.468-16.254.918-1.598 2.313-3.898.617-5.422-4.277-13.015 8.325-8.472 15.333-11.109 8.378-9.395 18.687-12.403 30.636-14.535 2.504-1.391 1.297-2.707-.715-3.922-4.703.156-21.453 3.293-22.879 2.015a230 230 0 0 1-4.805-3.16l-18.304-8.734c-.156-2.07-.316-4.145-.683-6.211-9.633-5.809-9.102-11.973-5.344-21.016-.156-2.058-.2-2.14-1.352-4.109-9.062-6.555-8.55-11.242-4.437-20.008l-.172-2.277c-6.324-7.469-7.27-14.418.035-21.196 2.07-2.324.41-5.433.191-8.316 3.34-5.797 6.739-9.254 12.532-12.473 5.527-6.195 11.168 3.762 17.128-1.195 4.047-5.758 10.57-6.301 16.016-2.199.808 2.086 3.836 12.332 5.566 13.109 12-3.472 15.238 5.317 12.528 14.539.125 1.657-.161 1.973 1.062 3.078 7.547-.253 7.637-1.722 12.098 3.539 2.515 2.262 1.511 3.133 1.113 6.403.52 6.808-.117 13.222 3.16 19.633 2.863 2.574 4.36 2.531 6.176-.621.207-9.086-1.352-11.071-5.281-20.188-4.848-6.383 2.918-8.426 1.132-15-3.464-6.43-4.171-5.633-3.273-12.98 4.254-14.469 14.762 3.019 18.438-8.516 1.66-1.863 1.863-2.555 4.773-2.652 5.051 3.043 5.781-1.305 8.582-4.442 4.465-.148 5.168-1.441 7.688 2.856.925 4.582.113 7.058 5.089 6.894 5.918-2.492 10.848-3.531 16.989-.359 7.527 6.765-.606 12.769 3.769 16.703 5.945 3.586 1.414 5.117 3.817 9.223 12.593 5.66-3.262 17.523 1.457 21.769.047.62.093 1.242.347 1.856 3.246 2.918 4.301 4.98 5.856 8.738.355 4.687-.336 3.562-3.867 6.363-2.922 2.16-3.071 10.242-9.313 8.418-1.863.059-3.738-.082-5.824-.219l9.012 1.149c2.464-.926 2.906-1.684 4.695-3.688 4-.875 12.785-3.656 15.793.3 3.883-.128 6.594-1.772 10.109-3.452 6.879-1.336 11.375 3.016 12.258 8.312-1.059 4.188-.535 12.04 1.254 16.375 4.477 5.899 1.785 8.329.426 13.7.793 10.359 3.816 12.91-7.344 17.91-3.398-3.055-7.535-2.645-8.758 2.164l-11.015 5.148c-3.168 2.34-7.684 2.746-11.493 1.633-1.746-2.301-1.461-1.43-3.882-1.945-2.739 4.758-6.907 1.051-10.254-1.11-6.325-9.175-6.875.872-3.899 5.95 2.668 1.199 6.5 1.261 8.438-.907 6.812-.226 13.711.09 20.648-1.316 1.356-1.52 5.973-2.152 8.086-2.766 4.145-3.062 8.434-2.949 12.434-5.609 7.234-2.961 6.601-2.656 10.332-8.656 7.343-8.231 6.906-13.903 7.265-24.348-.703-9.199-.633-20.16-.375-29.289-.422-5.535-1.09-10.922-1.269-16.582-1.981-4.785-2.692-9.805-4.039-14.824-5.824-9.957-11.453-20.692-9.75-32.504 1.894-1.055 3.226-1.922 5.172-.172 14.699 2.406 26.097 16.625 37.41 25.133 2.418-.078 10.828 9.594 15.121 10.504 2.711 2.437 4.859 4.48 2.703 8.219-.609 6.874-3.219 15.902-1.387 22.488.328 10.613-.867 20.281-1.375 30.801.348 4.558.696 9.117 1.063 13.886 4.547 24.188 12.902 22.938 32.695 23.215 9.328-1.359 18.383-4.094 26.27-9.195.808-.235 1.828-.477 2.847-.719.992-2.387 2.774-2.906.891-4.602-6.891-3.101-8.324-5.597-13.738-.574-7.274 3.481-8.965 5.289-17.211 5.567-6.551-4.446-7.672-6.125-7.496-13.879.738-4.317.859-5.211-2.497-8.227-1.617-4.918-3.343-8.14 2.563-9.851 2.469-.93 2.34-2.297 3.598-4.485-.543-7.117-2.254-5.734 5.175-8.277 2.114-3.227 3.481-7.293 7.387-3.777 2.649-.086 6.473-1.934 9.121-2.797 5.067-.168 13.879 3.683 18.293.422 7.074-2.047 2.891-5.504-1.828-7.625-6.93.23-10.269 4.281-17.434-.036-3.191.106-2.933-.894-4.617 2.024-8.91 9.992-5.781-.199-11.843-2.926-10.532-1.383-8.344-8.629-7.192-15.344-3.238-6.711-3.027-6.222 3.137-10.496.742-.836.781-1.996 0-2.7l3.551-10.507 6.765-3.758c-.422-5.5-7.75-8.734 1.149-12.089 8.187-.274 7.906 6.585 13.277-2.731 1.238-6.004.594-4.566 6.367-6.238 8.508 3.824 7.707 3.156 12.563-3.953 3.976-4.457 9.414-9.008 14.152-2.137 3.313 11.91 11.461-2.949 18.309 8.734 1.281 9.477 3.246 18.364 3.382 27.942.442 3.101.887 6.203 1.54 9.297 3.269.695 2.535 1.882 4.917-.786.508-1.468 1.223-2.949 1.926-4.636.059-4.313.317-15.391 2.262-19.192 1.312-9.121 3.82-14.465 13.598-14.797l4.199 6.09c8.133-.269 8.488-8.242 13.406-11.88 5.324-5.967 8.793 2.857 10.297 7.134l27.797-2.804c2.094 5.058 8.648 3.449 13.324 3.292 6.152 2.192 11.461 9.883 6.379 15.579-4.754 3.515-.078 4.535 3.391 6.328 6.636 8.742 6.226 11.988-3.442 17.363l2.196 4.289c14.921 10.789 4 17.137-7.469 16.25-1.211 8.414-1.641 13.184-8.949 18.586-5.903-2.652-5.938-3.246-9.872 1.16-3.543.117-5.543.074-9.214-1.14-5.239.175-12.493 2.14-13.118-6-1.687-2.883-1.289-2.473-5.109-1.696-7.859 2.961-17.348 6.477-16.594 16.352 9.348 8.402 24.575 5.019 34.946 1.109l28.562 1.738c8.649 3.079 13.875 21.133 7.746 28-1.738 4.188-.875 4.649 3.008 6.754 4.836 7.336 7.926 14.328-1.484 18.543.359 4.707 6.547 16.293 3.574 19.621.156 2.063-4.328 8.711-5.32 11.813.281 3.699-1.18 9.457-2.77 12.562-2.508 14.637-9.527 14.289-20.492 8.793-2.543.082-4.301-3.816-5.363.387-.465 1.852-1.34 2.149-2.879 3.004a72 72 0 0 1-1.813 3.383c-9.847.328-11.742-1.426-18.113-8.949-5.809-5.223-16.367 19.047-28.242-3-.723-9.461-2.727-8.43-10.887-12.102-3.078-2.769-2.234-10.527-2.145-14.473 2.411-9.515.176-11.226-3.878-18.156l-1.715-6.176c-4.766-4.285-5.438 2.766-5.637 4.969 1.547 3.391 2.523 8.008 4.758 10.645l1.074 27.601c-3.176 4.52-14.199 12.047-19.074 5.625-6.453-3.89-9.235-.699-14.36 2.145.985 5.23 2.926 15.398-.589 19.347l4.121 10.457c1.433 1.289 1.578 1.735 2.75 3.438 2.578 2.094 6.543 3.977 7.8 7.012 13.704 9.297 14.582 33.109 2.442 42.726-3.461 6.004-4.684 5.754.09 12.047 8.304 17.211 5.558 28.863-9.641 39.391-6.035 2.703-5.227 1.972-6.32 9.562.746 9.762-1.989 14.133-11.035 15.746.515 6.739 5.628 11.196 6.125 17.664-2.075 14.414-8.801 20.45-20.352 26.868-1.375 6.242-2.656 15.808-7.117 20.812-4.516 8.82-8.938 5.262-17.34 6.609-2.363 4.102-3.867 9.664-8.438 11.711-7 7.848-13.871 8.844-24.328 7.465-1.875 2.102-3.601 2.238-5.285 4.125-4.519 10.879-23.179 11.785-32.719 8.996zm115.227 79.258c-16.812-.829-40.531-1.598-55.961-9.965-2.91-.11-5.84-.426-8.769-.742-2.165 2.425-27.289 4.332-31.797 4.808-.399.219-1.004.446-1.59.883-14.055 1.351-28.199 2.285-42.258 3.703-3.109-.906-6.105 1.16-5.332-1.898 2.922-5.071 1.758-4.649 7.293-7.727 1.066-1.855 2.148-1.723 1.988-3.805-4.57-2.054-11.457-1.793-16.621-2.972-7.5-2.981-15.445-5.43-22.512-9.426-2.628-.77-4.937-2.797-7.32-3.492-7.832-7.039-20.164-11.543-25.199-20.141-.586-7.687 4.566-.68 6.625-5.625-4.102-5.398-19.692-19.566-25.563-22.207-4.386-5.773-14.265-14.449-20.117-18.855-6.101-9.254-13-16.993-18.812-26.176-9.73-12.817 10.176-.418 6.816-8.539-1.812-2.016-3.629-4.031-5.44-6.051-5.915-5.316-10.533-18.809-16.665-22.508-.055-.754-.469-1.109-1.145-1.414-1.664-4.027-4.074-7.898-6.094-11.847-.144-1.922-4.491-9.633-6.03-11.02-.383-4.988-5.95-9.082-2.45-13.008 1.258-.183 9.215-.785 5.715-3.93-2.226-3.804-5.453-14.55-7.476-16.371-2.461-13.921-7.18-26.808-9.368-41.039-1.03-3.14-1.574-5.738-2.336-8.855-2.421-8.719-.77-8.551 5.364-5.789 2.34 3.453 4.68 6.906 7.031 10.566.848-.027 1.27.531 2.703.113 1.945-4.679-1.379-16.722-2.3-21.949.195-10.855 1.335-24.699-1.25-35.285.929-7.613 4.5-3.625 5.538 1.891 3.45 3.101 5.262 9.328 7.066 13.683.254 3.317 1.934 9.067 3.61 11.93 2.738 13.008 6.687 25.734 9.605 38.746.156 2.07.317 4.145.68 6.211 8.48 11.172 5.34-30.875 14.68-11.504 1.48 5.711 2.761 11.399 4.214 17.106 3.602 14.757 10.36 29.328 15.989 43.519 3.523 6.016 5.75 20.961 7.347 28.223 2.039 1.832 3.297.406 2.164-1.528 3.239-10.179 11.571 6.149 12.973 9.54 4.817 4.328 9.758 18.621 12.031 24.324 2.254 4.676 3.297 9.16 5.426 13.945 6.883 6.184 4.332-7.684 2.391-9.43-.309-4.027 2.183-4.211 5.062-1.625 3.504 17.348 21.922 30.063 27.453 46.875 2.399 2.157 2.465 3.953 6.477.614 7.441-.25 19.652 10.941 27.891 14.648 6.504 8.566 17.656 13.555 25.66 20.75.535-.016 7.945 7.191 9.344 8.203 3.699-.125 3.46-.125 6.05-2.281 8.453-2.762 14.602-9.27 22.387-13.844 14.941-11.039 33.016-20.355 45.512-34.363 2.086-3.621 6.082-17.277 8.722-5.277-1.32 1.703-2.625 3.617-4.14 5.543-3.336 13.175.551 14.519 7.148 3.914.75-2.969 4.153-11.86 5.988-13.918 2.008-7.926 7.532-19.051 11.024-26.762 5.172-5.801 7.586-24.316 13.25-27.461 1.531-4.813 3.98-8.906 5.797-13.699.215-4.543 1.965-9.973 5.508-3.926.046 9.156-.598 18.512-1.2 27.68.539 1.961.657 3.863 2.911.105 6.007-12.398 11.257-25.453 12.328-39.48 1.011-7.446 4.398-15.715 3.839-22.989 1.29-7.523 1.637-13.847 1.055-21.437.637-2.516 1.274-5.027 1.895-7.75 1.441-1.625 4.855-1.168 4.043 4.019.961 12.559 2.773 24.782 4.511 37.254 1.391 4.227 2.707 3.489 5.239.653 2.597-11.403 3.289-22.411 5.086-33.836.632-3.692 1.781-10.004.621-13.528-.578-7.605 2.746-17.125 3.269-25.047-.058-.808 1.035-4.5 1.465-5.242 1.902-7.511 6.75-5.047 5.41.231a379 379 0 0 0 3.176 27.945c2.59 7.16 2.031 3.152 4.488-.98 1.258-7.344 4.028-14.637 4.524-22.18 3.445-8.289 3.875-20.188 5.433-29.277 1.496-1.676 1.938-13.844-.011-16.414-.477-6.274 1.117-7.54 5.414-2.465 2.851-.094 1.59 9.418 1.429 10.55.493 6.426 1 13.059 1.301 19.7.531 6.976-.41 14.285-2.344 20.859.387 5.094-.425 8.535-1.035 13.543-1.105 21.828 11.918-7.602 14.473-11.5.609-3.566 4.277-7.652 5.543-11.613 3.383-5.871 5.207.273 5.523 4.386-.679 10.364-4.711 20.469-8.285 29.993-3.98 8.211-4.969 16.859-8.441 25.218-2.129 2.387-4.754 6.071-5.524 9.122-2.191 2.894-5.906 8.07-7.402 11.675-4.859 5.446-1.242 9.946 3.277 4.875 3.856-2.14 5.5-6.019 7.563-9.605 2.828-8.891 7.043-1.145 4.105 2.144-3.672 11.532-8.933 23.957-14.367 34.563-.316 1.258-.617 2.722-.922 4.183-7.652 12.997-15.769 25.715-27.136 35.825-.813.91-.809 2.136.41 2.683 5.187 1.52 4.734 3.516 3.308 7.992-2.34 2.622-4.808 8.829-7.355 12.297-4.922 6.5-14.86 17.008-21.848 20.891-6.262 5.566-11.808 8.312-19.41 12.078.078 1.035.156 2.07.027 3.113 2.168 2.856 2.641 3.336.063 6.231.359 4.734-15.067 14.289-18.25 16.406-7.223 7.043-19.668 13.168-29.457 16.367-4.223 4.735 7.933 3.766 9.629 3.828l12.113 14.555c6.766 6.082.102 8.203-4.508 8.879zM321.375 215.16c-4.895-2.199-4.196-6.504-11.778-7.5-8.453-3.801-17.398-2.754-25.457.852-4.097.136-4.836-2.352-3.355-5.91.379-4.95 1.426-9.442 1.593-14.391 1.196-2.883.438-2.301 4.172-2.426 10.535-.351 15.875.063 26.336-2.961 4.614-1.094 13.453-2.058 17.067-4.726 9.125-1.993 16.215-7.957 25.187-9.782 1.66-.82 7.164-2.629 8.215-3.804 7.223-.243 6.477 3.765 2.879 7.797-2.551.832-8.895 1.414-10.539 3.261-8.477 2.77-8.055 1.52-11.797 8.5-.223 9.602-2.313 8.739 5.695 14.77.305 4.027-.441 7.746-.129 11.847-5.464.797-8.976 1.122-14.66.907-4.426.789-9.375 3.429-13.422 3.566" style="stroke:none;fill-rule:evenodd;fill:#fffdfd"/><path d="M256.406 477.742c-12.195.406-18.195-.59-21.043-14.668-.461-1.898-1.145-7.617-2.926-8.422-3.723.125-7.449.25-11.398.176-10.895-3.617-12.922-8.887-13.813-20.523-2.375-2.137-2.969-1.77-5.937-1.668-13.555-1.465-21.899-14.489-19.575-28.02-.078-1.035-.156-2.07-.253-3.312-2.356-.957-4.727-2.125-7.305-3.286-7.781-6.996-10.094-5.578-12.938-17.226-.109-1.449-.218-2.898-.347-4.559-.016-.203.156-.629.332-1.047-.172-2.277-.555-4.55-.938-6.824-1.148-2.777-2.008-2.879-4.504-4.625-2.109-1.894-4.269-3.215-6.605-4.972-3.953-5.204-4.524-10.868-5.473-17.27-.25-3.301 1.278-7.746 1.848-11.074 2.699-4.121 3.945-7.832-1.254-10.973-6.727-8.859-8.328-11.211-9.227-22.965.125-8.804 2.832-13.601 7.106-21.019.926-2.227-.149-3.953-.887-6.203-.906-1.008-1.828-2.223-2.754-3.438-.203-2.691-.426-5.594-.855-8.488 1.023-4.043 3.797-5.832 6.574-8.949 1.59-.883 3.184-1.766 4.965-2.868 2.851-3.195 4.355-2.808 7.703-5.035 7.391-1.316 6.363-1.836 14.023 1.606 1.934-.063 2.672-1.52 3.293-3.02.055-3.855.055-7.086.828-10.832 1.141-2.742 3.063-5.437 4.571-8.051 6.726-5.984 14.699-8.152 22.832-2.636 1.379-.043 5.543 4.875 6.683 6.008 2.5-.082 3.539.226 5.508-1.223q2.531-3.511 5.063-7.027c3.234-2.086 9.008-2.625 11.16-3.282 3.164-.105 3.722 1.52 4.472 4.215 1.247-.039 1.692.586 2.227-.695 12.496-6.942 20.621-11.094 36.953-2.488.418 5.488 14.692-.239 15.52-.52 0 0-.012-.203.176-.422 8.101-3.051 20.531-1.098 26.218 6.391.235 3.105.121 3.961 2.703 5.519.825-.027 1.641-.261 2.45-.496a257 257 0 0 0 4.488-3.683c5.578-2.102 8.086-2.348 14.328-2.559 1.805-.059 2.113 1.902 3.93-.129 1.238-.039 2.687-.09 4.121-.344 5.965 1.27 9.574.477 11.301 6.684-.778 6.051-1.559 12.105-2.325 18.363-.996 2.395-.433 4.016-.523 6.668 1.098.793 2.402 1.578 3.707 2.367l5.109 1.696c.7 1.011 1.606 2.023 2.512 3.031 2.813 2.117 7.484 5.926 8.992 9.047.461.605.922 1.215 1.606 2.023.675 1.453 4.234 11.528 4.867 12.098.359 4.687-.133 12.078-3.36 15.699-.777.649-1.558 1.297-2.527 2.16-.715 1.477-1.433 2.957-2.34 4.649-.761.855-1.734 1.718-2.687 2.789a9.5 9.5 0 0 0-.508 1.469s-.203.007-.395.218c-.109 1.25-.414 2.715-.714 4.18 1.894 5.766 5.199 9.238 8.386 14.68.547 7.183-2.066 12.418-6.066 18.281-3.93 2.723-8.113 5.734-12.484 7.691-.395.219-.778.649-1.368 1.082-.14.836-.285 1.672-.621 2.723.223 2.898.442 5.801.473 8.918-.301 3.402-1.203 5.852-3.313 8.215-.808.234-1.812.683-2.816 1.133-5.148.824-5.258.05-6.703 4.586.301 1.234.617 2.679 1.144 4.117.204-.004.426.191.649.39.715 1.223 1.445 2.653 2.387 4.075 2.367 7.199 5.546 11.332-.098 17.668-1.113 2.683-4.164 6.695-6.16 8.933-3.375 2.492-4.129 3.832-8.504 5.481-3.285 1.824-2.563 4.129-2.961 7.371-.172.422-.332 1.051-.699 1.683q-.404 2.819-.813 5.637c-1.847 5.813-12.344 18.016-18.277 7.887-.203.004-.41.011-.809.234.328 4.305-3.461 7.453-4.347 10.949-8.266 9.02-12.383 15.856-28.102 9.672-2.172.071-1.703-.094-2.769 1.754 2.441 3.543 2.296 2.899.488 6.426-1.391.043-2.824-.488-4.219-.895-1.176.868-2.355 1.739-3.516 2.817-4.375 4.117-8.492 4.789-13.628 6.273zm-92.305-202.64c-4.664-.762-9.258-.672-13.961-.778-1.082-.586-2.387-1.371-3.691-2.16-.114-1.484-1.246-2.875-.11-4.148.614-5.067 1.946-10.305 4.477-14.696 6.269-3.972 7.84-4.004 15.648-4.265 2.368 1.429 5.59 2.668 8.34 3.25.039.523.688.41 1.078.586 4.282 3.847 4.5 4.671 3.739 10.886-1.473 3.25-3.536 6.66-4.41 10.121-3.973 5.649-4.575 4.481-11.114 1.204zm4.063-3.879c-1.7-.563-3.407-1.129-5.332-1.899-2.5-.121-5.219-.445-7.942-.769-3.629.121-4.738.445-5.027-3.364.316-1.257.637-2.511 1.144-3.984 3.797-6.586 4.692-6.555 12.61-6.031 1.683.355 3.578.711 5.476 1.062 6.219 2.383 4.66 1.008 5.903 6.657-.684 1.89-1.368 3.785-2.262 5.683-2.277 2.551-1.418 1.899-4.566 2.645zm16.843 5.879c1.293-3.114 4.102-3.973 5.989-8.512 1.07-1.199 1.875-2.016 3.308-2.813 9.227-3.152 13.207-4.144 20.742 2.625q1.12 2.456 2.243 4.91l.328 12.457c-1.754 3.047-4.059 5.407-6.895 7.504-1.652.622-4.125 1.426-5.637 2.266l-.761.856c-11.34.378-23.121-4.309-19.324-19.301zm12.02 13.312c-4.125-2.066-5.559-1.941-7.32-6.195-2.547-2.289.027-4.309 1.418-5.864 6.214-8.836 5.48-8.078 16.367-8.445 6.047 3.645 6.965 4.863 4.66 12.102.246 3.218-2.867 4.855-5.383 5.582-2.422 2.715-6.242 2.699-9.742 2.82m38.465.992c-8.293-1.761-7.324-2.394-11.348-10.008-.5-6.546.734-9.671 6.211-13.714 2.398-2.692 6.188-4.465 9.52-5.723 8.132-.274 9.679-.942 11.968 7.285 1.262 4.539 1.239 5.652.535 9.746-2.421 1.344-1.828 3.215-1.64 5.664-1.531 1.719-2.688 2.356-4.711 3.481.074 1.008-.285 1.222-.891 1.898-3.793.125-4.179.414-7.164 1.277l-2.48.083zm-6.332-9.554c-2.176-3.715-.465-4.711 1.273-7.731 7.184-5.066 6.043-4.91 14.059-6.082 6.629 2.98 2.328 7 1.269 11.18-7.558 4.199-9.511 9.011-16.605 2.633zm39.722 1.16c-.285-3.743-1.886-7.336.86-10.418.316-1.258.636-2.512 1.144-3.985 1.305-1.91 2.61-3.824 4.11-5.953 1.875-2.101 4.539-2.918 6.925-4.387 2.004-2.246 4.59-1.816 7.528-1.914 2.547 1.536 6.676 4.196 8.195 6.79.649.39 1.32.992 2.195 1.585 1 2.25 2.004 4.504 3.024 6.961 1.578 2.696 1.574 5.286.41 8.09-3.469 5.293-9.758 9.496-14.984 12.973-1.207.453-2.418.91-3.821 1.582-16.191.809-13.386-3.934-15.597-11.32zm3.918-3.043c-.078-1.035-.156-2.071-.254-3.313 1.426-5.637 1.969-5.015 6.399-8.527 1.187-2.067 3.316-3.149 5.031-4.738 3.574-1.985 4.992-.746 8.168.968 1.899 1.707 3.34 3.317 4.965 5.235.684 3.383 2.973 7.961-.684 9.996-3.57 4.004-7.332 5.625-12.054 7.883-8.305.277-8.207 1.343-11.571-7.508zm44.934 4.101c-.59-7.703-.535-10.004 2.422-17.121 4.258-4.773 9.281-6.531 15.269-3.836 4.368 3.926 3.399 6.453 3.864 12.547-.496 2.895-1.407 4.875-2.961 7.371-5.575 5.172-12.758 8.731-18.594 1.039m3.551-7.808c.937-2.258 1.863-4.137 3.039-6.336 3.707-3.086 9.125-4.864 11.078 1.082.426 5.582-.75 6.097-4.649 9.715-7 2.023-7.925 1.863-9.468-4.461m40.246 13.402c-.43-.191-.86-.387-1.289-.578-1.891-.352-3.785-.703-5.696-1.262-6.867-2.629-6.007-2.254-10.218-8.801-2.305-3.937-1.551-9.734 1.48-13.14.301-1.465.606-2.93.891-4.602.586-.433 1.383-.875 2.179-1.32 1.223-.246 2.641-.711 4.059-1.172 4.422-3.266 11.027-4.176 15.555-.105 1.328-.043 5.238 4.515 6.445 5.601l1.383 1.82c2.551 5.29 1.144 6.516.125 12.465-4.692 11.289-4.719 9.16-14.918 11.098zm.512-6.875c-2.325-.543-4.856-1.082-7.387-1.621-.617.019-1.238.039-2.082-.137-3.887-3.492-3.512-3.457-4.629-8.988.476-1.891.969-3.313 1.687-5.043 2.239-1.242 4.325-2.719 6.305-4.367 2.242-.488 4.488-.981 6.941-1.477.411-.011 1.032-.031 1.653-.054 13.82 4.957 11.582 21.222-2.485 21.695zm-71.36 59.965c-.668-8.731-1.012-12.086 1.34-20.41-.156-2.059 1.496-3.254 2.754-4.664 3.168-1.758 6.148-3.524 9.105-5.707.414-.012.825-.028 1.227-.246l1.336-1.5c4.562-.571 7.148-1.977 11.047.668 5.332 1.898 4.586 3.98 6.078 8.937.238 3.105.269 6.223.301 9.34q-.404 2.818-.813 5.637c-.347.839-.699 1.683-1.258 2.535-.328 2.707-2.257 6.105-3.504 8.429-1.335 1.5-2.675 2.996-4.203 4.711-11.867 4.473-19.367 4.465-23.418-7.73zm8.774 3.445c-.985-.887-2.258-1.64-3.309-2.59-.785-10.289-2.145-13.168 3.297-21.929 1-.446 2.004-.899 3.008-1.348 4.672-3.703 8.129-6.348 14.25-3.594.222.199.445.399.683.805.614 8.019 1.813 12.57-1.355 20.203-3.278 6.113-9.176 10.023-16.574 8.453m50.57-3.566c-8.992-3.199-7.981-4.84-13.496-10.973-.133-1.75-.274-3.062-1.383-4.523-.187-2.485-.395-5.18-.809-7.868 1.235-4.871 1.344-5.609 5.813-8.089.379-.426.762-.856 1.129-1.493.203-.003 9.176-4.839 10.394-5.128 2.2-1.223 5.051-1.114 7.547-1.707 5.453 1.253 6.418 4.609 9.934 7.769 1.937 3.785 2.523 5.898 3.262 10.07-1.012 7.016-3.083 12.235-7.598 17.297-3.863 2.145-10.457 4.508-14.793 4.653zm-10.442-17.11c-.519-6.812-2.148-5.168 3.454-9.05 4.199-4.711 7.441-5.543 13.55-7.313 4.715-.156 7.274 2.461 10.618 5.875.203 2.692.425 5.594.855 8.488-1.945 6.118-3.121 6.407-8.297 10.875-9.25 1.649-15.73 3.313-20.183-8.879zm-13.058-75.621c2.336-2.617 3.808-1.554 5.398-5.375-.172-2.277-.347-4.558-.539-7.047 1.133-1.269.633-2.523.508-4.171-.992-2.399-1.101-3.547-1.301-6.188.688-2.719 2.043-4.312 3.868-6.363 2.359-1.156 5.035-1.262 8.054-.477.875.594 1.766 1.395 2.656 2.196.434 1.558.508 2.968 1.766 4.097.301 1.235.602 2.473.922 3.914.027 3.114-.141 6.239-.316 9.36a89 89 0 0 1-1.864 2.761c-.968 3.832-3.23 5.457-4.09 8.864-2.328 1.937-3.671 3.957-6.449 5.203-6.429.215-10.48.609-8.609-6.774zm9.172-7.582c.078-1.664.363-3.336.636-5.215-.156-2.097.11-5.39-.968-7.238.062-1.871.109-3.949.156-6.031 4.723-2.621 5.211-.781 6.523 3.933 1.25 2.133 2.258 5.793.586 7.668.063.829.125 1.657-.015 2.493-1.063 1.191-.528 1.879-.778 3.347-.554.848-1.113 1.7-1.878 2.555-3.532 1.961-3.036 2.902-4.266-1.516zm-45.106 4.426c-.773-4.117-1.597-7.336-1.922-11.57.176-.422.332-1.051.7-1.684.269-1.879.523-3.965.781-6.051.187-.211.363-.632.746-1.062.469-1.86.684-2.789 1.957-4.219.203-.004.602-.226 1-.445 1.238-.039 2.672-.297 4.106-.551.203-.004.394-.219.585-.434 7.11-2.058 9.161-1.695 12.274 5.821.234.406.476.812.922 1.215.093 1.242.187 2.484.508 3.929.234 3.106.472 6.219.503 9.332-.285 1.672-.57 3.344-1.05 5.231-5.172 7.351-16.328 10.445-21.125.5zm4.235-1.598c-.996-5.308-2.797-9.703.113-14.757q1.501-.675 3.008-1.348c.363-.633.937-1.277 1.512-1.918 3.886-2.871 4.953-1.629 7.226 2.25l.156 2.07c1.317 4.735 1.254 8.352-1.082 12.918-4.14 1.981-6.75 3.621-10.937.782zm-47.797 7.215c-4.387-1.972-5.906-10.328-6.891-14.105-.125-1.649-.601-2.699.524-3.965 1.023-4.961 2.453-10 5.129-14.305.378-.426.953-1.07 1.527-1.711-.031-.414.141-.836.301-1.465q1.22-.35 2.433-.703c8.727-4.175 14.157-4.644 21.746 2.176l1.285.578c5.176 9.801 5.797 15.258 1.536 25.508-.496.559-1.211.91-1.559 1.297-.539 1.055-1.289 2.117-2.035 3.184.016.207.031.414-.141.835-8.472 7.536-13.172 6.477-23.863 2.672zm1.242-5.441c-5.113-8.731-3.852-11.043-.758-20.754 1.129-2.719 2.61-3.789 4.742-5.77 1.594-1.011 6.403-2.339 7.719-2.129 10.824.981 10.891 5.852 12.352 14.961-1.082 7.512-3.7 10.817-9.602 15.493-4.09.546-10.867 1.422-14.453-1.797zm-38.93-4.305c.282-5.867 1.18-9.215 3.887-14.262.871-2.742 1.563-3.414 2.883-5.707 1.144-1.281 2.293-2.57 3.644-3.859 4.11-1.547 9.004-1.109 12.766 1.438.383 5.039 1.215 5.472-3.027 9.242.312 4.113.363 5.324 3.179 9.035.395 5.176.875 8.918-2.355 12.547-9.699 5.386-17.848 5.797-20.981-8.438zm4.969-.168c-.461-6.019.277-9.051 3.059-14.23 3.808-4.27 13.578-6.446 8.453-.7-.559 4.598-.863 7.399 2.304 11.145.34 4.449 1.399 4.504-1.671 7.949-7.52 3.168-9.95 3.731-12.145-4.16zm-29.094 7.629c-3.394-7.629-5.269-13.539-2.859-21.098.383-.425.762-.855 1.352-1.293.554-.847 1.097-1.906 1.847-2.968 4.598-2.555 13.992-5.836 17.672.441.438 5.735 1.301 11.59 1.746 17.395-.332 1.047-.668 2.097-1.211 3.156-5.195 9.019-8.34 8.953-18.547 4.363zm.641-7.922c-.504-6.617-1.367-7.301 2.168-12.332 4.797-3.187 8.226-4.609 12.48.41.223 2.899.235 5.809.266 8.926-.863 2.496-1.516 4.399-3.246 6.344-6.992 2.637-8.266 4.101-11.668-3.348m-40.535 66.828c-.231-3.047-.289-6.324-.094-9.347 1.434-3.45 1.902-6.785 3.359-10.293 8.715-3.672 14.676-7.594 23.786-1.008.617 2.531 1.113 5.203 3.593 6.32.016.203.239.406.477.813.277 3.633 1.047 6.234-1.848 8.375-1.086 2.617-2.222 4.644-3.168 7.379-.886.996-1.836 1.488-2.691 2.793-9.594 5.91-16.363 8.32-23.418-5.032zm3.183-7.175c-.351-4.625 7.45-9.555 10.575-10.95 9.382-.312 6.64 1.336 11.203 5.442.508 6.621-1.293 8.699-4.985 13.465-1.172.035-1.562.566-1.957 1.519-10.183 5.656-15.207 1.375-14.836-9.476m13.379 63.562c-.668-.598-1.543-1.191-2.418-1.789-2.347.078-7.148-9.687-8.133-11.363-.265-3.524-.535-7.047-1.015-10.563.551-2.676.848-5.312 2.101-7.758.571-3.328.45-4.031 3.504-5.726 8.809-3.32 13.887-4.863 13.61 7.023.449 5.899-1.227 8.352 3.992 11.5.57 2.059 1.16 4.324 1.75 6.59.644 8.461-4.918 11.801-13.391 12.086m-5.73-9.785c-.477-1.719-1.348-6.231-2.641-7.391-.015-2.906.176-5.824.367-8.738 1.395-1.562 1.266-2.395 3.231-3.848.555-.847 1.098-1.906 1.844-2.968 2.339-2.622 4.074-1.145 5.492 1.269l.664 8.703c.91 2.774 3.012 5.145 4.535 7.742.109 1.45.234 3.11.57 4.758.282 3.692-3.636 4.035-6.289 4.574-3.316.11-5.754-1.425-7.781-4.101zm17.269 22.281c.114-.004 4.883-7.816 5.157-8.484 5.605-3.114 10.5-6.379 17.132-6.602 1.364 2.332 1.832 4.934 2.641 7.391.434 5.691-.305 10.191 3.625 14.84.578 7.578-1.879 8.699-9.25 6.543-3.367.109-5.187.074-8.168 1.726-9.883.328-10.351-5.097-11.141-15.418zm4.524 4.836c.304-6.398 1.301-6.328 6.242-10.598.41-.011.824-.027 1.43-.253 3.39-2.254 5.941-3.008 8.39 1.171.125 1.657.254 3.313.188 5.188.523 1.434 1.254 2.863 2.004 4.504.234 3.07-.61 2.574-2.848 3.422-1.488.047-3.469-.297-5.203-.239-1.828.477-3.66.954-5.477 1.637-5.129.172-4.363-.129-4.726-4.828zm11.152-38.613c-1.906-3.258-4.039-6.719-6.172-10.184 0-2.699.207-5.406.399-8.324.761-.855 1.527-1.711 2.484-2.781.109-1.25.223-2.5.332-3.75 2.078-10.063 12.637-16.426 22.77-14.27.429.192.859.387 1.304.785 7.391 1.211 10.289 4.579 13.114 11.403.461.605.921 1.215 1.605 2.023 3.57 8.625 3.086 13.711-1.93 20.844.118 1.562-2.351 3.07-3.422 4.062-13.273 8.825-17.234 8.184-30.488.192zm7.324-1.91c-.015-.203-.031-.411-.254-.614-.222-.199-.668-.597-1.113-1-4.465-2.007-7.926-5.359-7.031-10.57 1.031-2.734 2.07-5.469 3.297-8.422-.031-.414-.078-1.035.078-1.664 2.562-3.648 4.016-4.609 7.516-7.523 8.265-1.11 11.199-3.055 17.64 2.73 6.445 10.016 8.145 14.5-.051 23.692-7.468 5.175-11.316 5.937-20.074 3.375zm56.637-5.645c-2.023.067-6.234-6.734-7.082-8.488-.391-5.133.879-10.219 1.738-15.227 1.457-5.758 1.684-5.988 7.133-7.097 12.266-5.493 19.719-1.618 22.383 10.468.324 4.274-.617 13.075-3.902 16.754-5.489 8.371-16.559 5.688-20.27 3.59m1.656-5.457c-6.16-5.535-5.566-10.008-1.234-16.168.203-.004 8.402-5.293 10.746-5.973 5.031-.168 6.344 2.543 8.816 6.77-.632 5.188-1.281 8.699-3.105 13.609-4.258 4.77-9.867 4.161-15.219 1.758zm.676 49.438c-5.23-3.153-4.277-8.852-2.289-13.637 0 0 .203-.004.395-.219.449-2.629 1.753-4.219 2.179-6.723 2.699-3.027 10.594-6.296 14.981-7.566 7.566-.254 12.215.738 14.148 8.668.66 8.641-3.789 12.199-11.133 17.203-3.156.106-5.25 1.836-8.976 1.961-3.688.875-5.524.809-9.313.313zm-.062-11.637.953-1.07c2.695-1.497 6.203-3.957 7.785-6.704 2.949-1.46 5.051-2.632 8.246-3.39 6.187.472 9.695 1.312 7.48 8.265-1.996 3.469-7.128 5.684-10.636 7.422-2.258.282-4.52.567-6.973 1.063-5.832 1.687-7.277.758-6.859-5.586zm35.453 15.851c1.195-2.878 8.652-9.699 10.89-12.211 4.668-2.593 6.059-2.613 10.903-1.195 1.179 1.059 2.211 2.18 3.355 3.211 4.535 10.672 3.539 17.918-12.215 22.02-8.679.289-13.363-2.946-12.941-11.825zm4.84 3.579c-.504-1.821-1.149-3.489-.825-5.375 4.672-1.758 8.977-6.536 14.012-6.704 7.258 4.375 3.719 7.282.742 12.442-2.648 1-5.176 1.832-7.879 2.758-3.308.109-4.004-.43-6.047-3.121zm10.769 45.773c-.402-1.844-.504-3.926-1.461-5.559-1.488-7.367-1.613-6.757-7.828-10.125q-3.51-1.125-7.02-2.257c-.652-.391-1.304-.786-1.972-1.387-.016-.203-.238-.406-.477-.813-.14-1.863-.285-3.726-.218-5.601q3.797-3.241 7.593-6.488l4.25-1.387c5.074-.168 4.598.332 9.473 1.758 2.055 1.847 3.875 2.992 6.523 3.933.446.399 1.114 1 1.782 1.602.859.387 1.734.98 2.609 1.574 1.16 1.621 2.32 3.246 3.707 5.07.301 1.235.602 2.473 1.129 3.907.223.199.445.398.875.593 1.254 2.867 2.512 5.735 3.785 8.809.211 2.773-.016 4.137-1.367 6.484-1.637.262-3.262.731-4.887 1.2 0 0 .016.207-.172.421-2.218.071-7.8 1.094-9.566 2.399-1.754.058-5.582-2.602-6.75-4.137zm3.074-5.922c-.172-2.277-.57-4.758-.968-7.238-.477-.813-.954-1.629-1.637-2.438-4.652-2.804-6.57-4.761-11.844-5.629-2.988-1.8-2.383-2.113-1.207-4.945 2.02-.687 4.25-1.387 6.461-2.293 1.41-.047 3.832.445 5.254.86 2.644 1.593 4.258 3.3 7.144 3.914 3.012 1.867 5.754 4.531 8.02 7.211.105 1.402 1.488 2.449 2.34 3.453 2.715 5.3 4.422 6.511-.492 9.781-2.496.082-4.2.496-6.305 1.664-4.906.164-5.266.211-6.762-4.344zm17.008-13.664c-1.168-2-3.855-5.351-2.019-7.41-.196-2.563.074-4.887.683-7.297 2.086-5.02 4.024-5.703.637-10.617-.414-5.434 2.582-4.738 5.859-7.469 3.344-1.09 9.188-3.152 11.11 1.496q1.002.897 2.004 1.801c.281 3.691 2.503 5.176 1.621 10.336-.032 2.285-.27 4.578-.508 6.875-.332 1.051-.668 2.098-1.211 3.156a834 834 0 0 1-.383 3.129q-.856.963-1.719 1.926c-.738.023-.898.691-1.144 1.281-.188.211-.586.434-.969.863-2.273.075-4.535.36-7.004.649-1.015.238-2.019.687-3.023 1.14l-3.93.129zm1.164-9.184c.508-1.468 1.004-3.148 1.703-4.835 1.418-3.165 2.832-6.329 4.25-9.493.27-1.879.539-3.757 1.02-5.644 5.851-.195 4.18-.781 8.262 4.918.503 6.609 1.453 10.269-1.879 16.062-2.875.68-5.848 1.617-8.739 2.367-.203.004-.394.219-.586.434-3.156.106-4.464-.234-4.027-3.812zm1.36-31.007c-4.485-3.243-7.7-7.778-4.309-12.946.504-2 1.539-3.461 2.293-5.269 3.723-3.453 6.387-5.981 12.086-4.77 5.449 2.449 6.441 5.532 6.875 11.196-.531 4.363-2.699 6.629-5.477 9.742-3.566 1.98-7.047 3.34-11.461 2.047zm4.828-4.739c-7.77-1.019-6.84-5.386-3.547-11.101 1.398-1.031 1.98-1.387 3.582-1.988 8.73-.293 8.918 6.203 4.582 11.066-1.844 1.023-2.59 1.437-4.613 2.023zm-48.946 84.36c-.875-.594-1.765-1.395-2.863-2.188-1.066-.379-2.133-.758-3.215-1.343-9.16-.52-10.484.437-12.258-8.317.317-3.566 1.7-5.18 2.024-8.793.769-.859.519-1.25.875-2.105 3.109-3.489 4.125-4.625 8.66-6.11.188-.211.379-.425.777-.648 3.5-.324 7.004-.649 10.715-.981 2.961-.097 3.813 1.493 5.664 3.547 1.625-.051 2.27 3.957 2.657 4.899 3.539 3.183 2.105 12.019-1.372 14.59-.539 1.054-1.066 2.32-1.796 3.593-4.247 3.774-4.633 2.926-9.872 3.864zm.332-6.453c-1.304-.786-2.609-1.575-4.121-2.356-2.703-.113-5.617-.226-8.531-.336-.43-.191-.859-.383-1.305-.785-.109-1.449-.222-2.898-.14-4.566 1.629-5.121 2.527-7.231 8.629-9.223q3.076-.411 6.16-.828c7.07-.234 6.969 1.394 8.898 7.805.348 4.593-3.691 12.949-9.586 10.296zm-37.863 20.39c-3.769-6.437-3.863-8.043 1.035-13.543 3.305-1.836 6.657-4.984 9.157-7.785 1.039-2.5.812-2.16 3.101-.101q.357.608.715 1.222c.57 2.055 1.144 4.113 1.926 6.168.984 2.043 1.972 4.09 3.164 6.129.461.606.922 1.215 1.605 2.024 1.567 4.585.254 5.918-.953 9.175-1.848 1.028-3.226 1.926-5.187 2.668-5.813.192-10.793-.984-14.567-5.949zm2.008-3.601c-1.418-5.106-1.148-3.735 3.184-7.172 6.207-5.52 5.41-3.028 10.011 3.402.684.809 1.367 1.613 2.067 2.629.316 4.148 1.777 3.981-2.02 6.094-7.351.246-8.437.98-13.242-4.957zm-23.531-19.993c-2.09-1.878-4.078-4.035-6.621-5.179-1.071-1.262-2.168-3.684-3.039-4.469-.606-7.934-1.286-7.207 4.492-11.785 1.59-.883 3.375-1.981 5.156-3.082.348-.84.699-1.684 1.035-2.735 3.035-.101 2.836 2 4.711 4.622 1.602 1.781 4.527 3.339 5.395 5.429a42 42 0 0 1 2.179 1.379c2.973-.097 7.965 2.137 11.207 2.738 3.895 2.641 3.246 4.403.809 7.868a374 374 0 0 0-5.063 4.324c-5.394 6.047-13.578 5.211-20.265.887zm8.168-1.726c-1.493-.57-2.993-1.145-4.711-1.918-.891-.801-1.782-1.602-2.879-2.395-2.098.071-5.305-3.39-6.59-4.765-.504-6.598 2.84-7.32 8.898-8.403 2.434 1.993 5.094 4.192 7.75 6.387.512-.015 3.961 1.766 5.141 2.11 4.035 1.812 5.133 2.343 1.715 6.175-1.192.661-2.594 1.332-3.996 2.004-1.637.262-3.485.531-5.332.801zm-32.524-18.234c-2.605-1.172-8.719-3.993-9.851-6.735 0 0-.203.004-.41.012-2.426-6.383-3.543-8.824 2.914-10.695 1.382-.875 2.753-1.961 4.328-3.055.203-.004.617-.02 1.015-.238.188-.211.379-.426.555-.848 3.621-1.621 8.176-3.961 9.777-7.809 2.325-2.605 2.559-1.929 4.028 1.11.285 3.73.777 7.453 1.285 11.386-.629 3.68-.883 7.29-3.375 10.086-1.707 4.106-4.34 8.52-10.27 6.786zm-3.453-7.161c-5.723-5.144-2.18-7.046 2.469-8.394 1.191-.66 2.387-1.324 3.773-2.203.364-.633.938-1.278 1.512-1.918 5.141-.172 4.301 1.312 4.039 6.719-2.465 5.933-3.93 9.335-11.797 5.796zm42.973.219c-3.614-3.25-6.696-7.695-4.692-12.515q1.19-.663 2.387-1.325c3.09-4.39 7.137-4.847 9.586-7.593 2.688-.09 5.379-.18 8.262-.485 5.414 1.149 7.996 3.985 12.734 6.43 2.738 4.676 5.945 10.789.313 14.949-1.817.059-6.516 2.781-7.993 4.008-5.761 3.199-15.191-.801-20.601-3.461zm4.316-3.262c-7.469-3.359-6.137-5.437-.156-10.175 5.398-2.418 7.855-2.93 13.945-2.129 11.957 4.258 9.903 10.758-.668 12.906-1.433 1.605-10.879-.23-13.117-.598zm-29.769-25.597c-2.895-2.602-4.625-3.508-4.95-7.731 1.551-5.285 2.375-6.711 5.782-11.207 3.113-2.769 4.117-3.476 7.675-5.449 7.469-1.945 9.778-3.418 17.336-1.203 3.973 4.691 5.778 6.008 4.93 12.926-1.918 4.617-3.988 5.953-7.816 8.988q-1.19.662-2.387 1.324c-8.375 6.188-11.524 6.422-20.57 2.352m8.043-3.391c-5.371-.879-13.571-2.863-6.286-8.93.188-.21.383-.425.555-.847 2.563-1.746 5.11-3.703 7.656-5.656 4.797-.161 7.996-2.399 13.356-1.696 5.469 4.914 2.277 8.969-2.469 11.094-1.383.875-2.769 1.754-4.344 2.848-2.175 2.437-5.101 2.39-8.468 3.191" style="stroke:none;fill-rule:evenodd;fill:#11b1ee"/><path d="m224.437 553.426-.668-.598c-.168-2.187-.707-1.68.59-3.137 3.156-1.187 7.254-2.644 9.793-4.898.187-.211.379-.426.555-.848 1-.449 2.211-.902 3.421-1.359.516-.578.926-1.266 1.512-1.918.809-.234 1.828-.477 2.848-.719.969-.863 1.941-1.726 3.117-2.598 3.344-1.496 6.293-3.624 9.313-5.714 1.195-1.34 4.218-2.016 6.015-2.696 2.442-2.734 5.781-3.105 8.453-6.101 2.34-1.297 4.438-2.719 6.735-4.172.203-.004.617-.02 1.015-.238.188-.211.379-.426.555-.848 5.523-3.07 10.66-6.949 15.797-10.504 4.637-2.297 9.094-4.769 12.863-8.117.203-.008.617-.02 1.016-.242.586-.434 1.176-.867 1.957-1.52 2.515-1.125 4.289-2.496 6.304-4.367.383-.426.762-.855 1.129-1.488 4.391-1.965 6.391-3.114 9.649-6.766 1.812-2.031 3.824-3.613 5.777-5.805 1.528-.847 3.66-2.754 4.934-.578 2.855 5.75.031 8.211-2.071 13.574-1.523 1.711-2.078 3.801-3.074 5.922.344 4.52 3.067 4.887 5.938 1.668.683-1.89 1.351-3.992 2.226-6.097-.129-1.727 2.125-5.399 3.008-6.75 1.941-1.727 4.074-3.668 6.211-5.61 1.723-1.929 2.879-2.699 3.324-5.304 1.903-3.301 3.551-5.641 4.477-9.293.758-1.317 1.394-2.489 2.64-3.414 1.227-2.95 2.645-6.114 4.059-9.278.156-.629.301-1.465.445-2.301 2.118-4.14 4.395-7.871 6.129-12.05-.047-.621-.094-1.243.047-2.078 4.852-6.313 7.555-13.68 9.508-22.137.383-.426.746-1.063 1.113-1.699.684-1.891 1.559-4 2.438-6.106-.149-1.973 2.644-2.223 3.515-.117.172 2.277.141 4.566.125 7.059-.871 5.078-2.367 9.578-3.011 14.855-.188.211-.364.633-.746 1.063.394 5.191 3.062 5.515 7.191 4.535l.953-1.071c1.438-3.98 2.57-7.023 4.57-10.75 1.547-4.168 4.411-13.054 6.625-16.429 2.899-9.422 5.586-16.106 7.996-25.621.832-6.832 1.754-13.649 2.582-20.454 1.797-9.351 2.786-7.675 4.567.055.25 3.293.762 5.863 1.73 9.082.528 6.91.844 13.84.965 20.75 2.895 2.602 3.942 3.278 5.555-.601.715-3.453 1.195-6.563 2.562-9.852 3.094-18.031 6.098-35.055 8.352-53.48-.133-1.762.051-5.84.891-7.301-.204-2.692-.411-5.387-.426-8.297.148-4.941.691-5.117 2.976-1.762.493 1.02 1.207 2.242 1.926 3.469.25 3.258.278 4.852 1.445 8.055 2.04 9.215 1.657 16.695.297 25.55 1.157 15.122 6.7 4.598 6.653-2.507 0-6.559 1.062-13.207 1.593-19.793 1.25-4.942 2.016-10.336 2.547-15.461.446-2.301.875-4.809 1.512-7.324 2.582-6.215 5.453-8.356 5.109 1.695.52 6.797 1.172 13.824 1.172 20.738-.183 1.074-.082 2.344-.797 3.141.344 4.531 1.723 9.172 5.825 2.922-.317-4.157-.356-6.348 2.386-9.43.27-1.578.379-2.805 1.797-3.59l4.871-9.516c3.657-2.976 1.907-1.191 2.992 1.145-.781 2.828-1.468 8.176-3.359 10.293-.586 3.422-2.215 5.312-2.644 8.816-1.215 2.922-1.868 8.621-3.743 10.723-2.004 4.82-4.664 11.016-7.757 15.223-2.981 3.343-4.539 8.464-6.289 12.679-2.602 1.922-2.04 2.653-2.708 5.285-3.386 4.817-5.601 7.946-9.886 11.762-.731 1.27-1.449 2.75-2.371 4.235-3.879 4.347-7.153 8.488-11.91 12.453.46 6.031 4.335 4.781 7.992 1.39 3.015-3.382 4.765-7.367 7.691-10.648 4.055-3.109 12.055-7.887 14.617-12.336 3.192-2.637 4.434-1.621 3.598 3.617 0 0-.203.004-.395.219-1.414 4.441-3.007 7.332-5.351 11.398.09 1.176-.172 1.317-.875 2.106-.301 1.465-.793 3.14-1.289 4.82-3.18 5.52-7.676 10.629-11.895 15.36-4.633 9.562-14.976 19.507-20.781 26.675-1.383.875-2.769 1.754-4.137 2.84-3.847 4.313-8.984 6.309-13.136 10-4.25 1.902-5.332 2.199-8.008 6.504-1.207.453-2.625.918-4.043 1.379-2.539 4.406.328 7.105 4.597 5.871.586-.434 1.176-.867 1.958-1.519 1.953-2.192 4.324-3.723 6.382-6.032 2.887-1.086 16.875-8.433 17.848-10.781 3.547-1.973 3.738-.375 4.551 2.547-2.309 3.281-4.946 5.996-7.61 8.98-4.336 3-6.601 2.868-8.55 7.559-.969.863-2.133 1.941-3.297 3.019-1.407.934-2.824 1.641-3.485 3.231-6.871 6.453-14.511 11.336-22.722 14.894-2.371 1.532-4.727 3.274-7.293 5.024-5.082.168-17.617 7.426-23.137 9.504-2.555 2.656-7.809 3.367-10.078 3.871-1.203 2.898-.461 4.254 2.465 5.109 6.879-.23 25.207-9.652 30.633-11.836 4.445-.148 5.105 1.477 2.417 4.489l-2.386 1.324c-.75 1.301-1.516 2.062-2.91 2.59-.188.211-.383.425-.571.64-4.91 2.067-9.601 4.742-13.691 8.149-13.328 5.965-22.262 11.328-36.113 16.175-1.43.254-3.071.516-4.711.778l-1.336 1.5c-2.004.898-4.012 1.797-6.207 2.906-7.508 1.953-15.817 4.043-23.485 4.945-3.07.516-6.144 1.036-9.199 1.762-5.195.696-10.023 1.18-15.219 1.758-2.656.504-5.523 1.016-8.375 1.734-6.797.641-13.597 1.285-20.379 2.137-2.894.098-5.792.191-8.898.297zm1.832-11.285c-14.039-3.469-26.211-6.586-39.992-12.786a61 61 0 0 0-2.738-.531c-2.512-2.258-6.106-3.746-9.121-5.305-1.848-2.183-6.336-5.074-8.801-6.558-.047-.621-.11-1.449-.379-2.27.394-.218 1-.445 1.605-.675 6.637-.219 9.285.988 14.422 4.086.906 1.55 2.207 2.449 3.785 3.402 3.114-.102 4.575-3.356 3.075-5.922-2.133-.758-4.266-1.516-6.606-2.27-.668-.597-1.336-1.199-2.211-1.793-.203.004-.617.02-1.051-.171-1.304-.786-2.625-1.782-3.945-2.774-1.051-.172-2.309-.336-3.566-.504-.668-.597-1.543-1.191-2.434-1.992-1.066-.379-2.34-.75-3.629-1.332-.875-.594-1.75-1.187-2.64-1.988-.411.011-1.032.031-1.672-.149-1.719-1.543-2.399-2.519-3.852-4.234-1.484-1.336-2.574-1.957-4.359-2.762-1.813-2.015-3.852-4.234-5.887-6.449-3.059-2.75-5.676-5.965-8.945-8.426-.203.004-.41.012-.844-.176-6.254-6.515-12.168-12.738-19.227-18.054-.668-.598-1.336-1.199-2.019-2.008-3.008-4.055-6.223-8.102-9.438-12.148q-1.002-.898-2.004-1.801c-2.636-3.821-4.214-4.664-.062-6.231.832-.027 3.461.754 4.633.883 2.968 1.789 4.679 4.231 6.953 6.828 1.351 1.406 2.91 2.809 4.473 4.211.683.805 1.382 1.82 2.289 2.828 1.5 1.348 8.859 7.891 10.41 8.586 3.926-.129 4.066-.551 2.976-4.465-2.918-3.839-6.757-6.359-9.918-10.261-2.41-.856-4.574-1.782-6.683-3.309-2.766-2.961-5.231-5.09-6.875-8.496-.649-.391-1.305-.785-1.957-1.18-2.114-1.898-6.043-7.218-7.879-8.047l-1.477-3.066c-1.367-1.613-2.734-3.23-4.328-5.047-.047-.621-.094-1.242-.348-1.855-1.914-1.723-2.402-2.797-3.5-5.075-2.097-3.046-4.199-6.093-6.316-9.347-1.832-2.035-3.21-4.235-5.234-6.059-1.305-2.426-2.797-5.406-4.692-7.113-1.19-3.621-3.695-6.305-4.918-10.016l-2.097-3.047c-.262-3.421 1.433-3.004 3.836-1.375 7.113 7.606 8.398 10.223 13.066 18.887.223.199.461.606.906 1.008.223 2.91 3.188 5.426 5.41 2.934-.265-3.508-.023-5.622-2.113-8.657-1.144-1.414-2.516-3.031-3.883-4.648q-.76-1.841-1.527-3.688c-1.106-2.289-6.094-9.531-7.91-11.16-3.047-7.363-6.602-10.656-8.988-19.855-.239-.407-.477-.813-.938-1.422-.855-3.086-1.714-6.176-2.796-9.465-1.32-7.016-3.485-14.09-5.758-21.004-.309-4.066-2.301-8.641-3.258-12.773-1.012-2.45-1.305-3.887-1.129-6.61 4.41-.144 4.574 1.246 6.207 5.192.54 1.644 1.094 3.496 1.652 5.347 1.153 1.516 2.52 2.317 3.407 3.832a280 280 0 0 0 3.882 4.649c2.75 4.695 5.04-1.43 4.188-4.918a12 12 0 0 0-.938-1.422c-1.98-6.219-4.035-12.262-5.773-18.508-.492-6.426-.984-12.851-1.27-19.281-.03-.414.141-.836.301-1.465l-.87-11.398c.245-1.438.148-2.461 1.417-3.164 1.472 1.324 1.582 1.925 2.77 3.644.284 1.027.792 2.258 1.3 3.488.988 5.258 2.824 9.465 3.832 14.832 1.445 3.493 2.375 6.653 2.656 10.301 1.078 3.285 2.176 6.781 3.481 10.274a3724 3724 0 0 1 7.094 33.011c.332 1.649.875 3.293 1.43 5.145.57 7.457 3.144 14.449 4.355 21.672 1.543 5.14 2.687 10.539 4.914 15.418.222.199.445.398.875.593 1.265 2.161 1.281 3.286 3.39.922 1.286-3.101.469-5.316-1.253-8.269-1.282-5.828-2.836-11.309-4.008-17.113-1.149-3.493-2.23-4.778-2.496-8.227-.3-1.234-.825-2.672-1.352-4.109-.73-9.582-.457-19.504.895-28.914 1.453-1.633 2.054-1.79 4.105-.551.801 4.523 2.477 8.804 3.91 13.168.094 1.242.203 2.691.524 4.136 1.089 2.641 1.98 4.836 2.656 7.598.238.406.492 1.02.953 1.629 1.336 4.805 3.309 9.34 5.219 13.953.062.828.14 1.863.426 2.895 3.16 6.55 5.636 13.558 7.175 20.539 1.332 2.277 1.7 4.918 2.641 7.39.379 2.27.777 4.754 1.176 7.231 1.074 4.398 3.004 7.551 4.054 12.332.493 1.019.985 2.043 1.684 3.058 1.562 7.735 4.371 16.387 7.031 24.075l.446.398c1.285 3.281 2.593 6.77 4.105 10.25 1.504 1.981 2.117 3.617 3.34 5.703 4.129 3.711 3.926 1.114 4.57-2.644q-.427-1.544-.859-3.086c-2.574-3.391-4.465-6.563-5.965-10.188-.238-.406-.477-.812-.922-1.215-.523-1.433-1.051-2.871-1.59-4.515-.902-3.707-1.812-7.418-2.941-11.328-.27-3.524-.555-7.254-.633-10.993-.309-4.023 3.523-1.207 4.965-.164 1.101 2.668 2.211 4.856 3.676 7.356 1.711 1.535 1.992 3.355 2.703 5.519 2.277 4.985 3.66 6.786 5.09 12.297.476.813.953 1.629 1.636 2.438 2.168 5.242 4.582 9.637 6.332 14.957.715 1.222 1.446 2.652 2.387 4.074l.902 3.707c.969 1.836 2.149 3.668 3.325 5.5 1.261 4.199 2.984 7.77 4.23 11.91.234.406.477.813.938 1.422 2.172 5.246 2.597 6.777 7.05 10.777.7 1.016 1.414 2.239 2.34 3.454 4.074 3.664 3.707-.34 3.453-3.649-.953-1.629-1.921-3.465-3.101-5.297l-6.207-7.894c-.285-1.028-.571-2.059-.875-3.293-.254-.614-.508-1.227-.969-1.836-.047-.617-.094-1.242-.363-2.063-.731-1.429-1.477-3.066-2.434-4.695-.156-2.07-.332-4.352-.301-6.637q.189-1.565.383-3.129c.824-.027 1.653-.054 2.496.121.907 1.008 1.813 2.016 2.942 3.223 2.726 4.133 5.433 9.078 8.449 12.809.016.203.031.41.269.82 2.204 3.766 5.442 7.402 7.098 11.398 3.027 3.989 6.016 9.27 9.676 12.559.969 1.836 1.941 3.676 3.117 5.504 2.332 3.07 2.227 8.562 4.328 10.449 1.278 2.184 2.547 2.746 4.852 3.785.57 2.055 1.351 4.11 2.144 6.368 4.223 3.796 5.293 1.757 6.653-2.508-.493-1.02-.985-2.043-1.684-3.059-.223-.199-.652-.39-1.082-.586-.715-1.219-1.43-2.441-2.352-3.66-.746-1.637-1.511-3.48-2.273-5.324-3.203-2.879-4.582-4-5.84-8.531a3 3 0 0 0-.875-.594c-1.363-3.738-3.855-9.235 2.578-6.942.219.2.442.399.684.805.652.391 1.305.785 2.164 1.172 2.406 2.164 4.422 3.793 7.641 4.937.222.2.445.399.683.805 1.703 1.531 4.051 2.758 5.922 4.164.445.399.906 1.008 1.367 1.614.156 2.082 1.508 1.945 3.309 2.589 1.082.586 2.164 1.172 3.262 1.965.785 2.395 1.722 3.34 4.042 4.02 2.383 2.14 4.661 4.695 7.512 5.98.668.598 1.336 1.199 2.02 2.008 3.039 1.766 6.301 3.734 9.566 5.703 5.281 4.75.481 5.567-3.949 8.027-5.141 3.286-10.27 6.786-15.602 10.289-.41.012-1.015.239-1.621.469-.968.86-1.941 1.727-2.914 2.59-3.672 2.441-5.051 2.719-8.851 3.621zm116.547 12.5c-3.379-.989-5.25-1.278-8.801-1.157-4.418-.937-8.89-2.273-13.277-2.668-2.961-.73-5.922-1.461-8.899-2.402-1.308-1.176-2.078-.887-1.254-2.863 3.868-.961 7.739-1.922 11.59-3.09.809-.235 1.606-.676 2.403-1.117l4.757-.156c2.102.343 4.204.687 6.321 1.238 4.168.273 8.547.543 12.926.812.648.391 1.304.785 2.179 1.379a870 870 0 0 0 5.172 5.227c2.266 2.066 1.695 3.5 0 5.402-4.43.145-8.629-.402-13.117-.598zm114.133-330.528c-5.387-1.144-7.715-1.566-9.852-6.734-2.226-8.008-4.156-5.297-9.199-.938-5.633 3.129-5.891 3.668-13.344 4.602-5.355-2.41-4.984-4.867-4.945-10.43-.266-3.48-1.598-3.578-4.375-5.672-8.293-3.429-8.676-2.211-9.277-10.078 1.199-4.738 2.246-8.613 2.484-13.59-.18-2.359-4.926-8.632-6.414-10.589-.379-4.977-.625-7.512-4.359-10.868-7.954.996-11.02 2.493-11.418 10.774.496 6.488 3.589 13.613 5.679 19.965.309 4.043 1.262 9.05 1 13.058-.718 8.09-5.172 8.684-12.547 6.864-3.351-3.012-5.226-2.317-9.504-2.172-1.863.605-4.394.757-5.187 2.668-3.414 1.898-4.434 4.375-9.106 3.007-.906-1.007-2.019-2.007-3.132-3.011-.301-3.969-.957-3.528 1.082-7.516-.11-1.465.629-5.019.718-6.879-.668-.597-1.542-1.191-2.433-1.996-3.496-1.57-3.774-3.23-4.043-6.719.461-1.82.359-2.269 1.351-3.992 5.622-2.367 10.77-3.812 16.829-5.137 2.359-1.312 3.097-2.57 4.839-4.523.606-2.93 1.211-5.859 1.801-8.996 1.789-4.309 4.453-6.606.461-10.195-1.863.062-3.258-.59-5.187-.032-2.356 4.09-7.598 5.981-12.118 7.055-1 .445-2.003.898-2.992 1.555-7.847 1.488-13.984 5.051-22.082 6.972-10.57 6.274-33.883 11.563-45.601 8.805-.43-.191-.856-.387-1.512-.777-3.758-.34-8.625-1.254-6.703 4.59-.445 5-.875 10.211-1.305 15.421.188 2.485.379 4.973.363 7.469-.378.426-.968.863-1.543 1.504-.824.027-1.652.055-2.671.297-8.079-4.871-14.036-5.352-23.149-4.207-1.43.254-3.07.516-4.695.988-5.086.168-3.668-2.523-2.594-6.769 0 0 .203-.004.395-.219.968-7.945 1.214-13.231 1.035-21.645-3.492-5.964-9.656-5.699-15.774-5.496-12.25.41-26.195 2.25-38.226 4.817-5.492 1.039-8.082 1.875-13.785 1.5-2.571-2.313-3.528-2.145-6.27-.617-3.078 3.453-4.195 4.628-4.648 9.714.238 3.133.922 3.719 3.914 5.063.152 2.004 3.925 2.578 2.527 5.941-.379.426-.762.856-1.352 1.289l-2.242 3.192c-.308 1.219-.476 1.859-.382 3.129 1.117 1.91 2.332 3.379 2.496 5.527-1.657 3.988-5.313 4.75-9.172 4.879-1.707-2.246-1.094-3.094-3.645-4.238-.617.019-1.238.039-2.051.273l-.761 6.258c-5.141 5.762-11.95 8.07-17.754 1.219-.223-2.938.375-3.102 1.019-5.645-.25-3.258-1.363-4.535-4.328-2.348-1.445.047-2.894.094-4.535.36-1.492-1.969-2.57-2.582-1.207-4.945.984-.653 1.957-1.52 2.93-2.383 1.894-4.559-1.524-6.606-5.125-4.606-4.243.141-3.086-4.226-.633-5.586 3.355-5.113 6.808-9.527 10.062-14.883.524-1.261 1.051-2.527 1.766-4.007-.566-7.442-8.16-9.078-13.609-7.024-3.473 3.891-5.266 5.883-7.676 10.856.328 4.312-1.004 5.851-3.68 8.851-1.687 4.879-2.945 8.117-.031 13.09.82 10.719-.125 19.52-13.805 12.102-4.176-6.328-4.004-7.43-6.972-1.633q-.404 2.819-.813 5.637c-6.012 4.441-4.125 6.273-13.105 7.71-.442-.398-.907-1.007-1.575-1.609-.379-2.269-.76-4.543-1.367-7.019-.015-.204-.234-.407-.46-.606l-2.48.082c-1.27.938-6.337 5.18-6.782 6.254-.395.219-.984.656-1.574 1.09-8.219.273-6.875.723-9.469-7.16l-.187-2.485c.171-.421.331-1.05.492-1.679.586-.434 1.16-1.075 1.734-1.719.895-2.156.547-3.75-1.238-5.359-1.688-.356-3.375-.715-5.078-1.282-7.711-2.281-6.09-4.25-3.676-10.058 1.59-.883 3.183-1.77 4.758-2.86q1.742-1.612 3.484-3.23c-.016-.203-.031-.414.14-.836 1.22-.039-.245-3.465-.523-4.137-6.066-2.726-6.203-4.594-2.656-10.301 2.004-.894 4.012-1.796 6.223-2.699.746-1.062 1.687-2.34 2.625-3.617 1.488-3.582-.262-3.875-1.73-6.383-1.329-1.195-1.724-3.363.077-4.363 2.067-.066 4.137-.137 6.192-.414 2.86.836 3.742 1.535 6.75 1.433.187-.21.585-.433.984-.656l1.336-6.902c2.8-1.34 5.586-2.887 8.375-4.438 2.625-.918 5.254-1.836 7.878-2.757 4.973-.84 9.633-1.223 13.805-3.997 1.559-3.214 6.313-9.902-.281-11.835-2.516-.329-5.027-.661-7.547-.993-1.652.055-3.309.11-5.156.379-2.05.274-4.313.559-6.559 1.051-3 1.664-4.883 2.777-8.262.484-1.984-4.8-3.316-5.035-8.179-3.879-6.156.204-8.547.133-11.031-5.863 1.563-2.515 5.055-5.297 2.086-7.965-8.52-.484-14.305-4.8-8.512-13.636-.015-.203-.047-.621.125-1.043 1.25-2.582 5.438-8.86 1.035-10.84-9.683.324-11.02-2.699-7.496-11.176 3.582-2.383 6.582-4.465 2.801-9.445-9.926 1.101-9.66-15.16-3.164-11.532 5.98 1.75 6.27 1.977 7.102-4.808-.016-.207-.235-.406-.477-.813-6.969-3.132-5.406-5.175-2.45-10.304.954-1.071 1.91-2.141 3.071-3.219 5.703-3.168 6.957-4.215 13.977-1.715 2.824 2.535 3.75 2.77 6.222 0 3.156-7.594 11.293-9.242 14.312-.062.141 1.863.286 3.73.442 5.8.355 4.676.605 11.02 5.984 4.993 7.22-4.012 9.258.488 8.832 6.972-1.472 4.633-1.918 8.395 2.942 11.328.636.184 1.273.371 1.925.766 8.051-5.949 9.825-1.199 8.563 6.152.324 4.266.82 8.184 1.57 12.414-.476 1.887-1.726 2.496.11 4.153.203-.004.429.19.855.383 1.098 1.293 1.922 2.023 2.754 3.437 9.016 5.438 6.719 3.941 12.273-2.281.094-1.457.172-3.121.461-4.793-.754-9.891-3.101-13.938-6.761-23.254l-.235-3.106c.953-1.07 2.102-2.355 3.246-3.64.356-2.078.563-3.68-.027-5.817-.031-.414-.27-.82-.523-1.433-3.043-2.735-2.77-3.692-3.086-7.793 1.605-3.863 10.679-.547 13.531.582 1.57-.051 2.008.074 2.594-1.332.3-1.465.589-3.137.875-4.81.824-.026 1.652-.053 2.464-.288l3.118 2.801c3.91-.13 3.734-1.051 4.839-4.523-.32-4.2 1.383-7 3.946-2.625.238.406.476.812.937 1.421.317 1.442.633 2.887.969 4.54 3.606 4.75 7.617 2.894 12.066.421 5.993-.2 11.411-2.175 10.758 7.743-.156.628-.523 1.26-.875 2.105-2.25 2.523-4.14 3.473-2.992 6.957 1.731.777 3.031 1.156 4.902 1.703.043.571.543 1.703.618 2.68-.762.855-1.528 1.711-2.274 2.777.195 2.574.36 2.254 2.16 3.875 1.243-.04 2.5.121 3.965.281 3.699 1.665 2.559 2.754.887 6.204-.969.863-2.149 1.734-3.309 2.808.078 1.035.157 2.07.047 3.32.777 2.05 1.559 4.102 2.543 6.149 1.223 2.086 2.34 4.066 3.977 5.891.093 1.242.203 2.691.523 4.136-1.695 1.903-2.129 3.09-2.898 5.5l-.762.856c-11.074.371-10.098-1.789-16.273 6.988.171 2.266-.293 3 .601 5.172 5.094 4.578 5.715 6.305 13.738 3.277 3.305-3.703 10.141-6.976 14.903-8.601l2.687-.09c1.719.773 3.453 1.754 5.395 2.726 6.765-.226 13.992-8.582 17.179-3.277.34 4.438.231 3.863-3.007 6.75-.481 1.91-1.754 2.859.14 4.566 2.875.84 2.821 1.622 3.024 4.262-.969.863-2.149 1.735-3.325 2.602.168 2.242-.804 3.34 1.368 4.316 3.152-.105 3.922.223 5.808 2.711.274 3.598-.027 3.457-3.105 5.508-1.016.238-2.035.48-3.246.937.078 1.036.156 2.071.441 3.102.961.863 1.977 1.586 2.879 2.395 3.984-.133 3.215 3.527 2.512 5.73-5.817 4.301-4.606.629-9.028-1.356-2.054-3.511-3.73-5.007-5.461-.855.11 1.449.012 2.906-.078 4.363-.906 1.575-3.925 4.285-5.476 1.637l-.856-3.086c-2.277-2.047-1.902-3.43-4.265 1.18.172 2.277.14 4.566.109 6.851-1.59 3.106-2.676 5.801-6.75 3.965-1.352-1.406-2.719-3.023-4.297-4.633-.617.02-1.445.047-2.293-.129-1.367 1.086-2.722 2.375-4.281 3.676-1.652.055-2.106.176-3.578-.711-1-2.25-2.004-4.504-3.008-6.754-1.148-1.511-1.336-1.5-2.863-2.187-6.614.219-7.508 1.266-8.106 7.961.235 3.109.473 6.219.918 9.32 1.59 1.817 3.199 3.84 4.805 5.863 4.766-.156 8.648.301 13.402-1.07 5.969-.613 11.926-1.437 17.879-2.262 3.504-.828 6.996-1.074 10.156-2.832 4.481-.601 9.379-2.183 12.434-5.609 6.934-3.316 7.703-6.383 12.578-11.852 1.082-2.113 2.371-4.234 3.645-6.562.601-2.93 1.418-5.863 2.211-9.008.062-4.57.113-9.351.16-14.137.648-13.543.898-29.976-1.246-43.39-.524-1.434-1.063-3.078-1.606-4.723-.281-3.711-1.551-8.308-2.972-11.742-3.75-4.938-4.954-9.234-7.161-14.93-.476-.812-.953-1.63-1.445-2.652-.285-3.75-2.723-6.035 2.914-5.293 4.602 2.07 8.914 5.047 13.242 7.656.715-.023 6.602 5.313 8.164 6.375 2.719 4.645 11.176 11.633 15.996 13.801 2.727 2.453 5.629 4.34 7.813 7.219.047.621.301 1.234.57 2.058.157 2.071.125 4.36.094 6.645-.359 2.097-.293 5.867-1.066 7.723-.079 1.664-.141 3.535-.207 5.406.757 9.937-.567 19.652-.848 29.535-.172.418-.332 1.047-.699 1.683.461 6.008.933 12.227 1.203 18.454 1.832 7.054 4.469 11.246 6.73 17.437 7 11.281 27.696 9.723 42.063 7.313 7.84-2.954 19.031-6.254 24.566-12.461 1.215-3.817 2.535-5.133 4.969-8.27a73 73 0 0 1 1.812-3.383c-.597-7.855-2.292-10.257-7.593-4.316-2.309 4.008-1.653 2.695-6.367 3.535-2.606-4.445-4.313-6.387-9.106-2.394-3.449 3.867-5.574 3.007-9.328 5.507-2.242.489-4.695.989-7.133 1.692-5.379.179-6.91-4.223-6.492-8.926 1.019-2.945 2.605-5.094.828-8.133-.078-1.035-.156-2.07-.027-3.113 3.531-2.609 3.008-4.059 2.66-8.609-.113-1.5 1.773-1.473 2.465-.29 3.804-.125 4.023-.972 4.633-4.519 3.132-1.18 4.792-1.547 6.957-3.973.601-.226 1.191-.66 1.988-1.101 2.703.113 5.426.437 8.355.758 2.309.335 4.618.675 6.942 1.218 2.656-.504 5.3-1.215 8.152-1.933 6.293-5.594 6.887-10.528 1.164-17.285a97 97 0 0 0-4.027-1.11c-4.031.133-9.922-.621-13.66.457-1.493 1.676-4.039.996-5.633-.433-1.492-2.551-1.524-3.321-4.25-1.309-.539 1.055-1.082 2.113-1.828 3.176-.969.863-2.133 1.941-3.297 3.019-2.867.094-3.27-2.441-2.242-4.91-.243-3.211-1.668-4.238-4.52-2.133-4.035.133-3.238.621-4.551-2.547.969-.863 2.149-1.734 3.309-2.812l-.234-3.106c-1.083-.585-2.165-1.171-3.262-1.968-.168-2.231.781-2.336 2.769-1.754 1.239-.039 2.481-.082 3.914-.34.332-1.047.86-2.312 1.383-3.578-1.207-2.242-2.64-4.692-4.074-7.137-.344-4.508-.551-3.394 3.82-4.281 2.328.379 6.317 1.242 8.039-.684.446-1.761.653-2.304.508-4.172-1.445-2.996-2.918-4.781-2.496-8.226.192-.211.383-.426.555-.848 3.199-.105 5.469 2.059 8.562 3.449 2.887-.093 3.223-2.019 4.012-4.496q.046-3.426.098-6.859c.66-1.598.91-1.695 2.05-2.977 3.692 1.313 4.575 1.657 5.809 5.414 3.57 3.21 4.426 4.36 7.449-.25.637-2.515 1.258-5.234 1.879-7.96 2.395-3.407 3.379-4.258 7.035-5.637 2.688-.09 3.672 5.59 4.106 7.551 3.281 4.324 5.41 2.808 9.359.308 1.836-2.062 3.973-2.222 5.649.641 1.113 5.066 2.05 9.668 2.796 14.867.45 5.867 1.317 11.805 1.778 17.813.574 2.359 1.32 6.578 2.527 8.64 3.832 3.445 8.863 3.078 10.203-2.211 1.282-2.23 2.055-4.504 3.231-6.551 1.242-10.195 3.297-19.078 5.273-28.648 3.754-4.211 6.168-.91 8.692 2.406 4.644-.152 4.91 4.137 12.05-2.48.332-1.047.668-2.098 1-3.149 3.657-7.144 5.629-9.086 8.914-.09 3.59 4.727 8.641 5.551 11.829.016 2.953-1.113 6.918-3.93 8.867-6.113 4.301-1.242 7.824-1.828 6.765 4.344 1.887 5.742 3.918 4.23 9.852 4.031 6.312-.211 13.262-.238 9.758 8.19-2.156 5.197-6.5 4.322-2.184 9.423 1.926.766 3.852 1.53 5.985 2.293 4.156 2.508 3.515 4.578 1.269 8.477-2.242 1.246-9.039 4.359-9.648 6.765 2.562 5.313 5.699 5.293 10.984 7.942 4.859 6.402-3.227 6.85-7.723 4.828-1.75-1.188-3.707-2.367-5.683-3.758-9.043.301-4.867 7.395-.145 11.641.254.613.715 1.222 1.192 2.035q-.213 1.254-.43 2.508c-1.211 2.918-2.703 5.335-6.289 4.574l-.668-.598c-.969-3.484-2.621-6.168-4.234-1.101-.141.836-.286 1.671-.411 2.714-3.906 4.379-6.437 3.743-8.804-1.156-1.035-.93-.977-.797-2.34-.75-1.16 1.074-2.531 2.16-3.899 3.246-3.304.11-2.984.391-4.121-2.355.348-.84.7-1.684 1.258-2.535-.187-2.457.645-2.313-1.957-3.883-13.699.461-21.387 3.945-28.976 14.48-3.02 5.239-.891 9.532 1.746 14.696 12.449 6.425 12.636 5.168 27.078 4.074 1-.449 2.004-.899 2.992-1.555 10.453-2.48 12.582-3.086 24.726-2.281 3.168.723 6.352 1.656 9.536 2.586 2.976 3.922 3.363 6.316 4.789 11.058.222 2.926-.172 8.633-2.754 10.067-2.375 2.664-.293 7.453 2.195 9.691 4.875 2.641 5.418 3.024 5.84 8.531-1.813.684-3.82 1.582-5.824 2.481-2.836 3.18.511 8.934 2.176 12.187.285 3.75 2.668 6.153 2.082 10.942-1.879 4.523-3.922 8.098-4.379 13.238-.539 1.055-1.067 2.32-1.59 3.586-.828 4.016-1.395 8.211-2.391 12.133-3.422 3.84-6.328 3.199-11.047 2.031-.461-.605-.922-1.215-1.605-2.023-1.402-1.262-2.863-1.746-4.36-2.762-4.664.152-4.265.129-6.718 4.379.32 4.207-2.453 4.652-5.653 4.762zm-311.446-18.422c-.031-.414-.062-.828.094-1.457.699-.785.602-1.75.203-2.707-.898-1.539-1.601-2.023-.265-3.519.156-.629.3-1.465.445-2.301-.453-5.969-.984-12.152-2.414-17.996-1.773-3.676-2.07-3.289-1.59-7.219-.273-3.605-.953-7.031-1.238-10.762.32-2.632.223-3.148 2.562-4.449.379-.426.762-.855 1.129-1.492-.351-4.613-2.894-2.449-7.258-2.664-3.468.703-5.5 1.223-9.234 1.348-3.238.574-5.695 1.488-8.738 2.371-5.348.179-10.106 1.468-14.856 3.82-2.632 1.461-6.968 3.309-8.918 5.492-2.578 1.434-3.707 2.133-5.683 4.344-.364.633-.73 1.269-1.082 2.113-1.688 2.34-3.582 4.692-5.477 7.039-1.48 2.336-3.152 4.883-4.824 7.434-.809 4.723-3.984 2.226-3.184-.93.938-1.277 2.086-2.562 3.231-3.847 1.344-5.313 1.965-6.336 5.875-9.965 1.91-2.141 3.804-4.489 5.7-6.84 4.362-2.422 7.714-5.399 12.116-7.055 1.59-.883 3.168-1.976 4.949-3.074 6.094-2.297 12.129-2.797 18.579-3.945 3.207-.106 7.64-1.09 11.097-1.411 1.387-1.554 1.094-1.91-.285-3.73-1.957-1.758-2.969-2.668-4.535-5.043q-.593-3.72-1.191-7.441c-.586-2.266-1.192-4.739-2.004-7.203a97 97 0 0 1-1.543-3.895c-3.434-5.203-8.528-11.043-14.325-13.648-2.16-1.942-3.878-2.883-4.789-5.657-1.336-1.199-2.879-2.394-4.441-3.797-2.164-1.171-4.344-2.554-6.524-3.937-4.804-2.16-10.726-6.281-13.097-11.195q-1.002-.898-2.004-1.801c-1.766-2.848-11.32-21.758-12.316-22.653-.29-3.804.136-6.109 4.503-3.476.157 2.07.524 4.137.903 6.41 1.824 9.027 5.77 14.277 13.765 19.902.24.407.684.805 1.145 1.414 7.227 3.918 12.215 11.333 19.066 15.985 1.141 1.949 6.137 4.742 8.403 6.781 4.738 2.133 6.097 4.676 9.406 9.035.953 4.348 3.008 7.168 4.996 11.051 1.785 1.606 1.504 8.191 1.859 10.742 1.793 4.918 1.614 4.262 5.52 7.086.223.199.461.606.699 1.012 2.981 1.34 5.625.613 2.528-2.16-.286-1.028-.778-2.051-1.27-3.071-.328-4.304-.551-8.347.496-12.484-.062-.828-.141-1.863-.223-2.898.465-3.219.567-9.411 2.629-11.723.274-2.25.047-5.453 1.528-7.117.304-2.578 1.91-5.824 2.929-10.489.555-1.339 1.168-3.785 2.118-4.847.453-5.086.671-9.965 2.613-14.633.09-3.934-.422-6.953 2.34-10.051-.102-1.359.738-4.156-.395-5.179.711-6.454 4.594-3.403 3.277 2.175q-.211 1.254-.429 2.508c.172 2.277.156 4.774.14 7.266-.539 1.054-1.082 2.113-1.828 3.176-.109 1.25-.203 2.707-.301 4.164-2.07 2.324-4.691 15.152-5.812 18.898-1.145 2.758-1.562 5.836-2.883 8.406-.207 2.707-.414 5.418-.812 8.34-.469 3.863-.696 8.211-1.782 11.903-.015 2.492-.015 5.195-.015 7.894-.395.219-.793.441-1.399.668.125 1.656.254 3.312.586 4.965 1.09-.035 2.285.336 3.547.293 1.414 2.418 3.516 4.39 4.188.48 2.195-1.828 4.215-2.027 5.922-3.937.539-1.055 1.066-2.321 1.796-3.59 7.989-5.879 18.586-6.848 25.524-8.129 3.191-.105 7.242.188 10.062-1.375 5.309-1.074 6.93-2.172 11.59-5.793.703-1.695 1.008-1.23 2.356-1.738-.219 4.633-.481 4.711-2.485 8.187-3.519.117-5.109 3.27-7.929 4.836-4.2.141-9.391-.183-13.137 1.895-8.891.297-11.691 1.371-20.043 3.789-3.055.101-4.066 1.492-6.383 3.328a131 131 0 0 1-2.387 4.027q-2.888 2.9-5.777 5.805c-.57.641-1.129 1.492-1.687 2.34.078 1.035.171 2.277.476 3.515.836.985 4.156 4.79 5.442 3.348 2.531-.082 3.628 1.91 5.679 3.758.274 3.566-2.828 1.758-6.289 1.871-2.027-2.172-4.308-4.453-6.508-6.43-2.136.071-2.867-.383-4.265 1.18-.094 1.457-.172 3.121-.254 4.785.476 3.516.949 7.031 1.445 10.758.277 3.66 2.301 10.059 3.149 14.023.078 1.063.996 4.504.394 5.18.047.621.094 1.242.363 2.063 1.309-.043 2.422 5.839-1.511 7.324.91 1.558 1.816 2.66-.129 3.742-.403.273-.992.824-1.621.469zm.969-59.992c-.476-.812-.476-1.328-.969-2.351-.027-.411-.386-.817-.316-1.442 2.906-.097 2.981 1.809 2.594 4.067-1.117.035.094.988-1.305-.27zm318.274 36.59c-.891-.801-1.782-1.602-2.879-2.394-3.957-6-7.614-8.915-13.817-12.418-.222-.2-.461-.606-.699-1.012-1.074-.543-2.363-1.477-4.183-3.184-1.575-1.605-3.149-3.219-4.743-5.035-1.968-1.187-13.492-8.266-14.168-8.875-2.367-.254-5.507-.125-7.402-1.828-4.41-1.18-8.41-3.137-12.574-4.356-4.996-2.035-6.903-3.324-12.32-3.738-1.821.059-3.208.106-4.68 1.196-.578 4.761-.535 3.503-4.84 4.523-1.852.062-4.969-.629-4.375-2.969 1.531-1.719 1.262-1.906 1.543-4.207 1.707-1.91 1.062-2.144-.348-4.558-1.953-1.754-3.644-3.856-5.617-5.629-3.984-1.418-7.332-5.27-10.969-7.735-1.859-.836-3.562-1.265-5.523-1.683-2.5-.121-5-.246-7.703-.364-2.981.098-6.528 1.297-9.391 1.977l-5.586.187c-.015-.203-.238-.406-.461-.605.586-.434 1.176-.867 1.957-1.52 1-.449 2.211-.902 3.407-1.566 3.871-4.34 17.058-2.637 22.351-.75.223.199.652.391 1.098.793 3.129.914 6.449 2.227 9.422 3.84.222.199.461.605.699 1.012 5.644 3.828 5.418 4.117 7.48 10.968 3.43-.113 1.102-1.007 2.688-2.789q.211-1.254.43-2.508c-2.036-1.828-.747-4.355-.938-6.824.125-1.043.254-2.086.586-3.136-.02-3.989.434-7.852.129-11.848-.777-2.051-1.559-4.102-2.336-6.152-.481-6.321-4.949-13.922-8.91-18.817-.653-.39-1.321-.992-1.989-1.594-3.015-5.148-7.855-6.898-11.476-11.668-.875-.593-1.957-1.179-3.039-1.765-.039-.543-.297-1.692.047-2.078 2.363.691 4.609 1.269 6.828 2.468 3.019.64 4.723 2.825 7.574 4.11 2.508 2.254 3.606 3.652 4.453 6.707 1.387 2.371 2.262 4.148 3.215 6.75.922 1.215 1.859 2.637 2.801 4.058 1.062 3.231 2.055 6.321 3.226 9.657.247 3.238 1.875 6.703 2.829 9.879.125 1.656.046 3.32-.032 4.988-.254 2.086-.508 4.172-.953 6.472a759 759 0 0 0-.109 6.653c1.168 1.051.16 1.203 1.683.355.684-1.89 1.559-4 2.438-6.105 1.047-2.047 2.152-3.684 2.863-5.914 1.176-2.196 3.012-4.328 3.629-6.77 3.07-3.441 4.926-12.246 8.059-13.984a811 811 0 0 1 4.871-6.813c2.437-1.351 2.972-3.437 5.015-4.945 5.262-5.922 18.317-13.762 22.641-15.93 2.641-.992 7.742-3.054 9.379-4.886 6.746-1.203 15.004-2.258 21.445-4.461 1.844-.27 3.692-.539 5.746-.817 2.957-.097 2.879 1.5 1.285 3.282-2.054.628-8.136 1.921-9.296 3.218-4.946.164-11.832 1.84-17.465 2.246-3.172.918-4.625 1.868-7.387 3.778-.617.019-1.238.039-2.051.273-4.418 4.039-14.676 8.672-19.301 13.531-2.484 2.786-5.5 5.043-8.105 7.961-1.336 1.5-2.672 2.996-4.219 4.504-.73 1.27-1.445 2.75-2.371 4.235-1.43 3.437-3.457 6.199-5.508 9.328-1.976 4.758-4.476 8.215-5.812 13.492-1.617 2.809-2.567 5.617-4.332 8.457-1.047 2.52-3.328 4.262-2.035 5.887 2.254-1.25 1.453.547 3.945.074 6.355 1.18 12.5 3.75 18.148 6.66 1.465.156 3.133.309 4.805.461 3.816 2.301 8.828 3.004 13.149 3.715.726.652 1.757 1.015 2.21 1.793 3.801 1.109 6.125 2.848 10.043 3.816.668.598 1.543 1.192 2.434 1.992 3 .875 2.742.719 4.426 3.59.945.852 1.523 1.711 2.672 2.403.906 1.007 1.812 2.015 2.941 3.222.652.391 1.305.785 1.973 1.387.136 1.797 1.261 2.566 2.734 3.23a550 550 0 0 0 4.996 5.649c.059.793 4.055 4.824 4.535 5.043 1.153 2.785 1.637 3.433-.906 4.394zm-15.457-17.562c-1.321-.993-2.86-1.934-4.403-3.129-.961-1.266-.715-1.477-2.008-2.059-1.027-1.004-1.851-2.016-2.925-3.016-.891-.937-.719-1.539.554-.847 2.278.664 2.375 1.547 3.77 3.195.445.398 1.113 1 1.781 1.602.926-.028 1.121.472 1.543 1.191.652.391 1.305.785 2.18 1.379.027.383.566 2.633-.492 1.676" style="stroke:none;fill-rule:evenodd;fill:#3ba66d"/></svg>