<svg xmlns="http://www.w3.org/2000/svg" viewBox="-29.36 -32.93 808.71 898.35"><title>Herb Pabianice</title><path d="M1.688 27.844c-.485.103-.906.46-1.094.906v.063L2 548.843c10.109 182.39 174.173 310.813 373.844 310.813 206.18 0 373.562-154.62 373.562-345.343l-.656-486.47H1.719c-.016.004-.016-.003-.032 0M62.844 96.03c.026-.006.036.005.062 0h.032c.066-.006.152 0 .218 0H687.47l.562 406.719c0 159.457-139.931 288.719-312.312 288.719-166.939 0-304.111-107.354-312.563-259.844L61.97 96.844v-.063c.152-.36.487-.654.875-.75" style="fill:#fbdc84;fill-opacity:1;stroke:none;stroke-opacity:1" transform="translate(0 -27.5)"/><path d="M62.913 96.027a1.28 1.28 0 0 0-.94.758c-.009.019.006.033 0 .052l1.175 434.781c8.452 152.49 145.62 259.86 312.559 259.86 172.38 0 312.323-129.273 312.323-288.73l-.549-406.72H63.148c-.076 0-.163-.014-.235 0" style="fill:#7192d5;fill-opacity:1;stroke:none;stroke-opacity:1" transform="translate(0 -27.5)"/><path d="M87.845 94.515a12.03 2.938 0 1 1-24.06 0 12.03 2.938 0 1 1 24.06 0" style="fill:#fbdc84;fill-opacity:1;stroke:none;stroke-width:1;stroke-miterlimit:4;stroke-dasharray:none;stroke-opacity:1" transform="matrix(5.99836 0 0 6.92343 -235.241 -327.587)"/><path d="M-235.914 100.392c-2.05-2.085-8.404-.68-6.921 5.243.314 1.255 5.14-1.104 6.574 1.75 1.112 2.214.424 6.862-5.094 7.313-5.51.45-9.33-2.866-6.662-5.75 7.492 2.731 1.325-16.376-2.34-3.875.486-4.41-3.261-3.678-6.484-5.313 1.548 3.907 5.587 13.176 9.683 27.5 2.297-1.326 8.708-3.393 14.866-3.393s12.062 2.067 14.36 3.393c4.096-14.324 8.135-23.593 9.683-27.5-3.213 1.63-6.943.919-6.485 5.282.005.048.014.048 0 0-3.665-12.43-9.824 6.635-2.34 3.906 2.668 2.884-1.151 6.2-6.662 5.75-5.518-.451-6.176-5.1-5.063-7.313 1.5-2.984 6.429-.58 6.544-1.75.603-6.158-4.004-8.346-7.055-5.243.194-4.595-.683-5.828-2.762-5.855-2.085-.027-4.027 1.484-3.842 5.855" style="fill:#fbdc84;fill-opacity:1;fill-rule:evenodd;stroke:none;stroke-width:.93006021;stroke-linecap:butt;stroke-linejoin:miter;stroke-miterlimit:4;stroke-dasharray:none;stroke-opacity:1" transform="translate(1513.245 -394.056)scale(5.56476)"/><path d="M87.845 94.515a12.03 2.938 0 1 1-24.06 0 12.03 2.938 0 1 1 24.06 0" style="fill:#fbdc84;fill-opacity:1;stroke:none;stroke-width:1;stroke-miterlimit:4;stroke-dasharray:none;stroke-opacity:1" transform="matrix(5.99836 0 0 6.92343 76.385 -327.587)"/><path d="M-179.914 100.392c-2.05-2.085-8.404-.68-6.921 5.243.314 1.255 5.14-1.104 6.574 1.75 1.112 2.214.424 6.862-5.094 7.313-5.51.45-9.33-2.866-6.662-5.75 7.492 2.731 1.325-16.376-2.34-3.875.486-4.41-3.261-3.678-6.484-5.313 1.548 3.907 5.587 13.176 9.683 27.5 2.297-1.326 8.708-3.393 14.866-3.393s12.062 2.067 14.36 3.393c4.096-14.324 8.135-23.593 9.683-27.5-3.213 1.63-6.943.919-6.485 5.282.005.048.014.048 0 0-3.665-12.43-9.824 6.635-2.34 3.906 2.668 2.884-1.151 6.2-6.662 5.75-5.518-.451-6.176-5.1-5.063-7.313 1.5-2.984 6.429-.58 6.544-1.75.603-6.158-4.004-8.346-7.055-5.243.194-4.595-.683-5.828-2.762-5.855-2.085-.027-4.027 1.484-3.842 5.855" style="fill:#fbdc84;fill-opacity:1;fill-rule:evenodd;stroke:none;stroke-width:.93006021;stroke-linecap:butt;stroke-linejoin:miter;stroke-miterlimit:4;stroke-dasharray:none;stroke-opacity:1" transform="translate(1513.245 -394.056)scale(5.56476)"/><path d="M87.845 94.515a12.03 2.938 0 1 1-24.06 0 12.03 2.938 0 1 1 24.06 0" style="fill:#fbdc84;fill-opacity:1;stroke:none;stroke-width:1;stroke-miterlimit:4;stroke-dasharray:none;stroke-opacity:1" transform="matrix(5.99836 0 0 6.92343 -79.428 -38.22)"/><path d="M-207.914 152.392c-2.05-2.085-8.404-.68-6.921 5.243.314 1.255 5.14-1.104 6.574 1.75 1.112 2.214.424 6.862-5.094 7.313-5.51.45-9.33-2.866-6.662-5.75 7.492 2.731 1.325-16.376-2.34-3.875.486-4.41-3.261-3.678-6.484-5.313 1.548 3.907 5.587 13.176 9.683 27.5 2.297-1.326 8.708-3.393 14.866-3.393s12.062 2.067 14.36 3.393c4.096-14.324 8.135-23.593 9.683-27.5-3.213 1.63-6.943.919-6.485 5.282.005.048.014.048 0 0-3.665-12.43-9.824 6.635-2.34 3.906 2.668 2.884-1.151 6.2-6.662 5.75-5.518-.451-6.176-5.1-5.063-7.313 1.5-2.984 6.429-.58 6.544-1.75.603-6.158-4.004-8.346-7.055-5.243.194-4.595-.683-5.828-2.762-5.855-2.085-.027-4.027 1.484-3.842 5.855" style="fill:#fbdc84;fill-opacity:1;fill-rule:evenodd;stroke:none;stroke-width:.93006021;stroke-linecap:butt;stroke-linejoin:miter;stroke-miterlimit:4;stroke-dasharray:none;stroke-opacity:1" transform="translate(1513.245 -394.056)scale(5.56476)"/></svg>