<svg><title>Herb Kleszczele</title><path d="M0 0h553.887v449.949c-1.828 95.528-50.094 121.825-162.879 152.891-57.316 15.801-93.805 51.656-114.89 109.492-18.454-52.805-56.879-91.934-115.715-109.656C64.836 568.129 7.422 562.695.003 449.949V0" style="stroke:none;fill-rule:evenodd;fill:#222"/><path d="M543.344 451.555c-1.242 86.89-49.48 112.73-157.223 141.062-54.492 16.981-88.851 42.106-109.968 94.66-20.321-49.406-57.145-77.324-111.871-94.816-92.122-32.242-146.88-39.457-153.41-140.906h78.234c2.512 9.347 2.676 18.125-.5 26.019-3.61 4.567-3.953 7.098 1.55 11.668 8.157 8.207 12.926 15.934 13.43 24.992 7.758 4.676 15.832 11.262 23.27 14.028q2.07-3.825 2.867-11.477c3.504-.105 7.328 3.293 11.477 3.504 7.648-.211 8.5-3.824 2.546-10.84-18.765-21.801-25.746-40.785-24.921-57.898h39.39c.93 9.863.395 18.812 1.153 28.57q-.16 15.457 8.605 29.649c5.949 10.836 10.945 6.691 15.937 3.824q8.127-3.504 11.157 1.91c4.355 4.461 17-.953 12.113-7.648-10.25-21.516-15.98-40.247-17.367-56.305h183.625c2.773 24.097 5.301 47.617-5.258 61.726-4.625 4.196-5.793 8.657.637 13.707q9.403 6.692 8.605 18.489c-1.75 8.425 10.328 14.179 17.156 4.531 4.793 4.98 9.961 6.641 15.493 4.98l-.274-30.988c3.992-26.543.809-48.472.813-72.449h50.109c.309 3.816.91 7.348-1.949 14.344 3.781 3.781 9.223.367 13.832.828-.551 13.004 2.949 16.418 10.512 10.234l16.324 29.051c-.645 3.227 1.75 5.348 4.703 6.363 6.547.645 12.355-2.394 17.43-9.129 1.843-3.871-.184-5.531-2.766-6.64l-21.027-42.332q.364-1.39.793-2.723h44.742" style="stroke:none;fill-rule:evenodd;fill:#3ba66d"/><path d="M10.527 10.582h532.837v433.18h-41.496c1.839-3.442 4.082-6.481 6.726-9.125 10.465-13.258 15.539-28.613 12.727-47.035-3.457-14.735-14.801-22.895-31.539-26.563-8.668.274-15.125-6.453-19.368-20.195-7.652-32.832-7.562-24.164-11.343-36.246-7.653-23.239 3.504-42.055-.551-73.875 7.652 1.472 16.691 17.89 32.926 26.008q13.833 7.189 17.707-9.961c7.765 2.519 19.218-13.965 11.617-28.223q-6.638-5.532-8.852-15.492c2.051-12.418-1.425-21.887-10.441-28.403-3.231-6.898-1.484-15.457-9.699-20.699-1.457-7.906-5.985-11.433-12.614-11.965-2.273-17.644-9.8-25.609-21.668-25.55-16.796-17.918-40.785-13.704-40.429 5.171-5.535 2.188-9.703 6.086-12.289 11.965-16.16-16.367-25.961-9.769-36.871-20.05-8.293-7.141-25.164-7.368-13.258 6.789 5.304 8.628.101 17.257 8.726 32.8l-31.043-4.664-7.574-14.183c2.66-14.77-4.082-23.086-18.297-23.008l-1.336-2.219 12.981-7.805c1.488-1.769 1.32-3.265.32-6.144l-7.437-13.906c-2.68-3.641-5.36-3.137-9.7-.969l-4.203 1.937-5.172-9.699c-1.601-2.414-4.312-3.168-6.468-2.262l-13.258 6.325c-4.227 2.957-5.692 5.086-3.555 8.871l7.805 12.699-6.836 5.41c-2.719 1.902-3.227 4.18-1.52 6.82l6.696 12.258c2.476 1.258 4.957 2.52 7.437 1.293l10.531-7.992 1.567 3.231c-4.051 9.851.242 21.921 11.504 23.195l1.617 4.203-79.887-13.258c-9.301 2.93-17.722 8.488-25.551 15.848.45 5.027 6.438 6.187 11.317 6.789l-10.996 16.492c-6.254-15.871-4.395-35.062-22.637-38.488-17.031-4.981-34.066-8.231-51.102-10.996-41.27-28.692-78.867 9.644-81.828 54.984 3.813 5.828 17.031 5.574 25.55 10.023q9.627 1.841 12.614-5.171c9.14-21.094 15.516-29.188 17.465-10.996l.645 84.093c-14.86 7.938-24.395 21.918-34.829 45.813-9.3 21.043-19.257 45.547-36.308 51.922-6.64.367-7.192 7.097 0 10.234 12.355 6.824 28.683 6.918 42.055.551.644 5.992-5.348 13.094-8.024 19.644-20.742 12.84 8.394 16.184 24.348 16.879q-5.806 7.882-12.727 13.555c-5.715 2.211-6.453 7.746 1.156 13.023 3.14 5.547 5.813 10.996 7.864 16.301H10.555V10.566zm146.645 433.184h-37.418c3.739-19.754 17.703-37.063 35.156-53.535 1.219-5.735 5.364-9.137 10.84-11.477-1.058 11.98-4.886 23.617-12.75 34.75-9.984.527-12.75 4.035-8.285 10.52 6.375 3.718 7.649 9.988 11.473 14.98a90 90 0 0 1 .984 4.762m215.395 0H189.496c.055-16.629 5.293-30.067 15.473-40.465 10.836 2.125 17.852 1.699 21.039-1.274 11.129 8.075 20.961 10.305 31.242 4.782 18.86 12.168 27.36 15.781 38.891 5.734q13.864 7.33 34.109-1.91c8.711-.211 17.106 1.805 26.141-.637 4.781 2.973 9.562 2.762 14.344 4.141-.231 9.367.691 19.465 1.82 29.629zm90.191 0h-49.351c5.718-9.512 11.734-15.43 12.925-24.129 2.102-15.332-1.445-31.633 3.246-41.598l1.477 2.531 2.824.11 31.266 59.488-2.395 3.59zm8.207-47.313c12.172-2.488 21.211 10.606 13.004 23.516zm-127.976-229.57 33.355 4.527c-2.785 2.293-4.555 5.606-5.863 9.379-5.602 1.297-11.578 6.055-15.707 13.996l-11.781-27.902zM183.95 245.199l-.414 6.422c42.945 16.82 85.406 23.945 126.14-3.555 8.168-10.738 16.641-20.582 25.551-29.109-.152-3.953.617-7.683 3.418-10.902l-8.313-15.242-33.265 36.496c-13.606 13.058-27.375 26.023-41.723 36.129-22.687-1.118-46.297-9.153-71.383-20.235zm39.043-89.961q3.14-1.985 6.281-5.078l8.824 1.567c-5.82 7.211-11.5 10.32-15.105 3.507zm26.843-2.59 11.594 2.493c-1.512 5.492-4.453 8.355-9.652 7.207-6.2-4.157-4.625-7.024-1.938-9.7zm24.258 3.418 11.274 1.575c-1.79 2.566-4.684 6.242-10.625 5.215q-5.854-3.395-.645-6.79zm24.027 3.747 13.762 2.402c-.129 3.027-6.066 6.613-12.562 5.492-3.352-1.984-3.75-5.172-1.2-7.898" style="stroke:none;fill-rule:evenodd;fill:#ec2a32"/><path d="M44.512 360.074c29.453-23.179 33.43-71.609 55.313-86.758.531 7.801-3.75 13.77-.457 21.344-10.75 6.981-15.032 17.196-9.868 32.133-12.773 7.879-10.863 12.773-15.605 27.77q-16.525 9.638-29.375 5.507zM145.05 240.301c2.543-46.699.785-86.098-9.062-106.711 3.824-2.672 30.75 1.601 47.3 8.953q10.747 20.693 9.852 41.387l-45.328 40.601c.16 3.727 4.203 5.516 6.305 8.278v8.672c-3.02.898-6.043-.465-9.063-1.18zm-70.953-61.098c19.453-37.375 37.215-30.765 38.234 2.363 1.664 24.043 2.575 48.09.786 72.137 5.191-4.344 12.488-8.34 22.859-11.824 1.59-27.066 1.293-54.133-3.152-81.199-3.055-40.059-28.563-48.242-49.11-34.996-13.168 8.488-23.653 27.976-26.176 48.398.664 3.973 14.918 7.617 16.555 5.125zm203.23-71.187 4.204 7.113 9.793-7.621 4.574 4.062 4.851-3.414-1.89-4.433 8.871-6.379-3.555-9.379-11.64 4.711c-5.243-2.496-5.512-10.528-7.438-12.473-2.816.571-6.738 1.695-6.789 4.203.836 5.203 6.098 9.856 9.148 14.782-2.726 4.507-6.558 5.699-10.117 8.824zm32.332 13.058c3.004.668 4.993 4.532 4.426 8.602-.562 4.066-3.476 6.844-6.48 6.176s-4.992-4.532-4.426-8.602c.563-4.066 3.477-6.844 6.48-6.176m10.04 17.114c-2.586 1.308-5.172 2.613-7.762 2.816l2.449 6.422 9.098.875zm2.957 26.152 13.484 1.848c-2.25 3.949-5.883 5.691-10.07 6.597-4.09-2.078-4.95-6.094-3.411-8.449zm11.597 24.859 5.403-11.918 8.589 18.203-5.539 8.082zm-122.582 38.094c-1.929 1.18-3.211 3.981 1.969 3.547 7.75-.414 15.504 2.726 23.254 7.488 2.808-7.226 6.426-14.449 11.824-21.68 1.164-1.878 5.563-2.14 8.348-.785 5.824 4.957 11.976 5.168 17.808 3.223q6.598-5.497 9.317-12.289c-6.176-2.625-20.114 3.477-18.524-7.883 5.403-3.863 9.082-8.598 11.035-14.187l-13.793-4.336-11.824 18.133c-2.218 2.382-5.531 5.195-10.246 1.968-6.304-4.203-12.933-7.113-18.918-12.613l-14.187 17.344c9.801 5.457 18.312-5.254 19.707 4.73-3.528 7.934-8.785 13.719-15.766 17.344zm-12.613-.789c-4.813 4 .609 11.238 11.43 11.035 10.476.676 20.414 3.777 29.168 12.219 6.929-3.434 9.984-17.867 14.976-26.805q7.377 5.034 17.344 7.488c6.601 1.875 6.734-5.3 10.105-7.953l12.754-12.937c1.989-3.477 1.395-8.246-2.758-9.457l-12.148-1.395 8.203-11.218c3.668-5.2.219-9.11-3.547-8.813-9.066-.605-18.133-3.211-27.195-8.133l-13.797 22.071c-1.644 2.191-3.937.828-5.91-1.18-6.723-4.227-13.77-16.219-21.145-12.684l-19.847 26.875c-2.379 5.344-.012 8.106 7.094 8.278 2.624.129 5.253-2 7.882.394l-12.613 12.219zm-38.168.394c20.102-21.679 47.32-37.859 60.633-65.039 3.656 4.586 10.875 3.247 19.707-.785q6.986 14.006 25.621 4.727c6.555 5.508 14.894 5.086 24.043 1.969 6.465 10.531 15.308 9.796 25.226 3.941.805 4.121 6.411 6.414 13.258 8.813-22.508 31.441-50.515 53.183-75.933 77.511-16.629-3.008-34.879-9.25-51.512-14.844-14.219-4.781-34.91-9.89-41.047-16.293zm191.59-7.589c1.289 3.941 4.515 2.078 4.515-1.719 2.727-14.832 6.411-23.727 10.879-27.02 3.055-2.25 5.188-.359 10.207.551.391-9.324 3.043-17.43 12.051-22.164q4.84-1.612 5.379-7.531c1.934-11.547-10.328-16.641-15.492-24.961-3.442-4.016-6.668-.285-3.227 3.441 4.301 5.09 8.821 9.11 12.91 15.278 3.012 6.093 1.719 8.175-3.871 6.238-15.679-5.16-19.98-20.941-19.796-37.227 17.164 1.332 32.46 5.043 34.644 25.391 2.148 4.445 4.59 4.301 7.316-.43 1.118-15.367 5.618-21.715 12.051-20.226 2.731 7.949 9.387 13.636 23.024 15.277q.965 16.782 20.875 17.215c2.054 9.18 12.476 10.48 31.203 15.492 6.097 6.274 8.25 13.734 8.605 21.734q-1.072 4.625 1.289 9.254c2.867 8.965 12.625 14.704 8.606 26.899-1.934 5.594-4.735 7.457-8.391 5.594-2.078-1.934-4.156-2.582-6.238-3.871-4.375.714-5.309 2.722-2.797 4.085 8.316 3.942 6.238 12.696-3.012 8.176-11.117-7.387-15.781-15.207-23.672-22.808-22.906-3.563-31.617-1.809-42.824-28.621-1.933-2.508-7.531-2.868-5.808 2.796 5.168 17.188 14.843 26.567 28.621 28.836 2.328 12.371 4.242 21.692.886 24.207-4.156 3.114-5.691-1.074-9.492-11.941-1.004 5.809-.574 11.617 3.012 17.43 1.504 2.578 3.586 5.164 6.238 7.746v29.265c-.429 1.075-2.148 1.504-3.226 0l-7.317-12.48c-3.656-.43-4.949.859.645 10.973 7.386 6.308 13.054 14.918 17 25.82 4.086 10.043 6.168 20.082 6.238 30.129 7.027 5.234 8.895 11.332 21.09 15.707 12.105 2.773 22.684 7.687 29.051 18.508 3.652 13.39-2.223 31.941-12.981 48.082-6.82 10.234-12.656 21.058-19.222 30.769-4.653-4.508-7.731-9.808-10.094-15.465 11.371-16.074 27.926-25.394 21.851-43.238-2.464-7.242-11.336-14.504-27.007-14.75l-13.532-23.41c5.512-11.578 2.934-32.09-9.879-45.531-2.503-2.434-5.222-.356-3.003 1.718 17.566 28.036 6.218 47.219-7.516 48.754l2.789-16.75c.355-8.015-4.652-9.16-5.367-3.433l-3.864 18.039c-12.453 21.117-.21 43.527-13.527 61.426-9.199 11.308-16.43 22.621-19.328 33.933-.43 1.789 1.285 2.719 2.574 1.504q3.327-7.945 7.516-12.457c2.793 23.125-.856 44.746-1.285 66.582-5.442-.285-9.879.141-14.606 7.731l-8.59-12.454c8.489-16.418 10.243-31.257 7.067-45.714-2.821-12.852-3.199-23.344.66-48.571 0-2.359-1.715-3.219-2.574-.64-1.43 2.289-2.004 5.222-4.293 6.871-.571-9.379 2.504-20.047.644-25.559-3.004-12.527-6.011-23.555-3.004-38.23.856-3.219-.429-4.938-1.929-3.219-3.434 2.934-5.797 14.031-8.375 10.094-5.082-9.235-5.153-19.473-1.071-31.571.856-3.218-1.714-4.722-2.574-2.574-3.723 3.899-9.16 12.707-11.168 7.945-1.488-8.031-.222-19.05-4.465-24.101-1.144-1.68-3.441-.84-3.441 1.144 1.68 8.645-6.961 21.649 10.555 30.754 3.898 3.289 3.211 12.086 4.816 18.129q3.212 6.195 10.098 6.883c.722 7.57 1.949 15.145 3.898 22.723q1.606 7.457-6.883 5.734c-8.644-2.523-14.992-7.801-22.492-11.703-3.441-.84-4.816 1.301-2.754 2.98 5.352 6.653 4.895 9.028-1.375 7.114-8.336-.051-16.676-5.367-25.015-12.16-2.368-1.684-3.825-.61-2.981 3.898 1.988 3.672 5.66 6.5 10.098 8.949-8.864 9.383-21.488 1.02-34.656-9.867-2.829-2.602-5.661-2.445-3.672 2.523 2.218 3.747 7.648 5.661 6.656 11.247-16.066 7.57-27.082-10.098-37.871-15.836-8.949-6.883-12.852-2.754-7.571 2.062 12.395 7.496 5.661 13.539-5.046 7.113-7.344-4.32-13.848-9.906-19.969-16.066-5.199-4.512-7.649-.762-4.59 2.293 6.926 7.879 8.301 12.316-2.523 9.18-15.129-2.465-26.258-8.93-34.657-18.129-3.515 2.367-7.726-.305-7.113-7.344 5.172-10.781 11.035-19.996 16.211-30.168 3.852-7.574 5.945-16.379 10.637-23.996 1.679-3.977-4.207-5.66-6.426-3.442-14.52 25.387-19.875 47.454-38.348 61.876-19.66 15.347-44.55 20.882-83.527 15.929 9.277-8.851 16.28-19.445 15.144-36.262-1.25-17.8 6.594-23.152 16.985-25.015-11.016-12.852-5.813-31.367 8.719-30.067-.84-6.5-9.485-13.464-2.524-19.507 7.82-35.786 45.426-39.192 78.723-19.969 17.957 4.605 29.066 7.527 42.695 10.965 13.039 3.285 26.293.074 38.324.281 12.239-1.797 24.481-5.086 36.723-10.555l2.754 4.59c1.07 1.301 2.828 2.371 3.898-.226 6.5-12.336 8.489-21.172 20.657-32.36l-.688 16.293c0 9.18 5.277 9.406 5.508 1.375 1.68-23.258 5.66-38.558 14-45.902l2.012 13.703zm-7.293 56.531c2.219-15.301-5.891-10.633-7.113-6.656-.688 4.281 2.753 10.402 4.128 15.605-.304 5.735 3.977 8.488 5.965 3.442 1.301-4.59-1.758-8.95-2.98-12.391m13.082-24.563c.074-10.171-12.699-3.824-9.406 4.59 1.91 7.953 10.711 15.453 16.062 23.18 1.758 4.59 1.223 8.488-1.144 12.391-2.141 4.054 2.597 6.269 6.652 2.523 5.582-5.047 5.66-11.016.226-17.902-9.41-13.309-14.687-10.325-12.394-24.785zm9.41-9.867c-1.758-5.429 6.578-9.254 7.801-1.144-.84 8.488.992 13.617 10.324 23.179 8.566 10.938 18.512 24.176 18.129 35.805-.688 4.664-7.57 5.891-8.949 3.672 3.058-19.356-5.813-24.941-13.539-34.656-7.457-8.375-12.43-17.25-13.77-26.852zm21.574-22.492c.84-14.687-5.199-15.148-7.113-4.129-.152 13.082 18.742 26.852 22.949 40.625.188 6.078-.191 11.973-1.836 17.442-1.301 3.976 4.282 7.726 7.344 1.605 5.742-12.527 2.137-23.43-6.195-33.508-5.739-6.652-11.934-12.851-15.149-22.031zm12.938-32.105c.715-8.606-9.324-8.606-8.391 3.441 2.797 10.398 7.746 20.371 11.621 30.559.446 6.058-3.386 8.722.805 9.808 7.316 1.899 7.301-6.316 6.293-12.605-4.731-15.996-14.633-16.282-10.328-31.203m52.078-17.215q-5.378.321-2.149 4.949 4.084 5.163 3.012 11.187c.184 21.25 15.445 28.532 39.164 27.973q3.224-4.947.43-13.34c-2.723-3.515-2.652-7.242-5.594-8.605-10.613-16.141-19.078-13.77-22.164-20.656-4.23-1.649-8.465-2.149-12.695-1.504zm14.422 21.734c2.508 2.578 4.515 5.953 8.176 7.961l-6.024 5.594c-8.105-4.301-2.867-10.328-2.148-13.555zm-3.66-12.48c8.785 2.113 15.601 6.203 18.074 14.632-6.938-3.656-12.856-8.679-18.074-14.632m-24.965-62.411c-2.867 1.36-11.977 1.649-11.836 7.317 2.722 21.16 17.5 8.32 26.254 12.48.449 8.926-3.313 10.793-1 13.227 5.988 6.305 10.707 2.152 19.722 2.91-.714 9.055 1.864 12.895 6.887 9.25-3.141-3.543 5.383-11.363-12.266-12.051-3.082-7.027-1.433-22.883-9.468-21.519-14.559.5-5.45-5.449-18.293-11.617zM124.493 498.387c-1.133 5.945-5.583 9.945-10.352 12.261.199-10.277-10.5-18.417-17.438-25.066 6.063-7.719 8.469-17.98 6.536-28.609-4.856-12.762-10.852-24.387-17.164-35.692l11.44-10.898-3.538 9.808c-.36 6.176 6.902 9.079 10.351 2.997l5.45-14.711c-1.633-2.907-6.266-4.723-4.903-8.719q14.714-1.085 29.426-5.445c-14.254 20.453-22.289 34.757-23.566 52.718-1.196 16.867 2.203 28.633 13.758 51.364zm50.679-112.262c6.035 5.266 12.758 10.078 20.981 13.895-7.446 12.757-13.985 23.156-15.532 37.734q-2.316 21.863 6.266 49.727c-5.449 1.089-10.898-1.633-16.348-2.45-7.296-25.023-.769-48.437-12.804-65.121 1.359-2.722 3.449-3.996 6.265-3.812 1.407-11.535 5.403-21.344 11.172-29.969zm225.102 72.809c1-1.215 2.219-.5 1.504 1.929l-2.793 5.582c-1.285 1.504-2.789.641-2.575-1.285z" style="stroke:none;fill-rule:evenodd;fill:#fffdfd"/></svg>