<svg
   xmlns="http://www.w3.org/2000/svg"
   id="svg2"><title>Herb Cedynia</title>
  <metadata
     id="metadata23">
    <rdf:RDF>
      <cc:Work
         rdf:about="">
        <dc:format>image/svg+xml</dc:format>
        <dc:type
           rdf:resource="http://purl.org/dc/dcmitype/StillImage" />
      </cc:Work>
    </rdf:RDF>
  </metadata>
  <sodipodi:namedview
     guidetolerance="10.0"
     gridtolerance="10.0"
     objecttolerance="10.0"
     borderopacity="1.0"
     bordercolor="#666666"
     pagecolor="#ffffff"
     id="base" />
  <defs
     id="defs4">
    <marker
       id="ArrowEnd"
       viewBox="0 0 10 10"
       refX="0"
       refY="5"
       markerUnits="strokeWidth"
       markerWidth="4"
       markerHeight="3"
       orient="auto">
      <path
         d="M 0 0 L 10 5 L 0 10 z"
         id="path7" />
    </marker>
    <marker
       id="ArrowStart"
       viewBox="0 0 10 10"
       refX="10"
       refY="5"
       markerUnits="strokeWidth"
       markerWidth="4"
       markerHeight="3"
       orient="auto">
      <path
         d="M 10 0 L 0 5 L 10 10 z"
         id="path10" />
    </marker>
  </defs>
  <g
     id="g12">
    <path
       style="stroke:none; fill-rule:evenodd; fill:#222222"
       d="M 0 0L 531.07 0L 531.07 374.437C 510.375 546.516 333.039 548.062 266 635.801C 191.238 539.723 29.3516 553.934 0.00389862 389.269L 0.00389862 0.00396729"
       id="path14" />
    <path
       style="stroke:none; fill-rule:evenodd; fill:#fff101"
       d="M 195.128 54.625C 209.286 41.394 214.977 60.934 225.227 65.496C 240.25 69.113 242.07 75.891 236.48 82.187C 231.719 85.519 216.938 71.8199 202.921 88.394C 216.07 87.125 228.789 88.652 241.941 90.277C 251.078 84.305 248.965 73.805 240.383 68.121C 229.992 64.726 225.383 58.113 225.414 49.508C 204.898 33.9529 193.214 39.93 195.137 54.6169L 195.128 54.625zM 169.309 401.859L 166.417 407.867C 168.566 409.129 168.941 408.832 170.199 413.656C 172.867 408.832 172.57 404.898 169.309 401.855L 169.309 401.859zM 82.9145 421.898C 86.9925 423.601 86.6255 426.871 88.7035 429.469C 84.9925 431.473 84.8435 435.699 82.9145 438.816C 77.2385 434.848 78.4995 428.836 82.9145 421.894L 82.9145 421.898zM 70.4455 387.16C 64.5117 389.461 62.4336 393.539 64.2148 399.402C 66.1445 397.25 69.2615 395.394 71.7815 395.621C 72.2265 392.801 71.7815 389.98 70.4455 387.16zM 89.8165 356.211C 84.3825 354.785 80.4885 358.379 78.0155 364.672C 81.6875 364.117 85.5465 363.746 89.8165 363.781C 91.1525 361.93 91.5935 359.184 89.8165 356.215"
       id="path16" />
    <path
       style="stroke:none; fill-rule:evenodd; fill:#fffdfd"
       d="M 11.1211,9.26599 L 262.602,9.26599 L 262.602,32.586 C 249.535,30.43 243.543,19.8589 227.922,30.285 C 221.988,28.449 215.309,28.7339 211.417,35.629 C 187.249,33.6479 186.872,47.519 192.247,61.402 L 194.855,64.437 L 197.195,61.832 C 200.406,52.687 211.012,52.664 212.727,63.18 C 194.126,68.976 181.641,64.547 186.008,52.4919 C 171.671,52.199 168.589,64.637 170.796,69.5229 C 178.253,86.027 192.152,76.199 205.29,78.5 C 202.376,85.4059 192.613,87.125 193.238,92.855 C 206.262,95.133 221.652,87.266 232.316,99.691 C 242.641,111.941 239.926,127.601 229.488,136.711 C 211.958,142.371 209.766,150.633 200.258,159.363 C 177.27,185.594 144.605,177.051 153.945,137.988 C 155.602,125.652 161.512,105.527 156.089,100.269 C 173.684,78.2729 166.704,55.894 134.699,53.434 C 117.363,52.105 99.4805,42.59 82.7495,31.09 C 68.6095,20.422 55.8477,25.844 63.1055,43.5779 C 67.043,50.7729 72.5545,57.34 79.6365,63.277 C 74.8085,62.2339 71.7265,61.59 68.4375,59.527 C 51.5703,48.9449 41.6719,64.519 51.5273,78.308 C 57.3867,85.207 64.5273,91.082 73.5355,95.465 C 68.6875,94.6559 63.8398,93.371 58.9922,90.9059 C 47.4336,87.766 44.0547,93.1169 49.8047,103.426 C 55.7266,110.047 62.1602,115.43 69.3435,120.164 C 46.832,113.844 37.043,129.055 53.3125,144.211 C 61.3281,147.769 74.2965,149.211 77.3595,154.894 L 51.7695,153.641 C 29.9102,162.453 48.4219,172.742 78.2305,183.449 C 66.4805,184.828 55.125,187.586 44.6367,193.375 C 35.1953,199.285 33.9336,204.566 40.8516,209.223 C 52.2305,213.754 65.0234,211.684 77.1095,212.914 C 67.3398,217.934 57.5664,222.012 47.7969,227.976 C 32.543,241.41 37.3437,250.758 58.6641,247.516 C 69.1645,245.973 84.8595,236.644 97.9575,232.269 L 63.1719,255.82 C 49.2422,268.652 52.3477,285.34 81.2185,279.449 C 93.5975,272.996 109.708,262.328 121.458,253.355 C 113.878,265.695 105.594,273.789 95.6525,281.648 C 80.5235,300.598 83.1405,312.668 113.883,294.715 C 125.18,285.879 136.165,275.785 146.833,264.434 C 139.516,278.375 130.82,290.859 119.094,301.656 C 104.891,316.551 109.727,336.012 134.074,322.031 C 149.324,312.875 157.73,304.664 169.204,287.48 C 168.329,292.719 166.469,297.957 162.445,303.199 C 158.973,317.328 168.098,321.816 183.109,305.816 C 190.906,291.133 200.829,267.476 206.499,261.758 C 205.367,268.402 204.234,273.394 200.266,279.57 C 201.527,284.558 208.926,276.101 213.258,278.973 C 195.999,292.656 198.801,303.035 179.18,315.305 L 181.562,318.758 C 169.18,328.531 158.688,336.891 146.54,339.582 C 147.79,344.848 160.137,340.676 163.749,345.473 C 158.598,353.883 149.023,362.211 138.812,369.992 C 125.786,375.043 116.848,370.656 111.999,356.836 C 108.227,350.465 102.562,349.914 95.0075,352.355 C 80.2035,345.941 72.5545,355.41 74.9495,369.582 L 84.6255,367.223 C 84.3905,380.203 89.5785,375.48 92.6485,379.73 C 87.0665,382.953 78.6485,371.312 73.0625,379.496 C 56.2891,386.043 54.832,395.207 63.8594,406.164 C 66.6094,403.492 66.5313,396.805 72.1175,398.141 C 74.1605,408.016 78.5665,411.789 88.1645,402.152 C 91.0745,404.273 95.5585,404.351 99.7265,403.332 C 96.1875,410.254 78.2495,406.555 78.4885,419.851 C 72.4335,432.851 75.5825,441.226 84.6255,446.047 C 86.4335,441.484 85.8825,435.269 89.8165,432.125 C 97.8395,436.766 103.977,434.797 108.223,426.226 C 114.906,426.773 119.708,423.238 122.617,415.609 C 128.988,416.394 134.73,414.039 139.844,408.531 L 149.753,409.945 C 153.137,418.359 158.406,418.598 165.566,410.652 L 169.579,418.676 C 177.68,411.988 178.23,404.988 171.227,397.672 C 168.945,385.008 154.391,392.641 151.167,389.648 L 176.656,366.047 L 179.249,373.832 L 204.027,353.535 L 204.969,355.894 L 213.464,347.637 L 226.207,336.312 L 227.621,341.973 L 233.52,334.187 C 234.422,340.539 237.57,346.633 242.25,352.359 C 236.59,364.945 238.477,378.004 225.262,390.121 C 232.184,398.93 238.16,391.691 244.613,392.48 C 241.309,405.539 244.145,424.027 221.249,437.32 C 211.258,440.773 206.872,438.25 206.32,431.641 C 210.43,422.601 216.667,428.43 220.777,432.836 C 229.738,411.422 210.926,402.508 196.234,407.113 C 191.359,404.914 191.671,400.82 189.391,397.676 C 183.141,400.504 179.441,406.406 179.48,416.789 C 172.758,417.887 166.227,420.562 160.128,426.699 C 160.915,430.234 163.589,433.148 168.152,435.43 C 154.781,432.637 141.801,433.582 129.684,442.742 C 116.145,449.375 106.473,447.16 97.3515,443.684 C 95.3085,453.437 101.363,459.414 113.165,463.508 C 106.891,496.902 123.527,512.32 153.758,518.023 C 170.988,519.277 173.27,526.516 162.96,532.418 C 173.027,543.508 183.73,542.641 195.059,529.824 C 206.07,536.59 203.867,545.715 208.273,553.66 C 224.445,533.562 226.648,514.051 198.128,495.84 C 192.704,478.687 181.219,473.652 166.977,474.129 C 168.156,488.918 162.102,494.582 148.805,491.121 C 136.417,481.426 145.148,464.156 160.839,463.512 C 190.749,460.461 214.546,473.406 247.691,457.848 C 250.207,481.406 243.289,486.008 238.961,487.23 C 235.098,488.316 225.352,484.871 227.398,470.832 C 209.695,473.66 208.512,489.894 211.473,500.176 C 213.773,508.172 221.301,513.855 237.309,508.59 C 234.426,534.754 249.57,534.379 262.598,579.336 L 262.598,616.957 C 188.691,530.578 38.7852,540.355 11.1172,384.863 L 11.1172,9.21497 L 11.1211,9.26599 z M 373.406,430.305 C 395.16,415.133 413.523,395.402 427.086,372.519 C 419.242,373.848 412.992,368.121 412.988,356.84 L 312.73,320.465 C 311.535,321.781 310.277,323.047 308.969,324.258 L 353.594,419.094 C 361.023,418.84 368.566,422.922 373.41,430.308 L 373.406,430.305 z M 449.5,313.344 C 451.629,302.156 452.762,290.621 452.762,278.828 C 452.762,263.516 450.875,248.625 447.328,234.379 C 442.508,240.219 433.785,240.09 425.828,232.516 L 328.348,278.808 C 328.38585,280.34948 328.33471,281.89027 328.266,283.43 L 424.352,318.473 C 430.07,312.398 439.742,310.105 449.5,313.344 z M 419.785,173.777 C 405.246,152.887 386.512,135.117 364.812,121.711 C 362.188,129.492 358.195,135.289 352.035,138.308 L 310.512,237.391 C 311.719,238.586 312.875,239.832 313.977,241.125 L 406.324,195.422 C 405.879,187.148 410.816,178.621 419.781,173.777 L 419.785,173.777 z M 269.73,9.26599 L 522.731,9.26599 L 522.731,375.644 C 494.375,539.23 335.805,538.211 269.73,619.848 L 269.73,502.344 C 392.152,501.523 491.75,401.437 491.75,278.824 C 491.75,156.215 392.156,56.129 269.73,55.308 L 269.73,9.26898 L 269.73,9.26599 z M 269.73,463.375 L 269.73,340.215 C 270.504,340.195 271.281,340.164 272.051,340.113 L 316.121,437.855 C 311.977,445.133 311.422,452.625 314.211,457.555 C 299.969,461.234 285.066,463.246 269.73,463.371 L 269.73,463.375 z M 269.73,305.426 L 269.73,254.742 C 283.008,255.531 293.602,266.613 293.602,280.086 C 293.602,293.555 283.012,304.637 269.73,305.426 z M 269.73,219.949 L 269.73,94.2809 C 283.766,94.394 297.438,96.098 310.574,99.207 C 308.93,107.598 310.137,115.601 314.199,122.152 L 274.156,220.223 C 272.695,220.078 271.219,219.988 269.73,219.949 z M 251.344,43.844 C 248.777,55.422 234.555,54.848 232.781,43.851 L 236.305,42.926 C 238.988,48.926 245.434,49.211 247.176,43.785 L 251.34,43.844"
       id="path18" />
    <path
       style="stroke:none; fill-rule:evenodd; fill:#ec2a32"
       d="M 269.73,247.699 C 286.879,248.496 300.629,262.734 300.629,280.078 C 300.629,297.418 286.883,311.656 269.73,312.457 L 269.73,333.93 C 298.699,333.121 322.086,309.238 322.086,280.078 C 322.086,250.918 298.699,227.035 269.73,226.226 L 269.73,247.695 L 269.73,247.699 z M 285.719,313.016 C 288.996,313.016 291.668,315.687 291.668,318.965 C 291.668,322.242 288.996,324.914 285.719,324.914 C 282.441,324.914 279.77,322.242 279.77,318.965 C 279.77,315.687 282.441,313.016 285.719,313.016 z M 306.547,290.91 C 309.824,290.91 312.496,293.582 312.496,296.859 C 312.496,300.137 309.824,302.808 306.547,302.808 C 303.27,302.808 300.598,300.137 300.598,296.859 C 300.598,293.582 303.27,290.91 306.547,290.91 z M 306.125,259.031 C 309.402,259.031 312.074,261.703 312.074,264.98 C 312.074,268.258 309.402,270.93 306.125,270.93 C 302.848,270.93 300.176,268.258 300.176,264.98 C 300.176,261.703 302.848,259.031 306.125,259.031 z M 285.719,236.074 C 288.996,236.074 291.668,238.746 291.668,242.023 C 291.668,245.301 288.996,247.973 285.719,247.973 C 282.441,247.973 279.77,245.301 279.77,242.023 C 279.77,238.746 282.441,236.074 285.719,236.074 z M 430.648,322.148 C 424.547,330.527 417.0255,348.70217 418.5845,358.28817 C 419.8965,363.46717 423.62517,366.48866 430.27717,367.17966 C 435.81617,355.71866 444.414,335.148 447.5,322.531 C 443.164,318.574 436.77,316.684 430.648,322.148 z M 327.2272,288.76797 C 324.91365,305.51848 321.93524,307.00828 317.30191,314.84443 L 342.56635,323.93728 C 345.21435,319.74928 351.395,317.23 358.824,318.168 L 401.859,334.34 C 406.895,337.777 409.383,342.891 410.719,348.766 L 414.594,349.891 C 415.117,342.348 418.719,333.496 423.832,326.523 L 421.656,325.34 C 417.613,326.926 417.398,331.488 409.52,330.098 L 363.688,312.434 C 355.812,308.898 352.051,304.17273 352.398,297.24673 L 327.2272,288.76797 z M 405.18,348.574 C 403.836,345.141 401.945,342.578 397.785,340.113 L 360.762,325 C 353.133,322.09 350.102,324.008 347.734,326.613 L 405.184,348.574 L 405.18,348.574 z M 358.539,298.93 C 357.969,301.769 360.32,304.238 362.996,306.078 L 407.094,322.965 C 412.039,324.758 416.133,324.301 419.371,321.605 L 358.535,298.93 L 358.539,298.93 z M 414.887,230.066 C 411.469,228.672 408.316,228.269 403.66,229.586 L 367.172,245.953 C 359.797,249.465 359.098,252.98 359.352,256.496 L 414.891,230.066 L 414.887,230.066 z M 316.416,245.28167 C 325.15085,257.74014 325.33537,263.89066 327.04216,271.65334 L 354.36955,258.85675 C 353.16655,254.05175 355.082,247.375 360.883,242.644 L 402.281,222.656 C 408.242,221.387 413.664,223.105 418.836,226.195 L 422.324,224.168 C 417.227,218.586 413.305,209.867 411.789,201.359 L 409.43,202.113 C 407.789,206.137 410.941,209.437 404.5,214.184 L 360.094,235.164 C 352.098,238.422 345.84218,237.66218 341.07218,232.63518 L 316.416,245.28167 z M 413.332,193.402 C 415.188,203.598 423.801,223.652 431.812,229.137 C 436.125,231.566 440.055,228.082 444.5,224.269 C 439.781,209.086 433.137,194.742 424.867,181.5 C 419.141,182.019 413.594,185.371 413.328,193.402 L 413.332,193.402 z M 346.77,229.57 C 348.426,231.941 351.844,231.941 355.023,231.273 L 397.672,211.012 C 402.383,208.668 404.879,205.394 405.16,201.184 L 346.77,229.57 z M 291.246,188.465 C 293.37086,189.32081 295.87238,187.91674 298.473,185.918 L 317.172,142.562 C 319.168,137.695 318.883,133.586 316.324,130.238 L 291.246,188.473 L 291.246,188.465 z M 278.96085,221.07239 C 287.6029,221.59815 298.08056,227.12097 304.8769,231.13839 L 316.23978,205.53827 C 312.16178,202.72227 309.129,197.98 310.371,190.598 L 328.316,148.273 C 331.961,143.383 337.172,141.109 343.098,140.019 L 344.383,136.195 C 336.871,135.363 328.172,131.394 321.418,125.996 L 320.145,128.121 C 321.559,132.226 326.113,132.629 324.395,140.445 L 304.844,185.504 C 300.98,193.226 295.598,196.769 288.691,196.129 L 278.96085,221.07239 z M 342.68,145.531 C 339.191,146.734 336.555,148.512 333.922,152.57 L 318.031,186.762 C 316.29645,193.37811 318.94315,195.03406 320.871,197.535 L 342.684,145.527 L 342.68,145.531 z M 320.152,119.18 C 328.27,125.621 337.719,131.117 347.359,129.953 C 352.613,128.851 354.281,122.766 355.625,116.387 C 345.008,110.644 333.77,105.914 322.039,102.32 C 317.539,106.387 314.754,112.605 320.148,119.18 L 320.152,119.18 z M 355.469,426.133 C 345.238,427.785 327.01217,433.87567 321.37117,441.78267 C 319.3187,445.10662 317.51345,447.48811 319.43267,455.61367 C 330.09091,455.23324 356.36978,441.96332 366.625,434.808 C 365.395,430.293 362.031,426.476 355.469,426.133 z M 305.03217,327.61723 C 300.86083,330.65779 295.06892,336.45952 279.02652,338.89323 L 290.95063,365.547 C 295.77963,364.441 302.664,366.828 307.277,372.723 L 326.441,414.508 C 327.594,420.492 325.766,425.879 322.574,430.992 L 324.531,434.519 C 330.211,429.535 339.008,425.785 347.547,424.434 L 346.836,422.058 C 342.848,420.34 339.48,423.426 334.867,416.891 L 314.766,372.074 C 311.664,364.016 311.96054,358.00773 317.08154,353.33973 L 305.03217,327.61723 z M 318.781,426.965 C 320.242,423.574 320.707,420.43 319.484,415.75 L 303.844,378.945 C 300.477,371.504 296.977,370.734 293.457,370.918 L 318.781,426.969 L 318.781,426.965 z M 320.625,358.867 C 318.223,360.476 318.152,363.894 318.758,367.086 L 338.176,410.129 C 340.426,414.887 343.648,417.445 347.852,417.808 L 320.625,358.867 z M 269.73,87.851 C 374.23,88.672 459.207,174.137 459.207,278.824 C 459.207,383.512 374.23,468.976 269.73,469.801 L 269.73,494.312 C 387.73,493.492 483.719,397.016 483.719,278.828 C 483.719,160.641 387.734,64.164 269.73,63.344 L 269.73,87.855 L 269.73,87.851 z M 354.746,89.5229 C 358.82,91.129 361.414,94.25 360.652,96.883 C 359.812,99.789 355.184,101.027 350.355,99.637 C 350.047,99.547 349.746,99.449 349.445,99.34 C 347.77,101.754 345.516,103.074 343.543,102.504 C 341.316,101.859 340.074,99.004 340.23,95.539 C 336.312,93.9059 333.859,90.8669 334.598,88.293 C 335.434,85.383 340.062,84.1479 344.895,85.543 C 344.961,85.558 345.023,85.5779 345.09,85.598 C 346.801,82.684 349.324,81.008 351.512,81.637 C 353.93,82.332 355.191,85.652 354.746,89.5229 z M 351.82,90.566 C 354.223,91.512 355.75,93.351 355.301,94.9059 C 354.809,96.6169 352.078,97.348 349.23,96.527 C 349.047,96.476 348.871,96.418 348.695,96.355 C 347.707,97.777 346.379,98.555 345.219,98.219 C 343.906,97.84 343.172,96.1559 343.27,94.113 C 340.961,93.152 339.516,91.3589 339.949,89.844 C 340.441,88.129 343.172,87.402 346.02,88.223 C 346.059,88.23 346.094,88.2419 346.133,88.254 C 347.141,86.535 348.629,85.551 349.918,85.918 C 351.344,86.3279 352.086,88.285 351.82,90.566 z M 351.754,469.535 C 348.023,471.836 343.973,472.043 342.32,469.851 C 340.5,467.441 342.277,462.988 346.285,459.957 C 346.543,459.766 346.801,459.582 347.066,459.406 C 346.141,456.617 346.434,454.023 348.07,452.785 C 349.918,451.391 352.949,452.105 355.633,454.308 C 359.285,452.152 363.188,452.008 364.809,454.141 C 366.637,456.558 364.852,461.004 360.84,464.035 C 360.789,464.078 360.734,464.113 360.68,464.156 C 361.984,467.273 361.816,470.297 360.008,471.672 C 358,473.191 354.586,472.211 351.754,469.535 z M 352.668,466.566 C 350.469,467.922 348.082,468.043 347.109,466.754 C 346.035,465.332 347.086,462.711 349.445,460.926 C 349.598,460.812 349.75,460.703 349.906,460.601 C 349.363,458.957 349.531,457.43 350.5,456.699 C 351.59,455.879 353.375,456.297 354.953,457.594 C 357.105,456.324 359.41,456.238 360.363,457.496 C 361.438,458.918 360.387,461.539 358.023,463.324 C 357.996,463.348 357.961,463.371 357.93,463.394 C 358.699,465.23 358.598,467.016 357.535,467.824 C 356.352,468.719 354.34,468.141 352.672,466.566 L 352.668,466.566 z M 459.07,195.965 C 460.867,199.961 460.543,204.008 458.164,205.359 C 455.531,206.851 451.352,204.512 448.867,200.141 C 448.711,199.859 448.562,199.578 448.426,199.293 C 445.539,199.848 443.004,199.226 441.992,197.437 C 440.852,195.422 441.953,192.508 444.48,190.137 C 442.82,186.23 443.184,182.344 445.508,181.016 C 448.137,179.516 452.316,181.863 454.797,186.238 C 454.832,186.297 454.863,186.355 454.895,186.41 C 458.156,185.523 461.133,186.086 462.258,188.055 C 463.504,190.242 462.09,193.5 459.066,195.961 L 459.07,195.965 z M 461.828,353.992 C 459.91,357.93 456.598,360.269 454.027,359.305 C 451.195,358.242 450.324,353.531 452.09,348.824 C 452.203,348.523 452.324,348.23 452.457,347.941 C 450.184,346.082 449.043,343.734 449.766,341.808 C 450.582,339.641 453.523,338.625 456.969,339.051 C 458.902,335.273 462.121,333.062 464.633,334 C 467.469,335.062 468.34,339.773 466.57,344.48 C 466.551,344.543 466.523,344.605 466.5,344.668 C 469.27,346.601 470.746,349.246 469.945,351.379 C 469.062,353.738 465.656,354.734 461.828,353.988 L 461.828,353.992 z M 456.246,194.668 C 457.305,197.019 457.113,199.406 455.711,200.203 C 454.16,201.082 451.699,199.707 450.234,197.129 C 450.145,196.965 450.059,196.801 449.977,196.629 C 448.273,196.953 446.781,196.59 446.184,195.535 C 445.512,194.348 446.16,192.633 447.652,191.234 C 446.676,188.934 446.891,186.641 448.258,185.859 C 449.809,184.976 452.27,186.355 453.734,188.934 C 453.754,188.965 453.77,189.004 453.793,189.035 C 455.711,188.512 457.469,188.844 458.133,190.004 C 458.867,191.293 458.035,193.215 456.254,194.664 L 456.246,194.668 z M 461.016,350.992 C 459.887,353.312 457.93,354.691 456.418,354.125 C 454.75,353.496 454.234,350.723 455.277,347.949 C 455.344,347.773 455.414,347.601 455.492,347.43 C 454.152,346.332 453.48,344.949 453.906,343.816 C 454.387,342.539 456.121,341.941 458.152,342.191 C 459.293,339.965 461.191,338.664 462.668,339.215 C 464.34,339.84 464.852,342.617 463.809,345.391 C 463.797,345.426 463.781,345.465 463.77,345.5 C 465.402,346.641 466.27,348.203 465.801,349.453 C 465.281,350.844 463.273,351.43 461.02,350.988 L 461.016,350.992 z M 258.148,444.609 L 255.035,448.617 C 258.215,472.851 252.863,486.414 245.547,491.219 C 238.27,495.996 226.328,496.312 220.305,481.793 C 210.066,504.707 223.199,513.574 244.797,498.492 C 242.793,522.609 256.375,539.941 262.832,562.508 L 262.832,474.668 C 259.422,464.43 259.191,454.851 258.152,444.609 L 258.148,444.609 z M 126.999,376.922 C 118.637,376.332 112.734,371.504 108.523,363.785 C 104.391,359.426 104.714,352.43 97.3905,355.551 C 96.4995,359.558 97.3905,364.68 94.7185,367.574 C 92.4925,371.504 94.7185,372.766 98.0545,371.355 C 99.9845,369.129 101.469,372.465 103.176,374.027 C 104.878,381.672 117.277,380.851 126.997,376.922 L 126.999,376.922 z M 179.105,521.203 C 177.18,524.84 179.253,530.031 173.32,532.113 C 180.816,534.914 185.934,533.762 188.684,524.098 L 179.109,521.203 L 179.105,521.203 z M 105.402,452.18 C 110.223,453.961 115.641,453.887 119.876,451.512 C 118.766,454.184 116.464,456.629 114.758,459.305 C 109.305,458.937 106.708,456.117 105.406,452.18 L 105.402,452.18 z M 262.824,369.125 L 255.926,382.93 C 251.012,436.793 218.688,460.137 199.816,435.031 C 197.594,422.266 203.676,417.516 218.074,420.781 C 216.109,414.586 211.656,411.168 199.594,413.879 C 197.296,415.582 194.105,417.289 192.027,414.324 L 188.02,404.082 C 183.497,409.797 186.54,415.066 185.792,420.558 C 180.676,421.965 174.219,420.703 167.98,426.344 C 186.165,436.93 197.199,453.062 222.309,449.055 C 234.48,445.047 244.945,437.031 250.809,422.781 C 253.625,418.848 256,421.371 253.922,427.012 C 238.188,458.922 205.234,462.484 176.438,441.035 C 141.742,437.207 123.93,447.98 120.105,470.871 C 116.387,492.031 130.133,508.637 153.949,511.394 C 182.734,511.652 201.458,521.004 211.839,537.891 C 215.988,523.656 210.027,505.953 190.242,503.156 C 190.688,492.914 187.796,485.269 177.551,483.34 C 172.266,510.539 134.301,505.719 136.805,475.324 C 140.277,457.582 156.402,453.797 177.105,455.062 C 199.171,458.105 221.027,463.219 241.008,451.277 C 255.445,439.332 265.469,423.601 263.273,397.394 L 262.828,369.117 L 262.824,369.125 z M 246.125,356.434 L 249.465,365.562 L 255.027,365.117 C 248.125,380.703 240.855,391.684 232.539,388.719 C 243.078,379 241.816,366.824 246.121,356.434 L 246.125,356.434 z M 177.324,344.633 L 177.324,353.094 L 145.262,384.266 C 139.773,389.609 143.855,392.281 148.152,392.949 C 150.378,394.652 153.421,394.726 156.835,394.058 C 163.07,393.539 166.335,395.094 166.633,398.734 C 163.406,407.641 156.876,412.168 155.499,403.187 C 148.973,404.148 145.113,403.039 143.926,399.848 C 142.589,398.215 140.665,398.363 138.141,400.289 C 133.613,405.332 128.199,408.82 121.887,408.523 C 118.848,408.305 115.801,408.523 115.434,412.086 C 114.469,418.469 112.023,420.988 108.085,419.656 C 105.492,418.84 103.786,419.801 102.969,422.547 C 99.1875,428.633 96.2925,429.371 94.2855,424.773 L 89.8355,416.09 C 90.4295,411.562 104.383,409.93 114.997,401.84 C 117.296,400.207 118.262,397.684 115.219,395.605 C 111.656,395.383 108.316,397.832 104.531,394.937 C 102.083,393.082 100.747,392.789 98.5195,394.715 C 95.8475,396.793 93.4765,396.793 91.3945,394.715 C 88.2815,393.086 85.7575,393.527 83.8245,396.051 C 82.7895,399.535 81.1565,399.762 78.9295,396.719 C 77.9645,392.566 77.0035,389.297 76.0355,386.922 C 75.8905,383.359 77.8165,382.172 81.8205,383.363 C 86.7925,383.211 91.7655,383.426 96.7385,386.254 C 104.699,388.07 112.898,388.441 121.454,386.699 C 128.579,382.691 134.145,384.918 142.829,374.676 L 177.339,344.617 L 177.324,344.633 z M 191.305,312.379 C 197.305,305.519 200.688,297.422 205.999,291.801 L 207.833,295.308 C 205.445,298.562 201.68,300.301 199.708,304.387 C 199.82,307.32 200.898,309.43 202.527,306.988 C 204.036,303.137 207.059,300.543 210.773,298.523 C 211.059,302.066 213.281,304.785 211.641,309.156 C 204.684,312.363 197.891,313.574 191.301,312.371 L 191.305,312.379 z M 193.195,334.558 C 191.777,329.055 193.292,322.68 197.749,317.91 L 206.309,316.43 L 199.917,323.058 C 198.723,326.687 199.312,327.976 202.52,326.094 L 211.57,317.019 C 211.352,325.254 205.531,332.203 193.184,334.558 L 193.195,334.558 z M 209.695,346.934 C 207.997,340.695 210.734,339.113 211.376,335.051 C 212.098,330.449 212.204,325.926 213.602,323.277 L 216.656,322.394 C 214.417,324.394 214.204,327.406 214.902,330.875 C 216.128,332.797 218.876,332.375 218.589,330.441 C 217.551,326.805 219.126,322.945 222.497,318.937 C 225.156,322.906 226.988,328.141 225.234,332.844 L 209.688,346.934 L 209.695,346.934 z M 183.708,365.535 C 184.699,357.308 181.835,345.086 186.684,340.855 C 189.07,341.101 191.458,340.344 193.844,339.121 L 188.378,352.281 C 188.312,356.391 189.48,357.055 191.891,354.965 C 195.867,349.684 197.089,342.336 203.829,339.121 C 203.395,343.242 201.031,348.746 202.527,351.766 L 183.708,365.535 z M 162.156,338.031 C 169.872,340.328 178.277,339.644 188.204,332.391 C 188.262,329.644 189.059,326.894 190.589,324.144 C 187.309,325.723 184.258,327.762 181.71,330.812 C 180.359,332.863 177.352,331.469 179.305,328.703 L 184.73,322.629 C 177.208,327.766 171.473,334.832 162.161,338.039 L 162.156,338.031 z M 260.238,240.773 C 255.066,233.242 257.059,228.187 255.465,221.891 L 258.066,221.891 C 260.375,223.391 259.656,227.098 260.453,229.703 L 262.816,229.074 C 263.332,237.519 261.094,236.871 260.234,240.773 L 260.238,240.773 z M 216.622,292.109 C 221.411,290.519 225.93,282.637 228.516,271.492 L 226.383,267.613 C 223.738,270.711 223.57,276.844 222.165,281.461 C 221.477,283.848 219.406,284.172 219.68,281.598 C 219.68,277.766 221.469,271.723 219.68,270.094 L 216.859,271.18 C 217.191,278.566 216.016,284.855 216.628,292.109 L 216.622,292.109 z M 256.316,266.836 C 262.816,261.68 262.84,255.695 262.176,250.125 L 259.355,250.773 L 257.836,259.453 C 257.449,261.734 256.094,262.09 255.016,260.101 L 253.5,250.769 L 250.027,253.156 C 252.125,257.715 250.363,261.719 256.32,266.828 L 256.316,266.836 z M 261.656,301.016 C 254.34,298.82 255.293,295.519 252.105,292.769 L 254.434,289.32 C 256.023,291.129 258.031,295.691 259.484,295.16 C 259.176,290.922 257.945,287.23 255.797,284.094 C 255.598,279.43 256.68,276.969 259.051,276.715 C 262.586,284.461 263.629,292.539 261.652,301.023 L 261.656,301.016 z M 260.988,326.277 C 254.559,323.457 251.426,318.516 250.137,312.387 L 252.957,310.219 L 257.078,318.465 C 258.141,319.945 259.344,318.398 259.031,316.297 L 257.73,308.703 C 259.348,308.492 260.816,309.027 262.07,310.652 C 261.711,315.859 263.824,319.141 260.984,326.277 L 260.988,326.277 z M 242.902,304.172 C 238.172,297.316 235.277,289.359 234.223,280.297 C 236.324,279.516 238.891,277.305 240.258,275.051 L 241.066,287.457 C 242.242,291.082 244.523,290.437 245.289,285.941 L 246.59,270.75 C 247.688,267.516 250.164,266.625 250.715,270.965 C 251.621,282.652 248.242,293.586 242.902,304.176 L 242.902,304.172 z M 231.184,328.043 C 227.848,327.863 227.273,318.801 224.918,314.758 C 221.477,308.851 217.941,303.492 217.73,301.785 C 219.02,296.555 221.411,295.363 224.906,298.215 L 229.449,312.855 C 229.496,317.859 232.578,313.906 232.902,309.68 L 231.621,296.797 L 237.047,303.523 C 236.559,309.168 236.48,314.68 235.164,320.187 L 231.188,328.043 L 231.184,328.043 z M 247.027,348.016 C 235.023,337.93 240.664,335.285 237.477,328.914 L 240.73,323.273 L 242.898,332.605 C 244.758,336.715 247.031,336.281 247.238,331.305 C 247.504,327.074 246.125,321.871 248.043,318.605 C 250.129,323.098 252.801,328.664 255.992,332.058 C 251.809,337.195 251.895,347.43 247.02,348.019 L 247.027,348.016 z M 252.359,363.523 C 260.621,359.242 258.82,347.656 261.57,340.203 L 257.883,340.418 C 255.734,343.844 254.504,347.824 254.195,352.355 C 254.098,354.777 252.621,355.543 252.242,353.004 L 251.809,348.883 L 250.293,353.441 L 252.363,363.519 L 252.359,363.523 z M 238.965,220.152 C 237.824,228.277 240.352,234.934 246.562,240.121 C 250.344,234.484 252.164,228.195 252.637,221.457 L 248.379,219.269 L 247.863,228.402 C 247.816,231.832 246.527,232.094 244.828,227.535 L 242.66,217.769 L 238.973,220.156 L 238.965,220.152 z M 235.387,272.121 C 228.375,264.445 228.133,255.176 227.496,246 L 230.098,244.051 C 232.16,247.934 234.223,251.539 234.219,258.594 C 234.547,261.918 236.668,261.527 237.691,259.894 C 239.191,253.793 239.406,246.586 238.336,238.277 L 239.859,238.191 C 241.16,240.863 242.914,243.238 245.32,245.176 C 242.973,259.211 238.832,267.184 235.379,272.125 L 235.387,272.121 z M 206.833,274.293 C 211.055,262.949 210.04,256.012 211.645,246.867 L 215.546,242.242 L 213.165,258.746 C 212.949,260.957 214.387,260.273 215.415,257.937 L 217.82,247.484 L 219.238,250.773 C 216.395,258.684 216.286,268.375 206.829,274.289 L 206.833,274.293 z M 208.727,244.004 C 200.749,237.473 206.008,229.285 204.921,222.34 L 206.656,222.34 L 206.872,231.019 C 207.816,232.875 209.454,233.629 210.126,230.805 C 211.352,227.332 211.204,220.965 213.812,220.387 L 217.023,229.168 C 213.708,230.113 212.727,238.918 208.719,244.004 L 208.727,244.004 z M 208.171,213.223 C 207.626,204.996 209.602,199.043 212.73,194.121 L 214.247,194.555 L 212.945,201.934 C 212.372,205.234 214.273,205.641 215.766,201.5 L 219.02,194.555 L 222.036,194.027 C 220.605,204.766 216.583,213.141 208.165,213.223 L 208.171,213.223 z M 229.664,213.004 L 234.219,218.211 C 231.906,224.141 232.344,232.555 227.273,236.285 C 221.273,231.519 219.863,222.699 220.113,212.785 L 222.281,209.098 L 224.883,211.918 L 224.449,223.203 C 225.211,228.988 227.219,227.613 228.672,223.066 L 229.656,213.004 L 229.664,213.004 z M 258.047,209.84 C 253.492,205.129 251.254,197.516 250.371,190.23 L 253.367,186.879 L 254.926,194.789 C 255.793,196.855 256.938,197.68 257.527,194.789 L 259.262,188.715 L 261.211,188.281 C 263.137,193.723 261.984,201.828 258.035,209.844 L 258.047,209.84 z M 237.203,213.57 C 230.195,206.512 229.023,196.789 230.102,188.258 L 232.703,188.258 L 234.223,198.457 C 235.598,205.262 237.383,204.07 238.344,197.375 L 239.211,188.695 L 242.684,193.902 C 243.52,202.293 241.508,209.953 237.199,213.57 L 237.203,213.57 z M 262.93,37.769 C 252.402,37.441 239.488,27.129 231.348,35.48 L 232.926,40.434 C 241.941,33.551 252.043,41.2029 261.496,42.351 L 262.926,37.769 L 262.93,37.769 z M 226.852,40.348 C 224.371,38.824 219.286,37.9449 217.238,35.9839 C 218.999,34.277 221.997,33.0779 224.918,33.684 L 226.852,40.348 z M 178.727,58.965 C 181.829,71.355 199.941,69.012 216.48,69.6169 C 222.949,69.851 228.816,72.199 233.996,73.566 C 235.469,76.3199 233.828,78.187 231.738,77.16 C 213.046,67.551 163.122,87.449 178.723,58.961 L 178.727,58.965 z M 203.641,252.285 C 192.109,278.781 181.312,300.262 172.137,310.711 C 167.02,313.144 165.208,311.328 166.695,305.269 L 182.161,270.902 L 185.023,268.039 C 181.059,279.875 175.704,291.715 169.848,303.551 C 169.469,305.238 170.855,306.219 172.421,303.836 C 182.04,287.445 188.829,268.926 197.031,251.473 L 200.887,245.976 C 201.801,248.078 203.605,248.941 203.637,252.285 L 203.641,252.285 z M 192.758,245.699 C 185.156,240.164 188.176,232.144 185.887,225.367 L 189.32,225.367 L 191.324,233.957 C 192.562,236.949 194.161,235.875 195.046,233.387 C 196.094,228.996 194.671,224.785 198.195,220.215 L 200.199,220.215 C 201.137,228.711 199.367,237.207 192.753,245.703 L 192.758,245.699 z M 146.648,252.859 C 133.954,270.055 120.184,284.469 105.122,295.531 C 93.4415,300.125 91.4375,297.644 99.1095,288.086 C 111.551,276.91 123.023,264.109 134.046,250.57 L 137.195,251.426 L 124.309,267.461 C 122.527,270.539 126.406,272.023 127.458,270.324 L 142.921,252.855 L 146.645,252.855 L 146.648,252.859 z M 175.003,221.066 L 179.296,221.351 C 172.376,242.141 163.18,262.609 152.949,282.926 C 146.32,292.73 150.492,295.277 156.958,285.789 C 161.406,277.953 166.387,270.644 170.839,262.805 C 174.766,255.891 178.161,248.441 182.089,241.527 L 185.02,250.387 C 171.411,277.98 153.816,305.133 127.809,320.512 C 121.816,324.82 115.113,317.984 121.156,311.855 C 151.359,276.348 165.68,254.687 174.999,221.066 L 175.003,221.066 z M 151.516,217.058 L 147.792,215.629 C 144.848,219.637 142.839,223.644 141.781,227.656 C 139.27,236.695 142.417,238.891 151.23,234.242 L 162.684,220.211 L 159.249,217.637 C 155.82,220.031 152.859,223.371 150.372,227.66 C 145.945,235.988 142.051,232.285 146.648,224.512 C 148.27,221.5 149.891,219.137 151.516,217.066 L 151.516,217.058 z M 121.074,195.535 C 119.773,193.547 118.941,191.555 118.583,189.562 L 113.512,191.555 C 109.247,193.336 105.688,196.297 102.833,200.441 C 102.762,204.976 101.312,207.613 103.57,209.566 C 105.445,211.184 109.484,212.027 114.747,211.43 C 122.566,209.668 129.074,205.719 135.473,201.586 C 132.71,201.055 130.421,199.812 128.602,197.863 L 117.829,203.633 C 113.027,205.914 110.699,204.66 114.57,199.871 L 121.07,195.535 L 121.074,195.535 z M 110.562,164.359 L 108.383,158.785 L 98.2495,158.918 C 96.2385,157.844 96.8785,156.41 99.1055,155.156 L 106.551,154.34 L 106.266,150.617 C 100.542,149.742 95.3985,150.781 91.0895,154.625 C 86.3755,158.426 87.2075,162.582 92.8755,163.555 C 98.8285,166.391 104.605,165.773 110.562,164.359 z M 100.54,133.144 L 99.9685,135.719 C 88.7425,136.422 77.7925,135.168 67.0352,132.57 C 63.1563,132.883 62.6406,134.969 67.7852,137.766 C 76.7035,139.937 85.9965,141.746 95.3865,143.449 C 88.6835,144.473 86.2225,147.266 81.6405,149.176 C 73.1445,145.644 64.6484,146.008 56.1523,138.582 C 50.1641,130.695 49.3437,125.465 59.875,126.074 C 66.6523,127.25 73.4295,128.781 80.2075,129.961 C 86.9805,131.137 93.7615,131.961 100.54,133.137 L 100.54,133.144 z M 86.5035,109.086 L 87.0745,106.223 C 79.0975,104.828 69.6995,99.543 61.0117,96.199 C 56.8555,95.211 54.7422,96.1089 56.7187,100.781 C 64.4063,111.469 75.4175,115.879 87.3635,118.535 L 87.4295,113.82 L 80.6405,110.234 C 77.7425,108.426 79.8005,107.32 82.2075,108.519 L 86.4995,109.09 L 86.5035,109.086 z M 110.848,110.805 C 112.059,112.141 112.559,114.359 110.234,115.344 C 107.945,116.391 105.126,115.726 102.833,114.418 C 99.9065,114.164 99.6325,116.734 102.546,118.25 L 111.137,123.402 C 113.036,127.043 112.339,129.269 109.051,130.082 C 97.8085,128.742 92.4105,122.148 92.4995,114.195 C 94.3395,109.523 101.934,108.867 110.855,110.801 L 110.848,110.805 z M 97.1015,86.461 C 94.8125,82.262 89.3355,79.125 90.2305,73.8589 C 82.1525,72.289 74.3555,69.59 66.7461,66.129 C 56.9609,64.566 52.1328,66.8199 65.0273,82.738 C 77.3395,92.535 91.8945,99.812 107.988,105.363 L 109.704,101.355 L 102.585,96.441 L 72.1875,82.457 C 64.9531,77.297 65.9727,73.551 74.1915,77.59 L 97.1015,86.469 L 97.1015,86.461 z M 122.727,77.269 L 118.012,81.016 C 112.417,81.8979 109.305,78.891 104.949,77.824 C 101.809,76.883 101.324,79.125 104.199,81.3669 L 115.367,87.488 C 117.641,90.687 117.258,93.004 114.579,91.605 C 108.003,90.1949 102.372,86.184 97.6835,79.5779 C 93.8325,72.801 95.1675,70.0309 101.691,71.2729 C 108.704,73.266 113.594,76.504 122.73,77.258 L 122.727,77.269 z M 135.766,210.758 L 138.339,214.191 C 124.723,228.742 110.605,242.668 95.0975,254.859 C 90.1835,259.508 90.7575,262.562 97.3435,258.715 C 108.652,250.57 120.171,240.98 132.898,227.937 L 133.469,235.383 C 116.046,253.687 98.3785,266.308 80.4845,273.758 C 59.7383,281.289 57.8281,268.613 76.0825,256.617 C 96.0315,241.152 103.062,240.379 135.762,210.754 L 135.766,210.758 z M 95.2465,211.441 L 56.1445,231.664 C 45.2695,236.34 47.1367,246.148 60.1523,241.973 C 76.8595,236.875 93.5665,228.68 110.27,217.918 L 103.113,217.062 L 79.3435,229.949 C 72.0465,232.953 73.2465,229.062 77.6285,226.226 L 97.1015,213.914 L 95.2495,211.449 L 95.2465,211.441 z M 109.704,186.129 C 92.0425,186.726 74.3825,188.344 56.7227,194.144 C 47.1133,199.008 43.9023,204.582 56.4805,206.621 C 68.4255,207.984 81.2495,206.027 93.6675,205.027 L 98.5355,196.723 L 72.2145,199.953 C 66.8828,200.371 67.7461,197.609 71.6175,196.434 L 105.126,189.277 L 109.704,186.129 z M 83.3555,160.062 L 85.6015,164.668 L 66.0586,165.633 C 62.9805,165.684 60.4258,167.684 65.3125,169.508 L 101.684,175.805 L 100.824,177.808 C 82.3515,178.051 65.3906,173.762 49.2734,166.926 C 44.4687,162.558 45.332,160.074 51.8477,159.48 L 83.3515,160.051 L 83.3555,160.062 z M 240.555,169.984 C 239.645,168.113 238.414,167.043 236.863,169.184 C 232.375,178.719 225.078,187.164 219.036,183.48 C 219.247,175.129 224.281,170.148 228.832,167.578 C 234.453,162.441 228.832,156.336 223.051,160.832 C 214.352,166.797 208.296,182.488 203.454,202.598 C 200.137,212.93 192.691,214.375 189.316,214.16 C 185.945,213.949 180.376,210.305 182.73,201.312 C 182.464,198.797 177.378,199.492 177.594,201.469 C 175.988,208.965 175.247,211.434 169.883,210.945 C 165.07,210.508 163.622,206.824 165.066,198.258 C 165.227,195.637 163.626,195.262 161.695,197.137 C 157.77,207.965 150.656,206.578 148.523,205.73 C 146.395,204.883 141.852,195.73 149.809,190.551 C 151.464,188.195 147.508,183.91 144.188,186.215 C 140.628,195.531 132.622,192.531 131.258,191.191 C 129.895,189.855 127.137,185.84 135.997,178.184 C 138.027,175.293 136.046,173.848 132.945,174.328 C 122.027,178.297 119.488,174.695 118.878,172.469 C 118.191,169.941 118.917,163.848 130.695,159.394 C 133.585,158.484 133.906,154.844 130.695,154.738 C 121.426,154.879 117.645,152.293 117.637,145.101 C 117.637,140.461 120.421,135.207 126.999,132.57 C 133.637,132.035 133.046,125.879 127.641,127.594 C 117.199,127.914 119.234,113.672 127.641,111.051 C 132.137,109.551 132.727,108.91 129.085,106.555 C 121.137,102.969 121.723,93.973 129.727,89.527 C 132.723,88.887 133.633,87.121 131.652,84.871 C 127.102,80.16 129.406,76.09 137.113,76.199 C 151.195,74.2729 141.824,62.8669 130.852,62.8669 C 117.281,63.027 104.051,59.016 91.3355,48.894 C 86.6795,45.094 84.9105,47.555 88.9295,52.426 L 113.023,69.129 C 105.688,67.469 99.1565,63.723 91.0155,64.152 C 84.4845,61.1559 80.8435,55.266 75.7535,50.8199 C 66.0391,37.504 70.1605,32.6559 81.2145,38.934 C 92.0195,43.601 101.223,50.043 112.191,53.91 C 121.57,57.215 132.876,57.1479 142.253,60.457 C 161.977,63.336 163.383,76.262 146.911,95.797 C 144.824,98.766 144.339,101.871 147.391,105.273 C 152.796,118.871 147.286,126.851 145.305,136.437 C 138.359,157.742 142.184,173.66 165.223,179.969 C 178.527,183.16 190.734,177.848 202.329,167.762 C 210.945,157.644 213.626,148.808 229.797,144.308 C 244.898,133.223 248.102,116.945 243.527,96.016 C 255.191,87.652 261.027,78.019 246.035,63.863 C 235.996,62.387 230.191,57.832 230.57,48.687 C 237.93,61.3669 246.668,60.301 256.344,49.832 C 258.348,51.0699 260.57,49.277 262.355,53.555 L 262.355,175.996 C 258.711,178.391 259.535,174.281 257.41,173.637 C 254.32,172.301 252.969,172.699 252.051,176.133 C 250.594,178.305 252.605,183.516 247.68,182.648 L 240.566,170.016"
       id="path20" />
  </g>
</svg>