<svg
   xmlns="http://www.w3.org/2000/svg"
   id="svg2"><title>Herb Konstancin-Jeziorna</title>
  <metadata
     id="metadata25">
    <rdf:RDF>
      <cc:Work
         rdf:about="">
        <dc:format>image/svg+xml</dc:format>
        <dc:type
           rdf:resource="http://purl.org/dc/dcmitype/StillImage" />
      </cc:Work>
    </rdf:RDF>
  </metadata>
  <sodipodi:namedview
     borderopacity="1.0"
     bordercolor="#666666"
     pagecolor="#ffffff"
     id="base" />
  <defs
     id="defs4">
    <marker
       id="ArrowEnd"
       viewBox="0 0 10 10"
       refX="0"
       refY="5"
       markerUnits="strokeWidth"
       markerWidth="4"
       markerHeight="3"
       orient="auto">
      <path
         d="M 0 0 L 10 5 L 0 10 z"
         id="path7" />
    </marker>
    <marker
       id="ArrowStart"
       viewBox="0 0 10 10"
       refX="10"
       refY="5"
       markerUnits="strokeWidth"
       markerWidth="4"
       markerHeight="3"
       orient="auto">
      <path
         d="M 10 0 L 0 5 L 10 10 z"
         id="path10" />
    </marker>
  </defs>
  <path
     id="path14"
     d="M 556.789,0 L 556.789,418.516 C 556.789,743.852 0,743.879 0,418.516 L 0,0 L 556.789,0"
     style="fill:#222222;fill-rule:evenodd;stroke:none" />
  <path
     id="path16"
     d="M 239.375,205 C 237.414,201.977 235.449,198.946 233.485,195.918 C 232.117,193.399 232.938,192.528 235.949,193.305 C 251.016,197.707 255.676,194.223 249.922,182.848 C 254.715,183.625 256.77,182.207 256.086,178.583 C 263.938,181.059 267.727,179.04 268.277,173.079 C 275.074,174.528 276.395,161.817 287.457,173.625 C 290.059,176.008 293.211,176.926 296.91,176.375 C 296.356,181.293 302.875,186.204 304.762,182.379 C 305.766,179.075 307.867,179.028 309.102,182.567 C 312.031,191.11 320.164,181.551 321.703,189.032 C 322.766,194.145 327.793,193.915 331.293,194.946 C 334.16,200.633 338.488,201.426 342.524,203.2 C 342.113,210.723 334.34,209.399 328.59,213.735 C 323.477,208.133 320.84,207.051 318.59,211.778 C 314.211,218.364 303.602,208.614 297.981,218.887 C 294.031,227.356 292.508,225.375 282.246,220.399 C 273.985,217.254 270.938,222.7 263.34,212.004 C 260.649,209.301 258.5,209.528 256.902,212.692 C 254.805,219.43 252.52,219.204 250.055,212.004 C 251.195,206.641 249.235,204.391 244.164,205.262 C 242.016,205.997 240.051,206.457 239.371,204.989 L 239.375,205 z M 124.098,323.223 C 129.828,323.543 132.09,321.981 133.375,319.879 C 133.516,318.524 133.781,317.204 133.141,315.579 C 130.567,311.395 136.094,310.668 141.754,313.333 C 147.016,315.555 146.645,321.641 140.426,323.434 C 133.387,324.875 127.145,324.618 124.91,326.52 C 122.055,329.833 121.231,323.192 124.102,323.223 L 124.098,323.223 z M 352.074,359.625 C 353.766,356.618 355.617,354.547 358.555,359.008 C 369.539,372.805 379.902,366.633 391.422,357.614 C 396.27,353.813 401.027,351.641 405.465,355.29 C 407.52,356.735 407.727,357.77 406.082,358.387 C 404.543,359.059 403.563,360.04 404.078,361.95 C 402.125,360.192 399.617,358.102 398.215,359.938 C 394.77,363.344 395.235,364.481 399.602,363.344 C 401.246,362.672 402.067,364.79 402.07,365.821 C 405.313,369.762 406.754,367.536 407.934,364.426 C 406.699,361.536 408.461,359.579 411.02,361.329 C 412.457,363.239 414.309,364.942 416.574,366.442 C 422.668,369.836 425.652,366.813 425.985,359.469 C 427.215,354.356 430.867,353.118 435.395,354.2 C 438.985,358.497 441.852,363.055 447.121,365.668 C 450.77,368.043 450.719,369.801 446.969,370.938 C 444.211,370.184 440.934,371.743 442.293,373.418 C 445.039,376.559 441.434,377.18 439.578,375.641 C 435.149,372.348 431.027,373.723 431.387,378.836 C 433.676,387.094 428.082,382.864 423.981,380.383 C 413.906,375.473 414.844,390.782 409.629,382.086 C 405.383,377.516 398.336,374.051 396.668,380.536 C 396.18,386.325 394.688,388.598 391.731,382.395 C 387.309,377.153 385.914,378.907 384.781,386.059 C 384.567,388.282 382.656,388.489 381.379,384.032 C 380.492,380.071 378.313,378.032 373.063,380.071 C 370.18,380.641 367.707,380.7 368.125,377.129 C 367.098,373.59 364.785,370.954 359.641,370.309 C 355.738,369.168 353.746,364.508 352.082,359.618 L 352.074,359.625 z M 180.582,324.434 C 181.738,321.379 183.867,317.68 190.254,319.207 C 191.703,319.743 193.156,319.649 194.609,318.161 C 207.43,324.168 208.367,309.532 216.016,312.547 C 214.692,315.239 214.121,317.809 214.313,320.25 C 215.707,327.165 200.125,318.957 207.305,330.715 C 211.965,340.165 205.688,347.29 195.844,339.184 C 190.445,334.426 185.985,329.188 180.582,324.43 L 180.582,324.434 z M 149.125,298.672 C 153.051,295.536 151.859,293.465 153.277,291.688 C 163.688,285.938 168.559,301.27 189.277,314.864 C 191.281,318.133 181.004,314.957 180.758,317.649 C 180.008,321.461 175.672,321.61 173.891,318.957 C 166.004,310.879 158.078,303.278 149.125,298.668 L 149.125,298.672 z M 107.641,295.747 C 111.457,279.469 117.004,297.782 125.125,288.036 C 131.629,280.504 141.867,287.715 134.078,295.747 C 121.563,296.411 123.426,304.528 123.844,313.524 C 124.192,316.028 126.043,315.524 128.106,314.59 C 131.375,318.731 129.524,320.586 122.563,320.157 C 117.801,321.938 116.453,326.008 120.219,330.649 C 127.469,337.075 136.852,346.497 143.25,350.352 C 135.504,360.805 147.363,359.918 144.742,364.059 C 143.625,375.286 156.75,366 162.227,370.485 C 164.5,374.336 167.625,371.766 163.93,367.915 C 158.219,361.907 146.422,370.735 148.152,362.774 C 151.02,356.887 140.254,359.586 146.02,352.707 C 149.074,348.137 146.16,346.137 142.395,344.997 C 140.332,344.141 140.473,342.571 138.985,341.145 C 167.016,322.61 167.942,372.325 192.512,362.348 C 191.27,364.633 187.359,367.133 180.996,365.989 C 176.875,368.415 176.664,370.625 179.934,373.055 C 182.422,384.965 168.899,371.961 165.649,382.692 C 162.098,383.047 158.543,383.403 154.988,383.762 C 146.555,387.188 152.379,371.286 141.129,377.981 C 125.078,386.899 130.504,364.2 118.738,372.415 C 114.902,377.34 114.192,376.125 114.047,371.989 C 112.199,369.278 110.067,368.278 107.652,368.993 C 101.067,371.489 107.512,362.418 99.3359,360.856 C 86.5429,361.852 82.9879,355.93 86.1169,343.934 C 88.1519,340.184 89.3869,338.079 87.6059,334.297 C 83.3089,329.864 93.8479,332.997 93.9999,326.801 C 93.4339,324.661 94.5669,323.661 97.4099,323.805 C 106.508,324.372 108.926,321.165 105.512,313.739 C 98.8709,307.028 111.547,305.786 107.641,295.747 z M 386.922,268.168 C 398.692,261.5 389.711,232.586 400.211,217.192 C 403.84,217.188 405.582,219.547 407.055,222.247 C 413.945,231.879 419.207,236.739 426.766,229.895 C 427.594,228.907 429.793,228.356 429.844,232.614 C 430.246,235.161 437.594,237.223 439.973,234.036 C 441.414,231.821 443.227,233.192 442.457,235.004 C 441.953,243.235 445.508,243.864 450.344,242.055 C 454.859,239.543 459.582,236.516 460.817,242.254 C 462.492,244.68 464.172,247.106 465.848,249.536 C 464.84,255.063 466.785,259.11 470.074,262.481 C 474.504,265.125 472.875,266.715 470.477,266.524 C 465.41,266.993 465.137,269.512 465.977,275.379 C 465.875,276.657 462.84,279.243 460.363,275.52 C 456.149,271.735 443.301,278.059 432.82,263.083 C 428.461,260.387 426.059,260.743 425.992,264.512 C 426.797,267.68 430.047,276.215 424.422,277.352 C 418.227,277.696 414.363,279.325 407.25,281.887 C 402.754,276.391 398.254,273.426 393.758,276.024 C 391.961,277.571 389.867,276.29 389.129,274.407 C 388.391,272.114 387.652,270.43 386.914,268.137 L 386.922,268.168 z M 389.965,244.719 C 390.356,260.079 388.16,264.735 381.281,265.079 C 378.426,265.844 373.106,265.723 369.883,264.645 C 364.512,265.641 361.207,264.149 362.445,257.176 C 363.024,254.938 361.621,253.36 358.231,252.446 C 350.867,253.032 344.332,252.954 343.602,248.215 C 343.602,246.309 343.602,244.399 343.602,242.489 C 342.445,240.25 341.289,240.333 340.133,242.735 C 340.215,245.223 340.297,247.715 340.379,250.207 C 341.285,254.106 343.52,256.016 347.07,255.934 C 349.715,256.508 352.359,256.59 355.004,256.184 C 357.656,256.543 359.797,256.68 359.219,259.918 C 357.469,265.489 360.785,268.852 366.406,269.133 C 372.109,269.133 377.813,269.133 383.516,269.133 C 384.754,272.204 385.992,275.274 387.235,278.348 C 389.805,282.165 393.973,281.536 396.766,279.34 C 400.485,278.098 400.621,282.329 403.844,284.071 C 397.563,289.465 399.461,292.122 405.082,293.536 C 414.641,293.536 422.613,290.895 430.625,297.02 C 433.949,302.473 438.926,302.024 440.781,304.403 C 444.176,307.633 443.567,309.633 443.645,314.204 C 443.379,317.586 447.039,322.079 452.801,320.852 C 455.988,319.571 466.192,331.653 460.336,331.625 C 452.899,333.282 453.102,334.868 456.906,337.86 C 464.883,346.536 467.281,353.344 457.399,356.04 C 454.262,356.7 451.449,355.711 448.969,353.051 C 443.926,348.239 438.332,347.852 435.277,350.34 C 427.817,349.161 423.824,353.176 422.817,356.438 C 418.59,351.731 411.133,339.372 405.102,341.461 C 388.399,347.012 386.223,341.442 395.727,333.223 C 401.801,327.825 409.164,322.442 415.746,327.653 C 415.692,332.375 415.41,334.375 418.969,338.86 C 420.711,341.008 421.59,341.559 421.445,346.579 C 421.082,350.098 424.266,350.563 424.981,346.887 C 425.067,342.903 425.5,338.606 420.949,334.622 C 419.051,333.379 419.09,330.692 419.832,328.122 C 422.809,328.375 427.231,328.266 425.164,324.415 C 423.008,320.844 421.676,317.52 426.152,315.946 C 429.992,314.516 431.109,314.122 430.613,309.223 C 430.035,307.649 429.457,306.071 428.879,304.493 C 427.531,302.215 424.27,303.368 425.16,305.735 C 429.231,315.723 421.363,311.657 419.707,316.942 C 397.617,300.711 394.922,332.223 378.297,322.168 C 368.77,318.766 359.676,315.168 364.164,305.731 C 369.539,298.258 364.906,297.18 355.735,299.008 C 351.52,289.926 348.461,292.512 345.57,296.77 C 342.731,307.696 332.043,293.043 325.981,306.481 C 324.742,310.961 325.817,311.793 329.203,308.969 C 333.965,295.817 345.223,313.829 348.801,298.25 C 349.774,295.758 353.613,298.465 350.031,303.985 C 340.637,324.008 355.524,327.911 369.621,334.868 C 375.817,339.68 373.422,344.165 365.902,340.344 C 353.426,333.083 344.914,331.09 338.379,337.11 C 334.578,334.747 332.348,328.434 331.188,321.418 C 329.879,315.125 319.152,321.59 314.824,314.196 C 311.934,310.711 309.039,307.223 306.149,303.735 C 302.68,301.329 303.504,298.922 308.625,296.512 C 323.539,291.372 325.672,283.899 325.981,276.09 C 337.492,279.637 339.609,257.758 352.762,270.114 C 359,277.504 363.879,279.411 368.133,278.829 C 371.602,277.083 373.258,278.497 372.102,282.063 C 371.195,286.711 372.07,288.137 376.449,288.801 C 381.567,286.637 382.902,290.704 381.258,294.36 C 380.043,301.981 387.238,299.77 384,305.469 C 376.363,314.649 388.238,316.286 393.68,311.067 C 395.938,309.043 395.606,305.34 396.645,300.985 C 396.809,299.243 397.633,297.5 399.121,297.75 C 403.168,297.09 403.254,295.758 399.367,293.766 C 396.309,294.086 392.586,294.911 393.168,301.485 C 392.676,306.965 391.668,310.688 386.469,310.625 C 384.914,310.29 385.652,308.583 387.395,307.133 C 389.859,300.118 384.176,298.586 384.496,295.653 C 386.067,287.297 384.402,284.559 375.57,285.047 C 376.797,278.075 374.453,271.93 366.645,273.594 C 364.992,274.422 363.34,273.922 361.688,272.102 C 344.68,255.598 339.141,263.575 332.922,270.11 C 330.774,272.766 327.375,272.95 324.567,270.293 C 310.652,258.899 311.305,251.305 324.496,243.211 C 346.485,233.477 345.895,243.907 389.961,244.704 L 389.965,244.719 z M 213.809,268.055 C 197.285,263.243 196.617,236.965 211.836,240.313 C 215.637,244.137 219.359,247.594 222.574,244.934 C 226.863,239.907 227.645,250.352 232.656,244.934 C 240.18,240.165 243.031,240.973 241.203,247.356 C 238.774,257.364 243.567,258.168 249.504,254.543 C 252.942,251.829 253.832,248.52 257.859,249.559 C 258.367,253.379 255.145,263.321 261.805,263.649 C 265.965,263.649 270.133,263.649 274.297,263.649 C 281.981,262.196 278.168,250.594 277.957,244.926 C 279.125,240.672 283.18,240.188 284.781,244.739 C 286.973,254.149 287.879,257.625 295.188,260.598 C 302.613,261.575 311.258,271.684 314.844,267.391 C 317.324,269.665 320.844,273.375 322.223,276.02 C 324.621,293.848 291.422,291.211 302.129,305.7 C 305.051,308.852 307.973,312.008 310.895,315.165 C 309.043,318.465 308.145,321.766 308.047,325.071 C 305.207,328.012 301.914,332 299.66,335.532 C 295.117,335.04 290.609,334.165 284.594,335.633 C 282.586,333.395 280.027,331.34 276.266,329.692 C 272.008,328.157 272.817,325.586 275.172,322.868 C 276.703,319.055 277.207,315.067 278.742,311.254 C 281.617,310.083 284.031,310.543 285.719,312.454 C 287.832,314.204 290.805,310.825 290.074,307.016 C 287.813,298.137 282.766,296.407 277.363,300.192 C 258.207,315.993 248.149,290.497 237.469,286.981 C 243.719,278.672 232.379,277.504 238.563,271.129 C 239.863,270.438 242.098,270.368 239.656,267.168 C 236.926,261.071 236.504,258.149 228.477,260.563 C 227.235,258.215 226.504,255.868 225.848,253.52 C 224.461,251.317 223.074,251.168 221.688,251.321 C 217.961,250.957 214.235,250.59 210.508,250.223 C 202.688,248.879 213.164,266.493 213.793,268.055 L 213.809,268.055 z M 167.457,252.84 C 168.016,252.84 168.473,253.243 168.473,253.735 C 168.473,254.227 168.02,254.629 167.457,254.629 C 166.899,254.629 166.442,254.231 166.442,253.735 C 166.442,253.243 166.895,252.84 167.457,252.84 z M 171.613,256.875 C 172.453,258.665 177.477,260.606 181.047,262.399 C 181.047,260.864 180.602,258.727 180.602,257.192 C 179.074,254.207 175.18,254.403 171.613,256.875 z M 165.867,272.825 C 177.078,278.352 190.356,281.848 200.547,287.907 C 202.414,290.805 200.074,292.684 196.508,293.536 C 194.223,293.969 190.891,294.172 183.145,289.813 C 175.203,283.161 168.184,277.5 161.598,275.625 C 158.117,271.872 159.84,270.442 165.867,272.829 L 165.867,272.825 z M 220.738,286.536 C 229.203,276.375 232.301,270.821 230.293,265.086 C 231.586,264.688 231.594,263.551 232.887,263.149 C 233.25,261.711 237.606,267.5 235.824,268.524 C 229.285,274.848 232.172,275.95 235.961,282.18 C 234.617,284.629 231.887,293.29 228.703,292.231 C 221.985,291.036 218.262,290.141 220.735,286.532 L 220.738,286.536 z M 193.707,238.985 C 200.117,233.567 205.25,229.368 212.672,223.536 C 217.235,220.946 223.621,220.637 228.797,224.133 C 236.859,232.282 245.172,237.333 254.031,239.879 C 257.184,241.274 258.688,241.817 257.891,246.168 C 252.957,245.61 249.246,247.77 246.711,250.825 C 245.52,253.122 244.922,252.825 244.922,249.926 C 245.145,244.735 246.434,235.282 237.754,238.528 C 235.238,239.887 230.844,243.836 228.496,241.075 C 222.863,236.176 222.242,244.833 218.492,240.926 C 210.434,233.899 205.297,235.579 201.172,241.375 C 194.168,250.844 198.711,262.77 210.418,270.903 C 204.93,271.836 199.68,269.504 198.574,263.641 C 198.152,259.309 197.094,254.973 195.199,250.825 C 197.055,246.387 197.754,242.512 193.707,238.977 L 193.707,238.985 z M 184.637,219.915 C 186.59,219.915 189.887,218.61 191.527,219.868 C 190.938,222.11 188.602,224.559 186.063,225.961 C 184.465,224.086 181.887,221.79 184.641,219.915 L 184.637,219.915 z M 128.215,200.883 C 132.457,203.446 136.789,205.497 141.719,203.954 C 143.332,202.59 144.945,202.59 146.559,203.954 C 158.242,214.004 152.672,189.821 162.609,196.79 C 167.871,200.309 161.75,208.688 170.254,207.54 C 173.629,206.739 181.805,200.973 184.777,204.727 C 183.317,209.938 182.203,213.231 182.485,217.27 C 178.824,218.719 179.762,223.836 181.211,225.969 C 183.504,228.016 182.711,229.012 179.938,230.434 C 175.277,234.778 180.254,238.567 182.992,242.348 C 187.586,250.29 190.324,236.809 192.418,243.372 C 193.692,245.247 193.309,248.024 191.867,249.899 C 186.094,249.77 182.672,250.747 180.973,252.668 C 178.426,251.219 176.367,250.985 174.5,252.266 C 169.301,256.579 169.012,242.368 163.375,251.305 C 158.899,258.489 156.844,264.633 159.238,268.469 C 156.039,268.278 155.5,271.747 156.5,275.872 C 152.426,279.965 155.485,284.059 151.914,288.157 C 150.672,289.02 148.789,289.653 149.043,291.934 C 150.387,293.989 146.055,296.575 144.274,296.344 C 142.152,296.09 140.367,295.833 138.922,295.579 C 142.574,290.547 140.106,285.559 134.25,281.891 C 126.289,279.493 121.121,289.848 116.133,286.848 C 108.336,282.407 104.973,287.579 103.504,294.809 C 97.3989,292.004 91.0469,289.399 96.2419,284.872 C 101.676,279.227 93.7499,271.625 102.485,270.243 C 111.078,269.649 98.7889,239.79 114.715,249.512 C 122.156,254.313 127.676,249.786 122.918,243.071 C 120.422,239.477 122.344,237.481 125.184,236.848 C 128.133,235.571 131.598,236.141 133.496,238.735 C 136.891,245.004 141.777,243.172 142.512,235.012 C 142.414,230.379 132.75,229.625 137.43,225.731 C 144.469,218.27 142.738,216.778 134.078,217.016 C 120.695,221.661 119.965,207.989 128.219,200.891 L 128.215,200.883 z M 183.867,200.743 C 182.922,197.711 186.965,194.973 193.547,195.172 C 194.555,197.399 194.688,201.352 195.156,203.575 C 191.531,202.766 187.488,201.551 183.863,200.743 L 183.867,200.743 z M 241.977,209.543 L 246.082,214.77 L 246.082,208.852 L 241.977,209.54 L 241.977,209.543 z M 316.106,217.29 C 320.465,216.649 322.055,214.547 322.399,212.434 C 329.668,216.946 322.203,225.059 314.055,226.411 C 316.207,224.028 319.449,221.149 316.102,217.29 L 316.106,217.29 z M 358.125,213.688 C 360.668,212.637 361.942,213.598 360.891,216.153 C 360.176,218.614 359.145,221.004 357.836,223.008 C 357.016,225.262 354.828,224.797 352.805,222.247 C 351.535,220.743 351.551,218.192 353.27,216.684 C 355.742,214.653 356.848,214.516 358.121,213.688 L 358.125,213.688 z M 377.07,224.278 C 377.891,222.774 378.715,220.817 379.539,219.313 C 389.75,221.629 391.012,217.747 390.996,213.899 C 393.317,211.934 395.719,213.95 397.442,215.61 C 394.973,219.895 392.793,223.075 392.121,226.758 C 387.106,228.075 380.07,230.446 377.07,224.278 z M 331.906,145.512 C 333.18,143.032 332.43,140.625 330.109,136.938 C 331.363,135.25 338.613,126.446 341.016,128.403 C 349.383,134.665 350.945,132.18 350.328,123.399 C 349.754,117.622 357.379,124.657 359.762,128.586 C 362.531,131.461 366.199,134.235 368.973,129.036 C 370.844,126.254 371.817,120.106 374.426,120.09 C 378.317,120.145 381.477,125.133 385.371,129.485 C 387.168,131.891 388.067,132.321 385.371,134.223 C 373.543,142.145 394.133,143.926 389.453,150.715 C 381.34,164.196 400.559,154.422 402.219,164.461 C 404.008,174.68 418.68,165.188 419.742,176.196 C 422.285,181.172 425.145,181.918 429.625,182.063 C 435.102,183.075 435.848,191.446 435.914,203.954 C 434.117,208.465 431.121,209.067 426.93,205.758 C 410.672,200.93 412.598,224.106 395.699,209.821 C 390.832,208.469 388.063,209.52 387.387,212.977 C 387.547,217.883 382.453,216.446 376.606,214.106 C 369.492,209.516 364.996,214.254 355.711,205.305 C 351.895,203.575 349.195,200.04 344.254,200.118 C 339.836,198.989 335.867,196.883 334.367,193.125 C 336.039,183.774 323.856,178.602 340.656,175.524 C 354.52,172.895 349.93,169.438 343.125,166.95 C 340.676,165.352 342.078,162.211 343.125,159.504 C 346.692,153.055 337.25,153.793 342.231,144.387 C 343.059,139.454 336.695,141.29 331.895,145.516 L 331.906,145.512 z M 301.149,174.797 C 308.164,172.586 310.32,162.512 315.121,163.102 C 333.676,164.989 316.57,149.954 327.93,149.653 C 331.344,149.805 331.106,151.715 336.078,146.379 C 337.727,143.559 339.492,144.86 338.406,147.196 C 335.953,154.34 342.086,153.637 339.57,158.774 C 337.957,162.883 338.078,167.598 340.539,168.997 C 347.723,171.844 342.711,172.122 339.34,171.985 C 334.965,172.051 331.461,174 328.512,177.247 C 325.41,183.168 331.195,185.219 330.488,190.93 C 328.238,190.586 325.985,189.77 323.735,185.668 C 319.844,177.907 313.305,186.844 310.406,180.055 C 308.617,175.829 304.469,176.012 303.359,177.95 C 300.793,181.333 300.805,177.68 301.149,174.793 L 301.149,174.797 z M 219.781,153.754 C 218.426,162.02 213.317,164.895 207.07,161.786 C 208.957,165.965 206.977,168.59 202.281,170.829 C 205.426,170.465 207.317,171.192 209.688,171.993 C 219.785,166.04 238.766,172.192 234.082,185.266 C 233.57,187.743 230.985,188.278 227.985,186.868 C 227.985,190.657 226.824,193.868 224.5,196.493 C 219.324,196.204 214.145,195.911 208.965,195.618 C 210.793,201.129 229.094,202.551 234.524,204.954 C 232.879,202.282 231.235,199.606 229.59,196.934 C 227.641,190.797 231.418,187.981 235.106,189.352 C 249.328,194.829 249.379,190.364 246.141,184.54 C 243.688,177.665 247.774,177.625 252.094,178.559 C 252.774,175.637 253.231,172.387 257.465,174.622 C 261.406,177.368 264.266,177.075 264.723,170.102 C 263.465,168.692 262.207,167.282 260.949,165.872 C 259.789,163.93 258.82,163.93 258.047,165.872 C 256.692,167.692 254.852,168.18 251.949,165.727 C 250.207,164.461 248.606,163.629 248.031,165.872 C 244.328,172.727 240.875,172.114 239.988,166.747 C 239.293,164.899 238.5,164.219 235.402,164.707 C 230.973,165.911 225.043,166.774 223.399,163.114 C 222.813,159.118 221.809,156.094 219.801,153.762 L 219.781,153.754 z M 180.856,200.336 C 177.836,201.348 174.813,202.36 171.789,203.372 C 169.781,203.93 166.77,205.93 168.77,200.743 C 163.113,189.993 157.707,190.836 153.66,194.672 C 151.512,202.293 150.371,204.047 148.223,200.336 C 146.41,198.782 143.793,199.118 141.574,200.536 C 134.727,203.774 133.922,198.918 128.883,198.11 C 131.125,191.215 115.727,191.68 124.25,179.09 C 129.098,171.95 133.567,167.012 140.77,175.247 C 145.813,181.133 148.543,175.461 149.633,170.797 C 160.711,172.887 164.207,169.317 157.086,162.5 C 149.41,157.016 150.02,146.575 157.488,147.93 C 169.473,150.411 160.961,134.731 169.977,137.813 C 178.051,141.356 183.914,143.625 182.117,133.954 C 181.402,130.977 191.223,133.09 192.418,135.024 C 199.719,143.012 199.246,139.735 202.918,132.211 C 208.567,122.731 205.16,149.692 213.488,148.54 C 215.817,148.278 216,151 215.938,153.137 C 215,159.61 214.609,160.071 210.063,158.653 C 202.543,156.024 198.645,158.52 202.41,162.09 C 206.188,166.481 203.559,166.411 199.793,167.551 C 193.481,169.102 193.496,174.34 201.203,174.633 C 205.363,174.567 208.453,175.036 210.469,176.047 C 212.145,179.754 215.703,178.809 214.899,173.821 C 221.016,171.704 234.567,175.934 229.805,183.938 C 226.481,182.219 225.004,183.836 224.367,186.969 C 222.641,194.547 223.508,193.528 212.684,192.43 C 202.645,193.141 177.981,188.141 180.852,200.321 L 180.856,200.336 z M 251.715,123.692 C 249.152,119.758 244.762,118.137 240.145,116.012 C 230.789,111.543 239.777,99.973 246.172,95.426 C 254.227,92.547 257.84,87.192 257.91,81.77 C 258.551,78.411 259.942,77.262 262.281,77.903 C 266.27,79.504 268.219,73.243 267.059,71.399 C 265.199,69.239 268.106,68.637 269.887,69.739 C 274.074,71.77 277.457,70.829 280.012,68.497 C 282.363,65.223 284.242,65.993 285.797,69.532 C 288.965,75.606 293.981,77.372 299.149,77.028 C 302.871,77.055 308.613,78.79 307.727,86.43 C 308.18,90.59 310.18,94.993 313.387,94.907 C 317.063,94.813 322.016,95.719 321.949,100.86 C 322.602,104.129 326.039,107.325 329.387,109.782 C 331.965,112.454 328.981,116.766 328.516,120.965 C 328.293,122.75 326.945,124.305 325.672,122.762 C 323.473,120.993 322.371,120.977 321.953,123.891 C 321.817,127.2 320.402,126.493 319.063,125.098 C 316.93,123.165 315.113,120.879 312.977,118.942 C 309.188,116.207 302.692,119.086 306.012,127.102 C 310.332,135.45 318.102,144.274 326.602,139.477 C 327.57,141.864 330.188,144.645 327.567,144.942 C 322.356,146.879 319.422,151.961 320.512,156.055 C 321.891,160.161 320.738,160.301 314.762,159.731 C 304.156,159.106 304.809,183.899 283.735,166.633 C 280.555,164.524 276.75,165.204 273.07,167.516 C 269.121,171.129 268.481,169.879 266.309,165.911 C 263.344,160.875 258.594,158.997 257.219,161.84 C 255.824,164.852 254.106,164.215 252.758,161.895 C 250.938,158.836 245.68,160.563 245.102,162.895 C 244.469,166.067 241.629,166.895 241.777,163.868 C 242.274,157.528 224.469,167.043 226.859,158.594 C 227.485,156.481 220.313,147.532 216.801,146.086 C 220.559,142.379 222.625,139.098 220.52,135.086 C 219.137,132.098 222.844,133.192 226.137,132.364 C 229.281,131.633 230.68,123.129 233.09,127.856 C 234.684,131.149 250.75,130.207 252.688,127.547 C 258.32,129.805 263.438,123.579 261.309,120.243 C 259.457,117.563 276.453,119.614 280.949,119.391 C 285.621,118.793 286.305,114.715 284.149,110.883 C 281.774,107.184 283.598,105.711 287.352,105.614 C 296.051,105.711 296.473,98.516 290.649,96.844 C 286.559,96.051 286.297,95.247 287.863,91.313 C 288.496,88.875 285.223,87.743 283.926,91.418 C 282.934,95.258 283.633,99.11 288.485,100.028 C 291.602,100.247 292.543,103.204 287.668,102.387 C 283.508,101.84 276,106 280.34,111.207 C 283.274,114.688 281.559,115.516 277.125,115.356 C 271.754,115.356 266.383,115.172 261.012,115.172 C 258.09,114.52 256.391,117.274 257.914,120.981 C 259.211,123.395 253.43,125.336 251.719,123.676"
     style="fill:#27a451;fill-rule:evenodd;stroke:none;fill-opacity:1" />
  <path
     id="path18"
     d="M 339.219,465.161 C 338.582,472.786 341.988,475.579 352.219,475.497 C 358.051,474.454 362.75,473.379 367.305,471.051 C 376.102,466.934 382.109,469.946 382.832,481.18 C 386.168,474.43 391.442,465.196 378.297,461.79 C 374.223,460.426 368.547,460.348 361.277,461.551 C 356.027,478.02 342.949,453.997 339.223,465.161 L 339.219,465.161 z M 271.363,477.926 C 265.828,471.665 262.293,465.719 272.801,462.032 C 276.074,462.352 279.352,462.672 282.629,462.993 C 286.063,463.825 286.856,460.329 283.348,459.141 C 280.871,458.743 278.395,458.34 275.918,457.938 C 276.235,447.665 284.067,443.891 294.137,446.622 C 288.242,460.614 293.434,466.254 297.973,472.387 C 294.059,474.633 288.465,474.555 280.711,471.668 C 274.879,467.415 271.121,470.223 271.363,477.926 z M 187.211,472.387 C 186.731,464.04 190.723,457.938 202.555,464.922 C 207.828,468.293 213.102,469.258 218.375,464.922 C 225.008,459.45 227.43,469.625 226.524,473.348 C 221.188,480.532 205.637,474.231 199.672,469.016 C 194.879,465.969 190.723,467.735 187.207,472.387 L 187.211,472.387 z M 311.406,326.926 C 307.488,330.696 304.692,335.915 302.059,339.688 C 296.426,339.29 290.352,338.243 284.078,340.407 C 280.723,337.114 277.367,334.219 274.012,334.149 C 271.371,331.825 268.25,328.372 269.457,324.758 C 271.692,320.864 272.973,316.665 274.25,312.719 C 277.883,306.821 279.004,304.411 286.235,308.387 C 285.836,306.141 283.508,301.075 281.465,302.61 C 272.555,309.422 264.719,313.383 253.391,306.461 C 252.434,319.625 251.473,332.79 250.516,345.954 C 251.113,360.243 246.883,361.286 240.449,356.309 C 230.324,351.067 218.973,342.875 212.399,346.196 C 205.852,348.219 199.059,348.79 190.582,339.215 C 177.957,328 155.012,300.997 137.356,299.723 C 129.922,299.723 125.688,302.129 128.488,309.836 C 138.649,306.688 145.758,309.903 149.344,316.094 C 154.93,327.618 132.113,325.688 126.57,330.54 C 129.766,333.508 132.961,336.477 136.16,339.45 C 146.109,329.524 155.059,332.661 163.731,339.45 C 175.317,350.083 174.918,366.782 202.09,357.508 C 215.852,357.829 230.629,376.204 244.047,382.071 C 261.274,389.622 279.094,369.407 254.113,364.973 C 247.945,363.961 251.18,360.411 255.309,361.122 C 281.106,365.805 271.867,389.477 246.918,388.09 C 245.481,409.04 244.043,429.75 242.606,450.704 C 243.668,453.555 245.742,461.141 256.508,452.387 C 258.695,450.637 259.703,452.387 258.426,454.313 C 241.098,474.739 238.047,436.95 220.067,458.407 C 237.004,459.508 242.504,481.493 262.024,472.372 C 260.863,465.309 262.699,459.848 271.133,457.922 C 274.57,441.161 254.176,440.207 251.477,453.051 C 250.559,454.977 247.203,454.653 246.922,451.907 C 247.774,443.204 267.422,432.75 274.012,446.852 C 281.203,440.59 288.715,439.465 296.547,443.481 C 303.899,434.422 311.25,435.911 318.602,440.352 C 321.461,442.856 318.457,445.879 316.207,444.446 C 295.164,429.188 280.899,483.442 324.356,468.766 C 334.617,460.707 338.328,453.594 351.445,461.543 C 356.238,464.754 358.254,460.622 354.543,451.911 C 347.106,440.375 331.184,439.95 314.043,456.485 C 311.969,458.418 309.152,456.415 307.813,453.84 C 306.098,448.528 311.543,450.934 314.285,451.434 C 320.235,446.176 325.43,441.68 332.024,439.637 C 328.988,416.438 325.953,393.239 322.914,370.04 C 322.195,369.961 321.477,369.879 320.758,369.801 C 319.699,389.391 287.332,385.293 284.317,365.707 C 284.078,347.727 295.344,340.02 318.121,342.59 C 317.004,334.563 315.887,326.536 314.766,318.508 C 312.848,318.094 312.047,322.192 311.41,326.934 L 311.406,326.926 z M 307.149,369.532 C 306.227,363.36 311.742,365.196 316.781,369.352 C 317.156,390.411 269.551,372.645 297.336,348.723 C 310.785,340.754 326.598,355.415 339.32,341.239 C 347.348,332.957 357.481,339.45 367.492,345.071 C 379.488,349.528 381.785,338.946 374.219,333.774 C 343.453,318.344 350.481,314.102 353.859,305.094 C 356.637,300.684 363.465,301.024 361.309,304 C 353.66,316.938 367.856,323.465 379.121,327.004 C 396.215,332.997 401.426,307.942 416.199,318.426 C 420.922,322.868 421.043,324.633 416.559,323.719 C 404.309,319.836 398.254,325.575 390.387,333.211 C 380.809,343.801 388.629,348.516 403.652,345.625 C 411.25,342.438 417.012,354.383 420.738,359.317 C 422.313,364.184 420.977,364.915 416.742,361.504 C 392.477,324.223 379.555,385.665 360.035,355.297 C 355.797,350.43 352.039,350.918 348.77,356.758 C 339.758,363.122 330.215,367.567 318.781,365.153 C 309.391,359.594 300.141,360.297 303.152,371.54 C 304.664,375.004 307.27,373.606 307.149,369.532 z M 157,287.434 C 157.078,283.907 157.797,281.336 159.156,279.731 C 160.195,278.528 161.235,278.61 162.27,279.969 C 169.082,280.153 175.133,290.883 188.402,296.344 C 202.828,300.719 211.617,288.278 200.387,283.102 C 189.758,278.93 179.129,274.754 168.5,270.583 C 164.188,269.622 162.109,268.016 162.27,265.77 C 162.668,258.625 163.867,255.094 166.824,259.508 C 170.66,261.594 174.496,263.68 178.332,265.77 C 182.254,266.743 185.613,266.594 185.043,258.547 C 183.832,252.754 187.672,252.602 192.235,253.25 C 194.152,256.422 195.188,260.032 195.828,263.844 C 200.102,277.231 212.106,278.973 217.738,269.879 C 218.613,267.672 215.141,261.364 212.945,258.047 C 210.836,254.094 209.766,253.122 215.246,254.211 C 219.356,254.477 223.324,254.868 222.918,259.028 C 224.195,263.77 225.473,265.133 226.754,266.008 C 228.797,273.887 224.074,277.2 219.563,282.864 C 214.91,286.711 212.262,289.997 222.199,295.145 C 237.856,294.79 234.414,308.188 245.453,312.723 C 247.77,315.047 248.438,317.696 248.199,320.668 C 247.641,327.489 247.211,332.629 246.652,339.45 C 239.602,325.219 230.852,318.516 221.238,311.997 C 206.129,298.473 208.211,326.293 189.832,311.036 C 171.66,295.434 164.688,284.899 156.988,287.438 L 157,287.434 z M 187.336,215.86 C 185.516,214.024 186.957,210 188.5,205.907 C 195.926,208.481 201.817,209.094 196.953,195.954 C 198.668,195.325 200.527,194.903 203.363,195.954 C 213.43,210.403 230.805,201.348 243.59,217.032 C 250.266,224.04 256.742,222.711 258.164,217.618 C 259.766,213.024 261.332,213.536 263.492,218.727 C 266.024,221.282 270.289,222.004 274.777,222.883 C 284.317,222.457 292.602,235.278 299.555,223.469 C 303.207,217.415 307.754,215.047 313.359,219.622 C 314.469,223.707 306.121,225.094 307.067,226.911 C 310.363,233.231 326.406,229.129 328.121,221.422 C 332.488,211.875 344.324,215.891 346.485,205.028 C 349.59,207.075 352.699,209.125 355.809,211.176 C 349.637,214.016 347.496,218.114 349.399,223.473 C 357.832,233.293 363.254,223.442 365.824,215.442 C 369.297,215.583 372.406,216.672 375.047,218.497 C 366.09,227.25 378.781,233.715 391.453,232.028 C 391.164,234.368 391.082,235.766 390.789,238.11 C 391.004,244.852 382.867,240.536 362.684,238.782 C 350.047,236.583 339.27,234.286 332.199,236 C 317.039,240.875 306.426,247.594 312.16,264.504 C 301.75,256.286 291.406,259.907 288.707,244.844 C 286.367,232.247 272.352,236.536 274.195,247.477 C 275.039,253.903 276.149,260.77 272.738,260.067 C 270.41,259.969 268.078,259.872 265.746,259.774 C 259.594,260.957 260.516,254.489 261.668,247.77 C 263.047,238.083 258.926,237.84 254.344,235.852 C 248.625,236.043 240.711,231.344 231.649,222.59 C 222.777,215.153 215.242,216.465 206.289,223.758 C 200.606,227.758 195.164,232.247 190.258,237.813 C 188.317,237.813 187.418,240.329 185.473,240.329 C 181.504,235.325 180.531,234.688 185.988,230.348 C 189.457,228.372 192.27,225.098 194.629,222.004 C 197.09,215.571 192.707,215.278 187.344,215.86"
     style="fill:#8a605a;fill-rule:evenodd;stroke:none;fill-opacity:1" />
  <path
     id="path20"
     d="M 480.813,584.555 C 486.899,578.922 492.695,572.903 498.121,566.567 C 495.547,567.235 492.985,568.161 490.41,569.352 C 465.762,576.059 463.828,557.692 434.359,569.352 C 411.27,577.922 400.395,556.833 376.879,569.352 C 359.391,578.879 347.219,558.696 322.899,569.352 C 298.606,577.918 290.879,559.196 266.559,569.352 C 255.238,574.274 246.024,573.426 237.985,569.352 C 216.352,558.418 205.481,578.801 183.684,569.352 C 173.004,565.086 164.43,565.821 157.035,569.352 C 135.641,581.915 121.965,562.817 101.106,570.372 C 82.5309,580.043 77.1797,571.989 61.8438,570.168 C 67.125,576.043 72.7305,581.606 78.5938,586.891 C 85.9919,588.02 93.2499,586.59 101.262,582.387 C 121.192,574.629 135.035,594.723 157.149,582.387 C 164.762,579.399 173.16,579.231 181.676,582.387 C 205.649,593.125 213.965,572.957 236.442,582.387 C 246.781,587.336 257.57,587.336 268.805,582.387 C 291.406,573.829 301.813,592.622 324.578,582.387 C 345.156,572.965 357.395,592.895 379.344,582.387 C 402.809,571.278 412.524,593.043 435.117,582.387 C 456.301,573.79 466.82,584.77 480.809,584.559 L 480.813,584.555 z M 501.942,562.02 C 504.703,558.661 507.395,555.133 509.961,551.543 C 503.289,551.36 496.879,552.668 490.414,555.665 C 465.766,562.372 463.832,544.004 434.363,555.665 C 411.274,564.235 400.399,543.145 376.883,555.665 C 359.395,565.192 347.223,545.008 322.902,555.665 C 298.609,564.235 290.883,545.508 266.563,555.665 C 255.242,560.586 246.027,559.739 237.988,555.665 C 216.356,544.731 205.485,565.114 183.688,555.665 C 173.008,551.399 164.434,552.133 157.039,555.665 C 135.645,568.227 121.563,548.11 100.703,555.665 C 89.5429,561.473 79.5039,562.188 65.8789,555.665 C 59.1094,551.668 54.9961,552.883 48.75,554.176 C 51.8594,558.379 55.1133,562.454 58.5039,566.403 C 67.1602,566.426 72.5703,569.051 78.2617,570.465 C 84.2499,571.954 90.5469,572.102 101.266,566.485 C 121.195,558.727 135.039,577.801 157.152,565.465 C 164.766,562.477 173.164,562.309 181.68,565.465 C 205.652,576.204 213.969,556.036 236.445,565.465 C 246.785,570.415 257.574,570.415 268.809,565.465 C 291.41,556.907 301.817,575.696 324.582,565.465 C 345.16,556.043 357.399,575.973 379.348,565.465 C 402.813,554.356 412.527,576.122 435.121,565.465 C 461.051,554.942 471.004,573.758 490.895,565.465 C 494.297,563.696 497.961,562.555 501.938,562.024 L 501.942,562.02 z M 512.317,548.243 C 514.715,544.805 517.051,541.192 519.254,537.524 C 509.129,535.352 499.859,536.149 490.477,540.497 C 465.828,547.204 463.895,528.836 434.426,540.497 C 411.336,549.067 400.461,527.977 376.945,540.497 C 359.457,550.024 347.285,529.84 322.965,540.497 C 298.672,549.063 290.945,530.34 266.625,540.497 C 255.305,545.418 246.09,544.571 238.051,540.497 C 216.418,529.563 205.547,549.946 183.75,540.497 C 173.07,536.231 164.496,536.965 157.102,540.497 C 135.707,553.059 121.625,532.942 100.766,540.497 C 89.6059,546.305 79.5664,547.02 65.9414,540.497 C 56.543,536.188 51.3438,538.321 39.5,540.747 C 41.8164,544.438 44.2657,548.02 46.7891,551.54 C 53.6172,549.516 58.0469,548.348 65.4297,551.77 C 77.8516,558.141 88.6209,558.403 101.27,551.77 C 121.199,544.012 135.043,564.106 157.156,551.77 C 164.77,548.782 173.168,548.614 181.684,551.77 C 205.656,562.508 213.973,542.34 236.449,551.77 C 246.789,556.719 257.578,556.719 268.813,551.77 C 291.414,543.211 301.82,562 324.586,551.77 C 345.164,542.344 357.402,562.278 379.352,551.77 C 402.817,540.661 412.531,562.426 435.125,551.77 C 461.055,541.243 471.008,560.063 490.899,551.77 C 497.082,548.551 504.113,547.418 512.317,548.243 z M 521.051,534.559 C 523.145,531.008 525.176,527.278 527.074,523.5 C 513.785,518.954 502.219,518.833 490.477,524.274 C 465.828,530.981 463.895,512.614 434.426,524.274 C 411.336,532.844 400.461,511.754 376.945,524.274 C 359.457,533.801 347.285,513.618 322.965,524.274 C 298.672,532.84 290.945,514.118 266.625,524.274 C 255.305,529.196 246.09,528.348 238.051,524.274 C 216.418,513.34 205.547,533.723 183.75,524.274 C 173.07,520.008 164.496,520.743 157.102,524.274 C 135.707,536.836 121.625,516.719 100.766,524.274 C 89.6059,530.083 79.5664,530.797 65.9414,524.274 C 52.0039,517.957 42.7461,527.247 32.2383,528.391 C 34.0469,531.77 35.9688,535.059 37.9492,538.305 C 43.6992,537.602 54.3594,531.434 65.4961,536.598 C 77.918,542.973 88.6879,543.235 101.336,536.598 C 121.266,528.84 135.109,548.934 157.223,536.598 C 164.836,533.61 173.235,533.442 181.746,536.598 C 205.719,547.336 214.035,527.168 236.512,536.598 C 246.852,541.547 257.641,541.547 268.879,536.598 C 291.481,528.04 301.887,546.833 324.652,536.598 C 345.231,527.176 357.469,547.106 379.418,536.598 C 402.883,525.489 412.598,547.254 435.192,536.598 C 461.121,526.075 471.07,544.891 490.965,536.598 C 499.227,532.301 509,531.719 521.059,534.555 L 521.051,534.559 z M 533.035,510.727 C 517.172,504.055 503.938,502.981 490.473,509.223 C 465.824,515.93 463.891,497.563 434.422,509.223 C 411.332,517.793 400.457,496.704 376.942,509.223 C 359.453,518.75 347.281,498.567 322.961,509.223 C 298.668,517.793 290.942,499.067 266.621,509.223 C 255.301,514.141 246.086,513.297 238.047,509.223 C 216.414,498.29 205.543,518.672 183.746,509.223 C 173.067,504.957 164.492,505.692 157.098,509.223 C 135.703,521.786 121.621,501.668 100.762,509.223 C 89.6019,515.032 79.5625,515.747 65.9375,509.223 C 50.6094,502.274 40.7774,513.676 25.0508,513.887 C 26.8203,517.895 28.7305,521.786 30.7227,525.625 C 41.0469,524.086 51.9805,514.114 65.4883,520.383 C 77.9102,526.758 88.6799,527.02 101.328,520.383 C 121.258,512.625 135.102,532.719 157.215,520.383 C 164.828,517.395 173.227,517.227 181.738,520.383 C 205.711,531.122 214.027,510.954 236.504,520.383 C 246.844,525.333 257.633,525.333 268.871,520.383 C 291.473,511.825 301.879,530.618 324.645,520.383 C 345.223,510.961 357.461,530.891 379.41,520.383 C 402.875,509.274 412.59,531.04 435.184,520.383 C 461.113,509.86 471.063,528.676 490.957,520.383 C 500.879,515.219 512.988,515.422 528.617,520.465 C 530.156,517.297 531.641,514.032 533.035,510.727"
     style="fill:#0074a0;fill-rule:evenodd;stroke:none;fill-opacity:1" />
  <path
     id="path22"
     d="M 23.7852,511.129 C 38.8047,510.235 51.3985,498.805 65.4727,505.333 C 77.8946,511.704 88.6639,511.965 101.313,505.333 C 121.242,497.575 135.086,517.668 157.199,505.333 C 164.813,502.344 173.211,502.176 181.723,505.333 C 205.695,516.071 214.012,495.903 236.488,505.333 C 246.828,510.282 257.617,510.282 268.856,505.333 C 291.457,496.77 301.863,515.563 324.629,505.333 C 345.207,495.907 357.445,515.84 379.395,505.333 C 402.859,494.223 412.574,515.989 435.168,505.333 C 461.098,494.805 471.047,513.625 490.942,505.333 C 502.067,499.543 515.934,500.497 534.426,507.457 C 545.102,481.09 551.125,451.051 551.125,417.571 L 551.125,5.64502 L 5.625,5.64502 L 5.625,417.571 C 5.625,452.583 12.1446,483.77 23.7617,511.129 L 23.7852,511.129 z M 185.367,478.024 C 182.332,466.477 181.535,456.504 196.395,457.543 C 201.82,460.368 211.805,468.196 214.781,458.551 C 221.039,445.149 229.192,447.27 238.18,448.481 C 239.293,428 241.742,408.188 242.859,387.707 C 230.332,380.852 211.445,358.481 197.399,361.52 C 195.395,367.114 191.606,369.579 186.035,368.907 C 181.356,368.239 180.688,369.352 184.031,372.262 C 185.699,379.313 182.918,382.782 175.676,382.668 C 167.508,380.094 170.348,388.29 164.313,386.696 C 160.637,386.184 157.145,386.774 153.652,387.551 C 143.883,390.278 148.973,377.051 141.586,381.997 C 134.789,385.352 128.594,384.602 126.125,378.825 C 122.164,368.309 113.789,388.243 111.051,374.614 C 109.758,369.555 99.9649,377.336 100.473,367.227 C 100.879,364.622 98.6919,364.016 94.8239,364.122 C 83.5739,364.262 76.9024,352.446 84.5309,341.192 C 88.9809,334.661 74.4414,330.047 84.4339,328.954 C 94.3239,328.016 87.1989,318.231 95.4649,319.891 C 102.93,321.457 104.602,319.446 100.477,313.848 C 97.4529,312.184 100.324,305.797 104.453,298.739 C 89.8009,294.907 87.1599,289.481 92.1209,282.961 C 97.9299,279.485 90.3709,270.454 99.4729,266.848 C 101.055,267.516 101.832,266.403 101.813,263.493 C 99.8749,241.219 110.402,241.153 116.52,246.032 C 120.402,249.321 122.254,248.133 120.613,244.692 C 117.192,240.856 117.301,237.754 121.867,234.286 C 125.43,233.274 132.344,231.493 134.567,235.024 C 138.129,240.395 139.914,239.657 139.914,234.286 C 133.992,231.153 129.414,228.02 134.235,224.887 C 139.469,220.079 138.465,218.844 131.227,221.196 C 117.188,221.305 114.293,214.258 122.535,200.043 C 124.957,197.067 124.735,195.938 121.867,193.329 C 113.039,185.329 120.383,176.989 127.547,169.825 C 132.227,164.973 136.238,165.84 140.918,170.833 C 143.145,173.739 145.149,173.629 145.598,171.165 C 146.375,166.243 148.938,164.899 153.285,167.137 C 157.965,167.918 158.188,166.918 153.953,164.118 C 143.324,158.36 148.895,141.415 155.957,143.973 C 166.344,148.407 156.856,127.629 171,134.575 C 175.336,136.415 181.34,140.887 179.02,132.227 C 177.492,128.551 184.125,128.52 193.141,131.692 C 196.574,132.93 197.524,139.207 200.41,129.207 C 203.027,124.29 209.785,126.676 210.438,135.922 C 210.524,148.36 217.926,142.938 217.422,138.137 C 215.93,130.75 217.563,128.512 221.465,129.543 C 229.477,132.336 226.465,115.934 237.176,124.172 C 240.516,126.079 243.859,125.997 247.203,125.211 C 243.266,121.457 238.406,120.286 234.836,117.457 C 228.676,110.864 232.672,102.176 241.219,94.356 C 245.777,90.782 252.996,87.801 253.551,83.883 C 254.106,78.512 257.086,72.797 260.852,74.657 C 263.77,76.325 264.457,75.063 264.051,71.118 C 264.477,60.235 273.945,72.879 279.313,65.29 C 281.563,61.508 285.453,61.446 287.637,64.754 C 296.266,82.106 308.699,66.856 311.035,85.571 C 312.774,97.817 320.289,87.809 324.406,96.649 C 325.324,100.922 326.848,102.915 330.086,105.711 C 332.988,107.833 334.117,109.258 333.492,114.473 C 330.524,128.344 329.336,126.243 326.574,125.821 C 322.547,125.125 324.699,135.383 316.715,127.532 C 309.219,116.997 306.438,122.168 310.031,127.532 C 330.727,154.766 328.395,114.036 346.133,126.864 C 346.43,121.598 344.352,115.09 354.152,117.465 C 356.824,119.813 360.785,121.86 362.172,125.321 C 364.063,129.907 365.957,127.645 367.852,121.497 C 370.676,113.875 374.473,115.957 378.211,117.469 C 383.336,121.047 387.121,124.629 389.574,128.211 C 392.102,131.563 392.246,133.805 388.906,136.602 C 385.527,138.09 385.344,139.286 388.906,141.301 C 401.988,148.368 384.356,155.879 396.258,156.411 C 400.235,156.258 404.16,157.227 404.547,160.809 C 405.203,166.083 409.731,166.266 413.973,166.145 C 424.938,164.86 418.824,177.348 429.348,178.231 C 441.09,177.825 441.067,199.633 438.039,206.77 C 435.231,212.903 430.047,210.676 425.34,210.125 C 422.555,208.114 420.215,208.336 418.32,210.793 C 407.735,215.157 407.067,219.524 414.309,223.887 C 418.875,229.032 421.438,228.809 425.004,226.235 C 434.957,221.008 428.961,237.684 440.379,230.262 C 450.211,226.829 439.367,246.625 452.746,236.305 C 458.32,232.821 460.992,236.407 464.777,241.004 C 466.449,246.262 471.129,246.153 470.125,251.747 C 467.828,256.192 470.902,258.567 473.309,260.911 C 475.715,263.25 479.473,267.961 473.563,268.766 C 464.434,267.25 474.285,284 461.481,280.012 C 455.539,274.946 445.18,278.29 436.695,271.551 C 435.305,270.223 433.359,268.895 432.52,267.567 C 430.461,263.079 429.625,265.051 430.016,267.942 C 433.563,278.333 431.508,279.899 426.672,280.614 C 420.992,281.395 415.676,282.489 409.992,285.059 C 401.719,288.672 404.149,291.973 410.293,290.344 C 422.633,288.309 426.531,289.352 435.063,297.411 C 438.231,300.891 445.133,299.067 446.395,305.79 C 446.613,309.481 446.141,316.5 449.067,316.868 C 451.738,317.09 454.781,315.469 457.09,317.54 C 466.758,327.946 470.223,333.141 460.863,334.594 C 458.938,334.915 458.539,336.465 461.879,337.766 C 474.156,351.176 466.297,365.426 449.68,358.129 C 447.52,356.622 442.602,353.129 439.703,352.457 C 440.817,355.477 442.348,359.239 447.055,361.52 C 455.738,366.184 456,373.805 448.578,373.672 C 446.34,372.786 445.672,374.481 446.387,375.618 C 447.766,382.399 442.285,381.54 438.395,378.348 C 437.078,376.442 435.184,375.79 435.109,378.801 C 436.613,390.833 432.297,389.321 423.996,384.34 C 422.102,382.774 420.207,383 418.313,385.008 C 416.141,391.278 410.906,388.926 404.274,382.661 C 402.242,379.383 399.84,380.532 400.012,383.516 C 399.363,390.293 394.246,391.801 391.102,386.926 C 389.871,382.071 387.617,383.684 387.496,385.563 C 386.332,393.809 382.438,394.188 378.203,386.688 C 377.402,382.883 377.051,381.766 373.293,383.333 C 370.059,385.247 365.945,386.04 364.504,378.969 C 363.297,374.54 362.113,374.883 359.492,374.27 C 355.262,372.93 352.809,370.692 352.141,367.555 C 349.828,361.887 349.348,362.707 347.797,361.512 C 340.555,366.563 333.867,367.786 325.735,369.235 C 328.852,392.512 331.973,415.793 335.094,439.075 C 350.914,439.969 359.606,445.79 361.168,456.532 C 395.305,455.395 395.688,468.965 382.563,488.43 C 374.414,485.524 386.258,467.344 365.18,475.336 C 346.375,483.309 335.176,481.465 335.094,465.266 C 324.899,474.891 313.981,478.696 302,473.993 C 295.649,478.75 288.742,480.426 280.606,475.333 C 276.262,471.977 274.59,473.098 275.594,478.688 C 275.813,484.168 273.367,484.731 268.242,480.364 C 267.129,479.024 265.012,477.68 263.899,476.336 C 252.535,479.833 241.856,477.133 230.488,467.204 C 232.422,482.809 216.004,482.274 204.731,477.68 C 198.906,475.348 193.817,465.493 191.68,473.223 C 190.184,475.934 188.25,477.848 185.344,478.016 L 185.367,478.024 z M 319.688,321.875 C 320.656,328.934 321.266,336.364 322.235,343.422 C 327.957,344.196 332.504,343.196 335.32,339.59 C 332.41,336.188 329.863,332.54 329.871,327.18 C 328.539,322.129 325.383,320.118 319.692,321.879 L 319.688,321.875 z M 235.883,296.102 C 238.274,301.551 243.129,306.372 248.348,310.547 C 248.586,307.821 249.067,304.61 249.305,301.879 C 246.926,298.911 243.27,295.7 239.715,292.973 C 237.16,289.606 235.242,291.129 235.879,296.102 L 235.883,296.102 z M 212.383,341.618 C 212.891,337.5 213.41,333.5 209.988,327.411 C 216.82,326.852 218.418,323.883 218.856,315.372 C 234.098,323.54 249.485,343.969 246.184,353.903 C 239.457,353.77 227.906,339.325 212.379,341.622 L 212.383,341.618 z M 83.1559,590.895 C 188.168,680.692 374.66,679.614 477.356,587.684 C 463.715,586.559 457.602,577.075 434.359,586.274 C 411.27,594.844 400.395,573.758 376.879,586.274 C 359.391,595.805 347.219,575.618 322.899,586.274 C 298.606,594.844 290.879,576.118 266.559,586.274 C 255.238,591.196 246.024,590.348 237.985,586.274 C 216.352,575.34 205.481,595.723 183.684,586.274 C 173.004,582.008 164.43,582.743 157.035,586.274 C 135.641,598.836 121.559,578.719 100.699,586.274 C 94.7769,589.356 89.1679,591.004 83.1719,590.895"
     style="fill:#fffdfd;fill-rule:evenodd;stroke:none" />
</svg>