<svg
   xmlns="http://www.w3.org/2000/svg"
   version="1.1"
   id="svg62"
   viewBox="0 0 798.92388 954.79999"><title>Herb Bielsk Podlaski</title>
  <metadata
     id="metadata68">
    <rdf:RDF>
      <cc:Work
         rdf:about="">
        <dc:format>image/svg+xml</dc:format>
        <dc:type
           rdf:resource="http://purl.org/dc/dcmitype/StillImage" />
        <dc:title></dc:title>
      </cc:Work>
    </rdf:RDF>
  </metadata>
  <defs
     id="defs66" />
  <sodipodi:namedview
     pagecolor="#ffffff"
     bordercolor="#666666"
     borderopacity="1"
     objecttolerance="1"
     gridtolerance="1"
     guidetolerance="1"
     id="namedview64"
     showgrid="false"
     units="mm"
     fit-margin-top="0"
     fit-margin-left="0"
     fit-margin-right="0"
     fit-margin-bottom="0" />
  <g
     id="g1031"
     transform="matrix(0.47665006,0,0,0.47665006,202.22106,83.666313)">
    <g
       transform="matrix(0.97894122,0,0,0.97894122,112.65133,456.27484)"
       id="g1023">
      <path
         style="opacity:1;fill:#000000;fill-opacity:1;fill-rule:evenodd;stroke:none;stroke-width:4.73028088;stroke-linecap:butt;stroke-linejoin:round;stroke-miterlimit:4;stroke-dasharray:none;stroke-dashoffset:0;stroke-opacity:1"
         d="m -548.35231,-645.39594 -0.1036,1251.15925 c 29.84803,448.28109 406.55145,796.35209 858.86203,795.07519 449.98546,-1.876 823.30118,-349.3334 852.99378,-795.31237 l 0.3231,-1250.92207 z"
         id="rect998" />
      <path
         style="opacity:1;fill:#ffffff;fill-opacity:1;fill-rule:evenodd;stroke:none;stroke-width:4.73028088;stroke-linecap:butt;stroke-linejoin:round;stroke-miterlimit:4;stroke-dasharray:none;stroke-dashoffset:0;stroke-opacity:1"
         d="m -532.79409,-629.47741 1.68218,1235.41626 c 29.89982,436.79995 400.67257,775.56205 841.45337,774.29705 438.50998,-1.8115 804.46174,-339.7454 834.20564,-774.29705 l 0.7351,-1235.41626 z"
         id="rect1000" />
    </g>
    <g
       transform="matrix(4.675301,0,0,4.675301,-949.94821,-2009.75)"
       id="g992">
      <path
         style="fill:#1b1918;fill-rule:evenodd"
         d="m 229.87519,454.72078 c -2.8835,0.0576 -6.36478,1.68958 -8.77538,2.51758 -2.1423,0.7359 -4.1302,1.85261 -7.3711,3.34961 -2.2307,1.0304 -7.16308,5.28609 -7.86328,5.80469 -6.5596,7.77449 -5.81507,14.52393 -3.26367,20.14843 1.1595,2.5556 2.75698,5.13792 3.83398,9.32422 0.3372,1.3104 0.33575,1.67855 -0.56445,3.12695 -0.7934,1.2771 -0.67069,0.36244 -1.92969,1.17774 -0.6843,0.0648 -1.37906,-0.29187 -2.19726,-0.73047 -3.6156,-1.9388 -6.07291,-1.34357 -8.59571,-0.85937 -2.3102,0.44339 -3.95227,0.008 -5.32617,-0.0684 -2.292,-0.1272 -3.82114,-0.0714 -6.81054,-2.05079 -0.9084,-0.6013 -3.48691,-0.75847 -4.81641,-1.26367 -1.8993,-0.8077 -2.91597,-0.0956 -4.88477,0.31836 -2.3019,0.4839 -6.11648,2.14591 -8.58398,3.53711 -0.4191,0.2365 -0.84711,-0.21782 -1.32031,-0.13672 -1.4231,0.2442 -2.21306,-0.37017 -3.78516,0.57813 -1.5419,0.9301 -2.42123,1.48935 -4.49023,1.16015 -2.2165,-0.3531 -4.75193,1.01006 -6.51563,-0.93164 0.9125,-6.3072 6.50931,-11.27925 5.0332,-22.97265 -1.1217,-15.174 -15.39285,-23.43832 -26.68945,-21.63672 -1.4124,1.092 14.64404,10.11344 12.74024,25.71094 -4.4775,12.4771 -12.37196,23.11101 -2.50196,32.51171 1.409,1.3423 1.36692,1.54053 3.66602,2.82813 -1.8701,0.2506 -0.83765,0.074 -2.83985,0.69726 -1.28691,0.40061 -2.64665,0.89626 -3.88085,1.53126 -1.588,0.8163 -3.63853,1.90859 -3.91993,3.46679 0,0.276 2.6836,-0.0653 2.6836,0.30274 -0.0678,-0.2409 3.41477,0.943 5.17578,1.3125 3.1016,0.6512 4.26299,4.63485 6.11719,6.62695 2.4076,2.5864 2.4178,-1.27538 5.6914,4.60742 0.2477,0.4454 1.40304,1.25122 0.36914,1.54492 -0.8041,0.2282 -4.35841,0.20923 -4.41211,0.61133 -0.2415,1.7975 3.98212,0.8117 5.29102,3.43359 1.4307,2.86491 0.75506,9.12414 0.60156,11.45704 -0.4246,6.4582 0.0388,5.68561 -1.22265,11.50781 -0.5492,2.5357 -1.59605,5.42915 -2.56055,8.09375 -0.8577,1.008 -3.23585,2.62526 -3.59375,3.41016 -1.2036,2.6374 -0.14118,4.59971 1.39062,6.38281 1.023,1.1912 -0.20851,0.81799 0.55469,3.40039 0.7432,2.1011 5.80185,6.9371 7.21875,7.9668 2.0982,1.52479 3.86518,2.55901 5.67578,2.75781 2.6845,0.2948 5.93293,0.89546 10.26563,-1.55664 1.3495,-0.9859 2.01151,-1.70464 2.88281,-3.17774 0.5574,-1.1659 0.78596,-2.14944 0.97656,-3.99414 9.75176,-1.04973 11.71257,-0.82451 13.53711,0.13672 6.0445,2.431 19.73953,2.93451 19.76563,3.09961 0.6204,3.9131 4.0619,14.87076 6.8789,16.41406 3.9005,4.9599 6.06783,8.03894 11.82813,12.89844 1.3742,1.1594 4.45396,5.74356 5.35546,7.59766 1.5518,3.1916 1.50427,2.34392 1.85937,4.51172 -0.149,2.19299 -0.0371,0.87536 0.19922,4.00976 -1.4658,5.0573 0.12376,17.45418 2.00586,18.67188 -1.5728,16.9296 -4.38642,28.01659 -5.16992,32.74609 -2.2975,0.5665 -24.83444,16.13488 -17.37304,19.01758 1.6059,0.6204 1.38849,-0.57714 1.64649,1.06836 9.62799,4.60207 21.13625,1.69605 22.11327,-0.11133 0.0208,-0.0713 0.0442,-0.13729 0.0664,-0.19531 0.006,-0.0533 0.002,-0.106 -0.0137,-0.15625 0.0477,0.0397 0.0371,0.0948 0.0137,0.15625 -0.007,0.0634 -0.0303,0.12844 -0.0664,0.19531 -0.0982,0.33659 0.15862,0.78481 4.10742,1.03906 0.0196,0.9746 0.16056,0.50129 0.82226,1.61719 1.0426,0.9804 22.15524,5.83345 25.33594,-1.87695 2.2444,-5.4404 2.19099,-8.26425 1.86719,-11.30664 2.7709,0.89569 5.24666,-1.281 6.82227,-3.8711 -2.1636,-5.6806 -4.68227,-9.55561 -4.54297,-13.91601 -0.3003,-5.2956 0.9107,-7.33399 1.75,-9.73829 7.2649,-1.6212 5.1732,-8.84632 3.7832,-12.20312 -3.7051,-3.7411 0.32401,-10.47979 2.37891,-15.92969 1.2208,0.3372 1.05518,-0.71495 2.36718,-0.59765 3.7346,0.3347 7.24399,0.0654 11.45899,-0.54493 2.2073,-0.3198 4.94945,-1.22367 7.28125,-1.20117 3.8132,0.0369 7.74607,0.31221 11.42187,-0.46289 5.7992,-1.2224 11.17332,-3.52125 15.16602,-5.03125 5.6295,-1.0862 19.66654,-9.56254 24.83984,-10.52344 -2.0975,1.8399 -10.26172,7.96512 -10.26172,10.54102 5.0415,-0.8138 20.98553,-8.43692 27.86133,-8.41992 1.4259,0.003 2.49979,0.6847 3.02149,1.4414 3.8052,-1.3163 17.55271,21.09005 16.85351,29.09375 -5.1671,11.7742 -11.08813,25.35135 -16.99023,36.87305 -4.7875,1.9388 -16.54466,8.9746 -14.00196,10.9043 -0.0712,1.0116 1.84291,2.31358 1.91211,2.36328 -0.007,2.6364 5.09836,3.90307 9.56836,3.76367 12.4506,0.1959 16.28308,1.32465 20.85938,-11.81055 2.1856,1.5661 3.84518,-0.41383 5.76758,-2.58593 -0.8031,-7.0946 -0.62601,-4.99282 -0.28711,-7.19922 1.0938,-7.1149 3.3267,-13.72124 8.0664,-19.36524 1.3189,-0.4224 2.9021,-0.52849 3.8418,-0.58789 3.9297,-0.2499 5.97171,-7.60255 4.19141,-10.22265 -5.3319,-6.7281 -6.38661,-6.39344 -5.62891,-21.14844 0.2384,0.2206 1.3743,1.48946 1.5625,2.07226 0.9985,1.8591 2.53554,3.16368 3.58594,5.10938 2.1695,4.0189 5.27606,6.71318 7.53907,10.76758 2.0473,3.6672 3.8796,4.38101 3.1543,9.47851 -1.1,3.92515 -2.13044,11.48087 -5.06056,18.82032 0.002,0.002 -0.001,0.009 -0.004,0.008 -1.98288,3.65725 -6.97072,11.20861 -7.92578,13.08984 -1.0267,2.0232 -1.60015,1.74238 -4.16015,3.11328 -2.3821,1.2753 -8.90569,6.43588 -9.64649,10.42578 -0.2377,1.28 0.15141,2.50806 3.28711,2.63086 -0.1855,0.2485 -0.93479,1.50127 -0.61719,1.72657 0.3172,0.2249 1.25391,0.95049 1.53711,1.09179 1.3391,0.6679 5.72306,0.65974 9.13086,0.86914 11.31581,-0.9084 13.66997,-1.7231 16.25197,-3.6289 3.7216,-2.7473 4.21559,-9.57654 4.37109,-11.30274 1.4854,0.59 1.36108,0.88963 3.45898,0.51953 0.9613,-1.38 1.91214,-3.38006 2.96094,-4.66796 -3.2303,-9.3399 0.55609,-19.76235 3.24609,-22.78125 0.1586,-0.5147 -0.35046,1.78233 0.0527,2.14453 0.2849,3.9243 2.32695,6.08663 4.03125,8.49023 -0.0929,-0.7798 -0.26442,-2.14058 0.42578,-5.05078 1.0935,2.3952 4.73035,6.80509 9.28125,4.92969 0,-0.138 -1.41448,-4.20917 -2.33008,-8.60547 -0.9242,-4.4365 -0.94562,-9.80839 -0.79492,-9.90039 0.1469,-1.2322 1.76914,5.76138 7.08594,9.17578 -2.8865,-5.6321 -3.82876,-11.16264 -3.25586,-15.80664 2.2861,6.6922 3.11918,3.7213 4.17578,5.2168 -2.8318,-7.7962 -2.74059,-10.47249 -2.39648,-11.67969 0.78659,-17.1114 -1.74808,-14.25875 -9.70118,-26.40235 -4.1077,-29.3469 9.11398,-58.74179 1.17188,-87.02539 -11.4032,-18.1857 -20.86943,-16.48029 -34.26564,-14.84179 -11.6238,-8.2797 -11.83687,-5.68937 -20.38867,-6.66797 -11.5492,1.925 -24.35351,4.08508 -36.82031,3.64648 -9.8821,-0.3477 -18.97018,2.25597 -29.08008,1.75977 -16.0569,-1.3796 -28.22889,-2.67245 -41.77539,-6.71485 -11.6156,-4.9776 -17.40157,-8.28196 -26.57617,-8.50976 -7.3706,-1.4683 -21.66581,3.99412 -29.88281,-1.42578 1.1881,-5.6639 0.009,-10.52882 -2.53515,-14.35352 -2.3408,-3.5187 -3.78542,-6.91142 -5.69922,-9.82812 -2.2992,-3.5042 -3.21259,-6.86957 -1.30469,-11.44727 0.7904,-1.8957 0.94509,-2.35812 2.64649,-4.20312 1.1293,-1.6048 3.71794,-3.75653 5.68164,-5.76563 1.22529,-1.2535 5.8496,-5.35813 5.8496,-5.45703 z M 422.3127,533.5118 c 20.27755,0.62868 13.71543,21.32366 12.28711,37.79687 -0.2622,0.092 -0.98927,-3.0922 -1.16407,-2.9082 -2.5346,-10.2117 4.17845,-11.76273 -1.81445,-24.26953 -1.9341,-4.2152 -8.52777,-10.13839 -11.35547,-10.61719 0.71105,-0.0223 1.39276,-0.0222 2.04688,-0.002 z m 11.45312,72.08007 c 0.3496,26.0351 0.81689,23.05379 0.55469,36.02539 -0.2622,0.092 -0.79004,-1.79707 -0.96484,-1.70507 -5.4186,-21.0673 -6.00649,-12.63517 -0.23828,-32.23047 0.3496,-0.184 0.29883,-1.90585 0.64843,-2.08985 z M 251.24433,662.0743 c 1.2425,1.2734 2.25287,5.81696 1.42187,10.47656 -0.4937,2.77 -2.15762,11.13861 -2.76562,13.28711 -1.5078,-1.8041 -3.34364,-7.60974 -1.71094,-15.86914 0.4353,-2.2029 1.33179,-2.72964 3.02539,-4.46094 -0.43395,1.05912 -0.98914,-3.95592 0.0293,-3.43359 z"
         id="path15-2" />
      <path
         style="fill:#e30016;fill-opacity:1;fill-rule:evenodd"
         d="m 129.96298,457.10156 c 1.9331,4.167 10.98513,4.89258 11.01953,24.67188 -4.4421,11.9871 -16.33493,26.91679 3.95117,34.65429 2.0101,-0.2024 3.76877,-0.34931 6.07617,-0.57031 0.1869,-3.5643 0.71323,-5.90912 1.29883,-8.88672 0.1789,-0.9099 1.09331,-3.34822 1.19141,-4.23632 -2.2775,-0.57298 -4.50692,0.39428 -5.79102,-0.0117 -5.2741,-1.6676 -3.4388,-5.05939 0.2832,-14.15039 4.6836,-9.7737 -0.45319,-31.25081 -18.02929,-31.47071 z m 94.74218,0.60352 c 0.009,-0.0241 -0.0155,-0.0231 -0.0781,0.004 -0.2319,-0.0485 -8.64827,3.72914 -11.45117,5.42774 -2.4725,1.4988 -4.97878,4.15039 -5.14258,4.15039 -5.975,6.4941 -6.10939,11.66601 -3.92578,16.82031 0.7896,1.8635 1.67394,3.99558 2.87304,6.10938 1.0464,1.8446 1.73914,2.79693 2.30274,4.54882 1.0291,2.4473 -0.78483,4.91134 -2.17383,6.11524 -0.9507,0.8244 -1.6697,0.56252 -2.5,1.60742 -2.5266,3.1808 -3.03282,5.03209 -3.57812,6.70899 -0.38081,1.1706 -0.7564,2.4412 0.004,4.4082 0.6968,1.8019 0.89314,2.74682 4.05664,4.89062 1.5948,-0.8888 4.553,-2.18524 7.5586,-2.58984 2.7089,-0.3647 4.61299,-2.37379 5.98828,-3.46289 0.59701,-0.4676 1.43782,-1.4012 1.79492,-1.875 11.03811,-17.37838 -12.62384,-27.30358 -7.4668,-39.95703 0.1166,-0.2862 0.31165,-1.52386 2.08985,-4.15625 1.73578,-2.56951 9.50939,-8.3882 9.64843,-8.75 z m -4.27148,52.86328 c -0.002,0.003 -0.002,0.005 -0.004,0.008 0.16788,0.0755 0.3692,0.16049 0.55274,0.24219 -0.18152,-0.0843 -0.37389,-0.1716 -0.54883,-0.25 z m 0.54883,0.25 c 0.64645,0.30006 1.32519,0.60747 2.0664,0.81055 -0.64401,-0.19642 -1.3785,-0.50437 -2.0664,-0.81055 z m 2.0664,0.81055 c 0.0519,0.0158 0.11582,0.0465 0.16602,0.0605 10e-4,-0.003 0.005,-0.005 0.006,-0.008 -0.0587,-0.0144 -0.11378,-0.0368 -0.17188,-0.0527 z m 0.16602,0.0605 c -0.6894,1.30015 -3.17605,3.49131 -4.86914,4.84766 3.3855,0.6211 6.08955,1.6378 8.64844,3.1543 1.4352,0.8504 2.74562,1.98592 4.29882,2.98632 1.8246,1.1757 5.18309,2.34179 7.49219,3.67969 -0.2611,-0.0706 -2.026,1.51876 -3.5664,2.28516 -0.6129,0.30464 -2.18956,0.0479 -2.88086,0.37304 -1.0112,0.47591 -1.88949,1.39288 -2.92969,2.01368 -2.7485,1.6411 -5.0055,4.15382 -5.9043,5.63672 -0.7718,0.19586 -2.59,0.38715 -3.8125,0.22265 -4.44418,-0.59901 -1.76828,-0.81481 -4.51758,-0.69531 -1.3312,0.0576 -3.73196,-0.28857 -4.73047,-1.13867 -0.95519,-0.8134 -1.10669,-1.83752 -1.875,-2.41992 -0.98859,-0.7494 -1.34564,-1.42543 -1.49804,-2.23633 0.4504,0.18938 0.53867,-0.0464 1.07617,0.13867 1.0673,0.3676 1.6533,0.30573 2.1543,1.26953 0.8021,0.3238 1.286,1.29286 1.83789,1.66016 1.207,0.803 3.12456,0.19495 4.56836,0.31445 1.6282,0.1351 3.81159,1.36665 5.65039,0.43945 0.43379,-0.2184 0.91959,-1.11986 1.30469,-1.44726 1.16329,-0.9899 2.50033,-2.27861 3.96093,-3.09571 1.7046,-0.9536 2.9461,-1.96907 4.4043,-2.76367 1.1155,-0.60823 1.93559,0.10514 2.80469,-0.0723 -0.0874,-0.368 1.05664,-0.63025 1.05664,-0.90625 -1.04879,-0.5088 -2.08859,-0.66551 -3.125,-1.16211 -1.0371,-0.4965 -2.04873,-1.25739 -2.98633,-1.83399 -2.1267,-1.3083 -3.95561,-2.85395 -6.125,-3.65625 -5.7387,-2.1228 -10.18351,-2.87617 -16.32031,-0.26367 -1.4895,0.6929 -1.58976,1.20728 -1.81446,1.79688 -0.2986,0.7827 0.56068,2.72913 0.17188,4.08593 -0.5134,1.7899 -0.79756,3.22833 -1.75586,3.95704 -1.0542,0.80189 -2.88946,3.17668 -5.03516,3.17968 1.3959,-3.4216 1.85522,-3.18515 1.16602,-5.34375 -0.5695,-1.78306 -0.32969,-0.29736 -1.27149,-1.72656 -0.3926,-0.5962 -2.3575,-0.68895 -2.8457,-0.75195 -1.4651,-0.1894 -3.26396,-0.41266 -4.16406,-1.81836 -0.5942,-0.9283 -0.76336,-1.09055 -1.31836,-1.62305 -0.4294,-0.7269 -0.10758,-2.77485 -1.45508,-0.87695 -0.1524,0.2148 -0.4932,0.33858 -0.8125,0.67578 -0.2573,0.2717 -1.49247,1.50032 -2.35547,2.91211 -0.2935,0.4799 -1.17048,1.31396 -1.80078,2.60156 -0.8104,1.6556 -1.78542,3.78929 -2.01562,3.99609 -2.5056,2.2492 -5.17758,4.49357 -6.57618,5.03907 -1.99087,0.77605 -2.53926,-0.31789 -2.93945,-0.49805 -0.18847,0.0144 -0.27417,-0.0186 -0.20117,-0.006 0.0662,-0.0373 0.13257,-0.025 0.20117,0.006 0.41761,-0.0324 1.39293,-0.32201 2.63867,-2.03516 0.80996,-1.1141 1.89256,-10.08469 0.84766,-9.02929 -0.0764,0.0775 -4.73505,3.09049 -4.56445,2.08789 0.0193,-0.1126 0.0856,-5.18573 1.15429,-7.48633 0.5681,-1.2228 1.54995,-1.76152 1.21485,-3.85352 -0.436,-2.7226 -1.2944,-5.6198 -0.75,-6.5332 0.86952,2.44665 1.24686,2.59812 1.39453,2.3418 0.0624,-0.87828 0.15097,-0.26205 0,0 -0.006,0.0844 -0.0126,0.11137 -0.0176,0.22656 -0.0214,0.4774 0.67377,-0.20497 1.25977,3.11133 0.3341,1.89019 1.09273,0.70729 1.64843,-0.81641 0.119,-0.3263 0.19537,-1.20517 0.043,-1.79297 -0.2543,-0.9797 -0.83726,-1.70279 -0.44336,-1.68359 0.2736,0.0134 1.42582,0.57699 0.60352,-0.94531 -1.0577,-1.9569 -2.70055,-3.70704 -2.27735,-3.36914 0.5485,0.4383 2.62738,0.89401 4.20118,2.98242 0.3589,0.4766 0.44842,1.90569 0.51172,3.37109 0.055,1.2706 -2.45873,4.7692 -4.61133,6.44141 -2.0865,1.6216 -2.31667,4.56453 -2.26367,5.33203 0.24259,0.7131 2.96615,-0.67395 4.18945,-3.96875 0.4745,-1.2785 1.30789,-1.61762 2.18359,-2.88672 0.9589,-1.3891 1.84614,-1.3879 2.86524,-2.9707 0.7742,-1.2025 0.60972,-0.52057 1.42382,-3.35547 0.9149,2.1684 -0.46832,4.22991 -0.57812,4.66601 -0.2515,0.9997 3.14621,-0.3842 3.22852,-0.1289 0.0419,0.1315 -1.06789,1.23694 -2.36719,1.93164 -1.29921,0.695 -2.65724,1.40096 -3.36914,2.13086 -3.723,3.81529 -2.61657,9.70529 -3.60547,13.67969 4.279,-2.7904 6.05153,-8.13334 5.86133,-8.55274 2.6645,-2.8001 3.00441,-3.17478 4.57031,-5.39648 0.7983,-1.1326 1.39175,-2.00998 1.84766,-3.20117 0.4332,-1.1308 0.74849,-1.62814 0.93359,-2.24024 0.2333,-0.7711 0.4241,-1.38048 0.625,-2.01758 0.2584,-0.8197 0.73348,-1.42187 1.20898,-1.42187 -0.492,4.1776 -0.58198,7.73693 0.16602,9.14843 1.30987,2.47007 3.01821,3.51796 3.52734,3.8711 -0.0292,-0.0925 -0.39385,-1.89079 -0.47265,-4.00391 -0.0953,-2.5643 0.49954,-5.35642 0.93554,-5.32422 -0.0606,2.8436 0.19975,4.53467 0.74024,6.79297 0.47971,2.004 0.24152,2.22227 1.63672,3.01367 1.1424,0.6476 3.15542,1.32741 3.70703,5.37891 2.25059,-3.2775 0.79209,-6.31768 1.27929,-6.51758 0,-0.552 0.46485,-0.64742 0.46485,-1.10742 -8.9885,-7.9135 -4.37001,-12.54653 -1.63281,-18.67773 -4.426,-2.0106 -5.5652,-2.04952 -11.4961,-1.41602 -2.4781,0.2644 -4.99135,0.90573 -6.99804,-0.48437 -3.24881,-1.9841 -4.72604,-2.1825 -7.61524,-2.4668 -1.0681,-0.105 -2.9429,-0.46913 -5.3418,0.73047 -0.6245,0.3122 -4.43367,0.27794 -6.01367,1.74804 -1.0206,0.9497 -0.95308,1.0598 -1.55078,1.125 -0.6248,0.0681 -1.27376,1.81198 -1.72656,2.70118 -0.6624,1.2995 -1.29548,2.4381 -2.35938,3.4707 0.64,-1.653 0.54342,-1.34991 0.94532,-2.25391 0.4559,-1.025 1.7013,-3.83633 1.3125,-3.99023 -0.9744,-0.1974 -2.21013,-0.93854 -4.98243,1.06836 -1.0237,0.741 -1.59504,1.64656 -1.87304,2.25976 -1.8017,3.974 -2.60767,10.65879 -1.69727,14.30469 0.3558,1.4259 0.95998,-0.18138 1.76758,-0.67578 0.3527,-0.2155 2.01665,-2.42171 2.56055,-4.59961 0.54405,-2.1786 0.13684,-4.52266 0.62304,-3.88086 0.7346,0.9707 0.29832,3.12437 0.38672,5.94727 0.0819,2.6168 -2.12007,3.49767 -1.95117,4.54687 0.9607,4.7632 1.88546,3.7399 0.47266,10.25391 -0.7109,3.27859 6.76373,-6.88894 6.17773,-10.71875 0.24635,-0.4868 0.53985,-2.59916 0.15625,-5.43945 -0.1741,-1.2901 -1.0445,-2.1507 -1.25,-3.9961 2.74098,2.6342 0.82058,0.85169 2.70508,3.27149 0.77557,0.9964 -0.17807,2.91269 0.082,3.74609 1.0763,3.4463 1.62548,6.41978 2.83008,7.20898 0.7622,0.887 -2.56743,-0.80223 -2.54883,-2.86523 -1.3109,1.6335 -0.91651,2.54122 -1.00391,2.44922 -1.3302,1.42521 -1.08588,1.80615 -2.77148,3.96875 -1.4572,1.86889 -2.23644,3.50715 -5.33594,5.28515 -0.50154,0.28771 -0.87226,0.4815 -1.19726,0.64063 0.9997,1.32005 2.09098,3.73109 3.5039,6.99219 3.3297,7.6839 -4.33968,27.6754 -5.70508,34.9375 -0.1085,0.5774 3.26682,0.007 7.75782,2.15039 0.8442,0.4029 3.79451,-23.64944 16.50781,-32.92774 3.2408,-2.3649 -6.96955,7.34862 -9.18555,13.88672 -0.7429,1.5102 -3.77274,11.03306 -5.31054,20.93946 -2.818,-0.35401 -7.74059,-3.52719 -11.80079,-2.11329 0.8892,-2.9557 9.67091,-30.11707 5.75391,-37.63867 -2.61958,-5.03077 -1.88674,-4.7014 -2.65039,-5.80469 -0.59418,0.10644 -0.90984,-0.0911 -2.1875,0.12891 0.40022,-0.51985 0.87299,-0.89117 1.33984,-1.22461 -0.10707,-0.1328 -0.11081,-0.15198 -0.24023,-0.31055 0.21652,-0.1158 0.43088,-0.1672 0.64258,-0.1582 0.0671,0.003 0.13421,0.0182 0.20117,0.0332 0.47992,-0.32238 0.92222,-0.62185 1.19922,-0.98632 1.9451,-2.5589 1.57098,-4.01499 1.14258,-5.70899 -0.2522,-0.9963 -0.16038,-3.62267 -0.82618,-4.23437 -0.6661,-0.6121 -1.9604,1.20588 -2.0664,0.99218 -1.068,-0.782 -4.80136,4.04502 -5.78516,7.26172 -0.0103,0.1445 0.44481,0.41988 1.19141,2.01758 1.0567,2.2611 3.56258,4.22357 3.64648,6.50977 0.8244,22.4566 -1.95788,27.88446 -2.92578,30.88086 -0.58937,2.06515 -1.24434,3.16958 -1.90039,3.89453 0.47126,0.42527 0.9672,0.97893 1.63086,1.53515 0.3939,0.3301 1.06442,1.92125 0.26172,1.27735 -2.6163,-0.81414 -1.85225,-0.77127 -3.37305,0.0195 -0.4909,0.2549 -0.90449,0.2157 -1.49609,0.2207 -0.009,-0.009 -0.0128,-0.0147 -0.0215,-0.0234 -0.12511,0.26188 -0.24456,0.54819 -0.35351,0.89649 -0.19975,1.32672 2.21679,4.01599 3.37695,1.92578 0.20825,-0.49292 0.32533,-0.69461 0.12695,-0.23633 -0.0392,0.0903 -0.0842,0.15933 -0.12695,0.23633 -0.47701,1.12887 -1.48973,3.96108 -0.69336,5.14648 0.6851,1.02 1.4994,2.92763 2.8086,3.45313 1.2618,0.958 3.82834,2.66036 5.68164,2.56836 2.2516,0.4853 3.17661,0.42059 5.19922,0.30469 2.6759,-0.1536 3.01706,-0.98591 4.38476,-1.37891 0.8327,-0.5954 2.05514,-0.8041 2.87305,-1.9668 0.11455,-0.16292 0.2376,-0.24312 0.36328,-0.29492 l 0.15625,1.04883 c -1.5724,2.9919 -4.68552,4.1173 -8.82422,4.375 -2.3984,-0.0279 -2.72532,0.33398 -6.10742,-1.10352 0.7034,1.5386 1.29217,1.35416 3.13086,2.22266 0.8388,0.1939 1.67652,0.17719 2.51562,0.37109 5.37365,0.54422 8.71444,-1.18999 10.93164,-6.46093 0.36452,-0.26831 0.35375,-1.77069 -0.51367,-6.96289 2.0221,1.3206 2.03843,2.76319 2.61133,2.40429 0.4969,-0.3108 2.02801,-1.59684 3.44531,-3.52734 1.1172,-1.5223 4.6238,-5.83895 13.7461,-10.99805 1.3983,-0.791 9.60631,-6.09095 11.16601,-7.59375 6.7069,-6.4637 14.06707,-23.31969 8.38867,-24.3418 0.437,-0.092 3.30187,0.1543 3.82617,0.1543 3.819,5.6184 -4.72888,23.37581 -15.39648,29.56641 -2.1055,1.2217 -6.57202,4.15884 -9.63672,5.68555 -3.53941,1.76346 -8.26477,6.29639 -10.29101,8.51171 l -3.71998,3.22679 -1.62102,0.77541 0.15823,1.03355 c 2.55554,-0.50066 7.48599,-1.18653 10.34698,-2.14512 2.94381,-1.0446 5.18466,-3.17535 7.60742,-5.07227 -1.8589,2.86138 -2.58488,3.77784 -5.99219,5.24414 3.20116,2.1163 24.6892,9.03283 24.63672,-7.28906 0.9087,4.8831 -1.69931,11.15839 2.42969,24.65039 1.0945,2.4908 3.09299,5.36348 5.05469,7.73438 4.7393,5.4112 2.08468,-12.72263 -1.22461,-18.95703 6.586,8.1094 6.52831,19.24199 5.19531,22.15039 0.5812,2.2517 4.15722,4.26718 5.44922,5.64648 4.17919,-15.8362 -5.3435,-31.32676 -7.8418,-35.97656 10.07739,8.95449 10.80981,27.8312 9.81641,37.4043 0.5516,3.07499 5.97223,11.40231 9.76953,15.38281 0.9768,0.1927 3.09952,1.87266 5.73242,2.10156 4.512,0.3922 3.49027,1.99532 0.70117,-2.83008 -2.0273,-2.6886 -2.49162,-3.92934 -3.89062,-6.52734 -1.6894,-3.1365 -2.74196,-4.44159 -3.38086,-6.71289 -0.8754,-3.1112 -3.07809,-6.47761 -2.62109,-10.59571 1.29339,-11.651 2.91729,-13.57203 -2.06641,-20.46093 -3.2144,-4.4434 -3.97966,-6.28386 -5.97266,-11.34766 -3.05143,-7.75226 -0.96545,-17.86928 0.4961,-25.42773 0.18249,-1.20424 0.39902,-2.42723 0.67578,-3.68164 -0.18524,1.12576 -0.42338,2.37637 -0.67578,3.68164 -2.42645,16.0121 3.0493,27.47696 5.31445,31.17968 0.9238,1.5107 3.89604,5.13546 5.02734,8.62696 5.6196,17.3407 -5.29252,12.51078 2.89258,26.55078 3.1301,5.36881 5.26883,9.19428 9.76563,17.86328 1.304,2.5137 -0.78815,7.50543 -0.15235,10.89453 1.7328,7.4129 3.45871,11.83084 6.75391,18.39844 -0.5952,7.0215 -0.99784,13.03544 -4.58594,24.21484 0.6117,3.2199 3.75753,3.86257 7.51563,4.23047 -3.9886,0.4173 -8.31573,1.75933 -8.82813,-0.73437 -4.2501,0.9753 -10.07547,7.11714 -13.54687,10.02734 0,0.46 -0.62891,0.80933 -0.62891,1.36133 1.2762,1.2887 2.22073,0.7904 3.26953,1.0664 2.5775,-2.9906 6.06554,-5.89328 9.36914,-8.02148 0.2622,0 0.62892,-0.33223 0.97852,-0.24023 -2.35969,2.53639 -8.73994,6.07681 -8.74024,9.72851 2.9199,1.783 16.32365,4.09338 20.49805,0.70508 0.9414,-0.1004 3.54558,-6.51228 3.73828,-13.04688 0.0406,-1.3749 -1.49674,-4.27942 -4.15234,-6.64062 0.9614,-0.2759 5.10453,4.19597 6.67773,5.66797 1.3109,-0.276 2.44718,-1.01309 3.42578,-2.20899 -0.9445,-2.9432 -2.67452,-5.29864 -3.54882,-8.86914 -1.38841,-8.2243 -0.61894,-11.67848 0.66406,-16.11719 4.8069,-3.4039 5.59358,-3.77088 3.14648,-8.55468 -0.7291,-2.1623 -2.08923,-4.05376 -1.79883,-6.25196 1.8191,-13.7557 13.85638,-30.97954 17.26758,-43.24414 0.0874,-7.0837 0.17627,-14.1665 0.26367,-21.1582 -1.5731,-5.3359 -7.08007,-11.68285 -7.08007,-14.71875 13.9126,15.274 11.74514,15.19359 10.18164,36.17969 -2.6363,10.9157 -8.11506,20.77007 -11.18946,28.20117 2.0242,0.3375 1.77829,-0.26593 4.65039,-0.45313 3.4191,-0.2228 10.88673,-1.03882 14.73633,-1.45312 3.4264,-0.36908 6.98778,0.27768 10.05078,-0.041 0.8688,-0.0902 2.2213,-0.44731 3.4961,-0.79101 0.9913,-0.2673 1.957,-0.43874 2.5664,-0.64844 7.3189,-2.5212 11.34216,-4.12891 14.75196,-5.79101 8.9304,-2.9406 16.88543,-8.16568 24.89843,-9.99219 -1.485,3.3354 -7.806,8.00434 -10.6914,11.27344 0,0.276 -1.48802,0.77457 -0.66602,1.14257 3.4085,-1.5639 27.09644,-13.04609 27.61914,-7.43359 1.8367,0.6248 3.91298,0.61698 6.08008,-0.97852 0.8044,-0.5922 1.97704,-0.92568 2.71094,-1.92968 -0.2622,-0.46 -0.58252,-0.34859 -7.57422,-4.39649 -14.6927,-4.6161 -13.66373,-23.56937 -14.79883,-34.60937 0,-9.2917 4.63137,-18.21652 5.41797,-27.32422 3.4959,4.1399 -2.39504,17.3882 -3.18164,23 0.3496,13.3396 -0.75086,26.7714 10.52344,35.78711 2.295,0.99819 4.70046,2.78289 7.50586,3.99219 8.176,3.5249 17.70234,9.01735 24.30664,13.46875 3.6053,1.9428 6.47173,6.15605 9.36132,10.75195 3.71501,5.9091 7.54963,9.59452 11.39063,16.10742 2.741,3.4539 -3.668,22.1246 -5.4668,25.6582 l -1.31054,2.83008 c -2.1819,4.4212 -6.94253,10.61983 -5.82813,12.23633 2.8095,-0.9048 6.08996,-0.59891 8.38086,0.40039 -2.8445,-0.7748 -5.77374,-0.18498 -9.55664,1.47852 -0.587,-0.6179 -0.93012,0.93101 -0.88672,-1.27149 -3.0538,-0.8222 -12.27112,7.30803 -11.76562,10.20703 0.0805,0.6969 0.92836,0.98992 1.47656,0.35352 2.0968,-2.43275 7.00915,-5.83544 8.87305,-6.20703 -0.90286,0.50403 -7.32082,5.83967 -7.01563,6.39844 0.2467,0.4524 -0.71815,1.77034 -0.62695,2.11914 0.0908,0.3481 0.41613,0.55721 0.83593,0.69921 2.27231,0.368 4.63249,0.5456 6.99219,0.5293 6.7843,-0.489 11.20045,-1.61052 13.96485,-2.91992 0.1958,-0.3672 1.67967,-0.47688 2.32617,-1.98438 1.823,-4.2496 1.5096,-4.0856 2.375,-8.91211 -2.8346,-5.34269 -1.8074,-2.44453 -3.1211,-4.64843 1.5294,0.23 2.94241,2.064 4.66211,3.1582 1.0319,0.6562 2.17594,0.83595 3.51954,0.83594 0.437,-0.644 0.6626,-1.28785 1.0996,-1.83985 -2.8751,-8.492 -0.0608,-24.82985 9.2129,-29.25586 2.8882,-3.3691 0.98151,-5.91275 -3.14649,-11.31445 -5.1564,-11.8676 -11.88672,-29.80798 -11.88672,-41.76758 1.311,5.2439 1.31115,5.24303 1.74805,5.79493 0.1748,-0.092 0.35059,-0.18349 0.52539,-0.2754 2.5345,-8.27979 5.21015,-17.50893 8.53125,-25.05273 1.762,-17.1596 -7.8225,-27.45421 -7.2207,-37.32031 0.6118,1.10399 1.31056,2.20829 2.00976,3.4043 4.0303,-15.215 -10.79966,-24.9891 -13.13086,-25.5918 0,-0.368 -0.17727,-2.13387 1.76953,-3.48047 24.9955,0.828 19.57699,18.97056 17.30469,41.50977 3.2805,14.39679 5.10097,18.28616 -0.45703,29.10156 0,26.4031 0.46534,22.12203 0.90234,46.86914 1.2497,2.96929 3.47036,8.01395 5.06446,9.09765 3.2647,5.2323 4.97423,8.76044 -2.16407,12.05274 -0.0234,0.3303 -1.75327,1.70669 -1.73437,2.05469 -0.2095,0.5107 -0.37869,2.12468 0.28711,4.30078 0.4607,2.3999 1.31383,3.75914 1.45703,4.24414 -0.1098,0.7081 0.7302,-5.74857 1.5625,-4.60547 2.1051,4.3144 5.72742,7.85828 7.54102,6.55078 -0.4232,-2.0591 -2.74709,-8.39882 -2.55469,-10.38281 -0.8041,-7.00631 1.52009,-14.7454 -5.5332,-20.8125 4.2941,-1.6755 8.71046,11.65958 9.88476,15.30078 -1.0945,-5.5419 0.14855,-10.30437 -1.34375,-12.48047 -2.1198,-3.092 -5.40224,-6.3162 -9.77344,-8.5918 5.5408,1.0141 5.5089,0.45393 11.3125,5.82813 -2.2775,-10.1552 -6.96353,-9.98947 -11.11523,-11.98047 2.3686,-1.1572 9.58755,-0.34592 11.74805,8.08008 0.8695,-6.99209 -0.23966,-7.27184 -0.75196,-9.05274 -4.4572,-6.7158 -8.70805,-9.6627 -10.28125,-16.5625 -0.4741,-21.6533 2.55259,-42.12818 4.77539,-62.73828 -0.5502,-18.1672 -3.03088,-26.83187 -18.83007,-33.77148 -7.42881,-1.32859 -11.51012,1.22255 -17.10352,1.28125 -17.392,-11.2084 -25.73957,-3.95974 -44.35547,-2.89844 -12.484,-1.1373 -29.57947,1.13591 -42.95117,1.50391 -18.4377,-1.2358 -29.00856,-3.20765 -41.84766,-6.99805 -4.8271,-1.7812 -1.16974,-1.11907 -17.81054,-7.41797 -3.2571,-1 -7.17467,-1.28957 -11.72657,-1.35547 -4.4393,0.9783 -13.41873,0.99771 -16.36133,1.19141 -3.5333,1.2467 -7.58865,-1.08615 -9.99414,-0.53125 -0.6748,0.1557 -0.51661,1.04189 -0.85351,1.55469 -0.002,-10e-4 -0.004,-10e-4 -0.006,-0.002 z m -27.4043,10.57227 c 0.002,0.007 0.0293,0.16494 0.0273,0.15234 0.1951,0.0208 0.15258,-0.0275 -0.0273,-0.15234 z m -28.88867,-16.61133 2.65625,1.95703 0.79688,2.37696 0.39843,4.75195 -1.19531,4.61523 -2.39062,1.95703 2.25781,-6.99023 h -2.25781 l 0.96289,-1.98047 0.0645,-3.05859 z m 88.80078,5.95117 c 1.3016,0.002 1.86359,0.34613 2.80469,0.48633 1.379,0.2144 3.4774,1.98872 3.7207,2.23242 -4.1441,-1.8204 -9.60424,-0.32042 -11.52734,0.20508 -1.891,0.7979 -3.73225,1.59602 -5.62305,2.94922 -1.5652,1.1249 -3.08195,2.95982 -4.59765,4.44922 0.8568,-1.7327 2.10855,-3.309 4.09765,-5.25 1.5384,-1.6566 5.39295,-4.26065 7.21485,-4.56055 2.7024,-0.50772 3.07845,-0.45842 3.91015,-0.51172 z m -110.41992,6.12891 c -5.06835,0.0945 -10.19451,0.92128 -14.51172,3.25391 4.6994,-0.90691 9.04078,1.56872 11.67578,6.98632 0.7752,1.5944 2.31255,1.6631 2.78125,2.0293 0.9039,0.0786 0.22953,-0.10838 1.61133,-2.48828 0.8667,-1.4922 1.88872,-4.18597 2.35742,-5.82227 -3.4085,-0.2757 -6.9909,-1.54707 -9.875,-1.45507 3.3837,-1.088 9.93881,0.13914 10.66211,-0.21876 -0.0874,-0.64399 -0.0879,-1.63745 -0.0879,-2.18945 -0.80843,-0.046 -1.62535,-0.0776 -2.44726,-0.0937 -0.71917,-0.0141 -1.44197,-0.0155 -2.16602,-0.002 z m 68.00391,2.0625 c 3.25805,-0.0677 6.84623,1.10787 10.33007,2.82226 1.9155,0.9425 4.42772,1.84175 6.35352,2.80665 -3.8303,0 -7.17604,-2.38637 -10.55664,-3.41797 -3.0441,-0.9286 -7.105,-1.24476 -10.2207,0.93164 -0.2622,3.0359 -0.0858,1.00398 -0.11328,2.26367 -0.0874,-0.184 0.58544,1.50801 0.49804,1.41601 -2.3597,-2.0239 -2.91699,-1.96222 -3.0918,-4.07812 1.93289,-1.88707 4.26676,-2.69144 6.80079,-2.74414 z m -21.84961,10.70898 c 0.92815,0.0101 1.93254,0.32403 3.04492,1.00586 -6.0008,-0.8595 -5.85571,1.49674 -12.25391,11.55664 -2.6643,3.1178 -3.36567,1.66403 -0.79297,-0.88867 3.41851,-6.06369 5.98002,-11.71763 10.00196,-11.67383 z m 2.80468,2.26758 c 1.00162,-0.011 2.02458,0.2369 3.04102,0.65625 -1.5841,-0.1003 -5.21914,0.47207 -5.08594,1.63867 3.4315,2.9906 2.04438,12.75813 -7.79492,9.70703 -1.3984,1.7479 -2.23882,2.36093 -4.07422,2.54493 0.6472,0.3433 7.22098,-7.63016 7.92188,-9.78516 1.68995,-3.46122 3.78862,-4.73742 5.99218,-4.76172 z m -3.07617,3.41602 c 1.343,4.9686 0.45146,7.72828 -5.24414,7.08398 -0.566,0.3683 -1.03028,0.95641 0.26172,1.28711 0.6118,0.0919 1.12893,0.31413 1.82813,0.24024 4.8936,0.37919 6.91209,-7.14763 3.15429,-8.61133 z m 14.63477,0.24023 0.42383,1.69141 c -4.4365,18.0321 -26.97358,15.45474 -35.95118,32.14453 l -5.69335,8.07617 0.25,-1.36523 c 6.0301,-11.2453 8.65849,-15.3871 20.24609,-21.9375 10.4417,-4.2994 15.61331,-7.45478 20.72461,-18.60938 z m -41.87305,43.43945 c -0.6936,2.7823 -1.23085,6.31803 -4.97265,6.36133 -1.1119,-0.2213 -1.8521,-1.93106 -0.5586,-3.25586 1.988,1.1243 1.04295,0.39723 1.87695,0.60742 2.1683,-1.5536 1.8809,-2.26449 3.6543,-3.71289 z m 218.52539,42.10743 c -1.6175,1.7867 -4.36631,2.99025 -7.19531,4.18945 3.095,7.2486 14.19275,17.60843 13.40625,28.83203 -5.2439,11.4076 -8.54336,18.01016 -15.53516,33.09766 -2.3721,4.0736 -1.74636,2.0242 -1.88086,5.5625 2.9467,-0.33984 5.31636,-0.58187 8.06836,0.0527 -2.8291,0.1449 -5.7788,1.02366 -9.4375,1.66406 0.7581,-0.7958 -0.19679,-1.57978 -0.40429,-1.95898 -2.0752,0.1728 -11.36569,5.23602 -11.90039,8.35742 -0.1827,1.0677 1.51765,0.77902 0.94336,1.51172 0.6978,0.9569 3.80683,-3.70508 7.30273,-3.70508 -1.3966,0.6929 -5.27639,2.92088 -6.24219,5.55078 2.252,1.47919 3.26455,0.95059 7.33985,1.40039 5.2132,-0.1083 9.5193,-0.19344 12.9082,-1.74804 2.9766,-2.8291 3.93248,-3.49198 6.33008,-10.01758 -0.7866,-0.736 -2.31067,-1.80316 -3.00977,-2.53906 0.9613,-0.3162 2.13297,0.18291 3.95117,1.85742 0.5374,0.4951 1.74884,0.58246 2.61524,0.69726 0.58839,-0.6436 1.26251,-0.65555 1.34961,-1.50195 0.3031,-2.9475 -0.6117,-6.89938 0.7832,-10.73828 1.7744,-6.8994 3.90247,-11.57482 7.91797,-16.44922 1.7056,-1.26647 3.43082,-0.83146 4.57422,-1.19727 1.6492,-0.52809 2.27693,-1.51006 2.70703,-2.79296 0.6287,-1.8765 0.24204,-4.39972 -2.91016,-7.10352 -0.7535,-1.0174 -1.64257,-1.34935 -2.07617,-2.68945 -1.8794,-5.81 -0.84257,-14.86542 -0.98437,-19.57422 -9.872,-5.6473 -15.2102,-10.08451 -18.6211,-10.75781 z m -149.23633,13.125 c -1.12141,1.8762 -0.68369,11.63624 0.0664,14.40234 0.6575,2.4249 1.24927,2.75754 1.38477,4.79883 -0.3148,3.67411 -0.77992,7.06594 -0.85352,7.90625 -1.3664,15.53439 -3.56111,24.91172 -3.62891,25.01562 -2.7451,4.2127 5.71768,5.5232 7.76368,4.625 -3.9188,1.9153 -12.48463,0.81064 -11.16993,-2.31836 -11.44349,7.6784 -17.46341,13.12797 -14.41211,14.38477 0.5086,0.2094 3.79917,-4.2412 10.50977,-8.2793 1.7734,-1.158 -10.00419,8.8469 -7.99609,9.8418 2.2516,1.1152 4.03012,1.67662 7.35742,1.76172 2.9659,0.0761 9.76616,-0.45247 10.97656,-2.07617 -1.0474,-0.6621 9.02195,-9.92366 10.93945,-10.87696 1.0457,-1.2872 -2.201,-3.74998 -3.4707,-5.08398 2.911,0.598 5.97066,4.50599 5.97266,3.99609 3.8757,-0.7049 2.02267,-2.67704 2.98437,-3.24023 0.0471,-1e-5 -5.23434,-5.0623 -4.40234,-14.2461 0.3596,-3.9703 -0.0239,-6.94121 2.36328,-9.22851 0.0238,-0.6432 2.69323,-2.67603 1.24023,-3.92383 -3.5138,-3.0163 -1.56228,-8.09357 -1.05468,-8.41406 -1.00662,-2.89379 -2.37737,-7.28197 -1.01563,-14.66797 -3.5292,1.1634 -8.83079,-2.59535 -13.55469,-4.37695 z"
         id="path15-1" />
    </g>
  </g>
</svg>