<svg viewBox="-21.95 -70.28 592.61 742.34"><title>Herb Iłowa</title><path d="M0 0h548.715v391.676C531.293 541.5 437.407 623.785 273.903 644.574 102.153 624.898 23.231 530.656.003 391.676V0" style="stroke:none;fill-rule:evenodd;fill:#222"/><path d="m368.926 93.598 3.309-7.907 49.394 10.602 12.875-44.024 7.918-.14 12.145 45.363 45.633-12.82 4.378 8.027-34.14 33.84 33.242 31.144-3.859 9.028-46.153-10.528-13.722 45.895-8.735-.074-9.883-46.117-46.418 8.382-4.593-8.472 32.144-30.758-33.539-31.445zM67.136 402.656l3.677-7.543 47.937 10.602 13.239-44.387 7.55.219 12.145 45.363 45.633-12.82 4.379 8.027-34.141 33.84 33.242 31.144-3.859 9.028-46.153-10.524-13.722 45.895-8.371-.438-10.246-45.754-46.419 8.383-4.593-8.472 32.144-30.758-32.45-31.809zm228.388-36.562c-.149 16.629-2.66 30.507-6.024 43.386-5.086 20.086-2.543 46.2-3.812 69.297.441 13.246-2.164 23.324-15.668 22.094-9.805.531-19.113.734-27.317.199-9.121 3.278-15.918 4.149-21.289 1.004-4.351 2.34-8.3 1.672-13.054 2.809l.199-3.211-1.402 1.004v-5.02l-1.004.199c-.153-7.132.75-13.558 5.421-17.472-.734-8.703 12.719-12.856 40.376-12.453-1.336-14.262-1.672-27.317-4.016-42.782-3.012-20.019.398-32.004.601-48.007-1.07-15.532-3.546-31.067-3.211-46.598-5.218-2.945-9.64-6.426-13.253-10.445-7.871 9.195-17.985 6.937-28.258-.79-18.309-13.777-38.399-42.433-58.715-82.367-6.551-12.136-13.063-23.601-19.082-27.117-7.715-5.137-13.035-10.93-14.863-17.676l-4.215.399 22.898 89.383c5.731 4.023 11.809 7.019 18.074 9.437q8.434 8.033 4.821 13.656c4.015 3.95 4.82 7.364 2.406 10.242q6.124 5.52 2.609 10.243 4.519 6.825 2.61 12.05c3.547 8.434.933 13.122-7.832 14.059-3.414-2.945-7.633-3.883-10.844-6.426-8.402 5.489-15.297 7.969-18.879 3.813-2.676 2.476-5.285 4.887-7.43 8.433-7.027 4.887-14.125.469-13.254-9.64q-6.024-3.715-2.41-10.645-5.321-3.713-2.61-10.644-4.416-3.411-2.405-11.649-4.32-2.609-1.403-10.844l13.254-18.878-19.883-88.379q-3.61-3.113-4.015-7.028c-13.59-2.609-14.594-14.527-2.406-22.496l-10.044-43.183-7.832 7.832-7.832-2.809.801-93.203 7.832-2.207 42.383 83.559-6.426 6.226-8.836-4.016 7.832 36.153c14.665-3.766 31.266 8.652 50.215 35.953 12.008 14.863 23.848 27.551 35.325 35.449 17.531-24.113 35.871-42.933 63.285-41.308l.363-3.641c-13.828-7.293-12.859-25.84 1.09-28.113a168.3 168.3 0 0 1 .726-28.403q-4.258-1.921-6.918-5.461c-14.546-.097-29.332-.261-40.054.727-12.473 1.352-18.356-7.172-23.305-17.113-8.781-2.668-8.156-11.457-6.187-21.118-.961-11.984 3.164-17.812 12.378-17.476l27.672.726c7.157 1.622 9.895-1.972 14.84-4.167 21.153-8.395 32.141-10.27 37.231-6.879q4.65-.413 10.105 1.578c7.633-7.305 17.125-8.887 29.582-6.555 12.539 6.356 23.445 15.098 29.664 30.719 4.117 10.344 4.367 23.5 5.289 41.379-5.547 8.898-13.609 14.945-27.195 14.738-.637 7.801-2.227 12.738-1.906 23.406 3.394-2.492 6.793-3.715 10.187-3.66 6.906-11.59 21.946-10.695 30.231-6.894 6.726 3.085 14.101 9.203 15.148 24.566-.891 13.605-9.687 20.73-16.82 23.476-7.59 2.922-18.953 2.137-26.809-5.32-4.883.793-8.492-.426-11.781-2.547 3.605 14.328-3.766 16.559 11.781 28.184 25.688 18.469 51.059 30.73 79.938 54.457 22.855 19.316 38.449 45.172 48.566 75.957 14.758 41.191 27.5 82.383 16.473 123.578-4.489 19.797-15.379 33.75-29.86 44.426-30.984 26.074-78.398 33.629-133.277 32.769-26.328-2.152-53.055-2.535-80.258-.777-27.136.731-49.066 9.773-56.496 8.551 10.77-25.371 31.688-41.922 69.387-42.969 30.75.453 66.242 3.813 98.844 6.098 28.132 1.969 50.039 4.738 73.031-4.035-11.094-1.684-22.629-5.325-34.594-10.922-5.48-5.039-17.805-4.051-26.219-4.367-6.074-.415-9.875 1.773-12.531 4.128-5.293 4.754-12.91 3.243-19.508.602l-10.519 3.879-.274-2.625-4.722-.324 1.136-3.743h-2.277v-4.394l-3.258.16.977-5.047-1.953.324c-1.789-6.023 1.789-9.445.484-13.679-3.004-8.766 4.203-15.926 9.336-18.985 6.594-3.929 16.703-7.207 27.473.903 17.257 8.136 38.535 6.234 57.804 9.355-24.672-22.453-38.207-46.371-47.465-64.637-8.968-17.699-10.339-31.597.059-39.613 6.293-4.754 12.785-6.894 20.688-6.828l1.605-3.211c-8.703-.668-15.266-4.82-18.074-12.453-15.836 3.094-32.305-.484-49.211-8.637l-2.008 30.328zm-76.532-104.852c-10.175-11.449-20.753-19.684-31.132-29.527 17.742-13.254 26.847-34.145 55.035-34.95l-21.692 25.711c-2.214 12.872-1.933 25.36 2.809 37.161-2.477-.465-4.148-.332-5.02 1.605m119.875-96.598c4.868 0 8.836 3.684 8.836 8.2s-3.968 8.199-8.836 8.199q-.533 0-1.054-.059a17 17 0 0 0 1.133-6.117c0-3.605-1.125-6.961-3.051-9.742a9.4 9.4 0 0 1 2.969-.477zM10.047 9.133h528.625V389.16c-16.785 145.367-107.234 225.203-264.754 245.375C108.457 615.445 32.422 524.004 10.047 389.16z" style="stroke:none;fill-rule:evenodd;fill:#ec2a32"/><path d="M253.27 159.844c-10.621-1.914-15.805 6.222-7.524 16.218 18.899 10.493 38.161 12.465 61.028 9.575q-8.086-8.182-2.043-19.332c-21.52.765-36.879-.782-51.457-6.461zm-66.293 67.777c16.32-21.613 34.019-39.383 58.375-38.629l-.856 3.859c-17.515-3.304-37.136 12.305-57.515 34.766zm130.953-47q3.716 3.344 4.461 7.434c-12.551 1.98-21.289-15.614-8.922-24.54 12.27-7.867 27.266 5.204 18.402 18.778l-4.273-3.719c2.91-6.812-1.981-11.586-9.664-8.734-3.469 3.343-3.469 6.941 0 10.781zm7.809-23.797c3.343 1.238 6.566 3.035 8.921 5.762 7.25-5.168 18.528.453 17.848 12.453-2.617 8.875-8.473 11.941-17.66 9.852l-1.484 2.785-7.25-5.02-.743 1.113 5.95 5.204c-.555 2.168-4.09 1.363-4.461 3.16 14.777 6.351 31.757 2.14 34.765-16.547 1.551-24.731-27.015-29.438-35.879-18.774zm-3.344 17.145c1.297 0 2.359 1.011 2.359 2.254 0 1.238-1.058 2.25-2.359 2.25-1.297 0-2.36-1.012-2.36-2.25 0-1.239 1.059-2.254 2.36-2.254m49.824-83.067 52.707 11.379 13.176-48.215 13.472 49.711 48.516-14.074-36.535 36.836 36.535 34.738-48.215-10.48-16.172 49.113-11.078-48.812-50.011 8.085 33.839-34.14zM71.523 399.23l50.524 12.469 13.903-47.484 13.472 48.984 47.785-14.074-36.535 36.836 36.535 34.738-48.215-10.48-16.171 49.113-11.079-48.813-50.011 8.086 34.933-34.14-35.145-35.231zM60.066 37.82l40.337 79.176c-5.782.18-11.028-2.891-16.54-4.336l11.66 53.152-1.894 2.438-8.133-.813-12.473-52.066c-4.02 3.16-8.542 7.32-13.285 11.93l.34-89.481zm42.235 152.942c-3.344 2.8-7.051 3.433-11.117 4.066l34.168 149.426c1.535 2.078 3.613 1.988 5.965 1.625l7.593-5.965zm5.344 101.351-11.141 14.613c-.73 2.493-.18 4.993 2.192 2.555 3.347-4.992 6.695-9.375 10.046-12.422l-1.093-4.75zm24.027-2.472 15.524 8.027c1.668 1.902 2.269 4.387-.75 3.281-4.918-2.949-9.582-5.355-13.676-6.562l-1.094-4.746zm-21.469 12.703-11.14 14.613c-.731 2.496-.18 4.992 2.191 2.555 3.348-4.993 6.699-9.379 10.047-12.422l-1.094-4.746zm23.664-2.387 15.524 8.027c1.668 1.903 2.269 4.387-.75 3.281-4.922-2.949-9.582-5.355-13.676-6.562l-1.094-4.746zm-21.289 12.797q-6.393 6.757-12.054 15.711c-.731 2.496-.18 4.992 2.191 2.554 3.348-4.992 7.609-10.472 10.961-13.515l-1.094-4.75zm23.715-2.399q8.216 3.152 16.754 8.594c1.668 1.902 2.266 4.387-.75 3.281-4.918-2.949-10.812-5.922-14.906-7.132l-1.098-4.747zm-21.34 12.996q-5.843 7.122-11.691 15.707c-.73 2.497-.18 4.993 2.191 2.555 3.348-4.992 7.247-10.472 10.594-13.515zm23.844-2.433c5.274 2.48 10.758 5.402 16.449 8.758 1.668 1.902 2.266 4.386-.75 3.281-4.922-2.949-10.507-6.09-14.597-7.293l-1.094-4.746zm-21.105 13.574c-4.364 4.738-9.922 9.352-11.692 14.613-.726 2.496 3.285 6.637 5.66 4.2 3.348-4.993 5.418-7.184 8.766-10.231l-2.738-8.586zm23.539-2.355c5.664 2.261 12.273 3.867 15.984 7.781 1.668 1.902.059 7.43-2.957 6.324-4.918-2.949-7.582-3.973-11.676-5.18l-1.347-8.925" style="stroke:none;fill-rule:evenodd;fill:#fff101"/><path d="M306.961 161.098c-.804-10.532 1.36-18.094 2.043-27.141-6.738-2.918-10.465-9.078-12.109-17.484-1.981-10.141-.004-23.18 1.512-38.473-3.719-1.485-6.754-3.652-9.481-6.133-1.855-2.043.93-5.574 3.344-2.785 1.855 2.445 4.398 3.871 7.25 4.832.308-1.797 2.847-3.219 4.273-1.484.371 17.41-8.551 33.152 1.114 52.238 6.718 10.156 17.128 12.609 30.117-1.856-.121-8.363.492-16.171-.371-25.097-1.547-18.375-11.278-30.953-24.727-40.899-14.258-4.48-30.312-6.519-33.461 5.762-1.176 3.594-4.586 1.98-4.644-2.602-1.485-1.796-4.832-1.363-7.25-2.043 2.91 1.922 4.523 6.442.371 5.204-12.887-3.778-17.598 8.796-25.282 13.199q-1.173.639-2.386 1.183l14.468-.812c4.536-6.676 10.891-8.316 19.891-2.602 2.477 2.539 5.512 3.965 9.293 3.715 3.531-2.726 6.32 5.141.926 4.09q-5.11-1.487-9.481-.742c-4.586 7.808-13.445 6.941-18.773 1.672l-21.566-.742c-.965-.766-1.262-1.649-.903-2.434-4.015 1.055-8.211 1.574-12.48 1.875-2.043-1.484-1.86-3.531 0-3.902 4.086.554 8.175-.246 12.269-1.672 10.098-3.157 14.996-13.758 25.282-18.403-12.239 2.68-24.012 6.368-33.278 11.524-13.137 3.16-23.301.371-35.32.555q-13.013-1.672-10.41 8.55l7.433-1.3c3.098.429 4.524 3.097-.183 4.644l-6.692.742c-1.734 2.352-4.027 11.215-.183 15.988 4.894 1.672 35.445 1.114 53.172 1.672-.122-2.23.742-3.964 2.601-5.203l3.156 1.856c-2.972 3.996-2.351 8.023 1.114 11.523l-2.231 2.414c-3.035-1.855-4.957-3.406-5.019-5.762l-46.289-1.113c1.203 5.824 5.355 10.719 15.984 13.571 13.445-2.231 29.496 0 44.805-1.672 5.781 8.84 14.781 8.121 21.793 7.086 5.808-.856 16.242-1.262 16.687-12.664-.93-4.153 3.344-4.958 4.461-1.301.102 16.008-15.43 18.851-34.207 18.961l-1.113 27.328c28.937 10.594 36.312 5.203 54.472 6.133zm-145.859 96.406-21.574-38.703c-3.043-5.243-6.723-10.235-11.801-13.45-6.176-3.921-10.699-8.808-12.817-15.097-.464-3.891-5.371-.422-7.867-2.156-1.945-5.2-10.996 2.281-16.496 3.425-2.195.887-2.621-1.519-1.265-3.425 7.214-4.426 15.285-7.036 24.871-5.711 4.226.632 2.875-3.68.125-4.313-15.438-1.902-16.157-.125-30.075 7.106-4.68.765-7.578-2.008-8.262-4.028-.773-2.285-.183-6.539 4.708-9.168 2.62 1.985 13.62.168 19.289-.886.804-1.352 1.355-2.747.125-4.438l-.254-6.723c11.547-1.183 16.242 1.438 25.508 11.293l19.414 22.336c16.074 21.223 30.222 32.364 47.59 48.223 8.304 7.945 16.394 13.531 24.914 23.84 2.144 2.429 4.074 2.504 4.504-1.715l5.363-1.07 2.574 2.359c-3.648 5.074-4.793 20.312-.426 38.199q-6.65 4.507-14.164 1.285c-11.656-12.8-28.898-28.183-34.98-38.414-1.145-5.648-5.508-4.004-4.074 1.071 3.359 6.007 7.437 11.656 13.089 16.523 7.282 6.555 16.563 18.473 24.094 24.965 4.172 3.598 11.133 2.406 16.68-1.098-.426 5.723.64 10.324-5.793 13.688-13.305 2.914-30.902-16.004-46.356-36.481-6.48-8.902-12.457-17.937-16.644-27.418zm149.273 286.883c52.66-.77 104.114-4.325 139.496-44.852q31.546-43.778 6.438-123.613c-18.024-53.723-20.817-69.031-63.738-107.731-22.676-15.379-47.286-29.898-70.391-45.281-10.594-8.441-15.383-12.59-15.02-32.832-18.75 2.941-37.187.563-55.367-6.223-6.152 21.602-17.883 28.614-27.469 40.989-.89 15.441 1.321 28.55 7.293 38.843-1.429 10.926-3.859 17.114-.425 31.977l2.574-47.641c6.152-5.308 8.582-11.785 5.578-19.957-1.285-2 1.93-3.144 3.219-.855q5.47 12.34-4.504 22.101c-1.145 22.606-3.574 44.996-3.434 67.817q3.324 4.935 9.227 8.152c1.82-3.355.57-7.867.855-11.801.215-2.215 2.789-2.929 3.219 1.071.856 20.742 3.645 41.058 5.148 61.59-1.859 18.453-2.07 36.91.641 55.367l3.219 42.062c-16.024-1.965-30.922-2.269-41.348 5.567-.933 1.722-.851 2.941.754 2.527 1.91-1.773 10.832-4.664 13.981-3.59 1.929 3.219-8.153 4.719-12.231 7.078-1.109 1.051-.59 2.102.641 1.93 5.937-2.078 11.804-3.797 17.168-3.004 4.148.211 5.293 4.074 3.218 4.719-6.328-.68-12.839-.106-19.742 3.218-.57 3.004 1.856 5.793 4.719 7.079 6.863 3.218 13.734-1.286 20.602-1.93 10.3-.5 23.992 3.144 31.613-1.195l-2.789-5.262c-.426-1.645 1.219-3.524 2.504-1.949l3.636 3.441c3.434-6.008 1.942-23.785 3.012-35.375-2.359-43.422 5.149-49.07 7.723-73.609 2.031-25.61 3.765-51.219 4.074-76.828 22.785-24.645 31.582-48.106 15.449-66.528l2.789-3.004c14.598 16.879 15.598 38.41-13.304 70.176l-1.715 24.035c28.113 14.637 35.191 10.825 52.793 9.227.765 7.578 5.953 12.375 17.597 13.09 15.172-11.821 34.114-10.496 47.856 1.715 9.816 11.066 17.078 22.835 20.601 35.625 2.215 6.652-1.98 30.406 9.036 26.328 3.195-1.41 5.339.925 1.476 3.929-9.726 4.364-14.594-5.578-14.594-29.828-15.136-35.902-27.484-41.328-37.687-41.39-13.113-.079-35.031-1.661-32.27 40.961 4.989 36.953 34.504 64.421 63.954 94l-2.79 2.574c-12.73-11.801-43.492-4.719-65.238-6.867-31.816-13.793-54.191-15.473-53.242 5.894 5.066-4.367 9.644-7.809 14.164-8.984 5.547-1.442 10.242-.696 15.277 1.258.914 2.031.891 3.195-.879 3.113-8.296-4.629-17.023-1.446-25.324 7.078-.601 1.219.137 2.437 1.071 1.93q12.016-10.944 25.75-7.297c1.054.949 1.152 2.48-.856 2.855-7.348-.679-14.469 1.539-21.242 6.582-.336 1.34.281 2.102 1.285 1.715 13.035-6.812 23.875-8.492 33.477-7.297 1.32.809 1.297 3.153-.641 3.004q-15.88-.535-30.902 7.508c3.644 4.398 8.367 6.828 15.449 4.934q7.188-6.223 16.094-5.579c11.39-1.179 21.152-.035 28.543 4.504 31.339 14.418 43.113 11.168 50.004 1.071-9.157 1.14-19.172 1.859-28.543.214l.425-3.433c36.95 1.004 33.871-1.141 51.289-22.317l2.575 2.145c-10.481 16.129-22.356 29.008-36.27 37.125-29.543 14.59-67.887 6.867-106.016 5.793-40.675-2.641-72.925-7.141-97.882-.473-18.211 4.86-32.356 16.289-38.391 30.09 62.734-14.519 92.207-7.582 136.703-7.512zM362.5 364.305c-21.07 1.125-29.812 11.82-16.586 39.574 10.735 26.125 30.875 49.621 54.414 72.164 5.43 1.066 10.86 1.555 16.293 3.199-49.269-44.199-67.308-82.516-54.125-114.941zM397 476.523c-14.89-3.34-29.785-3.226-44.683-4.84-9.016-.89-17.684-4.25-26.188-8.726-15.98-4.793-26.406 1.051-27.351 15.711.351 2.09 2.843 3.16 3.199 2.906 3.168-12.238 11.746-17.82 28.223-13.676l28.515 8.438c11.543 1.34 26.543.379 38.281.183zm-138.968-72.062c-2.977-1.035-3.071 3.488-.29 4.945 4.176 1.762 9.125 2.25 14.84 1.453-1.437 7.043-1.05 13.477.578 19.496 2.125 4.118 5.211 3.055 4.071-2.035-3.246-23.547 3.101-43.262 4.652-64.89-.394-8.543-4.25-6.723-4.07-.872.652 10.797-4.258 24.856-4.946 41.028-4.687 2.336-9.636 2.629-14.839.871zm55.902 98.101c.191-1.507-.207-2.761-1.918-3.453-1.992 1.91-3.426 4.379-4.606 7.102 2.172-1.215 4.348-3.141 6.524-3.645zm-5.567-4.992q-2.384 2.063-4.367 5.352c1.84-1.16 3.68-2.492 5.52-4.199.023-.79-.258-1.684-1.149-1.149zm-2.609-4.144c-2.133.988-3.777 3.968-5.644 7.406 2.296-1.813 4.898-5.258 6.89-5.75.297-1.059-.422-1.512-1.242-1.656zm-7.949-10.637c-.766 2.43-.109 4.453-2.301 7.293 2.031-.379 3.77-1.93 4.988-5.567-.75-1.726-1.664-2.167-2.683-1.726zm.191 12.863c.895-2.844 1.961-5.617 4.223-7.918 1.262-.578 1.402.676 1.344 2.539-2.262.977-3.305 4.192-5.567 5.375zm-81.703-.781c-3.219.32-5.355 3.254-5.59 5.75 2.473-.949 5.086-1.356 7.828-1.219-1.461-1.269-2.41-2.711-2.238-4.527zm-2.383-4.98c-1.773 1.183-3.343 3.316-3.488 5.589 1.16-1.246 3.445-2.39 4.609-2.82.747-.922-.132-2.148-1.117-2.766zm-1.726-6.141c-1.34 1.723-2.34 4.535-2.594 6.805.914-1.813 2.289-4.016 4.02-4.469.644-1.797-.543-2.879-1.426-2.332" style="stroke:none;fill-rule:evenodd;fill:#fffdfd"/></svg>