<svg
   xmlns="http://www.w3.org/2000/svg"
   id="svg2"
   viewBox="-20.65 -29.99 557.66 809.63"><title>Herb Dobrzyń nad Wisłą</title>
  <metadata
     id="metadata25">
    <rdf:RDF>
      <cc:Work
         rdf:about="">
        <dc:format>image/svg+xml</dc:format>
        <dc:type
           rdf:resource="http://purl.org/dc/dcmitype/StillImage" />
      </cc:Work>
    </rdf:RDF>
  </metadata>
  <sodipodi:namedview
     guidetolerance="10.0"
     gridtolerance="10.0"
     objecttolerance="10.0"
     borderopacity="1.0"
     bordercolor="#666666"
     pagecolor="#ffffff"
     id="base" />
  <defs
     id="defs4">
    <marker
       id="ArrowEnd"
       viewBox="0 0 10 10"
       refX="0"
       refY="5"
       markerUnits="strokeWidth"
       markerWidth="4"
       markerHeight="3"
       orient="auto">
      <path
         d="M 0 0 L 10 5 L 0 10 z"
         id="path7" />
    </marker>
    <marker
       id="ArrowStart"
       viewBox="0 0 10 10"
       refX="10"
       refY="5"
       markerUnits="strokeWidth"
       markerWidth="4"
       markerHeight="3"
       orient="auto">
      <path
         d="M 10 0 L 0 5 L 10 10 z"
         id="path10" />
    </marker>
  </defs>
  <path
     id="path14"
     d="M 516.355,0 L 516.355,450.129 C 516.355,749.656 0,749.656 0,450.129 L 0,0 L 516.355,0"
     style="fill:#222222;fill-rule:evenodd;stroke:none" />
  <path
     id="path16"
     d="M 328.656,126.066 L 328.656,113.547 L 300.168,113.547 L 300.168,126.094 L 274.137,126.094 L 274.137,113.558 L 242.957,113.558 L 242.957,125.945 L 220.844,125.945 L 220.844,113.473 L 188.918,113.473 L 188.918,126.055 L 162.394,126.055 L 162.394,120.625 L 258.914,37.887 L 352.242,121.609 L 352.242,126 L 328.668,126.066"
     style="fill:#005522;fill-rule:evenodd;stroke:none" />
  <path
     id="path18"
     d="M 167.797,158.07 L 354.094,158.07 L 354.094,281.738 L 352.273,281.738 L 352.273,323.992 L 329.258,323.992 L 329.258,281.789 L 297.168,281.789 L 297.168,324.031 L 272.301,324.031 L 272.301,281.808 L 242.418,281.808 L 242.418,324.082 L 218.656,324.082 L 218.676,281.781 L 185.582,281.785 L 185.582,323.98 L 167.73,323.98 L 167.808,158.066 L 167.797,158.07 z M 193.18,179.945 L 229.851,179.945 L 229.851,246.074 L 193.18,246.074 L 193.18,179.945 z M 292.976,179.945 L 329.648,179.945 L 329.648,246.074 L 292.976,246.074 L 292.976,179.945 z M 511.117,5.23395 L 511.117,448.379 C 511.117,743.262 5.2343,743.262 5.2343,448.379 L 5.2343,5.23395 L 511.117,5.23395 z M 495.406,20.9449 L 495.406,443.129 C 495.406,724.062 20.9453,724.062 20.9453,443.129 L 20.9453,20.9449 L 495.406,20.9449 z M 381.965,136.625 L 381.965,118.555 L 357.644,118.555 L 357.644,131.144 L 323.262,131.144 L 323.262,118.555 L 306.312,118.555 L 306.312,131.094 L 269.234,131.094 L 269.234,118.48 L 248.601,118.48 L 248.601,131.191 L 215.695,131.191 L 215.695,118.555 L 194.316,118.555 L 194.316,131.215 L 157.242,131.215 L 157.242,118.41 L 137.844,118.41 L 137.844,136.629 L 381.984,136.629 L 381.965,136.625 z M 356.41,154.109 L 165.09,154.109 L 145.687,141.058 L 376.551,141.058 L 356.414,154.109 L 356.41,154.109 z M 175.621,580.566 L 175.621,471.879 C 175.805,466.75 176.07,462.152 176.945,456.781 L 157,450.633 L 169.117,420.617 L 189.062,430.871 C 200.601,414.832 218.012,403.898 242.566,400.484 L 242.008,378.488 L 273.512,378.488 L 271.277,401.043 C 294.539,405.101 311.824,415.93 323.664,432.922 L 344.73,422.109 L 355.543,453.242 L 333.973,459.187 C 334.426,461.367 334.543,463.793 334.93,466.476 L 334.93,580.457 L 376.035,580.457 L 376.035,287.379 L 357.312,287.379 L 357.312,330.027 L 323.894,330.027 L 323.894,287.379 L 302.305,287.379 L 302.305,330.066 L 266.867,330.066 L 266.867,287.355 L 247.359,287.355 L 247.359,330.094 L 213.484,330.094 L 213.484,287.387 L 190.422,287.387 L 190.422,330.098 L 161.066,330.098 L 161.066,287.508 L 132.836,287.508 L 132.836,580.558 L 175.617,580.566 L 175.621,580.566 z M 193.348,475.422 L 193.348,580.449 L 180.742,580.449 L 180.742,470.566 C 180.742,466.594 181.23,462.617 182.23,458.641 L 195.031,461.746 C 193.742,466.285 193.426,470.887 193.344,475.418 L 193.348,475.422 z M 202.863,443.723 C 200.64,447.734 198.035,451.441 196.07,457.926 L 162.785,447.824 L 170.984,427.133 L 202.863,443.723 z M 205.957,439.586 C 201.922,437.414 197.988,435.394 193.945,433.219 C 204.203,419.918 220.062,408.601 242.652,405.75 C 242.836,410.285 243.125,414.211 243.312,418.746 C 226.266,420.629 215.437,428.867 205.953,439.59 L 205.957,439.586 z M 246.859,382.758 L 267.746,382.758 L 264.758,418.105 C 259.41,417.894 253.906,417.844 248.168,418.039 L 246.863,382.762 L 246.859,382.758 z M 270.808,406.152 L 269.422,418.934 C 284.691,421.879 296.734,429.262 305.547,441.074 L 317.89,435.18 C 307.996,420.875 290.766,409.285 270.808,406.152 z M 342.312,429.18 L 308.492,444.617 C 311.129,449.836 313.918,454.906 314.91,460.125 L 349.766,450.617 L 342.312,429.18 z M 329.726,580.449 L 329.726,471.523 C 329.543,468.773 329.281,462.726 328.488,460.242 L 315.801,463.301 C 316.398,466.609 317.016,468.422 317.105,473.234 L 317.105,580.457 L 329.726,580.449"
     style="fill:#fffdfd;fill-rule:evenodd;stroke:none" />
  <path
     id="path20"
     d="M 82.2501,186.684 C 86.3441,177 92.3941,173.723 102.762,184.547 C 111.875,200.855 98.9881,206.48 105.109,218.73 C 110.781,230 112.203,240.152 98.4881,246.293 C 85.9691,250.277 82.6601,242.66 87.1681,229.629 C 94.5041,204.203 78.1251,208.051 82.2581,186.684 L 82.2501,186.684 z M 415.367,182.293 C 417.996,169.617 432.355,170.613 436.906,185.277 C 440.035,186.578 442.25,188.492 443.551,191.019 C 438.89,196.992 434.23,202.965 429.574,208.941 C 425.527,212.613 428.887,216.976 437.594,214.453 C 443.551,211.926 446.758,215.832 443.781,220.656 C 440.648,225.898 439.805,230.949 444.008,235.586 C 446.719,240.101 446.183,243.855 438.512,245.926 C 433.547,247.305 428.582,248.68 423.617,250.058 C 416.93,252.199 415.711,250.133 416.973,246.156 C 423.488,229.914 427.785,214.058 416.519,200.894 C 413.562,195.437 413.676,187.66 415.375,182.285 L 415.367,182.293 z M 490.172,26.184 L 490.172,441.383 C 490.172,717.664 26.1875,717.664 26.1875,441.383 L 26.1875,26.184 L 490.172,26.184 z M 53.457,178.223 C 63.1911,165.035 93.9261,154.953 113.473,173.121 C 129.949,188.43 137.648,232.164 125.133,244.558 C 103.914,263.426 86.5781,256.301 58.7969,274.203 C 62.9261,265.781 67.0581,257.355 71.1871,248.934 C 71.1871,228.359 71.1871,207.789 71.1871,187.215 C 70.9691,180.558 62.7771,179.023 53.4492,178.226 L 53.457,178.223 z M 388.117,173.328 C 416.109,159.769 455.598,158.926 460.394,177.488 C 463.266,187.004 461.383,194.934 454.746,201.281 C 463.086,205.226 470.43,210.668 470.808,226.562 C 469.023,245.609 459.109,255.004 444.633,258.984 C 436.305,260.308 427.973,261.469 419.648,265.226 C 410.133,269.289 400.613,273.355 391.094,277.422 C 395.258,270.086 399.422,262.746 403.586,255.41 C 403.586,233.004 403.586,210.594 403.586,188.187 C 402,177.871 396.051,174.105 388.121,173.316 L 388.117,173.328 z M 259.101,31.449 L 162.172,115.535 L 162.172,113.523 L 133.066,113.523 L 133.066,137.824 L 162.172,158.039 L 162.172,281.875 L 127.801,281.875 L 127.801,585.375 L 198.609,585.375 L 198.609,472.262 C 198.683,453.281 216.711,423.047 255.664,422.945 C 292.418,423.004 311.703,452.824 311.805,473.418 L 311.805,585.551 L 382.152,585.551 L 382.047,281.766 L 358.316,281.766 L 358.316,158.965 L 386.738,139.894 L 386.738,113.476 L 352.199,113.476 L 352.199,115.785 L 259.109,31.457"
     style="fill:#ff0000;fill-rule:evenodd;stroke:none" />
  <path
     id="path22"
     d="M 81.8871,209.57 C 89.2581,218.801 81.0821,226.09 80.6721,237.269 C 79.7851,249.254 85.3671,253.785 97.4371,250.875 C 111.449,249.297 118.414,235.121 111.043,219.773 C 103.187,210.945 112.578,203.578 110.801,194.019 C 106.348,170.367 84.2341,166.562 78.4841,184.301 C 76.7071,194.019 77.8401,202.445 81.8831,209.57 L 81.8871,209.57 z M 62.6871,175.551 C 78.2151,165.59 93.4841,164.055 108.367,174.824 C 122.902,189.117 127.191,210.012 125.617,232.898 C 123.644,252.168 82.1601,255.594 68.7581,263.758 C 71.1051,258.82 73.4531,253.875 75.8051,248.937 C 75.8051,229.418 75.8051,209.898 75.8051,190.379 C 76.1481,178.141 69.5311,176.672 62.6831,175.558 L 62.6871,175.551 z M 399.555,172.644 C 415.664,167.766 430.789,166.121 444.469,169.199 C 458.519,172.414 463.332,189.644 447.676,202.285 C 459.414,207.988 467.41,215.644 465.09,228.707 C 463.734,243.617 454.758,251.621 440.57,254.898 C 431.668,256.426 422.953,258.719 414.676,262.707 C 410.094,264.695 405.512,266.687 400.93,268.68 C 403.371,264.391 405.816,260.105 408.258,255.816 C 408.258,233.453 408.258,211.09 408.258,188.726 C 407.414,179.914 404.055,175.324 399.551,172.644 L 399.555,172.644 z M 411.469,178.617 C 414.441,167.891 435.062,163.598 440.34,181.601 C 444.387,183.742 447.664,186.652 449.273,191.25 C 444.234,197.449 439.191,203.652 434.152,209.855 C 445.051,205.047 452.726,213.586 448.816,221.801 C 446.144,226.238 445.914,230.07 448.129,233.285 C 452.211,239.562 452.289,245.078 443.551,248.91 C 436.371,251.051 429.191,253.195 422.012,255.34 C 412.156,257.937 410.402,252.121 413.305,244.086 C 418.957,228.918 421.168,216.051 415.824,208.246 C 409.504,198.363 408.625,188.48 411.473,178.605"
     style="fill:#ffff00;fill-rule:evenodd;stroke:none" />
</svg>