<!-- Created with Inkscape (http://www.inkscape.org/) -->

<svg
   xmlns="http://www.w3.org/2000/svg"
   version="1.0"
   id="svg3332"><title>Herb Barcin</title>
  <metadata
     id="metadata13">
    <rdf:RDF>
      <cc:Work
         rdf:about="">
        <dc:format>image/svg+xml</dc:format>
        <dc:type
           rdf:resource="http://purl.org/dc/dcmitype/StillImage" />
        <dc:title></dc:title>
      </cc:Work>
    </rdf:RDF>
  </metadata>
  <sodipodi:namedview
     pagecolor="#ffffff"
     bordercolor="#666666"
     borderopacity="1"
     objecttolerance="10"
     gridtolerance="10"
     guidetolerance="10"
     id="namedview11"
     showgrid="false" />
  <defs
     id="defs3335" />
  <path
     d="M 3.7501646,3.7501796 5.4017766,590.60774 C 6.0580875,823.81084 297.75431,763.65821 375.99992,864.84717 447.1989,758.3625 746.64661,818.39171 746.32992,590.60774 L 745.514,3.7501796 l -741.7638354,0 z"
     style="fill:#ffffff;fill-opacity:1;stroke:#000000;stroke-width:7.49999857;stroke-miterlimit:4;stroke-dasharray:none;stroke-opacity:1"
     id="path5010" />
  <g
     transform="matrix(2.1534726,0,0,2.1534726,352.83618,1002.8846)"
     style="stroke:none;stroke-width:1.65787554000000000;stroke-miterlimit:4;stroke-opacity:1;stroke-dasharray:none"
     id="g3756">
    <path
       d="m 12.96875,-423.5 c -1.936232,0.007 -0.803869,0.037 -2.46875,0.0312 -11.37560061,0.4366 -23.612269,3.48839 -34.40625,9.125 -3.787943,1.97806 -7.643032,4.45233 -11.0625,7.4375 -1.18569,-0.93916 -2.458481,-1.79571 -3.75,-2.53125 -5.039153,-2.86987 -10.147331,-4.32398 -16.40625,-5.9375 -6.971664,-1.8011 -14.101549,2.31283 -16.03125,9.25 -1.711176,6.15188 -3.047085,11.24471 -3.1875,17.03125 -0.04032,1.66176 0.09569,3.36487 0.34375,5.0625 -4.226091,1.52125 -8.167396,3.59712 -11.9375,6.03125 -10.556292,6.81556 -19.80119,16.14224 -25.78125,26.5 -5.83674,10.10953 -9.64396,22.56614 -10.4375,35.15625 -0.30684,4.86817 -0.13583,9.75725 0.875,14.625 -1.42463,0.55906 -2.79327,1.21074 -4.09375,1.96875 -5.01225,2.92148 -8.87335,6.63015 -13.40625,11.25 -5.03873,5.13739 -5.03873,13.36261 0,18.5 4.47206,4.55783 8.24638,8.26564 13.1875,11.28125 1.4253,0.86987 2.96043,1.58265 4.5625,2.21875 -0.80008,4.43443 -0.97548,8.91024 -0.75,13.40625 0.62944,12.55111 4.08366,25.20685 10.0625,35.5625 5.83796,10.11164 14.741928,19.64783 25.25,26.625 4.063303,2.69796 8.372418,5.00629 13.09375,6.5625 -0.222954,1.50161 -0.351427,3.00774 -0.34375,4.5 0.02984,5.80093 1.329168,10.98722 3.0625,17.21875 1.929701,6.93717 9.059586,11.0511 16.03125,9.25 6.181511,-1.59356 11.261586,-2.98046 16.34375,-5.75 1.458206,-0.79465 2.841769,-1.78151 4.1875,-2.84375 3.436847,2.90749 7.216582,5.29108 11.21875,7.34375 11.183925,5.73612 23.8813831,9.09375 35.84375,9.09375 11.678169,0 24.387788,-2.94894 35.6875,-8.5625 4.352948,-2.16249 8.488554,-4.76951 12.1875,-8.0625 1.196044,0.95004 2.477164,1.81981 3.78125,2.5625 5.039155,2.86987 10.147328,4.32398 16.40625,5.9375 6.971664,1.8011 14.101549,-2.31283 16.03125,-9.25 1.711176,-6.15187 3.04708,-11.24471 3.1875,-17.03125 0.0403,-1.66176 -0.0957,-3.36487 -0.34375,-5.0625 4.22769,-1.52062 8.19598,-3.5976 11.96875,-6.03125 10.56376,-6.81423 19.79794,-16.13659 25.78125,-26.5 5.83999,-10.11516 9.65352,-22.56514 10.4375,-35.15625 0.3032,-4.86948 0.10852,-9.78861 -0.90625,-14.65625 1.42183,-0.56146 2.82894,-1.21008 4.125,-1.96875 5.00572,-2.93017 8.84763,-6.63581 13.375,-11.25 5.03873,-5.13739 5.03873,-13.36261 0,-18.5 -4.47205,-4.55782 -8.24638,-8.26564 -13.1875,-11.28125 -1.41719,-0.86492 -2.93905,-1.58491 -4.53125,-2.21875 0.79835,-4.42354 0.97156,-8.88917 0.75,-13.375 -0.61997,-12.55207 -4.08041,-25.20121 -10.0625,-35.5625 -5.84121,-10.11727 -14.73446,-19.64926 -25.25,-26.625 -4.05807,-2.69202 -8.38194,-5.00704 -13.09375,-6.5625 0.226249,-1.51048 0.351491,-3.02983 0.34375,-4.53125 -0.02989,-5.79779 -1.329978,-10.95889 -3.0625,-17.1875 -1.929701,-6.93717 -9.059586,-11.0511 -16.03125,-9.25 -6.18151,1.59356 -11.261586,2.98046 -16.34375,5.75 -1.458206,0.79465 -2.841769,1.78151 -4.1875,2.84375 -3.436847,-2.90749 -7.216581,-5.29108 -11.21875,-7.34375 -11.183925,-5.73612 -23.881377,-9.09376 -35.84375,-9.09375 z"
       style="fill:#f1170e;fill-opacity:1;stroke:#ffff54;stroke-width:1.65787554000000000;stroke-linecap:round;stroke-linejoin:round;stroke-miterlimit:4;stroke-opacity:1;stroke-dasharray:none"
       id="path3596" />
    <path
       d="m 11.03125,-423.5 c -0.14122,0.004 -0.325132,0.0233 -0.53125,0.0312 -11.37560061,0.4366 -23.612269,3.48839 -34.40625,9.125 -3.787943,1.97806 -7.643032,4.45233 -11.0625,7.4375 -1.18569,-0.93916 -2.458481,-1.79571 -3.75,-2.53125 -5.039153,-2.86987 -10.147331,-4.32398 -16.40625,-5.9375 -6.971664,-1.8011 -14.101549,2.31283 -16.03125,9.25 -1.711176,6.15188 -3.047085,11.24471 -3.1875,17.03125 -0.04032,1.66176 0.09569,3.36487 0.34375,5.0625 -4.226091,1.52125 -8.167396,3.59712 -11.9375,6.03125 -10.556292,6.81556 -19.80119,16.14224 -25.78125,26.5 -5.83674,10.10953 -9.64396,22.56614 -10.4375,35.15625 -0.30684,4.86817 -0.13583,9.75725 0.875,14.625 -1.42463,0.55906 -2.79327,1.21074 -4.09375,1.96875 -5.01225,2.92148 -8.87335,6.63015 -13.40625,11.25 -5.03873,5.13739 -5.03873,13.36261 0,18.5 4.47206,4.55783 8.24638,8.26564 13.1875,11.28125 1.4253,0.86987 2.96043,1.58265 4.5625,2.21875 -0.80008,4.43443 -0.97548,8.91024 -0.75,13.40625 0.62944,12.55111 4.08366,25.20685 10.0625,35.5625 5.83796,10.11164 14.741928,19.64783 25.25,26.625 4.063303,2.69796 8.372418,5.00629 13.09375,6.5625 -0.222954,1.50161 -0.351427,3.00774 -0.34375,4.5 0.02984,5.80093 1.329168,10.98722 3.0625,17.21875 1.929701,6.93717 9.059586,11.0511 16.03125,9.25 6.181511,-1.59356 11.261586,-2.98046 16.34375,-5.75 1.458206,-0.79465 2.841769,-1.78151 4.1875,-2.84375 3.436847,2.90749 7.216582,5.29108 11.21875,7.34375 11.183925,5.73612 23.8813831,9.09375 35.84375,9.09375 11.678169,0 24.387788,-2.94894 35.6875,-8.5625 4.352948,-2.16249 8.488554,-4.76951 12.1875,-8.0625 1.196044,0.95004 2.477164,1.81981 3.78125,2.5625 5.039155,2.86987 10.147328,4.32398 16.40625,5.9375 6.971664,1.8011 14.101549,-2.31283 16.03125,-9.25 1.711176,-6.15187 3.04708,-11.24471 3.1875,-17.03125 0.0403,-1.66176 -0.0957,-3.36487 -0.34375,-5.0625 4.22769,-1.52062 8.19598,-3.5976 11.96875,-6.03125 10.56376,-6.81423 19.79794,-16.13659 25.78125,-26.5 5.83999,-10.11516 9.65352,-22.56514 10.4375,-35.15625 0.3032,-4.86948 0.10852,-9.78861 -0.90625,-14.65625 1.42183,-0.56146 2.82894,-1.21008 4.125,-1.96875 5.00572,-2.93017 8.84763,-6.63581 13.375,-11.25 5.03873,-5.13739 5.03873,-13.36261 0,-18.5 -4.47205,-4.55782 -8.24638,-8.26564 -13.1875,-11.28125 -1.41719,-0.86492 -2.93905,-1.58491 -4.53125,-2.21875 0.79835,-4.42354 0.97156,-8.88917 0.75,-13.375 -0.61997,-12.55207 -4.08041,-25.20121 -10.0625,-35.5625 -5.84121,-10.11727 -14.73446,-19.64926 -25.25,-26.625 -4.05807,-2.69202 -8.38194,-5.00704 -13.09375,-6.5625 0.226249,-1.51048 0.351491,-3.02983 0.34375,-4.53125 -0.02989,-5.79779 -1.329978,-10.95889 -3.0625,-17.1875 -1.929701,-6.93717 -9.059586,-11.0511 -16.03125,-9.25 -6.18151,1.59356 -11.261586,2.98046 -16.34375,5.75 -1.458206,0.79465 -2.841769,1.78151 -4.1875,2.84375 -3.436847,-2.90749 -7.216581,-5.29108 -11.21875,-7.34375 -11.183925,-5.73612 -23.881377,-9.09376 -35.84375,-9.09375 -0.198934,0 -0.730726,0.0101 -1.5625,0.0312 0.01774,-0.001 0.05196,-0.0303 0.0625,-0.0312 -0.05525,-0.002 -0.202134,-0.007 -0.4375,0 z m -0.375,9.75 c 0.07613,-0.003 0.142812,0.003 0.21875,0 0.246982,-0.009 0.408042,-0.003 0.46875,0 0.0041,3.2e-4 0.02904,-3.3e-4 0.03125,0 0.640692,-0.0183 1.171524,0 1.59375,0 9.896818,-10e-6 21.699799,3.02166 31.40625,8 4.853226,2.48917 9.177274,5.46717 12.4375,9 1.246166,1.35037 2.274725,2.832 3.15625,4.375 0.05534,-0.1074 0.09446,-0.20547 0.15625,-0.3125 2.202735,-3.81525 5.039403,-6.6654 8.75,-8.6875 3.710597,-2.0221 8.145712,-3.33357 14.125,-4.875 1.83569,-0.47412 3.712677,0.61036 4.21875,2.4375 1.66047,5.96958 2.665884,10.46342 2.6875,14.65625 0.02162,4.19283 -1.103846,8.00988 -3.28125,11.78125 -0.125677,0.21768 -0.306206,0.35214 -0.4375,0.5625 2.235012,-0.19094 4.531068,-0.017 6.78125,0.46875 4.769884,1.02967 9.50056,3.30696 14.03125,6.3125 9.06137,6.01108 17.30717,14.8679 22.21875,23.375 4.94864,8.57131 8.21198,20.29458 8.75,31.1875 0.26901,5.44646 -0.13155,10.69252 -1.5625,15.28125 -0.54819,1.75792 -1.3207,3.39971 -2.21875,4.9375 0.008,-1.3e-4 0.0239,3.3e-4 0.0312,0 0.0872,-0.006 0.19351,-0.0264 0.28125,-0.0312 0.007,-2.1e-4 0.0237,0 0.0312,0 4.40528,-10e-6 8.29833,1.04805 11.90625,3.25 3.60792,2.20195 6.95636,5.37342 11.28125,9.78125 1.33065,1.35259 1.33065,3.52241 0,4.875 -4.33944,4.42266 -7.71883,7.53435 -11.34375,9.65625 -3.62492,2.1219 -7.48466,3.0625 -11.84375,3.0625 -0.25571,0 -0.46672,-0.0849 -0.71875,-0.0937 1.29397,1.84757 2.32271,3.92128 3.03125,6.125 1.49319,4.64418 1.869,9.88813 1.53125,15.3125 -0.6755,10.84874 -4.24499,22.43096 -9.15625,30.9375 -4.94897,8.57187 -13.45662,17.24212 -22.625,23.15625 -4.58419,2.95706 -9.340494,5.22541 -14.03125,6.28125 -1.79601,0.40426 -3.594768,0.57084 -5.375,0.5625 0.01052,0.0176 0.01958,0.0468 0.03125,0.0625 0.03183,0.0408 0.09346,0.0838 0.125,0.125 0.01154,0.0159 0.02094,0.0446 0.03125,0.0625 2.202333,3.81455 3.258759,7.71309 3.15625,11.9375 -0.102509,4.22441 -1.188896,8.73811 -2.84375,14.6875 -0.506073,1.82714 -2.38306,2.91162 -4.21875,2.4375 -5.999655,-1.54668 -10.383782,-2.92272 -14.03125,-5 -3.647468,-2.07728 -6.383539,-4.94468 -8.5625,-8.71875 -0.119598,-0.20715 -0.145002,-0.416 -0.25,-0.625 -0.951644,2.02429 -2.270753,3.89331 -3.8125,5.59375 -3.277141,3.61446 -7.631542,6.58141 -12.5,9 -9.736917,4.83718 -21.521711,7.53125 -31.34375,7.53125 -9.896817,0 -21.6997989,-3.02166 -31.40625,-8 -4.853226,-2.48917 -9.177274,-5.46717 -12.4375,-9 -1.246166,-1.35037 -2.274725,-2.832 -3.15625,-4.375 -0.05545,0.10762 -0.09426,0.20514 -0.15625,0.3125 -2.202736,3.81525 -5.039403,6.6654 -8.75,8.6875 -3.710597,2.0221 -8.145712,3.33357 -14.125,4.875 -1.83569,0.47412 -3.712677,-0.61036 -4.21875,-2.4375 -1.660684,-5.97035 -2.665896,-10.48809 -2.6875,-14.6875 -0.0216,-4.19941 1.102693,-8.00788 3.28125,-11.78125 0.118,-0.20438 0.283293,-0.33337 0.40625,-0.53125 -2.234302,0.19097 -4.532238,0.0171 -6.78125,-0.46875 -4.767406,-1.02986 -9.504425,-3.30677 -14.03125,-6.3125 -9.053649,-6.01146 -17.276775,-14.86938 -22.1875,-23.375 -4.94779,-8.56982 -8.23498,-20.29483 -8.78125,-31.1875 -0.27313,-5.44634 0.13472,-10.69199 1.5625,-15.28125 0.55538,-1.78513 1.33306,-3.44275 2.25,-5 -0.0166,3.2e-4 -0.0466,-0.002 -0.0625,0 -0.0784,0.0125 -0.17124,0.051 -0.25,0.0625 -0.016,0.002 -0.0458,0 -0.0625,0 -4.40528,-10e-6 -8.29833,-1.04805 -11.90625,-3.25 -3.60792,-2.20195 -6.95636,-5.37342 -11.28125,-9.78125 -1.33065,-1.35259 -1.33065,-3.52241 0,-4.875 4.3409,-4.42416 7.71711,-7.5424 11.34375,-9.65625 3.62664,-2.11385 7.48928,-3.03125 11.84375,-3.03125 0.25624,0 0.46622,0.0849 0.71875,0.0937 -1.29324,-1.84799 -2.29297,-3.92101 -3,-6.125 -1.49002,-4.64474 -1.87313,-9.88826 -1.53125,-15.3125 0.68377,-10.84847 4.24585,-22.43244 9.15625,-30.9375 4.948113,-8.57037 13.464342,-17.24177 22.625,-23.15625 4.580329,-2.95724 9.311744,-5.22522 14,-6.28125 1.795053,-0.40434 3.595402,-0.57086 5.375,-0.5625 -0.0105,-0.0176 -0.01958,-0.0468 -0.03125,-0.0625 -0.03183,-0.0408 -0.09345,-0.0838 -0.125,-0.125 -0.01154,-0.0159 -0.02096,-0.0447 -0.03125,-0.0625 -2.202332,-3.81455 -3.258759,-7.71309 -3.15625,-11.9375 0.102509,-4.22441 1.188896,-8.73811 2.84375,-14.6875 0.506073,-1.82714 2.38306,-2.91162 4.21875,-2.4375 5.999655,1.54668 10.383782,2.92272 14.03125,5 3.647468,2.07728 6.383538,4.94468 8.5625,8.71875 0.13066,0.22631 0.160476,0.45993 0.28125,0.6875 2.746744,-5.92236 8.588849,-10.66149 15.28125,-14.15625 9.174524,-4.79093 20.39390316,-7.62305 30.0625,-8.03125 z"
       style="fill:#ffff54;fill-opacity:1;stroke:none;stroke-width:1.65787554000000000;stroke-linecap:round;stroke-linejoin:round;stroke-miterlimit:4;stroke-opacity:1;stroke-dasharray:none"
       id="path3598" />
    <path
       d="m -25.65285,-279.23673 c 0,16.86382 -42.36898,0.92535 -62.68897,4.95833 -6.00134,1.1911 -12.42586,7.04167 -20.27502,7.04167 -7.83757,0 -12.16924,-3.29144 -20.71392,-12 8.54468,-8.70856 12.87635,-11.67224 20.71392,-11.67224 7.84916,0 14.27368,5.85057 20.27502,7.04168 20.31999,4.03297 62.68897,-12.24402 62.68897,4.63056 z m 19.0624037,-33.57954 c -14.6044847,8.43191 -21.9858647,-36.22992 -35.6385157,-51.81105 -4.032198,-4.60176 -12.311199,-7.24027 -16.235779,-14.03783 -3.918785,-6.78754 -3.234149,-12.18459 0.03534,-23.93878 11.81417,3.04563 16.546627,5.31512 20.465412,12.10265 3.92458,6.79757 2.070099,15.28665 4.039241,21.07952 6.667339,19.6141 41.9481125,48.1682 27.3343017,56.60549 z m 38.6117503,-0.28117 c -14.604485,-8.43191 20.383115,-37.15527 27.050454,-56.76938 1.969142,-5.79286 0.114661,-14.28194 4.039241,-21.07951 3.918785,-6.78753 8.935091,-8.89314 20.74926,-11.93877 3.26949,11.75418 3.670277,16.98736 -0.248508,23.77489 -3.92458,6.79757 -12.203581,9.43608 -16.235779,14.03784 -13.652651,15.58113 -20.740858,60.41222 -35.354668,51.97493 z m 19.549346,33.29827 c 0,-16.86382 42.36898,-0.92535 62.68897,-4.95833 6.00134,-1.1911 12.42586,-7.04167 20.27502,-7.04167 7.83757,0 12.16924,3.29144 20.71392,12 -8.54468,8.70856 -12.87635,11.67224 -20.71392,11.67224 -7.84916,0 -14.27368,-5.85057 -20.27502,-7.04168 -20.31999,-4.03297 -62.68897,12.24402 -62.68897,-4.63056 z m -19.062404,33.57953 c 14.604485,-8.43191 21.985865,36.22992 35.638516,51.81105 4.032198,4.60176 12.311199,7.24027 16.235779,14.03783 3.918785,6.78754 3.234149,12.18459 -0.03534,23.93878 -11.81417,-3.04563 -16.546627,-5.31512 -20.465412,-12.10265 -3.92458,-6.79757 -2.070099,-15.28665 -4.039241,-21.07952 -6.667339,-19.6141 -41.948112,-48.1682 -27.334302,-56.60549 z m -38.6117497,0.28119 c 14.6044845,8.4319 -20.3831153,37.15527 -27.0504543,56.76937 -1.969142,5.79287 -0.114661,14.28195 -4.039241,21.07951 -3.918785,6.78754 -8.935091,8.89315 -20.74926,11.93878 -3.26949,-11.75419 -3.670277,-16.98736 0.248508,-23.7749 3.92458,-6.79756 12.203581,-9.43607 16.235779,-14.03783 13.652651,-15.58113 20.740858,-60.41223 35.3546683,-51.97493 z"
       style="fill:#225f2f;fill-opacity:1;fill-rule:evenodd;stroke:none;stroke-width:1.65787554000000000;stroke-linecap:butt;stroke-linejoin:miter;stroke-miterlimit:4;stroke-opacity:1;stroke-dasharray:none"
       id="path3549" />
    <path
       d="m 56.76797,-180.85395 c -1.70501,1.17371 -3.34859,2.52027 -4.95195,4.0625 -19.42361,18.68303 -19.4323,0 -38.85591,0 -19.42362,-1e-5 -19.43231,18.68303 -38.85592,0 -1.56686,-1.50712 -3.21633,-2.81404 -4.92381,-3.96875 2.04171,3.95363 4.41506,7.40808 7.1747,10.0625 18.30228,17.60445 18.30274,-2e-5 36.60503,0 18.30227,0 18.30274,17.60444 36.60503,0 2.77966,-2.67368 5.15116,-6.16667 7.20283,-10.15625 z m -107.34995,-11.39244 c -1.868967,-0.88972 -3.856912,-1.63982 -5.994201,-2.25726 -25.891776,-7.47982 -9.71615,-16.82886 -19.427955,-33.65019 -9.711802,-16.82134 -25.896124,-7.48735 -19.42796,-33.6502 0.521773,-2.1105 0.828864,-4.19244 0.975131,-6.24851 -2.403087,3.74498 -4.208052,7.52759 -5.127026,11.24472 -6.094759,24.65245 9.151387,15.85062 18.302515,31.70087 9.151135,15.85022 -6.094515,24.65285 18.302515,31.70087 3.705303,1.07041 7.91607,1.3777 12.396981,1.1597 z m -43.80907,-98.66395 c -0.163957,-2.06343 -0.508322,-4.16009 -1.042251,-6.31976 -6.468169,-26.16285 9.71615,-16.82886 19.427955,-33.65019 9.711818,-16.82133 -6.463816,-26.17038 19.42796,-33.6502 2.088633,-0.60338 4.045194,-1.3784 5.898941,-2.27976 -4.444797,-0.20865 -8.623112,0.11951 -12.301726,1.18222 -24.397034,7.048 -9.151353,15.85064 -18.302515,31.70087 -9.151135,15.85022 -24.397254,7.04841 -18.302515,31.70087 0.925643,3.74409 2.76491,7.54437 5.194151,11.31595 z m 63.54088,-87.27161 c 1.70501,-1.17371 3.34859,-2.52027 4.95195,-4.0625 19.42361,-18.68303 19.4323,0 38.85591,0 19.42362,10e-6 19.43231,-18.68303 38.85592,0 1.56686,1.50712 3.21633,2.81404 4.92381,3.96875 -2.04171,-3.95363 -4.41506,-7.40808 -7.1747,-10.0625 -18.30228,-17.60445 -18.30274,2e-5 -36.60503,0 -18.30227,0 -18.30274,-17.60444 -36.60503,0 -2.77966,2.67368 -5.15116,6.16667 -7.20283,10.15625 z m 107.34995,11.39243 c 1.868967,0.88972 3.856912,1.63982 5.994201,2.25726 25.891779,7.47982 9.71615,16.82886 19.427959,33.65019 9.7118,16.82134 25.89612,7.48735 19.42796,33.6502 -0.52178,2.1105 -0.82887,4.19244 -0.97514,6.24851 2.40309,-3.74498 4.20806,-7.52759 5.12703,-11.24472 6.09476,-24.65245 -9.15139,-15.85062 -18.30251,-31.70087 -9.151139,-15.85022 6.09451,-24.65285 -18.302519,-31.70087 -3.705303,-1.07041 -7.91607,-1.3777 -12.396981,-1.1597 z m 43.80907,98.66396 c 0.16396,2.06344 0.50832,4.1601 1.04225,6.31977 6.46817,26.16284 -9.71615,16.82885 -19.42795,33.65018 -9.711822,16.82134 6.46381,26.17039 -19.427964,33.6502 -2.088633,0.60338 -4.045194,1.37841 -5.898941,2.27977 4.444797,0.20864 8.623112,-0.11951 12.301726,-1.18222 24.397039,-7.04801 9.151353,-15.85064 18.302519,-31.70087 9.15113,-15.85022 24.39725,-7.04841 18.30251,-31.70087 -0.92564,-3.7441 -2.76491,-7.54437 -5.19415,-11.31596 z"
       style="fill:#ffffff;fill-opacity:1;stroke:none;stroke-width:1.65787554000000000;stroke-linecap:round;stroke-linejoin:round;stroke-miterlimit:4;stroke-opacity:1;stroke-dasharray:none"
       id="path3551" />
    <path
       d="m 12.95656,-270.36955 c -5.05313,0 -9.15422,-4.10109 -9.15422,-9.15422 0,-5.05313 4.10109,-9.15422 9.15422,-9.15422 5.05313,0 9.15423,4.10109 9.15423,9.15422 0,5.05313 -4.1011,9.15422 -9.15423,9.15422 z m -0.4428,-23.8423 c -5.05313,0 -9.15422,-4.10109 -9.15422,-9.15422 0,-5.05313 4.10109,-9.15422 9.15422,-9.15422 5.05313,0 9.15423,4.10109 9.15423,9.15422 0,5.05313 -4.1011,9.15422 -9.15423,9.15422 z m 12.94792,6.96146 c -2.52657,-4.37614 -1.02547,-9.97834 3.35067,-12.5049 4.37614,-2.52657 9.97834,-1.02546 12.5049,3.35068 2.52657,4.37614 1.02547,9.97833 -3.35067,12.5049 -4.37614,2.52657 -9.97834,1.02546 -12.5049,-3.35068 z m 0.44507,14.69388 c 2.52656,-4.37614 8.12876,-5.87725 12.5049,-3.35068 4.37614,2.52656 5.87724,8.12876 3.35067,12.5049 -2.52656,4.37614 -8.12876,5.87724 -12.5049,3.35068 -4.37614,-2.52657 -5.87724,-8.12876 -3.35067,-12.5049 z m -12.50275,7.73242 c 5.05313,0 9.15422,4.10109 9.15422,9.15422 0,5.05313 -4.10109,9.15422 -9.15422,9.15422 -5.05313,0 -9.15423,-4.10109 -9.15423,-9.15422 0,-5.05313 4.1011,-9.15422 9.15423,-9.15422 z m -12.94782,-6.96146 c 2.52657,4.37614 1.02547,9.97834 -3.35067,12.5049 -4.37614,2.52657 -9.97834,1.02546 -12.5049,-3.35068 -2.52657,-4.37614 -1.02547,-9.97833 3.35067,-12.5049 4.37614,-2.52656 9.97834,-1.02546 12.5049,3.35068 z m -0.44513,-14.69388 c -2.52656,4.37614 -8.12876,5.87725 -12.5049,3.35068 -4.37614,-2.52656 -5.87724,-8.12876 -3.35067,-12.5049 2.52656,-4.37614 8.12876,-5.87724 12.5049,-3.35068 4.37614,2.52657 5.87724,8.12876 3.35067,12.5049 z"
       style="fill:#ffff54;fill-opacity:1;stroke:none;stroke-width:1.65787554000000000;stroke-linecap:round;stroke-linejoin:round;stroke-miterlimit:4;stroke-opacity:1;stroke-dasharray:none"
       id="path3610" />
  </g>
</svg>