<!-- Created with Inkscape (http://www.inkscape.org/) -->

<svg role="img" viewBox="-28.48 -33.87 856.75 1007.16"
   xmlns="http://www.w3.org/2000/svg"
   id="svg3004"
   version="1.1"><title>Herb Rydułtowy</title><metadata
     id="metadata3010"><rdf:RDF><cc:Work
         rdf:about=""><dc:format>image/svg+xml</dc:format><dc:type
           rdf:resource="http://purl.org/dc/dcmitype/StillImage" /></cc:Work></rdf:RDF></metadata><defs
     id="defs3008" /><sodipodi:namedview
     pagecolor="#ffffff"
     bordercolor="#666666"
     borderopacity="1"
     objecttolerance="10"
     gridtolerance="10"
     guidetolerance="10"
     id="namedview3006"
     showgrid="false"
     fit-margin-top="0"
     fit-margin-left="0"
     fit-margin-right="0"
     fit-margin-bottom="0" /><g
     id="g3012"
     transform="matrix(1.25,0,0,-1.25,-1.1525444,940.09084)"><g
       id="g3070"
       transform="matrix(9.4678814,0,0,9.4678814,-7.0664894,-5.0619725)"><path
         d="m 68.1461,31.2234 c 4e-4,-0.0382 0.0019,-0.0765 0.0019,-0.1152 0,-16.6484 -15.0558,-30.22695 -33.5148,-30.22695 -18.4594,0 -33.51523,13.57855 -33.51523,30.22695 0,0.0387 0.00156,0.077 0.00156,0.1152 l -0.00156,0 0,48.4555 67.03003,0 0,-48.4555 -0.0019,0"
         style="fill:#0e88d3;fill-opacity:1;fill-rule:evenodd;stroke:none"
         id="path3016" /><path
         d="m 68.1461,31.2234 c 4e-4,-0.0382 0.0019,-0.0765 0.0019,-0.1152 0,-16.6484 -15.0558,-30.22695 -33.5148,-30.22695 -18.4594,0 -33.51523,13.57855 -33.51523,30.22695 0,0.0387 0.00156,0.077 0.00156,0.1152 l -0.00156,0 0,48.4555 67.03003,0 0,-48.4555 -0.0019,0 z"
         style="fill:none;stroke:#231f20;stroke-width:0.56693;stroke-linecap:butt;stroke-linejoin:miter;stroke-miterlimit:2.61310005;stroke-opacity:1;stroke-dasharray:none"
         id="path3018" /><path
         d="M 5.58789,56.1621 24.4441,75.5191 25.4648,74.593 6.57695,55.2359 5.58789,56.1621"
         style="fill:#fddd04;fill-opacity:1;fill-rule:evenodd;stroke:none"
         id="path3020" /><path
         d="m 7.47422,56.1562 2.58048,-2.9007 1.3215,-0.3703 -0.384,1.3023 -2.74962,2.7668 -0.76836,-0.7981"
         style="fill:#fddd04;fill-opacity:1;fill-rule:evenodd;stroke:none"
         id="path3022" /><path
         d="m 10.0973,58.8445 2.5804,-2.9011 1.3215,-0.3704 -0.384,1.3024 -2.7496,2.7668 -0.7683,-0.7977"
         style="fill:#fddd04;fill-opacity:1;fill-rule:evenodd;stroke:none"
         id="path3024" /><path
         d="m 12.825,61.6277 2.5805,-2.9011 1.3215,-0.37 -0.384,1.302 -2.7496,2.7672 -0.7684,-0.7981"
         style="fill:#fddd04;fill-opacity:1;fill-rule:evenodd;stroke:none"
         id="path3026" /><path
         d="m 18.2641,67.2113 2.58,-2.9008 1.3215,-0.3703 -0.384,1.3024 -2.7496,2.7668 -0.7679,-0.7981"
         style="fill:#fddd04;fill-opacity:1;fill-rule:evenodd;stroke:none"
         id="path3028" /><path
         d="m 21.0527,70.0734 2.5805,-2.9011 1.3215,-0.3703 -0.384,1.3023 -2.7496,2.7668 -0.7684,-0.7977"
         style="fill:#fddd04;fill-opacity:1;fill-rule:evenodd;stroke:none"
         id="path3030" /><path
         d="m 23.6645,72.7422 2.5804,-2.9012 1.3215,-0.3699 -0.384,1.3019 -2.7496,2.7668 -0.7683,-0.7976"
         style="fill:#fddd04;fill-opacity:1;fill-rule:evenodd;stroke:none"
         id="path3032" /><path
         d="M 15.3914,64.2648 54.8508,15.8602 56.141,17.0211 16.6012,65.5297 15.3914,64.2648"
         style="fill:#fddd04;fill-opacity:1;fill-rule:evenodd;stroke:none"
         id="path3034" /><path
         d="m 63.9863,56.1621 -18.8562,19.357 -1.0207,-0.9261 18.8879,-19.3571 0.989,0.9262"
         style="fill:#fddd04;fill-opacity:1;fill-rule:evenodd;stroke:none"
         id="path3036" /><path
         d="m 62.0996,56.1562 -2.5805,-2.9007 -1.3214,-0.3703 0.3843,1.3023 2.7496,2.7668 0.768,-0.7981"
         style="fill:#fddd04;fill-opacity:1;fill-rule:evenodd;stroke:none"
         id="path3038" /><path
         d="m 59.477,58.8445 -2.5805,-2.9011 -1.3215,-0.3704 0.384,1.3024 2.7496,2.7668 0.7684,-0.7977"
         style="fill:#fddd04;fill-opacity:1;fill-rule:evenodd;stroke:none"
         id="path3040" /><path
         d="m 56.7492,61.6277 -2.5804,-2.9011 -1.3215,-0.37 0.3839,1.302 2.7497,2.7672 0.7683,-0.7981"
         style="fill:#fddd04;fill-opacity:1;fill-rule:evenodd;stroke:none"
         id="path3042" /><path
         d="m 51.3102,67.2113 -2.5805,-2.9008 -1.3215,-0.3703 0.3844,1.3024 2.7496,2.7668 0.768,-0.7981"
         style="fill:#fddd04;fill-opacity:1;fill-rule:evenodd;stroke:none"
         id="path3044" /><path
         d="m 48.5211,70.0734 -2.5801,-2.9011 -1.3219,-0.3703 0.3844,1.3023 2.7496,2.7668 0.768,-0.7977"
         style="fill:#fddd04;fill-opacity:1;fill-rule:evenodd;stroke:none"
         id="path3046" /><path
         d="m 45.9098,72.7422 -2.5805,-2.9012 -1.3215,-0.3699 0.384,1.3019 2.7496,2.7668 0.7684,-0.7976"
         style="fill:#fddd04;fill-opacity:1;fill-rule:evenodd;stroke:none"
         id="path3048" /><path
         d="M 54.1824,64.2648 14.7234,15.8602 13.4332,17.0211 52.973,65.5297 54.1824,64.2648"
         style="fill:#fddd04;fill-opacity:1;fill-rule:evenodd;stroke:none"
         id="path3050" /></g></g></svg>