<svg><title>Herb Kalety</title><path d="M529.816 374.434c.016.586.02 1.168.02 1.758 0 145.91-119.008 264.918-264.918 264.918S0 522.102 0 376.192c0-.586.016-1.192.02-1.758H0V0h529.84v374.434h-.02" style="stroke:none;fill-rule:evenodd;fill:#222"/><path d="M519.8 375.02V11.493H10.926v362.246l35.199 53.8 71.855-41.714 12.402-100.114-18.253 8.778c-42.102 18.183-63.719-34.946-31.567-56.02l58.16-28.605 6.91-56.668 71.579-.172 2.328 18.242 73.23-35.551-20.676-38.754 79.571-40.23 20.558 40.82c17.043-11.64 35.793-8.199 48.571 10.32 8.406 22.09-.254 38.696-19.836 46.731l18.5 36.734-79.453 40.164-18.645-37.304-94.269 44.75 17.23 148.539 22.863-13.035 34.778 53.089 8.527-4.875c-2.441-22.835 2.578-47.496 13.793-66.394q12.29-17.36-4.082-57.356c-1.254-25.109 106.879-24.16 111.258-2.82-7.805 22.035-12.532 37.195-1.223 57.504 8.645 15.523 13.391 34.961 13.234 65.559l76.317-44.133" style="stroke:none;fill-rule:evenodd;fill:#209fd9"/><path d="m374.418 101.856 24.578 48.086c18.351-9.563 23.781-24.418 15.32-40.715-8.828-13.57-24.047-16.027-39.902-7.371zm-79.493 38.793 24.262 48.406-92.574 44.238-6.383-56.101 74.695-36.547zM138.187 216.95l-7.019 62.515-22.664 10.899c-33.57 12.246-52.512-31.379-22.024-48.407l51.715-25.003zm41.496 15.707c-4.218 0-7.66-3.442-7.66-7.66 0-4.219 3.442-7.661 7.66-7.661 4.219 0 7.66 3.442 7.66 7.661s-3.441 7.66-7.66 7.66m59.379 157.73L212.25 158.922h-61.289l-26.493 223.774 19.79-10.258 31.281 53.535 63.523-35.582zm-59.379-152.418c-7.14 0-12.968-5.824-12.968-12.972 0-7.141 5.824-12.969 12.968-12.969s12.973 5.824 12.973 12.969-5.824 12.972-12.973 12.972M46.914 490.547H318.43v23.602H64.066zm414.898 28.59H190.297v23.602H444.66zM315.59 418.93l80.128-44.531 33.45 53.125 8.816-5.469c.203-26.496-3.66-48.59-12.445-65.363-3.024-5.207-5.184-9.199-5.965-14.063-17.879 10.555-65.359 10.887-84.797 1.039-.43 8.246-7.605 17.012-11.406 25.52-5.61 13.887-8.395 30.297-7.778 49.738" style="stroke:none;fill-rule:evenodd;fill:#fff101"/><path d="M328.816 306.164c21.781 9.375 67.508 10.852 93.875.258-3.719 12.153-5.707 23.004-3.887 30.989-20.843 10.816-70.179 10.011-84.019-.258.777-8.594-1.207-18.922-5.961-30.989zm47.324 1.825c-27.351 0-49.656-4.973-49.656-11.067 0-6.093 22.305-11.066 49.656-11.066 27.352 0 49.66 4.969 49.66 11.066 0 6.094-22.304 11.067-49.66 11.067m-96.215-209.02 69.59-34.941 62.567 125.027-69.27 34.942-62.887-125.032zM168.156 427.508l-23.75-41.34-9.676 20.524 30.199 18.617 3.223 2.195zm128.137 0-29.172-42.222-7.035 18.175 32.984 21.844 3.223 2.195zm126.668 0-29.172-42.222-8.356 20.082 34.305 19.937 3.223 2.195zm-383.086 0-28.879-42.66v14.367l26.68 27.414 2.195.879zm15.832 0 82.246-45.152-12.754 21.109-63.039 22.137-6.45 1.902zm129.308 0 78.578-43.836-9.527 19.352-62.601 22.574-6.45 1.902zm126.672 0 78.578-43.836-9.968 20.379-62.161 21.551-6.449 1.902zm129.602 0 78.578-43.836v11.434l-72.129 30.492-6.449 1.902" style="stroke:none;fill-rule:evenodd;fill:#fffdfd"/></svg>