<svg xmlns="http://www.w3.org/2000/svg" viewBox="-25.98 -30.46 801.96 948.41"><title>Herb Aleksandrów Łódzki</title><g transform="translate(0 .952)"><path d="M3.718 3.718 5.29 573.732c10.022 180.824 172.673 308.146 370.63 308.146 204.411 0 370.362-153.31 370.362-342.396l-.736-535.764z" style="fill:#c50025;fill-opacity:1;stroke:#000;stroke-width:3.75;stroke-miterlimit:4;stroke-dasharray:none;stroke-opacity:1"/><path d="M31.219 638.438V681c.67 1.49 1.338 2.992 2.031 4.469h94.656v-47.032z" style="fill:#a8a8a8;fill-opacity:1;stroke:#000;stroke-width:3.75;stroke-miterlimit:4;stroke-dasharray:none;stroke-opacity:1"/><rect width="96.67" height="47.043" x="76.879" y="401.933" ry="0" style="fill:#a8a8a8;fill-opacity:1;stroke:#000;stroke-width:3.75;stroke-miterlimit:4;stroke-dasharray:none;stroke-opacity:1"/><rect width="96.67" height="47.043" x="173.549" y="401.933" ry="0" style="fill:#a8a8a8;fill-opacity:1;stroke:#000;stroke-width:3.75;stroke-miterlimit:4;stroke-dasharray:none;stroke-opacity:1"/><rect width="96.67" height="47.043" x="560.229" y="401.933" ry="0" style="fill:#a8a8a8;fill-opacity:1;stroke:#000;stroke-width:3.75;stroke-miterlimit:4;stroke-dasharray:none;stroke-opacity:1"/><rect width="96.67" height="47.043" x="31.229" y="449.231" ry="0" style="fill:#a8a8a8;fill-opacity:1;stroke:#000;stroke-width:3.75;stroke-miterlimit:4;stroke-dasharray:none;stroke-opacity:1"/><rect width="96.67" height="47.043" x="127.899" y="449.231" ry="0" style="fill:#a8a8a8;fill-opacity:1;stroke:#000;stroke-width:3.75;stroke-miterlimit:4;stroke-dasharray:none;stroke-opacity:1"/><rect width="96.67" height="47.043" x="611.249" y="449.231" ry="0" style="fill:#a8a8a8;fill-opacity:1;stroke:#000;stroke-width:3.75;stroke-miterlimit:4;stroke-dasharray:none;stroke-opacity:1"/><rect width="96.67" height="47.043" x="514.579" y="449.231" ry="0" style="fill:#a8a8a8;fill-opacity:1;stroke:#000;stroke-width:3.75;stroke-miterlimit:4;stroke-dasharray:none;stroke-opacity:1"/><rect width="96.67" height="47.043" x="76.879" y="496.529" ry="0" style="fill:#a8a8a8;fill-opacity:1;stroke:#000;stroke-width:3.75;stroke-miterlimit:4;stroke-dasharray:none;stroke-opacity:1"/><rect width="96.67" height="47.043" x="173.549" y="496.529" ry="0" style="fill:#a8a8a8;fill-opacity:1;stroke:#000;stroke-width:3.75;stroke-miterlimit:4;stroke-dasharray:none;stroke-opacity:1"/><rect width="96.67" height="47.043" x="560.229" y="496.529" ry="0" style="fill:#a8a8a8;fill-opacity:1;stroke:#000;stroke-width:3.75;stroke-miterlimit:4;stroke-dasharray:none;stroke-opacity:1"/><rect width="96.67" height="47.043" x="31.229" y="543.827" ry="0" style="fill:#a8a8a8;fill-opacity:1;stroke:#000;stroke-width:3.75;stroke-miterlimit:4;stroke-dasharray:none;stroke-opacity:1"/><rect width="96.67" height="47.043" x="127.899" y="543.827" ry="0" style="fill:#a8a8a8;fill-opacity:1;stroke:#000;stroke-width:3.75;stroke-miterlimit:4;stroke-dasharray:none;stroke-opacity:1"/><rect width="96.67" height="47.043" x="611.249" y="543.827" ry="0" style="fill:#a8a8a8;fill-opacity:1;stroke:#000;stroke-width:3.75;stroke-miterlimit:4;stroke-dasharray:none;stroke-opacity:1"/><rect width="96.67" height="47.043" x="514.579" y="543.827" ry="0" style="fill:#a8a8a8;fill-opacity:1;stroke:#000;stroke-width:3.75;stroke-miterlimit:4;stroke-dasharray:none;stroke-opacity:1"/><rect width="96.67" height="47.043" x="76.879" y="591.125" ry="0" style="fill:#a8a8a8;fill-opacity:1;stroke:#000;stroke-width:3.75;stroke-miterlimit:4;stroke-dasharray:none;stroke-opacity:1"/><rect width="96.67" height="47.043" x="173.549" y="591.125" ry="0" style="fill:#a8a8a8;fill-opacity:1;stroke:#000;stroke-width:3.75;stroke-miterlimit:4;stroke-dasharray:none;stroke-opacity:1"/><rect width="96.67" height="47.043" x="560.229" y="591.125" ry="0" style="fill:#a8a8a8;fill-opacity:1;stroke:#000;stroke-width:3.75;stroke-miterlimit:4;stroke-dasharray:none;stroke-opacity:1"/><rect width="96.67" height="47.043" x="127.899" y="638.423" ry="0" style="fill:#a8a8a8;fill-opacity:1;stroke:#000;stroke-width:3.75;stroke-miterlimit:4;stroke-dasharray:none;stroke-opacity:1"/><rect width="96.67" height="47.043" x="611.249" y="638.423" ry="0" style="fill:#a8a8a8;fill-opacity:1;stroke:#000;stroke-width:3.75;stroke-miterlimit:4;stroke-dasharray:none;stroke-opacity:1"/><rect width="96.67" height="47.043" x="514.579" y="638.423" ry="0" style="fill:#a8a8a8;fill-opacity:1;stroke:#000;stroke-width:3.75;stroke-miterlimit:4;stroke-dasharray:none;stroke-opacity:1"/><path d="M224.563 449.219v47.062h45.718V449.22zm0 94.594v47.062h45.718v-47.062zm0 94.625v47.03h45.718v-47.03z" style="fill:#a8a8a8;fill-opacity:1;stroke:#000;stroke-width:3.75;stroke-miterlimit:4;stroke-dasharray:none;stroke-opacity:1"/><rect width="96.67" height="47.043" x="76.879" y="685.721" ry="0" style="fill:#a8a8a8;fill-opacity:1;stroke:#000;stroke-width:3.75;stroke-miterlimit:4;stroke-dasharray:none;stroke-opacity:1"/><rect width="96.67" height="47.043" x="173.549" y="685.721" ry="0" style="fill:#a8a8a8;fill-opacity:1;stroke:#000;stroke-width:3.75;stroke-miterlimit:4;stroke-dasharray:none;stroke-opacity:1"/><rect width="96.67" height="47.043" x="560.229" y="685.721" ry="0" style="fill:#a8a8a8;fill-opacity:1;stroke:#000;stroke-width:3.75;stroke-miterlimit:4;stroke-dasharray:none;stroke-opacity:1"/><rect width="96.67" height="47.043" x="127.899" y="733.019" ry="0" style="fill:#a8a8a8;fill-opacity:1;stroke:#000;stroke-width:3.75;stroke-miterlimit:4;stroke-dasharray:none;stroke-opacity:1"/><rect width="96.67" height="47.043" x="514.579" y="733.019" ry="0" style="fill:#a8a8a8;fill-opacity:1;stroke:#000;stroke-width:3.75;stroke-miterlimit:4;stroke-dasharray:none;stroke-opacity:1"/><path d="M224.563 733.031v47.032h45.718V733.03zM4.813 401.938l.125 47.03h71.937v-47.03zm.25 94.593.125 47.031h71.687v-47.03zm1.687 94.594a303 303 0 0 0 9.031 47.031h61.094v-47.031zm26.625 94.594c7.775 16.522 17.028 32.225 27.594 47.031h15.906v-47.031zm69.25 94.593c18.96 17.79 40.23 33.568 63.375 47.063h7.563v-47.062z" style="fill:#a8a8a8;fill-opacity:1;stroke:#000;stroke-width:3.75;stroke-miterlimit:4;stroke-dasharray:none;stroke-opacity:1"/><rect width="96.67" height="47.043" x="173.549" y="780.317" ry="0" style="fill:#a8a8a8;fill-opacity:1;stroke:#000;stroke-width:3.75;stroke-miterlimit:4;stroke-dasharray:none;stroke-opacity:1"/><path d="M463.563 401.938v.593h16.156v46.438h80.5v-47.031zm16.156 94.593v47.031h80.5v-47.03zm0 94.594v47.031h80.5v-47.031zm0 94.594v47.031h80.5v-47.031zm0 94.593v47.063h80.5v-47.062zM4.938 449.219l.125 47.062h26.156V449.22zm.25 94.594.093 29.906c.32 5.768.811 11.499 1.438 17.156h24.5v-47.062zm10.656 94.625A297.4 297.4 0 0 0 31.219 681v-42.562zm45.344 94.593c12.087 16.898 25.872 32.632 41.187 47.032h25.531V733.03zm105.25 94.594c18.273 10.622 37.71 19.81 58.125 27.469v-27.469zm541.468-378.406v47.062h38.313l-.063-47.062zm0 94.594v47.062h34.219a319 319 0 0 0 4.125-47.062zm0 94.625v47.03H711a324.6 324.6 0 0 0 19.563-47.03zM611.25 733.03v47.032h28.125c15.467-14.475 29.563-30.206 42.063-47.032zm-96.656 94.594v29.406c21.552-8.056 42.087-17.913 61.406-29.406zm-290.031.001v27.469a410 410 0 0 0 45.718 14.156v-41.625zm432.343-425.687v47.03h89.25l-.062-47.03zm-177.187 47.28v47.063h34.875V449.22zm177.187 47.313v47.031h89.344c.017-1.359.031-2.73.031-4.093l-.062-42.938zM479.72 543.812v47.063h34.875v-47.062zm177.187 47.313v47.031h73.75c.067-.205.121-.419.188-.625.017-.053.045-.103.062-.156.071-.22.148-.435.219-.656.076-.24.143-.48.219-.719.08-.252.17-.498.25-.75l.218-.687c.14-.448.269-.896.407-1.344l.031-.094c.199-.647.399-1.289.594-1.937l.062-.22c.003-.009-.003-.02 0-.03.069-.229.151-.46.219-.688.11-.37.204-.755.313-1.125l.093-.312c.165-.567.338-1.152.5-1.72l.032-.093.312-1.094c.136-.484.272-.984.406-1.468.134-.485.275-.952.407-1.438.186-.686.349-1.375.53-2.062l.032-.125c.013-.05.018-.107.031-.157.053-.2.135-.393.188-.593.105-.403.209-.785.312-1.188l.063-.25c.062-.244.125-.506.187-.75.09-.355.162-.708.25-1.062.016-.063.047-.125.063-.188q.237-.952.468-1.906l.125-.5.032-.125c.108-.45.206-.894.312-1.344.008-.031.024-.062.032-.094.108-.46.206-.945.312-1.406l.156-.687c.003-.01-.002-.022 0-.032l.063-.281c.035-.157.09-.312.125-.469.1-.44.184-.872.281-1.312l.031-.157c.014-.06.018-.126.032-.187.042-.192.114-.37.156-.562l.25-1.157c.022-.102.04-.21.062-.312.128-.598.251-1.214.375-1.813l.094-.437c.055-.27.102-.544.156-.813.097-.475.187-.93.282-1.406.07-.352.15-.71.218-1.062.029-.148.065-.29.094-.438.002-.01-.002-.021 0-.031.014-.072.017-.147.031-.219.078-.406.174-.813.25-1.219.002-.01-.002-.021 0-.031l.125-.656c.006-.03-.005-.063 0-.094.035-.188.09-.375.125-.562.012-.063.02-.125.032-.188.076-.417.143-.833.218-1.25.015-.082.017-.168.032-.25.024-.136.07-.27.093-.406l.063-.344c.066-.375.122-.75.187-1.125l.063-.375c.1-.584.184-1.165.281-1.75.028-.167.066-.333.094-.5zM479.72 638.438v47.03h34.875v-47.03zm177.187 47.28v47.032h24.75c.009-.012.023-.02.032-.031.022-.031.04-.063.062-.094l.156-.219c.009-.011.023-.02.032-.031.251-.34.5-.69.75-1.031.108-.148.204-.29.312-.438l.188-.25c.174-.24.357-.479.53-.718.184-.253.35-.497.532-.75.07-.097.15-.185.219-.282.342-.476.66-.96 1-1.437.082-.116.167-.228.25-.344.326-.46.645-.914.968-1.375.009-.012.023-.02.032-.031.174-.249.357-.501.531-.75l.219-.313.437-.625.063-.093c.008-.013.023-.02.031-.032l.219-.312c.082-.12.168-.256.25-.375.165-.24.335-.478.5-.719.05-.074.074-.145.125-.219.03-.043.064-.082.093-.125.164-.238.338-.48.5-.718.203-.299.392-.608.594-.907.037-.055.088-.1.125-.156l.25-.375c.239-.354.482-.707.719-1.062.032-.049.061-.108.094-.157.05-.075.106-.143.156-.218.24-.361.48-.733.719-1.094.096-.146.185-.292.281-.438l.188-.281.468-.719c.17-.26.331-.52.5-.781.069-.106.15-.206.219-.312.107-.166.206-.335.313-.5.048-.075.108-.144.156-.22.398-.619.793-1.252 1.187-1.874.138-.218.269-.438.407-.657.007-.012.023-.019.03-.03.094-.148.19-.29.282-.438q.204-.328.406-.657c.134-.214.273-.441.407-.656l.062-.093.406-.657c.013-.02.02-.042.032-.062l.593-.969c.012-.02.02-.043.032-.062.13-.213.276-.412.406-.625.038-.064.086-.125.125-.188.189-.31.374-.627.562-.937.037-.06.058-.128.094-.188.194-.32.401-.647.594-.969l.093-.156c.145-.241.294-.477.438-.719.314-.528.626-1.064.938-1.593.053-.092.102-.19.156-.282.157-.269.312-.543.468-.812.061-.104.127-.209.188-.313l.25-.437c.062-.107.126-.206.188-.313.144-.25.293-.5.437-.75.143-.25.264-.5.406-.75.35-.614.716-1.227 1.063-1.843.007-.013.024-.02.031-.032.137-.243.27-.475.406-.718.005-.008-.004-.024 0-.032.196-.35.4-.711.594-1.062.016-.029.015-.065.031-.094.088-.159.194-.31.282-.469l.156-.281c.092-.167.158-.333.25-.5.047-.087.109-.163.156-.25.044-.081.08-.169.125-.25.092-.169.19-.331.281-.5.171-.314.33-.654.5-.969.036-.066.09-.121.125-.187.033-.061.061-.127.094-.188.1-.187.212-.374.313-.562.23-.433.458-.88.687-1.313.039-.073.086-.145.125-.218.132-.25.275-.5.406-.75.121-.23.224-.457.344-.688.017-.033.045-.06.063-.094.022-.042.04-.082.062-.125l.125-.25c.03-.058.064-.13.094-.187.038-.075.086-.145.125-.219q.282-.546.562-1.094.014-.031.032-.062l.03-.063q.08-.156.157-.312zM479.72 733.032v47.032h34.875V733.03zm80.5 47.282v47.062h16.187l.532-.312c.137-.083.269-.168.406-.25.04-.024.085-.04.125-.063.582-.35 1.17-.71 1.75-1.062.128-.078.247-.173.375-.25.352-.216.71-.41 1.062-.625.528-.325 1.037-.642 1.563-.97.235-.145.484-.29.718-.437l.344-.218c.175-.11.357-.235.532-.344.349-.22.682-.436 1.03-.657.317-.2.654-.392.97-.593l.093-.063c.243-.155.477-.313.719-.468.108-.07.204-.15.313-.22.122-.078.252-.14.375-.218.051-.033.104-.06.156-.094l.968-.625c.025-.015.039-.046.063-.062.345-.225.687-.431 1.031-.657.241-.157.479-.31.719-.468.106-.07.207-.15.313-.219.503-.332.998-.666 1.5-1 .012-.008.019-.023.03-.031.585-.39 1.2-.764 1.782-1.157.099-.066.183-.152.281-.218.34-.23.692-.457 1.032-.688.157-.107.31-.205.468-.312.012-.008.02-.023.032-.032.59-.403 1.192-.811 1.78-1.218.088-.06.164-.128.25-.188.726-.502 1.467-.992 2.188-1.5.116-.08.229-.169.344-.25.252-.177.499-.353.75-.531.085-.06.166-.128.25-.187.167-.12.333-.225.5-.344l1-.719c.007-.005.025.005.031 0 .327-.234.643-.484.969-.719.259-.187.523-.375.781-.562l.219-.157c.509-.37.994-.752 1.5-1.125.144-.105.294-.206.438-.312.011-.009.02-.023.03-.031.163-.12.339-.224.5-.344.263-.194.52-.4.782-.594.066-.049.122-.107.188-.156.267-.2.545-.394.812-.594.06-.045.127-.08.188-.125.175-.132.355-.274.53-.406.054-.04.104-.085.157-.125q.783-.591 1.563-1.187c.064-.05.123-.108.187-.157l.156-.125c.107-.082.237-.136.344-.218.348-.267.684-.545 1.031-.813.112-.086.232-.164.344-.25.075-.058.143-.13.219-.187.111-.087.232-.164.343-.25.162-.126.308-.25.47-.375.482-.377.987-.778 1.468-1.157.19-.15.373-.287.563-.437.127-.101.247-.212.375-.313.097-.077.215-.141.312-.218l.188-.157c.273-.218.539-.437.812-.656.046-.037.079-.088.125-.125.256-.205.526-.388.781-.594l.188-.156c.192-.155.37-.313.562-.469.08-.065.17-.122.25-.187.482-.39.959-.795 1.438-1.188.04-.033.084-.06.125-.093.512-.42 1.022-.828 1.531-1.25.12-.1.224-.213.344-.313.383-.319.774-.617 1.156-.937.085-.072.165-.148.25-.22.513-.43 1.02-.878 1.531-1.312.034-.029.06-.065.094-.093.196-.167.399-.302.594-.47.034-.028.06-.064.093-.093.277-.236.569-.482.844-.719.034-.028.06-.065.094-.093.512-.441 1.022-.87 1.531-1.313.105-.091.208-.19.313-.281.088-.077.193-.142.281-.219.066-.057.122-.13.188-.187.283-.25.56-.501.843-.75.023-.02.04-.043.063-.063l.281-.25c.05-.044.106-.08.156-.125.36-.319.735-.649 1.094-.969l.281-.25c.438-.39.877-.794 1.313-1.187.016-.015.046-.016.062-.032.513-.463 1.021-.94 1.532-1.406.087-.08.162-.17.25-.25.117-.107.257-.204.375-.312.032-.03.06-.064.093-.094.288-.264.557-.516.844-.781l.031-.032q.014-.016.032-.03l.875-.813.437-.407zm-80.5 47.312v40.625c.188-.05.374-.105.562-.156l1.375-.375c.094-.026.188-.037.281-.063 1.487-.41 2.96-.854 4.438-1.281q.907-.263 1.813-.531c.48-.142.957-.263 1.437-.407.093-.027.188-.065.281-.093.115-.034.23-.06.344-.094l.094-.031c.145-.044.292-.081.437-.125.398-.12.791-.254 1.188-.375.154-.047.314-.078.469-.125.022-.007.04-.025.062-.032.094-.028.187-.064.281-.093.114-.035.23-.059.344-.094l.406-.125c.183-.057.35-.13.531-.187.01-.003.022.002.032 0 .188-.059.374-.13.562-.188l.406-.125c.082-.026.169-.037.25-.062l.407-.125c.546-.174 1.08-.356 1.625-.532.363-.117.73-.225 1.094-.343.16-.053.34-.104.5-.157.021-.007.04-.024.062-.031.703-.23 1.393-.454 2.094-.687.022-.008.04-.024.062-.032.478-.16.96-.307 1.438-.468l.187-.063c.149-.05.29-.106.438-.156q.046-.014.094-.032c.676-.23 1.356-.453 2.03-.687.045-.015.082-.047.126-.062.422-.147.86-.29 1.281-.438.116-.04.228-.084.344-.125s.227-.084.344-.125c.061-.022.125-.04.187-.062.643-.227 1.297-.458 1.938-.688.075-.027.143-.067.218-.094.486-.174.985-.324 1.469-.5.053-.019.103-.043.156-.062l.25-.094c.092-.033.19-.06.281-.094.494-.18.976-.38 1.47-.562.039-.015.085-.017.124-.032l.25-.093c.098-.036.184-.089.282-.125.177-.066.353-.121.53-.188v-29.406z" style="fill:#a8a8a8;fill-opacity:1;stroke:#000;stroke-width:3.75;stroke-miterlimit:4;stroke-dasharray:none;stroke-opacity:1"/><path d="M374.916 18.026 189.632 356.204h-32.224v45.985h161.117l.84-46.153-16.951.168 15.44-34.909h114.124l15.608 34.909-17.118-.168 1.007 46.153h161.117v-45.985h-32.224zm0 165.649 58.237 111.103H316.847z" style="fill:#a8a8a8;fill-opacity:1;fill-rule:evenodd;stroke:#000;stroke-width:3.75;stroke-linecap:butt;stroke-linejoin:miter;stroke-miterlimit:4;stroke-dasharray:none;stroke-opacity:1"/><path d="M3.718 3.718 5.29 573.732c10.022 180.824 172.673 308.146 370.63 308.146 204.411 0 370.362-153.31 370.362-342.396l-.736-535.764z" style="fill:none;fill-opacity:1;stroke:#000;stroke-width:7.5;stroke-miterlimit:4;stroke-dasharray:none;stroke-opacity:1"/></g></svg>