<!-- Creator: CorelDRAW -->
<svg
   xmlns="http://www.w3.org/2000/svg"
   style="shape-rendering:geometricPrecision; text-rendering:geometricPrecision; image-rendering:optimizeQuality; fill-rule:evenodd; clip-rule:evenodd"
   viewBox="-20.87 -11.88 251.75 320.76"
   id="svg2"
   version="1.0"><title>Herb Brzeziny</title><metadata
   id="metadata17"><rdf:RDF><cc:Work
       rdf:about=""><dc:format>image/svg+xml</dc:format><dc:type
         rdf:resource="http://purl.org/dc/dcmitype/StillImage" /></cc:Work></rdf:RDF></metadata><sodipodi:namedview
   guidetolerance="10.0"
   gridtolerance="10.0"
   objecttolerance="10.0"
   borderopacity="1.0"
   bordercolor="#666666"
   pagecolor="#ffffff"
   id="base" />
 <defs
   id="defs4">
  <style
   type="text/css"
   id="style6">
   
    .fil1 {fill:white}
    .fil0 {fill:black}
    .fil2 {fill:#DC2B19}
   
  </style>
 </defs>
 <g
   id="Warstwa_x0020_1"
   transform="matrix(1.1099775,0,0,1.1099775,-11.547635,-16.095793)">
  <metadata
   id="CorelCorpID_0Corel-Layer" />
  <path
   class="fil0"
   d="M 210,177.147 C 209.9999,234.9393 162.8321,282.074 105,282.074 C 47.1679,282.074 0,234.9391 0,177.147 L 0,14.501 L 210,14.501 L 210,177.147 z "
   id="path10"
   style="fill:#000000" />
  <path
   class="fil1"
   d="M 2.94,153.497 L 2.94,17.444 L 207.06,17.444 L 207.06,153.497 L 189.3898,153.497 L 189.3898,80.5221 L 194.224,80.5221 L 164.8647,48.8248 L 136.176,80.5221 L 140.6102,80.5221 L 140.6102,153.497 L 129.7452,153.497 L 129.7452,66.0602 L 134.5773,66.0602 L 106.5511,35.3336 L 106.5511,29.4698 L 110.1142,29.4698 L 110.1142,26.7118 L 106.5511,26.7118 L 106.5511,22.6518 L 103.5744,22.6518 L 103.5744,26.7118 L 100.0113,26.7118 L 100.0113,29.4698 L 103.5744,29.4698 L 103.5744,35.4488 L 76.1427,66.0602 L 80.9748,66.0602 L 80.9748,153.497 L 69.1636,153.497 L 69.1636,80.5221 L 73.7978,80.5221 L 44.8142,48.9693 L 15.7498,80.5221 L 20.384,80.5221 L 20.384,153.497 L 2.94,153.497 L 2.94,153.497 z M 103.675,189.6986 C 120.0632,189.6986 133.3534,202.9405 133.3534,219.269 L 133.3534,275.0864 C 124.3452,277.7162 114.8322,279.1313 104.9999,279.1313 C 94.1978,279.1313 83.7813,277.4228 73.9966,274.2715 L 73.9966,219.269 C 73.9966,202.9405 87.2868,189.6986 103.675,189.6986 z "
   id="path12"
   style="fill:#ffffff" />
  <path
   class="fil2"
   d="M 23.2549,80.5219 L 35.4551,80.5219 L 35.4551,93.0719 L 23.2549,93.0719 L 23.2549,80.5219 z M 83.7888,66.06 L 96.0215,66.06 L 96.0215,77.8859 L 83.7888,77.8859 L 83.7888,66.06 z M 144.0811,80.5219 L 156.2813,80.5219 L 156.2813,93.0719 L 144.0811,93.0719 L 144.0811,80.5219 z M 94.1553,176.9359 C 90.155,177.8157 86.3622,179.2473 82.8591,181.1445 L 89.3016,190.2483 C 91.7383,189.0477 94.3471,188.1421 97.0822,187.5799 L 94.1553,176.9359 L 94.1553,176.9359 z M 103.6752,186.9119 C 105.6205,186.9119 107.5256,187.0827 109.3769,187.4096 L 113.6997,173.7602 C 110.4278,173.0352 107.0282,172.6495 103.538,172.6495 C 101.0324,172.6495 98.5739,172.8492 96.1751,173.2286 L 99.9948,187.1199 C 101.2031,186.984 102.4305,186.9119 103.6752,186.9119 L 103.6752,186.9119 z M 2.9402,156.3319 L 13.3091,156.3319 L 13.3091,175.0428 L 2.9402,175.0428 L 2.9402,156.3319 z M 16.2396,175.0428 L 16.2396,156.3319 L 43.0386,156.3319 L 43.0386,175.0428 L 16.2396,175.0428 z M 45.9691,175.0428 L 45.9691,156.3319 L 73.2853,156.3319 L 73.2853,175.0428 L 45.9691,175.0428 L 45.9691,175.0428 z M 76.2158,175.0428 L 76.2158,156.3319 L 103.6105,156.3319 L 103.6105,169.8369 L 103.5382,169.8368 C 99.7582,169.8368 96.0774,170.2608 92.5403,171.0626 L 93.4053,174.2082 C 92.3276,174.4487 91.265,174.7287 90.2171,175.0428 L 76.2158,175.0428 L 76.2158,175.0428 z M 106.541,169.9264 L 106.541,156.3319 L 133.9081,156.3319 L 133.9081,175.0428 L 116.8607,175.0428 C 116.7106,174.9978 116.5612,174.9513 116.4104,174.9078 L 117.3941,171.8016 C 113.9187,170.7921 110.286,170.1508 106.541,169.9264 L 106.541,169.9264 z M 136.8386,175.0428 L 136.8386,156.3319 L 163.4642,156.3319 L 163.4642,175.0428 L 136.8386,175.0428 z M 166.3947,175.0428 L 166.3947,156.3319 L 194.2141,156.3319 L 194.2141,175.0428 L 166.3947,175.0428 z M 197.1446,175.0428 L 197.1446,156.3319 L 207.0602,156.3319 L 207.0602,175.0428 L 197.1446,175.0428 z M 204.8437,197.7768 L 180.3842,197.7768 L 180.3842,177.9733 L 207.0416,177.9733 C 206.9459,184.7503 206.195,191.3722 204.8437,197.7768 z M 177.4537,177.9733 L 177.4537,197.7768 L 150.6622,197.7768 L 150.6622,177.9733 L 177.4537,177.9733 z M 147.7317,177.9733 L 147.7317,197.7768 L 144.4885,197.7768 C 139.9851,189.2516 132.8901,182.3004 124.2495,177.9733 L 147.7317,177.9733 z M 62.5879,197.7768 L 60.0029,197.7768 L 60.0029,177.9733 L 82.8323,177.9733 C 74.1894,182.3001 67.092,189.2502 62.5879,197.7768 z M 57.0724,177.9733 L 57.0724,197.7768 L 30.2764,197.7768 L 30.2764,177.9733 L 57.0724,177.9733 z M 27.3459,177.9733 L 27.3459,197.7768 L 5.1564,197.7768 C 3.8051,191.3722 3.0543,184.7503 2.9586,177.9733 L 27.3459,177.9733 z M 197.6809,219.4056 L 197.1442,219.4056 L 197.1442,200.7073 L 204.1779,200.7073 C 202.6068,207.2005 200.4198,213.4555 197.6809,219.4056 z M 194.2137,200.7073 L 194.2137,219.4056 L 166.3943,219.4056 L 166.3943,200.7073 L 194.2137,200.7073 z M 163.4638,200.7073 L 163.4638,219.4056 L 149.8037,219.4056 L 149.8037,219.2832 C 149.8037,212.6755 148.4126,206.3914 145.9071,200.7073 L 163.4638,200.7073 z M 57.2718,219.4056 L 45.9686,219.4056 L 45.9686,200.7073 L 61.1688,200.7073 C 58.6632,206.3914 57.2718,212.6754 57.2718,219.2832 L 57.2718,219.4056 z M 43.0381,200.7073 L 43.0381,219.4056 L 16.2391,219.4056 L 16.2391,200.7073 L 43.0381,200.7073 z M 13.3086,200.7073 L 13.3086,219.4056 L 12.3181,219.4056 C 9.5792,213.4555 7.3922,207.2005 5.8211,200.7073 L 13.3086,200.7073 z M 183.9336,241.4376 L 180.3838,241.4376 L 180.3838,222.3361 L 196.2746,222.3361 C 192.8625,229.1707 188.7147,235.5738 183.9336,241.4376 L 183.9336,241.4376 z M 177.4533,222.3361 L 177.4533,241.4376 L 149.8037,241.4376 L 149.8037,222.3361 L 177.4533,222.3361 z M 57.2723,241.4376 L 30.2764,241.4376 L 30.2764,222.3361 L 57.2723,222.3361 L 57.2723,241.4376 z M 27.3459,222.3361 L 27.3459,241.4376 L 26.0661,241.4376 C 21.285,235.5738 17.1369,229.1707 13.7248,222.3361 L 27.3459,222.3361 z M 166.3949,258.3929 L 166.3949,244.3681 L 181.448,244.3681 C 176.9099,249.5293 171.8666,254.2316 166.3949,258.3929 z M 163.4644,244.3681 L 163.4644,260.5394 C 161.9689,261.5955 160.443,262.6107 158.8905,263.5868 L 149.8043,263.5868 L 149.8043,244.3681 L 163.4644,244.3681 L 163.4644,244.3681 z M 57.2724,263.5868 L 51.1098,263.5868 C 49.3618,262.4879 47.6448,261.3431 45.9692,260.1433 L 45.9692,244.3681 L 57.2724,244.3681 L 57.2724,263.5868 z M 43.0387,244.3681 L 43.0387,257.9557 C 37.7855,253.903 32.9332,249.3497 28.5523,244.3681 L 43.0387,244.3681 z M 149.8047,268.6728 L 149.8047,266.5173 L 153.9303,266.5173 C 152.5739,267.267 151.1975,267.9842 149.8047,268.6728 z M 56.0709,266.5173 L 57.2729,266.5173 L 57.2729,267.1674 C 56.8712,266.9523 56.4694,266.7376 56.0709,266.5173 z M 80.3231,182.6327 C 76.9342,184.7767 73.8634,187.3761 71.1959,190.3445 L 79.9655,197.1625 C 81.9546,195.0456 84.2255,193.1951 86.7191,191.6706 L 80.3231,182.6327 L 80.3231,182.6327 z M 69.3105,192.5903 C 66.5078,196.1658 64.2552,200.1912 62.6792,204.5399 L 73.2165,208.0266 C 74.3839,204.889 76.0254,201.981 78.0548,199.3886 L 69.3105,192.5903 z M 61.7756,207.3276 C 60.6859,211.1253 60.1015,215.1362 60.1015,219.2832 L 60.1015,219.42 L 71.201,219.42 L 71.201,219.2688 C 71.201,216.3448 71.5909,213.5111 72.3212,210.8168 L 61.7756,207.3276 z M 60.1015,222.3505 L 60.1015,232.8024 L 71.201,232.8024 L 71.201,222.3505 L 60.1015,222.3505 L 60.1015,222.3505 z M 60.1015,235.7329 L 60.1015,247.1976 L 71.201,247.1976 L 71.201,235.7329 L 60.1015,235.7329 L 60.1015,235.7329 z M 60.1015,250.1281 L 60.1015,261.2232 L 71.201,261.2232 L 71.201,250.1281 L 60.1015,250.1281 L 60.1015,250.1281 z M 60.1015,264.1537 L 60.1015,268.6251 C 63.6888,270.4028 67.3941,271.9727 71.201,273.3239 L 71.201,264.1537 L 60.1015,264.1537 L 60.1015,264.1537 z M 146.9761,270.0231 L 146.9761,264.1537 L 136.151,264.1537 L 136.151,274.2232 C 139.8542,273.0241 143.4689,271.6236 146.9761,270.0231 z M 146.9761,261.2232 L 146.9761,250.1281 L 136.151,250.1281 L 136.151,261.2232 L 146.9761,261.2232 z M 146.9761,247.1976 L 146.9761,235.7329 L 136.151,235.7329 L 136.151,247.1976 L 146.9761,247.1976 z M 146.9761,232.8024 L 146.9761,222.3505 L 136.151,222.3505 L 136.151,232.8024 L 146.9761,232.8024 z M 146.9761,219.42 L 146.9761,219.2832 C 146.9761,215.3013 146.4359,211.4452 145.428,207.7824 L 135.1299,211.1898 C 135.797,213.7721 136.151,216.4795 136.151,219.2688 L 136.151,219.42 L 146.9761,219.42 L 146.9761,219.42 z M 112.2482,188.0523 C 114.9212,188.78 117.4569,189.8393 119.8079,191.1835 L 125.9292,182.1205 C 122.7195,180.1878 119.2389,178.658 115.558,177.6013 L 112.2482,188.0523 L 112.2482,188.0523 z M 122.2851,192.7516 C 124.6899,194.4306 126.856,196.4265 128.7222,198.6778 L 137.0232,191.6679 C 134.5198,188.6455 131.614,185.9678 128.3878,183.7162 L 122.2851,192.7516 L 122.2851,192.7516 z M 130.491,201.0198 C 132.0477,203.2858 133.3235,205.7585 134.2662,208.3889 L 144.555,204.9845 C 143.1701,201.026 141.2267,197.3286 138.8186,193.9875 L 130.491,201.0198 L 130.491,201.0198 z M 159.2126,80.5218 L 171.463,80.5218 L 171.463,93.0718 L 159.2126,93.0718 L 159.2126,80.5218 z M 174.3935,80.5218 L 187.1198,80.5218 L 187.1198,93.0718 L 174.3935,93.0718 L 174.3935,80.5218 z M 187.1198,96.0023 L 187.1198,108.2568 L 179.01,108.2568 L 179.01,96.0023 L 187.1198,96.0023 z M 167.9652,108.2568 L 163.9358,108.2568 L 163.9358,96.0023 L 167.9652,96.0023 L 167.9652,108.2568 z M 152.891,108.2568 L 144.0819,108.2568 L 144.0819,96.0023 L 152.891,96.0023 L 152.891,108.2568 z M 187.1198,111.1873 L 187.1198,123.361 L 179.01,123.361 L 179.01,111.1873 L 187.1198,111.1873 z M 167.9652,123.361 L 163.9358,123.361 L 163.9358,111.1873 L 167.9652,111.1873 L 167.9652,123.361 z M 152.891,123.361 L 144.0819,123.361 L 144.0819,111.1873 L 152.891,111.1873 L 152.891,123.361 z M 187.1198,126.2915 L 187.1198,138.5002 L 174.3935,138.5002 L 174.3935,126.2915 L 187.1198,126.2915 z M 171.463,138.5002 L 159.2126,138.5002 L 159.2126,126.2915 L 171.463,126.2915 L 171.463,138.5002 z M 156.2821,138.5002 L 144.0819,138.5002 L 144.0819,126.2915 L 156.2821,126.2915 L 156.2821,138.5002 z M 187.1198,141.4307 L 187.1198,153.4679 L 174.3935,153.4679 L 174.3935,141.4307 L 187.1198,141.4307 z M 171.463,153.4679 L 159.2126,153.4679 L 159.2126,141.4307 L 171.463,141.4307 L 171.463,153.4679 z M 156.2821,153.4679 L 144.0819,153.4679 L 144.0819,141.4307 L 156.2821,141.4307 L 156.2821,153.4679 z M 98.9528,66.0599 L 111.1423,66.0599 L 111.1423,77.8858 L 98.9528,77.8858 L 98.9528,66.0599 z M 114.0728,66.0599 L 126.932,66.0599 L 126.932,77.8858 L 114.0728,77.8858 L 114.0728,66.0599 z M 126.932,80.8163 L 126.932,93.0219 L 118.4443,93.0219 L 118.4443,80.8163 L 126.932,80.8163 z M 107.3995,93.0219 L 103.3076,93.0219 L 103.3076,80.8163 L 107.3995,80.8163 L 107.3995,93.0219 z M 92.2628,93.0219 L 83.7896,93.0219 L 83.7896,80.8163 L 92.2628,80.8163 L 92.2628,93.0219 z M 126.932,95.9524 L 126.932,108.1546 L 118.4443,108.1546 L 118.4443,95.9524 L 126.932,95.9524 z M 107.3995,108.1546 L 103.3076,108.1546 L 103.3076,95.9524 L 107.3995,95.9524 L 107.3995,108.1546 z M 92.2628,108.1546 L 83.7896,108.1546 L 83.7896,95.9524 L 92.2628,95.9524 L 92.2628,108.1546 z M 126.932,111.0851 L 126.932,123.3366 L 114.0728,123.3366 L 114.0728,111.0851 L 126.932,111.0851 z M 111.1423,123.3366 L 98.9528,123.3366 L 98.9528,111.0851 L 111.1423,111.0851 L 111.1423,123.3366 z M 96.0223,123.3366 L 83.7896,123.3366 L 83.7896,111.0851 L 96.0223,111.0851 L 96.0223,123.3366 z M 126.932,126.2671 L 126.932,138.4666 L 114.0728,138.4666 L 114.0728,126.2671 L 126.932,126.2671 z M 111.1423,138.4666 L 98.9528,138.4666 L 98.9528,126.2671 L 111.1423,126.2671 L 111.1423,138.4666 z M 96.0223,138.4666 L 83.7896,138.4666 L 83.7896,126.2671 L 96.0223,126.2671 L 96.0223,138.4666 z M 126.932,141.3971 L 126.932,153.4823 L 114.0728,153.4823 L 114.0728,141.3971 L 126.932,141.3971 z M 111.1423,153.4823 L 98.9528,153.4823 L 98.9528,141.3971 L 111.1423,141.3971 L 111.1423,153.4823 z M 96.0223,153.4823 L 83.7896,153.4823 L 83.7896,141.3971 L 96.0223,141.3971 L 96.0223,153.4823 z M 38.3864,80.5218 L 50.6368,80.5218 L 50.6368,93.0718 L 38.3864,93.0718 L 38.3864,80.5218 z M 53.5673,80.5218 L 66.2936,80.5218 L 66.2936,93.0718 L 53.5673,93.0718 L 53.5673,80.5218 L 53.5673,80.5218 z M 66.2936,96.0023 L 66.2936,108.2568 L 58.1838,108.2568 L 58.1838,96.0023 L 66.2936,96.0023 z M 47.139,108.2568 L 43.1096,108.2568 L 43.1096,96.0023 L 47.139,96.0023 L 47.139,108.2568 z M 32.0648,108.2568 L 23.2557,108.2568 L 23.2557,96.0023 L 32.0648,96.0023 L 32.0648,108.2568 z M 66.2936,111.1873 L 66.2936,123.361 L 58.1838,123.361 L 58.1838,111.1873 L 66.2936,111.1873 z M 47.139,123.361 L 43.1096,123.361 L 43.1096,111.1873 L 47.139,111.1873 L 47.139,123.361 z M 32.0648,123.361 L 23.2557,123.361 L 23.2557,111.1873 L 32.0648,111.1873 L 32.0648,123.361 z M 66.2936,126.2915 L 66.2936,138.5002 L 53.5673,138.5002 L 53.5673,126.2915 L 66.2936,126.2915 z M 50.6368,138.5002 L 38.3864,138.5002 L 38.3864,126.2915 L 50.6368,126.2915 L 50.6368,138.5002 z M 35.4559,138.5002 L 23.2557,138.5002 L 23.2557,126.2915 L 35.4559,126.2915 L 35.4559,138.5002 z M 66.2936,141.4307 L 66.2936,153.4679 L 53.5673,153.4679 L 53.5673,141.4307 L 66.2936,141.4307 z M 50.6368,153.4679 L 38.3864,153.4679 L 38.3864,141.4307 L 50.6368,141.4307 L 50.6368,153.4679 z M 35.4559,153.4679 L 23.2557,153.4679 L 23.2557,141.4307 L 35.4559,141.4307 L 35.4559,153.4679 z "
   id="path14"
   style="fill:#dc2b19" />
 </g>
</svg>