<svg viewBox="-21.54 -27.66 581.60 746.96"><title>Herb Mikołów</title><path d="M0 0h538.519v463.024l-.46 13.195c-8.102 119.809-125.711 215.406-268.797 215.406-143.082 0-260.696-95.597-268.797-215.406l-.461-13.195V0" style="stroke:none;fill-rule:evenodd;fill:#222"/><path d="M165.469 51.602c41.039-1.277 80.851 20.969 104.738 73.5-7.348 23.887-1.223 46.551-1.836 69.824l-3.98.305c-6.368-35.086-18.352-65.16-36.305-89.68-16.606-22.679-35.625-42.386-62.613-53.949" style="stroke:none;fill-rule:evenodd;fill:#e6e6e8"/><path d="m291.34 195.54-5.512-.61c3.57-19.648 11.125-35.98 24.5-47.469 17.922-16.382 41.266-17.691 59.359-12.519 14.993 4.281 32.981 13.391 40.782 36.101-21.078-16.023-48.895-21.539-68.754-17.453-19.856 4.082-44.61 16.844-50.375 41.953" style="stroke:none;fill-rule:evenodd;fill:#fff101"/><path d="m283.684 194.008-14.086.61c-2.434-44.735 18.48-66.821 35.875-84.203 20.675-20.665 77.449-34.786 93.359 2.433-29.551-11.687-53.285-3.773-70.965 8.719-20.672 14.609-37.996 39.703-44.183 72.437" style="stroke:none;fill-rule:evenodd;fill:#ec2a32"/><path d="M268.68 165.833c-.715-78.094 50.222-117.907 106.879-101.981-32.282 8.316-59.286 22.508-76.868 47.16-15.363 14.699-24.449 33.586-30.011 54.817zM182.894 308.25c22.071-17.968 54.309-27.128 88.661-34.46 31.91 8.921 61.019 19.886 83.949 35.343-25.785 9.293-52.293 12.246-78.582 12.457-31.231.246-62.582-4.668-94.028-13.34" style="stroke:none;fill-rule:evenodd;fill:#3d6ca1"/><path d="M277.594 506.864c10.707-6.949 15.269-16.36 14.609-28.793-9.57 6.242-16.137 11.769-17.086 27.004a8.8 8.8 0 0 1 2.473 1.785zm-4.25-2.426c3.074-12.215-1.356-22.625-10.055-31.383-2.93 10.852-3.055 21.047 4.387 31.731.027.035.062.074.093.113a8.8 8.8 0 0 1 3.477-.711 8.8 8.8 0 0 1 2.09.25zm-7.153 1.344c-7.57-10.075-18.453-13.172-30.738-11.907 6.582 9.075 14.41 15.567 27.336 16.516a8.9 8.9 0 0 1 3.402-4.605zm-3.82 7.328c-11.617-1.61-21.312 2.41-30.281 11.23 11.219 2.957 22.98 2.989 33.304-4.609a8.86 8.86 0 0 1-3.023-6.617zm4.996 7.937c-10.16 6.836-13.883 17.309-13.512 29.43 9.594-4.547 16.27-10.711 18.329-28.578a9 9 0 0 1-.934.047 8.8 8.8 0 0 1-3.883-.899m7.352.192c-1.133 13.051 1.578 22.304 12.101 29.332 2.039-11 .535-21.606-9.699-30.852a9 9 0 0 1-2.398 1.52zm4.25-3.789c8.125 10.613 17.691 14.5 30.351 12.519-7.273-8.992-15.547-16.804-29.23-16.031a8.9 8.9 0 0 1-1.117 3.512zm1.066-5.692c13.41 1.625 22.18-2.199 29.684-12.226-11.188-1.317-21.313.054-30.817 9.035a8.9 8.9 0 0 1 1.133 3.187zm-8.781-4.894c3.414 0 6.199 2.785 6.199 6.203 0 3.414-2.785 6.199-6.199 6.199s-6.199-2.785-6.199-6.199 2.785-6.203 6.199-6.203m-.004-37.371c7.57 0 14.699 1.949 20.918 5.375-6.168 3.437-10.906 7.14-15.598 14.312-3.027-7.621-7.547-14.375-13.355-18.941a43.6 43.6 0 0 1 8.039-.75zm22.66 6.386c8.008 4.907 14.328 12.328 17.844 21.149-7.012-1.508-11.914-2.77-21.922 1.664 3.727-7.602 5.312-15.77 4.074-22.817zm18.633 23.282a43.3 43.3 0 0 1 2.285 13.906 43.3 43.3 0 0 1-2.926 15.668c-4.199-5.922-10.125-12.735-19.101-15.328l2.508.043c8.91-3.043 14.117-7.227 17.234-14.289m-2.149 33.004a43.96 43.96 0 0 1-20.996 20.496c1.129-6.973 2.629-13.895-1.218-22.918 7.472 2.785 15.984 4.293 22.214 2.422m-22.781 21.273a43.2 43.2 0 0 1-16.363 3.203 43.2 43.2 0 0 1-16.723-3.351c6.282-3.508 12.723-8.731 17.692-17.676l-.004.156c3.867 9.117 8.637 14.945 15.402 17.672zm-35.586-1.289c-10.445-5.168-18.547-14.41-22.211-25.621 7.344 2.457 16.274 3.777 27.254.679-4.308 7.778-6.09 17.344-5.039 24.942zm-22.789-27.535a43.3 43.3 0 0 1-1.562-11.543 43.2 43.2 0 0 1 4.468-19.18c3.793 6.004 9.219 12.129 18.153 16.602-8.688 2.289-16.418 8.011-21.063 14.121zm3.723-32.297c5.777-10.602 15.836-18.567 27.82-21.543-2.234 7-3.055 15.141-1.836 24.039-8.371-3.949-18.328-4.406-25.98-2.492" style="stroke:none;fill-rule:evenodd;fill:#fff101"/><path d="M161.73 307.153c14.383-13.094 31.645-25.961 65.641-37.488 25.133-9.387 50.27-10.637 75.406-2.059 27.477 7.867 50.387 19.894 69.481 35.387a9.7 9.7 0 0 0-.235 2.121c0 4.511 3.161 8.312 7.387 9.293-19.254 12.793-39.594 19.093-60.43 22.414-48.945 6.765-86.41.621-122.238-7.364-13.168-4.769-25.633-10.015-36.582-16.265a9.48 9.48 0 0 0 1.578-6.035zm-3.597-6.723c15.894-22.062 38.523-37.754 69.234-45.785 28.656-7.852 58.367-5.238 88.66 3.238 26.617 8.2 44.922 22.637 59.278 40.032a9.6 9.6 0 0 0-2.356 3.085c-16.152-13.281-33.289-24.347-52.5-30.75-32.601-15.71-63.808-15.585-93.965-3.531-27.035 9.047-49.597 20.973-65.66 37.074a9.54 9.54 0 0 0-2.691-3.363m-2.242-1.328c11.41-18.969 28.3-31.094 48.316-39.309 42.758-18.98 97.269-16.078 141.691 8.047 12.684 8.602 24.067 17.782 31.078 28.907a9.46 9.46 0 0 1 4.579-1.176h.152c-3.781-28.684-23.547-38.59-46.531-51.43-4.86-2.715-10.172-4.418-15.446-7.191-19.082-10.032-83.668-7.653-93.824-3.332-33.496 14.25-60.293 17.316-72.976 56.547-.844 2.613-1.547 4.824-1.539 8.261 1.781-.308 2.824-.023 4.492.676zm-11.047 2.77c-13.895-39.418 17.508-75.594 53.394-90.098q76.563-28.324 140.875-.305c51.836 27.203 59.977 64.012 50.613 88.727a9.58 9.58 0 0 0-6.121-4.399c.793-16.777-7.308-31.336-28.261-42.679-30.137-23.211-65.512-29.157-103.817-25.418q-36.595 2.45-68.293 20.824c-22.613 11.93-33.261 28.988-33.957 50.312a9.6 9.6 0 0 0-4.429 3.036zm33.336 5.203c28.672-23.2 63.777-27.719 93.375-36.524 38.886 9.985 68.394 23.543 90.132 40.059-19.543 7.039-39.726 10.887-60.089 13.844-34.844 1.695-66.086-2-96.024-7.657-11.172-1.195-20.305-4.437-27.39-9.718zm203.464-9.055c3.95 0 7.172 3.223 7.172 7.176 0 3.949-3.222 7.172-7.172 7.172s-7.175-3.223-7.175-7.172 3.222-7.176 7.175-7.176m-229.343 2.793c3.949 0 7.175 3.223 7.175 7.176 0 3.949-3.222 7.172-7.175 7.172-3.949 0-7.172-3.223-7.172-7.172s3.223-7.176 7.172-7.176m72.242 64.82c18.973 8.84 31.918 12.95 48.098 12.45 17.222-.528 34.605-6.032 52.117-15.547-2.543 16.472 2.394 31.605 16.367 45.129-47.227 23.949-91.926 24.57-133.844-.442 11.945-13.566 17.695-27.433 17.254-41.59zM195.562 338.2c29.75 13.785 51.54 20.543 77.309 20.578 26.586.031 52.953-9.961 79.766-21.02l-4.2 7.961c-26.695 17.231-52.085 28.41-78.093 29.653-15.7.746-44.465-9.028-72.34-29.211l-2.434-7.965zm-6.195-8.407 5.527 6.192c30.692 11.601 51.543 20.125 77.836 20.238 27.129.117 53.532-11.473 82.555-21.789l6.414-8.406c-27.847 13.918-59.019 15.449-88.64 16.097-27.825.606-53.661-5.64-83.7-12.335zm198.051 93.395c-1.305-1.137-1.426-2.84-.27-3.793 1.157-.949 3.172-.801 4.481.332 1.305 1.137 1.433 2.84.273 3.793-1.156.949-3.168.801-4.484-.336zm-31.82-11.387c1.312 0 2.386 1.059 2.386 2.356s-1.07 2.355-2.386 2.355c-1.313 0-2.387-1.058-2.387-2.355s1.07-2.356 2.387-2.356m-9.329-21.23c-1.671.449-3.152-.395-3.3-1.883-.145-1.496 1.097-3.082 2.769-3.535s3.156.387 3.305 1.879c.144 1.488-1.094 3.078-2.774 3.539m-7.312-17.215c-1.672.449-3.152-.391-3.301-1.883-.144-1.492 1.098-3.078 2.77-3.535 1.672-.453 3.156.387 3.304 1.879.145 1.488-1.093 3.078-2.773 3.535zm-121.598 51.828c1.313 0 2.387 1.059 2.387 2.356s-1.07 2.355-2.387 2.355c-1.312 0-2.386-1.059-2.386-2.355s1.07-2.356 2.386-2.356m-25.59-15.691c1.313 0 2.387 1.058 2.387 2.355s-1.07 2.356-2.387 2.356c-1.312 0-2.386-1.059-2.386-2.356s1.07-2.355 2.386-2.355m8.313-19.891c-.59 1.629.129 3.176 1.605 3.445 1.473.266 3.161-.843 3.75-2.472.59-1.629-.125-3.18-1.601-3.446-1.473-.269-3.156.84-3.75 2.473zm6.594-17.465c.386 1.688 1.836 2.598 3.218 2.02 1.383-.574 2.192-2.426 1.805-4.114s-1.832-2.597-3.219-2.019c-1.382.574-2.191 2.422-1.804 4.113m44.351 62.949c1.313 0 2.387 1.059 2.387 2.356s-1.07 2.355-2.387 2.355c-1.312 0-2.386-1.058-2.386-2.355s1.07-2.356 2.386-2.356m77.832-7.953c1.313 0 2.387 1.059 2.387 2.356s-1.07 2.355-2.387 2.355c-1.312 0-2.386-1.058-2.386-2.355s1.07-2.356 2.386-2.356m-35.48 8.258c1.312 0 2.387 1.059 2.387 2.356s-1.071 2.355-2.387 2.355c-1.313 0-2.387-1.059-2.387-2.355s1.07-2.356 2.387-2.356m-134.77 122.281c1.301.903 1.637 2.606.746 3.793-.89 1.184-2.675 1.414-3.98.512-1.301-.902-1.637-2.605-.746-3.793.89-1.184 2.676-1.414 3.98-.508zm-23.488-20.25c1.301.985 1.637 2.844.742 4.141-.89 1.293-2.676 1.543-3.976.559-1.301-.985-1.637-2.844-.746-4.141.89-1.293 2.675-1.547 3.98-.555zM118.312 512.5c1.715 0 3.336 1.375 3.61 3.067.273 1.691-.899 3.066-2.61 3.066-1.714 0-3.336-1.375-3.613-3.066-.273-1.688.895-3.067 2.613-3.067m-22.19-16.683c1.71 0 3.335 1.375 3.608 3.066.274 1.692-.898 3.067-2.609 3.067-1.715 0-3.336-1.375-3.613-3.067-.274-1.691.894-3.066 2.613-3.066M69.835 472.52c1.715 0 3.336 1.379 3.613 3.066.274 1.688-.898 3.067-2.61 3.067-1.714 0-3.335-1.375-3.612-3.067-.274-1.687.894-3.066 2.609-3.066m10.121-30.059c1.848 0 3.207 1.27 3.016 2.832-.188 1.559-1.852 2.832-3.704 2.832-1.847 0-3.207-1.269-3.015-2.832.187-1.558 1.851-2.832 3.703-2.832m73.246-22.73c1.672-.293 3.242.641 3.496 2.09.254 1.445-.898 2.863-2.57 3.16-1.668.293-3.242-.645-3.496-2.09s.898-2.863 2.57-3.156zm-33.973 8.684c1.672-.293 3.243.64 3.496 2.089.254 1.446-.898 2.864-2.57 3.161-1.668.292-3.242-.645-3.496-2.09-.254-1.446.899-2.864 2.57-3.157zm301.153 4.777c-1.188-1.258-1.149-2.965.093-3.801 1.243-.836 3.235-.488 4.426.766s1.153 2.965-.09 3.8c-1.242.836-3.23.493-4.429-.765m45.125 12.93c-1.004-1.407-.731-3.094.613-3.754 1.348-.657 3.27-.043 4.281 1.363 1.008 1.406.735 3.094-.609 3.75s-3.27.043-4.281-1.363zm7.468 29.261c1.129-1.312 2.829-1.445 3.79-.293.957 1.153.816 3.164-.309 4.481-1.129 1.312-2.828 1.449-3.789.293-.957-1.153-.816-3.164.308-4.485zm-25.05 19.899c1.726.062 2.89 1.312 2.586 2.781s-1.969 2.609-3.7 2.543c-1.73-.063-2.894-1.313-2.589-2.781.304-1.469 1.968-2.61 3.703-2.547zM424.848 515c1.378-1.043 3.105-.773 3.839.598.731 1.375.2 3.352-1.179 4.399-1.379 1.046-3.106.777-3.84-.594-.731-1.375-.199-3.352 1.18-4.399zm-14.02 23.848c1.582-.699 3.199-.047 3.602 1.461.398 1.504-.567 3.309-2.153 4.012-1.582.703-3.203.047-3.601-1.457-.399-1.508.566-3.309 2.156-4.012zm-25.758 18.891c1.696.34 2.637 1.808 2.094 3.273-.543 1.461-2.375 2.371-4.074 2.028-1.699-.34-2.641-1.809-2.098-3.274.543-1.461 2.375-2.371 4.078-2.027m-34.965 1.972c1.621.606 2.317 2.211 1.543 3.567-.769 1.355-2.722 1.961-4.347 1.347-1.621-.609-2.317-2.21-1.547-3.566.773-1.355 2.726-1.961 4.351-1.348m-33.089 11.457c1.73.075 2.886 1.383 2.57 2.911-.313 1.523-1.981 2.711-3.715 2.632-1.73-.078-2.887-1.382-2.574-2.91.312-1.527 1.98-2.711 3.719-2.633m-45.5 15.051c1.632.574 2.359 2.16 1.617 3.531-.742 1.368-2.684 2.016-4.321 1.442-1.632-.574-2.363-2.16-1.621-3.535.743-1.371 2.684-2.016 4.325-1.438m-43.571-18.359c1.403 1.015 1.649 2.742.547 3.847-1.101 1.102-3.144 1.172-4.551.153-1.402-1.016-1.652-2.746-.55-3.848s3.144-1.172 4.554-.152m-36.898-7.727c1.301.899 1.633 2.606.742 3.793s-2.676 1.414-3.977.512-1.636-2.605-.746-3.797c.887-1.184 2.676-1.414 3.981-.508m241.918-71.879c-18.129 10.391-26.961 26.254-33.86 43.25-6.343 10.356-19.109 15.094-41.273 11.614-15.32-.657-27.68 1.976-37.07 7.906-8.278 7.125-16.766 13.633-25.703 18.781-14.567 5.442-23.61-1.09-22.375-10.758 24.687-.754 44.585-21.121 44.585-45.984 0-25.34-20.667-46.008-46.007-46.008s-46.008 20.668-46.008 46.008c0 23.789 18.219 43.461 41.418 45.777.086 12.551-14.926 14.59-31.91.586q-21.5-16.312-56.844-11.859c-18.832-.07-28.617-6.106-38.059-32.375-7.488-13.629-24.281-24.52-43.004-34.848-16.226-8.894-14.168-25.617 2.47-30.148 32.702-10.133 58.491-9.391 86.995-26.692 23.906 16.403 53.614 27.258 92.68 29.161 38.09-2.172 66.449-11.915 86.75-27.926 5.805 7.043 19.644 13.551 45.226 19.277 15.735 3.293 41.532 9.027 47.946 14.027 5.269 5.352 3.621 12.743-3.457 17.852l-22.489 12.355zm-260.543-88c25.836-11.519 29.547-29.816 27.058-50.007q9.958 7.899 20.782 13.203c.691 19.562-6.739 31.898-16.453 42.215l-6.711-5.192-2.379 1.945c17.5 14.813 38.425 22.426 61.699 25.11 32.473 2.418 64.945-2.555 97.422-23.813l-1.297-2.164-7.793 4.543c-13.637-12.554-19.051-27.926-17.102-45.679 6.711-3.356 13.422-7.18 20.133-11.688-1.859 34.617 20.457 51.848 51.524 62.781 36.629 9.114 72.226 17.477 90.058 30.957 9.453 17.246 6.203 32.114-2.812 45.895-7.469 8.152-16.344 14.43-27.278 17.969-12.195 3.386-19.629 11.543-24.894 21.863-13.203 18.328-24.461 46.398-53.906 47.844-21.848-4.293-39.707-3.426-51.739 4.976-17.316 9.453-19.699 24.535-51.957 28.36-24.535-2.165-35-16.02-45.894-23.165-17.824-12.121-24.606-12.769-49.574-10.39-18.618-1.656-42.434 5.555-59.102-27.059-5.313-14.765-14.023-26.656-26.844-35.07-13.78-11.398-33.843-10.246-41.78-33.555-6.458-22.976.394-36.703 14.718-45.246 38.437-14.926 70.765-22.742 104.133-34.637zm106.367 48.719c-40.68-.125-74.477-13.793-103.086-37.672l-2.043 1.606 10.074 8.906c-27.207 15.184-52.953 16.059-79.429 24.09-25.09 4.754-30.297 24.347-7.153 37.379 11 7.785 22.438 11.922 33 23.359 5.645 6.859 9.684 15.328 13.43 23.652 7.02 15.465 18.434 20.989 32.852 19.711 19.078-1.75 36.941-.097 52.125 9.051 14.761 11.192 30.308 19.852 41.027 4.672 8.422 17.617 27.39 11.309 41.176-2.043 12.91-10.734 26.996-16.617 42.636-16.059 27.559 1.235 38.047 3.918 49.789-16.058 8.575-17.039 17.75-31.692 29.055-37.817 10.805-9.828 33.434-8.128 32.414-29.054-1.16-5.352-7.062-9.149-15.621-11.387-26.183-10.363-64.195-11.242-80.309-28.324l5.985-4.086c-1.992-1.508-4.379-1.07-7.152 1.312-21.243 16.403-48.45 27.938-88.774 28.762zM80.75 440.571c3.031 0 5.258 2.082 4.945 4.64-.308 2.555-3.035 4.641-6.07 4.641-3.03 0-5.254-2.082-4.94-4.641.307-2.558 3.034-4.64 6.07-4.64zm-11.234 29.433c3.031 0 5.902 2.438 6.39 5.43.485 2.988-1.59 5.43-4.62 5.43-3.032 0-5.907-2.438-6.391-5.43-.489-2.988 1.586-5.43 4.62-5.43m26.281 24.082c2.722 0 5.301 2.188 5.742 4.879.437 2.688-1.426 4.879-4.152 4.879-2.723 0-5.305-2.187-5.743-4.879-.437-2.687 1.426-4.879 4.153-4.879m22.191 16.684c2.723 0 5.301 2.187 5.742 4.879.438 2.687-1.425 4.879-4.152 4.879-2.723 0-5.305-2.188-5.742-4.879-.438-2.688 1.426-4.879 4.152-4.879M136 536.071c2.066 1.566 2.602 4.523 1.184 6.582-1.418 2.058-4.258 2.453-6.329.887-2.066-1.567-2.605-4.524-1.187-6.586 1.414-2.059 4.254-2.457 6.328-.887zm23.492 20.363c2.067 1.438 2.602 4.145 1.184 6.031s-4.258 2.25-6.328.813c-2.067-1.434-2.606-4.145-1.188-6.031 1.414-1.887 4.254-2.25 6.328-.813zm32.434 2.457c2.066 1.438 2.601 4.145 1.183 6.031-1.414 1.887-4.257 2.25-6.324.813-2.07-1.434-2.605-4.145-1.187-6.031 1.414-1.887 4.254-2.25 6.328-.813m37.113 7.809c2.23 1.617 2.625 4.363.871 6.117s-5.004 1.863-7.234.246c-2.235-1.613-2.629-4.363-.875-6.117 1.75-1.754 5-1.863 7.238-.242zm43.195 18.101c2.602.914 3.758 3.438 2.575 5.617-1.184 2.18-4.27 3.207-6.868 2.293-2.601-.914-3.757-3.437-2.574-5.617 1.18-2.179 4.266-3.207 6.871-2.289zm45.059-15.199c2.754.121 4.594 2.199 4.094 4.633-.5 2.43-3.157 4.305-5.911 4.183s-4.593-2.199-4.093-4.628c.496-2.43 3.152-4.305 5.91-4.184zm33.559-11.297c2.582.969 3.683 3.516 2.457 5.672-1.227 2.152-4.336 3.117-6.918 2.145-2.579-.969-3.688-3.516-2.457-5.672 1.222-2.153 4.332-3.117 6.918-2.145m34.73-2.074c2.703.543 4.199 2.879 3.332 5.203s-3.777 3.77-6.48 3.227-4.204-2.879-3.336-5.204c.863-2.32 3.777-3.769 6.484-3.226m24.797-18.91c2.519-1.117 5.094-.074 5.726 2.32.633 2.399-.902 5.262-3.421 6.379-2.52 1.117-5.094.078-5.731-2.316-.637-2.395.899-5.262 3.426-6.383m13.68-23.703c2.199-1.664 4.941-1.239 6.105.949 1.164 2.191.32 5.328-1.875 6.992-2.195 1.66-4.941 1.238-6.109-.949-1.168-2.188-.321-5.328 1.879-6.992m24.132-19.84c2.754.101 4.602 2.086 4.118 4.422-.485 2.332-3.129 4.148-5.887 4.047-2.754-.102-4.606-2.086-4.121-4.422s3.129-4.149 5.886-4.047zm23.774-19.539c1.797-2.094 4.5-2.305 6.027-.469 1.524 1.836 1.297 5.031-.492 7.125-1.793 2.094-4.5 2.309-6.027.473-1.524-1.832-1.301-5.032.492-7.129m-7.809-27.406c-1.605-2.239-1.172-4.918.969-5.965 2.141-1.043 5.195-.067 6.805 2.172 1.605 2.238 1.172 4.917-.969 5.964s-5.195.071-6.805-2.171m-45.015-12.754c-1.899-2-1.832-4.711.144-6.043 1.977-1.329 5.137-.778 7.035 1.214 1.899 1.997 1.836 4.711-.14 6.043-1.977 1.329-5.137.782-7.039-1.214m-32.875-9.887c-2.082-1.805-2.278-4.512-.438-6.027 1.84-1.512 5.039-1.27 7.121.531 2.078 1.804 2.281 4.511.438 6.027-1.84 1.516-5.035 1.274-7.125-.531zm-39.801-32.106c-2.66.723-5.02-.617-5.25-2.992-.231-2.371 1.746-4.894 4.406-5.617 2.656-.723 5.02.613 5.254 2.988.234 2.371-1.742 4.895-4.406 5.621zm-7.313-17.214c-2.66.722-5.019-.618-5.254-2.989-.23-2.371 1.746-4.894 4.407-5.621 2.656-.722 5.019.613 5.254 2.988.234 2.372-1.743 4.895-4.407 5.622m-133.902-2.188c.617 2.688 2.918 4.133 5.117 3.215 2.199-.914 3.488-3.856 2.867-6.543-.617-2.688-2.918-4.133-5.117-3.215-2.195.914-3.488 3.856-2.867 6.543m-6.664 16.606c-.938 2.593.203 5.054 2.551 5.48 2.343.426 5.023-1.34 5.961-3.934.937-2.589-.204-5.054-2.551-5.48-2.344-.426-5.024 1.34-5.965 3.934zm157.375 20.839c2.273 0 4.129 1.828 4.129 4.078 0 2.247-1.852 4.079-4.129 4.079-2.274 0-4.125-1.829-4.125-4.079 0-2.246 1.851-4.078 4.125-4.078m-26.735 15.336c2.274 0 4.129 1.828 4.129 4.078 0 2.247-1.851 4.079-4.129 4.079-2.273 0-4.128-1.829-4.128-4.079 0-2.246 1.851-4.078 4.128-4.078m-35.484 8.254c2.274 0 4.125 1.828 4.125 4.078 0 2.246-1.851 4.078-4.125 4.078s-4.129-1.828-4.129-4.078c0-2.246 1.852-4.078 4.129-4.078m-76.016-10.207c2.27 0 4.126 1.828 4.126 4.078 0 2.246-1.852 4.078-4.126 4.078s-4.128-1.828-4.128-4.078c0-2.246 1.851-4.078 4.128-4.078m-25.593-15.687c2.273 0 4.129 1.828 4.129 4.078 0 2.246-1.852 4.078-4.129 4.078-2.274 0-4.129-1.832-4.129-4.078s1.851-4.078 4.129-4.078m59.437 25.285c2.625 0 4.766 1.828 4.766 4.078 0 2.246-2.141 4.078-4.766 4.078-2.621 0-4.761-1.828-4.761-4.078 0-2.246 2.14-4.078 4.761-4.078m-132.621-6.504c2.809-.492 5.434.988 5.84 3.301.406 2.312-1.551 4.601-4.359 5.097-2.809.493-5.43-.988-5.84-3.3-.406-2.313 1.551-4.602 4.359-5.098m33.973-8.684c2.808-.492 5.433.989 5.84 3.301.406 2.313-1.551 4.602-4.36 5.098-2.808.492-5.433-.985-5.84-3.301-.406-2.313 1.551-4.602 4.36-5.098" style="stroke:none;fill-rule:evenodd;fill:#d2d1d2"/><path d="M6.82 5.653h524.883v455.453l-.449 12.98c-7.895 117.852-122.528 211.887-261.988 211.887-139.461 0-254.094-94.035-261.992-211.887l-.45-12.98V5.653zm343.016 346.383c1.508-8.473 6.75-16.946 14.086-25.418 5.304-2.961 12.144-7.555 17.453-11.328l.449-.633c5.129-.141 9.274-4.371 9.274-9.535 0-1-.157-1.965-.446-2.875l.52-.731c10.156-14.914 5.308-44.223-10.559-61.281-16.894-18.156-38.691-37.238-87.742-44.371 7.34-21.219 31.832-36.621 51.117-40.082 20.528-3.68 48.41 4.578 68.328 18.66-1.808-23.594-25.058-37.258-42.312-41.567-17.797-4.445-38.66-5.402-61.723 11.934 26.715-34.09 58.231-42.758 93.934-27.852-3.891-20.003-23.91-28.929-40.055-29.996-16.141-1.062-35.449 2.36-55.367 19.004q20.176-27.288 75.883-41.105c-24.785-12.059-47.547-7.414-65.274.683-20.086 9.18-34.972 24.864-45.617 54.657-28.566-54.805-76.32-78.098-114.894-68.895 31.277 9.004 55.703 35.156 74.007 64.09 13.786 21.801 24.5 48.137 29.817 79.547-54.547 6.094-81.371 18.098-101.578 40.496-14.641 16.227-31.828 42.898-15.153 67.687a9.46 9.46 0 0 0-1.297 4.793c0 5.254 4.286 9.539 9.539 9.539a9.53 9.53 0 0 0 7.192-3.281c6.832 7.219 16.832 9.258 25.652 13.067 6.504 6.906 10.645 13.578 11.328 19.906.832 17.445-1.222 29.945-9.027 39.129-8.309 9.773-21.613 15.351-37.652 19.043-47.125 17.156-102.649 21.804-100.992 55.293-1.852 19.328 4.453 34.879 25.312 44.89 22.254 8.317 36.141 21.075 42.672 38.707 15.461 31.805 40.133 38.383 68.992 33.493 16.586-2.176 31.754 1.086 44.844 12.304 29.074 24.742 59.066 31.645 91.055-.691 12.132-12.27 28.07-15.551 46.609-12.68 25.848 4.977 48.855-7.316 67.719-44.851 9.234-25.801 27.644-19.934 42.121-32.196 16.59-11.183 22.695-27.324 18.32-48.41-6.914-20.68-41.566-26.949-62.242-32.562-49.793-12.141-83.863-26.25-84.305-66.567" style="stroke:none;fill-rule:evenodd;fill:#fffdfd"/></svg>