<svg viewBox="-25.95 -28.95 801.90 882.90" xmlns="http://www.w3.org/2000/svg"><title>Herb Międzyleś (województwo lubelskie)</title><path d="m3.75 3.75 1.572 475.38c0 214.638 172.524 342.12 370.464 342.12 204.393 0 370.464-136.462 370.464-342.12l-.736-475.38z" style="fill:#ec0000;fill-opacity:1;stroke:#000;stroke-width:7.50000048;stroke-miterlimit:4;stroke-dasharray:none;stroke-opacity:1"/><path d="m195.682 44.882-63.729 63.616c49.951 13.361 75.778 43.66 173.764 141.474l37.652 37.469-37.652 37.586C207.73 422.84 181.904 453.14 131.953 466.5l63.729 63.617c13.384-49.863 43.738-75.644 141.724-173.457l15.201-15.174V500.7l-46.89 48.442c-97.986 97.813-123.813 128.113-173.764 141.473l63.729 63.617c13.384-49.863 43.738-75.644 141.724-173.457l37.536-37.47 37.652 37.47c97.986 97.813 128.34 123.594 141.724 173.457l63.73-63.617c-49.952-13.36-75.779-43.66-173.765-141.473l-46.89-46.807v-160.85l15.201 15.174c97.986 97.813 128.34 123.594 141.724 173.457l63.73-63.617c-49.952-13.36-75.779-43.66-173.765-141.473l-46.89-46.807c-.12-131.19-2.611-170.34 22.685-214.078h-90.156c22.185 38.358 23.018 73.087 22.802 169.488l-15.318-15.291C239.42 120.526 209.066 94.745 195.682 44.882z" style="fill:#fff;fill-rule:evenodd;stroke:#000;stroke-width:3.75;stroke-linecap:butt;stroke-linejoin:miter;stroke-miterlimit:4;stroke-dasharray:none;stroke-opacity:1"/></svg>