<!-- Creator: CorelDRAW -->
<svg
   xmlns="http://www.w3.org/2000/svg"
   style="shape-rendering:geometricPrecision; text-rendering:geometricPrecision; image-rendering:optimizeQuality; fill-rule:evenodd; clip-rule:evenodd"
   viewBox="-40.22 -11.88 290.44 320.76"
   id="svg2"
   version="1.0"><title>Herb Czerniejewo</title><metadata
   id="metadata25"><rdf:RDF><cc:Work
       rdf:about=""><dc:format>image/svg+xml</dc:format><dc:type
         rdf:resource="http://purl.org/dc/dcmitype/StillImage" /></cc:Work></rdf:RDF></metadata><sodipodi:namedview
   guidetolerance="10.0"
   gridtolerance="10.0"
   objecttolerance="10.0"
   borderopacity="1.0"
   bordercolor="#666666"
   pagecolor="#ffffff"
   id="base" />
 <defs
   id="defs4">
  <style
   type="text/css"
   id="style6">
   
    .fil1 {fill:#FA4025}
    .fil0 {fill:#0A0B0C}
    .fil2 {fill:white}
   
  </style>
 </defs>
 <g
   id="Warstwa_x0020_1"
   transform="matrix(1.280603,0,0,1.280603,-29.462543,-41.669166)">
  <metadata
   id="CorelCorpID_0Corel-Layer" />
  <g
   id="_71494496">
   <path
   id="_71513376"
   class="fil0"
   d="M -0.0001,32.5387 L 209.9999,32.5387 L 209.9999,161.1787 C 208.8968,219.6004 164.8891,263.3507 105.3019,264.4607 C 45.9128,263.8136 1.8389,218.461 -0.0011,160.7207 L -0.0011,32.5387 L -0.0001,32.5387 z "
   style="fill:#0a0b0c" />
   <path
   id="_71513304"
   class="fil1"
   d="M 2.0587,34.8124 L 207.9417,34.8124 L 207.9417,160.9304 C 206.8603,218.2065 163.7154,261.0994 105.2967,262.1874 C 47.072,261.5529 3.8617,217.0897 2.0587,160.4814 L 2.0587,34.8124 L 2.0587,34.8124 z "
   style="fill:#fa4025" />
   <g
   id="g13">
    <path
   id="_71513232"
   class="fil0"
   d="M 144.112,217.571 C 144.0489,217.5079 143.9739,217.4419 143.8887,217.372 C 142.7619,216.4488 139.8618,214.8875 139.6083,211.6005 C 136.2152,211.1176 134.6204,208.5534 133.6953,205.5766 C 133.4609,206.8218 133.0382,207.9376 132.0353,208.7764 C 130.8924,209.7325 129.4384,209.2026 128.9581,208.012 C 128.052,205.7661 127.4585,201.4359 126.59,198.6196 C 126.238,197.4777 126.5478,196.9968 127.0035,196.1631 C 128.12,194.1203 129.986,191.0154 131.1695,188.7066 C 132.8398,185.4484 135.2725,185.8549 137.2578,187.0263 C 137.7553,186.4821 139.2708,185.8609 139.8402,185.7563 C 139.7768,184.6189 139.8253,183.594 140.038,182.7333 C 140.0118,182.6931 139.9865,182.653 139.9608,182.6128 C 137.3092,182.886 134.4934,182.9561 132.1167,182.1379 C 131.5173,182.8303 130.9532,183.5382 130.4829,184.3005 C 128.7126,187.1696 129.4558,190.2363 127.8788,193.0467 C 126.4153,195.6548 123.6107,197.6665 120.1887,198.8313 C 120.1153,199.6939 119.8066,200.526 118.8986,201.3816 L 124.8845,201.6973 C 125.5283,201.7247 125.3537,201.6723 125.6673,202.1774 C 125.9942,202.7037 126.4277,202.9901 125.9535,203.5701 C 125.4659,204.1668 124.5677,204.9588 124.3627,205.3062 C 124.4143,206.0275 124.652,207.0645 124.9026,207.9749 C 125.1017,208.6982 125.0657,208.9592 124.7291,209.2078 C 124.4281,209.4302 124.0715,209.6203 123.7535,209.7453 C 123.1697,209.9741 123.0545,209.9485 122.4931,209.4777 C 121.1715,208.3692 120.0852,207.4792 118.6715,206.2853 C 116.5868,206.2998 114.4413,208.4482 111.7927,209.4633 C 110.7464,209.8643 109.8975,209.959 108.9266,209.1897 C 108.1332,208.5613 107.5702,207.3115 107.7111,205.298 C 105.8436,205.0597 103.8293,204.6774 101.7486,204.2293 C 100.4633,205.2249 97.7877,205.7146 97.0099,205.7303 C 94.7495,205.7756 93.6768,204.7103 94.945,202.699 C 98.866,196.4816 103.25,188.2766 108.9414,184.241 C 111.7093,182.2785 115.7292,181.2664 118.8897,183.3254 C 117.6997,181.0837 117.1078,177.0497 117.9385,173.6163 C 118.6177,170.8096 120.0893,168.3581 122.9296,168.0985 C 123.1498,167.9411 123.3707,167.7718 123.5913,167.5943 C 123.1526,166.2022 122.8669,165.0739 122.8668,164.5124 C 120.5183,169.6352 115.9084,166.3537 113.7356,162.4103 C 114.1594,164.0749 115.73,167.3204 116.6196,170.7748 C 117.681,174.8962 116.8015,177.1259 115.3926,178.0343 C 112.5695,179.8545 109.6181,177.0805 108.1208,175.1026 C 106.0726,172.3972 104.5081,168.0329 102.7946,162.8421 C 95.9036,141.9677 93.8909,114.5797 95.2811,93.1916 C 95.9675,82.6291 96.8486,72.9353 99.668,65.6258 C 101.7452,60.2408 105.5829,57.1513 110.3944,56.7988 C 115.5477,56.4212 117.9182,60.4203 118.3148,66.0751 C 118.7113,71.7298 117.2439,78.9989 117.0895,82.815 C 116.8047,89.8513 118.0621,97.7296 128.8469,102.9222 C 128.4742,96.0818 128.2429,95.6149 127.5131,93.3653 C 126.7486,91.009 126.0386,89.5021 126.0385,85.6982 C 123.1179,85.6982 121.3965,82.5076 121.3965,79.924 C 121.9274,80.0666 122.3196,80.132 122.8708,80.1115 C 121.5617,79.121 120.8954,78.0656 120.6854,75.5494 C 121.3593,75.6616 121.986,75.7293 122.5771,75.7587 C 121.0244,73.6014 120.8711,71.0252 121.6514,68.8934 C 122.0108,69.3519 122.3813,69.7543 122.7681,70.0748 C 122.2234,67.781 122.977,65.3916 123.7197,64.1975 C 124.1269,64.8848 124.4782,65.2587 125.0319,65.7293 C 124.9908,64.8059 125.6891,62.571 127.1513,61.5566 C 127.4586,62.0628 127.9689,62.7975 128.3544,63.2945 C 131.0146,56.7283 137.6171,53.3313 144.2658,53.4706 C 158.1212,53.7609 162.6846,65.6285 161.2606,77.8033 C 160.071,87.9738 157.0835,96.25 152.3736,104.8762 C 153.965,103.9275 156.2516,103.2141 158.3209,102.2288 C 167.672,97.7766 169.0413,87.8571 167.9724,78.973 C 167.6572,76.3537 167.2348,73.7327 166.9689,71.2056 C 166.316,64.9998 166.7964,57.1943 174.4766,57.0026 C 178.8613,56.8932 182.5109,59.8243 184.5113,63.8807 C 191.8971,78.8571 191.0063,110.7025 190.4262,126.3155 C 190.0689,135.934 188.7311,144.6844 186.5345,153.6678 C 185.2037,159.1101 181.1962,173.3819 175.6162,176.8555 C 171.6478,179.3259 169.585,175.5614 169.8818,171.8093 C 170.1536,168.3746 171.5811,165.1886 172.5962,162.1167 C 171.9737,163.1358 169.4244,166.8417 166.5955,166.4229 C 165.7672,166.3002 164.5394,165.8503 163.7953,164.842 C 163.7217,165.6297 163.5921,166.6005 163.4069,167.676 C 163.738,167.9458 164.0697,168.2008 164.3997,168.4298 C 167.2434,168.6498 168.7491,171.0805 169.4673,173.8774 C 170.346,177.299 169.8105,181.3408 168.6519,183.5988 C 171.7832,181.4959 175.817,182.4518 178.6119,184.3755 C 184.3591,188.3312 188.8573,196.4742 192.8647,202.6362 C 194.1609,204.6296 193.1032,205.7098 190.8424,205.696 C 190.0644,205.6913 187.3821,205.2389 186.0831,204.2614 C 184.0089,204.7385 182.0002,205.1488 180.1361,205.4132 C 180.3051,207.4245 179.7596,208.6821 178.9751,209.3216 C 178.015,210.1043 177.1649,210.0215 176.113,209.6351 C 173.4506,208.6571 171.2753,206.5389 169.1906,206.5535 C 167.7937,207.7669 166.7199,208.6721 165.4139,209.7989 C 164.8592,210.2776 164.7443,210.3047 164.1575,210.0841 C 163.8377,209.9635 163.4784,209.7784 163.1744,209.5603 C 162.8344,209.3164 162.7947,209.0559 162.9837,208.3299 C 163.2215,207.416 163.4448,206.3759 163.4863,205.6539 C 163.2764,205.3095 162.3673,204.53 161.8713,203.9402 C 161.3891,203.3668 161.8185,203.0745 162.1381,202.5436 C 162.4446,202.0342 162.2708,202.089 162.9142,202.0527 L 168.895,201.6534 C 167.9751,200.8106 167.655,199.9829 167.5695,199.1213 C 164.1315,198.0044 161.2991,196.0322 159.7994,193.4448 C 158.1832,190.6566 158.8836,187.5798 157.0734,184.7357 C 156.5493,183.9123 155.9147,183.1551 155.2447,182.4124 C 152.6146,183.1949 150.2395,182.8502 147.64,182.5232 C 147.5969,182.5939 147.5537,182.6644 147.5095,182.735 C 147.7371,183.5919 147.8035,184.6157 147.76,185.7541 C 148.3311,185.8487 149.8572,186.4433 150.364,186.9788 C 152.3287,185.773 154.7539,185.3241 156.4808,188.5526 C 157.7045,190.8404 159.6243,193.9123 160.7763,195.9353 C 161.2465,196.7609 161.5647,197.2363 161.2326,198.3842 C 160.4134,201.2153 159.8956,205.5551 159.0288,207.8164 C 158.5693,209.0153 157.1248,209.5705 155.9655,208.6345 C 154.948,207.8133 154.5059,206.705 154.2498,205.4641 C 153.3768,208.4566 151.827,211.0482 148.4428,211.5903 C 148.2468,214.8805 145.3755,216.4922 144.2644,217.4349 C 144.2091,217.4819 144.158,217.5272 144.112,217.571 L 144.112,217.571 z "
   style="fill:#0a0b0c" />
    <path
   id="_71513160"
   class="fil2"
   d="M 128.848,103.78 C 122.8764,101.0351 119.6182,97.6769 118.0181,93.7661 C 114.3737,84.8583 117.9004,75.8212 117.71,67.4332 C 117.5965,62.4335 116.239,58.0048 111.0184,57.6844 C 107.228,57.4517 103.5285,59.9487 101.8618,63.6068 C 98.3863,71.2344 96.8957,81.0018 96.4232,91.1608 C 95.3567,114.0896 97.0646,139.3247 104.041,161.3018 C 105.1871,164.912 106.286,169.9175 108.6095,173.1197 C 112.0475,177.858 118.0342,177.3817 115.4319,169.5391 C 108.1735,147.6645 104.172,132.1046 104.8457,108.5383 C 105.782,124.8155 107.2573,146.2861 114.2496,161.5136 C 115.259,163.7119 118.0916,166.9991 120.876,165.3905 C 122.7875,164.2861 122.5528,160.6018 121.1266,157.1489 C 118.4845,150.7523 110.6166,130.8294 112.1329,112.358 C 112.7896,119.5061 113.5983,125.6247 114.5222,131.4192 C 115.4229,137.0676 116.4589,142.9948 119.4838,148.1051 C 122.0644,152.4645 127.2749,151.2984 125.5707,145.097 C 124.3315,140.5877 122.5074,136.4189 121.735,131.5684 C 120.9617,126.712 120.1875,121.7967 120.1228,116.8513 C 121.5426,126.5731 123.2616,126.0509 125.3579,125.7828 C 125.7897,116.7441 128.9752,113.2003 129.3523,111.4304 C 128.7306,109.6359 128.8648,106.582 128.848,103.78 L 128.848,103.78 z M 133.4102,164.6281 C 128.8992,161.8839 126.4253,167.0946 123.7989,168.3962 C 124.6671,168.6789 124.9723,169.1536 125.5538,169.727 C 124.6791,169.4173 123.6156,169.3166 122.8767,169.3171 C 122.0391,169.3178 121.5835,169.4927 121.1274,169.9113 C 119.8876,171.0494 118.7394,174.7773 118.649,176.6432 C 118.6086,177.4788 118.7739,178.8237 119.0515,179.5644 C 119.7445,181.4138 120.6544,183.1801 121.3081,185.0334 C 122.1417,187.396 122.4209,190.0745 120.4036,192.7656 C 117.8636,196.154 113.0618,199.0145 110.216,199.2371 C 114.7445,197.5341 117.8831,195.1923 119.8033,191.3922 C 120.9717,189.08 120.6971,186.039 118.458,184.539 C 116.3395,183.1198 112.8578,183.3091 109.9756,185.176 C 103.653,189.2712 98.4595,199.6474 95.8329,203.0143 C 94.805,204.3319 96.3485,204.855 98.1037,204.4488 C 98.9581,204.2511 100.5861,204.0874 101.254,202.9518 C 101.5325,202.4782 102.0035,201.7859 102.7513,201.4191 C 102.1286,202.7278 102.1773,203.0401 102.6874,203.2869 C 103.478,203.6694 106.7262,203.9837 107.8269,204.4774 C 108.0878,202.9049 107.5224,201.8121 106.3917,201.0477 C 108.5197,201.3333 108.67,202.8793 108.5993,204.6016 C 108.5359,206.1486 108.5407,207.3149 109.47,208.1974 C 110.3157,209.0008 111.0867,208.7447 112.1309,208.3511 C 113.3239,207.9013 114.4873,207.1772 114.9204,206.9518 L 118.7019,204.9839 C 119.5941,205.6188 121.9192,208.0412 122.9183,208.954 C 123.3248,209.3256 123.267,209.3327 123.7559,209.0703 C 124.3179,208.7689 124.36,208.8341 124.1828,208.292 C 123.8517,207.2785 123.3724,205.7945 123.1837,204.9763 C 123.5119,204.6199 124.3576,203.8885 124.8356,203.3914 C 124.9711,203.2505 125.0055,203.1031 124.9748,202.9643 C 124.9532,202.8665 124.9041,202.8028 124.6784,202.7645 C 123.6796,202.5951 122.5108,202.5734 120.889,202.2303 C 120.3584,202.1181 119.8214,202.1747 119.2446,202.4345 C 117.658,203.1493 114.9985,204.685 113.4182,205.2 C 112.8063,205.3993 112.4944,205.1499 112.3185,204.9427 C 112.1025,204.6881 111.9962,204.1398 112.3129,203.7898 C 113.1511,202.8632 114.1152,200.8497 114.0397,200.1429 C 114.2271,200.0716 114.4649,202.749 113.4431,203.5788 C 115.9159,204.047 119.2478,201.0538 119.733,198.0582 C 129.1134,194.7779 129.3946,186.9001 124.9459,181.6799 C 126.5488,180.2117 125.8339,178.4824 125.5125,177.3021 C 126.6078,178.15 127.4546,180.1226 126.0368,181.9468 C 126.967,182.7582 128.1753,185.2614 128.4341,188.1078 C 128.4458,184.8637 131.7375,181.1386 134.1127,178.3782 C 135.2932,177.0063 136.1996,175.479 136.2924,173.6278 C 136.3274,172.9295 136.4603,172.6207 136.8936,172.5057 C 137.2001,172.4243 137.4905,172.1666 137.6116,171.7515 C 132.1244,172.9286 128.3368,175.4899 127.2575,175.9322 C 126.0054,176.4454 125.2318,175.5027 125.7884,174.4878 C 126.9116,172.4395 128.8921,169.6167 129.9918,167.4157 C 130.902,165.5941 132.3137,165.1441 133.4102,164.6281 L 133.4102,164.6281 z M 153.8724,165.1061 C 158.3447,162.2992 160.8911,167.4749 163.5355,168.7397 C 162.6714,169.0344 162.3728,169.5134 161.7994,170.0949 C 162.6696,169.7729 163.7316,169.6574 164.4704,169.6476 C 165.3079,169.6365 165.766,169.805 166.2279,170.2173 C 167.4835,171.3379 168.6837,175.0495 168.8,176.9139 C 168.8521,177.7489 168.7055,179.0959 168.4384,179.8405 C 167.7712,181.6993 166.8861,183.4782 166.2583,185.3405 C 165.4579,187.7144 165.2161,190.3966 167.2708,193.0592 C 169.8578,196.4119 174.699,199.205 177.5477,199.3878 C 172.9959,197.7483 169.8248,195.4505 167.8517,191.6776 C 166.6512,189.3819 166.8833,186.3374 169.1013,184.8063 C 171.1997,183.3577 174.6838,183.4983 177.5917,185.3248 C 183.9709,189.3313 189.3087,199.634 191.9822,202.964 C 193.0283,204.267 191.4922,204.8117 189.7315,204.43 C 188.8745,204.2442 187.2444,204.1033 186.5606,202.977 C 186.2756,202.5075 185.795,201.8218 185.0421,201.4654 C 185.6831,202.7653 185.6386,203.0784 185.132,203.3322 C 184.3469,203.7256 181.1034,204.0853 180.0097,204.5944 C 179.7269,203.0257 180.2769,201.925 181.3968,201.1449 C 179.273,201.4602 179.1444,203.0082 179.2391,204.7294 C 179.3241,206.2752 179.3356,207.4415 178.4187,208.3369 C 177.5843,209.152 176.8098,208.9067 175.7603,208.5277 C 174.5611,208.0946 173.3876,207.3869 172.9514,207.1676 L 169.1428,205.2526 C 168.2596,205.8999 165.9685,208.3545 164.9823,209.2813 C 164.5811,209.6585 164.639,209.6647 164.1463,209.4093 C 163.5802,209.1157 163.5391,209.1814 163.7086,208.6369 C 164.0256,207.6189 164.4841,206.1284 164.6614,205.3077 C 164.3282,204.9558 163.4724,204.2363 162.9875,203.7459 C 162.85,203.6069 162.8136,203.46 162.8424,203.3208 C 162.8626,203.2227 162.9108,203.1582 163.1359,203.1169 C 164.1322,202.9335 165.3007,202.8955 166.9174,202.5298 C 167.4464,202.4103 167.9842,202.4593 168.5646,202.7111 C 170.161,203.4036 172.8417,204.9021 174.429,205.3949 C 175.0436,205.5857 175.352,205.3319 175.525,205.1223 C 175.7375,204.8647 175.8361,204.315 175.5146,203.9694 C 174.6635,203.0547 173.6713,201.0548 173.7369,200.347 C 173.5487,200.2782 173.3482,202.9588 174.3815,203.7743 C 171.9154,204.2769 168.5421,201.3305 168.0152,198.342 C 158.5899,195.193 158.1987,187.3198 162.5741,182.038 C 160.9508,180.5923 161.6415,178.8533 161.9464,177.6685 C 160.863,178.5318 160.0438,180.5159 161.487,182.3201 C 160.5682,183.1445 159.395,185.6643 159.176,188.514 C 159.119,185.2704 155.7756,181.5917 153.362,178.8648 C 152.1625,177.5094 151.2349,175.9949 151.1163,174.1452 C 151.0715,173.4475 150.9343,173.1404 150.4995,173.0315 C 150.1918,172.9545 149.8978,172.7008 149.771,172.2875 C 155.2741,173.3878 159.0971,175.896 160.1825,176.3233 C 161.4417,176.8189 162.2019,175.8655 161.6312,174.8584 C 160.4795,172.826 158.4598,170.0312 157.3295,167.8457 C 156.394,166.037 154.9761,165.6068 153.8724,165.1061 L 153.8724,165.1061 z M 143.6029,158.7042 C 142.7756,159.5314 142.112,160.6599 141.4916,161.65 C 141.0688,162.3249 140.8285,163.226 140.9319,164.0235 C 141.0289,164.7704 141.3553,166.892 141.4647,168.2339 C 141.5596,169.3986 142.2905,169.7957 143.1771,169.9358 C 140.6817,170.2193 138.9316,171.6957 138.6568,173.9187 C 138.3425,176.4605 138.9766,178.8661 140.0559,181.0891 C 140.6022,182.2144 141.4013,182.4331 142.0795,182.5835 C 140.8402,183.045 141.0065,183.6807 140.9813,184.6681 C 140.9355,186.4629 142.0725,185.9156 142.2992,186.5783 C 141.693,186.4774 138.0083,187.2844 137.9559,188.1863 C 138.2258,188.812 138.6775,189.3978 138.9485,190.0632 C 139.5908,191.64 140.3632,193.031 140.6575,193.7096 C 138.0382,191.0902 136.6778,185.3111 132.5001,188.6206 C 131.7131,189.2441 131.4562,189.7876 130.9635,190.6921 C 129.822,192.7873 128.4168,195.7441 127.4515,197.0768 C 127.1265,197.5256 127.3611,198.093 127.3611,198.4245 C 127.8705,200.0406 129.4979,206.8039 129.9293,207.5393 C 130.8688,209.1407 132.274,207.6284 132.7511,206.1488 C 133.4048,204.1212 132.9512,201.4321 132.974,200.2954 C 132.9845,199.7797 132.9402,199.5592 133.2555,199.2347 C 133.8472,198.6255 134.3614,197.666 134.5759,197.2904 C 134.9076,196.7097 134.9331,196.6142 135.5518,197.0647 C 136.1999,197.5367 136.7891,198.4222 137.0878,199.5922 C 136.7316,199.1647 136.2924,198.6547 135.9995,198.4489 C 135.5713,198.148 135.1433,198.1734 134.9131,198.6651 C 134.7475,199.0187 134.5472,199.3531 134.3211,199.6485 C 134.1321,199.8953 134.1256,200.0815 134.1154,200.4467 C 134.0893,201.3813 134.1647,203.2201 134.3566,204.0364 C 135.0385,206.9374 137.259,210.2683 139.4601,210.2241 C 139.1941,207.9954 140.167,206.4987 141.5556,205.8086 C 140.9102,206.6697 140.3352,207.8507 140.3825,208.9897 C 140.4438,210.4634 140.3361,211.4497 140.8648,212.9902 C 141.2512,214.1156 142.5482,215.4668 143.7459,216.2754 C 143.886,216.37 144.0247,216.4571 144.1605,216.5356 C 144.2744,216.4652 144.39,216.3886 144.5066,216.3069 C 145.6896,215.4774 146.962,214.1047 147.3284,212.9733 C 147.8303,211.4238 147.7054,210.4394 147.7409,208.9649 C 147.7683,207.8253 147.1728,206.6545 146.5125,205.8048 C 147.9129,206.4705 148.9118,207.9501 148.6847,210.183 C 150.8863,210.1889 153.0482,206.8197 153.6795,203.9072 C 153.8571,203.0878 153.9004,201.248 153.858,200.314 C 153.8414,199.9489 153.8316,199.7629 153.6384,199.5194 C 153.4072,199.228 153.2011,198.8972 153.0294,198.5465 C 152.7905,198.0589 152.3621,198.041 151.9393,198.3493 C 151.65,198.5601 151.2199,199.0778 150.871,199.5114 C 151.1494,198.3363 151.723,197.4408 152.3628,196.9575 C 152.9736,196.4963 153.0006,196.5913 153.3424,197.1661 C 153.5635,197.5379 154.0944,198.4883 154.6966,199.0871 C 155.0175,199.4061 154.9771,199.6273 154.9965,200.1427 C 155.0392,201.2788 154.6326,203.9755 155.3216,205.9913 C 155.8244,207.4623 157.2558,208.9499 158.1673,207.3324 C 158.5857,206.5896 160.0948,199.7989 160.5759,198.1741 C 160.5702,197.8426 160.7948,197.2712 160.462,196.8283 C 159.4736,195.5126 158.017,192.5807 156.8391,190.5058 C 156.3307,189.6101 156.0644,189.0711 155.2667,188.4614 C 151.0319,185.2253 149.7725,191.0274 147.1993,193.692 C 147.4817,193.0084 148.2297,191.6041 148.8444,190.0163 C 149.1038,189.3463 149.5452,188.7527 149.804,188.1224 C 149.7359,187.2216 146.0377,186.4789 145.4334,186.5905 C 145.6485,185.9239 146.7948,186.4513 146.7177,184.6576 C 146.6753,183.6708 146.8305,183.0323 145.5834,182.5925 C 146.2589,182.4302 147.0539,182.1976 147.5806,181.0628 C 148.6209,178.8214 149.2129,176.4051 148.8543,173.8692 C 148.5407,171.6513 146.7651,170.2057 144.2651,169.9657 C 145.1491,169.8103 145.873,169.4004 145.9476,168.2343 C 146.0336,166.8907 146.3228,164.7637 146.4068,164.0152 C 146.4963,163.216 146.2403,162.3193 145.8058,161.6519 C 145.1551,160.6525 144.4701,159.5275 143.6029,158.7042 L 143.6029,158.7042 z M 126.8944,85.5106 C 128.1731,85.5413 128.8815,84.8066 129.3814,83.7396 C 129.6019,84.8298 130.5687,85.6548 131.7222,85.6548 C 133.0376,85.6548 134.1104,84.582 134.1104,83.2667 C 134.1104,81.9514 133.0376,80.8786 131.7222,80.8786 C 131.1075,80.8786 130.5455,81.1132 130.1215,81.497 C 130.6723,79.0707 130.6968,76.4608 133.346,76.8768 C 132.8642,77.9182 132.9549,79.1011 133.3711,80.0961 C 133.9709,81.5301 135.3186,82.6432 136.9547,82.5246 C 139.1393,82.366 140.2125,80.5362 140.4695,78.2105 C 140.7265,75.8847 140.1734,73.2213 140.0201,71.4871 C 139.6358,67.1396 141.4348,65.0342 145.6385,65.6747 C 142.7182,66.871 142.8935,70.3798 143.4066,73.9408 C 144.1854,79.3458 145.874,84.4574 147.2301,89.4348 C 150.4004,101.0705 147.1581,103.3665 141.8713,112.3354 C 141.8197,102.8032 139.1454,101.6382 139.0506,95.53 L 138.5558,95.53 C 138.3786,98.6334 139.3577,100.8793 140.0999,103.8515 C 140.8192,106.7321 141.1728,109.3022 141.3482,113.5987 C 140.6474,115.5941 140.0483,117.5897 139.5386,119.5854 L 138.693,119.6184 C 138.6177,118.2486 138.7219,115.2266 138.624,112.5416 C 138.5296,109.9521 137.9372,107.7976 137.1968,105.3419 C 136.4577,102.8913 136.0406,101.7982 135.9857,98.6371 C 135.9215,94.9366 136.0643,88.9866 137.1965,83.3893 C 135.0948,84.2414 133.6351,86.501 133.0582,89.9621 C 132.5599,92.9512 132.4508,95.7273 132.5286,98.2459 C 132.6016,100.6121 132.8189,102.7222 133.6601,105.4466 C 134.2017,107.2002 134.6137,109.6335 134.6137,111.9082 C 134.6137,113.0666 134.4639,114.7784 134.5572,115.6536 C 134.6663,116.6766 134.8838,117.0368 135.2358,117.7548 C 135.5465,118.3883 135.9672,119.3724 136.4378,120.3135 L 135.9421,121.0892 C 134.8091,119.9204 133.4418,118.7515 132.1141,117.5828 C 131.6596,117.1827 131.4771,116.7126 131.1327,115.6378 C 130.5022,113.67 129.8645,112.3562 129.792,109.704 C 129.6856,105.8154 129.4778,100.984 129.2731,97.743 C 129.1392,95.6226 128.725,93.5487 128.0646,91.9118 C 127.3039,90.0257 126.813,87.6836 126.8944,85.5106 L 126.8944,85.5106 z M 131.7222,81.4756 C 132.7088,81.4756 133.5134,82.2802 133.5134,83.2667 C 133.5134,84.1747 132.8317,84.9283 131.954,85.0427 C 132.2021,84.875 132.3659,84.5913 132.3659,84.2703 C 132.3659,83.7569 131.9473,83.3383 131.4339,83.3383 C 130.9206,83.3383 130.5021,83.7569 130.5021,84.2703 C 130.5021,84.4038 130.5307,84.5307 130.5816,84.6457 C 130.1848,84.3166 129.9311,83.8204 129.9311,83.2667 C 129.9311,82.2802 130.7357,81.4756 131.7222,81.4756 L 131.7222,81.4756 z M 167.4426,93.8045 C 171.0092,84.8653 167.4598,75.9714 167.577,67.5821 C 167.6469,62.5816 168.9657,58.1412 174.1833,57.7752 C 177.9716,57.5094 181.6927,59.9742 183.3913,63.6175 C 186.9332,71.2145 188.271,80.864 188.9578,91.0107 C 189.694,101.887 190.1781,119.7466 188.1757,136.6269 C 186.5225,150.5639 183.2627,163.5928 177.5995,172.8681 C 174.549,177.8643 168.7084,176.414 171.307,168.5704 C 178.575,146.6333 181.6789,132.1328 180.6411,108.5733 C 179.5389,122.6583 179.0161,141.7489 172.2735,160.5007 C 171.0631,163.8671 167.4017,165.6 165.6573,164.585 C 164.0798,163.6671 163.4573,161.0135 164.9435,157.3242 C 167.5294,150.9049 175.1046,130.6365 173.427,112.179 C 172.8328,119.3326 172.1964,125.7356 171.3231,131.5378 C 170.4719,137.1938 169.4875,143.1299 166.5073,148.2663 C 163.9649,152.6482 158.7443,151.5276 160.3943,145.3115 C 161.5941,140.7916 163.382,136.607 164.1119,131.7499 C 164.8428,126.887 165.4899,121.6005 165.5114,116.6547 C 164.1765,126.2421 162.5372,126.0174 160.4386,125.9962 C 160.0406,120.087 157.9949,111.9747 152.0956,109.0939 C 157.4953,113.7721 158.0595,116.5364 159.3654,123.4407 C 160.1111,127.3837 160.4563,131.6066 160.3112,136.5675 C 160.2018,140.3051 159.9106,144.7475 159.0219,148.1541 C 157.6929,153.2481 156.0656,158.6213 154.5866,162.0444 C 156.5046,159.0326 157.3535,156.6832 158.6133,154.1342 C 159.5795,152.1791 160.7502,152.094 162.1371,153.1262 C 164.4472,154.8454 163.4055,162.12 162.497,166.9015 C 161.2363,165.795 160.0074,164.6109 158.9169,163.9489 C 157.832,163.2904 156.5962,162.8466 155.1011,163.6778 C 154.4132,164.0602 153.1821,164.7434 152.1662,165.0688 C 154.2061,165.8307 155.6515,166.575 156.5993,168.3004 C 157.4846,169.9119 158.8026,171.9363 160.1895,174.29 C 160.6367,175.0492 160.2193,175.4278 159.447,175.0338 C 157.3498,173.9641 153.7374,171.9185 149.0411,171.7619 C 148.5087,170.8529 147.7328,170.1536 146.7198,169.7451 C 146.7278,167.6468 147.3844,165.9571 147.4278,164.2711 C 147.4983,161.5291 145.3898,159.352 143.5196,157.6101 C 141.7202,159.3545 139.6811,161.5635 139.7982,164.2708 C 139.871,165.9558 140.557,167.6338 140.6016,169.7316 C 139.8214,170.0623 139.1863,170.5651 138.6998,171.2028 C 133.8264,171.3295 130.1107,173.5054 127.9749,174.6327 C 127.2082,175.0374 126.7855,174.6646 127.2221,173.8993 C 128.576,171.5265 129.8656,169.4838 130.7283,167.8602 C 131.6519,166.1217 133.0867,165.3572 135.1158,164.567 C 134.0955,164.2557 132.8549,163.5899 132.1617,163.2171 C 130.6552,162.4069 129.4258,162.8679 128.3501,163.5415 C 127.1049,164.3214 125.6855,165.7966 124.2425,167.0482 C 123.5148,164.5425 123.0249,161.881 122.7411,159.2342 C 122.4617,156.6284 122.4969,153.7651 125.3976,153.667 C 126.3458,153.635 127.3819,153.6387 127.9654,154.5066 C 129.4416,156.7022 131.1789,161.0318 132.4844,162.28 C 128.5345,154.3432 126.9387,150.0064 126.1937,143.336 C 125.7952,139.7679 125.3701,136.1379 125.6543,132.5636 C 126.0936,138.7552 127.822,143.6578 130.8397,147.2711 C 128.0221,141.8716 126.159,136.3227 125.8953,129.2367 C 125.7241,124.6388 126.5516,120.0559 128.6774,115.4939 C 127.8206,120.8594 129.2065,126.0298 131.2062,128.5716 C 130.5002,131.4006 130.6419,134.9121 131.6452,137.0873 C 133.7142,141.5734 137.2709,138.8514 136.5345,134.824 C 135.8756,139.7142 133.9496,139.5264 132.5811,137.5344 C 130.6833,134.7718 131.4103,127.1594 133.8274,124.3771 C 132.5841,125.021 131.7179,126.5886 131.2317,128.473 C 129.6557,124.3288 129.0244,119.8369 129.6397,114.8857 C 129.7527,114.7213 129.8658,114.5569 129.9789,114.3925 C 130.1942,114.9935 130.4331,116.0397 130.6137,116.5063 C 131.0108,117.5328 131.292,117.8452 131.8775,118.357 C 132.752,119.1215 134.2726,120.2531 136.1253,121.8817 L 137.0687,120.3816 C 136.642,119.019 135.8116,117.2214 135.3812,116.2155 C 135.6479,110.5147 135.1088,106.8018 134.2034,103.9926 L 135.4808,102.1234 C 135.6646,103.5548 136.2379,105.0484 136.7685,106.6818 C 138.5163,112.0609 137.7625,119.0613 138.2079,120.4167 L 140.0724,120.3705 C 140.5961,118.2297 141.675,113.1412 146.5009,107.0436 C 149.5451,103.1972 151.159,95.1797 147.028,84.5858 C 148.8209,81.645 152.127,71.4253 148.9478,66.7974 C 147.9776,65.385 146.4033,64.4934 143.9975,64.4884 C 140.8062,64.4822 139.2241,66.2236 139.1086,69.5313 C 139.0227,71.9923 139.3288,74.8786 139.4298,78.0273 C 139.5806,82.7248 132.5875,82.6167 134.3381,76.9484 L 133.5466,75.8983 C 130.1728,75.6259 129.7339,77.971 129.5518,80.2461 C 129.1736,84.969 123.5692,86.9077 122.0738,80.6505 C 122.8096,81.2256 124.9376,80.7368 125.2919,80.6772 C 122.929,79.9742 121.5541,78.1232 121.5519,76.297 C 122.6551,76.7132 123.621,76.4691 124.2814,76.365 C 121.3287,74.0803 121.9261,71.2057 122.0232,70.1984 C 122.7126,71.2547 123.4693,71.6379 124.0447,71.8337 C 122.5237,69.1887 123.5559,65.9166 123.9104,65.364 C 124.2442,66.0944 125.091,66.977 125.7127,67.4701 C 125.7127,65.6344 125.6532,63.9748 127.061,62.5669 C 127.4764,63.3258 127.9646,64.0845 128.5593,64.8431 C 129.0708,62.8548 131.1765,58.7126 135.1938,56.6329 C 141.6092,53.3115 148.7626,53.0892 154.4548,57.7804 C 159.3197,61.7899 160.6633,69.0809 160.4907,75.5667 C 160.2431,84.866 156.6048,93.8786 153.4419,100.7862 C 150.1423,107.9925 146.8128,112.665 143.2849,117.9656 C 147.6177,113.5396 150.2779,109.3537 150.6053,108.8388 C 152.0563,106.4922 152.8245,105.2842 155.4637,104.3381 C 160.7336,102.4489 165.2395,99.327 167.4426,93.8045 L 167.4426,93.8045 z M 154.418,181.5125 C 152.7841,181.6919 150.7474,181.5799 148.4929,180.9541 C 149.8387,178.1477 150.2084,175.3969 149.6575,173.2773 C 150.4273,173.8411 150.199,174.4747 150.3897,175.2428 C 151.0418,177.8711 152.7453,179.7111 154.418,181.5125 z M 139.09,181.0996 C 136.9765,181.4913 134.6095,181.7249 132.7607,181.4095 C 134.5095,179.4638 136.3773,177.5304 137.0342,174.7152 C 137.2213,173.9137 136.9572,173.2642 137.8347,172.6714 C 137.8718,172.6463 137.9083,172.6206 137.9443,172.5945 C 137.1163,174.8336 137.4765,177.9474 139.09,181.0996 L 139.09,181.0996 z "
   style="fill:#ffffff" />
    <path
   id="_71494832"
   class="fil0"
   d="M 176.05,65.1447 C 179.6671,71.5648 182.0582,81.3074 179.5773,86.4997 C 178.9201,87.875 178.1341,88.495 177.3455,88.5935 C 180.1552,93.5701 178.546,99.8277 175.588,100.0835 C 175.5462,100.0871 175.505,100.0894 175.4639,100.0917 C 178.3784,104.7791 180.9141,105.0535 182.5744,102.5742 C 183.5596,101.1028 184.0403,97.1636 183.7068,91.7952 C 183.5159,88.7237 183.2312,85.1859 182.36,81.4869 C 184.8626,86.2417 184.8606,92.2812 185.0104,96.9351 C 185.0415,97.9028 185.0015,99.0357 184.827,100.1768 C 188.9149,139.1633 178.8862,163.0571 174.9059,168.6135 C 183.5476,150.3763 186.2565,125.9013 184.0326,103.048 C 183.4768,104.3158 182.6375,105.3922 181.3976,105.9883 C 180.1248,106.6 178.2009,106.3428 177.1473,104.0531 C 177.4911,105.7503 177.3663,107.3323 176.9408,108.6223 C 177.6351,128.0684 176.5013,142.3436 167.3686,161.147 C 174.2836,144.3219 176.705,127.3088 175.7731,110.7207 C 175.2713,111.281 174.6826,111.657 174.058,111.7939 C 172.7492,112.0808 171.2196,111.2833 170.3115,109.2476 C 170.4749,111.4366 170.0209,113.2257 169.2509,114.4703 C 169.8858,126.5126 167.0057,140.9244 163.5297,148.1023 C 168.3276,130.2397 168.0526,124.2905 168.24,115.6545 C 165.7799,117.6938 162.0223,115.8514 161.875,107.7131 C 162.9885,112.7923 164.525,115.2244 166.6766,114.7172 C 169.331,114.0914 169.6853,110.3692 169.3124,105.1466 C 169.7083,107.1638 172.2551,110.4308 174.2077,109.755 C 177.0464,108.7723 175.8254,101.9114 175.4548,100.0922 C 171.9393,100.2852 171.1286,95.8608 171.3294,93.6704 C 171.8528,95.9033 172.975,98.8531 174.8508,98.644 C 178.966,98.1851 177.7987,90.7574 177.2279,88.6048 C 175.1452,88.7291 173.0859,85.2881 173.3631,82.5395 C 173.8252,83.9959 175.1195,87.7549 177.2446,87.0528 C 179.284,86.3791 179.3365,83.2645 179.392,79.6595 C 179.4871,73.4854 176.2587,66.291 176.05,65.1447 L 176.05,65.1447 z M 163.5306,172.4047 C 163.8197,172.4331 164.2983,172.51 164.7325,172.6748 C 165.9087,173.121 165.6063,174.0099 165.2545,174.9578 C 165.1524,175.2328 165.0611,175.5264 165.0017,175.9571 C 164.7858,175.7442 164.6537,175.3387 164.6514,175.0018 C 163.7797,175.008 163.3357,174.696 163.1773,174.3337 C 162.8952,173.6891 163.7013,173.1758 163.5306,172.4047 L 163.5306,172.4047 z M 139.5078,122.8771 C 139.0787,123.6158 137.7823,126.2087 137.1241,128.1308 C 136.4372,130.1363 136.9451,132.659 139.6512,132.8602 C 142.2434,133.053 142.9628,129.8704 142.2446,128.168 C 141.6272,126.7051 140.5889,124.1723 139.5078,122.8771 L 139.5078,122.8771 z M 143.9071,131.7947 C 143.4781,132.5334 142.1817,135.1263 141.5234,137.0483 C 140.8365,139.0539 141.3444,141.5765 144.0506,141.7778 C 146.6428,141.9706 147.3622,138.788 146.6439,137.0856 C 146.0266,135.6227 144.9882,133.0899 143.9071,131.7947 L 143.9071,131.7947 z M 140.6175,143.2885 C 140.1885,144.0272 138.8921,146.62 138.2338,148.5421 C 137.5469,150.5476 138.0548,153.0703 140.761,153.2716 C 143.3532,153.4643 144.0726,150.2818 143.3543,148.5794 C 142.737,147.1165 141.6986,144.5837 140.6175,143.2885 z M 123.8538,172.0608 C 123.565,172.0933 123.0876,172.1768 122.6558,172.3477 C 121.4858,172.8103 121.8007,173.6949 122.1656,174.6378 C 122.2715,174.9113 122.367,175.2036 122.4324,175.6334 C 122.6453,175.4176 122.7717,175.0103 122.7694,174.6734 C 123.6411,174.6674 124.0806,174.3492 124.234,173.9847 C 124.507,173.3362 123.6939,172.8342 123.8538,172.0608 L 123.8538,172.0608 z M 149.93,134.8426 C 150.9265,135.6317 152.9045,138.8902 153.0524,142.5068 C 155.2045,143.1695 156.2145,142.1448 156.7595,140.4848 C 158.5377,135.0692 155.9332,130.4536 155.0423,126.6626 C 154.4663,127.604 153.6812,128.0896 152.9561,128.1452 C 151.142,128.284 149.2263,125.6964 149.5665,122.8607 C 150.3148,126.1272 151.5637,127.3802 152.6946,127.406 C 154.8134,127.4543 156.2111,123.4355 154.9523,118.0938 C 156.3447,122.1873 156.0144,124.9696 155.1078,126.552 C 155.8966,128.0143 157.0165,130.4449 157.6466,132.7459 C 158.5569,136.0705 158.4455,139.7985 157.3659,142.0033 C 156.5038,143.7638 155.2313,144.5628 153.0542,142.5528 C 153.1413,144.9376 152.4294,147.4741 150.1111,149.5579 C 154.0313,143.7596 151.7379,138.2378 149.93,134.8426 L 149.93,134.8426 z M 116.6117,114.888 C 116.1399,127.5578 119.5034,141.3986 123.037,148.0063 C 117.7247,130.427 117.4727,124.3109 117.6363,115.8516 C 120.1102,117.4656 123.6061,115.3747 123.7609,107.513 C 122.5379,112.6546 121.0996,114.973 119.0206,114.5588 C 116.1711,113.991 115.7223,110.3152 116.2004,105.0125 C 115.8221,107.033 113.405,110.3213 111.4464,109.6624 C 108.6272,108.714 109.4147,102.4616 109.7723,100.5733 C 109.8631,100.6026 109.9551,100.6261 110.0481,100.6419 C 111.816,100.9414 113.6706,99.5616 114.5496,94.5411 C 113.7406,96.8805 112.2471,99.2492 110.7509,99.1121 C 106.4349,98.7165 107.9988,90.0962 108.4258,88.5119 C 110.852,89.6001 112.6485,85.5889 112.3709,82.4776 C 111.9215,83.9379 111.0193,87.9825 108.8881,87.2989 C 106.8428,86.643 106.2439,83.0579 106.1569,79.4535 C 106.0078,73.2804 109.3337,66.2549 109.5323,65.1068 C 105.6225,71.7953 103.3748,82.0475 106.5903,86.7658 C 107.2183,87.6871 107.8303,88.2389 108.407,88.5035 C 105.6096,93.518 107.1871,99.6877 109.7403,100.5621 C 106.6791,104.8752 104.4357,104.8092 102.9171,102.6231 C 101.9067,101.1687 101.3021,97.1255 101.5888,91.7544 C 101.7529,88.6812 102.2089,85.1731 103.0477,81.4666 C 100.3636,86.2451 100.3283,92.5881 100.5349,97.2403 C 100.5969,98.6379 100.6931,100.3808 101.1134,101.9598 C 98.8306,141.4246 108.1762,165.2107 111.5175,169.806 C 103.5676,151.7721 100.8798,126.9253 102.1269,104.2989 C 102.6357,105.0431 103.3143,105.6322 104.224,105.9586 C 105.4614,106.4027 107.2708,106.1183 108.3566,104.021 C 108.131,105.1866 108.1342,106.2931 108.3059,107.286 C 107.69,126.3729 109.3495,142.7332 118.6548,161.5825 C 111.622,144.1576 108.4888,126.2458 109.2687,109.8695 C 109.8931,110.8545 110.728,111.5139 111.6139,111.7001 C 112.9252,111.9756 114.3479,111.3001 115.2382,109.2566 C 115.0614,111.7173 115.6604,113.66 116.6117,114.888 L 116.6117,114.888 z "
   style="fill:#0a0b0c" />
    <path
   id="_71494760"
   class="fil1"
   d="M 146.556,82.5647 C 144.5804,78.6317 144.2033,73.389 144.2032,69.9497 C 144.2031,65.4594 148.5105,64.6887 149.0447,69.9262 C 149.3535,72.9535 148.9868,78.2119 146.556,82.5647 L 146.556,82.5647 z M 139.5528,124.1485 C 139.2329,124.743 138.2663,126.8293 137.7755,128.3758 C 137.2634,129.9896 137.6421,132.0195 139.6597,132.1814 C 141.5924,132.3366 142.1287,129.7757 141.5932,128.4059 C 141.1329,127.2288 140.3588,125.1908 139.5528,124.1485 z M 143.9521,133.0661 C 143.6322,133.6606 142.6657,135.7469 142.1749,137.2934 C 141.6627,138.9072 142.0414,140.9371 144.0591,141.099 C 145.9917,141.2541 146.5281,138.6933 145.9925,137.3235 C 145.5323,136.1463 144.7581,134.1083 143.9521,133.0661 L 143.9521,133.0661 z M 140.6625,144.5599 C 140.3426,145.1543 139.3761,147.2407 138.8853,148.7872 C 138.3731,150.4009 138.7518,152.4308 140.7695,152.5927 C 142.7021,152.7479 143.2385,150.1871 142.7029,148.8172 C 142.2427,147.6401 141.4685,145.6021 140.6625,144.5599 z M 118.0771,146.9674 C 119.1041,150.1232 120.675,153.1794 121.9561,156.243 C 121.9561,152.706 123.9536,150.9242 127.4906,152.6927 C 126.9188,151.4686 126.6231,150.1123 126.461,148.7078 C 124.1531,154.2868 119.1614,149.9095 118.0771,146.9674 z M 159.6966,148.6799 C 159.4253,149.9149 159.1072,151.1498 158.6861,152.385 C 160.7294,150.5684 164.6255,152.7522 164.4415,156.3141 C 165.6812,153.3552 166.804,150.338 167.894,147.3045 C 166.7966,149.6525 164.6327,152.1921 162.1189,151.5632 C 160.8969,151.2575 160.0004,150.5297 159.6966,148.6799 L 159.6966,148.6799 z M 160.7915,126.7284 C 160.9909,131.4559 160.9837,136.1318 160.8055,140.7651 C 162.3294,136.1405 163.3809,130.9963 163.9602,125.3328 C 163.2865,126.1749 162.1389,126.8968 160.7915,126.7284 L 160.7915,126.7284 z M 121.7508,124.9265 C 122.4856,131.0935 123.5986,136.745 125.321,141.5659 C 124.8967,136.5639 124.7129,131.5619 124.9171,126.5601 C 123.6307,126.8114 122.1886,126.1061 121.7508,124.9265 z M 136.0922,85.3431 C 132.7035,89.157 133.2813,98.3714 133.9662,103.2222 C 134.5649,102.4738 134.6328,102.2267 135.3064,101.5532 C 134.864,96.5511 135.0221,91.0537 136.0922,85.3431 L 136.0922,85.3431 z "
   style="fill:#fa4025" />
   </g>
   <g
   id="g19">
    <path
   id="_71494664"
   class="fil0"
   d="M 53.5003,42.6388 C 56.2369,42.6388 58.4688,44.8707 58.4688,47.6073 C 58.4688,49.1614 57.7485,50.5522 56.6254,51.4645 L 79.8038,84.6209 C 79.7982,84.525 79.7954,84.4282 79.7954,84.331 C 79.7954,81.5944 82.0274,79.3624 84.7639,79.3624 C 87.5005,79.3624 89.7325,81.5944 89.7325,84.331 C 89.7325,85.8843 89.0129,87.2746 87.8904,88.1869 L 90.8001,88.1869 L 90.8001,206.9219 L 18.7549,206.9219 L 18.7549,88.1869 L 19.5204,88.1869 C 18.398,87.2746 17.6784,85.8843 17.6784,84.331 C 17.6784,81.5944 19.9103,79.3624 22.6469,79.3624 C 25.3681,79.3624 27.5899,81.5694 27.6149,84.2848 L 50.3596,51.4519 C 49.2452,50.5395 48.5318,49.1542 48.5318,47.6073 C 48.5318,44.8707 50.7637,42.6388 53.5003,42.6388 L 53.5003,42.6388 z "
   style="fill:#0a0b0c" />
    <path
   id="_71494592"
   class="fil2"
   d="M 19.6251,93.2875 L 27.2864,93.2875 L 27.2864,101.2324 L 19.6251,101.2324 L 19.6251,93.2875 z M 26.2042,88.1869 L 34.3487,76.389 C 34.4777,81.9559 39.1286,83.1664 41.9856,80.5619 L 39.3258,88.1869 L 26.2042,88.1869 z M 35.0879,75.3183 L 39.4599,68.985 C 39.6092,72.1623 43.0714,72.8849 45.2009,71.3446 L 42.6227,78.7358 C 39.6753,82.2005 34.92,81.5996 35.0879,75.3183 z M 40.104,68.052 L 40.694,67.1973 L 44.1329,62.2157 C 44.9477,64.5124 47.1458,63.5428 48.1925,62.7684 L 45.7538,69.7596 C 43.8441,72.0575 40.4605,71.831 40.104,68.052 L 40.104,68.052 z M 44.6084,61.527 L 51.1845,52.001 C 51.3968,52.1134 51.618,52.2111 51.847,52.2923 L 48.6196,61.5443 C 48.6147,61.5491 48.6096,61.554 48.6047,61.5588 C 47.664,62.4809 45.3355,63.9474 44.648,61.6687 C 44.6342,61.6228 44.6209,61.5759 44.6084,61.527 z M 52.4688,52.4681 C 52.7204,52.5215 52.979,52.5559 53.243,52.5694 L 53.243,62.5035 C 52.2334,64.1509 50.1516,64.1041 49.2283,61.7576 L 52.4688,52.4681 z M 53.243,63.5184 L 53.243,69.9792 C 51.8411,73.0269 47.5398,75.1581 46.4949,69.5933 L 48.9239,62.6302 C 49.8772,64.8703 52.1553,64.8442 53.243,63.5184 L 53.243,63.5184 z M 53.243,71.637 L 53.243,78.8513 C 51.6479,83.0943 45.5815,85.9064 43.7139,77.5656 L 45.9824,71.0625 C 47.6918,75.6966 51.8819,74.0685 53.243,71.637 L 53.243,71.637 z M 53.243,80.8187 L 53.243,88.1869 L 40.0089,88.1869 L 43.197,79.0477 C 44.4676,85.3249 51.2765,85.1161 53.243,80.8187 z M 53.8881,52.5609 C 54.1093,52.5437 54.3265,52.512 54.5389,52.4665 L 57.9549,62.2594 C 57.3878,63.7372 55.6412,64.5999 53.8881,62.207 L 53.8881,52.5609 L 53.8881,52.5609 z M 58.2371,63.0683 L 60.5168,69.6038 C 59.8003,73.5694 55.5868,74.6914 53.8881,69.6499 L 53.8881,63.387 C 55.6846,65.3398 57.5981,64.2992 58.2371,63.0683 L 58.2371,63.0683 z M 60.9759,70.9199 L 63.41,77.8978 C 62.8641,83.4111 56.3801,85.5285 53.8881,78.402 L 53.8881,71.6909 C 55.7755,75.3767 60.223,74.0866 60.9759,70.9199 z M 63.8991,79.3003 L 66.9991,88.1869 L 53.8881,88.1869 L 53.8881,80.4415 C 55.9351,85.5996 63.2127,84.4676 63.8991,79.3003 L 63.8991,79.3003 z M 55.1604,52.2898 C 55.3834,52.2103 55.5993,52.115 55.8065,52.0058 L 62.0048,60.8488 C 61.9755,60.9688 61.9392,61.0824 61.8969,61.1895 C 61.3592,62.5529 59.8138,62.8553 58.4955,61.8507 L 55.1604,52.2898 L 55.1604,52.2898 z M 62.4638,61.5037 L 67.1405,68.1759 C 66.5151,71.5313 63.2071,72.2315 61.2059,69.6207 L 58.8547,62.8806 C 60.3804,63.6486 62.1276,62.922 62.4638,61.5037 L 62.4638,61.5037 z M 67.7087,68.9865 L 72.0451,75.1732 C 72.1605,80.3107 67.2724,82.1375 63.8777,77.2802 L 61.7244,71.1071 C 64.0891,73.1396 67.0773,72.1015 67.7087,68.9865 z M 72.802,76.2531 L 81.1667,88.1869 L 67.6822,88.1869 L 64.6154,79.3951 C 67.6908,82.7775 72.7992,80.7577 72.802,76.2531 L 72.802,76.2531 z M 72.9577,205.3911 L 72.9577,199.4035 L 67.5852,199.4035 L 67.5995,205.3911 L 72.9577,205.3911 z M 72.9577,198.3448 L 72.9577,192.8109 L 67.5695,192.8109 L 67.5827,198.3448 L 72.9577,198.3448 z M 72.9577,191.7522 L 72.9577,185.9295 L 67.5531,185.9295 L 67.567,191.7522 L 72.9577,191.7522 z M 72.9577,184.8708 L 72.9577,179.8597 C 72.8851,179.3026 72.7941,178.76 72.6856,178.2313 L 67.3831,179.1651 C 67.4443,179.4835 67.4964,179.809 67.5393,180.142 L 67.5506,184.8708 L 72.9577,184.8708 L 72.9577,184.8708 z M 72.4471,177.1983 C 71.7736,174.5779 70.6591,172.3312 69.2478,170.4609 L 65.2188,173.9204 C 66.0532,175.1167 66.7194,176.521 67.1473,178.1317 L 72.4471,177.1983 L 72.4471,177.1983 z M 68.5851,169.6342 C 66.7474,167.4804 64.4957,165.8936 62.0961,164.8798 L 59.8634,169.6334 C 61.6095,170.3403 63.2514,171.4897 64.5754,173.0771 L 68.5851,169.6342 z M 61.1062,164.4971 C 59.3127,163.8656 57.4586,163.5442 55.6499,163.537 C 53.9341,163.5302 52.0612,163.8435 50.215,164.4829 L 52.463,169.2691 C 53.5516,168.9441 54.6401,168.7844 55.6496,168.7884 C 56.7121,168.7927 57.7976,168.9568 58.8603,169.2788 L 61.1062,164.4971 L 61.1062,164.4971 z M 49.2226,164.8599 C 46.8094,165.8579 44.5006,167.4267 42.7172,169.5831 L 46.7342,173.0323 C 48.0181,171.4451 49.7051,170.3116 51.4573,169.6179 L 49.2226,164.8599 L 49.2226,164.8599 z M 42.0708,170.4235 C 40.6936,172.353 39.7221,174.6964 39.4037,177.4641 L 44.5026,178.3622 C 44.7162,176.6327 45.2938,175.1442 46.1096,173.8913 L 42.0708,170.4235 z M 39.3153,178.5235 C 39.2924,178.9591 39.285,179.4044 39.2945,179.8597 L 39.2945,184.8708 L 44.4141,184.8708 L 44.4141,180.142 C 44.409,179.898 44.411,179.6583 44.4193,179.4225 L 39.3153,178.5235 L 39.3153,178.5235 z M 39.2945,185.9295 L 39.2945,191.7522 L 44.4141,191.7522 L 44.4141,185.9295 L 39.2945,185.9295 z M 39.2945,192.8109 L 39.2945,198.3448 L 44.4141,198.3448 L 44.4141,192.8109 L 39.2945,192.8109 z M 39.2945,199.4035 L 39.2945,205.3911 L 44.4141,205.3911 L 44.4141,199.4035 L 39.2945,199.4035 L 39.2945,199.4035 z M 19.6251,153.8441 L 25.9402,153.8441 L 25.9402,161.9832 L 19.6251,161.9832 L 19.6251,153.8441 z M 26.6133,153.8441 L 45.0671,153.8441 L 45.0671,161.9832 L 38.7752,161.9832 C 38.5192,159.484 36.3977,157.5232 33.8328,157.5232 C 31.2678,157.5232 29.1462,159.484 28.8901,161.9832 L 26.6133,161.9832 L 26.6133,153.8441 L 26.6133,153.8441 z M 45.7402,153.8441 L 65.4384,153.8441 L 65.4384,161.9832 L 45.7402,161.9832 L 45.7402,153.8441 z M 66.1115,153.8441 L 83.9504,153.8441 L 83.9504,161.9832 L 80.0179,161.9832 C 79.7618,159.484 77.6404,157.5232 75.0754,157.5232 C 72.5104,157.5232 70.3888,159.484 70.1328,161.9832 L 66.1115,161.9832 L 66.1115,153.8441 z M 84.6235,153.8441 L 89.371,153.8441 L 89.371,161.9832 L 84.6235,161.9832 L 84.6235,153.8441 z M 89.371,162.6564 L 89.371,170.6328 L 79.0625,170.6328 L 79.0625,165.4499 C 79.6477,164.6637 80.0065,163.7 80.0408,162.6564 L 89.371,162.6564 L 89.371,162.6564 z M 78.3893,170.6328 L 70.6702,170.6328 C 67.4584,165.7281 62.2953,163.038 56.8974,162.6564 L 70.1098,162.6564 C 70.1972,165.3172 72.394,167.4603 75.0754,167.4603 C 76.3469,167.4603 77.5091,166.978 78.3893,166.1874 L 78.3893,170.6328 z M 89.371,171.3059 L 89.371,179.2262 L 84.6235,179.2262 L 84.6235,171.3059 L 89.371,171.3059 z M 83.9504,179.2262 L 73.7577,179.2262 C 73.3486,176.1713 72.4117,173.5291 71.0901,171.3059 L 83.9504,171.3059 L 83.9504,179.2262 z M 89.371,179.8994 L 89.371,187.7635 L 79.0625,187.7635 L 79.0625,179.8994 L 89.371,179.8994 z M 78.3893,187.7635 L 73.8132,187.7635 L 73.8076,179.8994 L 78.3893,179.8994 L 78.3893,187.7635 z M 89.371,188.4366 L 89.371,196.3008 L 84.6235,196.3008 L 84.6235,188.4366 L 89.371,188.4366 z M 83.9504,196.3008 L 73.8192,196.3008 L 73.8136,188.4366 L 83.9504,188.4366 L 83.9504,196.3008 L 83.9504,196.3008 z M 89.371,196.9739 L 89.371,205.3911 L 79.0625,205.3911 L 79.0625,196.9739 L 89.371,196.9739 z M 78.3893,205.3911 L 73.8257,205.3911 L 73.8197,196.9739 L 78.3893,196.9739 L 78.3893,205.3911 z M 54.3114,162.6564 C 49.3475,163.0289 43.8602,165.6131 40.8092,170.6328 L 32.2631,170.6328 L 32.2631,167.2054 C 32.7568,167.3706 33.2848,167.4603 33.8328,167.4603 C 36.5142,167.4603 38.7108,165.3172 38.7982,162.6564 L 54.3114,162.6564 L 54.3114,162.6564 z M 31.59,170.6328 L 19.6251,170.6328 L 19.6251,162.6564 L 28.8672,162.6564 C 28.9283,164.5173 30.0211,166.1247 31.59,166.9231 L 31.59,170.6328 z M 40.423,171.3059 C 39.2314,173.5077 38.494,176.1421 38.4312,179.2262 L 26.6133,179.2262 L 26.6133,171.3059 L 40.423,171.3059 z M 25.9402,179.2262 L 19.6251,179.2262 L 19.6251,171.3059 L 25.9402,171.3059 L 25.9402,179.2262 z M 38.4269,179.8994 L 38.4269,187.7635 L 32.2631,187.7635 L 32.2631,179.8994 L 38.4269,179.8994 z M 31.59,187.7635 L 19.6251,187.7635 L 19.6251,179.8994 L 31.59,179.8994 L 31.59,187.7635 z M 38.4269,188.4366 L 38.4269,196.3008 L 26.6133,196.3008 L 26.6133,188.4366 L 38.4269,188.4366 z M 25.9402,196.3008 L 19.6251,196.3008 L 19.6251,188.4366 L 25.9402,188.4366 L 25.9402,196.3008 z M 38.4269,196.9739 L 38.4269,205.3911 L 32.2631,205.3911 L 32.2631,196.9739 L 38.4269,196.9739 z M 31.59,205.3911 L 19.6251,205.3911 L 19.6251,196.9739 L 31.59,196.9739 L 31.59,205.3911 z M 28.1316,123.458 L 39.661,123.458 L 39.661,148.797 L 28.1316,148.797 L 28.1316,123.458 L 28.1316,123.458 z M 69.3743,123.458 L 80.9036,123.458 L 80.9036,148.797 L 69.3743,148.797 L 69.3743,123.458 z M 19.6251,123.458 L 27.0532,123.458 L 27.0532,131.4668 L 19.6251,131.4668 L 19.6251,123.458 z M 27.0532,132.1399 L 27.0532,140.0833 L 19.6251,140.0833 L 19.6251,132.1399 L 27.0532,132.1399 z M 27.0532,140.7564 L 27.0532,148.797 L 19.6251,148.797 L 19.6251,140.7564 L 27.0532,140.7564 z M 40.7394,123.458 L 53.7833,123.458 L 53.7833,131.4668 L 40.7394,131.4668 L 40.7394,123.458 L 40.7394,123.458 z M 54.4564,123.458 L 68.2958,123.458 L 68.2958,131.4668 L 54.4564,131.4668 L 54.4564,123.458 L 54.4564,123.458 z M 68.2958,132.1399 L 68.2958,140.0833 L 60.6385,140.0833 L 60.6385,132.1399 L 68.2958,132.1399 z M 59.9654,140.0833 L 48.018,140.0833 L 48.018,132.1399 L 59.9654,132.1399 L 59.9654,140.0833 z M 47.3449,140.0833 L 40.7394,140.0833 L 40.7394,132.1399 L 47.3449,132.1399 L 47.3449,140.0833 z M 68.2958,140.7564 L 68.2958,148.797 L 54.4564,148.797 L 54.4564,140.7564 L 68.2958,140.7564 z M 53.7833,148.797 L 40.7394,148.797 L 40.7394,140.7564 L 53.7833,140.7564 L 53.7833,148.797 z M 81.9821,123.458 L 89.371,123.458 L 89.371,131.4668 L 81.9821,131.4668 L 81.9821,123.458 z M 89.371,132.1399 L 89.371,140.0833 L 81.9821,140.0833 L 81.9821,132.1399 L 89.371,132.1399 z M 89.371,140.7564 L 89.371,148.797 L 81.9821,148.797 L 81.9821,140.7564 L 89.371,140.7564 z M 19.6251,119.7356 L 89.371,119.7356 L 89.371,122.2904 L 19.6251,122.2904 L 19.6251,119.7356 z M 19.6251,150.1436 L 89.371,150.1436 L 89.371,152.6983 L 19.6251,152.6983 L 19.6251,150.1436 z M 22.6469,80.6045 C 24.6994,80.6045 26.3733,82.2784 26.3733,84.3309 C 26.3733,86.3833 24.6994,88.0572 22.6469,88.0572 C 20.5945,88.0572 18.9205,86.3833 18.9205,84.3309 C 18.9205,82.2784 20.5945,80.6045 22.6469,80.6045 z M 84.7639,80.6045 C 86.8164,80.6045 88.4903,82.2784 88.4903,84.3309 C 88.4903,86.3833 86.8164,88.0572 84.7639,88.0572 C 82.7115,88.0572 81.0376,86.3833 81.0376,84.3309 C 81.0376,82.2784 82.7115,80.6045 84.7639,80.6045 z M 53.5003,43.6324 C 55.6895,43.6324 57.4751,45.418 57.4751,47.6072 C 57.4751,49.7964 55.6895,51.582 53.5003,51.582 C 51.3111,51.582 49.5255,49.7964 49.5255,47.6072 C 49.5255,45.418 51.3111,43.6324 53.5003,43.6324 z M 19.6251,89.5064 L 89.371,89.5064 L 89.371,92.0612 L 19.6251,92.0612 L 19.6251,89.5064 L 19.6251,89.5064 z M 59.6821,118.5786 L 47.9364,118.5786 L 47.9364,93.2874 L 59.6821,93.2874 L 59.6821,118.5786 z M 27.9595,93.2874 L 39.514,93.2874 L 39.514,101.2323 L 27.9595,101.2323 L 27.9595,93.2874 L 27.9595,93.2874 z M 40.1871,93.2874 L 47.1286,93.2874 L 47.1286,101.2323 L 40.1871,101.2323 L 40.1871,93.2874 z M 60.4898,93.2874 L 68.501,93.2874 L 68.501,101.2323 L 60.4898,101.2323 L 60.4898,93.2874 z M 69.1741,93.2874 L 81.0897,93.2874 L 81.0897,101.2323 L 69.1741,101.2323 L 69.1741,93.2874 z M 81.7628,93.2874 L 89.371,93.2874 L 89.371,101.2323 L 81.7628,101.2323 L 81.7628,93.2874 z M 89.371,101.9054 L 89.371,109.7532 L 79.852,109.7532 C 79.9768,109.3188 80.0439,108.8606 80.0439,108.3872 C 80.0439,105.8117 78.0668,103.6835 75.553,103.4417 L 75.553,101.9054 L 89.371,101.9054 L 89.371,101.9054 z M 70.2983,109.7532 L 60.4898,109.7532 L 60.4898,101.9054 L 74.8799,101.9054 L 74.8799,103.4228 C 72.2333,103.526 70.1069,105.7161 70.1069,108.3872 C 70.1069,108.8606 70.1736,109.3188 70.2983,109.7532 L 70.2983,109.7532 z M 47.1286,109.7532 L 38.6094,109.7532 C 38.7341,109.3188 38.8013,108.8606 38.8013,108.3872 C 38.8013,105.7313 36.6989,103.5508 34.0733,103.4245 L 34.0733,101.9054 L 47.1286,101.9054 L 47.1286,109.7532 L 47.1286,109.7532 z M 29.0557,109.7532 L 19.6251,109.7532 L 19.6251,101.9054 L 33.4002,101.9054 L 33.4002,103.4376 C 30.8648,103.658 28.8642,105.7963 28.8642,108.3872 C 28.8642,108.8606 28.931,109.3188 29.0557,109.7532 z M 89.371,110.4263 L 89.371,118.5786 L 81.7628,118.5786 L 81.7628,110.4263 L 89.371,110.4263 z M 81.0897,118.5786 L 69.1741,118.5786 L 69.1741,110.4263 L 70.5459,110.4263 C 71.3267,112.1508 73.0649,113.3557 75.0754,113.3557 C 77.0859,113.3557 78.8239,112.1508 79.6046,110.4263 L 81.0897,110.4263 L 81.0897,118.5786 z M 68.501,118.5786 L 60.4898,118.5786 L 60.4898,110.4263 L 68.501,110.4263 L 68.501,118.5786 z M 47.1286,118.5786 L 40.1871,118.5786 L 40.1871,110.4263 L 47.1286,110.4263 L 47.1286,118.5786 z M 39.514,118.5786 L 27.9595,118.5786 L 27.9595,110.4263 L 29.3032,110.4263 C 30.084,112.1508 31.8222,113.3557 33.8328,113.3557 C 35.8433,113.3557 37.5813,112.1508 38.362,110.4263 L 39.514,110.4263 L 39.514,118.5786 L 39.514,118.5786 z M 27.2864,118.5786 L 19.6251,118.5786 L 19.6251,110.4263 L 27.2864,110.4263 L 27.2864,118.5786 z "
   style="fill:#ffffff" />
    <path
   id="_71494520"
   class="fil0"
   d="M 30.1864,125.634 L 37.6951,125.634 L 37.6951,146.7111 L 30.1864,146.7111 L 30.1864,125.634 L 30.1864,125.634 z M 50.0519,95.5715 L 57.5608,95.5715 L 57.5608,116.2769 L 50.0519,116.2769 L 50.0519,95.5715 z M 71.429,125.634 L 78.9377,125.634 L 78.9377,146.7111 L 71.429,146.7111 L 71.429,125.634 L 71.429,125.634 z "
   style="fill:#0a0b0c" />
   </g>
  </g>
 </g>
</svg>