<!-- Created with Inkscape (http://www.inkscape.org/) -->
<svg
   xmlns="http://www.w3.org/2000/svg"
   id="svg4394"
   version="1.0"><title>Herb Olszyna</title>
  <defs
     id="defs4396" />
  <sodipodi:namedview
     id="base"
     pagecolor="#ffffff"
     bordercolor="#666666"
     borderopacity="1.0" />
  <metadata
     id="metadata4399">
    <rdf:RDF>
      <cc:Work
         rdf:about="">
        <dc:format>image/svg+xml</dc:format>
        <dc:type
           rdf:resource="http://purl.org/dc/dcmitype/StillImage" />
      </cc:Work>
    </rdf:RDF>
  </metadata>
  <g
     id="layer1"
     transform="translate(25.64099,-17.93424)">
    <g
       id="g4231"
       transform="translate(-791.62189,282.36623)">
      <g
         id="g3751">
        <g
           id="g3725"
           transform="translate(788.13016,0)">
          <path
             id="path3723"
             d="M 713.42923,-11.717985 L 713.42923,250.21191 L 715.71026,249.78329 L 349.23986,248.9544 L 349.23986,-12.011103 L 713.42923,-11.717985 z "
             style="fill:#fefffb;fill-opacity:1;fill-rule:nonzero;stroke:none;stroke-width:3.54330707;stroke-linecap:round;stroke-linejoin:round;stroke-miterlimit:4;stroke-dasharray:none;stroke-dashoffset:0;stroke-opacity:1" />
          <path
             id="path3721"
             d="M 349.99346,667.65556 C 463.79894,614.40109 710.58613,571.42351 713.42923,362.52715 L 713.42923,250.21191 L 349.23986,248.9544 L 349.99346,667.65556 z "
             style="fill:#00ff01;fill-opacity:1;fill-rule:nonzero;stroke:none;stroke-width:3.54330707;stroke-linecap:round;stroke-linejoin:round;stroke-miterlimit:4;stroke-dasharray:none;stroke-dashoffset:0;stroke-opacity:1" />
          <path
             id="path2738"
             d="M 349.97627,-259.11703 L 713.42923,-259.11703 L 713.42923,-11.717985 L 349.23986,-11.182208 L 349.97627,-259.11703 z "
             style="fill:#fe0000;fill-opacity:1;fill-rule:nonzero;stroke:none;stroke-width:3.54330707;stroke-linecap:round;stroke-linejoin:round;stroke-miterlimit:4;stroke-dasharray:none;stroke-dashoffset:0;stroke-opacity:1" />
        </g>
        <g
           id="g3742"
           transform="translate(786.95315,0)">
          <path
             style="fill:#feb269;fill-opacity:1;fill-rule:nonzero;stroke:none;stroke-width:3.54330707;stroke-linecap:round;stroke-linejoin:round;stroke-miterlimit:4;stroke-dasharray:none;stroke-dashoffset:0;stroke-opacity:1"
             d="M 350.74706,667.68037 C 234.09663,616.76294 -18.437226,556.08053 -18.651453,362.52715 L -18.651453,-259.11703 L 352.47627,-259.11703 L 350.74706,667.68037 z "
             id="path3349" />
          <rect
             y="-259.987"
             x="34.424118"
             height="762.55066"
             width="13.648287"
             id="rect3730"
             style="opacity:1;fill:#cf7336;fill-opacity:1;fill-rule:nonzero;stroke:none;stroke-width:10.62992096;stroke-linecap:round;stroke-linejoin:miter;stroke-miterlimit:4;stroke-dasharray:none;stroke-dashoffset:0;stroke-opacity:1" />
          <rect
             style="opacity:1;fill:#ce7437;fill-opacity:1;fill-rule:nonzero;stroke:none;stroke-width:10.62992096;stroke-linecap:round;stroke-linejoin:miter;stroke-miterlimit:4;stroke-dasharray:none;stroke-dashoffset:0;stroke-opacity:1"
             id="rect3732"
             width="15.319337"
             height="811.81128"
             x="89.424118"
             y="-259.987" />
          <rect
             y="-259.987"
             x="145.55563"
             height="841.49011"
             width="15.319337"
             id="rect3734"
             style="opacity:1;fill:#ce7437;fill-opacity:1;fill-rule:nonzero;stroke:none;stroke-width:10.62992096;stroke-linecap:round;stroke-linejoin:miter;stroke-miterlimit:4;stroke-dasharray:none;stroke-dashoffset:0;stroke-opacity:1" />
          <rect
             style="opacity:1;fill:#ce7437;fill-opacity:1;fill-rule:nonzero;stroke:none;stroke-width:10.62992096;stroke-linecap:round;stroke-linejoin:miter;stroke-miterlimit:4;stroke-dasharray:none;stroke-dashoffset:0;stroke-opacity:1"
             id="rect3736"
             width="15.319337"
             height="867.82684"
             x="201.71346"
             y="-259.987" />
          <rect
             y="-259.987"
             x="256.18707"
             height="889.55048"
             width="15.319337"
             id="rect3738"
             style="opacity:1;fill:#ce7437;fill-opacity:1;fill-rule:nonzero;stroke:none;stroke-width:10.62992096;stroke-linecap:round;stroke-linejoin:miter;stroke-miterlimit:4;stroke-dasharray:none;stroke-dashoffset:0;stroke-opacity:1" />
          <rect
             style="opacity:1;fill:#ce7437;fill-opacity:1;fill-rule:nonzero;stroke:none;stroke-width:10.62992096;stroke-linecap:round;stroke-linejoin:miter;stroke-miterlimit:4;stroke-dasharray:none;stroke-dashoffset:0;stroke-opacity:1"
             id="rect3740"
             width="15.319337"
             height="909.60309"
             x="310.33176"
             y="-259.987" />
        </g>
        <path
           d="M 1140.6943,667.68037 C 1024.0439,616.76294 771.51008,556.08053 771.29586,362.52715 L 771.29586,-259.11703 L 1503.3765,-259.11703 L 1503.3765,362.52715 C 1500.5334,571.42351 1254.4998,614.4259 1140.6943,667.68037 z "
           style="fill:none;fill-opacity:1;fill-rule:nonzero;stroke:#fe0000;stroke-width:10.62992096;stroke-linecap:round;stroke-linejoin:round;stroke-miterlimit:4;stroke-dasharray:none;stroke-dashoffset:0;stroke-opacity:1"
           id="path2740" />
      </g>
      <g
         transform="translate(785.03526,0)"
         id="g4087">
        <g
           id="g3837"
           transform="matrix(1.0580227,0,0,1.0287064,-34.543288,-5.3033242)">
          <path
             id="path3833"
             d="M 558.4385,176.76826 C 578.18164,147.79392 605.73405,139.26149 642.15827,153.95232 C 620.51443,167.13217 620.68525,199.72946 558.4385,176.76826 z "
             style="fill:#0c7e1b;fill-opacity:1;fill-rule:evenodd;stroke:none;stroke-width:1px;stroke-linecap:butt;stroke-linejoin:miter;stroke-opacity:1" />
          <path
             id="path3835"
             d="M 557.8865,177.32026 L 581.07043,169.04028 C 582.88897,164.07229 586.95895,159.10431 590.45441,154.13632 C 587.65798,159.01838 584.12354,164.02344 582.72643,168.67228 L 596.89439,163.5203 C 598.99182,158.92031 602.59295,154.32032 606.46237,149.72033 C 603.72999,154.13632 600.47096,158.55231 598.91839,162.9683 L 609.40636,160.2083 C 611.5861,156.16192 615.04219,152.96644 619.52633,150.45633 C 616.06772,153.50966 611.77447,156.63554 611.0381,159.93634 C 617.90741,157.92236 625.35298,156.80569 632.2223,155.79232 L 616.67838,159.91209 C 619.4715,161.20475 622.81632,161.95509 626.86206,162.49617 C 622.7223,162.05091 618.38402,162.10199 614.71809,160.47217 L 605.54237,162.7843 C 608.94293,164.30364 614.57361,166.02909 620.26233,167.20029 C 613.35482,166.66889 608.2938,165.07546 602.78238,163.3363 L 591.19041,166.83229 C 596.6086,169.45918 605.05659,170.57117 612.90235,171.98427 C 603.89783,171.21529 595.29856,170.18841 589.07748,167.64815 L 578.15878,171.52023 C 584.98478,174.78495 592.86146,176.64876 600.39038,178.97625 C 592.13569,176.90168 583.47847,175.63217 575.91845,172.16827 L 558.4385,178.42425 L 557.8865,177.32026 z "
             style="fill:#52f355;fill-opacity:1;fill-rule:evenodd;stroke:none;stroke-width:1px;stroke-linecap:butt;stroke-linejoin:miter;stroke-opacity:1" />
        </g>
        <g
           id="g3841"
           transform="matrix(0.9677651,0,0,0.9282341,44.061671,-39.441555)">
          <path
             style="fill:#0c7e1b;fill-opacity:1;fill-rule:evenodd;stroke:none;stroke-width:1px;stroke-linecap:butt;stroke-linejoin:miter;stroke-opacity:1"
             d="M 558.4385,176.76826 C 578.18164,147.79392 605.73405,139.26149 642.15827,153.95232 C 620.51443,167.13217 620.68525,199.72946 558.4385,176.76826 z "
             id="path3843" />
          <path
             style="fill:#52f355;fill-opacity:1;fill-rule:evenodd;stroke:none;stroke-width:1px;stroke-linecap:butt;stroke-linejoin:miter;stroke-opacity:1"
             d="M 557.8865,177.32026 L 581.07043,169.04028 C 582.88897,164.07229 586.95895,159.10431 590.45441,154.13632 C 587.65798,159.01838 584.12354,164.02344 582.72643,168.67228 L 596.89439,163.5203 C 598.99182,158.92031 602.59295,154.32032 606.46237,149.72033 C 603.72999,154.13632 600.47096,158.55231 598.91839,162.9683 L 609.40636,160.2083 C 611.5861,156.16192 615.04219,152.96644 619.52633,150.45633 C 616.06772,153.50966 611.77447,156.63554 611.0381,159.93634 C 617.90741,157.92236 625.35298,156.80569 632.2223,155.79232 L 616.67838,159.91209 C 619.4715,161.20475 622.81632,161.95509 626.86206,162.49617 C 622.7223,162.05091 618.38402,162.10199 614.71809,160.47217 L 605.54237,162.7843 C 608.94293,164.30364 614.57361,166.02909 620.26233,167.20029 C 613.35482,166.66889 608.2938,165.07546 602.78238,163.3363 L 591.19041,166.83229 C 596.6086,169.45918 605.05659,170.57117 612.90235,171.98427 C 603.89783,171.21529 595.29856,170.18841 589.07748,167.64815 L 578.15878,171.52023 C 584.98478,174.78495 592.86146,176.64876 600.39038,178.97625 C 592.13569,176.90168 583.47847,175.63217 575.91845,172.16827 L 558.4385,178.42425 L 557.8865,177.32026 z "
             id="path3845" />
        </g>
        <g
           transform="matrix(0.807761,-8.7667843e-2,8.4086834e-2,0.7747658,126.32515,-6.794514)"
           id="g3847">
          <path
             id="path3849"
             d="M 558.4385,176.76826 C 578.18164,147.79392 605.73405,139.26149 642.15827,153.95232 C 620.51443,167.13217 620.68525,199.72946 558.4385,176.76826 z "
             style="fill:#0c7e1b;fill-opacity:1;fill-rule:evenodd;stroke:none;stroke-width:1px;stroke-linecap:butt;stroke-linejoin:miter;stroke-opacity:1" />
          <path
             id="path3851"
             d="M 557.8865,177.32026 L 581.07043,169.04028 C 582.88897,164.07229 586.95895,159.10431 590.45441,154.13632 C 587.65798,159.01838 584.12354,164.02344 582.72643,168.67228 L 596.89439,163.5203 C 598.99182,158.92031 602.59295,154.32032 606.46237,149.72033 C 603.72999,154.13632 600.47096,158.55231 598.91839,162.9683 L 609.40636,160.2083 C 611.5861,156.16192 615.04219,152.96644 619.52633,150.45633 C 616.06772,153.50966 611.77447,156.63554 611.0381,159.93634 C 617.90741,157.92236 625.35298,156.80569 632.2223,155.79232 L 616.67838,159.91209 C 619.4715,161.20475 622.81632,161.95509 626.86206,162.49617 C 622.7223,162.05091 618.38402,162.10199 614.71809,160.47217 L 605.54237,162.7843 C 608.94293,164.30364 614.57361,166.02909 620.26233,167.20029 C 613.35482,166.66889 608.2938,165.07546 602.78238,163.3363 L 591.19041,166.83229 C 596.6086,169.45918 605.05659,170.57117 612.90235,171.98427 C 603.89783,171.21529 595.29856,170.18841 589.07748,167.64815 L 578.15878,171.52023 C 584.98478,174.78495 592.86146,176.64876 600.39038,178.97625 C 592.13569,176.90168 583.47847,175.63217 575.91845,172.16827 L 558.4385,178.42425 L 557.8865,177.32026 z "
             style="fill:#52f355;fill-opacity:1;fill-rule:evenodd;stroke:none;stroke-width:1px;stroke-linecap:butt;stroke-linejoin:miter;stroke-opacity:1" />
        </g>
        <g
           id="g3853"
           transform="matrix(0.2660749,-1.0613606,-0.9014918,-0.1220779,593.86115,690.5414)">
          <path
             style="fill:#0c7e1b;fill-opacity:1;fill-rule:evenodd;stroke:none;stroke-width:1px;stroke-linecap:butt;stroke-linejoin:miter;stroke-opacity:1"
             d="M 558.4385,176.76826 C 578.18164,147.79392 605.73405,139.26149 642.15827,153.95232 C 620.51443,167.13217 620.68525,199.72946 558.4385,176.76826 z "
             id="path3855" />
          <path
             style="fill:#52f355;fill-opacity:1;fill-rule:evenodd;stroke:none;stroke-width:1px;stroke-linecap:butt;stroke-linejoin:miter;stroke-opacity:1"
             d="M 557.8865,177.32026 L 581.07043,169.04028 C 582.88897,164.07229 586.95895,159.10431 590.45441,154.13632 C 587.65798,159.01838 584.12354,164.02344 582.72643,168.67228 L 596.89439,163.5203 C 598.99182,158.92031 602.59295,154.32032 606.46237,149.72033 C 603.72999,154.13632 600.47096,158.55231 598.91839,162.9683 L 609.40636,160.2083 C 611.5861,156.16192 615.04219,152.96644 619.52633,150.45633 C 616.06772,153.50966 611.77447,156.63554 611.0381,159.93634 C 617.90741,157.92236 625.35298,156.80569 632.2223,155.79232 L 616.67838,159.91209 C 619.4715,161.20475 622.81632,161.95509 626.86206,162.49617 C 622.7223,162.05091 618.38402,162.10199 614.71809,160.47217 L 605.54237,162.7843 C 608.94293,164.30364 614.57361,166.02909 620.26233,167.20029 C 613.35482,166.66889 608.2938,165.07546 602.78238,163.3363 L 591.19041,166.83229 C 596.6086,169.45918 605.05659,170.57117 612.90235,171.98427 C 603.89783,171.21529 595.29856,170.18841 589.07748,167.64815 L 578.15878,171.52023 C 584.98478,174.78495 592.86146,176.64876 600.39038,178.97625 C 592.13569,176.90168 583.47847,175.63217 575.91845,172.16827 L 558.4385,178.42425 L 557.8865,177.32026 z "
             id="path3857" />
        </g>
        <g
           transform="matrix(-0.103877,-0.9838845,-0.8150495,0.1752553,759.92082,589.58583)"
           id="g3859">
          <path
             id="path3861"
             d="M 558.4385,176.76826 C 578.18164,147.79392 605.73405,139.26149 642.15827,153.95232 C 620.51443,167.13217 620.68525,199.72946 558.4385,176.76826 z "
             style="fill:#0c7e1b;fill-opacity:1;fill-rule:evenodd;stroke:none;stroke-width:1px;stroke-linecap:butt;stroke-linejoin:miter;stroke-opacity:1" />
          <path
             id="path3863"
             d="M 557.8865,177.32026 L 581.07043,169.04028 C 582.88897,164.07229 586.95895,159.10431 590.45441,154.13632 C 587.65798,159.01838 584.12354,164.02344 582.72643,168.67228 L 596.89439,163.5203 C 598.99182,158.92031 602.59295,154.32032 606.46237,149.72033 C 603.72999,154.13632 600.47096,158.55231 598.91839,162.9683 L 609.40636,160.2083 C 611.5861,156.16192 615.04219,152.96644 619.52633,150.45633 C 616.06772,153.50966 611.77447,156.63554 611.0381,159.93634 C 617.90741,157.92236 625.35298,156.80569 632.2223,155.79232 L 616.67838,159.91209 C 619.4715,161.20475 622.81632,161.95509 626.86206,162.49617 C 622.7223,162.05091 618.38402,162.10199 614.71809,160.47217 L 605.54237,162.7843 C 608.94293,164.30364 614.57361,166.02909 620.26233,167.20029 C 613.35482,166.66889 608.2938,165.07546 602.78238,163.3363 L 591.19041,166.83229 C 596.6086,169.45918 605.05659,170.57117 612.90235,171.98427 C 603.89783,171.21529 595.29856,170.18841 589.07748,167.64815 L 578.15878,171.52023 C 584.98478,174.78495 592.86146,176.64876 600.39038,178.97625 C 592.13569,176.90168 583.47847,175.63217 575.91845,172.16827 L 558.4385,178.42425 L 557.8865,177.32026 z "
             style="fill:#52f355;fill-opacity:1;fill-rule:evenodd;stroke:none;stroke-width:1px;stroke-linecap:butt;stroke-linejoin:miter;stroke-opacity:1" />
        </g>
        <g
           id="g3871"
           transform="matrix(-0.6248483,-0.5759475,-0.54307,0.6096447,857.65101,401.76267)">
          <path
             style="fill:#0c7e1b;fill-opacity:1;fill-rule:evenodd;stroke:none;stroke-width:1px;stroke-linecap:butt;stroke-linejoin:miter;stroke-opacity:1"
             d="M 558.4385,176.76826 C 578.18164,147.79392 605.73405,139.26149 642.15827,153.95232 C 620.51443,167.13217 620.68525,199.72946 558.4385,176.76826 z "
             id="path3873" />
          <path
             style="fill:#52f355;fill-opacity:1;fill-rule:evenodd;stroke:none;stroke-width:1px;stroke-linecap:butt;stroke-linejoin:miter;stroke-opacity:1"
             d="M 548.33769,177.54523 C 551.85761,177.56764 555.27944,177.78121 559.30783,176.81264 L 581.07043,169.04028 C 582.88897,164.07229 586.95895,159.10431 590.45441,154.13632 C 587.65798,159.01838 584.12354,164.02344 582.72643,168.67228 L 596.89439,163.5203 C 598.99182,158.92031 602.59295,154.32032 606.46237,149.72033 C 603.72999,154.13632 600.47096,158.55231 598.91839,162.9683 L 609.40636,160.2083 C 611.5861,156.16192 615.04219,152.96644 619.52633,150.45633 C 616.06772,153.50966 611.77447,156.63554 611.0381,159.93634 C 617.90741,157.92236 625.35298,156.80569 632.2223,155.79232 L 616.67838,159.91209 C 619.4715,161.20475 622.81632,161.95509 626.86206,162.49617 C 622.7223,162.05091 618.38402,162.10199 614.71809,160.47217 L 605.54237,162.7843 C 608.94293,164.30364 614.57361,166.02909 620.26233,167.20029 C 613.35482,166.66889 608.2938,165.07546 602.78238,163.3363 L 591.19041,166.83229 C 596.6086,169.45918 605.05659,170.57117 612.90235,171.98427 C 603.89783,171.21529 595.29856,170.18841 589.07748,167.64815 L 578.15878,171.52023 C 584.98478,174.78495 592.86146,176.64876 600.39038,178.97625 C 592.13569,176.90168 583.47847,175.63217 575.91845,172.16827 L 559.81963,177.92995 C 554.99673,179.4307 551.45988,178.9474 547.664,178.86373 L 548.33769,177.54523 z "
             id="path3875" />
        </g>
        <g
           id="g3883"
           transform="matrix(-0.3220164,-0.6473951,0.6490995,-0.2596154,513.38013,514.60429)">
          <path
             style="fill:#0c7e1b;fill-opacity:1;fill-rule:evenodd;stroke:none;stroke-width:1px;stroke-linecap:butt;stroke-linejoin:miter;stroke-opacity:1"
             d="M 558.4385,176.76826 C 578.18164,147.79392 605.73405,139.26149 642.15827,153.95232 C 620.51443,167.13217 620.68525,199.72946 558.4385,176.76826 z "
             id="path3885" />
          <path
             style="fill:#52f355;fill-opacity:1;fill-rule:evenodd;stroke:none;stroke-width:1px;stroke-linecap:butt;stroke-linejoin:miter;stroke-opacity:1"
             d="M 548.33769,177.54523 C 551.85761,177.56764 555.27944,177.78121 559.30783,176.81264 L 581.07043,169.04028 C 582.88897,164.07229 586.95895,159.10431 590.45441,154.13632 C 587.65798,159.01838 584.12354,164.02344 582.72643,168.67228 L 596.89439,163.5203 C 598.99182,158.92031 602.59295,154.32032 606.46237,149.72033 C 603.72999,154.13632 600.47096,158.55231 598.91839,162.9683 L 609.40636,160.2083 C 611.5861,156.16192 615.04219,152.96644 619.52633,150.45633 C 616.06772,153.50966 611.77447,156.63554 611.0381,159.93634 C 617.90741,157.92236 625.35298,156.80569 632.2223,155.79232 L 616.67838,159.91209 C 619.4715,161.20475 622.81632,161.95509 626.86206,162.49617 C 622.7223,162.05091 618.38402,162.10199 614.71809,160.47217 L 605.54237,162.7843 C 608.94293,164.30364 614.57361,166.02909 620.26233,167.20029 C 613.35482,166.66889 608.2938,165.07546 602.78238,163.3363 L 591.19041,166.83229 C 596.6086,169.45918 605.05659,170.57117 612.90235,171.98427 C 603.89783,171.21529 595.29856,170.18841 589.07748,167.64815 L 578.15878,171.52023 C 584.98478,174.78495 592.86146,176.64876 600.39038,178.97625 C 592.13569,176.90168 583.47847,175.63217 575.91845,172.16827 L 559.81963,177.92995 C 554.99673,179.4307 551.45988,178.9474 547.664,178.86373 L 548.33769,177.54523 z "
             id="path3887" />
        </g>
        <g
           transform="matrix(0.4695001,-0.5498951,0.4931494,0.4955139,76.493186,404.41119)"
           id="g3877">
          <path
             id="path3879"
             d="M 558.4385,176.76826 C 578.18164,147.79392 605.73405,139.26149 642.15827,153.95232 C 620.51443,167.13217 620.68525,199.72946 558.4385,176.76826 z "
             style="fill:#0c7e1b;fill-opacity:1;fill-rule:evenodd;stroke:none;stroke-width:1px;stroke-linecap:butt;stroke-linejoin:miter;stroke-opacity:1" />
          <path
             id="path3881"
             d="M 548.33769,177.54523 C 551.85761,177.56764 555.27944,177.78121 559.30783,176.81264 L 581.07043,169.04028 C 582.88897,164.07229 586.95895,159.10431 590.45441,154.13632 C 587.65798,159.01838 584.12354,164.02344 582.72643,168.67228 L 596.89439,163.5203 C 598.99182,158.92031 602.59295,154.32032 606.46237,149.72033 C 603.72999,154.13632 600.47096,158.55231 598.91839,162.9683 L 609.40636,160.2083 C 611.5861,156.16192 615.04219,152.96644 619.52633,150.45633 C 616.06772,153.50966 611.77447,156.63554 611.0381,159.93634 C 617.90741,157.92236 625.35298,156.80569 632.2223,155.79232 L 616.67838,159.91209 C 619.4715,161.20475 622.81632,161.95509 626.86206,162.49617 C 622.7223,162.05091 618.38402,162.10199 614.71809,160.47217 L 605.54237,162.7843 C 608.94293,164.30364 614.57361,166.02909 620.26233,167.20029 C 613.35482,166.66889 608.2938,165.07546 602.78238,163.3363 L 591.19041,166.83229 C 596.6086,169.45918 605.05659,170.57117 612.90235,171.98427 C 603.89783,171.21529 595.29856,170.18841 589.07748,167.64815 L 578.15878,171.52023 C 584.98478,174.78495 592.86146,176.64876 600.39038,178.97625 C 592.13569,176.90168 583.47847,175.63217 575.91845,172.16827 L 559.81963,177.92995 C 554.99673,179.4307 551.45988,178.9474 547.664,178.86373 L 548.33769,177.54523 z "
             style="fill:#52f355;fill-opacity:1;fill-rule:evenodd;stroke:none;stroke-width:1px;stroke-linecap:butt;stroke-linejoin:miter;stroke-opacity:1" />
        </g>
        <g
           transform="matrix(0.1631285,-0.7044176,0.666054,0.2123732,260.31946,455.94606)"
           id="g3889">
          <path
             id="path3891"
             d="M 558.4385,176.76826 C 578.18164,147.79392 605.73405,139.26149 642.15827,153.95232 C 620.51443,167.13217 620.68525,199.72946 558.4385,176.76826 z "
             style="fill:#0c7e1b;fill-opacity:1;fill-rule:evenodd;stroke:none;stroke-width:1px;stroke-linecap:butt;stroke-linejoin:miter;stroke-opacity:1" />
          <path
             id="path3893"
             d="M 548.33769,177.54523 C 551.85761,177.56764 555.27944,177.78121 559.30783,176.81264 L 581.07043,169.04028 C 582.88897,164.07229 586.95895,159.10431 590.45441,154.13632 C 587.65798,159.01838 584.12354,164.02344 582.72643,168.67228 L 596.89439,163.5203 C 598.99182,158.92031 602.59295,154.32032 606.46237,149.72033 C 603.72999,154.13632 600.47096,158.55231 598.91839,162.9683 L 609.40636,160.2083 C 611.5861,156.16192 615.04219,152.96644 619.52633,150.45633 C 616.06772,153.50966 611.77447,156.63554 611.0381,159.93634 C 617.90741,157.92236 625.35298,156.80569 632.2223,155.79232 L 616.67838,159.91209 C 619.4715,161.20475 622.81632,161.95509 626.86206,162.49617 C 622.7223,162.05091 618.38402,162.10199 614.71809,160.47217 L 605.54237,162.7843 C 608.94293,164.30364 614.57361,166.02909 620.26233,167.20029 C 613.35482,166.66889 608.2938,165.07546 602.78238,163.3363 L 591.19041,166.83229 C 596.6086,169.45918 605.05659,170.57117 612.90235,171.98427 C 603.89783,171.21529 595.29856,170.18841 589.07748,167.64815 L 578.15878,171.52023 C 584.98478,174.78495 592.86146,176.64876 600.39038,178.97625 C 592.13569,176.90168 583.47847,175.63217 575.91845,172.16827 L 559.81963,177.92995 C 554.99673,179.4307 551.45988,178.9474 547.664,178.86373 L 548.33769,177.54523 z "
             style="fill:#52f355;fill-opacity:1;fill-rule:evenodd;stroke:none;stroke-width:1px;stroke-linecap:butt;stroke-linejoin:miter;stroke-opacity:1" />
        </g>
        <g
           id="g3895"
           transform="matrix(-8.7560196e-2,-0.7101967,0.6269194,2.5413144e-2,357.572,536.14911)">
          <path
             style="fill:#0c7e1b;fill-opacity:1;fill-rule:evenodd;stroke:none;stroke-width:1px;stroke-linecap:butt;stroke-linejoin:miter;stroke-opacity:1"
             d="M 558.4385,176.76826 C 578.18164,147.79392 605.73405,139.26149 642.15827,153.95232 C 620.51443,167.13217 620.68525,199.72946 558.4385,176.76826 z "
             id="path3897" />
          <path
             style="fill:#52f355;fill-opacity:1;fill-rule:evenodd;stroke:none;stroke-width:1px;stroke-linecap:butt;stroke-linejoin:miter;stroke-opacity:1"
             d="M 548.33769,177.54523 C 551.85761,177.56764 555.27944,177.78121 559.30783,176.81264 L 581.07043,169.04028 C 582.88897,164.07229 586.95895,159.10431 590.45441,154.13632 C 587.65798,159.01838 584.12354,164.02344 582.72643,168.67228 L 596.89439,163.5203 C 598.99182,158.92031 602.59295,154.32032 606.46237,149.72033 C 603.72999,154.13632 600.47096,158.55231 598.91839,162.9683 L 609.40636,160.2083 C 611.5861,156.16192 615.04219,152.96644 619.52633,150.45633 C 616.06772,153.50966 611.77447,156.63554 611.0381,159.93634 C 617.90741,157.92236 625.35298,156.80569 632.2223,155.79232 L 616.67838,159.91209 C 619.4715,161.20475 622.81632,161.95509 626.86206,162.49617 C 622.7223,162.05091 618.38402,162.10199 614.71809,160.47217 L 605.54237,162.7843 C 608.94293,164.30364 614.57361,166.02909 620.26233,167.20029 C 613.35482,166.66889 608.2938,165.07546 602.78238,163.3363 L 591.19041,166.83229 C 596.6086,169.45918 605.05659,170.57117 612.90235,171.98427 C 603.89783,171.21529 595.29856,170.18841 589.07748,167.64815 L 578.15878,171.52023 C 584.98478,174.78495 592.86146,176.64876 600.39038,178.97625 C 592.13569,176.90168 583.47847,175.63217 575.91845,172.16827 L 559.81963,177.92995 C 554.99673,179.4307 551.45988,178.9474 547.664,178.86373 L 548.33769,177.54523 z "
             id="path3899" />
        </g>
        <g
           id="g3907"
           transform="matrix(7.0007871e-2,-0.7073934,-0.5575931,8.0000501e-2,578.15315,482.66617)">
          <path
             style="fill:#0c7e1b;fill-opacity:1;fill-rule:evenodd;stroke:none;stroke-width:1px;stroke-linecap:butt;stroke-linejoin:miter;stroke-opacity:1"
             d="M 558.4385,176.76826 C 578.18164,147.79392 605.73405,139.26149 642.15827,153.95232 C 620.51443,167.13217 620.68525,199.72946 558.4385,176.76826 z "
             id="path3909" />
          <path
             style="fill:#52f355;fill-opacity:1;fill-rule:evenodd;stroke:none;stroke-width:1px;stroke-linecap:butt;stroke-linejoin:miter;stroke-opacity:1"
             d="M 548.33769,177.54523 C 551.85761,177.56764 555.27944,177.78121 559.30783,176.81264 L 581.07043,169.04028 C 582.88897,164.07229 586.95895,159.10431 590.45441,154.13632 C 587.65798,159.01838 584.12354,164.02344 582.72643,168.67228 L 596.89439,163.5203 C 598.99182,158.92031 602.59295,154.32032 606.46237,149.72033 C 603.72999,154.13632 600.47096,158.55231 598.91839,162.9683 L 609.40636,160.2083 C 611.5861,156.16192 615.04219,152.96644 619.52633,150.45633 C 616.06772,153.50966 611.77447,156.63554 611.0381,159.93634 C 617.90741,157.92236 625.35298,156.80569 632.2223,155.79232 L 616.67838,159.91209 C 619.4715,161.20475 622.81632,161.95509 626.86206,162.49617 C 622.7223,162.05091 618.38402,162.10199 614.71809,160.47217 L 605.54237,162.7843 C 608.94293,164.30364 614.57361,166.02909 620.26233,167.20029 C 613.35482,166.66889 608.2938,165.07546 602.78238,163.3363 L 591.19041,166.83229 C 596.6086,169.45918 605.05659,170.57117 612.90235,171.98427 C 603.89783,171.21529 595.29856,170.18841 589.07748,167.64815 L 578.15878,171.52023 C 584.98478,174.78495 592.86146,176.64876 600.39038,178.97625 C 592.13569,176.90168 583.47847,175.63217 575.91845,172.16827 L 559.81963,177.92995 C 554.99673,179.4307 551.45988,178.9474 547.664,178.86373 L 548.33769,177.54523 z "
             id="path3911" />
        </g>
        <g
           transform="matrix(-0.3401763,-0.6295445,-0.4962094,0.3839922,787.72402,394.03385)"
           id="g3901">
          <path
             id="path3903"
             d="M 558.4385,176.76826 C 578.18164,147.79392 605.73405,139.26149 642.15827,153.95232 C 620.51443,167.13217 620.68525,199.72946 558.4385,176.76826 z "
             style="fill:#0c7e1b;fill-opacity:1;fill-rule:evenodd;stroke:none;stroke-width:1px;stroke-linecap:butt;stroke-linejoin:miter;stroke-opacity:1" />
          <path
             id="path3905"
             d="M 548.33769,177.54523 C 551.85761,177.56764 555.27944,177.78121 559.30783,176.81264 L 581.07043,169.04028 C 582.88897,164.07229 586.95895,159.10431 590.45441,154.13632 C 587.65798,159.01838 584.12354,164.02344 582.72643,168.67228 L 596.89439,163.5203 C 598.99182,158.92031 602.59295,154.32032 606.46237,149.72033 C 603.72999,154.13632 600.47096,158.55231 598.91839,162.9683 L 609.40636,160.2083 C 611.5861,156.16192 615.04219,152.96644 619.52633,150.45633 C 616.06772,153.50966 611.77447,156.63554 611.0381,159.93634 C 617.90741,157.92236 625.35298,156.80569 632.2223,155.79232 L 616.67838,159.91209 C 619.4715,161.20475 622.81632,161.95509 626.86206,162.49617 C 622.7223,162.05091 618.38402,162.10199 614.71809,160.47217 L 605.54237,162.7843 C 608.94293,164.30364 614.57361,166.02909 620.26233,167.20029 C 613.35482,166.66889 608.2938,165.07546 602.78238,163.3363 L 591.19041,166.83229 C 596.6086,169.45918 605.05659,170.57117 612.90235,171.98427 C 603.89783,171.21529 595.29856,170.18841 589.07748,167.64815 L 578.15878,171.52023 C 584.98478,174.78495 592.86146,176.64876 600.39038,178.97625 C 592.13569,176.90168 583.47847,175.63217 575.91845,172.16827 L 559.81963,177.92995 C 554.99673,179.4307 551.45988,178.9474 547.664,178.86373 L 548.33769,177.54523 z "
             style="fill:#52f355;fill-opacity:1;fill-rule:evenodd;stroke:none;stroke-width:1px;stroke-linecap:butt;stroke-linejoin:miter;stroke-opacity:1" />
        </g>
        <g
           transform="matrix(-1.073583,0.3327847,-0.2161429,-0.9970127,771.88597,107.4413)"
           id="g3913">
          <path
             id="path3915"
             d="M 558.4385,176.76826 C 578.18164,147.79392 605.73405,139.26149 642.15827,153.95232 C 620.51443,167.13217 620.68525,199.72946 558.4385,176.76826 z "
             style="fill:#0c7e1b;fill-opacity:1;fill-rule:evenodd;stroke:none;stroke-width:1px;stroke-linecap:butt;stroke-linejoin:miter;stroke-opacity:1" />
          <path
             id="path3917"
             d="M 554.73908,176.10994 C 557.04091,176.46305 559.99114,176.54119 562.02125,175.84356 L 581.07043,169.04028 C 582.88897,164.07229 586.95895,159.10431 590.45441,154.13632 C 587.65798,159.01838 584.12354,164.02344 582.72643,168.67228 L 596.89439,163.5203 C 598.99182,158.92031 602.59295,154.32032 606.46237,149.72033 C 603.72999,154.13632 600.47096,158.55231 598.91839,162.9683 L 609.40636,160.2083 C 611.5861,156.16192 615.04219,152.96644 619.52633,150.45633 C 616.06772,153.50966 611.77447,156.63554 611.0381,159.93634 C 617.90741,157.92236 625.35298,156.80569 632.2223,155.79232 L 616.67838,159.91209 C 619.4715,161.20475 622.81632,161.95509 626.86206,162.49617 C 622.7223,162.05091 618.38402,162.10199 614.71809,160.47217 L 605.54237,162.7843 C 608.94293,164.30364 614.57361,166.02909 620.26233,167.20029 C 613.35482,166.66889 608.2938,165.07546 602.78238,163.3363 L 591.19041,166.83229 C 596.6086,169.45918 605.05659,170.57117 612.90235,171.98427 C 603.89783,171.21529 595.29856,170.18841 589.07748,167.64815 L 578.15878,171.52023 C 584.98478,174.78495 592.86146,176.64876 600.39038,178.97625 C 592.13569,176.90168 583.47847,175.63217 575.91845,172.16827 L 562.47999,176.97782 C 560.19774,177.67169 556.80251,177.5023 554.72726,177.35227 L 554.73908,176.10994 z "
             style="fill:#52f355;fill-opacity:1;fill-rule:evenodd;stroke:none;stroke-width:1px;stroke-linecap:butt;stroke-linejoin:miter;stroke-opacity:1" />
        </g>
        <g
           id="g3919"
           transform="matrix(-0.8495028,0.3951199,-0.2901985,-0.7993199,677.24611,-28.337681)">
          <path
             style="fill:#0c7e1b;fill-opacity:1;fill-rule:evenodd;stroke:none;stroke-width:1px;stroke-linecap:butt;stroke-linejoin:miter;stroke-opacity:1"
             d="M 558.4385,176.76826 C 578.18164,147.79392 605.73405,139.26149 642.15827,153.95232 C 620.51443,167.13217 620.68525,199.72946 558.4385,176.76826 z "
             id="path3921" />
          <path
             style="fill:#52f355;fill-opacity:1;fill-rule:evenodd;stroke:none;stroke-width:1px;stroke-linecap:butt;stroke-linejoin:miter;stroke-opacity:1"
             d="M 554.73908,176.10994 C 557.04091,176.46305 559.99114,176.54119 562.02125,175.84356 L 581.07043,169.04028 C 582.88897,164.07229 586.95895,159.10431 590.45441,154.13632 C 587.65798,159.01838 584.12354,164.02344 582.72643,168.67228 L 596.89439,163.5203 C 598.99182,158.92031 602.59295,154.32032 606.46237,149.72033 C 603.72999,154.13632 600.47096,158.55231 598.91839,162.9683 L 609.40636,160.2083 C 611.5861,156.16192 615.04219,152.96644 619.52633,150.45633 C 616.06772,153.50966 611.77447,156.63554 611.0381,159.93634 C 617.90741,157.92236 625.35298,156.80569 632.2223,155.79232 L 616.67838,159.91209 C 619.4715,161.20475 622.81632,161.95509 626.86206,162.49617 C 622.7223,162.05091 618.38402,162.10199 614.71809,160.47217 L 605.54237,162.7843 C 608.94293,164.30364 614.57361,166.02909 620.26233,167.20029 C 613.35482,166.66889 608.2938,165.07546 602.78238,163.3363 L 591.19041,166.83229 C 596.6086,169.45918 605.05659,170.57117 612.90235,171.98427 C 603.89783,171.21529 595.29856,170.18841 589.07748,167.64815 L 578.15878,171.52023 C 584.98478,174.78495 592.86146,176.64876 600.39038,178.97625 C 592.13569,176.90168 583.47847,175.63217 575.91845,172.16827 L 562.47999,176.97782 C 560.19774,177.67169 556.80251,177.5023 554.72726,177.35227 L 554.73908,176.10994 z "
             id="path3923" />
        </g>
        <g
           transform="matrix(-0.9368957,-1.1197696e-3,7.2958022e-2,0.8472335,662.67673,-110.70517)"
           id="g3925">
          <path
             id="path3927"
             d="M 558.4385,176.76826 C 578.18164,147.79392 605.73405,139.26149 642.15827,153.95232 C 620.51443,167.13217 620.68525,199.72946 558.4385,176.76826 z "
             style="fill:#0c7e1b;fill-opacity:1;fill-rule:evenodd;stroke:none;stroke-width:1px;stroke-linecap:butt;stroke-linejoin:miter;stroke-opacity:1" />
          <path
             id="path3929"
             d="M 554.73908,176.10994 C 557.04091,176.46305 559.99114,176.54119 562.02125,175.84356 L 581.07043,169.04028 C 582.88897,164.07229 586.95895,159.10431 590.45441,154.13632 C 587.65798,159.01838 584.12354,164.02344 582.72643,168.67228 L 596.89439,163.5203 C 598.99182,158.92031 602.59295,154.32032 606.46237,149.72033 C 603.72999,154.13632 600.47096,158.55231 598.91839,162.9683 L 609.40636,160.2083 C 611.5861,156.16192 615.04219,152.96644 619.52633,150.45633 C 616.06772,153.50966 611.77447,156.63554 611.0381,159.93634 C 617.90741,157.92236 625.35298,156.80569 632.2223,155.79232 L 616.67838,159.91209 C 619.4715,161.20475 622.81632,161.95509 626.86206,162.49617 C 622.7223,162.05091 618.38402,162.10199 614.71809,160.47217 L 605.54237,162.7843 C 608.94293,164.30364 614.57361,166.02909 620.26233,167.20029 C 613.35482,166.66889 608.2938,165.07546 602.78238,163.3363 L 591.19041,166.83229 C 596.6086,169.45918 605.05659,170.57117 612.90235,171.98427 C 603.89783,171.21529 595.29856,170.18841 589.07748,167.64815 L 578.15878,171.52023 C 584.98478,174.78495 592.86146,176.64876 600.39038,178.97625 C 592.13569,176.90168 583.47847,175.63217 575.91845,172.16827 L 562.47999,176.97782 C 560.19774,177.67169 556.80251,177.5023 554.72726,177.35227 L 554.73908,176.10994 z "
             style="fill:#52f355;fill-opacity:1;fill-rule:evenodd;stroke:none;stroke-width:1px;stroke-linecap:butt;stroke-linejoin:miter;stroke-opacity:1" />
        </g>
        <g
           id="g3931"
           transform="matrix(-0.5984303,-0.781891,-0.510977,0.5328555,579.6479,366.37985)">
          <path
             style="fill:#0c7e1b;fill-opacity:1;fill-rule:evenodd;stroke:none;stroke-width:1px;stroke-linecap:butt;stroke-linejoin:miter;stroke-opacity:1"
             d="M 558.4385,176.76826 C 578.18164,147.79392 605.73405,139.26149 642.15827,153.95232 C 620.51443,167.13217 620.68525,199.72946 558.4385,176.76826 z "
             id="path3933" />
          <path
             style="fill:#52f355;fill-opacity:1;fill-rule:evenodd;stroke:none;stroke-width:1px;stroke-linecap:butt;stroke-linejoin:miter;stroke-opacity:1"
             d="M 554.73908,176.10994 C 557.04091,176.46305 559.99114,176.54119 562.02125,175.84356 L 581.07043,169.04028 C 582.88897,164.07229 586.95895,159.10431 590.45441,154.13632 C 587.65798,159.01838 584.12354,164.02344 582.72643,168.67228 L 596.89439,163.5203 C 598.99182,158.92031 602.59295,154.32032 606.46237,149.72033 C 603.72999,154.13632 600.47096,158.55231 598.91839,162.9683 L 609.40636,160.2083 C 611.5861,156.16192 615.04219,152.96644 619.52633,150.45633 C 616.06772,153.50966 611.77447,156.63554 611.0381,159.93634 C 617.90741,157.92236 625.35298,156.80569 632.2223,155.79232 L 616.67838,159.91209 C 619.4715,161.20475 622.81632,161.95509 626.86206,162.49617 C 622.7223,162.05091 618.38402,162.10199 614.71809,160.47217 L 605.54237,162.7843 C 608.94293,164.30364 614.57361,166.02909 620.26233,167.20029 C 613.35482,166.66889 608.2938,165.07546 602.78238,163.3363 L 591.19041,166.83229 C 596.6086,169.45918 605.05659,170.57117 612.90235,171.98427 C 603.89783,171.21529 595.29856,170.18841 589.07748,167.64815 L 578.15878,171.52023 C 584.98478,174.78495 592.86146,176.64876 600.39038,178.97625 C 592.13569,176.90168 583.47847,175.63217 575.91845,172.16827 L 562.47999,176.97782 C 560.19774,177.67169 556.80251,177.5023 554.72726,177.35227 L 554.73908,176.10994 z "
             id="path3935" />
        </g>
        <g
           id="g3943"
           transform="matrix(-0.4050173,0.5698112,-0.4869973,-0.3806345,468.29454,-35.460358)">
          <path
             style="fill:#0c7e1b;fill-opacity:1;fill-rule:evenodd;stroke:none;stroke-width:1px;stroke-linecap:butt;stroke-linejoin:miter;stroke-opacity:1"
             d="M 558.4385,176.76826 C 578.18164,147.79392 605.73405,139.26149 642.15827,153.95232 C 620.51443,167.13217 620.68525,199.72946 558.4385,176.76826 z "
             id="path3945" />
          <path
             style="fill:#52f355;fill-opacity:1;fill-rule:evenodd;stroke:none;stroke-width:1px;stroke-linecap:butt;stroke-linejoin:miter;stroke-opacity:1"
             d="M 548.33769,177.54523 C 551.85761,177.56764 555.27944,177.78121 559.30783,176.81264 L 581.07043,169.04028 C 582.88897,164.07229 586.95895,159.10431 590.45441,154.13632 C 587.65798,159.01838 584.12354,164.02344 582.72643,168.67228 L 596.89439,163.5203 C 598.99182,158.92031 602.59295,154.32032 606.46237,149.72033 C 603.72999,154.13632 600.47096,158.55231 598.91839,162.9683 L 609.40636,160.2083 C 611.5861,156.16192 615.04219,152.96644 619.52633,150.45633 C 616.06772,153.50966 611.77447,156.63554 611.0381,159.93634 C 617.90741,157.92236 625.35298,156.80569 632.2223,155.79232 L 616.67838,159.91209 C 619.4715,161.20475 622.81632,161.95509 626.86206,162.49617 C 622.7223,162.05091 618.38402,162.10199 614.71809,160.47217 L 605.54237,162.7843 C 608.94293,164.30364 614.57361,166.02909 620.26233,167.20029 C 613.35482,166.66889 608.2938,165.07546 602.78238,163.3363 L 591.19041,166.83229 C 596.6086,169.45918 605.05659,170.57117 612.90235,171.98427 C 603.89783,171.21529 595.29856,170.18841 589.07748,167.64815 L 578.15878,171.52023 C 584.98478,174.78495 592.86146,176.64876 600.39038,178.97625 C 592.13569,176.90168 583.47847,175.63217 575.91845,172.16827 L 559.81963,177.92995 C 554.99673,179.4307 551.45988,178.9474 547.664,178.86373 L 548.33769,177.54523 z "
             id="path3947" />
        </g>
        <g
           transform="matrix(-0.6092241,-0.3753561,0.4115343,-0.4736172,408.39429,514.275)"
           id="g3937">
          <path
             id="path3939"
             d="M 558.4385,176.76826 C 578.18164,147.79392 605.73405,139.26149 642.15827,153.95232 C 620.51443,167.13217 620.68525,199.72946 558.4385,176.76826 z "
             style="fill:#0c7e1b;fill-opacity:1;fill-rule:evenodd;stroke:none;stroke-width:1px;stroke-linecap:butt;stroke-linejoin:miter;stroke-opacity:1" />
          <path
             id="path3941"
             d="M 548.33769,177.54523 C 551.85761,177.56764 555.27944,177.78121 559.30783,176.81264 L 581.07043,169.04028 C 582.88897,164.07229 586.95895,159.10431 590.45441,154.13632 C 587.65798,159.01838 584.12354,164.02344 582.72643,168.67228 L 596.89439,163.5203 C 598.99182,158.92031 602.59295,154.32032 606.46237,149.72033 C 603.72999,154.13632 600.47096,158.55231 598.91839,162.9683 L 609.40636,160.2083 C 611.5861,156.16192 615.04219,152.96644 619.52633,150.45633 C 616.06772,153.50966 611.77447,156.63554 611.0381,159.93634 C 617.90741,157.92236 625.35298,156.80569 632.2223,155.79232 L 616.67838,159.91209 C 619.4715,161.20475 622.81632,161.95509 626.86206,162.49617 C 622.7223,162.05091 618.38402,162.10199 614.71809,160.47217 L 605.54237,162.7843 C 608.94293,164.30364 614.57361,166.02909 620.26233,167.20029 C 613.35482,166.66889 608.2938,165.07546 602.78238,163.3363 L 591.19041,166.83229 C 596.6086,169.45918 605.05659,170.57117 612.90235,171.98427 C 603.89783,171.21529 595.29856,170.18841 589.07748,167.64815 L 578.15878,171.52023 C 584.98478,174.78495 592.86146,176.64876 600.39038,178.97625 C 592.13569,176.90168 583.47847,175.63217 575.91845,172.16827 L 559.81963,177.92995 C 554.99673,179.4307 551.45988,178.9474 547.664,178.86373 L 548.33769,177.54523 z "
             style="fill:#52f355;fill-opacity:1;fill-rule:evenodd;stroke:none;stroke-width:1px;stroke-linecap:butt;stroke-linejoin:miter;stroke-opacity:1" />
        </g>
        <g
           transform="matrix(-0.5897996,0.1811774,-0.2047379,-0.5886534,599.23901,142.83462)"
           id="g3949">
          <path
             id="path3951"
             d="M 558.4385,176.76826 C 578.18164,147.79392 605.73405,139.26149 642.15827,153.95232 C 620.51443,167.13217 620.68525,199.72946 558.4385,176.76826 z "
             style="fill:#0c7e1b;fill-opacity:1;fill-rule:evenodd;stroke:none;stroke-width:1px;stroke-linecap:butt;stroke-linejoin:miter;stroke-opacity:1" />
          <path
             id="path3953"
             d="M 548.33769,177.54523 C 551.85761,177.56764 555.27944,177.78121 559.30783,176.81264 L 581.07043,169.04028 C 582.88897,164.07229 586.95895,159.10431 590.45441,154.13632 C 587.65798,159.01838 584.12354,164.02344 582.72643,168.67228 L 596.89439,163.5203 C 598.99182,158.92031 602.59295,154.32032 606.46237,149.72033 C 603.72999,154.13632 600.47096,158.55231 598.91839,162.9683 L 609.40636,160.2083 C 611.5861,156.16192 615.04219,152.96644 619.52633,150.45633 C 616.06772,153.50966 611.77447,156.63554 611.0381,159.93634 C 617.90741,157.92236 625.35298,156.80569 632.2223,155.79232 L 616.67838,159.91209 C 619.4715,161.20475 622.81632,161.95509 626.86206,162.49617 C 622.7223,162.05091 618.38402,162.10199 614.71809,160.47217 L 605.54237,162.7843 C 608.94293,164.30364 614.57361,166.02909 620.26233,167.20029 C 613.35482,166.66889 608.2938,165.07546 602.78238,163.3363 L 591.19041,166.83229 C 596.6086,169.45918 605.05659,170.57117 612.90235,171.98427 C 603.89783,171.21529 595.29856,170.18841 589.07748,167.64815 L 578.15878,171.52023 C 584.98478,174.78495 592.86146,176.64876 600.39038,178.97625 C 592.13569,176.90168 583.47847,175.63217 575.91845,172.16827 L 559.81963,177.92995 C 554.99673,179.4307 551.45988,178.9474 547.664,178.86373 L 548.33769,177.54523 z "
             style="fill:#52f355;fill-opacity:1;fill-rule:evenodd;stroke:none;stroke-width:1px;stroke-linecap:butt;stroke-linejoin:miter;stroke-opacity:1" />
        </g>
        <g
           id="g3955"
           transform="matrix(-0.5667299,-0.211218,-0.1035661,0.4518185,567.75358,173.53026)">
          <path
             style="fill:#0c7e1b;fill-opacity:1;fill-rule:evenodd;stroke:none;stroke-width:1px;stroke-linecap:butt;stroke-linejoin:miter;stroke-opacity:1"
             d="M 558.4385,176.76826 C 578.18164,147.79392 605.73405,139.26149 642.15827,153.95232 C 620.51443,167.13217 620.68525,199.72946 558.4385,176.76826 z "
             id="path3957" />
          <path
             style="fill:#52f355;fill-opacity:1;fill-rule:evenodd;stroke:none;stroke-width:1px;stroke-linecap:butt;stroke-linejoin:miter;stroke-opacity:1"
             d="M 548.33769,177.54523 C 551.85761,177.56764 555.27944,177.78121 559.30783,176.81264 L 581.07043,169.04028 C 582.88897,164.07229 586.95895,159.10431 590.45441,154.13632 C 587.65798,159.01838 584.12354,164.02344 582.72643,168.67228 L 596.89439,163.5203 C 598.99182,158.92031 602.59295,154.32032 606.46237,149.72033 C 603.72999,154.13632 600.47096,158.55231 598.91839,162.9683 L 609.40636,160.2083 C 611.5861,156.16192 615.04219,152.96644 619.52633,150.45633 C 616.06772,153.50966 611.77447,156.63554 611.0381,159.93634 C 617.90741,157.92236 625.35298,156.80569 632.2223,155.79232 L 616.67838,159.91209 C 619.4715,161.20475 622.81632,161.95509 626.86206,162.49617 C 622.7223,162.05091 618.38402,162.10199 614.71809,160.47217 L 605.54237,162.7843 C 608.94293,164.30364 614.57361,166.02909 620.26233,167.20029 C 613.35482,166.66889 608.2938,165.07546 602.78238,163.3363 L 591.19041,166.83229 C 596.6086,169.45918 605.05659,170.57117 612.90235,171.98427 C 603.89783,171.21529 595.29856,170.18841 589.07748,167.64815 L 578.15878,171.52023 C 584.98478,174.78495 592.86146,176.64876 600.39038,178.97625 C 592.13569,176.90168 583.47847,175.63217 575.91845,172.16827 L 559.81963,177.92995 C 554.99673,179.4307 551.45988,178.9474 547.664,178.86373 L 548.33769,177.54523 z "
             id="path3959" />
        </g>
        <g
           id="g3961"
           transform="matrix(0.6688511,-8.5313618e-2,0.1078596,0.6966951,-107.66791,37.220526)">
          <path
             style="fill:#0c7e1b;fill-opacity:1;fill-rule:evenodd;stroke:none;stroke-width:1px;stroke-linecap:butt;stroke-linejoin:miter;stroke-opacity:1"
             d="M 558.4385,176.76826 C 578.18164,147.79392 605.73405,139.26149 642.15827,153.95232 C 620.51443,167.13217 620.68525,199.72946 558.4385,176.76826 z "
             id="path3963" />
          <path
             style="fill:#52f355;fill-opacity:1;fill-rule:evenodd;stroke:none;stroke-width:1px;stroke-linecap:butt;stroke-linejoin:miter;stroke-opacity:1"
             d="M 548.33769,177.54523 C 551.85761,177.56764 555.27944,177.78121 559.30783,176.81264 L 581.07043,169.04028 C 582.88897,164.07229 586.95895,159.10431 590.45441,154.13632 C 587.65798,159.01838 584.12354,164.02344 582.72643,168.67228 L 596.89439,163.5203 C 598.99182,158.92031 602.59295,154.32032 606.46237,149.72033 C 603.72999,154.13632 600.47096,158.55231 598.91839,162.9683 L 609.40636,160.2083 C 611.5861,156.16192 615.04219,152.96644 619.52633,150.45633 C 616.06772,153.50966 611.77447,156.63554 611.0381,159.93634 C 617.90741,157.92236 625.35298,156.80569 632.2223,155.79232 L 616.67838,159.91209 C 619.4715,161.20475 622.81632,161.95509 626.86206,162.49617 C 622.7223,162.05091 618.38402,162.10199 614.71809,160.47217 L 605.54237,162.7843 C 608.94293,164.30364 614.57361,166.02909 620.26233,167.20029 C 613.35482,166.66889 608.2938,165.07546 602.78238,163.3363 L 591.19041,166.83229 C 596.6086,169.45918 605.05659,170.57117 612.90235,171.98427 C 603.89783,171.21529 595.29856,170.18841 589.07748,167.64815 L 578.15878,171.52023 C 584.98478,174.78495 592.86146,176.64876 600.39038,178.97625 C 592.13569,176.90168 583.47847,175.63217 575.91845,172.16827 L 559.81963,177.92995 C 554.99673,179.4307 551.45988,178.9474 547.664,178.86373 L 548.33769,177.54523 z "
             id="path3965" />
        </g>
        <g
           transform="matrix(0.1490631,-0.8524377,-0.7883731,-8.1279828e-2,327.90936,592.82522)"
           id="g3967">
          <path
             id="path3969"
             d="M 558.4385,176.76826 C 578.18164,147.79392 605.73405,139.26149 642.15827,153.95232 C 620.51443,167.13217 620.68525,199.72946 558.4385,176.76826 z "
             style="fill:#0c7e1b;fill-opacity:1;fill-rule:evenodd;stroke:none;stroke-width:1px;stroke-linecap:butt;stroke-linejoin:miter;stroke-opacity:1" />
          <path
             id="path3971"
             d="M 548.33769,177.54523 C 551.85761,177.56764 555.27944,177.78121 559.30783,176.81264 L 581.07043,169.04028 C 582.88897,164.07229 586.95895,159.10431 590.45441,154.13632 C 587.65798,159.01838 584.12354,164.02344 582.72643,168.67228 L 596.89439,163.5203 C 598.99182,158.92031 602.59295,154.32032 606.46237,149.72033 C 603.72999,154.13632 600.47096,158.55231 598.91839,162.9683 L 609.40636,160.2083 C 611.5861,156.16192 615.04219,152.96644 619.52633,150.45633 C 616.06772,153.50966 611.77447,156.63554 611.0381,159.93634 C 617.90741,157.92236 625.35298,156.80569 632.2223,155.79232 L 616.67838,159.91209 C 619.4715,161.20475 622.81632,161.95509 626.86206,162.49617 C 622.7223,162.05091 618.38402,162.10199 614.71809,160.47217 L 605.54237,162.7843 C 608.94293,164.30364 614.57361,166.02909 620.26233,167.20029 C 613.35482,166.66889 608.2938,165.07546 602.78238,163.3363 L 591.19041,166.83229 C 596.6086,169.45918 605.05659,170.57117 612.90235,171.98427 C 603.89783,171.21529 595.29856,170.18841 589.07748,167.64815 L 578.15878,171.52023 C 584.98478,174.78495 592.86146,176.64876 600.39038,178.97625 C 592.13569,176.90168 583.47847,175.63217 575.91845,172.16827 L 559.81963,177.92995 C 554.99673,179.4307 551.45988,178.9474 547.664,178.86373 L 548.33769,177.54523 z "
             style="fill:#52f355;fill-opacity:1;fill-rule:evenodd;stroke:none;stroke-width:1px;stroke-linecap:butt;stroke-linejoin:miter;stroke-opacity:1" />
        </g>
        <g
           transform="matrix(-0.6891455,-0.5622366,-0.2973737,0.5811228,674.58199,159.87943)"
           id="g3985">
          <path
             id="path3987"
             d="M 558.4385,176.76826 C 578.18164,147.79392 605.73405,139.26149 642.15827,153.95232 C 620.51443,167.13217 620.68525,199.72946 558.4385,176.76826 z "
             style="fill:#0c7e1b;fill-opacity:1;fill-rule:evenodd;stroke:none;stroke-width:1px;stroke-linecap:butt;stroke-linejoin:miter;stroke-opacity:1" />
          <path
             id="path3989"
             d="M 554.73908,176.10994 C 557.04091,176.46305 559.99114,176.54119 562.02125,175.84356 L 581.07043,169.04028 C 582.88897,164.07229 586.95895,159.10431 590.45441,154.13632 C 587.65798,159.01838 584.12354,164.02344 582.72643,168.67228 L 596.89439,163.5203 C 598.99182,158.92031 602.59295,154.32032 606.46237,149.72033 C 603.72999,154.13632 600.47096,158.55231 598.91839,162.9683 L 609.40636,160.2083 C 611.5861,156.16192 615.04219,152.96644 619.52633,150.45633 C 616.06772,153.50966 611.77447,156.63554 611.0381,159.93634 C 617.90741,157.92236 625.35298,156.80569 632.2223,155.79232 L 616.67838,159.91209 C 619.4715,161.20475 622.81632,161.95509 626.86206,162.49617 C 622.7223,162.05091 618.38402,162.10199 614.71809,160.47217 L 605.54237,162.7843 C 608.94293,164.30364 614.57361,166.02909 620.26233,167.20029 C 613.35482,166.66889 608.2938,165.07546 602.78238,163.3363 L 591.19041,166.83229 C 596.6086,169.45918 605.05659,170.57117 612.90235,171.98427 C 603.89783,171.21529 595.29856,170.18841 589.07748,167.64815 L 578.15878,171.52023 C 584.98478,174.78495 592.86146,176.64876 600.39038,178.97625 C 592.13569,176.90168 583.47847,175.63217 575.91845,172.16827 L 562.47999,176.97782 C 560.19774,177.67169 556.80251,177.5023 554.72726,177.35227 L 554.73908,176.10994 z "
             style="fill:#52f355;fill-opacity:1;fill-rule:evenodd;stroke:none;stroke-width:1px;stroke-linecap:butt;stroke-linejoin:miter;stroke-opacity:1" />
        </g>
        <g
           transform="matrix(-0.8480887,0.2736274,-0.2073297,-0.7429526,745.85128,-66.250194)"
           id="g3973">
          <path
             id="path3975"
             d="M 558.4385,176.76826 C 578.18164,147.79392 605.73405,139.26149 642.15827,153.95232 C 620.51443,167.13217 620.68525,199.72946 558.4385,176.76826 z "
             style="fill:#0c7e1b;fill-opacity:1;fill-rule:evenodd;stroke:none;stroke-width:1px;stroke-linecap:butt;stroke-linejoin:miter;stroke-opacity:1" />
          <path
             id="path3977"
             d="M 554.73908,176.10994 C 557.04091,176.46305 559.99114,176.54119 562.02125,175.84356 L 581.07043,169.04028 C 582.88897,164.07229 586.95895,159.10431 590.45441,154.13632 C 587.65798,159.01838 584.12354,164.02344 582.72643,168.67228 L 596.89439,163.5203 C 598.99182,158.92031 602.59295,154.32032 606.46237,149.72033 C 603.72999,154.13632 600.47096,158.55231 598.91839,162.9683 L 609.40636,160.2083 C 611.5861,156.16192 615.04219,152.96644 619.52633,150.45633 C 616.06772,153.50966 611.77447,156.63554 611.0381,159.93634 C 617.90741,157.92236 625.35298,156.80569 632.2223,155.79232 L 616.67838,159.91209 C 619.4715,161.20475 622.81632,161.95509 626.86206,162.49617 C 622.7223,162.05091 618.38402,162.10199 614.71809,160.47217 L 605.54237,162.7843 C 608.94293,164.30364 614.57361,166.02909 620.26233,167.20029 C 613.35482,166.66889 608.2938,165.07546 602.78238,163.3363 L 591.19041,166.83229 C 596.6086,169.45918 605.05659,170.57117 612.90235,171.98427 C 603.89783,171.21529 595.29856,170.18841 589.07748,167.64815 L 578.15878,171.52023 C 584.98478,174.78495 592.86146,176.64876 600.39038,178.97625 C 592.13569,176.90168 583.47847,175.63217 575.91845,172.16827 L 562.47999,176.97782 C 560.19774,177.67169 556.80251,177.5023 554.72726,177.35227 L 554.73908,176.10994 z "
             style="fill:#52f355;fill-opacity:1;fill-rule:evenodd;stroke:none;stroke-width:1px;stroke-linecap:butt;stroke-linejoin:miter;stroke-opacity:1" />
        </g>
        <g
           id="g3979"
           transform="matrix(-0.9169367,-1.0387063e-3,7.1403768e-2,0.7858998,718.76819,-188.83798)">
          <path
             style="fill:#0c7e1b;fill-opacity:1;fill-rule:evenodd;stroke:none;stroke-width:1px;stroke-linecap:butt;stroke-linejoin:miter;stroke-opacity:1"
             d="M 558.4385,176.76826 C 578.18164,147.79392 605.73405,139.26149 642.15827,153.95232 C 620.51443,167.13217 620.68525,199.72946 558.4385,176.76826 z "
             id="path3981" />
          <path
             style="fill:#52f355;fill-opacity:1;fill-rule:evenodd;stroke:none;stroke-width:1px;stroke-linecap:butt;stroke-linejoin:miter;stroke-opacity:1"
             d="M 554.73908,176.10994 C 557.04091,176.46305 559.99114,176.54119 562.02125,175.84356 L 581.07043,169.04028 C 582.88897,164.07229 586.95895,159.10431 590.45441,154.13632 C 587.65798,159.01838 584.12354,164.02344 582.72643,168.67228 L 596.89439,163.5203 C 598.99182,158.92031 602.59295,154.32032 606.46237,149.72033 C 603.72999,154.13632 600.47096,158.55231 598.91839,162.9683 L 609.40636,160.2083 C 611.5861,156.16192 615.04219,152.96644 619.52633,150.45633 C 616.06772,153.50966 611.77447,156.63554 611.0381,159.93634 C 617.90741,157.92236 625.35298,156.80569 632.2223,155.79232 L 616.67838,159.91209 C 619.4715,161.20475 622.81632,161.95509 626.86206,162.49617 C 622.7223,162.05091 618.38402,162.10199 614.71809,160.47217 L 605.54237,162.7843 C 608.94293,164.30364 614.57361,166.02909 620.26233,167.20029 C 613.35482,166.66889 608.2938,165.07546 602.78238,163.3363 L 591.19041,166.83229 C 596.6086,169.45918 605.05659,170.57117 612.90235,171.98427 C 603.89783,171.21529 595.29856,170.18841 589.07748,167.64815 L 578.15878,171.52023 C 584.98478,174.78495 592.86146,176.64876 600.39038,178.97625 C 592.13569,176.90168 583.47847,175.63217 575.91845,172.16827 L 562.47999,176.97782 C 560.19774,177.67169 556.80251,177.5023 554.72726,177.35227 L 554.73908,176.10994 z "
             id="path3983" />
        </g>
        <g
           id="g3997"
           transform="matrix(-0.6227324,-0.6374408,0.5728391,-0.5165458,482.30209,493.28348)">
          <path
             style="fill:#0c7e1b;fill-opacity:1;fill-rule:evenodd;stroke:none;stroke-width:1px;stroke-linecap:butt;stroke-linejoin:miter;stroke-opacity:1"
             d="M 558.4385,176.76826 C 578.18164,147.79392 605.73405,139.26149 642.15827,153.95232 C 620.51443,167.13217 620.68525,199.72946 558.4385,176.76826 z "
             id="path3999" />
          <path
             style="fill:#52f355;fill-opacity:1;fill-rule:evenodd;stroke:none;stroke-width:1px;stroke-linecap:butt;stroke-linejoin:miter;stroke-opacity:1"
             d="M 554.73908,176.10994 C 557.04091,176.46305 559.99114,176.54119 562.02125,175.84356 L 581.07043,169.04028 C 582.88897,164.07229 586.95895,159.10431 590.45441,154.13632 C 587.65798,159.01838 584.12354,164.02344 582.72643,168.67228 L 596.89439,163.5203 C 598.99182,158.92031 602.59295,154.32032 606.46237,149.72033 C 603.72999,154.13632 600.47096,158.55231 598.91839,162.9683 L 609.40636,160.2083 C 611.5861,156.16192 615.04219,152.96644 619.52633,150.45633 C 616.06772,153.50966 611.77447,156.63554 611.0381,159.93634 C 617.90741,157.92236 625.35298,156.80569 632.2223,155.79232 L 616.67838,159.91209 C 619.4715,161.20475 622.81632,161.95509 626.86206,162.49617 C 622.7223,162.05091 618.38402,162.10199 614.71809,160.47217 L 605.54237,162.7843 C 608.94293,164.30364 614.57361,166.02909 620.26233,167.20029 C 613.35482,166.66889 608.2938,165.07546 602.78238,163.3363 L 591.19041,166.83229 C 596.6086,169.45918 605.05659,170.57117 612.90235,171.98427 C 603.89783,171.21529 595.29856,170.18841 589.07748,167.64815 L 578.15878,171.52023 C 584.98478,174.78495 592.86146,176.64876 600.39038,178.97625 C 592.13569,176.90168 583.47847,175.63217 575.91845,172.16827 L 562.47999,176.97782 C 560.19774,177.67169 556.80251,177.5023 554.72726,177.35227 L 554.73908,176.10994 z "
             id="path4001" />
        </g>
        <g
           id="g3991"
           transform="matrix(0.4528091,-0.7655034,-0.6190714,-0.2070879,107.79627,508.52145)">
          <path
             style="fill:#0c7e1b;fill-opacity:1;fill-rule:evenodd;stroke:none;stroke-width:1px;stroke-linecap:butt;stroke-linejoin:miter;stroke-opacity:1"
             d="M 558.4385,176.76826 C 578.18164,147.79392 605.73405,139.26149 642.15827,153.95232 C 620.51443,167.13217 620.68525,199.72946 558.4385,176.76826 z "
             id="path3993" />
          <path
             style="fill:#52f355;fill-opacity:1;fill-rule:evenodd;stroke:none;stroke-width:1px;stroke-linecap:butt;stroke-linejoin:miter;stroke-opacity:1"
             d="M 554.73908,176.10994 C 557.04091,176.46305 559.99114,176.54119 562.02125,175.84356 L 581.07043,169.04028 C 582.88897,164.07229 586.95895,159.10431 590.45441,154.13632 C 587.65798,159.01838 584.12354,164.02344 582.72643,168.67228 L 596.89439,163.5203 C 598.99182,158.92031 602.59295,154.32032 606.46237,149.72033 C 603.72999,154.13632 600.47096,158.55231 598.91839,162.9683 L 609.40636,160.2083 C 611.5861,156.16192 615.04219,152.96644 619.52633,150.45633 C 616.06772,153.50966 611.77447,156.63554 611.0381,159.93634 C 617.90741,157.92236 625.35298,156.80569 632.2223,155.79232 L 616.67838,159.91209 C 619.4715,161.20475 622.81632,161.95509 626.86206,162.49617 C 622.7223,162.05091 618.38402,162.10199 614.71809,160.47217 L 605.54237,162.7843 C 608.94293,164.30364 614.57361,166.02909 620.26233,167.20029 C 613.35482,166.66889 608.2938,165.07546 602.78238,163.3363 L 591.19041,166.83229 C 596.6086,169.45918 605.05659,170.57117 612.90235,171.98427 C 603.89783,171.21529 595.29856,170.18841 589.07748,167.64815 L 578.15878,171.52023 C 584.98478,174.78495 592.86146,176.64876 600.39038,178.97625 C 592.13569,176.90168 583.47847,175.63217 575.91845,172.16827 L 562.47999,176.97782 C 560.19774,177.67169 556.80251,177.5023 554.72726,177.35227 L 554.73908,176.10994 z "
             id="path3995" />
        </g>
        <g
           transform="matrix(-0.2184507,-0.8842906,-0.6654726,0.2775395,481.90996,488.31609)"
           id="g4003">
          <path
             id="path4005"
             d="M 558.4385,176.76826 C 578.18164,147.79392 605.73405,139.26149 642.15827,153.95232 C 620.51443,167.13217 620.68525,199.72946 558.4385,176.76826 z "
             style="fill:#0c7e1b;fill-opacity:1;fill-rule:evenodd;stroke:none;stroke-width:1px;stroke-linecap:butt;stroke-linejoin:miter;stroke-opacity:1" />
          <path
             id="path4007"
             d="M 554.73908,176.10994 C 557.04091,176.46305 559.99114,176.54119 562.02125,175.84356 L 581.07043,169.04028 C 582.88897,164.07229 586.95895,159.10431 590.45441,154.13632 C 587.65798,159.01838 584.12354,164.02344 582.72643,168.67228 L 596.89439,163.5203 C 598.99182,158.92031 602.59295,154.32032 606.46237,149.72033 C 603.72999,154.13632 600.47096,158.55231 598.91839,162.9683 L 609.40636,160.2083 C 611.5861,156.16192 615.04219,152.96644 619.52633,150.45633 C 616.06772,153.50966 611.77447,156.63554 611.0381,159.93634 C 617.90741,157.92236 625.35298,156.80569 632.2223,155.79232 L 616.67838,159.91209 C 619.4715,161.20475 622.81632,161.95509 626.86206,162.49617 C 622.7223,162.05091 618.38402,162.10199 614.71809,160.47217 L 605.54237,162.7843 C 608.94293,164.30364 614.57361,166.02909 620.26233,167.20029 C 613.35482,166.66889 608.2938,165.07546 602.78238,163.3363 L 591.19041,166.83229 C 596.6086,169.45918 605.05659,170.57117 612.90235,171.98427 C 603.89783,171.21529 595.29856,170.18841 589.07748,167.64815 L 578.15878,171.52023 C 584.98478,174.78495 592.86146,176.64876 600.39038,178.97625 C 592.13569,176.90168 583.47847,175.63217 575.91845,172.16827 L 562.47999,176.97782 C 560.19774,177.67169 556.80251,177.5023 554.72726,177.35227 L 554.73908,176.10994 z "
             style="fill:#52f355;fill-opacity:1;fill-rule:evenodd;stroke:none;stroke-width:1px;stroke-linecap:butt;stroke-linejoin:miter;stroke-opacity:1" />
        </g>
        <g
           id="g4009"
           transform="matrix(0.3770839,-0.9606566,-0.8430614,-0.2281107,331.09073,602.95347)">
          <path
             style="fill:#0c7e1b;fill-opacity:1;fill-rule:evenodd;stroke:none;stroke-width:1px;stroke-linecap:butt;stroke-linejoin:miter;stroke-opacity:1"
             d="M 558.4385,176.76826 C 578.18164,147.79392 605.73405,139.26149 642.15827,153.95232 C 620.51443,167.13217 620.68525,199.72946 558.4385,176.76826 z "
             id="path4011" />
          <path
             style="fill:#52f355;fill-opacity:1;fill-rule:evenodd;stroke:none;stroke-width:1px;stroke-linecap:butt;stroke-linejoin:miter;stroke-opacity:1"
             d="M 557.8865,177.32026 L 581.07043,169.04028 C 582.88897,164.07229 586.95895,159.10431 590.45441,154.13632 C 587.65798,159.01838 584.12354,164.02344 582.72643,168.67228 L 596.89439,163.5203 C 598.99182,158.92031 602.59295,154.32032 606.46237,149.72033 C 603.72999,154.13632 600.47096,158.55231 598.91839,162.9683 L 609.40636,160.2083 C 611.5861,156.16192 615.04219,152.96644 619.52633,150.45633 C 616.06772,153.50966 611.77447,156.63554 611.0381,159.93634 C 617.90741,157.92236 625.35298,156.80569 632.2223,155.79232 L 616.67838,159.91209 C 619.4715,161.20475 622.81632,161.95509 626.86206,162.49617 C 622.7223,162.05091 618.38402,162.10199 614.71809,160.47217 L 605.54237,162.7843 C 608.94293,164.30364 614.57361,166.02909 620.26233,167.20029 C 613.35482,166.66889 608.2938,165.07546 602.78238,163.3363 L 591.19041,166.83229 C 596.6086,169.45918 605.05659,170.57117 612.90235,171.98427 C 603.89783,171.21529 595.29856,170.18841 589.07748,167.64815 L 578.15878,171.52023 C 584.98478,174.78495 592.86146,176.64876 600.39038,178.97625 C 592.13569,176.90168 583.47847,175.63217 575.91845,172.16827 L 558.4385,178.42425 L 557.8865,177.32026 z "
             id="path4013" />
        </g>
        <g
           id="g4015"
           transform="matrix(0.6865575,-0.2119896,-0.27728,-0.659964,141.90069,264.93503)">
          <path
             style="fill:#0c7e1b;fill-opacity:1;fill-rule:evenodd;stroke:none;stroke-width:1px;stroke-linecap:butt;stroke-linejoin:miter;stroke-opacity:1"
             d="M 558.4385,176.76826 C 578.18164,147.79392 605.73405,139.26149 642.15827,153.95232 C 620.51443,167.13217 620.68525,199.72946 558.4385,176.76826 z "
             id="path4017" />
          <path
             style="fill:#52f355;fill-opacity:1;fill-rule:evenodd;stroke:none;stroke-width:1px;stroke-linecap:butt;stroke-linejoin:miter;stroke-opacity:1"
             d="M 548.33769,177.54523 C 551.85761,177.56764 555.27944,177.78121 559.30783,176.81264 L 581.07043,169.04028 C 582.88897,164.07229 586.95895,159.10431 590.45441,154.13632 C 587.65798,159.01838 584.12354,164.02344 582.72643,168.67228 L 596.89439,163.5203 C 598.99182,158.92031 602.59295,154.32032 606.46237,149.72033 C 603.72999,154.13632 600.47096,158.55231 598.91839,162.9683 L 609.40636,160.2083 C 611.5861,156.16192 615.04219,152.96644 619.52633,150.45633 C 616.06772,153.50966 611.77447,156.63554 611.0381,159.93634 C 617.90741,157.92236 625.35298,156.80569 632.2223,155.79232 L 616.67838,159.91209 C 619.4715,161.20475 622.81632,161.95509 626.86206,162.49617 C 622.7223,162.05091 618.38402,162.10199 614.71809,160.47217 L 605.54237,162.7843 C 608.94293,164.30364 614.57361,166.02909 620.26233,167.20029 C 613.35482,166.66889 608.2938,165.07546 602.78238,163.3363 L 591.19041,166.83229 C 596.6086,169.45918 605.05659,170.57117 612.90235,171.98427 C 603.89783,171.21529 595.29856,170.18841 589.07748,167.64815 L 578.15878,171.52023 C 584.98478,174.78495 592.86146,176.64876 600.39038,178.97625 C 592.13569,176.90168 583.47847,175.63217 575.91845,172.16827 L 559.81963,177.92995 C 554.99673,179.4307 551.45988,178.9474 547.664,178.86373 L 548.33769,177.54523 z "
             id="path4019" />
        </g>
        <g
           transform="matrix(0.335953,-0.7483329,-0.7187791,-0.1286117,385.69225,452.43162)"
           id="g4021">
          <path
             id="path4023"
             d="M 558.4385,176.76826 C 578.18164,147.79392 605.73405,139.26149 642.15827,153.95232 C 620.51443,167.13217 620.68525,199.72946 558.4385,176.76826 z "
             style="fill:#0c7e1b;fill-opacity:1;fill-rule:evenodd;stroke:none;stroke-width:1px;stroke-linecap:butt;stroke-linejoin:miter;stroke-opacity:1" />
          <path
             id="path4025"
             d="M 548.33769,177.54523 C 551.85761,177.56764 555.27944,177.78121 559.30783,176.81264 L 581.07043,169.04028 C 582.88897,164.07229 586.95895,159.10431 590.45441,154.13632 C 587.65798,159.01838 584.12354,164.02344 582.72643,168.67228 L 596.89439,163.5203 C 598.99182,158.92031 602.59295,154.32032 606.46237,149.72033 C 603.72999,154.13632 600.47096,158.55231 598.91839,162.9683 L 609.40636,160.2083 C 611.5861,156.16192 615.04219,152.96644 619.52633,150.45633 C 616.06772,153.50966 611.77447,156.63554 611.0381,159.93634 C 617.90741,157.92236 625.35298,156.80569 632.2223,155.79232 L 616.67838,159.91209 C 619.4715,161.20475 622.81632,161.95509 626.86206,162.49617 C 622.7223,162.05091 618.38402,162.10199 614.71809,160.47217 L 605.54237,162.7843 C 608.94293,164.30364 614.57361,166.02909 620.26233,167.20029 C 613.35482,166.66889 608.2938,165.07546 602.78238,163.3363 L 591.19041,166.83229 C 596.6086,169.45918 605.05659,170.57117 612.90235,171.98427 C 603.89783,171.21529 595.29856,170.18841 589.07748,167.64815 L 578.15878,171.52023 C 584.98478,174.78495 592.86146,176.64876 600.39038,178.97625 C 592.13569,176.90168 583.47847,175.63217 575.91845,172.16827 L 559.81963,177.92995 C 554.99673,179.4307 551.45988,178.9474 547.664,178.86373 L 548.33769,177.54523 z "
             style="fill:#52f355;fill-opacity:1;fill-rule:evenodd;stroke:none;stroke-width:1px;stroke-linecap:butt;stroke-linejoin:miter;stroke-opacity:1" />
        </g>
        <g
           id="g4027"
           transform="matrix(0.4598448,-0.7541726,-0.7890611,-0.2121819,405.72055,447.7255)">
          <path
             style="fill:#0c7e1b;fill-opacity:1;fill-rule:evenodd;stroke:none;stroke-width:1px;stroke-linecap:butt;stroke-linejoin:miter;stroke-opacity:1"
             d="M 558.4385,176.76826 C 578.18164,147.79392 605.73405,139.26149 642.15827,153.95232 C 620.51443,167.13217 620.68525,199.72946 558.4385,176.76826 z "
             id="path4029" />
          <path
             style="fill:#52f355;fill-opacity:1;fill-rule:evenodd;stroke:none;stroke-width:1px;stroke-linecap:butt;stroke-linejoin:miter;stroke-opacity:1"
             d="M 548.33769,177.54523 C 551.85761,177.56764 555.27944,177.78121 559.30783,176.81264 L 581.07043,169.04028 C 582.88897,164.07229 586.95895,159.10431 590.45441,154.13632 C 587.65798,159.01838 584.12354,164.02344 582.72643,168.67228 L 596.89439,163.5203 C 598.99182,158.92031 602.59295,154.32032 606.46237,149.72033 C 603.72999,154.13632 600.47096,158.55231 598.91839,162.9683 L 609.40636,160.2083 C 611.5861,156.16192 615.04219,152.96644 619.52633,150.45633 C 616.06772,153.50966 611.77447,156.63554 611.0381,159.93634 C 617.90741,157.92236 625.35298,156.80569 632.2223,155.79232 L 616.67838,159.91209 C 619.4715,161.20475 622.81632,161.95509 626.86206,162.49617 C 622.7223,162.05091 618.38402,162.10199 614.71809,160.47217 L 605.54237,162.7843 C 608.94293,164.30364 614.57361,166.02909 620.26233,167.20029 C 613.35482,166.66889 608.2938,165.07546 602.78238,163.3363 L 591.19041,166.83229 C 596.6086,169.45918 605.05659,170.57117 612.90235,171.98427 C 603.89783,171.21529 595.29856,170.18841 589.07748,167.64815 L 578.15878,171.52023 C 584.98478,174.78495 592.86146,176.64876 600.39038,178.97625 C 592.13569,176.90168 583.47847,175.63217 575.91845,172.16827 L 559.81963,177.92995 C 554.99673,179.4307 551.45988,178.9474 547.664,178.86373 L 548.33769,177.54523 z "
             id="path4031" />
        </g>
        <g
           id="g4033"
           transform="matrix(0.8346429,-0.347226,0.1465853,0.7364786,17.426307,4.2207019)">
          <path
             style="fill:#0c7e1b;fill-opacity:1;fill-rule:evenodd;stroke:none;stroke-width:1px;stroke-linecap:butt;stroke-linejoin:miter;stroke-opacity:1"
             d="M 558.4385,176.76826 C 578.18164,147.79392 605.73405,139.26149 642.15827,153.95232 C 620.51443,167.13217 620.68525,199.72946 558.4385,176.76826 z "
             id="path4035" />
          <path
             style="fill:#52f355;fill-opacity:1;fill-rule:evenodd;stroke:none;stroke-width:1px;stroke-linecap:butt;stroke-linejoin:miter;stroke-opacity:1"
             d="M 548.33769,177.54523 C 551.85761,177.56764 555.27944,177.78121 559.30783,176.81264 L 581.07043,169.04028 C 582.88897,164.07229 586.95895,159.10431 590.45441,154.13632 C 587.65798,159.01838 584.12354,164.02344 582.72643,168.67228 L 596.89439,163.5203 C 598.99182,158.92031 602.59295,154.32032 606.46237,149.72033 C 603.72999,154.13632 600.47096,158.55231 598.91839,162.9683 L 609.40636,160.2083 C 611.5861,156.16192 615.04219,152.96644 619.52633,150.45633 C 616.06772,153.50966 611.77447,156.63554 611.0381,159.93634 C 617.90741,157.92236 625.35298,156.80569 632.2223,155.79232 L 616.67838,159.91209 C 619.4715,161.20475 622.81632,161.95509 626.86206,162.49617 C 622.7223,162.05091 618.38402,162.10199 614.71809,160.47217 L 605.54237,162.7843 C 608.94293,164.30364 614.57361,166.02909 620.26233,167.20029 C 613.35482,166.66889 608.2938,165.07546 602.78238,163.3363 L 591.19041,166.83229 C 596.6086,169.45918 605.05659,170.57117 612.90235,171.98427 C 603.89783,171.21529 595.29856,170.18841 589.07748,167.64815 L 578.15878,171.52023 C 584.98478,174.78495 592.86146,176.64876 600.39038,178.97625 C 592.13569,176.90168 583.47847,175.63217 575.91845,172.16827 L 559.81963,177.92995 C 554.99673,179.4307 551.45988,178.9474 547.664,178.86373 L 548.33769,177.54523 z "
             id="path4037" />
        </g>
        <g
           transform="matrix(0.5205898,-0.4660701,0.3050118,0.488807,138.1419,92.4547)"
           id="g4039">
          <path
             id="path4041"
             d="M 558.4385,176.76826 C 578.18164,147.79392 605.73405,139.26149 642.15827,153.95232 C 620.51443,167.13217 620.68525,199.72946 558.4385,176.76826 z "
             style="fill:#0c7e1b;fill-opacity:1;fill-rule:evenodd;stroke:none;stroke-width:1px;stroke-linecap:butt;stroke-linejoin:miter;stroke-opacity:1" />
          <path
             id="path4043"
             d="M 548.33769,177.54523 C 551.85761,177.56764 555.27944,177.78121 559.30783,176.81264 L 581.07043,169.04028 C 582.88897,164.07229 586.95895,159.10431 590.45441,154.13632 C 587.65798,159.01838 584.12354,164.02344 582.72643,168.67228 L 596.89439,163.5203 C 598.99182,158.92031 602.59295,154.32032 606.46237,149.72033 C 603.72999,154.13632 600.47096,158.55231 598.91839,162.9683 L 609.40636,160.2083 C 611.5861,156.16192 615.04219,152.96644 619.52633,150.45633 C 616.06772,153.50966 611.77447,156.63554 611.0381,159.93634 C 617.90741,157.92236 625.35298,156.80569 632.2223,155.79232 L 616.67838,159.91209 C 619.4715,161.20475 622.81632,161.95509 626.86206,162.49617 C 622.7223,162.05091 618.38402,162.10199 614.71809,160.47217 L 605.54237,162.7843 C 608.94293,164.30364 614.57361,166.02909 620.26233,167.20029 C 613.35482,166.66889 608.2938,165.07546 602.78238,163.3363 L 591.19041,166.83229 C 596.6086,169.45918 605.05659,170.57117 612.90235,171.98427 C 603.89783,171.21529 595.29856,170.18841 589.07748,167.64815 L 578.15878,171.52023 C 584.98478,174.78495 592.86146,176.64876 600.39038,178.97625 C 592.13569,176.90168 583.47847,175.63217 575.91845,172.16827 L 559.81963,177.92995 C 554.99673,179.4307 551.45988,178.9474 547.664,178.86373 L 548.33769,177.54523 z "
             style="fill:#52f355;fill-opacity:1;fill-rule:evenodd;stroke:none;stroke-width:1px;stroke-linecap:butt;stroke-linejoin:miter;stroke-opacity:1" />
        </g>
        <g
           id="g4045"
           transform="matrix(0.4794679,-0.5082771,0.3451136,0.4613687,125.6417,98.463264)">
          <path
             style="fill:#0c7e1b;fill-opacity:1;fill-rule:evenodd;stroke:none;stroke-width:1px;stroke-linecap:butt;stroke-linejoin:miter;stroke-opacity:1"
             d="M 558.4385,176.76826 C 578.18164,147.79392 605.73405,139.26149 642.15827,153.95232 C 620.51443,167.13217 620.68525,199.72946 558.4385,176.76826 z "
             id="path4047" />
          <path
             style="fill:#52f355;fill-opacity:1;fill-rule:evenodd;stroke:none;stroke-width:1px;stroke-linecap:butt;stroke-linejoin:miter;stroke-opacity:1"
             d="M 548.33769,177.54523 C 551.85761,177.56764 555.27944,177.78121 559.30783,176.81264 L 581.07043,169.04028 C 582.88897,164.07229 586.95895,159.10431 590.45441,154.13632 C 587.65798,159.01838 584.12354,164.02344 582.72643,168.67228 L 596.89439,163.5203 C 598.99182,158.92031 602.59295,154.32032 606.46237,149.72033 C 603.72999,154.13632 600.47096,158.55231 598.91839,162.9683 L 609.40636,160.2083 C 611.5861,156.16192 615.04219,152.96644 619.52633,150.45633 C 616.06772,153.50966 611.77447,156.63554 611.0381,159.93634 C 617.90741,157.92236 625.35298,156.80569 632.2223,155.79232 L 616.67838,159.91209 C 619.4715,161.20475 622.81632,161.95509 626.86206,162.49617 C 622.7223,162.05091 618.38402,162.10199 614.71809,160.47217 L 605.54237,162.7843 C 608.94293,164.30364 614.57361,166.02909 620.26233,167.20029 C 613.35482,166.66889 608.2938,165.07546 602.78238,163.3363 L 591.19041,166.83229 C 596.6086,169.45918 605.05659,170.57117 612.90235,171.98427 C 603.89783,171.21529 595.29856,170.18841 589.07748,167.64815 L 578.15878,171.52023 C 584.98478,174.78495 592.86146,176.64876 600.39038,178.97625 C 592.13569,176.90168 583.47847,175.63217 575.91845,172.16827 L 559.81963,177.92995 C 554.99673,179.4307 551.45988,178.9474 547.664,178.86373 L 548.33769,177.54523 z "
             id="path4049" />
        </g>
        <g
           id="g4057"
           transform="matrix(-0.3297461,-0.8081402,-0.3806459,0.3921435,598.45861,287.0929)">
          <path
             style="fill:#0c7e1b;fill-opacity:1;fill-rule:evenodd;stroke:none;stroke-width:1px;stroke-linecap:butt;stroke-linejoin:miter;stroke-opacity:1"
             d="M 558.4385,176.76826 C 578.18164,147.79392 605.73405,139.26149 642.15827,153.95232 C 620.51443,167.13217 620.68525,199.72946 558.4385,176.76826 z "
             id="path4059" />
          <path
             style="fill:#52f355;fill-opacity:1;fill-rule:evenodd;stroke:none;stroke-width:1px;stroke-linecap:butt;stroke-linejoin:miter;stroke-opacity:1"
             d="M 548.33769,177.54523 C 551.85761,177.56764 555.27944,177.78121 559.30783,176.81264 L 581.07043,169.04028 C 582.88897,164.07229 586.95895,159.10431 590.45441,154.13632 C 587.65798,159.01838 584.12354,164.02344 582.72643,168.67228 L 596.89439,163.5203 C 598.99182,158.92031 602.59295,154.32032 606.46237,149.72033 C 603.72999,154.13632 600.47096,158.55231 598.91839,162.9683 L 609.40636,160.2083 C 611.5861,156.16192 615.04219,152.96644 619.52633,150.45633 C 616.06772,153.50966 611.77447,156.63554 611.0381,159.93634 C 617.90741,157.92236 625.35298,156.80569 632.2223,155.79232 L 616.67838,159.91209 C 619.4715,161.20475 622.81632,161.95509 626.86206,162.49617 C 622.7223,162.05091 618.38402,162.10199 614.71809,160.47217 L 605.54237,162.7843 C 608.94293,164.30364 614.57361,166.02909 620.26233,167.20029 C 613.35482,166.66889 608.2938,165.07546 602.78238,163.3363 L 591.19041,166.83229 C 596.6086,169.45918 605.05659,170.57117 612.90235,171.98427 C 603.89783,171.21529 595.29856,170.18841 589.07748,167.64815 L 578.15878,171.52023 C 584.98478,174.78495 592.86146,176.64876 600.39038,178.97625 C 592.13569,176.90168 583.47847,175.63217 575.91845,172.16827 L 559.81963,177.92995 C 554.99673,179.4307 551.45988,178.9474 547.664,178.86373 L 548.33769,177.54523 z "
             id="path4061" />
        </g>
        <g
           transform="matrix(0.1348882,-0.7586098,0.4011925,0.2679446,214.98137,281.91105)"
           id="g4051">
          <path
             id="path4053"
             d="M 558.4385,176.76826 C 578.18164,147.79392 605.73405,139.26149 642.15827,153.95232 C 620.51443,167.13217 620.68525,199.72946 558.4385,176.76826 z "
             style="fill:#0c7e1b;fill-opacity:1;fill-rule:evenodd;stroke:none;stroke-width:1px;stroke-linecap:butt;stroke-linejoin:miter;stroke-opacity:1" />
          <path
             id="path4055"
             d="M 548.33769,177.54523 C 551.85761,177.56764 555.27944,177.78121 559.30783,176.81264 L 581.07043,169.04028 C 582.88897,164.07229 586.95895,159.10431 590.45441,154.13632 C 587.65798,159.01838 584.12354,164.02344 582.72643,168.67228 L 596.89439,163.5203 C 598.99182,158.92031 602.59295,154.32032 606.46237,149.72033 C 603.72999,154.13632 600.47096,158.55231 598.91839,162.9683 L 609.40636,160.2083 C 611.5861,156.16192 615.04219,152.96644 619.52633,150.45633 C 616.06772,153.50966 611.77447,156.63554 611.0381,159.93634 C 617.90741,157.92236 625.35298,156.80569 632.2223,155.79232 L 616.67838,159.91209 C 619.4715,161.20475 622.81632,161.95509 626.86206,162.49617 C 622.7223,162.05091 618.38402,162.10199 614.71809,160.47217 L 605.54237,162.7843 C 608.94293,164.30364 614.57361,166.02909 620.26233,167.20029 C 613.35482,166.66889 608.2938,165.07546 602.78238,163.3363 L 591.19041,166.83229 C 596.6086,169.45918 605.05659,170.57117 612.90235,171.98427 C 603.89783,171.21529 595.29856,170.18841 589.07748,167.64815 L 578.15878,171.52023 C 584.98478,174.78495 592.86146,176.64876 600.39038,178.97625 C 592.13569,176.90168 583.47847,175.63217 575.91845,172.16827 L 559.81963,177.92995 C 554.99673,179.4307 551.45988,178.9474 547.664,178.86373 L 548.33769,177.54523 z "
             style="fill:#52f355;fill-opacity:1;fill-rule:evenodd;stroke:none;stroke-width:1px;stroke-linecap:butt;stroke-linejoin:miter;stroke-opacity:1" />
        </g>
        <g
           id="g4063"
           transform="matrix(8.6628029e-2,-0.8500577,0.4657642,0.2632404,264.72057,304.18359)">
          <path
             style="fill:#0c7e1b;fill-opacity:1;fill-rule:evenodd;stroke:none;stroke-width:1px;stroke-linecap:butt;stroke-linejoin:miter;stroke-opacity:1"
             d="M 558.4385,176.76826 C 578.18164,147.79392 605.73405,139.26149 642.15827,153.95232 C 620.51443,167.13217 620.68525,199.72946 558.4385,176.76826 z "
             id="path4065" />
          <path
             style="fill:#52f355;fill-opacity:1;fill-rule:evenodd;stroke:none;stroke-width:1px;stroke-linecap:butt;stroke-linejoin:miter;stroke-opacity:1"
             d="M 548.33769,177.54523 C 551.85761,177.56764 555.27944,177.78121 559.30783,176.81264 L 581.07043,169.04028 C 582.88897,164.07229 586.95895,159.10431 590.45441,154.13632 C 587.65798,159.01838 584.12354,164.02344 582.72643,168.67228 L 596.89439,163.5203 C 598.99182,158.92031 602.59295,154.32032 606.46237,149.72033 C 603.72999,154.13632 600.47096,158.55231 598.91839,162.9683 L 609.40636,160.2083 C 611.5861,156.16192 615.04219,152.96644 619.52633,150.45633 C 616.06772,153.50966 611.77447,156.63554 611.0381,159.93634 C 617.90741,157.92236 625.35298,156.80569 632.2223,155.79232 L 616.67838,159.91209 C 619.4715,161.20475 622.81632,161.95509 626.86206,162.49617 C 622.7223,162.05091 618.38402,162.10199 614.71809,160.47217 L 605.54237,162.7843 C 608.94293,164.30364 614.57361,166.02909 620.26233,167.20029 C 613.35482,166.66889 608.2938,165.07546 602.78238,163.3363 L 591.19041,166.83229 C 596.6086,169.45918 605.05659,170.57117 612.90235,171.98427 C 603.89783,171.21529 595.29856,170.18841 589.07748,167.64815 L 578.15878,171.52023 C 584.98478,174.78495 592.86146,176.64876 600.39038,178.97625 C 592.13569,176.90168 583.47847,175.63217 575.91845,172.16827 L 559.81963,177.92995 C 554.99673,179.4307 551.45988,178.9474 547.664,178.86373 L 548.33769,177.54523 z "
             id="path4067" />
        </g>
        <g
           transform="matrix(0.2254148,-0.8241909,0.4160621,0.3363393,94.824489,288.25665)"
           id="g4069">
          <path
             id="path4071"
             d="M 558.4385,176.76826 C 578.18164,147.79392 605.73405,139.26149 642.15827,153.95232 C 620.51443,167.13217 620.68525,199.72946 558.4385,176.76826 z "
             style="fill:#0c7e1b;fill-opacity:1;fill-rule:evenodd;stroke:none;stroke-width:1px;stroke-linecap:butt;stroke-linejoin:miter;stroke-opacity:1" />
          <path
             id="path4073"
             d="M 548.33769,177.54523 C 551.85761,177.56764 555.27944,177.78121 559.30783,176.81264 L 581.07043,169.04028 C 582.88897,164.07229 586.95895,159.10431 590.45441,154.13632 C 587.65798,159.01838 584.12354,164.02344 582.72643,168.67228 L 596.89439,163.5203 C 598.99182,158.92031 602.59295,154.32032 606.46237,149.72033 C 603.72999,154.13632 600.47096,158.55231 598.91839,162.9683 L 609.40636,160.2083 C 611.5861,156.16192 615.04219,152.96644 619.52633,150.45633 C 616.06772,153.50966 611.77447,156.63554 611.0381,159.93634 C 617.90741,157.92236 625.35298,156.80569 632.2223,155.79232 L 616.67838,159.91209 C 619.4715,161.20475 622.81632,161.95509 626.86206,162.49617 C 622.7223,162.05091 618.38402,162.10199 614.71809,160.47217 L 605.54237,162.7843 C 608.94293,164.30364 614.57361,166.02909 620.26233,167.20029 C 613.35482,166.66889 608.2938,165.07546 602.78238,163.3363 L 591.19041,166.83229 C 596.6086,169.45918 605.05659,170.57117 612.90235,171.98427 C 603.89783,171.21529 595.29856,170.18841 589.07748,167.64815 L 578.15878,171.52023 C 584.98478,174.78495 592.86146,176.64876 600.39038,178.97625 C 592.13569,176.90168 583.47847,175.63217 575.91845,172.16827 L 559.81963,177.92995 C 554.99673,179.4307 551.45988,178.9474 547.664,178.86373 L 548.33769,177.54523 z "
             style="fill:#52f355;fill-opacity:1;fill-rule:evenodd;stroke:none;stroke-width:1px;stroke-linecap:butt;stroke-linejoin:miter;stroke-opacity:1" />
        </g>
        <g
           id="g4081"
           transform="matrix(-0.1077422,-0.6045541,-0.3196579,0.2136728,534.07769,183.94877)">
          <path
             style="fill:#0c7e1b;fill-opacity:1;fill-rule:evenodd;stroke:none;stroke-width:1px;stroke-linecap:butt;stroke-linejoin:miter;stroke-opacity:1"
             d="M 558.4385,176.76826 C 578.18164,147.79392 605.73405,139.26149 642.15827,153.95232 C 620.51443,167.13217 620.68525,199.72946 558.4385,176.76826 z "
             id="path4083" />
          <path
             style="fill:#52f355;fill-opacity:1;fill-rule:evenodd;stroke:none;stroke-width:1px;stroke-linecap:butt;stroke-linejoin:miter;stroke-opacity:1"
             d="M 548.33769,177.54523 C 551.85761,177.56764 555.27944,177.78121 559.30783,176.81264 L 581.07043,169.04028 C 582.88897,164.07229 586.95895,159.10431 590.45441,154.13632 C 587.65798,159.01838 584.12354,164.02344 582.72643,168.67228 L 596.89439,163.5203 C 598.99182,158.92031 602.59295,154.32032 606.46237,149.72033 C 603.72999,154.13632 600.47096,158.55231 598.91839,162.9683 L 609.40636,160.2083 C 611.5861,156.16192 615.04219,152.96644 619.52633,150.45633 C 616.06772,153.50966 611.77447,156.63554 611.0381,159.93634 C 617.90741,157.92236 625.35298,156.80569 632.2223,155.79232 L 616.67838,159.91209 C 619.4715,161.20475 622.81632,161.95509 626.86206,162.49617 C 622.7223,162.05091 618.38402,162.10199 614.71809,160.47217 L 605.54237,162.7843 C 608.94293,164.30364 614.57361,166.02909 620.26233,167.20029 C 613.35482,166.66889 608.2938,165.07546 602.78238,163.3363 L 591.19041,166.83229 C 596.6086,169.45918 605.05659,170.57117 612.90235,171.98427 C 603.89783,171.21529 595.29856,170.18841 589.07748,167.64815 L 578.15878,171.52023 C 584.98478,174.78495 592.86146,176.64876 600.39038,178.97625 C 592.13569,176.90168 583.47847,175.63217 575.91845,172.16827 L 559.81963,177.92995 C 554.99673,179.4307 551.45988,178.9474 547.664,178.86373 L 548.33769,177.54523 z "
             id="path4085" />
        </g>
        <g
           transform="matrix(0.4783471,-0.7080159,0.2858897,0.4522155,102.35354,203.55507)"
           id="g4075">
          <path
             id="path4077"
             d="M 558.4385,176.76826 C 578.18164,147.79392 605.73405,139.26149 642.15827,153.95232 C 620.51443,167.13217 620.68525,199.72946 558.4385,176.76826 z "
             style="fill:#0c7e1b;fill-opacity:1;fill-rule:evenodd;stroke:none;stroke-width:1px;stroke-linecap:butt;stroke-linejoin:miter;stroke-opacity:1" />
          <path
             id="path4079"
             d="M 548.33769,177.54523 C 551.85761,177.56764 555.27944,177.78121 559.30783,176.81264 L 581.07043,169.04028 C 582.88897,164.07229 586.95895,159.10431 590.45441,154.13632 C 587.65798,159.01838 584.12354,164.02344 582.72643,168.67228 L 596.89439,163.5203 C 598.99182,158.92031 602.59295,154.32032 606.46237,149.72033 C 603.72999,154.13632 600.47096,158.55231 598.91839,162.9683 L 609.40636,160.2083 C 611.5861,156.16192 615.04219,152.96644 619.52633,150.45633 C 616.06772,153.50966 611.77447,156.63554 611.0381,159.93634 C 617.90741,157.92236 625.35298,156.80569 632.2223,155.79232 L 616.67838,159.91209 C 619.4715,161.20475 622.81632,161.95509 626.86206,162.49617 C 622.7223,162.05091 618.38402,162.10199 614.71809,160.47217 L 605.54237,162.7843 C 608.94293,164.30364 614.57361,166.02909 620.26233,167.20029 C 613.35482,166.66889 608.2938,165.07546 602.78238,163.3363 L 591.19041,166.83229 C 596.6086,169.45918 605.05659,170.57117 612.90235,171.98427 C 603.89783,171.21529 595.29856,170.18841 589.07748,167.64815 L 578.15878,171.52023 C 584.98478,174.78495 592.86146,176.64876 600.39038,178.97625 C 592.13569,176.90168 583.47847,175.63217 575.91845,172.16827 L 559.81963,177.92995 C 554.99673,179.4307 551.45988,178.9474 547.664,178.86373 L 548.33769,177.54523 z "
             style="fill:#52f355;fill-opacity:1;fill-rule:evenodd;stroke:none;stroke-width:1px;stroke-linecap:butt;stroke-linejoin:miter;stroke-opacity:1" />
        </g>
        <path
           style="fill:#8e6134;fill-opacity:1;fill-rule:evenodd;stroke:#640000;stroke-width:1px;stroke-linecap:butt;stroke-linejoin:miter;stroke-opacity:1"
           d="M 396.53125,-127.9375 C 388.86906,-104.6747 403.4763,-85.674627 388.8125,-60.34375 C 382.60532,-48.971459 368.57635,-12.620552 360.15625,-16.59375 C 354.95625,-40.435428 360.40874,-68.529318 360.53125,-94.5 C 358.92962,-74.423126 356.47493,-67.008512 353.90625,-61.4375 C 351.61107,-61.343261 350.92554,-86.930235 349.5,-100.75 C 345.85833,-69.904949 349.82652,-21.642043 344.34375,17.9375 C 326.92883,-2.104373 313.49687,-32.037999 298.0625,-57.03125 C 299.41004,-80.732108 293.40866,-91.334688 296.59375,-118.40625 C 288.56436,-103.05574 295.70316,-74.033321 289.21875,-70.25 C 277.33593,-89.497038 266.2028,-100.67708 254.6875,-122.4375 C 263.27367,-93.164708 283.16574,-69.738754 297.3125,-43.0625 C 272.18404,-34.410678 238.28347,-52.859309 209.125,-55.5625 C 240.60833,-44.936467 268.76668,-35.206744 300.25,-32.78125 C 316.15096,-18.105483 330.27215,21.006847 343.625,45.875 C 341.4719,108.26377 344.62086,174.1939 337,232.9375 C 313.98091,202.88967 290.23528,175.08675 269.03125,139.59375 C 265.6162,123.22211 273.7583,116.97668 285.9375,114.25 C 279.93483,115.35253 276.00964,113.27763 267.90625,117.53125 C 265.89135,113.666 272.89722,103.00049 272.6875,95.125 C 268.38006,106.30042 260.38155,114.98858 261.3125,129.65625 C 242.91819,108.47157 248.014,76.846772 245.875,48.4375 C 251.39066,47.218505 254.28985,40.798769 258,35.96875 C 253.72947,39.623763 249.91256,46.103359 244.75,44.40625 L 243.28125,25.65625 L 241.46875,45.15625 C 236.7517,45.674531 231.23801,43.39884 224.5625,37.0625 C 230.32015,45.359665 234.5861,48.056254 240.34375,49.5625 C 242.67154,52.012993 240.7918,89.385787 240.71875,101 C 202.53345,61.035931 171.00746,44.708479 150.6875,14.65625 C 153.85586,24.87419 158.37666,30.990759 162.4375,38.53125 L 146.625,36.3125 C 151.52326,40.360714 157.73048,40.503066 163.53125,41.84375 C 162.8326,46.644072 152.45025,50.05705 145.53125,53.96875 L 162.8125,47.34375 C 166.61011,45.997657 170.3899,45.127806 174.1875,49.5625 L 207.28125,82.625 C 183.102,101.8053 143.92619,103.51271 129.92761,119.35123 C 149.33854,109.81232 186.66862,106.11914 213.875,88.5 C 226.25105,101.42778 241.1227,109.27509 247.34375,131.875 C 247.54893,137.86106 234.47997,137.04421 223.8125,138.5 C 233.12273,139.32828 242.43976,142.2963 251.75,139.59375 C 263.09393,148.57314 267.78276,162.51935 275.625,174.125 C 241.52174,173.80159 203.60441,202.19666 129,214.9375 C 181.73333,216.15395 260.21031,174.4277 281.875,185.90625 C 307.87024,216.50085 319.12458,251.87603 334.8125,286.21875 L 329.90625,627.8125 C 343.73874,645.1585 354.63369,611.57835 371.40625,629.875 C 369.14102,540.71898 362.20631,453.12359 365.1875,362.21875 C 423.72747,273.85277 453.55585,254.59465 500.03125,196.21875 C 528.57503,191.20925 548.16081,183.21312 568.5,175.46875 C 548.49755,178.65992 522.8697,185.6161 510.40625,183.78125 C 536.77744,153.13011 536.1718,147.74634 548,137.78125 C 562.92586,134.29326 576.88064,125.51432 593.15625,122.875 C 579.64264,120.97828 566.50544,129.32996 551.90625,129.84375 C 555.57622,116.69947 566.90078,105.52336 576.5,93.46875 C 579.88621,89.21641 582.19629,85.927639 593,81.65625 C 589.21268,81.844305 585.18907,83.127049 581.625,84.96875 C 583.36648,81.302062 582.76237,77.179698 583.28125,73.8125 C 581.88851,78.693131 580.35347,83.35604 578.21875,87 C 576.4998,88.17652 574.9912,89.471046 573.78125,90.8125 C 566.72904,98.63116 559.1187,108.83531 551.90625,117.375 C 545.51944,99.807693 553.78646,86.247325 557.28125,71.375 C 547.15146,84.120264 540.47931,104.87691 543.625,123.59375 C 543.21681,130.53034 529.57114,141.98672 512.625,159.84375 C 510.50068,147.18903 517.44692,122.93717 519.3125,100.0625 C 509.9441,122.43947 504.97682,146.64808 504.1875,167.1875 C 494.50475,180.82606 485.99876,185.82969 475.15625,200.375 C 471.50147,172.34619 470.51915,120.86569 469.53125,104.5625 C 467.93626,106.4653 466.345,115.63973 464.75,123.0625 C 459.60401,119.77808 455.18472,110.62303 450.40625,110.25 C 455.53219,118.49396 460.64507,126.82825 464.8125,138.90625 C 463.49991,164.21385 468.10445,191.7659 464.78125,210.75 C 450.18956,227.53868 438.73884,238.821 428.03125,248.8125 C 426.47073,234.55565 425.02467,218.49909 422.625,200.1875 C 419.60488,177.14126 422.65603,154.78437 421.1875,147.59375 C 418.45627,163.9577 417.24668,182.34971 416.65625,200.59375 C 415.94571,222.54979 423.86779,220.78346 415.8125,262.03125 C 398.99501,279.68929 383.81717,301.6744 365.1875,314.5 L 361.03125,104.9375 C 370.22867,95.855091 373.18031,81.765839 377.8125,69.03125 C 383.64503,59.967174 393.30014,54.080898 405,49.90625 C 418.30693,45.097952 432.24618,39.045825 446.53125,32.28125 C 460.54378,31.874172 474.43831,31.428497 483.65625,30.0625 L 468.21875,25.65625 C 489.14514,14.791562 512.55904,1.8355225 527.375,-8.15625 L 522.96875,-9.625 C 496.1315,7.8839286 460.08938,22.438447 433.65625,31.53125 L 450.1875,9.125 C 441.14826,12.826079 434.07846,36.129529 389.9375,46.625 C 389.23346,36.434352 394.05628,27.614646 396.90625,18.3125 C 386.4299,28.371639 365.44882,77.960314 360.15625,80.4375 L 360.90625,6.5625 C 369.88953,0.78392673 373.96803,-13.580071 379.28125,-25.78125 C 387.03129,-38.353038 394.48492,-44.661201 403.15625,-44.53125 C 411.60897,-44.387014 420.07853,-50.357212 428.53125,-55.90625 C 452.43819,-73.971034 469.81395,-48.808554 509.75,-56.28125 C 487.42941,-55.279777 474.29243,-62.187143 458.28125,-66.59375 C 472.37684,-70.685549 480.74873,-77.220458 488.0625,-84.21875 C 476.54086,-77.961332 464.3,-72.318554 445.0625,-72.8125 C 451.20899,-85.776526 452.18526,-100.22928 460.125,-109.5625 C 443.21132,-98.4925 440.8945,-61.48522 402.0625,-52.625 C 416.26697,-72.622865 412.24822,-98.20587 423.375,-122.0625 C 410.07658,-105.83764 412.85017,-78.69324 395.8125,-61.0625 C 403.94476,-84.234449 396.42832,-105.6577 396.53125,-127.9375 z "
           id="path3831" />
      </g>
      <g
         transform="translate(794.07484,0)"
         id="g3775">
        <path
           style="fill:#ffffff;fill-opacity:1;fill-rule:evenodd;stroke:#000000;stroke-width:1px;stroke-linecap:butt;stroke-linejoin:miter;stroke-opacity:1"
           d="M 74.965108,423.85571 L 626.56022,423.85571 L 624.70923,479.38542 L 613.60329,509.92676 L 604.34834,489.56587 L 595.09338,532.13864 L 569.17952,511.77775 L 555.29709,558.978 L 532.15971,537.69161 L 507.17134,584.89187 L 482.18298,551.57404 L 453.49263,597.8488 L 427.57876,558.978 L 400.7394,605.25276 L 379.45301,565.45647 L 343.68689,611.73123 L 332.25276,566.38196 L 299.86043,604.32727 L 286.9035,561.75449 L 248.0327,596.9233 L 242.47973,549.72305 L 213.78938,585.81736 L 202.68344,532.13865 L 168.44012,565.45647 L 156.40868,509.92676 L 130.49482,545.09558 L 117.53788,477.53443 L 98.102486,512.70325 L 74.039612,476.60893 L 74.965108,423.85571 z "
           id="path3773" />
        <path
           style="opacity:1;fill:#040404;fill-opacity:1;fill-rule:nonzero;stroke:none;stroke-width:10.62992096;stroke-linecap:round;stroke-linejoin:miter;stroke-miterlimit:4;stroke-dasharray:none;stroke-dashoffset:0;stroke-opacity:1"
           d="M 65.71875,393.3125 L 65.71875,512.71875 L 78.65625,512.71875 L 78.65625,427.5625 L 621,427.5625 L 621,512.71875 L 633.96875,512.71875 L 633.96875,393.3125 L 621,393.3125 L 621,418.3125 L 78.65625,418.3125 L 78.65625,393.3125 L 65.71875,393.3125 z "
           id="rect3766" />
      </g>
      <path
         d="M 998.27468,443.4375 C 984.82393,443.4375 973.93093,458.6278 973.93093,477.34375 C 973.93093,496.05969 984.82394,511.25001 998.27468,511.25 C 1011.7254,511.25 1022.6497,496.05968 1022.6497,477.34375 C 1022.6497,458.62781 1011.7254,443.4375 998.27468,443.4375 z M 994.33718,451.6875 C 1001.8725,451.69248 1009.8948,460.49563 1013.0247,472.75 C 1016.4784,486.27207 1012.6962,498.90646 1004.5559,500.96875 C 996.41566,503.03105 986.9784,493.74081 983.52468,480.21875 C 980.07096,466.69668 983.8844,454.06229 992.02468,452 C 992.78783,451.80666 993.55767,451.68698 994.33718,451.6875 z M 1051.064,444.69106 C 1033.1659,439.91336 1024.5986,454.16774 1031.5632,470.12677 L 1031.5632,507.00855 L 1028.5957,507.00855 L 1028.1718,513.36748 L 1070.9886,512.51962 C 1071.4796,504.09056 1069.2998,493.76798 1059.9665,489.20356 C 1056.5485,477.86566 1059.4628,474.44299 1065.0536,474.36606 C 1067.8126,467.27101 1064.9672,465.07989 1058.6947,465.88749 C 1049.5401,468.53035 1050.4721,483.45254 1056.1511,493.86677 C 1057.511,497.76609 1059.1733,501.58979 1056.1511,506.58463 L 1042.1615,506.1607 C 1040.7848,487.01402 1041.8545,469.49822 1047.2486,454.86534 C 1053.9837,449.91297 1051.9159,447.4757 1051.064,444.69106 z M 1076.9236,495.98641 L 1080.739,495.98641 C 1081.3933,506.61167 1091.543,505.6052 1096.8482,502.34534 C 1100.538,494.70677 1097.3863,488.79322 1092.185,484.96427 C 1087.0979,482.6571 1082.0107,480.01294 1076.9236,474.36606 C 1068.9431,462.44977 1071.4376,439.19454 1098.5439,445.11499 C 1101.874,450.66278 1110.4048,447.10936 1118.0447,445.11499 C 1116.0887,451.97968 1113.0478,458.30193 1106.5986,462.91999 C 1104.939,457.99725 1098.511,455.73521 1092.8192,456.9832 C 1090.5645,453.40999 1082.4906,450.65133 1079.0432,455.7132 C 1078.1605,462.69764 1086.3724,469.99629 1094.3047,472.24641 C 1104.7362,476.95815 1115.7512,479.677 1113.8054,493.86677 C 1112.7501,505.40638 1101.4346,513.12479 1093.0329,513.79141 C 1079.0126,513.41745 1075.1473,506.51529 1076.9236,495.98641 z M 1121.4361,444.69106 L 1121.4361,462.07213 L 1127.3711,461.6482 C 1131.647,454.99668 1137.2925,455.87752 1143.827,461.6482 C 1148.7401,476.23066 1117.8728,499.09362 1113.8054,512.51962 L 1158.3179,512.94355 C 1164.5859,509.69343 1164.3399,496.26903 1157.47,491.74713 L 1155.3504,499.80177 L 1137.4681,500.2257 C 1142.4859,484.18219 1154.0295,460.88046 1162.1332,454.01749 L 1162.5572,444.69106 L 1151.1111,444.69106 C 1147.7197,448.64775 1144.3282,448.64771 1140.9368,444.69106 L 1121.4361,444.69106 z M 1165.5247,444.69106 L 1165.9486,451.04999 C 1176.2124,452.61772 1161.9264,490.31626 1185.8732,493.01891 C 1189.3675,505.6271 1170.002,503.21211 1168.0682,512.94355 L 1196.0475,512.51962 C 1199.4235,493.4924 1200.9201,469.85241 1210.0372,450.20213 L 1210.0372,445.11499 L 1202.4064,445.11499 C 1193.6814,450.67153 1199.0955,488.68334 1182.4818,487.08391 L 1182.4818,444.69106 L 1165.5247,444.69106 z M 1214.2764,451.02201 C 1213.1033,445.49603 1218.7225,450.31514 1217.8025,444.63774 C 1224.84,444.35559 1224.8056,444.29412 1225.0066,448.37443 C 1231.5508,448.27086 1233.3069,444.69093 1237.8355,444.68184 C 1241.1848,444.67512 1243.8063,447.83167 1248.6147,448.08249 C 1253.8176,449.01239 1249.9202,443.9921 1254.0977,444.63774 C 1259.5303,452.1115 1260.2739,462.27483 1255.3975,476.90963 C 1254.6063,491.95477 1253.7552,507.05675 1262.6043,512.94355 L 1245.4872,512.94355 C 1238.5794,503.87262 1239.2947,493.11478 1245.9111,490.89927 C 1245.5053,462.78893 1248.0256,452.52207 1238.0164,451.04999 C 1227.4977,450.20016 1230.8916,470.99221 1228.2661,482.4207 C 1231.1836,488.60596 1226.859,507.54218 1238.0164,512.94355 L 1214.0911,512.62626 L 1213.8525,506.58463 L 1217.6679,506.1607 L 1217.2439,451.89784 L 1214.2764,451.02201 z M 1265.4468,513.15508 L 1293.0572,512.96978 L 1292.5013,503.14862 C 1277.9145,503.96002 1279.0396,495.84975 1278.7887,478.87368 C 1278.0205,464.68935 1281.978,450.6843 1294.5397,451.26326 C 1305.0636,449.97702 1309.3469,473.0103 1294.9103,475.7235 C 1290.716,475.48518 1288.854,472.62297 1288.6099,467.9407 C 1281.2122,468.28059 1282.2641,475.48582 1282.4948,482.02387 C 1297.8807,484.59311 1297.1358,478.21682 1303.0637,482.57978 C 1305.6809,514.20458 1295.8865,505.67735 1296.2074,513.34039 L 1320.297,512.96978 C 1315.2675,510.72836 1315.267,467.57334 1313.0701,444.59229 C 1305.1316,444.36496 1309.1143,448.50253 1303.0637,447.74247 C 1297.6898,444.56498 1291.5748,444.13221 1285.8303,447.74247 C 1281.7818,448.78429 1283.2632,443.29691 1271.7472,444.40698 C 1270.9332,454.96334 1281.0354,448.30318 1272.6737,462.01094 C 1268.2326,476.28519 1274.2012,505.4803 1265.4468,513.15508 z "
         style="fill:#0a0a0a;fill-opacity:1;fill-rule:nonzero;stroke:none;stroke-width:1.08018887;stroke-linecap:round;stroke-linejoin:miter;stroke-miterlimit:4;stroke-dashoffset:0;stroke-opacity:1"
         id="path3779" />
    </g>
  </g>
</svg>