<svg viewBox="-21.25 -25.34 573.77 684.27"><title>Herb Zawichost</title><path d="M0 0h531.269v408.855c-17.312 146.938-145.96 224.93-263.261 224.723C151.199 633.171 17.895 557.316 0 408.855z" style="stroke:none;fill-rule:evenodd;fill:#222"/><path d="M12.656 13.296h506.981V411c-8.493 66.308-35.938 98.23-63.266 132.941V162.617l3.461-2.235c.539-12.277 1.215-20.847.352-31.242-2.586-6.57-20.2-2.597-22.375-3.226v20.168h-17.567v-18.524c-1.039-2.656-22.996-3.301-24.308 0v18.945h-18.207v-16.066c-4.547-11.918-15.083-1.109-23.333-3.984v34.054c1.254 1.922 4.434 3.332 7.891 3.055v152.52H316.5v-91.571h-98.035v91.16h-46.61V165.183c2.715-.512 6.215-.777 8.02-2.652 2.16-4.813-.453-22.598-.68-33.895-6.594-1.859-11.312-5.531-24.562.512-1.137 3.789 1.988 17.305-.68 18.027-3.055 3.012-10.551 3.981-12.41 1.703-3.129-.32-1.477-16.851-4.434-20.242-10.422-2.578-24.472-1.398-24.828 1.192v18.582H97.195l-1.19-20.461-25.064.679v36.114c2.172.906 5.821 1.363 8.903 1.363v378.859c-37.004-37.16-64.375-99.925-67.156-133.961V13.3zm222.567 61.149c4.148 1.453 8.296 1.453 12.445 1.242a14003 14003 0 0 1-9.957-3.734q-.93-2.332-1.867-4.668c-11.571-1.715-10.551-7.032-10.27-12.137 3.524 3.422 7.055 5.809 10.578 5.91-1.168-4.281-.652-7.832-.929-12.758 9.75.516 13.277-7.984 20.851-4.043l4.977-1.863c6.718 5.109 15.238 3.926 23.652 3.109 7.477.297 14.227 1.536 15.871 9.336-2.074 4.977-5.601 8.403-12.449 9.649-5.289 2.281-5.32 6.543-.652 7.996 5.496 4.668 7.293 8.496 7.812 13.168q3.825 9.393 11.516 5.601c4.562-.203 7.82-1.718 10.89-3.421q2.486-1.712-2.488-3.422c-10.602-11.492-6.258-15.242-6.469-20.543 2.297-7.188 5.953-11.61 14.875-14.098 7.688.016 13.793 1.317 19.297 10.676q5.912 12.757 3.11 25.519-2.955 11.825-.934 22.407c.727 4.148 3.734 8.711 2.801 13.691-2.903.309-7.883-1.762-9.957-5.602-2.453 6.575.484 14.051 3.109 21.473 3.524 4.461 3.734 6.43.621 5.91-4.359.571-7.406-1.543-10.269-4.043q-4.823-6.843-3.422 0c.512 4.778 2.484 7.368 4.668 9.649.933 4.461-.934 6.222-4.977 4.043-2.902-1.656-4.656-4.219-7.562-5.879-.828-.102-2.496-3.281-3.325-3.383-3.519 10.586-9.66-1.059-13.691-6.914-1.867-3.109-2.801-3.734-4.668-1.863-1.035-.207-3.75-2.09-4.785-2.297 2.488 3.629 6.656 8.937 9.144 12.57v1.863q-1.4 1.242-2.8 2.489c1.238 6.238 4.664 6.648 8.402 6.222 1.863-.722 3.734-1.449 5.602-2.175 3.324-.622 6.226.828 8.714 4.355-.75 2.695-.593 3.734-3.109 3.109-3.109-.203-3.734 1.243-1.867 4.356l.621 7.781q-1.711 1.242-3.422 0-1.711-2.954-3.422-.933l-1.863 4.043q-2.174 1.553-4.356-.622-.417-1.967-2.488-3.109c-1.176-1.141-1.867-2.281-2.488-3.422-.207-3.316-1.242-3.734-3.109-1.242-1.864.727-3.735 1.449-5.602 2.176-4.586-4.461-.43-8.922 4.977-13.383q-.31-2.955-3.11-4.668l-6.222 1.863c.207-3.84-.309-6.949-.93-9.957l-3.11-4.976c-3.628 1.035-6.16 4.281-6.468 10.3-.207 4.356.14 8.993-.063 13.348 3.219.613 6.227.922 7.778 4.043.722 2.902.207 5.395-1.555 7.469-3.75 2.699-1.668 4.945 1.242 6.812 2.801 2.489 5.184 2.207 7.156-.277q-.462-4.043-3.422-5.602c.883-2.07 3.184-3.379 7.469-2.8q6.222.153 7.469 7.777c-.043 4.777-2.887 7.648-4.852 9.926.414 1.449 2.36 2.211 3.606 2.832-1.113 2.082-3.551 3.488-3.11 5.535.934 1.863 3.11.996 4.043 2.863-.621 4.098-4.461 8.141-8.402 8.09-3.422.203-6.43-.828-9.023-3.109q-2.802-2.487-5.602-2.489c-2.066 7.688-6.324 11.004-10.891 13.692v-6.223q-1.399-6.468-5.289-1.863c-7.914 3.453-13.25 4.324-16.183 2.801q-2.486 1.241-4.977 2.488l-1.863-4.668c-1.141-.203-2.281-.414-3.422-.621-1.973-3.11-2.797-6.426-2.273-11.203 2.8-3.008 5.457-4.492 9.086-5.012 4.668.063 8.496-.816 13.168 1.898.312-3.628.453-7.261-.063-10.89-3.121-6.336-4.547-9.758-6.223-12.758-1.132-3.445-6.769-5.094-12.136-6.844-1.032 1.969.109 4.356 1.554 7.157q2.174 6.223-1.863 8.714c-6.223-.414-12.445-3.714-18.672-3.734-3.961-.992-4.605 2.434-5.91 4.977q-4.665 6.066-9.336 5.91c-4.148-2.176-4.148-3.942 0-5.289q3.111-.464 1.242-3.422c-5.39-.778-10.359.047-15.754 1.758-.945-3.754-.797-5.786 2.059-6.739 3.023-1.007 4.09-2.093 0-2.8q-4.06-.968-4.043-2.801c.668-1.489 2.082-2.989 4.668-3.422 3.473.379 4.305-.656 2.488-3.11q-2.953-4.665 2.801-4.355c4.047.195 7.367 3.313 10.578 6.848 3.945 4.265 6.969 2.273 9.25-.117-3.109-5.395-5.93-10.36-7.383-15.754-1.98-7.481-.316-9.864 1.864-11.516q6.381-3.89 18.984-.309c6.43 2.02 11.824 2.231 14.937-1.554q3.733-3.423 0-5.602c-9.718-3.902-13.804-14.851-19.605-23.652q-6.07-.001-10.891 3.73c.129 4.875.704 9.75-.933 14.629-3.317 1.035-5.395 0-6.223-3.109q-1.243-7.78-3.734-3.11-5.133 9.802-9.024 9.649c-2.496-3.942-1.351-7.883.309-11.824q-5.135-2.175-10.27.621-2.8-.62-1.867-2.489 4.512-5.442 9.024-8.402c-1.348-1.863-2.696-3.734-4.043-5.601q-1.243-3.576 2.488-2.176c3.113-.418 5.5 1.343 7.777 3.422 1.035 3.836 3.735 4.769 8.09 2.8 3.317-2.902 7.57-5.808 10.891-8.714-.41-2.18-3.211-3.629-5.289-4.977-3.465-3.754-.289-4.188 1.554-5.289q-.307-3.731-3.109-7.469c-8.105 4.891-10.383 4.676-11.824 3.735q-7.002-.464-2.801-3.422c1.242-3.754 2.488-4.192 3.734-5.289-3.421.203-6.843.828-10.269 1.863-3.109-.309-3.735-1.449-1.863-3.422.824-3.152 2.382-4.473 4.043-5.91q1.393-2.485-2.176-4.977-7.002-1.71-2.801-4.668c3.734-3.523 7.469-1.519 11.203-.621q2.953 4.975 3.422 0-1.241-3.111-2.488-6.222-1.553-3.732 3.109-2.489c3.738-.316 5.293 2.278 6.535 5.289q1.4 5.913-.933 11.825c4.668 5.601 9.336 10.062 14.004 14.004 3.007 3.746 6.015 3.117 9.023 1.867l4.355-4.977" style="stroke:none;fill-rule:evenodd;fill:#ec2a32"/><path d="M211.391 110.703c3.863-2.5 7.726-4.996 11.589-7.496-.121-.524-.402-.993-1.808-1.086q-.662.78-1.328.601-1.36-.204-.481-1.691l1.207-1.207c.121-2.141-1.379-1.094-1.722-.813-4.094 4.75-7.684 7.821-13.489 10.004-1.203.559-2.414.481-3.621-.238q-1.928-2.66-3.863-5.32c-2.078-3.348-4.574-.481-2.535 1.449l6.398 5.32c.438 1.164 0 1.445-.844 1.328-2.414 0-4.667.156-7.085.156-.625.524-.665.485.199 1.008 2.465.012 4.922.41 7.605.641q1.025 1.442 2.051 0c1.262-.734 2.656-1.004 4.344-.238.965.722 1.902 1.476 2.656 2.418.762.078 1.418-.028 1.324-1.45q-.603-.72-1.207-1.449-.654-1.125.602-1.933zm-10.262 5.445c-1.32.461-2.688 1.387-4.227 3.988-.125.813 1.242 1.098 4.106.844 1.719-1.492 1.386-3.133.117-4.836zm21.375-33.141c-2.891-4.699-8.399-9.961-15.094-15.48-1.062-2.227-1.687-3.094-1.672-5.863-.562 1.73-1.023 1.836-1.586 3.566-2.043-1.062-3.687-2.926-5.191-5.078-5.473-2.535-3.699.363-3.379 2.176 4.324 2.711 8.109 5.691 11.348 8.949q-1.401 3.064-3.621 5.32c-1.43 2.531-.235 2.196 1.328 1.449.769-1.929 1.793-3.777 3.379-5.441 3.218 3.816 6.437 7.727 9.66 10.156 1.847 1.746 3.523 2.305 4.828.239zm13.644-19.113q-5.266 2.83-8.089-2.902 3.839 2.263 8.089 2.902m2.172-5.562c-.816-2.813-.922-5.387 3.985-6.289 1.687-.211 3.379-.934 5.07-2.782 1.312-2.73 4.156-3.734 6.832-2.66 2.383 2.668 4.09 4.688 8.379 6.262 2.664.515 5.152 2.676 7.004 8.371-1.867.812-3.403-.203-4.188-1.02 1.875 3.934 3.578 9.45 4.91 14.2-1.929.597-3.964-.602-5.894-1.36 1.246 3.387 2.594 7.895 3.844 11.282-.723.542-1.957.234-2.68-.305-.16 3.305.184 6.918.023 10.222-1.671-.441-3.246-1.324-4.101-5.32q-2.028-1.167-1.207 1.328c1.207 4.328 2.762 8.715-1.567 12.215-.812.176-1.55.934-2.656-1.207q-.298-5.32-.601-10.641c-1.231-1.742-2.364-2.835-2.778.602-.574 5.242-.668 10.356-4.344 16.445q-1.998 1.834-2.777 0l-.117-5.683c-.496-.672-1.098-1.172-2.414-.481l-3.742 4.473c-1.524.824-2.739 1.238-1.809-1.207a6463 6463 0 0 1 1.93-7.133c-.293-1.262-.758-2.187-2.414-.723-1.172 1.45-2.168 2.942-4.465 4.11q-2.398 1.288-.723-1.086 1.629-1.63 3.258-3.266c1.285-4.156-.519-4.019-2.773-3.261-1.973 1.812-3.942 3.625-5.918 5.441-1.766.277-3.762.785-1.93-2.539 2.613-2.457 5.23-4.918 7.848-7.375 1.066-2.719.375-3.777-2.899-2.418l-7.847 5.199c-1.637.082-3 .016-1.086-1.812 3.902-2.758 9.132-6.778 13.035-10.629 7.476.824 12.359 1.578 16.304.226 2.313-.972 4.11-2.679 5.071-5.562.777-1.797.062-2.281-1.328-2.176-3.34 0-6.68.406-10.02.406-1.82-.152-4.047-.851-4.23-2.097-.032-1.094-.235-2.051 2.66-2.055 3.359-.461 6.386-1.258 8.933-2.539 1.856-1.688 3.137-3.445.36-5.684-4.305-.48-8.614-.965-12.918-1.449zm23.91 45.238q-.722.177-1.445.359-1.115 2.754-5.07 2.66c-1.321-1.57-2.41-1.25-3.258.965l-6.398 6.41q-3.172 2.297-3.5-1.086c-.297-1.773-.176-3.546 0-5.32q-4.707 3.264-9.418 6.528c5.699 6.011 11.699 11.874 18.355 17.417 4.996 5.29 3.336 8.083.723 10.52l-12.317 5.32c-6.816 4.473-6.136 8.95-2.051 13.426 2.774 2.828 5.551 3.164 8.329 3.141 7.547 3.758 11.179 11.101 13.039 20.074q.479 6.046.965 12.094-.878 3.338-5.313 2.418c-5.594-2.965-8.582-2.996-10.383-1.692-1.336.723-1.011 1.449.965 2.176 4.184-.129 8.371.391 12.559 1.207 2.175 1.535 1.023 1.824-.602 1.934-6.785-.61-12.801-.922-13.402.843q-1.29 1.976.965 2.539 6.818-2.087 13.644-1.328 3.146.852.602 2.418c-2.262.633-5 .797-8.211.481q-5.097 1.454-.239 3.629c5.098.285 9.485-1.082 13.161-4.11 2.531-2.613 4.175-6.41 3.863-12.82-.078-3.504-.16-7.012-.238-10.52q-.135-4.377-1.688-5.199c-4.601-4.703-4.418-8.566-.965-11.851.805-.524 1.43-.867 2.235-1.395-2.453-20.359-3.856-40.898-4.891-61.258zm-59.402 71.754c-2.891 3.109-4.93 3.074-6.105-.106zm1.18-4.828c-2.426-1.43-4.856-2.325-7.285-2.039-1.434 1-.86 2.003 0 3.003 3.23 0 5.484-.39 7.285-.964m41.476-29.629c-5.328.621-12.062-.617-20.254-2.574-9.808-2.051-12.265.886-13.179 4.293-.285 5.882 1.785 10.785 4.929 15.242 1.297 3.922 3.34 7.8-.105 12.023-2.715.609-5.465.828-8.465-1.715-1.32-1.394-3.035-2.789-4.93-4.183q-2.732-.751-1.175 2.359 2.355 2.466 6 3.648c-.055 5.833 2.386 7.797 1.714 11.7.641.679 1.286.64 1.93-.106.805-1.676 1.91-3.277 1.5-5.258 1.141-1.32 2.141-1.75 3.856-1.394 2.726-.188 6.379-.988 10.824-.32 1.75.281 3.5.781 5.25 2.789.523 1.269 1.722 1.195 3.105.75 1.571-1.95 2.25-4.168.961-6.977l-4.39-9.125c-2.555-4.043-1.766-8.086.535-12.129 3-3.648 7.179-6.512 11.894-9.015zM200.578 67.5c-1.422.355-3.461 1.339-6.516 1.425q-1.829 2.293.813 2.141c.797.68 3.715-.609 6.414-2.648.234-.442-.949-.473-.711-.918m-27.469 356.207c16.211-.211 31.723 8.308 45.696 36.054v12.532h-28.36c-5.086-.934-4.07-5.43-.094-5.946-7.734-3.551-12.386 3.11-7.117 8.457-4.761 5.012.028 11.039 6.489 8.453-2.614-1.214-3.176-4.867.722-5.316h28.36v86.082h-28.36c-5.086-.934-4.07-5.43-.094-5.945-7.734-3.551-12.386 3.109-7.117 8.457-4.761 5.011.028 11.039 6.489 8.453-2.614-1.215-3.176-4.867.722-5.317h28.36v47.719c-15.719-3.633-31.094-7.965-45.696-13.832V423.703zm189.391 0c-16.211-.211-31.723 8.308-45.695 36.054v12.532h28.363c5.086-.934 4.07-5.43.094-5.946 7.734-3.551 12.386 3.11 7.117 8.457 4.762 5.012-.028 11.039-6.492 8.453 2.617-1.214 3.175-4.867-.723-5.316h-28.363v86.082h28.363c5.086-.934 4.07-5.43.094-5.945 7.734-3.551 12.386 3.109 7.117 8.457 4.762 5.011-.027 11.039-6.492 8.453 2.617-1.215 3.176-4.867-.723-5.317h-28.363v47.719c15.719-3.633 31.094-7.965 45.695-13.832V423.703" style="stroke:none;fill-rule:evenodd;fill:#fff101"/><path d="M211.391 110.703c3.863-2.5 7.726-4.996 11.589-7.496-.121-.524-.402-.993-1.808-1.086q-.662.78-1.328.601-1.36-.204-.481-1.691l1.207-1.207c.121-2.141-1.379-1.094-1.722-.813-4.094 4.75-7.684 7.821-13.489 10.004-1.203.559-2.414.481-3.621-.238q-1.928-2.66-3.863-5.32c-2.078-3.348-4.574-.481-2.535 1.449l6.398 5.32c.438 1.164 0 1.445-.844 1.328-2.414 0-4.667.156-7.085.156-.625.524-.665.485.199 1.008 2.465.012 4.922.41 7.605.641q1.025 1.442 2.051 0c1.262-.734 2.656-1.004 4.344-.238.965.722 1.902 1.476 2.656 2.418.762.078 1.418-.028 1.324-1.45q-.603-.72-1.207-1.449-.654-1.125.602-1.933zm-10.262 5.445c-1.32.461-2.688 1.387-4.227 3.988-.125.813 1.242 1.098 4.106.844 1.719-1.492 1.386-3.133.117-4.836zm21.375-33.141c-2.891-4.699-8.399-9.961-15.094-15.48-1.062-2.227-1.687-3.094-1.672-5.863-.562 1.73-1.023 1.836-1.586 3.566-2.043-1.062-3.687-2.926-5.191-5.078-5.473-2.535-3.699.363-3.379 2.176 4.324 2.711 8.109 5.691 11.348 8.949q-1.401 3.064-3.621 5.32c-1.43 2.531-.235 2.196 1.328 1.449.769-1.929 1.793-3.777 3.379-5.441 3.218 3.816 6.437 7.727 9.66 10.156 1.847 1.746 3.523 2.305 4.828.239zm13.644-19.113q-5.266 2.83-8.089-2.902 3.839 2.263 8.089 2.902zm2.172-5.562c-.816-2.813-.922-5.387 3.985-6.289 1.687-.211 3.379-.934 5.07-2.782 1.312-2.73 4.156-3.734 6.832-2.66 2.383 2.668 4.09 4.688 8.379 6.262 2.664.515 5.152 2.676 7.004 8.371-1.867.812-3.403-.203-4.188-1.02 1.875 3.934 3.578 9.45 4.91 14.2-1.929.597-3.964-.602-5.894-1.36 1.246 3.387 2.594 7.895 3.844 11.282-.723.542-1.957.234-2.68-.305-.16 3.305.184 6.918.023 10.222-1.671-.441-3.246-1.324-4.101-5.32q-2.028-1.167-1.207 1.328c1.207 4.328 2.762 8.715-1.567 12.215-.812.176-1.55.934-2.656-1.207q-.298-5.32-.601-10.641c-1.231-1.742-2.364-2.835-2.778.602-.574 5.242-.668 10.356-4.344 16.445q-1.998 1.834-2.777 0l-.117-5.683c-.496-.672-1.098-1.172-2.414-.481l-3.742 4.473c-1.524.824-2.739 1.238-1.809-1.207a6463 6463 0 0 1 1.93-7.133c-.293-1.262-.758-2.187-2.414-.723-1.172 1.45-2.168 2.942-4.465 4.11q-2.398 1.288-.723-1.086 1.629-1.63 3.258-3.266c1.285-4.156-.519-4.019-2.773-3.261-1.973 1.812-3.942 3.625-5.918 5.441-1.766.277-3.762.785-1.93-2.539 2.613-2.457 5.23-4.918 7.848-7.375 1.066-2.719.375-3.777-2.899-2.418l-7.847 5.199c-1.637.082-3 .016-1.086-1.812 3.902-2.758 9.132-6.778 13.035-10.629 7.476.824 12.359 1.578 16.304.226 2.313-.972 4.11-2.679 5.071-5.562.777-1.797.062-2.281-1.328-2.176-3.34 0-6.68.406-10.02.406-1.82-.152-4.047-.851-4.23-2.097-.032-1.094-.235-2.051 2.66-2.055 3.359-.461 6.386-1.258 8.933-2.539 1.856-1.688 3.137-3.445.36-5.684-4.305-.48-8.614-.965-12.918-1.449zm23.91 45.238q-.722.177-1.445.359-1.115 2.754-5.07 2.66c-1.321-1.57-2.41-1.25-3.258.965l-6.398 6.41q-3.172 2.297-3.5-1.086c-.297-1.773-.176-3.546 0-5.32q-4.707 3.264-9.418 6.528c5.699 6.011 11.699 11.874 18.355 17.417 4.996 5.29 3.336 8.083.723 10.52l-12.317 5.32c-6.816 4.473-6.136 8.95-2.051 13.426 2.774 2.828 5.551 3.164 8.329 3.141 7.547 3.758 11.179 11.101 13.039 20.074q.479 6.046.965 12.094-.878 3.338-5.313 2.418c-5.594-2.965-8.582-2.996-10.383-1.692-1.336.723-1.011 1.449.965 2.176 4.184-.129 8.371.391 12.559 1.207 2.175 1.535 1.023 1.824-.602 1.934-6.785-.61-12.801-.922-13.402.843q-1.29 1.976.965 2.539 6.818-2.087 13.644-1.328 3.146.852.602 2.418c-2.262.633-5 .797-8.211.481q-5.097 1.454-.239 3.629c5.098.285 9.485-1.082 13.161-4.11 2.531-2.613 4.175-6.41 3.863-12.82-.078-3.504-.16-7.012-.238-10.52q-.135-4.377-1.688-5.199c-4.601-4.703-4.418-8.566-.965-11.851.805-.524 1.43-.867 2.235-1.395-2.453-20.359-3.856-40.898-4.891-61.258zm-59.402 71.754c-2.891 3.109-4.93 3.074-6.105-.106zm1.18-4.828c-2.426-1.43-4.856-2.325-7.285-2.039-1.434 1-.86 2.003 0 3.003 3.23 0 5.484-.39 7.285-.964zm41.476-29.629c-5.328.621-12.062-.617-20.254-2.574-9.808-2.051-12.265.886-13.179 4.293-.285 5.882 1.785 10.785 4.929 15.242 1.297 3.922 3.34 7.8-.105 12.023-2.715.609-5.465.828-8.465-1.715-1.32-1.394-3.035-2.789-4.93-4.183q-2.732-.751-1.175 2.359 2.355 2.466 6 3.648c-.055 5.833 2.386 7.797 1.714 11.7.641.679 1.286.64 1.93-.106.805-1.676 1.91-3.277 1.5-5.258 1.141-1.32 2.141-1.75 3.856-1.394 2.726-.188 6.379-.988 10.824-.32 1.75.281 3.5.781 5.25 2.789.523 1.269 1.722 1.195 3.105.75 1.571-1.95 2.25-4.168.961-6.977l-4.39-9.125c-2.555-4.043-1.766-8.086.535-12.129 3-3.648 7.179-6.512 11.894-9.015zM200.578 67.5c-1.422.355-3.461 1.339-6.516 1.425q-1.829 2.293.813 2.141c.797.68 3.715-.609 6.414-2.648.234-.442-.949-.473-.711-.918zm-27.469 356.207c16.211-.211 31.723 8.308 45.696 36.054v12.532h-28.36c-5.086-.934-4.07-5.43-.094-5.946-7.734-3.551-12.386 3.11-7.117 8.457-4.761 5.012.028 11.039 6.489 8.453-2.614-1.214-3.176-4.867.722-5.316h28.36v86.082h-28.36c-5.086-.934-4.07-5.43-.094-5.945-7.734-3.551-12.386 3.109-7.117 8.457-4.761 5.011.028 11.039 6.489 8.453-2.614-1.215-3.176-4.867.722-5.317h28.36v47.719c-15.719-3.633-31.094-7.965-45.696-13.832V423.703zm189.391 0c-16.211-.211-31.723 8.308-45.695 36.054v12.532h28.363c5.086-.934 4.07-5.43.094-5.946 7.734-3.551 12.386 3.11 7.117 8.457 4.762 5.012-.028 11.039-6.492 8.453 2.617-1.214 3.175-4.867-.723-5.316h-28.363v86.082h28.363c5.086-.934 4.07-5.43.094-5.945 7.734-3.551 12.386 3.109 7.117 8.457 4.762 5.011-.027 11.039-6.492 8.453 2.617-1.215 3.176-4.867-.723-5.317h-28.363v47.719c15.719-3.633 31.094-7.965 45.695-13.832V423.703z" style="stroke:#222;stroke-width:.216;fill:none"/><path d="M267.027 102.078q3.053-1.858 6.114-10.43c2.968 5.594 6.687 8.949 11.148 10.07a42.2 42.2 0 0 0-.359-13.668c4.113-.312 7.113 10.266 11.507 8.274.477-9.41-4.171-16.258-11.148-21.942-4.125-7.363-5.902-15.187-1.438-21.062-5.941 6.34-12.296 3.133-10.902.422.797-1.551 5.32-4.449 11.063-2.098 1.031.422-.543-2.984-1.961-3.879-4.641-.515-9.407.774-13.301 4.727 3.66 5.394 5.297 10.14 5.23 15.535-1.148 6.465-2.171 14.285-2.359 23.613-4.004 2.074-4.078 6.113-3.594 10.43zm32.137-7.059q23.473 0 33.535-16.769c2.43-5.028 1.586-10.059.278-15.09-1.305-2.422-2.915-3.309-4.219-5.731-6.707-2.98-7.239 10.11-13.946 9.645q6.149 7.541 4.469 15.09c-5.121-1.918-8.012-5.641-8.66-12.016-.559-7.5 2.977-12.438 8.383-16.211 5.609-3.156 13.699-3.281 19.57 4.621 1.883 2.57 4.461 6.977 5.86 16.336.347 6.453-1.207 12.031-2.516 13.133q-2.515 1.114-3.91-1.117-1.255-2.93-2.516-.278-1.535 8.52-5.308 5.868c-3.258-2.887-5.032-2.793-5.309.277 1.402 3.078 2.152 5.781-1.676 5.867q-2.79-1.536-4.469-1.953-4.47-3.91-3.351 2.234.558 5.028-4.469 0c-3.332-3.148-4.68.657-6.426 3.071-1.488 3.168-3.257 3.726-4.75 1.675-1.769-1.675-1.769-3.351-.558-5.027q2.232-1.254 0-3.633zm1.957 14.254c.574 15.344.496 32.488 9.781 35.215 1.676-13.129 1.969-26.844-1.394-37.172-2.887-1.488-.742 18.535-1.953 19.004-.661-.317.507-21.524-6.426-17.047zm-30.227 69.594c2.586 6.883 5.2 13.711 5.833 23.945-.364 4.879-2.036 7.965-4.602 9.82-2.891-11.984-3.008-23.156-1.227-33.765zm2.043-4.703c3.45.035 6.106-.161 8.696-2.051q.82-1.687 0-3.375c-5.969-2.731-10.934-3.445-14.426-1.227-2.461 2.41-4.242 5.907 5.727 6.653zm-3.578-10.34h3.989l.511-9.625-4.808 5.941.304 3.68zm-.043-9.266c3.836-3.246 6.344-7.613 4.95-14.441-1.598-2.098-2.25-1.547-2.473.203-.453 3.734-.469 8.351-2.68 8.562-.101 1.891-.238 3.782.203 5.672zm16.313-98.797c0-7.058 10.433-6.855 11.972 0zm-.406 2.09c.679 4.672 4.445 4.582 10.316 1.235-3.656-.118-7.129-.489-10.316-1.235m-8.805 129.918c1.867 4.731 1.039 7.75 9.82 16.883 3.567 2.262 7.113 3.148 10.129 1.84 1.899-1.578 1.137-1.949 0-2.149-8.551.86-14.441-7.218-19.953-16.574zm6.754-1.84q13.272 4.92 9.207-5.832c-2.203-5.418.101-5.457 3.683-3.988 6.985 5.379 4.547 12.254-1.839 13.711-6.649.766-10.075-.082-11.051-3.887zm55.344-45.894c-4.465-11.727-5.606-26.067-6.641-40.489-.848-.453-1.453.059-1.816 1.547.171 6.715.539 14.059-.543 16.743-1.797-1.094-2.266-6.934-2.364-14.102q-1.044.088-2.09 3.82c.391 19.813 4.336 31.84 13.465 32.481zm-10.829 9.734c-3.472-9.824-5.812-21.879-3.457-43.129-1.074-4.062-2.316-4.457-3.636-3.183l-.18 28.75c-2.961.035-3.59-8.317-2.91-21.383q-.634-6.365-2.727-4.364c-.504 24.27 2.016 42.348 12.918 43.309zm18.2-31.027c-2.774-7.285-3.18-16.156-3.727-24.93q-2.092-1.635-2 1.09c-.234 4.738.871 11.578.453 12.281-.847-.242-1.301.027-1.91-1.18-1.488-.64-1.758-.152-1.547 1.637 1.578 6.168 3.746 11.254 8.735 11.098zm-9.102-17.653c-.121-1.484-.027-2.968.09-4.457-.606.543-1.211.727-1.816.543.089 2.516.668 3.821 1.726 3.911zm-14.851-33.726c1.468 0 2.671.656 2.671 1.465 0 .804-1.199 1.465-2.671 1.465-1.469 0-2.672-.657-2.672-1.465 0-.805 1.199-1.465 2.672-1.465m2.503 10.14c9.129.11 6.653-18.234.731-17.523 2.961 5.746 2.566 11.758-.731 17.523m-21.988 87.129c2.539 2.586 5.86 2.454 4.91 6.204-4.996-.258-3.273-4.133-4.91-6.204m7.367-4.136c.774-2.496 2.93-3.274 6.461-2.325.129.817.172 1.637-.386 2.454-2.266.679-4.157.242-6.075-.129m-14.476-12.668c2.777 2.199 6.219 12.597 10.726 12.277.602.688 1.078 1.418.645 2.453q-1.227-.063-2.453-1.68-1.098.776-1.68 2.582c-1.246-1.511-2.496-1.507-3.746-1.292.266-5.61-4.16-12.168-3.488-14.344zm2.715-2.715c-3.239-4.242-6.621-9.324-10.211-15.637-1.637.59-1.41 3.797-1.293 6.848q-1.292-1.869-2.582-.645c2 4.793 3.726 9.727 5.039 14.864 1.64-.418 1.465-4.473 1.031-9.047 1.945-.243 5.012 1.754 8.012 3.617zm-28.309-39.422q1.677 4.068-1.809 8.656c-.644-1.16-1.808-2.195-1.937-3.488q2.389-.773 3.746-5.168m5.43 1.422c1.164-.164 2.156-.977 1.937-6.332q-2.326 1.032-4.652-1.551c-1.508 4.285-1.293 7.387 2.711 7.883zm11.117-6.336c.219 3.531.289 7.258 2.973 7.625 2.171.734 3.835-1.883 5.296-7.367-.515-1.641-2.414-2.762-2.711-1.289q-.968 1.874-1.937 2.711c-1.074.043-1.637-.602-1.68-1.938q-.965-1.16-1.937.258zm0 7.496a21.6 21.6 0 0 1 0 8.141c-2.238-1.321-4.481-1.723-6.719-6.719-.558-1.031-.43-1.895.387-2.582q1.999.388 3.488 3.359c.754-.172 1.184-.773.902-2.324q.709-.968 1.938.129zm6.074 3.363c1.637 4.301 3.274 11.27 4.91 4.91 1.039 5.622.735 9.559.387 13.442-4.672-4.664-6.828-10.586-5.297-18.352m-11.89 17.321c.601 3.273.558 6.546-.903 9.82-3.34-.149-6.137-1.699-7.754-6.332-.859-2.715 0-4.223 2.586-4.524 2.242.293 2.973 2.707 3.488 5.426.989-.773 1.465-2.41 1.418-4.91l1.161.516zm-1.551-6.332a37.3 37.3 0 0 1 3.746 5.425c1.207.176 2.242.047 2.066-2.195q-2.52-1.418-4.004-4.91-1.677-.452-1.808 1.68m-7.758-10.082c.199 3.101.269 6.203 2.582 9.304q2.455 1.42 5.426-3.359.259-5.104-1.551-4.004-1.097 2.779-3.746 3.488l-.516-5.687q-1.355-1.419-2.195.258m-4.395 9.433q.644 3.102 1.809 3.617c.578-1.465.449-3.402 0-5.554q1.161.256 2.844 1.55c-.063 4.887-.84 8.121-1.938 10.598-2.847.094-3.578-3.738-4.004-8.141l1.289-2.066zm45.762 44.516c.613 0 1.113.383 1.113.851 0 .469-.5.852-1.113.852s-1.109-.383-1.109-.852.496-.851 1.109-.851M74.082 130.773h17.445v22.012h22.278c-.368-7.707.652-15.215 1.191-22.012h19.059l1.535 22.254c6.945-.512 14.062.512 19.988-2.047 2.445-1.957 1.137-13.469 1.703-20.207h16.352c.453 10.199 2.441 28.762 1.363 28.383-.027 4.32-67.289 2.328-100.934 2.898v-31.281zm74.769 64.758.168-30.203h18.942v25.425q-.423 4.946-5.629 5.118zm-44.367-.34h41.125v-29.859c-10.242-.907-23.086-.512-41.976 2.214zm-21.843-30.035v30.031l18.597.168-.168-23.035c.168-4.664-3.41-6.027-8.699-6.652l-9.727-.512zm53.14 59.144h32.078a116.3 116.3 0 0 1-.117-25.586c-12.512-.75-23.449-.937-35.023-.117-1.489.192-3.375.821-4.235 2.594 1.922 2.5 4.469 4.562 5.414 8.371 1.629 3.242 2.137 8.352 1.883 14.738m-52.625-.117c-.035-5.855-.078-11.711-.117-17.566.703-3.657 1.641-6.961 4.234-7.781h37.438c-.41 1.843-1.117 3.691-2.473 5.539-1.754 2.64-3.5 5.57-4.941 8.843-1.34 4.246-1.024 7.664-.469 10.965zm66.871 4.125h17.598l.043 27.473h-17.641zm-14.125-.117h9.535l.821 27.59h-10.36v-27.59zm-51.097 27.594h16.007a82.3 82.3 0 0 1 .118-15.211c.281-6.543.105-9.844-.821-11.672q-2.233-3.241-6.828-1.766-2.234 1.472-4 1.532c-3.03-.524-4.254.91-5.648 1.765-1.219 2.004-1.059 3.735-.703 5.422.035 3.461.625 5.816 1.293 8.016.785 4.558.746 8.293.586 11.906zm20.957 0h11.066v-25.114c-1.273-1.175-3.234-2.671-6.707-2.593-1.293-.137-2.59.922-3.883 2.355-.98 2.492-1.097 5.641-.82 9.078.262 5.598.398 10.985.351 16.27zm28.394 10.828q.58-4.208 2.695-7.653h30.661v28.11c-5.067-.504-8.692-.902-14.782-.387-8.488 1.047-16.976.754-24.316-2.597l.906-17.043q1.647-1.743 4.828-.426zm-49.89-6.438c11.257 3.196 17.753-2.629 32.687 0 1.078 1.911-1.285 6.887 1.703 6.887 0 2.16 5.164-2.371 6.121-.785.821 9.359 2.45 14.863.379 20.43l-40.902-1.145v-25.383zm-.383 29.368h18.59v27.453h-18.59zm21.375 0h41.527v27.105h-41.527zm45.351 1.757c1.164-3.761 11.039-1.402 17.18-2.101-.316 8.824.727 23.199-1.883 26.476-1.418 1.911-9.472.762-15.297 1.145v-25.524zm-20.679 28.477h52.648v27.625H129.93zm-45.528.348 40.918.187c1.723 12.379 1.657 21.699-.187 27.957H87.109l-1.742-2.101c-1.019-6.575-1.976-13.856-.953-26.043zm0 31.101h18.242v27.453H84.402zm66.207-.344h61.86v26.344c-20.575-.086-59.395 3.52-61.285.117-1.657-2.125-.254-17.832-.571-26.461zm-43.789.344h41.352v19.801c-.008 10.777-6.711 6.25-41.352 7.652zm22.399 31.867c12.789-1.617 29.523-2.89 54.054-1.457v27.625H129.41l-.187-26.168zm-44.989-1.629h42.399v27.629c-14.133-.507-30.367.891-42.399-1.527zm3.235 32.25 14.902-.761 1.145 28.98H84.398c-.847-13.73-.304-28.402 3.06-28.215zm19.355-1.148h41.352v27.641l-41.352 1.718v-29.363zm44.137-.172h61.336v28.055c-10.934-14.059-25.125-20.535-43.156-19.863l.066 20.894-18.25.055V412.39zm-20.332 32.945c7.008-2.293 24.445-.761 37.766-1.144 1.32 8.062.82 17.336.613 26.933-12.172 1.977-25.059.594-38.383 1.04v-26.825zm-46.223.75c11.7-3.058 28.379-1.144 42.571-1.718v27.8h-42.57zm.176 29.379h19.113v27.106H84.578zm22.762.192c11.195-2.465 25.679-.821 38.519-1.231 2.676 5.938 2.485 18.766 2.485 28.149h-41.008v-26.914zm-22.938 29.176h43.785v28.667H84.402zm47.09.171h37.289v28.668h-37.289zm19.289-30.582 17.774 1.719-.043 26.426h-17.731v-28.149zm-37.078 94.36H129.2v14.058l-9.375-5.882-6.121-8.172zm55.106 27.168a31.9 31.9 0 0 1-12.243.191c-18.691-5.406-25.558-12.808-25.218-27.551h37.461zm-16.075-59.887h16.2v30.922l-16.2-.309zm-4.781-.191c1.449 9.183 1.992 19.578 1.91 30.804h-42.285v-30.613c16.246-2.055 25.336 2.309 40.371-.188zm-63.332 1.339c6.898-1.726 13.598-2.425 20.09-2.101v31.199c-5.55-3.684-10.707-7.762-15.293-12.414-3.852-3.434-4.637-11.188-4.793-16.68zm137.25-307.226c14.875-1.469 29.23-2.238 42.426-1.469l.629 25.203c-9.871-1.469-28.774.84-43.477 1.68l.418-25.414zm46-1.469h45.156v25.414l-45.156-1.469zm45.16 55.242-15.332.84c-.348-7.211-2.379-14.422-1.051-21.633 1.258-11.55 11.34-.84 16.383-5.039v25.836zm-34.656-24.996 15.754 1.258v24.152h-16.801l1.047-25.414zm-40.328 27.098c-5.461.137-14.281 1.957-16.383-1.258v-25.203h16.383v26.465zM258 284.812l-15.961 1.258v-27.516l16.172.629-.207 25.625zm-36.336 4.621c14.422 2.52 29.266-1.051 43.898 0 .559 8.051.559 17.848 0 25.899h-43.898c0-8.051.84-17.637 0-25.899m91.156 26.192h-43.898c.347-8.469-.559-23.598 1.047-27.45h42.847v27.45zm44.047-182.883c2.535-6.953 10.91-2.746 16.367-4.117 1.325 5.867.262 12.531.262 19.597.027 1.715 7.133 1.071 11.895 1.594 4.121.883 8.816 1.148 12.23-.527 1.414-1.438.441-12.977.66-19.598 4.578-.93 10.754-1.594 17.723-1.063 1.094 7.215 1.027 14.434 0 21.653 7.566-.465 18.582 1.457 22.699-1.395 2.57-1.965 1.164-13.504 1.746-20.254h16.102c.304 8.704-.157 18.961-1.262 30.508l-97.379.133c.836-7.836-3.266-20.91-1.059-26.52zm53.238 64.648q3.535.427 7.766-.515c6.051-1.52 6.633-.856 9.32-1.036 6.371.356 12.731.731 18.641 1.551 1.668-.293 5.047.102 6.254 5.352.82 7.476.703 14.449-.352 21.929-9.945-.421-22.535-2.23-35.246-1.73.457-5.176.403-7.652-.515-11.91-3.571-4.985-7.465-10.059-5.868-13.637zm-42.636-.515c12.656-.403 25.316-.516 37.976 0 1.039 1.148 1.731 2.468 0 5.003a22 22 0 0 0-5.176 3.969c-1.73 1.781-1.843 3.567-1.722 5.352.113 4.312.746 8.285.859 12.601-10.699.457-21.922.805-32.625.344-1.18-9.695-1.351-18.961.688-27.273zm85.258 57.539c-6.489 1.578-14.04.347-20.708.695v-24.387c.407-6.199 18.961-5.258 20.54 1.055l.168 22.633zm-64.403-27.375c3.332.582 6.668-.055 10 1.754 3.449 5.964-.113 17.543-.172 26.316h-9.824v-28.07zm-21.406.175h17.195c-.64 8.77 2.746 13.508 1.754 27.895h-18.949zm84.926 58.254h-40.356v-20.191q5.513.563 8.442-7.477l31.91-.05v27.722zm-44.571-.703-40.355.699V259.32c10.586-1.578 21.172-2.281 31.758-1.051q1.136 1.839-.524 3.684c5.145.172 8.188 1.754 9.121 4.734zm-20.879 30.813h-19.476v-27.125h19.476zm44.219 0h-40.019c.738-3.551.617-9.141-.364-12.692a60.8 60.8 0 0 1-.492-14.433h40.883v27.125zm21.231.113h-17.602l-1.289-27.242c7.051-1.828 13.563-1.324 18.891 4.301zm-34.743-88.477c4.852-1.988 9.126-1.929 12.106 2.629v25.266h-12.106zm-146.41 184.618h52.465v28.824c-4.137.445-11.176 1.262-14.738-.008-6.043-5.293-17.199-16.934-29.008-18.695l-8.711-1.399v-8.718zm-54.64.273h50.289l.215 4.242c.214 3.051-.727 4.555-6.532 4.926-18.734 1.937-24.351 11.336-33.867 20.328q-6.34 1.998-10.101-2.883v-26.617zm-29.36-30.719 52.192 1.231v26.222h-52.192zm55.184.543c17.394 1.504 34.793-1.289 52.191 0v26.91h-52.191zm56.269.375 53.551-1.504v28.317h-53.551zm28.817-32.179h58.988v28.543h-58.988zm-111.453 0 50.289 1.23v27.309h-50.289c.82-9.512-2.055-19.848 0-28.543zm54.91 0h51.922v28.543c-17.305 0-37.903-1.641-51.922 0zm27.726-30.446h53.278v26.91a693 693 0 0 0-53.278 0zm-56.269 0c17.305-.769 34.613-.597 51.922 0v26.91h-51.922zm-56.274-.273h52.465v27.695q-24.17-1.025-52.465 0zm204.7 92.152h41.047v30.172h-41.047zm-4.078 29.746-18.586-.14-.043-22.153c-16.489-1.527-30.071 5.434-40.543 17.383l-.086-24.555h59.262v29.473zm65.511-32.461h-40.23V381.82l40.23-1.074v28.101zm-95.695-26.324 53.02-.859v26.32l-52.805.43c-1.504-9.922-1.574-18.266-.215-25.891m77.758-33.211 17.937.512v28.844h-17.937zm-44.039.274h40.504v27.363l-40.504 1.719v-29.086zm22.562-30.176h39.414v27.183H412.32zm-57.633 0q26.773 1.025 53.551 0v27.183h-53.551zm12.235 125.59h41.859v27.183h-41.859zm85.086 27.457h-40.231v-28h40.231zm-.274 29.425a40.4 40.4 0 0 1-16.578 0v-26.433h16.578zm-59.804.75h38.871c3.172-11.949-3.387-19.593 0-27.453H391.93zm-4.348 0h-20.387v-26.535l20.387-1.504v28.043zm21.746 32.079h-42.133v-28.543c14.043.992 27.871-2.93 42.133 0zm42.68-.274h-38.602v-28.269h38.602zm-16.582 2.742c3.5-2.148 10.871-.644 16.308-.644l.094 11.586c-4.809 5.597-10.351 10.461-16.402 14.82-.86-7.601-.86-18.156 0-25.762m-3.262 29.336h-41.316c1.074-9.367-1.289-18.734 0-27.453l4.32-2.148h36.992v29.605zm-44.582.27h-19.641l-1.289-28.477 20.93-.75zm-20.934 3.535h43.766l.187 9.508c-9.949 5.922-20.085 11.879-30.609 16.176l-9.933-.438c-1.711-.508-2.848-1.734-3.407-6.902v-18.34zm47.844.273h10.871a170 170 0 0 1-10.871 7.34zm-27.164-405.753c8.645.566 41.695-6.29 43.367 5.929.039-2.281.496-4.254 1.723-5.828 7.48-3.519 16.18-4.523 19.644 0v28.668h-19.644c.683-6.703-.77-13.062-1.426-18.367-.004 5.844-1.445 11.461-2.586 18.367h-41.074v-28.766zm-21.09.203 17.672-.2c-1.172 8.852 2.274 21.121.699 28.969h-17.773q-3.312-14.784-.602-28.765zm85.496 276.695h-17.668v-31.262h17.668zM312.738 617.398c-30.465 3.91-57.734 3.91-89.316 0V461.441c10.898-49.906 74.222-49.348 89.316 0zm55.219-20.023c-.137 1.023-.199 2.832 0 3.941 2.352-.863 5.754-2.43 7.852-3.723-2.235-.222-5.614-.418-7.852-.218m-52.184-144.817c-1.007-2.812-2.394-5.605-4.32-8.152 3.184-.606 6.141-1.758 10.027-1.094-2.16 3.328-3.336 4-5.707 9.25zm-100.668-8.816c2.196 3.617 4.079 7.191 5.45 10.976 1.523-3.984 2.824-7.488 5.015-10.976-3.652.554-7.14.433-10.465 0m-51.32 154.406c2 .891 4.723-.695 7.051 0-.106 1.481-.02 3.027-.129 4.512-2.383-.61-5.582-2.504-6.918-4.512" style="stroke:none;fill-rule:evenodd;fill:#fffdfd"/></svg>