<svg xmlns="http://www.w3.org/2000/svg" viewBox="0 0 746.659 894.312"><title>Herb Sieniawa</title><path xmlns="http://www.w3.org/2000/svg" d="m.781 3.994 1.572 574.949c10.021 182.39 172.665 310.813 370.614 310.813 204.403 0 370.346-154.637 370.346-345.36l-.735-540.402z" style="fill:#0964df;fill-opacity:1;stroke:#000;stroke-width:7.46758842;stroke-miterlimit:4;stroke-dasharray:none;stroke-opacity:1"/><path xmlns="http://www.w3.org/2000/svg" d="M376.31 789.62c-145.196 0-382.974-138.53-282.849-411.474-6.858 172.133 117.956 300.376 278.24 300.376 160.283 0 285.096-128.243 278.239-300.376C750.065 651.09 521.506 789.62 376.31 789.62z" style="fill:#fff;fill-opacity:1;fill-rule:evenodd;stroke:#000;stroke-width:3.75;stroke-linecap:butt;stroke-linejoin:miter;stroke-miterlimit:4;stroke-dasharray:none;stroke-opacity:1"/><path xmlns="http://www.w3.org/2000/svg" d="m56.45 30.413-4.574 13.634-4.606-13.623-14.095 2.856 9.495-10.8-9.52-10.778 14.1 2.822L51.824.89l4.607 13.623 14.094-2.856-9.495 10.8 9.52 10.779z" style="fill:#fff;fill-opacity:1;stroke:#000;stroke-width:.36765498;stroke-miterlimit:4;stroke-dasharray:none;stroke-opacity:1" transform="translate(-156.812 35.32)scale(10.19978)"/></svg>