<!-- Created with Inkscape (http://www.inkscape.org/) -->
<svg role="img" viewBox="-17.18 -13.28 831.77 838.25"
   xmlns="http://www.w3.org/2000/svg"
   xmlns:xlink="http://www.w3.org/1999/xlink"
   id="svg2240"
   version="1.0"><title>Herb Jordanów</title>
  <metadata
     id="metadata2245">
    <rdf:RDF>
      <cc:Work
         rdf:about="">
        <dc:format>image/svg+xml</dc:format>
        <dc:type
           rdf:resource="http://purl.org/dc/dcmitype/StillImage" />
      </cc:Work>
    </rdf:RDF>
  </metadata>
  <defs
     id="defs2243">
    <linearGradient
       y2="252.62679"
       x2="-328.68616"
       y1="242.23868"
       x1="-323.6478"
       gradientTransform="matrix(0.194324,0.980937,0.980937,-0.194324,-461.8023,566.4503)"
       gradientUnits="userSpaceOnUse"
       id="linearGradient2813"
       xlink:href="#linearGradient2531" />
    <linearGradient
       y2="250.28239"
       x2="-328.69925"
       y1="241.78635"
       x1="-324.09848"
       gradientUnits="userSpaceOnUse"
       id="linearGradient2811"
       xlink:href="#linearGradient2531" />
    <linearGradient
       y2="294.53494"
       x2="-576.93475"
       y1="302.67395"
       x1="-566.93445"
       gradientTransform="matrix(-0.763888,-0.645349,0.645349,-0.763888,-884.7079,109.2840)"
       gradientUnits="userSpaceOnUse"
       id="linearGradient2809"
       xlink:href="#linearGradient2486" />
    <radialGradient
       r="29.071609"
       fy="210.2256"
       fx="-706.76215"
       cy="210.2256"
       cx="-706.76215"
       gradientTransform="matrix(1.694182,1.492780e-3,-0.174812,2.845644,529.3072,-387.1613)"
       gradientUnits="userSpaceOnUse"
       id="radialGradient2807"
       xlink:href="#linearGradient2486" />
    <linearGradient
       y2="252.62679"
       x2="-328.68616"
       y1="242.23868"
       x1="-323.6478"
       gradientTransform="matrix(0.194324,0.980937,0.980937,-0.194324,-461.8023,566.4503)"
       gradientUnits="userSpaceOnUse"
       id="linearGradient2805"
       xlink:href="#linearGradient2531" />
    <linearGradient
       y2="250.28239"
       x2="-328.69925"
       y1="241.78635"
       x1="-324.09848"
       gradientUnits="userSpaceOnUse"
       id="linearGradient2803"
       xlink:href="#linearGradient2531" />
    <linearGradient
       y2="294.53494"
       x2="-576.93475"
       y1="302.67395"
       x1="-566.93445"
       gradientTransform="matrix(-0.763888,-0.645349,0.645349,-0.763888,-884.7079,109.2840)"
       gradientUnits="userSpaceOnUse"
       id="linearGradient2801"
       xlink:href="#linearGradient2486" />
    <radialGradient
       r="29.071609"
       fy="210.2256"
       fx="-706.76215"
       cy="210.2256"
       cx="-706.76215"
       gradientTransform="matrix(1.694182,1.492780e-3,-0.174812,2.845644,529.3072,-387.1613)"
       gradientUnits="userSpaceOnUse"
       id="radialGradient2799"
       xlink:href="#linearGradient2486" />
    <linearGradient
       y2="252.62679"
       x2="-328.68616"
       y1="242.23868"
       x1="-323.6478"
       gradientTransform="matrix(0.194324,0.980937,0.980937,-0.194324,-461.8023,566.4503)"
       gradientUnits="userSpaceOnUse"
       id="linearGradient2797"
       xlink:href="#linearGradient2531" />
    <linearGradient
       y2="250.28239"
       x2="-328.69925"
       y1="241.78635"
       x1="-324.09848"
       gradientUnits="userSpaceOnUse"
       id="linearGradient2795"
       xlink:href="#linearGradient2531" />
    <linearGradient
       y2="294.53494"
       x2="-576.93475"
       y1="302.67395"
       x1="-566.93445"
       gradientTransform="matrix(-0.763888,-0.645349,0.645349,-0.763888,-884.7079,109.2840)"
       gradientUnits="userSpaceOnUse"
       id="linearGradient2793"
       xlink:href="#linearGradient2486" />
    <radialGradient
       r="29.071609"
       fy="210.2256"
       fx="-706.76215"
       cy="210.2256"
       cx="-706.76215"
       gradientTransform="matrix(1.694182,1.492780e-3,-0.174812,2.845644,529.3072,-387.1613)"
       gradientUnits="userSpaceOnUse"
       id="radialGradient2791"
       xlink:href="#linearGradient2486" />
    <linearGradient
       y2="252.62679"
       x2="-328.68616"
       y1="242.23868"
       x1="-323.6478"
       gradientTransform="matrix(0.194324,0.980937,0.980937,-0.194324,-461.8023,566.4503)"
       gradientUnits="userSpaceOnUse"
       id="linearGradient2715"
       xlink:href="#linearGradient2531" />
    <linearGradient
       y2="250.28239"
       x2="-328.69925"
       y1="241.78635"
       x1="-324.09848"
       gradientUnits="userSpaceOnUse"
       id="linearGradient2713"
       xlink:href="#linearGradient2531" />
    <linearGradient
       y2="294.53494"
       x2="-576.93475"
       y1="302.67395"
       x1="-566.93445"
       gradientTransform="matrix(-0.763888,-0.645349,0.645349,-0.763888,-884.7079,109.2840)"
       gradientUnits="userSpaceOnUse"
       id="linearGradient2711"
       xlink:href="#linearGradient2486" />
    <radialGradient
       r="29.071609"
       fy="210.2256"
       fx="-706.76215"
       cy="210.2256"
       cx="-706.76215"
       gradientTransform="matrix(1.694182,1.492780e-3,-0.174812,2.845644,529.3072,-387.1613)"
       gradientUnits="userSpaceOnUse"
       id="radialGradient2709"
       xlink:href="#linearGradient2486" />
    <linearGradient
       y2="252.62679"
       x2="-328.68616"
       y1="242.23868"
       x1="-323.6478"
       gradientTransform="matrix(0.194324,0.980937,0.980937,-0.194324,-461.8023,566.4503)"
       gradientUnits="userSpaceOnUse"
       id="linearGradient2659"
       xlink:href="#linearGradient2531" />
    <linearGradient
       y2="250.28239"
       x2="-328.69925"
       y1="241.78635"
       x1="-324.09848"
       gradientUnits="userSpaceOnUse"
       id="linearGradient2657"
       xlink:href="#linearGradient2531" />
    <linearGradient
       y2="294.53494"
       x2="-576.93475"
       y1="302.67395"
       x1="-566.93445"
       gradientTransform="matrix(-0.763888,-0.645349,0.645349,-0.763888,-884.7079,109.2840)"
       gradientUnits="userSpaceOnUse"
       id="linearGradient2655"
       xlink:href="#linearGradient2486" />
    <radialGradient
       r="29.071609"
       fy="210.2256"
       fx="-706.76215"
       cy="210.2256"
       cx="-706.76215"
       gradientTransform="matrix(1.694182,1.492780e-3,-0.174812,2.845644,529.3072,-387.1613)"
       gradientUnits="userSpaceOnUse"
       id="radialGradient2653"
       xlink:href="#linearGradient2486" />
    <radialGradient
       gradientUnits="userSpaceOnUse"
       gradientTransform="matrix(1.694182,1.492780e-3,-0.174812,2.845644,529.3072,-387.1613)"
       r="29.071609"
       fy="210.2256"
       fx="-706.76215"
       cy="210.2256"
       cx="-706.76215"
       id="radialGradient2601"
       xlink:href="#linearGradient2486" />
    <linearGradient
       y2="252.62679"
       x2="-328.68616"
       y1="242.23868"
       x1="-323.6478"
       gradientTransform="matrix(0.194324,0.980937,0.980937,-0.194324,-461.8023,566.4503)"
       gradientUnits="userSpaceOnUse"
       id="linearGradient2566"
       xlink:href="#linearGradient2531" />
    <linearGradient
       y2="250.28239"
       x2="-328.69925"
       y1="241.78635"
       x1="-324.09848"
       gradientUnits="userSpaceOnUse"
       id="linearGradient2564"
       xlink:href="#linearGradient2531" />
    <linearGradient
       y2="294.53494"
       x2="-576.93475"
       y1="302.67395"
       x1="-566.93445"
       gradientTransform="matrix(-0.763888,-0.645349,0.645349,-0.763888,-884.7079,109.2840)"
       gradientUnits="userSpaceOnUse"
       id="linearGradient2562"
       xlink:href="#linearGradient2486" />
    <linearGradient
       id="linearGradient2486">
      <stop
         id="stop2488"
         offset="0"
         style="stop-color:#faff00;stop-opacity:1;" />
      <stop
         style="stop-color:#7d7323;stop-opacity:0.99215686;"
         offset="0.84615386"
         id="stop2603" />
      <stop
         style="stop-color:#000000;stop-opacity:0.98431373;"
         offset="1"
         id="stop2494" />
    </linearGradient>
    <linearGradient
       id="linearGradient2531">
      <stop
         id="stop2533"
         offset="0"
         style="stop-color:#fae646;stop-opacity:1;" />
      <stop
         style="stop-color:#643228;stop-opacity:1;"
         offset="0.88461536"
         id="stop2539" />
      <stop
         id="stop2535"
         offset="1"
         style="stop-color:#fae646;stop-opacity:1;" />
    </linearGradient>
    <radialGradient
       xlink:href="#linearGradient2486"
       id="radialGradient2981"
       gradientUnits="userSpaceOnUse"
       gradientTransform="matrix(1.694182,1.492780e-3,-0.174812,2.845644,529.3072,-387.1613)"
       cx="-706.76215"
       cy="210.2256"
       fx="-706.76215"
       fy="210.2256"
       r="29.071609" />
    <linearGradient
       xlink:href="#linearGradient2486"
       id="linearGradient2983"
       gradientUnits="userSpaceOnUse"
       gradientTransform="matrix(-0.763888,-0.645349,0.645349,-0.763888,-884.7079,109.2840)"
       x1="-566.93445"
       y1="302.67395"
       x2="-576.93475"
       y2="294.53494" />
    <linearGradient
       xlink:href="#linearGradient2531"
       id="linearGradient2985"
       gradientUnits="userSpaceOnUse"
       x1="-324.09848"
       y1="241.78635"
       x2="-328.69925"
       y2="250.28239" />
    <linearGradient
       xlink:href="#linearGradient2531"
       id="linearGradient2987"
       gradientUnits="userSpaceOnUse"
       gradientTransform="matrix(0.194324,0.980937,0.980937,-0.194324,-461.8023,566.4503)"
       x1="-323.6478"
       y1="242.23868"
       x2="-328.68616"
       y2="252.62679" />
    <radialGradient
       xlink:href="#linearGradient2486"
       id="radialGradient3018"
       gradientUnits="userSpaceOnUse"
       gradientTransform="matrix(1.694182,1.492780e-3,-0.174812,2.845644,529.3072,-387.1613)"
       cx="-706.76215"
       cy="210.2256"
       fx="-706.76215"
       fy="210.2256"
       r="29.071609" />
    <linearGradient
       xlink:href="#linearGradient2486"
       id="linearGradient3020"
       gradientUnits="userSpaceOnUse"
       gradientTransform="matrix(-0.763888,-0.645349,0.645349,-0.763888,-884.7079,109.2840)"
       x1="-566.93445"
       y1="302.67395"
       x2="-576.93475"
       y2="294.53494" />
    <linearGradient
       xlink:href="#linearGradient2531"
       id="linearGradient3022"
       gradientUnits="userSpaceOnUse"
       x1="-324.09848"
       y1="241.78635"
       x2="-328.69925"
       y2="250.28239" />
    <linearGradient
       xlink:href="#linearGradient2531"
       id="linearGradient3024"
       gradientUnits="userSpaceOnUse"
       gradientTransform="matrix(0.194324,0.980937,0.980937,-0.194324,-461.8023,566.4503)"
       x1="-323.6478"
       y1="242.23868"
       x2="-328.68616"
       y2="252.62679" />
    <radialGradient
       xlink:href="#linearGradient2486"
       id="radialGradient3055"
       gradientUnits="userSpaceOnUse"
       gradientTransform="matrix(1.694182,1.492780e-3,-0.174812,2.845644,529.3072,-387.1613)"
       cx="-706.76215"
       cy="210.2256"
       fx="-706.76215"
       fy="210.2256"
       r="29.071609" />
    <linearGradient
       xlink:href="#linearGradient2486"
       id="linearGradient3057"
       gradientUnits="userSpaceOnUse"
       gradientTransform="matrix(-0.763888,-0.645349,0.645349,-0.763888,-884.7079,109.2840)"
       x1="-566.93445"
       y1="302.67395"
       x2="-576.93475"
       y2="294.53494" />
    <linearGradient
       xlink:href="#linearGradient2531"
       id="linearGradient3059"
       gradientUnits="userSpaceOnUse"
       x1="-324.09848"
       y1="241.78635"
       x2="-328.69925"
       y2="250.28239" />
    <linearGradient
       xlink:href="#linearGradient2531"
       id="linearGradient3061"
       gradientUnits="userSpaceOnUse"
       gradientTransform="matrix(0.194324,0.980937,0.980937,-0.194324,-461.8023,566.4503)"
       x1="-323.6478"
       y1="242.23868"
       x2="-328.68616"
       y2="252.62679" />
    <radialGradient
       xlink:href="#linearGradient2486"
       id="radialGradient3090"
       gradientUnits="userSpaceOnUse"
       gradientTransform="matrix(1.694182,1.492780e-3,-0.174812,2.845644,529.3072,-387.1613)"
       cx="-706.76215"
       cy="210.2256"
       fx="-706.76215"
       fy="210.2256"
       r="29.071609" />
    <linearGradient
       xlink:href="#linearGradient2486"
       id="linearGradient3092"
       gradientUnits="userSpaceOnUse"
       gradientTransform="matrix(-0.763888,-0.645349,0.645349,-0.763888,-884.7079,109.2840)"
       x1="-566.93445"
       y1="302.67395"
       x2="-576.93475"
       y2="294.53494" />
    <linearGradient
       xlink:href="#linearGradient2531"
       id="linearGradient3094"
       gradientUnits="userSpaceOnUse"
       x1="-324.09848"
       y1="241.78635"
       x2="-328.69925"
       y2="250.28239" />
    <linearGradient
       xlink:href="#linearGradient2531"
       id="linearGradient3096"
       gradientUnits="userSpaceOnUse"
       gradientTransform="matrix(0.194324,0.980937,0.980937,-0.194324,-461.8023,566.4503)"
       x1="-323.6478"
       y1="242.23868"
       x2="-328.68616"
       y2="252.62679" />
    <radialGradient
       xlink:href="#linearGradient2486"
       id="radialGradient3121"
       gradientUnits="userSpaceOnUse"
       gradientTransform="matrix(1.694182,1.492780e-3,-0.174812,2.845644,529.3072,-387.1613)"
       cx="-706.76215"
       cy="210.2256"
       fx="-706.76215"
       fy="210.2256"
       r="29.071609" />
    <linearGradient
       xlink:href="#linearGradient2486"
       id="linearGradient3133"
       gradientUnits="userSpaceOnUse"
       gradientTransform="matrix(-0.763888,-0.645349,0.645349,-0.763888,-884.7079,109.2840)"
       x1="-566.93445"
       y1="302.67395"
       x2="-576.93475"
       y2="294.53494" />
    <linearGradient
       xlink:href="#linearGradient2531"
       id="linearGradient3135"
       gradientUnits="userSpaceOnUse"
       x1="-324.09848"
       y1="241.78635"
       x2="-328.69925"
       y2="250.28239" />
    <linearGradient
       xlink:href="#linearGradient2531"
       id="linearGradient3137"
       gradientUnits="userSpaceOnUse"
       gradientTransform="matrix(0.194324,0.980937,0.980937,-0.194324,-461.8023,566.4503)"
       x1="-323.6478"
       y1="242.23868"
       x2="-328.68616"
       y2="252.62679" />
    <linearGradient
       xlink:href="#linearGradient2486"
       id="linearGradient3200"
       gradientUnits="userSpaceOnUse"
       gradientTransform="matrix(-0.763888,-0.645349,0.645349,-0.763888,-884.7079,109.2840)"
       x1="-566.93445"
       y1="302.67395"
       x2="-576.93475"
       y2="294.53494" />
    <linearGradient
       xlink:href="#linearGradient2531"
       id="linearGradient3202"
       gradientUnits="userSpaceOnUse"
       x1="-324.09848"
       y1="241.78635"
       x2="-328.69925"
       y2="250.28239" />
    <linearGradient
       xlink:href="#linearGradient2531"
       id="linearGradient3204"
       gradientUnits="userSpaceOnUse"
       gradientTransform="matrix(0.194324,0.980937,0.980937,-0.194324,-461.8023,566.4503)"
       x1="-323.6478"
       y1="242.23868"
       x2="-328.68616"
       y2="252.62679" />
    <linearGradient
       xlink:href="#linearGradient2486"
       id="linearGradient3260"
       gradientUnits="userSpaceOnUse"
       gradientTransform="matrix(-0.763888,-0.645349,0.645349,-0.763888,-884.7079,109.2840)"
       x1="-566.93445"
       y1="302.67395"
       x2="-576.93475"
       y2="294.53494" />
    <linearGradient
       xlink:href="#linearGradient2531"
       id="linearGradient3262"
       gradientUnits="userSpaceOnUse"
       x1="-324.09848"
       y1="241.78635"
       x2="-328.69925"
       y2="250.28239" />
    <linearGradient
       xlink:href="#linearGradient2531"
       id="linearGradient3264"
       gradientUnits="userSpaceOnUse"
       gradientTransform="matrix(0.194324,0.980937,0.980937,-0.194324,-461.8023,566.4503)"
       x1="-323.6478"
       y1="242.23868"
       x2="-328.68616"
       y2="252.62679" />
    <linearGradient
       xlink:href="#linearGradient2486"
       id="linearGradient3320"
       gradientUnits="userSpaceOnUse"
       gradientTransform="matrix(-0.763888,-0.645349,0.645349,-0.763888,-884.7079,109.2840)"
       x1="-566.93445"
       y1="302.67395"
       x2="-576.93475"
       y2="294.53494" />
    <linearGradient
       xlink:href="#linearGradient2531"
       id="linearGradient3322"
       gradientUnits="userSpaceOnUse"
       x1="-324.09848"
       y1="241.78635"
       x2="-328.69925"
       y2="250.28239" />
    <linearGradient
       xlink:href="#linearGradient2531"
       id="linearGradient3324"
       gradientUnits="userSpaceOnUse"
       gradientTransform="matrix(0.194324,0.980937,0.980937,-0.194324,-461.8023,566.4503)"
       x1="-323.6478"
       y1="242.23868"
       x2="-328.68616"
       y2="252.62679" />
    <linearGradient
       xlink:href="#linearGradient2486"
       id="linearGradient3410"
       gradientUnits="userSpaceOnUse"
       gradientTransform="matrix(-0.763888,-0.645349,0.645349,-0.763888,-884.7079,109.2840)"
       x1="-566.93445"
       y1="302.67395"
       x2="-576.93475"
       y2="294.53494" />
    <linearGradient
       xlink:href="#linearGradient2531"
       id="linearGradient3412"
       gradientUnits="userSpaceOnUse"
       x1="-324.09848"
       y1="241.78635"
       x2="-328.69925"
       y2="250.28239" />
    <linearGradient
       xlink:href="#linearGradient2531"
       id="linearGradient3414"
       gradientUnits="userSpaceOnUse"
       gradientTransform="matrix(0.194324,0.980937,0.980937,-0.194324,-461.8023,566.4503)"
       x1="-323.6478"
       y1="242.23868"
       x2="-328.68616"
       y2="252.62679" />
    <linearGradient
       xlink:href="#linearGradient2486"
       id="linearGradient3416"
       gradientUnits="userSpaceOnUse"
       gradientTransform="matrix(-0.763888,-0.645349,0.645349,-0.763888,-884.7079,109.2840)"
       x1="-566.93445"
       y1="302.67395"
       x2="-576.93475"
       y2="294.53494" />
    <linearGradient
       xlink:href="#linearGradient2531"
       id="linearGradient3418"
       gradientUnits="userSpaceOnUse"
       x1="-324.09848"
       y1="241.78635"
       x2="-328.69925"
       y2="250.28239" />
    <linearGradient
       xlink:href="#linearGradient2531"
       id="linearGradient3420"
       gradientUnits="userSpaceOnUse"
       gradientTransform="matrix(0.194324,0.980937,0.980937,-0.194324,-461.8023,566.4503)"
       x1="-323.6478"
       y1="242.23868"
       x2="-328.68616"
       y2="252.62679" />
    <linearGradient
       xlink:href="#linearGradient2486"
       id="linearGradient3422"
       gradientUnits="userSpaceOnUse"
       gradientTransform="matrix(-0.763888,-0.645349,0.645349,-0.763888,-884.7079,109.2840)"
       x1="-566.93445"
       y1="302.67395"
       x2="-576.93475"
       y2="294.53494" />
    <linearGradient
       xlink:href="#linearGradient2531"
       id="linearGradient3424"
       gradientUnits="userSpaceOnUse"
       x1="-324.09848"
       y1="241.78635"
       x2="-328.69925"
       y2="250.28239" />
    <linearGradient
       xlink:href="#linearGradient2531"
       id="linearGradient3426"
       gradientUnits="userSpaceOnUse"
       gradientTransform="matrix(0.194324,0.980937,0.980937,-0.194324,-461.8023,566.4503)"
       x1="-323.6478"
       y1="242.23868"
       x2="-328.68616"
       y2="252.62679" />
    <linearGradient
       xlink:href="#linearGradient2486"
       id="linearGradient3674"
       gradientUnits="userSpaceOnUse"
       gradientTransform="matrix(-0.763888,-0.645349,0.645349,-0.763888,-884.7079,109.2840)"
       x1="-566.93445"
       y1="302.67395"
       x2="-576.93475"
       y2="294.53494" />
    <linearGradient
       xlink:href="#linearGradient2531"
       id="linearGradient3676"
       gradientUnits="userSpaceOnUse"
       x1="-324.09848"
       y1="241.78635"
       x2="-328.69925"
       y2="250.28239" />
    <linearGradient
       xlink:href="#linearGradient2531"
       id="linearGradient3678"
       gradientUnits="userSpaceOnUse"
       gradientTransform="matrix(0.194324,0.980937,0.980937,-0.194324,-461.8023,566.4503)"
       x1="-323.6478"
       y1="242.23868"
       x2="-328.68616"
       y2="252.62679" />
    <linearGradient
       xlink:href="#linearGradient2486"
       id="linearGradient3680"
       gradientUnits="userSpaceOnUse"
       gradientTransform="matrix(-0.763888,-0.645349,0.645349,-0.763888,-884.7079,109.2840)"
       x1="-566.93445"
       y1="302.67395"
       x2="-576.93475"
       y2="294.53494" />
    <linearGradient
       xlink:href="#linearGradient2531"
       id="linearGradient3682"
       gradientUnits="userSpaceOnUse"
       x1="-324.09848"
       y1="241.78635"
       x2="-328.69925"
       y2="250.28239" />
    <linearGradient
       xlink:href="#linearGradient2531"
       id="linearGradient3684"
       gradientUnits="userSpaceOnUse"
       gradientTransform="matrix(0.194324,0.980937,0.980937,-0.194324,-461.8023,566.4503)"
       x1="-323.6478"
       y1="242.23868"
       x2="-328.68616"
       y2="252.62679" />
    <linearGradient
       xlink:href="#linearGradient2486"
       id="linearGradient3686"
       gradientUnits="userSpaceOnUse"
       gradientTransform="matrix(-0.763888,-0.645349,0.645349,-0.763888,-884.7079,109.2840)"
       x1="-566.93445"
       y1="302.67395"
       x2="-576.93475"
       y2="294.53494" />
    <linearGradient
       xlink:href="#linearGradient2531"
       id="linearGradient3688"
       gradientUnits="userSpaceOnUse"
       x1="-324.09848"
       y1="241.78635"
       x2="-328.69925"
       y2="250.28239" />
    <linearGradient
       xlink:href="#linearGradient2531"
       id="linearGradient3690"
       gradientUnits="userSpaceOnUse"
       gradientTransform="matrix(0.194324,0.980937,0.980937,-0.194324,-461.8023,566.4503)"
       x1="-323.6478"
       y1="242.23868"
       x2="-328.68616"
       y2="252.62679" />
    <linearGradient
       xlink:href="#linearGradient2486"
       id="linearGradient3793"
       gradientUnits="userSpaceOnUse"
       gradientTransform="matrix(-0.763888,-0.645349,0.645349,-0.763888,-884.7079,109.2840)"
       x1="-566.93445"
       y1="302.67395"
       x2="-576.93475"
       y2="294.53494" />
    <linearGradient
       xlink:href="#linearGradient2531"
       id="linearGradient3795"
       gradientUnits="userSpaceOnUse"
       x1="-324.09848"
       y1="241.78635"
       x2="-328.69925"
       y2="250.28239" />
    <linearGradient
       xlink:href="#linearGradient2531"
       id="linearGradient3797"
       gradientUnits="userSpaceOnUse"
       gradientTransform="matrix(0.194324,0.980937,0.980937,-0.194324,-461.8023,566.4503)"
       x1="-323.6478"
       y1="242.23868"
       x2="-328.68616"
       y2="252.62679" />
    <linearGradient
       xlink:href="#linearGradient2486"
       id="linearGradient3799"
       gradientUnits="userSpaceOnUse"
       gradientTransform="matrix(-0.763888,-0.645349,0.645349,-0.763888,-884.7079,109.2840)"
       x1="-566.93445"
       y1="302.67395"
       x2="-576.93475"
       y2="294.53494" />
    <linearGradient
       xlink:href="#linearGradient2531"
       id="linearGradient3801"
       gradientUnits="userSpaceOnUse"
       x1="-324.09848"
       y1="241.78635"
       x2="-328.69925"
       y2="250.28239" />
    <linearGradient
       xlink:href="#linearGradient2531"
       id="linearGradient3803"
       gradientUnits="userSpaceOnUse"
       gradientTransform="matrix(0.194324,0.980937,0.980937,-0.194324,-461.8023,566.4503)"
       x1="-323.6478"
       y1="242.23868"
       x2="-328.68616"
       y2="252.62679" />
    <linearGradient
       xlink:href="#linearGradient2486"
       id="linearGradient3805"
       gradientUnits="userSpaceOnUse"
       gradientTransform="matrix(-0.763888,-0.645349,0.645349,-0.763888,-884.7079,109.2840)"
       x1="-566.93445"
       y1="302.67395"
       x2="-576.93475"
       y2="294.53494" />
    <linearGradient
       xlink:href="#linearGradient2531"
       id="linearGradient3807"
       gradientUnits="userSpaceOnUse"
       x1="-324.09848"
       y1="241.78635"
       x2="-328.69925"
       y2="250.28239" />
    <linearGradient
       xlink:href="#linearGradient2531"
       id="linearGradient3809"
       gradientUnits="userSpaceOnUse"
       gradientTransform="matrix(0.194324,0.980937,0.980937,-0.194324,-461.8023,566.4503)"
       x1="-323.6478"
       y1="242.23868"
       x2="-328.68616"
       y2="252.62679" />
    <linearGradient
       xlink:href="#linearGradient2486"
       id="linearGradient4151"
       gradientUnits="userSpaceOnUse"
       gradientTransform="matrix(-0.763888,-0.645349,0.645349,-0.763888,-884.7079,109.2840)"
       x1="-566.93445"
       y1="302.67395"
       x2="-576.93475"
       y2="294.53494" />
    <linearGradient
       xlink:href="#linearGradient2531"
       id="linearGradient4153"
       gradientUnits="userSpaceOnUse"
       x1="-324.09848"
       y1="241.78635"
       x2="-328.69925"
       y2="250.28239" />
    <linearGradient
       xlink:href="#linearGradient2531"
       id="linearGradient4155"
       gradientUnits="userSpaceOnUse"
       gradientTransform="matrix(0.194324,0.980937,0.980937,-0.194324,-461.8023,566.4503)"
       x1="-323.6478"
       y1="242.23868"
       x2="-328.68616"
       y2="252.62679" />
    <linearGradient
       xlink:href="#linearGradient2486"
       id="linearGradient4157"
       gradientUnits="userSpaceOnUse"
       gradientTransform="matrix(-0.763888,-0.645349,0.645349,-0.763888,-884.7079,109.2840)"
       x1="-566.93445"
       y1="302.67395"
       x2="-576.93475"
       y2="294.53494" />
    <linearGradient
       xlink:href="#linearGradient2531"
       id="linearGradient4159"
       gradientUnits="userSpaceOnUse"
       x1="-324.09848"
       y1="241.78635"
       x2="-328.69925"
       y2="250.28239" />
    <linearGradient
       xlink:href="#linearGradient2531"
       id="linearGradient4161"
       gradientUnits="userSpaceOnUse"
       gradientTransform="matrix(0.194324,0.980937,0.980937,-0.194324,-461.8023,566.4503)"
       x1="-323.6478"
       y1="242.23868"
       x2="-328.68616"
       y2="252.62679" />
    <linearGradient
       xlink:href="#linearGradient2486"
       id="linearGradient4163"
       gradientUnits="userSpaceOnUse"
       gradientTransform="matrix(-0.763888,-0.645349,0.645349,-0.763888,-884.7079,109.2840)"
       x1="-566.93445"
       y1="302.67395"
       x2="-576.93475"
       y2="294.53494" />
    <linearGradient
       xlink:href="#linearGradient2531"
       id="linearGradient4165"
       gradientUnits="userSpaceOnUse"
       x1="-324.09848"
       y1="241.78635"
       x2="-328.69925"
       y2="250.28239" />
    <linearGradient
       xlink:href="#linearGradient2531"
       id="linearGradient4167"
       gradientUnits="userSpaceOnUse"
       gradientTransform="matrix(0.194324,0.980937,0.980937,-0.194324,-461.8023,566.4503)"
       x1="-323.6478"
       y1="242.23868"
       x2="-328.68616"
       y2="252.62679" />
  </defs>
  <sodipodi:namedview
     borderopacity="1.0"
     bordercolor="#666666"
     pagecolor="#ffffff"
     id="base"
     showguides="true" />
  <g
     id="g2924"
     transform="translate(866.8550,424.7560)" />
  <g
     id="g4048"
     transform="matrix(0.677764,0.000000,0.000000,0.677764,-665.5950,122.2494)">
    <g
       id="g3942">
      <g
         id="g3590"
         transform="translate(-200.6320,-144.5734)">
        <path
           id="rect2815"
           d="M 1407.7905,271.16182 C 1407.7905,271.16182 1407.5717,719.14572 1407.5717,730.66391 C 1407.5717,901.6745 1571.2623,1040.471 1775.4155,1040.471 C 1970.3913,1040.471 2130.2779,913.8796 2144.2592,753.52866 L 2145.2592,753.52866 L 2145.2592,271.16182 L 1407.7905,271.16182 z "
           style="opacity:1;fill:#ffffff;fill-opacity:1;fill-rule:nonzero;stroke:#000000;stroke-width:8.59600258;stroke-linecap:round;stroke-linejoin:round;stroke-miterlimit:4;stroke-dasharray:none;stroke-dashoffset:0;stroke-opacity:1" />
        <g
           transform="matrix(1.386551,6.824300e-2,-7.883629e-2,1.200239,79.43270,-391.5080)"
           id="g3172">
          <path
             d="M 1161.7713,592.20881 C 1169.2716,599.82403 1135.6077,579.70114 1118.469,592.39869 C 1101.3303,605.09623 1107.1748,645.82961 1099.6746,638.21437 C 1148.7345,670.29522 1201.8683,698.72813 1279.4168,688.02916 C 1342.7999,678.54989 1403.6781,644.00114 1422.7133,592.0706 L 1403.6891,585.62017 C 1386.4886,632.14342 1313.6741,648.46962 1274.4326,647.27069 C 1229.7149,643.3313 1189.5062,618.77186 1161.7713,592.20881 z "
             style="fill:#000000;fill-opacity:1;fill-rule:nonzero;stroke:#000000;stroke-width:1.88181055;stroke-linecap:round;stroke-linejoin:round;stroke-miterlimit:4;stroke-dasharray:none;stroke-dashoffset:0;stroke-opacity:1"
             id="path2393" />
          <g
             id="g3168">
            <path
               d="M 1087.0641,632.44654 C 1077.2836,623.65729 1080.6977,602.4855 1094.6848,585.18808 C 1108.672,567.89065 1127.9617,560.98547 1137.3206,569.4322 L 1162.8945,589.02589 C 1153.4356,580.60495 1134.7802,587.22077 1121.2529,603.79335 C 1107.7258,620.36591 1104.4239,640.65048 1113.8828,649.07142 L 1087.0641,632.44654 z "
               style="fill:#fffd49;fill-opacity:1;fill-rule:nonzero;stroke:#000000;stroke-width:1.63899422;stroke-linecap:round;stroke-linejoin:round;stroke-miterlimit:4;stroke-dashoffset:0;stroke-opacity:1"
               id="path3151" />
            <path
               id="path2360"
               d="M 1116.5224,650.77007 C 1126.553,658.58202 1144.6204,650.69905 1156.8512,633.17404 C 1169.0821,615.64901 1170.8677,595.0857 1160.8368,587.27361 M 1116.5224,650.77007 L 1087.2784,632.65927 C 1097.0589,641.44852 1116.3485,634.54334 1130.3356,617.24593 C 1144.3228,599.94851 1147.7369,578.77666 1137.9563,569.98743 L 1160.8368,587.27361"
               style="fill:#fffd49;fill-opacity:1;fill-rule:nonzero;stroke:#000000;stroke-width:1.37527287;stroke-linecap:round;stroke-linejoin:round;stroke-miterlimit:4;stroke-dashoffset:0;stroke-opacity:1" />
          </g>
          <path
             id="path2362"
             style="fill:#fdfc42;fill-opacity:1;fill-rule:nonzero;stroke:#000000;stroke-width:0.98696363;stroke-linecap:round;stroke-linejoin:round;stroke-miterlimit:4;stroke-dasharray:none;stroke-dashoffset:0;stroke-opacity:1"
             d="M 1188.9268,614.44376 C 1197.4896,618.79228 1194.9437,634.85137 1185.0996,649.12369 C 1175.2555,663.39601 1159.6514,672.26877 1151.0886,667.92027 L 1145.7825,665.35722 C 1146.3389,666.89981 1147.2145,668.27168 1149.8899,670.07372 C 1159.6088,675.00933 1176.301,666.42904 1187.4741,650.22979 C 1198.6473,634.03056 1199.8276,616.87764 1190.1087,611.94203 C 1187.5055,610.77609 1185.4068,610.473 1183.3923,610.28423 L 1188.9268,614.44376 z " />
          <path
             id="path2364"
             d="M 1177.3984,681.44452 C 1167.8809,678.20266 1158.5869,674.31537 1150.456,670.34818 C 1160.2475,674.67194 1176.5066,666.11415 1187.4615,650.23129 C 1197.849,635.17106 1199.6261,619.28501 1192.0114,613.15972 C 1197.7904,616.84458 1203.9696,620.63846 1210.3371,624.14458 C 1208.9202,621.79727 1208.8732,619.1348 1210.4839,617.03863 C 1213.0684,613.67504 1218.9729,613.07426 1223.6845,615.68975 C 1227.7705,617.95788 1229.6506,621.86883 1228.3821,625.07169 C 1228.1878,625.56221 1227.8855,626.05489 1227.5422,626.50162 C 1226.0682,628.41992 1223.5325,629.44508 1220.7321,629.48164 C 1224.076,631.07465 1227.4285,632.54521 1230.7829,633.83528 C 1239.8288,637.41949 1240.6797,652.35135 1232.4272,667.66426 C 1224.1747,682.97718 1211.3328,690.25996 1201.4993,688.00476 C 1193.6938,686.48745 1185.4703,684.19398 1177.3984,681.44452 z M 1216.8984,626.5566 C 1219.8524,627.65748 1223.217,627.02574 1224.8077,624.95569 C 1224.9907,624.71754 1225.1245,624.48898 1225.248,624.23302 C 1226.3411,621.96884 1225.151,619.10298 1222.2895,617.51454 C 1219.1045,615.7465 1215.061,616.22432 1213.2592,618.56916 C 1211.4575,620.91402 1212.5516,624.25771 1215.7366,626.02571 C 1216.1098,626.2329 1216.5062,626.41047 1216.8984,626.5566 z M 1191.7097,612.9436 C 1191.219,612.63021 1190.7144,612.32895 1190.2297,612.01731 C 1190.7565,612.29242 1191.2479,612.59786 1191.7097,612.9436 z "
             style="fill:#000000;fill-opacity:1;fill-rule:nonzero;stroke:#000000;stroke-width:1.31595159;stroke-linecap:round;stroke-linejoin:round;stroke-miterlimit:4;stroke-dasharray:none;stroke-dashoffset:0;stroke-opacity:1" />
          <path
             id="path2425"
             style="fill:#ffff53;fill-opacity:1;fill-rule:nonzero;stroke:#000000;stroke-width:1.31595159;stroke-linecap:round;stroke-linejoin:round;stroke-miterlimit:4;stroke-dasharray:none;stroke-dashoffset:0;stroke-opacity:1"
             d="M 1366.6341,656.71702 C 1368.2976,657.15229 1369.7256,657.05544 1370.7332,656.32841 C 1373.853,654.07736 1371.7672,646.63321 1366.0773,639.71203 C 1360.3874,632.79083 1353.2375,629.00057 1350.1177,631.25164 C 1349.3249,631.82367 1348.8683,632.73108 1348.7215,633.88004 L 1350.0137,633.35458 C 1352.8427,631.27539 1359.0024,634.69442 1364.0715,640.99857 C 1369.1407,647.30271 1370.724,653.88193 1367.895,655.96112 L 1366.6341,656.71702 z " />
          <path
             id="path2416"
             d="M 1370.9565,656.16911 C 1370.979,656.14965 1370.999,656.12368 1371.0209,656.1036 C 1370.9953,656.12221 1370.9821,656.15052 1370.9565,656.16911 z M 1371.0209,656.1036 C 1373.7295,653.61387 1371.5974,646.42448 1366.0853,639.71956 C 1361.1511,633.7176 1355.1062,630.05428 1351.6103,630.62256 C 1355.408,629.04242 1359.4504,627.13921 1363.4822,624.9506 C 1362.1109,624.84834 1360.8502,624.45138 1359.8493,623.74341 C 1359.4671,623.47306 1359.1252,623.12373 1358.8295,622.76728 C 1356.6029,620.08331 1357.9277,616.00495 1361.7756,613.63692 C 1365.6235,611.26887 1370.5449,611.5074 1372.7715,614.19136 C 1373.8616,615.50539 1374.095,617.16164 1373.604,618.78402 C 1375.1209,617.74955 1376.5996,616.6714 1378.0397,615.56538 C 1380.4024,613.75075 1386.5681,615.3215 1392.5805,619.731 C 1398.593,624.1405 1401.8029,629.4266 1399.8276,631.55327 C 1390.9237,641.13925 1381.0643,648.80535 1371.0209,656.1036 z M 1350.2392,631.18077 C 1350.5929,630.93325 1350.9932,630.77739 1351.447,630.68415 C 1351.0396,630.85298 1350.6408,631.01958 1350.2392,631.18077 z M 1362.9175,622.6484 C 1364.6028,623.23945 1366.8142,622.99126 1368.6216,621.87893 C 1371.2227,620.27822 1372.0575,617.4529 1370.5053,615.58184 C 1368.9531,613.71078 1365.5804,613.47897 1362.9793,615.07971 C 1360.3783,616.68044 1359.5317,619.5308 1361.0839,621.40186 C 1361.2416,621.5919 1361.3896,621.75919 1361.5821,621.91498 C 1361.9678,622.22719 1362.4238,622.47526 1362.9175,622.6484 z "
             style="fill:#000000;fill-opacity:1;fill-rule:nonzero;stroke:#000000;stroke-width:1.31595159;stroke-linecap:round;stroke-linejoin:round;stroke-miterlimit:4;stroke-dasharray:none;stroke-dashoffset:0;stroke-opacity:1" />
          <rect
             ry="0"
             rx="0"
             y="-1548.5897"
             x="-152.70305"
             height="18.973455"
             width="11.018195"
             id="rect2451"
             style="opacity:1;fill:#ffff53;fill-opacity:1;fill-rule:nonzero;stroke:#000000;stroke-width:1.21157622;stroke-linecap:round;stroke-linejoin:round;stroke-miterlimit:4;stroke-dasharray:none;stroke-dashoffset:0;stroke-opacity:1"
             transform="matrix(0.376240,-0.926522,-0.959884,-0.280397,0.000000,0.000000)" />
          <rect
             style="opacity:1;fill:#ffff53;fill-opacity:1;fill-rule:nonzero;stroke:#000000;stroke-width:1.21157622;stroke-linecap:round;stroke-linejoin:round;stroke-miterlimit:4;stroke-dasharray:none;stroke-dashoffset:0;stroke-opacity:1"
             id="rect2447"
             width="24.514376"
             height="7.4869542"
             x="1526.8075"
             y="-142.56285"
             ry="3.6466901"
             rx="3.367583"
             transform="matrix(0.959884,0.280397,0.376240,-0.926522,0.000000,0.000000)" />
          <rect
             style="opacity:1;fill:#ffff53;fill-opacity:1;fill-rule:nonzero;stroke:#000000;stroke-width:1.22447371;stroke-linecap:round;stroke-linejoin:round;stroke-miterlimit:4;stroke-dasharray:none;stroke-dashoffset:0;stroke-opacity:1"
             id="rect2449"
             width="22.315861"
             height="20.128948"
             x="1527.9451"
             y="-171.2876"
             rx="3.4396632"
             ry="3.6466901"
             transform="matrix(0.959884,0.280397,0.376240,-0.926522,0.000000,0.000000)" />
          <g
             id="g2549"
             transform="matrix(-0.643033,0.668867,0.770309,0.539372,916.4840,618.5320)">
            <path
               id="path2482"
               d="M -287.3625,194.39852 C -268.58662,186.4047 -257.91419,230.36765 -262.24432,258.79227 C -267.16686,289.70444 -274.3208,316.77183 -284.71005,344.89483 L -276.4123,347.39379 C -265.08695,317.6199 -252.42777,289.82556 -248.33096,256.29685 C -246.08494,220.74157 -250.14683,202.11106 -275.19031,204.84893 C -275.66813,203.53465 -285.7865,195.99062 -287.3625,194.39852 z "
               style="fill:#fae646;fill-opacity:1;fill-rule:evenodd;stroke:#000000;stroke-width:0.99999982px;stroke-linecap:butt;stroke-linejoin:miter;stroke-opacity:1" />
            <path
               id="path2480"
               d="M -190.22701,233.98499 C -229.21132,257.74517 -308.83837,276.36613 -329.67351,247.43852 C -339.97386,235.22972 -313.68136,192.2758 -287.36521,194.5287 C -285.12434,196.09528 -276.3896,203.2749 -274.70862,205.03578 C -299.56908,202.90665 -325.36076,243.70372 -320.50207,257.85594 C -303.82492,290.9781 -221.53374,262.51943 -188.50409,242.56317 L -190.22701,233.98499 z "
               style="fill:#fae646;fill-opacity:1;fill-rule:evenodd;stroke:#000000;stroke-width:0.99999982px;stroke-linecap:butt;stroke-linejoin:miter;stroke-opacity:1" />
            <path
               id="path2484"
               d="M -260.75531,240.20507 L -248.25308,238.63125 C -248.22368,246.68846 -248.36879,250.32865 -248.80043,256.66821 C -255.54637,258.23239 -257.13691,258.7571 -261.96882,259.2335 C -260.8578,256.9027 -260.84386,243.57467 -260.75531,240.20507 z "
               style="fill:url(#linearGradient4151);fill-opacity:1;fill-rule:evenodd;stroke:none;stroke-width:1px;stroke-linecap:butt;stroke-linejoin:miter;stroke-opacity:1" />
            <path
               id="path2508"
               d="M -330.81883,245.71495 C -327.08066,251.88233 -321.64124,259.87883 -315.29151,264.72025"
               style="fill:none;fill-opacity:0.75;fill-rule:evenodd;stroke:#000000;stroke-width:1px;stroke-linecap:butt;stroke-linejoin:miter;stroke-opacity:1" />
            <path
               id="path2510"
               d="M -280.0634,193.92091 C -271.82311,195.58423 -262.67783,201.73994 -255.97687,209.4291"
               style="fill:none;fill-opacity:0.75;fill-rule:evenodd;stroke:#000000;stroke-width:1px;stroke-linecap:butt;stroke-linejoin:miter;stroke-opacity:1" />
            <path
               id="path2514"
               d="M -278.43098,204.93828 C -272.65498,204.72904 -267.72495,207.53738 -266.39558,212.48286"
               style="fill:none;fill-opacity:0.75;fill-rule:evenodd;stroke:#000000;stroke-width:1px;stroke-linecap:butt;stroke-linejoin:miter;stroke-opacity:1" />
            <path
               id="path2516"
               d="M -294.63778,194.99363 C -291.34206,194.06889 -286.53737,193.46808 -282.31857,193.45905"
               style="fill:none;fill-opacity:0.75;fill-rule:evenodd;stroke:#000000;stroke-width:1px;stroke-linecap:butt;stroke-linejoin:miter;stroke-opacity:1" />
            <path
               d="M -331.8669,238.82015 L -319.61764,245.0352 C -319.16565,253.46061 -319.56691,244.81678 -319.56691,244.81678 C -317.57942,254.57097 -313.91555,257.2804 -309.32784,259.90594 C -311.4166,262.17012 -313.78802,264.97127 -315.33153,264.57578 C -318.99965,262.06281 -325.1932,255.18992 -328.69194,249.68186 C -330.91866,246.41662 -332.41111,242.32636 -331.8669,238.82015 z "
               style="fill:url(#linearGradient4153);fill-opacity:1;fill-rule:evenodd;stroke:none;stroke-width:1px;stroke-linecap:butt;stroke-linejoin:miter;stroke-opacity:1"
               id="path2512" />
            <path
               id="path2541"
               d="M -319.16706,244.00035 C -320.63041,251.28328 -313.52615,258.6533 -308.89021,259.87514"
               style="fill:none;fill-opacity:0.75;fill-rule:evenodd;stroke:#000000;stroke-width:1px;stroke-linecap:butt;stroke-linejoin:miter;stroke-opacity:1" />
            <path
               id="path2543"
               d="M -314.15396,265.55666 C -318.68748,262.24769 -334.05778,247.38167 -331.78335,237.90109"
               style="fill:none;fill-opacity:0.75;fill-rule:evenodd;stroke:#000000;stroke-width:1px;stroke-linecap:butt;stroke-linejoin:miter;stroke-opacity:1" />
            <path
               id="path2545"
               style="fill:url(#linearGradient4155);fill-opacity:1;fill-rule:evenodd;stroke:none;stroke-width:1px;stroke-linecap:butt;stroke-linejoin:miter;stroke-opacity:1"
               d="M -295.47758,195.47525 L -283.54731,205.30924 C -275.19467,204.11536 -283.7517,205.40145 -283.7517,205.40145 C -273.1774,202.88769 -269.09926,205.95521 -266.07501,211.45057 C -264.25988,208.96164 -255.68605,210.87269 -256.37395,209.43546 C -259.02053,206.50269 -269.09111,196.89263 -278.71598,194.61949 C -282.35168,193.06973 -292.14396,194.26007 -295.47758,195.47525 z " />
          </g>
          <g
             id="g2941"
             transform="matrix(0.930026,0.309042,0.367493,-0.782103,951.0648,703.4296)">
            <path
               d="M 209.83845,107.73821 C 233.43031,117.0704 232.96409,165.0475 218.96599,180.76934 C 212.71457,178.90827 210.46853,180.23419 205.80952,183.01573 C 219.80762,167.29389 214.91193,117.24866 191.32007,107.91647 L 209.83845,107.73821 z "
               style="fill:#fdfc42;fill-opacity:1;fill-rule:evenodd;stroke:#000000;stroke-width:1.77165353;stroke-linecap:round;stroke-linejoin:miter;stroke-miterlimit:4;stroke-dasharray:none;stroke-opacity:1"
               id="path2920" />
            <path
               id="path2928"
               d="M 382.7244,234.98928 C 379.66866,244.22803 367.67929,250.13401 356.03093,249.13153 C 356.83098,243.06446 353.31317,239.24655 349.13659,237.99451 C 360.78495,238.99699 374.01177,230.43935 377.06751,221.2006 L 382.7244,234.98928 z "
               style="fill:#ffff53;fill-opacity:1;fill-rule:evenodd;stroke:#000000;stroke-width:1.41732287;stroke-linecap:butt;stroke-linejoin:miter;stroke-miterlimit:4;stroke-dasharray:none;stroke-opacity:1" />
          </g>
        </g>
        <g
           id="g3206"
           transform="matrix(1.386551,6.824300e-2,-7.883629e-2,1.200239,79.43270,-163.6914)">
          <path
             id="path3208"
             style="fill:#000000;fill-opacity:1;fill-rule:nonzero;stroke:#000000;stroke-width:1.88181055;stroke-linecap:round;stroke-linejoin:round;stroke-miterlimit:4;stroke-dasharray:none;stroke-dashoffset:0;stroke-opacity:1"
             d="M 1161.7713,592.20881 C 1169.2716,599.82403 1135.6077,579.70114 1118.469,592.39869 C 1101.3303,605.09623 1107.1748,645.82961 1099.6746,638.21437 C 1148.7345,670.29522 1201.8683,698.72813 1279.4168,688.02916 C 1342.7999,678.54989 1403.6781,644.00114 1422.7133,592.0706 L 1403.6891,585.62017 C 1386.4886,632.14342 1313.6741,648.46962 1274.4326,647.27069 C 1229.7149,643.3313 1189.5062,618.77186 1161.7713,592.20881 z " />
          <g
             id="g3210">
            <path
               id="path3212"
               style="fill:#fffd49;fill-opacity:1;fill-rule:nonzero;stroke:#000000;stroke-width:1.63899422;stroke-linecap:round;stroke-linejoin:round;stroke-miterlimit:4;stroke-dashoffset:0;stroke-opacity:1"
               d="M 1087.0641,632.44654 C 1077.2836,623.65729 1080.6977,602.4855 1094.6848,585.18808 C 1108.672,567.89065 1127.9617,560.98547 1137.3206,569.4322 L 1162.8945,589.02589 C 1153.4356,580.60495 1134.7802,587.22077 1121.2529,603.79335 C 1107.7258,620.36591 1104.4239,640.65048 1113.8828,649.07142 L 1087.0641,632.44654 z " />
            <path
               style="fill:#fffd49;fill-opacity:1;fill-rule:nonzero;stroke:#000000;stroke-width:1.37527287;stroke-linecap:round;stroke-linejoin:round;stroke-miterlimit:4;stroke-dashoffset:0;stroke-opacity:1"
               d="M 1116.5224,650.77007 C 1126.553,658.58202 1144.6204,650.69905 1156.8512,633.17404 C 1169.0821,615.64901 1170.8677,595.0857 1160.8368,587.27361 M 1116.5224,650.77007 L 1087.2784,632.65927 C 1097.0589,641.44852 1116.3485,634.54334 1130.3356,617.24593 C 1144.3228,599.94851 1147.7369,578.77666 1137.9563,569.98743 L 1160.8368,587.27361"
               id="path3214" />
          </g>
          <path
             d="M 1188.9268,614.44376 C 1197.4896,618.79228 1194.9437,634.85137 1185.0996,649.12369 C 1175.2555,663.39601 1159.6514,672.26877 1151.0886,667.92027 L 1145.7825,665.35722 C 1146.3389,666.89981 1147.2145,668.27168 1149.8899,670.07372 C 1159.6088,675.00933 1176.301,666.42904 1187.4741,650.22979 C 1198.6473,634.03056 1199.8276,616.87764 1190.1087,611.94203 C 1187.5055,610.77609 1185.4068,610.473 1183.3923,610.28423 L 1188.9268,614.44376 z "
             style="fill:#fdfc42;fill-opacity:1;fill-rule:nonzero;stroke:#000000;stroke-width:0.98696363;stroke-linecap:round;stroke-linejoin:round;stroke-miterlimit:4;stroke-dasharray:none;stroke-dashoffset:0;stroke-opacity:1"
             id="path3216" />
          <path
             style="fill:#000000;fill-opacity:1;fill-rule:nonzero;stroke:#000000;stroke-width:1.31595159;stroke-linecap:round;stroke-linejoin:round;stroke-miterlimit:4;stroke-dasharray:none;stroke-dashoffset:0;stroke-opacity:1"
             d="M 1177.3984,681.44452 C 1167.8809,678.20266 1158.5869,674.31537 1150.456,670.34818 C 1160.2475,674.67194 1176.5066,666.11415 1187.4615,650.23129 C 1197.849,635.17106 1199.6261,619.28501 1192.0114,613.15972 C 1197.7904,616.84458 1203.9696,620.63846 1210.3371,624.14458 C 1208.9202,621.79727 1208.8732,619.1348 1210.4839,617.03863 C 1213.0684,613.67504 1218.9729,613.07426 1223.6845,615.68975 C 1227.7705,617.95788 1229.6506,621.86883 1228.3821,625.07169 C 1228.1878,625.56221 1227.8855,626.05489 1227.5422,626.50162 C 1226.0682,628.41992 1223.5325,629.44508 1220.7321,629.48164 C 1224.076,631.07465 1227.4285,632.54521 1230.7829,633.83528 C 1239.8288,637.41949 1240.6797,652.35135 1232.4272,667.66426 C 1224.1747,682.97718 1211.3328,690.25996 1201.4993,688.00476 C 1193.6938,686.48745 1185.4703,684.19398 1177.3984,681.44452 z M 1216.8984,626.5566 C 1219.8524,627.65748 1223.217,627.02574 1224.8077,624.95569 C 1224.9907,624.71754 1225.1245,624.48898 1225.248,624.23302 C 1226.3411,621.96884 1225.151,619.10298 1222.2895,617.51454 C 1219.1045,615.7465 1215.061,616.22432 1213.2592,618.56916 C 1211.4575,620.91402 1212.5516,624.25771 1215.7366,626.02571 C 1216.1098,626.2329 1216.5062,626.41047 1216.8984,626.5566 z M 1191.7097,612.9436 C 1191.219,612.63021 1190.7144,612.32895 1190.2297,612.01731 C 1190.7565,612.29242 1191.2479,612.59786 1191.7097,612.9436 z "
             id="path3218" />
          <path
             d="M 1366.6341,656.71702 C 1368.2976,657.15229 1369.7256,657.05544 1370.7332,656.32841 C 1373.853,654.07736 1371.7672,646.63321 1366.0773,639.71203 C 1360.3874,632.79083 1353.2375,629.00057 1350.1177,631.25164 C 1349.3249,631.82367 1348.8683,632.73108 1348.7215,633.88004 L 1350.0137,633.35458 C 1352.8427,631.27539 1359.0024,634.69442 1364.0715,640.99857 C 1369.1407,647.30271 1370.724,653.88193 1367.895,655.96112 L 1366.6341,656.71702 z "
             style="fill:#ffff53;fill-opacity:1;fill-rule:nonzero;stroke:#000000;stroke-width:1.31595159;stroke-linecap:round;stroke-linejoin:round;stroke-miterlimit:4;stroke-dasharray:none;stroke-dashoffset:0;stroke-opacity:1"
             id="path3220" />
          <path
             style="fill:#000000;fill-opacity:1;fill-rule:nonzero;stroke:#000000;stroke-width:1.31595159;stroke-linecap:round;stroke-linejoin:round;stroke-miterlimit:4;stroke-dasharray:none;stroke-dashoffset:0;stroke-opacity:1"
             d="M 1370.9565,656.16911 C 1370.979,656.14965 1370.999,656.12368 1371.0209,656.1036 C 1370.9953,656.12221 1370.9821,656.15052 1370.9565,656.16911 z M 1371.0209,656.1036 C 1373.7295,653.61387 1371.5974,646.42448 1366.0853,639.71956 C 1361.1511,633.7176 1355.1062,630.05428 1351.6103,630.62256 C 1355.408,629.04242 1359.4504,627.13921 1363.4822,624.9506 C 1362.1109,624.84834 1360.8502,624.45138 1359.8493,623.74341 C 1359.4671,623.47306 1359.1252,623.12373 1358.8295,622.76728 C 1356.6029,620.08331 1357.9277,616.00495 1361.7756,613.63692 C 1365.6235,611.26887 1370.5449,611.5074 1372.7715,614.19136 C 1373.8616,615.50539 1374.095,617.16164 1373.604,618.78402 C 1375.1209,617.74955 1376.5996,616.6714 1378.0397,615.56538 C 1380.4024,613.75075 1386.5681,615.3215 1392.5805,619.731 C 1398.593,624.1405 1401.8029,629.4266 1399.8276,631.55327 C 1390.9237,641.13925 1381.0643,648.80535 1371.0209,656.1036 z M 1350.2392,631.18077 C 1350.5929,630.93325 1350.9932,630.77739 1351.447,630.68415 C 1351.0396,630.85298 1350.6408,631.01958 1350.2392,631.18077 z M 1362.9175,622.6484 C 1364.6028,623.23945 1366.8142,622.99126 1368.6216,621.87893 C 1371.2227,620.27822 1372.0575,617.4529 1370.5053,615.58184 C 1368.9531,613.71078 1365.5804,613.47897 1362.9793,615.07971 C 1360.3783,616.68044 1359.5317,619.5308 1361.0839,621.40186 C 1361.2416,621.5919 1361.3896,621.75919 1361.5821,621.91498 C 1361.9678,622.22719 1362.4238,622.47526 1362.9175,622.6484 z "
             id="path3222" />
          <rect
             transform="matrix(0.376240,-0.926522,-0.959884,-0.280397,0.000000,0.000000)"
             style="opacity:1;fill:#ffff53;fill-opacity:1;fill-rule:nonzero;stroke:#000000;stroke-width:1.21157622;stroke-linecap:round;stroke-linejoin:round;stroke-miterlimit:4;stroke-dasharray:none;stroke-dashoffset:0;stroke-opacity:1"
             id="rect3224"
             width="11.018195"
             height="18.973455"
             x="-152.70305"
             y="-1548.5897"
             rx="0"
             ry="0" />
          <rect
             transform="matrix(0.959884,0.280397,0.376240,-0.926522,0.000000,0.000000)"
             rx="3.367583"
             ry="3.6466901"
             y="-142.56285"
             x="1526.8075"
             height="7.4869542"
             width="24.514376"
             id="rect3226"
             style="opacity:1;fill:#ffff53;fill-opacity:1;fill-rule:nonzero;stroke:#000000;stroke-width:1.21157622;stroke-linecap:round;stroke-linejoin:round;stroke-miterlimit:4;stroke-dasharray:none;stroke-dashoffset:0;stroke-opacity:1" />
          <rect
             transform="matrix(0.959884,0.280397,0.376240,-0.926522,0.000000,0.000000)"
             ry="3.6466901"
             rx="3.4396632"
             y="-171.2876"
             x="1527.9451"
             height="20.128948"
             width="22.315861"
             id="rect3228"
             style="opacity:1;fill:#ffff53;fill-opacity:1;fill-rule:nonzero;stroke:#000000;stroke-width:1.22447371;stroke-linecap:round;stroke-linejoin:round;stroke-miterlimit:4;stroke-dasharray:none;stroke-dashoffset:0;stroke-opacity:1" />
          <g
             transform="matrix(-0.643033,0.668867,0.770309,0.539372,916.4840,618.5320)"
             id="g3230">
            <path
               style="fill:#fae646;fill-opacity:1;fill-rule:evenodd;stroke:#000000;stroke-width:0.99999982px;stroke-linecap:butt;stroke-linejoin:miter;stroke-opacity:1"
               d="M -287.3625,194.39852 C -268.58662,186.4047 -257.91419,230.36765 -262.24432,258.79227 C -267.16686,289.70444 -274.3208,316.77183 -284.71005,344.89483 L -276.4123,347.39379 C -265.08695,317.6199 -252.42777,289.82556 -248.33096,256.29685 C -246.08494,220.74157 -250.14683,202.11106 -275.19031,204.84893 C -275.66813,203.53465 -285.7865,195.99062 -287.3625,194.39852 z "
               id="path3232" />
            <path
               style="fill:#fae646;fill-opacity:1;fill-rule:evenodd;stroke:#000000;stroke-width:0.99999982px;stroke-linecap:butt;stroke-linejoin:miter;stroke-opacity:1"
               d="M -190.22701,233.98499 C -229.21132,257.74517 -308.83837,276.36613 -329.67351,247.43852 C -339.97386,235.22972 -313.68136,192.2758 -287.36521,194.5287 C -285.12434,196.09528 -276.3896,203.2749 -274.70862,205.03578 C -299.56908,202.90665 -325.36076,243.70372 -320.50207,257.85594 C -303.82492,290.9781 -221.53374,262.51943 -188.50409,242.56317 L -190.22701,233.98499 z "
               id="path3234" />
            <path
               style="fill:url(#linearGradient4157);fill-opacity:1;fill-rule:evenodd;stroke:none;stroke-width:1px;stroke-linecap:butt;stroke-linejoin:miter;stroke-opacity:1"
               d="M -260.75531,240.20507 L -248.25308,238.63125 C -248.22368,246.68846 -248.36879,250.32865 -248.80043,256.66821 C -255.54637,258.23239 -257.13691,258.7571 -261.96882,259.2335 C -260.8578,256.9027 -260.84386,243.57467 -260.75531,240.20507 z "
               id="path3236" />
            <path
               style="fill:none;fill-opacity:0.75;fill-rule:evenodd;stroke:#000000;stroke-width:1px;stroke-linecap:butt;stroke-linejoin:miter;stroke-opacity:1"
               d="M -330.81883,245.71495 C -327.08066,251.88233 -321.64124,259.87883 -315.29151,264.72025"
               id="path3238" />
            <path
               style="fill:none;fill-opacity:0.75;fill-rule:evenodd;stroke:#000000;stroke-width:1px;stroke-linecap:butt;stroke-linejoin:miter;stroke-opacity:1"
               d="M -280.0634,193.92091 C -271.82311,195.58423 -262.67783,201.73994 -255.97687,209.4291"
               id="path3240" />
            <path
               style="fill:none;fill-opacity:0.75;fill-rule:evenodd;stroke:#000000;stroke-width:1px;stroke-linecap:butt;stroke-linejoin:miter;stroke-opacity:1"
               d="M -278.43098,204.93828 C -272.65498,204.72904 -267.72495,207.53738 -266.39558,212.48286"
               id="path3242" />
            <path
               style="fill:none;fill-opacity:0.75;fill-rule:evenodd;stroke:#000000;stroke-width:1px;stroke-linecap:butt;stroke-linejoin:miter;stroke-opacity:1"
               d="M -294.63778,194.99363 C -291.34206,194.06889 -286.53737,193.46808 -282.31857,193.45905"
               id="path3244" />
            <path
               id="path3246"
               style="fill:url(#linearGradient4159);fill-opacity:1;fill-rule:evenodd;stroke:none;stroke-width:1px;stroke-linecap:butt;stroke-linejoin:miter;stroke-opacity:1"
               d="M -331.8669,238.82015 L -319.61764,245.0352 C -319.16565,253.46061 -319.56691,244.81678 -319.56691,244.81678 C -317.57942,254.57097 -313.91555,257.2804 -309.32784,259.90594 C -311.4166,262.17012 -313.78802,264.97127 -315.33153,264.57578 C -318.99965,262.06281 -325.1932,255.18992 -328.69194,249.68186 C -330.91866,246.41662 -332.41111,242.32636 -331.8669,238.82015 z " />
            <path
               style="fill:none;fill-opacity:0.75;fill-rule:evenodd;stroke:#000000;stroke-width:1px;stroke-linecap:butt;stroke-linejoin:miter;stroke-opacity:1"
               d="M -319.16706,244.00035 C -320.63041,251.28328 -313.52615,258.6533 -308.89021,259.87514"
               id="path3248" />
            <path
               style="fill:none;fill-opacity:0.75;fill-rule:evenodd;stroke:#000000;stroke-width:1px;stroke-linecap:butt;stroke-linejoin:miter;stroke-opacity:1"
               d="M -314.15396,265.55666 C -318.68748,262.24769 -334.05778,247.38167 -331.78335,237.90109"
               id="path3250" />
            <path
               d="M -295.47758,195.47525 L -283.54731,205.30924 C -275.19467,204.11536 -283.7517,205.40145 -283.7517,205.40145 C -273.1774,202.88769 -269.09926,205.95521 -266.07501,211.45057 C -264.25988,208.96164 -255.68605,210.87269 -256.37395,209.43546 C -259.02053,206.50269 -269.09111,196.89263 -278.71598,194.61949 C -282.35168,193.06973 -292.14396,194.26007 -295.47758,195.47525 z "
               style="fill:url(#linearGradient4161);fill-opacity:1;fill-rule:evenodd;stroke:none;stroke-width:1px;stroke-linecap:butt;stroke-linejoin:miter;stroke-opacity:1"
               id="path3252" />
          </g>
          <g
             transform="matrix(0.930026,0.309042,0.367493,-0.782103,951.0648,703.4296)"
             id="g3254">
            <path
               id="path3256"
               style="fill:#fdfc42;fill-opacity:1;fill-rule:evenodd;stroke:#000000;stroke-width:1.77165353;stroke-linecap:round;stroke-linejoin:miter;stroke-miterlimit:4;stroke-dasharray:none;stroke-opacity:1"
               d="M 209.83845,107.73821 C 233.43031,117.0704 232.96409,165.0475 218.96599,180.76934 C 212.71457,178.90827 210.46853,180.23419 205.80952,183.01573 C 219.80762,167.29389 214.91193,117.24866 191.32007,107.91647 L 209.83845,107.73821 z " />
            <path
               style="fill:#ffff53;fill-opacity:1;fill-rule:evenodd;stroke:#000000;stroke-width:1.41732287;stroke-linecap:butt;stroke-linejoin:miter;stroke-miterlimit:4;stroke-dasharray:none;stroke-opacity:1"
               d="M 382.7244,234.98928 C 379.66866,244.22803 367.67929,250.13401 356.03093,249.13153 C 356.83098,243.06446 353.31317,239.24655 349.13659,237.99451 C 360.78495,238.99699 374.01177,230.43935 377.06751,221.2006 L 382.7244,234.98928 z "
               id="path3258" />
          </g>
        </g>
        <g
           transform="matrix(1.386551,6.824300e-2,-7.883629e-2,1.200239,79.43270,69.30280)"
           id="g3266">
          <path
             d="M 1161.7713,592.20881 C 1169.2716,599.82403 1135.6077,579.70114 1118.469,592.39869 C 1101.3303,605.09623 1107.1748,645.82961 1099.6746,638.21437 C 1148.7345,670.29522 1201.8683,698.72813 1279.4168,688.02916 C 1342.7999,678.54989 1403.6781,644.00114 1422.7133,592.0706 L 1403.6891,585.62017 C 1386.4886,632.14342 1313.6741,648.46962 1274.4326,647.27069 C 1229.7149,643.3313 1189.5062,618.77186 1161.7713,592.20881 z "
             style="fill:#000000;fill-opacity:1;fill-rule:nonzero;stroke:#000000;stroke-width:1.88181055;stroke-linecap:round;stroke-linejoin:round;stroke-miterlimit:4;stroke-dasharray:none;stroke-dashoffset:0;stroke-opacity:1"
             id="path3268" />
          <g
             id="g3270">
            <path
               d="M 1087.0641,632.44654 C 1077.2836,623.65729 1080.6977,602.4855 1094.6848,585.18808 C 1108.672,567.89065 1127.9617,560.98547 1137.3206,569.4322 L 1162.8945,589.02589 C 1153.4356,580.60495 1134.7802,587.22077 1121.2529,603.79335 C 1107.7258,620.36591 1104.4239,640.65048 1113.8828,649.07142 L 1087.0641,632.44654 z "
               style="fill:#fffd49;fill-opacity:1;fill-rule:nonzero;stroke:#000000;stroke-width:1.63899422;stroke-linecap:round;stroke-linejoin:round;stroke-miterlimit:4;stroke-dashoffset:0;stroke-opacity:1"
               id="path3272" />
            <path
               id="path3274"
               d="M 1116.5224,650.77007 C 1126.553,658.58202 1144.6204,650.69905 1156.8512,633.17404 C 1169.0821,615.64901 1170.8677,595.0857 1160.8368,587.27361 M 1116.5224,650.77007 L 1087.2784,632.65927 C 1097.0589,641.44852 1116.3485,634.54334 1130.3356,617.24593 C 1144.3228,599.94851 1147.7369,578.77666 1137.9563,569.98743 L 1160.8368,587.27361"
               style="fill:#fffd49;fill-opacity:1;fill-rule:nonzero;stroke:#000000;stroke-width:1.37527287;stroke-linecap:round;stroke-linejoin:round;stroke-miterlimit:4;stroke-dashoffset:0;stroke-opacity:1" />
          </g>
          <path
             id="path3276"
             style="fill:#fdfc42;fill-opacity:1;fill-rule:nonzero;stroke:#000000;stroke-width:0.98696363;stroke-linecap:round;stroke-linejoin:round;stroke-miterlimit:4;stroke-dasharray:none;stroke-dashoffset:0;stroke-opacity:1"
             d="M 1188.9268,614.44376 C 1197.4896,618.79228 1194.9437,634.85137 1185.0996,649.12369 C 1175.2555,663.39601 1159.6514,672.26877 1151.0886,667.92027 L 1145.7825,665.35722 C 1146.3389,666.89981 1147.2145,668.27168 1149.8899,670.07372 C 1159.6088,675.00933 1176.301,666.42904 1187.4741,650.22979 C 1198.6473,634.03056 1199.8276,616.87764 1190.1087,611.94203 C 1187.5055,610.77609 1185.4068,610.473 1183.3923,610.28423 L 1188.9268,614.44376 z " />
          <path
             id="path3278"
             d="M 1177.3984,681.44452 C 1167.8809,678.20266 1158.5869,674.31537 1150.456,670.34818 C 1160.2475,674.67194 1176.5066,666.11415 1187.4615,650.23129 C 1197.849,635.17106 1199.6261,619.28501 1192.0114,613.15972 C 1197.7904,616.84458 1203.9696,620.63846 1210.3371,624.14458 C 1208.9202,621.79727 1208.8732,619.1348 1210.4839,617.03863 C 1213.0684,613.67504 1218.9729,613.07426 1223.6845,615.68975 C 1227.7705,617.95788 1229.6506,621.86883 1228.3821,625.07169 C 1228.1878,625.56221 1227.8855,626.05489 1227.5422,626.50162 C 1226.0682,628.41992 1223.5325,629.44508 1220.7321,629.48164 C 1224.076,631.07465 1227.4285,632.54521 1230.7829,633.83528 C 1239.8288,637.41949 1240.6797,652.35135 1232.4272,667.66426 C 1224.1747,682.97718 1211.3328,690.25996 1201.4993,688.00476 C 1193.6938,686.48745 1185.4703,684.19398 1177.3984,681.44452 z M 1216.8984,626.5566 C 1219.8524,627.65748 1223.217,627.02574 1224.8077,624.95569 C 1224.9907,624.71754 1225.1245,624.48898 1225.248,624.23302 C 1226.3411,621.96884 1225.151,619.10298 1222.2895,617.51454 C 1219.1045,615.7465 1215.061,616.22432 1213.2592,618.56916 C 1211.4575,620.91402 1212.5516,624.25771 1215.7366,626.02571 C 1216.1098,626.2329 1216.5062,626.41047 1216.8984,626.5566 z M 1191.7097,612.9436 C 1191.219,612.63021 1190.7144,612.32895 1190.2297,612.01731 C 1190.7565,612.29242 1191.2479,612.59786 1191.7097,612.9436 z "
             style="fill:#000000;fill-opacity:1;fill-rule:nonzero;stroke:#000000;stroke-width:1.31595159;stroke-linecap:round;stroke-linejoin:round;stroke-miterlimit:4;stroke-dasharray:none;stroke-dashoffset:0;stroke-opacity:1" />
          <path
             id="path3280"
             style="fill:#ffff53;fill-opacity:1;fill-rule:nonzero;stroke:#000000;stroke-width:1.31595159;stroke-linecap:round;stroke-linejoin:round;stroke-miterlimit:4;stroke-dasharray:none;stroke-dashoffset:0;stroke-opacity:1"
             d="M 1366.6341,656.71702 C 1368.2976,657.15229 1369.7256,657.05544 1370.7332,656.32841 C 1373.853,654.07736 1371.7672,646.63321 1366.0773,639.71203 C 1360.3874,632.79083 1353.2375,629.00057 1350.1177,631.25164 C 1349.3249,631.82367 1348.8683,632.73108 1348.7215,633.88004 L 1350.0137,633.35458 C 1352.8427,631.27539 1359.0024,634.69442 1364.0715,640.99857 C 1369.1407,647.30271 1370.724,653.88193 1367.895,655.96112 L 1366.6341,656.71702 z " />
          <path
             id="path3282"
             d="M 1370.9565,656.16911 C 1370.979,656.14965 1370.999,656.12368 1371.0209,656.1036 C 1370.9953,656.12221 1370.9821,656.15052 1370.9565,656.16911 z M 1371.0209,656.1036 C 1373.7295,653.61387 1371.5974,646.42448 1366.0853,639.71956 C 1361.1511,633.7176 1355.1062,630.05428 1351.6103,630.62256 C 1355.408,629.04242 1359.4504,627.13921 1363.4822,624.9506 C 1362.1109,624.84834 1360.8502,624.45138 1359.8493,623.74341 C 1359.4671,623.47306 1359.1252,623.12373 1358.8295,622.76728 C 1356.6029,620.08331 1357.9277,616.00495 1361.7756,613.63692 C 1365.6235,611.26887 1370.5449,611.5074 1372.7715,614.19136 C 1373.8616,615.50539 1374.095,617.16164 1373.604,618.78402 C 1375.1209,617.74955 1376.5996,616.6714 1378.0397,615.56538 C 1380.4024,613.75075 1386.5681,615.3215 1392.5805,619.731 C 1398.593,624.1405 1401.8029,629.4266 1399.8276,631.55327 C 1390.9237,641.13925 1381.0643,648.80535 1371.0209,656.1036 z M 1350.2392,631.18077 C 1350.5929,630.93325 1350.9932,630.77739 1351.447,630.68415 C 1351.0396,630.85298 1350.6408,631.01958 1350.2392,631.18077 z M 1362.9175,622.6484 C 1364.6028,623.23945 1366.8142,622.99126 1368.6216,621.87893 C 1371.2227,620.27822 1372.0575,617.4529 1370.5053,615.58184 C 1368.9531,613.71078 1365.5804,613.47897 1362.9793,615.07971 C 1360.3783,616.68044 1359.5317,619.5308 1361.0839,621.40186 C 1361.2416,621.5919 1361.3896,621.75919 1361.5821,621.91498 C 1361.9678,622.22719 1362.4238,622.47526 1362.9175,622.6484 z "
             style="fill:#000000;fill-opacity:1;fill-rule:nonzero;stroke:#000000;stroke-width:1.31595159;stroke-linecap:round;stroke-linejoin:round;stroke-miterlimit:4;stroke-dasharray:none;stroke-dashoffset:0;stroke-opacity:1" />
          <rect
             ry="0"
             rx="0"
             y="-1548.5897"
             x="-152.70305"
             height="18.973455"
             width="11.018195"
             id="rect3284"
             style="opacity:1;fill:#ffff53;fill-opacity:1;fill-rule:nonzero;stroke:#000000;stroke-width:1.21157622;stroke-linecap:round;stroke-linejoin:round;stroke-miterlimit:4;stroke-dasharray:none;stroke-dashoffset:0;stroke-opacity:1"
             transform="matrix(0.376240,-0.926522,-0.959884,-0.280397,0.000000,0.000000)" />
          <rect
             style="opacity:1;fill:#ffff53;fill-opacity:1;fill-rule:nonzero;stroke:#000000;stroke-width:1.21157622;stroke-linecap:round;stroke-linejoin:round;stroke-miterlimit:4;stroke-dasharray:none;stroke-dashoffset:0;stroke-opacity:1"
             id="rect3286"
             width="24.514376"
             height="7.4869542"
             x="1526.8075"
             y="-142.56285"
             ry="3.6466901"
             rx="3.367583"
             transform="matrix(0.959884,0.280397,0.376240,-0.926522,0.000000,0.000000)" />
          <rect
             style="opacity:1;fill:#ffff53;fill-opacity:1;fill-rule:nonzero;stroke:#000000;stroke-width:1.22447371;stroke-linecap:round;stroke-linejoin:round;stroke-miterlimit:4;stroke-dasharray:none;stroke-dashoffset:0;stroke-opacity:1"
             id="rect3288"
             width="22.315861"
             height="20.128948"
             x="1527.9451"
             y="-171.2876"
             rx="3.4396632"
             ry="3.6466901"
             transform="matrix(0.959884,0.280397,0.376240,-0.926522,0.000000,0.000000)" />
          <g
             id="g3290"
             transform="matrix(-0.643033,0.668867,0.770309,0.539372,916.4840,618.5320)">
            <path
               id="path3292"
               d="M -287.3625,194.39852 C -268.58662,186.4047 -257.91419,230.36765 -262.24432,258.79227 C -267.16686,289.70444 -274.3208,316.77183 -284.71005,344.89483 L -276.4123,347.39379 C -265.08695,317.6199 -252.42777,289.82556 -248.33096,256.29685 C -246.08494,220.74157 -250.14683,202.11106 -275.19031,204.84893 C -275.66813,203.53465 -285.7865,195.99062 -287.3625,194.39852 z "
               style="fill:#fae646;fill-opacity:1;fill-rule:evenodd;stroke:#000000;stroke-width:0.99999982px;stroke-linecap:butt;stroke-linejoin:miter;stroke-opacity:1" />
            <path
               id="path3294"
               d="M -190.22701,233.98499 C -229.21132,257.74517 -308.83837,276.36613 -329.67351,247.43852 C -339.97386,235.22972 -313.68136,192.2758 -287.36521,194.5287 C -285.12434,196.09528 -276.3896,203.2749 -274.70862,205.03578 C -299.56908,202.90665 -325.36076,243.70372 -320.50207,257.85594 C -303.82492,290.9781 -221.53374,262.51943 -188.50409,242.56317 L -190.22701,233.98499 z "
               style="fill:#fae646;fill-opacity:1;fill-rule:evenodd;stroke:#000000;stroke-width:0.99999982px;stroke-linecap:butt;stroke-linejoin:miter;stroke-opacity:1" />
            <path
               id="path3296"
               d="M -260.75531,240.20507 L -248.25308,238.63125 C -248.22368,246.68846 -248.36879,250.32865 -248.80043,256.66821 C -255.54637,258.23239 -257.13691,258.7571 -261.96882,259.2335 C -260.8578,256.9027 -260.84386,243.57467 -260.75531,240.20507 z "
               style="fill:url(#linearGradient4163);fill-opacity:1;fill-rule:evenodd;stroke:none;stroke-width:1px;stroke-linecap:butt;stroke-linejoin:miter;stroke-opacity:1" />
            <path
               id="path3298"
               d="M -330.81883,245.71495 C -327.08066,251.88233 -321.64124,259.87883 -315.29151,264.72025"
               style="fill:none;fill-opacity:0.75;fill-rule:evenodd;stroke:#000000;stroke-width:1px;stroke-linecap:butt;stroke-linejoin:miter;stroke-opacity:1" />
            <path
               id="path3300"
               d="M -280.0634,193.92091 C -271.82311,195.58423 -262.67783,201.73994 -255.97687,209.4291"
               style="fill:none;fill-opacity:0.75;fill-rule:evenodd;stroke:#000000;stroke-width:1px;stroke-linecap:butt;stroke-linejoin:miter;stroke-opacity:1" />
            <path
               id="path3302"
               d="M -278.43098,204.93828 C -272.65498,204.72904 -267.72495,207.53738 -266.39558,212.48286"
               style="fill:none;fill-opacity:0.75;fill-rule:evenodd;stroke:#000000;stroke-width:1px;stroke-linecap:butt;stroke-linejoin:miter;stroke-opacity:1" />
            <path
               id="path3304"
               d="M -294.63778,194.99363 C -291.34206,194.06889 -286.53737,193.46808 -282.31857,193.45905"
               style="fill:none;fill-opacity:0.75;fill-rule:evenodd;stroke:#000000;stroke-width:1px;stroke-linecap:butt;stroke-linejoin:miter;stroke-opacity:1" />
            <path
               d="M -331.8669,238.82015 L -319.61764,245.0352 C -319.16565,253.46061 -319.56691,244.81678 -319.56691,244.81678 C -317.57942,254.57097 -313.91555,257.2804 -309.32784,259.90594 C -311.4166,262.17012 -313.78802,264.97127 -315.33153,264.57578 C -318.99965,262.06281 -325.1932,255.18992 -328.69194,249.68186 C -330.91866,246.41662 -332.41111,242.32636 -331.8669,238.82015 z "
               style="fill:url(#linearGradient4165);fill-opacity:1;fill-rule:evenodd;stroke:none;stroke-width:1px;stroke-linecap:butt;stroke-linejoin:miter;stroke-opacity:1"
               id="path3306" />
            <path
               id="path3308"
               d="M -319.16706,244.00035 C -320.63041,251.28328 -313.52615,258.6533 -308.89021,259.87514"
               style="fill:none;fill-opacity:0.75;fill-rule:evenodd;stroke:#000000;stroke-width:1px;stroke-linecap:butt;stroke-linejoin:miter;stroke-opacity:1" />
            <path
               id="path3310"
               d="M -314.15396,265.55666 C -318.68748,262.24769 -334.05778,247.38167 -331.78335,237.90109"
               style="fill:none;fill-opacity:0.75;fill-rule:evenodd;stroke:#000000;stroke-width:1px;stroke-linecap:butt;stroke-linejoin:miter;stroke-opacity:1" />
            <path
               id="path3312"
               style="fill:url(#linearGradient4167);fill-opacity:1;fill-rule:evenodd;stroke:none;stroke-width:1px;stroke-linecap:butt;stroke-linejoin:miter;stroke-opacity:1"
               d="M -295.47758,195.47525 L -283.54731,205.30924 C -275.19467,204.11536 -283.7517,205.40145 -283.7517,205.40145 C -273.1774,202.88769 -269.09926,205.95521 -266.07501,211.45057 C -264.25988,208.96164 -255.68605,210.87269 -256.37395,209.43546 C -259.02053,206.50269 -269.09111,196.89263 -278.71598,194.61949 C -282.35168,193.06973 -292.14396,194.26007 -295.47758,195.47525 z " />
          </g>
          <g
             id="g3314"
             transform="matrix(0.930026,0.309042,0.367493,-0.782103,951.0648,703.4296)">
            <path
               d="M 209.83845,107.73821 C 233.43031,117.0704 232.96409,165.0475 218.96599,180.76934 C 212.71457,178.90827 210.46853,180.23419 205.80952,183.01573 C 219.80762,167.29389 214.91193,117.24866 191.32007,107.91647 L 209.83845,107.73821 z "
               style="fill:#fdfc42;fill-opacity:1;fill-rule:evenodd;stroke:#000000;stroke-width:1.77165353;stroke-linecap:round;stroke-linejoin:miter;stroke-miterlimit:4;stroke-dasharray:none;stroke-opacity:1"
               id="path3316" />
            <path
               id="path3318"
               d="M 382.7244,234.98928 C 379.66866,244.22803 367.67929,250.13401 356.03093,249.13153 C 356.83098,243.06446 353.31317,239.24655 349.13659,237.99451 C 360.78495,238.99699 374.01177,230.43935 377.06751,221.2006 L 382.7244,234.98928 z "
               style="fill:#ffff53;fill-opacity:1;fill-rule:evenodd;stroke:#000000;stroke-width:1.41732287;stroke-linecap:butt;stroke-linejoin:miter;stroke-miterlimit:4;stroke-dasharray:none;stroke-opacity:1" />
          </g>
        </g>
      </g>
      <g
         id="g3925">
        <path
           id="path3428"
           d="M 1462.5642,-154.15625 L 1272.3767,-96.375 C 1326.1812,-107.10861 1353.3556,-59.484305 1296.0017,-18.3125 C 1263.1118,4.2624257 1253.4631,47.612672 1153.408,10.21875 C 1104.6181,-3.0959502 1058.8179,2.3284776 1042.4705,65.4375 L 1002.158,258.5625 L 1103.1892,273.96875 C 1170.1898,402.46569 1162.3378,600.90894 1107.033,727.15625 L 1027.1892,782 L 1169.5955,971.53125 C 1207.7973,1007.4569 1264.3283,987.59943 1292.7517,960.96875 C 1339.7517,912.92129 1377.0578,922.654 1422.658,947.46875 C 1482.3067,979.61868 1534.0397,977.52346 1586.2205,977.3125 C 1607.5041,977.52343 1659.2281,979.61867 1718.8767,947.46875 C 1764.477,922.65401 1801.7831,912.92131 1848.783,960.96875 C 1877.2065,987.59941 1933.7375,1007.4569 1971.9392,971.53125 L 2114.3455,782 L 2034.5017,727.15625 C 1979.197,600.90896 1973.595,401.5282 2040.5955,273.03125 L 2138.4705,259 L 2097.2517,61.78125 C 2080.9044,6.8492123 2030.3471,-5.7237675 1988.1267,10.21875 C 1888.0717,47.612672 1878.423,4.2624253 1845.533,-18.3125 C 1788.1792,-59.484305 1815.3535,-107.10861 1869.158,-96.375 L 1678.9705,-154.15625 C 1627.3562,-131.13806 1596.8578,-126.99788 1570.783,-127.1875 C 1544.7081,-126.99788 1514.1786,-131.13807 1462.5642,-154.15625 z M 1206.3142,124.1875 L 1943.783,124.1875 L 1943.783,606.5625 L 1942.783,606.5625 C 1928.8017,766.91344 1768.9151,893.50003 1573.9392,893.5 C 1369.786,893.5 1206.0955,754.69807 1206.0955,583.6875 C 1206.0955,572.16931 1206.3143,124.1875 1206.3142,124.1875 z "
           style="fill:#469664;fill-opacity:1;fill-rule:evenodd;stroke:#000000;stroke-width:6.37795258;stroke-linecap:butt;stroke-linejoin:miter;stroke-miterlimit:4;stroke-dasharray:none;stroke-opacity:1" />
        <g
           style="stroke-width:6.37795258;stroke-miterlimit:4;stroke-dasharray:none"
           transform="translate(1130.033,0.000000)"
           id="g3441">
          <path
             style="fill:#82c896;fill-opacity:1;fill-rule:evenodd;stroke:#000000;stroke-width:6.37795258;stroke-linecap:butt;stroke-linejoin:miter;stroke-miterlimit:4;stroke-dasharray:none;stroke-opacity:1"
             d="M 867.66898,91.112148 C 854.13514,50.461724 915.4657,43.136531 907.64535,74.758178 L 919.45656,119.27732 C 900.34018,123.82191 879.86875,117.95448 867.66898,91.112148 z "
             id="path3439" />
          <path
             style="fill:#469664;fill-opacity:1;fill-rule:evenodd;stroke:#000000;stroke-width:6.37795258;stroke-linecap:butt;stroke-linejoin:miter;stroke-miterlimit:4;stroke-dasharray:none;stroke-opacity:1"
             d="M 967.42695,61.015941 C 972.37216,122.67946 892.71045,139.41546 867.55215,90.12008 L 909.93943,272.04376 C 939.70211,301.14776 999.94112,289.82166 1008.4514,259.08166 L 967.42695,61.015941 z "
             id="path3430" />
        </g>
        <g
           style="stroke-width:6.37795258;stroke-miterlimit:4;stroke-dasharray:none"
           transform="matrix(-1.000000,0.000000,0.000000,1.000000,2012.054,-1.313909)"
           id="g3445">
          <path
             id="path3447"
             d="M 867.66898,91.112148 C 854.13514,50.461724 915.4657,43.136531 907.64535,74.758178 L 919.45656,119.27732 C 900.34018,123.82191 879.86875,117.95448 867.66898,91.112148 z "
             style="fill:#82c896;fill-opacity:1;fill-rule:evenodd;stroke:#000000;stroke-width:6.37795258;stroke-linecap:butt;stroke-linejoin:miter;stroke-miterlimit:4;stroke-dasharray:none;stroke-opacity:1" />
          <path
             id="path3449"
             d="M 967.42695,61.015941 C 972.37216,122.67946 892.71045,139.41546 867.55215,90.12008 L 909.93943,272.04376 C 939.70211,301.14776 999.94112,289.82166 1008.4514,259.08166 L 967.42695,61.015941 z "
             style="fill:#469664;fill-opacity:1;fill-rule:evenodd;stroke:#000000;stroke-width:6.37795258;stroke-linecap:butt;stroke-linejoin:miter;stroke-miterlimit:4;stroke-dasharray:none;stroke-opacity:1" />
        </g>
        <path
           id="path3451"
           d="M 1868.3916,-96.676267 C 1901.9622,-78.023554 1881.1721,-43.692691 1865.4176,-49.092557 L 1813.2377,-66.395724 C 1810.1648,-93.701474 1839.6643,-102.49173 1868.3916,-96.676267 z "
           style="fill:#82c896;fill-opacity:1;fill-rule:evenodd;stroke:#000000;stroke-width:6.37795258;stroke-linecap:butt;stroke-linejoin:miter;stroke-miterlimit:4;stroke-dasharray:none;stroke-opacity:1" />
        <path
           style="fill:#82c896;fill-opacity:1;fill-rule:evenodd;stroke:#000000;stroke-width:6.37795258;stroke-linecap:butt;stroke-linejoin:miter;stroke-miterlimit:4;stroke-dasharray:none;stroke-opacity:1"
           d="M 1272.4459,-96.676267 C 1238.8753,-78.023554 1259.6655,-43.692691 1275.4199,-49.092557 L 1327.5998,-66.395724 C 1330.6727,-93.701474 1301.1733,-102.49173 1272.4459,-96.676267 z "
           id="path3453" />
        <g
           style="stroke-width:6.37795258;stroke-miterlimit:4;stroke-dasharray:none"
           transform="translate(1130.033,0.000000)"
           id="g3459">
          <path
             style="fill:#82c896;fill-opacity:1;fill-rule:evenodd;stroke:#000000;stroke-width:6.37795258;stroke-linecap:butt;stroke-linejoin:miter;stroke-miterlimit:4;stroke-dasharray:none;stroke-opacity:1"
             d="M 826.53687,892.87829 L 789.47837,939.86317 C 759.14519,949.49236 749.00501,908.83672 772.9344,886.92246 C 791.62698,881.48194 809.60747,882.45018 826.53687,892.87829 z "
             id="path3455" />
          <path
             style="fill:#469664;fill-opacity:1;fill-rule:evenodd;stroke:#000000;stroke-width:6.37795258;stroke-linecap:butt;stroke-linejoin:miter;stroke-miterlimit:4;stroke-dasharray:none;stroke-opacity:1"
             d="M 772.9344,886.92246 L 905.28618,726.7768 C 946.55544,704.45962 991.07094,732.99679 984.03549,782.36455 L 844.40436,968.3188 C 872.13478,907.47847 816.1381,868.77843 772.9344,886.92246 z "
             id="path3457" />
        </g>
        <g
           style="stroke-width:6.37795258;stroke-miterlimit:4;stroke-dasharray:none"
           transform="matrix(-1.000000,0.000000,0.000000,1.000000,2011.525,0.000000)"
           id="g3463">
          <path
             id="path3465"
             d="M 826.53687,892.87829 L 789.47837,939.86317 C 759.14519,949.49236 749.00501,908.83672 772.9344,886.92246 C 791.62698,881.48194 809.60747,882.45018 826.53687,892.87829 z "
             style="fill:#82c896;fill-opacity:1;fill-rule:evenodd;stroke:#000000;stroke-width:6.37795258;stroke-linecap:butt;stroke-linejoin:miter;stroke-miterlimit:4;stroke-dasharray:none;stroke-opacity:1" />
          <path
             id="path3467"
             d="M 772.9344,886.92246 L 905.28618,726.7768 C 946.55544,704.45962 991.07094,732.99679 984.03549,782.36455 L 844.40436,968.3188 C 872.13478,907.47847 816.1381,868.77843 772.9344,886.92246 z "
             style="fill:#469664;fill-opacity:1;fill-rule:evenodd;stroke:#000000;stroke-width:6.37795258;stroke-linecap:butt;stroke-linejoin:miter;stroke-miterlimit:4;stroke-dasharray:none;stroke-opacity:1" />
        </g>
      </g>
    </g>
    <path
       id="text4043"
       d="M 1459.7855,-57.414783 L 1459.7855,32.12889 C 1459.7854,38.857466 1460.0815,43.16374 1460.6737,45.047725 C 1461.2657,46.877901 1462.5038,48.385097 1464.3878,49.569317 C 1466.2718,50.753547 1469.2861,51.34566 1473.431,51.345657 L 1475.934,51.345657 L 1475.934,54.333138 L 1418.2837,54.333138 L 1418.2837,51.345657 L 1421.1905,51.345657 C 1425.8735,51.34566 1429.2109,50.807376 1431.2026,49.730803 C 1433.1942,48.654239 1434.5399,47.173957 1435.2397,45.289953 C 1435.9394,43.405967 1436.2893,39.018951 1436.2894,32.12889 L 1436.2894,-24.63324 C 1436.2893,-29.693032 1436.0471,-32.841995 1435.5627,-34.080137 C 1435.0782,-35.371931 1434.1631,-36.4485 1432.8174,-37.309846 C 1431.5255,-38.224838 1430.0183,-38.682379 1428.2958,-38.682472 C 1425.5506,-38.682379 1422.2132,-37.821124 1418.2837,-36.098705 L 1416.8304,-39.005443 L 1457.121,-57.414783 L 1459.7855,-57.414783 M 1513.8024,-55.153986 L 1565.074,-55.153986 L 1556.919,-34.322366 L 1513.8024,-34.322366 L 1509.6845,-23.422099 C 1528.2553,-22.722251 1542.5467,-18.093007 1552.5589,-9.5343515 C 1560.7946,-2.4827641 1564.9124,6.2912691 1564.9125,16.787774 C 1564.9124,23.516365 1563.0015,30.110347 1559.1798,36.56974 C 1555.3579,42.97534 1549.975,47.927555 1543.0312,51.4264 C 1536.0873,54.871422 1528.4706,56.593931 1520.181,56.593934 C 1511.2455,56.593931 1504.3824,54.92525 1499.5916,51.587885 C 1496.2543,49.219437 1494.5856,46.528016 1494.5856,43.513613 C 1494.5856,41.199002 1495.4468,39.153522 1497.1694,37.377167 C 1498.9457,35.600846 1500.9912,34.712677 1503.3058,34.712657 C 1505.4051,34.712677 1507.5313,35.143304 1509.6845,36.004541 C 1511.8376,36.865814 1515.5248,39.126608 1520.7462,42.786929 C 1524.0297,45.047734 1526.8557,46.608759 1529.2242,47.470007 C 1530.8929,48.115955 1532.7769,48.438925 1534.8762,48.438919 C 1539.2901,48.438925 1543.0312,46.824072 1546.0994,43.594356 C 1549.2214,40.364661 1550.7825,36.489015 1550.7825,31.967405 C 1550.7825,22.493625 1546.0456,14.79616 1536.5718,8.874988 C 1527.098,2.9539068 1515.148,-0.0066565471 1500.722,-0.006710887 C 1499.2687,-0.0066565471 1497.0886,0.020257665 1494.1819,0.07403183 L 1513.8024,-55.153986 M 1648.9657,-57.414783 L 1648.9657,-55.153986 C 1639.2226,-52.677769 1631.3906,-49.474978 1625.4695,-45.545603 C 1619.6022,-41.669857 1614.946,-36.932955 1611.5011,-31.334885 C 1608.1098,-25.790472 1605.4722,-18.900433 1603.5883,-10.66475 C 1605.9567,-12.279537 1607.9214,-13.329191 1609.4825,-13.813715 C 1612.9813,-14.890216 1616.5071,-15.4285 1620.0598,-15.42857 C 1628.2417,-15.4285 1635.0509,-12.441022 1640.4877,-6.4661282 C 1645.9781,-0.54494079 1648.7234,7.556237 1648.7234,17.83743 C 1648.7234,25.050475 1647.2431,31.671371 1644.2826,37.700138 C 1641.322,43.728938 1637.1233,48.385097 1631.6867,51.668628 C 1626.25,54.952164 1620.4365,56.593931 1614.2463,56.593934 C 1607.5177,56.593931 1601.3005,54.763765 1595.5947,51.103429 C 1589.8889,47.389271 1585.4211,41.979514 1582.1914,34.874143 C 1579.0156,27.76881 1577.4276,20.044431 1577.4276,11.700983 C 1577.4276,-0.571855 1580.3613,-11.983481 1586.2286,-22.533929 C 1592.1497,-33.138052 1600.52,-41.5622 1611.3396,-47.806399 C 1622.2129,-54.104223 1634.7549,-57.307014 1648.9657,-57.414783 M 1602.5386,-4.1245894 C 1602.108,3.3037915 1601.8926,8.7404624 1601.8927,12.185439 C 1601.8926,19.613804 1602.5924,26.799899 1603.992,33.743745 C 1605.4453,40.687632 1607.4101,45.559104 1609.8862,48.358176 C 1611.6625,50.349834 1613.7618,51.34566 1616.1841,51.345657 C 1618.6602,51.34566 1620.8672,49.919207 1622.805,47.066293 C 1624.7428,44.159565 1625.7117,38.292267 1625.7118,29.464381 C 1625.7117,14.607761 1623.9085,4.3534458 1620.302,-1.2985944 C 1617.9873,-4.9588716 1614.8653,-6.789038 1610.9359,-6.7890991 C 1608.7827,-6.789038 1605.9836,-5.900869 1602.5386,-4.1245894 M 1658.0896,13.073609 L 1710.0879,-57.414783 L 1719.9385,-57.414783 L 1719.9385,13.073609 L 1729.9506,13.073609 L 1729.9506,29.787352 L 1719.9385,29.787352 L 1719.9385,54.333138 L 1697.7343,54.333138 L 1697.7343,29.787352 L 1658.0896,29.787352 L 1658.0896,13.073609 M 1665.9216,13.073609 L 1697.7343,13.073609 L 1697.7343,-30.123744 L 1665.9216,13.073609"
       style="font-size:165.36108398px;font-style:normal;font-variant:normal;font-weight:bold;font-stretch:normal;text-align:start;line-height:100%;writing-mode:lr-tb;text-anchor:start;fill:#000000;fill-opacity:1;stroke:none;stroke-width:1px;stroke-linecap:butt;stroke-linejoin:miter;stroke-opacity:1;font-family:Times New Roman" />
  </g>
</svg>