<svg xmlns="http://www.w3.org/2000/svg"><title>Herb Drobin</title><path d="M446.5 75.875v417.5c12.158 143.978 156.703 184.212 244.5 181 87.797 3.212 232.342-37.022 244.5-181v-417.5z" style="fill:#1f1a17;fill-opacity:1;fill-rule:evenodd;stroke:#1f1a17;stroke-width:1.32882273;stroke-linecap:butt;stroke-linejoin:miter;stroke-miterlimit:4;stroke-dasharray:none;stroke-opacity:1" transform="matrix(-1.5051 0 0 1.5051 1413.019 -107.819)"/><path d="M925.5 83.962v403.5c.96 98.66-99.718 178.683-233 179h-1.562c-.484-.001-.954.003-1.438 0-133.282-.317-233.96-80.34-233-179v-403.5z" style="fill:#da251d;fill-opacity:1;fill-rule:evenodd;stroke:#da281d;stroke-width:1.32882273;stroke-linecap:butt;stroke-linejoin:miter;stroke-miterlimit:4;stroke-dasharray:none;stroke-opacity:1" transform="matrix(-1.5051 0 0 1.5051 1413.019 -107.819)"/><path d="M732.453 296.78c12.93-.072 12.62 22.188-.156 22.012-2.498-.034-80.097-.034-82.594 0-12.777.176-13.087-22.084-.156-22.011 7.475.042 75.43.042 82.906 0zm-84.013-23.212c-2.61-.881-4.946-1.979-5.253-4.728v-12.197h95.626v12.197c-.308 2.75-2.645 3.847-5.254 4.728z" style="fill:#fff;fill-opacity:1;fill-rule:evenodd;stroke:#000;stroke-width:1.32882273;stroke-linecap:butt;stroke-linejoin:miter;stroke-miterlimit:4;stroke-dasharray:none;stroke-opacity:1" transform="matrix(-1.5051 0 0 1.5051 1413.019 -110.829)"/><path d="M739.143 457.718c14.92-.074 14.561 22.186-.18 22.01-2.882-.033-92.415-.033-95.297 0-14.741.176-15.1-22.084-.18-22.01 8.625.042 87.033.042 95.657 0z" style="fill:#fff;fill-opacity:1;fill-rule:evenodd;stroke:#000;stroke-width:1.32882273;stroke-linecap:butt;stroke-linejoin:miter;stroke-miterlimit:4;stroke-dasharray:none;stroke-opacity:1" transform="matrix(-1.5051 0 0 1.5051 1413.493 -114.815)"/><path d="M716.314 458.315v20.817m-49.999-21.317v20.817" style="fill:none;fill-opacity:.75;fill-rule:evenodd;stroke:#000;stroke-width:1.32882273;stroke-linecap:butt;stroke-linejoin:miter;stroke-miterlimit:4;stroke-dasharray:none;stroke-opacity:1" transform="matrix(-1.5051 0 0 1.5051 1413.493 -114.815)"/><path d="M627.696 503.218c-19.767-.074-19.292 22.186.239 22.01 3.817-.033 122.442-.033 126.26 0 19.53.176 20.005-22.084.238-22.01-11.427.042-115.31.042-126.737 0z" style="fill:#fff;fill-opacity:1;fill-rule:evenodd;stroke:#000;stroke-width:1.32882261;stroke-linecap:butt;stroke-linejoin:miter;stroke-miterlimit:4;stroke-dasharray:none;stroke-opacity:1" transform="matrix(-1.5051 0 0 1.5051 1413.116 -115.23)"/><path d="M666.637 504.315v20.817m48.855-20.817v20.817" style="fill:none;fill-opacity:.75;fill-rule:evenodd;stroke:#000;stroke-width:1.32882261;stroke-linecap:butt;stroke-linejoin:miter;stroke-miterlimit:4;stroke-dasharray:none;stroke-opacity:1" transform="matrix(-1.5051 0 0 1.5051 1413.116 -115.23)"/><path d="M619.24 522.906c-4.4 1.206-8.34 2.708-8.86 6.469v16.688h161.238v-16.688c-.519-3.761-4.458-5.263-8.859-6.469z" style="fill:#fff;fill-opacity:1;fill-rule:evenodd;stroke:#000;stroke-width:1.32882273;stroke-linecap:butt;stroke-linejoin:miter;stroke-miterlimit:4;stroke-dasharray:none;stroke-opacity:1" transform="matrix(-1.5051 0 0 1.5051 1413.019 -110.829)"/><path d="M733.518 277.718c12.93-.074 12.62 22.186-.156 22.01-2.498-.033-80.097-.033-82.594 0-12.777.176-13.087-22.084-.156-22.01 7.475.042 75.43.042 82.906 0z" style="fill:#fff;fill-opacity:1;fill-rule:evenodd;stroke:#000;stroke-width:1.32882273;stroke-linecap:butt;stroke-linejoin:miter;stroke-miterlimit:4;stroke-dasharray:none;stroke-opacity:1" transform="matrix(-1.5051 0 0 1.5051 1414.622 -116.17)"/><path d="M716.548 278.315v20.817m-48.968-20.817v20.817" style="fill:none;fill-opacity:.75;fill-rule:evenodd;stroke:#000;stroke-width:1.32882273;stroke-linecap:butt;stroke-linejoin:miter;stroke-miterlimit:4;stroke-dasharray:none;stroke-opacity:1" transform="matrix(-1.5051 0 0 1.5051 1414.622 -116.17)"/><path d="M733.518 277.718c12.93-.074 12.62 22.186-.156 22.01-2.498-.033-80.097-.033-82.594 0-12.777.176-13.087-22.084-.156-22.01 7.475.042 75.43.042 82.906 0z" style="fill:#fff;fill-opacity:1;fill-rule:evenodd;stroke:#000;stroke-width:1.32882273;stroke-linecap:butt;stroke-linejoin:miter;stroke-miterlimit:4;stroke-dasharray:none;stroke-opacity:1" transform="matrix(-1.5051 0 0 1.5051 1414.622 19.965)"/><path d="M716.548 278.315v20.817m-48.968-20.817v20.817" style="fill:none;fill-opacity:.75;fill-rule:evenodd;stroke:#000;stroke-width:1.32882273;stroke-linecap:butt;stroke-linejoin:miter;stroke-miterlimit:4;stroke-dasharray:none;stroke-opacity:1" transform="matrix(-1.5051 0 0 1.5051 1414.622 19.965)"/><path d="M733.518 277.718c12.93-.074 12.62 22.186-.156 22.01-2.498-.033-80.097-.033-82.594 0-12.777.176-13.087-22.084-.156-22.01 7.475.042 75.43.042 82.906 0z" style="fill:#fff;fill-opacity:1;fill-rule:evenodd;stroke:#000;stroke-width:1.32882273;stroke-linecap:butt;stroke-linejoin:miter;stroke-miterlimit:4;stroke-dasharray:none;stroke-opacity:1" transform="matrix(-1.5051 0 0 1.5051 1414.622 -48.103)"/><path d="M716.548 278.315v20.817m-48.968-20.817v20.817" style="fill:none;fill-opacity:.75;fill-rule:evenodd;stroke:#000;stroke-width:1.32882273;stroke-linecap:butt;stroke-linejoin:miter;stroke-miterlimit:4;stroke-dasharray:none;stroke-opacity:1" transform="matrix(-1.5051 0 0 1.5051 1414.622 -48.103)"/><path d="M851.518 408.218c12.93-.074 12.62 22.186-.156 22.01-2.498-.033-80.097-.033-82.594 0-12.777.176-13.087-22.084-.156-22.01 7.475.042 75.43.042 82.906 0z" style="fill:#fff;fill-opacity:1;fill-rule:evenodd;stroke:#000;stroke-width:1.32882273;stroke-linecap:butt;stroke-linejoin:miter;stroke-miterlimit:4;stroke-dasharray:none;stroke-opacity:1" transform="matrix(-1.5051 0 0 1.5051 1592.223 -108.381)"/><path d="M834.548 408.815v20.817m-48.968-20.817v20.817" style="fill:none;fill-opacity:.75;fill-rule:evenodd;stroke:#000;stroke-width:1.32882273;stroke-linecap:butt;stroke-linejoin:miter;stroke-miterlimit:4;stroke-dasharray:none;stroke-opacity:1" transform="matrix(-1.5051 0 0 1.5051 1592.223 -108.381)"/><path d="M732.453 342.006c12.93-.073 12.62 22.187-.156 22.011-2.498-.034-80.097-.034-82.594 0-12.777.176-13.087-22.084-.156-22.011 7.475.042 75.43.042 82.906 0zm0 45.225c12.93-.073 12.62 22.187-.156 22.012-2.498-.035-80.097-.035-82.594 0-12.777.175-13.087-22.085-.156-22.012 7.475.042 75.43.042 82.906 0z" style="fill:#fff;fill-opacity:1;fill-rule:evenodd;stroke:#000;stroke-width:1.32882273;stroke-linecap:butt;stroke-linejoin:miter;stroke-miterlimit:4;stroke-dasharray:none;stroke-opacity:1" transform="matrix(-1.5051 0 0 1.5051 1413.019 -110.829)"/><path d="M617.634 426.533c12.93-.073 12.62 22.187-.156 22.011-2.497-.034-80.096-.034-82.594 0-12.776.176-13.087-22.084-.156-22.011 7.475.042 75.431.042 82.906 0z" style="fill:#fff;fill-opacity:1;fill-rule:evenodd;stroke:#000;stroke-width:1.32882273;stroke-linecap:butt;stroke-linejoin:miter;stroke-miterlimit:4;stroke-dasharray:none;stroke-opacity:1" transform="matrix(-1.5051 0 0 1.5051 1240.206 -101.914)"/><path d="M576.181 427.315v20.817" style="fill:none;fill-opacity:.75;fill-rule:evenodd;stroke:#000;stroke-width:1.32882273;stroke-linecap:butt;stroke-linejoin:miter;stroke-miterlimit:4;stroke-dasharray:none;stroke-opacity:1" transform="matrix(-1.5051 0 0 1.5051 1240.206 -101.914)"/><path d="M617.634 426.533c12.93-.073 12.62 22.187-.156 22.011-2.497-.034-80.096-.034-82.594 0-12.776.176-13.087-22.084-.156-22.011 7.475.042 75.431.042 82.906 0z" style="fill:#fff;fill-opacity:1;fill-rule:evenodd;stroke:#000;stroke-width:1.17509341;stroke-linecap:butt;stroke-linejoin:miter;stroke-miterlimit:4;stroke-dasharray:none;stroke-opacity:1" transform="matrix(-1.92465 0 0 1.5051 1481.95 -33.846)"/><path d="M576.181 427.315v20.817" style="fill:none;fill-opacity:.75;fill-rule:evenodd;stroke:#000;stroke-width:1.17509341;stroke-linecap:butt;stroke-linejoin:miter;stroke-miterlimit:4;stroke-dasharray:none;stroke-opacity:1" transform="matrix(-1.92465 0 0 1.5051 1481.95 -33.846)"/><path d="M683.499 307.862h15v68.5h-15z" style="fill:#000;fill-opacity:1;fill-rule:evenodd;stroke:#000;stroke-width:.66441137px;stroke-linecap:butt;stroke-linejoin:miter;stroke-opacity:1" transform="matrix(-1.5051 0 0 1.5051 1413.018 -110.829)"/><path d="m745.593 254.063-106.187-.188 53.062-104.312z" style="fill:#000;fill-opacity:1;fill-rule:evenodd;stroke:none;stroke-width:1px;stroke-linecap:butt;stroke-linejoin:miter;stroke-opacity:1" transform="matrix(-1.5051 0 0 1.5051 1415.276 -107.819)"/></svg>