<!-- Creator: CorelDRAW -->
<svg
   xmlns="http://www.w3.org/2000/svg"
   style="shape-rendering:geometricPrecision; text-rendering:geometricPrecision; image-rendering:optimizeQuality; fill-rule:evenodd; clip-rule:evenodd"
   viewBox="-23.35 -11.84 256.66 320.72"
   id="svg2"
   version="1.0"><title>Herb Konstantynów Łódzki</title><metadata
   id="metadata27"><rdf:RDF><cc:Work
       rdf:about=""><dc:format>image/svg+xml</dc:format><dc:type
         rdf:resource="http://purl.org/dc/dcmitype/StillImage" /></cc:Work></rdf:RDF></metadata><sodipodi:namedview
   guidetolerance="10.0"
   gridtolerance="10.0"
   objecttolerance="10.0"
   borderopacity="1.0"
   bordercolor="#666666"
   pagecolor="#ffffff"
   id="base" />
 <defs
   id="defs4">
  <style
   type="text/css"
   id="style6">
   
    .fil0 {fill:#0A0B0C}
    .fil1 {fill:#DC2B19}
    .fil3 {fill:#DDDDDD}
    .fil2 {fill:#FFF500}
   
  </style>
 </defs>
 <g
   id="Warstwa_x0020_1"
   transform="matrix(1.13166,0,0,1.13166,-13.839389,-19.532771)">
  <metadata
   id="CorelCorpID_0Corel-Layer" />
  <g
   id="_76178224">
   <path
   id="_76738424"
   class="fil0"
   d="M 0,17.2936 L 210,17.2936 L 210,169.2606 C 207.884,226.1094 166.8615,278.5546 105.043,279.7066 C 42.6672,278.7955 0.946,223.8379 0,169.3456 L 0,17.2936 L 0,17.2936 z "
   style="fill:#0a0b0c" />
   <path
   id="_76738352"
   class="fil1"
   d="M 1.967,19.3045 L 208.033,19.3045 L 208.033,168.9835 C 205.9566,224.9761 165.7026,276.6315 105.042,277.7655 C 43.8347,276.8681 2.896,222.7382 1.967,169.0665 L 1.967,19.3045 L 1.967,19.3045 z "
   style="fill:#dc2b19" />
   <g
   id="g13">
    <path
   id="_76738280"
   class="fil0"
   d="M 30.2895,102.859 C 58.6333,97.8054 81.388,121.9509 81.9754,149.2356 C 82.636,179.9228 57.6377,202.1022 32.1693,198.685 C 49.3366,183.888 54.2957,165.3002 54.1886,149.8928 C 54.0301,127.0979 39.6273,109.4599 30.2895,102.859 L 30.2895,102.859 z "
   style="fill:#0a0b0c" />
    <path
   id="_76738208"
   class="fil2"
   d="M 33.4641,103.581 C 61.6411,102.1953 80.1434,124.8386 80.4796,149.153 C 80.8767,177.8747 60.0308,198.0135 35.4933,197.5221 C 52.2202,181.6974 55.7053,164.1802 55.6844,149.3116 C 55.6536,127.3988 42.6155,111.2053 33.4641,103.581 L 33.4641,103.581 z "
   style="fill:#fff500" />
   </g>
   <g
   id="g17">
    <path
   id="_76738112"
   class="fil0"
   d="M 179.564,102.859 C 151.2202,97.8054 128.4655,121.9509 127.8781,149.2356 C 127.2175,179.9228 152.2158,202.1022 177.6842,198.685 C 160.5169,183.888 155.5578,165.3002 155.6649,149.8928 C 155.8234,127.0979 170.2262,109.4599 179.564,102.859 z "
   style="fill:#0a0b0c" />
    <path
   id="_76178488"
   class="fil2"
   d="M 176.389,103.581 C 148.212,102.1953 129.7097,124.8386 129.3735,149.153 C 128.9764,177.8747 149.8223,198.0135 174.3598,197.5221 C 157.6329,181.6974 154.1478,164.1802 154.1687,149.3116 C 154.1995,127.3988 167.2376,111.2053 176.389,103.581 L 176.389,103.581 z "
   style="fill:#fff500" />
   </g>
   <g
   id="g21">
    <path
   id="_76178392"
   class="fil0"
   d="M 105,38.4255 C 109.1714,38.4255 112.5737,42.2566 112.5737,46.9538 C 112.5737,49.8153 111.3107,52.3551 109.3807,53.9034 C 110.1293,55.0852 110.7434,56.5113 110.7682,58.7952 L 110.7682,83.6398 C 110.7536,84.8814 110.5932,85.9399 110.3317,86.8717 C 116.3833,86.3206 122.4451,84.8561 128.5176,82.4846 L 128.5176,99.1179 C 122.0254,95.1862 116.6364,93.446 112.3251,94.0606 L 112.3256,217.0516 C 112.6014,225.7572 110.2964,237.4793 106.6151,246.8415 C 105.5236,249.6178 104.6613,249.5485 103.5125,247.0924 C 99.7261,238.9994 97.8486,225.9422 97.7151,217.3554 L 97.7151,94.0054 C 93.3113,93.1766 87.912,94.854 81.4236,99.1677 L 81.4236,82.4844 C 87.451,84.8778 93.4874,86.3399 99.5331,86.8812 C 99.2846,85.9234 99.1661,84.9745 99.1878,84.0065 L 99.1878,58.4282 C 99.088,56.6263 99.6961,55.194 100.6098,53.8954 C 98.6851,52.3464 97.4262,49.8103 97.4262,46.9536 C 97.4262,42.2564 100.8285,38.4253 105,38.4253 L 105,38.4255 z "
   style="fill:#0a0b0c" />
    <path
   id="_76178320"
   class="fil2"
   d="M 82.6534,84.1613 C 97.2655,89.7001 112.1992,89.6424 127.4448,84.1613 L 127.4448,96.9749 C 116.9934,91.4014 109.5188,91.4014 105.021,96.9749 C 100.0805,91.4529 92.7869,91.0966 82.6534,96.9749 L 82.6534,84.1613 L 82.6534,84.1613 z M 108.5249,54.4976 C 109.1276,55.6471 109.6239,57.0329 109.6438,59.26 L 109.6438,83.3392 C 109.6299,84.7681 109.452,85.9464 109.1695,86.9665 C 106.3742,87.167 103.5814,87.1716 100.7903,86.9807 C 100.5127,85.8818 100.3778,84.8009 100.3982,83.6948 L 100.3982,58.9045 C 100.3188,57.1652 100.8002,55.7812 101.5247,54.5267 C 102.5667,55.1364 103.7487,55.482 105.0003,55.482 C 106.2716,55.482 107.471,55.1254 108.5249,54.4976 L 108.5249,54.4976 z M 104.9979,39.5018 C 108.5598,39.5018 111.465,42.8791 111.465,47.02 C 111.465,51.1605 108.5598,54.5378 104.9979,54.5378 C 101.436,54.5378 98.5308,51.1605 98.5308,47.02 C 98.5308,42.8791 101.436,39.5018 104.9979,39.5018 z "
   style="fill:#fff500" />
    <path
   id="_76178248"
   class="fil3"
   d="M 111.245,94.2706 L 111.1899,219.4316 C 110.9618,229.8388 106.9892,242.7885 105.4951,246.6483 L 105.3991,98.1353 C 107.0246,96.1104 108.9717,94.8309 111.245,94.2702 L 111.245,94.2706 z M 98.7566,94.2539 L 98.8117,219.4319 C 98.9875,228.9388 103.0203,242.6276 104.5065,246.6486 L 104.6025,98.1956 C 102.9136,96.2161 100.9696,94.8955 98.7566,94.2542 L 98.7566,94.2539 z "
   style="fill:#dddddd" />
   </g>
  </g>
 </g>
</svg>