<svg
   xmlns="http://www.w3.org/2000/svg"
   id="svg8"
   version="1.1"
   viewBox="0 0 290.7847 351.30127"><title>Herb Dobre Miasto</title>
  <defs
     id="defs2" />
  <metadata
     id="metadata5">
    <rdf:RDF>
      <cc:Work
         rdf:about="">
        <dc:format>image/svg+xml</dc:format>
        <dc:type
           rdf:resource="http://purl.org/dc/dcmitype/StillImage" />
        <dc:title></dc:title>
      </cc:Work>
    </rdf:RDF>
  </metadata>
  <g
     transform="translate(-252.65652,23.653514)"
     id="layer1">
    <path
       id="path4601"
       d="m 391.83497,327.5478 c -28.49189,-1.4482 -54.57367,-10.20202 -76.96907,-25.83315 -15.68895,-10.95029 -28.54611,-24.4112 -39.10476,-40.94107 -12.19166,-19.08641 -19.67697,-40.51879 -22.36232,-64.02917 l -0.5893,-5.15938 -0.0765,-107.61927 -0.0765,-107.619274 H 398.04889 543.44121 V 80.81584 c 0,70.28031 -0.0911,105.84656 -0.27847,108.67761 -1.31975,19.94301 -5.70603,37.50586 -13.67214,54.74367 -4.28146,9.26467 -10.03895,18.758 -16.44754,27.11979 -7.58312,9.89428 -18.3982,20.56262 -28.33935,27.95476 -18.99414,14.12389 -42.14868,23.59171 -65.55376,26.80471 -8.50499,1.16755 -20.32239,1.78683 -27.31498,1.43142 z"
       style="fill:#000000;stroke-width:1" />
    <path
       id="path4599"
       d="m 405.67056,322.94897 c 5.03521,-0.2648 10.69886,-0.80566 14.07795,-1.34443 3.59919,-0.57385 10.07937,-1.8706 12.03854,-2.40903 1.0914,-0.29993 2.40109,-0.63161 2.91041,-0.73705 1.31917,-0.27308 6.90994,-1.85068 7.54063,-2.12781 0.29104,-0.12787 1.06495,-0.40682 1.71979,-0.61989 8.21486,-2.67282 19.12795,-7.70533 26.28085,-12.11932 1.13931,-0.70305 2.11462,-1.27828 2.16735,-1.27828 0.25984,0 7.52176,-4.967 10.31326,-7.05406 6.15463,-4.60147 13.07288,-10.8508 18.90069,-17.07321 l 1.65772,-1.76996 -2.71003,-0.84193 c -2.22386,-0.69091 -2.75091,-0.77684 -2.93791,-0.479 -0.12533,0.19962 -0.57262,0.95826 -0.99398,1.68587 -0.77848,1.34427 -3.03586,3.02797 -4.524,3.37428 -0.36368,0.0846 -1.31609,0.35198 -2.11645,0.5941 -3.45534,1.04531 -5.6769,1.45351 -8.04582,1.47836 -2.82561,0.0297 -3.25046,-0.1275 -4.83317,-1.78811 -1.18235,-1.24055 -1.55407,-2.26131 -1.27919,-3.51282 0.18552,-0.84468 2.66939,-4.72144 3.77873,-5.89775 0.37597,-0.39864 0.63273,-0.77409 0.57058,-0.83428 -0.0622,-0.0602 -1.83941,-0.483 -3.94946,-0.93959 -2.11006,-0.45656 -4.31271,-0.93853 -4.8948,-1.07101 -4.29424,-0.97729 -12.99331,-2.54383 -17.59479,-3.16851 -1.0914,-0.14817 -3.59172,-0.50671 -5.55625,-0.7968 -4.4086,-0.65093 -12.53139,-1.59702 -13.69218,-1.59475 -0.47295,0 -0.8599,0.11907 -0.8599,0.26255 0,0.39539 -5.12082,5.62864 -6.69065,6.83757 -1.87263,1.44209 -3.91812,2.43002 -4.98944,2.40978 -1.35772,-0.0257 -3.68162,-1.28784 -4.28949,-2.32977 -0.51839,-0.88855 -0.51824,-0.90127 0.0479,-4.10104 0.31234,-1.76535 0.63848,-3.45995 0.72478,-3.76581 0.14789,-0.5242 0.0305,-0.56589 -2.04653,-0.72684 -4.88083,-0.37822 -26.38703,-0.50332 -33.42424,-0.19442 -15.41518,0.67665 -15.08882,0.64561 -15.86246,1.50913 -0.52563,0.58669 -0.64864,0.94457 -0.53478,1.55573 0.6342,3.40413 0.35455,6.10825 -0.85591,8.2764 -0.36321,0.65056 -1.21374,2.2642 -1.89007,3.58588 -1.20802,2.36066 -1.26047,2.41821 -2.97484,3.26366 -0.95983,0.47334 -3.43859,1.33919 -5.50835,1.92413 -3.14169,0.88791 -4.1909,1.06875 -6.35289,1.09511 -2.94805,0.0359 -3.545,-0.17672 -5.15011,-1.83462 -0.84847,-0.87638 -1.05177,-1.29604 -1.15666,-2.38763 -0.1105,-1.15004 -0.0147,-1.50929 0.72794,-2.72886 1.46384,-2.40408 5.39062,-7.3769 6.39209,-8.0949 0.26115,-0.18722 0.60357,-0.8186 0.76095,-1.40303 0.15737,-0.58442 0.52789,-1.30437 0.82338,-1.59986 0.2955,-0.29549 0.4903,-0.58423 0.4329,-0.64161 -0.13271,-0.13272 -3.12081,0.22987 -8.67098,1.05214 -7.93727,1.17591 -9.90561,1.49391 -11.50938,1.85936 -0.87312,0.19896 -2.48047,0.50853 -3.57187,0.68794 -1.09141,0.17939 -2.75828,0.49051 -3.70417,0.69136 -0.94588,0.20084 -2.55323,0.53819 -3.57187,0.74964 -5.24531,1.08887 -14.40143,3.28769 -16.13959,3.87588 -0.43656,0.14772 -1.56153,0.43678 -2.49992,0.64233 -0.9384,0.20556 -2.60528,0.65572 -3.70417,1.00039 -1.0989,0.34467 -2.80304,0.83579 -3.78698,1.09138 -0.98395,0.25559 -1.84455,0.55459 -1.91246,0.66448 -0.22152,0.35843 6.04271,6.87424 10.30611,10.72001 1.29059,1.16417 2.54004,2.29526 2.77656,2.51354 0.23652,0.21829 0.98775,0.84892 1.6694,1.4014 0.68166,0.5525 1.39513,1.16027 1.5855,1.35064 0.29344,0.29345 5.75772,4.39947 9.3243,7.00657 2.4325,1.77813 13.77876,8.57461 14.41979,8.63758 0.0728,0.007 1.75512,0.81204 3.73858,1.78861 1.98345,0.97661 3.68068,1.77562 3.77161,1.77562 0.0909,0 0.78981,0.30549 1.55308,0.67887 3.60816,1.76501 17.3463,6.4738 20.12416,6.89763 0.60905,0.0929 1.32085,0.27864 1.58178,0.41267 0.82203,0.42231 10.83625,2.30296 15.79745,2.96675 7.61292,1.01857 17.88676,1.38957 26.27101,0.94864 z"
       style="fill:#009747;fill-opacity:1;stroke-width:1" />
    <path
       id="path4597"
       d="m 361.88744,280.43659 c 0.191,-0.0764 0.4192,-0.067 0.50712,0.0209 0.0879,0.0879 -0.0684,0.15047 -0.34726,0.13899 -0.30823,-0.0127 -0.37092,-0.0754 -0.15986,-0.15986 z"
       style="fill:#000000;stroke-width:1" />
    <path
       id="path4595"
       d="m 493.17038,280.08816 c 0,-0.14552 0.11906,-0.26458 0.26458,-0.26458 0.14552,0 0.26458,0.11906 0.26458,0.26458 0,0.14552 -0.11906,0.26458 -0.26458,0.26458 -0.14552,0 -0.26458,-0.11906 -0.26458,-0.26458 z"
       style="fill:#000000;stroke-width:1" />
    <path
       id="path4593"
       d="m 486.68809,279.16257 c 2.63795,-0.77277 6.03361,-2.07574 6.93301,-2.66031 0.59582,-0.38727 1.74107,-2.17953 2.04435,-3.19931 0.14425,-0.48506 -0.0728,-0.70117 -1.49388,-1.4877 -4.02897,-2.22983 -7.83968,-4.16251 -8.20734,-4.16251 -0.54089,0 -3.06693,2.74955 -5.21077,5.6718 -2.38232,3.24731 -2.68407,3.75848 -2.50075,4.23621 0.28513,0.74303 1.03513,0.43056 2.03083,-0.84603 1.0844,-1.39033 4.53004,-5.03928 5.32339,-5.63747 0.46848,-0.35325 0.48467,-0.34224 0.21648,0.14737 -0.15942,0.29104 -1.04211,1.43523 -1.96155,2.54262 -2.65007,3.19188 -2.87045,3.48485 -3.42626,4.55514 -0.43494,0.83754 -0.46691,1.08321 -0.18516,1.4227 0.47889,0.57703 3.37344,0.31511 6.43765,-0.58251 z"
       style="fill:#fecc00;fill-opacity:1;stroke-width:1" />
    <path
       id="path4591"
       d="m 354.88281,278.64975 c 1.72272,-0.52734 3.81746,-1.30471 4.65498,-1.72749 1.28048,-0.6464 1.64176,-0.99597 2.27069,-2.19723 0.41137,-0.78568 0.68207,-1.60017 0.60157,-1.80994 -0.18663,-0.48635 -8.87733,-5.26235 -9.57571,-5.26235 -0.75325,0 -5.64473,5.73162 -7.33194,8.59121 -0.30447,0.51604 -0.48543,1.11585 -0.40214,1.33289 0.15516,0.40436 1.22638,0.56438 1.22638,0.18323 0,-0.4376 5.73646,-6.66774 6.13937,-6.66774 0.29823,0 -0.46557,1.09738 -2.06963,2.97357 -0.65459,0.76562 -1.73712,2.19146 -2.40561,3.16854 -1.0649,1.55644 -1.17023,1.83097 -0.8504,2.21634 0.58407,0.70376 3.97148,0.3533 7.74244,-0.80103 z"
       style="fill:#fecc00;fill-opacity:1;stroke-width:1" />
    <path
       id="path4589"
       d="m 508.1192,270.96871 c 13.88063,-17.37989 23.58128,-38.21097 28.15791,-60.46597 0.97301,-4.73144 1.41619,-7.51204 2.17184,-13.62604 0.56435,-4.56647 0.59518,-5.93868 0.74906,-33.3375 0.0882,-15.71625 0.15634,-63.34125 0.15131,-105.833336 l -0.009,-77.258336 H 398.05257 256.76508 V 84.296489 c 0,111.048311 -0.0572,106.052431 1.3302,116.180381 0.84245,6.14981 0.92691,6.61165 2.51106,13.73004 0.87728,3.94204 2.73465,10.33491 4.3048,14.81667 5.60973,16.01208 13.2995,29.70376 24.56274,43.73406 0.42651,0.53131 0.48119,0.5206 7.54062,-1.47624 8.14358,-2.30354 11.52266,-3.16857 18.26217,-4.67511 10.14982,-2.26886 22.57187,-4.44246 32.50507,-5.68775 3.05594,-0.38309 5.82316,-0.75306 6.14938,-0.82211 1.71817,-0.36378 3.77991,-8.02931 4.55021,-16.91765 0.35736,-4.12355 0.35819,-13.67849 10e-4,-16.54339 -0.15335,-1.23312 -0.58589,-3.43265 -0.96099,-4.88786 -0.74959,-2.90802 -0.74924,-2.83638 -0.0666,-13.62604 0.63223,-9.99247 -0.36574,-20.08533 -2.72422,-27.55098 -0.70651,-2.23641 -0.95097,-2.70746 -1.51452,-2.91828 -0.67693,-0.25324 -1.88593,-0.94555 -7.36377,-4.2167 l -2.98758,-1.78407 -1.90721,0.14146 c -2.61549,0.19398 -6.00809,-0.26454 -12.09367,-1.6345 -6.25184,-1.40739 -8.2744,-1.62934 -10.86522,-1.19234 -2.53601,0.42775 -3.4038,0.82309 -7.52332,3.42741 -3.5842,2.2659 -4.74935,3.32291 -6.54216,5.93496 -2.84611,4.14667 -6.99408,15.00271 -8.78729,22.99802 l -0.68932,3.07347 0.59225,1.66234 c 0.45126,1.2666 0.59743,2.28263 0.61399,4.26798 l 0.0217,2.60565 1.25359,0.90973 c 0.68949,0.50036 1.48322,1.28732 1.76387,1.74881 1.10067,1.8099 2.54484,10.13677 2.29321,13.22229 -0.20492,2.51267 -0.89243,3.90656 -2.443,4.95303 -1.69439,1.14353 -2.73731,1.29611 -3.90912,0.57189 -1.19401,-0.73793 -5.3555,-5.09806 -7.03629,-7.37214 -0.72457,-0.98032 -1.72377,-2.20461 -2.22046,-2.72064 -2.11448,-2.19682 -2.57974,-4.27935 -2.80505,-12.55551 -0.21593,-7.93126 -0.8316,-5.43644 7.93323,-32.14688 2.31595,-7.05776 4.3333,-13.48297 4.48299,-14.27825 0.35497,-1.88584 0.9548,-3.06077 3.06906,-6.01159 1.60442,-2.23927 1.90084,-2.51284 3.7678,-3.47743 2.23385,-1.15414 5.24284,-2.16673 13.00659,-4.37699 6.59441,-1.87735 8.7818,-2.63038 10.2918,-3.54305 1.7307,-1.04606 2.31216,-1.36333 4.32643,-2.36066 0.98227,-0.48636 1.78594,-1.03981 1.78594,-1.22991 0,-0.19009 -0.39594,-0.81354 -0.87985,-1.38543 -2.63191,-3.11039 -4.97239,-7.51446 -6.5584,-12.34093 -1.77875,-5.413 -2.05485,-6.968 -2.3647,-13.31804 -0.40912,-8.38429 -0.13591,-11.15708 1.59017,-16.13865 1.23242,-3.556819 2.8684,-6.128889 6.88985,-10.832093 7.52471,-8.800346 11.70765,-14.041052 14.46898,-18.127811 0.8964,-1.326661 2.0181,-3.448029 1.88754,-3.569708 -0.0465,-0.04337 -0.81323,-0.383996 -1.70378,-0.756957 -0.89054,-0.37296 -3.33937,-1.67657 -5.44184,-2.896908 -2.10247,-1.22034 -4.40138,-2.415984 -5.10869,-2.656988 -1.86037,-0.633889 -3.87677,-0.543092 -7.89604,0.35556 -4.21043,0.941393 -5.96988,0.993974 -7.98842,0.238742 -0.81586,-0.305252 -1.51454,-0.513612 -1.55261,-0.463021 -0.0381,0.05059 -0.50296,0.879621 -1.03309,1.842281 -2.44518,4.440192 -2.72853,5.408279 -1.86288,6.364811 0.56249,0.621544 0.69776,0.61196 2.31388,-0.163951 1.77124,-0.850393 4.26237,-1.337123 5.57916,-1.090092 0.99131,0.185973 2.78158,1.660917 2.78158,2.291654 0,0.138325 0.62508,0.876771 1.38906,1.640994 3.49972,3.500813 5.11129,8.243835 3.71943,10.946657 -1.13889,2.21157 -6.20827,3.727508 -10.06257,3.00909 -0.98604,-0.18379 -2.53118,-0.412483 -3.43365,-0.508204 -2.11516,-0.224348 -2.90835,-0.814239 -3.97057,-2.952882 -0.79303,-1.596647 -1.19964,-3.201302 -1.53931,-6.074828 -0.0774,-0.654844 -0.25203,-1.369219 -0.38804,-1.5875 -0.21982,-0.352777 -0.29095,-0.352777 -0.64019,0 -0.44652,0.451046 -2.23615,3.654245 -2.78555,4.985761 -0.32129,0.778679 -0.31171,0.975003 0.0799,1.637943 0.24472,0.414271 0.97817,2.256348 1.62988,4.093503 1.82522,5.145165 1.62317,6.678542 -1.09421,8.303874 -0.87439,0.523 -1.48173,1.088851 -1.57728,1.469536 -0.15507,0.617863 0.42436,2.073438 0.95624,2.402158 0.68939,0.42607 2.3864,2.904609 2.64417,3.861919 0.22639,0.84073 0.19543,1.36419 -0.15121,2.55658 -0.44692,1.53734 -1.40977,2.69376 -3.63703,4.36823 -1.36314,1.02482 -1.28367,1.63531 0.46853,3.59904 2.05246,2.30023 2.3705,2.99493 2.3747,5.18708 0.006,2.92447 -1.55081,5.67985 -3.92027,6.9402 -0.82167,0.43705 -3.76621,0.62826 -5.17193,0.33584 -0.60503,-0.12586 -0.6659,-0.0107 -1.25185,2.36874 -0.72389,2.93955 -1.65989,4.58647 -3.23546,5.69287 -1.0615,0.74541 -1.30351,0.80138 -3.43333,0.79404 -2.71496,-0.009 -4.44894,-0.64966 -5.9341,-2.19127 -1.17484,-1.21948 -1.51325,-2.44505 -1.51513,-5.48696 l -10e-4,-2.39446 -1.5407,-0.31823 c -3.0184,-0.62344 -4.88566,-3.01241 -4.90069,-6.26994 -0.0118,-2.54919 0.84183,-4.1688 3.48615,-6.61458 3.73284,-3.45259 4.27816,-4.03059 4.27816,-4.53464 0,-0.27678 -0.66536,-1.21518 -1.47858,-2.08533 -1.69241,-1.81093 -2.74842,-3.79874 -2.75217,-5.180649 -0.008,-3.006601 2.88328,-6.432278 6.80437,-8.0616 0.9856,-0.409546 1.82772,-0.767395 1.87137,-0.795219 0.0436,-0.02782 -0.17094,-0.793586 -0.47686,-1.701694 -0.36324,-1.078264 -0.49688,-1.938086 -0.38519,-2.478278 0.27471,-1.328653 1.41139,-2.750278 2.9871,-3.735888 1.38242,-0.864706 4.98361,-2.194375 7.31328,-2.700276 1.03778,-0.225362 1.06671,-0.264822 2.29505,-3.130458 0.68421,-1.596218 1.25305,-2.991514 1.26408,-3.100655 0.011,-0.10914 -0.20902,-0.198437 -0.48899,-0.198437 -0.51153,0 -0.96188,0.481377 -2.43493,2.602661 -1.07268,1.54473 -2.68546,2.26826 -4.55632,2.04406 -0.74979,-0.08986 -2.12968,-0.217657 -3.06644,-0.284007 -3.50027,-0.247919 -6.96955,-1.780217 -8.9877,-3.969649 -2.63957,-2.863594 -2.53853,-5.885424 0.28369,-8.48436 2.56315,-2.360361 5.85721,-3.636349 10.17732,-3.942289 3.51203,-0.248714 4.44867,0.12881 6.39826,2.578891 1.09613,1.377527 1.63453,1.821403 2.6141,2.155177 2.56257,0.873157 4.24879,0.318249 5.62443,-1.850919 0.75159,-1.18513 3.18788,-6.508031 3.18788,-6.965 0,-0.126413 -0.39587,-0.304105 -0.8797,-0.394873 -0.88211,-0.165483 -1.97226,-1.110726 -2.52756,-2.19157 -0.81169,-1.579909 -0.0217,-5.200801 1.57547,-7.221419 0.57259,-0.724389 1.28605,-1.971802 1.58545,-2.772029 0.58565,-1.565296 1.49426,-2.417905 2.8699,-2.693035 0.77255,-0.154508 0.81602,-0.229359 0.81602,-1.405025 0,-1.569542 -0.60777,-3.627609 -1.72847,-5.85302 -1.17668,-2.336569 -1.3759,-3.482861 -0.76745,-4.4157 1.0614,-1.627269 4.98022,-6.112409 5.57899,-6.385227 1.12519,-0.512672 2.27521,0.190691 2.97625,1.820307 1.10069,2.558617 1.38908,4.762657 1.32479,10.124565 -0.0327,2.729743 -7.9e-4,5.022003 0.0712,5.093915 0.0719,0.07191 0.81234,-0.103754 1.6454,-0.390367 0.83306,-0.286615 2.25158,-0.649756 3.15227,-0.806979 1.98895,-0.347191 10.07398,-2.255202 12.08866,-2.852838 0.8475,-0.251404 2.67061,-1.24723 4.36562,-2.384605 4.87078,-3.268366 6.8576,-4.019166 10.63577,-4.019166 2.05323,0 2.10992,-0.01783 3.00452,-0.94523 2.60363,-2.699094 6.40129,-4.852405 9.31232,-5.280173 0.69122,-0.101576 1.25677,-0.240094 1.25677,-0.307822 0,-0.06773 -0.5774,-0.798348 -1.28311,-1.623605 -0.70572,-0.825254 -1.66982,-2.074555 -2.14245,-2.776228 -1.20947,-1.795568 -3.08717,-5.847998 -3.57179,-7.708569 -0.57807,-2.2193619 -0.98047,-5.7558149 -0.82243,-7.227901 0.5672,-5.28339198 0.75919,-6.6742232 0.92129,-6.6742232 0.18684,0 0.32014,0.2267201 2.41125,4.1010418 3.07104,5.6898835 7.29695,11.2878074 10.87014,14.3993264 2.47674,2.156727 6.47842,4.789448 9.08623,5.977866 1.11247,0.506971 2.11373,0.921766 2.22502,0.921766 0.11128,0 0.81345,-1.22039 1.56037,-2.711979 1.60474,-3.204639 3.20589,-5.30873 5.27639,-6.933795 1.45077,-1.138658 4.45058,-2.789643 5.06874,-2.789643 0.42421,0 0.37508,0.649328 -0.27307,3.608896 -0.43896,2.004362 -0.57689,3.559008 -0.59531,6.709855 -0.0132,2.255573 0.0616,4.309401 0.16615,4.564062 0.1673,0.407406 0.6024,0.463021 3.62241,0.463021 1.88775,0 3.49962,-0.108982 3.58194,-0.242181 0.0823,-0.133199 -0.13533,-0.580895 -0.48368,-0.994881 -2.11755,-2.516571 -3.60351,-6.861609 -3.60351,-10.536897 0,-5.8427329 2.62668,-10.4724092 7.9053,-13.93352598 2.19058,-1.4363356 2.55023,-1.5431545 2.30534,-0.684703 -1.07812,3.77918398 -1.31697,5.28601528 -1.33158,8.40052108 -0.013,2.7805879 0.0819,3.5981139 0.59628,5.1334249 1.42188,4.244157 3.421,7.039382 6.51407,9.108154 2.91182,1.947543 7.30672,3.542673 10.67646,3.875019 l 1.51225,0.149151 1.19063,-1.88685 c 1.44113,-2.283843 4.40625,-5.126357 6.52603,-6.256192 1.44938,-0.772506 6.04683,-2.286423 6.45236,-2.124726 0.0991,0.0395 -0.3914,1.06516 -1.0899,2.279251 -1.06647,1.853668 -3.68641,7.434117 -3.68641,7.852024 0,0.283334 1.84968,0.09252 3.96875,-0.409417 3.29345,-0.780108 7.23803,-2.813992 9.16127,-4.723691 3.017,-2.995755 4.60477,-6.864077 4.62034,-11.256603 0.0128,-3.6101809 -0.54471,-5.5849384 -2.87275,-10.17565488 -1.06152,-2.09324582 -1.87576,-3.86018682 -1.80941,-3.92653582 0.22533,-0.2253375 4.3228,0.9404104 5.61844,1.5984747 3.70046,1.87947732 7.19768,6.643222 8.58238,11.6905041 0.78944,2.8775309 0.799,6.8860879 0.0235,9.8484269 -0.31328,1.196692 -0.5696,2.288452 -0.5696,2.426134 0,0.137681 0.56555,0.432683 1.25677,0.655558 4.175,1.346176 9.47873,1.598723 14.24759,0.678428 4.23792,-0.817832 6.41105,-1.716354 11.4974,-4.753811 1.45424,-0.868442 2.74902,-1.578986 2.87729,-1.578986 0.12827,0 0.0555,0.68461 -0.1617,1.521355 -1.5144,5.834004 -7.90769,11.874934 -15.66213,14.798921 -3.50855,1.322975 -5.53515,1.705346 -9.82188,1.853155 -4.61511,0.159131 -7.71691,-0.23409 -10.69813,-1.356217 l -1.7248,-0.649213 -2.18906,1.009589 c -4.54287,2.095166 -9.20559,3.447277 -14.04633,4.073205 -1.56041,0.201768 -2.88038,0.414208 -2.93327,0.47209 -0.22559,0.246899 0.72526,3.180861 1.67994,5.183614 4.1826,8.774425 13.26258,13.854296 22.83404,12.774706 4.25476,-0.479904 6.30435,-1.309077 8.37741,-3.38912 1.48826,-1.493287 2.32692,-3.204607 2.87072,-5.857859 0.53043,-2.588051 0.25236,-4.274765 -1.3585,-8.240253 -0.66604,-1.639617 -1.16257,-3.029532 -1.10341,-3.088698 0.14211,-0.142113 4.14873,1.40861 5.82985,2.256385 2.81721,1.420697 5.90426,5.318538 7.17972,9.065425 0.74829,2.198237 0.68318,7.744068 -0.11621,9.899142 -0.31923,0.860621 -0.54658,1.59862 -0.5052,1.639996 0.0414,0.04138 1.03706,0.415594 2.21262,0.831593 6.986,2.472148 12.51818,8.409488 14.51913,15.582464 0.65049,2.331866 0.8095,7.743913 0.29213,9.943071 -0.42115,1.790129 -1.91706,5.41844 -2.14145,5.194046 -0.0662,-0.06616 -0.89723,-1.823124 -1.84682,-3.904371 -2.03483,-4.459799 -3.58285,-6.899908 -5.95307,-9.383671 -3.52795,-3.696967 -7.73992,-6.068406 -12.97723,-7.306498 -2.84086,-0.671573 -7.44997,-0.716423 -10.45104,-0.101695 -3.24986,0.665686 -9.85169,0.604803 -13.16554,-0.121415 -3.27399,-0.717481 -7.70612,-2.382176 -10.10823,-3.796614 -3.58626,-2.111717 -7.58429,-5.594258 -10.33398,-9.001565 l -0.78808,-0.976556 -2.27466,0.77325 c -3.47726,1.182066 -5.85683,1.612808 -9.76388,1.76743 -5.89789,0.233408 -11.23233,-0.878557 -16.24276,-3.385801 -3.04344,-1.522955 -5.08928,-3.079531 -8.99071,-6.840565 -1.9106,-1.841854 -3.98332,-3.743356 -4.60604,-4.22556 -3.17447,-2.458161 -8.07147,-2.78529 -12.00097,-0.801684 -0.83195,0.419967 -1.58638,0.882896 -1.67651,1.028731 -0.0901,0.145836 0.0313,0.83311 0.26993,1.527276 0.23859,0.694166 0.63973,2.333683 0.89141,3.643371 0.446,2.320856 0.47725,2.383052 1.23215,2.452333 1.78221,0.163565 5.64771,1.237779 7.12454,1.979898 1.04567,0.525455 2.12933,1.391034 3.175,2.536045 3.49178,3.823501 5.07687,5.263269 6.87917,6.248461 3.54699,1.938895 5.95312,3.371157 5.95257,3.543305 -7.9e-4,0.227719 -5.77238,2.288503 -7.80466,2.786669 -4.77785,1.171186 -10.34534,1.251143 -13.62604,0.195693 -0.94588,-0.304308 -1.77932,-0.554828 -1.85208,-0.556712 -0.0728,-0.0019 -0.13586,1.931344 -0.14021,4.296066 -0.012,6.504287 -0.98411,10.717631 -4.6853,20.306785 -3.13804,8.13016 -4.58481,13.11714 -4.3857,15.11751 0.0716,0.71929 0.22945,0.87841 1.14142,1.15056 3.20359,0.95602 9.04225,4.63199 12.38302,7.79625 1.69554,1.60596 2.81775,2.25559 5.34406,3.09358 1.16417,0.38616 3.48589,1.22232 5.15938,1.85813 3.72358,1.41469 6.09808,1.80728 13.49374,2.23102 9.96519,0.57096 15.78759,0.47679 21.43125,-0.34662 7.80076,-1.13813 9.54666,-1.29382 16.29447,-1.45307 5.6651,-0.1337 6.76665,-0.0882 9.92188,0.40938 1.9521,0.30788 5.60113,0.68206 8.10896,0.8315 2.50783,0.14944 5.18673,0.40078 5.95313,0.55852 1.88589,0.38816 4.85374,1.86937 7.03829,3.51272 9.52716,7.16689 11.23452,8.71855 16.48563,14.98219 4.13674,4.9344 5.24885,6.86279 6.03654,10.46733 0.28221,1.29141 0.47226,2.38887 0.42233,2.4388 -0.0499,0.0499 -0.9415,-0.45451 -1.98127,-1.12098 -2.15914,-1.38398 -2.99476,-1.59916 -3.12577,-0.80494 -0.31555,1.91282 -0.18877,1.91219 -2.31233,0.0116 l -1.95952,-1.75377 -0.17583,0.93722 c -0.0967,0.51548 -0.29006,0.93723 -0.42969,0.93723 -0.13963,0 -1.02483,-0.55015 -1.96711,-1.22254 -0.94228,-0.6724 -1.77662,-1.15916 -1.85409,-1.08169 -0.25054,0.25053 1.20934,7.00788 3.21297,14.87194 1.93271,7.58568 3.63418,13.07763 4.99341,16.11752 1.6598,3.71211 5.35669,8.23346 9.02446,11.03705 2.60195,1.98889 4.52732,3.12958 9.14638,5.41882 5.99394,2.97063 6.79693,3.9562 6.52507,8.00874 -0.11581,1.72604 -0.42635,2.73835 -2.16058,7.04287 -1.11394,2.76489 -2.79777,7.17021 -3.74184,9.78958 -0.94407,2.61938 -1.82237,5.01557 -1.95178,5.32489 -0.64911,1.55153 -3.07281,9.94268 -4.4946,15.56084 -1.49097,5.89153 -1.60286,6.54167 -1.60286,9.31355 0,4.29114 -0.25768,5.21208 -2.02555,7.23913 l -1.47474,1.69098 0.22384,1.46968 c 0.43697,2.86904 0.19531,5.12159 -0.79809,7.439 -0.14316,0.33396 0.39465,0.5942 2.80863,1.35916 1.64213,0.52036 3.07153,0.9298 3.17643,0.90985 0.1049,-0.0198 1.3287,-1.46108 2.71955,-3.20257 z"
       style="fill:#ffffff;stroke-width:1" />
    <path
       id="path4587"
       d="m 498.21544,268.60178 c 0.26875,-1.20087 0.25604,-1.79822 -0.0735,-3.4543 -0.21913,-1.10127 -0.34422,-2.28589 -0.27796,-2.6325 0.0662,-0.34657 0.80971,-1.49494 1.65213,-2.5519 1.73637,-2.17861 1.85634,-2.62888 1.85634,-6.96725 0,-2.75823 0.21605,-3.80476 2.87337,-13.91809 0.87378,-3.32544 2.68716,-9.1634 3.94486,-12.7 1.08153,-3.04118 3.98142,-10.85282 4.27259,-11.50937 0.12907,-0.29104 0.50508,-1.24354 0.83557,-2.11667 0.33049,-0.87312 0.89892,-2.24234 1.26319,-3.04271 0.67664,-1.48674 1.02705,-3.95467 0.72971,-5.13936 -0.16087,-0.64095 -1.88143,-2.53355 -2.30324,-2.53355 -0.47956,0 -7.11923,-3.3537 -9.08776,-4.59023 -3.7381,-2.34808 -8.37932,-6.52253 -9.89907,-8.90353 -0.23221,-0.3638 -0.48839,-0.72098 -0.56929,-0.79375 -0.39995,-0.35972 -1.91714,-2.98752 -2.60141,-4.5057 -0.82799,-1.83702 -2.58858,-6.8941 -3.45154,-9.91409 -1.3697,-4.79336 -4.04094,-16.01326 -4.66143,-19.57916 -0.85627,-4.92096 -1.4091,-6.972 -3.1022,-11.50938 -1.69125,-4.53242 -2.26866,-5.67158 -3.76086,-7.41974 -0.66428,-0.77823 -1.11437,-1.50838 -1.00019,-1.62256 0.41312,-0.41312 2.2934,0.37267 3.1627,1.32173 0.97826,1.068 2.61765,4.18779 5.09977,9.70495 1.05205,2.33844 1.98665,4.0212 2.53486,4.56406 0.47761,0.47294 0.92453,0.85989 0.99316,0.85989 0.0686,0 0.061,-0.47511 -0.0168,-1.0558 -0.27829,-2.07482 1.05681,-2.49733 2.3072,-0.73013 0.43759,0.61846 1.23663,1.56881 1.77563,2.11188 l 0.97999,0.98741 0.55819,-0.52438 c 0.71305,-0.66988 1.20424,-0.66167 2.08983,0.0349 0.39109,0.30763 0.77775,0.49265 0.85925,0.41116 0.27301,-0.27301 -2.38581,-3.9771 -5.66643,-7.89412 -3.48049,-4.15566 -6.27069,-6.9144 -9.00468,-8.90319 -0.93665,-0.68134 -2.61257,-1.96199 -3.72428,-2.84587 -4.08252,-3.2459 -6.594,-4.67732 -9.01068,-5.13563 -0.71898,-0.13635 -3.42909,-0.37715 -6.02246,-0.53511 -2.59337,-0.15796 -5.66772,-0.47062 -6.83188,-0.69481 -1.16417,-0.22418 -3.99618,-0.47265 -6.29336,-0.55214 -5.6754,-0.19639 -10.35793,0.16726 -22.54622,1.75095 -5.85336,0.76057 -8.57529,0.88355 -12.7,0.57382 -2.03729,-0.15298 -5.96636,-0.40636 -8.73125,-0.56306 -5.99662,-0.33986 -9.26777,-0.94749 -12.90671,-2.39747 -4.00033,-1.59397 -4.73057,-1.84963 -5.01363,-1.75528 -0.75928,0.25309 4.08858,5.10485 7.43328,7.43927 1.76167,1.22955 1.88178,1.36791 1.25349,1.44389 -0.99287,0.12008 -3.27402,-1.00209 -5.64994,-2.77937 -2.65126,-1.98324 -6.78886,-6.13583 -8.12604,-8.15549 -0.57702,-0.87152 -1.52952,-2.11068 -2.11666,-2.75368 -1.18722,-1.30016 -5.43271,-4.16632 -7.89907,-5.33273 -2.42415,-1.14644 -2.53158,-0.89577 -1.59594,3.72369 0.38979,1.9245 1.74045,6.24095 2.26494,7.2383 0.17158,0.32628 0.16584,0.58402 -0.0171,0.76694 -0.49882,0.49882 -1.58689,-0.53303 -2.51881,-2.38869 -2.33605,-4.65154 -3.29162,-9.47677 -2.7888,-14.08218 0.42469,-3.88973 1.02858,-5.87098 5.09162,-16.704669 3.08486,-8.225462 3.95344,-12.130617 3.96448,-17.82449 0.008,-3.928089 -0.37591,-6.329606 -1.14087,-7.143872 -0.55475,-0.59051 -0.72216,-2.098262 -0.26438,-2.381187 0.14557,-0.08997 0.83018,0.307137 1.52136,0.882454 1.6477,1.371511 3.612,2.333607 5.81837,2.849785 2.7041,0.632622 8.12666,0.389393 11.56222,-0.51862 1.4466,-0.382334 2.74615,-0.811125 2.8879,-0.952873 0.16724,-0.167241 -0.18008,-0.445384 -0.98928,-0.792247 -2.33882,-1.002536 -3.90028,-2.273057 -6.51907,-5.30442 -0.94263,-1.091144 -2.01154,-2.259425 -2.37534,-2.596184 -1.77462,-1.642695 -5.37435,-2.73626 -10.55701,-3.207118 -1.65901,-0.150725 -3.0608,-0.318461 -3.11508,-0.372743 -0.43603,-0.436022 0.98071,-1.497351 1.99878,-1.497351 0.25994,0 0.5372,-0.06458 0.61613,-0.143513 0.26867,-0.268671 -0.53972,-3.736199 -1.36022,-5.834552 -0.73436,-1.878084 -0.77416,-2.118751 -0.38962,-2.35631 0.23555,-0.145521 0.95517,-0.65994 1.59915,-1.143156 1.67248,-1.254953 3.09289,-1.81138 5.59085,-2.190134 2.92412,-0.443373 5.56433,-0.04477 8.12175,1.226172 2.10039,1.043818 2.47107,1.347663 6.88798,5.646063 3.39429,3.303217 5.65623,5.04517 8.20208,6.316536 5.11112,2.55243 10.19814,3.559532 16.13958,3.195235 4.21145,-0.258223 7.47006,-1.078307 11.79712,-2.96894 0.30462,-0.133099 0.62409,0.128709 1.16261,0.952762 1.86737,2.857482 5.08473,6.062382 8.45845,8.425683 5.30519,3.716293 12.46082,5.76461 19.06307,5.456849 1.74625,-0.0814 4.18703,-0.333301 5.42395,-0.559779 7.38505,-1.352177 15.15332,0.496991 21.30767,5.0721 4.15717,3.090415 7.57625,7.467891 9.22847,11.815305 0.43642,1.148334 0.52418,1.236929 0.78621,0.79375 0.46663,-0.789202 0.33936,-6.545427 -0.18945,-8.568653 -1.9423,-7.431276 -6.61475,-12.678099 -13.40581,-15.053755 -1.23693,-0.432705 -2.76492,-0.92083 -3.39554,-1.084726 -0.71093,-0.184764 -1.0948,-0.417518 -1.01029,-0.612569 0.075,-0.173016 0.53127,-1.207545 1.01401,-2.298951 0.85359,-1.929876 0.87758,-2.082472 0.87347,-5.55625 -0.004,-3.26208 -0.0646,-3.713507 -0.70038,-5.204841 -0.84214,-1.97543 -1.92103,-3.582845 -3.30884,-4.929752 -0.95643,-0.928253 -3.05186,-2.300824 -3.51254,-2.300824 -0.10808,0 0.0407,0.684609 0.33059,1.521354 1.08792,3.140041 0.44219,8.211688 -1.44595,11.356764 -2.65102,4.415779 -7.57554,6.380318 -15.30286,6.104763 -3.09045,-0.110207 -3.90076,-0.238072 -6.012,-0.948688 -6.59999,-2.221476 -11.24886,-6.085464 -14.44262,-12.004228 -4.03391,-7.475765 -3.68162,-17.526006 0.86057,-24.550799 0.51751,-0.800365 1.04817,-1.625529 1.17924,-1.833698 0.25153,-0.399486 -2.44307,1.033312 -3.51063,1.866705 -3.83891,2.99684 -6.40594,6.967913 -7.33922,11.353385 -0.62487,2.936287 -0.39057,7.182617 0.53966,9.780275 1.04428,2.91618 1.0464,2.904808 -0.66974,3.600501 -2.75851,1.11825 -5.49896,1.504598 -9.60538,1.354161 -5.23561,-0.191802 -8.57979,-1.244672 -12.97615,-4.08536 -2.19303,-1.417021 -5.46214,-4.62924 -6.80973,-6.691231 -4.22675,-6.467472 -5.45567,-14.091211 -3.40032,-21.094118 0.5758,-1.961838 0.48407,-1.951707 -1.93032,0.213153 -4.48587,4.022255 -6.57693,9.501067 -6.03299,15.807141 0.10442,1.210617 0.12526,2.238118 0.0463,2.283335 -0.0789,0.04522 -1.75089,-0.25686 -3.71542,-0.67129 -4.01451,-0.846881 -6.3379,-0.951399 -8.51924,-0.38323 -2.0139,0.524552 -6.29175,2.643521 -6.29576,3.118501 -0.003,0.396798 -0.82969,0.183266 -1.81556,-0.469152 -2.78718,-1.844471 -11.36923,-3.073043 -15.43715,-2.209919 -1.80425,0.382823 -3.46152,1.227405 -6.42391,3.273772 -3.29542,2.276417 -4.06772,2.624852 -7.54817,3.405452 -1.67376,0.375394 -3.63789,0.863666 -4.36473,1.085051 -0.72684,0.221382 -2.38516,0.589097 -3.68516,0.817142 -1.3,0.228047 -3.48508,0.773861 -4.85575,1.212921 -1.96476,0.629373 -3.25618,0.847043 -6.10302,1.028674 -1.98601,0.126712 -3.86674,0.306536 -4.17939,0.399611 -0.5166,0.153789 -1.41591,1.859325 -1.41591,2.685256 0,0.163383 0.58905,0.378071 1.30901,0.477091 1.46434,0.201399 2.94587,1.276829 2.44667,1.776024 -0.15461,0.154612 -1.27125,0.373467 -2.48141,0.486349 -3.56499,0.332529 -4.18469,0.800756 -4.18469,3.161824 0,2.318486 1.92086,2.624614 8.20209,1.307179 2.77592,-0.582229 5.72471,-0.713705 6.1636,-0.274817 0.15588,0.155877 0.23182,0.329467 0.16876,0.38576 -0.0631,0.05629 -1.30551,0.469289 -2.76101,0.917765 l -2.64635,0.815414 -0.3598,1.40175 c -0.67708,2.637837 -0.67471,2.722123 0.0864,3.068907 1.1288,0.514316 3.84555,0.368234 6.65666,-0.357933 1.43749,-0.371333 3.68518,-0.742141 4.99486,-0.824016 3.11171,-0.194532 4.34033,0.223668 9.67337,3.292636 5.16283,2.971017 7.04733,3.732343 9.75561,3.941189 3.81681,0.294333 5.33395,-0.223907 12.82066,-4.379384 3.66458,-2.034013 4.49671,-2.362276 4.78908,-1.889207 0.28921,0.46794 -0.50882,1.180799 -3.68413,3.290962 -5.50737,3.659928 -8.8921,4.979712 -12.8822,5.023049 l -2.31368,0.02514 -0.55657,1.231257 c -0.30611,0.677193 -1.03105,1.965389 -1.61098,2.862657 -0.96369,1.491017 -4.6597,6.573591 -5.00767,6.886295 -0.081,0.07276 -1.03622,1.263385 -2.12278,2.645833 -1.08657,1.382448 -2.09598,2.641277 -2.24314,2.797397 -0.14716,0.15612 -0.74382,0.858351 -1.3259,1.560513 -0.58208,0.702164 -1.18238,1.407866 -1.334,1.568228 -1.00561,1.063651 -5.97571,7.120922 -6.64355,8.096779 -2.74193,4.00659 -4.32558,9.57411 -4.32558,15.20713 0,4.55601 0.52629,10.99853 1.08121,13.23558 1.34446,5.41992 3.49268,10.7602 5.55802,13.81678 1.2013,1.77785 2.94029,3.80544 5.37809,6.27064 2.43833,2.46573 5.87239,6.98191 7.09524,9.33104 0.88577,1.70161 0.81678,2.55672 -0.11339,1.4055 -1.57298,-1.9468 -8.87689,-9.15214 -9.07575,-8.95328 -0.28653,0.28653 3.50398,10.86924 5.40857,15.10017 1.38009,3.06578 7.62955,9.52348 10.78832,11.1478 0.93006,0.47827 2.6467,1.57425 3.1997,2.04286 0.19148,0.16225 0.42343,0.21971 0.51545,0.12768 0.30264,-0.30263 -0.43464,-3.6643 -1.54177,-7.02982 -1.77469,-5.39482 -1.82026,-5.55625 -1.56842,-5.55625 0.36414,0 1.28315,1.05143 2.04181,2.336 1.17395,1.98776 2.17004,4.76702 2.7452,7.6596 0.30595,1.53871 1.12593,4.65191 1.82217,6.91822 1.12898,3.67493 1.4634,5.25664 2.38157,11.26431 0.75374,4.93179 0.89138,9.00604 0.5322,15.7541 -0.59491,11.177 -0.61025,12.57206 -0.15345,13.96041 0.92127,2.79998 1.24608,5.52103 1.39577,11.69278 0.26182,10.79482 -0.93174,20.65449 -3.15814,26.08861 -0.58847,1.43629 -2.97469,5.28621 -3.78199,6.10187 -0.35662,0.36031 -1.03534,1.92061 -0.88654,2.03806 0.056,0.0442 1.11363,0.54637 2.35035,1.11599 1.23673,0.56962 3.3415,1.66076 4.67726,2.42474 1.33577,0.76399 2.60228,1.38907 2.81449,1.38907 0.2122,0 0.60775,-0.44649 0.87899,-0.99219 0.53829,-1.08297 0.64743,-3.84265 0.24956,-6.31026 -0.24085,-1.49378 -0.097,-1.83351 1.72554,-4.07464 0.53254,-0.65484 1.09406,-1.43666 1.24784,-1.73738 0.17652,-0.3452 0.3393,-4.92985 0.44152,-12.43542 0.23375,-17.16174 0.43043,-19.02179 2.54724,-24.09023 1.40581,-3.36605 1.61389,-5.74298 1.387,-15.84426 -0.18356,-8.17241 0.0312,-11.58103 1.12529,-17.85938 1.25578,-7.20632 2.83683,-11.59402 5.48928,-15.23384 1.31936,-1.81049 1.89076,-2.34137 2.26868,-2.1078 0.27034,0.16707 -0.42485,2.24457 -2.04359,6.10706 -0.90287,2.15434 -1.48901,4.61431 -1.17441,4.9289 0.41801,0.41801 6.05109,-0.33882 10.11568,-1.35909 2.25557,-0.56618 6.24416,-1.7349 8.86354,-2.59714 2.61937,-0.86225 5.93287,-1.94061 7.36332,-2.39637 2.64984,-0.84425 8.71303,-2.35976 11.81897,-2.95418 0.94588,-0.18102 2.42189,-0.55156 3.28001,-0.82341 0.85812,-0.27186 2.96074,-0.78999 4.6725,-1.15141 1.71175,-0.36141 4.10528,-1.02102 5.31895,-1.4658 4.54193,-1.6645 10.84294,-2.90733 14.73979,-2.90733 1.18318,0 2.15124,-0.10269 2.15124,-0.22821 0,-0.31862 -1.47951,-2.15991 -2.33309,-2.90358 -1.01098,-0.88081 -3.72886,-2.33978 -4.75972,-2.55504 -0.70256,-0.1467 -0.85907,-0.29531 -0.79375,-0.75368 0.13318,-0.93466 2.2738,-0.7717 4.52862,0.34477 3.73284,1.8483 4.67819,3.33266 8.26339,12.9749 1.44339,3.88194 2.79747,7.24167 3.71699,9.22259 2.70801,5.8338 6.02592,8.40309 21.14318,16.3726 11.05287,5.82684 15.39958,8.51563 18.26418,11.29786 2.22361,2.15967 2.9019,3.30713 3.54472,5.99656 0.97062,4.0609 1.18832,12.50827 0.43228,16.77394 -0.0774,0.43656 -0.38514,2.34156 -0.68391,4.23333 -1.47609,9.34612 -3.54222,17.74505 -5.397,21.93901 -0.34208,0.77351 -1.52518,2.73072 -2.62911,4.34936 -1.10393,1.61864 -1.93968,3.09295 -1.85722,3.27625 0.0825,0.18331 2.31159,1.42859 4.95362,2.76731 l 4.80369,2.434 0.57413,-0.6382 c 0.31577,-0.35099 0.72035,-1.29156 0.89906,-2.09015 z"
       style="fill:#e31f24;fill-opacity:1;stroke-width:1" />
    <path
       id="path4585"
       d="m 364.84747,234.67153 c 0,-1.46298 -0.12304,-5.04044 -0.27343,-7.94993 -0.16882,-3.26611 -0.1799,-5.53594 -0.029,-5.9329 0.13444,-0.35362 0.62772,-1.05324 1.09616,-1.55471 0.46845,-0.50147 0.95759,-1.19023 1.08699,-1.53058 0.46921,-1.23412 0.55779,-4.24574 0.24611,-8.36732 -0.46766,-6.18424 0.28581,-19.38037 0.88334,-15.47041 0.19202,1.25656 0.82885,17.2758 0.8139,20.47352 -0.0153,3.27467 -0.37233,4.54284 -1.71594,6.09525 -0.5774,0.66714 -1.06048,1.2355 -1.07352,1.26303 -0.013,0.0275 -0.10595,3.41124 -0.20648,7.51935 -0.12993,5.30963 -0.27608,7.5626 -0.50546,7.79198 -0.25386,0.25385 -0.32269,-0.24469 -0.32269,-2.33728 z"
       style="fill:#000000;stroke-width:1" />
    <path
       id="path4583"
       d="m 508.25315,214.93451 c 8e-4,-0.81035 0.33159,-2.42219 0.79375,-3.86889 1.14057,-3.57021 1.09877,-3.89978 -0.71987,-5.67549 -0.83165,-0.81201 -1.43983,-1.54865 -1.35151,-1.63698 0.28745,-0.28744 1.91045,0.56768 3.10614,1.63657 1.06285,0.95013 1.16858,1.15541 1.16858,2.26894 0,0.72861 -0.33609,2.1146 -0.83011,3.42325 -0.45657,1.20943 -1.02064,2.88357 -1.2535,3.72031 -0.23286,0.83675 -0.534,1.52136 -0.66919,1.52136 -0.1352,0 -0.24512,-0.62508 -0.24429,-1.38907 z"
       style="fill:#000000;stroke-width:1" />
    <path
       id="path4581"
       d="m 386.67559,62.729436 c -0.58208,-0.181319 -1.7727,-0.655299 -2.64583,-1.053285 -1.5831,-0.721611 -1.59457,-0.722691 -4.13941,-0.389596 -1.40355,0.18371 -2.98224,0.264186 -3.50821,0.178834 -0.52597,-0.08535 -2.14154,-0.746265 -3.59016,-1.468697 l -2.63385,-1.313508 0.8504,-0.398203 c 1.88102,-0.880803 4.43724,-1.310603 7.04726,-1.184921 3.00141,0.144526 3.76036,0.452734 6.27426,2.547943 0.99901,0.832626 2.32642,1.882836 2.94981,2.333805 1.28725,0.931209 1.02535,1.255252 -0.60427,0.747628 z"
       style="fill:#000000;stroke-width:1" />
    <path
       id="path4579"
       d="m 349.31605,49.117615 c -0.72486,-0.441965 -1.6665,-1.724059 -1.6665,-2.269016 0,-0.09235 0.5493,0.315592 1.22066,0.906547 1.46994,1.293897 2.56021,1.547077 4.5648,1.06004 l 1.49059,-0.362154 c -1.49059,0.362154 -3.26998,0.357319 -4.63021,-0.489722 -1.36023,-0.847041 -1.70154,-2.483364 -2.05144,-4.01578 l -0.32873,0.876104 c -0.25129,0.669719 -0.43038,0.828413 -0.76022,0.673661 -0.85615,-0.40168 -4.26142,-0.392385 -6.44937,0.0176 -1.22399,0.229357 -2.55816,0.41701 -2.96482,0.41701 -0.65788,0 -0.69936,-0.04827 -0.37626,-0.437859 0.56419,-0.680297 1.92429,-1.148123 5.2433,-1.803514 1.7087,-0.33741 4.10773,-1.042374 5.43858,-1.598144 3.06202,-1.278721 4.5078,-1.339176 6.60847,-0.276336 0.98813,0.499948 2.01895,1.347001 3.00416,2.468604 3.18929,3.630793 4.11955,4.293087 6.0301,4.293087 0.71734,0 0.89373,0.104439 0.89373,0.529167 0,0.714425 -1.0205,0.699265 -3.57796,-0.05315 l -1.97931,-0.582321 -2.84376,0.584356 c -3.59327,0.73837 -5.72478,0.757566 -6.86581,0.06183 z"
       style="fill:#000000;stroke-width:1" />
    <path
       id="path4577"
       d="m 357.76728,46.659509 c -1.10022,-1.422516 -3.59147,-3.701926 -4.42797,-4.05144 -1.1601,-0.484722 -2.62482,-0.488442 -3.02382,-0.0077 -0.2528,0.304607 -0.005,0.538242 1.35667,1.279546 0.91626,0.498793 2.61844,1.461307 3.7826,2.138924 2.36934,1.379101 3.02391,1.560438 2.31252,0.640651 z"
       style="fill:#e31f24;fill-opacity:1;stroke-width:1" />
    <path
       id="path4575"
       d="m 424.78994,268.15709 c 1.61983,-1.01327 6.51478,-5.99337 7.09713,-7.22058 0.23603,-0.49739 0.42914,-1.43867 0.42914,-2.09169 0,-1.13176 -0.0403,-1.19452 -0.85989,-1.34057 -0.47295,-0.0843 -2.65597,-0.23333 -4.85117,-0.33123 l -3.99128,-0.17804 -0.43201,1.07969 c -1.17727,2.9423 -2.55896,9.31812 -2.21407,10.21688 0.28778,0.74997 1.04975,0.37248 1.2903,-0.6392 0.6485,-2.72741 2.53076,-8.08599 2.75983,-7.85694 0.0638,0.0639 -0.30513,1.74517 -0.81991,3.73632 -0.51478,1.99114 -0.93596,4.03058 -0.93596,4.5321 0,0.77557 0.0911,0.91183 0.60966,0.91183 0.33531,0 1.19851,-0.36835 1.91823,-0.81857 z"
       style="fill:#fecc00;fill-opacity:1;stroke-width:1" />
    <path
       id="path4573"
       d="m 483.73719,266.78515 c 1.12624,-1.27416 4.63998,-6.94164 5.6135,-9.05428 2.18413,-4.7398 5.32606,-19.30173 6.22253,-28.83959 0.45865,-4.87975 -0.19381,-11.64883 -1.39431,-14.46549 -1.3329,-3.12729 -6.51537,-6.76535 -18.60332,-13.05937 -5.20902,-2.71227 -8.98708,-4.79395 -11.81628,-6.51071 -1.40572,-0.85299 -2.68564,-1.55089 -2.84427,-1.55089 -0.45409,0 -0.33967,3.02808 0.21496,5.68855 0.27303,1.30968 1.18392,4.16718 2.0242,6.35 1.35134,3.51038 1.53043,4.19874 1.55063,5.96009 0.0225,1.95796 0.003,2.01852 -1.16778,3.61158 -0.65485,0.89113 -2.1658,2.793 -3.35768,4.22637 -2.24737,2.70273 -10.08679,12.30573 -11.74264,14.38431 -5.79481,7.27417 -9.0202,12.40362 -9.63392,15.32113 -0.45478,2.16199 -1.0499,3.16375 -2.36075,3.97388 -0.74204,0.45863 -0.92316,0.7616 -1.07878,1.80459 -0.10285,0.6894 -0.35427,1.65497 -0.55871,2.14567 -0.20443,0.49072 -0.37169,1.34223 -0.37169,1.89224 v 1.00005 l 1.65365,0.17581 c 13.18758,1.40203 31.10033,4.40259 43.19322,7.23525 1.74625,0.40904 3.29407,0.70305 3.43959,0.65336 0.14552,-0.0497 0.60355,-0.47384 1.01785,-0.94255 z"
       style="fill:#ffffff;stroke-width:1" />
    <path
       id="path4571"
       d="m 381.11934,258.0952 c 6.96475,-0.29162 30.05836,-0.16306 36.00365,0.20045 l 2.66614,0.16301 0.28813,-0.76076 c 0.15847,-0.41844 0.29472,-1.21213 0.30277,-1.76382 0.0195,-1.33707 1.48429,-4.40772 5.23784,-10.98021 2.81614,-4.93105 3.35683,-5.69664 6.63345,-9.3927 6.12213,-6.9058 9.77534,-12.13371 11.96392,-17.12093 2.48024,-5.65184 1.31421,-9.276 -5.33257,-16.57428 -3.44907,-3.78715 -4.92465,-5.75302 -6.13858,-8.17827 -2.68212,-5.35849 -6.19938,-15.86453 -6.4421,-19.24252 -0.0813,-1.13224 -0.23546,-2.11272 -0.34245,-2.17885 -0.107,-0.0661 -2.52674,0.4729 -5.37721,1.19784 -2.85047,0.72494 -6.64496,1.62442 -8.43221,1.99884 -3.67256,0.7694 -6.01036,1.45052 -14.49432,4.2229 -10.08301,3.29493 -14.85267,4.35371 -19.62748,4.35695 -2.62291,0.002 -2.36493,-0.26151 -2.98295,3.04427 -1.24992,6.68573 -1.28972,7.26685 -1.32309,19.31458 -0.0354,12.7739 -0.0207,12.63228 -1.71966,16.61325 -0.57196,1.34021 -1.15938,2.97253 -1.30538,3.62738 -0.51458,2.30807 -0.79634,8.19617 -0.961,20.08296 l -0.16642,12.01314 2.20289,-0.17203 c 1.21159,-0.0946 5.41757,-0.30666 9.34663,-0.4712 z"
       style="fill:#ffffff;stroke-width:1" />
    <path
       id="path4569"
       d="m 432.7378,255.34904 c 0.37078,-0.56589 0.54074,-1.29916 0.61986,-2.67425 0.0168,-0.29266 1.19578,-1.5058 2.33892,-2.40676 0.41888,-0.33015 0.74768,-1.08857 1.07996,-2.49105 0.50263,-2.12154 1.25236,-3.61598 3.68793,-7.35133 1.27702,-1.95851 5.36069,-7.52626 6.71251,-9.15196 1.99343,-2.3973 4.99638,-6.08186 7.81348,-9.58698 1.84442,-2.29488 4.10254,-5.03645 5.01804,-6.09237 3.0016,-3.46197 3.15629,-4.4345 1.42375,-8.95119 -2.40752,-6.27639 -3.30383,-10.07858 -3.03099,-12.85771 0.15068,-1.53476 0.0981,-1.89055 -0.39815,-2.69348 -0.31447,-0.50882 -0.95416,-1.26219 -1.42152,-1.67416 -3.02875,-2.66972 -5.3965,-7.13192 -8.25644,-15.55985 -1.6195,-4.77248 -1.89373,-5.44173 -2.35636,-5.75064 -0.42205,-0.28181 -5.0073,-0.23621 -7.17029,0.0713 -4.20178,0.59738 -8.50479,2.0713 -9.67093,3.3126 -0.52882,0.5629 -0.57217,0.82045 -0.45205,2.68529 0.10243,1.59004 0.47841,3.063 1.64087,6.4283 0.8294,2.4011 1.68209,4.92876 1.89486,5.61702 0.34373,1.11189 1.03179,2.74852 2.4157,5.74603 0.47891,1.03732 2.21616,3.69781 3.08586,4.72579 0.30609,0.36181 1.66992,1.91518 3.03074,3.45194 4.37,4.93503 5.79147,7.09384 6.55831,9.96027 0.56555,2.11405 0.45775,5.04464 -0.26351,7.16355 -1.9125,5.61847 -7.13719,13.24211 -14.40187,21.01457 -2.27943,2.43877 -9.84526,15.13425 -9.84526,16.5204 0,0.59523 0.30062,0.67218 3.20565,0.82037 1.49624,0.0763 2.77612,0.19449 2.84419,0.26254 0.0681,0.0681 0.87509,0.12378 1.79336,0.12378 1.48932,0 1.71643,-0.0715 2.10338,-0.66204 z"
       style="fill:#e31f24;fill-opacity:1;stroke-width:1" />
    <path
       id="path4567"
       d="m 450.83705,220.41936 c 0,-0.99046 1.13465,-2.63158 3.58758,-5.18891 3.13806,-3.27165 3.83247,-4.94072 3.08229,-7.40865 -0.42745,-1.40621 -0.59089,-2.61072 -0.35427,-2.61072 0.71969,0 2.15106,3.20997 2.15106,4.82394 0,1.61382 -0.69653,2.75321 -3.43995,5.6271 -1.38915,1.45521 -2.97952,3.27091 -3.53417,4.03489 -1.11717,1.53883 -1.49254,1.7205 -1.49254,0.72235 z"
       style="fill:#000000;stroke-width:1" />
    <path
       id="path4565"
       d="m 296.96021,232.56714 c 0.23018,-0.0883 0.41851,-0.25883 0.41851,-0.37889 0,-0.12007 -0.92284,-1.26819 -2.05075,-2.55138 -2.27944,-2.59326 -4.15995,-5.07412 -3.98149,-5.25258 0.0641,-0.0641 1.43812,1.24946 3.05342,2.91898 4.50968,4.66101 4.97752,4.67854 4.93882,0.18495 -0.025,-2.90715 -0.56765,-6.32332 -1.46673,-9.2342 -0.51291,-1.66062 -1.69431,-2.98878 -2.65852,-2.98878 -0.3975,0 -1.9326,2.01706 -4.97599,6.53823 l -1.64057,2.43719 0.60201,0.8701 c 1.81812,2.62774 6.50897,7.61698 7.16143,7.61698 0.0997,0 0.36968,-0.0723 0.59986,-0.1606 z"
       style="fill:#fecc00;fill-opacity:1;stroke-width:1" />
    <path
       id="path4563"
       d="m 288.83093,220.22618 c 0.67711,-1.05503 1.94254,-2.8112 2.81207,-3.9026 0.86952,-1.09141 1.69682,-2.1331 1.83845,-2.31487 0.16906,-0.21698 0.15268,-0.58356 -0.0477,-1.06733 -0.2398,-0.57893 -0.224,-0.96699 0.0737,-1.81077 0.42381,-1.20122 0.30044,-2.23199 -0.6217,-5.19399 -0.49018,-1.57453 -0.52168,-1.98519 -0.26382,-3.43959 1.03421,-5.83322 4.6561,-16.43256 7.64966,-22.38644 2.07963,-4.13619 4.6269,-7.23569 7.24626,-8.81722 0.55605,-0.33573 1.92527,-1.19472 3.04271,-1.90886 3.82499,-2.4445 5.8932,-3.06113 10.2808,-3.06519 3.02377,-0.003 5.62207,0.4029 10.38983,1.62224 3.11189,0.79586 4.85693,1.09066 7.15723,1.20912 2.58547,0.13314 2.99809,0.10104 2.74952,-0.21388 -0.16085,-0.20378 -0.91767,-1.14442 -1.6818,-2.09031 -2.4984,-3.09263 -5.46028,-10.13264 -7.56947,-17.99167 -0.25385,-0.94588 -0.49817,-1.76558 -0.54293,-1.82155 -0.14442,-0.18059 -1.76264,0.57703 -4.06709,1.90412 -2.86073,1.64745 -5.86387,2.71951 -13.49375,4.81697 -8.75358,2.40638 -11.35243,3.48043 -12.84432,5.30831 -2.29219,2.80843 -3.31085,4.72265 -3.79087,7.12364 -0.1456,0.72831 -1.80595,5.96706 -3.68965,11.64167 -1.8837,5.67461 -3.92687,11.92481 -4.54038,13.88934 -0.61351,1.96454 -1.38944,4.40532 -1.7243,5.42396 -0.33485,1.01865 -0.9941,3.1522 -1.46498,4.74123 l -0.85616,2.88915 0.14447,6.50356 c 0.10738,4.83342 0.25585,6.91124 0.57816,8.09106 0.50198,1.83746 1.04673,2.77813 1.60884,2.77813 0.21786,0 0.95012,-0.8632 1.62723,-1.91823 z"
       style="fill:#e31f24;fill-opacity:1;stroke-width:1" />
    <path
       id="path4561"
       d="m 297.64331,182.77088 c 0,-0.409 1.27605,-4.18616 2.00797,-5.94364 1.51754,-3.64395 3.91917,-8.14696 4.83608,-9.06757 1.11651,-1.12101 2.20373,-1.71733 4.36758,-2.39553 0.90558,-0.28383 1.84428,-0.7976 2.24896,-1.2309 1.58975,-1.70216 5.67037,-3.37511 8.21543,-3.36812 1.56099,0.004 2.43861,0.30716 1.88374,0.65009 -0.17008,0.10511 -1.3983,0.41908 -2.72939,0.6977 -3.10445,0.64982 -4.14462,1.17991 -6.39662,3.25979 -1.48965,1.37579 -2.17373,1.80355 -3.60837,2.25633 -2.10276,0.66364 -2.96611,1.42174 -4.78095,4.19809 -1.21278,1.8553 -2.06858,3.51493 -4.61985,8.95915 -0.81912,1.74793 -1.42458,2.59141 -1.42458,1.98461 z"
       style="fill:#000000;stroke-width:1" />
    <path
       id="path4559"
       d="m 293.8317,131.7467 c 1.1841,-1.18409 1.84405,-2.61952 2.18893,-4.76103 0.24457,-1.51864 1.07783,-3.59099 1.56493,-3.89203 0.11792,-0.0729 0.91201,0.0976 1.76464,0.37892 0.85264,0.28129 1.8937,0.51143 2.31347,0.51143 0.88351,0 2.52142,-0.77524 3.18257,-1.50634 0.69702,-0.77077 1.26373,-2.64035 1.26373,-4.16903 0,-1.2929 -0.0893,-1.4776 -1.48745,-3.07559 -1.93105,-2.20711 -2.47932,-3.10964 -2.47932,-4.08133 0,-0.96725 0.76857,-2.28574 1.71863,-2.94833 2.36652,-1.65045 3.30648,-2.86359 3.30648,-4.26744 0,-0.74625 -0.2824,-1.18573 -2.57969,-4.014719 -1.00414,-1.23655 -1.12348,-1.53085 -1.1151,-2.750043 0.0122,-1.772023 0.43126,-2.479292 2.14132,-3.613677 1.91056,-1.267386 2.08587,-1.948466 1.16316,-4.518745 -0.38782,-1.080272 -0.95248,-2.708272 -1.25481,-3.617777 -0.30234,-0.909506 -0.62141,-1.651567 -0.70906,-1.649024 -0.58505,0.01696 -3.34122,5.715892 -5.37212,11.107878 -1.75172,4.650778 -4.58464,14.323787 -4.28325,14.625177 0.0557,0.0557 -0.18992,0.37471 -0.54574,0.70899 -1.41856,1.33267 -2.12539,-0.061 -1.87277,-3.6925 0.42107,-6.0529 3.35345,-16.233003 6.50971,-22.599214 0.4267,-0.860663 0.73339,-1.607272 0.68153,-1.659133 -0.26082,-0.260824 -3.20154,0.622945 -5.11766,1.537996 -2.35532,1.124799 -3.7893,2.515222 -3.7793,3.664487 0.003,0.367028 0.24132,1.186339 0.52917,1.820694 1.03481,2.280515 0.64906,2.908636 -2.52917,4.118329 -5.21587,1.985254 -7.21837,6.252382 -4.31171,9.187821 0.24253,0.24494 0.52951,0.36596 0.63773,0.26895 0.10822,-0.097 0.12238,-0.0458 0.0315,0.11385 -0.0909,0.15963 0.19828,0.63588 0.64266,1.05834 2.21872,2.10922 2.03287,4.01433 -0.60405,6.19205 -4.46842,3.69027 -5.84573,5.60811 -5.81598,8.09848 0.0341,2.8584 2.65437,4.76202 4.90023,3.56007 1.29973,-0.69559 1.42936,-0.37825 1.47164,3.60248 0.0213,2.01117 0.11069,3.95433 0.19852,4.31813 0.37035,1.53409 2.84846,2.85387 5.43019,2.89199 1.09563,0.0162 1.36617,-0.0998 2.21649,-0.95011 z"
       style="fill:#009747;fill-opacity:1;stroke-width:1" />
    <path
       id="path4557"
       d="m 295.14087,103.2142 c 0.49785,-1.89177 1.21582,-4.273019 1.59549,-5.291669 0.37968,-1.018645 0.78506,-2.149739 0.90085,-2.513541 1.18578,-3.725574 7.3228,-16.560319 9.4601,-19.784521 1.08097,-1.630688 1.51351,-1.911313 2.946,-1.911313 0.85324,0 1.15678,0.140655 1.57018,0.727604 0.63968,0.908214 0.77962,1.385133 0.9898,3.373438 0.51413,4.863428 1.83786,7.187668 3.69209,6.482691 0.36438,-0.138539 0.66251,-0.351443 0.66251,-0.473128 0,-0.121682 0.20836,-0.452512 0.46302,-0.735174 1.22902,-1.364157 2.7077,-3.577463 3.34698,-5.009806 0.38969,-0.873125 0.81879,-1.787575 0.95355,-2.032111 0.13476,-0.244536 0.32249,-1.200791 0.41718,-2.125009 0.14523,-1.417455 0.0992,-1.740977 -0.29434,-2.067558 -0.64413,-0.534585 -2.35268,-0.419444 -4.09642,0.276064 -2.9852,1.190673 -3.25006,1.258856 -4.02587,1.036354 -0.82316,-0.236077 -2.37102,-1.505968 -2.58295,-2.11909 -0.0717,-0.207341 -0.12278,-0.972973 -0.11359,-1.701403 0.0165,-1.302779 0.80475,-3.057025 3.65201,-8.126987 1.34395,-2.393101 2.28043,-4.294592 2.28043,-4.630362 0,-0.209923 -0.35094,-0.338024 -0.92604,-0.338024 -1.12621,0 -1.83674,0.64738 -2.57023,2.341782 -3.99656,9.232345 -5.00245,10.485478 -8.40998,10.477112 -3.08535,-0.0076 -5.28613,-1.172192 -7.10699,-3.760907 -1.06927,-1.520182 -2.77507,-2.058379 -3.93932,-1.242901 -1.93218,1.353349 -1.78248,9.523248 0.21342,11.647787 1.18188,1.258054 2.92119,0.613185 4.34364,-1.610461 1.23307,-1.927611 2.21211,-2.504326 4.25352,-2.505588 0.89355,-5.3e-4 1.741,0.139276 1.91823,0.31651 0.62147,0.621467 0.34303,1.922156 -1.14975,5.371042 -0.18895,0.436562 -0.57791,1.390115 -0.86435,2.119008 -0.28644,0.72889 -0.76461,1.800453 -1.06259,2.38125 -1.85825,3.621823 -6.1029,16.109852 -6.54879,19.266921 -0.0581,0.41164 -0.17145,0.85482 -0.25181,0.98484 -0.22533,0.3646 -0.92147,4.53371 -0.88132,5.27819 l 0.0357,0.66146 0.11225,-0.66146 c 0.0617,-0.3638 0.51957,-2.20927 1.01742,-4.10104 z"
       style="fill:#009747;fill-opacity:1;stroke-width:1" />
    <path
       id="path4555"
       d="m 325.72854,84.705099 c 1.74412,-0.624078 2.20956,-1.234432 2.20956,-2.897505 0,-1.054288 -0.23019,-1.840749 -0.98685,-3.371766 -0.9081,-1.837399 -2.92116,-4.504312 -3.16539,-4.193506 -0.0572,0.07276 -0.37565,1.084792 -0.70774,2.248959 -0.67477,2.365542 -1.63185,4.180239 -3.52111,6.676292 -0.70191,0.927359 -1.2762,1.730603 -1.2762,1.784985 0,0.54546 5.76729,0.353835 7.44773,-0.247459 z"
       style="fill:#fecc00;fill-opacity:1;stroke-width:1" />
    <path
       id="path4553"
       d="m 292.12477,75.968499 c 0.0692,-0.06925 -0.14286,-1.170578 -0.47136,-2.447396 -0.7791,-3.028257 -0.8084,-5.893875 -0.0823,-8.049261 0.29831,-0.885518 0.48062,-1.671793 0.40514,-1.747279 -0.26921,-0.269205 -3.91571,1.08558 -5.52634,2.053207 -0.90139,0.541528 -2.03842,1.502714 -2.52674,2.135968 -0.77512,1.005168 -0.87135,1.297797 -0.75788,2.304531 0.16863,1.496071 1.23391,2.818366 3.27099,4.06018 2.09053,1.274392 5.18484,2.19371 5.6885,1.69005 z"
       style="fill:#fecc00;fill-opacity:1;stroke-width:1" />
    <path
       id="path4551"
       d="m 424.6433,44.710744 c 2.49708,-0.554185 2.52491,-0.583271 2.02989,-2.121254 -0.22798,-0.708287 -0.55831,-2.047071 -0.73407,-2.975076 l -0.31957,-1.68728 -3.33239,0.153829 c -1.83282,0.08461 -4.2849,0.284597 -5.44907,0.444421 -1.16416,0.159824 -4.58721,0.306583 -7.60677,0.326131 -3.01955,0.01955 -5.4901,0.122867 -5.4901,0.229602 0,0.106733 0.80367,0.796616 1.78594,1.53307 5.43783,4.077028 12.44146,5.577893 19.11614,4.096557 z"
       style="fill:#ffffff;stroke-width:1" />
    <path
       id="path4549"
       d="m 320.06395,41.578099 c 0.0349,-0.02769 0.14074,-1.946672 0.23532,-4.264412 0.18644,-4.569126 -0.0808,-7.068973 -1.02803,-9.617212 l -0.53321,-1.434389 -0.76662,0.905222 c -1.94247,2.293625 -3.09338,3.896543 -2.92131,4.068609 0.1034,0.103402 0.009,0.148315 -0.20888,0.09981 -0.77091,-0.171312 -0.59609,1.313056 0.40239,3.416618 0.97932,2.063205 1.44537,4.026135 1.44816,6.099474 l 0.002,1.137616 1.65365,-0.180496 c 0.9095,-0.09927 1.68216,-0.20315 1.717,-0.230836 z"
       style="fill:#009747;fill-opacity:1;stroke-width:1" />
    <path
       id="path4547"
       d="m 418.42559,36.279362 c 1.60073,-0.218477 3.83089,-0.398216 4.9559,-0.399425 2.32416,-0.0024 2.15415,0.195373 2.4508,-2.852317 0.0888,-0.912723 0.3331,-2.14579 0.54281,-2.740152 0.2097,-0.594363 0.3259,-1.170258 0.25822,-1.279766 -0.0677,-0.109511 -0.76248,-0.274262 -1.54399,-0.366112 -3.25423,-0.382471 -9.2334,-2.910284 -11.84165,-5.006295 -2.90183,-2.331929 -5.4043,-6.468467 -6.19915,-10.247062 -0.50119,-2.38257 -0.50087,-5.6835883 7.9e-4,-8.0516198 0.21366,-1.0086075 0.31943,-1.9015763 0.23504,-1.984375 -0.28151,-0.2761905 -2.87039,2.7558921 -3.71929,4.3560154 -1.70112,3.2065064 -2.15735,7.4737304 -1.18909,11.1217524 0.72933,2.747767 1.72171,4.415002 4.13552,6.947747 0.87744,0.920687 1.59536,1.813655 1.59536,1.984375 0,0.412274 -4.20877,0.920054 -7.86764,0.949217 l -2.84057,0.02264 0.56902,1.520867 c 0.70184,1.875833 3.0329,5.867691 3.54012,6.06233 1.75253,0.672507 11.87922,0.649866 16.9178,-0.03782 z"
       style="fill:#e31f24;fill-opacity:1;stroke-width:1" />
    <path
       id="path4545"
       d="m 439.77348,36.00268 c 2.5853,-0.388306 7.22518,-1.459601 8.47864,-1.957621 0.3303,-0.131233 1.61258,-0.628848 2.84951,-1.10581 1.23693,-0.476962 2.60615,-1.08204 3.04271,-1.344618 1.03623,-0.623263 1.44751,-0.604888 3.68427,0.164611 1.02959,0.354203 3.34357,0.851376 5.14218,1.104826 2.77368,0.390853 3.73783,0.416658 6.35,0.169957 6.7699,-0.639365 12.81348,-3.2093 17.52716,-7.453148 1.78436,-1.606495 4.73493,-4.933665 4.73493,-5.339271 0,-0.103034 -0.78163,0.326038 -1.73695,0.953495 -2.2859,1.501383 -5.57925,2.896515 -8.9191,3.778311 -2.4645,0.650682 -3.11772,0.712737 -7.33562,0.696875 -4.18367,-0.01574 -4.88267,-0.0866 -7.24802,-0.734859 -1.4398,-0.394599 -3.18663,-0.962149 -3.88184,-1.261221 l -1.26404,-0.543772 0.61975,-1.646499 c 1.4234,-3.781642 1.76387,-7.283456 1.02642,-10.557092 -1.06037,-4.7071415 -3.7517,-8.6257046 -7.78445,-11.33412768 -1.47027,-0.98744672 -1.75446,-0.95663122 -0.95219,0.10325 0.735,0.9710248 1.76702,3.12615008 2.43897,5.09322928 0.69266,2.0277085 0.8249,7.0793404 0.24751,9.4549384 -1.18464,4.874027 -3.88862,8.701688 -7.94065,11.240471 -2.59921,1.628532 -8.39857,3.491572 -10.92061,3.508241 -0.68374,0.0045 -0.9208,0.148709 -1.12424,0.683776 -0.31936,0.839972 -0.6582,5.731369 -0.43697,6.307889 0.19762,0.514982 0.0984,0.514453 3.40263,0.01818 z"
       style="fill:#e31f24;fill-opacity:1;stroke-width:1" />
    <path
       id="path4541"
       d="m 369.28584,32.073273 c 3.81814,-1.918475 9.15547,-2.608622 13.63134,-1.762615 0.9888,0.186902 1.83974,0.295564 1.89097,0.24147 0.0512,-0.05409 0.13517,-1.121728 0.18654,-2.372524 l 0.0934,-2.274176 -3.04271,-1.469586 C 373.84673,20.476006 367.20915,14.012716 363.08337,5.9717508 l -1.01402,-1.9763052 -0.0851,1.3229167 c -0.25523,3.9671598 1.49891,9.6688967 4.19693,13.6419037 1.30318,1.919023 4.60726,5.458267 5.94784,6.371183 0.50432,0.343426 0.91775,0.713711 0.91875,0.822851 10e-4,0.109141 -0.98046,0.199337 -2.18101,0.200435 -4.53189,0.0042 -7.66765,1.016297 -10.16389,3.280654 l -1.27934,1.160492 1.32292,0.17527 c 1.4678,0.194464 5.33397,1.314791 5.95312,1.725076 0.56842,0.376666 0.62303,0.363513 2.58629,-0.622954 z"
       style="fill:#e31f24;fill-opacity:1;stroke-width:1" />
  </g>
</svg>