<!-- Generator: Adobe Illustrator 16.0.0, SVG Export Plug-In . SVG Version: 6.00 Build 0)  -->

<svg
   version="1.1"
   id="Warstwa_1"
   x="0px"
   y="0px"
   viewBox="-20.62 -27.48 556.86 741.86"
   enable-background="new 0 0 612 792"
   xmlns="http://www.w3.org/2000/svg"><title>Herb Łańcut</title><defs
   id="defs99" /><sodipodi:namedview
   id="namedview97"
   pagecolor="#ffffff"
   bordercolor="#000000"
   borderopacity="0.25"
   showgrid="false" />
<path
   fill-rule="evenodd"
   clip-rule="evenodd"
   fill="#da020e"
   d="m 4.941,3.439 h 505.323 v 335.684 c 0,139.568 -113.697,253.76 -252.661,253.76 v 0 C 118.639,592.883 4.941,478.692 4.941,339.123 Z"
   id="path2" />
<path
   fill-rule="evenodd"
   clip-rule="evenodd"
   fill="#010005"
   d="M 6.699,7.458 H 508.561 V 339.4 c 0,138.013 -112.918,250.931 -250.93,250.931 v 0 C 119.619,590.331 6.7,477.413 6.7,339.4 V 7.458 Z M 0,0 h 515.611 v 341.036 c 0,141.794 -116.012,257.806 -257.805,257.806 v 0 C 116.013,598.842 0,482.83 0,341.036 Z"
   id="path4" />
<polygon
   fill-rule="evenodd"
   clip-rule="evenodd"
   fill="#010005"
   points="305.824,686.91 305.825,686.91 305.825,686.911 "
   id="polygon6"
   transform="translate(-48.194,-96.579)" />
<path
   fill-rule="evenodd"
   clip-rule="evenodd"
   fill="#ffffff"
   d="m 240.092,121.475 c 14.611,3.777 14.651,8.079 21.028,3.32 5.108,11.813 1.72,5.344 11.383,16.666 -6.725,10.925 -24.735,19.773 -39.618,2.22 7.297,-9.628 10.843,-16.968 7.207,-22.206"
   id="path8" />
<path
   fill-rule="evenodd"
   clip-rule="evenodd"
   fill="#ffe200"
   d="m 215.998,131.883 c -0.059,-7.405 0.532,-17.444 -3.157,-26.236 -1.831,-8.451 -7.232,-20.896 -2.667,-26.51 4.864,-13.821 17.482,-23.364 32.115,-26.228 4.815,2.123 4.6,2.269 8.142,-0.41 12.778,0.549 25.399,6.75 29.372,20.061 2.412,8.087 3.043,18.218 3.828,26.993 -2.463,7.945 -2.128,15.822 4.172,25.93 7.839,-6.518 14.832,-15.976 17.712,-26.326 3.865,-13.894 2.067,-27.917 -3.632,-39.252 -1.246,-2.48 -3.102,-5.83 -4.577,-7.791 -29.316,-40.349 -95.035,-29.308 -108.173,16.064 -3.785,12.827 -2.668,28.843 2.964,39.574 2.999,5.711 6.703,9.05 10.286,12.998 1.912,2.107 10.154,9.849 13.615,11.133"
   id="path10" />
<path
   fill-rule="evenodd"
   clip-rule="evenodd"
   fill="#010005"
   d="m 215.318,130.389 c -3.46,-1.283 -11.022,-7.817 -12.935,-9.925 -3.583,-3.948 -6.532,-7.665 -9.531,-13.375 -5.632,-10.73 -7.202,-25.236 -3.417,-38.063 13.138,-44.521 77.799,-55.42 107.116,-16.441 1.475,1.961 3.179,4.555 4.426,7.035 5.699,11.336 8.025,23.999 4.16,37.892 -2.47,8.876 -8.446,18.801 -15.224,24.872 -2.732,2.561 -0.824,0.798 -1.975,1.834 -3.114,-4.445 -7.229,-8.225 -4.33,-24.908 -0.785,-8.775 -0.638,-17.965 -3.051,-26.052 -2.666,-8.935 -6.226,-13.022 -13.065,-16.856 -4.581,-2.568 -10.703,-3.988 -16.908,-4.21 -4.083,2.303 -2.685,1.953 -4.108,2.03 -1.352,0.073 -2.874,-1.787 -4.187,-1.597 -17.836,4.151 -25.888,8.909 -33.022,26.605 -2.792,17.897 10.045,31.764 6.051,51.159 m 71.714,-3.254 C 279.07,111.722 283.495,83.054 276.148,67.65 272.105,57.129 255.547,53.624 245.572,54.353 c -5.604,0.41 -13.568,2.542 -17.359,5.138 -2.583,0.937 -7.428,4.952 -8.825,6.422 -1.987,2.089 -4.623,5.539 -6.187,8.931 -2.945,6.292 -3.586,11.224 -2.862,19.021 0.583,6.28 2.818,11.824 4.41,17.907 1.718,6.566 3.46,15.005 2.429,21.624 -1.372,1.373 -14.356,-9.475 -15.454,-10.71 -2.151,-2.423 -2.841,-2.802 -5.477,-6.237 -1.655,-2.156 -3.12,-4.612 -4.667,-7.305 -6.118,-10.648 -8.019,-26.056 -4.511,-39.374 5.837,-22.156 26.466,-39.847 52.454,-42.819 14.103,-1.613 28.684,1.517 39.193,7.544 2.668,1.53 4.84,2.902 7.146,4.574 4.653,3.374 8.535,7.395 12.065,11.882 13.754,17.477 14.888,43.923 1.931,62.89 -2.283,3.341 -5.275,6.968 -8.15,9.813 -1.527,1.508 -2.77,2.606 -4.676,3.481 z"
   id="path12" />
<path
   fill-rule="evenodd"
   clip-rule="evenodd"
   fill="#ffffff"
   d="m 284.006,93.218 c 1.304,6.514 -9.566,28.228 13.489,37.989 -2.848,1.81 -3.786,4.609 -12.266,-1.938 2.012,5.818 11.899,4.837 12.809,12.166 -2.834,4.616 -9.918,6.748 -16.241,0.709 -1.776,3.528 -9.554,-0.986 -11.752,-3.063 -3.921,-3.704 -7.57,-11.793 -8.925,-14.286 -2.276,1.569 -0.275,0.97 -2.661,1.935 -5.41,2.187 -12.822,-4.979 -16.705,-3.184 -0.288,1.079 -0.372,8.374 -2.309,11.953 -2.091,3.391 -6.171,10.271 -12.376,10.464 -2.413,0.076 -0.777,-3.879 -2.251,-1.762 -3.033,4.354 -7.102,6.444 -10.672,6.701 -9.818,-3.178 -8.196,-11.402 -6.789,-9.966 -8.157,-4.526 -7.534,-7.393 -6.954,-9.454 -1.846,0.017 1.494,2.191 6.262,2.037 10.062,-1.278 8.711,-16.541 7.795,-20.779 -1.348,-7.381 -2.6,-15.862 -4.529,-23.379 -8.512,-23.222 9.976,-41.857 36.545,-35.14 18.318,-11.959 36.989,7.116 37.53,38.997"
   id="path14" />
<path
   fill-rule="evenodd"
   clip-rule="evenodd"
   fill="#010005"
   d="m 273.582,93.57 c 4.173,3.951 -3.202,26.059 8.258,32.478 6.612,6.092 5.327,5.711 7.499,7.235 1.738,1.22 3.389,0.328 -6.434,8.118 -4.419,0.067 -6.041,-6.37 -10.864,-0.481 -4.655,-4.699 -8.784,-9.433 -10.438,-15.004 -0.696,-1.45 1.738,-5.321 6.474,-7.942 4.351,-7.252 6.091,-11.792 5.505,-24.404"
   id="path16" />
<path
   fill-rule="evenodd"
   clip-rule="evenodd"
   fill="#010005"
   d="m 209.3,74.308 c 0.473,0 -0.08,6.397 1.412,7.706 0.57,-3.829 0.697,-7.642 2.231,-10.594 -0.31,3.751 -1.237,8.545 0.091,11.794 0.999,0.83 1.45,-6.404 2.736,-8.387 -0.787,5.376 -0.604,11.458 1.521,15.854 1.213,0.136 1.266,-14.805 3.195,-18.096 1.171,2.429 -0.454,7.14 1.291,15.483 12.33,37.535 16.811,30.329 19.311,34.406 1.362,2.22 0.582,12.372 -6.403,19.58 -0.571,0.789 -1.325,1.398 -2.341,1.887 -0.133,-0.911 -0.104,-0.578 -1.125,-2.109 -9.373,5.693 -8.671,5.54 -14.569,4.682 -4.472,-0.716 -9.057,-6.753 -11.94,-11.595 1.16,-1.394 6.36,-1.135 8.694,-5.496 3.524,-6.585 1.153,-20.285 -3.318,-34.036 -2.373,-7.295 -2.488,-15.001 -0.786,-21.079"
   id="path18" />
<path
   fill-rule="evenodd"
   clip-rule="evenodd"
   fill="#010005"
   d="m 237.754,51.593 c -38.851,3.673 -31.851,31.938 -24.992,55.82 2.417,7.971 2.635,20.203 -1.515,23.712 -4.863,4.112 -8.743,0.898 -12.865,1.402 0.377,3.083 -0.332,4.517 6.561,8.818 1.458,7.44 6.276,12.777 14.336,9.585 1.717,-0.733 5.983,-5.505 5.983,-5.505 0,1.189 4.403,2.397 8.174,-1.187 4.138,-3.527 6.332,-7.667 7.946,-12.32 1.004,-4.333 0.868,-7.292 0.765,-8.338 2.432,0.184 11.69,5.086 14.813,4.462 2.099,0 3.095,-1.386 3.823,-1.486 2.525,4.59 6.675,11.424 10.726,14.746 1.884,1.546 4.741,2.577 7.399,2.577 7.767,-0.658 10.222,5.754 16.709,0.809 2.532,-1.931 2.701,-2.229 3.634,-4.364 -18.8,-1.095 -2.5,-7.428 -0.788,-8.782 -5.775,-1.687 -18.001,-10.409 -14.809,-26.205 3.081,-15.248 -1.092,-40.575 -13.16,-50.666 -3.27,-2.595 -7.414,-4.564 -11.728,-4.564 -7.662,0 -9.057,1.806 -12.105,2.999 -2.002,-0.305 -3.391,-1.513 -8.907,-1.513 m -15.275,25.668 c 0.007,0.118 1.021,1.128 2.981,1.633 1.067,-1.063 3.391,-2.25 4.896,-5.392 0.533,-1.077 1.368,-3.102 1.411,-2.575 0.349,0.695 0.583,0.778 0.941,1.229 0.929,-0.44 2.037,-0.626 3.498,-2.762 0.424,-0.556 2.505,-3.87 2.405,-3.31 -0.088,0.495 0.202,1.166 0.379,1.449 1.242,-0.141 1.629,-0.22 3.014,-1.09 0.715,-0.55 3.022,-4.592 3.255,-5.463 0.652,2.197 0.438,3.842 5.884,4.037 10.565,-0.4 13.575,3.17 15.65,9.916 2.994,9.733 7.614,28.217 3.165,37.13 -2.347,4.699 -4.55,6.715 -8.384,10.117 -1.358,2.32 -2.886,5.515 -8.934,3.383 -7.599,-4.365 -17.056,-1.808 -23.415,-19.636 l -2.343,-6.984 c -0.707,-2.526 -1.563,-4.414 -2.164,-6.877 -3.651,-7.723 -2.292,-15.655 -2.239,-14.805 z m -20.116,57.529 c -0.483,1.796 6.025,17.05 21.361,-4.629 -1.202,4.254 -8.672,15.664 -14.737,11.883 0.025,1.134 -1.557,3.166 0.244,5.496 10.808,10.002 19.628,-11.691 19.173,-10.357 -0.056,2.856 -2.907,7.126 -2.638,7.42 4.175,4.536 17.355,-10.318 14.97,-21.648 -11.581,-6.052 -12.276,-15.571 -13.598,-17.85 1.336,8.288 -2.661,18.077 -7.468,16.638 8.162,-6.208 5.836,-21.485 1.99,-31.039 -2.084,-5.177 -2.695,-12.867 -1.053,-18.221 0.3,-0.978 2.22,-5.07 4.739,-6.04 -1.822,1.257 -3.822,8.842 -2.588,9.52 0.912,0.445 1.771,1.133 2.463,1.313 3.69,-3.667 4.725,-15.988 10.958,-17.433 -0.152,0.314 -2.173,2.738 -2.948,4.462 -0.637,1.419 -0.677,4.191 0.174,5.627 0.823,-0.298 3.107,-2.287 8.042,-11.424 0.477,1.328 -1.957,6.531 -1.372,7.439 3.43,-1.601 3.997,-8.379 6.838,-9.042 -2.094,9.976 6.997,3.861 17.347,8.744 0.831,-2.802 -3.565,-7.735 -3.437,-8.757 9.72,7.85 8.338,14.047 9.869,20.617 2.68,11.496 3.3,8.56 3.02,14.396 1.225,-2.506 1.662,-9.092 -0.866,-15.148 -0.396,-0.888 -1.169,-2.509 -1.282,-3.879 2.277,1.775 4.037,5.791 4.089,5.353 -1.521,-5.37 -8.067,-17.616 -9.494,-20.186 3.811,2.65 9.546,11.488 11.437,18.242 2.778,11.547 2.764,19.191 3.408,24.407 C 283.2,80.171 281,62.071 265.92,53.831 c -8.104,-4.428 -15.587,-1.042 -19.032,1.346 l -5.62,-1.264 c -3.395,-0.763 -9.672,0.687 -12.89,2.116 -8.136,3.454 -10.65,11.119 -11.203,14.894 -0.738,-3.613 1.987,-10.891 6.772,-15.049 -3.296,0.768 -8.291,3.516 -11.713,8.945 -5.52,10.258 -4.343,19.258 -1.898,29.046 1.397,5.591 3.378,11.617 4.347,15.819 1.311,5.692 2.28,9.028 -0.134,19.256 -0.991,4.205 -7.084,6.591 -12.186,5.85 z m 16.251,-28.6 c -5.967,-2.612 -13.583,-26.243 -7.81,-35.762 -1.281,8.177 -0.417,9.284 -0.095,9.65 -0.064,-3.854 0.798,-7.766 3.039,-11.336 0,3.505 -1.274,7.704 -0.999,10.935 0.027,0.323 0.537,3.248 0.572,2.969 0.563,-4.441 1.822,-8.791 3.006,-9.953 -1.187,10.262 0.484,16.043 1.207,16.572 0,-5.586 -1.057,-12.712 3.087,-16.817 -3.52,16.759 1.919,30.045 -1.319,40.819 -0.536,1.783 -1.769,3.271 -2.328,3.335 1.277,-4.313 1.64,-6.188 1.64,-10.412 z"
   id="path20" />
<path
   fill-rule="evenodd"
   clip-rule="evenodd"
   fill="#ffffff"
   d="m 120.684,57.492 c 8.115,-7.595 16.4,-12.807 24.93,-14.626 19.564,0.736 21.65,24.167 13.582,60.787 22.04,6.306 37.924,18.275 48.455,35.821 2.436,4.059 9.474,7.85 14.194,8.049 -9.895,8.786 -16.547,13.272 -24.225,22.741 -3.293,17.108 -9.41,40.927 -11.185,70.448 -4.146,7.615 -8.949,15.766 -15.348,24.183 -3.67,-4.296 -3.237,-26.533 -5.057,-33.303 -4.683,12.266 -11.25,22.999 -18.614,30.316 -3.479,-6.521 -5.257,-16.601 -7.421,-21.189 -6.493,25.202 -14.869,45.024 -24.249,61.976 -3.493,-10.75 -6.088,-21.883 -8.136,-33.25 -3.094,28.32 -6.809,54.51 -12.792,72.918 -4.753,-6.205 -8.712,-14.265 -11.609,-24.8 -2.835,19.479 -8.158,36.383 -16.767,49.884 -7.489,-21.041 -8.223,-53.657 -5.921,-94.288 l -6.944,6.452 c 6.893,-21.802 13.742,-44.262 17.194,-66.104 -3.144,0.001 -6.288,0.001 -9.432,0.002 7.467,-22.139 15.669,-44.238 26.854,-66.171 l -11.457,-1.123 c 6.681,-8.984 12.983,-11.888 16.849,-25.824 5.341,-19.25 11.378,-41.579 27.099,-62.899"
   id="path22" />
<path
   fill-rule="evenodd"
   clip-rule="evenodd"
   fill="#ffffff"
   d="m 368.237,45.855 c -8.667,-6.958 -14.189,-8.182 -22.832,-9.351 -10.056,3.437 -23.317,10.966 -10.181,42.695 -13.986,10.079 -20.157,16.972 -19.392,40.139 -8.131,-0.994 -17.679,5.071 -23.895,14.789 -3.332,3.878 -6.61,6.146 -11.302,6.703 10.53,8.012 19.128,12.524 27.501,21.384 3.282,12.048 12.335,41.409 34.049,70.13 5.599,11.876 10.252,15.431 14.901,17.376 2.976,-6.766 4.932,-9.6 4.946,-27.489 11.27,19.338 20.476,54.289 31.421,62.052 2.669,-10.984 3.023,-17.564 2.349,-28.822 6.619,27.696 10.149,31.619 18.737,50.94 4.271,-6.547 5.364,-13.104 7.456,-23.829 4.919,12.869 3.695,52.366 17.787,73.142 5.876,-21.547 7.017,-61.55 4.492,-102.199 l 6.559,3.569 c 3.852,-5.39 1.269,-37.02 -14.858,-72.562 6.679,-10.849 -23.763,-66.118 -24.714,-71.308 l 8.33,-1.213 C 421.523,96.996 376.54,53.592 368.237,45.855"
   id="path24" />
<path
   fill-rule="evenodd"
   clip-rule="evenodd"
   fill="#dadada"
   d="m 197.87,171.324 c 0.054,-0.878 16.914,-22.215 33.66,-29.033 3.199,3.415 21.661,26.018 43.648,-3.777 16.527,5.62 36.785,24.483 40.381,36.801 5.342,7.83 6.383,19.67 9.514,25.446 2.799,-3.473 11.506,-33.607 13.575,-35.894 7.347,2.051 10.071,3.69 21.473,4.804 -0.218,6.768 -1.93,12.698 -3.629,19.416 -7.354,29.07 -19.644,56.945 -24.6,64.299 -3.019,3.282 -12.563,5.603 -18.068,-0.511 -13.145,-14.594 -13.839,-38.137 -18.648,-49.98 -1.621,33.054 -4.851,41.877 -7.561,50.842 15.019,23.865 19.896,47.154 24.985,81.737 7.217,41.334 18.006,85.795 35.328,125.643 -56.503,0 -138.679,17.013 -195.181,17.013 9.9,-37.642 34.323,-81.493 38.624,-125.759 0.19,-1.957 15.487,-33.291 15.471,-35.03 -12.259,-1.888 -13.541,-3.04 -19.37,0.016 -2.65,-0.728 -1.818,-1.493 -2.081,-1.62 -0.542,-24.265 -1.269,-46.551 -0.649,-65.465 1.014,-30.949 8.291,-57.636 13.128,-78.948"
   id="path26" />
<path
   fill-rule="evenodd"
   clip-rule="evenodd"
   fill="#010005"
   d="m 345.869,122.909 c 5.713,-8.059 59.655,-84.798 60.421,-85.598 0.933,0.883 1.796,1.656 2.627,2.653 l -7.516,10.677 c -1.332,1.849 -2.506,3.522 -3.745,5.373 l -7.405,10.557 c -8.688,11.874 -17.373,25.253 -25.895,36.842 -4.57,6.214 -10.522,15.567 -14.961,21.119 z m -28.792,-1.937 c -0.176,-7.351 -0.08,-14.988 1.972,-21.739 2.121,-6.982 5.254,-10.351 9.958,-13.726 10.038,-7.203 7.158,-6.029 4.465,-13.384 -2.198,-6.002 -3.723,-13.278 -2.319,-20.154 2.95,-14.448 15.767,-17.93 29.146,-10.58 2.664,1.464 4.899,3.037 7.127,4.852 1.583,1.29 6.517,5.863 7.644,7.188 l 6.768,7.826 c 0.505,0.59 0.916,0.85 1.424,1.425 0.484,0.548 0.851,0.991 1.283,1.576 -0.254,0.724 -13.632,19.537 -14.633,21.045 -2.534,-2.605 -3.143,-3.18 -5.426,-6.179 l -4.921,-6.912 c -0.887,0.341 -0.796,0.515 -1.646,0.821 0.588,1.712 5.875,8.806 7.534,10.592 0.981,1.056 1.944,2.014 2.727,2.967 0.354,0.502 0,0 0.354,0.501 -4.637,6.808 -23.982,34.292 -24.85,35.213 -5.347,-0.313 -9.8,-1.502 -12.049,2.275 -1.799,3.398 -0.771,1.176 -2.141,2.801 -0.693,0.822 -1.181,2.025 -1.706,3.241 -0.801,1.852 -0.933,1.579 -2.035,2.908 -2.202,2.655 -1.615,9.664 -0.845,12.237 0.625,2.083 1.329,1.536 -0.011,3.304 -1.395,1.839 -11.563,16.297 -12.178,17.496 -4.67,-10.469 -19.107,-19.563 -28.696,-25.301 8.128,-4.572 9.419,-8.405 11.213,-10.4 2.645,-2.941 7.217,-7.093 10.931,-8.854 4.554,-2.158 6.089,-1.392 10.91,-1.039 z M 78.231,145.436 c 1.1,-1.438 2.362,-2.742 3.659,-4.283 5.984,-7.112 11.361,-15.885 14.386,-24.927 1.354,-4.045 2.101,-8.254 3.166,-12.442 5.349,-21.031 18.852,-47.912 37.482,-57.037 9.609,-4.707 17.331,-3.134 21.745,4.676 4.119,7.287 4.352,18.103 3.472,27.286 -1.285,13.42 -3.082,15.893 -4.962,26.547 11.835,0.958 22.343,7.679 28.991,13.165 3.416,2.818 10.818,9.674 13.643,12.907 0.78,0.894 1.729,1.801 2.459,2.748 0.521,0.675 0.564,0.712 1.224,1.377 0.804,0.811 4.825,5.772 6.03,7.253 3.071,3.774 6.373,4.874 11.262,4.924 -8.393,5.246 -15.567,13.467 -23.182,20.849 -5.105,0.623 -10.438,-4.896 -11.36,-7.185 -4.087,0.75 -12.163,4.93 -14.809,-0.034 -2.398,-4.502 -0.413,-13.657 -2.043,-16.525 -1.024,0.396 -4.491,3.266 -5.631,3.837 -3.784,1.898 -9.075,4.372 -11.296,-0.348 -1.571,-3.337 -1.872,-13.463 -2.619,-19.076 l -0.075,-0.417 c -0.849,-0.312 -0.838,0.227 -2.073,0.655 -4.187,1.453 -13.81,3.689 -16.072,-0.94 -2.19,-4.48 2.178,-14.631 3.782,-18.385 1.191,-2.79 2.519,-5.524 3.654,-8.319 0.725,-1.784 3.589,-7.344 1.263,-8.823 -1.677,-1.067 -3.204,0.651 -3.965,1.433 -4.788,4.918 -8.505,11.281 -12.548,16.871 -1.682,2.325 -3.135,4.633 -4.846,6.868 -1.785,2.333 -3.271,4.431 -5.005,6.71 -4.557,5.988 -11.15,13.599 -17.41,17.732 -4.339,2.865 -8.225,4.204 -13.284,3.576 -1.54,-0.191 -3.739,-0.347 -5.038,-0.673 z M 376.023,90.572 c 0.403,-0.918 13.593,-19.69 14.204,-20.237 l 11.141,11.985 c 7.011,7.326 14.593,17.04 17.266,26.872 0.141,0.516 0.195,0.935 -0.124,2.112 -1.563,0.528 -3.776,0.475 -5.327,0.392 -1.952,-0.104 -4.758,-1.239 -6.478,-1.905 -8.445,-3.272 -14.281,-6.75 -21.285,-12.039 l -7.062,-5.428 c -0.896,-0.66 -1.659,-1.183 -2.335,-1.752 z M 115.116,152.2 c 0.718,-0.337 0.559,-0.822 0.727,-1.85 0.025,-0.153 0.051,-0.306 0.079,-0.46 0.792,-4.383 2.794,-9.578 4.171,-13.575 4.207,-11.593 12.052,-31.493 18.914,-40.541 -0.606,6.604 -18.014,31.74 -5.968,36.721 4.84,2.142 9.886,-0.053 14.51,-0.854 -1.492,3.57 -8.683,20.559 -10.665,24.694 -0.324,0.677 -3.085,6.938 -3.061,7.121 0.025,0.184 0.188,0.35 0.559,0.567 0.608,0.15 3.54,-6.317 3.907,-7.084 3.855,-8.049 6.528,-15.507 10.016,-23.368 0.522,5.139 0.286,13.81 3.289,17.083 1.385,1.51 1.524,0.857 0.741,3.405 -0.988,3.217 -2.947,7.55 -4.228,10.872 -0.534,1.386 -2.184,6.736 -2.691,7.461 -2.548,3.643 -14.227,9.909 -20.021,10.186 -1.652,-6.553 0.657,-19.894 1.976,-26.4 1.995,-9.842 3.659,-14.264 6.46,-23.374 l -1.681,-0.775 c -1.241,1.671 -4.127,12.168 -4.834,14.984 -0.621,2.475 -1.204,5.071 -1.739,7.614 -1.042,4.96 -0.025,2.902 -2.784,6.345 -5.187,6.472 -13.13,12.282 -19.483,17.765 -0.927,-13.946 0.693,-26.064 2.871,-39.349 0.177,-1.078 0.071,-1.561 -0.244,-2.324 1.625,-1.118 2.92,-3 4.35,-4.482 2.535,-2.628 9.431,-11.906 11.58,-14.979 1.767,-2.527 12.596,-18.861 14.574,-20.563 -5.718,7.464 -23.16,46.24 -21.904,54.555 0.042,0.284 0.213,0.449 0.579,0.605 z m 259.056,-44.716 c -4.86,-8.384 -5.458,-6.553 -3.387,-9.619 1.049,-1.554 3.133,-4.124 3.777,-5.572 0.684,0.291 12.184,8.915 12.525,9.258 0.696,0.699 2.917,8.175 3.323,9.435 1.408,4.368 2.784,8.762 3.678,13.509 0.659,3.505 1.563,12.335 -0.163,15.238 -3.167,-0.584 -8.123,-3.129 -10.732,-4.608 -3.592,-2.037 -5.897,-4.216 -8.656,-6.449 -1.862,-1.507 -12.935,-13.978 -14.081,-15.999 l 5.933,-8.533 c 0.769,-1.063 0.84,-1.526 1.688,-2.354 1.785,3.713 17.348,28.409 16.516,21.864 -0.242,-0.787 -8.994,-13.708 -10.421,-16.17 z m 38.905,38.917 c 0.533,-0.66 -7.56,-20.441 -8.601,-22.855 -2.642,-6.125 -7.91,-12.83 -12.523,-17.481 -0.625,-0.63 -1.313,-1.296 -1.646,-2.233 1.317,0.549 3.606,2.174 5.072,2.973 3.73,2.031 6.654,3.399 10.655,4.959 4.006,1.562 3.907,0.736 4.767,3.046 2.789,7.5 6.514,14.643 9.783,21.709 5.879,12.708 17.244,32.777 14.746,47.101 -7.044,-1.625 -24.381,-19.025 -29.149,-24.62 -4.127,-4.842 -4.746,-4.188 -6.518,-8.846 -0.701,-1.842 -1.375,-3.661 -2.077,-5.476 -0.959,-2.481 -1.771,-3.038 -1.179,-5.855 0.456,-2.174 0.606,-4.567 0.57,-6.885 -0.182,-11.476 -4.104,-17.062 -5.42,-24.053 3.278,3.56 7.347,8.609 10.547,15.308 3.291,6.89 6.609,14.821 9.293,21.471 1.165,1.795 0.836,1.723 1.68,1.737 z m -61.731,-20.774 c 1.3,-2.106 6.031,-8.701 7.72,-11.074 2.623,2.53 5.258,6.452 7.667,8.916 0.729,0.745 1.184,1.533 1.933,2.241 3.036,2.867 2.27,1.962 3.398,8.834 1.96,11.928 3.025,21.845 2.796,34.12 -0.03,1.577 0.063,1.735 -0.738,2.283 -1.075,0.735 1.157,-0.708 -0.501,0.271 -4.387,-2.472 -7.74,-5.105 -10.441,-8.272 -2.72,-3.19 -2.537,-1.444 -0.88,-6.138 0.799,-2.263 1.578,-4.643 1.795,-7.287 0.614,-7.475 -3.426,-14.772 -7.915,-19.655 -2.611,-2.841 -2.324,-2.152 -4.834,-4.239 z m -8.94,9.713 c -0.996,-0.819 -3.272,-2.204 -4.597,-2.725 -3.575,-1.408 -4.863,-0.874 -8.39,-0.415 1.014,-3.377 2.955,-5.248 7.228,-4.907 2.465,0.196 4.752,1.376 6.584,2.755 0.722,0.543 0.859,0.883 1.775,1.156 0.347,-0.938 0.712,-0.646 -1.486,-2.226 -0.82,-0.589 -1.676,-1.136 -2.783,-1.64 -2.867,-1.304 -4.439,-1.285 -7.688,-0.749 1.873,-6.861 16.434,0.078 20.012,3.008 2.618,2.145 5.527,6.418 7.17,10.271 5.28,12.387 -2.449,16.933 -2.979,28.085 -6.529,-0.132 -9.865,-1.804 -15.387,-3.217 0.54,-2.069 1.389,-4.436 2.164,-6.417 0.887,-2.264 1.91,-3.981 2.683,-5.769 -7.312,-0.896 -10.877,-9.334 -14.602,-10.078 -1.943,-0.388 -3.093,0.972 -3.955,2.043 -0.665,0.827 -0.593,0.735 -1.282,1.069 l -0.491,-5.919 c 2.628,-1.104 3.479,-2.32 7.271,-0.817 1.076,0.426 2.146,1.11 2.959,1.723 2.538,1.913 1.482,1.855 2.658,1.089 -0.479,-0.94 -1.653,-1.625 -2.549,-2.245 -4.713,-3.262 -6.685,-2.575 -10.551,-0.856 0.404,-7.875 10.017,-6.624 14.573,-3.156 0.854,0.65 0.829,0.941 1.921,1.265 0.26,-0.697 0.534,-0.676 -0.258,-1.328 z m 31.048,-3.32 c 1.229,3.934 3.459,9.693 4.206,12.023 1.535,4.362 3.346,8.513 5.073,12.629 10.807,25.741 16.412,38.442 20.833,67.282 l 2.406,14.339 c 0.247,0.47 0.644,1.558 0.848,0.78 0.155,-0.592 0.146,-0.656 0.173,-0.919 0.017,-0.146 -0.028,-0.867 -0.044,-1.043 -1.713,-19.286 -4.561,-37.142 -11.57,-55.29 -3.825,-9.903 -16.606,-40.902 -20.287,-49.76 2.288,1.357 4.334,3.29 8.399,5.625 3.184,1.829 6.26,2.848 9.959,4.104 1.411,0.479 1.583,2.057 2.522,4.507 0.655,1.71 1.297,3.345 1.941,5.084 13.495,36.419 21.367,63.45 22.447,103.437 0.092,3.377 0.64,25.657 0.466,27.173 -0.54,4.725 -4.044,19.101 -6.351,21.724 -7.745,-12.627 -13.554,-33.436 -17.658,-49.178 -0.849,-3.251 -1.37,-7.993 -2.034,-11.525 -3.639,-19.36 -10.913,-46.03 -16.479,-64.471 -0.46,-1.527 -1.171,-3.588 -1.448,-5.046 -0.258,-1.354 0.085,-4.787 0.112,-6.407 0.075,-4.396 -0.07,-8.735 -0.394,-13.112 -0.205,-2.828 -2.439,-21.321 -3.12,-21.956 z m -79.669,-2.342 c 1.294,-1.909 6.056,-6.165 8.532,-7.861 4.343,-2.975 6.536,-3.249 12.557,-3.327 0.459,-4.017 -0.173,-7.21 0.847,-13.776 0.652,-4.195 1.631,-7.886 3.435,-11.352 4.638,-8.913 14.349,-12.389 14.7,-14.789 -0.398,-1.588 -1.715,-4.033 -2.359,-5.775 -0.766,-2.075 -1.392,-4.141 -1.928,-6.41 -6.719,-28.457 18.902,-44.977 46.393,-14.881 2.823,3.09 7.229,8.37 9.896,10.878 2.01,-1.978 18.965,-27.359 20.34,-28.306 l 5.394,5.432 c -0.427,1.074 -1.594,2.604 -2.339,3.626 -2.107,2.89 -16.476,23.138 -17.726,25.283 l 11.255,12.5 c 0.755,0.843 1.166,1.242 1.848,2.056 4.387,5.232 8.519,9.836 12.079,16.034 1.55,2.697 4.538,9.032 3.811,13.864 -2.453,0.629 -4.692,1.009 -7.828,0.879 0.97,3.868 13.301,29.424 15.214,33.417 14.361,29.964 8.857,34.658 9.387,37.505 0.141,0.756 3.163,7.044 3.754,8.444 1.182,2.802 2.255,5.744 3.258,8.718 2.061,6.115 3.941,12.356 5.349,18.863 0.771,3.566 6.691,28.58 1.839,38.369 -1.564,-0.388 -3.596,-2.365 -5.744,-3.835 l -0.396,-0.244 c 1.238,40.523 2.681,77.307 -4.72,102.413 -2.857,-0.864 -6.481,-9.618 -7.988,-13.222 -7.11,-17.008 -7.046,-51.011 -10.34,-57.449 -0.037,0.065 -0.075,0.152 -0.096,0.203 -0.021,0.05 -0.067,0.142 -0.092,0.204 l -0.302,1.061 c -1.077,5.057 -4.445,16.999 -7.061,19.755 -1.406,-1.388 -4.484,-7.466 -5.592,-9.79 -3.009,-6.314 -10.975,-27.917 -11.965,-33.879 -0.207,4.188 -0.142,7.61 -0.815,11.714 -0.366,2.229 -1.672,8.106 -2.635,9.676 -1.94,-1.271 -4.203,-4.024 -5.758,-5.918 -9.738,-11.861 -18.217,-43.915 -25.491,-54.808 -0.342,4.038 0.903,7.363 -0.35,14.496 -0.619,3.527 -2.408,8.784 -4.406,10.907 -4.622,0.325 -7.658,-3.773 -9.463,-6.121 -1.169,-1.521 -5.203,-7.749 -5.821,-9.562 -0.698,0.683 -0.893,1.601 -1.431,2.664 l -6.24,12.998 c -0.428,0.887 -0.84,1.77 -1.26,2.652 -1.399,2.935 -9.381,5.403 -13.995,4.375 -4.45,-0.991 -6.875,-3.606 -9.021,-6.074 -6.29,-7.237 -10.381,-23.166 -12.563,-33.544 -0.423,-2.014 -1.937,-11.758 -2.384,-12.681 -0.405,2.443 -0.181,7.112 -0.221,9.925 -0.161,11.114 -0.948,24.834 -5.198,34.976 -1.865,4.451 -1.779,2.522 0.64,6.469 13.492,22.011 18.298,50.117 22.969,76.757 6.219,35.469 10.961,63.545 23.081,96.911 1.164,3.204 10.653,27.033 12.056,27.76 5.735,2.329 41.079,-0.269 50.354,-4.105 10.555,-5.503 21.648,-18.127 22.413,-35.492 -15.581,8.84 -42.568,20.456 -61.988,8.891 -35.24,-30.436 -14.087,-102.752 64.508,-75.371 13.134,4.575 22.3,20.762 22.767,21.002 8.755,-8.344 24.995,-42.777 25.042,-71.514 l -15.957,5.025 19.993,-36.476 c 6.249,11.191 9.715,21.647 16.862,35.487 l -0.003,0.671 c -0.002,-0.033 -0.024,0.109 -0.051,0.157 -0.552,0.357 -9.101,-4.395 -10.69,-5.306 2.995,26.115 -8.672,65.594 -25.032,84.856 -3.166,5.085 -3.057,4.627 -2.478,6.786 1.814,7.231 3.013,14.708 3.288,22.441 0.715,20.036 -7.193,44.582 -19.328,58.67 -25.94,30.119 -100.415,41.2 -105.058,84.182 -7.27,-24.202 -34.141,-22.557 -36.886,8 -9.752,-29.167 -37.293,-33.97 -43.003,0.362 1.774,-24.916 -25.68,-43.623 -37.717,-11.446 -4.038,-22.547 -22.1,-32.284 -32.228,-10.22 -2.52,-19.1 -26.796,-23.566 -50.959,-28.456 -32.619,-3.684 -54.436,-23.122 -57.204,-51.386 -2.821,-0.202 -3.742,-0.838 -10.672,-2.074 -13.631,-3.043 -10.141,-16.02 -16.458,-33.494 -4.292,-10.779 -8.026,-12.024 -10.045,-17.51 20.458,-2.712 19.147,8.189 36.734,13.345 -1.689,-7.229 -14.184,-22.32 -21.469,-25.498 5.461,-0.923 6.354,-0.647 17.97,3.369 6.03,2.863 12.025,8.26 16.283,12.823 1.611,2.847 6.374,3.461 9.615,1.616 6.114,-3.48 8.163,-16.35 1.025,-18.475 -4.885,-1.241 -6.166,0.882 -9.797,2.766 0.711,-20.52 21.116,-14.034 21.69,-10.154 0.492,-0.074 2.157,-2.25 7.703,-1.506 13.624,1.829 10.749,13.517 11.128,15.188 0,0 -0.073,0.275 4.824,-18.17 0.434,-0.697 1.501,-2.003 1.935,-2.701 l 1.124,3.491 c 0.019,9.027 0.416,17.979 0.435,27.005 2.041,-2.61 3.847,-5.488 5.827,-8.156 2.032,-2.736 3.887,-5.536 5.802,-8.259 l 17.439,-24.735 c 1.671,-2.374 16.364,-23.393 17.437,-24.609 -0.814,-1.348 -1.246,-0.904 -2.042,-3.207 -0.416,-1.201 -0.996,-2.146 -1.363,-3.577 -2.083,-8.118 5.938,-14.752 5.851,-23.758 -2.663,-1.019 -2.218,0.205 -2.265,-7.029 -0.101,-15.476 -0.501,-31.178 -0.333,-46.599 0.029,-2.709 0.498,-17.046 0.363,-18.134 -1.613,2.328 -4.32,7.433 -6.405,10.602 -1.164,1.769 -2.359,3.451 -3.534,5.056 -1.423,1.945 -2.793,3.297 -3.655,4.443 -4.24,-8.857 -4.169,-21.137 -4.99,-31.726 l -0.676,1.055 c -2.59,5.474 -3.464,8.632 -7.066,14.785 -2.208,3.772 -7.506,10.792 -10.872,12.572 -3.01,-4.684 -5.807,-13.476 -7.007,-20.057 -0.769,1.402 -1.85,6.572 -2.381,8.568 -2.063,7.75 -5.19,17.003 -8.052,24.231 -2.076,5.242 -11.164,25.781 -14.279,28.679 -0.681,-1.741 -3.638,-12.324 -4.345,-14.872 -0.858,-3.092 -3.352,-15.58 -3.374,-15.635 -1.034,15.268 -5.764,57.55 -12.94,69.754 -0.539,-0.627 -0.464,-0.599 -0.712,-0.919 -9.559,-12.365 -8.737,-18.647 -10.41,-21.768 0.324,1.385 -1.958,16.788 -6.737,27.181 -2.495,6.479 -5.857,13.129 -9.152,19.233 l -1.142,1.981 c -0.214,0.305 -0.258,0.334 -0.371,0.45 -2.019,-3.552 -4.641,-15.778 -5.485,-20.614 -2.795,-16.015 -2.723,-33.165 -2.173,-49.45 0.274,-8.139 0.961,-16.932 0.84,-24.985 -2.607,2.065 -3.746,5.163 -6.917,6.356 -0.622,-3.672 3.432,-13.479 4.685,-17.509 1.65,-5.308 3.162,-10.72 4.722,-16.095 1.589,-5.476 3.021,-10.927 4.325,-16.531 0.93,-3.996 3.259,-13.474 3.268,-17.295 -3.959,0.912 -5.328,0.267 -9.401,0.262 -0.243,-3.239 10.142,-29.434 12.029,-34.061 2.209,-5.415 4.668,-10.83 7.174,-15.985 l 7.575,-15.671 -12.691,-1.488 c -0.042,-0.66 0.046,-0.549 0.598,-1.153 2.464,-2.699 3.717,-3.8 6.387,-7.16 17.806,-22.414 12.509,-31.076 22.681,-54.376 3.04,-6.963 6.847,-14.411 10.927,-19.729 4.278,-6.381 10.727,-13.153 17.056,-17.373 7.501,-5.001 17.9,-8.401 25.429,-1.215 6.092,5.815 7.723,16.398 7.364,27.251 -0.244,7.404 -1.496,15.5 -3.07,22.667 -0.461,2.1 -1.479,5.33 -1.645,7.27 1.379,0.646 6.018,1.391 8.062,2.13 7.178,2.595 14.068,6.796 19.593,11.388 3.953,3.285 7.351,6.411 10.733,9.833 4.953,4.35 11.978,14.033 15.758,17.305 2.148,1.403 4.438,1.752 7.342,1.521 3.67,-0.292 3.788,-1.125 6.194,-2.642 0.866,-0.546 1.893,-1.132 2.773,-1.681 2.096,-1.306 1.772,0.256 3.218,2.082 1.175,0.688 2.661,3.477 8.164,6.605 11.216,6.377 24.385,0.839 30.065,-9.521 1.684,-2.47 0.94,-1.662 1.958,-2.615 2.817,-0.264 6.619,2.034 8.589,2.527 0.611,-0.407 1.114,-0.944 1.878,-1.42 5.085,-2.84 6.289,-4.888 9.603,-9.137 z M 85.427,179.102 c 0.034,-0.019 16.533,-35.062 18.36,-38.718 0.046,2.847 -1.331,9.267 -1.745,12.58 -1.706,13.663 -0.964,14.505 -0.605,27.149 0.058,2.025 -4.034,7.802 -5.107,9.32 -1.088,1.539 -2.055,2.868 -3.118,4.17 -1.192,1.46 -2.047,2.643 -3.385,3.905 -1.21,1.142 -4.321,4.569 -5.479,5.452 -0.682,0.52 -1.101,0.958 -1.842,1.546 -2.795,2.215 -5.145,3.843 -8.459,5.863 -3.198,1.948 -7.664,2.16 -11.28,1.946 0.236,-5.158 13.056,-35.596 15.162,-40.233 2.878,-6.338 5.792,-12.523 8.897,-18.706 2.705,-5.386 1.9,-5.284 4.444,-5.971 2.252,-0.608 5.178,-2.248 6.938,-3.478 l 3.999,-2.951 c -1.167,1.503 -8.075,15.088 -9.649,18.591 -2.388,5.314 -5.089,11.213 -7.308,16.693 -1.09,2.867 -0.291,3.1 0.177,2.842 z m 246.021,-34.638 c 1.245,0.312 1.85,1.272 2.378,2.315 -0.655,1.185 -15.046,21.523 -15.989,22.831 l -12.026,17.132 c -1.303,1.905 -2.74,3.852 -4.074,5.821 -10.146,14.977 -21.751,30.607 -32.104,45.738 -3.885,5.678 -8.201,11.367 -11.938,16.953 -6.241,9.329 -13.859,19.35 -20.193,28.748 -1.306,1.937 -2.661,3.733 -3.969,5.664 -1.365,2.014 -2.571,3.747 -3.978,5.654 -2.755,3.735 -5.312,7.64 -8.044,11.484 -2.691,3.787 -5.458,7.548 -8.068,11.452 -1.303,1.949 -2.668,3.813 -3.988,5.645 -0.717,0.996 -1.401,1.97 -2.025,2.929 -0.429,0.658 -0.477,0.873 -1.205,1.157 -2.656,1.038 -2.662,-3.095 -2.007,-4.112 1.637,-2.549 2.876,-3.546 4.944,-7.031 1.185,-1.998 7.419,-10.608 9.131,-13.004 24.284,-33.988 48.181,-68.753 72.469,-102.724 2.728,-3.814 5.429,-7.593 8.054,-11.478 7.482,-11.071 16.653,-23.111 24.126,-34.184 1.299,-1.929 6.9,-10.448 8.506,-10.99 z m -176.502,8.449 c 6.189,0.316 10.151,-3.543 11.93,-4.538 -0.927,4.533 -4.294,13.178 -5.935,17.235 -2.858,6.265 -5.438,8.415 -7.198,12.06 l 0.731,0.55 c 1.047,-0.701 3.568,-4.087 4.573,-5.733 4.822,-7.896 6.718,-15.222 8.969,-23.79 0.832,3.739 -0.796,10.912 2.445,14.847 3.112,3.778 9.233,1.472 13.83,0.626 -0.552,5.08 -6.485,27.798 -6.422,28.302 0.03,0.243 0.295,0.146 0.767,0.282 0.968,-1.227 3.387,-11.479 4,-13.845 1.205,-4.651 2.321,-10.381 2.839,-14.845 0.578,0.556 1.219,1.402 1.728,1.999 3.11,3.645 4.482,3.153 6.894,4.668 -1.597,9.083 -6.516,22.96 -12.241,30.037 -1.528,1.888 -4.818,5.107 -7.906,5.957 -2.454,-3.453 -4.473,-22.876 -2.229,-26.776 2.317,-4.026 4.011,-8.843 4.647,-13.651 l -2.057,-0.176 c -0.642,4.17 -1.875,7.942 -3.564,11.3 -1.333,2.65 -4.129,6.868 -6.178,8.663 -0.966,0.846 -0.93,1.152 -2.014,1.871 -0.063,0.042 -0.251,0.157 -0.313,0.203 l -1.619,1.526 c -1.257,1.044 -2.781,2.021 -4.282,3.011 -1.703,1.124 -7.521,4.492 -9.667,5.052 -2.529,-12.776 -0.344,-23.192 4.443,-34.748 z m 176.742,27.013 c -0.531,-1.732 -4.831,-9.887 -6.197,-12.619 -1.804,-3.606 -2.228,-2.058 4.58,-11.495 0.981,-1.361 4.55,-6.619 5.282,-7.323 2.778,0.184 3.735,3.878 8.009,5.857 -0.36,1.195 -3.045,8.651 -3.592,9.631 l -2.071,-0.407 c -0.548,2.484 -2.056,5.873 -2.935,8.391 -0.369,1.06 -2.386,7.146 -3.076,7.965 z m -77.821,-25.381 c 6.902,-0.441 13.295,-4.48 16.995,-9.257 0.98,-1.266 2.981,-3.786 3.454,-5.398 15.786,5.264 29.566,17.829 36.924,28.751 -0.553,0.75 -1.146,1.442 -1.627,2.125 l -13.142,18.615 c -1.805,2.517 -3.226,4.613 -5.064,7.168 l -8.617,12.208 c -3.746,5.536 -7.75,10.819 -11.511,16.347 -5.475,8.046 -11.921,16.548 -17.333,24.58 -0.776,1.152 -5.127,7.363 -5.803,8.068 -4.894,0.065 -11.816,-1.027 -16.884,-1.502 -2.822,-0.265 -16.956,-1.73 -19.178,-1.377 l 0.059,1.955 c 6.258,0.538 30.09,2.083 34.596,3.038 -2.965,4.197 -6.099,8.544 -9.048,12.87 -3.073,4.507 -6.146,8.514 -9.152,12.975 -0.272,0.404 -17.393,25.028 -18.435,25.918 0.484,-4.872 1.42,-9.54 1.766,-14.679 1.056,-15.717 0.534,-32.141 0.033,-47.869 -0.083,-2.625 -0.286,-5.476 -0.27,-8.082 0.011,-1.781 1.497,-4.292 2.094,-6.027 3.165,-9.203 3.695,-18.592 4.44,-28.313 0.391,-5.093 0.856,-9.695 1.422,-14.609 l -1.832,-0.195 c -1.884,13.359 -1.856,31.491 -6.347,43.405 -0.446,1.185 -1.266,3.826 -1.748,4.688 -1.54,-0.769 -3.419,-0.63 -5.289,-0.261 -0.784,0.155 -1.515,0.395 -2.274,0.59 -2.641,0.526 -1.551,0.671 -1.467,1.425 1.198,0.494 3.809,-1.218 7.234,-0.974 0.849,0.204 1.609,0.384 1.689,0.417 0.911,12.747 1.189,44.864 0.097,57.446 -0.758,8.718 -1.532,10.122 -2.576,17.232 -8.339,-1.314 -12.435,-2.589 -20.69,0.021 -0.539,-17.791 -0.582,-36.451 -0.358,-54.262 0.288,-12.134 0.888,-27.53 3.149,-42.058 3.893,-19.647 7.436,-37.53 9.188,-48.195 1.339,-2.896 22.445,-23.359 32.597,-28.011 3.986,4.056 6.89,7.878 13.712,10.073 0.362,5.009 1.259,10.958 1.12,16.278 -0.114,4.348 -0.78,7.287 -1.444,11.409 -0.446,2.771 -0.406,2.502 0.41,2.927 0.699,-0.229 0.339,0.094 0.628,-0.668 3.044,-10.792 1.296,-23.916 0.819,-29.445 2.021,0.273 4.121,0.506 6.245,0.813 -0.72,17.533 6.491,25.324 8.509,37.897 -0.051,2.046 0.211,2.174 0.921,2.192 0.604,0.015 0.13,-0.025 0.139,-1.658 0.39,-10.026 -8.44,-22.949 -8.151,-38.591 z m 186.685,92.693 c -6.506,-6.498 -13.573,-18.624 -18.51,-26.526 -4.188,-6.704 -2.845,-3.527 -4.525,-11.625 -2.747,-13.236 -6.39,-25.927 -10.6,-38.592 -1.228,-3.693 -3.223,-8.44 -4.101,-12.013 l 3.058,3.16 c 1.724,2.051 7.394,7.978 8.838,9.388 l 5.835,5.403 c 0.777,1.148 7.75,25.641 8.51,28.054 0.601,1.905 5.598,17.001 7.776,16.907 0.418,-0.525 0.418,-0.123 0.035,-1.153 -0.126,-0.336 -0.44,-0.897 -0.6,-1.257 -5.237,-13.646 -11.384,-37.065 -12.973,-40.229 1.82,1.606 4.741,3.589 7.299,5.025 l 4.638,2.134 c 1.945,1.162 8.729,21.556 9.378,23.692 2.074,6.82 8.725,40.454 5.679,45.462 -1.562,-0.505 -5.053,-3.152 -9.737,-7.83 z M 94.588,340.393 c -5.025,-6.979 -9.999,-24.525 -10.965,-25.181 -0.515,-26.094 1.239,-47.897 5.42,-73.176 2.102,-12.708 1.049,-6.929 4.79,-17.874 2.732,-7.995 5.326,-18.51 6.986,-26.842 0.417,-2.088 2.436,-12.229 2.52,-14.105 0.048,-1.076 0.085,-2.478 1.67,-3.586 5.935,-4.147 7.851,-6.473 12.415,-10.131 -0.369,1.348 -1.555,3.545 -2.189,5.004 -0.76,1.751 -1.457,3.371 -2.16,5.122 -10.168,25.339 -14.763,55.253 -16.781,82.658 l -0.141,2.657 c 0.336,1.192 1.903,0.593 2.003,-0.359 0.343,-5.02 0.633,-9.203 1.064,-13.476 1.488,-14.772 3.533,-27.833 6.847,-42.304 2.918,-13.473 8.021,-25.355 11.768,-36.296 2.727,-5.712 0.961,-3.439 4.044,-7.5 0.708,-0.791 1.233,-1.606 2.12,-2.144 -0.585,6.143 -1.78,11.999 -0.963,18.423 0.3,2.363 1.068,3.228 0.343,5.521 -2.091,6.617 -3.99,13.393 -5.972,20.059 -4.052,13.63 -7.813,27.478 -9.666,42.448 -0.978,7.898 -1.375,15.925 -2.083,23.926 -1.364,15.448 -3.283,30.755 -6.117,45.955 -0.644,3.469 -3.787,19.335 -4.953,21.201 z M 196.174,170.799 v 0 c -1.981,16.465 -6.332,28.642 -8.791,44.362 -0.72,4.606 -1.302,9.326 -1.781,14.061 -0.251,2.485 -0.469,4.969 -0.638,7.457 -0.19,2.798 0.094,4.476 -1.22,6.584 -1.921,3.085 -9.719,17.178 -12.399,19.291 -1.474,-1.941 -2.571,-13.549 -2.832,-16.857 -0.394,-4.997 -1.582,-13.854 -0.586,-18.251 1.176,-5.195 2.422,-10.813 4.425,-15.357 1.971,-4.472 1.522,-2.497 5.152,-4.739 2.397,-1.48 3.5,-2.798 5.196,-4.283 -0.904,3.717 -7.64,30.188 -6.933,32.242 l 0.785,0.013 c 0.963,-2.495 5.101,-24.712 7.908,-34.288 0.399,-1.011 1.485,-2.378 2.09,-3.38 3.768,-6.242 8.985,-20.564 9.624,-26.855 z m 182.638,57.227 c 0.255,0.955 1.389,4.354 1.569,3.689 2.273,-8.373 -16.333,-40.985 -19.507,-55.031 -0.545,-2.41 -0.664,-0.068 -0.035,-4.153 0.239,-1.554 0.518,-3.137 0.688,-4.729 l -2.192,0.074 c 0.066,-1.14 0.3,-4.008 1.05,-4.979 3.967,5.023 7.657,7.609 13.596,10.857 0.957,0.524 0.864,0.286 1.216,1.397 0.205,0.648 0.305,1.198 0.485,1.843 6.915,24.739 12.782,43.774 17.701,69.798 0.558,2.95 0.666,5.833 1.033,8.837 0.744,6.069 0.979,12.257 0.159,18.331 -0.396,2.931 -1.237,5.455 -1.645,8.041 -2.381,-1.421 -6.202,-7.618 -7.921,-10.725 -7.465,-13.495 -14.204,-37.698 -22.574,-50.832 -0.926,-1.453 -0.899,-1.297 -1.504,-3.184 -1.616,-5.048 -4.241,-12.476 -5.548,-17.116 -0.345,-1.223 2.633,-12.417 3.092,-14.619 0.406,-1.945 0.785,-5.427 1.353,-6.963 4.224,16.49 9.468,23.176 15.601,39.044 1.357,3.516 2.4,6.752 3.383,10.42 z m -57.037,-7.094 c 0.107,-5.625 0.827,-10.546 2.975,-15.242 0.87,-1.905 3.878,-10.549 4.801,-13.168 1.055,-2.991 9.063,-25.688 9.707,-26.408 2.92,0.634 6.101,1.94 9.162,2.732 3.391,0.876 6.938,1.251 10.608,1.17 -0.026,3.713 -2.961,17.382 -4.142,22.064 -2.238,8.882 -4.775,17.667 -8.065,26.305 -4.604,12.087 -8.896,20.644 -14.269,31.8 -1.164,2.417 -0.738,2.099 -3.066,3.445 -21.247,10.77 -28.264,-28.784 -30.929,-43.789 -0.336,-1.891 -0.638,-3.824 -0.979,-5.773 -0.258,-1.47 -0.404,-1.471 0.367,-2.534 l 6.676,-9.47 c 3.492,-5 7.463,-10.389 10.745,-15.292 2.016,2.68 6.189,16.627 7.336,20.92 1.532,5.737 1.038,3.746 -1.205,10.988 -1.274,4.112 -1.896,7.641 -1.769,12.345 z m 2.943,-23.7 c -0.092,-0.307 -0.167,-0.679 -0.259,-1.025 l -1.969,-6.634 c -1.305,-4.139 -2.898,-8.592 -4.633,-12.541 -0.942,-2.147 -1.309,-1.928 -0.027,-3.775 l 4.767,-6.677 c 0.156,0.125 0.138,0.081 0.372,0.389 l 3.585,7.083 c 4.272,8.545 4.812,7.367 3.165,11.87 l -4.484,12.467 z m -204.656,44.032 c 1.023,-0.192 1.431,-1.05 1.615,-2.291 2.763,-18.579 10.441,-32.546 14.071,-50.186 2.28,-11.003 -1.003,-5.95 5.872,-10.558 0.994,-0.685 2.246,-1.788 3.057,-2.201 -2.918,17.706 1.033,22.054 0.325,26.367 l -4.054,25.119 c -1.302,8.021 -1.219,8.063 -3.231,16.048 -5.141,20.404 -12.149,39.987 -21.561,56.024 -2.292,-3.534 -5.989,-22.846 -6.625,-28.211 -3.097,-26.131 7.667,-55.23 14.716,-80.064 2.501,-8.813 0.463,-5.934 6.701,-7.872 1.609,-0.5 2.949,-1.121 4.524,-1.641 -1.405,14.938 -8.639,29.771 -12.589,44.087 -0.329,1.193 -3.236,13.05 -3.105,14.592 0.064,0.761 -0.109,0.335 0.284,0.787 z m -48.681,-0.783 c 1.032,0.068 1.242,-0.071 1.709,-1.497 3.488,-8.538 11.176,-28.001 13.392,-35.189 0.829,-0.867 1.837,-1.597 2.724,-2.483 5.417,-5.417 7.065,-8.64 10.822,-13.653 l 0.554,-0.616 c -0.451,4.451 -1.78,9.934 -2.737,14.323 -1.378,6.327 -5.931,23.909 -8.581,29.162 -0.503,0.997 -0.724,1.917 -1.173,2.991 -3.207,7.667 -7.325,14.95 -12.274,21.309 -0.605,0.777 -1.203,1.548 -1.857,2.311 -0.848,0.991 -1.083,1.378 -1.928,2.232 -0.77,0.777 -1.255,1.602 -2.062,2.371 l -6.136,6.354 c -0.52,0.522 -8.084,7.613 -8.102,7.623 0.643,-3.016 2.002,-6.631 2.938,-9.668 4.867,-15.791 9.626,-32.393 12.436,-48.712 0.597,-3.469 0.039,-3.151 2.133,-4.137 1.28,-0.603 2.601,-1.463 3.777,-2.207 3.198,-2.02 4.997,-3.651 7.098,-5.029 -0.643,2.648 -13.544,32.935 -12.733,34.515 z m 81.55,-12.457 c 0.383,-0.958 1.008,-5.264 1.261,-6.55 1.541,-10.274 5.732,-18.468 8.328,-28.997 0.445,-1.806 0.167,-1.325 0.861,-2.385 1.833,-1.498 5.026,-5.234 5.294,-5.461 0.235,1.404 0.066,7.72 0.694,12.284 0.797,5.793 1.581,6.51 2.417,10.377 0.273,1.263 -2.287,5.821 -3.319,9.501 -2.842,10.134 -1.778,9.751 -5.978,19.792 -1.228,2.937 -2.582,5.969 -3.97,8.793 -1.527,3.106 -3.028,5.549 -4.849,8.161 -2.741,3.934 -2.757,3.975 -5.952,6.623 -1.558,-1.904 -3.905,-10.312 -4.696,-13.458 -2.283,-9.078 -2.077,-6.201 -0.561,-15.547 0.211,-1.3 4.829,-30.916 5.095,-31.297 l 1.012,-0.625 c 1.997,-1.015 3.984,-1.789 6.058,-3.056 1.185,-0.724 2.065,-1.227 3.206,-1.993 1.004,-0.674 2.25,-1.625 3.146,-2.045 -0.423,3.373 -4.051,13.511 -5.313,17.315 -2.15,6.48 -2.828,10.034 -3.509,16.595 -0.245,2.374 0.241,1.748 0.775,1.973 z m 105.392,30.117 c 0.887,-1.521 7.401,-10.802 8.699,-12.564 3.069,-4.168 5.757,-8.376 8.815,-12.529 3.018,-4.096 5.795,-8.342 8.814,-12.532 1.54,-2.137 2.968,-4.156 4.396,-6.278 1.396,-2.073 2.823,-4.166 4.289,-5.965 0.157,11.207 -0.388,23.874 -2.969,34.364 -0.574,2.333 -1.458,4.969 -2.356,7.008 -1.505,3.41 -1.232,3.651 -2.905,4.139 -4.969,1.447 -11.875,3.222 -17.087,3.707 1.047,-5.028 10.003,-12.131 10.114,-14.346 -0.179,-0.916 -0.885,-1.23 -2.298,0.884 -4.101,6.137 -7.178,6.714 -9.048,13.646 z m 184.683,71.336 c -0.095,1.272 -2.512,22.477 -3.554,23.91 -3.509,-5.097 -3.545,-6.156 -5.987,-12.895 -4.596,-12.677 -5.524,-34.792 -7.958,-49.047 -1.332,-7.799 -2.523,-8.505 -2.717,-16.584 -0.388,-16.16 -0.095,-29.346 -1.989,-45.618 -0.242,-2.07 -1.088,-6.452 -0.994,-8.172 1.326,2.158 7.88,12.173 8.286,13.53 2.102,14.604 3.9,25.834 4.587,40.418 0.29,2.524 0.327,18.193 2.639,20.743 0.32,-0.191 0.514,0.047 0.432,-1.606 -0.467,-9.36 -0.845,-19.847 -1.549,-28.886 -0.741,-9.517 -2.564,-18.131 -3.788,-27.42 1.961,2.866 3.561,4.813 5.597,7.428 7.245,8.036 3.864,4.208 7.245,8.036 0.221,1.587 0.172,4.671 0.447,11.655 0.855,21.754 0.921,42.762 -0.697,64.508 z m -86.291,-81.2 c -3.883,-0.534 -7.088,-5.519 -8.926,-8.5 -5.271,-8.55 -4.756,-6.749 -2.811,-11.259 1.726,-4.001 3.353,-8.064 4.866,-12.317 1.476,-4.148 2.745,-8.972 4.281,-12.909 0.991,1.698 2.694,8.152 3.488,10.52 1.372,4.097 2.351,6.482 2.692,11.108 0.74,9.986 0.598,15.612 -3.59,23.357 z M 81.58,315.472 c 1.531,7.584 -6.627,33.731 -9.441,38.76 -0.945,2.06 -4.425,9.377 -5.524,10.854 -2.519,-5.165 -4.931,-22.269 -5.502,-28.469 -1.012,-10.976 -0.907,-22.299 -0.614,-33.383 l 0.965,-28.653 c 0.071,-1.808 0.603,-1.872 1.565,-2.866 0.747,-0.771 1.317,-1.344 2.057,-2.108 0.796,-0.822 1.28,-1.159 2.173,-1.988 l 6.131,-6.628 c 1.358,-1.722 5.069,-5.589 5.705,-7.377 -4.762,20.81 -8.438,40.152 -8.762,60.559 0.206,1.121 -0.315,0.424 0.527,0.739 0.776,-0.318 0.256,0.366 0.512,-0.74 1.611,-20.941 5.375,-41.445 9.445,-61.875 0.318,-1.576 3.879,-7.063 5.063,-9.269 0.177,-0.331 0.264,-0.533 0.441,-0.848 l 0.709,-1.03 c -0.476,5.479 -1.799,11.743 -2.529,17.439 -2.111,16.464 -4.005,37.951 -2.921,56.883 z m 114.51,17.181 c -0.128,0.18 -0.614,0.322 0.324,1.197 3.361,3.133 5.85,4.83 10.988,4.519 -0.578,1.381 -2.58,4.289 -3.515,5.144 -7.051,-1.127 -11.071,-5.39 -11.52,-5.599 -0.856,-0.398 -0.327,-0.245 -0.635,0.057 -0.982,0.964 3.973,3.682 4.635,4.027 3.829,1.998 4.398,1.61 6.213,2.364 0.583,0.242 0.354,0.156 0.507,0.267 -0.496,0.605 -2.56,2.87 -3.315,3.19 -2.237,0.947 -8.765,-3.745 -10.349,-5.648 -0.375,-0.451 -0.305,-0.472 -0.73,-0.855 -0.841,-0.759 -2.14,-0.423 -0.863,0.849 3.424,3.411 5.724,4.863 10.236,6.735 -5.773,3.656 -9.907,-1.425 -11.924,-2.665 -2.246,-1.38 -3.792,-3.889 -3.744,-7.074 0.057,-3.639 2.348,-7.636 3.619,-10.576 0.719,-1.663 1.404,-3.308 1.891,-5.151 0.408,-1.543 0.493,-5.195 0.882,-6.13 2.616,-1.519 14.351,-0.905 16.99,0.513 -0.548,1.122 -2.278,3.793 -3.069,4.54 -0.719,0.682 -1.716,0.885 -0.668,4.854 1.695,6.416 6.578,-0.104 8.389,3.595 1.117,2.281 -1.763,6.108 -2.752,6.412 -5.58,1.707 -10.681,-4.834 -11.59,-4.565 z m 13.722,-5.466 c 0.38,-0.687 1.854,-2.769 2.406,-3.255 0.964,0.337 3.25,2.015 2.125,3.807 -0.401,0.64 -1.25,0.754 -2.206,0.575 -0.475,-0.088 -0.769,-0.188 -1.179,-0.373 z m -72.214,95.446 c -0.497,-3.28 -0.165,-4.208 1.247,-6.115 4.703,-6.354 11.204,-15.756 15.72,-22.286 l 28.424,-40.301 c 0.786,-1.166 2.745,-3.599 3.158,-4.652 1.305,0.577 2.328,1.428 3.903,2.155 -0.729,1.371 -2.038,3.056 -3.031,4.442 l -22.452,31.956 c -7.12,10.181 -15.079,21.793 -22.349,31.798 -2.074,2.855 -0.876,1.874 -4.62,3.003 z m 15.689,49.811 c -1.816,0.661 -11.514,0.278 -14.179,-1.647 5.165,-8.314 23.271,-41.088 2.689,-35.009 3.18,-2.547 29.222,-18.86 30.509,-20.372 l 1.276,-1.646 -2.055,-0.11 -27.521,7.272 c 0.585,-1.32 1.865,-2.812 2.728,-4.072 l 14.375,-20.515 c 5.74,-7.956 11.607,-16.819 17.3,-24.61 l 8.705,-12.382 c 0.872,-1.183 2.166,-2.843 2.862,-3.971 -0.484,4.985 -1.942,10.865 -2.981,15.839 -7.051,33.762 -20.233,61.052 -30.854,92.53 -0.706,2.093 -2.269,6.809 -2.854,8.693 z m 260.094,-97.019 c 2.727,2.178 8.445,10.996 9.8,15.444 -0.374,6.218 -23.688,16.365 -32.569,14.908 -42.259,-6.932 -7.586,-52.446 22.769,-30.352 z m -131.033,35.363 c 7.818,0.294 11.624,-5.116 11.189,-10.188 l 12.506,52.126 c -8.271,-0.689 -15.196,-1.013 -27.794,-4.521 -7.528,-4.712 -15.094,-16.706 -9.975,-30.637 2.326,-5.731 3.799,-11.519 13.16,-6.883 2.26,8.517 3.396,23.451 2.945,33.141 -0.045,0.978 -0.371,2.047 0.471,2.051 0.648,0.003 0.567,0.568 0.593,-2.052 0.009,-0.871 0.024,-1.743 0.031,-2.616 0.036,-4.994 -0.225,-10.088 -0.743,-15.04 -0.667,-6.368 -1.587,-9.272 -2.383,-15.381 z m -162.732,37.677 15.079,-53.854 0.732,30.724 30.38,-8.004 c -18.008,10.665 -31.434,21.494 -46.191,31.134 z m 151.045,-76.4 c 0.53,-8.975 -4.59,-13.233 -6.767,-14.355 1.452,0.264 2.932,11.334 -0.829,12.574 -9.333,2.918 -8.39,11.336 -7.097,16.838 -0.261,4.438 -0.165,6.284 -3.4,6.857 -0.785,-0.374 -3.63,-3.931 -2.56,-6.457 0.958,-2.259 2.748,-4.267 3.057,-6.465 -0.506,-15.969 -6.637,-14.47 -7.92,-15.866 -1.69,-3.819 1.194,-8.252 4.332,-8.737 -4.879,-1.329 -8.117,4.9 -8.939,8.729 -10.438,8.908 -8.665,18.906 -2.705,22.977 3.749,14.492 7.124,34.945 3.202,61.495 -12.82,-7.934 -10.97,-7.014 -19.288,-15.895 -1.397,-2.273 -3.567,-4.223 1.506,-5.003 1.899,0.38 15.944,1.998 14.926,-11.944 0.018,-1.824 2.788,-5.288 -0.062,-14.901 -1.463,1.63 0.34,5.536 -4.049,8.209 -3.359,1.06 -6.574,-2.265 -12.524,3.605 -2.466,3.807 -5.019,6.578 -7.827,7.625 0.453,-9.734 6.333,-9.446 10.655,-11.383 1.133,-0.818 3.36,-3.268 3.031,-8.484 -0.028,-0.443 1.395,-4.643 7.946,-3.973 -2.438,-2.977 -4.166,-1.862 -10.428,-1.096 -6.447,-2.061 -7.202,-0.514 -11.108,1.813 -4.662,2.776 -6.225,12.29 -8.475,10.9 -5.53,-9.909 6.083,-10.096 6.036,-12.674 2.997,-7.988 -1.506,-11.558 -1.631,-13.513 -0.958,-3.571 3.98,-4.612 5.791,-6.159 -3.392,-0.111 -8.104,-1.408 -13.064,5.733 -4.334,2.828 -7.132,4.09 -10.226,11.205 -0.971,2.646 -0.246,5.39 0.598,7.542 -11.7,31.137 0.662,49.031 4.981,57.172 -6.831,3.469 -9.678,3.759 -17.2,6.331 -5.637,1.927 -20.181,7.196 -25.267,7.411 0.439,-3.933 9.545,-26.338 11.403,-31.389 9.064,-24.632 17.523,-46.021 22.913,-72.119 0.993,-4.807 2.575,-11.553 2.963,-16.327 3.719,-0.203 5.421,-0.725 7.884,-2.491 2.284,-1.64 3.739,-3.044 5.361,-5.312 1.559,-2.179 2.789,-4.163 4.209,-6.467 1.566,-2.541 3.168,-3.825 2.537,-7.606 4.88,-0.118 5.505,-4.66 1.403,-7.961 l -0.435,-0.386 c -0.031,-0.028 -0.096,-0.092 -0.141,-0.139 0.906,-1.938 20.664,-29.424 23.61,-33.726 0.526,-0.769 1.147,-1.613 1.724,-2.44 0.346,-0.496 1.475,-1.946 1.636,-2.214 1.219,16.255 2.305,48.195 -5.199,63.102 -6.501,10.789 -9.731,-3.822 -10.179,-3.775 -1.372,0.144 -0.748,1.642 -0.121,3.053 1.115,2.512 2.425,6.07 5.238,6.877 4.036,1.157 6.935,-4.701 8.14,-7.913 6.079,-16.131 5.136,-41.606 3.456,-58.771 -0.417,-4.301 -0.926,-3.151 1.104,-6.176 1.102,-1.64 2.254,-3.205 3.317,-4.757 1.671,-2.438 4.444,-6.707 6.359,-9.001 l 0.549,-0.576 c 1,2.459 2.533,26.606 1.708,29.389 -3.219,-4.947 -1.494,-6.886 -3.645,-6.248 0.06,0.934 2.251,9.018 4.019,8.361 3.556,-1.32 -2.015,-31.52 -0.625,-33.859 0.694,-1.169 1.475,-1.833 2.074,-3.063 l 10.861,-0.511 c 0.432,1.72 1.526,4.095 2.196,6.091 3.787,11.271 6.281,23.103 8.034,34.899 0.562,3.779 1.094,7.559 1.392,11.354 0.14,1.775 -0.04,2.889 0.606,4.041 0.946,-0.54 0.87,-2.032 0.736,-3.831 -0.567,-7.622 -2.769,-18.905 -4.311,-26.127 -1.424,-6.669 -3.229,-13.891 -5.385,-20.369 -0.681,-2.046 -1.708,-4.354 -2.257,-6.278 l 10.01,-1.794 c 1.277,4.726 2.883,9.258 4.193,14.096 1.307,4.822 2.485,9.672 3.558,14.671 2.206,10.293 3.721,20.949 4.971,31.687 2.344,20.123 4.136,36.48 7.832,56.227 2.938,14.525 6.256,30.234 10.243,44.967 l 9.189,32.736 c 0.526,0.953 -0.312,0.638 0.983,0.478 0.284,-0.695 -5.512,-19.987 -6.24,-22.578 -6.547,-23.305 -12.194,-48.13 -15.967,-72.261 -4.313,-27.581 -4.881,-48.823 -11.237,-77.023 -0.911,-4.042 -2.018,-7.848 -3.058,-11.784 -0.518,-1.959 -1.063,-3.754 -1.652,-5.639 -0.58,-1.856 -1.411,-4.088 -1.794,-5.942 l 8.149,-2.108 c 0.655,1.538 2.182,3.585 3.052,5.151 0.975,1.753 1.893,3.409 2.794,5.278 8.861,18.375 14.276,43.679 17.476,64.018 0.385,2.442 0.291,5.128 0.71,7.432 1.156,6.359 2.851,13.589 4.195,20.445 5.285,26.937 10.721,52.113 20.538,77.35 1.518,3.9 3.059,7.823 4.773,11.625 l 5.075,11.261 c -6.936,-0.191 -13.774,-1.066 -20.5,-2.125 -3.319,-0.523 -16.13,-1.663 -18.302,-2.801 -0.695,-0.543 -2.172,-7.335 -2.383,-8.244 l -5.26,-22.051 c -1.224,-4.973 -2.349,-9.731 -3.49,-14.754 -0.761,-3.342 -1.545,-6.687 -2.298,-10.029 0.068,-0.647 1.933,-4.428 1.938,-5.382 0.573,-3.637 0.162,-7.484 -0.642,-10.826 -1.63,1.545 -1.077,7.449 -2.719,8.449 -0.77,-2.679 -6.761,-38.874 -7.622,-46.68 -0.118,-1.064 -0.229,-2.124 -0.343,-3.189 -0.202,-1.883 0.042,-3.145 -0.859,-3.09 -0.65,0.313 -0.506,-0.231 -0.424,1.178 l 0.571,4.968 c 0.247,2.238 0.514,4.43 0.8,6.708 1.772,14.106 4.032,27.272 6.906,40.698 -0.641,0.435 0,0 -1.125,0.697 -4.277,-2.361 -6.251,-3.875 -12.146,-1.06 -0.856,-1.698 -2.489,-15.429 -2.768,-18.27 -0.629,-6.418 -0.514,-12.768 -1.019,-19.18 -1.166,-14.8 -3.56,-20.045 -3.332,-36.528 l -0.91,-0.143 c -1.638,6.679 2.902,29.665 3.438,40.425 0.221,4.443 0.569,9.742 0.598,14.114 l 3.028,20.648 c -2.343,0.864 -4.563,6.952 -6.314,9.263 -3.443,-6.686 -1.996,-9.51 2.025,-14.438 4.982,-6.1 -1.6,-13.314 -2.47,-14.097 z"
   id="path28" />
<path
   fill-rule="evenodd"
   clip-rule="evenodd"
   fill="#010005"
   d="m 226.767,85.069 c 13.515,-4.355 18.239,-1.392 19.658,9.044 1.255,6.754 1.348,8.905 2.828,10.283 2.739,1.177 7.863,-3.318 7.095,-4.106 -7.001,1.445 -5.212,7.572 -8.585,-7.229 -0.669,-2.935 -0.452,-4.701 -1.831,-6.933 -3.275,-7.236 -11.021,-6.446 -19.165,-1.059"
   id="path30" />
<path
   fill-rule="evenodd"
   clip-rule="evenodd"
   fill="#010005"
   d="m 249.913,85.973 c -1.035,3.501 0.129,-0.125 2.412,-0.559 0.594,1.901 1.626,2.121 3.647,2.033 2.405,-0.616 2.516,-2.936 1.321,-4.311 1.779,-1.386 5.648,-4.098 6.962,-4.721 -12.166,2.879 -11.996,3.095 -14.342,7.558"
   id="path32" />
<path
   fill-rule="evenodd"
   clip-rule="evenodd"
   fill="#010005"
   d="m 228.834,92.215 c -1.229,3.438 0.136,-0.117 2.439,-0.423 0.487,1.932 1.505,2.209 3.528,2.235 2.435,-0.48 2.677,-2.79 1.561,-4.23 1.854,-1.284 4.998,-3.354 6.344,-3.902 -12.309,2.192 -11.28,1.995 -13.872,6.32"
   id="path34" />
<path
   fill-rule="evenodd"
   clip-rule="evenodd"
   fill="#010005"
   d="m 260.144,107.986 c 0.213,-0.202 0.036,-0.537 0.058,-0.897 -2.238,0.78 -3.385,2.007 -5.118,2.657 -4.103,1.537 -6.693,1.342 -7.896,2.163 0.163,0.238 0.39,0.634 0.75,0.585 5.637,-0.752 7.131,0.281 12.206,-4.508"
   id="path36" />
<path
   fill-rule="evenodd"
   clip-rule="evenodd"
   fill="#010005"
   d="m 248.283,84.089 c 4.601,-7.416 10.562,-6.38 14.685,-9.474 -7.002,0.111 -15.304,1.545 -14.685,9.474"
   id="path38" />
<path
   fill-rule="evenodd"
   clip-rule="evenodd"
   fill="#010005"
   d="m 244.242,85.026 c -7.895,-3.719 -12.333,0.394 -17.475,0.042 5.934,-3.717 13.679,-7.031 17.475,-0.042"
   id="path40" />
<path
   fill-rule="evenodd"
   clip-rule="evenodd"
   fill="#040405"
   d="m 234.412,143.133 c 9.166,9.001 25.438,12.658 36.025,-3.547 0.376,-0.776 -0.467,-1.106 -1.036,-1.444 -5.393,4.563 -15.473,18.416 -33.548,3.043 z"
   id="path42" />
<path
   fill-rule="evenodd"
   clip-rule="evenodd"
   fill="#ffe200"
   d="m 331.448,144.464 c -1.605,0.542 -7.207,9.061 -8.509,10.99 -7.473,11.072 -16.644,23.113 -24.126,34.184 -2.625,3.884 -5.326,7.663 -8.054,11.478 -24.288,33.971 -48.185,68.736 -72.469,102.724 -1.712,2.396 -7.946,11.006 -9.131,13.004 -2.067,3.485 -3.307,4.482 -4.944,7.031 -0.654,1.018 -0.649,5.15 2.007,4.112 0.728,-0.284 0.776,-0.499 1.205,-1.157 0.625,-0.959 1.308,-1.933 2.025,-2.929 1.319,-1.832 2.685,-3.695 3.988,-5.645 2.61,-3.904 5.377,-7.665 8.068,-11.452 2.732,-3.845 5.289,-7.749 8.044,-11.484 1.407,-1.908 2.613,-3.64 3.978,-5.654 1.308,-1.931 2.663,-3.727 3.969,-5.664 6.334,-9.397 13.953,-19.418 20.193,-28.748 3.737,-5.586 8.054,-11.275 11.938,-16.953 10.354,-15.13 21.958,-30.761 32.104,-45.738 1.334,-1.969 2.771,-3.916 4.074,-5.821 l 12.026,-17.132 c 0.943,-1.308 15.334,-21.646 15.989,-22.831 -0.526,-1.043 -1.13,-2.003 -2.375,-2.315"
   id="path44" />
<path
   fill-rule="evenodd"
   clip-rule="evenodd"
   fill="#ffffff"
   d="m 333.049,126.59 c 3.248,-0.536 4.82,-0.555 7.688,0.749 1.107,0.503 1.963,1.05 2.783,1.64 2.198,1.58 1.833,1.288 1.486,2.226 -0.916,-0.273 -1.054,-0.613 -1.775,-1.156 -1.832,-1.378 -4.119,-2.559 -6.584,-2.755 -4.272,-0.341 -6.214,1.53 -7.228,4.907 3.526,-0.458 4.814,-0.993 8.39,0.415 1.324,0.521 3.601,1.906 4.597,2.725 0.792,0.652 0.519,0.631 0.259,1.331 -1.092,-0.324 -1.067,-0.615 -1.921,-1.265 -4.557,-3.467 -14.169,-4.718 -14.573,3.156 3.866,-1.719 5.838,-2.406 10.551,0.856 0.896,0.62 2.07,1.305 2.549,2.245 -1.176,0.766 -0.12,0.823 -2.658,-1.089 -0.813,-0.613 -1.883,-1.297 -2.959,-1.723 -3.793,-1.503 -4.734,-0.353 -7.362,0.752 -0.755,1.973 -0.678,3.946 0.491,5.919 0.689,-0.334 0.708,-0.178 1.373,-1.004 0.862,-1.072 2.012,-2.432 3.955,-2.043 3.725,0.744 7.29,9.182 14.602,10.078 -0.772,1.788 -1.796,3.505 -2.683,5.769 -0.775,1.981 -1.624,4.348 -2.164,6.417 5.521,1.413 8.857,3.084 15.387,3.217 0.53,-11.153 8.26,-15.699 2.979,-28.085 -1.643,-3.853 -4.552,-8.126 -7.17,-10.271 -0.07,-0.046 -0.144,-0.088 -0.211,-0.139 -4.438,-3.343 -10.322,-5.922 -15.938,-6.048 -2.014,0.309 -3.368,1.361 -3.864,3.176"
   id="path46" />
<path
   fill-rule="evenodd"
   clip-rule="evenodd"
   fill="#ffffff"
   d="m 196.09,332.653 c 0.909,-0.27 6.01,6.271 11.59,4.563 0.989,-0.304 3.869,-4.131 2.752,-6.412 -1.811,-3.698 -6.694,2.821 -8.389,-3.595 -1.048,-3.969 -0.051,-4.172 0.668,-4.854 0.791,-0.747 2.521,-3.418 3.069,-4.54 -2.639,-1.418 -14.374,-2.031 -16.99,-0.513 -0.389,0.935 -0.474,4.587 -0.882,6.13 -0.487,1.844 -1.172,3.488 -1.891,5.151 -1.271,2.94 -3.562,6.938 -3.619,10.576 -0.049,3.186 1.498,5.694 3.744,7.074 2.017,1.24 6.15,6.321 11.924,2.665 -4.513,-1.872 -6.812,-3.324 -10.236,-6.735 -1.277,-1.271 0.022,-1.607 0.863,-0.849 0.426,0.384 0.355,0.404 0.73,0.855 1.584,1.903 8.112,6.596 10.349,5.648 0.756,-0.32 2.82,-2.585 3.315,-3.19 -0.154,-0.11 0.076,-0.024 -0.507,-0.267 -1.815,-0.754 -2.384,-0.366 -6.213,-2.364 -0.662,-0.346 -5.618,-3.063 -4.635,-4.027 0.309,-0.302 -0.221,-0.455 0.635,-0.057 0.449,0.209 4.468,4.472 11.52,5.599 0.935,-0.854 2.937,-3.763 3.515,-5.144 -5.139,0.312 -7.627,-1.386 -10.988,-4.519 -0.938,-0.872 -0.452,-1.015 -0.324,-1.195"
   id="path48" />
<path
   fill-rule="evenodd"
   clip-rule="evenodd"
   fill="#ffe200"
   d="m 118.314,450.768 c 13.362,-9.465 34.904,-25.528 47.492,-33.438 l -30.38,8.004 -0.656,-31.253 z"
   id="path50" />
<path
   fill-rule="evenodd"
   clip-rule="evenodd"
   fill="#ffe200"
   d="m 345.869,122.909 3.526,1.623 c 4.438,-5.552 10.391,-14.905 14.961,-21.119 8.521,-11.588 17.206,-24.968 25.895,-36.842 l 7.405,-10.557 c 1.239,-1.85 2.413,-3.523 3.745,-5.373 l 7.516,-10.677 c -0.831,-0.997 -1.694,-1.771 -2.627,-2.653 -0.765,0.8 -54.708,77.539 -60.421,85.598"
   id="path52" />
<path
   fill-rule="evenodd"
   clip-rule="evenodd"
   fill="#ffe200"
   d="m 137.598,422.633 c 3.744,-1.129 2.546,-0.147 4.621,-3.003 7.27,-10.005 15.229,-21.617 22.349,-31.798 l 22.452,-31.956 c 0.994,-1.387 2.302,-3.071 3.031,-4.442 -1.575,-0.728 -2.598,-1.578 -3.903,-2.155 -0.413,1.054 -2.373,3.486 -3.158,4.652 l -28.424,40.301 c -4.517,6.53 -11.017,15.932 -15.72,22.286 -1.412,1.907 -1.745,2.835 -1.248,6.115"
   id="path54" />
<path
   fill-rule="evenodd"
   clip-rule="evenodd"
   fill="#010005"
   d="m 261.681,238.911 c 1.734,-10.829 4.562,-27.716 7.922,-41.924 0.398,-2.155 1.659,-12.766 0.607,-15.092 -0.338,0.357 -0.579,0.397 -0.711,0.742 -0.305,0.799 -0.334,2.631 -0.697,6.72 -0.222,2.483 -0.694,5.107 -1.134,7.455 -0.902,4.814 -1.98,9.504 -2.959,14.252 -2.175,10.544 -3.127,19.719 -4.43,30.238 0.609,-0.175 1.353,-1.601 1.402,-2.391"
   id="path56" />
<path
   fill-rule="evenodd"
   clip-rule="evenodd"
   fill="#010005"
   d="m 239.552,227.498 3.422,-0.184 c 0.787,-0.26 0.507,0.089 0.744,-0.614 -0.468,-0.906 0.125,-0.375 -3.117,-0.257 -3.395,0.125 -6.644,-0.696 -9.474,-2.361 -3.036,-1.788 -4.398,-3.002 -6.37,-5.415 -1.44,-1.762 -2.033,-3.292 -2.792,-2.963 -1.571,0.68 5.192,7.267 5.596,7.628 2.674,2.391 7.058,4.159 11.991,4.166"
   id="path58" />
<path
   fill-rule="evenodd"
   clip-rule="evenodd"
   fill="#010005"
   d="m 213.217,195.701 c -0.229,-0.357 -0.629,-0.226 -1.161,0.638 0,0 3.366,4.663 3.82,8.156 0.375,2.893 -0.042,16.501 1.05,2.17 0.39,-5.707 -0.962,-6.686 -3.709,-10.964"
   id="path60" />
<path
   fill-rule="evenodd"
   clip-rule="evenodd"
   fill="#010005"
   d="m 312.249,217.978 c 0.413,0.179 0.762,0.323 1.134,-0.186 0.673,-0.919 1.59,-3.318 2.013,-4.21 0.929,-1.955 1.899,-4.537 3.15,-6.303 3.015,-4.256 5.766,-4.191 5.144,-5.043 -1.063,-1.456 -5.22,3.425 -5.809,4.203 -1.048,1.082 -5.395,10.237 -5.632,11.539"
   id="path62" />
<path
   fill-rule="evenodd"
   clip-rule="evenodd"
   fill="#ffffff"
   d="m 210.957,327.941 c 0.41,0.185 0.704,0.285 1.179,0.373 0.956,0.179 1.805,0.064 2.206,-0.575 1.125,-1.792 -1.161,-3.47 -2.125,-3.807 -0.551,0.486 -2.026,2.568 -2.406,3.255 z"
   id="path64" />
<polygon
   fill-rule="evenodd"
   clip-rule="evenodd"
   fill="#010005"
   points="181.839,229.882 180.039,229.17 180.432,228.218 182.232,228.931 "
   id="polygon66"
   transform="translate(-48.194,-96.579)" />
<path
   fill-rule="evenodd"
   clip-rule="evenodd"
   fill="#010005"
   d="m 174.419,165.024 2.051,0.175 c -0.022,0.393 -0.022,0.776 -0.113,1.18 l -2.06,-0.172 z"
   id="path68" />
<path
   fill-rule="evenodd"
   clip-rule="evenodd"
   fill="#010005"
   d="m 211.745,254.928 1.714,0.004 -0.219,1.981 c -0.499,-0.017 -1.101,-0.085 -1.495,-0.049 z"
   id="path70" />
<path
   fill-rule="evenodd"
   clip-rule="evenodd"
   fill="#010005"
   d="m 246.385,253.016 c 0.513,-0.28 0.536,-0.758 -1.85,-0.727 -4.55,0.059 -23.438,-2.491 -30.296,-2.794 -0.739,-0.033 -0.579,0.541 0.759,1.017 3.861,1.372 28.823,3.906 31.387,2.504"
   id="path72" />
<path
   fill-rule="evenodd"
   clip-rule="evenodd"
   fill="#010005"
   d="m 228.647,248.609 c -2.594,-0.23 -5.25,-0.737 -7.781,-1.404 -2.49,-0.656 -1.934,-0.488 -2.031,0.044 -0.101,0.549 -0.446,0.485 1.729,0.973 9.608,2.742 16.607,3.715 25.297,-3.38 0.838,-0.602 1.158,-0.771 1.773,-1.569 -1.046,-1.024 -0.241,-0.662 -3.667,1.598 -4.508,2.976 -9.586,4.247 -15.32,3.738"
   id="path74" />
<path
   fill-rule="evenodd"
   clip-rule="evenodd"
   fill="#ffffff"
   d="m 88.338,436.803 c -2.593,10.857 0.625,-2.4 -4.415,18.101 -7.289,-8.146 -1.648,-19.172 4.415,-18.101"
   id="path76" />
<path
   fill-rule="evenodd"
   clip-rule="evenodd"
   fill="#ffffff"
   d="m 92.29,437.702 c 5.334,1.569 7.01,8.002 6.151,13.331 -0.859,5.329 -6.303,5.899 -11.629,5.729 0.142,-0.339 0.402,-1.516 0.477,-2.071 3.723,-0.493 6.382,0.037 8.014,-2.535 2.134,-3.362 1.437,-9.944 -3.412,-12.596 0.122,-0.803 0.519,-1.484 0.399,-1.858"
   id="path78" />
<path
   fill-rule="evenodd"
   clip-rule="evenodd"
   fill="#ffffff"
   d="m 90.124,444.125 c 2.986,1.329 2.21,4.895 -1.345,5.48 1.242,-5.442 1.342,-5.449 1.345,-5.48"
   id="path80" />
<path
   fill-rule="evenodd"
   clip-rule="evenodd"
   fill="#ffffff"
   d="m 125.488,414.217 c -0.396,1.029 -2.494,-2.479 -3.072,-3.289 -0.483,-0.677 5.275,-3.072 5.216,-2.901 l -1.052,3.037 c -0.364,1.051 -0.324,1.156 -1.092,3.153"
   id="path82" />
<path
   fill-rule="evenodd"
   clip-rule="evenodd"
   fill="#ffffff"
   d="m 136.751,441.025 c -0.831,0.726 3.473,0.94 4.432,1.204 0.802,0.221 0.441,-5.182 0.301,-5.068 l -2.148,1.754 c -0.862,0.703 -0.974,0.701 -2.585,2.11"
   id="path84" />
<path
   fill-rule="evenodd"
   clip-rule="evenodd"
   fill="#ffffff"
   d="m 122.892,423.729 c -0.34,0.91 -3.69,-2.255 -4.707,-3.76 -0.675,-1 6.652,-3.576 6.386,-2.573 l -0.824,3.107 c -0.285,1.075 -0.107,1.221 -0.855,3.226"
   id="path86" />
<path
   fill-rule="evenodd"
   clip-rule="evenodd"
   fill="#ffffff"
   d="m 129.569,446.447 c -0.738,0.633 3.34,2.124 5.103,2.561 1.171,0.29 1.117,-6.91 0.266,-6.315 l -2.633,1.843 c -0.913,0.637 -1.111,0.52 -2.736,1.911"
   id="path88" />
<path
   fill-rule="evenodd"
   clip-rule="evenodd"
   fill="#ffffff"
   d="m 119.842,434.521 c -0.339,0.91 -3.423,-2.446 -4.439,-3.95 -0.675,-1 6.667,-4.116 6.402,-3.114 -0.61,2.298 -1.143,4.864 -1.963,7.064"
   id="path90" />
<path
   fill-rule="evenodd"
   clip-rule="evenodd"
   fill="#ffffff"
   d="m 120.019,453.4 c -0.737,0.631 5.1,0.384 6.816,-0.203 1.501,-0.514 1.313,-5.325 0.464,-4.731 -1.948,1.361 -5.497,3.407 -7.28,4.934"
   id="path92" />
<path
   fill-rule="evenodd"
   clip-rule="evenodd"
   fill="#ffffff"
   d="m 116.223,448.951 c -0.339,0.909 -1.59,-6.883 -2.04,-8.576 -0.309,-1.165 4.882,-2.418 4.616,-1.416 -0.608,2.299 -1.756,7.792 -2.576,9.992"
   id="path94" />
</svg>