<svg viewBox="-20.70 -23.37 558.95 630.90"><title>Herb Lubień Kujawski</title><path d="M0 324.262v4.176c0 140.851 116.246 255.73 258.774 255.73 142.527 0 258.773-114.879 258.773-255.73V0H0z" style="stroke:none;fill-rule:evenodd;fill:#222"/><path d="M10.156 323.367v4.059c0 78.25 36.477 148.238 93.289 193.867v-63.289c0-40.371-5.46-84.219-1.984-121.613-5.894-44.774-7.344-89.406-3.97-135.508q36.35-5.952 72.697-1.984c5.304 4.445 1.992 46.644 0 74.453v51.933c17.144-14.73 33.547-25.488 49.281-32.679-1.461-31.285 2.066-54.395 2.066-83.285-2.976-3.473-3.472-7.938 0-10.418 25.114-3.516 49.446-3.102 73.239 0 7.375 2.453 1.695 45.89.054 86.156 21.117 5.961 40.953 18.793 59.778 37.027v-1.078c-3.969-35.406 0-67.84 0-101.758q-6.95-19.108 0-22.332c23.566-3.308 45.816-2.644 66.738 1.985 8.933 4.3 1.984 46.324 0 68l3.992 244.816c50.332-45.547 82.039-111.332 82.039-184.285V8.133H10.141v315.238zm168.59 239.426c25.129 8.586 52.051 13.254 80.028 13.254 31.668 0 61.976-5.98 89.875-16.859.496-53.91 4.015-107.821.957-161.735-8.852-53.441-59.067-73.629-88.106-72.468-29.035 1.156-74.621 18.199-86.121 79.418-1.383 52.796.98 105.593 3.367 158.394zm206.106-349.004h11.414a2.487 2.487 0 0 1 2.48 2.481v52.117a2.486 2.486 0 0 1-2.48 2.48h-11.414a2.486 2.486 0 0 1-2.481-2.48V216.27a2.487 2.487 0 0 1 2.481-2.481m-130.051 0h11.414a2.487 2.487 0 0 1 2.48 2.481v52.117a2.486 2.486 0 0 1-2.48 2.48h-11.414a2.487 2.487 0 0 1-2.481-2.48V216.27a2.487 2.487 0 0 1 2.481-2.481m-127.078 0h11.414a2.487 2.487 0 0 1 2.48 2.481v52.117a2.486 2.486 0 0 1-2.48 2.48h-11.414a2.486 2.486 0 0 1-2.481-2.48V216.27a2.487 2.487 0 0 1 2.481-2.481M278 424.512c4.09.121 7.735-1.961 11.02-5.875.019-4.52 1.152-8.734 1.172-13.254.035-8.336-1.028-16.977-.989-25.312q-.752-7.434 2.938-10.836l15.582-11.434c3.969-4.949 8.258-7.648 12.699-9.316-1.605 6.558-3.781 12.742-6.793 18.363-.777 1.781.156 3.465 2.203 2.019 3.117-1.468 5.852-3.523 7.895-6.609 3.543-3.211 4.867-.363 3.672 5.508l-5.875 10.101c-.922 1.602-.434 3.508 1.468 2.387l7.364-3.433c1.761-1.235 3.925-.352 1.347 3.046l-8.898 12.692c3.023.109 6.855-1.59 10.285-2.387 3.875-1.008 4.426.902.531 4.84-2.176 2.445-4.512 4.258-6.961 5.629 3.387 1.715 6.891 1.863 10.918 3.074 3.645 2.055 2.949 4.309-.265 5.555-4.457.535-8.95.937-12.856 3.672 2.043 3.25 7.688 4.312 11.387 7.527q4.694 5.122-1.102 4.59c-3.488-.426-6.371-2.27-10.468-1.285-1.821-.051-2.629.703-.918 2.57 7.39 6.051 5.894 7.473.363 6.797-6.067-1.164-5.84.808-2.754 4.223 5.672 3.277 2.09 3.597-5.691 2.57q-10.59-5.245-6.243 2.019c1.297 3.118-.445 4.407-5.875 3.489q-3.358-2.203-3.488 1.652c.559 2.789-1.027 3.156-4.773 1.102-3.078-1.782-4.864-.786-6.059 1.468l-8.629-17.445c3.188.391 6.731-.496 10.715-2.969 3.98-2.469 5.07-5.211 13.344-12.457-2.278-7.922-2.903-15.847-3.285-23.773-.395-6.821-3.918-4.258-3.508-.282 1.676 10.54 1.984 18.45.07 23.848-1.394 3.934-4.258 6.336-7.234 8.008l-11.754 5.793-.551-5.875" style="stroke:none;fill-rule:evenodd;fill:#fffdfd"/><path d="M303.711 530.488c4.414-5.839 3.141-10.011-2.016-13.035q-6.75-6.169-7.16-14.875c16.27-9.25 23.805-21.09 17.262-37.101-4.098-7.524-8.918-10.535-14.141-11.02l-7.527-4.59c-6.445-8.57-9.383-17.14-9.918-25.711-1.949-6.992-1.894-13.062-.184-18.367 1.098 1.117 2.2.758 3.305.184-1.605-3.086-1.101-5.754-1.652-8.633l3.855 1.102c-.363-4.039-1.894-6.391-1.101-12.121 3.027-9.969-.489-9.793-.735-14.692 1.895-3.734 5.59-7.047 4.953-10.25l-4.402.699c.434-2.562 3.508-3.121 2.57-6.425-11.57 7.125-16.804-1.059-22.039 1.101-2.863-1.324-4.882-1.387-6.058-.18-1.406 1.528-.281 3.903-4.223 4.59-4.293.352-7.23 3.418-9.551 7.711 2.864-1.004 4.989-2.172 6.801-2.187 1.805-.016 3.301 1.113 5.32.898 2.262 2.207 1.711 3.434-1.652 3.672-2.172.363-4.449-1.691-6.625-1.324-2.172.363-4.238 3.16-6.41 3.531-1.524 1.32-1.461 2.539.18 2.387 2.507-.625 3.961-2.309 7.527 1.285 2.754-1.469 5.402-6.527 8.262-4.406 1.148 6.226-5.727 5.273-6.059 9.183 4.027-1.781 7.953.653 13.039-.918-3.199 13.129-8.41 12.215-13.406 16.895q2.818 1.752 6.059.551c-2.985 5.984-8.79 11.304-14.876 11.203-5.609-6.192-9.472-14.477-11.703-22.36 2.711-5.234 4.043-8.039 3.27-11.168-1.59-6.461-5.383-7.113-8.387-10.078-2.086 3.426 7.442 7.91 1.024 10.918-4.336-3.785-7.637-5.492-10.211-5.754-2-.199-1.879 1.524-4.848 1.711-1.273.821-.969 2.278.918 1.836 3.883-.269 6.094 2.633 7.16 7.715-4.652 1.652-8.14-6.094-13.957 4.957-1.738 2.891-.308 4.727 2.387 2.02 5.242-3.426 10.984 4.117 12 5.882 1.578 2.739-.914 5.836-6.676 5.317-1.961-.363-1.598 1.062-.18 2.387 4.387 4.582 9.813 5.445 15.61 4.957q2.87 6.599 9.551 11.937-.963 4.01-4.04 4.223 1.725 2.667 5.141 2.386c-3.215 3.606-6.965 6.368-10.18 9.973-3.882 4.352-7.238 9.551-11.121 13.902-5.57-.531-8.449-1.925-11.773-.984-4.555 1.289-6.785 4.586-11.551 8.332 1.266.719 2.395.309 3.379-1.219 1.074.594 2.152.203 3.23-1.164 3.989-1.777 5.321 2.547 2.938 4.957-2.707 2.969-4.273 6.289-3.324 10.387-1.563 1.219-2.074 3.145.578 5.984l2.031-3.812q2.355-.327 2.18-3.191c2.64-2.708 4.398-3.657 4.222-.731.137 5.188 1.684 9.145 6.332 10.395l3.868 2.355c-1.16-4.43.316-4.43.632-9.812q1.73-3.47 5.997-4.407c5.382.11 2.421 3.914 3.156 6.348 3.883-2.961 5.691-6.137 5-9.313-.688-3.171-2.824-7.722-8.938-9.839a52 52 0 0 0 13.516-8.5c2.516 2.461.383 4.504.574 6.754l2.543.773c-1.449 5.023-.387 8.883 2.387 11.937l2.937-1.285c1.598 1.055 1.828 3.063.368 3.489-18.301 6.043-20.543 20.925-13.774 40.773-4.25 12.648-10.406 18.121-15.609 27.184-6.426.918-12.434-7.985-19.285 2.754-5.422 4.773-7.836 11.343.367 14.324.765 3.355 2.273 6.156 6.426 6.976.949 1.629 2.339 2.16 3.855 2.387.152-1.727-.394-2.891-1.652-3.488q.833-2.625-1.282-4.406 3.37-.275 7.161-4.774 3.644.99 7.711-.551c4.91 1.578 6.734 4.762 4.039 10.285-3.551.106-3.305 2.325-4.957 3.489 2.324.125 4.566-.274 6.609-1.836 6.793-3.824 10.855-7.453 10.348-10.762-.395-2.566-2.5-6.629-10.348-7.051 4.285-11.152 13.027-18.347 22.406-24.976-1.89-11.121-1.687-20.512 2.492-26.028 3.793-5.004 9.188-6.683 17.707-9.05 5.348 4.656 1.399 15.968 1.891 24.109-16.055 8.805-26.43 21.301-25.586 41.09 1.406-.047 2.727-1.418 3.856-5.692.632-3.207 4.226-1.238 3.488 1.469-1.668 3.422-.485 8.324-1.836 12.488 3.906-4.136 6.445-10.789 6.976-21.121-.589-6.605.688-11.57 3.719-15.582 2.207-2.925 4.094-6.914 9.949-6.664 3.454 12.645 12.192 9.446 18.286 14.168-.731 10.606-5.262 12.977-7.895 19.469-5.238 1.059-7.566-4.145-15.23-1.34-3.407 1.246-6.188 3.766-8.09 8.133-1.078 3.555-.219 6.309 3.488 7.894l.73-1.652c-.523 2.281.29 4.067 2.02 5.508l1.102-2.203q1.043 1.759 2.937 1.836c-.547 2.078-.125 4.16.731 6.242 4.035-4.348 8.425-8.348 13.589-11.57 18.387-7.446 7.836 5.386 11.754 8.078l4.223-2.203c6.73-4.188 7.352-7.731 6.535-10.368-2.73-8.824-7.738-3.902-12.414-6.343 3.379-5.778 6.387-11.742 8.074-18.368zm-33.422-166.957c-2.262-.242-4.527-1.816-6.793-.73q-1.416 3.088 1.285 4.406c2.45-.191 4.235-1.508 5.508-3.672" style="stroke:none;fill-rule:evenodd;fill:#ffc905"/><path d="m51.774 342.125 37.019 2.012c2.625.141 4.78 2.152 4.78 4.781v8.559a4.796 4.796 0 0 1-4.78 4.781h-37.02a4.796 4.796 0 0 1-4.78-4.781v-10.574c0-2.629 2.155-4.926 4.78-4.782zM9.085 323.672v4.078q.001 3.481.101 6.938l33.262 1.133c2.766.093 5.035-2.266 5.035-5.036v-.668c0-2.769-2.265-4.91-5.035-5.035l-33.363-1.515zm.313 16.504c.242 4.859.628 9.688 1.148 14.473l25.86 1.824c2.07.144 3.718-1.699 3.777-3.777l.195-6.852c.059-2.074-1.703-3.633-3.773-3.777l-27.208-1.895zm2.843 27.094a247 247 0 0 0 3.531 17.832c.32.054.649.086.989.086h38.277c2.77 0 5.035-1.981 5.035-4.407v-11.582c0-2.421-2.265-4.406-5.035-4.406H16.762c-1.98 0-3.7 1.012-4.524 2.477zm12.602 47.59a248 248 0 0 0 10.972 24.992l28.293 1.746c3.868.238 7.05-3.172 7.05-7.051v-10.324c0-3.875-3.178-6.813-7.05-7.051l-38.082-2.351a6.6 6.6 0 0 0-1.183.039m14 30.785a250 250 0 0 0 14 22.898H87.78c5.125 0 9.317-4.191 9.317-9.316v-4.281c0-5.122-4.192-8.016-9.317-8.137l-48.937-1.16zm17.668 28.093a253 253 0 0 0 16.469 20.387c3.949-.633 6.992-4.078 6.992-8.199v-4.277c0-4.571-3.738-8.309-8.31-8.309H59.075c-.89 0-1.754.141-2.562.402zm23.91 28.317a254 254 0 0 0 13.164 12.519c2.84-.304 5.023-1.867 5.023-3.734v-7.019c0-2.083-2.718-3.79-6.042-3.79H85.77c-2.313 0-4.332.825-5.348 2.028zm350.52 6.969a254 254 0 0 0 16.234-16.828l-.141-6.856 2.731-31.531c.172-2.012-1.653-3.676-3.676-3.676h-9.984c-2.024 0-3.625 1.652-3.676 3.676l-1.481 55.222zm27.597-30.719a251 251 0 0 0 18.578-28.184H458.55c-2.711 0-4.668 2.227-4.926 4.926l-1.75 18.328c-.258 2.696 2.215 4.926 4.926 4.926h1.734zm20.856-32.274a248 248 0 0 0 12.312-26.265h-9.273a4.49 4.49 0 0 0-4.477 4.476v18.5c0 1.293.555 2.461 1.438 3.282zm14.722-32.531a247 247 0 0 0 7.246-23.125h-30.394c-3.18 0-5.781 2.602-5.781 5.781v11.555c0 3.18 2.601 5.781 5.781 5.781h23.144zm8.438-27.945a247 247 0 0 0 4.773-26.016h-19.324c-3.937 0-7.16 3.219-7.16 7.16v11.692c0 3.937 3.219 7.16 7.16 7.16h14.547zm5.652-33.969q.582-6.098.871-12.285h-1.804a4.03 4.03 0 0 0-4.02 4.02v4.238a4.03 4.03 0 0 0 4.02 4.019h.933zm1.078-18.129c.043-1.894.071-3.797.071-5.699v-6.102l-35.52 1.75c-2.367.114-5.109 1.938-5.109 4.313v3.176c0 2.371 2.738 4.429 5.109 4.312l35.445-1.746zM44.723 388.965H85.77c5.125 0 9.316 4.191 9.316 9.316v6.547c0 5.125-4.191 9.317-9.316 9.317H44.723c-5.125 0-9.317-4.192-9.317-9.317v-6.547c0-5.125 4.192-9.316 9.317-9.316m14.855-64.215 25.992 2.352c3.309.297 6.043 2.719 6.043 6.043 0 3.32-2.523 3.687-5.847 3.687H59.578c-3.32 0-6.043-2.718-6.043-6.043 0-3.324 2.73-6.343 6.043-6.043zm11.949 41.301 16.758 1.762c3.578.375 6.547 1.179 6.547 4.781v6.797c0 3.601-2.945 6.547-6.547 6.547h-18.13c-3.596 0-7.256-3.016-6.546-6.547l1.372-6.797c.71-3.527 2.964-6.922 6.546-6.547zM83 417.422h7.805c3.32 0 6.043 2.719 6.043 6.043v11.836c0 3.32-2.793 6.734-6.043 6.043l-6.434-1.371c-3.25-.692-5.61-2.746-6.043-6.043l-1.371-10.461c-.43-3.293 2.719-6.043 6.043-6.043zm6.043 56.16h5.035c3.32 0 6.453 2.742 6.043 6.043l-1.371 10.938c-.41 3.297-1.351 6.644-4.668 6.433l-3.074-.195c-3.313-.211-5.465-2.77-6.043-6.043l-1.961-11.137c-.574-3.273 2.719-6.043 6.043-6.043zM434.03 324.125l26.571-.953c2.738-.098 4.98 2.238 4.98 4.981v2.562c0 2.738-2.242 4.883-4.98 4.981l-26.571.953c-2.738.097-4.98-2.239-4.98-4.981v-2.562c0-2.739 2.242-4.883 4.98-4.981m.477 16.621h13.652c2.473 0 5.278 2.149 4.492 4.492l-2.066 6.184c-.781 2.344-2.023 4.492-4.492 4.492h-11.582a4.505 4.505 0 0 1-4.492-4.492v-6.184a4.503 4.503 0 0 1 4.492-4.492zm59.652 11.325h-33.855c-3.141 0-5.715-2.571-5.715-5.715v-1.813c0-3.144 2.57-5.715 5.715-5.715h33.855c3.141 0 5.715 2.571 5.715 5.715v1.813c0 3.14-2.57 5.715-5.715 5.715m-56.625 10.359 32.492.953c3.868.109 6.719 2.211 6.719 6.082v10.25c0 3.867-3.176 5.813-7.039 6.082l-31.695 2.227c-3.86.269-7.516-4.438-7.516-8.313v-10.25c0-3.867 3.168-7.152 7.039-7.035zm-1.433 28.906h20.101c2.817 0 5.121 2.305 5.121 5.121v11.43c0 2.816-2.308 4.945-5.121 5.125l-20.261 1.269c-2.809.176-4.965-3.578-4.965-6.394v-11.43c0-2.816 2.304-5.121 5.125-5.121m1.113 28.34 31.605-1.113c3.032-.106 5.516 2.48 5.516 5.515v16.668c0 3.032-2.48 5.516-5.516 5.516h-31.605c-3.031 0-5.516-2.481-5.516-5.516v-16.668c0-3.031 2.481-4.293 5.516-4.398zM17.637 391.485c1.226 7.238 3.422 13.996 6.054 20.535l4.473-.524c2.633-.613 1.05-15.972-3.156-18.429l-7.371-1.579" style="stroke:none;fill-rule:evenodd;fill:#ec2a32"/><path d="M81.563 191.949c14.35-25.894 32.636-50.214 53.605-73.464 20.684 22.75 38.883 46.742 51.625 73.464zm126.578 0c14.351-25.894 32.636-50.214 53.609-73.464 20.68 22.75 38.883 46.742 51.621 73.464zm129.554 0c14.352-25.894 32.633-50.214 53.606-73.464 20.68 22.75 38.883 46.742 51.621 73.464h-105.23" style="stroke:none;fill-rule:evenodd;fill:#11b1ee"/></svg>