<!-- Created with Inkscape (http://www.inkscape.org/) -->
<svg role="img" viewBox="0 0 472.5 590"
   xmlns="http://www.w3.org/2000/svg"
   id="svg2605"
   version="1.0"><title>Herb Daleszyce</title>
  <metadata
     id="metadata2610">
    <rdf:RDF>
      <cc:Work
         rdf:about="">
        <dc:format>image/svg+xml</dc:format>
        <dc:type
           rdf:resource="http://purl.org/dc/dcmitype/StillImage" />
      </cc:Work>
    </rdf:RDF>
  </metadata>
  <defs
     id="defs2608" />
  <sodipodi:namedview
     borderopacity="1.0"
     bordercolor="#666666"
     pagecolor="#ffffff"
     id="base" />
  <path
     id="path1364"
     style="fill:#3b51ff;fill-opacity:1;fill-rule:evenodd;stroke:#000000;stroke-width:2.24448109px;stroke-linecap:butt;stroke-linejoin:miter;stroke-opacity:1"
     d="M 237.58462,585.15983 C 86.51322,582.68423 11.11542,468.26541 8.48067,403.10161 L 8.48067,7.3229363 L 237.80849,7.3229363 L 467.13625,7.3229363 L 467.13625,403.10161 C 464.5015,468.26541 389.1037,582.68423 237.58462,585.15983 z " />
  <path
     style="font-size:32.97661209px;font-style:normal;font-weight:normal;line-height:125%;fill:#ffffff;fill-opacity:1;stroke:none;stroke-width:1px;stroke-linecap:butt;stroke-linejoin:miter;stroke-opacity:1;font-family:Bitstream Vera Sans"
     d="M 185.04963,225.35495 L 185.04963,222.6111 L 188.93271,222.6111 C 193.29799,222.61111 196.39432,221.25154 198.22166,218.5324 C 199.33834,216.90094 199.89669,213.24248 199.89671,207.55701 L 199.89671,142.59452 C 199.89669,136.31589 199.18607,132.38552 197.76482,130.80338 C 195.7852,128.62817 192.84116,127.54052 188.93271,127.54042 L 185.04963,127.54042 L 185.04963,124.79658 L 227.07831,124.79658 C 242.50907,124.79667 254.23444,126.50231 262.25448,129.91349 C 270.32512,133.32484 276.79692,139.01029 281.6699,146.96985 C 283.29482,149.59679 284.65161,152.35835 285.74027,155.25452 M 214.51539,218.08746 C 220.96177,219.47175 226.36764,220.16389 230.73297,220.16389 C 242.50907,220.16389 252.28022,216.13464 260.04645,208.07611 C 267.81254,200.01762 271.69562,189.09168 271.69571,175.29823 C 271.69566,167.641 270.51592,160.87744 268.1565,155.00754 M 268.1565,155.00754 C 266.23531,150.22791 263.53196,146.0408 260.04645,142.4462 C 252.28022,134.43722 242.30603,130.43269 230.12387,130.43259 C 225.55548,130.43269 220.35267,131.14955 214.51539,132.58317 L 214.51539,218.08746 M 285.74027,155.25452 C 287.95027,161.13381 289.05531,167.56786 289.05538,174.55665 C 289.05527,188.54785 284.68998,200.2401 275.95949,209.63343 C 266.16287,220.11445 251.23965,225.35495 231.1898,225.35495 L 185.04963,225.35495"
     id="text2798" />
  <path
     style="color:#000000;fill:#ffdd00;fill-opacity:1;fill-rule:evenodd;stroke:#000000;stroke-width:0.50051653;stroke-linecap:butt;stroke-linejoin:miter;marker:none;marker-start:none;marker-mid:none;marker-end:none;stroke-miterlimit:4;stroke-dasharray:none;stroke-dashoffset:0;stroke-opacity:1;visibility:visible;display:inline;overflow:visible"
     d="M 227.94807,49.551249 L 227.94807,91.926253 L 200.07307,91.926253 L 200.07307,109.7075 L 227.94807,109.7075 L 227.94807,156.52 L 184.29182,156.52 L 184.29182,174.27 L 227.94807,174.27 L 227.94807,244.895 L 248.41682,244.895 L 248.41682,174.27 L 291.19807,174.27 L 291.19807,156.52 L 248.41682,156.52 L 248.41682,109.7075 L 276.32307,109.7075 L 276.32307,91.926253 L 248.41682,91.926253 L 248.41682,49.551249 L 227.94807,49.551249 z "
     id="rect3310" />
  <path
     style="fill:#ffffff;fill-opacity:1;fill-rule:evenodd;stroke:#000000;stroke-width:1.5;stroke-linecap:butt;stroke-linejoin:miter;stroke-miterlimit:4;stroke-dasharray:none;stroke-opacity:1"
     d="M 123.25755,285.66132 C 126.96057,286.66055 112.85384,296.30015 122.72855,302.94207 L 122.19955,315.10913 C 102.33257,313.16945 95.33798,282.31097 123.25755,285.66132 z "
     id="path2703" />
  <path
     style="opacity:1;color:#000000;fill:#ffffff;fill-opacity:1;fill-rule:evenodd;stroke:#000000;stroke-width:2;stroke-linecap:butt;stroke-linejoin:miter;marker:none;marker-start:none;marker-mid:none;marker-end:none;stroke-miterlimit:4;stroke-dasharray:none;stroke-dashoffset:0;stroke-opacity:1;visibility:visible;display:inline;overflow:visible"
     id="path2654"
     d="M 197.00558 358.60333 A 9.4762173 14.962448 0 1 1  178.05314,358.60333 A 9.4762173 14.962448 0 1 1  197.00558 358.60333 z"
     transform="translate(-56.42694,-47.96287)" />
  <path
     style="opacity:1;color:#000000;fill:#ffffff;fill-opacity:1;fill-rule:evenodd;stroke:#000000;stroke-width:2;stroke-linecap:butt;stroke-linejoin:miter;marker:none;marker-start:none;marker-mid:none;marker-end:none;stroke-miterlimit:4;stroke-dasharray:none;stroke-dashoffset:0;stroke-opacity:1;visibility:visible;display:inline;overflow:visible"
     id="path2652"
     d="M 191.51934 359.10208 A 3.9899862 6.9824758 0 1 1  183.53937,359.10208 A 3.9899862 6.9824758 0 1 1  191.51934 359.10208 z"
     transform="translate(-56.42694,-47.96287)" />
  <path
     id="path2687"
     d="M 130.98815,436.02012 L 131.71544,335.88688"
     style="fill:none;fill-opacity:0.75;fill-rule:evenodd;stroke:#ffffff;stroke-width:3.94875002;stroke-linecap:butt;stroke-linejoin:miter;stroke-miterlimit:4;stroke-dasharray:none;stroke-dashoffset:0;stroke-opacity:1" />
  <path
     style="fill:none;fill-opacity:0.75;fill-rule:evenodd;stroke:#000000;stroke-width:3.94858718;stroke-linecap:butt;stroke-linejoin:miter;stroke-miterlimit:4;stroke-dasharray:0.98714681, 0.98714681;stroke-dashoffset:0;stroke-opacity:1"
     d="M 130.98815,436.02012 L 131.71544,335.88688"
     id="path2683" />
  <path
     id="path2675"
     d="M 81.1137,436.25068 L 130.48726,334.68222"
     style="fill:none;fill-opacity:1;fill-rule:evenodd;stroke:#ffffff;stroke-width:3.75;stroke-linecap:butt;stroke-linejoin:miter;stroke-miterlimit:4;stroke-dasharray:none;stroke-dashoffset:0;stroke-opacity:1" />
  <path
     style="fill:none;fill-opacity:0.75;fill-rule:evenodd;stroke:#000000;stroke-width:3.75;stroke-linecap:butt;stroke-linejoin:miter;stroke-miterlimit:4;stroke-dasharray:0.9375, 0.9375;stroke-dashoffset:0;stroke-opacity:1"
     d="M 81.1137,436.25068 L 130.48726,334.68222"
     id="path2673" />
  <path
     id="path2685"
     d="M 130.98815,436.02012 L 131.71544,335.88688"
     style="fill:none;fill-opacity:0.75;fill-rule:evenodd;stroke:#ffffff;stroke-width:0;stroke-linecap:butt;stroke-linejoin:miter;stroke-miterlimit:4;stroke-dasharray:none;stroke-dashoffset:0;stroke-opacity:1" />
  <path
     style="fill:none;fill-opacity:0.75;fill-rule:evenodd;stroke:#ffffff;stroke-width:3.75;stroke-linecap:butt;stroke-linejoin:miter;stroke-miterlimit:4;stroke-dasharray:none;stroke-dashoffset:0;stroke-opacity:1"
     d="M 183.65186,435.83773 L 130.69126,336.09267"
     id="path2691" />
  <path
     id="path2689"
     d="M 183.65186,435.83773 L 130.69126,336.09267"
     style="fill:none;fill-opacity:0.75;fill-rule:evenodd;stroke:#000000;stroke-width:3.75;stroke-linecap:butt;stroke-linejoin:miter;stroke-miterlimit:4;stroke-dasharray:0.9375, 0.9375;stroke-dashoffset:0;stroke-opacity:1" />
  <path
     id="path2658"
     style="fill:#ffffff;fill-opacity:1;fill-rule:evenodd;stroke:#000000;stroke-width:1px;stroke-linecap:butt;stroke-linejoin:miter;stroke-opacity:1"
     d="M 70.75388,443.80623 C 70.75388,430.33979 89.20757,430.56329 89.20757,443.80623 L 122.6237,443.80623 C 122.6237,430.587 140.07989,430.32077 140.07989,443.80623 L 171.99978,443.80623 C 171.99978,430.03956 190.95222,430.336 190.95222,443.80623 C 186.79598,515.37661 75.90761,513.13224 70.75388,443.80623 z M 75.47101,443.48038 C 77.1168,437.35277 83.61177,437.17643 85.16939,443.48038 C 82.15701,443.48038 78.7038,443.48038 75.47101,443.48038 z M 126.52902,443.48038 C 128.17481,437.35277 134.66978,437.17643 136.2274,443.48038 C 133.21502,443.48038 129.76181,443.48038 126.52902,443.48038 z M 176.52902,443.48038 C 178.17481,437.35277 184.66978,437.17643 186.2274,443.48038 C 183.21502,443.48038 179.76181,443.48038 176.52902,443.48038 z " />
  <path
     style="opacity:1;color:#000000;fill:#ffffff;fill-opacity:1;fill-rule:evenodd;stroke:#000000;stroke-width:2;stroke-linecap:butt;stroke-linejoin:miter;marker:none;marker-start:none;marker-mid:none;marker-end:none;stroke-miterlimit:4;stroke-dasharray:none;stroke-dashoffset:0;stroke-opacity:1;visibility:visible;display:inline;overflow:visible"
     id="path2656"
     d="M 194.01308 380.54825 A 7.4812241 7.4812241 0 1 1  179.05064,380.54825 A 7.4812241 7.4812241 0 1 1  194.01308 380.54825 z"
     transform="translate(-56.42694,-47.96287)" />
  <path
     id="path2751"
     d="M 355.37607,285.66132 C 351.67305,286.66055 365.77978,296.30015 355.90507,302.94207 L 356.43407,315.10913 C 376.30105,313.16945 383.29564,282.31097 355.37607,285.66132 z "
     style="fill:#ffffff;fill-opacity:1;fill-rule:evenodd;stroke:#000000;stroke-width:1.5;stroke-linecap:butt;stroke-linejoin:miter;stroke-miterlimit:4;stroke-dasharray:none;stroke-opacity:1" />
  <path
     d="M 197.00558 358.60333 A 9.4762173 14.962448 0 1 1  178.05314,358.60333 A 9.4762173 14.962448 0 1 1  197.00558 358.60333 z"
     id="path2705"
     style="opacity:1;color:#000000;fill:#ffffff;fill-opacity:1;fill-rule:evenodd;stroke:#000000;stroke-width:2;stroke-linecap:butt;stroke-linejoin:miter;marker:none;marker-start:none;marker-mid:none;marker-end:none;stroke-miterlimit:4;stroke-dasharray:none;stroke-dashoffset:0;stroke-opacity:1;visibility:visible;display:inline;overflow:visible"
     transform="translate(161.5731,-47.96287)" />
  <path
     d="M 191.51934 359.10208 A 3.9899862 6.9824758 0 1 1  183.53937,359.10208 A 3.9899862 6.9824758 0 1 1  191.51934 359.10208 z"
     id="path2707"
     style="opacity:1;color:#000000;fill:#ffffff;fill-opacity:1;fill-rule:evenodd;stroke:#000000;stroke-width:2;stroke-linecap:butt;stroke-linejoin:miter;marker:none;marker-start:none;marker-mid:none;marker-end:none;stroke-miterlimit:4;stroke-dasharray:none;stroke-dashoffset:0;stroke-opacity:1;visibility:visible;display:inline;overflow:visible"
     transform="translate(161.3968,-47.96287)" />
  <path
     id="path2694"
     style="fill:#ffffff;fill-opacity:1;fill-rule:evenodd;stroke:#000000;stroke-width:1.5;stroke-linecap:butt;stroke-linejoin:miter;stroke-miterlimit:4;stroke-dasharray:none;stroke-opacity:1"
     d="M 239.79082,315.12918 C 220.21212,311.87204 187.97167,313.02325 181.476,314.8798 C 164.28935,319.85994 145.5157,321.48974 128.85806,317.12417 C 126.36432,315.2123 125.36683,308.68701 129.35681,305.02952 C 131.89211,303.15922 137.4199,309.1442 144.31925,297.17424 C 164.84616,306.30083 187.48908,306.25805 198.31762,295.81154 C 209.36801,285.81366 222.18176,281.28214 239.6855,279.2193 C 257.18924,281.28214 270.00299,285.81366 281.05338,295.81154 C 291.88192,306.25805 314.52484,306.30083 335.05175,297.17424 C 341.9511,309.1442 347.47889,303.15922 350.01419,305.02952 C 354.00417,308.68701 353.00668,315.2123 350.51294,317.12417 C 333.8553,321.48974 315.08165,319.85994 297.895,314.8798 C 291.39933,313.02325 259.15888,311.87204 239.79082,315.12918 z " />
  <path
     style="fill:none;fill-opacity:0.75;fill-rule:evenodd;stroke:#ffffff;stroke-width:3.94875002;stroke-linecap:butt;stroke-linejoin:miter;stroke-miterlimit:4;stroke-dasharray:none;stroke-dashoffset:0;stroke-opacity:1"
     d="M 350.98815,436.02012 L 351.71544,335.88688"
     id="path2731" />
  <path
     id="path2733"
     d="M 350.98815,436.02012 L 351.71544,335.88688"
     style="fill:none;fill-opacity:0.75;fill-rule:evenodd;stroke:#000000;stroke-width:3.94858718;stroke-linecap:butt;stroke-linejoin:miter;stroke-miterlimit:4;stroke-dasharray:0.98714681, 0.98714681;stroke-dashoffset:0;stroke-opacity:1" />
  <path
     style="fill:none;fill-opacity:1;fill-rule:evenodd;stroke:#ffffff;stroke-width:3.75;stroke-linecap:butt;stroke-linejoin:miter;stroke-miterlimit:4;stroke-dasharray:none;stroke-dashoffset:0;stroke-opacity:1"
     d="M 301.1137,436.25068 L 350.48726,334.68222"
     id="path2735" />
  <path
     id="path2737"
     d="M 301.1137,436.25068 L 350.48726,334.68222"
     style="fill:none;fill-opacity:0.75;fill-rule:evenodd;stroke:#000000;stroke-width:3.75;stroke-linecap:butt;stroke-linejoin:miter;stroke-miterlimit:4;stroke-dasharray:0.9375, 0.9375;stroke-dashoffset:0;stroke-opacity:1" />
  <path
     style="fill:none;fill-opacity:0.75;fill-rule:evenodd;stroke:#ffffff;stroke-width:0;stroke-linecap:butt;stroke-linejoin:miter;stroke-miterlimit:4;stroke-dasharray:none;stroke-dashoffset:0;stroke-opacity:1"
     d="M 350.98815,436.02012 L 351.71544,335.88688"
     id="path2739" />
  <path
     id="path2741"
     d="M 403.65186,435.83773 L 350.69126,336.09267"
     style="fill:none;fill-opacity:0.75;fill-rule:evenodd;stroke:#ffffff;stroke-width:3.75;stroke-linecap:butt;stroke-linejoin:miter;stroke-miterlimit:4;stroke-dasharray:none;stroke-dashoffset:0;stroke-opacity:1" />
  <path
     style="fill:none;fill-opacity:0.75;fill-rule:evenodd;stroke:#000000;stroke-width:3.75;stroke-linecap:butt;stroke-linejoin:miter;stroke-miterlimit:4;stroke-dasharray:0.9375, 0.9375;stroke-dashoffset:0;stroke-opacity:1"
     d="M 403.65186,435.83773 L 350.69126,336.09267"
     id="path2743" />
  <path
     d="M 290.75388,443.80623 C 290.75388,430.33979 309.20757,430.56329 309.20757,443.80623 L 342.6237,443.80623 C 342.6237,430.587 360.07989,430.32077 360.07989,443.80623 L 391.99978,443.80623 C 391.99978,430.03956 410.95222,430.336 410.95222,443.80623 C 406.79598,515.37661 295.90761,513.13224 290.75388,443.80623 z M 295.47101,443.48038 C 297.1168,437.35277 303.61177,437.17643 305.16939,443.48038 C 302.15701,443.48038 298.7038,443.48038 295.47101,443.48038 z M 346.52902,443.48038 C 348.17481,437.35277 354.66978,437.17643 356.2274,443.48038 C 353.21502,443.48038 349.76181,443.48038 346.52902,443.48038 z M 396.52902,443.48038 C 398.17481,437.35277 404.66978,437.17643 406.2274,443.48038 C 403.21502,443.48038 399.76181,443.48038 396.52902,443.48038 z "
     style="fill:#ffffff;fill-opacity:1;fill-rule:evenodd;stroke:#000000;stroke-width:1px;stroke-linecap:butt;stroke-linejoin:miter;stroke-opacity:1"
     id="path2745" />
  <path
     d="M 194.01308 380.54825 A 7.4812241 7.4812241 0 1 1  179.05064,380.54825 A 7.4812241 7.4812241 0 1 1  194.01308 380.54825 z"
     id="path2747"
     style="opacity:1;color:#000000;fill:#ffffff;fill-opacity:1;fill-rule:evenodd;stroke:#000000;stroke-width:2;stroke-linecap:butt;stroke-linejoin:miter;marker:none;marker-start:none;marker-mid:none;marker-end:none;stroke-miterlimit:4;stroke-dasharray:none;stroke-dashoffset:0;stroke-opacity:1;visibility:visible;display:inline;overflow:visible"
     transform="translate(163.5731,-47.96287)" />
  <path
     style="opacity:1;color:#000000;fill:#ffffff;fill-opacity:1;fill-rule:evenodd;stroke:#000000;stroke-width:1.5;stroke-linecap:butt;stroke-linejoin:miter;marker:none;marker-start:none;marker-mid:none;marker-end:none;stroke-miterlimit:4;stroke-dasharray:none;stroke-dashoffset:0;stroke-opacity:1;visibility:visible;display:inline;overflow:visible"
     id="path2749"
     d="M 304.00007 347.0256 A 7.7587023 7.7587023 0 1 1  288.48266,347.0256 A 7.7587023 7.7587023 0 1 1  304.00007 347.0256 z"
     transform="translate(-56.42694,-47.96287)" />
  <rect
     style="opacity:1;color:#000000;fill:#ffffff;fill-opacity:1;fill-rule:evenodd;stroke:none;stroke-width:1.5;stroke-linecap:butt;stroke-linejoin:miter;marker:none;marker-start:none;marker-mid:none;marker-end:none;stroke-miterlimit:4;stroke-dasharray:none;stroke-dashoffset:0;stroke-opacity:1;visibility:visible;display:inline;overflow:visible"
     id="rect2873"
     width="14.59165"
     height="20.719261"
     x="199.91884"
     y="154.46872" />
  <path
     style="font-size:32.97661209px;font-style:normal;font-weight:normal;line-height:125%;fill:#ffffff;fill-opacity:1;stroke:none;stroke-width:1px;stroke-linecap:butt;stroke-linejoin:miter;stroke-opacity:1;font-family:Bitstream Vera Sans"
     d="M 289.09534,174.66952 C 289.09527,167.68073 287.99023,161.24668 285.78023,155.36739 L 268.19646,155.12041 C 270.55588,160.99031 271.73562,167.75387 271.73567,175.4111"
     id="path2875" />
</svg>