<!-- Creator: CorelDRAW -->
<svg
   xmlns="http://www.w3.org/2000/svg"
   style="shape-rendering:geometricPrecision; text-rendering:geometricPrecision; image-rendering:optimizeQuality; fill-rule:evenodd; clip-rule:evenodd"
   viewBox="-23.67 -11.84 257.31 320.72"
   id="svg2"
   version="1.0"><title>Herb Kędzierzyn-Koźle</title><metadata
   id="metadata29"><rdf:RDF><cc:Work
       rdf:about=""><dc:format>image/svg+xml</dc:format><dc:type
         rdf:resource="http://purl.org/dc/dcmitype/StillImage" /></cc:Work></rdf:RDF></metadata><sodipodi:namedview
   guidetolerance="10.0"
   gridtolerance="10.0"
   objecttolerance="10.0"
   borderopacity="1.0"
   bordercolor="#666666"
   pagecolor="#ffffff"
   id="base" />
 <defs
   id="defs4">
  <style
   type="text/css"
   id="style6">
   
    .fil0 {fill:#0A0B0C}
    .fil2 {fill:#F8C300}
    .fil1 {fill:white}
   
  </style>
 
  <metadata
   id="CorelCorpID_0Corel-Layer" />
  
 
   
   
   
   
   
  
    
    
    
   
    
    
    
   
    
    
    
   </defs>
 <g
   id="g2223"><path
     style="fill:#0a0b0c"
     d="M 224.1075,0.038524947 L 224.1075,213.3066 C 223.63838,237.82181 197.04953,251.88474 178.51711,258.81961 C 165.8883,263.54526 153.3195,268.79868 140.78689,273.83451 C 127.70825,279.08997 115.60142,286.37562 105.08267,297 C 96.6059,288.90375 89.440958,283.27651 80.392176,278.56367 C 61.739161,268.84894 41.10508,263.56114 22.070759,254.54288 C 6.6677501,247.24498 -14.211723,234.03405 -14.137754,213.37977 L -14.137754,0.037957696 L 224.1075,0.037957696 L 224.1075,0.038524947 z "
     class="fil0"
     id="_76867784" /><path
     style="fill:#c1c1c1;fill-opacity:1"
     d="M -6.2695344,7.5535743 L 216.23111,7.5535743 L 216.23111,212.23688 C 216.04755,221.20239 212.01258,228.47409 204.93851,234.68809 C 196.33604,242.24466 185.38187,248.14974 173.77479,252.21148 C 164.08036,255.60387 154.34634,259.79392 144.08523,263.69762 C 130.43627,268.89012 117.39768,275.82567 105.07223,285.32882 C 98.694403,280.46703 91.748079,274.9276 82.233585,270.38574 C 76.755759,267.77082 70.736209,265.08296 63.794877,262.3099 C 49.874888,256.74926 35.109922,252.05435 21.861557,245.16646 C 9.3137472,238.64273 -6.3309109,228.34124 -6.2694209,212.30086 L -6.2694209,7.5540281 L -6.2695344,7.5535743 z "
     class="fil1"
     id="_76867712" /><path
     id="_76867640"
     class="fil0"
     d="M 19.070231,29.161738 C 20.741691,34.882007 22.529892,38.240697 25.213782,40.638012 C 30.987598,45.795568 40.992991,47.757914 48.379956,48.548548 C 56.733515,49.442762 67.685649,52.214462 68.775224,55.771691 C 68.775224,55.771691 59.856683,52.519756 54.59135,51.943316 C 51.588212,51.614651 50.220797,52.742459 52.130049,53.561002 C 52.679602,53.796637 53.442554,54.522945 53.875933,55.002726 C 54.654655,55.865741 53.7913,56.526928 52.069807,56.073695 C 49.641067,55.434403 46.814117,54.932046 44.041169,55.208638 C 46.296444,59.068551 48.292826,60.22336 49.570728,61.236129 C 51.545668,62.80106 50.686964,64.146352 48.554442,63.623914 C 45.480965,62.870718 41.019766,64.074878 36.72012,66.390168 C 34.037705,67.834501 31.394317,69.847901 29.402814,71.310953 C 27.560724,72.664073 26.749783,73.23416 25.794646,73.325601 C 21.77023,73.711218 22.307984,75.18346 24.032312,76.143134 C 26.395705,77.458362 28.097116,78.344974 25.657371,78.718906 C 21.970016,79.284228 16.710241,80.923923 13.363009,83.860806 C 15.42383,84.0109 18.814174,84.804597 20.368327,86.34888 C 21.364873,87.338165 20.87613,87.707105 19.567142,87.65628 C 16.94826,87.554515 15.413733,87.268167 13.152786,89.288146 C 12.058219,90.265973 10.282838,91.288839 7.6500012,91.444833 C 9.5776322,92.886217 12.893779,93.875955 14.761735,94.459089 C 16.702867,95.065026 18.023653,97.089544 15.492127,98.294611 C 12.594498,99.674278 9.6491058,98.121145 8.3128902,97.0993 C 7.3254204,96.343949 6.1421357,95.65179 5.0860285,94.614289 C 3.648502,102.76829 9.4914101,106.98171 12.758093,109.97101 C 15.507103,112.48631 15.67898,114.09243 12.748563,113.43544 C 10.316419,112.89054 8.378351,111.48727 6.5831163,109.80254 C 5.5165717,108.80202 4.5534936,108.13312 4.7122103,110.29468 C 4.9846041,114.00189 6.8298703,116.94434 8.9653419,119.92932 C 11.960992,124.11711 14.235213,125.90111 18.467016,129.07499 C 20.981979,130.96121 23.603697,133.08205 26.173456,135.34231 C 31.122377,139.69619 35.672067,143.96464 36.580349,150.96814 C 36.83391,152.92277 36.279139,155.02262 36.649327,157.30149 C 36.947814,159.13791 38.978117,158.26094 39.963659,157.09774 C 43.578973,152.83065 49.34587,149.91022 51.223016,146.07027 C 52.063,144.35207 51.425864,142.72259 51.425864,141.22924 C 51.425864,138.76193 52.479816,139.13609 53.211229,140.07069 C 54.078782,141.17944 55.347722,141.64107 56.389307,138.1704 C 57.799833,133.47073 62.224274,125.05364 63.594297,119.70821 C 64.013382,118.07271 63.440346,116.60523 62.466717,115.6316 C 61.168394,114.33328 61.804962,113.32131 64.026429,113.34309 C 64.679108,113.34944 65.213571,112.95656 65.355837,111.7355 C 65.839248,107.58822 65.193604,103.90597 66.530613,99.954953 C 67.156177,98.105716 67.595683,97.056756 69.349736,97.34231 C 69.681237,97.396086 70.453378,98.325696 71.272488,98.524688 C 72.048827,98.713128 72.730209,98.85097 73.200573,99.525998 C 75.082143,102.22725 74.901644,106.75697 74.411199,109.25968 C 73.333763,114.75679 68.280695,116.87468 66.847933,121.94068 C 64.283507,131.00398 69.609196,139.83449 69.733651,138.74695 C 69.733651,136.60433 69.957828,132.64595 70.191989,131.5794 C 70.933045,128.20596 72.48493,130.8422 72.681992,132.23367 C 73.042423,134.77733 72.799186,139.69993 72.239197,142.50249 C 75.177782,140.69841 78.975751,135.23942 78.462503,129.87776 C 78.246721,127.62408 78.834733,125.21927 79.758103,123.85572 C 80.640972,122.55206 82.334442,121.93796 83.225706,123.50345 C 83.918433,124.72032 84.557611,126.72022 85.42471,128.18883 C 86.12708,129.37881 86.897746,129.86891 88.02805,129.3669 C 89.878421,128.54529 89.649365,124.64839 89.121255,123.14109 C 88.57193,121.57333 87.560068,119.9106 86.648383,118.18582 C 85.753602,116.49269 84.532198,112.92866 84.958203,110.9224 C 85.278359,109.41476 86.31518,108.37329 87.412243,111.08418 C 88.492061,113.75219 88.918066,119.04532 90.33744,122.45778 C 92.193371,126.92023 94.553133,128.39327 96.852314,122.89355 C 98.195676,119.68064 99.024089,118.15871 99.78897,116.44481 C 101.4872,112.64049 100.1983,106.65906 98.932875,101.69562 C 97.36715,95.553996 94.940112,87.71845 96.863772,76.557227 C 97.556498,72.537576 95.608333,64.084408 89.082115,55.822403 C 86.631706,40.295733 71.006334,33.65527 60.888058,31.438682 C 54.639339,30.069679 43.054153,27.411997 38.381824,21.729394 C 37.808787,25.593845 37.256625,28.041191 45.894037,36.752118 C 29.472586,36.419483 22.228682,30.777154 19.070231,29.161738 L 19.070231,29.161738 z "
     style="fill:#0a0b0c" /><path
     id="_76867568"
     class="fil2"
     d="M 39.983966,25.035671 C 49.58559,32.996579 60.892029,32.518046 69.361194,36.195305 C 76.803408,39.426705 85.807604,46.059793 87.709482,55.292477 L 80.76225,55.292477 C 78.913467,45.71706 65.79886,40.664332 57.837725,38.667043 C 53.762256,37.64463 49.774144,36.721033 46.545013,34.261434 C 43.60155,32.019547 40.733304,28.494878 39.983966,25.035671 z M 22.505387,32.870763 C 29.508436,38.030928 39.229182,38.267131 48.375531,39.139109 C 55.260025,39.795191 61.166125,41.12528 67.316029,44.244818 C 72.264383,46.754788 76.676798,50.176671 78.401013,55.292477 L 70.542664,55.292477 C 67.233777,49.710504 56.578315,47.951914 48.453812,46.681953 C 42.812958,45.800333 24.649594,43.975261 22.505387,32.870763 L 22.505387,32.870763 z "
     style="fill:#ffff00;fill-opacity:1" /><path
     id="_76867496"
     class="fil1"
     d="M 82.309143,78.910637 C 82.017349,82.837259 85.522277,84.067172 87.867858,83.896316 C 88.542546,83.847192 88.91262,84.207056 88.91262,85.459204 C 88.91262,87.278831 88.168841,87.079045 87.054421,86.750721 C 82.998919,85.555524 80.728783,83.491753 80.582545,79.002077 C 80.522984,77.173262 82.450955,77.001725 82.309143,78.910637 z M 85.132236,82.615464 C 85.917537,82.947646 86.498402,82.907371 86.829449,82.726872 C 87.381384,82.426342 87.234353,81.844797 86.196511,81.736793 C 85.112609,81.62391 84.940164,80.540234 84.848156,80.059319 C 84.692843,79.245995 84.001932,79.58124 83.806117,80.06034 C 83.422429,80.998686 84.281246,82.255373 85.132236,82.615464 L 85.132236,82.615464 z M 88.93134,82.309148 C 88.728151,80.951604 87.128504,78.820444 85.596133,77.933377 C 84.93574,77.551164 84.195138,77.348769 83.934316,77.129583 C 82.848938,76.218238 84.878788,75.756156 86.77817,76.269858 C 88.982506,76.865812 89.682039,78.180812 90.031012,80.093808 C 90.335398,81.762886 89.476694,83.945213 88.93134,82.309148 L 88.93134,82.309148 z M 93.362248,110.77151 C 93.068071,109.53366 94.027973,108.96584 95.00024,109.69362 C 96.404186,110.74429 97.447586,114.32636 95.782706,115.99124 C 94.378874,117.39507 93.39095,116.71721 93.758188,115.39064 C 94.255554,113.59404 93.655743,112.00676 93.362248,110.77151 z "
     style="fill:#ffffff" /><path
     id="_76867400"
     class="fil0"
     d="M 190.11444,29.161738 C 188.44309,34.882007 186.65478,38.240697 183.971,40.638012 C 178.19718,45.795568 168.19179,47.757914 160.80471,48.548548 C 152.45115,49.442762 141.49902,52.214462 140.40956,55.771691 C 140.40956,55.771691 149.32799,52.519756 154.59343,51.943316 C 157.59646,51.614651 158.96387,52.742459 157.05462,53.561002 C 156.50518,53.796637 155.74212,54.522945 155.30885,55.002726 C 154.53001,55.865741 155.39348,56.526928 157.11486,56.073695 C 159.54372,55.434403 162.37055,54.932046 165.1435,55.208638 C 162.88822,59.068551 160.89184,60.22336 159.61394,61.236129 C 157.639,62.80106 158.49771,64.146352 160.63023,63.623914 C 163.7037,62.870718 168.1649,64.074878 172.46455,66.390168 C 175.14696,67.834501 177.79035,69.847901 179.78186,71.310953 C 181.62395,72.664073 182.43489,73.23416 183.39002,73.325601 C 187.41455,73.711218 186.87669,75.18346 185.15236,76.143134 C 182.78896,77.458362 181.08767,78.344974 183.5273,78.718906 C 187.21465,79.284228 192.47443,80.923923 195.82166,83.860806 C 193.76084,84.0109 190.37061,84.804597 188.81634,86.34888 C 187.8198,87.338165 188.30854,87.707105 189.61753,87.65628 C 192.23641,87.554515 193.77094,87.268167 196.03188,89.288146 C 197.12645,90.265973 198.90183,91.288839 201.53467,91.444833 C 199.60704,92.886217 196.291,93.875955 194.42293,94.459089 C 192.4818,95.065026 191.16102,97.089544 193.69254,98.294611 C 196.59017,99.674278 199.53556,98.121145 200.87178,97.0993 C 201.85925,96.343949 203.04253,95.65179 204.09864,94.614289 C 205.53617,102.76829 199.69326,106.98171 196.42658,109.97101 C 193.67757,112.48631 193.50569,114.09243 196.43611,113.43544 C 198.86825,112.89054 200.80632,111.48727 202.60155,109.80254 C 203.6681,108.80202 204.63118,108.13312 204.47246,110.29468 C 204.20007,114.00189 202.3548,116.94434 200.21944,119.92932 C 197.22368,124.11711 194.94946,125.90111 190.71765,129.07499 C 188.2028,130.96121 185.58097,133.08205 183.01133,135.34231 C 178.06229,139.69619 173.5126,143.96464 172.60443,150.96814 C 172.35087,152.92277 172.90553,155.02262 172.53534,157.30149 C 172.23686,159.13791 170.20655,158.26094 169.22101,157.09774 C 165.6057,152.83065 159.8388,149.91022 157.96165,146.07027 C 157.12167,144.35207 157.7588,142.72259 157.7588,141.22924 C 157.7588,138.76193 156.70485,139.13609 155.97344,140.07069 C 155.10589,141.17944 153.83695,141.64107 152.79536,138.1704 C 151.38495,133.47073 146.9604,125.05364 145.59037,119.70821 C 145.17129,118.07271 145.74432,116.60523 146.71795,115.6316 C 148.01639,114.33328 147.37982,113.32131 145.15824,113.34309 C 144.50568,113.34944 143.9711,112.95656 143.82883,111.7355 C 143.34542,107.58822 143.99107,103.90597 142.65417,99.954953 C 142.02849,98.105716 141.58899,97.056756 139.83493,97.34231 C 139.50343,97.396086 138.7314,98.325696 137.91218,98.524688 C 137.13596,98.713128 136.45446,98.85097 135.9841,99.525998 C 134.10253,102.22725 134.28303,106.75697 134.77347,109.25968 C 135.85102,114.75679 140.90409,116.87468 142.33685,121.94068 C 144.90128,131.00398 139.57547,139.83449 139.45113,138.74695 C 139.45113,136.60433 139.22684,132.64595 138.99268,131.5794 C 138.25174,128.20596 136.69974,130.8422 136.50268,132.23367 C 136.14225,134.77733 136.38548,139.69993 136.94547,142.50249 C 134.007,140.69841 130.20892,135.23942 130.72228,129.87776 C 130.93795,127.62408 130.34994,125.21927 129.42657,123.85572 C 128.5437,122.55206 126.85023,121.93796 125.95896,123.50345 C 125.26624,124.72032 124.62706,126.72022 123.76007,128.18883 C 123.05759,129.37881 122.28692,129.86891 121.15662,129.3669 C 119.30625,128.54529 119.5353,124.64839 120.06341,123.14109 C 120.61274,121.57333 121.6246,119.9106 122.53629,118.18582 C 123.43107,116.49269 124.65258,112.92866 124.22647,110.9224 C 123.90631,109.41476 122.86949,108.37329 121.77243,111.08418 C 120.69261,113.75219 120.2666,119.04532 118.84723,122.45778 C 116.9913,126.92023 114.63165,128.39327 112.33236,122.89355 C 110.98899,119.68064 110.16069,118.15871 109.3957,116.44481 C 107.69746,112.64049 108.98637,106.65906 110.25179,101.69562 C 111.81752,95.553996 114.24467,87.71845 112.32101,76.557227 C 111.62817,72.537576 113.57634,64.084408 120.10255,55.822403 C 122.55296,40.295733 138.17845,33.65527 148.29661,31.438682 C 154.54533,30.069679 166.13052,27.411997 170.80285,21.729394 C 171.37588,25.593845 171.92804,28.041191 163.29063,36.752118 C 179.71208,36.419483 186.95599,30.777154 190.11444,29.161738 L 190.11444,29.161738 z "
     style="fill:#0a0b0c" /><path
     id="_76867328"
     class="fil2"
     d="M 169.20104,25.035671 C 159.59942,32.996579 148.29298,32.518046 139.82382,36.195305 C 132.3816,39.426705 123.37741,46.059793 121.47553,55.292477 L 128.42276,55.292477 C 130.27154,45.71706 143.38626,40.664332 151.34728,38.667043 C 155.42275,37.64463 159.41087,36.721033 162.64,34.261434 C 165.58346,32.019547 168.45171,28.494878 169.20104,25.035671 z M 186.67974,32.870763 C 179.67657,38.030928 169.95594,38.267131 160.80948,39.139109 C 153.92498,39.795191 148.019,41.12528 141.86898,44.244818 C 136.92063,46.754788 132.50821,50.176671 130.784,55.292477 L 138.64235,55.292477 C 141.95123,49.710504 152.60669,47.951914 160.7312,46.681953 C 166.37205,45.800333 184.53542,43.975261 186.67974,32.870763 z "
     style="fill:#ffff00;fill-opacity:1" /><path
     id="_76867256"
     class="fil1"
     d="M 126.87621,78.910637 C 127.168,82.837259 123.66307,84.067172 121.31749,83.896316 C 120.64292,83.847192 120.27273,84.207056 120.27273,85.459204 C 120.27273,87.278831 121.01651,87.079045 122.13093,86.750721 C 126.18643,85.555524 128.45657,83.491753 128.6028,79.002077 C 128.66237,77.173262 126.73451,77.001725 126.87621,78.910637 z M 124.05311,82.615464 C 123.26781,82.947646 122.68695,82.907371 122.3559,82.726872 C 121.80397,82.426342 121.951,81.844797 122.98884,81.736793 C 124.07274,81.62391 124.2453,80.540234 124.33719,80.059319 C 124.49262,79.245995 125.18342,79.58124 125.37923,80.06034 C 125.76303,80.998686 124.9041,82.255373 124.05311,82.615464 L 124.05311,82.615464 z M 120.25401,82.309148 C 120.4572,80.951604 122.05685,78.820444 123.58922,77.933377 C 124.24972,77.551164 124.99021,77.348769 125.25103,77.129583 C 126.33641,76.218238 124.30656,75.756156 122.40729,76.269858 C 120.20284,76.865812 119.50331,78.180812 119.15434,80.093808 C 118.84995,81.762886 119.70866,83.945213 120.25401,82.309148 L 120.25401,82.309148 z M 115.8231,110.77151 C 116.11728,109.53366 115.15738,108.96584 114.18511,109.69362 C 112.78116,110.74429 111.73776,114.32636 113.40264,115.99124 C 114.80659,117.39507 115.7944,116.71721 115.42716,115.39064 C 114.9298,113.59404 115.52961,112.00676 115.8231,110.77151 z "
     style="fill:#ffffff" /><path
     id="_76731096"
     class="fil0"
     d="M 55.208291,251.29038 C 59.86973,247.78216 62.410332,244.8573 63.881213,241.26082 C 67.045677,233.52341 66.349093,222.20835 65.251804,214.05197 C 64.010886,204.82813 63.801117,192.25525 66.687628,190.01994 C 66.687628,190.01994 65.97709,200.55673 66.74787,206.37446 C 67.18749,209.69253 68.519621,210.82011 68.780216,208.52774 C 68.855206,207.86791 69.312978,206.832 69.63268,206.22345 C 70.207759,205.12957 71.003725,205.8569 71.021196,207.8383 C 71.045928,210.63394 71.288825,213.8152 72.208679,216.705 C 75.079761,213.12905 75.617174,210.64234 76.203371,208.96849 C 77.10927,206.3816 78.510265,206.89871 78.56631,209.34152 C 78.647086,212.86255 80.799802,217.28382 83.897671,221.19853 C 85.830294,223.64088 88.257559,225.87063 90.038499,227.5666 C 91.685682,229.1355 92.388165,229.83379 92.701741,230.83033 C 94.022868,235.02901 95.196396,234.01068 95.627052,231.87419 C 96.21722,228.94581 96.588542,226.85595 97.513728,229.35922 C 98.912114,233.14256 101.64501,238.28934 105.0619,240.99648 C 104.69331,238.74223 104.57135,234.8695 105.5612,232.74004 C 106.19527,231.37478 106.64113,231.78796 106.91466,233.20666 C 107.46183,236.04473 107.58163,237.77575 109.92177,239.59345 C 111.05457,240.47348 112.39294,242.06995 113.17189,244.84562 C 113.97988,242.34665 114.04965,238.49468 114.11171,236.31712 C 114.17615,234.05424 115.64839,232.03097 117.33222,234.38325 C 119.25996,237.07565 118.60059,240.69936 118.02052,242.43832 C 117.59168,243.7236 117.2663,245.19981 116.60409,246.64335 C 124.17859,245.7379 126.48968,238.20981 128.34323,233.81089 C 129.90272,230.10902 131.28397,229.44284 131.41512,232.78156 C 131.52426,235.55235 130.75268,238.05109 129.69692,240.48131 C 129.06999,241.92473 128.7116,243.15793 130.58818,242.33928 C 133.80665,240.93499 135.96458,238.07389 138.08962,234.8889 C 141.07097,230.42089 142.09804,227.44748 143.88022,221.95842 C 144.93939,218.69639 146.18043,215.24932 147.5576,211.81632 C 150.21074,205.20444 152.88533,199.04626 158.86948,195.97119 C 160.53958,195.11294 162.53517,195.07755 164.46416,193.99693 C 166.01865,193.12586 164.74745,191.21241 163.47703,190.50494 C 158.81639,187.90943 154.82521,182.60325 150.96609,181.74296 C 149.23927,181.35814 147.95047,182.53008 146.62742,182.97809 C 144.44135,183.71847 144.51634,182.4763 145.16641,181.41169 C 145.93764,180.14899 146.03782,178.6502 142.70919,178.57487 C 138.20193,178.47287 129.66731,176.25515 124.59767,176.39027 C 123.04658,176.43168 121.88588,177.48631 121.2602,178.8223 C 120.42589,180.60369 119.37432,180.22488 118.8529,177.83676 C 118.69963,177.1353 118.22144,176.68013 117.10498,176.89399 C 113.31279,177.62007 110.20732,179.41712 106.38133,179.16923 C 104.59052,179.0534 103.55415,178.89706 103.38023,176.93097 C 103.34733,176.55942 103.98299,175.45272 103.95985,174.51494 C 103.93795,173.62606 103.89416,172.85426 104.3778,172.14746 C 106.31315,169.31972 110.37058,168.15413 112.70742,167.92905 C 117.84025,167.43474 120.94651,172.21644 125.7838,172.23244 C 134.43834,172.26216 140.96603,163.90316 139.97221,164.09613 C 138.07385,164.73894 134.51197,165.68625 133.51009,165.75523 C 130.34075,165.97305 132.29878,163.51833 133.48366,162.88948 C 135.64976,161.74 140.07046,160.5237 142.68979,160.28319 C 140.3762,157.67418 134.61509,155.24044 129.98939,157.39951 C 128.04508,158.307 125.77132,158.3981 124.33844,157.81746 C 122.96842,157.26213 122.01226,155.63083 123.18227,154.20567 C 124.09191,153.09794 125.70824,151.81266 126.79849,150.44241 C 127.68182,149.3323 127.92857,148.35913 127.20862,147.29803 C 126.03032,145.56077 122.63329,146.9756 121.4264,147.99405 C 120.17108,149.05333 118.944,150.63698 117.63785,152.13191 C 116.35541,153.59916 113.49499,155.97798 111.61365,156.1232 C 110.19983,156.23234 109.02472,155.43331 111.15974,153.44374 C 113.26072,151.4857 117.84694,149.44076 120.52493,146.89528 C 124.02713,143.56665 124.75787,140.59494 119.32542,139.78014 C 116.15177,139.30411 114.6017,138.87277 112.897,138.56691 C 109.11287,137.8878 104.12696,141.06428 100.0372,143.91007 C 94.976756,147.43145 88.624911,152.38445 78.267709,153.67098 C 74.537583,154.13442 67.522168,158.75921 61.790214,168.23457 C 48.629659,175.52033 46.549098,194.264 47.047711,205.77635 C 47.355615,212.88604 47.820647,226.10332 43.922954,232.81741 C 47.486309,232.27217 49.78912,232.12979 55.404901,220.25644 C 59.107005,237.9609 55.87084,247.41957 55.208291,251.29038 L 55.208291,251.29038 z "
     style="fill:#0a0b0c" /><path
     id="_76731024"
     class="fil2"
     d="M 46.462308,230.10811 C 51.178997,217.42609 48.003188,205.44859 49.199973,195.26587 C 50.251769,186.31784 53.93731,174.67456 61.654641,169.86553 L 63.345501,177.3133 C 55.311531,182.16828 54.026708,197.74396 54.194615,206.87795 C 54.280723,211.55379 54.432973,216.10643 53.039692,220.30624 C 51.769732,224.13439 49.344849,228.26681 46.462308,230.10811 L 46.462308,230.10811 z M 57.658474,246.49518 C 60.526039,237.43925 58.369352,226.94727 56.915829,216.88028 C 55.821603,209.30294 55.562596,202.57218 56.829721,195.04306 C 57.849297,188.98516 59.807219,183.22802 63.92024,179.84471 L 65.832895,188.26929 C 61.692533,193.49129 62.727765,205.44224 63.580003,214.53311 C 64.171759,220.84491 66.975451,240.86454 57.658474,246.49518 L 57.658474,246.49518 z "
     style="fill:#ffff00;fill-opacity:1" /><path
     id="_76730952"
     class="fil1"
     d="M 83.895289,168.56822 C 87.44537,167.70294 87.682027,163.57642 86.959803,161.11308 C 86.752076,160.40458 86.980792,159.89984 88.09022,159.52409 C 89.70246,158.97806 89.706431,159.83551 89.686804,161.12873 C 89.614877,165.83498 88.338903,168.88793 84.396511,170.39182 C 82.790625,171.00434 82.169372,168.98901 83.895289,168.56822 L 83.895289,168.56822 z M 86.490687,164.43013 C 86.593927,163.48861 86.416831,162.87791 86.17643,162.57715 C 85.775725,162.0757 85.296284,162.40777 85.453186,163.55282 C 85.616894,164.7487 84.698743,165.25877 84.295087,165.50155 C 83.612231,165.91224 84.07749,166.55233 84.549556,166.61836 C 85.474401,166.74826 86.378825,165.45039 86.490687,164.43013 L 86.490687,164.43013 z M 85.294696,160.44917 C 84.141362,161.07439 82.642459,163.42871 82.229387,165.33762 C 82.051497,166.16036 82.052405,167.01498 81.921711,167.36032 C 81.378398,168.79728 80.474995,166.75994 80.467734,164.56967 C 80.459339,162.0276 81.454069,160.88311 83.064267,159.93501 C 84.469006,159.10785 86.611625,159.37366 85.294696,160.44917 L 85.294696,160.44917 z M 109.4345,147.15905 C 108.40936,147.84577 107.67262,146.98706 108.08081,145.7264 C 108.67007,143.9061 111.58982,141.71277 113.47015,142.99804 C 115.05573,144.08183 114.69552,145.3443 113.43078,145.34862 C 111.71791,145.35451 110.45748,146.4737 109.4345,147.15905 z "
     style="fill:#ffffff" /></g>
</svg>