<svg xmlns="http://www.w3.org/2000/svg" viewBox="-25.95 -28.95 801.90 882.90"><title>Herb Rzezawa</title><path d="m3.75 3.75 1.572 475.38c0 214.638 172.524 342.12 370.464 342.12 204.393 0 370.464-136.462 370.464-342.12l-.736-475.38z" style="fill:#fd4142;fill-opacity:1;stroke:#000;stroke-width:7.50000048;stroke-miterlimit:4;stroke-dasharray:none;stroke-opacity:1"/><g style="fill:#ffff6a;fill-opacity:1;stroke:#000;stroke-width:2.60577345;stroke-linecap:round;stroke-linejoin:round;stroke-miterlimit:4;stroke-dasharray:none"><path d="M142.153 107.65c30.164.155 40.878-30.419 21.543-64.847-39.227 4.519-57.715 31.121-39.906 55.467zm63.09 30.022c30.164.156 40.878-30.417 21.542-64.846-39.227 4.519-57.714 31.122-39.905 55.468zm-69.549-17.377c17.81 24.346-.678 50.95-39.905 55.468-19.336-34.429-8.622-65.002 21.542-64.846zm61.309 33.511c17.81 24.346-.679 50.949-39.906 55.468-19.335-34.429-8.621-65.002 21.543-64.846zm202.659-46.156c-30.164.155-40.878-30.419-21.542-64.847 39.227 4.519 57.715 31.121 39.906 55.467zm-63.089 30.022c-30.164.156-40.878-30.417-21.543-64.846 39.227 4.519 57.715 31.122 39.906 55.468zm69.548-17.377c-17.809 24.346.679 50.95 39.906 55.468 19.335-34.429 8.622-65.002-21.543-64.846zm-61.308 33.511c-17.81 24.346.678 50.949 39.905 55.468 19.336-34.429 8.622-65.002-21.542-64.846z" style="fill:#ffff6a;fill-opacity:1;fill-rule:evenodd;stroke:#000;stroke-width:2.60577345;stroke-linecap:round;stroke-linejoin:round;stroke-miterlimit:4;stroke-dasharray:none;stroke-opacity:1" transform="translate(-14.864 -10.9)scale(1.43911)"/></g><g style="fill:#ffff6a;fill-opacity:1;stroke:#000;stroke-width:2.60577273;stroke-linecap:round;stroke-linejoin:round;stroke-miterlimit:4;stroke-dasharray:none" transform="rotate(40.244 61.8 1423.676)scale(1.43911)"><path d="M-374.383 328.55v24h223.198v-24zm17.403 25v16.333h-25.435v32.667h38.153v-16.17l25.435-.163v16.333h38.152v-32.667h-25.435V353.55z" style="fill:#ffff6a;fill-opacity:1;fill-rule:evenodd;stroke:#000;stroke-width:2.60577273;stroke-linecap:round;stroke-linejoin:round;stroke-miterlimit:4;stroke-dasharray:none;stroke-opacity:1"/><rect width="36.5" height="60.229" x="-150.185" y="309.581" rx="19.01" ry="15.364" style="fill:#ffff6a;fill-opacity:1;stroke:#000;stroke-width:2.60577273;stroke-linecap:round;stroke-linejoin:round;stroke-miterlimit:4;stroke-dasharray:none;stroke-opacity:1"/><path d="M-55.685 255.469c-31.578 0-57 25.645-57 57.5v59c0 31.855 25.422 57.5 57 57.5s57-25.645 57-57.5v-59c0-31.855-25.422-57.5-57-57.5m0 25c17.664 0 32 14.336 32 32 0 13.74-8.676 25.468-20.844 30 12.168 4.531 20.844 16.26 20.844 30 0 17.664-14.336 32-32 32s-32-14.336-32-32v-60c0-17.664 14.336-32 32-32" style="fill:#ffff6a;fill-opacity:1;stroke:#000;stroke-width:2.60577273;stroke-linecap:round;stroke-linejoin:round;stroke-miterlimit:4;stroke-dasharray:none;stroke-opacity:1"/></g><g style="fill:#ffff6a;fill-opacity:1;stroke:#000;stroke-width:2.60577273;stroke-linecap:round;stroke-linejoin:round;stroke-miterlimit:4;stroke-dasharray:none" transform="rotate(-40.244 313.2 400.15)scale(-1.43911 1.43911)"><path d="M-374.383 328.55v24h223.198v-24zm17.403 25v16.333h-25.435v32.667h38.153v-16.17l25.435-.163v16.333h38.152v-32.667h-25.435V353.55z" style="fill:#ffff6a;fill-opacity:1;fill-rule:evenodd;stroke:#000;stroke-width:2.60577273;stroke-linecap:round;stroke-linejoin:round;stroke-miterlimit:4;stroke-dasharray:none;stroke-opacity:1"/><rect width="36.5" height="60.229" x="-150.185" y="309.581" rx="19.01" ry="15.364" style="fill:#ffff6a;fill-opacity:1;stroke:#000;stroke-width:2.60577273;stroke-linecap:round;stroke-linejoin:round;stroke-miterlimit:4;stroke-dasharray:none;stroke-opacity:1"/><path d="M-55.685 255.469c-31.578 0-57 25.645-57 57.5v59c0 31.855 25.422 57.5 57 57.5s57-25.645 57-57.5v-59c0-31.855-25.422-57.5-57-57.5m0 25c17.664 0 32 14.336 32 32 0 13.74-8.676 25.468-20.844 30 12.168 4.531 20.844 16.26 20.844 30 0 17.664-14.336 32-32 32s-32-14.336-32-32v-60c0-17.664 14.336-32 32-32" style="fill:#ffff6a;fill-opacity:1;stroke:#000;stroke-width:2.60577273;stroke-linecap:round;stroke-linejoin:round;stroke-miterlimit:4;stroke-dasharray:none;stroke-opacity:1"/></g><path d="M375 44.01c-50.874 33.834-57.64 83.501-15.965 104.516-3.512 22.33-6.41 47.777-8.904 75.373-64.078-34.145-148.988-80.07-211.91-107.168l1.125-2.204c.146-28.488-18.769-44.909-45.782-44.972-14.15-.034-30.55 4.42-47.58 13.986 6.502 56.452 44.788 83.06 79.825 57.43l1.304-2.519c64.037 34.9 154.815 82.371 220.5 115.489-11.869 158.107-11.039 372.858-12.638 508.86 9.325 6.822 72.078 5.781 80.05 0-1.599-136.002-.769-350.753-12.637-508.86 65.684-33.118 156.462-80.59 220.5-115.489l1.303 2.519c35.037 25.63 73.323-.978 79.826-57.43-49.546-27.826-93.586-12.424-93.362 30.986l1.124 2.204c-62.922 27.099-147.832 73.023-211.91 107.168-2.494-27.596-5.392-53.044-8.904-75.373C432.641 127.51 425.875 77.844 375 44.01" style="fill:#ffff6a;fill-opacity:1;fill-rule:evenodd;stroke:#000;stroke-width:3.75;stroke-linecap:round;stroke-linejoin:round;stroke-miterlimit:4;stroke-dasharray:none;stroke-opacity:1"/></svg>