<svg xmlns="http://www.w3.org/2000/svg"><title>Herb Kobierzyce</title><path d="M-391.192 298.524c.07-.005.18.005.25 0" style="fill:#fff;fill-opacity:1;stroke:none;stroke-width:8.85826778;stroke-linecap:round;stroke-linejoin:miter;stroke-miterlimit:4;stroke-opacity:1"/><g style="stroke:none"><path d="M-880.83 771.084c69.195 79.068 157.941 140.282 243.372 173.047 226.061-88.594 351.524-274.906 362.682-452.62V265.207z" style="fill:#ce1029;fill-opacity:1;fill-rule:nonzero;stroke:none;stroke-width:3.54330707;stroke-linecap:round;stroke-linejoin:round;stroke-miterlimit:4;stroke-dashoffset:0;stroke-opacity:1" transform="translate(1011.286 -43.802)"/><path d="M-274.776 265.207V48.23h-221.781l-510.3 443.28m0 0c7.376 103.953 56.964 200.656 126.027 279.573l606.054-505.877" style="fill:#009c4a;fill-opacity:1;fill-rule:nonzero;stroke:none;stroke-width:3.54330707;stroke-linecap:round;stroke-linejoin:round;stroke-miterlimit:4;stroke-dashoffset:0;stroke-opacity:1" transform="translate(1011.286 -43.802)"/><path d="M-1006.857 491.51V48.23h510.3z" style="fill:#ffb510;fill-opacity:1;fill-rule:nonzero;stroke:none;stroke-width:3.54330707;stroke-linecap:round;stroke-linejoin:round;stroke-miterlimit:4;stroke-dasharray:none;stroke-dashoffset:0;stroke-opacity:1" transform="translate(1011.286 -43.802)"/></g><path d="M-1006.857 48.23h732.081v443.281c-11.158 177.714-136.62 364.026-362.682 452.62-85.431-32.765-174.177-93.98-243.372-173.047-69.063-78.917-118.65-175.62-126.027-279.573z" style="fill:none;fill-opacity:1;fill-rule:nonzero;stroke:#000;stroke-width:8.85826778;stroke-linecap:round;stroke-linejoin:round;stroke-miterlimit:4;stroke-dasharray:none;stroke-dashoffset:0;stroke-opacity:1" transform="translate(1011.286 -43.802)"/><path d="m509.9 610.536-27.35 93.073 35.865-26.046 36.269 25.479-29.534-92.951 90.238 30.289-25.366-36.348 26.156-35.783L525 595.046l27.671-91.004-36.067 25.762-36.068-25.762 29.064 91.592-92.622-27.555 26.613 35.445-24.897 36.67z" style="fill:#fff;fill-opacity:1;fill-rule:evenodd;stroke:#fff;stroke-width:1px;stroke-linecap:butt;stroke-linejoin:miter;stroke-opacity:1"/><path d="M351.774 298.373c39.905 4.432 100.1 62.08 51.947 104.963h65.094l-7.781-6.78c-10.932-39.89-36.664-70-59.53-85.36 16.113-19.335 34.665-23.807 49.811-70.078l8.75-7.782h-58.281c27.249 26.125 8.908 48.944-9.78 71.234-12.028-5.962-26.732-10.35-39.9-12.37l.211-47.301c2.667-2.686.173-4.185 8-12.031h-45.594l8 12.031v47.562c-18.041.257-57.184 9.96-57.625 21.625-.08 10.485 34.68 19.715 57.375 21.125l.25 54.188-8 13.375h45.594l-8-14.156v-54c12.824-2.133 24.545-7.22 31.698-13.605l-3.78-3.781c-6.932 5.39-17.554 8.99-27.918 10.26l-.118-22.446-29.264-.167-.424 22.429c-8.43-.56-27.163-4.66-27.381-13.222-.312-6.577 13.693-14.192 27.555-15.774 10.34-.623 19.876-.441 29.09.06" style="fill:#fff;fill-opacity:1;stroke:none;stroke-width:1.0629921;stroke-linecap:round;stroke-linejoin:miter;stroke-miterlimit:4;stroke-opacity:1"/><path d="m-137.541 72.295 5.74 143.427c-.387 3.66-.832 9.895-7.284 13.442-5.988-3.547-5.852-5.767-7.168-13.13-.5-1.054-2.415 2.117-6.252 2.349-6.971-3.17-7.81-9.673-3.326-20.374-6.578-2.054-17.385-.316-17.085-18.745 3.448 6.636 22.372 15.326 26.238-3.515-8.31-2.17-13.042-4.029.305-8.787-1.932-7.713-3.213-15.783-5.796-23.139-4.881 7.04-7.02 12.029-9.763 19.917l-4.272-5.565c-1.932 4.003-4.097 7.783-6.03 11.786 6.814 4.373 8.687 1.429 10.54 4.998 1.094 2.108 1.394 4.48.046 7.189-.966-1.986-1.56-2.008-2.526-2.79-6.497.915-7.37-1.695-8.337-2.476-4.678-.293-3.5-.988-8.643-.254-10.365 3.972-4.23 8.434-11.018 8.703-.711-.293-1.19-.006-1.624 4.119-5.384-11.865 2.948-11.175 5.32-14.873-3.226-.886-5.383-.3-13.674 6.132.082-13.524 9.089-9.958 14.191-11.97-3.234-1.353-6.003-1.412-12.165 2.144-.841-3.23 3.83-9.077 15.353-5.881 2.847 2.719 4.188 3.598 7.584 3.424l4.271-10.544c-1.424 0-2.437-.131-3.86-.131 10.512-22.975 21.71-50.42 9.352-59.327 1.588 64.875-41.879 76.11-35.086 41.592 5.323 4.484 21.237 4.54 20.351-46.366-.864-.269-.541-1.13-1.405-1.398 3.756 36.134-24.49 63.658-34.428 34.056 4.227.764 17.904 4.421 20.351-34.913-.966-.171-.7-.342-1.666-.513 1.135 13.207-18.135 56.785-38.227 19.243 19.599 7.792 9.638-40.369 17.8-72.882-.714-1.762 6.512-23.79 29.523-17.928 16.283 2.69 27.336 41.45-10.125 33.729.569 1.935 1.72 3.591 3.45 4.41 3.892-5.334 10.592 1.975 11.482 8.262 2.572-3.66 11.826-4.438 11.687 7.428 2.673-.305 4.184-10.743 18.38 5.314 1.384-.751 3.202-2.477 3.327-5.367.606-1.503-3.441-1.498-1.95-1.44z" style="fill:#000;fill-opacity:1;fill-rule:evenodd;stroke:none;stroke-width:1px;stroke-linecap:butt;stroke-linejoin:miter;stroke-opacity:1" transform="translate(279.73 25.33)"/><path d="M-163.907 25.491c-1.354-10.812 7.75-16.603 24.892-5.29 13.253-7.117 26.99 3.707 23.298 17.135-16.243 21.196-5.273 37.651-5.731 37.651h-2.922l-27.554-1.95-2-1.39c4.255-7.85 4.812-11.245 3.504-11.475 1.793-1.066 3.489-2.585 5.766-5.173 4.784-11.554-3.6-15.485-14.407-26.667 5.697 1.862 22.917 8.279 9.925-3.246-7.54 1.094-6.149 3.36-16.067 2.477 5.844-1.191 7.975-1.455 11.672-3.995-5.072-1.001-7.53.508-10.376 1.923z" style="fill:#000;fill-opacity:1;fill-rule:evenodd;stroke:#000;stroke-width:.56085283px;stroke-linecap:butt;stroke-linejoin:miter;stroke-opacity:1" transform="translate(279.73 25.33)"/><path d="m-140.265 72.68-5.74 143.428c.387 3.659.832 9.894 7.284 13.441 5.988-3.547 5.852-5.767 7.168-13.129.5-1.055 2.415 2.117 6.253 2.348 6.97-3.17 5.909-11.725 3.087-21.058 6.578-2.054 17.623.368 17.323-18.061-3.448 6.637-22.372 15.326-26.238-3.515 8.31-2.17 13.042-4.028-.305-8.787 1.932-7.713 3.214-15.782 5.796-23.138 4.882 7.04 7.02 12.028 9.764 19.917 1.423-1.855 2.372-3.939 3.796-5.794 1.932 4.003 4.572 8.011 6.504 12.014-6.813 4.373-8.686 1.429-10.539 4.999-1.094 2.107-1.394 4.48-.046 7.188.966-1.985 1.56-2.008 2.526-2.789 6.497.914 8.32-2.608 9.287-3.39 4.678-.292 2.55-.074 7.693.659 10.365 3.972 4.706 8.207 11.493 8.475.712-.293.716.223 1.149 4.347 5.384-11.864-2.948-11.175-5.32-14.872 3.226-.886 5.383-.3 13.674 6.131-.082-13.523-9.089-9.958-14.191-11.97 3.234-1.353 7.19-2.552 12.165 2.144 2.03-5.966-3.83-9.077-15.353-5.881-2.847 2.72-4.188 3.598-7.584 3.425l-4.271-10.544c1.424 0 2.437-.132 3.86-.132-10.512-22.975-22.422-54.753-9.352-59.326-1.428 63.339 41.88 76.11 35.086 41.59-6.986 6.082-21.13-.522-20.991-45.75.864-.269.87-1.055 1.735-1.324-3.756 36.134 24.562 60.688 34.738 33.367-4.227.765-17.904 4.422-20.351-34.913.966-.17.7-.342 1.666-.513-1.135 13.208 16.71 54.732 38.227 19.243-21.5 8.704-9.638-40.369-17.8-72.882.714-1.762-6.512-23.79-29.523-17.928-16.283 2.69-27.336 41.45 10.126 33.729-.57 1.935-1.72 3.591-3.452 4.411-3.891-5.334-10.591 1.975-11.48 8.261-2.573-3.66-11.827-4.438-11.688 7.428-2.673-.305-3.946-10.058-18.143 5.999-1.384-.752-3.439-3.162-3.564-6.052-.606-1.503 3.441-1.498 1.95-1.44z" style="fill:#000;fill-opacity:1;fill-rule:evenodd;stroke:#000;stroke-width:.56085283px;stroke-linecap:butt;stroke-linejoin:miter;stroke-opacity:1" transform="translate(279.73 25.33)"/><path d="M-139.633 84.36c-21.24-1.544-35.174-1.956-59.56-25.94 18.15 31.954 34.444 39.202 59.56 42.243 29.152.686 48.49-19.936 60.846-42.498-18.943 19.977-34.108 25.67-57.978 26.042-.062-4.443-.203-5.758-.265-10.2h4.486c.664 1.834 1.328 1.132 1.712 0 1.165-.26 1.6-.952.236-1.428.164-.054-1.134-3.075-1.813-.216-1.653-.12-2.968-.022-4.621-.141l-.124-5.237c.843-.782 1.46-1.51 0-2.023-.235-.687-1.144-2.398-2.278-.119-.83.311-2 1.216-.077 1.904v5.475h-4.71c-.508-1.497-1.24-1.105-1.86-.12-1.84.69-1.038 1.378-.124 1.905 1.051 1.887 1.316.755 2.142 0h4.552z" style="fill:#e9ffff;fill-opacity:1;fill-rule:evenodd;stroke:none;stroke-width:1px;stroke-linecap:butt;stroke-linejoin:miter;stroke-opacity:1" transform="translate(279.73 25.33)"/><path d="m-132.652 23.594 1.357 5.432-9.504-3.476z" style="fill:#fff;fill-opacity:1;fill-rule:evenodd;stroke:none;stroke-width:1px;stroke-linecap:butt;stroke-linejoin:miter;stroke-opacity:1" transform="translate(279.73 25.33)"/></svg>