<!-- Creator: CorelDRAW -->
<svg
   xmlns="http://www.w3.org/2000/svg"
   style="shape-rendering:geometricPrecision; text-rendering:geometricPrecision; image-rendering:optimizeQuality; fill-rule:evenodd; clip-rule:evenodd"
   viewBox="-33.94 -11.88 277.88 320.76"
   id="svg2"
   version="1.0"><title>Herb Kalwaria Zebrzydowska</title><metadata
   id="metadata21"><rdf:RDF><cc:Work
       rdf:about=""><dc:format>image/svg+xml</dc:format><dc:type
         rdf:resource="http://purl.org/dc/dcmitype/StillImage" /></cc:Work></rdf:RDF></metadata><sodipodi:namedview
   guidetolerance="10.0"
   gridtolerance="10.0"
   objecttolerance="10.0"
   borderopacity="1.0"
   bordercolor="#666666"
   pagecolor="#ffffff"
   id="base" />
 <defs
   id="defs4">
  <style
   type="text/css"
   id="style6">
   
    .fil0 {fill:#0A0B0C}
    .fil3 {fill:#6C4236}
    .fil1 {fill:#D9242B}
    .fil2 {fill:#FCDB00}
   
  </style>
 
  <metadata
   id="CorelCorpID_0Corel-Layer" />
  
 
   
   
   
  
    
    
    
    
    
   </defs>
 <path
   id="_69568952"
   class="fil0"
   d="M 233.64814,176.72208 L 233.64814,176.72221 C 233.64801,242.96938 175.85719,297 105,297 C 34.142941,297 -23.648128,242.96938 -23.648128,176.72221 L -23.648128,176.72208 L -23.648128,-1.64709e-005 L 233.64814,0.054138266 L 233.64814,176.7211 L 233.64814,176.72208 z "
   style="fill:#0a0b0c" /><path
   id="_69555808"
   class="fil1"
   d="M 231.12541,176.27733 L 231.12541,176.27745 C 231.12528,241.48135 174.46754,294.66118 105,294.66118 C 35.53234,294.66118 -21.125399,241.48135 -21.125399,176.27745 L -21.125399,176.27733 L -21.125399,2.3389291 L 231.12541,2.3922262 L 231.12541,176.27794 L 231.12541,176.27733 z "
   style="fill:#ff0000;fill-opacity:1" /><path
   style="fill:#0a0b0c"
   d="M -2.853199,72.687158 C 1.1162697,72.687158 4.4747211,75.38399 5.4854053,79.03919 L 8.2901796,79.03919 L 8.2901796,75.545719 L 201.62014,75.545719 L 201.62014,79.039435 L 204.46866,79.039435 C 205.47959,75.384358 208.83791,72.687158 212.80714,72.687158 C 217.57153,72.687158 221.45719,76.572822 221.45719,81.337213 C 221.45719,86.101605 217.57153,89.987269 212.80714,89.987269 C 208.81231,89.987269 205.43633,87.255027 204.44942,83.564051 L 201.62014,83.564051 L 201.62014,213.98263 L 201.43771,213.98263 L 201.43771,234.00089 L 199.14789,234.00089 L 199.14789,213.98263 L 197.20383,213.98263 L 197.20383,234.00089 L 194.91402,234.00089 L 194.91402,213.98263 L 192.83347,213.98263 L 192.83347,234.00089 L 190.54366,234.00089 L 190.54366,213.98263 L 188.59973,213.98263 L 188.59973,234.00089 L 186.30991,234.00089 L 186.30991,213.98263 L 184.22936,213.98263 L 184.22936,234.00089 L 181.93955,234.00089 L 181.93955,213.98263 L 179.99549,213.98263 L 179.99549,234.00089 L 177.70568,234.00089 L 177.70568,213.98263 L 175.62513,213.98263 L 175.62513,234.00089 L 173.33532,234.00089 L 173.33532,213.98263 L 171.39138,213.98263 L 171.39138,234.00089 L 169.10157,234.00089 L 169.10157,213.98263 L 167.0209,213.98263 L 167.0209,234.00089 L 164.73121,234.00089 L 164.73121,213.98263 L 162.74121,213.98263 L 162.74121,234.00089 L 160.45151,234.00089 L 160.45151,213.98263 L 160.25781,213.98263 L 160.25781,121.60334 L 125.68479,121.60334 L 125.68479,213.98263 L 125.50235,213.98263 L 125.50235,234.00089 L 123.21254,234.00089 L 123.21254,213.98263 L 121.2686,213.98263 L 121.2686,234.00089 L 118.97879,234.00089 L 118.97879,213.98263 L 116.89824,213.98263 L 116.89824,234.00089 L 114.60843,234.00089 L 114.60843,213.98263 L 112.66437,213.98263 L 112.66437,234.00089 L 110.37455,234.00089 L 110.37455,213.98263 L 108.29401,213.98263 L 108.29401,234.00089 L 106.00419,234.00089 L 106.00419,213.98263 L 104.06026,213.98263 L 104.06026,234.00089 L 101.77045,234.00089 L 101.77045,213.98263 L 99.689776,213.98263 L 99.689776,234.00089 L 97.400085,234.00089 L 97.400085,213.98263 L 95.456027,213.98263 L 95.456027,234.00089 L 93.166213,234.00089 L 93.166213,213.98263 L 91.085667,213.98263 L 91.085667,234.00089 L 88.795852,234.00089 L 88.795852,213.98263 L 86.805972,213.98263 L 86.805972,234.00089 L 84.516158,234.00089 L 84.516158,213.98263 L 84.322451,213.98263 L 84.322451,121.60334 L 49.652637,121.60334 L 49.652637,213.98263 L 49.470201,213.98263 L 49.470201,234.00089 L 47.180387,234.00089 L 47.180387,213.98263 L 45.236453,213.98263 L 45.236453,234.00089 L 42.946639,234.00089 L 42.946639,213.98263 L 40.866092,213.98263 L 40.866092,234.00089 L 38.576278,234.00089 L 38.576278,213.98263 L 36.632221,213.98263 L 36.632221,234.00089 L 34.342406,234.00089 L 34.342406,213.98263 L 32.26186,213.98263 L 32.26186,234.00089 L 29.972046,234.00089 L 29.972046,213.98263 L 28.028111,213.98263 L 28.028111,234.00089 L 25.738297,234.00089 L 25.738297,213.98263 L 23.65775,213.98263 L 23.65775,234.00089 L 21.367936,234.00089 L 21.367936,213.98263 L 19.423879,213.98263 L 19.423879,234.00089 L 17.134065,234.00089 L 17.134065,213.98263 L 15.053518,213.98263 L 15.053518,234.00089 L 12.763704,234.00089 L 12.763704,213.98263 L 10.773824,213.98263 L 10.773824,234.00089 L 8.4840095,234.00089 L 8.4840095,213.98263 L 8.2903022,213.98263 L 8.2903022,83.564051 L 5.5046413,83.564051 C 4.5177263,87.255027 1.1417543,89.987269 -2.8530765,89.987269 C -7.6174681,89.987269 -11.503132,86.101605 -11.503132,81.337213 C -11.503132,76.572822 -7.6174681,72.687158 -2.8530765,72.687158 L -2.853199,72.687158 z "
   class="fil0"
   id="_69555736" /><polygon
   style="fill:#ffd700;fill-opacity:1"
   points="183.03,98.3897 183.03,201.127 150.976,201.127 150.976,125.708 121.053,125.708 121.053,201.127 88.9994,201.127 88.9994,125.708 58.9974,125.708 58.9974,201.127 26.9435,201.127 26.9435,98.3897 183.03,98.3897 "
   class="fil2"
   id="_69555664"
   transform="matrix(1.2252203,0,0,1.2252203,-23.648128,-33.444855)" /><path
   style="fill:#6c4236"
   d="M 9.3635952,76.600634 L 200.60456,76.600634 L 200.60456,86.082614 L 9.3635952,86.082614 L 9.3635952,76.600634 z M -2.8533215,73.682282 C 0.91043274,73.682282 4.0538579,76.421997 4.6855815,80.008952 L 8.2901796,80.008952 L 8.2901796,82.594534 L 4.6973436,82.594534 C 4.0945353,86.216286 0.93493714,88.992267 -2.8533215,88.992267 C -7.0694271,88.992267 -10.50813,85.553564 -10.50813,81.337091 C -10.50813,77.120985 -7.0694271,73.682282 -2.8533215,73.682282 L -2.8533215,73.682282 z M 212.80751,73.682282 C 209.04387,73.682282 205.90045,76.421997 205.26872,80.008952 L 201.62051,80.008952 L 201.62051,82.594534 L 205.25684,82.594534 C 205.85965,86.216041 209.01925,88.992267 212.80751,88.992267 C 217.02373,88.992267 220.46244,85.553564 220.46244,81.337213 C 220.46244,77.120985 217.02373,73.682282 212.80751,73.682282 L 212.80751,73.682282 z "
   class="fil3"
   id="_69555592" /><polygon
   style="fill:#0a0b0c"
   points="100.904,64.8195 94.4578,83.5444 116.565,83.5444 109.499,64.7374 128.805,71.3256 128.757,51.0395 109.52,56.7572 116.535,38.3757 95.377,38.3757 101.044,56.8119 81.1437,50.1204 81.1437,71.8094 100.904,64.8195 "
   class="fil0"
   id="_69555520"
   transform="matrix(1.2252203,0,0,1.2252203,-23.648128,-25.836628)" /><polygon
   style="fill:#ffd700;fill-opacity:1"
   points="102.284,63.467 95.6186,82.6643 115.308,82.6643 108.097,63.4367 127.877,70.1662 127.877,52.2428 108.123,58.0319 115.332,39.2558 96.488,39.2558 102.271,58.0342 82.0237,51.3237 82.0237,70.6983 102.284,63.467 "
   class="fil2"
   id="_69555448"
   transform="matrix(1.2252203,0,0,1.2252203,-23.648128,-25.836628)" />
</svg>