<!-- Created with Inkscape (http://www.inkscape.org/) -->

<svg
   viewBox="0 0 210 231.7619"
   version="1.1"
   id="svg989"
   xmlns="http://www.w3.org/2000/svg"><title>Herb Sieradz</title>
  <sodipodi:namedview
     id="namedview991"
     pagecolor="#ffffff"
     bordercolor="#666666"
     borderopacity="1.0"
     showgrid="false"
     fit-margin-top="0"
     fit-margin-left="0"
     fit-margin-right="0"
     fit-margin-bottom="0" />
  <defs
     id="defs986" />
  <g
     id="layer1"
     transform="translate(97.151599,-67.936853)">
    <g
       id="g9491">
      <path
         id="_202592056"
         class="fil0"
         d="m 112.8484,199.86285 c 0,54.987 -47.166499,99.8359 -104.998999,99.8359 -57.8343,0 -105.001,-44.8489 -105.001,-99.8359 V 67.936853 H 112.8484 Z m 0,0 z"
         style="clip-rule:evenodd;fill-rule:evenodd;image-rendering:optimizeQuality;shape-rendering:geometricPrecision;text-rendering:geometricPrecision" />
      <path
         id="_202591960"
         class="fil1"
         d="m 110.7484,199.56585 c 0,53.9712 -46.224199,97.9884 -102.898999,97.9884 -56.6766,0 -102.901,-44.0172 -102.901,-97.9884 V 70.081853 H 110.7474 V 199.56585 Z m 0,0 z"
         style="clip-rule:evenodd;fill-rule:evenodd;image-rendering:optimizeQuality;shape-rendering:geometricPrecision;text-rendering:geometricPrecision;fill:#e41013;fill-opacity:1" />
      <path
         id="_202585360"
         class="fil0"
         d="m -74.276999,145.84065 v 9.3148 c 0,1.1956 0.9806,2.1756 2.1758,2.1756 h 0.7852 v 3.937 h 1.5483 v 52.6136 h -5.4114 v 4.6175 h 0.8181 v 39.8815 c 18.8064,23.7622 48.6776,39.1732 82.2107,39.1732 32.8125,0 62.1205,-14.7558 80.9844,-37.6544 v -41.4003 h 0.825 v -4.6175 h -5.0259 v -52.6136 h 0.5701 v -3.937 h 1.7589 c 1.1952,0 2.1803,-0.98 2.1803,-2.1756 v -9.3148 h -10.8211 v 5.571 h -8.5608 v -5.571 h -10.5922 v 5.571 h -8.5653 v -5.571 h -10.7255 l -10e-5,9.3148 c 0,1.1956 0.9782,2.1756 2.1733,2.1756 h 1.4903 v 3.937 h 0.845 v 52.6136 h -17.0927 v -31.0075 h 0.8387 v -3.9413 h 1.4943 c 1.1957,0 2.1756,-0.98 2.1756,-2.1758 v -9.3171 l -10.7296,2e-4 v 5.5776 h -8.5676 v -5.5776 h -10.5853 v 5.5776 h -8.5675 v -5.5776 h -10.8143 v 9.3169 c 0,1.1958 0.9783,2.1758 2.1735,2.1758 h 0.7852 v 3.9413 h 1.5499 v 31.0075 h -16.5669 v -52.6136 h 0.8403 v -3.937 h 1.495 c 1.1951,0 2.1733,-0.98 2.1733,-2.1756 v -9.3151 l -10.7296,3e-4 v 5.571 h -8.5653 v -5.571 h -10.5882 v 5.571 h -8.5653 v -5.571 z"
         style="clip-rule:evenodd;fill-rule:evenodd;image-rendering:optimizeQuality;shape-rendering:geometricPrecision;text-rendering:geometricPrecision" />
      <path
         id="_202591552"
         class="fil0"
         d="m 53.408401,75.146853 -0.2839,0.213 c -7.3897,5.503 -16.1533,10.1114 -25.4666,14.3294 -0.3412,-0.5837 -0.7906,-1.0952 -1.2985,-1.5058 -0.9227,-0.7472 -2.0446,-1.1731 -3.1091,-1.0487 -1.7721,0.206 -3.0165,1.0645 -3.6638,2.2199 -0.6478,1.1556 -0.7035,2.5879 -0.1932,3.9233 0.6235,1.6301 1.599,2.9655 2.1803,4.3644 0.3572,0.8631 0.5479,2.0497 0.4565,3.153997 -0.0908,1.1021 -0.4632,2.1025 -1.1418,2.6571 -1.0134,0.8227 -1.7987,0.8517 -2.7014,0.5013 -0.8885,-0.3444 -1.8622,-1.1118 -3.0284,-1.9268 l -0.4537,-1.0585 c 0.7249,-0.2335 1.3171,-0.4754 1.7477,-1.117897 l -0.2017,-0.164 c -1.5635,-1.2333 -2.3045,-2.4864 -2.6884,-3.7592 0.1602,-0.0091 0.3441,-0.0091 0.4771,-0.029 0.2729,-0.0398 0.4944,-0.084 0.6767,-0.2237 l 0.1573,-0.1243 -0.0643,-0.1931 c -0.7432,-2.2046 -1.1713,-4.0606 -1.4795,-5.8554 -0.3549,-2.0666 -1.0899,-3.6348 -2.2805,-5.2718 0.3198,0.1119 0.4527,0.1087 0.7657,-0.0953 0.2509,-0.164 0.3929,-0.4303 0.3969,-0.6716 0.005,-0.1199 -0.0444,-0.2152 -0.0727,-0.3219 0.3144,-0.0954 0.7205,-0.1239 1.2593,-0.2129 0.4639,-0.0772 0.834,-0.3701 1.1134,-0.6915 0.2793,-0.3197 0.4724,-0.6791 0.5899,-0.963 l 0.1754,-0.4168 -0.4526,0.029 c -2.28,0.1419 -4.0583,-0.5814 -5.3334,-1.2399 -0.8387,-0.435 -2.3069,-0.9869 -3.6643,-0.9692 -1.0424,0.013 -1.927,0.4654 -2.5283,0.9935 -0.3502,0.3075 -0.7149,0.633 -1.2096,0.8715 -0.1648,-0.1008 -0.3491,-0.1737 -0.5488,-0.206 -0.4218,-0.0688 -0.9005,0.0732 -1.3109,0.4768 -1.3706,-0.0112 -2.3932,0.4059 -2.9188,1.1112 -0.5656,0.7608 -0.6718,1.7079 -0.5168,2.4527 l 0.0887,0.4236 0.3486,-0.2526 c 0.4076,-0.2954 0.876,-0.6013 1.5431,-0.7013 0.5338,-0.0792 1.2077,-0.0297 2.1027,0.3079 -0.4199,0.0781 -0.8388,0.2022 -1.2085,0.3468 -0.876,0.3435 -1.5438,0.6074 -2.4663,0.6409 -0.4281,0.0155 -0.7455,-0.122 -1.0736,-0.3219 -0.3282,-0.2015 -0.6496,-0.4701 -1.0579,-0.6518 l -0.4365,-0.1884 0.0443,0.4723 c 0.042,0.4634 0.3059,0.9892 0.6318,1.3859 0.2152,0.2618 0.5281,0.4418 0.8625,0.5615 0.3349,0.1177 0.6898,0.1795 1.0095,0.1329 0.3191,-0.0465 0.6807,-0.1731 1.0112,-0.3014 0.1532,-0.0604 0.2995,-0.1212 0.4277,-0.1748 l 0.3728,0.432 c 0.7165,0.838 1.6079,1.2241 2.3642,1.3904 0.6317,0.139 1.1633,0.1305 1.4634,0.1018 0.3272,0.3129 0.7043,0.4518 0.9588,0.6324 0.9027,0.6455 1.1179,1.5545 0.8538,2.6616 -0.2617,1.1089 -1.0447,2.3818 -2.1536,3.5417 l -0.2282,0.2374 0.2726,0.1885 c 0.2884,0.1953 0.6494,0.2861 1.0135,0.3724 -0.3594,1.6879 -1.0646,3.1585 -2.7367,4.2163 l -0.2975,0.188497 0.2464,0.248 c 0.2373,0.2351 0.6234,0.464 1.0289,0.6922 -0.099,0.1264 -0.1998,0.2522 -0.2922,0.3773 l -0.0957,0.124 c -1.4086,0.6961 -2.7326,1.5081 -3.9078,1.9452 -1.1976,0.4456 -2.1781,0.5211 -3.0626,-0.222 -0.6814,-0.5723 -0.9629,-1.4302 -0.9784,-2.3994 -0.0175,-0.967497 0.2442,-2.027397 0.6098,-2.910297 0.5901,-1.4171 1.4593,-2.9496 2.0759,-4.5643 0.5126,-1.3371 0.4173,-2.7695 -0.268,-3.9166 -0.6853,-1.1468 -1.9628,-1.9939 -3.7348,-2.2 -1.0691,-0.1243 -2.1405,0.3526 -2.999,1.1468 -0.3945,0.3649 -0.7472,0.7982 -1.0365,1.2792 -9.3182,-4.2178 -18.252,-8.6887 -25.6394,-14.1896 l -0.2839,-0.2152 -0.1442,0.3282 c -0.8205,1.9299 -0.8585,3.6355 -0.2929,5.1656 0.5654,1.5285 1.7169,2.8678 3.2225,4.1407 4.4048,3.7171 12.0753,7.3694 19.7691,10.2882 -3.3424,-0.2709 -7.0476,-0.8644 -10.7313,-2.0158 -3.7723,-1.1754 -7.7023,-2.7434 -11.8675,-3.6234 l -0.9539,-0.2044 0.7008,0.6806 c 4.9594,4.8062 12.5743,7.4693 21.515,8.4095 -5.8197,0.599 -12.7345,-0.538 -20.8695,-3.6828 l -0.2726,-0.1045 -0.0953,0.2794 c -0.8029,2.3533 0.3145,4.4626 2.0314,6.032397 1.7164,1.5705 4.0385,2.6572 5.8304,3.1052 3.4332,0.8538 8.4953,0.6739 13.8584,-0.1023 -4.4626,1.382 -10.6489,2.3864 -18.3272,3.0564 l -1.0334,0.0885 0.9379,0.4479 c 0.038,0.0182 0.1067,0 0.1442,0.0205 v 0.004 c 0.0068,0 0.0092,0 0.016,0 4.5108,2.0763 11.5068,1.6192 20.4027,-1.3973 -3.8523,2.564 -9.5601,4.6841 -18.4713,6.1103 l -0.3082,0.0489 0.08,0.3037 c 0.3571,1.3643 1.4746,2.2201 2.9741,2.6107 1.4994,0.3922 3.4019,0.3594 5.4976,0.007 3.6065,-0.608 8.7766,-2.7213 14.0194,-5.5135 -3.1007,2.4016 -7.1216,4.3467 -10.728,5.9791 -1.7767,0.8028 -3.4929,1.8475 -5.1497,2.8099 l -0.7097,0.4128 0.8142,0.1083 c 5.5045,0.7273 12.2362,-2.6457 18.9319,-7.5029 -0.876,1.0164 -1.8967,2.007 -3.5937,3.2737 -2.5727,1.9207 -6.0326,4.101 -10.2039,6.485 l -0.3571,0.2039 0.3235,0.2572 c 1.0051,0.8165 2.2558,1.1469 3.6683,1.0584 1.415,-0.0892 2.9961,-0.586 4.7438,-1.4155 3.3899,-1.6104 7.3882,-4.4874 11.8406,-8.1977 0.1346,1.0916 0.3475,2.1768 0.6116,3.2999 -1.2566,-0.5757 -2.6977,-0.6056 -3.9777,0.005 -1.9094,0.9142 -3.4776,3.1181 -4.7857,4.4756 -2.4557,2.5442 -4.826,4.5553 -7.787,4.5888 l -0.5371,0.004 c 0.9501,1.33 2.3206,2.0832 3.9745,2.1956 1.139,0.0764 2.3507,-0.1238 3.4789,-0.5073 -0.8586,1.013 -1.7704,2.0148 -2.4877,3.1775 -0.96,1.5614 -2.1154,3.0982 -3.6326,4.5977 -1.5312,0.0633 -3.0255,0.0446 -4.4352,-0.1339 -0.844,-0.5385 -1.8739,-0.6341 -2.6573,-0.2675 -0.3992,0.1885 -0.7318,0.5054 -0.9028,0.9448 -0.1549,0.3924 -0.1242,0.8937 0.0092,1.4348 -0.3685,0.3128 -0.6524,0.6341 -0.7057,1.0112 -0.0597,0.4326 0.071,0.8652 0.2594,1.3973 l 0.1532,0.4258 0.3174,-0.3283 c 0.5121,-0.5274 0.5276,-0.6563 1.57,-1.1622 0.3304,0.0267 0.6745,0.058 1.0134,-0.0687 0.3083,-0.1152 0.5524,-0.4456 0.7745,-0.825 0.1373,0.0398 0.4967,0.1489 1.1264,0.2152 0.5234,0.0534 1.2264,-0.0533 1.9032,-0.164 -0.2419,0.3861 -0.4661,0.8097 -0.9097,1.0981 -0.4992,0.3227 -0.9404,0.6612 -1.3244,0.9822 -0.4904,0.0749 -0.912,0.295 -1.2083,0.6166 -0.2817,0.3037 -0.4746,0.7006 -0.5213,1.1156 -0.0373,0.3396 0.1289,0.6654 0.3481,0.954 -0.5564,1.0417 -0.2617,2.4015 0.6211,3.0289 l 0.3328,0.2333 c 0.1948,-0.7331 0.2916,-1.4473 0.8575,-2.0022 0.7262,-0.2136 1.421,-0.9654 1.3719,-1.964 l 1.8823,-1.838 0.7637,2.4352 c -0.2541,0.6271 -0.2169,1.3016 0.1101,1.8055 0.2884,0.4456 0.9072,0.5723 1.5637,0.5411 0.1799,0.5563 0.3464,1.1644 0.5371,1.7385 l 0.1237,0.3729 0.3129,-0.235 c 0.3724,-0.2754 0.6211,-0.7257 0.7585,-1.2156 0.1328,-0.4724 0.1397,-0.9845 -0.0045,-1.4416 0.2532,-0.4128 0.4922,-0.9204 0.2884,-1.5971 -0.1289,-0.4257 -0.603,-0.7648 -1.1623,-0.9448 -0.1152,-0.5983 -0.4366,-1.2149 -0.6364,-1.672 -0.1176,-0.2771 -0.2084,-0.5792 -0.2618,-0.8364 -0.0045,-0.0198 -0.0023,-0.0198 -0.0068,-0.0398 0.3819,0.1417 0.8007,0.3081 1.2652,0.7491 0.268,0.7871 0.7332,1.2785 1.2637,1.5152 0.4679,0.2107 0.9555,0.1642 1.4012,0.0755 0.0381,0.042 0.0846,0.113 0.1221,0.2527 0.0443,0.1624 0.0732,0.3731 0.0953,0.5923 0.0222,0.2174 0.0444,0.4438 0.0801,0.65 0.0353,0.2062 0.0755,0.4014 0.2283,0.5701 l 0.4166,0.4633 0.0694,-0.6212 c 0.0063,-0.0483 0.0596,-0.206 0.1397,-0.3922 0.0795,-0.1864 0.184,-0.4061 0.2878,-0.6411 0.2398,-0.5396 0.4334,-1.2165 0.0582,-1.9514 0.1893,-0.509 0.2157,-0.9652 0.1104,-1.3553 -0.1152,-0.4213 -0.3832,-0.754 -0.7097,-0.9822 -0.6196,-0.4357 -1.4408,-0.557 -2.1125,-0.4407 l -1.3582,-0.8573 c 1.6076,-2.4062 3.3041,-4.7877 5.0537,-7.1518 -0.0217,0.5394 -0.0158,1.0071 0.0364,1.3925 0.08,0.5984 0.2594,1.06 0.5898,1.3659 0.3435,0.3174 0.7676,0.4991 1.2707,0.5747 0.5058,0.0771 1.1003,0.0573 1.8474,-0.0136 l 0.4083,-0.0398 -0.1839,-0.3679 c -0.5701,-1.1401 -0.6678,-2.0206 -0.5213,-2.7769 0.1459,-0.754 0.5518,-1.402 1.0464,-2.0248 0.708,-0.8897 1.9123,-1.8854 2.7816,-2.6219 0.7329,-0.6201 1.1599,-1.2014 1.4809,-1.817 l 0.0691,0.2625 c 0.4501,1.7124 0.8163,3.1449 1.0377,5.0746 0.1892,1.6567 0.3084,3.7945 -0.2924,5.1741 -0.805,1.8407 -2.477,2.5413 -4.0832,2.7014 -1.5943,0.1597 -3.1733,-0.8272 -4.0165,-1.659 l -0.3571,-0.3503 -0.1153,0.49 c -0.8447,3.7036 1.1402,6.4028 3.7241,7.0818 2.2223,0.5831 4.7004,-0.083 6.2884,-2.9196 -0.2174,1.1486 -0.4535,1.7619 -0.9748,3.0593 -0.3502,0.8737 -0.7715,1.6653 -1.2416,2.2245 -0.4684,0.5564 -0.9652,0.8693 -1.4995,0.8693 h -0.4571 l 0.2044,0.4059 c 0.2482,0.4923 0.7785,1.2906 1.8186,1.559 0.9357,0.2419 1.9257,0.2186 2.8416,-0.5797 -0.0489,2.6787 -0.3378,3.7575 2.3369,10.0212 l 0.248,0.5853 0.2686,-0.5768 c 2.4267,-5.2338 2.333,-6.7943 2.4482,-9.6842 0.7785,0.5036 1.5971,0.5801 2.2738,0.3382 0.8092,-0.2862 1.4371,-0.9755 1.763,-1.7675 l 0.113,-0.2884 -0.297,-0.0887 c -1.6924,-0.5098 -2.5594,-1.9694 -3.0097,-3.5996 -0.3457,-1.2553 -0.4169,-1.9855 -0.4169,-2.9792 0.6502,1.3241 1.4372,2.2032 2.3202,2.7953 1.1354,0.7607 2.397,0.9294 3.5502,0.59 2.3045,-0.6763 4.1519,-3.3135 4.1122,-6.9818 l -0.007,-0.661 -0.4701,0.4638 c -0.3838,0.3771 -1.1798,0.796 -2.0756,1.0709 -0.8967,0.2776 -1.9009,0.4236 -2.7084,0.3441 -1.6055,-0.1619 -3.2777,-0.8631 -4.0811,-2.7016 -0.4763,-1.0889 -0.5052,-2.6547 -0.3969,-4.0765 0.1556,-2.0558 0.7677,-3.93 1.2997,-5.9593 0.1177,-0.4479 0.2419,-0.8845 0.3697,-1.3113 0.37,0.8191 0.9987,1.7891 1.8814,2.4867 0.8693,0.7387 2.0651,1.7322 2.7702,2.6174 0.4968,0.6251 0.9004,1.2661 1.0469,2.0223 0.1489,0.7541 0.0512,1.6392 -0.5211,2.7792 l -0.184,0.3679 0.4077,0.0404 c 0.75,0.071 1.3422,0.0908 1.8474,0.0153 0.506,-0.0778 0.9272,-0.264 1.2713,-0.5809 0.3304,-0.3065 0.5099,-0.763 0.5921,-1.362 0.0515,-0.3818 0.0565,-0.8466 0.0343,-1.3836 1.7505,2.4186 3.4773,5.1236 5.0956,7.5626 l -1.4553,0.918 0.2129,-0.035 c -0.692,-0.1512 -1.5743,-0.0382 -2.2306,0.4234 -0.3266,0.2282 -0.5945,0.5541 -0.7098,0.9777 -0.1136,0.4218 -0.0732,0.9204 0.1595,1.4797 l 0.02,-0.2488 c -0.4656,0.783 -0.2641,1.5064 -0.0114,2.0763 0.1044,0.2329 0.2089,0.4543 0.2884,0.6405 0.0801,0.1845 0.1289,0.3486 0.1352,0.3974 l 0.0732,0.6143 0.4173,-0.4616 c 0.1527,-0.1686 0.193,-0.3634 0.2282,-0.57 0.038,-0.206 0.0535,-0.432 0.0755,-0.6518 0.0222,-0.2175 0.0512,-0.4235 0.0955,-0.5854 0.0375,-0.1419 0.0885,-0.2151 0.1282,-0.2576 0.4441,0.0867 0.9272,0.1356 1.3951,-0.075 0.5456,-0.2442 1.0293,-0.7563 1.291,-1.5835 l -0.0687,0.1129 c 0.4809,-0.4746 0.9158,-0.6477 1.3104,-0.7942 -0.004,0.0204 -0.002,0.0204 -0.006,0.0402 -0.0532,0.255 -0.1419,0.5588 -0.2617,0.8335 -0.1976,0.4571 -0.5143,1.0714 -0.6318,1.6705 -0.5662,0.1747 -1.0386,0.5211 -1.1668,0.9469 -0.2044,0.6763 0.0312,1.1867 0.2839,1.5988 -0.1443,0.4571 -0.1375,0.9692 -0.005,1.4416 0.1373,0.4905 0.39,0.9409 0.7631,1.2156 l 0.3144,0.2329 0.1222,-0.3726 c 0.1907,-0.5723 0.3526,-1.1797 0.5326,-1.7367 0.6563,0.0312 1.2798,-0.0955 1.5698,-0.5411 0.3441,-0.5321 0.3663,-1.2554 0.0647,-1.9117 l 0.0132,0.2015 0.796,-2.526 1.9764,1.9276 -0.0847,-0.2349 c -0.1283,1.1064 0.6478,1.9382 1.4353,2.1268 l -0.1243,-0.071 c 0.3549,0.3282 0.4837,0.5189 0.5654,0.7296 0.0824,0.2129 0.1154,0.4854 0.2329,0.9294 l 0.1045,0.3922 0.3326,-0.2327 c 0.8829,-0.628 1.1844,-1.9894 0.6274,-3.0296 0.2198,-0.2884 0.3861,-0.6165 0.3463,-0.9539 -0.0465,-0.4144 -0.2395,-0.8113 -0.5211,-1.1179 -0.3129,-0.3367 -0.77,-0.5633 -1.2958,-0.6251 l 0.1489,0.0643 c -0.3991,-0.3351 -0.8625,-0.6963 -1.3905,-1.038 -0.4434,-0.2861 -0.6608,-0.7097 -0.9027,-1.0981 0.6745,0.1113 1.3728,0.2197 1.8963,0.1647 0.6296,-0.0647 0.9959,-0.1754 1.131,-0.2129 0.2221,0.377 0.4661,0.7097 0.7762,0.8249 0.3372,0.1261 0.679,0.0955 1.0072,0.0688 1.0424,0.5031 1.0644,0.6387 1.5743,1.1661 l 0.3174,0.3289 0.1488,-0.4328 c 0.1885,-0.5303 0.319,-0.9623 0.2595,-1.3949 -0.0534,-0.3771 -0.3304,-0.699 -0.7012,-1.0134 0.1334,-0.5395 0.1641,-1.0364 0.0114,-1.4308 -0.1732,-0.4367 -0.5105,-0.761 -0.9097,-0.9472 -0.8005,-0.3746 -1.8537,-0.2617 -2.7054,0.3084 l 0.1177,-0.0465 c -1.4285,0.1885 -2.9457,0.202 -4.4979,0.1395 -1.5172,-1.5011 -2.6748,-3.0358 -3.6355,-4.5971 -0.7311,-1.1876 -1.7053,-2.4817 -2.6069,-3.6346 1.1507,0.4022 2.3921,0.614 3.5608,0.5363 1.6564,-0.113 3.0157,-0.8683 3.9766,-2.1915 l -0.5411,-0.005 c -2.9609,-0.0328 -5.3296,-2.0467 -7.7869,-4.5931 l 0.0113,0.0158 c -1.1689,-1.3796 -2.8279,-3.418 -4.7816,-4.4802 -0.7075,-0.3838 -1.5307,-0.5298 -2.3642,-0.4611 -0.5985,0.0493 -1.2014,0.2105 -1.7723,0.4763 0.133,-0.3852 0.2606,-0.7665 0.3813,-1.1463 0.2287,-0.7202 0.432,-1.4351 0.5943,-2.1547 4.4818,3.732 8.6849,6.6973 12.2718,8.3872 1.8407,0.8647 3.5219,1.395 5.0055,1.5125 1.4835,0.1198 2.7831,-0.1884 3.7948,-1.0072 l 0.3169,-0.2573 -0.3571,-0.2038 c -4.1715,-2.3846 -7.6246,-4.5755 -10.1953,-6.5117 -1.679,-1.2643 -2.4502,-2.0695 -3.324,-3.0854 6.7514,5.0237 13.4176,8.3328 18.9023,7.3169 l 0.7448,-0.1395 -0.6563,-0.3771 c -1.6545,-0.9623 -3.373,-2.0071 -5.1496,-2.8099 -3.5951,-1.6277 -7.5706,-3.451 -10.6973,-5.813 5.2581,2.7611 10.3952,4.7394 13.9903,5.3447 2.094,0.3531 4.001,0.3838 5.5028,-0.008 1.499,-0.3929 2.6101,-1.2464 2.9695,-2.6129 l 0.0777,-0.297 -0.3014,-0.051 c -8.9049,-1.424 -14.717,-3.4604 -18.6113,-6.0153 8.9157,3.0051 16.0251,3.378 20.5382,1.3046 0.005,0 0.009,-0.002 0.0137,0 v -0.007 c 0.0398,-0.0175 0.1107,0 0.1505,-0.0198 l 0.9384,-0.4458 -1.0379,-0.0885 c -7.6807,-0.67 -13.9,-1.5927 -18.4001,-2.932 5.4046,0.7358 10.5019,0.8296 13.9308,-0.0243 1.7924,-0.4457 4.1145,-1.537 5.8286,-3.1075 1.717,-1.569797 2.8342,-3.681397 2.0315,-6.034697 l -0.0931,-0.2771 -0.2749,0.1085 c -8.1174,3.1362 -15.1753,4.4038 -20.995,3.8497 8.931,-0.9714 16.6926,-3.781 21.6401,-8.5758 l 0.7011,-0.6808 -0.9538,0.1977 c -4.1652,0.88 -8.0952,2.4481 -11.8675,3.6257 -3.6553,1.1401 -7.0011,1.7428 -10.2397,2.0443 7.625,-2.9321 14.8925,-6.6131 19.2774,-10.3122 1.508,-1.2729 2.6566,-2.6127 3.2227,-4.1407 0.5655,-1.5301 0.5296,-3.238 -0.2929,-5.1654 z m -54.641,10.8493 c 0.0853,-0.0354 0.1577,-0.0641 0.211,-0.0837 0.8504,-0.3047 2.1936,-0.3956 3.0461,-0.2173 -0.4379,0.1725 -0.9957,0.2874 -1.5205,0.3217 -0.6541,0.042 -1.2042,0.0108 -1.2815,0.0068 z"
         style="clip-rule:evenodd;fill-rule:evenodd;image-rendering:optimizeQuality;shape-rendering:geometricPrecision;text-rendering:geometricPrecision" />
      <path
         id="_113177504"
         class="fil2"
         d="m -7.152899,128.24085 c -1.9498,2.6182 -3.8451,5.2567 -5.6277,7.9364 l -0.1594,0.2374 2.0468,1.2865 0.109,-0.0244 c 0.5251,-0.1153 1.3036,-0.009 1.7872,0.3326 0.2419,0.1687 0.4106,0.3884 0.4878,0.67 0.0755,0.2817 0.0625,0.6428 -0.1352,1.1175 l -0.0532,0.1289 0.0685,0.1197 c 0.3596,0.6031 0.2152,1.0357 -0.0198,1.5637 -0.0442,0.0975 -0.0862,0.184 -0.1282,0.277 -0.007,-0.0488 -0.0092,-0.0863 -0.016,-0.1375 -0.0244,-0.2259 -0.0505,-0.457 -0.1084,-0.6761 -0.0596,-0.2174 -0.151,-0.4326 -0.3435,-0.586 l -0.1091,-0.093 -0.1395,0.038 c -0.3924,0.113 -0.8495,0.1197 -1.2464,-0.0579 -0.3973,-0.1795 -0.7585,-0.5344 -0.9827,-1.2417 l -0.0199,-0.0647 -0.0488,-0.0512 c -0.6763,-0.6648 -1.3775,-1.0929 -2.0071,-1.1752 l -0.2839,-0.0397 -0.0335,0.2815 c -0.0244,0.1953 0.009,0.4083 0.0687,0.6962 0.0625,0.2884 0.1602,0.6233 0.2975,0.943 0.2176,0.499 0.5212,1.1088 0.6075,1.5789 l 0.0404,0.2197 0.2213,0.009 c 0.5593,0.0334 0.7967,0.3906 0.9051,0.75 0.1755,0.5808 0.0068,0.9579 -0.2396,1.3058 l -0.084,0.1199 0.0442,0.1335 c 0.113,0.3212 0.1085,0.7623 -0.0045,1.1615 -0.0602,0.2135 -0.1884,0.3243 -0.2929,0.4883 -0.1262,-0.419 -0.2504,-0.8385 -0.3878,-1.2507 l -0.0778,-0.2442 -0.2486,0.0533 c -0.6649,0.1489 -1.0557,-0.0533 -1.2776,-0.3969 -0.2214,-0.3416 -0.2549,-0.8674 -0.0245,-1.3705 l 0.045,-0.0976 -1.1027,-3.5111 -2.7297,2.6657 0.013,0.1395 c 0.0931,0.8075 -0.5143,1.3912 -1.0066,1.5087 l -0.071,0.0198 -0.0535,0.0512 c -0.5311,0.3785 -0.8032,1.2048 -0.7781,1.4666 -0.3227,-0.229 -0.6135,-1.3102 -0.2001,-2.1122 l 0.129,-0.2039 -0.184,-0.1601 c -0.2021,-0.1725 -0.2709,-0.4014 -0.2374,-0.6806 0.0308,-0.2772 0.1772,-0.5831 0.3771,-0.7983 0.2129,-0.2306 0.5364,-0.4061 0.9425,-0.4526 l 0.084,-0.005 0.0647,-0.0552 c 0.3879,-0.3264 0.8335,-0.6721 1.3371,-0.998 0.7693,-0.4991 1.2378,-1.282 1.479,-1.7721 l 0.2884,-0.5858 -0.6251,0.1929 c -0.8471,0.2641 -1.7169,0.2664 -2.384,0.1999 -0.6677,-0.0687 -1.1095,-0.2021 -1.1913,-0.2242 l -0.2394,-0.0709 -0.0932,0.2287 c -0.1953,0.4503 -0.4014,0.6228 -0.6364,0.712 -0.2351,0.0862 -0.535,0.075 -0.8898,0.0442 l -0.0794,-0.007 -0.0687,0.0352 c -0.8715,0.4196 -1.0539,0.6813 -1.3667,1.0094 -0.0726,-0.2731 -0.1726,-0.57 -0.1481,-0.7409 0.0351,-0.2595 0.1725,-0.4814 0.5808,-0.7853 l 0.1595,-0.1175 -0.0597,-0.1907 c -0.1617,-0.5251 -0.1418,-0.9272 -0.0243,-1.2264 0.1153,-0.2969 0.3304,-0.5098 0.6211,-0.6455 0.5763,-0.2704 1.4615,-0.1947 2.1581,0.2685 l 0.055,0.0358 0.0642,0.008 c 1.5126,0.1999 3.1006,0.2199 4.7175,0.1511 l 0.1045,-0.007 0.0795,-0.0734 c 1.5972,-1.5636 2.7923,-3.1738 3.7905,-4.7925 0.8102,-1.3165 1.92,-2.4558 2.932,-3.7038 z m 7.4302,-46.952897 c 0.0867,0.141 0.1199,0.2816 0.136,0.4548 0.022,0.2128 0.009,0.4683 0.0442,0.7585 0.0509,0.3961 0.202,0.7399 0.3987,1.0477 -0.8673,-0.2964 -1.5755,-0.3506 -2.1661,-0.2625 -0.5656,0.0845 -1.064,0.3971 -1.4256,0.6208 -0.0245,-0.5274 0.139,-1.1641 0.4984,-1.6434 0.4339,-0.5861 1.1924,-1.0269 2.5144,-0.9759 z m 1.7761,3.8339 c -1.0005,-0.2047 -2.3125,-0.0821 -3.2634,0.2608 -0.1954,0.0687 -0.4883,0.1992 -0.805,0.3214 -0.3151,0.1242 -0.6565,0.2372 -0.8829,0.2686 -0.184,0.0265 -0.4746,-0.0092 -0.741,-0.1046 -0.2635,-0.0931 -0.5007,-0.2418 -0.6143,-0.3815 -0.0795,-0.0977 -0.0908,-0.2152 -0.1595,-0.3373 0.0867,0.0557 0.1555,0.0954 0.2486,0.1534 0.3702,0.2259 0.8205,0.4281 1.3859,0.4081 1.0204,-0.0402 1.7744,-0.3372 2.6504,-0.6808 0.5915,-0.2329 1.3683,-0.4081 1.9427,-0.4007 0.1014,0.1159 0.1594,0.2707 0.2376,0.4894 z m -0.0703,-1.082 c -0.4637,-0.4995 -0.8924,-1.0057 -0.9685,-1.6073 -0.029,-0.2282 -0.0177,-0.4746 -0.0443,-0.745 -0.0196,-0.1986 -0.0673,-0.4143 -0.1777,-0.6243 0.2382,-0.1741 0.4531,-0.2039 0.6546,-0.17 0.2481,0.0403 0.4968,0.2044 0.6738,0.4259 0.3924,0.4905 0.3861,1.2087 0.1244,1.6147 l -0.1578,0.2487 0.2533,0.1482 c 0.4854,0.2799 0.754,0.6631 1.002,1.0782 0.1777,0.2946 0.2731,0.7807 0.3288,1.1219 0.1305,0.8119 -0.1777,1.3331 -0.8784,1.8719 -0.2022,0.0245 -0.6921,0.0687 -1.3178,-0.0687 -0.4122,-0.0931 -1.0368,-0.4788 -1.4694,-0.7605 0.1511,-0.0045 0.3607,0.0217 0.5314,0.011 0.6922,-0.0443 1.5013,-0.1578 2.1003,-0.5036 l 0.1595,-0.093 -0.0198,-0.1795 c -0.0352,-0.3441 -0.1107,-0.6455 -0.1931,-0.8783 -0.1128,-0.3156 -0.2599,-0.6672 -0.6013,-0.8903 z m 19.4813,43.790797 1.543,-1.2278 c 1.0067,1.2762 2.1688,2.7879 2.9909,4.121 0.9959,1.6193 2.1911,3.225 3.7881,4.7885 l 0.075,0.0728 0.109,0.005 c 1.6165,0.071 3.2006,0.0512 4.7131,-0.1483 l 0.0641,-0.009 0.0534,-0.0357 c 0.6984,-0.4656 1.5835,-0.5343 2.1597,-0.2612 0.2908,0.135 0.506,0.3412 0.6212,0.6381 0.1175,0.2999 0.142,0.7013 -0.0199,1.2271 l -0.0602,0.1884 0.1601,0.1198 c 0.4077,0.3037 0.5456,0.5251 0.5809,0.7847 0.0244,0.1708 -0.0795,0.4683 -0.1528,0.7408 -0.3128,-0.3259 -0.4944,-0.5898 -1.3665,-1.0089 l -0.0687,-0.0358 -0.0755,0.007 c -0.3526,0.0314 -0.6541,0.0422 -0.8892,-0.0443 -0.235,-0.0885 -0.4412,-0.2616 -0.6341,-0.712 l -0.1,-0.2219 -0.2329,0.0647 c -0.0822,0.0222 -0.5233,0.1597 -1.1933,0.2282 -0.6671,0.0687 -1.537,0.0597 -2.3818,-0.2037 l -0.6274,-0.193 0.2878,0.5853 c 0.2419,0.4899 0.7097,1.2729 1.4797,1.772 0.5036,0.3259 0.9447,0.6723 1.3331,0.9982 l 0.0642,0.0555 0.084,0.008 c 0.4059,0.0467 0.7295,0.2175 0.9425,0.4481 0.1999,0.2152 0.3463,0.5211 0.3769,0.7987 0.0336,0.2772 -0.0306,0.5076 -0.2327,0.6808 l -0.184,0.1595 0.1289,0.2017 c 0.4196,0.622 0.2468,1.746 -0.1437,2.085 -10e-4,-0.3399 -0.3063,-1.1553 -0.8346,-1.4372 l -0.0533,-0.0511 -0.0755,-0.0154 c -0.4923,-0.1152 -1.0952,-0.7051 -1.0022,-1.5148 l 0.0153,-0.1374 -2.732,-2.668 -1.1026,3.5107 0.0443,0.0999 c 0.2327,0.5036 0.1976,1.0287 -0.0245,1.3706 -0.2214,0.3412 -0.6098,0.5456 -1.2751,0.3969 l -0.2482,-0.0535 -0.08,0.2419 c -0.1374,0.4151 -0.2618,0.8385 -0.3878,1.2576 -0.1045,-0.1664 -0.2334,-0.2794 -0.293,-0.4923 -0.1129,-0.3991 -0.1221,-0.8362 -0.009,-1.1576 l 0.0488,-0.1375 -0.084,-0.1197 c -0.2464,-0.3486 -0.4191,-0.7257 -0.2442,-1.3064 0.109,-0.3618 0.3527,-0.7189 0.9095,-0.7495 l 0.2237,-0.009 0.0335,-0.2197 c 0.0864,-0.4701 0.3969,-1.0821 0.6121,-1.579 0.1374,-0.3196 0.2351,-0.654 0.2969,-0.9424 0.0624,-0.2907 0.0954,-0.5014 0.0687,-0.6966 l -0.0328,-0.2816 -0.2839,0.0379 c -0.6298,0.0841 -1.3286,0.5122 -2.0049,1.1777 l -0.051,0.0487 -0.0199,0.0665 c -0.2242,0.7052 -0.5859,1.0669 -0.9828,1.2463 -0.3968,0.1777 -0.8539,0.1708 -1.2463,0.0578 l -0.1397,-0.038 -0.113,0.0892 c -0.1929,0.1527 -0.2798,0.3679 -0.3394,0.5853 -0.0579,0.2197 -0.0846,0.4503 -0.1091,0.6763 -0.004,0.051 -0.013,0.0908 -0.0198,0.142 -0.042,-0.0932 -0.0795,-0.184 -0.1238,-0.2817 -0.2356,-0.5276 -0.3838,-0.9555 -0.0244,-1.5592 l 0.075,-0.1242 -0.0551,-0.1283 c -0.1976,-0.4748 -0.2152,-0.8364 -0.1397,-1.1181 0.0773,-0.2815 0.2505,-0.5013 0.4922,-0.6698 0.4831,-0.3414 1.2576,-0.4436 1.7829,-0.3282 l 0.1135,0.0243 2.0468,-1.2904 -0.1641,-0.2396 c -1.776,-2.6668 -3.7046,-5.7103 -5.6604,-8.3603 z"
         style="clip-rule:evenodd;fill-rule:evenodd;image-rendering:optimizeQuality;shape-rendering:geometricPrecision;text-rendering:geometricPrecision;fill:#fdeb01;fill-opacity:1" />
      <path
         id="_202591672"
         class="fil3"
         d="m 0.167501,117.20025 c 0.3662,1.4665 0.8084,3.0098 1.2718,4.7222 -0.347,0.8261 -0.7101,1.4652 -1.6228,2.2363 -0.8647,0.7342 -2.0826,1.7324 -2.8541,2.7014 -0.5212,0.6547 -0.989,1.3798 -1.1622,2.2649 -0.1505,0.7716 0.0687,1.7118 0.4967,2.7367 -0.5501,0.0397 -1.0555,0.0663 -1.4057,0.0153 -0.4236,-0.0642 -0.7142,-0.197 -0.9714,-0.4367 -0.1999,-0.1846 -0.3419,-0.4945 -0.4128,-1.0248 -0.0733,-0.5279 -0.0643,-1.2554 0.009,-2.2046 l 0.0107,-0.1487 -1.9807,-1.5734 c 0.5205,-1.8293 1.3407,-2.9124 2.686,-3.5053 0.5746,-0.2549 1.3155,-0.4746 1.9764,-0.8494 0.6608,-0.3747 1.2531,-0.9358 1.4393,-1.823 l -0.5501,-0.1154 c -0.1483,0.7052 -0.5855,1.1156 -1.1686,1.4462 -0.5836,0.3304 -1.3019,0.5478 -1.9252,0.8248 -1.5327,0.6753 -2.4824,1.9833 -3.0293,3.9703 -1.2625,0.552 -2.7413,0.8274 -4.0633,0.736 -1.1798,-0.08 -2.0846,-0.4812 -2.7812,-1.1735 2.8542,-0.3349 5.2232,-2.291 7.505,-4.6552 1.3598,-1.4103 2.9297,-3.5502 4.6223,-4.3599 1.2645,-0.6055 2.704,-0.4968 3.9102,0.2158 z m 12.3552,3.6276 c 0.449,-1.4005 0.9314,-2.6999 1.3767,-3.9525 1.3331,-0.8253 2.9642,-0.9407 4.1389,-0.3036 1.8032,0.9805 3.4532,2.9586 4.6268,4.3452 l 0.006,0.0107 0.005,0.004 c 2.28,2.3643 4.6705,4.3331 7.527,4.6659 -0.696,0.692 -1.6252,1.0896 -2.805,1.1691 -1.3378,0.0901 -2.8345,-0.197 -4.1069,-0.7601 -0.5551,-1.9874 -1.6009,-2.9734 -3.0991,-3.6356 -0.6343,-0.2794 -1.3326,-0.4525 -1.8919,-0.7342 -0.5564,-0.2815 -0.9578,-0.6341 -1.1066,-1.3416 l -0.5524,0.1153 c 0.1862,0.8846 0.7653,1.4042 1.4063,1.7277 0.6411,0.3236 1.3553,0.4945 1.9209,0.745 1.3911,0.6133 2.2462,1.3945 2.7643,3.2214 l -1.9485,1.545 0.009,0.155 c 0.0756,0.9492 0.0818,1.6765 0.0108,2.2046 -0.0708,0.528 -0.2152,0.8386 -0.4122,1.0226 -0.2594,0.2395 -0.5501,0.3724 -0.9737,0.4365 -0.3479,0.0534 -0.8539,0.0267 -1.4063,-0.0153 0.4304,-1.0225 0.6478,-1.9627 0.4968,-2.7344 -0.1704,-0.8875 -0.641,-1.6147 -1.1623,-2.2711 -0.7715,-0.9692 -1.9887,-1.9672 -2.8541,-2.7014 h -0.005 l -0.006,-0.004 c -1.0222,-0.8095 -1.7197,-2.1358 -1.9585,-2.9142 z m -0.5757,-0.0383 c -0.7693,-0.5212 -1.3817,-1.221 -1.7752,-2.1421 l -0.2776,-0.6449 -0.248,0.6608 c -0.4016,1.0777 -1.1668,2.0002 -2.4397,2.7702 -1.4125,-0.8142 -2.3107,-1.7147 -2.7343,-2.7014 l -0.2753,-0.6366 -0.2482,0.6451 c -0.3935,1.0268 -1.0901,1.7177 -2.2263,2.0755 -0.548,-1.997 -1.0457,-3.7561 -1.4001,-5.4456 1.5559,-0.4801 2.7021,-1.5237 3.6776,-2.7175 0.7273,1.1531 1.8315,2.1489 3.4308,2.9365 l 0.1237,0.0641 0.1289,-0.071 c 1.1202,-0.5791 2.2621,-1.6125 3.422,-2.7344 0.6212,0.6967 1.5679,1.3611 2.8792,2.0356 -0.5884,1.833 -1.3506,3.7396 -2.0375,5.9057 z m -10.0756,0.5704 c 0.4471,-0.1373 0.8326,-0.3165 1.1654,-0.5435 0.4134,3.0003 1.2108,5.9774 2.2247,8.9405 0.734,2.1536 1.4148,4.8084 1.7121,7.075 l 0.4242,2.4864 0.1368,-2.5109 c 0.1465,-3.021 0.876,-6.363 1.9605,-9.5742 0.7134,-2.1069 1.1974,-4.1753 1.6869,-6.3149 0.1846,0.155 0.382,0.2981 0.591,0.4321 -0.149,0.4903 -0.2935,0.9942 -0.4303,1.5132 -0.5276,2.0094 -1.1578,3.9233 -1.3196,6.0638 -0.1107,1.4568 -0.1062,3.083 0.4411,4.3399 0.8983,2.0566 2.8122,2.8593 4.5444,3.0343 1.7182,0.1701 3.3279,-0.2965 4.7288,-1.2476 -0.1595,3.1403 -1.8053,5.3616 -3.6864,5.9141 -1.0002,0.2947 -2.0689,0.155 -3.0783,-0.5213 -1.009,-0.6761 -1.9559,-1.9049 -2.6412,-3.8193 l -0.548,0.08 c -0.042,1.0049 -0.0443,2.8213 0.4326,4.549 0.4435,1.6033 1.4042,3.0761 3.0648,3.7591 -0.29,0.5723 -0.7226,1.1021 -1.2819,1.3019 -0.6251,0.2214 -1.3485,0.1352 -2.1446,-0.5723 l -0.4434,-0.3923 -0.0244,0.5921 c -0.1312,2.9274 -0.1373,4.6659 -2.1648,9.2706 -2.2817,-5.567 -2.071,-6.9665 -2.0512,-9.7787 l 0.005,-0.7897 -0.5014,0.608 c -0.9049,1.089 -1.8054,1.1884 -2.7656,0.9425 -0.7165,-0.1839 -1.0247,-0.6943 -1.2621,-1.1026 0.5433,-0.1436 1.0828,-0.3322 1.4905,-0.8205 0.5325,-0.6296 0.9674,-1.4744 1.3308,-2.3817 0.721,-1.7963 1.1446,-3.8416 1.3019,-5.061 0.002,-0.0137 0.0136,-0.0443 0.0153,-0.0602 l -0.5474,-0.1238 c -1.3286,3.8341 -4.1565,4.9543 -6.4605,4.3514 -2.165,-0.57 -3.8388,-2.8253 -3.3777,-5.9548 0.9714,0.8027 2.4613,1.6585 4.0538,1.499 1.7324,-0.1732 3.644,-0.9761 4.5445,-3.0343 0.6943,-1.592 0.5234,-3.788 0.3327,-5.467 -0.226,-1.9672 -0.5991,-3.4395 -1.0492,-5.1541 -0.1381,-0.5257 -0.2747,-1.0344 -0.4093,-1.5282 z m 8.8343,-0.8967 c -0.5165,2.2568 -1.0082,4.4118 -1.7448,6.5923 -0.9584,2.8258 -1.4683,5.7089 -1.7301,8.4568 -0.3525,-2.0008 -0.8202,-4.1322 -1.4392,-5.9394 -1.0435,-3.0546 -1.8492,-6.1164 -2.2424,-9.1859 0.2706,-0.2765 0.4952,-0.6014 0.6808,-0.9799 0.5343,1.0646 1.3419,1.8402 2.8521,2.6629 l 0.1356,0.0732 0.133,-0.0732 c 1.366,-0.7677 2.0657,-1.6662 2.5517,-2.7659 0.2303,0.4432 0.4965,0.8248 0.8033,1.1591 z m -8.1622,-39.522997 c 0.4691,-0.2596 0.8242,-0.5745 1.1282,-0.843 0.5144,-0.4501 1.2792,-0.847 2.1597,-0.8584 h 0.005 c 1.195,-0.0153 2.6303,0.5127 3.3974,0.9096 1.211,0.6251 3.034,1.2042 5.1786,1.1952 -0.0948,0.1799 -0.1795,0.3571 -0.3282,0.5278 -0.2259,0.2596 -0.4946,0.4549 -0.7739,0.5014 -0.5632,0.0932 -1.1287,0.0512 -1.6346,0.2969 l -0.2282,0.1154 0.0908,0.2372 c 0.0687,0.1863 0.1152,0.3464 0.113,0.4327 -0.002,0.0864 -0.004,0.1199 -0.1397,0.2084 -0.1022,0.0664 -0.2015,0.0777 -0.377,0.0244 -0.1754,-0.0534 -0.4128,-0.1908 -0.6852,-0.4258 l -0.3969,0.3928 c 1.5455,1.8295 2.3198,3.6082 2.7213,5.948 0.2992,1.7322 0.7449,3.5661 1.4347,5.6669 -0.071,0.0244 -0.1085,0.0528 -0.248,0.0732 -0.2312,0.033 -0.5395,0.0528 -0.8983,0.055 l -0.3532,0.0046 0.0846,0.3436 c 0.3374,1.4216 1.3531,2.7791 2.9007,4.0856 -0.3497,0.417697 -0.8681,0.599197 -1.3822,0.741297 -0.4944,-0.0415 -1.0046,-0.368 -1.523,-0.845897 l -0.2396,-0.2174 -0.1817,0.2618 c -0.3815,0.539397 -0.8652,0.966797 -1.5103,1.277397 -0.7965,-0.3457 -1.504,-0.7738 -2.1114,-1.297297 l -0.2726,-0.2327 -0.1647,0.3196 c -0.3037,0.602897 -0.8402,1.062197 -1.7161,1.383597 -0.745,-0.226 -1.282,-0.6143 -1.6659,-1.1911 l -0.168,-0.252697 -0.2419,0.1885 c -0.6214,0.491297 -1.3497,0.714097 -2.2534,0.649497 -0.4076,-0.2081 -0.6547,-0.402 -0.8806,-0.5893 1.639,-1.182197 2.4572,-2.767897 2.7899,-4.520097 l 0.0557,-0.2929 -0.2929,-0.0398 c -0.3367,-0.0465 -0.5923,-0.1754 -0.845,-0.3082 1.0027,-1.1203 1.8209,-2.3154 2.0918,-3.46 0.2969,-1.2576 0.008,-2.4748 -1.0737,-3.2493 -0.2623,-0.1883 -0.5246,-0.3114 -0.738,-0.4605 0.6701,-0.599 1.0036,-1.3456 0.8578,-2.2539 -0.0557,-0.3504 -0.1397,-0.8892 -0.4037,-1.3264 -0.2464,-0.4105 -0.59,-0.8562 -1.1264,-1.1974 0.248,-0.6098 0.3435,-1.3575 -0.1334,-1.952 z m 11.6169,20.179497 0.3221,0.7526 0.1979,0.4724 c 0.9852,1.8941 1.3746,3.7174 1.566,4.7273 -1.5112,0.0937 -2.6103,-0.2018 -3.3447,-0.8445 l -0.3214,-0.2816 -0.135,0.4061 c -0.3221,1.0134 -0.9607,1.8588 -1.9254,2.5617 -1.1821,-0.6235 -2.1757,-1.3928 -2.9166,-2.3688 l -0.1971,-0.2617 -0.2287,0.2419 c -0.8844,0.9515 -1.9649,1.6896 -3.3066,2.1512 -0.8914,-0.6541 -1.5835,-1.3614 -1.9184,-2.1689 l -0.1686,-0.4036 -0.297,0.3167 c -0.5959,0.6336 -1.3017,0.8916 -2.2279,0.7621 l 0.0079,-0.0211 c 0.5456,-1.4858 1.5148,-3.318 2.5414,-5.2786 l 0.2949,-0.4324 -4e-4,-5e-4 c 0.0662,-0.0876 0.1352,-0.1749 0.2072,-0.2631 0.8959,0.0389 1.6598,-0.2519 2.3309,-0.7143 0.4564,0.6121 1.0402,1.1266 1.8849,1.3548 l 0.0795,0.0204 0.0845,-0.0244 c 0.9448,-0.3151 1.4789,-0.892 1.8781,-1.5307 0.6479,0.5325 1.3598,1.0096 2.2047,1.3575 l 0.109,0.0443 0.1084,-0.0511 c 0.7318,-0.3191 1.2219,-0.8317 1.6437,-1.3791 0.4708,0.4006 0.9634,0.7684 1.5267,0.8554 z m -15.1369,6.5956 c 0.1385,0.0212 0.2735,0.0335 0.4056,0.036 -0.2457,1.687 -0.2634,3.2306 -0.1228,4.7462 -4.5509,3.8124 -8.6295,6.7533 -12.0112,8.3592 -1.7057,0.8117 -3.2319,1.2796 -4.54,1.362 -1.1179,0.0703 -1.9917,-0.2839 -2.7989,-0.7944 3.9055,-2.2533 7.2724,-4.3467 9.7472,-6.1919 2.508,-1.8722 4.1398,-3.4887 4.8992,-4.9224 1.1909,0.2084 2.385,-0.1904 3.154,-1.004 0.5236,-0.5513 0.9394,-0.9637 1.2669,-1.5907 z m 5.0251,4.0945 -0.2617,0.3327 c -0.9555,1.2225 -2.0814,2.2076 -3.5761,2.6727 -0.4451,-2.3195 -0.5964,-4.5409 -0.2065,-7.1105 0.5936,-0.1103 1.1183,-0.4056 1.5826,-0.8072 0.4297,0.9028 1.1172,1.6965 2.0756,2.3688 l 0.113,0.08 0.1329,-0.0403 c 1.4353,-0.4566 2.522,-1.2906 3.4576,-2.249 0.8142,1.0095 1.8146,1.8634 3.0738,2.4932 l 0.1442,0.0755 0.1374,-0.091 c 1.0981,-0.7385 1.7239,-1.7277 2.1161,-2.8103 0.5601,0.413 1.2227,0.7047 2.0176,0.8385 0.3534,2.4151 -0.0256,4.5522 -0.7006,6.7769 -1.3521,-0.6985 -2.3609,-1.39 -2.8448,-2.0042 l -0.1954,-0.2482 -0.222,0.2192 c -1.1621,1.1355 -2.2932,2.1008 -3.3334,2.6709 -1.5497,-0.7899 -2.6943,-1.7125 -3.3064,-2.8014 z m -10.1462,-1.6954 c -6.8222,5.1915 -13.1835,8.4762 -18.6395,8.2848 1.3286,-0.776 2.6639,-1.5833 4.0368,-2.2045 4.4627,-2.0205 9.1062,-4.05 12.6592,-7.6501 0.1406,0.1933 0.2969,0.3816 0.4704,0.5643 0.4489,0.4743 0.9523,0.8036 1.4731,1.0055 z m -2.2823,-2.0967 c -6.4206,3.6683 -11.823,5.9457 -15.9353,6.6377 -2.0451,0.3441 -3.8858,0.3641 -5.2632,0.005 -1.2378,-0.3237 -1.9316,-1.0312 -2.3109,-1.9804 9.783,-1.6239 15.9474,-4.0913 19.7696,-7.1421 0.6878,0.5968 1.7235,0.9664 3.1097,0.9141 0.153,0.5551 0.3526,1.0764 0.6301,1.566 z m -4.1686,-2.9378 c -8.957,3.3291 -15.8621,3.6937 -20.483,2.2343 8.3158,-0.8182 15.6936,-2.0282 19.898,-3.8252 0.0124,0.2124 0.048,0.4263 0.1088,0.6384 0.0983,0.3401 0.2569,0.6623 0.4762,0.9525 z m -0.553,-2.2468 c -7.0391,1.317 -12.6952,1.6455 -16.7562,0.6333 -1.6925,-0.4212 -3.9613,-1.488 -5.5868,-2.9738 -1.5462,-1.414897 -2.4062,-3.173797 -1.8721,-5.158697 9.1088,3.4646 16.8112,4.574 23.1212,3.3312 0.0823,0.2797 0.2063,0.5551 0.3816,0.814 0.3587,0.525197 1.0089,0.933297 1.8339,1.226397 -0.5681,0.5594 -0.9968,1.3166 -1.1216,2.1276 z m -1.2112,-4.779897 c -9.4399,-0.6124 -16.9068,-3.0624 -22.1987,-7.5522 3.5484,0.8959 7.0085,2.1205 10.3328,3.1585 4.3684,1.3631 8.6293,2.0417 12.4841,2.21 -0.3844,0.4823 -0.6201,1.0899 -0.6343,1.7422 -0.0031,0.1453 0.0018,0.2929 0.0161,0.4415 z m 1.1987,-2.7364 c -8.4828,-3.0656 -16.8418,-6.9028 -21.5697,-10.8927 -1.4661,-1.2376 -2.542,-2.5129 -3.0586,-3.9078 -0.477,-1.2883 -0.3436,-2.7389 0.2685,-4.3803 7.3592,5.4071 16.1316,9.835 25.2948,13.9844 -0.2048,0.4284 -0.3597,0.8858 -0.4527,1.3588 -0.209,1.0646 0.0863,2.3489 0.5479,3.3777 -0.3757,0.0816 -0.7249,0.2409 -1.0302,0.4599 z m 5.1749,-7.566 c 1.6278,0.1885 2.7259,0.9407 3.318,1.9321 0.5922,0.989 0.6785,2.2329 0.2243,3.4265 -0.5968,1.5567 -1.4621,3.0805 -2.0718,4.5488 -0.3924,0.9425 -0.6677,2.0644 -0.6495,3.138097 0.0175,1.0713 0.3389,2.1138 1.1752,2.8143 1.0646,0.8937 2.3375,0.8052 3.6218,0.3284 1.0487,-0.3902 2.1733,-1.0534 3.3112,-1.6478 -0.8829,1.6857 -1.7567,3.322 -2.2558,4.6773 -0.3189,0.8738 -0.7181,1.2423 -1.3881,1.9519 -1.0424,1.0975 -3.045,1.3416 -4.5047,-0.1999 -0.7296,-0.7693 -1.1554,-1.5835 -1.4012,-2.577 l -0.0534,-0.2328 -0.2395,0.0199 c -2.2688,0.1664 -3.2959,-0.796 -3.6288,-1.9559 -0.3349,-1.1599 0.1069,-2.5572 0.9427,-3.1784 l 0.4569,-0.3395 -0.5411,-0.1574 c -0.876,-0.2594 -1.4063,-0.669797 -1.723,-1.137697 -0.3174,-0.4678 -0.4281,-1.0044 -0.4174,-1.5347 0.0243,-1.1713 0.914,-2.2643 1.9917,-2.3533 l 0.4173,-0.0352 -0.1885,-0.3725 c -0.4746,-0.9386 -0.721,-2.3092 -0.5325,-3.2761 0.2152,-1.0997 0.8142,-2.1246 1.5835,-2.8364 0.7698,-0.712 1.6925,-1.1022 2.5527,-1.0027 z m 35.8565,2.4429 c 9.1705,-4.1537 17.9048,-8.7441 25.2599,-14.1551 0.6099,1.6392 0.6173,3.1247 0.1425,4.4113 -0.5166,1.3972 -1.5925,2.6656 -3.0608,3.9033 -4.7233,3.9887 -12.7508,7.9281 -21.2089,10.9895 -0.369,-0.3532 -0.8301,-0.6078 -1.34,-0.7186 0.4616,-1.0293 0.7502,-2.313 0.5411,-3.3776 -0.0715,-0.3662 -0.1849,-0.7188 -0.3338,-1.0528 z m 1.5975,5.7225 c 3.8546,-0.1724 7.8556,-0.9525 12.239,-2.3214 3.1182,-0.9733 6.7429,-2.1444 10.0519,-3.0312 -5.2704,4.2728 -12.7738,6.976 -21.9389,7.5847 0.0626,-0.2593 0.0893,-0.5184 0.0837,-0.7693 -0.0116,-0.5318 -0.17,-1.0341 -0.4357,-1.4628 z m 0.142,2.8292 c 6.3283,1.263397 14.2166,0.0175 23.3563,-3.4646 0.5366,1.9826 -0.445,3.7322 -1.9934,5.147497 -1.6233,1.4859 -3.8943,2.5527 -5.5868,2.9741 -4.0606,1.0107 -9.8686,0.8348 -16.8942,-0.4737 -0.07,-0.8787 -0.4732,-1.7159 -1.0324,-2.3323 1.1026,-0.3968 1.7946,-1.092297 2.1505,-1.850997 z m -1.1276,4.822897 c 4.1838,1.7979 11.2814,2.9612 19.5953,3.7591 -4.6456,1.4376 -11.2654,1.0206 -20.151,-2.275 0.2018,-0.2923 0.3495,-0.6131 0.4463,-0.9449 0.0527,-0.1785 0.089,-0.3589 0.1094,-0.5392 z m -0.9792,1.9756 c 3.8432,3.0266 10.2705,5.5473 19.9917,7.1578 -0.3792,0.9511 -1.1504,1.57 -2.3859,1.8942 -1.3796,0.3594 -3.2203,0.3389 -5.2654,-0.005 -4.113,-0.694 -9.6377,-2.8907 -16.0525,-6.5515 0.3118,-0.5103 0.5013,-1.0426 0.6653,-1.6567 1.0624,0.0573 1.9629,-0.0932 2.5972,-0.4923 0.1643,-0.1038 0.3141,-0.2204 0.4496,-0.347 z m -4.0752,3.0097 c 3.5617,3.6064 8.3382,5.5509 12.8005,7.5701 1.3996,0.6343 2.7594,1.4552 4.1119,2.2467 -5.4561,0.4605 -12.04,-2.9491 -18.9261,-8.3446 0.6139,-0.2205 1.2101,-0.6 1.7313,-1.1496 0.1017,-0.1077 0.1957,-0.2151 0.2824,-0.3226 z m -2.722,1.6555 c 0.7576,1.433 2.3892,3.0619 4.8928,4.9477 2.466,1.8566 5.8935,4.0349 9.7923,6.2839 -0.8158,0.5059 -1.7793,0.782 -2.966,0.6866 -1.382,-0.1085 -3.0097,-0.6166 -4.8107,-1.4638 -3.5703,-1.6808 -7.8354,-4.6945 -12.3809,-8.4987 0.2759,-1.4534 0.3683,-2.9371 0.1532,-4.5346 0.3119,0.0209 0.6417,0.0194 0.9913,-0.006 0.786,1.3522 2.0954,2.6927 3.8623,2.6309 0.1541,-0.006 0.3099,-0.0211 0.4657,-0.0462 z m 2.5638,-22.513497 c 0.867,-0.0999 1.8629,0.2527 2.6902,0.9249 0.8272,0.6694 1.4795,1.6455 1.6947,2.7344 0.1886,0.967 -0.0625,2.3398 -0.5371,3.2783 l -0.1885,0.3724 0.4174,0.0352 c 1.0776,0.0892 1.9696,1.1821 1.9956,2.3535 0.0223,1.0446 -0.4923,2.2863 -2.2353,2.800697 l -0.4968,0.1442 0.3924,0.3373 c 0.7722,0.6586 1.1758,2.0979 0.8295,3.2715 -0.1726,0.5876 -0.5189,1.1111 -1.0822,1.466 -0.5631,0.3549 -1.3575,0.5501 -2.4528,0.4456 l -0.2441,-0.0175 -0.0533,0.2327 c -0.2504,1.009 -0.5298,1.6415 -1.2616,2.413 -0.7563,0.7983 -1.6704,1.1754 -2.5174,1.2066 -1.524,0.0533 -2.7146,-1.1936 -3.4379,-2.4977 0,-0.002 -0.002,-0.004 -0.004,-0.006 -0.1437,-0.783 -0.6229,-2.5419 -1.3906,-4.3247 0.883,0.6343 1.7278,1.2974 2.5487,1.6141 1.0334,0.4015 2.1309,0.3283 3.2625,-0.5899 0.8555,-0.696 1.2463,-1.8514 1.3461,-3.0495 0.0977,-1.197397 -0.0976,-2.452697 -0.4967,-3.417297 -0.6167,-1.4842 -1.5857,-2.8082 -2.1758,-4.3497 -0.457,-1.1974 -0.3991,-2.4481 0.1597,-3.4418 0.5564,-0.9936 1.6101,-1.7475 3.2378,-1.9361 z"
         style="clip-rule:evenodd;fill-rule:evenodd;image-rendering:optimizeQuality;shape-rendering:geometricPrecision;text-rendering:geometricPrecision;fill:#ffffff" />
      <path
         id="_202591432"
         class="fil0"
         d="m 4.838401,80.638353 c -0.4061,-0.013 -0.8403,0.1687 -1.1311,0.5968 -0.1418,0.2082 -0.2327,0.4831 -0.3282,0.7493 -0.0998,-0.0153 -0.1907,0.0245 -0.277,0 l -0.1511,0.5411 c 0.7717,0.2091 1.7165,0.1579 2.2445,0.02 0.5813,-0.1505 1.4591,-0.2084 2.1067,-0.2084 h 0.7495 l -0.5655,-0.49 c -0.2947,-0.2549 -0.6653,-0.3281 -1.5344,-0.8294 -0.3304,-0.1932 -0.7075,-0.3641 -1.1134,-0.3794 z m -0.782,1.1683 c 0.019,0.066 0.0468,0.1284 0.0825,0.1856 -0.0518,-0.0018 -0.1036,-0.0028 -0.1545,-0.0031 0.0259,-0.0578 0.0491,-0.1205 0.072,-0.1825 z m 1.345,0.1289 c 0.0495,-0.0978 0.078,-0.2074 0.078,-0.3235 0,-0.079 -0.0135,-0.1556 -0.0378,-0.2271 0.0755,0.0358 0.1516,0.076 0.2263,0.1186 0.4326,0.2505 0.4616,0.2527 0.6965,0.3679 -0.3273,0.0224 -0.6573,0.0261 -0.963,0.0641 z m -0.647,-0.4807 c 0.093,0 0.1595,0.0664 0.1595,0.1572 0,0.0932 -0.0665,0.1642 -0.1595,0.1642 -0.091,0 -0.1602,-0.071 -0.1602,-0.1642 0,-0.0908 0.0692,-0.1572 0.1602,-0.1572 z"
         style="clip-rule:evenodd;fill-rule:evenodd;image-rendering:optimizeQuality;shape-rendering:geometricPrecision;text-rendering:geometricPrecision" />
      <path
         id="_202589008"
         class="fil3"
         d="m 74.300401,192.91585 v -10.4525 h -20.3401 v 10.4525 z m -143.507,20.9654 v -9.6498 h 9.2063 v 9.6498 z m 9.7673,0 v -9.6498 h 20.3397 v 9.6498 z m 20.9006,0 v -9.6498 h 8.4523 v 9.6498 z m 83.4865,0 v -9.6498 h 8.4517 v 9.6498 z m 0,-10.2153 v -10.1846 h 18.9934 v 10.1846 z m 0,-10.7501 v -10.4525 h 8.4517 v 10.4525 z m 0,-11.0203 v -10.2198 h 15.9638 v 10.2198 z m 23.0893,0 v -10.2198 h 16.0309 v 10.2198 z m 16.0309,0.5678 v 10.4525 h -9.2018 v -10.4525 z m 0,11.018 v 10.1846 h -19.5658 v -10.1846 z m 0,10.7501 v 9.6498 h -9.2018 v -9.6498 z m -96.46,9.6498 v -9.8184 h 9.2059 v 9.8184 z m 9.7667,0 v -9.8184 h 20.3402 v 9.8184 z m 20.901,0 v -9.8184 h 8.4524 v 9.8184 z m -30.6677,-10.3793 v -10.2198 h 16.0349 v 10.2198 z m 23.1608,0 v -10.2198 h 15.9593 v 10.2198 z m -23.1608,-10.786 v -9.8422 h 9.2059 v 9.8422 z m 9.7667,-9.8422 h 20.3402 v 9.8422 h -7.23 c -1.1004,-0.5854 -2.2023,-0.909 -3.3027,-0.909 -1.0973,0.002 -2.1909,0.3306 -3.2623,0.909 h -6.5452 z m 20.901,0 h 8.4524 v 9.8422 h -8.4524 z m 9.8566,-4.5024 h -42.6357 -0.7852 c -0.8875,0 -1.6125,-0.7273 -1.6125,-1.6147 v -8.7491 h 9.6917 v 5.5708 h 9.69 v -5.5708 h 9.4635 v 5.5708 h 9.694 v -5.5708 h 9.5986 v 8.7491 c 0,0.8874 -0.7204,1.6147 -1.6101,1.6147 z m -42.0703,0.5611 h 41.5088 v 3.3752 h -41.5088 z m 58.8858,-17.6648 h 8.4517 v 9.8473 h -8.4517 z m 9.0127,0 h 20.3401 v 9.8473 h -6.5314 c -1.0755,-0.5837 -2.1689,-0.9119 -3.2715,-0.9141 -1.1044,0 -2.2155,0.3259 -3.3175,0.9141 h -7.2197 z m 20.9057,0 h 9.2018 v 9.8473 h -9.2018 z m -30.7593,-3.937 h 40.5357 v 3.3714 h -40.5357 z m -3.6684,-10.9295 h 9.6033 v 5.5761 h 9.6877 v -5.5761 h 9.4659 v 5.5761 h 9.6918 v -5.5761 h 9.6895 v 8.7539 c 0,0.8897 -0.7251,1.6102 -1.6143,1.6102 h -1.7589 -41.6622 -1.4903 c -0.8868,0 -1.6125,-0.7205 -1.6125,-1.6102 z m -109.645,57.2648 v -10.1846 h 19.5703 v 10.1846 z m 20.1313,0 v -10.1846 h 18.9889 v 10.1846 z m -20.1313,-10.7501 v -10.4525 h 9.2063 v 10.4525 z m 9.7673,0 v -10.4525 h 20.3397 v 10.4525 z m 20.9006,0 v -10.4525 h 8.4523 v 10.4525 z m -30.6679,-11.0203 v -10.2198 h 16.0349 v 10.2198 z m 23.1609,0 v -10.2198 h 15.9593 v 10.2198 z m -23.1609,-10.7806 v -9.8473 h 9.2063 v 9.8473 z m 9.7673,0 v -9.8473 h 20.3397 v 9.8473 h -7.23 c -1.0975,-0.5859 -2.207,-0.9141 -3.3067,-0.9141 -1.1026,0.002 -2.1978,0.3304 -3.2715,0.9141 z m 20.9006,0 v -9.8473 h 8.4523 v 9.8473 z m -32.2117,-13.7843 h 41.5094 v 3.3714 h -41.5094 z m -2.9649,-10.9295 h 9.694 v 5.5761 h 9.6873 v -5.5761 h 9.4658 v 5.5761 h 9.6923 v -5.5761 h 9.5988 v 8.7539 c 0,0.8897 -0.7212,1.6102 -1.608,1.6102 h -1.495 -42.6357 -0.7852 c -0.8892,0 -1.6143,-0.7205 -1.6143,-1.6102 z m 41.3976,143.356 h 11.5574 v 3.927 c -3.954,-1.0944 -7.8129,-2.4064 -11.5574,-3.927 z m 12.1229,4.086 v -4.086 h 7.0652 l -0.0013,5.7392 c -2.3853,-0.4738 -4.7415,-1.0243 -7.0639,-1.6532 z m 7.6254,1.7633 0.0128,-37.764 c 0,-10.8847 8.8208,-19.7054 19.7036,-19.7054 10.8846,0 19.7055,8.8207 19.7055,19.7054 l -0.01,38.0253 c -1.2496,0.2236 -2.5062,0.4275 -3.7709,0.6077 l -0.003,-38.633 c 0,-8.789 -7.1307,-15.9258 -15.9219,-15.9258 -8.7894,0 -15.9239,7.1368 -15.9239,15.9258 l -0.0176,38.4179 c -1.2655,-0.1977 -2.5251,-0.4127 -3.7749,-0.6539 z m 39.9734,0.1585 10e-4,-6.0078 h 6.1047 v 4.7026 c -2.0117,0.4947 -4.0495,0.9258 -6.1062,1.3052 z m 6.667,-1.4501 v -4.5577 h 13.9455 c -4.495,1.8252 -9.1529,3.3511 -13.9455,4.5577 z m 35.9705,-16.7777 h -8.5689 v -11.4064 h 21.7674 c -4.0458,4.1509 -8.461,7.9695 -13.1985,11.4064 z m 13.7471,-11.9674 h -10.2288 v -11.4332 h 14.713 v 6.4305 c -1.4379,1.7143 -2.9312,3.3846 -4.4842,5.0027 z m 4.4842,-11.994 h -26.8002 v -11.3797 h 26.8002 z m 0,-11.9475 h -14.713 v -11.1828 h 14.713 z m 0,-11.7438 h -26.8002 v -11.386 h 26.8002 z m -27.3612,-11.386 v 11.386 h -26.8406 v -11.386 z m -27.4014,0 v 11.386 h -26.3922 v -11.386 z m -26.9574,0 v 11.386 h -26.7476 v -11.386 z m -27.3131,0 v 11.386 h -27.3657 v -11.386 z m -27.9266,0 v 11.386 h -25.113 v -11.386 z m -25.113,11.947 h 12.9167 v 11.1828 h -12.9167 z m 0,11.7506 h 25.113 v 11.3797 h -25.113 z m 0,11.9405 h 12.9167 v 11.4332 h -7.2075 c -1.9995,-2.0837 -3.9018,-4.2526 -5.7092,-6.4943 z m 6.2579,11.9942 h 18.8551 v 11.4064 h -5.6558 c -4.7367,-3.4377 -9.1537,-7.2554 -13.1993,-11.4064 z m 140.541,-35.6853 v 11.1828 h -26.5522 v -11.1828 z m -27.113,0 v 11.1828 h -25.31 v -11.1828 z m -25.8777,0 v 11.1828 h -0.706 c -3.3866,-2.5441 -7.5952,-4.0522 -12.1551,-4.0522 -4.5592,0 -8.7689,1.5081 -12.1563,4.0522 h -1.8872 v -11.1828 z m -27.4656,0 v 11.1828 h -26.8338 v -11.1828 z m -27.3992,0 v 11.1828 h -25.4655 v -11.1828 z m 95.7683,11.7506 v 11.3797 h -26.8406 v -11.3797 z m -27.4014,0 v 11.3797 h -6.5489 c -0.975,-4.5455 -3.4756,-8.5258 -6.9385,-11.3797 z m -39.24,0 c -3.4636,2.8539 -5.965,6.8342 -6.9405,11.3797 h -7.5245 v -11.3797 z m -15.0305,0 v 11.3797 h -27.3657 v -11.3797 z m 93.7591,11.9405 v 11.4332 h -26.5522 v -11.4332 z m -27.113,0 v 11.4332 h -18.4744 l 0.002,-7.7273 c 0,-1.266 -0.1175,-2.504 -0.3398,-3.7059 z m -58.6684,0 c -0.2224,1.2019 -0.3394,2.4399 -0.3394,3.7059 l -0.0018,7.7273 h -21.1675 v -11.4332 z m -22.0741,0 v 11.4332 h -25.4655 v -11.4332 z m 95.7683,11.9942 v 11.4064 h -26.8406 v -11.4064 z m -27.4014,0 v 11.4064 h -6.1017 l 0.003,-11.4064 z m -46.6342,0 -0.0027,11.4064 h -7.0681 v -11.4064 z m -7.6363,0 v 11.4064 h -27.3657 v -11.4064 z m 70.1192,23.0655 h -2.9123 v -11.0982 h 22.8235 c -6.146,4.3728 -12.8216,8.1039 -19.9112,11.0982 z m -3.4731,-11.0982 v 11.0982 h -18.4802 l 0.003,-11.0982 z m -59.0127,0 -0.0025,11.0982 h -20.5306 c -0.21,-0.0887 -0.4221,-0.1736 -0.6313,-0.2638 v -10.8344 z m -21.7298,0 v 10.5863 c -6.645,-2.9041 -12.9162,-6.4593 -18.7148,-10.5863 z m 109.157,-64.2171 h -20.3401 v -9.6498 h 20.3401 z m -148.919,0.5608 h 163.712 v 3.4952 h -163.712 z"
         style="clip-rule:evenodd;fill-rule:evenodd;image-rendering:optimizeQuality;shape-rendering:geometricPrecision;text-rendering:geometricPrecision;fill:#ffffff" />
      <path
         id="_202588552"
         class="fil1"
         d="m -52.610999,181.89585 v -10.3328 c 1.9923,-1.0751 3.9524,-1.0838 5.9996,0.001 v 10.3314 z m 44.3779,114.454 0.0214,-38.5069 c 0,-8.4852 6.8751,-15.358 15.3585,-15.358 8.4853,0 15.3604,6.8728 15.3604,15.358 v 38.7087 c -4.7901,0.6553 -9.6821,1.002 -14.6575,1.002 -5.4694,0 -10.8402,-0.4146 -16.0828,-1.2038 z m 12.4367,-92.8477 v -10.3399 c 1.9907,-1.0723 3.9518,-1.0775 5.9972,0.008 v 10.3315 z m 57.2688,-21.6064 v -10.3317 c 2.0487,-1.0857 4.0097,-1.076 6.0035,0.001 v 10.3306 z"
         style="clip-rule:evenodd;fill-rule:evenodd;image-rendering:optimizeQuality;shape-rendering:geometricPrecision;text-rendering:geometricPrecision;fill:#e41013;fill-opacity:1" />
    </g>
  </g>
</svg>