<svg
   xmlns="http://www.w3.org/2000/svg"
   version="1.1"
   id="svg2"
   viewBox="0 0 685 800"><title>Herb Gniewkowo</title>
  <metadata
     id="metadata8">
    <rdf:RDF>
      <cc:Work
         rdf:about="">
        <dc:format>image/svg+xml</dc:format>
        <dc:type
           rdf:resource="http://purl.org/dc/dcmitype/StillImage" />
        <dc:title />
      </cc:Work>
    </rdf:RDF>
  </metadata>
  <defs
     id="defs6">
    <pattern
       id="EMFhbasepattern"
       patternUnits="userSpaceOnUse"
       width="6"
       height="6"
       x="0"
       y="0" />
  </defs>
  <sodipodi:namedview
     pagecolor="#ffffff"
     bordercolor="#666666"
     borderopacity="1"
     objecttolerance="10"
     gridtolerance="10"
     guidetolerance="10"
     id="namedview4"
     showgrid="false" />
  <g
     id="g10">
    <path
       id="rect1038"
       style="opacity:1;fill:#e30016;fill-opacity:1;stroke:none;stroke-width:1.53602;stroke-linecap:square;stroke-linejoin:miter;stroke-miterlimit:4;stroke-dasharray:none;stroke-opacity:1"
       d="m 5.6331578,5.6303742 673.7321422,-1e-7 -0.24636,485.3415459 -5.14286,12.46104 -662.384925,0.15247 -6.1937601,-16.23614 z" />
    <path
       style="fill:#ffec00;fill-opacity:1;stroke:#000000;stroke-width:2;stroke-linecap:butt;stroke-linejoin:round;stroke-miterlimit:4;stroke-dasharray:none;stroke-opacity:1"
       d="m 299.14513,71.364632 c -0.0753,-0.141472 -3.41454,4.759052 -3.31022,9.03585 l -9.5866,-0.652265 c -2.2592,-1.17733 -5.39383,-2.092818 -9.58659,-1.712196 -3.68993,0.334976 -6.17018,2.650088 -6.17018,2.650088 0,0 -3.59645,-3.597397 -6.06812,-3.31787 -3.86407,0.436998 -9.74966,7.681212 -6.82562,9.837656 0,0 -2.88907,3.233339 -3.52145,5.016892 -1.14387,3.226238 -0.82359,9.670193 0.81244,13.697583 1.20777,2.97317 6.01193,6.35956 6.01193,6.35956 0,0 -0.94918,8.1869 4.54957,11.25158 4.67789,-2.88603 6.86707,-9.52668 6.86797,-9.52902 0,0 11.02572,0.19752 15.22994,3.25098 4.78274,3.4736 7.51714,9.41353 8.91206,15.35767 -7.87757,-7.7939 -18.23354,-13.05775 -29.1419,-13.22914 -9.28171,-0.14584 -15.07584,5.64068 -21.04688,5.90652 -6.16655,0.27453 -9.08231,-2.14929 -9.08231,-2.14929 0.62202,5.01057 5.01757,11.96851 11.66531,12.21978 4.07797,0.15414 8.07022,-4.12059 11.33734,-4.21488 1.13558,-0.0328 3.4707,1.51225 3.4707,1.51225 -3.37177,3.94176 -1.63776,10.07823 3.29901,10.21704 1.85461,0.0521 4.23542,-1.54172 5.96305,-2.05689 -3.0793,1.79964 -4.80385,5.47915 -4.5844,8.95873 0.43712,6.9312 6.89886,15.78917 12.6417,18.20186 1.61391,0.61235 2.9864,-2.72513 4.24054,-6.44618 4.63157,3.27772 7.0249,0.21851 7.12852,-5.18994 5.03274,-2.04191 7.31918,-1.07091 10.28432,-9.1e-4 0,0 3.40335,7.13911 3.43493,14.05284 0.0225,4.91073 -0.87927,10.43998 -2.27455,13.73451 -10.13846,23.93925 -26.6453,17.41116 -38.26748,29.1791 -7.79261,7.89032 -7.60543,14.59486 -7.48649,23.08888 0.0711,5.07499 -2.96611,6.46973 -6.53067,7.58463 1.45862,3.45343 6.58483,7.20011 11.17705,7.55849 4.54519,0.35469 8.70729,-2.04517 12.56829,-4.22968 -1.00383,4.38684 -0.97939,8.24008 -0.29969,12.43339 0.99147,6.11687 7.15243,10.44573 7.15243,10.44573 l -6.25977,3.3645 c 0,0 3.46158,2.79919 9.05026,3.35265 10.62035,1.05174 15.83545,-4.78021 16.82789,-15.40691 0,0 2.6261,11.03223 11.78654,20.93618 1.23749,1.33793 -5.4363,4.19677 -5.4363,4.19677 -1.11285,0.22798 5.62451,4.209 11.63426,3.63194 13.21617,-1.26906 14.87387,-12.26596 12.84447,-20.97289 2.94798,4.85852 6.11196,7.83132 10.35404,10.47692 l 0.51834,-208.376218 z"
       id="path1048" />
    <path
       style="fill:#ffffff;fill-opacity:1;stroke:#000000;stroke-width:1.1831px;stroke-linecap:butt;stroke-linejoin:miter;stroke-opacity:1"
       d="M 11.591155,503.58543 673.97608,503.43296 C 640.7826,703.08817 491.23615,795.74183 345.28229,793.38577 122.6625,789.79213 28.61085,629.86531 11.591155,503.58543 v 0"
       id="path1025" />
    <rect
       style="fill:#ffffff;fill-opacity:1;stroke:#000000;stroke-width:3.14425;stroke-linecap:round;stroke-linejoin:miter;stroke-miterlimit:4;stroke-dasharray:none;paint-order:normal"
       id="rect864"
       width="153.89543"
       height="178.62161"
       x="74.333618"
       y="324.91229" />
    <path
       style="fill:none;fill-opacity:1;stroke:#000000;stroke-width:11.2608;stroke-linecap:round;stroke-linejoin:miter;stroke-miterlimit:4;stroke-dasharray:none;stroke-opacity:1"
       d="M 679.3653,5.6303741 H 5.6331578 L 5.8909754,466.01018 c 0.066563,118.80615 78.6710276,221.58413 138.1479046,262.79978 66.18775,45.86611 113.63967,61.91533 191.64049,65.328 19.25003,0.84221 86.02094,1.60669 164.42004,-39.72121 78.40702,-41.33208 178.80805,-146.80794 178.92259,-297.4107 z"
       id="path1418" />
    <path
       style="fill:none;stroke:#000000;stroke-width:3.10178;stroke-linecap:butt;stroke-linejoin:miter;stroke-miterlimit:4;stroke-dasharray:none;stroke-opacity:1"
       d="m 73.799327,341.22497 154.417153,-0.0815"
       id="path862" />
    <rect
       style="fill:#000000;stroke:#000000;stroke-width:5.61682;stroke-linecap:round;stroke-linejoin:miter;stroke-miterlimit:4;stroke-dasharray:none;paint-order:stroke fill markers"
       id="rect866-3"
       width="30.174881"
       height="50.785641"
       x="136.08914"
       y="381.29379" />
    <path
       style="fill:#ffffff;fill-opacity:1;stroke:#000000;stroke-width:3.07203;stroke-linecap:butt;stroke-linejoin:miter;stroke-miterlimit:4;stroke-dasharray:none;stroke-opacity:1"
       d="M 150.45123,84.539196 C 67.424317,283.73818 67.424317,283.73818 67.424317,283.73818 l 167.385393,-1.09324 z"
       id="path930" />
    <path
       style="fill:#ffffff;fill-opacity:1;stroke:#000000;stroke-width:3.07203;stroke-linecap:butt;stroke-linejoin:round;stroke-miterlimit:4;stroke-dasharray:none;stroke-opacity:1"
       d="m 56.703683,324.64609 0.0067,-74.88172 35.386884,8.7e-4 -0.0045,30.70747 41.736513,0.004 -0.023,-30.68471 34.76009,-0.012 v 30.89163 l 41.65021,-0.15768 0.003,-30.73072 34.54497,-0.0103 0.007,74.86647 z"
       id="path838" />
    <path
       style="fill:none;stroke:#000000;stroke-width:4.7324;stroke-linecap:round;stroke-linejoin:miter;stroke-miterlimit:4;stroke-dasharray:none;stroke-opacity:1"
       d="m 11.591146,503.58543 c 219.650754,0.4267 438.134274,-0.62536 662.384934,-0.15247"
       id="path845" />
    <path
       style="fill:none;stroke:#000000;stroke-width:4.7324;stroke-linecap:round;stroke-linejoin:miter;stroke-miterlimit:4;stroke-dasharray:none;stroke-opacity:1"
       d="m 17.325157,544.53208 c 219.650753,0.42669 420.274903,-0.39478 644.525573,0.0781"
       id="path845-7" />
    <path
       style="fill:none;stroke:#000000;stroke-width:4.7324;stroke-linecap:butt;stroke-linejoin:miter;stroke-miterlimit:4;stroke-dasharray:none;stroke-opacity:1"
       d="M 179.48437,750.09646 C 505.7535,750.7487 505.7535,750.7487 505.7535,750.7487"
       id="path863" />
    <path
       style="fill:none;stroke:#000000;stroke-width:4.7324;stroke-linecap:butt;stroke-linejoin:miter;stroke-miterlimit:4;stroke-dasharray:none;stroke-opacity:1"
       d="m 120.98376,709.01867 440.244,-0.27019"
       id="path863-5" />
    <path
       style="fill:none;stroke:#000000;stroke-width:4.7324;stroke-linecap:butt;stroke-linejoin:miter;stroke-miterlimit:4;stroke-dasharray:none;stroke-opacity:1"
       d="M 83.902458,668.00094 598.14678,667.73127"
       id="path863-5-8" />
    <path
       style="fill:none;stroke:#000000;stroke-width:4.7324;stroke-linecap:butt;stroke-linejoin:miter;stroke-miterlimit:4;stroke-dasharray:none;stroke-opacity:1"
       d="m 55.22009,626.88866 574.14732,-0.26928"
       id="path863-5-6" />
    <path
       style="fill:none;stroke:#000000;stroke-width:4.7324;stroke-linecap:butt;stroke-linejoin:miter;stroke-miterlimit:4;stroke-dasharray:none;stroke-opacity:1"
       d="M 28.514067,585.95069 649.46297,585.68168"
       id="path863-5-1" />
    <path
       style="fill:none;stroke:#000000;stroke-width:4.7324;stroke-linecap:butt;stroke-linejoin:miter;stroke-miterlimit:4;stroke-dasharray:none;stroke-opacity:1"
       d="m 55.845114,503.47592 c -0.162486,41.09271 -0.162486,41.09271 -0.162486,41.09271"
       id="path907" />
    <path
       style="fill:none;stroke:#000000;stroke-width:4.7324;stroke-linecap:butt;stroke-linejoin:miter;stroke-miterlimit:4;stroke-dasharray:none;stroke-opacity:1"
       d="m 170.3878,503.60256 c -0.16249,41.0927 -0.16249,41.0927 -0.16249,41.0927"
       id="path907-0" />
    <path
       style="fill:none;stroke:#000000;stroke-width:4.7324;stroke-linecap:butt;stroke-linejoin:miter;stroke-miterlimit:4;stroke-dasharray:none;stroke-opacity:1"
       d="m 113.93337,543.59022 c -0.16248,41.0927 -0.16248,41.0927 -0.16248,41.0927"
       id="path907-5" />
    <path
       style="fill:none;stroke:#000000;stroke-width:4.7324;stroke-linecap:butt;stroke-linejoin:miter;stroke-miterlimit:4;stroke-dasharray:none;stroke-opacity:1"
       d="m 55.382576,585.79596 c -0.162486,41.0927 -0.162486,41.0927 -0.162486,41.0927"
       id="path907-2" />
    <path
       style="fill:none;stroke:#000000;stroke-width:4.7324;stroke-linecap:butt;stroke-linejoin:miter;stroke-miterlimit:4;stroke-dasharray:none;stroke-opacity:1"
       d="m 114.09586,627.56935 c -0.16249,41.0927 -0.16249,41.0927 -0.16249,41.0927"
       id="path907-24" />
    <path
       style="fill:none;stroke:#000000;stroke-width:4.7324;stroke-linecap:butt;stroke-linejoin:miter;stroke-miterlimit:4;stroke-dasharray:none;stroke-opacity:1"
       d="m 170.47802,668.00979 c -0.16248,41.09271 -0.16248,41.09271 -0.16248,41.09271"
       id="path907-1" />
    <path
       style="fill:none;stroke:#000000;stroke-width:4.7324;stroke-linecap:butt;stroke-linejoin:miter;stroke-miterlimit:4;stroke-dasharray:none;stroke-opacity:1"
       d="m 227.99759,708.1241 c -0.16248,41.0927 -0.16248,41.0927 -0.16248,41.0927"
       id="path907-56" />
    <path
       style="fill:none;stroke:#000000;stroke-width:4.7324;stroke-linecap:butt;stroke-linejoin:miter;stroke-miterlimit:4;stroke-dasharray:none;stroke-opacity:1"
       d="m 285.02967,749.79349 c -0.16248,41.09272 -0.16248,41.09272 -0.16248,41.09272"
       id="path907-14" />
    <path
       style="fill:none;stroke:#000000;stroke-width:4.7324;stroke-linecap:butt;stroke-linejoin:miter;stroke-miterlimit:4;stroke-dasharray:none;stroke-opacity:1"
       d="m 399.41887,748.23839 c -0.16248,41.09271 -0.16248,41.09271 -0.16248,41.09271"
       id="path907-7" />
    <path
       style="fill:none;stroke:#000000;stroke-width:4.7324;stroke-linecap:butt;stroke-linejoin:miter;stroke-miterlimit:4;stroke-dasharray:none;stroke-opacity:1"
       d="m 342.54925,708.77635 c -0.16249,41.0927 -0.16249,41.0927 -0.16249,41.0927"
       id="path907-4" />
    <path
       style="fill:none;stroke:#000000;stroke-width:4.7324;stroke-linecap:butt;stroke-linejoin:miter;stroke-miterlimit:4;stroke-dasharray:none;stroke-opacity:1"
       d="m 285.02967,667.84672 c -0.16248,41.09271 -0.16248,41.09271 -0.16248,41.09271"
       id="path907-41" />
    <path
       style="fill:none;stroke:#000000;stroke-width:4.7324;stroke-linecap:butt;stroke-linejoin:miter;stroke-miterlimit:4;stroke-dasharray:none;stroke-opacity:1"
       d="m 228.32254,626.59095 c -0.16247,41.09271 -0.16247,41.09271 -0.16247,41.09271"
       id="path907-13" />
    <path
       style="fill:none;stroke:#000000;stroke-width:4.7324;stroke-linecap:butt;stroke-linejoin:miter;stroke-miterlimit:4;stroke-dasharray:none;stroke-opacity:1"
       d="m 170.64051,586.63972 c -0.16249,41.0927 -0.16249,41.0927 -0.16249,41.0927"
       id="path907-136" />
    <path
       style="fill:none;stroke:#000000;stroke-width:4.7324;stroke-linecap:butt;stroke-linejoin:miter;stroke-miterlimit:4;stroke-dasharray:none;stroke-opacity:1"
       d="M 228.07287,544.73169 C 227.9104,585.8244 227.9104,585.8244 227.9104,585.8244"
       id="path907-3" />
    <path
       style="fill:none;stroke:#000000;stroke-width:4.7324;stroke-linecap:butt;stroke-linejoin:miter;stroke-miterlimit:4;stroke-dasharray:none;stroke-opacity:1"
       d="m 284.96873,502.175 c -0.1625,41.09271 -0.1625,41.09271 -0.1625,41.09271"
       id="path907-6" />
    <path
       style="fill:none;stroke:#000000;stroke-width:4.7324;stroke-linecap:butt;stroke-linejoin:miter;stroke-miterlimit:4;stroke-dasharray:none;stroke-opacity:1"
       d="m 342.07104,543.22368 c -0.1625,41.0927 -0.1625,41.0927 -0.1625,41.0927"
       id="path907-76" />
    <path
       style="fill:none;stroke:#000000;stroke-width:4.7324;stroke-linecap:butt;stroke-linejoin:miter;stroke-miterlimit:4;stroke-dasharray:none;stroke-opacity:1"
       d="m 285.08362,584.96417 c -0.16248,41.09272 -0.16248,41.09272 -0.16248,41.09272"
       id="path907-55" />
    <path
       style="fill:none;stroke:#000000;stroke-width:4.7324;stroke-linecap:butt;stroke-linejoin:miter;stroke-miterlimit:4;stroke-dasharray:none;stroke-opacity:1"
       d="m 342.30083,625.43633 c -0.1625,41.09271 -0.1625,41.09271 -0.1625,41.09271"
       id="path907-46" />
    <path
       style="fill:none;stroke:#000000;stroke-width:4.7324;stroke-linecap:butt;stroke-linejoin:miter;stroke-miterlimit:4;stroke-dasharray:none;stroke-opacity:1"
       d="m 399.51803,503.16177 c -0.16248,41.09269 -0.16248,41.09269 -0.16248,41.09269"
       id="path907-8" />
    <path
       style="fill:none;stroke:#000000;stroke-width:4.7324;stroke-linecap:butt;stroke-linejoin:miter;stroke-miterlimit:4;stroke-dasharray:none;stroke-opacity:1"
       d="m 456.39054,543.6849 c -0.16247,41.09271 -0.16247,41.09271 -0.16247,41.09271"
       id="path907-08" />
    <path
       style="fill:none;stroke:#000000;stroke-width:4.7324;stroke-linecap:butt;stroke-linejoin:miter;stroke-miterlimit:4;stroke-dasharray:none;stroke-opacity:1"
       d="m 456.50543,626.82 c -0.16247,41.0927 -0.16247,41.0927 -0.16247,41.0927"
       id="path907-83" />
    <path
       style="fill:none;stroke:#000000;stroke-width:4.7324;stroke-linecap:butt;stroke-linejoin:miter;stroke-miterlimit:4;stroke-dasharray:none;stroke-opacity:1"
       d="m 513.95243,666.83093 c -0.16247,41.0927 -0.16247,41.0927 -0.16247,41.0927"
       id="path907-06" />
    <path
       style="fill:none;stroke:#000000;stroke-width:4.7324;stroke-linecap:butt;stroke-linejoin:miter;stroke-miterlimit:4;stroke-dasharray:none;stroke-opacity:1"
       d="m 456.39055,708.57144 c -0.16248,41.09271 -0.16248,41.09271 -0.16248,41.09271"
       id="path907-21" />
    <path
       style="fill:none;stroke:#000000;stroke-width:4.7324;stroke-linecap:butt;stroke-linejoin:miter;stroke-miterlimit:4;stroke-dasharray:none;stroke-opacity:1"
       d="m 570.48029,625.78225 c -0.1625,41.09271 -0.1625,41.09271 -0.1625,41.09271"
       id="path907-38" />
    <path
       style="fill:none;stroke:#000000;stroke-width:4.7324;stroke-linecap:butt;stroke-linejoin:miter;stroke-miterlimit:4;stroke-dasharray:none;stroke-opacity:1"
       d="m 514.18222,584.38766 c -0.16248,41.09271 -0.16248,41.09271 -0.16248,41.09271"
       id="path907-00" />
    <path
       style="fill:none;stroke:#000000;stroke-width:4.7324;stroke-linecap:butt;stroke-linejoin:miter;stroke-miterlimit:4;stroke-dasharray:none;stroke-opacity:1"
       d="m 570.48029,543.22368 c -0.1625,41.0927 -0.1625,41.0927 -0.1625,41.0927"
       id="path907-86" />
    <path
       style="fill:none;stroke:#000000;stroke-width:4.7324;stroke-linecap:butt;stroke-linejoin:miter;stroke-miterlimit:4;stroke-dasharray:none;stroke-opacity:1"
       d="m 514.06734,501.71378 c -0.16249,41.09271 -0.16249,41.09271 -0.16249,41.09271"
       id="path907-47" />
    <path
       style="fill:none;stroke:#000000;stroke-width:4.7324;stroke-linecap:butt;stroke-linejoin:miter;stroke-miterlimit:4;stroke-dasharray:none;stroke-opacity:1"
       d="m 628.27195,502.40561 c -0.16249,41.09271 -0.16249,41.09271 -0.16249,41.09271"
       id="path907-71" />
    <path
       style="fill:none;stroke:#000000;stroke-width:4.7324;stroke-linecap:butt;stroke-linejoin:miter;stroke-miterlimit:4;stroke-dasharray:none;stroke-opacity:1"
       d="m 628.27195,584.96417 c -0.16249,41.09272 -0.16249,41.09272 -0.16249,41.09272"
       id="path907-22" />
    <path
       style="fill:none;stroke:#000000;stroke-width:4.7324;stroke-linecap:butt;stroke-linejoin:miter;stroke-miterlimit:4;stroke-dasharray:none;stroke-opacity:1"
       d="m 399.86271,667.52275 c -0.16248,41.09271 -0.16248,41.09271 -0.16248,41.09271"
       id="path907-41-6" />
    <path
       style="fill:none;stroke:#000000;stroke-width:4.7324;stroke-linecap:butt;stroke-linejoin:miter;stroke-miterlimit:4;stroke-dasharray:none;stroke-opacity:1"
       d="m 399.63292,584.04174 c -0.16248,41.09271 -0.16248,41.09271 -0.16248,41.09271"
       id="path907-41-9" />
    <path
       style="fill:#ffffff;fill-opacity:1;stroke:#000000;stroke-width:3.07203;stroke-linecap:butt;stroke-linejoin:miter;stroke-miterlimit:4;stroke-dasharray:none;stroke-opacity:1"
       d="m 150.99739,62.19099 c -9.32935,0.282166 -16.3917,7.783724 -16.38228,16.486079 0.0108,9.85604 7.06226,16.541998 16.15316,16.588499 8.91676,0.04561 17.29535,-7.257324 17.06402,-16.31984 -0.24001,-9.402272 -8.80691,-16.997543 -16.8349,-16.754738 z"
       id="path885" />
    <path
       style="fill:none;stroke:#000000;stroke-width:2;stroke-linecap:butt;stroke-linejoin:miter;stroke-miterlimit:4;stroke-dasharray:none;stroke-opacity:1"
       d="m 270.49154,80.686109 c 1.68839,7.353127 -5.61513,7.260471 -12.89374,6.519786"
       id="path904" />
    <path
       style="fill:#ffffff;fill-opacity:1;stroke:#000000;stroke-width:1.5;stroke-linecap:butt;stroke-linejoin:miter;stroke-miterlimit:4;stroke-dasharray:none;stroke-opacity:1"
       d="m 312.36808,83.260157 c -4.37941,0.565241 -8.54951,0.376486 -12.66975,2.083048 0,0 1.26253,4.297635 2.21741,6.137022 1.22252,2.354902 2.72542,4.478546 4.22742,6.781371 0,0 3.11477,0.275837 5.80997,0.219121 6.74612,-0.141962 11.00345,-3.628204 10.97228,-10.112609 -0.0196,-4.085614 -5.26089,-5.791554 -10.55733,-5.107953 z"
       id="path908" />
    <path
       style="fill:none;stroke:#000000;stroke-width:2;stroke-linecap:square;stroke-linejoin:miter;stroke-miterlimit:4;stroke-dasharray:none;stroke-opacity:1"
       d="m 295.83491,80.400482 c 3.7992,4.19559 3.44193,4.514103 4.31186,6.848684 2.90353,7.792097 5.99639,11.012432 5.99639,11.012432 0,0 -5.55499,2.890632 -5.8089,6.219152 -1.00197,13.1348 18.88175,21.08782 18.88175,21.08782 0,0 5.60697,-1.00335 8.08237,-5.63078"
       id="path906" />
    <path
       style="fill:#000000;fill-opacity:1;stroke:#000000;stroke-width:1.53602;stroke-linecap:butt;stroke-linejoin:round;stroke-miterlimit:4;stroke-dasharray:none;stroke-opacity:1"
       d="m 309.81748,81.774681 c -9.3445,3.997712 -10.47782,2.830245 -10.47782,2.830245 l 1.61952,4.828686 c 0,0 -0.51748,-2.373247 0.43468,-2.549224 3.4485,-0.637354 5.17501,0.162298 5.17501,0.162298 0,0 -0.0656,4.402534 1.37284,5.849069 1.74902,1.758799 6.65605,1.339758 7.8708,-0.06573 0.92788,-1.142344 1.32674,-5.212153 1.89551,-5.342344 3.37995,-0.773678 4.92495,0.432238 4.92495,0.432238 0.54636,1.860628 -0.71437,4.829832 -1.50641,6.591553 -0.10009,-0.376397 3.31682,-0.98238 5.46578,0.459245 -0.0983,0.0986 -2.87874,-3.738919 -1.89942,-7.377945 2.06167,0.111396 4.03091,-0.261432 5.17851,-0.928314 1.89184,-1.099362 2.7048,-2.344287 -0.27657,-2.104012 -7.57482,0.610476 -14.48272,-5.050899 -19.77738,-2.785763 z"
       id="path910" />
    <rect
       style="fill:#ffffff;fill-opacity:1;stroke:#000000;stroke-width:3.14425;stroke-linecap:round;stroke-linejoin:miter;stroke-miterlimit:4;stroke-dasharray:none;paint-order:normal"
       id="rect864-8"
       width="153.89543"
       height="178.62161"
       x="457.2088"
       y="323.90988" />
    <path
       style="fill:#ffffff;fill-opacity:1;stroke:#000000;stroke-width:2;stroke-linecap:butt;stroke-linejoin:round;stroke-miterlimit:4;stroke-dasharray:none;stroke-opacity:1"
       d="m 390.37192,71.498134 -46.94311,-0.107212 -0.51834,208.376218 c 0.24889,0.20301 8.70032,-5.27704 12.22809,-9.49614 0.97348,4.28161 3.72533,8.60686 6.82674,10.6815 5.40814,3.61771 9.32052,5.50921 14.78701,8.67012 l 1.93154,-0.33813 c 5.24548,-7.56542 9.40676,-15.78008 10.08274,-24.69596 2.76171,1.49548 3.92526,2.42314 6.762,3.39162 0.67198,0.0674 4.32861,-5.9891 4.94638,-9.26669 8.46456,6.3902 26.02542,5.12813 26.02542,5.12813 0,0 -0.18804,-16.59814 -4.71747,-23.55461 6.69593,-0.47197 15.4329,-1.07126 20.30692,-10.93382 -9.07518,-2.53012 -14.95649,-9.91052 -22.66873,-14.17017 -14.91146,-8.23596 -37.30931,-15.42984 -37.17679,-40.45409 0.0339,-6.3831 1.37431,-14.70319 4.22072,-18.83738 4.69999,-6.8264 16.67101,-18.31055 25.64802,-21.35884 -2.78496,-4.88824 -8.849,-5.80878 -14.5013,-5.70615 -2.07493,0.0376 -6.46139,0.48567 -6.46139,0.48567 0,0 4.95493,-3.69168 9.08607,-3.7241 9.08037,-0.0713 18.48502,9.37818 29.04788,9.74051 3.21278,0.11023 6.49439,-1.6397 10.35984,-3.41006 -7.98565,-1.68451 -13.11602,-5.33739 -16.28066,-7.32786 -8.10287,-5.09647 -13.25262,-7.05502 -22.00496,-9.43324 5.90385,-3.72089 12.38156,-7.59806 19.13612,-7.47513 8.87454,0.16151 15.49129,15.44349 15.49129,15.44349 0,0 12.23146,-13.75701 12.24471,-23.320157 0.0233,-16.806764 -11.27239,-22.036908 -23.99405,-22.112372 -5.71782,-0.03392 -10.90599,0.465626 -16.3017,1.931233 -2.67133,-8.808968 -11.79373,-3.642719 -11.8204,-3.261317 -0.22711,-0.09521 -1.31226,-4.583804 -5.74259,-4.865063 z"
       id="path1048-8" />
    <path
       style="fill:#f3f101;fill-opacity:1;stroke:#000000;stroke-width:2;stroke-linecap:butt;stroke-linejoin:miter;stroke-miterlimit:4;stroke-dasharray:none;stroke-opacity:1"
       d="m 260.90072,112.27993 c 3.47781,1.25195 11.41754,1.72256 11.41754,1.72256 -0.065,0.52188 -2.72729,9.23801 -6.62844,10.51692 -5.57534,-3.20315 -4.92056,-12.23948 -4.7891,-12.23948 z"
       id="path929" />
    <path
       style="fill:#f3f101;fill-opacity:1;stroke:#000000;stroke-width:2;stroke-linecap:butt;stroke-linejoin:miter;stroke-miterlimit:4;stroke-dasharray:none;stroke-opacity:1"
       d="m 271.93514,131.80055 c 0.30089,-3.85387 0.8154,-5.47776 4.01922,-7.11265 5.03782,2.43486 3.51633,9.49765 3.51633,9.49765 -0.0367,0.043 -3.864,-1.57373 -7.53555,-2.385 z"
       id="path931" />
    <path
       style="fill:none;stroke:#000000;stroke-width:2;stroke-linecap:butt;stroke-linejoin:miter;stroke-miterlimit:4;stroke-dasharray:none;stroke-opacity:1"
       d="m 296.46026,132.61114 c 0.6691,1.53514 1.60855,3.09296 1.64515,5.32891 0.0352,2.15031 -0.92181,5.516 -3.9322,4.20392 -4.1436,-2.25552 -9.42575,-5.63349 -14.70252,-7.95842 -3.77489,-1.66321 -7.5838,-2.73224 -10.80211,-2.71994 -1.87477,0.007 -3.57469,0.19712 -5.00606,1.19077"
       id="path933" />
    <path
       style="fill:none;stroke:#000000;stroke-width:2;stroke-linecap:butt;stroke-linejoin:miter;stroke-miterlimit:4;stroke-dasharray:none;stroke-opacity:1"
       d="M 301.15244,101.49813 C 294.64274,95.261441 285.8916,90.640744 276.52327,89.078894 273.125,88.512348 271.83352,86.984406 269.24735,85.994323"
       id="path935" />
    <path
       style="fill:none;stroke:#000000;stroke-width:2;stroke-linecap:butt;stroke-linejoin:miter;stroke-miterlimit:4;stroke-dasharray:none;stroke-opacity:1"
       d="m 325.28801,94.053613 c 7.3037,5.212664 13.30232,12.420547 17.77594,18.507127 7.13365,-7.98547 14.43358,-16.438558 22.91933,-24.650189"
       id="path895" />
    <path
       style="fill:none;stroke:#000000;stroke-width:2;stroke-linecap:butt;stroke-linejoin:miter;stroke-miterlimit:4;stroke-dasharray:none;stroke-opacity:1"
       d="m 319.21601,125.56857 c 0,0 9.78751,18.74433 9.96406,27.95323 0.0626,3.26375 -0.75588,7.45695 -2.97206,10.64183 -8.84081,-0.0714 -23.57275,-7.82354 -23.57275,-7.82354"
       id="path897" />
    <path
       style="fill:none;stroke:#000000;stroke-width:2;stroke-linecap:butt;stroke-linejoin:miter;stroke-miterlimit:4;stroke-dasharray:none;stroke-opacity:1"
       d="m 319.21601,125.56857 c 8.76037,7.34844 18.13909,16.07836 23.96501,23.75401 5.58751,-13.35229 10.70245,-26.05039 19.41156,-39.3146 2.8516,4.36407 4.91069,7.64837 9.90972,5.4412"
       id="path899" />
    <path
       style="fill:none;stroke:#000000;stroke-width:2;stroke-linecap:butt;stroke-linejoin:miter;stroke-miterlimit:4;stroke-dasharray:none;stroke-opacity:1"
       d="m 275.25634,247.30886 c 5.22781,-17.66736 17.60642,-31.09549 31.68501,-47.41534 6.78507,-7.86524 9.66713,-15.83737 9.73106,-23.06085 0.0429,-4.83978 -2.40407,-15.80231 -2.40407,-15.80231"
       id="path901" />
    <path
       style="fill:none;stroke:#000000;stroke-width:2;stroke-linecap:round;stroke-linejoin:miter;stroke-miterlimit:4;stroke-dasharray:none;stroke-opacity:1"
       d="m 310.46845,214.72745 c -9.42931,14.80725 -8.66745,30.5756 -8.65404,48.07978"
       id="path903" />
    <path
       style="fill:none;stroke:#000000;stroke-width:2;stroke-linecap:round;stroke-linejoin:miter;stroke-miterlimit:4;stroke-dasharray:none;stroke-opacity:1"
       d="m 326.20801,164.16363 c 3.30479,10.04963 4.90657,17.15624 4.81775,24.23559 -0.27085,21.59023 -9.69141,31.53025 -9.72908,49.56187 -0.0208,9.98252 3.98306,19.99166 11.25975,31.32913"
       id="path905" />
    <path
       style="fill:none;stroke:#000000;stroke-width:2;stroke-linecap:butt;stroke-linejoin:miter;stroke-miterlimit:4;stroke-dasharray:none;stroke-opacity:1"
       d="m 401.35854,115.15745 c -8.84472,-1.32956 -24.67786,8.1256 -23.73651,16.14528 0.22549,1.92094 1.42476,4.88457 2.46154,4.61608 3.99099,-1.0335 7.60862,-3.75761 11.0668,-6.60661"
       id="path911" />
    <path
       style="fill:none;stroke:#000000;stroke-width:3.10178;stroke-linecap:butt;stroke-linejoin:miter;stroke-miterlimit:4;stroke-dasharray:none;stroke-opacity:1"
       d="m 456.67454,340.22255 154.41715,-0.0815"
       id="path862-0" />
    <rect
       style="fill:#000000;stroke:#000000;stroke-width:5.61682;stroke-linecap:round;stroke-linejoin:miter;stroke-miterlimit:4;stroke-dasharray:none;paint-order:stroke fill markers"
       id="rect866-3-5"
       width="30.174881"
       height="50.785641"
       x="518.96436"
       y="380.29138" />
    <path
       style="fill:#ffffff;fill-opacity:1;stroke:#000000;stroke-width:3.07203;stroke-linecap:butt;stroke-linejoin:miter;stroke-miterlimit:4;stroke-dasharray:none;stroke-opacity:1"
       d="m 533.32645,83.53678 c -83.02691,199.19897 -83.02691,199.19897 -83.02691,199.19897 l 167.38538,-1.09323 z"
       id="path930-9" />
    <path
       style="fill:#ffffff;fill-opacity:1;stroke:#000000;stroke-width:3.07203;stroke-linecap:butt;stroke-linejoin:round;stroke-miterlimit:4;stroke-dasharray:none;stroke-opacity:1"
       d="m 440.43055,324.49806 0.006,-74.88172 35.38686,8.7e-4 -0.004,30.70748 41.73652,0.004 -0.023,-30.68473 34.76009,-0.012 v 30.89164 l 41.65021,-0.15767 0.003,-30.73073 34.54498,-0.0103 0.007,74.86647 z"
       id="path838-6" />
    <path
       style="fill:#ffffff;fill-opacity:1;stroke:#000000;stroke-width:3.07203;stroke-linecap:butt;stroke-linejoin:miter;stroke-miterlimit:4;stroke-dasharray:none;stroke-opacity:1"
       d="m 533.92583,62.256575 c -9.32934,0.282159 -16.3917,7.783725 -16.38228,16.486076 0.0108,9.856039 7.06226,16.541996 16.15316,16.5885 8.91677,0.04564 17.29535,-7.257324 17.06402,-16.319838 -0.24001,-9.402274 -8.80692,-16.997544 -16.8349,-16.754738 z"
       id="path885-6" />
    <path
       style="fill:none;stroke:#000000;stroke-width:2;stroke-linecap:square;stroke-linejoin:miter;stroke-miterlimit:4;stroke-dasharray:none;stroke-opacity:1"
       d="m 407.93491,79.624514 c -16.58719,9.614769 -32.37597,22.586126 -27.863,28.776896 20.8646,-4.23912 24.82281,-8.29328 24.82281,-8.29328"
       id="path902" />
    <path
       style="fill:#ffffff;fill-opacity:1;stroke:#000000;stroke-width:1.5;stroke-linecap:butt;stroke-linejoin:miter;stroke-miterlimit:4;stroke-dasharray:none;stroke-opacity:1"
       d="m 365.75967,84.64783 c -1.09263,4.627166 5.36591,13.056549 12.45668,13.361288 5.23614,0.225032 9.69606,-5.344922 13.67503,-8.260222 -12.1354,-7.488995 -12.52227,-6.401389 -26.13171,-5.101066 z"
       id="path912" />
    <path
       style="fill:#000000;fill-opacity:1;stroke:#000000;stroke-width:2;stroke-linecap:butt;stroke-linejoin:round;stroke-miterlimit:4;stroke-dasharray:none;stroke-opacity:1"
       d="m 396.11451,76.363197 c 1.51223,3.030895 2.65992,8.73319 2.65992,8.73319 l -3.13208,2.311036 c -5.38758,-0.617114 -8.85373,-1.482513 -12.05826,-4.004529 -1.62578,-1.279513 -4.32079,-1.840534 -6.93628,-1.850475 -2.15566,-0.0082 -4.25727,0.357955 -5.66173,1.004717 -6.42837,2.960331 -17.7713,1.588951 -17.7713,1.588951 0,0 6.47666,1.319257 9.52262,1.328016 6.01263,0.01729 10.97549,-1.953966 10.97549,-1.953966 0,0 0.28842,4.676254 0.76324,5.850051 0.77653,1.919666 2.25732,2.797196 3.99494,2.811701 4.52475,0.03777 3.90756,-4.965655 7.53321,-4.780181 4.35578,0.222827 2.50704,5.336131 2.50704,5.336131 l 10.26311,-7.641452 c 0,0 -1.37774,-6.079351 -2.65992,-8.73319 z"
       id="path909" />
    <path
       style="fill:none;stroke:#000000;stroke-width:2;stroke-linecap:butt;stroke-linejoin:miter;stroke-miterlimit:4;stroke-dasharray:none;stroke-opacity:1"
       d="m 380.07191,108.40141 c -6.81695,6.13676 -14.39406,11.8456 -14.21064,21.68287 0.15348,8.23149 6.09968,16.32333 14.36079,16.26403 3.0959,-0.0223 8.72843,-3.00902 8.72843,-3.00902 0.0291,-0.10216 -6.65115,5.43895 -7.1124,8.6236 -0.25949,1.79161 2.13796,3.87579 4.48107,3.845"
       id="path914" />
    <path
       style="fill:none;stroke:#000000;stroke-width:2;stroke-linecap:butt;stroke-linejoin:miter;stroke-miterlimit:4;stroke-dasharray:none;stroke-opacity:1"
       d="m 366.71591,124.25987 c -10.36869,23.46944 -12.13012,46.91685 -12.14367,66.98866 -0.0149,22.08825 11.9923,45.64187 11.71345,57.81026 -0.20423,8.91167 -11.14713,21.21221 -11.14713,21.21221"
       id="path916" />
    <path
       style="fill:none;stroke:#000000;stroke-width:2;stroke-linecap:butt;stroke-linejoin:miter;stroke-miterlimit:4;stroke-dasharray:none;stroke-opacity:1"
       d="m 375.35073,145.63577 c -3.52421,11.25848 -5.774,24.19291 -5.89408,35.46041 -0.28788,27.01103 21.82272,57.04673 52.32627,59.1908"
       id="path918" />
    <path
       style="fill:none;stroke:#000000;stroke-width:2;stroke-linecap:butt;stroke-linejoin:miter;stroke-miterlimit:4;stroke-dasharray:none;stroke-opacity:1"
       d="m 363.3007,233.33135 c 5.40382,10.3889 8.97192,20.7613 25.46589,31.25718"
       id="path920" />
    <path
       style="fill:none;stroke:#000000;stroke-width:1.536;stroke-linecap:round;stroke-linejoin:miter;stroke-miterlimit:4;stroke-dasharray:none;stroke-opacity:1"
       d="m 370.70621,265.36058 c 0.0958,-8.69543 -4.94653,-26.05012 -4.94653,-26.05012"
       id="path922" />
    <path
       style="fill:none;stroke:#000000;stroke-width:1.53602;stroke-linecap:butt;stroke-linejoin:miter;stroke-miterlimit:4;stroke-dasharray:none;stroke-opacity:1"
       d="m 400.47497,258.71346 c 0,0 0.35718,-2.67774 0.34049,-4.05906 -0.17231,-14.2604 -13.3733,-30.92151 -13.3733,-30.92151"
       id="path922-8" />
    <path
       style="fill:none;stroke:#000000;stroke-width:1.53602;stroke-linecap:round;stroke-linejoin:miter;stroke-miterlimit:4;stroke-dasharray:none;stroke-opacity:1"
       d="m 410.38218,249.05289 c -7.30491,-7.36141 -19.15739,-20.52923 -18.64432,-20.59065"
       id="path922-4" />
    <path
       d="m 334.6601,34.815995 c 0,0 -1.98353,-0.331088 -3.3824,-0.310206 -1.72148,0.02569 -3.30032,0.723155 -4.93576,2.98801 5.26809,1.835319 7.36084,3.371373 7.40169,5.988083 0.0352,2.251063 -2.4346,4.723702 -4.25111,5.695049 -0.5017,0.268273 -1.33127,0.05533 -1.33127,0.05533 l -6.02502,-5.181249 -5.59991,5.155388 c 0,0 -0.84234,0.176807 -1.18038,-0.05722 -1.61129,-1.115514 -5.48966,-4.969127 -5.14251,-6.874624 0.27421,-1.505079 2.49442,-1.836117 2.42571,-3.574705 -0.0752,-1.902082 -1.65986,-3.345577 -4.56932,-3.331484 -1.25206,0.0061 -4.5951,0.755951 -4.5951,0.755951 -4.49569,-2.736679 -10.0394,-6.604028 -14.75238,-2.064115 6.71604,5.978301 13.22685,13.456831 12.52838,19.09658 l 88.41979,-0.0141 c -0.013,-7.603437 13.53507,-19.503507 13.53507,-19.503507 -6.46746,-4.190269 -14.75297,2.016098 -14.75297,2.016098 0,0 -3.07707,-0.446346 -4.76883,-0.382008 -2.39418,0.09105 -4.74457,0.887671 -4.89238,3.087948 -0.16072,2.392644 1.99116,2.585932 1.81698,3.830419 -0.30777,2.199064 -5.99197,5.984429 -9.02294,6.616235 -0.92117,0.192018 -1.10285,-0.03905 -1.10285,-0.03905 l -5.66805,-4.383588 -5.52559,4.527463 c 0,0 -0.48667,0.0587 -1.00286,-0.02123 -3.13457,-0.48544 -5.56553,-4.271821 -5.54043,-5.736427 0.0429,-2.500242 1.32749,-3.071122 7.55362,-5.519932 -2.05938,-2.33611 -3.78447,-2.925488 -5.81364,-2.931023 -1.07919,-0.003 -2.24437,0.159253 -3.5916,0.311655 -0.8723,-4.509075 -4.56199,-7.178433 -8.09311,-7.114583 -4.17392,0.07548 -7.10142,3.028937 -8.14083,6.914799 z"
       style="fill:#ffeb00;fill-opacity:1;fill-rule:nonzero;stroke:#000000;stroke-width:1.5;stroke-linecap:butt;stroke-linejoin:miter;stroke-miterlimit:4;stroke-dasharray:none;stroke-opacity:1"
       id="path2819" />
    <path
       d="m 294.69256,39.939291 c 9.22542,5.704504 17.88566,14.71522 27.96977,15.44488 11.92307,0.86272 15.4992,-6.329019 20.02123,-12.467194 0,0 11.57475,12.966699 22.74331,12.316795 11.77787,-0.685358 22.43769,-8.760558 31.80753,-15.596027"
       style="fill:none;fill-opacity:1;fill-rule:nonzero;stroke:#000000;stroke-width:1.5;stroke-linecap:butt;stroke-linejoin:miter;stroke-miterlimit:4;stroke-dasharray:none;stroke-opacity:1"
       id="path2823" />
    <path
       id="rect2812"
       style="fill:#ffeb00;fill-opacity:1;fill-rule:nonzero;stroke:#000000;stroke-width:1.5;stroke-linecap:round;stroke-linejoin:round;stroke-miterlimit:4;stroke-dasharray:none;stroke-opacity:1"
       d="m 301.30047,58.366449 h 87.49735 v 7.531668 h -87.49735 z" />
    <path
       style="fill:#ffeb00;fill-opacity:1;fill-rule:nonzero;stroke:#000000;stroke-width:1.5;stroke-linecap:round;stroke-linejoin:round;stroke-miterlimit:4;stroke-dasharray:none;stroke-opacity:1"
       d="m 299.26843,71.147451 h 93.29964 c 1.22822,-1.629677 1.9317,-2.511441 0,-5.222039 h -93.29964 c -1.44609,1.922611 -2.08047,2.903243 0,5.222039 z"
       id="rect2809" />
    <path
       style="fill:#ffeb00;fill-opacity:1;fill-rule:nonzero;stroke:#000000;stroke-width:1.5;stroke-linecap:round;stroke-linejoin:round;stroke-miterlimit:4;stroke-dasharray:none;stroke-opacity:1"
       d="m 299.58468,58.35894 h 93.05678 c 1.22501,-1.620711 1.92667,-2.497624 0,-5.193312 h -93.05678 c -1.44232,1.912035 -2.07503,2.887272 0,5.193312 z"
       id="rect2809-1" />
    <path
       style="fill:#d10815;fill-opacity:1;fill-rule:nonzero;stroke:#000000;stroke-width:0.512005;stroke-linecap:round;stroke-linejoin:miter;stroke-miterlimit:4;stroke-dasharray:none;stroke-opacity:1"
       d="m 313.55876,62.332232 c 4.79211,-3.90777 10.12947,-3.844214 14.23833,0.05333 -4.76157,3.613864 -9.67465,3.483405 -14.23833,-0.05333 z"
       id="rect2932" />
    <path
       style="fill:#000000;fill-opacity:1;stroke:#000000;stroke-width:0.512005;stroke-linecap:butt;stroke-linejoin:miter;stroke-miterlimit:4;stroke-dasharray:none;stroke-opacity:1"
       d="m 315.8679,60.812972 c -0.89354,0.415064 -2.30914,1.51926 -2.30914,1.51926 l 2.35869,1.458361 c 0,0 -0.60535,-0.928835 -0.61689,-1.456095 -0.0119,-0.54137 0.56734,-1.521526 0.56734,-1.521526 z"
       id="path990" />
    <path
       style="fill:#000000;fill-opacity:1;stroke:#000000;stroke-width:0.512005;stroke-linecap:butt;stroke-linejoin:miter;stroke-miterlimit:4;stroke-dasharray:none;stroke-opacity:1"
       d="m 325.48796,60.866307 c 0.89353,0.415063 2.30913,1.519259 2.30913,1.519259 l -2.35868,1.458361 c 0,0 0.60535,-0.928835 0.61689,-1.456095 0.0119,-0.541369 -0.56734,-1.521525 -0.56734,-1.521525 z"
       id="path990-6" />
    <path
       style="fill:#d10815;fill-opacity:1;fill-rule:nonzero;stroke:#000000;stroke-width:0.512005;stroke-linecap:round;stroke-linejoin:miter;stroke-miterlimit:4;stroke-dasharray:none;stroke-opacity:1"
       d="m 338.62756,62.343754 c 4.79212,-3.90777 10.12948,-3.844213 14.23834,0.05333 -4.76158,3.613864 -9.67466,3.483405 -14.23834,-0.05333 z"
       id="rect2932-5" />
    <path
       style="fill:#000000;fill-opacity:1;stroke:#000000;stroke-width:0.512005;stroke-linecap:butt;stroke-linejoin:miter;stroke-miterlimit:4;stroke-dasharray:none;stroke-opacity:1"
       d="m 340.9367,60.824494 c -0.89353,0.415064 -2.30914,1.51926 -2.30914,1.51926 l 2.35869,1.458361 c 0,0 -0.60534,-0.928835 -0.61689,-1.456095 -0.0119,-0.541369 0.56734,-1.521526 0.56734,-1.521526 z"
       id="path990-63" />
    <path
       style="fill:#000000;fill-opacity:1;stroke:#000000;stroke-width:0.512005;stroke-linecap:butt;stroke-linejoin:miter;stroke-miterlimit:4;stroke-dasharray:none;stroke-opacity:1"
       d="m 350.55676,60.87783 c 0.89354,0.415062 2.30914,1.519258 2.30914,1.519258 l -2.35869,1.458362 c 0,0 0.60535,-0.928836 0.61689,-1.456096 0.0119,-0.541369 -0.56734,-1.521524 -0.56734,-1.521524 z"
       id="path990-6-1" />
    <path
       style="fill:#d10815;fill-opacity:1;fill-rule:nonzero;stroke:#000000;stroke-width:0.512005;stroke-linecap:round;stroke-linejoin:miter;stroke-miterlimit:4;stroke-dasharray:none;stroke-opacity:1"
       d="m 367.17896,62.397088 c 4.79212,-3.90777 10.12948,-3.844213 14.23834,0.05333 -4.76158,3.613863 -9.67466,3.483405 -14.23834,-0.05333 z"
       id="rect2932-9" />
    <path
       style="fill:#000000;fill-opacity:1;stroke:#000000;stroke-width:0.512005;stroke-linecap:butt;stroke-linejoin:miter;stroke-miterlimit:4;stroke-dasharray:none;stroke-opacity:1"
       d="m 369.4881,60.87783 c -0.89354,0.415062 -2.30914,1.519258 -2.30914,1.519258 l 2.35869,1.458362 c 0,0 -0.60535,-0.928836 -0.61689,-1.456096 -0.0119,-0.541369 0.56734,-1.521524 0.56734,-1.521524 z"
       id="path990-3" />
    <path
       style="fill:#000000;fill-opacity:1;stroke:#000000;stroke-width:0.512005;stroke-linecap:butt;stroke-linejoin:miter;stroke-miterlimit:4;stroke-dasharray:none;stroke-opacity:1"
       d="m 379.10816,60.931164 c 0.89353,0.415062 2.30914,1.519259 2.30914,1.519259 l -2.35869,1.458361 c 0,0 0.60534,-0.928835 0.61689,-1.456096 0.0119,-0.541369 -0.56734,-1.521524 -0.56734,-1.521524 z"
       id="path990-6-6" />
  </g>
</svg>