<svg xmlns="http://www.w3.org/2000/svg" viewBox="-25.95 -28.95 801.90 882.90"><title>Herb Dubin</title><g transform="translate(-392.38 -116.463)"><path d="M396.13 120.216v491.892c14.981 300.482 201.739 173.05 371.25 325.606 170.805-155.286 358.82-24.99 371.248-334.176V120.216z" style="fill:#fff;fill-opacity:1;fill-rule:evenodd;stroke:#000;stroke-width:7.501863;stroke-linecap:butt;stroke-linejoin:miter;stroke-miterlimit:4;stroke-dasharray:none;stroke-opacity:1"/><path d="M190.659 229.863h215.605v37.419H190.659z" style="opacity:1;fill:#000;fill-opacity:1;stroke:none;stroke-width:3.75;stroke-linecap:round;stroke-linejoin:round;stroke-miterlimit:4;stroke-dasharray:none;stroke-opacity:1" transform="translate(392.38 116.463)"/><path d="M587.955 409.282H793.25v298.309H587.955z" style="fill:#ed4e2b;fill-opacity:1;stroke:#000;stroke-width:3.75;stroke-linecap:round;stroke-linejoin:round;stroke-miterlimit:4;stroke-dasharray:none;stroke-opacity:1"/><path d="M898.297 371.781h68.9c5.244 0 12.358-6.809 14.413-14.413 1.71-6.325 2.288-20.25 0-28.827-1.857-6.96-6.043-12.25-15.466-25.67-9.576-13.64-28.816-43.526-33.397-66.577-4.581 23.05-23.82 52.937-33.397 66.576-9.424 13.421-13.61 18.71-15.466 25.67-2.288 8.577-1.71 22.503 0 28.828 2.055 7.604 9.17 14.413 14.413 14.413z" style="fill:#04a;fill-rule:evenodd;stroke:#000;stroke-width:3.75;stroke-linecap:butt;stroke-linejoin:miter;stroke-miterlimit:4;stroke-dasharray:none;stroke-opacity:1"/><path d="M941.961 371.783c4.694 0 7.686-15.028 7.686-27.915 0-12.592-6.74-31.036-9.021-39.552-2.37-8.847-8.042-44.371-8.045-64.853-.002 20.482-5.673 56.006-8.044 64.853-2.282 8.516-9.021 26.96-9.021 39.552 0 12.887 2.991 27.915 7.686 27.915" style="fill:none;fill-rule:evenodd;stroke:#000;stroke-width:3.75;stroke-linecap:butt;stroke-linejoin:miter;stroke-miterlimit:4;stroke-dasharray:none;stroke-opacity:1"/><rect width="277.048" height="43.849" x="552.078" y="376.727" ry="21.925" style="fill:#ed4e2b;fill-opacity:1;stroke:#000;stroke-width:3.75;stroke-linecap:round;stroke-linejoin:round;stroke-miterlimit:4;stroke-dasharray:none;stroke-opacity:1"/><path d="M525.171 372.212h330.863v25.247H525.171z" style="fill:#ed4e2b;fill-opacity:1;stroke:#000;stroke-width:3.75;stroke-linecap:round;stroke-linejoin:round;stroke-miterlimit:4;stroke-dasharray:none;stroke-opacity:1"/><path d="M632.295 370.912H748.91c8.876 0 20.917-11.524 24.395-24.396 2.894-10.705 3.873-34.275 0-48.791-3.143-11.782-10.227-20.733-26.176-43.45-16.21-23.085-48.774-73.669-56.527-112.684-7.754 39.015-40.318 89.599-56.527 112.685-15.95 22.716-23.034 31.667-26.177 43.449-3.873 14.516-2.893 38.086 0 48.791 3.478 12.872 15.52 24.396 24.395 24.396z" style="fill:#04a;fill-rule:evenodd;stroke:#000;stroke-width:3.75;stroke-linecap:butt;stroke-linejoin:miter;stroke-miterlimit:4;stroke-dasharray:none;stroke-opacity:1"/><path d="M722.027 370.915c7.945 0 13.009-25.436 13.009-47.248 0-21.313-16.903-52.53-23.072-66.944-6.1-14.252-21.413-75.102-21.361-109.768.051 34.666-15.262 95.516-21.362 109.768-6.17 14.414-23.072 45.63-23.072 66.944 0 21.812 5.064 47.248 13.01 47.248m31.424-221.953v222.821" style="fill:none;fill-rule:evenodd;stroke:#000;stroke-width:3.75;stroke-linecap:butt;stroke-linejoin:miter;stroke-miterlimit:4;stroke-dasharray:none;stroke-opacity:1"/><path d="M527.411 371.781h68.9c5.244 0 12.358-6.809 14.413-14.413 1.71-6.325 2.288-20.25 0-28.827-1.857-6.96-6.043-12.25-15.466-25.67-9.576-13.64-28.816-43.526-33.397-66.577-4.581 23.05-23.82 52.937-33.397 66.576-9.424 13.421-13.61 18.71-15.466 25.67-2.288 8.577-1.71 22.503 0 28.828 2.055 7.604 9.17 14.413 14.413 14.413z" style="fill:#04a;fill-rule:evenodd;stroke:#000;stroke-width:3.75;stroke-linecap:butt;stroke-linejoin:miter;stroke-miterlimit:4;stroke-dasharray:none;stroke-opacity:1"/><path d="M571.075 371.783c4.695 0 7.686-15.028 7.686-27.915 0-12.592-6.74-31.036-9.021-39.552-2.37-8.847-8.042-44.371-8.044-64.853-.003 20.482-5.674 56.006-8.045 64.853-2.282 8.516-9.021 26.96-9.021 39.552 0 12.887 2.992 27.915 7.686 27.915" style="fill:none;fill-rule:evenodd;stroke:#000;stroke-width:3.75;stroke-linecap:butt;stroke-linejoin:miter;stroke-miterlimit:4;stroke-dasharray:none;stroke-opacity:1"/><path d="M784.895 371.781h68.899c5.244 0 12.358-6.809 14.413-14.413 1.71-6.325 2.288-20.25 0-28.827-1.857-6.96-6.042-12.25-15.466-25.67-9.576-13.64-28.816-43.526-33.397-66.577-4.581 23.05-23.82 52.937-33.397 66.576-9.423 13.421-13.609 18.71-15.466 25.67-2.288 8.577-1.71 22.503 0 28.828 2.055 7.604 9.17 14.413 14.414 14.413z" style="fill:#04a;fill-rule:evenodd;stroke:#000;stroke-width:3.75;stroke-linecap:butt;stroke-linejoin:miter;stroke-miterlimit:4;stroke-dasharray:none;stroke-opacity:1"/><path d="M828.559 371.783c4.694 0 7.685-15.028 7.685-27.915 0-12.592-6.74-31.036-9.021-39.552-2.37-8.847-8.041-44.371-8.044-64.853-.003 20.482-5.674 56.006-8.044 64.853-2.282 8.516-9.022 26.96-9.022 39.552 0 12.887 2.992 27.915 7.686 27.915" style="fill:none;fill-rule:evenodd;stroke:#000;stroke-width:3.75;stroke-linecap:butt;stroke-linejoin:miter;stroke-miterlimit:4;stroke-dasharray:none;stroke-opacity:1"/><rect width="243.165" height="33.884" x="569.02" y="698.954" ry="16.942" style="fill:#ed4e2b;fill-opacity:1;stroke:#000;stroke-width:3.75;stroke-linecap:round;stroke-linejoin:round;stroke-miterlimit:4;stroke-dasharray:none;stroke-opacity:1"/><path d="M676.651 603.282h27.904v74.411h-27.904zm0-101.433h27.904v74.411h-27.904z" style="fill:#000;fill-opacity:1;stroke:none;stroke-width:3.75;stroke-linecap:round;stroke-linejoin:round;stroke-miterlimit:4;stroke-dasharray:none;stroke-opacity:1"/><g style="fill:#000;stroke:none;stroke-width:.96122766;stroke-linecap:round;stroke-linejoin:round;stroke-miterlimit:4;stroke-dasharray:none;stroke-opacity:1"><path d="M-236.376 199.151h11.41v10.388h-11.41z" style="opacity:1;fill:#000;fill-opacity:1;stroke:none;stroke-width:.96122766;stroke-linecap:round;stroke-linejoin:round;stroke-miterlimit:4;stroke-dasharray:none;stroke-opacity:1" transform="translate(1535.893 -333.112)scale(3.90126)"/><path d="M184.003 315.615h11.41v10.388h-11.41z" style="opacity:1;fill:#000;fill-opacity:1;stroke:none;stroke-width:.96122766;stroke-linecap:round;stroke-linejoin:round;stroke-miterlimit:4;stroke-dasharray:none;stroke-opacity:1" transform="translate(5.12 -787.466)scale(3.90126)"/></g><path d="m566.769 737.246-24.462 57.984-.016.047c-.459 1.066-.742 2.258-.843 3.666a9.61 9.61 0 0 0 9.634 9.634h279.041a9.61 9.61 0 0 0 9.634-9.634c0-1.28-.247-2.5-.85-3.664l-24.641-58.18c-1.892-2.735-4.78-4.359-8.06-4.359H575c-3.408 0-6.52 1.85-8.231 4.506m332.555-356.54h66.845v89.008h-66.845z" style="fill:#ed4e2b;fill-opacity:1;stroke:#000;stroke-width:3.75;stroke-linecap:round;stroke-linejoin:round;stroke-miterlimit:4;stroke-dasharray:none;stroke-opacity:1"/><rect width="92.347" height="290.233" x="886.573" y="459.236" ry="22.693" style="fill:#ed4e2b;fill-opacity:1;stroke:#000;stroke-width:3.75;stroke-linecap:round;stroke-linejoin:round;stroke-miterlimit:4;stroke-dasharray:none;stroke-opacity:1"/><rect width="89.948" height="16.814" x="887.773" y="371.663" ry="8.407" style="fill:#ed4e2b;fill-opacity:1;stroke:#000;stroke-width:3.75;stroke-linecap:round;stroke-linejoin:round;stroke-miterlimit:4;stroke-dasharray:none;stroke-opacity:1"/><g style="fill:#000;fill-opacity:1;stroke:none;stroke-width:.96122766;stroke-linecap:round;stroke-linejoin:round;stroke-miterlimit:4;stroke-dasharray:none;stroke-opacity:1"><path d="M-159.89 186.728h3.757v14.569h-3.757z" style="opacity:1;fill:#000;fill-opacity:1;stroke:none;stroke-width:.96122766;stroke-linecap:round;stroke-linejoin:round;stroke-miterlimit:4;stroke-dasharray:none;stroke-opacity:1" transform="translate(1537.486 -333.112)scale(3.90126)"/><path d="M238.49 303.191h3.757v14.569h-3.757z" style="opacity:1;fill:#000;fill-opacity:1;stroke:none;stroke-width:.96122766;stroke-linecap:round;stroke-linejoin:round;stroke-miterlimit:4;stroke-dasharray:none;stroke-opacity:1" transform="translate(6.713 -787.466)scale(3.90126)"/></g><path d="M230.605 325.192h3.757v66.796h-3.757zm8 0h3.757v66.796h-3.757z" style="fill:#000;fill-opacity:1;stroke:none;stroke-width:.96122766;stroke-linecap:round;stroke-linejoin:round;stroke-miterlimit:4;stroke-dasharray:none;stroke-opacity:1" transform="translate(10.164 -787.466)scale(3.90126)"/><path d="m873.137 734.967-11.775 28.64-.008.023c-.221.527-.357 1.116-.406 1.811 0 2.636 2.068 4.759 4.637 4.759h134.323c2.57 0 4.637-2.123 4.637-4.759 0-.632-.118-1.235-.409-1.81l-11.861-28.737c-.911-1.351-2.3-2.153-3.88-2.153H877.099c-1.64 0-3.138.914-3.962 2.226" style="fill:#ed4e2b;fill-opacity:1;stroke:#000;stroke-width:3.75;stroke-linecap:round;stroke-linejoin:round;stroke-miterlimit:4;stroke-dasharray:none;stroke-opacity:1"/></g></svg>