<svg
   xmlns="http://www.w3.org/2000/svg"
   id="svg2"
   viewBox="-21.21 -28.21 572.63 761.73"><title>Herb Kazimierz Dolny</title>
  <metadata
     id="metadata25">
    <rdf:RDF>
      <cc:Work
         rdf:about="">
        <dc:format>image/svg+xml</dc:format>
        <dc:type
           rdf:resource="http://purl.org/dc/dcmitype/StillImage" />
      </cc:Work>
    </rdf:RDF>
  </metadata>
  <sodipodi:namedview
     guidetolerance="10.0"
     gridtolerance="10.0"
     objecttolerance="10.0"
     borderopacity="1.0"
     bordercolor="#666666"
     pagecolor="#ffffff"
     id="base" />
  <defs
     id="defs4">
    <marker
       id="ArrowEnd"
       viewBox="0 0 10 10"
       refX="0"
       refY="5"
       markerUnits="strokeWidth"
       markerWidth="4"
       markerHeight="3"
       orient="auto">
      <path
         d="M 0 0 L 10 5 L 0 10 z"
         id="path7" />
    </marker>
    <marker
       id="ArrowStart"
       viewBox="0 0 10 10"
       refX="10"
       refY="5"
       markerUnits="strokeWidth"
       markerWidth="4"
       markerHeight="3"
       orient="auto">
      <path
         d="M 10 0 L 0 5 L 10 10 z"
         id="path10" />
    </marker>
  </defs>
  <g
     id="g12">
    <path
       style="stroke:none;fill-rule:evenodd;fill:#000000"
       d="M 0 0L 530.211 0L 530.211 342.941C 530.211 705.304 0 702.125 0 342.941L 0 0"
       id="path14" />
    <path
       style="stroke:none;fill-rule:evenodd;fill:#ec5217;fill-opacity:1"
       d="M 264.488 78.519C 262.504 82.894 259.676 86.019 256.016 87.894C 255.18 101.019 257.688 109.562 263.547 113.519C 269.852 110.293 273.879 103.418 272.649 88.519C 268.672 86.019 265.953 82.687 264.488 78.519zM 241.254 141.59L 241.254 161.031C 235.461 157.906 234.621 154.031 235.871 143.226C 239.692 141.664 242.547 135.328 244.625 131.672C 246.25 133.98 247.922 138.777 250.395 141.094L 241.258 141.586L 241.254 141.59zM 240.36 162.293L 228.317 162.293C 230.852 160.246 233.133 157.867 234.574 155.332C 235.813 157.84 237.535 160.039 240.36 162.293zM 220.793 162.293L 210.285 162.293C 212.512 160.316 214.485 158.258 215.778 155.98C 216.899 158.25 218.418 160.183 220.793 162.293zM 206.11 161.332L 206.11 141.097L 196.063 141.097L 204.317 119.019C 205.18 132.332 208.617 139.883 214.305 143.23C 215.539 155.211 212.235 158.515 206.11 161.336L 206.11 161.332zM 206.653 113.32L 213.903 95.6559C 214.367 102.515 216.766 113.816 224.324 116.301C 225.738 130.094 222.399 138.754 215.133 141.746C 208.227 138.523 205.496 125.461 206.656 113.324L 206.653 113.32zM 216.383 89.613L 223.098 73.254C 224.856 79.1479 228.957 87.4449 233.996 88.238C 234.531 102.98 232.426 111.336 225.317 114.812C 218.168 111.519 215.129 104.558 216.383 89.613zM 226.258 65.558L 226.524 64.9059L 244.235 64.9059C 244.539 77.687 240.563 83.89 234.629 86.941C 228.215 83.769 225.457 76.605 226.262 65.558L 226.258 65.558zM 245.813 64.9059L 263.371 64.9059C 263.528 77.254 259.59 83.293 253.754 86.297C 248.512 82.738 245.863 75.6089 245.817 64.9059L 245.813 64.9059zM 265.625 64.9059L 282.266 64.9059C 282.731 78.211 279.043 82.965 273.199 85.972C 267.828 82.328 264.926 78.258 265.629 64.9059L 265.625 64.9059zM 284.223 64.9059L 303.66 64.9059L 303.871 65.437C 303.856 77.426 299.688 83.336 293.938 86.293C 287.067 81.746 283.75 77.0229 284.223 64.902L 284.223 64.9059zM 306.957 73.1089L 314.672 92.316C 315.348 105.414 312.262 111.722 305.555 114.812C 297.942 111.086 295.043 102.336 296.875 88.238C 300.278 86.672 304.32 78.566 306.957 73.1089zM 316.887 97.824L 322.035 110.644C 323.774 128.011 320.727 139.156 313.656 142.062C 307.133 138.129 305.422 129.324 306.598 117.011C 315.879 111.242 316.961 103.801 316.883 97.8199L 316.887 97.824zM 325.774 119.937L 333.481 141.094L 319.223 141.094L 319.223 157.539C 316.289 154.14 315.16 151.312 316.25 143.547C 322.61 137.918 324.281 125.699 325.774 119.937zM 319.219 161.14L 319.219 162.613L 308.485 162.613C 310.711 160.637 312.684 158.578 313.977 156.301C 315.61 157.89 317.313 159.273 319.215 161.137L 319.219 161.14zM 305.395 162.617L 287.758 162.617C 291.07 160.652 294.375 157.492 296.156 154.359C 297.684 157.449 301.231 160 305.383 162.476C 305.387 162.523 305.391 162.566 305.395 162.613L 305.395 162.617zM 283.555 160.812L 283.555 141.097L 276.832 141.097C 279.551 139.187 282.172 134.687 283.516 132.324C 285.043 135.414 291.184 143.668 295.332 146.148C 296.485 157.332 289.551 158.281 283.555 160.816L 283.555 160.812zM 274.367 141.097L 271.555 141.097C 267.117 137.047 266.238 126.523 265.442 115.722C 268.797 113.988 270.43 110.121 273.586 106.07C 275.27 109.496 278.082 114.203 282.664 116.949C 283.258 129.398 279.106 137.769 274.367 141.097zM 269.781 141.097L 258.528 141.097C 260.906 139.082 263.028 134.402 264.391 132C 265.57 134.387 267.188 138.918 269.778 141.097L 269.781 141.097zM 305.551 132.644C 303.481 136.297 300.297 141.336 297.125 143.875C 295.813 155.226 299.731 157.668 306.192 160.672C 312.77 157.976 314.766 155.996 313.485 143.554C 309.336 141.078 307.082 135.738 305.555 132.648L 305.551 132.644zM 225.176 131.672C 223.102 135.324 220.246 141.66 216.422 143.226C 215.11 154.578 217.735 157.992 224.192 160.996C 230.77 158.301 234.387 155.023 233.102 142.582C 228.953 140.105 226.703 134.765 225.172 131.676L 225.176 131.672zM 235.016 106.39C 233.418 110.844 230.57 113.461 226.871 115.719C 225.422 128.304 226.805 138.086 233.93 141.414C 241.196 138.426 245.188 130.09 243.77 116.297C 239.188 113.551 236.703 109.816 235.016 106.39zM 254.785 106.39C 252.496 110.441 250.535 114.304 246.317 116.043C 244.867 128.629 247.219 137.765 254.348 141.094C 261.297 138.105 263.719 130.094 263.539 116.297C 259.391 113.117 256.903 109.383 254.785 106.39zM 295.301 107.039C 293.012 111.09 288.781 115.926 284.563 117.664C 283.113 130.25 287.082 138.738 294.215 142.066C 301.481 139.078 305.473 130.742 304.055 116.945C 299.473 114.199 296.988 110.465 295.301 107.039zM 283.633 78.519C 281.344 83.054 279.383 86.297 275.164 88.242C 273.715 102.34 276.715 111.09 283.844 114.816C 291.11 111.469 295.75 104.34 294.332 88.89C 289.75 86.297 285.32 82.84 283.633 78.519zM 245 78.519C 242.949 83.054 240.031 86.297 236.25 88.242C 235.387 101.851 237.977 110.711 244.028 114.816C 250.535 111.469 254.696 104.34 253.426 88.89C 249.32 86.297 246.512 82.84 245 78.519zM 225.555 23.097L 232.035 40.2729L 225.555 57.449L 219.074 40.2729L 225.555 23.097zM 305.281 23.097L 311.762 40.2729L 305.281 57.449L 298.801 40.2729L 305.281 23.097"
       id="path16" />
    <path
       style="stroke:none;fill-rule:evenodd;fill:#ffffff"
       d="M 356.055 467.793C 339.067 476.383 322.203 482.906 305.481 487.129L 305.481 467.793L 356.055 467.793zM 223.891 488.035C 207.91 484.011 192.086 477.347 176.438 467.797L 223.891 467.797L 223.891 488.035zM 358.07 442.84L 359.379 465.594L 305.477 465.594L 305.477 442.84L 358.067 442.84L 358.07 442.84zM 223.891 465.597L 173.699 465.597L 174.942 442.844L 223.887 442.844L 223.887 465.597L 223.891 465.597zM 356.363 413.211L 357.942 440.644L 305.477 440.644L 305.477 413.211L 356.36 413.211L 356.363 413.211zM 223.891 440.644L 175.067 440.644L 176.567 413.211L 223.891 413.211L 223.891 440.644zM 354.711 384.554L 356.235 411.015L 305.481 411.015L 305.481 389.543L 305.477 389.543C 305.477 389.387 305.481 389.226 305.481 389.062C 305.481 387.543 305.387 386.039 305.207 384.558L 354.711 384.558L 354.711 384.554zM 223.891 411.015L 176.688 411.015L 178.133 384.554L 224.164 384.554C 223.985 386.031 223.891 387.535 223.891 389.058C 223.891 389.219 223.895 389.379 223.895 389.539L 223.891 389.539L 223.891 411.011L 223.891 411.015zM 224.5 382.359L 178.258 382.359L 179.832 353.562L 209.903 353.562L 229.875 368.808C 227.25 372.894 225.395 377.472 224.496 382.359L 224.5 382.359zM 352.926 353.558L 354.582 382.355L 304.871 382.355C 304.059 377.91 302.446 373.715 300.184 369.918L 321.617 353.558L 352.926 353.558zM 209.805 351.363L 179.953 351.363L 181.262 327.437L 209.805 327.437L 209.805 351.363zM 277.969 351.363L 274.785 351.363C 271.555 350.574 268.172 350.152 264.688 350.152C 261.957 350.152 259.289 350.41 256.703 350.902L 250.051 327.437L 284.758 327.437L 277.977 351.363L 277.969 351.363zM 351.418 327.437L 352.797 351.363L 322.129 351.363L 322.129 327.437L 351.418 327.437zM 349.801 299.363L 351.289 325.238L 297.281 325.238L 297.281 299.363L 349.797 299.363L 349.801 299.363zM 295.086 325.238L 234.832 325.238L 234.832 299.363L 295.086 299.363L 295.086 325.238zM 232.637 325.238L 181.383 325.238L 182.797 299.363L 232.633 299.363L 232.633 325.238L 232.637 325.238zM 346.453 241.273L 348.055 269.097L 297.285 269.097L 297.285 241.273L 346.453 241.273zM 295.086 269.097L 234.832 269.097L 234.832 241.273L 295.086 241.273L 295.086 269.097zM 232.637 269.097L 184.457 269.097L 185.977 241.273L 232.633 241.273L 232.633 269.097L 232.637 269.097zM 189.012 185.847L 232.633 185.847L 232.633 211.004L 187.637 211.004L 189.012 185.847zM 234.832 185.847L 295.086 185.847L 295.086 211.004L 234.832 211.004L 234.832 185.847zM 297.281 185.847L 343.254 185.847L 344.703 211.004L 297.281 211.004L 297.281 185.847zM 348.184 271.293L 349.672 297.168L 322.129 297.168L 322.129 271.293L 348.18 271.293L 348.184 271.293zM 319.934 297.168L 266.059 297.168L 266.059 271.293L 319.934 271.293L 319.934 297.168zM 263.86 297.168L 212 297.168L 212 271.293L 263.86 271.293L 263.86 297.168zM 209.805 297.168L 182.922 297.168L 184.336 271.293L 209.801 271.293L 209.801 297.168L 209.805 297.168zM 344.836 213.199L 346.324 239.074L 322.129 239.074L 322.129 213.199L 344.832 213.199L 344.836 213.199zM 319.934 239.074L 266.059 239.074L 266.059 213.199L 319.934 213.199L 319.934 239.074zM 263.86 239.074L 212 239.074L 212 213.199L 263.86 213.199L 263.86 239.074zM 209.805 239.074L 186.102 239.074L 187.516 213.199L 209.801 213.199L 209.801 239.074L 209.805 239.074zM 231.121 366.988C 237.348 358.41 244.961 354.547 254.543 351.363L 247.762 327.437L 212.004 327.437L 212.004 352.367L 231.121 366.984L 231.121 366.988zM 280.133 352.461C 287.926 356.668 294.731 361.738 299 368.058L 319.93 352.461L 319.93 327.437L 287.035 327.437L 280.133 352.461zM 169.16 143.34L 203.836 143.34L 203.836 165.699L 244.996 165.699L 244.996 143.34L 281.293 143.34L 281.293 165.699L 322.453 165.699L 322.453 143.34L 359.723 143.34L 359.723 182.879L 169.153 182.879L 169.153 143.34"
       id="path18" />
    <path
       style="stroke:none;fill-rule:evenodd;fill:#0078bf;fill-opacity:1"
       d="M 81.5978 201.922L 96.4848 244.261L 141.153 235.797L 111.375 269.668L 141.153 303.539L 96.4848 295.074L 82.4418 335.011C 87.8868 354.195 91.7458 372.492 99.9608 386.668C 118.594 424.137 143.688 449.847 170.551 466.511C 170.488 466.433 170.422 466.355 170.356 466.273L 185.946 186.613L 166.563 186.121L 166.563 140.426L 191.91 140.426L 223.922 61.672L 224.176 61.672L 215.496 41.094L 225.543 17.2729L 235.59 41.094L 226.91 61.672L 303.578 61.672L 294.899 41.094L 304.946 17.2729L 314.992 41.094L 306.313 61.672L 306.567 61.672L 337.297 140.426L 362.633 140.426L 362.633 186.121L 345.469 186.613L 362.86 464.031C 388.942 447.785 413.793 422.648 433.164 384.133C 440.785 368.976 444.973 349.683 448.383 336.914L 433.672 295.074L 389.004 303.539L 418.781 269.668L 389.004 235.797L 433.672 244.261L 448.559 201.922L 463.446 244.261L 508.113 235.797L 478.336 269.668L 508.113 303.539L 463.446 295.074L 450.153 332.871C 466.184 388.379 451.356 435.469 436.645 466.633C 400.207 543.789 318.555 570.164 271.422 571.808C 231.43 573.199 154.973 556.347 111.996 494.91C 80.3598 449.683 64.1992 401.637 80.4528 334.203L 66.6953 295.074L 22.0273 303.539L 51.8047 269.668L 22.0273 235.797L 66.6953 244.261L 81.5818 201.922L 81.5978 201.922zM 4.164 5.18695L 526.043 5.18695L 526.043 341.648C 526.043 697.16 4.164 694.043 4.164 341.648L 4.164 5.18695zM 234.297 394.101L 234.301 394.101C 234.301 393.949 234.297 393.797 234.297 393.644C 234.297 373.203 249.68 356.535 268.543 356.535C 287.406 356.535 302.789 373.203 302.789 393.644C 302.789 393.797 302.785 393.949 302.785 394.101L 302.789 394.101L 302.789 488.484C 279.035 493.562 256.262 493.254 234.297 488.484L 234.297 394.101"
       id="path20" />
    <path
       style="stroke:none;fill-rule:evenodd;fill:#fdca00;fill-opacity:1"
       d="M 81.5978 211.738L 94.3278 247.941L 132.524 240.703L 107.059 269.668L 132.524 298.629L 94.3278 291.39L 81.5978 327.594L 68.8668 291.39L 30.6719 298.629L 56.1367 269.668L 30.6719 240.703L 68.8668 247.941L 81.5978 211.738zM 80.8008 343.324C 68.5278 413.047 91.0428 458.953 115.543 493.144C 159.211 554.09 232.254 570.105 272.246 568.578C 315.262 566.937 397.211 543.207 433.653 466.047C 448.465 434.676 459.797 394.472 449.852 343.328C 426.731 455.879 327.957 493.554 267.403 495.109C 204.926 496.715 114.457 463.887 80.8008 343.328L 80.8008 343.324zM 448.578 211.738L 461.309 247.941L 499.504 240.703L 474.039 269.668L 499.504 298.629L 461.309 291.39L 448.578 327.594L 435.848 291.39L 397.653 298.629L 423.117 269.668L 397.653 240.703L 435.848 247.941L 448.578 211.738"
       id="path22" />
  </g>
</svg>