<svg><title>Herb Góra</title><path d="M0 0h537.504v343.414c0 120.731-108.59 246.277-262.801 252.164S.004 467 .004 343.414V0" style="stroke:none;fill-rule:evenodd;fill:#222"/><path d="M232.18 164.355c1.707-4.484 2.964-8.968 3.761-13.453.625-1.175 1.535-1.785 3.078-1.14-.531-3.227.301-5.547 2.508-6.953 1.559-1.86 2.586-3.989 3.531-6.157.313-6.55 2.508-12.16 4.676-17.785-.359-7.793 1.156-13.492 3.531-18.242 6.934-4.109 14.063-8.059 27.141-6.953 7.149 1.469 13.918 3.969 18.016 13.683 1.234 5.329 2.144 10.821 2.164 16.762a103 103 0 0 1 4.332 5.926c2.73 1.312 2.824 3.945 3.078 6.5-4.098-.902-8.16-1.512-12.883-7.07-.414-2.094-1.367-1.524-2.394-.567-.758-.984-.911-2.129-.454-3.418.305-2.129-.718-3.191-1.937-4.101.797-3.457 1.445-6.914 3.191-10.375-.074-3.91-1.214-6.309-3.418-7.184-1.976-1.121-3.57-2.527-4.332-4.562q-1.253-1.88-2.507-.567c-3.504.653-4.336-.832-4.786-2.621q-.798 1.823-3.875 1.367c-.148-.722-.453-1.289-.91-1.711-1.293.114-2.394.606-3.078 1.938-1.293-.473-2.586-.551-3.875.797-.871-2.133-2.277-1.598-3.762-.684-1.14.871-2.054 1.973-1.367 4.676.395 1.309-.246 1.992-1.367 2.394-.984.95-1.215 2.204-.684 3.762-.605 1.863-1.367 3.27-2.277 4.219q.34 4.5 2.051 9.465c-1.559 5.308-2.621 10.5-2.965 15.508 1.137.339 1.824-.379 2.051-2.164l1.137-6.727q.68-1.595 1.824-.453c.949 3.039 1.633 6.347 2.277 9.691-.867 6.102-.48 12.516-4.219 17.903-.949 0-1.293-.911-1.023-2.735-1.176.723-1.746 1.594-1.707 2.621-1.824.035-2.735-.984-2.735-3.078.063-4.359 1.036-7.457 2.622-9.691-.266-1.977-.989-2.582-2.168-1.824q-1.084 7.183-4.446 14.824c-3.148 2.433-6.218 5.519-9.691 5.359q-1.312-1.593.113-5.015 1.934-1.196 2.965-3.762-.91-1.88-2.734-1.481-.569 2.222-2.508 1.707c-2.621 5.016-2.735 12.543-5.813 18.016-2.203 0-2.468-2.355-.113-6.613zm13.796-14.593c.454-3.797.911-7.602 1.368-11.403 1.414-4.187 2.5-8.312 2.394-12.199.75-3.793 2.211-5.445 3.875-6.5.871.074 1.141.606.797 1.594-2.168 2.172-3.801 5.078-3.531 10.601.797.797 1.445 1.707 1.023 3.418-2.754 3.961-4.273 8.543-3.988 14.024q-1.423 1.366-1.938.453zm48.922-43.223c1.481 5.063 2.434 10.328 1.481 16.305q.738 3.305 2.847 2.508-1.653-1.88-.57-4.672c.551-7.785-1.269-11.528-3.762-14.141zm-1.824 25.316c.965 6.004 3.93 11.059 11.289 14.024q6.1 3.932 10.375 5.129c.227-1.856-.609-3.258-1.594-5.129-.757-1.559-1.214-1.594-1.367-.113-1.023.347-2.051-.516-3.078-1.141q-.908-1.08 0-1.707c.34.644.836.836 1.481.566.007-2.281-1.274-3.464-2.735-4.445-7.68-.945-11.558-3.797-14.367-7.184zm18.02 10.153c4.722 3 4 5.547 4.671 8.207-.531 1.293-.148 1.976 1.137 2.051q1.138.628 1.367 2.164 1.423-.456.567-2.735-1.084-8.037-6.727-11.972c-1.101.148-1.441.91-1.023 2.277zm-21.899-11.977c-2.305 1.926-2.547 6.43-3.418 10.149 2.051 4.543 4.367 8.949 7.641 12.882q4.448 2.68 8.894 3.532c-.019-1.106-.203-2.16-1.136-2.965 1.777.504 3.48 1.168 5.586 1.023.984 2.399 2.238 2.93 3.531 3.192q.054-1.652 1.937-1.481c1.293.227 2.125.758 2.508 1.594.984.074 1.672-.301 2.051-1.137q-.4-2.11-1.707-3.304c-17.785-6.875-22.75-15.086-25.887-23.489zm-51.199 12.317c.66-5.532 1.726-9.868 4.219-9.918q2.45 2.394.34 6.613c-2.543 4.523-3.84 4.863-4.559 3.305" style="stroke:none;fill-rule:evenodd;fill:#ffca04"/><path d="M263.191 151.664c3.016 3.137 6.207 5.984 10.625 6.793-4.062 5.281-5.226 10.566 0 15.852-.804 8.589-2.308 17.129-8.707 25.253-9.695 11.93-19.39 21.278-29.086 30.829-3.828 1.047-7.718 1.804-12.019.519-2.262 1.57-4.528 1.508-6.793 1.219-2.207-1.805-4.004-.758-5.746.695-2.407.086-4.379-.551-5.399-2.785q-4.266-1.302-8.531.172c-3.891.984-7.777 1.101-11.668-.695-3.25-.403-6.5 1.043-9.754 4.351-2.48-8.39.274-12.918 6.617-14.805q6.094-2.96 8.707-9.406c-.355-3.199-.011-5.875 5.223-4.875 13.941 4.434 25.027.711 35.707-4.179 2.438.347 3.02-.926 1.738-3.829-10.566-.23-20.609 9.985-31.179 5.747 1.187-3.512 3.105-6.766 6.617-8.883 4.297-4.078 8.594-3.258 12.887-1.739h10.449q1.566-.78-.348-2.96c-5.687.722-9.465-.145-12.367-1.739.754-3.804 2.785-6.008 5.398-7.488l11.844-1.914c-3.09-4.59-1.281-7.953 1.219-11.145 4.473-3.992 10.625-4.644 16.547-5.746 3.312-.926 6.39-1.972 7.836-3.832q-1.3-3.045.172-5.398zm-82.39 76.121c.168-5.855 3.421-7.855 7.312-9.055q3.743-.696 10.973 1.391c2.293.52 4.906.227 7.66-.172q2.525 1.214 2.262 3.828c-5.344.118-10.512-.05-14.457-2.261-6.938-.782-11 1.941-13.758 6.269zm-3.137 13.414c4.062-3.687 8.766-5.777 13.758-7.14-3.043-.782-4.668-3.164-11.844.695-1.418 2.144-1.887 4.293-1.914 6.441zm53.476-6.969c-2.671 1.395-5.054 2.446-5.398 1.043 2.543-2.203 3.848-1.312 5.398-1.043m52.606-74.378c2.844-2.032 5.742-3.836 9.055-4.004 2.089.691 4.121 1.617 5.746 4.179 2.09 1.911 4.008 4 4.699 7.313l3.133.867c-.121-3.723 2.199-4.59 4.875-5.051 2.902.203 6.094-.605 9.926-3.656q.868 4.525 8.011 5.574c4.274 1.457 9.047 2.305 12.367 6.617 4.09 5.676 8.387 10.641 13.411 13.063q1.651 2.347 1.218 5.398c-3.945-.41-7.894-.468-11.843 1.914-6.133-2.16-11.758-.804-17.418.348-2.926 1.852-6.071 3.371-9.926 3.828q-1.912-2.871-5.223-3.656 2.088-1.132 2.785-2.961c2.903.285 5.805 1.043 8.707 2.262-1.863-1.77-.457-2.352 2.786-2.262-2.899-2.27-7.43-2.906-12.192-3.309-.867.985-1.277 1.973-1.219 2.961-4.718-.332-7.515-2.586-10.625-4.527-.867 1.043.286 2.961 5.922 6.793-5.746-1.551-11.609-4.27-18.289-15.152 1.879 7.578 4.106 14.996 17.242 17.418 1.856-.176 3.715-.118 5.575 1.566q1.128 2.96-.52 2.437c-23.051 4.122-21.133-4.238-25.605-9.406q-3.394-6.441-4.004-13.586c4.816-3.902 5.863-8.75 1.39-14.976zm76.406 51.492c4.629 18.547 7.512 40.812-1.797 89.109-2.883 19.399-6.636 38.801-12.3 58.203-2.801 5.063-1.903 9.66 2.699 13.801 1.777.359 2.746-.898 3.597-2.398-.261-2.399-.058-4.801.598-7.2q1.648 4.724 3.297 3.899c1.449-4.399 2.176-8.801 2.695-13.199q.111-4.73 3-3.899-1.837 3-.898 6 1.74-.41 2.097-3.598 1.894-4.799 2.399-9.597c.336-2.215 1.48-2.113 2.746.297-4.426 13.5-7.711 27-10.246 40.504-4.945-.922-3.387 1.402-.899 4.199 2.161.519 2.696-2.203 3-5.399 4.211-14.699 8.872-29.402 10.2-44.105l2.699-3.598q.148 2.25.301 4.5c1.824.25 2.722-1.347 2.699-4.801-.262-3.296 1.101-6.597 2.699-9.898 1.11-6.098 1.641-12.199.899-18.301 1.039-5.922.808-11.207 0-16.199l-2.098-22.801c-2.024-7.738-.793-17.101.898-26.699-.586-12.129-4.972-22.73-10.199-33.004q-5.437.014-8.098 4.199zm-.301 151.82c-3.183 5.398-6.546 10.797-6.898 16.199-.324 1.762.269 3.063 1.797 3.899 2.996-7.352 3.988-13.696 5.098-20.102zm.301-137.719c-1.281 32.379-6.226 63.43-17.699 92.11q7.016 5.227 5.699 17.398c2.5-2.988 4.996-12.348 7.5-24.601 2.68-29.188 5.598-58.555 4.5-84.907m12.086 119.809c.113 4.512-.926 9.027-4.512 13.543 1.153-4.863 2.426-9.609 4.512-13.543" style="stroke:none;fill-rule:evenodd;fill:#2c8dc5"/><path d="M234.047 504.547q1.27 1.43-1.274 2.867c3.078 1.086 5.578.133 7.813-1.754 2.976.738 5.844 1.746 7.969 4.621-1.497 4.774-7.317 5.223-14.348 4.461-6.094-.926-10.332-2.367-8.766-5.418-.265-1.113.317-2.656 1.754-4.621 2.07-.687 4.356-.742 6.852-.156m60.898 7.332c.235 2.762 4.274 3.769 10.043 3.984 4.481.805 10.094 2.633 10.043-.636-.051-1.219 1.274-2.176 1.594-.954 1.699-.05 2.07-.687 2.07-2.867-4.195-2.144-8.394-2.844-12.594-3.984-3.242-1.067-6.109-.27-8.925.797-1.223 1.058-2.286 2.176-2.231 3.664" style="stroke:none;fill-rule:evenodd;fill:#f58627"/><path d="M161.566 287.801c.469 1.281 1.797 1.883 3.981 1.797q.576-3.914-.895-5.266-1.026 2.245-3.078 3.465" style="stroke:none;fill-rule:evenodd;fill:#807571"/><path d="M391.113 168.789h14.172v12.363h17.633v-12.363h14.273v12.363h18.348v-12.363h11.988v24.594h-76.422v-24.594zm-316.164 0h14.172v12.363h17.633v-12.363h14.273v12.363h18.348v-12.363h11.988v24.594H74.941v-24.594zm314.316 245.234h77.036v25.266h-77.036zm-316.167 0h77.035v25.266H73.098zm324.796-218.789h61.012v216.938h-61.012zm9.641 80.34c-.313-9.621 15.496-9.937 15.496 0v41.242h-15.496zm26.703 0c-.312-9.621 15.496-9.937 15.496 0v41.242h-15.496zm-352.512-80.34h61.012v73.426c-.945-1.738-1.918-3.402-3.156-4.515.832-3.938.023-6.598-2.418-7.989-3.16-2.769-8.684-.988-8.231 6.051.391 2.461 2.379 3.961 4.598 5.324v1.449a58 58 0 0 0-3.105.551c-4.59-2.957-12.582-.832-12.356 6.031v41.243h15.496v-4.282c1.625-1.23 3.36-2.253 5.293-2.875l3.387 10.653c.16.644.328 1.293.492 1.937v89.922H81.726V195.223zm9.641 80.34c-.316-9.621 15.496-9.937 15.496 0v41.242H91.367z" style="stroke:none;fill-rule:evenodd;fill:#ec2a32"/><path d="M261.715 124.102c2.656 5.433 5.625 10.41 8.894 14.937 4.067 2.43 7.942 3.152 11.403.113 4.312-6.363 5.945-13.625 6.613-21.211.433-3.097 1.5-5.984 2.847-8.777-2.003-3.437-4.378-6.137-7.296-7.754q-7.066-.227-11.86-2.734c-2.844 3.082-5.73 6.129-9.804 7.98q-1.882 2.678-2.848 7.184c-1.063 3.133 2.051 6.328 2.051 10.262m2.05-16.305c-.417 1.215-.039 1.898.454 2.508 2.925-1.024 5.851-.797 8.777 0-.188-1.102-.527-2.164-1.938-2.965q-3.874-1.136-7.296.453zm15.965 3.191q-.85-1.307 1.481-3.078c2.293-1.504 4.183-1.387 6.156-1.594.758.985.758 1.977 0 2.965-2.699.723-5.242 1.293-7.641 1.707zm1.485 2.282c0 .683.605 1.367 1.824 2.05 2.051-.855 3.305-.625 4.445-.797.637-1.128-.254-1.453-1.136-2.277-2.508-1.293-4.219-.418-5.129 1.024zm-8.211 1.253c-.797 1.016-2.813.957-6.043.797-.875-.949-.985-1.554-.34-2.508 1.82-.816 3.648-1.5 5.473-.796q1.137.568.91 2.507m1.14 7.184c-.336 1.969 1.52 2.113 3.078 2.508 1.555-.149 2.278-.719 2.622-1.481.339-1.328-.036-1.785-.911-2.507-2.32.453-4.3-.153-4.789 1.48m.797 7.301c-1.711.64-2.469.793-2.961 2.051 2.735 1.175 3.875 2.695 5.129 2.847 1.363-.148 2.504-2.621 4.559-3.761-.684-.872-1.289-.985-2.278-1.254-1.441-.532-3 .035-4.445.113zm-9.234 8.777c.535 4.715-.793 8.895-2.395 13 9.77 7.926 18.965 10.625 26.91 1.82-2.308-3.667-4.074-7.695-5.472-11.972-7.051 6.086-13.207 3.23-19.043-2.848m-128.82 120.371c.492.633.789 1.426.789 2.289a3.73 3.73 0 0 1-3.723 3.723 3.7 3.7 0 0 1-2.289-.793 3.72 3.72 0 0 1-.793-2.289 3.73 3.73 0 0 1 3.723-3.723c.863 0 1.656.293 2.289.789zm-1.778 11.41c0 2.868.512 5.219 1.539 7.063 1.367-1.371 3.035-1.84 4.75-2.18q.192-.96-.125-1.41c-2.484-4.809-4.367-4.504-6.16-3.465zm1.289 16.727c.981.727.914 1.215 2.93 1.254 2.609-.93 5.301-1.192 5.797-2.227.043-.566.344-1.035-.512-1.882-1.637-1.329-3.074 1.171-4.922.847-1.086-.027-1.812.067-2.265.106q.34-1.097-.766-.606c-1.047.324-.828 1.567-.258 2.504zm.125 4.719c.043 1.023.598 1.539 1.668 1.539a15.7 15.7 0 0 0 3.852-.899q3.591-.895 5.133-1.797c.214-1.582-.297-2.058-1.328-2.222-1.84-.344-2.829 1.269-4.579 1.582-3.808.812-3.281-.594-3.98-.223-.895.328-.895 2.031-.77 2.02zm3.082 2.695q-.895 1.54.77 2.055c.812.097 1.797-.071 2.953-.641 2.047-.633 4.082-1.344 4.621-2.437-.125-.856-.723-1.028-1.453-1.11-1.117-.058-2.16.317-3.168 1.278-1.152.171-1.969.515-2.438 1.375-.425-1.024-.855-1.196-1.281-.512zm2.055 3.469c-.043.894.426 1.625 1.41 2.179.77-.046 1.555-.164 2.438-.769 1.078-.414 1.683-.926 2.316-1.453.016-1.469-.16-1.899-1.031-1.367-.84-.004-1.582.472-2.309 1.023-.918-.043-1.449.348-1.926.512-.574-.598-.875-.641-.894-.129zm13.355-21.961c-1.457.394-2.402 1.359-1.281 2.055-2.386-.965-5.148-1.52-6.804-1.028-.938-.34-1.754.34-2.954.641-1.238.254-2.48.383-3.722.64-1.367 1.067-2.739 1.926-4.11 2.309-.597 1.965.684 2.395 3.852 1.281a1.91 1.91 0 0 0 1.152-1.152c.168 1.195 1.625 1.625 3.852.769.512-.425 1.023-.425 1.539-.511.66 3.41 7.129 1.722 7.574-.125.297-1.324.684-1.926 1.668-.512-.25 3.594-5.902 3.164-6.547 6.676 2.61 2.308 2.309 5.137-.898 8.476.812 2.184 1.883 2.954 3.722 1.024 4.688-3.168 6.571-6.891 6.805-10.403.832.641 2.457.254 3.981-3.21-1.86-4.372-4.602-6.329-7.832-6.934zm-25.171 38.914q-1.154-1.923-2.309-3.852 6.415-8.988 14.895-8.73 3.206 1.026 6.933-1.539c4.492-1.379 8.988.18 13.485 2.566q.252 1.795.511 3.594c-11.879-4.582-23.008-1.488-33.519 7.961zm12.136-4.086c16.348 64.684 32.703 129.371 49.055 194.059q2.155 4.318 4.316 7.402c1.543-2.981 1.645-5.965 1.543-8.945q-1.231 1.693-2.468.925c-2.157-4.164-3.496-8.894-4.008-13.882.512-1.645 1.644-2.364 2.16-1.54.613 4.418 1.746 8.739 4.008 12.34l-43.5-192.828c-7.313-1.758-9.571.098-11.106 2.469m16.969 47.512 6.168 24.988c.309 5.348 1.438 5.961 3.391 5.551-4.977-25.426-12.371-46.285-16.043-72.192q-2.62-3.082-2.774 1.235c1.129 3.906 2.262 7.812 3.391 11.722q-2.62-2.004-2.774.926c2.157 9.766 4.625 19.535 6.786 29.309 1.128.308 1.543-.203 1.847-1.543zm204.231-169.09q1.441-.992 2.89-7.774c-.512-3.855.629-7.05 2.531-9.945q2.89 1.9 5.786 6.688c2.41 1.875 3.976.785 5.425-.723 1.387-.844 1.563.723.539 4.699-.355 2.895-2.406 5.363-4.699 7.774-3.133 1.441-5.301 3.855-6.508 7.23-2.894-.836-4.519-4.215-5.964-7.953zm7.105-93.645c4.156.02 8.121 7.711 10.387 18.938l-7.469 9.371c-.359-1.106-.828-2.024-1.363-2.672l-1.551-25.633zm11.32 24.438c.414 2.988.715 6.152.875 9.43.223 4.585.157 8.984-.156 13.023l-8.426-10.535q.131-1.145.133-2.383v-.027l7.574-9.504zm.059 28.281c-1.316 8.695-3.922 14.832-7.211 16.043l-1.641-27.113zm-11.442 14.926c-3.191-2.84-6.019-9.977-7.699-19.266l5.211-6.539c.301.461.637.832.988 1.09l1.497 24.715zm-8.542-24.879a110 110 0 0 1-.731-15.945l4.965 6.207c-.012.308-.02.625-.02.941 0 1.125.086 2.203.243 3.203l-4.454 5.586zm-.36-22.137c.766-8.109 2.543-14.613 4.961-18.023l1.426 23.539c-.277.43-.535.941-.762 1.519zM9.512 9.512h515.66v332.992c0 117.07-104.176 238.805-252.121 244.512-147.946 5.707-263.54-124.68-263.54-244.512zm63.855 156.136h5.234l35.543-96.757 21.055 57.312 13.742 39.442h5.157v30.199h-9.243v76.523c.442.68.918 1.313 1.442 1.86 3.125.707 6.98.461 10.468.074 1.438-4.918 5.915-9.844 10.653-14.766 3.66-1.355 5.183-3.719 4.84-6.535-.508-2.988-.43-5.125.48-7.02 1.379-5.82 1.895-11.007.723-15.007-1.18-7.692 1.64-12.293 8.472-13.797 2.813-1.621 5.059-3.699 6.051-6.778-.133-9.207 3.68-8.55 7.262-8.472 1.906.965 3.176.015 4.355-1.207 6.161-10.336 11.754-12.699 17.188-12.828 2.234-5.129 4.883-9.895 10.41-12.102 2.16-2.004 2.086-5.605 1.691-9.437 3.368-5.34 5.493-13.586 7.747-21.547-.817-8.844 2.617-13.684 7.988-16.703 2.324-5.204 2.398-10.164 1.449-15.008.586-5.992 2.43-9.989 4.84-13.071l-9.258-16.324 16.219 4.313 7.808-13.164 9.227 10.851 13.281-10.367 3.508 12.586 13.953-3.711c-2.984 5-6.242 11.781-9.226 16.781 2.593 4.172 4.918 8.758 5.324 16.219-.547 3.941-.184 7.199 2.176 8.957 3.25 2.774 6.089 5.918 6.05 11.617 6.286.446 9.821 7.153 12.102 16.703-.461 2.336.211 4.559 3.387 6.536 3.914.757 7.582 2.265 11.133 4.113q5.688 2.9 9.199 7.988c2.078 3.941 4.445 7.449 7.988 8.473 2.398 1.105 4.258 3.121 5.566 6.051 1.168-.786 1.977-1.754 2.418-2.903.149-4.215 1.297-6.926 2.903-8.957.121-1.066-.117-1.953-.727-2.66-8.449-7.922-14.691-19.633-15.492-40.672-1.574-18.754 1.066-32.711 7.504-42.363 6.144-7.149 20.676-5.848 23.101-3.356 10.364 13.723 15.094 29.567 14.903 47.661-1.203 13.218-3.379 26.242-8.231 38.734-1.632 1.402-1.761 3.555-1.207 6.051q-2.114 6.111-5.324 11.132c-3.883.809-6.773 4.258-8.473 10.895-1.906 2.066-1.257 3.5-.242 4.84 2.383 5.359 4.758 10.73 6.778 16.461 3.429 8.887 4.816 18.344 1.691 29.051-.91 9.886.176 19.527 2.176 29.05 1.644 14.25 2.738 28.594 0 43.575-4.153 19.445-9.02 38.894-17.188 58.343-2.726 9.844-6.105 19.688-9.926 29.535-2.234 3.032-5.023 4.961-7.984 6.536q-3.271-.123-4.355 1.933c-2.375 3.11-5.004 5.969-7.743 8.715-.746 2.742-.726 5.484-3.871 8.231-1.714.824-2.523 2.195-2.418 4.113-.816 3.515-3.097 6.551-5.082 9.683-1.777 4.176-2.648 8.219-1.511 11.301 3.711 15.895 5.511 33.297 11.679 47.281q2.333 6.335-.238 5.567c-2.098-.777-4.195-.918-6.293-.965q-3.57-1.365-6.051 0c-2.293-.715-2.644 2.449-3.386 4.84-1.575.656-4.106-.281-6.778-1.449q-1.694-.3-3.386.48c-5.645-.726-9.864-2.883-14.04-5.082-4.918-1.363-8.054.117-11.132 1.692-2.336 2.683-5.403 3.734-9.196 3.144-2.336-3.262-8.961-1.215-15.25-4.355-9.566 5.273-20.441 6.492-33.648.48-3.238 2.781-4.879.766-6.293-1.934-1.246-6.156.508-10.312 3.629-13.554-.981-10.489-.481-20.981 2.176-31.473 1.875-6.82 2.242-13.391 1.933-19.848-10.328-25.418-19.812-51.679-29.051-78.195-1.91-7.793-3.562-15.785-2.175-26.144-.215-7.2-2.438-12.899-5.567-17.914-4.586-4.52-7.285-10.36-8.23-17.43-1.598-5.535-2.762-11.285-3.629-17.188-5.324 3.399-10.653 3.157-15.977-.722q-2.084 4.055-5.808 7.019v.965c4.34.516 8.25 1.899 11.859 3.871v6.535a72 72 0 0 0-10.894-2.175q6.048 27.96 12.101 55.921 14.038 62.825 28.082 125.645c2.871 11.508 3.676 20.945 1.449 27.355-3.785-1.449-6.75-4.711-8.715-10.168q-9.437-38.976-18.882-77.953c-8.164-32.086-16.336-64.172-24.504-96.258v80.985h7.394v29.578H70.879v-29.578h8.625V195.84h-6.16v-30.199zm315.898.618h5.235l35.543-96.758 21.055 57.316 13.742 39.442h5.156v30.199h-9.242v215.707h7.394v29.582h-81.351v-29.582h8.629V196.465h-6.161z" style="stroke:none;fill-rule:evenodd;fill:#fff"/><path d="m252.707 98.445-7.754-12.199 14.023 4.672 7.071-12.426 9.121 10.149 11.972-10.375 3.079 12.656 10.945-3.531-6.156 10.718c-13.305-9.433-27.477-8.464-42.305.34zm26.512 62.274c3.109 0 5.644 2.558 5.644 5.695s-2.531 5.695-5.644 5.695c-3.106 0-5.641-2.558-5.641-5.695s2.535-5.695 5.641-5.695m-2.137 15.758c-5.453 21.152-17.231 40.308-40.281 55.91.519 6.828 2.488 13.656 7.636 20.488q2.256-.17 4.512-1.734-5.725-2.08-5.902-8.332-.172-5.034 3.816-1.735c-.578 3.469.231 5.555 2.43 6.25q2.427-.517 4.859.344 2.604-1.213 5.207 1.734c1.969.114 3.934-.23 5.903-1.039 0-4.629-1.387-8.336-4.168-11.109-.692-3.238 0-4.168 2.082-2.777 3.011 3.003 4.398 7.636 5.554 12.5 1.27-2.434 2.66-4.633 4.86-5.207q.867 1.037 1.734 3.468 4.338.172 7.293 3.125c1.734.344 3.473-.23 5.207-1.734q-.693-3.47 1.387-6.945 3.644-2.427 4.511.691-2.776 1.733-4.164 9.027 1.212.517 5.207 1.039l2.083-2.429q1.904-6.423 6.597-5.903c1.039 3.125-5.207 2.778-5.207 9.375q2.082 3.124 4.164 2.082c7.758-9.488 13.196-20.14 13.543-33.336.692-1.617 1.852-1.851 3.473-.691 7.512 5.805 14.906 12.379 24.308 5.902 5.754-9.379 11.719-17.136 18.403-19.097q6.42-2.255 4.515-7.293l-4.515-5.207q-3.471-3.99-4.164 1.734c-3.473-3.137-6.946-5.226-10.418 0l-5.207-.691c-3.528 5.726-8.27 11.859-17.36 19.445-5.414 5.031-12.836 1.035-20.14-2.43-13.547-7.519-21.649-20.484-27.782-35.422zm13.547 47.925c2.543 2.196 6.019 2.543 10.418 1.039q-5.204-3.294-10.418-1.039m-47.231 42.02c23.492-9.344 41.192-7.973 56.258-1.734 1.027 8.046 2.16 16.066 6.598 23.265 11.832 25.195 10.136 40.242 8.332 55.215-1.141 14.219-1.781 27.941-2.082 41.324-1.856 15.309-.621 32.785 1.734 51.047 2.231 17.215 5.184 33.707 8.68 49.66 2.019 7.063 3.953 14.313 5.554 22.223q-.297 2.239-3.124.691c-3.387-2.078-6.407-1.57-9.376-.691-15.398-5.477-18.445-.281-23.96 2.777-6.282-.062-11.723 1.555-16.321 4.86-5.289-1.684-10.953-2.633-16.668-3.473-7.773-5.781-15.218-7.609-22.57-8.332-6.109-2.731-11.473-.211-16.32 5.902 1.429-5.16 2.336-10.191 2.082-14.929-.035-6.137-.004-12.27 2.082-18.403.191-4.492 1.043-9.32 2.082-14.238 2.66-18.367 2.277-36.078 2.429-53.129 1.836 2.629 3.122 6.273 2.43 13.543q1.355 3.697 2.082-2.082c-.523-6.227-1.68-12.25-3.472-18.055-5.047-22.758-4.821-40.246-3.126-56.258 1.477-10.05 3.274-19.843 7.293-27.781-1.335-4.715.657-14.984 3.125-26.043 1.7-9.976 3.704-18.742 6.25-25.347zm2.082-4.863c-.793-1.649-1.32-3.403 0-5.903 19.293-6.129 46.528-7.527 54.868 2.082q1.575 2.366 0 3.473c-17.762-6.227-36.262-3.57-54.868.344zm-23.613-27.434c-1.734.996-3.473 1.574-5.207 1.734.684.567.422 2.977-1.418 5.649 4 .117 6-2.867 6.629-7.387zm-62.164 38.895c5.562 3.015 9.285 8.296 9.375 18.054 5.176.129 9.305-4.211 11.109-18.402 1.114-2.012 1.809-2.125 2.082-.348l-.691 6.25c5.852-5.371 11.629-10.824 14.93-18.75q1.434-5.143.343-9.027c.637-2.219 1.489-3.699 3.817 0a33.5 33.5 0 0 0-1.387 6.25c6.297-2.5 10.34-7.25 12.848-13.543-.055-2.211.097-4.262 1.734-5.207-.641-2.567-1.91-3.031-3.816-1.387-5.438 1.117-10.879.918-16.321.348-10.453 2.035-18.336 6.871-19.097 19.445q-9.044 5.948-14.934 16.32zm85.777 5.21c2.684.555-4.179 33.946-6.941 34.727 1.875-10.941 4.226-22.519 6.941-34.727m11.461 10.418c-.097 5.704.91 11.036 2.082 16.321 2.004-1.953 1.367-8.188 0-15.625-.269-1.492-.965-1.727-2.082-.692zm-17.711 37.157c1.27 2.195-.047 4.394-1.734 6.597-.211-2.515-.16-4.925 1.734-6.597m44.106-41.672c-4.235 7.699-2.711 17.613-6.25 25.004 2.566 1.261 3.031 3.574 1.386 6.941-3.367 7.852-2.667 14.598-1.386 21.184-.918 3.14-2.129-.668-3.469-7.637q-3.234 7.746 1.734 14.238c-3.25 3.844-4.257 8.082-.343 13.192-1.274 3.117-2.547 3.75-3.817-4.512-3.09-15.398-.379-28.398 3.074-40.469 2.786-9.738 3.559-19.707 5.954-27.937 1.379-4.715 2.195-1.571 3.125 0zm16.32.695c1.223.043 2.316 2.59 6.942 20.836-.418 2.531-2.735-4.41-6.942-20.836m-31.254 70.496q3.076 1.576 1.735 6.942c-1.188-.887-1.809-3.11-1.735-6.942m34.727-22.226c2.246 7.754-.504 15.507-1.735 23.265.586.668.84 2.125 2.778-.343 4.8-12.579 3.894-25.071 3.187-38.071-1.429-3.429-3.179-3.23-3.187-.82 1.199 4.769 2.343 9.937 1.859 15.973-.016 1.32-1.617.793-2.902 0zm-72.926 11.461c-3.445 15.757 1.98 30.035 8.68 44.101 1.898 1.531 1.949.11 1.734-1.734-3.336-4.926-6.41-10.485-7.637-20.488.91 1.203 1.985 2.777 4.168 6.941 1.418.566 2-.125 1.735-2.082q-4.149-5.743-4.512-15.277c-1.293.316-2.324.246-2.777-.692 1.195-9.512.363-11.781-1.387-10.766zm29.863 27.781c-1.398 28.062 4.617 61.195 20.489 101.055-11.243-34.688-18.508-68.473-20.489-101.055m13.891-1.387c.555 23.332-1.988 42.348 9.027 76.746 6.844 14.727 11.274 31.067 11.805 50.004 1.879 1.906 2.309.914 2.082-1.387.668-3.703 6.394-1.234 11.109 0 4.492 3.141 9.25 5.36 14.586 5.555q.944-1.212 0-2.43c-4.008.293-7.597-1.093-10.765-4.168-5.012-4.062-9.649-4.058-14.235-3.468-.586-11.946-4.429-24.856-8.808-35.957 1.379-.801 1.968-1.071.82-3.977-5.047-11.16-6.332-19.715-5.902-27.086-1.789-1.183-2.946-1.105-3.473 2.113-3.473-17.234-4.629-36.945-3.469-56.289q-1.704-3.613-2.777.344m36.812-35.422a680 680 0 0 0-2.777 41.324c2.434-13.921 4.109-27.273 4.859-39.933q-1.354-3.535-2.082-1.387zm-50.007 144.813c-.196 5.726 3.945 14.64 10.07 25.004 3.379 1.062 4.648.019 3.816-3.125-5.715-6.477-9.867-14.129-13.886-21.879m-17.016-63.203c6.852 24.269 9.137 50.218 7.984 77.441-.254 3.266-.195 6.215 2.082 6.941a56 56 0 0 1 .344-11.804c1.066-26.008-1.473-49.813-7.984-71.188-1.231-3.199-2.043-3.664-2.43-1.386zm-10.766 19.382c3.094 7.719 2.75 21.125-1.734 38.957q1.212 3.204 2.43-2.429c4.761-23.969 4.226-36.145-.692-36.528zm4.516 7.008c3.348 30.27-8.148 40.801-4.168 52.438 1.992 1.363 2.754-5.094 3.473-11.805 3.062 1.039 4.125-1.668 3.816-6.945 2.047-7.973 2.387-13.973-1.039-15.625l.691-17.016q-1.7-4.627-2.773-1.039zm62.508-20.836c1.844 11.414 3.035 23.36 2.777 36.461-1.277 10.211-.848 19.399 2.082 27.086q2.62 1.798 2.082-2.082c-2.836-6.086-4.226-12.043-2.43-17.711q1.038-2.079 2.083-4.164c.117 8.137 2.21 15.621 4.859 22.918 1.285.692 1.094-1.203.691-3.469 1.95 5.582 2.789 5.618 3.473 4.86q-5.24-10.858-4.168-23.614c-.902-1.453-1.598 1.09-2.082 7.637-2.438-12.347-1.184-27.226-2.176-40.094-1.062-7.359-1.383-14.48-3.723-19.285-1.425-.734-2.351-.59.403 6.469 2.515 32.184 1.89 41.676.637 41.102-.473-33.133-2.348-37.598-4.512-36.114zm53.601-316.89c2.469-11.426 7.391-18.164 14.828-14.559-4.339 2.652-8.402 9.531-9.984 20.613zm.121 41.757c-.941-4.472-1.582-9.464-1.839-14.968-.352-7.598-.098-14.942.765-21.324l5.219 6.523c-.188 3.465-.16 7.258.133 11.375.285 3.945.73 7.758 1.312 11.367l-5.597 7.02zm11.735 24.094c-4.18-3.898-7.949-10.254-10.469-19.011l5.336-6.692c1.867 8.899 4.57 16.168 7.621 20.582a64 64 0 0 0-2.484 5.117zm7.683-82.828c11.684-3.855 18.078 34.242 17.461 41.184.641 10.488-1.832 41.3-14.14 46.258l-.305.011c1.879-3.144 3.242-6.062 3.387-8.406 4.808-9.953 6.73-31.176 6.027-40.937-.859-11.918-4.297-30.247-12.426-38.106zm-3.672 33.598c1.489-.137 2.958 2.551 3.278 5.988.316 3.438-.633 6.352-2.125 6.488-1.485.137-2.957-2.554-3.274-5.992-.316-3.437.637-6.351 2.121-6.488" style="stroke:none;fill-rule:evenodd;fill:#fff100"/><path d="M234.715 234.473c-2.864 2.519-6.309 3.07-8.985 3.73-3.527 3.965-7.074 8.738-12.195 10.852 6.488-2.789 10.316-2.106 6.598 9.027-4.078 9.172-5.411 17.797-4.86 26.043.114 2.891 1.039 5.785 2.082 8.68-2.894-4.629-5.558-9.375-6.597-14.93-.227-8.223-.914-15.867-4.86-19.445-3.011 2.086-5.207 3.355-7.293 4.511-4.859 7.235-10.996 13.832-17.711 20.141-3.175 10.801 2.77 23.426 5.555 35.422 4.402 6.129 8.344 12.723 9.027 22.57-.265 18.059 2.102 35.309 13.887 49.656 2.313 3.825 4.856 7.297 9.027 8.332q-2.255 3.815-1.734 7.637 2.08 8.679 5.555 17.363c4.402-7.566 3.793-16.14 3.472-24.656-3.125-2.254-5.668-4.801-6.941-7.984-1.047-3.242.34-5.672 2.082-7.984-4.434-17.465-9.086-34.86-16.32-51.395q-3.123-7.986-.692-10.418 3.124 4.688 4.86 12.152c5.394 13.125 8.976 28.063 12.5 43.059 2.199-7.813 3.125-16.262 3.468-25.004q-2.252-3.468-3.125-8.332 1.213-.516 2.43-1.039 1.212-9.897 5.207-19.793c.106-10.418 2.656-20.027 5.555-29.516 1.129-11.527 4.269-22.058 7.293-32.64-1.274-2.313-1.156-3.703.344-4.168-3.704-7.293-5.789-14.586-7.637-21.879zm107.133 5.375c-.829 11.066-2.415 22.507-5.098 34.504q.505 4.708 2.398-.297a221 221 0 0 0 5.7-32.703q-1.5-4.22-3-1.5zm-9.208 16.8c.047 3.5-.714 6.997-1.593 10.5q-2.586 2.273-2.399-2.398 1.144-3.505.899-8.398c.336-1.75 1.828-1.649 3.093.3zm-9.394-7.796c-1.359 5.578-.813 11.793.598 18.3 1.097.325 1.156-.273 2.257-1.797-1.359-5.101-.054-10.199.438-15.3q-3.038-5.46-3.297-1.2zm-3.602-25.805c-1.492 9.558-6.172 20.391-12.3 31.801-5.43 10.402-3.536 16.742-.598 22.504 3.562 11.3 7.508 22.597 12 33.902.734 17.73-.031 38.469-3 63.605-2.078 22.036-.754 43.395 1.797 64.504 3.992 3.184 7.523 4.973 7.801-3-.598-22.601.242-45.203 1.5-67.808q1.799-2.964 3.597 2.398c-1.699 17.899-2.273 35.805-1.199 53.703 3.879-2.336 6.945-6.301 9.898-10.5-1.261-4.48-.894-8.148-.296-11.699.636-1.949 1.734-2.051 3.296-.297-.078 4.09-.312 8.254 1.5 11.399 4.215-.371 7.563-2.192 9-7.2 1.438-7.621 1.61-14.605 1.2-21.3-5.395-6.25-10.325-12.618-12-19.801 2.023-8.227 3.125-15.528 3.297-21.903-1.336-10.16-4.301-18.695-7.5-27 3.339-8.636 6.554-16.613 9.898-23.402 4.172-18.691 6.699-36.836 8.098-54.605 1.285-9.313 1.187-16.317-.297-21-5.75 5.945-11.617 11.543-18.301 14.699q-10.782-1.026-17.398-9zm-21.601-21.004c6.297 5.687 12.597 9.465 18.898 9.602 6.035 1.148 13.985-5.336 22.801-15.301-4.059-2.086-8.934-3.246-19.5 2.097-6.59 2.414-13.758 3.961-22.199 3.598" style="stroke:none;fill-rule:evenodd;fill:#3c6ca1"/><path d="m429.707 75.586 18.234 51.836 13.168 39.457h-7.23v12.375h-15.25v-12.375h-17.133v12.375h-14.774v-12.375h-9.132l32.121-91.293zm-316.168 0 18.238 51.836 13.168 39.457h-7.23v12.375h-15.25v-12.375h-17.133v12.375H90.558v-12.375h-9.132l32.117-91.293" style="stroke:none;fill-rule:evenodd;fill:#39a66d"/></svg>