<svg xmlns="http://www.w3.org/2000/svg" viewBox="-30.00 -36.01 810.00 972.01"><title>Herb Kostrzyn nad Odra</title><path fill="#e56a48" d="M.705 0h374.287v900.001C168.279 900.001.705 732.427.705 525.715z"/><path fill="#54889e" d="M749.295 0H375.009v899.999c206.713 0 374.286-167.573 374.286-374.286z"/><path fill="#222221" d="M739.981 10.009v515.702c0 201.823-163.806 364.225-364.979 364.225-201.901 0-364.984-163.175-364.984-364.223V10.009zM750 .009H0v525.704c0 206.708 167.889 374.279 374.991 374.279l.018-.056v.054C582.112 899.99 750 732.42 750 525.711 750-11.03 749.901.009 750 .009"/><path fill="#fff" d="M652.389 253.53c-7.186-20.935-25.904-43.855-26.207-78.893-.32-36.986-5.094-76.769-10.635-88.685-11.127-23.908-28.197-29.517-49.427-11.684-29.4 24.696-39.43 34.809-73.863 101.544-.439 2.161-3.633 14.484-19.939 21.182-16.803 6.901-35.709 14.705-35.709 14.705-7.499 1.862-12.753 4.695-14.849 12.885-7.375 28.8-23.146 149.985-16.56 149.985 2.942 0 28.776-25.908 33.289-27.039l2.352-.591c-9.897 200.532 66.889 282.639 38.744 346.967-22.184 50.666-42.299 91.9-34.608 91.9 3.137 0 4.942-1.418 73.893-53.248 5.451-4.67 14.773-6.547 22.922-2.254 15.303 8.051 49.988 22.201 71.434 22.201 1.375 0 4.658-.041 6.023-.553-1.037-1.947-87.781-93.318-72.561-203.281l19.299 26.5 25.479-17.535c-1.641-7.969-10.469-52.023-8.352-69.631 3.904-12.657 50.215-79.552 38.139-222.671l16.146 17.246 8.254-.775c2.129-1.546 12.855-10.418 6.736-28.275"/><path fill="#222221" d="M556.987 128.519c-6.693 0-12.123 5.426-12.123 12.121 0 6.694 5.43 12.121 12.123 12.121 6.691 0 12.121-5.427 12.121-12.121s-5.43-12.121-12.121-12.121m0 18.18a6.06 6.06 0 1 1-.002-12.12 6.06 6.06 0 0 1 .002 12.12"/><path fill="#cfb98a" d="M585.292 191.945c-26.627 1.321-34.256-7.076-50.875-19.156 15.24 14.229 26.023 25.676 46.785 26.559 8.145 0 28.244-2.333 44.977-24.916-.031-3.433-.113-6.89-.215-10.345-7.012 7.122-17.799 25.608-40.672 27.858m-33.936 363.044c.818-2.191 2.104-5.76 4.66-12.227 6.945 2.316 10.354 13.334 13.455 23.783 1.041-11.404-3.215-24.041-9.988-31.834 2.195-4.311 4.385-10.518 8.029-15.863 10.412 11.234 13.539 27.865 15.754 39.893 0 0 4.164-22.654-10.74-46.785 1.832-2.406 7.33-9.475 10.365-13.156-.176-4.143-.135-7.844.221-10.793.057-.188.154-.422.229-.633-23.777 26.027-33.676 51.133-36.654 61.299zm-26.176 48.627s-5.355 2.334-16.574 11.822a555 555 0 0 1-14.264-11.049c5.596-6.717 12.102-13.094 18.084-18.463 9.467 2.285 11.59 3.41 13.303 4.068-1.223-2.09-2.17-4.613-7.645-9.002 10.297-11.434 11.338-13.779 13.869-15.369-2.736-.254-10.078 3.514-20.16 11.223a415 415 0 0 1-16.055-11.314c6.105-4.648 12.607-9.4 18.59-13.688 11.168 6.303 13.736 6.611 16.008 7.885 0 0-5.547-8.207-9.906-12.23 8.592-7.664 17.08-16.42 17.08-16.42s-14.238 5.936-22.826 11.65a599 599 0 0 1-21.748-19.148c40.002-23.639 52.314-30.279 52.314-30.279s-15.357 2.318-26.357 7.104c-3.492-3.143-11.693-10.648-21.594-20.522 22.547-13.738 40.57-15.687 59.631-16.486-10.512-6.362-24.525-14.634-45.311-31.158 32.146-16.388 50.762-17.417 50.762-17.417s-11.746-5.118-40.326-29.681c40.59-16.149 50.629-16.595 50.629-16.595s-29.977-1.769-56.84 11.107c-6.975-6.337-14.246-13.566-21.287-21.582 15.428-9.014 31.396-16.26 45.176-21.76 18.104 11.99 35.912 17.648 35.912 17.648s-2.123-3.859-27.598-20.87c12.191-6.429 32.1-14.139 32.1-14.139s-26.09 4.227-39.465 9.103c-6.879-4.822-14.264-10.337-21.613-16.4 13.1-5.848 25.57-10.636 35.783-14.269 8.852 5.398 27.402 11.658 27.402 11.658s-13.107-11.153-18.576-14.707c4.23-1.501 18.85-9.505 18.85-9.505s-16.992.773-26.633 4.471c-8.949-5.971-19.4-13.613-29.824-22.709 13.125-6.339 25.629-11.459 36.127-15.366 11.707 8.289 31.443 15.693 31.443 15.693s-2.992-3.921-23.256-18.651c15.854-8.781 23.568-11.078 23.568-11.078s-15.662.816-30.521 5.79a227 227 0 0 1-18.805-16.713c37.975-12.576 41.625-14.273 41.625-14.273s-24.1.083-47.279 8.459a257 257 0 0 1-16.223-18.996c14.012-5.549 19.139-5.053 17.764-9.849-.971-3.434-2.648-4.081-22.266 3.84-11.801-16.226-16.457-27.003-19.883-31.368a1739 1739 0 0 0-3.801 7.28c3.326 6.024 9.801 17.276 16.76 27.016-8.584 3.789-18.463 8.772-28.096 15.023a109 109 0 0 1-3.633-8.44c4.967-11.654 7.854-18.076 9.518-21.614-2.336 3.814-6.33 8.312-13.033 11.862-2.863 6.021-5.621 12.757-8.258 19.977-41.456 16.878-40.155 25.532-40.155 25.532s1.686-2.093 37.005-16.471a450 450 0 0 0-4.059 12.746c-36.813 15.937-36.773 26.907-36.773 26.907s2.86-4.376 34.135-17.916c-1.574 5.523-3.352 12.572-4.781 18.134-31.848 14.204-32.504 24.089-32.504 24.089s3.453-3.246 30.277-15.231c-2.082 8.482-2.441 9.866-4.156 17.726-31.326 17.537-31.298 27.214-31.298 27.214s3.328-3.302 29.3-17.842c-1.146 5.482-3.482 16.124-4.4 20.842-28.116 19.278-27.931 28.96-27.931 28.96s5.507-4.854 26.015-18.909c-.58 3.119-1.059 11.797-1.313 17.197.526-.316.979-.552 1.303-.633l2.352-.591a726 726 0 0 0-.607 16.563l.059 1.057c4.458-1.86-2.539-5.031 11.596 16.295a123 123 0 0 0-11.592 13.235c.064 3.724 0 6.46-.027 8.343.027.974.076 1.915.109 2.882.512 2.008 3.208-5.824 15.715-18.398 4.652 6.371 9.826 12.513 15.256 18.372-7.271 5.69-14.291 12.145-20.766 19.493-11.156-17.417-10.66-27.344-9.246-1.133 4.779 7.835 5.666 5.178.738 11.811.031.424.07.855.102 1.281.266 3.234.535 6.458.842 9.613 1.244-1.107 2.56-3.703 7.037-9.523 4.631 6.472 9.809 12.978 15.188 19.287-5.598 5.459-10.961 11.466-15.871 18.173-1.139-1.867-2.188-4.141-3.706-5.131a648 648 0 0 0 2.805 19.03c2.033-1.801-1.772-2.725 13.463 14.387-2.793 3.746-5.865 8.641-8.391 13.076a709 709 0 0 0 2.334 10.877c1.109-1.754 3.584-8.363 10.98-18.568 4.758 5.092 9.721 10.076 14.664 14.83-6.02 4.508-11.852 9.48-17.137 14.9-5.068-6.01-5.385-7.803-7.785-7.951a898 898 0 0 0 5.203 21.699c.725-.795 1.66-1.957 2.6-3.07 26.141 26.678 23.598 9.572 4.594 30.279 1.684 6.189 3.309 12.139 4.859 17.885 14.588 14.117 11.58 4.123 4.607 17.719a433 433 0 0 1 2.598 11.004c.771.467 1.865-5.574 8.842-15.186a528 528 0 0 0 13.648 10.582c-10.785 11.115-16.518 16.996-19.514 20.291.41 2.668.744 5.285 1.023 7.859 29.832-29.414 40.121-45.186 40.121-45.186m9.467-145.575c-9.982 1.867-26.117 6.327-42.514 16.627-5.434-5.553-11.176-11.65-16.82-18.028 9.52-8.406 19.605-15.193 29.281-20.634a409 409 0 0 0 30.053 22.035m9.676-46.622c-8.602 2.441-23.004 7.294-38.949 15.741-7.553-6.27-15.416-13.304-22.953-20.901 10.596-7.412 21.568-13.285 32.031-17.913 12.154 10.656 23.084 18.51 29.871 23.073m-11.754-80.135c-13.334 5.481-28.32 12.499-42.844 21.111-4.691-5.693-9.199-11.741-13.367-18.109 11.25-7.199 23.404-13.636 35.318-19.235 7.037 5.953 14.145 11.39 20.893 16.233M505.657 309.8c-11.191 5.377-22.533 11.493-33.152 18.315-3.807-6.365-7.213-13.022-10.102-19.94 7.229-6.69 15.141-12.864 23.4-18.524 6.096 7.118 12.854 13.873 19.854 20.149m-31.178-49.572c6.545-4.99 13.924-9.553 21.686-13.705 5.359 6.53 11.113 12.628 17.014 18.266-8.662 4.509-17.443 9.561-25.996 15.136-5.032-6.36-9.37-12.955-12.704-19.697m72.832 32.122c-10.184 3.715-22.074 8.424-34.436 14.067-7.402-6.466-14.572-13.464-20.973-20.821 8.887-5.724 18.033-10.877 27.031-15.465 9.747 8.725 19.593 16.166 28.378 22.219m8.191-46.433c-10.525 4.007-22.68 9.102-35.348 15.349-6.006-5.593-11.879-11.667-17.338-18.163 11.314-5.579 23.113-10.314 34.104-14.2a237 237 0 0 0 18.582 17.014m-39.763-41.551a257 257 0 0 0 15.674 18.737c-10.793 3.916-22.25 8.643-33.266 14.19-4.262-5.541-8.193-11.347-11.584-17.425 9.977-6.514 20.363-11.679 29.176-15.502m-39.951 10.118c.465 1.017.908 2.042 1.4 3.044a136 136 0 0 0-3.449 2.56 290 290 0 0 1 2.049-5.604m-6.422 18.697c3.525-3.292 7.309-6.358 11.23-9.203 3.277 5.834 6.994 11.419 11.006 16.75-7.117 3.881-13.93 8.124-20.129 12.74-1.902-4.971-3.18-10.002-3.734-15.055.533-1.765 1.08-3.5 1.627-5.232m-5.748 19.535a80 80 0 0 0 1.99 5.359 104 104 0 0 0-4.498 4.032 616 616 0 0 1 2.508-9.391m-6.26 24.373c3.156-4.289 7.025-8.341 11.408-12.178 3.375 6.55 7.592 12.924 12.389 19.064-7.521 5.208-14.787 10.844-21.547 16.932-1.73-4.927-3.197-9.966-4.301-15.127a879 879 0 0 1 2.051-8.691m-5.414 23.745c2.275 6.955 3.008 4.167-1.992 9.46.629-3.056 1.289-6.202 1.992-9.46m-8.626 44.095c.766-4.382 2.035-11.452 3.766-20.352 3.004-3.796 6.268-7.45 9.727-10.979 2.811 6.442 6.035 12.646 9.576 18.588-25.238 17.394-21.037 21.622-23.069 12.743m4.022 12.379c6.553-6.759 14.363-13.091 22.895-18.962a209 209 0 0 0 13.111 17.949c-9.229 5.843-18.115 12.358-26.113 19.538-3.955-6.052-7.299-12.251-9.893-18.525m14.055 24.532c8.084-7.312 17.203-13.942 26.709-19.88 6.689 7.723 13.605 14.733 20.305 20.945-10.232 4.718-20.875 10.629-31.172 17.986-5.686-6.074-11.063-12.458-15.842-19.051m-6.615 49.182c6.668-7.733 14-14.5 21.656-20.385 7.232 7.372 14.77 14.205 22.07 20.352-9.285 5.408-18.846 12.071-27.969 20.173-5.648-6.621-11.046-13.433-15.757-20.14m11.72 65.797c-4.762-5.389-9.164-10.803-12.885-16.077 4.99-7.089 10.529-13.451 16.385-19.152 5.377 6.077 10.828 11.883 16.018 17.211a111 111 0 0 0-19.518 18.018m4.842 5.356a104.2 104.2 0 0 1 19.771-18.209 602 602 0 0 0 20.861 19.908c-7.652 3.977-16.113 8.852-24.463 14.605-5.464-5.216-10.964-10.708-16.169-16.304m-2.092 40.861c5.371-5.529 11.387-10.6 17.623-15.182 7.85 7.314 15.416 13.908 21.727 19.227-6.117 4.398-12.678 9.225-18.813 13.936-7.292-5.668-14.566-11.848-20.537-17.981m19.512 56.791c-14.969-12.469-13.973-13.303-16.217-14.703 2.41-1.498.869-2.123 17.254-14.998a401 401 0 0 0 16.398 11.668c-5.798 5.293-11.991 11.473-17.435 18.033m90.053 145.742c1.666.564 3.303 1.072 4.941 1.588 3.129.934 6.242 1.773 9.313 2.504-45.693-63.609-51.17-84.59-55.928-104.975 0 .001 4.151 49.534 41.674 100.883m-46.32-17.672c-11.586-68.131-15.406-84.975-15.406-84.975s.609 13.719 8.262 86.1a21.3 21.3 0 0 1 6.266-1.08c.223-.006.416-.059.641-.059.078.001.157.014.237.014m-42.004 25.866c3.391-2.529 6.68-4.982 9.76-7.283 9.523-38.178 8.035-59.879 4.512-89.082 1.189 18.556 1.146 35.56-14.272 96.365m3.349-79.334c-3.154 20.809-6.127 37.551-35.432 103.342 3.031-2.201 6.844-5.01 11.645-8.588.758-.674 1.494-1.301 2.162-1.799 16.789-45.61 20-68.141 21.625-92.955m148.684-400.864-26.703-56.999c7.058 21.271 14.228 35.906 26.703 56.999m-21.006-4.577c-.096-1.228-.162-2.415-.268-3.652l.162.174-18.09-41.596c3.05 17.54 8.493 29.859 18.196 45.074"/><path fill="#222221" d="M655.792 252.363c-7.275-21.216-25.713-43.732-26.01-77.757-.281-32.632-4.557-76.387-10.971-90.173-11.975-25.756-31.771-32.443-55.006-12.922-29.863 25.086-40.023 35.324-74.867 102.886-5.617 17.075-13.762 17.496-53.487 33.884-2.051.302-13.904 2.599-17.181 15.41-3.048 11.92-18.063 95.899-18.063 145.992 0 10.089 6.026 10.635 12.077 4.573 2.107-2.108 18.295-16.534 24.704-21.558-7.129 205.449 66.745 277.033 39.295 339.767-10.727 24.521-31.553 71.225-34.27 79.377-2.279 6.84-4.277 17.564 2.96 17.564 4.786 0 9.631-3.766 76.129-54.027 4.598-3.889 12.303-5.418 19.012-1.889 33.994 17.9 97.383 33.635 79.668 13.313-.83-.895-81.699-89.26-70.703-188.723l16.061 22.043 30.342-20.879c-3.266-15.375-10.566-54.752-8.834-70.494 33.047-64.55 45.215-133.993 39.043-213.403l10.283 10.983c12.105-1.136 10.754-.923 11.281-1.257.163-.103 16.113-10.62 8.537-32.71m-10.141 29.444-8.254.775-16.146-17.246c12.076 143.119-34.234 210.014-38.139 222.671-2.117 17.607 6.711 61.662 8.352 69.631l-25.479 17.535-19.299-26.5c-15.221 109.963 71.523 201.334 72.561 203.281-1.365.512-4.648.553-6.023.553-21.445 0-56.131-14.15-71.434-22.201-8.148-4.293-17.471-2.416-22.922 2.254-68.951 51.83-70.756 53.248-73.893 53.248-7.691 0 12.424-41.234 34.608-91.9 28.145-64.328-48.642-146.436-38.744-346.967l-2.352.591c-4.512 1.131-30.347 27.039-33.289 27.039-6.586 0 9.186-121.185 16.56-149.985 2.096-8.19 7.351-11.023 14.849-12.885 0 0 18.907-7.804 35.709-14.705 16.307-6.698 19.5-19.021 19.939-21.182 34.434-66.735 44.463-76.848 73.863-101.544 21.23-17.833 38.301-12.224 49.428 11.685 5.541 11.917 10.314 51.699 10.635 88.685.303 35.037 19.021 57.958 26.207 78.893 6.12 17.854-4.606 26.726-6.737 28.274"/><path fill="#fff" d="m371.776 819.856-.516-755.604c-5.295-1.917-5.682-2.438-8.022-4.248a76 76 0 0 0-1.599-1.203c-.159-.118-.318-.231-.477-.347q-.582-.42-1.159-.821l-.489-.339q-.766-.524-1.525-1.012c-.108-.07-.216-.134-.324-.203a61 61 0 0 0-1.824-1.107 50 50 0 0 0-.907-.516q-.331-.186-.661-.365a50 50 0 0 0-2.112-1.064q-.336-.159-.669-.313a40 40 0 0 0-.866-.379q-.258-.109-.514-.213a36 36 0 0 0-3.256-1.157l-.155-.047a32 32 0 0 0-1.146-.313l-.043-.011c-7.206-1.809-13.958-.691-20.338 3.704-5.365 3.865-9.861 9.741-9.497 9.377-.271.353-.509.65-.718.908-.359.487-.716.991-1.073 1.502-.075.256.003.475.228.784 7.72 8.676 11.07 21.535 11.743 34.498.014.242.02.483.032.725q.036.819.06 1.636c.244 7.624-.39 15.202-1.676 21.838-.063.304-.108.529-.143.703-.034.178-.065.36-.1.536-2 .31-3.786.591-6.417.863 20.585 15.941 14.662 49.133 5.01 70.499-6.798 15.059-15.294 51.267-18.76 67.553-.36.033-.746.061-1.144.085-11.389.839-28.34-.803-39.604-2.375-27.111-3.784-22.089-20.471-29.066-41.425-6.821-20.459-11.338-20.422-25.357-25.901-15.607-6.093-25.579-9.903-32.813-27.001-7.434-17.561 7.581-23.53-6.391-56.294-.195-.418-.377-.827-.583-1.253-1.489-3.021-3.541-5.673-6.02-7.986l-.247-.227q-.078-.069-.158-.137c-17.754-15.49-57.667-14.429-73.92-2.746-37.26 26.779-33.303 67.499-33.426 114.058-.126 48.992-.259 99.65-11.876 113.13-2.112 2.449-3.021 4.514-2.494 5.666.503 1.097 2.3 1.562 2.93 1.562 2.025-.19 6.228-2.909 9.903-5.479 4.975-3.479 8.715-6.173 11.561-8.345 3.6-2.817 5.755-4.695 7.121-6.198l.187-.212.068-.078c1.438-1.702 1.963-3.031 2.483-4.68.274-.89.565-1.907 1.022-3.176l.006-.018q.123-.342.264-.713c.116-.303.229-.618.341-.934 1.757-5 3.205-12.196 4.885-18.709 1.486-5.886 3.16-11.173 5.596-13.97 1.338-1.583 2.848-2.367 4.222-2.085 5.88.266 5.652 13.011 4.53 19.298-3.042 17.032-5.388 42.841-5.974 65.75a39 39 0 0 1-.116 2.103c-.038.481-.094.971-.147 1.459-.022.194-.039.383-.064.579-.628 5.109-2.127 10.606-4.276 16.197-2.89 7.609-7.054 15.657-12.229 23.306-8.268 12.435-18.25 22.941-26.742 27.422-.778.411-1.454.795-2.07 1.162l-.112.071c-.253.15-.48.293-.717.439-4.303 2.733-4.148 4.124-4.137 4.192 1.277 7.382 84.571 9.991 87.82-69.774.42-10.304 1.157-14.333 4.128-14.333 4.431 0 6.206 11.667 6.335 16.988C139.71 452.58 95.33 498.409 84.231 505.07c-8.4 5.035-5.386 7.902 4.399 7.459 75.557-3.145 85.819-92.316 85.914-93.217.671-6.377 3.45-10.663 6.912-10.663 12.21 0 2.115 45.822-3.944 84.95-5.511 35.57-42.489 62.428-56.349 71.354 85.008 1.344 99.498-65.945 104.899-91.131 5.096-23.771 15.312-22.833 18.656-6.672 7.237 34.985-17.934 81.915-22.606 87.362-2.286 2.67-3.682 6.703-3.195 7.533 9.834-.164 31.761-25.92 49.527-53.319a453 453 0 0 0 6.359-10.192l.134-.205c10.379-17.3 18.287-34.055 19.647-44.257 1.205-9.027 2.933-12.711 5.968-12.711 3.715 0 6.378 6.33 10.318 16.752 1.403 3.714 3.204 7.193 3.952 11.169l.002.011q.045.25.084.5a17 17 0 0 1 .196 4.705q-.024.298-.057.6l-.028.225c-.472 3.82-2.13 8.218-5.816 13.618-.081.118-.208.313-.37.564a23892 23892 0 0 1-28.796 46.594c-6.667 10.797-12.559 20.291-15.164 24.336-1.03 1.6-2.469 3.615-4.122 5.868-7.733 10.547-20.251 26.431-18.429 30.303.148.313.391.549.738.696 20.592 8.826 31.702 48.975 31.702 63.441 0 10.059 3.216 11.891 4.232 6.313 1.208-6.643 25.975-56.313 28.969-62.303 2.715-5.43.883-7.807 7.698 14.686l.288-.799c2.093-5.813 5.138-13.647 8.3-21.641a5508 5508 0 0 1 9.275-23.547c4.458-11.684 5.974-15.791 9.934-15.791 3.956 0 5.688 5.852 6.254 7.775 26.602 90.027-51.773 111.98-52.844 118.721-.25 1.559 22.593 6.115 47.57 3.83-10.961 12.783-20.646 16.305-42.381 24.305-36.129 13.293-53.449 19.588-48.32 55.195q.642-.603 1.285-1.171c8.848-7.868 17.362-10.717 25.345-11.04 16.697-1.17 31.319 7.582 38.212 7.582 12.316 0 11.887-13.883 21.795-13.883 6.038 0 5.951 7.083 4.274 13.193q-.164.598-.346 1.178c-8.881 28.358 17.083 49.417 27.474 56.51"/><path fill="#ff0" stroke="#222221" stroke-miterlimit="10" stroke-width="3.601" d="M311.379 66.589s-29.004-10.715-39.626-2.797c-10.623 7.917-12.481 15.468-11.333 27.43 0 0 32.04-6.719 47.309 13.394 0 0-13.803 4.345-27.599 4.345 0 0 .984 22.667 42.375 16.261-.001 0 7.805-39.906-11.126-58.633z"/><path fill="#222221" d="M375.009 825.915c-22.578-12.334-42.331-37.498-34.139-63.646.903-2.887 2.526-9.695-.493-9.695-7.54 0-9.92 19.412-29.009 12.531-26.053-9.391-40.933-10.178-59.822 9.797-3.713-16.455-3.832-37.357 9.544-47.25 21.931-16.213 58.234-21.615 74.442-35.393-11.132.414-33.504-.912-40.898-4.949-.723-.586-1.51-1.846-1.354-3.453.241-2.49 2.536-4.886 7.046-7.266 46.353-24.457 60.069-62.305 45.936-110.137-1.254-4.242-2.475-5.193-2.801-5.193-.733 0-2.499 2.221-3.343 5.18-1.5 5.242-18.14 43.854-24.531 65.162l-6.42-21.189c-10.959 22.047-25.83 52.906-26.628 57.287-1.547 8.516-11.375 10.063-11.375-6.959 0-14.096-11.456-52.389-29.518-60.129-9.371-4.016 5.882-22.602 12.38-31.271 7.764-10.35 5.541-6.85 34.462-53.813 19.776-32.101 26.462-39.178 21.856-49.053-2.212-4.739-7.38-20.64-9.891-21.526.16.059-1.171 1.143-2.298 9.6-3.598 26.981-49.565 96.105-72.331 108.769-11.695 6.516-13.582-2.832-6.444-11.148 4.331-5.053 28.67-51.137 21.811-84.288-3.164-15.296-8.294-8.754-11.609 6.695-15.041 70.161-51.299 97.016-120.726 93.45 27.708-15.713 60.207-43.422 65.097-74.977 6.202-40.027 9.583-57.288 9.583-73.549 0-10.469-4.495-8.528-5.412.188-.097.932-10.717 93.164-89.343 96.441-15.507.66-16.705-7.973-6.404-14.148 8.906-5.342 53.701-50.611 51.603-136.756-.134-5.534-1.461-10.413-2.502-12.546-1.154 4.528 5.298 90.589-86.076 86.025-11.085-1.551-14.327-8.332-.751-15.499 16.921-8.928 41.062-44.843 41.654-67.972 1.424-55.492 10.475-78.872 4.788-81.381-4.283 1.289-6.886 21.853-11.876 34.241-2.119 5.258-.38 7.042-12.625 16.333-8.374 6.353-19.569 14.048-22.901 14.048-5.755 0-9.787-5.495-3.165-13.181 10.749-12.468 10.884-64.701 11.004-110.786.125-47.29-3.809-89.13 34.923-116.97 20.712-14.887 74.469-13.654 86.132 13.351 14.853 34.392-.308 40.467 6.606 56.813 6.675 15.774 15.904 19.229 30.808 25.05 14.77 5.769 20.158 6.207 27.46 28.116 7.315 21.939 1.735 35.591 26.15 38.999 20.483 2.855 33.283 2.666 37.29 2.47 1.744-8.046 10.738-48.601 18.438-65.648 8.27-18.31 14.921-52.157-2.434-65.035-3.225-2.391-4.619-3.686-8.366-6.977 4.814-.268 7.619-.362 12.409-1.044 1.088-6.809 5.35-39.75-10.837-55.763-1.278-1.265-1.208-.689-.269-2.221 13.23-21.582 32.567-26.313 55.6-8.493 2.27 1.76 3.57 3.34 9.565 4.384v764.374zm-34.631-76.941c6.431 0 5.914 8.035 3.928 14.371-8.743 27.905 16.257 48.742 26.96 56.16l-.005-755.252c-5.295-1.917-5.682-2.438-8.022-4.248-19.122-14.798-35.275-14.343-49.56 6.372 13.432 14.505 14.077 41.392 10.35 60.432-2 .31-3.786.591-6.417.863 20.585 15.941 14.662 49.133 5.01 70.499-6.824 15.11-15.335 51.45-18.76 67.553-11.371 1.042-29.106-.665-40.748-2.29-27.111-3.784-22.089-20.471-29.066-41.425-6.821-20.459-11.338-20.422-25.357-25.901-15.607-6.093-25.579-9.903-32.813-27.001-7.472-17.65 7.747-23.58-6.596-56.789-10.649-24.661-61.771-25.479-80.723-11.855-37.259 26.776-33.302 67.496-33.425 114.055-.126 48.992-.259 99.65-11.876 113.13-2.112 2.449-3.021 4.514-2.494 5.666.503 1.097 2.3 1.562 2.93 1.562 2.025-.19 6.228-2.909 9.903-5.479 6.842-4.784 7.401-5.099 11.31-8.148 10.94-8.534 8.834-8.558 11.401-15.271 4.748-12.413 6.251-35.711 14.86-35.711 6.073 0 5.848 12.958 4.714 19.311-3.042 17.032-5.388 42.841-5.974 65.75-.631 24.64-25.484 61.521-43.574 71.067-7.291 3.846-7.049 5.782-7.036 5.864 1.277 7.382 84.571 9.991 87.82-69.774.42-10.304 1.157-14.333 4.128-14.333 4.431 0 6.206 11.667 6.335 16.988 2.128 87.442-42.252 133.271-53.351 139.932-8.4 5.035-5.386 7.902 4.399 7.459 75.557-3.145 85.819-92.316 85.914-93.217.671-6.377 3.45-10.663 6.912-10.663 12.21 0 2.115 45.822-3.944 84.95-5.511 35.57-42.489 62.428-56.349 71.354 85.008 1.344 99.498-65.945 104.899-91.131 5.096-23.771 15.312-22.833 18.656-6.672 7.237 34.985-17.934 81.915-22.606 87.362-2.286 2.67-3.682 6.703-3.195 7.533 17.276-.289 71.878-79.552 75.668-107.974 1.205-9.027 2.933-12.711 5.968-12.711 3.715 0 6.378 6.33 10.318 16.752 3.228 8.543 8.565 15.836-1.667 30.827-2.249 3.291-36.845 59.873-44.33 71.494-6.248 9.703-27.362 34.504-21.813 36.867 20.592 8.826 31.702 48.975 31.702 63.441 0 10.059 3.216 11.891 4.232 6.313 1.208-6.643 25.975-56.313 28.969-62.303 2.715-5.43.883-7.807 7.698 14.686 3.228-9.059 9.045-23.629 13.901-35.793 7.82-19.588 8.949-25.984 13.895-25.984 3.956 0 5.688 5.852 6.254 7.775 26.602 90.027-51.773 111.98-52.844 118.721-.25 1.559 22.593 6.115 47.57 3.83-10.961 12.783-20.646 16.305-42.381 24.305-36.129 13.293-53.449 19.588-48.32 55.195 26.251-24.701 54.406-4.629 64.842-4.629 12.321-.003 11.892-13.885 21.8-13.885"/><path fill="#222221" d="M337.874 71.068c-7.828-1.094-10.633 2.812-8.192 5.643 1.111 1.289 2.576 1.939 4.369 1.275 3.401-1.261 5.792-2.275 12.835 2.115-4.364 1.24-6.655 8.81 1.463 8.81 5.002 0 6.11-2.52 5.02-5.509 2.818 1.085 7.648 1.469 11.531 1.416 0 0-2.014 9.384-16.551 9.372-10.112-.364-9.565-7.646-10.292-11.287s-6.135-2.643-5.645.181c3.221 27.072 32.215 16.711 35.504 0-14.451-.001-18.295-10.376-30.042-12.016"/><path fill="#ff0" stroke="#222221" stroke-miterlimit="10" stroke-width="3.601" d="M232.411 727.425c-.225-11.619-7.559-29.695-12.261-39.492l44.072-61.869c-3.879-8.957-8.955-17.385-15.117-22.746l-48.311 63.459c-17.992-14.395-34.54-24.361-43.613-29.436-3.893-13.434-17.076-14.857-24.359-7.467-4.427-1.113-15.901-2.874-23.074 4.664 7.052 1.216 16.211 5.961 18.919 14.08 3.332 11.568 16.523 16.203 24.775 6.879 16.838 5.662 15.219 11.074 16.741 14.881 7.93 19.826-20.093-4.252-37.137-5.596-3.728-3.184-8.667-5.209-12.013-5.209-7.283 0-11.98 7.913-11.392 11.923-5.412 2.178-10.352 8.925-10.581 15.536 0 0 6.842-2.486 13.35-3.801 1.78 3.246 4.626 5.527 8.623 5.527 3.992 0 10.239-2.887 14.002-7.178 12.106.689 28.396 2.75 28.396 2.75-1.03 3.348-7.8 10.371-13.411 15.777-8.407-4.496-20.393 2.696-21.927 9.957-3.402 1.639-9.168 11.631-10.2 19.551 0 0 7.088-6.172 12.017-7.459 3.179 5.434 9.513 9.189 14.788 9.189 8.3 0 14.841-9.348 13.033-19.701 12.534-6.34 31.631-11.197 39.912-7.057 8.206 4.104 12.25 15.979 13.724 21.461-8.045 4.006-9.666 12.505-5.907 18.619 0 0 5.566 6.71.785 14.836 9.888-.709 13.372-6.088 13.372-6.088 11.591 2.463 24.724-17.334 12.794-25.99z"/><g fill="#cfb98a"><path d="M367.879 817.036c-17.717-57.285-6.897-58.424 4.008-65.697-15.672 3.066-30.532 1.66-21.104 48.18 5.227 7.603 11.928 13.574 17.096 17.517m-50.17-128.9c6.235.473 13.432.645 20.999.25 8.615-6.084 25.055-31.426 27.176-50.742-12.846 34.752-40.714 45.253-48.175 50.492m-9.815 55.365c39.602 1.744 60.114-33.455 60.114-33.455s-14.883 16.021-41.715 22.465c-16.699 4.01-40.024-10.121-61.147 21.836-1.923 2.93-2.718 5.074-2.739 6.58 5.382-3.193 10.754-4.85 15.952-5.465 4.552-5.713 10.372-12.805 29.535-11.961m-22.956-170.818c-3.587 20.178-5.968 48.461-8.591 68.625-2.406-9.182-12.193-48.162 8.591-68.625m24.937-4.705c-.9 13.131-1.751 23.895 6.337 41.389 3.465-40.025 6.328-54.613 1.426-63.746.001-.001-6.555 4.702-7.763 22.357m29.749-382.528c0 6.118-2.827-.761 18.679 38.464 6.569-11.268 10.587-17.955 13.052-22.189l-.006-9.321c-1.84 1.396-5.432 4.157-16.032 12.277z"/><path d="M286.518 384.061c-19.469 9.571-38.841 3.813-49.194-30.35-.944-3.119-4.438-4.714-7.42-3.344-.132.063-13.736 6.156-26.878-.32-10.702-5.268-18.313-17.445-22.625-36.192-1.956-8.493-12.273 1.044-25.743-9.319-9.673-7.443-15.308-21.766-16.747-42.57a5.4 5.4 0 0 0-3.508-4.691c-.139-.051-13.874-5.438-17.564-17.04-2.446-7.686-.111-16.823 6.94-27.155a5.41 5.41 0 0 0-.753-6.974c-.243-.229-25.554-27.55-22.614-46.639 2.764-17.937 20.13-21.16 20.13-21.16-6.39.418-65.134-9.935-54.033 135.521 1.783 36.803-20.249 55.99-20.249 55.99s27.348-23.323 27.819-56.015c1.125-78.1 4.568-94.073 16.858-110.545-2.314 19.609 14.306 39.783 21.508 47.487-9.226 15.357-10.679 31.369.884 44.55-21.26 38.73 21.508 142.148-51.417 171.247 84.309-31.851 41.295-124.3 59.398-164.233 2.289 1.584 4.438 2.819 6.084 3.642 1.883 20.464 8.498 41.781 26.799 50.98-5.616 11.34-2.827 50.05-2.546 81.565-4.042 71.981-36.134 89.371-56.889 108.849 48.324-29.711 67.275-81.513 66.975-111.128 3.896-30.687-2.803-61.195 2.717-75.913 2.453.415 4.695.552 6.553.5 5.133 18.927 15.08 36.156 33.97 41.436-.602 107.143-5.08 156.89-55.406 194.472 72.028-53.359 65.645-109.091 66.201-192.914 5.133.051 9.657-.776 12.956-1.662 5.68 15.943 15.082 30.58 31.204 35.259 6.189 21.243 6.314 52.194-2.866 93.526-10.404 46.844-31.287 63.418-31.519 63.777 8.699-5.512 19.233-21.797 28.607-36.881 14.77-23.762 25.683-83.424 17.334-118.937 28.243-.84 7.438-20.036 26.298 43.98 5.808-5.808 10.557 8.754 10.404 8.393 6.706 15.794 9.286 21.597 4.457 31.756 6.014 13.388 14.264 27.788 22.94 41.058 2.404 8.084 5.115 20.041 3.592 29.273 0 0 4.785-7.615 5.799-15.584 10.106 14.057 19.884 25.512 26.628 31.123l-.01-16.039c-17.004-18.59-51.842-63.098-67.022-126.106 14.839 17.988 21.519 18.542 21.519 18.542s2.402-3.127 11.816-24.768c5.426 16.694 24.194 49.309 33.638 57.708l-.012-15.843c-34.382-50.52-31.228-64.421-31.228-64.421s-5.144 1.78-18.187 31.771c-7.417-7.081-20.295-21.289-23.77-37.162-10.265-44.701-11.007-94.094 2.121-114.362-.111 14.056 2.875 24.26 15.303 44.188 0 0 5.148-15.449 20.302-28.564 2.873 13.967 30.876 56.041 30.876 56.041-29.36-58.033-25.916-75.378-25.916-75.378s-14.673 12.855-26.173 34.654c-8.292-13.821-11.748-26.027-10.999-43.416-.962.088-2.025.13-3.072.181-17.444 28.706-17.285 85.966-14.27 118.156"/></g></svg>