<!-- Created with Inkscape (http://www.inkscape.org/) -->
<svg role="img" viewBox="0 0 520 600"
   xmlns="http://www.w3.org/2000/svg"
   xmlns:xlink="http://www.w3.org/1999/xlink"
   id="svg4236"><title>Herb Kłodzko</title>
  <defs
     id="defs3">
    <linearGradient
       id="linearGradient2127">
      <stop
         style="stop-color:#c80000;stop-opacity:1;"
         offset="0"
         id="stop2129" />
      <stop
         style="stop-color:#ff0000;stop-opacity:1.0000000;"
         offset="1.0000000"
         id="stop2131" />
    </linearGradient>
    <linearGradient
       xlink:href="#linearGradient2127"
       id="linearGradient2133"
       gradientTransform="scale(0.930957,1.074164)"
       x1="-3.1015634e-008"
       y1="279.28895"
       x2="558.56991"
       y2="279.28895"
       gradientUnits="userSpaceOnUse" />
  </defs>
  <sodipodi:namedview
     borderopacity="1.0"
     bordercolor="#666666"
     pagecolor="#ffffff"
     id="base" />
  <metadata
     id="metadata4">
    <rdf:RDF
       id="RDF5">
      <cc:Work
         id="Work6"
         rdf:about="">
        <dc:format
           id="format7">image/svg+xml</dc:format>
        <dc:type
           rdf:resource="http://purl.org/dc/dcmitype/StillImage"
           id="type9" />
      </cc:Work>
    </rdf:RDF>
  </metadata>
  <g
     id="layer1">
    <g
       id="g1529">
      <path
         style="stroke-opacity:1.0000000;stroke-dashoffset:0.00000000;stroke-miterlimit:4.0000000;stroke-width:2.5765665;stroke:#000000;fill-rule:nonzero;fill-opacity:1.0;fill:url(#linearGradient2133)"
         d="M 1.2882832,1.2925768 L 1.6091332,366.39627 C 13.959693,496.74304 125.39651,598.71172 259.87886,598.71172 C 394.36112,598.71172 506.36535,496.95884 518.71601,366.61222 L 518.46944,1.2925768 L 1.2882832,1.2925768 z "
         id="rect1293" />
      <g
         id="g1450">
        <path
           id="path8571"
           d="M 79.495269,48.680984 C 81.851497,46.627375 82.414465,42.829489 80.738608,40.230630 C 80.273087,39.508738 70.921317,27.827743 65.158839,29.302449 C 65.173110,29.330508 74.505814,38.725661 72.215136,47.659341 C 73.890994,50.258200 77.138997,50.734593 79.495269,48.680984 z "
           style="fill:#ffffff;fill-opacity:1.0000000;fill-rule:nonzero;stroke:#000000;stroke-width:1.9655237;stroke-miterlimit:4.0000000;stroke-dashoffset:0.00000000;stroke-opacity:1.0000000" />
        <path
           id="path8573"
           d="M 66.605254,77.794544 C 67.897552,74.718189 66.909879,71.039363 64.399393,69.613996 C 63.702052,69.218070 50.798899,63.775469 46.247726,68.141262 C 46.271423,68.158682 58.261535,71.576708 59.724615,80.742386 C 62.235079,82.167753 65.312934,80.870920 66.605254,77.794544 z "
           style="fill:#ffffff;fill-opacity:1.0000000;fill-rule:nonzero;stroke:#000000;stroke-width:1.9655237;stroke-miterlimit:4.0000000;stroke-dashoffset:0.00000000;stroke-opacity:1.0000000" />
        <path
           id="path8575"
           d="M 67.170243,107.03147 C 68.462549,110.10782 67.474876,113.78665 64.964390,115.21202 C 64.267049,115.60794 51.363888,121.05054 46.812723,116.68475 C 46.836420,116.66733 58.826532,113.24930 60.289605,104.08363 C 62.800076,102.65826 65.877923,103.95509 67.170243,107.03147 z "
           style="fill:#ffffff;fill-opacity:1.0000000;fill-rule:nonzero;stroke:#000000;stroke-width:1.9655237;stroke-miterlimit:4.0000000;stroke-dashoffset:0.00000000;stroke-opacity:1.0000000" />
        <path
           id="path8577"
           d="M 79.161653,135.26955 C 81.517880,137.32316 82.080857,141.12105 80.404992,143.71991 C 79.939471,144.44180 70.587709,156.12279 64.825230,154.64809 C 64.839502,154.62003 74.172198,145.22487 71.881520,136.29120 C 73.557385,133.69234 76.805388,133.21594 79.161653,135.26955 z "
           style="fill:#ffffff;fill-opacity:1.0000000;fill-rule:nonzero;stroke:#000000;stroke-width:1.9655237;stroke-miterlimit:4.0000000;stroke-dashoffset:0.00000000;stroke-opacity:1.0000000" />
        <path
           id="path8579"
           d="M 102.35057,66.557392 C 102.35057,66.557392 89.350125,69.024983 89.084795,65.015145 C 88.819487,61.005287 91.620783,37.943454 77.941556,41.881383 C 64.012501,45.891221 75.094157,66.104310 73.961815,68.408101 C 72.900570,70.567250 59.638038,65.287516 58.573527,77.044699 C 57.512267,88.765789 68.920829,91.850303 68.920829,92.775647 C 68.920829,93.392550 59.620083,95.861072 60.165410,107.27279 C 60.696048,118.37702 73.961837,117.76012 73.961815,118.68546 C 73.961815,119.66086 65.695978,134.48741 73.165877,140.27698 C 80.329399,145.82908 94.656433,139.96852 96.248316,132.56572 C 97.840216,125.16291 104.47311,107.88972 108.18752,108.50662 C 111.90193,109.12352 116.67762,71.801035 116.67762,71.801035 L 102.35057,66.557392 z "
           style="fill:#ffffff;fill-opacity:1.0000000;fill-rule:evenodd;stroke:#000000;stroke-width:1.9655237px;stroke-linecap:butt;stroke-linejoin:miter;stroke-opacity:1.0000000" />
        <path
           id="path8581"
           d="M 68.916601,92.574252 C 68.916601,92.574252 84.644701,87.312977 87.758220,94.009453"
           style="fill:none;fill-opacity:0.75000000;fill-rule:evenodd;stroke:#000000;stroke-width:1.9655237px;stroke-linecap:butt;stroke-linejoin:miter;stroke-opacity:1.0000000" />
        <path
           id="path8583"
           d="M 73.582618,118.57068 C 73.582618,118.57068 88.819487,115.50380 88.819487,105.73057"
           style="fill:none;fill-opacity:0.75000000;fill-rule:evenodd;stroke:#000000;stroke-width:1.9655237px;stroke-linecap:butt;stroke-linejoin:miter;stroke-opacity:1.0000000" />
        <path
           id="path8585"
           d="M 84.604026,79.781926 C 82.959449,70.811519 74.962671,69.620989 73.405915,68.897041"
           style="fill:none;fill-opacity:0.75000000;fill-rule:evenodd;stroke:#000000;stroke-width:1.9655237px;stroke-linecap:butt;stroke-linejoin:miter;stroke-opacity:1.0000000" />
        <path
           id="path8938"
           d="M 184.46509,135.70774 C 184.46509,135.70774 171.44929,125.98009 164.94139,126.52050 C 158.43349,127.06092 147.27707,104.36308 139.37464,100.58011 C 131.47218,96.797140 126.82367,71.397163 113.34303,71.397163 C 99.862366,71.397163 99.397496,71.397163 99.397496,71.397163 C 99.397496,71.397163 104.97573,72.477998 103.58118,80.584372 C 102.18662,88.690745 95.678716,90.312020 95.678716,90.312020 C 95.678716,90.312020 94.749006,91.392877 99.397496,92.473734 C 104.04602,93.554570 106.83512,87.069470 106.83512,87.069470 L 101.25692,103.82266 C 101.25692,103.82266 94.749006,107.06521 95.678716,115.71200 C 96.608406,124.35881 108.22967,129.76305 108.69451,133.00560 C 109.15938,136.24815 98.113436,135.41180 98.220406,137.11329 C 99.942076,146.40724 117.99152,138.40987 115.20242,141.65242 C 112.41332,144.89496 106.37027,157.86516 109.15938,163.80984 C 111.94847,169.75451 107.29996,161.10771 113.34303,158.94600 C 119.38607,156.78431 127.28853,158.94600 123.10487,162.18857 C 118.92123,165.43112 107.76482,174.07791 106.37027,171.37578 C 104.97573,168.67367 104.04602,173.53749 107.76482,176.78004 C 111.48362,180.02259 126.35882,176.23960 127.75337,172.99705 C 129.14792,169.75451 121.71033,191.37152 114.27271,192.45235 C 106.83512,193.53321 124.93430,196.81283 128.65311,192.48942 C 132.37192,188.16601 143.09343,178.94173 143.09343,178.94173 C 143.09343,178.94173 133.33158,191.37152 135.65583,199.47789 C 137.98008,207.58426 129.87614,208.10839 129.98389,209.99875 C 130.48804,217.06580 146.73636,214.91373 151.92559,201.63959 C 152.87250,204.75095 153.32014,217.31191 148.67163,220.01404 C 144.02313,222.71615 141.23403,222.71615 141.23403,222.71615 C 141.23403,222.71615 139.37464,227.03956 144.02313,227.58000 C 148.67163,228.12042 151.46072,229.20128 151.46072,229.20128 L 152.85528,243.79274 L 215.14521,197.85662 L 184.46509,135.70774 z "
           style="fill:#ffffff;fill-opacity:1.0000000;fill-rule:evenodd;stroke:#000000;stroke-width:1.9655237px;stroke-linecap:butt;stroke-linejoin:miter;stroke-opacity:1.0000000" />
        <path
           id="path11240"
           d="M 110.15394,233.85446 C 112.51017,231.80086 113.07314,228.00297 111.39728,225.40411 C 110.93176,224.68221 101.58000,213.00122 95.817516,214.47593 C 95.831786,214.50399 105.16449,223.89914 102.87381,232.83282 C 104.54967,235.43168 107.79767,235.90807 110.15394,233.85446 z "
           style="fill:#ffffff;fill-opacity:1.0000000;fill-rule:nonzero;stroke:#000000;stroke-width:1.9655237;stroke-miterlimit:4.0000000;stroke-dashoffset:0.00000000;stroke-opacity:1.0000000" />
        <path
           id="path11244"
           d="M 97.263916,262.96802 C 98.556226,259.89167 97.568546,256.21284 95.058066,254.78747 C 94.360726,254.39155 81.457565,248.94895 76.906400,253.31474 C 76.930097,253.33216 88.920209,256.75019 90.383282,265.91587 C 92.893753,267.34123 95.971596,266.04440 97.263916,262.96802 z "
           style="fill:#ffffff;fill-opacity:1.0000000;fill-rule:nonzero;stroke:#000000;stroke-width:1.9655237;stroke-miterlimit:4.0000000;stroke-dashoffset:0.00000000;stroke-opacity:1.0000000" />
        <path
           id="path11246"
           d="M 97.828916,292.20495 C 99.121226,295.28130 98.133546,298.96013 95.623056,300.38549 C 94.925726,300.78142 82.022562,306.22402 77.471390,301.85823 C 77.495094,301.84080 89.485206,298.42278 90.948279,289.25710 C 93.458743,287.83173 96.536596,289.12857 97.828916,292.20495 z "
           style="fill:#ffffff;fill-opacity:1.0000000;fill-rule:nonzero;stroke:#000000;stroke-width:1.9655237;stroke-miterlimit:4.0000000;stroke-dashoffset:0.00000000;stroke-opacity:1.0000000" />
        <path
           id="path11242"
           d="M 109.82033,320.44303 C 112.17656,322.49664 112.73953,326.29452 111.06367,328.89338 C 110.59815,329.61528 101.24638,341.29627 95.483896,339.82156 C 95.498166,339.79350 104.83088,330.39835 102.54020,321.46467 C 104.21606,318.86581 107.46406,318.38942 109.82033,320.44303 z "
           style="fill:#ffffff;fill-opacity:1.0000000;fill-rule:nonzero;stroke:#000000;stroke-width:1.9655237;stroke-miterlimit:4.0000000;stroke-dashoffset:0.00000000;stroke-opacity:1.0000000" />
        <path
           id="path11230"
           d="M 133.00925,251.73087 C 133.00925,251.73087 120.00880,254.19846 119.74347,250.18862 C 119.47817,246.17876 122.27946,223.11693 108.60023,227.05486 C 94.671167,231.06470 105.75284,251.27779 104.62049,253.58158 C 103.55925,255.74073 90.296713,250.46100 89.232201,262.21818 C 88.170934,273.93927 99.579506,277.02378 99.579506,277.94912 C 99.579506,278.56603 90.278758,281.03455 90.824084,292.44627 C 91.354714,303.55050 104.62051,302.93360 104.62049,303.85894 C 104.62049,304.83434 96.354656,319.66089 103.82456,325.45045 C 110.98807,331.00255 125.31511,325.14199 126.90699,317.73920 C 128.49889,310.33639 135.13178,293.06319 138.84619,293.68009 C 142.56060,294.29700 147.33628,256.97451 147.33628,256.97451 L 133.00925,251.73087 z "
           style="fill:#ffffff;fill-opacity:1.0000000;fill-rule:evenodd;stroke:#000000;stroke-width:1.9655237px;stroke-linecap:butt;stroke-linejoin:miter;stroke-opacity:1.0000000" />
        <path
           id="path8156"
           d="M 188.99081,199.54673 C 188.99081,199.54673 160.11153,225.48807 157.57896,224.31036 C 155.04641,223.13263 148.46990,227.81195 148.46990,231.34512 C 148.46990,234.87827 128.71596,244.88888 127.19643,249.01089 C 125.67691,253.13292 123.65086,261.37694 124.15736,266.08783 C 124.66387,270.79870 126.18340,272.56527 126.18340,272.56527 C 126.18340,272.56527 125.67691,270.20984 128.20945,265.49896 C 130.74201,260.78808 136.82015,261.37694 135.30061,266.67668 C 133.78109,271.97641 131.24852,277.86501 129.22248,278.45387 C 127.19643,279.04272 127.19643,279.04272 127.19643,279.04272 C 127.19643,279.04272 126.68992,283.16475 133.27457,281.98702 C 139.85922,280.80932 140.36572,276.68728 140.36572,276.68728 C 140.36572,276.68728 141.37875,279.04272 140.36572,281.98702 C 139.35270,284.93133 134.28758,283.16475 132.26154,287.87562 C 130.23549,292.58650 130.74201,302.00823 134.28758,307.30797 C 137.83318,312.60771 141.88527,315.55201 139.35270,322.61833 C 136.82015,329.68463 133.78109,330.86235 133.78109,330.86235 C 133.78109,330.86235 144.41781,332.62892 146.44386,328.50690 C 148.46990,324.38489 149.48293,309.07454 149.48293,309.07454 C 149.48293,309.07454 152.52199,306.13026 157.08060,309.66340 C 161.63920,313.19658 165.18478,314.96314 163.15874,320.85173 C 161.13269,326.74034 157.08060,330.86235 157.08060,330.86235 C 157.08060,330.86235 163.66525,333.21778 168.22384,327.32920 C 172.78244,321.44060 179.36710,311.42998 177.34105,307.30797 C 175.31501,303.18596 171.26292,296.70851 171.26292,296.70851 C 171.26292,296.70851 177.34105,293.76421 179.36710,297.88622 C 181.39314,302.00823 183.01235,309.07770 180.88662,313.19658 C 180.57946,313.55681 187.47128,311.42998 188.48429,307.89684 C 194.54887,295.90681 192.02986,279.04272 190.51034,276.09844 C 188.99081,273.15413 195.68870,278.68880 197.50455,286.81378 C 199.11832,294.93878 196.08196,300.83052 196.08196,300.83052 C 196.08196,300.83052 200.64057,301.41938 201.65360,294.35308 C 202.66661,287.28676 200.64057,271.38757 203.17313,269.03212 C 205.70569,266.67668 213.80987,257.25493 213.80987,257.25493 L 208.74475,206.02417 L 188.99081,199.54673 z "
           style="fill:#ffffff;fill-opacity:1.0000000;fill-rule:evenodd;stroke:#000000;stroke-width:1.9655237px;stroke-linecap:butt;stroke-linejoin:miter;stroke-opacity:1.0000000" />
        <path
           id="path12023"
           d="M 131.15476,435.53770 C 133.28223,433.17050 133.44950,429.32154 131.51770,426.97500 C 130.98112,426.32320 120.49222,416.02986 114.92338,418.29712 C 114.94044,418.32299 125.17467,426.34960 123.82177,435.53812 C 125.75354,437.88466 129.02725,437.90492 131.15476,435.53770 z "
           style="fill:#ffffff;fill-opacity:1.0000000;fill-rule:nonzero;stroke:#000000;stroke-width:1.9655237;stroke-miterlimit:4.0000000;stroke-dashoffset:0.00000000;stroke-opacity:1.0000000" />
        <path
           id="path12025"
           d="M 115.89777,459.15273 C 116.27041,455.57736 114.31754,453.40262 111.54614,454.32468 C 110.77632,454.58082 97.053066,460.85265 93.951367,468.18010 C 93.978621,468.17462 106.27728,461.01234 110.19811,467.25813 C 112.96951,466.33607 115.52511,462.72809 115.89777,459.15273 z "
           style="fill:#ffffff;fill-opacity:1.0000000;fill-rule:nonzero;stroke:#000000;stroke-width:1.9655237;stroke-miterlimit:4.0000000;stroke-dashoffset:0.00000000;stroke-opacity:1.0000000" />
        <path
           id="path12029"
           d="M 167.90947,495.30355 C 170.84961,495.49723 173.12694,498.29767 172.96888,501.54058 C 172.92498,502.44135 170.69941,518.18795 165.19830,520.66867 C 165.19683,520.63611 168.49501,506.80539 162.33324,500.83992 C 162.49131,497.59706 164.96931,495.10986 167.90947,495.30355 z "
           style="fill:#ffffff;fill-opacity:1.0000000;fill-rule:nonzero;stroke:#000000;stroke-width:1.9655237;stroke-miterlimit:4.0000000;stroke-dashoffset:0.00000000;stroke-opacity:1.0000000" />
        <path
           id="path12027"
           d="M 128.87327,489.25721 C 130.16556,492.33356 129.17789,496.01239 126.66740,497.43775 C 125.97006,497.83368 113.06691,503.27628 108.51574,498.91049 C 108.53943,498.89306 120.52955,495.47504 121.99263,486.30936 C 124.50309,484.88399 127.58094,486.18083 128.87327,489.25721 z "
           style="fill:#ffffff;fill-opacity:1.0000000;fill-rule:nonzero;stroke:#000000;stroke-width:1.9655237;stroke-miterlimit:4.0000000;stroke-dashoffset:0.00000000;stroke-opacity:1.0000000" />
        <path
           id="path12021"
           d="M 167.73488,436.89782 C 167.73488,436.89782 151.14937,439.38581 147.93927,443.73980 C 139.80255,416.30563 116.23288,429.76038 124.28489,448.44496 C 106.26374,445.91029 106.71205,480.66092 125.06422,474.36961 C 111.04057,498.19516 139.57541,501.33756 143.79397,482.42681 C 156.73029,477.42097 161.44631,510.73923 168.72871,505.59159 C 176.01113,500.44396 171.61095,487.79345 172.71944,480.48696 C 175.66204,469.29099 185.12290,451.20378 185.12290,451.20378 L 167.73488,436.89782 z "
           style="fill:#ffffff;fill-opacity:1.0000000;fill-rule:evenodd;stroke:#000000;stroke-width:1.9655237px;stroke-linecap:butt;stroke-linejoin:miter;stroke-opacity:1.0000000" />
        <path
           id="path6638"
           d="M 268.38029,287.65395 C 268.38029,287.65395 230.23144,293.98981 222.44596,302.13591 C 214.66048,310.28203 214.66048,314.80765 206.87499,315.71278 C 199.08952,316.61790 182.43494,322.13349 180.09931,337.52061 C 177.76366,352.90771 176.68006,366.28873 172.07240,375.10716 C 169.29510,385.34420 178.84727,400.79439 177.29017,411.65587 C 175.73308,422.51734 163.27631,436.99933 162.49776,440.61981 C 161.71921,444.24032 153.15518,456.91203 155.49083,467.77351 C 157.82648,478.63501 159.72044,477.69290 159.72044,477.69290 C 159.72044,477.69290 157.82648,475.91963 160.94066,468.67864 C 164.05486,461.43766 167.32157,482.25549 167.16904,482.25549 C 167.01652,482.25549 167.16904,477.72988 171.84034,473.20425 C 176.51163,468.67864 183.51855,466.86839 183.51855,466.86839 C 183.51855,466.86839 188.18986,460.53253 188.18986,470.48890 C 188.18986,480.44526 185.07565,487.68624 185.07565,487.68624 C 185.07565,487.68624 198.31097,482.25549 198.31097,475.01451 C 198.31097,467.77351 198.31097,457.81716 198.31097,457.81716 C 198.31097,457.81716 204.30729,463.75050 206.09645,470.48890 C 208.83543,460.77350 201.42516,459.62741 204.53935,454.19667 C 207.65354,448.76592 213.88193,457.81716 212.32483,467.77351 C 210.76775,477.72988 206.09645,481.35036 206.09645,481.35036 C 206.09645,481.35036 217.77468,481.35036 219.33176,466.86839 C 220.88886,452.38642 221.66741,449.67105 221.66741,449.67105 L 230.23144,454.19667 C 230.23144,454.19667 230.23144,449.67105 227.11724,446.05057 C 224.00306,442.43006 227.11724,433.37883 227.11724,433.37883 C 227.11724,433.37883 236.45982,435.18908 236.45982,440.61981 C 236.45982,446.05057 235.68127,455.10178 235.68127,455.10178 L 234.90272,460.53253 C 234.90272,460.53253 242.04037,457.03493 243.46675,452.38642 C 244.85542,447.86082 247.96961,433.26788 244.24530,426.13784 C 240.52099,419.00780 233.34564,414.37123 233.34564,414.37123 C 233.34564,414.37123 242.68820,423.42246 248.13805,416.18148 C 253.58788,408.94050 252.80933,407.13025 252.80933,407.13025 L 245.02385,407.13025 C 245.02385,407.13025 243.46675,395.36363 238.79547,395.36363 C 234.12417,395.36363 234.12417,395.36363 234.12417,395.36363 L 232.56709,368.88227 C 232.56709,368.88227 241.26775,362.19175 246.71758,364.00197 C 252.16741,365.81223 255.92352,359.15871 259.81626,354.63308 C 263.70899,350.10748 266.04464,354.63308 270.71592,353.72796 C 275.38723,352.82283 287.84398,343.77159 287.84398,343.77159 L 283.95125,290.36932 L 268.38029,287.65395 z "
           style="fill:#ffffff;fill-opacity:1.0000000;fill-rule:evenodd;stroke:#000000;stroke-width:1.9655237px;stroke-linecap:butt;stroke-linejoin:miter;stroke-opacity:1.0000000" />
        <path
           id="path12793"
           d="M 353.12700,483.85661 C 354.34213,480.73806 353.26323,477.09401 350.71827,475.75377 C 350.01138,475.38148 336.97805,470.37558 332.53755,474.89277 C 332.56167,474.90939 344.63190,477.92231 346.32267,487.03488 C 348.86759,488.37514 351.91183,486.97522 353.12700,483.85661 z "
           style="fill:#ffffff;fill-opacity:1.0000000;fill-rule:nonzero;stroke:#000000;stroke-width:1.9655237;stroke-miterlimit:4.0000000;stroke-dashoffset:0.00000000;stroke-opacity:1.0000000" />
        <path
           id="path13563"
           d="M 357.93985,513.44434 C 355.55936,511.42891 352.27129,511.91857 350.62658,514.54426 C 350.16974,515.27355 343.31164,529.09674 346.21647,535.06758 C 346.23534,535.04348 351.21956,521.91279 359.23781,521.83491 C 360.88252,519.20928 360.32035,515.45984 357.93985,513.44434 z "
           style="fill:#ffffff;fill-opacity:1.0000000;fill-rule:nonzero;stroke:#000000;stroke-width:1.9655237;stroke-miterlimit:4.0000000;stroke-dashoffset:0.00000000;stroke-opacity:1.0000000" />
        <path
           id="path13565"
           d="M 383.52653,527.55233 C 380.97784,529.26732 380.03219,532.96105 381.43178,535.77226 C 381.82050,536.55311 389.91751,549.43867 395.78962,548.76713 C 395.77830,548.73731 387.46753,538.12413 390.65153,529.56839 C 389.25200,526.75722 386.07531,525.83734 383.52653,527.55233 z "
           style="fill:#ffffff;fill-opacity:1.0000000;fill-rule:nonzero;stroke:#000000;stroke-width:1.9655237;stroke-miterlimit:4.0000000;stroke-dashoffset:0.00000000;stroke-opacity:1.0000000" />
        <path
           id="path13567"
           d="M 408.10847,518.47815 C 405.55976,520.19313 404.61413,523.88686 406.01371,526.69808 C 406.40243,527.47893 414.49945,540.36448 420.37156,539.69294 C 420.36024,539.66312 412.04946,529.04995 415.23347,520.49420 C 413.83394,517.68303 410.65725,516.76316 408.10847,518.47815 z "
           style="fill:#ffffff;fill-opacity:1.0000000;fill-rule:nonzero;stroke:#000000;stroke-width:1.9655237;stroke-miterlimit:4.0000000;stroke-dashoffset:0.00000000;stroke-opacity:1.0000000" />
        <path
           id="path12801"
           d="M 389.48390,459.11774 C 389.48390,459.11774 368.34053,475.04882 367.39635,480.67732 C 344.78870,466.00161 334.11394,488.83282 354.99205,498.87065 C 340.98526,517.37002 360.69678,531.52334 373.98912,515.52358 C 371.90360,544.29138 398.17090,536.90207 393.81400,518.03378 C 402.48401,530.57975 412.31311,527.00549 415.46186,520.55210 C 418.58240,514.15652 414.45652,501.16269 412.31964,494.17170 C 410.12724,482.74557 410.67958,461.58635 410.67958,461.58635 L 389.48390,459.11774 z "
           style="fill:#ffffff;fill-opacity:1.0000000;fill-rule:evenodd;stroke:#000000;stroke-width:1.9655237px;stroke-linecap:butt;stroke-linejoin:miter;stroke-opacity:1.0000000" />
        <path
           id="path2821"
           d="M 189.37155,133.60254 C 189.37155,133.60254 178.52848,139.90549 170.39621,142.60675 C 162.26392,145.30801 154.51889,143.50717 154.51889,143.50717 C 154.51889,143.50717 165.36193,152.96160 170.00895,153.41180 C 174.65597,153.86202 162.26392,157.01349 161.48942,160.61517 C 160.71491,164.21685 177.75398,163.76665 177.75398,163.76665 C 177.75398,163.76665 184.72451,175.92235 176.59224,178.62361 C 168.45995,181.32487 166.91094,182.22529 166.91094,182.22529 C 166.91094,182.22529 179.69025,190.32908 186.66077,187.17760 C 193.63130,184.02613 190.92055,188.97844 190.92055,188.97844 C 190.92055,188.97844 174.37638,212.37201 174.65597,213.74003 C 174.90972,214.98165 191.30537,209.34270 191.69505,210.58856 C 191.91517,211.29232 185.88627,216.44129 187.04804,223.64466 C 188.20978,230.84804 180.12029,240.84983 174.69877,240.39963 C 172.72991,240.67920 179.30299,252.45814 185.49901,246.15520 C 191.69505,239.85225 195.61339,259.78945 195.96500,260.06197 C 196.20041,260.24442 200.48565,253.89646 200.60182,253.80879 C 203.69984,246.60540 207.18512,263.71342 207.18512,263.71342 C 226.17472,282.87106 250.91907,272.13946 260.62584,283.97290 C 270.33260,295.80633 282.69918,305.58300 281.15018,317.28847 C 279.60117,328.99394 274.95416,339.79901 281.53744,351.95469 C 289.84702,366.66473 298.57038,381.92214 311.35582,384.82005 C 317.86366,426.03330 350.39485,410.87778 355.50251,428.94070 C 369.24178,432.95469 369.40280,432.97838 373.00220,442.30011 C 369.06853,461.29189 380.28660,471.26051 378.35035,473.96177 C 376.41408,476.66303 378.73759,483.41620 381.06110,485.21704 C 383.38461,487.01788 381.06110,480.71494 383.38461,478.01368 C 385.70812,475.31241 382.99737,486.11746 388.41889,489.71914 C 393.84041,493.32082 390.74240,493.77102 391.51690,484.76682 C 392.29141,475.76261 397.32568,491.51999 402.35995,492.87061 C 407.39423,494.22125 403.13445,491.06976 403.13445,482.51577 C 403.13445,473.96177 403.13445,481.16514 410.49224,482.96597 C 417.85001,484.76682 425.98230,488.81870 425.20780,494.67145 C 424.43329,500.52418 435.66359,489.26893 430.24209,481.16514 C 424.82058,473.06134 408.16873,459.10481 411.65398,460.90566 C 415.13925,462.70649 431.01659,470.81031 434.11459,469.45966 C 421.64450,459.64896 426.13105,450.03902 426.75680,443.34746 C 429.42270,441.21724 436.43809,452.80186 436.43809,450.10060 C 436.43809,447.39934 437.79755,435.61804 429.08030,427.59009 C 437.94019,421.56911 445.30007,403.19102 436.82538,396.07533 C 435.09899,404.46821 439.92539,412.31845 427.14610,413.66909 C 414.36680,415.01971 397.83523,381.98373 383.38461,377.61669 C 378.35035,376.71627 373.36907,361.26220 367.17303,361.71240 C 360.97700,362.16263 357.05151,336.19733 354.34074,331.69520 C 351.62999,327.19310 341.94870,300.63067 337.30167,297.02899 C 332.65465,293.42730 322.58610,270.91679 315.22833,267.76530 C 307.87054,264.61384 291.60597,248.85646 293.92948,235.35015 C 296.25300,221.84381 312.13032,202.48478 312.13032,202.48478 L 265.61488,137.32276 L 189.37155,133.60254 z "
           style="fill:#ffffff;fill-opacity:1.0000000;fill-rule:evenodd;stroke:#000000;stroke-width:1.9655237px;stroke-linecap:butt;stroke-linejoin:miter;stroke-opacity:1.0000000" />
        <path
           id="path14339"
           d="M 203.44802,89.013640 C 203.44802,89.013640 192.67961,92.314131 190.91750,97.435578 C 189.15540,102.55704 192.87541,112.91380 201.29433,114.27951 C 207.95118,115.41761 247.89219,117.69383 256.11534,111.09283 C 264.33848,104.49182 264.73006,99.484178 264.73006,99.484178 C 236.89461,107.86878 214.99960,97.094158 212.06275,99.939428 C 209.12591,102.78467 202.36696,102.59570 200.31539,99.256548 C 198.35750,96.069865 203.44802,89.013640 203.44802,89.013640 z "
           style="fill:#ffffff;fill-opacity:1.0000000;fill-rule:evenodd;stroke:#000000;stroke-width:2.4447560px;stroke-linecap:butt;stroke-linejoin:miter;stroke-opacity:1.0000000" />
        <path
           id="path14335"
           d="M 229.65990,86.378075 C 227.49397,85.796776 225.34644,87.326963 224.88617,89.789213 C 224.75831,90.473107 223.58045,102.78896 227.12903,106.00107 C 227.13585,105.97710 227.19645,94.827942 232.72129,91.892033 C 233.18156,89.429825 231.82588,86.959437 229.65990,86.378075 z "
           style="fill:#ffffff;fill-opacity:1.0000000;fill-rule:nonzero;stroke:#000000;stroke-width:1.5040026;stroke-miterlimit:4.0000000;stroke-dashoffset:0.00000000;stroke-opacity:1.0000000" />
        <path
           id="path14337"
           d="M 236.90479,115.15215 C 234.73886,115.73345 232.59133,114.20326 232.13107,111.74101 C 232.00320,111.05712 230.82535,98.741268 234.37393,95.529150 C 234.38075,95.553119 234.44134,106.70228 239.96618,109.63819 C 240.42645,112.10040 239.07077,114.57079 236.90479,115.15215 z "
           style="fill:#ffffff;fill-opacity:1.0000000;fill-rule:nonzero;stroke:#000000;stroke-width:1.5040026;stroke-miterlimit:4.0000000;stroke-dashoffset:0.00000000;stroke-opacity:1.0000000" />
        <path
           id="path1431"
           d="M 246.87229,48.842538 L 218.44617,55.332851 L 218.10437,62.154301 C 210.47920,66.183783 212.75693,91.474300 220.61088,90.897113 L 240.26422,91.559389 C 240.26418,91.559410 242.03432,84.329404 245.84690,85.135305 C 249.61344,85.931478 260.71441,87.154115 264.87360,94.407180 C 259.32798,107.30153 255.87426,102.44228 247.55588,105.66589 C 239.23750,108.88947 240.62652,114.96010 229.88197,111.33356 C 225.14063,109.73326 223.25672,110.32471 217.47775,107.98386 C 217.34684,108.04612 217.20882,108.04082 217.07898,108.11631 C 212.32490,110.87982 210.21834,118.93815 211.43933,121.16316 C 216.09650,122.23830 206.21335,120.18236 204.94519,121.36185 C 201.47920,124.58545 194.16483,129.07217 191.04543,127.05743 C 187.92608,125.04266 183.07018,118.58028 183.07018,118.58028 C 182.37699,118.17734 178.60760,121.37708 179.99400,129.83899 C 181.52046,139.15575 196.96480,141.15941 201.12845,141.16392 C 205.27732,141.16843 224.17904,135.99117 224.48459,135.93193 L 224.48459,135.99816 C 224.12446,136.23520 220.55240,146.76460 201.81204,154.01209 C 205.62462,159.65337 220.89571,157.65461 220.89571,157.65461 C 220.89570,157.65461 199.69950,183.02463 200.04610,187.45707 C 200.39266,191.88949 197.99531,200.10344 197.99531,201.96093 C 197.99531,203.37126 218.39655,189.74405 217.76258,190.70223 C 214.29659,195.94055 210.14898,220.13446 204.60339,222.95511 C 199.05780,225.77577 197.76223,243.17133 198.33711,243.88305 C 199.24741,245.01006 214.28447,227.02171 214.97123,227.65727 C 215.79328,228.41803 217.46411,255.50598 218.10982,256.79338 C 218.30666,257.18585 223.97123,251.57256 228.13042,241.49885 C 228.41209,240.81662 231.75325,231.01108 232.51681,228.91559 C 232.51681,228.91559 232.66369,251.55431 234.39670,252.36019 C 236.12969,253.16609 239.58066,237.84595 239.58062,233.81644 C 238.19422,227.77222 247.93129,200.79522 245.50510,208.45124 C 243.07891,216.10727 248.96629,229.80368 245.84690,232.62435 C 242.72752,235.44499 248.92724,262.01269 252.73980,263.22153 C 254.47281,233.00039 267.85263,223.55622 266.63955,208.84861 C 264.71183,231.51572 277.33955,248.33147 278.03279,247.52557 C 277.68620,247.52557 280.49198,209.60429 279.79874,212.42491 C 279.10556,215.24555 289.49199,230.99582 292.95792,233.81644 C 296.42392,236.63709 307.19946,233.02171 307.19947,233.02171 C 307.19947,233.02171 301.81685,226.90117 300.93319,219.70994 C 299.89338,211.24804 313.06283,203.61736 312.02304,202.00558 C 310.98325,200.39380 306.85153,184.27257 315.51653,184.67551 C 321.40871,183.06371 322.44725,190.31605 323.83360,189.51013 C 325.21998,188.70422 324.17603,173.75987 320.01686,168.11858 C 316.17566,162.90860 315.16511,142.37757 315.85833,145.60118 C 316.55153,148.82478 327.25568,155.26482 331.06830,155.66778 C 334.88089,156.07072 338.03261,162.87620 338.72578,160.86145 C 339.41897,158.84671 335.61189,150.82835 332.49245,146.39591 C 329.37306,141.96348 326.25915,137.91472 327.99213,128.64689 C 329.72512,119.37908 321.40746,114.56273 323.83360,112.95093 C 326.60636,109.72733 334.89466,122.22355 334.89464,122.22357 C 334.54805,109.32922 326.25492,96.394009 324.17539,96.394009 C 322.09581,96.394009 320.70244,73.016403 307.53166,66.166279 C 303.02589,63.748597 311.67231,57.342781 302.31412,47.672014 L 246.87229,48.842538 z "
           style="fill:#ffffff;fill-opacity:1.0000000;fill-rule:evenodd;stroke:#000000;stroke-width:1.9655237px;stroke-linecap:butt;stroke-linejoin:miter;stroke-opacity:1.0000000" />
        <path
           style="fill:#ffc800;fill-opacity:1.0000000;fill-rule:evenodd;stroke:#000000;stroke-width:2.2494140px;stroke-linecap:butt;stroke-linejoin:miter;stroke-opacity:1.0000000"
           d="M 256.61545,29.437829 C 259.33912,33.467333 263.40499,35.464547 263.40499,35.464547 C 263.40502,35.464547 269.30635,38.687366 263.40499,40.299168 C 257.50366,41.910948 247.49412,44.350988 248.85597,38.709704 C 250.21784,33.068420 257.00195,29.007720 250.64662,26.590039 C 244.29128,24.172336 228.41273,21.358052 228.41273,21.358052 C 228.41273,21.358052 244.96995,41.931781 245.42389,48.378944 C 247.59989,49.050906 300.31875,49.052793 302.50083,48.378944 C 302.95477,41.931781 319.51207,21.358052 319.51201,21.358052 C 319.51201,21.358052 303.55877,24.172336 297.20350,26.590039 C 290.84817,29.007720 297.70696,33.068420 299.06876,38.709704 C 300.43060,44.350988 290.42114,41.910948 284.51973,40.299168 C 278.61837,38.687366 284.51978,35.464547 284.51973,35.464547 C 284.51973,35.464547 288.58553,33.467333 291.30928,29.437829 C 294.03300,25.408346 273.66255,8.7085700 273.66252,8.7085700 C 273.66252,8.7085700 253.89173,25.408346 256.61545,29.437829 z "
           id="path1444" />
        <path
           id="path1442"
           d="M 267.66104,63.366617 L 249.29130,56.919453 C 249.29130,56.919453 248.94471,66.187259 254.49028,67.396100 C 260.03587,68.604940 267.31445,67.396121 267.66104,63.366617 z "
           style="fill:#ffffff;fill-opacity:1.0000000;fill-rule:evenodd;stroke:#000000;stroke-width:1.9655237px;stroke-linecap:butt;stroke-linejoin:miter;stroke-opacity:1.0000000" />
        <path
           id="path11232"
           d="M 99.575276,277.74773 C 99.575276,277.74773 115.30337,272.48645 118.41690,279.18293"
           style="fill:none;fill-opacity:0.75000000;fill-rule:evenodd;stroke:#000000;stroke-width:1.9655237px;stroke-linecap:butt;stroke-linejoin:miter;stroke-opacity:1.0000000" />
        <path
           id="path11234"
           d="M 104.24129,303.74416 C 104.24129,303.74416 119.47817,300.67727 119.47817,290.90404"
           style="fill:none;fill-opacity:0.75000000;fill-rule:evenodd;stroke:#000000;stroke-width:1.9655237px;stroke-linecap:butt;stroke-linejoin:miter;stroke-opacity:1.0000000" />
        <path
           id="path11236"
           d="M 115.26270,264.95540 C 113.61812,255.98499 105.62135,254.79447 104.06459,254.07052"
           style="fill:none;fill-opacity:0.75000000;fill-rule:evenodd;stroke:#000000;stroke-width:1.9655237px;stroke-linecap:butt;stroke-linejoin:miter;stroke-opacity:1.0000000" />
        <path
           id="path14327"
           d="M 380.22532,488.43848 C 380.22532,488.43848 379.05294,493.89043 371.78416,496.20751 C 364.51541,498.52458 359.59140,497.84309 359.59140,497.84309"
           style="fill:none;fill-opacity:0.75000000;fill-rule:evenodd;stroke:#000000;stroke-width:1.9655237px;stroke-linecap:butt;stroke-linejoin:miter;stroke-opacity:1.0000000" />
        <path
           id="path14329"
           d="M 392.01857,514.20679 C 390.60765,511.16049 388.37415,505.31770 391.68164,501.16269 C 395.66089,496.16378 405.01605,502.50815 404.47799,492.79185"
           style="fill:none;fill-opacity:0.75000000;fill-rule:evenodd;stroke:#000000;stroke-width:1.9655237px;stroke-linecap:butt;stroke-linejoin:miter;stroke-opacity:1.0000000" />
        <path
           id="path14331"
           d="M 375.88750,510.24627 L 383.27351,491.16446"
           style="fill:#ffffff;fill-opacity:1.0000000;fill-rule:evenodd;stroke:#000000;stroke-width:1.9655237px;stroke-linecap:butt;stroke-linejoin:miter;stroke-opacity:1.0000000" />
        <path
           id="path8158"
           d="M 172.65991,292.83056 C 172.65991,292.83056 165.18362,283.90387 164.37537,276.85650 C 163.56713,269.80912 168.82073,257.12384 168.82073,257.12384"
           style="fill:none;fill-opacity:0.75000000;fill-rule:evenodd;stroke:#000000;stroke-width:1.9655237px;stroke-linecap:butt;stroke-linejoin:miter;stroke-opacity:1.0000000" />
        <path
           id="path8162"
           d="M 145.58364,301.99214 C 145.58364,301.99214 140.12798,289.54178 145.17952,290.24651 C 150.23106,290.95126 154.07022,293.30038 153.86816,290.01161 C 153.66609,286.72284 146.18981,279.44055 151.24135,271.21859 C 156.29290,262.99665 157.10114,262.29192 157.10114,262.29192"
           style="fill:none;fill-opacity:0.75000000;fill-rule:evenodd;stroke:#000000;stroke-width:1.9655237px;stroke-linecap:butt;stroke-linejoin:miter;stroke-opacity:1.0000000" />
        <path
           style="fill:none;fill-opacity:0.75000000;fill-rule:evenodd;stroke:#808080;stroke-width:1.9655237px;stroke-linecap:butt;stroke-linejoin:miter;stroke-opacity:1.0000000"
           d="M 249.44395,143.93726 C 249.44395,143.93726 232.03492,154.62978 231.70645,162.64915 C 231.37798,170.66853 233.02034,177.16039 233.02034,177.16039 C 233.02034,177.16039 233.67728,172.19603 236.30506,170.28666 C 238.93285,168.37727 254.69951,159.21227 254.69951,159.21227"
           id="path2056" />
        <path
           style="fill:none;fill-opacity:0.75000000;fill-rule:evenodd;stroke:#808080;stroke-width:1.9655237px;stroke-linecap:butt;stroke-linejoin:miter;stroke-opacity:1.0000000"
           d="M 279.00648,116.44226 C 279.00648,116.44226 273.09398,127.89851 274.73633,132.48102 C 276.37869,137.06351 275.06480,163.03103 270.46618,168.75914 C 265.86758,174.48727 258.64120,187.85291 258.96967,192.81727 C 259.29814,197.78166 253.38563,185.94354 254.37104,180.21541 C 255.35646,174.48727 240.24673,174.10540 237.29048,179.06978 C 234.33422,184.03415 226.77936,198.16353 228.75019,210.38354 C 230.72104,222.60354 231.04951,222.60354 231.04951,222.60354"
           id="path2058" />
        <path
           style="fill:none;fill-opacity:0.75000000;fill-rule:evenodd;stroke:#808080;stroke-width:1.9655237px;stroke-linecap:butt;stroke-linejoin:miter;stroke-opacity:1.0000000"
           d="M 301.34260,222.98541 C 301.34260,222.98541 292.14536,218.02105 293.13079,209.61978 C 294.11621,201.21852 298.38634,185.56166 293.78774,180.21541 C 289.18912,174.86914 289.18912,174.86914 289.18912,174.86914"
           id="path2062" />
        <path
           style="fill:none;fill-opacity:0.75000000;fill-rule:evenodd;stroke:#808080;stroke-width:1.9655237px;stroke-linecap:butt;stroke-linejoin:miter;stroke-opacity:1.0000000"
           d="M 312.83912,183.65228 C 310.86829,183.65228 306.59816,185.94354 304.62731,175.25102 C 302.65649,164.55852 300.35719,161.88541 296.41551,161.88541 C 292.47383,161.88541 292.47383,161.88541 292.47383,161.88541"
           id="path2064" />
        <path
           style="fill:none;fill-opacity:0.75000000;fill-rule:evenodd;stroke:#808080;stroke-width:1.9655237px;stroke-linecap:butt;stroke-linejoin:miter;stroke-opacity:1.0000000"
           d="M 284.26202,126.75288 C 284.26202,126.75288 287.21828,142.40976 294.11621,144.70101 C 301.01413,146.99227 302.65649,152.33851 302.65649,152.33851 C 302.65649,152.33851 307.25510,149.28352 302.32801,143.17351 C 297.40093,137.06351 298.38634,127.13476 294.77315,124.46164 C 291.15995,121.78852 304.29884,123.31602 306.59816,129.80790 C 308.89747,136.29976 309.88288,138.20915 309.88288,138.20915 C 309.88288,138.20915 312.51065,138.59102 311.52524,129.42602 C 310.53982,120.26100 302.65649,106.89539 296.74398,107.27726 C 290.83147,107.65914 297.07245,101.16726 297.07245,101.16726 C 297.07245,101.16726 306.92663,100.78538 307.58357,104.98602 C 308.24052,109.18663 309.55441,87.037872 305.94120,86.274124 C 302.32801,85.510376 301.99954,65.652882 301.99954,65.652882"
           id="path2066" />
        <path
           style="fill:none;fill-opacity:0.75000000;fill-rule:evenodd;stroke:#808080;stroke-width:1.9655237px;stroke-linecap:butt;stroke-linejoin:miter;stroke-opacity:1.0000000"
           d="M 281.96272,172.57790 C 281.96272,172.57790 282.29120,188.99853 278.02105,193.19914 C 273.75092,197.39979 279.33496,205.03728 279.33496,205.03728"
           id="path2068" />
        <path
           style="fill:none;fill-opacity:0.75000000;fill-rule:evenodd;stroke:#808080;stroke-width:1.9655237px;stroke-linecap:butt;stroke-linejoin:miter;stroke-opacity:1.0000000"
           d="M 255.68493,169.14101 C 255.68493,169.14101 257.32729,161.88541 260.61202,160.35789 C 263.89674,158.83039 263.23979,150.42914 261.59743,144.70101 C 259.95508,138.97290 262.58285,130.18977 262.58285,130.18977"
           id="path2074" />
        <path
           style="fill:none;fill-opacity:0.75000000;fill-rule:evenodd;stroke:#808080;stroke-width:1.9655237px;stroke-linecap:butt;stroke-linejoin:miter;stroke-opacity:1.0000000"
           d="M 216.26824,125.60726 C 216.26824,125.60726 219.22450,128.28038 225.13700,129.04413 C 231.04951,129.80790 236.63353,126.37101 242.21756,123.69789 C 247.80160,121.02475 247.80160,121.02475 247.80160,121.02475"
           id="path2076" />
        <path
           id="path3581"
           d="M 388.76249,434.91541 C 388.76249,434.91541 385.37991,452.36500 395.09347,451.78389 C 404.80701,451.20274 402.78368,452.52625 407.62632,457.73272"
           style="fill:none;fill-opacity:0.75000000;fill-rule:evenodd;stroke:#808080;stroke-width:1.9655237px;stroke-linecap:butt;stroke-linejoin:miter;stroke-opacity:1.0000000" />
        <path
           id="path3583"
           d="M 423.33892,443.78672 C 423.33892,443.78672 415.44818,445.95942 413.78698,437.51005 C 412.12577,429.06068 413.57933,422.30117 411.71048,421.81835 C 409.84160,421.33554 409.84160,421.57695 409.84160,421.57695"
           style="fill:none;fill-opacity:0.75000000;fill-rule:evenodd;stroke:#808080;stroke-width:1.9655237px;stroke-linecap:butt;stroke-linejoin:miter;stroke-opacity:1.0000000" />
        <path
           id="path3599"
           d="M 400.16391,460.47145 C 400.16391,460.47145 397.42741,464.71335 397.79226,468.53106 C 398.15714,472.34874 398.15714,475.95434 398.15714,475.95434 C 390.49490,475.31807 389.21786,458.56261 389.21786,458.56261 C 389.21786,458.56261 383.92726,460.25938 383.56239,463.86498 C 383.19753,467.47057 383.01509,469.80360 383.01509,469.80360 C 383.01509,469.80360 377.54205,461.10775 379.36639,456.86587 C 381.19075,452.62397 381.55561,452.62397 381.55561,452.62397"
           style="fill:none;fill-opacity:0.75000000;fill-rule:evenodd;stroke:#808080;stroke-width:1.9655237px;stroke-linecap:butt;stroke-linejoin:miter;stroke-opacity:1.0000000" />
        <path
           id="path3589"
           d="M 299.23930,316.91077 C 299.23930,316.91077 304.84587,323.42885 302.76936,329.94694 C 300.69285,336.46504 303.59997,346.12146 303.59997,346.12146 C 303.59997,346.12146 302.56171,334.53376 305.26118,333.80951 C 307.96063,333.08529 312.11365,344.91440 311.07540,347.81134 C 310.03715,350.70827 311.07540,362.05457 313.77487,364.46866 C 316.47433,366.88276 317.72024,367.12420 317.72024,367.12420 C 317.72024,367.12420 314.19016,361.81316 315.02077,357.22634 C 315.85136,352.63955 315.85136,352.63955 315.85136,352.63955"
           style="fill:none;fill-opacity:0.75000000;fill-rule:evenodd;stroke:#808080;stroke-width:1.9655237px;stroke-linecap:butt;stroke-linejoin:miter;stroke-opacity:1.0000000" />
        <path
           id="path3591"
           d="M 282.00427,269.35288 C 282.00427,269.35288 288.85675,269.83570 290.51795,279.73352 C 292.17916,289.63137 290.93325,301.46048 288.64909,303.39177 C 286.36492,305.32305 283.04251,304.59882 283.04251,304.59882 C 283.04251,304.59882 285.11904,311.59973 289.89500,310.63408 C 294.67097,309.66845 299.65460,298.32215 299.65460,298.32215"
           style="fill:none;fill-opacity:0.75000000;fill-rule:evenodd;stroke:#808080;stroke-width:1.9655237px;stroke-linecap:butt;stroke-linejoin:miter;stroke-opacity:1.0000000" />
        <path
           id="path3593"
           d="M 320.91193,375.59718 C 320.91193,375.59718 318.76047,386.85281 320.55337,390.18781 C 322.34624,393.52280 321.98767,395.19032 321.98767,395.19032 C 321.98767,395.19032 324.49770,392.27219 323.42198,387.68656 C 322.34624,383.10094 330.59354,386.85281 330.95210,392.68905 C 331.31069,398.52531 331.31069,398.52531 331.31069,398.52531"
           style="fill:none;fill-opacity:0.75000000;fill-rule:evenodd;stroke:#808080;stroke-width:1.9655237px;stroke-linecap:butt;stroke-linejoin:miter;stroke-opacity:1.0000000" />
        <path
           id="path8928"
           d="M 229.47759,413.90060 C 229.47759,413.90060 223.37648,413.54596 220.93604,410.70875 C 218.49559,407.87153 220.32593,393.33079 220.32593,393.33079 C 220.32593,393.33079 210.56413,404.67965 210.25906,407.16222 C 209.95401,409.64478 205.98827,434.47041 222.76638,431.27853"
           style="fill:none;fill-opacity:0.75000000;fill-rule:evenodd;stroke:#808080;stroke-width:1.9655237px;stroke-linecap:butt;stroke-linejoin:miter;stroke-opacity:1.0000000" />
        <path
           id="path8930"
           d="M 202.93771,445.10999 C 202.93771,445.10999 201.41244,439.79020 195.00625,440.14486 C 188.60009,440.49950 187.07479,425.95877 189.82031,420.63899 C 192.56580,415.31920 196.53155,407.51687 196.53155,407.51687"
           style="fill:none;fill-opacity:0.75000000;fill-rule:evenodd;stroke:#808080;stroke-width:1.9655237px;stroke-linecap:butt;stroke-linejoin:miter;stroke-opacity:1.0000000" />
        <path
           id="path8932"
           d="M 163.28041,461.42397 C 163.28041,461.42397 161.75512,455.04023 166.02591,447.23789 C 170.29671,439.43555 176.70288,441.56347 179.75345,436.95298 C 182.80401,432.34249 182.49896,431.63319 182.49896,431.63319"
           style="fill:none;fill-opacity:0.75000000;fill-rule:evenodd;stroke:#808080;stroke-width:1.9655237px;stroke-linecap:butt;stroke-linejoin:miter;stroke-opacity:1.0000000" />
        <path
           id="path18212"
           d="M 127.82353,96.524367 C 127.82353,96.524367 125.31511,105.27314 128.76420,112.92832 C 132.21330,120.58347 142.87416,128.60319 142.87416,128.60319 C 142.87416,128.60319 139.42506,127.87411 139.42506,120.94801 C 139.42506,114.02191 151.02658,116.93815 150.08592,120.94801 C 149.14525,124.95787 145.38259,130.06130 147.26393,133.70662 C 149.14525,137.35194 155.10278,137.71648 155.10278,137.71648 C 155.10278,137.71648 150.71302,134.43570 151.96724,130.79038 C 153.22146,127.14506 160.43321,130.42584 160.43321,130.42584"
           style="fill:none;fill-opacity:0.75000000;fill-rule:evenodd;stroke:#808080;stroke-width:1.9655237px;stroke-linecap:butt;stroke-linejoin:miter;stroke-opacity:1.0000000" />
        <path
           id="path18216"
           d="M 212.07482,321.92710 C 212.07482,321.92710 210.19739,331.20343 217.00308,329.83926 C 223.80877,328.47510 225.92087,324.92827 225.92087,324.92827 C 225.92087,324.92827 223.57409,340.47973 207.85059,338.84273 C 218.17647,352.75722 201.74894,359.03235 201.74894,359.03235 C 201.74894,359.03235 203.15701,358.48670 204.33040,354.66703 C 205.50380,350.84738 199.63683,348.39189 199.63683,348.39189 C 199.63683,348.39189 192.59646,350.57455 193.30049,353.84854 C 194.00455,357.12254 198.46344,355.21271 198.46344,355.21271 C 198.46344,355.21271 182.97461,366.94452 184.61737,353.30287 C 185.79077,349.75606 186.96416,343.75373 184.85206,343.48089"
           style="fill:none;fill-opacity:0.75000000;fill-rule:evenodd;stroke:#808080;stroke-width:1.9655237px;stroke-linecap:butt;stroke-linejoin:miter;stroke-opacity:1.0000000" />
        <path
           style="fill:none;fill-opacity:0.75000000;fill-rule:evenodd;stroke:#808080;stroke-width:1.9655237px;stroke-linecap:butt;stroke-linejoin:miter;stroke-opacity:1.0000000"
           d="M 219.55773,87.555932 C 219.55773,87.555932 214.30762,73.875328 221.18705,62.509874 L 221.54914,58.300465 L 247.98070,51.144442 C 253.59288,55.143386 267.89489,62.299408 270.79150,62.088942 C 273.68810,61.878455 276.58470,60.405170 274.59327,59.142351"
           id="path3692" />
        <path
           style="fill:none;fill-opacity:0.75000000;fill-rule:evenodd;stroke:#ffffff;stroke-width:2.2494140px;stroke-linecap:butt;stroke-linejoin:miter;stroke-opacity:1.0000000"
           d="M 268.45157,35.754551 C 268.45157,35.754551 261.12839,30.931714 262.07333,27.157287 C 263.01824,23.382881 274.82980,16.882502 272.70371,12.059644"
           id="path4452" />
        <path
           style="fill:none;fill-opacity:0.75000000;fill-rule:evenodd;stroke:#ffffff;stroke-width:2.2494140px;stroke-linecap:butt;stroke-linejoin:miter;stroke-opacity:1.0000000"
           d="M 236.32417,26.108834 C 236.32417,26.108834 241.99370,25.479766 248.84439,30.092942 C 248.13570,34.286734 245.06472,38.061139 245.06472,38.061139"
           id="path5212" />
        <path
           style="fill:none;fill-opacity:0.75000000;fill-rule:evenodd;stroke:#ffffff;stroke-width:2.2494140px;stroke-linecap:butt;stroke-linejoin:miter;stroke-opacity:1.0000000"
           d="M 311.56367,25.808743 C 311.56367,25.808743 305.89415,25.179676 299.04345,29.792852 C 299.75214,33.986642 302.82313,37.761048 302.82313,37.761048"
           id="path5972" />
        <path
           style="fill:none;fill-opacity:0.75000000;fill-rule:evenodd;stroke:#000000;stroke-width:1.9655237px;stroke-linecap:butt;stroke-linejoin:miter;stroke-opacity:1.0000000"
           d="M 218.25828,62.640826 L 221.99705,65.964713 L 227.60520,64.430625"
           id="path5974" />
        <path
           id="path8105"
           d="M 384.24318,73.319932 C 384.38673,90.517179 416.40599,122.11496 440.70496,154.90039 L 454.42690,144.19919 L 450.52972,178.28473 C 452.86903,183.50025 453.80481,193.05217 452.84569,198.06000 C 445.47306,236.55622 416.20891,259.32328 419.43878,278.83553 C 412.06265,277.82658 404.70500,283.78326 406.93258,264.04692 C 409.14114,244.48002 454.48596,207.61385 434.28355,171.26002 C 421.92845,149.11979 392.76812,123.93746 380.12668,104.94279 C 367.58980,86.105283 384.09964,56.122686 384.24318,73.319932 z "
           style="fill:#ffffff;fill-opacity:1.0000000;fill-rule:evenodd;stroke:#000000;stroke-width:1.9617000;stroke-linecap:butt;stroke-linejoin:miter;stroke-miterlimit:4.0000000;stroke-opacity:1.0000000" />
        <path
           id="path7329"
           d="M 352.27701,19.247533 C 352.27701,19.247533 341.49067,38.019863 346.26525,46.283041 C 351.03976,54.546228 357.70619,55.358087 357.70619,55.358087 C 343.97948,65.687060 342.60444,86.612322 350.01674,102.65668 C 358.38249,120.76465 370.17247,114.92831 370.17247,114.92831 C 348.09014,92.893168 359.54920,64.648107 380.84450,59.340271 C 402.25536,54.003628 409.83655,80.402984 408.64300,86.944662 C 409.50302,105.30348 384.25708,136.95429 368.61124,171.81666 L 353.46534,164.55662 L 361.20140,196.54954 C 360.08636,201.62724 360.48044,207.59463 360.54896,212.26156 C 367.09050,248.72979 402.53804,262.78655 402.53804,280.69011 C 402.53804,298.60689 346.26317,283.85724 317.23838,269.06464 C 315.82561,269.67776 319.66724,276.93160 324.17399,279.52790 C 327.06544,281.19362 322.02735,284.15013 325.19261,288.42665 C 328.35787,292.70317 330.50155,292.02615 335.48879,293.44956 C 334.52594,298.17442 335.97962,300.96714 338.96853,301.75020 C 352.76824,305.36561 384.59453,311.00618 401.67492,308.79352 C 404.17708,314.51241 401.56982,320.86712 394.78707,326.52492 C 410.53582,329.96810 413.25667,313.65826 413.25667,313.65826 C 413.25667,313.65826 421.61243,326.78193 430.35071,315.72307 C 416.74770,312.06471 421.03858,305.72445 421.03858,305.72445 C 421.03851,305.72446 431.33309,312.42886 432.17276,296.50955 C 426.71942,299.92558 424.55534,301.55891 422.15780,297.21482 C 426.64747,281.66753 416.16162,262.90684 403.60990,251.29780 C 388.88194,237.67592 369.57252,213.41053 376.13762,191.37541 C 382.70249,169.34027 406.64930,131.71098 414.35187,118.39579 C 435.08182,82.560667 425.28577,50.655958 397.48168,41.488167 C 370.09335,32.457505 361.82461,48.864364 355.25959,38.535391 C 348.69456,28.206417 352.27693,19.247533 352.27701,19.247533 z "
           style="fill:#ffffff;fill-opacity:1.0000000;fill-rule:evenodd;stroke:#000000;stroke-width:1.9617000;stroke-linecap:butt;stroke-linejoin:miter;stroke-miterlimit:4.0000000;stroke-opacity:1.0000000" />
        <path
           id="path13419"
           d="M 438.03668,43.372837 C 455.81283,61.346386 451.96143,90.485224 462.30933,50.376963 C 465.81005,73.314936 458.46844,85.875149 450.78741,86.489593 C 447.01863,86.791077 444.27399,82.827509 442.76026,78.748140 C 441.42369,75.146094 437.21692,70.641150 434.91310,78.019087 C 433.27209,66.750706 433.80567,59.783894 425.60098,52.968390 C 409.48791,39.583472 384.72847,52.751370 384.87201,69.948616 C 385.01556,87.145864 398.80442,102.07221 402.87055,106.63100 C 402.87055,106.63100 404.18044,106.35741 394.31921,123.84332 C 393.20453,123.13445 392.04808,123.70244 379.40664,104.70777 C 366.86975,85.870262 366.90556,56.527703 378.08079,43.336820 C 392.09545,26.794253 420.52883,25.670457 438.03668,43.372837 z "
           style="fill:#ffffff;fill-opacity:1.0000000;fill-rule:evenodd;stroke:#000000;stroke-width:2.0113440;stroke-linecap:butt;stroke-linejoin:miter;stroke-miterlimit:4.0000000;stroke-opacity:1.0000000" />
        <path
           style="fill:none;fill-opacity:0.75000000;fill-rule:evenodd;stroke:#808080;stroke-width:1.9617000;stroke-linecap:butt;stroke-linejoin:miter;stroke-miterlimit:4.0000000;stroke-opacity:1.0000000"
           d="M 406.08991,318.95031 C 415.38101,303.85973 406.90967,293.85230 406.90967,293.85230 C 406.90967,293.85230 404.67605,308.05176 373.11354,301.22130"
           id="path1367" />
        <path
           style="fill:none;fill-opacity:0.75000000;fill-rule:evenodd;stroke:#808080;stroke-width:1.9617000;stroke-linecap:butt;stroke-linejoin:miter;stroke-miterlimit:4.0000000;stroke-opacity:1.0000000"
           d="M 417.15721,312.27869 C 406.36312,303.38319 425.21866,291.78727 410.05227,268.59544"
           id="path1369" />
        <path
           style="fill:none;fill-opacity:0.75000000;fill-rule:evenodd;stroke:#808080;stroke-width:1.9617000;stroke-linecap:butt;stroke-linejoin:miter;stroke-miterlimit:4.0000000;stroke-opacity:1.0000000"
           d="M 424.80878,303.38319 C 424.80878,303.38319 417.42430,305.47514 418.65401,293.56153"
           id="path1371" />
        <path
           style="fill:none;fill-opacity:0.75000000;fill-rule:evenodd;stroke:#808080;stroke-width:1.9617000;stroke-linecap:butt;stroke-linejoin:miter;stroke-miterlimit:4.0000000;stroke-opacity:1.0000000"
           d="M 370.84049,221.44719 C 363.20733,194.82479 374.08456,183.95398 370.07717,182.84472 C 366.06978,181.73544 362.25320,186.61622 358.43663,172.41760"
           id="path4405" />
        <path
           style="fill:none;fill-opacity:0.75000000;fill-rule:evenodd;stroke:#808080;stroke-width:1.9617000;stroke-linecap:butt;stroke-linejoin:miter;stroke-miterlimit:4.0000000;stroke-opacity:1.0000000"
           d="M 443.94292,205.95379 C 452.32747,177.15533 435.35348,170.69249 438.91288,168.28158 C 442.47221,165.87067 447.34105,169.25736 447.45729,154.38222"
           id="path4407" />
        <path
           style="fill:none;fill-opacity:0.75000000;fill-rule:evenodd;stroke:#808080;stroke-width:1.9617000;stroke-linecap:butt;stroke-linejoin:miter;stroke-miterlimit:4.0000000;stroke-opacity:1.0000000"
           d="M 429.38771,46.331924 C 439.97481,53.432916 439.97488,64.557805 437.32807,69.765189"
           id="path5167" />
        <path
           style="fill:none;fill-opacity:0.75000000;fill-rule:evenodd;stroke:#808080;stroke-width:1.9617000;stroke-linecap:butt;stroke-linejoin:miter;stroke-miterlimit:4.0000000;stroke-opacity:1.0000000"
           d="M 458.27614,73.670734 C 447.07813,93.553504 442.19185,55.918276 437.71262,69.410145"
           id="path5927" />
        <path
           style="fill:none;fill-opacity:0.75000000;fill-rule:evenodd;stroke:#808080;stroke-width:1.9617000;stroke-linecap:butt;stroke-linejoin:miter;stroke-miterlimit:4.0000000;stroke-opacity:1.0000000"
           d="M 371.23299,50.094114 C 350.71794,52.211011 349.50403,44.307930 349.01847,36.828220"
           id="path5929" />
        <path
           style="fill:none;fill-opacity:0.75000000;fill-rule:evenodd;stroke:#808080;stroke-width:1.9617000;stroke-linecap:butt;stroke-linejoin:miter;stroke-miterlimit:4.0000000;stroke-opacity:1.0000000"
           d="M 356.66609,72.392108 C 363.09981,69.146192 359.45808,51.928758 370.01909,50.235240"
           id="path6689" />
      </g>
    </g>
  </g>
</svg>