<svg role="img" viewBox="0 0 800 1000"
   xmlns="http://www.w3.org/2000/svg"
   version="1.0"
   id="svg2178"><title>Herb Mińsk Mazowiecki</title>
  <metadata
     id="metadata10">
    <rdf:RDF>
      <cc:Work
         rdf:about="">
        <dc:format>image/svg+xml</dc:format>
        <dc:type
           rdf:resource="http://purl.org/dc/dcmitype/StillImage" />
        <dc:title></dc:title>
      </cc:Work>
    </rdf:RDF>
  </metadata>
  <sodipodi:namedview
     pagecolor="#ffffff"
     bordercolor="#666666"
     borderopacity="1"
     objecttolerance="10"
     gridtolerance="10"
     guidetolerance="10"
     id="namedview8"
     showgrid="false" />
  <defs
     id="defs2181" />
  <path
     d="M -4.3829319e-6,3.216656e-7 V 768.86027 C -4.3829319e-6,831.39079 38.557545,909.99999 113.49995,909.99999 H 326.41551 C 370.59779,909.99999 400,1000 400,1000 c 0,0 29.40222,-90.00001 73.58448,-90.00001 h 220.91556 c 74.94232,0 105.49997,-78.60947 105.49997,-141.13999 C 800.00002,515.79018 800,0 800,0 Z"
     style="fill:#008ee0;fill-opacity:1;fill-rule:evenodd;stroke:none;stroke-width:4.98626;stroke-linecap:butt;stroke-linejoin:miter;stroke-miterlimit:4;stroke-dasharray:none;stroke-opacity:1"
     id="path13477" />
  <path
     d="M 605.11425,622.13891 442.39142,515.5 400.14612,709.16587 358.10513,515.5 195.27019,621.59517 298.53811,454.5 110.5,410.72455 298.58388,367.5 195.49282,200.07917 358.21568,306.5 400.46098,113.0522 442.50197,306.5 605.33692,200.6229 502.06899,367.5 690.10709,411.49351 502.02319,454.5 Z"
     style="opacity:0.99;fill:#fff700;fill-opacity:1;fill-rule:nonzero;stroke:none;stroke-width:0.577677;stroke-linecap:round;stroke-linejoin:round;stroke-miterlimit:4;stroke-dasharray:none;stroke-opacity:1"
     id="path2187" />
  <path
     d="M 101.66441,456.448 C 91.265863,488.34211 86.420911,528.94282 86.23281,560 85.651115,656.04289 129.60413,736.46715 191.57163,795 251.43745,851.54766 327.3351,874.56599 400,874.47216 471.30869,874.38008 546.04133,848.77735 605.14604,795 667.04217,738.68282 711.97878,654.12588 712.74268,560 713.01711,526.18563 706.86216,492.12648 694.7667,456.448 690.49668,541.32486 655.08367,612.37918 603.10746,665 547.31355,721.48588 472.5613,756.46447 400.62737,756.40621 321.31964,756.34197 247.52834,723.04445 192.22855,665 144.54166,614.94629 110.30712,547.37016 101.66441,456.448 Z"
     style="fill:#fff700;fill-opacity:1;fill-rule:evenodd;stroke:none;stroke-width:0.201786;stroke-linecap:butt;stroke-linejoin:miter;stroke-miterlimit:4;stroke-dasharray:none;stroke-opacity:1"
     id="path3162" />
</svg>