<svg viewBox="-21.37 -25.37 577.08 685.10"><title>Herb Lubawka</title><path d="M0 96.769C100.105 115.621 156.418 7.539 264.035 0c115.543 6.254 139.73 107.824 270.293 90.488-93.551 176.879-22.035 172.153-16.785 263.926 8.84 134.055-84.504 182.07-101.266 202.34-47.23 39.902-82.512 68.422-96.133 77.594-33.457-37.512-62.894-47.649-102.398-.704C138.41 568.226 32.894 500.5 22.531 414.738-5.414 302.047 99.281 282.359.008 96.773" style="stroke:none;fill-rule:evenodd;fill:#222"/><path d="M498.711 395.336c-8.926 95.058-79.973 129.058-94.68 149.148-43.852 35.883-68.93 59.164-81.574 67.414-32.043-30.777-69.699-40.289-105.27-1.422-73.656-58.828-167.05-131.652-176.14-209.011l11.86-9.86c9.105 8.723 25.32 15.426 39.565 12.95 8.477-.575 15.579-4.52 21.403-12.372 14.965 17.668 36.172 21.395 58.734-1.761 20.113 19.051 43.629 19.304 57.168 4.121 2.477-1.961 4.008-3.418 6.777-5.082l2.922-1.41 4.45 4.117 5.867 4.933c13.121 11.52 26.855 11.887 41.847.02 3.168-2.105 6.758-6.195 10.286-7.145l7.66 6.465c6.363 4.594 13.097 7.196 19.75 7.75 12.367-.691 16.164-3.816 26.187-7.707 12.821 16.172 49.399 11.379 68.528-5.961 2.968 3.301 6.531 6.012 12.757 7.864 14.508 4.945 39.18 4.234 47.313-10.5 4.785 7.961 6.512 10.554 14.562 7.449zm-280.633 38.5c-5.641-1.516-11.301-2.988-16.961-4.461q-31.753 26.52-58.473 0c-9.64 12.207-23.261 17.258-39.812 13.246 14.086 7.168 27.328 3.895 39.711-9.391 20.015 18.461 39.652 14.989 59.031-1.746 5.496 2.848 10.992 2.282 16.504 2.356zm83.641 5.047c14.015-1.356 24.226-7.782 33.324-13.93q28.29 32.203 56.586 3.785c20.957 15.574 39.402 16.84 55.484 3.742-14.152 14.567-30.394 18.34-55.055-1.004-20.394 19.641-39.515 18.36-57.359-3.597-10.355 9.789-21.348 13.594-32.98 11.004m58.636 102.593c-22.164 13.672-41.332 16.668-57.375-1.964-18.652 18.105-39.402 23.953-64.761 1.632-16.766 16.418-37.727 15.997-63.024-.855 20.035 17.996 41.133 23.773 63.082 4.641 21.508 18.66 43.391 20.195 64.902-1.465 20.411 20.195 38.676 13.676 57.176-1.989M240.187 423.883c-10.66 8.461-16.172 16.508-15.273 24.66-42.024-.41-53.16 7.617-67.293 19.324-7.254 5.746-12.527 11.547-16.891 18.152-3.886 3-5.062 5.219-4.699 7.547 1.121 2.512 4.574 1.723 8.945.719-4.832 2.824-4.566 4.777-4.449 6.746 1.508 3.578 6.031 2.492 12.141.598 12.094 8.195 23.136 10.242 34.379 9.039 7.589 7.887 12.402 8.875 17.097 7.523 1.258-.879 2.602-2.136 1.481-5.242 11.23 1.16 22.539 1.063 34.109.86 5.524 5.656 13.078 10.253 23.203 11.124 1.844-.128 2.965-.39 4.641-.523 3.469-.676 6.473-2.441 9.262-5.168 2.254-.137 3.531-.961 3.004-3.172-.856-1.637-3.317-4.113-6.399-5.41 11.492.289 22.117-2.449 33.274-6.945.867 1.746 3.46 4.644 6.183 5.941 2.524 1.59 8.367-.086 14.02.348 7.027-1.266 12.097-6.129 10.636-11.348-.922-2.035-2.578-4.351-5.543-5.023 5.918-.824 10.969-1.258 18.77-.367 8.598 1.105 24.043 8.976 37.773 16.613 2.918 1.062 5.578.551 6.911-1.055 3.105-1.223 4.464-3.473 3.722-7.531-.238-3.61-4.699-10.852-8.363-15.512-4.344-3.926-.918-14.328 3.012-18.465 4.769-4.14 7.632-7.203 5.789-12.199-2.825-3.125-3.098-4.211-5.922-3.906-15.613 2.957-36.938 15.047-51.344 16.109-1.738-.887-4.242-1.687-5.98-1.887 5.351-1.273 10.191-3.156 14.011-6.824 2.524-3.23.391-9.461-3.593-10.426-6.258-1.281-18.571 4.493-29.661 9.583-14.82-5.043-29.765-7.946-46.628-8.2 2.613-3.402 4.187-6.457 9.769-10.269l-40.105-15.391" style="stroke:none;fill-rule:evenodd;fill:#0fb1ee"/><path d="M143.051 484.777c4.418-2.433 9.871-3.683 17.082-1.804 14.992 3.832 29.125 5.589 43.046 6.191 21.317 1.465 44.559-.797 65.215.707-20.199 3.246-42.011 2.418-62.211 2.305-18.265-.496-33.586-2.555-47.769-5.207.094 1.183 1.07 1.925 2.453 2.464 3.559 1.368 8.945 2.391 19.379 2.465 10.133 1.282 23.711 1.161 23.828 6.516 25.484-1.398 76.211.551 98.738-9.805-5.66.535-11.203.598-16.648.274 16.406-6.067 54.914-11.434 38.762-1.367 7.668-1.293 15.824-1.801 24.566-1.368 4.992-5.257 5.773-9.562-4.949-15.902-13.336-5.801-23.723-10.465-37.086-14.379-16.137-3.863-31.809-5.449-46.867-5.383-25.719-.445-63.137-2.175-76.207 4.172 9.668 8.141 12.523 17.477 11.273 29.035-.797 1.266-1.77 1.407-1.734-.004 2.98-11.429-1.832-21.066-10.934-28.605-3.535 1.523-7.41 3.008-11.191 5.027 9.125 5.934 10.355 15.047 8.843 24.301-.402 1.039-1.613.867-1.378-.109 1.261-6.973 2.226-16.176-8.606-23.629-10.234 5.637-19.781 13.238-27.602 24.109zm250.367-32.761a623 623 0 0 0-18.11 6.062c-8.046 3.016-16.058 6.102-24.109 8.918-1.578.512-4.734 1.262-7.492 1.172 5.547 2.969 8.976 5.953 10.14 9.336 1.09 3.179-.757 6.371-2.835 8.621 4.011 1.004 9.648.184 14.878 2.016 5.883 1.011 14.227 5.148 23.477 7.347a4 4 0 0 1-.258-.48l-32.086-10.375c-.129-.227-.261-.5.289-.684l31.508 9.988c-.336-2.82 2.125-6.086.203-8.699-1.949-3.992-1.738-8.472.278-13.07 1.691-2.961 3.585-5.828 6.285-7.781 2.781-2.727 4.254-5.692 2.609-8.926-1.422-1.613-2.687-3.848-4.781-3.438zm-227.727 18.789c2.176 0 3.953 1.945 3.953 4.332 0 2.382-1.773 4.328-3.953 4.328-2.176 0-3.953-1.946-3.953-4.328s1.774-4.332 3.953-4.332m32.512 14.23c-.672.344-.582.727-.137 1.027 6.336-.277 12.668-.449 19.004.188 7.242.551 14.625.867 22.102 2.351 4.761.5 9.355.254 14.125-.394 2.476-.379 5.089-.211 7.797.324 9.812.324 19.683-.012 29.726-2.445 18.082-4.5 32.758-7.227 38.012-5.055.668.434 1.304-.969-.238-1.293-6.524-.551-11.899-1.039-24.129 2.11-10.02 2.738-27.766 6.25-39.399 5.523-5.871-.16-11.57-.812-14.699.027-6.434 1.098-12.641 0-18.844-.984-11.191-1.293-22.359-1.934-33.324-1.383zm159.598-3.926c-.305.258-.52.473-.098.782l28.594 6.074c.55-.188.648-.699.293-.977zm-1.465-2.258c-.856.133-.922.969-.192 1.274l27.715 2.058c.383-.082.586-.671.195-1.074l-27.714-2.254zm.195-3.527c-.195.293-.254.633.098.879l26.64-2.059c.5-.324.317-.835 0-.976l-26.738 2.152zm-.199-3.637 30.844-7.238c.394.11.472.633.097.879l-30.945 7.469c-.535-.262-.742-.988.004-1.11m38.066-16.617c.735.071.922.785.293 1.043l-41.574 14.797c-.695.012-.754-.336-.582-.781l41.867-15.059zm-58.512 13.918c-.738.195-.355.555-.39.879 3.543 1.477 4.441 3.348 2.144 5.684-.132 1.125.465.855 1.067.39 2.137-2.996 1.277-5.933-2.821-6.957zm-13.902-5.426c-.453.489-.094.653.098.879 2.25-.613 2.39 1.313 1.726 5.571 1.649 1.531 2.246 3.207 1.586 4.129q.211 1.011.973.195c.727-2.324-.074-3.039-1.547-4.844 1.227-4.48.066-6.836-2.84-5.933zm-13.273-4.507c-.571.136-.461.777-.075 1.097 2.688 1.016 2.942 3.657 2.223 6.633 2.742 2.137 3.363 3.309.875 5.203-.531.903-.34 1.195.586.883 3.535-2.328 1.938-4.555-.387-6.762 1.024-3.195.012-5.574-3.218-7.054zm-16.504-2.864c-.582.16-1.106.059-.445.848 4.398 1.816 4.734 4.062 1.832 7.473 3.933 1.023 3.339 3.156 1.941 5.609 1.543 2.961 1.156 4.578-.094 5.586.117.574.488.644.973.488 1.047-1.09 1.785-2.504.387-6.172 2.125-4.117.16-5.05-1.559-6.175 2.578-2.473 2.172-4.821-3.035-7.661zm-14.481-2.043c-.738.051-.89.438-.777.977 5.375 3.445 2.656 5.539 1.168 7.84 7.187 3.898 5.516 6.754 1.363 9.308 2.629 4.95 1.418 6.145-.582 6.563q-.883.854.778.976c2.793-1.328 3.363-3.597.683-7.25 5.973-3.125 4.324-6.503-.777-9.996 3.277-3.574 1.097-6.078-1.852-8.425zm-11.957-.582q-1.071.165-.683.879c2.258 2.137 1.836 4.696.195 7.446 2.984 2.191 6.918 4.207 1.266 8.035.16 2.187.324 4.375.484 6.562-.301 2.34-.816 2.637-1.363 2.645-.289-.125-1.035.836.484.781 1.336-.133 1.711-1.77 1.949-3.625-.195-1.926-.386-3.852-.582-5.781 3.825-2.938 4.575-5.746-.875-8.918 1.578-2.676 1.676-5.356-.879-8.035zm-16.297-1.371q-.755.207-.386.977 6.246 4.067 1.265 8.133c2.161 1.941 4.411 3.796 1.071 11.269 1.136 1.992 1.789 4.106.679 6.66q.153.99.879.293c1.489-2.594.918-4.933-.586-7.152 2.36-3.844 3.325-7.606-.679-11.074 3.179-3.227 2.433-6.262-2.243-9.114zm-16.199.488c-.633-.082-.894.11-.777.586 4.719 3.243 5.859 4.262.879 7.602 4.148 1.086 5.887 3.723 4.586 8.766 2.121 2.472 4.468 4.757-.485 6.859-.269.699.02 1.027.879.977 4.867-2.325 3.563-5.704.879-8.426 1.164-5.297-1-7.867-3.805-8.426 4.602-4.426 1.758-6.359-2.144-7.938zm-18.808.774c-.485.59-.621.832-.196 1.355 4.262-.714 5.66.871 2.438 6.172 7.203 3.176 6.555 6.223 2.34 9.211 3.019 3.102 4.73 6.082 1.754 8.625q-.87 1.378.777.781c3.449-4.484 1.476-6.988-1.266-9.21q6.786-5.139-2.144-9.997c3.597-6.121.058-6.515-3.707-6.941zm-15.938.504c-.683.187-.547.703-.293 1.273 5.547.047 6.094 3.106 3.219 8.231q8.772.382 3.512 7.25c4.472 2.929 4.73 5.676.777 8.23-.332.789-.106 1.02.684.684 3.425-2.383 5.007-5.133 0-9.211 3.375-5.078.972-6.985-3.512-7.738 3.015-5.465.824-7.957-4.391-8.723" style="stroke:none;fill-rule:evenodd;fill:#bbbdbe"/><path d="M438.922 395.973c6.129-2.977 12.429-5.188 14.41-12.465 19.148 2.004 23.238-7.332 25.176-18.293-15 4.215-26.071-2.418-35.356-13.989q-5.355 5.914-12.855-1.074-10.982 4.3-13.391-6.453 6.693 2.689 13.391-1.074c10.89 5.019 17.5 2.867 19.82-6.453 10.535 0 17.5-2.688 16.605-11.297-11.062 2.363-22.668 1.848-38.035-18.828-15.285 2.687-13.425-4.184-15-9.145q10.713 9.412 19.285-2.687 17.674 7.26 22.497-11.297c-11.606 2.101-23.04 2.805-33.211-21.52-7.512-.703-10.008-6.445-11.786-12.91 11.625 10.621 15.723 6.121 18.75-.535 11.43-.18 14.469-3.945 10.184-11.297-7.676 1.164-14.828-.805-22.508-9.683q5.088-1.074 8.035-6.454c7.875-.886 9.473-5.554 10.176-10.757q-11.25 2.691-22.5-7.532l6.426-5.379q12.317 3.764 9.641-7.531c-12.34 2.438-18.403-10.894-23.571-25.824-4.461 14.973-12.32 24.836-22.5 31.203q3.481 5.914 9.106 1.074 6.428 6.458 12.855 0-3.21 9.952-12.855 9.145-3.213 12.64-19.285 18.828c5.535 4.176 11.07 4.473 16.605.535 4.465 6.297 8.223 5.563 12.688 3.219-2.668 5.57-5.352 9.531-13.758 6.461-5.532 15.918-15 22.82-26.25 25.824 3.925 10.039 9.285 11.477 16.07 4.305 10.012 6.125 15.008 2.168 19.281-3.227 4.289 3.781 7.324 1.262 10.176-2.148 1.961 7.531-1.781 10.758-11.25 9.683.535 4.661-3.211 6.453-11.25 5.379-.879 16.438-15.48 19.645-34.285 30.129q8.567 10.76 17.141 2.149c4.632 14.586 11.781 9.179 19.281 2.148q8.303 9.411 18.75 1.613c-3.403 6.18-4.141 16.571-18.211 5.918q-1.875 8.337-12.32 3.766c-5.536 16.539-16.067 27.277-31.606 23.133 3.91 9.172 9.258 16.004 24.641 6.453q9.375 14.256 18.75.535 9.375 9.142 14.461 1.074c.488 7.469-.075 13.504-10.711 8.606-5.176 5.918-11.071 6.277-17.676 2.148q-11.784 23.402-32.141 16.68c.203 11.394 5.379 15.883 13.801 15.953-9.977 3.609-10.125 6.363-22.863 7.027v-7.89c3.547.418 4.554-1.907 4.617-3.27-.277-1.219-.227-3.254-4.672-3.094v-2.902c4.031.324 4.797-2.016 5.012-4.102-.918-2.222-1.028-3.144-4.766-3.628v-14.614l1.508-.062v-19.399h-1.516v-9.48h1.586V313.66h-1.586v-11.043h1.563V284.23h-1.504v-10.683h1.477v-18.383h-1.559v-11.719h7.019v-13.66h-2.546l13.859-13.152-24.316-12.918c8.027-22.844-4.286-36.367-18.629-42.992 4.488-13.211-12.133-17.215-15.774-19.18v-21.547c2.16-.813 3.324-2.777 3.324-5.098v-1.019c0-2.317-1.445-5.317-3.718-5.332l-4.231-.031c1.723-5.829-15.285-12.809-18.535-32.723.086-.598-1.977 1.066-4.594-.219-.824 14.918-20.246 29.281-18.359 33.078l-4.684.024c-3.601.015-4.297 3.898-4.043 6.691.192 2.219 1.821 4.324 3.981 4.641v21.836c-12.711 4.347-17.473 10.808-15.395 18.89C209 169 200.582 182.172 206.277 204.281l-20.59 12.902 13.989 12.598h-3.215v13.781l8-.05v11.683h-1.653v18.543h1.411v10.465h-1.379v18.484h1.625v11.024h-1.61v18.984l1.578.008v9.484h-1.613l.039 19.438h1.645v14.582c-7.563-1.606-8.844 9.367-.114 7.926l-.004 2.738c-8.054-1.422-8.011 7.191-.023 6.5v9.352c-8.203-.774-17.68-4.399-30.601-13.172 9.367 3.168 20.144-1.774 19.476-13.317-8.937 3.825-17.879 2.352-26.812-4.41-15.934 12.215-19.008 2.211-22.579-4.414 11.723 3.234 19.211 1.176 23.899-6.18 14.504 4.559 21.394.883 20.66-11.035-10.402 3.383-19.051-1.469-25.934-14.566-4.394 5.004-8.793 6.472-13.187 4.414-4.25 4.855-8.5 5.004-12.746.437 3.457-3.504 6.719-5.043 7.91-8.386 12.746 2.058 19.051-2.352 22.418-9.711 10.695.879 16.703-1.766 18.023-7.946-13.332.735-24.324-5.589-32.968-18.984-12.629 3.59-12.758-2.234-15.387-6.18q16.262 2.428 20.219-5.738c12.527 7.285 17.804 2.43 19.781-7.945-9.816 2.5-20.223-5.59-31.211-24.281-4.742 4.109-13.512 4.777-17.582-3.973 9.387 1.488 17.894 1.5 20.223-8.828 10.839 2.351 16.41 0 16.703-7.063-13.774 1.469-22.274-5.297-25.496-20.308q-7.913 6.397-10.551-3.09 14.064-.88 14.066-8.828c5.34 2.066 9.996-2.129 10.11-4.856-20.571-.801-19.27-16.707-27.254-29.137-3.438 17.883-12.668 26.571-25.496 29.137 2.222 8.449 8.601 5.418 14.504 3.973 4.543 4.687 9.085 2.105 13.625-.442-4.395 7.379-8.79 12.985-13.184 6.18-2.863 14.75-12.57 22.235-23.738 25.164 6.152 7.945 14.203 8.485 20.355-.047 4.543 5.887 7.774 4.461 13.488-2.597 1.317 8.535-3.222 12.359-13.625 11.476-6.007 16.922-17.878 27.371-35.605 31.348 4.148 11.574 13.32 12.914 17.145 6.621q11.427 12.142 17.582 1.32c7.183 2.957 14.07 4.731 18.902-1.765 1.609 7.945-4.395 11.183-18.024 9.711q-1.096 6.175-10.988 5.296c-.254 11.958-7.652 20.567-25.496 24.282 3.66 9.269 10.844 10.89 21.54 4.855 7.476 9.754 12.898 5.028 18.023-1.765 5.238 6.531 13.265 1.992 20.222-2.649 1.246 8.758-3 14.203-19.34 12.359-3.953 7.063-10.109 9.711-21.097 2.645-8.637 12.383-17.864 22.992-31.211 21.191 3.652 14.907 10.398 13.27 17.582 9.27.301 12.109 12.078 12.93 22.418-6.621 9.23 7.387 18.461 3.402 27.695-2.203-.086 9.031-6.105 19.074-26.375 13.242-7.848 11.203-21.805 20.703-42.64 13.242.144 17.809 7.992 19.789 19.86 14.047 2.632 5.895 6.241 8.969 11.206 9.91-14.12 2.461-29.969-4.265-39.777-13.969L41.676 397.5C29.516 302.105 114 279.82 33.223 118.113c103.292 2.168 129.285-91.765 230.871-97.519 106.503 5.765 116.289 81.797 234.136 92.207-76.801 171.437 8.145 183.156-.457 262.91-.316 4.351 1.547 8.574-.984 16.113-7.598 3.797-9.141-4.574-13.43-8.008-8.758 16.387-29.547 17.18-44.402 12.168zM265.703 74.961c-4.348-.383-6.395-2.813-7.801-6.094-2.711-.144-3.824-4.062 0-5.144 1.129-2.848 3.02-4.747 5.832-5.7V33.726c20.402-.734 32.113 5.372 37.278 12.188-4.532-.477-9.098-.977-13.633-.156 3.91 4.203 7.656 8.453 9.457 13.297-9.715-5.719-19.153-9.981-27.821-10.211v9.418c2.821 1.187 4.344 3.242 5.278 5.695 3.203-.012 3.078 4.723.156 4.906-1.992 3.629-4.57 6.184-8.746 6.094zm-4.906 51.23h10.511v6.953h-10.511zM240.59 425.047c-11.129 8.98-14.954 16.418-14.676 23.605 14.34-.148 28.515.547 42.855 1.071 2.567-3.485 5.524-7.25 9.223-10.274-2.066-.726-4.137-1.461-6.203-2.187-1.199 1.652-2.43 3.14-3.856 4.125-1.55 1.851-2.558 3.703-2.765 5.558-.5.672-.895.672-1.172 0 .426-2.586 1.551-4.91 3.773-6.82.977-.656 1.953-1.781 2.934-3.113q-2.18-.966-4.359-1.938-6.248 4.167-7.125 12.043c-.278.895-.672.895-1.172 0q1.172-8.841 7.043-12.633-2.345-.755-4.696-1.515c-4.039 1.879-6.863 6.203-8.218 13.476q-.546.839-1.09 0c.863-5.965 3.152-11.019 8.05-14.066q-1.547-.628-3.101-1.262c-6.27 2.68-10.758 6.856-10.313 15.16q-.375.88-1.089.082c-.161-7.461 2.675-13.004 9.894-15.75-1.535-.531-3.074-1.062-4.609-1.597-6.078 4.32-9.239 10.187-11.071 16.757-.332.618-.668.559-1.003-.168 1.828-7.031 4.988-13.152 11.07-17.265q-2.513-.88-5.031-1.766c-5.504 2.793-9.313 10.363-12.579 19.453q-1.042 1.007-1.089-.336c3.414-10.711 7.683-17 12.664-19.625l-2.262-1.007zm-89.516 59.582c-11.211.047-14.121 6.172-13.828 8.398.332 2.176 8.437.61 16.414-2.918 1.672-.656 4.059-.422 5.23.703-3.742-.363-7.543 1.371-10.429 3.164-5.383 2.454-7.348 3.887-6.856 6.344.696 2.457 4.981 2.574 10.836.215 4.367.535 7.34-2.125 10.227-4.516 1.121 1.961-4.137 4.844-7.801 5.727 6.676 5.609 25.453 9.434 30.863 7.691-5.004-4.457-7.715-6.757-10.269-8.754-.168-.878.39-1.003 1.078-.425 5.301 4.226 9.773 7.523 12.672 10.972 3.996 4.918 11.043 8.032 14.672 5.731.921-.61 1.511-1.223-.235-4.856.614-1.55.766-3.777-1.656-6.796-6.172-5.657-11.672-7.946-18.18-10.899-.269-1.242.121-1.477 1.184-.711 3.39 1.664 5.785 2.574 9.183 4.238 7.77 4.125 11.77 8.911 10.879 14.043 14.918 1.274 29.661 1.149 43.586-.25a378 378 0 0 1 33.625-2.613c14.243-2.086 29.629-8.359 44.211-15.805 5.395-1.226 10.188-1.66 15.254-1.55 2.649-1.914 5.442-3.344 7.711-5.618-8.719-.425-16.855.082-24.508 1.372 16.153-10.063-22.351-4.696-38.761 1.367 5.445.324 10.988.261 16.648-.274-22.527 10.356-73.25 8.403-98.738 9.805-.114-5.352-13.696-5.234-23.828-6.516-10.434-.074-15.821-1.097-19.379-2.465-1.383-.539-2.36-1.277-2.453-2.464 14.183 2.652 29.503 4.707 47.769 5.207 20.199.113 42.008.941 62.211-2.305-20.652-1.508-43.894.754-65.215-.707-13.922-.602-28.055-2.355-43.047-6.191-7.199-1.875-12.648-.629-17.066 1.796l-.227.317c2.762-.867 5.633-1.297 8.395-1.449.644.312.535.949-.16.992zm167.352-26.586c5.699 2.168 10.543 4.277 16.25 7.023 3.945-1.004 8.175-2.59 11.836-4.754 2.546-1.836 4.41-3.418 4.085-5.836-.273-2.917-1.835-4.894-5.269-5.507-3.906.05-7.82 1.023-11.727 2.808-5.164 1.926-10.007 4.055-15.172 6.27zm-59.395 53.48c-6.019.637-11.84.86-18.383 2.09 7.504 6.887 14.328 10.055 21.281 10.363-.925-2.269-3.753-4-7.57-5.488-2-.996-3.816-1.945-5.375-3.055-.144-.515-.015-.859.723-.816 1.578.977 3.129 1.973 5.16 2.727 5.773 2.683 8.148 4.91 8.148 6.816 1.688.168 3.379-.152 5.071-.543-3.981-3.828-8.641-7.148-14.395-9.641-.144-.773.094-1.046.723-.816 5.832 2.649 10.68 6.031 14.848 9.91 1.175-.195 2.124-.738 3.078-1.273-1.293-2.274-3.793-4.051-6.973-5.543-2.488-1.024-4.738-3.031-6.336-4.727zm50.75-9.218q-1.226.614-2.457 1.234c2.234 3.086 4.285 4.969 6.145 5.648 1.667.551 3.402.727 5.199.52 2.238-.375 4.582-.383 6.949-.379 6.113-.82 9.898-3.293 11.352-7.406.937-5.129-3.665-8.321-8.653-8.215a84 84 0 0 0-4.773 2.324c3.308 2.102 6.621 4.211 9.929 6.317q.236.826-.66.898-5.268-3.274-10.543-6.555c-1.039.473-2.078.95-3.117 1.422q5.648 3.276 11.301 6.551c.133.625-.008.973-.754.711q-5.93-3.391-11.867-6.793c-.82.172-1.418.57-1.985.996q5.246 3.276 10.497 6.551c.046.586-.282.851-.993.804-3.609-2.277-7.218-4.558-10.828-6.835-1.328.554-2.422 1.105-3.496 1.66 3.703 2.117 7.406 4.242 11.113 6.363.012.566-.218.82-.707.758q-5.814-3.298-11.632-6.602zm-38.25 8.273c-2.23-.289-4.41.125-6.625.18 1.293.777 3.934 1.761 5.805 2.304 3.414 1.637 4.879 3.481 6.066 5.454 2.309-.098 2.992-.668 2.641-2.106-.711-1.949-3.289-4.109-7.891-5.84zm-8.047.398c-1.086.18-2.043.168-3.043.532 1.25 1.363 3.77 3.164 5.574 3.754 3.133 1.468 5.43 3.066 7.231 5.988.992-.637 1.808-1.496 2.64-2.34-2.187-3.008-3.859-4.305-5.718-4.75-2.434-.59-5.16-1.543-6.684-3.18zm126.231-24.675c3.613 4.894 6.086 8.457 8.293 13.621.679 4.605-.325 7.25-3.024 7.937-2.402 2.293-5.496 1.145-8.683-.488-10.344-5.668-20.688-11.102-31.032-14.406-3.738-1.059-7.48-1.356-11.222-1.367 5.078-3.633 5.781-4.114 6.562-5.204 1.469-.148 9.371-.183 15.285 1.762 5.883 1.012 14.227 5.149 23.477 7.348a4 4 0 0 1-.258-.481l2.453.793c.75-.215.86-.613.238-.918l-2.984-.945c-.144-3.387 1.262-4.668.891-7.637zm-138.274-157.61h31.985v-39.988c-.067-6.734-6.469-12.758-16.145-13.137-9.441.371-15.691 5.34-15.836 14.059v39.062zm-88.043 147.961c-.465-.609-.746.278-.14.985 1.097 1.129 2.683 1.289 4.25.656 1.136-.469.73-1.453.183-1.125-1.406.691-2.828.918-4.293-.516m190.988 13.375c-.445.168-.531.43-.39.782l37.379 15.972q.603-.387.387-.781zm1.981-3.215c-.367.235-2.535-.152-2.402.172l40.73 16.075c.324-.215.512-.52.293-.782l-38.613-15.465zm-173.223 10.25q-.862.562-.09 1c8.055 2.422 14.571 6.293 18.836 12.274.293.465 1.2-.184.723-.817-5.059-6.699-11.793-10.414-19.469-12.457m-1.808 3.184c-.543-.309-1.004.309-.813.906l19.739 15.821c.492.203.925-.418.722-.817l-19.648-15.914zm1.992-.852q-.939.341-.359.817 9.322 6.728 18.652 13.457c.414.605 1.355-.297.359-.906z" style="stroke:none;fill-rule:evenodd;fill:#fff"/><path d="M202.469 377.664h129.89c1.66 0 3.024 1.062 3.024 2.367v.215c0 1.301-1.36 2.367-3.024 2.367h-129.89c-1.661 0-3.024-1.062-3.024-2.367v-.215c0-1.301 1.359-2.367 3.024-2.367m101.351 10.527h28.254c4.012.039 3.695 3.735.047 3.653h-23.512l-4.785-3.653zm-61.398 0h58.683c-2.703.934-4.07 2.258-6.656 3.797h-48.152l-3.871-3.797zm-40.832-.09h33.949c-1.973 1.106-3.227 2.383-5.199 3.836h-28.676c-3.195-.562-2.485-3.769-.07-3.836zm40.949-98.589h7.723c.929-8.313 4.82-14.551 16.898-15.067 14.437.996 17.109 9.403 17.469 15.192h8.797c.992-16.391-10.231-23.172-26.079-23.711-17.359 1.121-25.535 10.761-24.812 23.582zm42.094 1.207h15.316v13.476h-15.316zm-49.184-.063h14.875v13.477h-14.875zm6.898 14.621h7.973v23.328h-7.973zm42.161.125h8.796v23.203h-8.796zm-47.93 24.231h62.504v12.465h-62.504z" style="stroke:none;fill-rule:evenodd;fill:#a38385"/><path d="M264.894 34.683v23.309c1.035-.312 2.071-.164 3.11.047V47.726c8.152.172 16.965 3.043 26.566 9.172-2.391-4.605-5.965-8.027-9.23-11.754 4.492-1.261 8.785-.636 13.132-.543-7.867-6.835-18.73-10.488-33.578-9.918m-5.777 29.211h14.023c-1.347-3.121-3.589-4.875-6.914-4.957-3.422.262-5.793 1.918-7.109 4.957m14.027 5.157c-1.457 2.707-3.625 4.609-7.058 4.808-2.91-.144-5.231-1.75-6.961-4.808h14.023zm-15.367-3.965h16.656c.727 0 1.325.613 1.325 1.363s-.594 1.363-1.325 1.363h-16.656c-.726 0-1.324-.613-1.324-1.363s.594-1.363 1.324-1.363" style="stroke:none;fill-rule:evenodd;fill:#d2b179"/><path d="M242.281 120.777h6.961v20.637h-6.961zm40.871-.215h7.231v20.789h-7.231zm-32.808.215h31.64v20.641h-31.64zm9.281 4.231h12.863v9.191h-12.863zm-61.828 106.258h139.531v10.644H197.797zm8.289 12.207v11.714h12.875v18.348h-13.637v10.57h13.793v18.469h-12.981v11.133h12.844v18.926h-12.859v9.504h12.855v19.519h-12.808v14.488h123.711v-14.566H316.64v-19.445h13.227v-9.418H316.64v-18.981h13.239v-11.129h-13.012v-18.402h13.117v-10.602h-13.348v-18.46h13.196V243.48h-123.75zm29.355 99.757v-14.679h6.039v-23.2h-7.004v-15.597l7.004-.051c-.187-13.758 7.586-24.059 26.176-24.602 17.879.536 27.449 8.336 26.871 24.622l6.625.019.008 15.715h-6.715l-.027 23.254h6.015v14.519h-64.996zm-29.203 40.832h123.684v2.77h-88.399l-1.5-1.328-1.89 1.328h-31.895zm22.285 9.289c-7.176 6.075-14.281 9.958-22.324 9.383v-9.367l22.328-.016zm20.024.016c13.394 12.293 28.504 12.699 43.824.047zm61.851 0h19.492v7.969c-6.578-.723-13.425-3.387-19.492-7.969" style="stroke:none;fill-rule:evenodd;fill:#fdd09e"/><path d="M241.461 142.695c-9.231 3.238-17.61 9.86-14.164 17.875h18.636c-2.902-4.379-1.117-10.609 3.297-17.875zm49.785 0c9.543 3.238 18.207 9.86 14.644 17.875h-18.586c3.204-3.844.907-10.347-4.093-17.875zm-40.731 0h31.368c4.539 7.426 7.695 14.121 3.675 17.852h-37.765c-3.59-3.016-2.239-9.641 2.719-17.852zm-4.57 19.156c-12.383 15.79-12.726 29.95-3.223 41.645h-34.296c-3.008-15.297-2.672-30.047 16.855-41.645zm40.379-.027c12.691 15.785 13.043 29.949 3.301 41.641h34.824c4.707-15.797 2.414-31.465-16.949-41.641h-21.18zm-38.359-.015h36.609c12.691 16.687 12.801 30.332 3.426 41.683h-43.321q-15.357-17.76 3.282-41.683zm-40.243 42.878 35.032-.058-9.594 12.074h-44.492l19.054-12.012zm-6.078 25.032 40.543.058-9.457-11.894h-44.301zm123.047-24.879h-34.656l9.488 11.843h48.074zm9.692 24.937h-44.219l9.41-11.883 47.68-.035-12.875 11.922zm-90.067-24.937h44.192l9.285 11.918h-62.864l9.383-11.918zm-.461 24.879h44.571l9.367-11.91h-63.407l9.461 11.91zm-39.293 26.832h12.926v15.738h-12.926zm-.09 28.73h13.036v16.035h-13.036zm.02 30.008h12.949v16.195h-12.949zm-.051 28.73h13v16.09h-13zm113.594-.214h13.949v16.285h-13.949zm0-28.942h13.883v16.43h-13.883zm.016-29.367h13.953v15.844h-13.953zm0-28.73h13.867v15.527h-13.867zM264.179 76.043c.161.086.336.277.684.258-.078 4.597-1 9.125-2.086 13.629-1.578 5.476-4.996 9.742-8.488 13.441-1.5 1.41-3.219 3.266-4.172 4.977l-3.344.035c-.191-1.203 3.285-5.891 4.641-7.59 3.433-4.492 5.176-5.848 8.156-10.938 2.098-3.656 4.027-8.343 4.609-13.812m3.692.203c-.164-.066-.199.102-.555.082.133 4.605 1.035 9.438 2.403 13.816 1.609 5.493 4.687 9.297 8.253 13.004 1.532 1.414 3.258 3.567 4.231 5.278h3.441c.625-2.289-2.984-5.719-4.367-7.422-3.508-4.508-5.613-5.594-8.656-10.699-2.141-3.668-3.945-8.579-4.754-14.059zm-1.219.23c-.144.09-.726.227-.992-.078-.168 2.887-.219 5.485-.609 8.313-.875 5.547-2.614 9.672-4.672 13.086-1.899 2.82-2.707 3.918-5.309 6.406-.766.637-3.016 3.156-3.211 4.223h28.934c-.715-1.344-1.817-2.703-3.324-4.047-2.672-2.668-4.864-5.551-6.54-8.731-1.726-3.55-2.722-7.25-3.449-10.898-.468-2.859-.613-5.352-.808-8.27zm-26.211 33.473h9.09c-1.91 2.891-2.191 6.285-.836 9.305h-7.344c-4.996-.762-3.82-8.801-.906-9.305zm50.539.067h-8.144c1.906 2.8 2.183 6.089.836 9.015h6.601c4.985-.738 3.613-8.527.703-9.015zm-39.883-.086h30.422c1.489 2.078 1.68 2.492 1.989 4.918.093 1.953-.379 3.562-1.473 4.433h-31.594c-1.293-1.539-1.375-2.887-1.375-4.523.317-2.317.539-3.028 2.031-4.828" style="stroke:none;fill-rule:evenodd;fill:#c8807e"/><path d="M95.293 401.812c-4.313-.711-10.422-5.718-12.883-11.339-11.074 5.468-18.734 4.769-18.594-10.09 19.446 7.105 33.031-2.223 40.356-12.899 18.914 5.555 29.566-2.89 28.109-18.234-11.266 6.172-21.34 9.012-29.902 2.101-9.653 18.629-22.039 19.676-18.965 6.168-6.703 3.809-13.977 9.161-18.226-4.339 12.452 1.711 21.347-8.536 29.406-20.332 10.257 6.73 17.679 3.925 21.367-2.805 15.25 1.754 22.433-5.117 20.008-16.692-6.489 4.422-17.336 8.606-22.227 2.383-4.781 6.473-9.84 11.395-16.82 2.102-9.98 5.746-15.703 6.172-19.125-2.66 16.648-3.539 23.129-10.571 24.406-22.41 6.598-.18 8.98-2.309 10.254-5.938 12.719 1.402 21.285-1.68 17.855-13.414-4.504 6.191-12.418 6.133-20.601 2.277-3.828 6.868-11.52 6.301-16.262-2.152-3.563 5.996-11.53 6.949-15.258-3.188 16.547-2.953 28.985-14.128 34.594-30.253 9.707.839 17.148-5.778 12.836-15.934-5.332 6.727-9.527 9.074-13.766 3.465-7.047 6.941-12.078 9.484-17.824 1.91 10.422-2.789 19.125-9.328 21.801-23.383 3.984 7.824 13.484-4.621 13.375-9.816-4.238 2.426-10.375 4.297-14.613-.172-5.508 1.851-11.344 4.859-12.708-1.168 11.969-2.445 21.059-8.934 24.27-25.977 4.606 12.2 4.695 25.809 23.895 26.575-.106 2.593-3.735 3.386-8.723 1.41 0 5.047-4.375 9.515-14.074 10.078.336 6.027 5.75 10.82 10.675 6.754 3.008 14.301 12.954 20.988 25.809 19.586-5.484 5.902-8.23 5.05-16.894 3.039-1.356 10.82-11.239 11.109-20.77 8.769 1.223 11.723 12.449 14.614 18.426 8.664 10.254 17.809 20.797 25.758 29.961 23.375-3.028 9.77-7.36 10.703-19.055 3.762-2.461 5.184-11.121 7.844-21.242 6.301.316 5.777 5.176 13.832 16.965 10.41 8.066 12.758 19.273 18.551 31.718 17.848-3.957 4.933-7.074 6.148-17.058 5.308-3.145 7.008-10.922 10.504-22.82 8.539-.516 3.184-4.559 7.903-8.145 11.242 3.965 4.348 10.707 5.715 14.672 1.09 4.101 1.961 8.558 1.75 12.66-3.015 6.426 12.476 15.207 16.273 24.918 13.047-1.094 10.523-6.215 11.293-19.758 6.945-4.226 7.887-14.59 10.355-25.699 6.242.516 7.867 6.328 23.141 24.707 9.563 8.34 6.449 17.156 7.968 25.5 4.324-5.578 12.539-12.992 9.754-20.879 9.336-23.187 23.898-41.172 19.992-57.293.347-6.273 8.727-10.449 12.875-18.363 13.227zm342.086-6.816c4.855-3.555 12.75-6.266 14.578-13.336 17.652 1.945 23.023-3.805 24.808-14.457-13.828 4.098-25.207-2.777-33.765-14.023-3.293 3.832-8.203 3.054-12.813-1.473-6.75 2.785-15.668-.266-13.625-9.488 4.114 1.742 9.617.964 13.731-1.473 10.039 4.879 16.449 2.574 18.59-6.488 9.711 0 15.703.597 16.8-7.766-10.199 2.297-24.843 1.152-39.011-18.945-13.594 3.113-14.778-6.305-13.508-12.641 6.902 7.063 14.324 5.551 19.59-2.293 10.863 4.703 16.711 3.403 20.738-8.195-10.699 2.043-23.16 2.512-32.539-21.133-9.242-1.297-12.399-12.117-11.504-17.48 10.715 10.324 16.418 7.664 19.098.011 10.535-.172 12.011-1.047 10.41-6.8-7.078 1.132-20.348-4.317-24.008-13.27 3.125-.695 7.836-3.539 9.648-7.023 7.258-.86 7.665-1.969 8.313-7.028-6.91 1.742-20.016-2.945-22.02-9.89 1.973-1.743 5.977-5.2 7.954-6.942 6.57 2.348 8.55 3.012 9.101-4.105-11.375 2.371-18.246-7.266-23.008-21.778-4.113 14.555-11.25 19.641-20.633 25.829 2.137 3.835 4.188 1.824 7.645-1.309 3.949 4.183 7.898 4.719 13.344-.106 1.437 7.52-6.352 13.594-12.278 13.071-1.972 8.191-7.898 13.222-17.777 17.23 5.102 3.66 9.031 2.223 14.133-1.082 4.113 6.117 10.152 5 14.265 2.719-1.394 7.129-7.078 13.316-14.824 10.332-5.101 15.473-14.785 21.863-25.16 24.781 2.981 8.688 7.813 8.797 14.067 1.824 9.23 5.954 15.113 2.536 18.949-3.566 3.953 3.676 8.207 1.695 10.836-1.625 4.8 9.145-2.098 13.957-10.547 12.91.492 4.531-3.602 6.809-11.008 5.766-.809 15.976-15.445 18.344-32.777 28.535 4.519 6.113 9.894 5.094 15.16-.477 4.207 13.797 9.883 10.024 18.949 2.95 5.102 6.097 11.504 5.98 19.313 1.566-1.11 7.828-5.418 19.645-18.391 9.289-1.149 5.402-6.004 6.727-12.426 3.766-5.105 16.074-15.668 26.726-29.988 22.699 3.605 8.918 9.172 11.914 22.715 3.379 5.758 9.234 12.754 8.879 18.515-.008 5.758 5.926 9.555 6.918 15.493.148 2.949 7.961-.86 18.825-11.59 13.739-4.77 5.754-11.094 6.773-17.188 2.761-7.242 15.165-18.23 21.239-30.742 16.883.187 11.078 7.453 10.66 12.953 11.684 12.992 18.699 47.828 13.367 68.434-5.914 3.195 3.672 7.035 6.683 12.972 8.258" style="stroke:none;fill-rule:evenodd;fill:#39a66d"/></svg>