<!-- Created with Inkscape (http://www.inkscape.org/) -->
<svg role="img" viewBox="0 0 750 875"
   xmlns="http://www.w3.org/2000/svg"
   id="svg2"
   version="1.0"><title>Herb Brańsk</title>
  <metadata
     id="metadata7">
    <rdf:RDF>
      <cc:Work
         rdf:about="">
        <dc:format>image/svg+xml</dc:format>
        <dc:type
           rdf:resource="http://purl.org/dc/dcmitype/StillImage" />
      </cc:Work>
    </rdf:RDF>
  </metadata>
  <defs
     id="defs5" />
  <sodipodi:namedview
     borderopacity="1.0"
     bordercolor="#666666"
     pagecolor="#ffffff"
     id="base" />
  <g
     id="g2004">
    <path
       id="rect3091"
       d="M 18.332485,11.521834 C 15.394364,11.744005 13.076998,14.202145 13.076998,17.199058 L 13.076998,463.94794 C 11.343408,477.91666 10.449254,492.12501 10.449254,506.54334 C 10.449254,702.0228 174.41744,860.67235 376.45179,860.67237 C 565.12721,860.67237 720.60943,722.29976 740.34564,544.79161 C 740.34577,544.7905 740.37796,544.79272 740.37808,544.79161 C 741.65671,543.75263 742.45433,542.16301 742.45432,540.3796 L 742.45432,511.11756 C 742.47428,509.59493 742.45432,508.07052 742.45432,506.54334 C 742.45432,505.01616 742.47428,503.49175 742.45432,501.96912 L 742.45432,17.199058 C 742.45432,14.054756 739.92142,11.521834 736.7771,11.521834 L 18.754222,11.521834 C 18.606829,11.521834 18.476981,11.510908 18.332485,11.521834 z "
       style="opacity:1;fill:#ff0000;fill-opacity:1;fill-rule:nonzero;stroke:#000000;stroke-width:11.03514385;stroke-linecap:round;stroke-linejoin:round;stroke-miterlimit:4;stroke-dasharray:none;stroke-dashoffset:0;stroke-opacity:1" />
    <path
       id="path2412"
       d="M 606.10849,405.16144 C 611.94868,417.85537 618.08705,430.25112 621.53676,445.33554 L 618.85964,483.84781 L 623.33106,508.96237 C 623.95586,517.18262 627.05068,523.55038 632.64055,528.04684 L 641.95006,454.96726 C 638.03668,428.03856 626.56821,416.22004 615.41798,403.76502 L 606.10849,405.16144 z "
       style="fill:#ffffff;fill-opacity:1;fill-rule:evenodd;stroke:#000000;stroke-width:3.61217046;stroke-linecap:butt;stroke-linejoin:miter;stroke-miterlimit:4;stroke-dasharray:none;stroke-opacity:1" />
    <path
       style="fill:#0052e7;fill-opacity:1;fill-rule:evenodd;stroke:#000000;stroke-width:3.98000884;stroke-linecap:butt;stroke-linejoin:miter;stroke-miterlimit:4;stroke-dasharray:none;stroke-opacity:1"
       d="M 342.99297,381.14002 L 433.89835,386.28562 C 426.46477,436.02629 438.52556,485.76698 441.90261,535.50765 C 441.63534,551.16254 445.23771,564.05341 455.62417,572.0985 C 471.25151,585.65898 486.87885,606.87495 502.50619,610.97628 C 500.02696,616.30726 495.52971,615.58419 491.64328,616.69359 C 479.87902,617.88957 470.64811,616.04551 466.48708,608.11761 C 466.73733,601.80298 457.28547,599.64641 447.04819,597.82644 C 438.88623,597.097 434.2501,599.89339 432.18316,605.25896 L 432.18316,613.83494 C 420.74851,613.83494 413.12543,609.26108 409.31388,600.11337 C 385.36484,546.90684 376.58805,536.8417 403.02483,591.53739 C 386.46643,594.03672 375.90081,602.52883 363.57533,609.26108 L 349.85376,569.81157 L 357.28628,602.97203 C 347.94799,592.00588 338.6097,582.87708 329.27141,574.95716 C 323.93992,569.42946 317.69799,562.30571 310.79154,554.56865 C 313.80347,536.57866 302.90197,484.04345 295.19732,467.31903 C 305.83946,443.68697 322.24735,417.71186 333.48324,395.86108 L 342.99297,381.14002 z "
       id="path2470" />
    <path
       id="path2381"
       d="M 337.42574,546.77565 L 315.48891,546.77565 C 294.2157,555.37975 278.27583,567.53941 270.28575,584.99892 C 269.24094,588.5286 272.12823,592.10529 276.26851,590.31694 C 280.22635,585.059 285.1129,579.99905 293.88446,575.36001 L 313.16227,566.38585 C 319.32071,568.0747 326.06218,568.01445 333.10485,567.0506 C 335.60667,565.6103 337.36036,564.17002 338.0905,562.72972 C 339.0143,557.0299 339.15066,551.59257 337.42574,546.77565 z "
       style="fill:#ffffff;fill-opacity:1;fill-rule:evenodd;stroke:#000000;stroke-width:3.67838144;stroke-linecap:butt;stroke-linejoin:miter;stroke-miterlimit:4;stroke-dasharray:none;stroke-opacity:1" />
    <path
       style="fill:#0052e7;fill-opacity:1;fill-rule:evenodd;stroke:#000000;stroke-width:3.98000884;stroke-linecap:butt;stroke-linejoin:miter;stroke-miterlimit:4;stroke-dasharray:none;stroke-opacity:1"
       d="M 334.75974,376.37856 L 302.97174,363.98806 C 291.71622,390.01384 287.57475,417.05592 286.96325,444.60227 C 290.20416,491.19869 293.65562,537.84776 290.96537,582.96141 L 311.54772,580.67448 C 308.44399,551.31467 314.36758,522.24972 304.3969,491.51653 C 301.55771,482.3396 299.6226,473.69481 299.79081,460.0068 C 298.56409,440.7249 305.72866,426.66484 313.5756,417.96886 L 320.31149,408.05647 L 331.95729,389.94801 L 334.75974,376.37856 z "
       id="path2436" />
    <path
       id="path2245"
       d="M 302.83531,356.65598 C 283.11629,318.02434 261.3212,281.33039 225.75233,257.49195 C 205.45994,242.7732 165.23927,241.59454 143.42087,256.50375 C 137.23703,255.06939 129.24582,240.44744 121.19864,232.77937 C 118.00691,239.33961 117.48449,264.61606 118.15987,270.00729 C 111.874,270.77899 105.12749,277.87662 99.68956,286.79954 C 101.09737,293.87727 98.335902,303.45657 104.50725,307.67618 C 100.32197,338.58916 105.97166,345.73435 114.5441,345.81619 L 112.93821,397.20483 C 112.4904,410.08583 124.69747,424.90717 143.85168,423.70211 C 153.09823,423.53843 165.92821,412.70088 166.73569,401.21957 L 169.04202,379.79197 C 168.04025,360.7927 173.87437,360.22738 181.18874,357.8604 C 197.3702,344.37533 189.22643,330.48591 179.58284,315.70566 C 186.84677,327.2501 197.67884,338.79003 187.61231,354.24715 C 198.88009,368.68695 199.62732,386.64659 203.01781,399.60513"
       style="fill:#ffffff;fill-opacity:1;fill-rule:evenodd;stroke:#000000;stroke-width:3.98000884;stroke-linecap:butt;stroke-linejoin:miter;stroke-miterlimit:4;stroke-dasharray:none;stroke-opacity:1" />
    <path
       style="fill:none;fill-opacity:0.75;fill-rule:evenodd;stroke:#000000;stroke-width:1.03812099px;stroke-linecap:butt;stroke-linejoin:miter;stroke-opacity:1"
       d="M 289.02625,331.26383 C 291.65678,332.81765 286.36447,370.13907 284.83045,382.8088"
       id="path2384" />
    <path
       id="path2386"
       d="M 290.73002,334.67135 C 293.36054,336.22517 288.06823,373.54658 286.53421,386.21632"
       style="fill:none;fill-opacity:0.75;fill-rule:evenodd;stroke:#000000;stroke-width:1.03812099px;stroke-linecap:butt;stroke-linejoin:miter;stroke-opacity:1" />
    <path
       style="fill:none;fill-opacity:0.75;fill-rule:evenodd;stroke:#000000;stroke-width:1.03812099px;stroke-linecap:butt;stroke-linejoin:miter;stroke-opacity:1"
       d="M 292.85971,338.07887 C 295.49024,339.63269 291.26278,369.50015 289.72876,382.16989"
       id="path2388" />
    <path
       id="path2390"
       d="M 294.56347,342.1253 C 297.194,343.67912 293.60546,369.28718 292.07143,381.95692"
       style="fill:none;fill-opacity:0.75;fill-rule:evenodd;stroke:#000000;stroke-width:1.03812099px;stroke-linecap:butt;stroke-linejoin:miter;stroke-opacity:1" />
    <path
       id="path1364"
       d="M 99.07004,284.89635 C 98.860807,284.89635 98.651584,284.89635 99.07004,284.89635 z "
       style="fill:none;fill-opacity:0.75;fill-rule:evenodd;stroke:#000000;stroke-width:1.03812099px;stroke-linecap:butt;stroke-linejoin:miter;stroke-opacity:1" />
    <path
       id="path1366"
       d="M 98.726246,287.22734 C 94.435765,272.24496 92.793177,255.81422 97.187024,241.587 C 102.36195,251.4735 109.65765,260.93585 116.64485,270.4599 C 109.0376,272.12654 103.93241,280.93366 98.726246,287.22734 z "
       style="fill:#ffe7de;fill-opacity:1;fill-rule:evenodd;stroke:#000000;stroke-width:2.87649441;stroke-linecap:butt;stroke-linejoin:miter;stroke-miterlimit:4;stroke-dasharray:none;stroke-opacity:1" />
    <path
       id="path2253"
       d="M 136.56685,401.70101 C 134.07752,405.01069 132.39379,408.55056 135.39407,413.42871 C 139.61344,418.02881 143.93571,416.76529 147.70816,415.18786 C 149.99787,409.18922 148.25941,410.42372 143.639,406.61243 C 140.3966,404.79516 141.98366,399.71608 136.56685,401.70101 z "
       style="fill:#000000;fill-opacity:1;fill-rule:evenodd;stroke:#000000;stroke-width:1.03812099px;stroke-linecap:butt;stroke-linejoin:miter;stroke-opacity:1" />
    <path
       id="path2255"
       d="M 121.80676,232.9696 C 121.42236,242.03944 139.00571,261.87322 132.09278,268.10753 C 134.8353,269.83149 143.58992,259.73592 143.4106,257.41744 C 135.04191,252.25537 127.88873,240.1194 121.80676,232.9696 z "
       style="fill:#000200;fill-opacity:1;fill-rule:evenodd;stroke:#000000;stroke-width:1.03812099px;stroke-linecap:butt;stroke-linejoin:miter;stroke-opacity:1" />
    <path
       id="path2257"
       d="M 107.08154,275.94685 C 104.07337,279.21532 101.77316,287.03856 101.3568,292.95739"
       style="fill:none;fill-opacity:0.75;fill-rule:evenodd;stroke:#000000;stroke-width:1.03812099px;stroke-linecap:butt;stroke-linejoin:miter;stroke-opacity:1" />
    <path
       id="path2259"
       d="M 109.81254,274.91734 C 104.44856,277.79156 103.02909,292.62235 101.6131,301.89987"
       style="fill:none;fill-opacity:0.75;fill-rule:evenodd;stroke:#000000;stroke-width:1.03812099px;stroke-linecap:butt;stroke-linejoin:miter;stroke-opacity:1" />
    <path
       id="path2261"
       d="M 112.41646,272.20358 C 105.78132,278.6756 104.77311,294.22096 102.78691,305.27269"
       style="fill:none;fill-opacity:0.75;fill-rule:evenodd;stroke:#000000;stroke-width:1.03812099px;stroke-linecap:butt;stroke-linejoin:miter;stroke-opacity:1" />
    <path
       style="fill:none;fill-opacity:0.75;fill-rule:evenodd;stroke:#000000;stroke-width:1.03812099px;stroke-linecap:butt;stroke-linejoin:miter;stroke-opacity:1"
       d="M 114.48409,271.68667 C 107.71972,276.7372 106.32384,295.38399 104.33763,306.43573"
       id="path2263" />
    <path
       id="path2265"
       d="M 116.29327,270.91131 C 109.14122,277.64179 108.00379,296.41781 106.01758,307.46954"
       style="fill:none;fill-opacity:0.75;fill-rule:evenodd;stroke:#000000;stroke-width:1.03812099px;stroke-linecap:butt;stroke-linejoin:miter;stroke-opacity:1" />
    <path
       style="fill:none;fill-opacity:0.75;fill-rule:evenodd;stroke:#000000;stroke-width:1.03812099px;stroke-linecap:butt;stroke-linejoin:miter;stroke-opacity:1"
       d="M 118.23167,270.13595 C 110.5627,277.38333 108.90838,299.77769 108.34366,310.7002"
       id="path2267" />
    <path
       id="path2269"
       d="M 119.13626,269.23136 C 113.53492,275.57415 110.20064,299.13156 110.15283,309.53716"
       style="fill:none;fill-opacity:0.75;fill-rule:evenodd;stroke:#000000;stroke-width:1.03812099px;stroke-linecap:butt;stroke-linejoin:miter;stroke-opacity:1" />
    <path
       style="fill:none;fill-opacity:0.75;fill-rule:evenodd;stroke:#000000;stroke-width:1.03812099px;stroke-linecap:butt;stroke-linejoin:miter;stroke-opacity:1"
       d="M 119.00702,269.74827 C 114.95641,275.57415 112.78517,296.67626 111.962,306.56495"
       id="path2271" />
    <path
       id="path2273"
       d="M 119.13624,269.10213 C 116.76558,274.4111 114.85279,292.92868 114.02962,302.81738"
       style="fill:none;fill-opacity:0.75;fill-rule:evenodd;stroke:#000000;stroke-width:1.03812099px;stroke-linecap:butt;stroke-linejoin:miter;stroke-opacity:1" />
    <path
       style="fill:none;fill-opacity:0.75;fill-rule:evenodd;stroke:#000000;stroke-width:1.03812099px;stroke-linecap:butt;stroke-linejoin:miter;stroke-opacity:1"
       d="M 118.55256,269.8775 C 120.92322,275.18647 118.18385,280.00602 119.00702,289.89471"
       id="path2275" />
    <path
       id="path2277"
       d="M 118.55256,269.8775 C 118.8556,275.57414 116.76235,287.63039 116.68094,297.26063"
       style="fill:none;fill-opacity:0.75;fill-rule:evenodd;stroke:#000000;stroke-width:1.03812099px;stroke-linecap:butt;stroke-linejoin:miter;stroke-opacity:1" />
    <path
       id="path2279"
       d="M 117.48818,269.4747 C 135.09058,272.60102 134.36078,288.82174 139.41867,300.90842"
       style="fill:none;fill-opacity:0.75;fill-rule:evenodd;stroke:#000000;stroke-width:1.03812099px;stroke-linecap:butt;stroke-linejoin:miter;stroke-opacity:1" />
    <path
       id="path2382"
       d="M 287.53546,328.28226 C 290.16598,329.83607 284.87367,367.15749 283.33965,379.82723"
       style="fill:none;fill-opacity:0.75;fill-rule:evenodd;stroke:#000000;stroke-width:1.03812099px;stroke-linecap:butt;stroke-linejoin:miter;stroke-opacity:1" />
    <path
       style="fill:none;fill-opacity:0.75;fill-rule:evenodd;stroke:#000000;stroke-width:1.03812099px;stroke-linecap:butt;stroke-linejoin:miter;stroke-opacity:1"
       d="M 296.4802,345.74579 C 299.11073,347.2996 295.73514,366.73155 294.20112,379.40128"
       id="path2392" />
    <path
       id="path2378"
       d="M 283.702,322.3191 C 286.33252,323.87292 281.04022,361.19433 279.50619,373.86407"
       style="fill:none;fill-opacity:0.75;fill-rule:evenodd;stroke:#000000;stroke-width:1.03812099px;stroke-linecap:butt;stroke-linejoin:miter;stroke-opacity:1" />
    <path
       style="fill:none;fill-opacity:0.75;fill-rule:evenodd;stroke:#000000;stroke-width:1.03812099px;stroke-linecap:butt;stroke-linejoin:miter;stroke-opacity:1"
       d="M 281.78527,318.91158 C 284.4158,320.4654 279.12349,357.78682 277.58947,370.45655"
       id="path2376" />
    <path
       style="fill:none;fill-opacity:0.75;fill-rule:evenodd;stroke:#000000;stroke-width:1.03812099px;stroke-linecap:butt;stroke-linejoin:miter;stroke-opacity:1"
       d="M 285.83169,325.72662 C 288.46222,327.28044 283.16991,364.60185 281.63589,377.27159"
       id="path2380" />
    <path
       id="path2247"
       d="M 155.09295,318.11449 C 143.56181,317.36976 138.29136,327.02977 143.04873,336.58229 C 152.93909,337.02782 160.94385,329.69959 155.09295,318.11449 z "
       style="fill:#ffffff;fill-opacity:1;fill-rule:evenodd;stroke:#000000;stroke-width:2.14081812;stroke-linecap:butt;stroke-linejoin:miter;stroke-miterlimit:4;stroke-dasharray:none;stroke-opacity:1" />
    <path
       transform="matrix(1.345871,0.000000,0.000000,1.228795,-43.45083,-64.23516)"
       d="M 146.1844 318.34634 A 3.2872155 3.480581 0 1 1  139.60997,318.34634 A 3.2872155 3.480581 0 1 1  146.1844 318.34634 z"
       id="path2249"
       style="opacity:1;fill:#681300;fill-opacity:1;fill-rule:nonzero;stroke:#000000;stroke-width:1.70787406;stroke-linecap:round;stroke-linejoin:round;stroke-miterlimit:4;stroke-dasharray:none;stroke-dashoffset:0;stroke-opacity:1" />
    <path
       id="path2251"
       d="M 141.25793,337.78505 C 134.15314,325.73373 142.42904,314.40568 155.69765,315.57571"
       style="fill:none;fill-opacity:0.75;fill-rule:evenodd;stroke:#000000;stroke-width:2.50865602;stroke-linecap:butt;stroke-linejoin:miter;stroke-miterlimit:4;stroke-dasharray:none;stroke-opacity:1" />
    <path
       id="path2283"
       d="M 161.61065,248.37825 C 164.6658,248.39 176.58281,269.6036 181.66078,281.31213"
       style="fill:none;fill-opacity:0.75;fill-rule:evenodd;stroke:#000000;stroke-width:1.03812099px;stroke-linecap:butt;stroke-linejoin:miter;stroke-opacity:1" />
    <path
       id="path2285"
       d="M 159.42252,249.07955 C 162.98616,250.05359 174.52767,270.11086 179.69637,281.20686"
       style="fill:none;fill-opacity:0.75;fill-rule:evenodd;stroke:#000000;stroke-width:1.03812099px;stroke-linecap:butt;stroke-linejoin:miter;stroke-opacity:1" />
    <path
       id="path2287"
       d="M 157.27747,249.84551 C 161.24264,251.01247 173.1917,271.1882 177.85873,281.35996"
       style="fill:none;fill-opacity:0.75;fill-rule:evenodd;stroke:#000000;stroke-width:1.03812099px;stroke-linecap:butt;stroke-linejoin:miter;stroke-opacity:1" />
    <path
       id="path2289"
       d="M 154.93077,250.7443 C 158.16101,251.19942 171.11677,270.81086 175.61005,281.38026"
       style="fill:none;fill-opacity:0.75;fill-rule:evenodd;stroke:#000000;stroke-width:1.03812099px;stroke-linecap:butt;stroke-linejoin:miter;stroke-opacity:1" />
    <path
       id="path2291"
       d="M 152.4799,251.66338 C 156.85911,252.56618 168.51271,271.11721 173.6187,281.22707"
       style="fill:none;fill-opacity:0.75;fill-rule:evenodd;stroke:#000000;stroke-width:1.03812099px;stroke-linecap:butt;stroke-linejoin:miter;stroke-opacity:1" />
    <path
       id="path2293"
       d="M 150.1822,252.58246 C 155.5576,254.58677 166.16396,270.96403 171.62738,281.38026"
       style="fill:none;fill-opacity:0.75;fill-rule:evenodd;stroke:#000000;stroke-width:1.03812099px;stroke-linecap:butt;stroke-linejoin:miter;stroke-opacity:1" />
    <path
       id="path2295"
       d="M 147.73132,253.80789 C 152.90424,254.5272 164.17262,270.60662 169.32968,281.22709"
       style="fill:none;fill-opacity:0.75;fill-rule:evenodd;stroke:#000000;stroke-width:1.03812099px;stroke-linecap:butt;stroke-linejoin:miter;stroke-opacity:1" />
    <path
       id="path2297"
       d="M 145.12726,254.88015 C 152.47989,255.82752 161.97705,271.32146 167.33834,281.53345"
       style="fill:none;fill-opacity:0.75;fill-rule:evenodd;stroke:#000000;stroke-width:1.03812099px;stroke-linecap:butt;stroke-linejoin:miter;stroke-opacity:1" />
    <path
       style="fill:none;fill-opacity:0.75;fill-rule:evenodd;stroke:#000000;stroke-width:1.03812099px;stroke-linecap:butt;stroke-linejoin:miter;stroke-opacity:1"
       d="M 164.01801,247.60787 C 167.07257,247.66907 178.91743,269.89979 183.80522,281.68899"
       id="path2268" />
    <path
       id="path2270"
       d="M 166.57516,246.91229 C 169.62722,247.05014 180.684,269.33814 185.27435,281.2463"
       style="fill:none;fill-opacity:0.75;fill-rule:evenodd;stroke:#000000;stroke-width:1.03812099px;stroke-linecap:butt;stroke-linejoin:miter;stroke-opacity:1" />
    <path
       style="fill:none;fill-opacity:0.75;fill-rule:evenodd;stroke:#000000;stroke-width:1.03812099px;stroke-linecap:butt;stroke-linejoin:miter;stroke-opacity:1"
       d="M 169.45701,246.45362 C 172.50269,246.6943 183.2612,270.72106 187.44742,282.77723"
       id="path2272" />
    <path
       id="path2274"
       d="M 172.3792,246.15406 C 175.41445,246.50249 185.36414,271.03307 189.12062,283.22997"
       style="fill:none;fill-opacity:0.75;fill-rule:evenodd;stroke:#000000;stroke-width:1.03812099px;stroke-linecap:butt;stroke-linejoin:miter;stroke-opacity:1" />
    <path
       style="fill:none;fill-opacity:0.75;fill-rule:evenodd;stroke:#000000;stroke-width:1.03812099px;stroke-linecap:butt;stroke-linejoin:miter;stroke-opacity:1"
       d="M 175.20079,245.85926 C 178.22071,246.32207 187.44814,271.34787 190.74125,283.67795"
       id="path2276" />
    <path
       id="path2278"
       d="M 177.93502,245.72312 C 180.93356,246.30868 189.50844,271.2068 192.29606,283.66091"
       style="fill:none;fill-opacity:0.75;fill-rule:evenodd;stroke:#000000;stroke-width:1.03812099px;stroke-linecap:butt;stroke-linejoin:miter;stroke-opacity:1" />
    <path
       style="fill:none;fill-opacity:0.75;fill-rule:evenodd;stroke:#000000;stroke-width:1.03812099px;stroke-linecap:butt;stroke-linejoin:miter;stroke-opacity:1"
       d="M 180.64785,245.53295 C 183.62917,246.2007 191.51655,271.32506 193.96084,283.85108"
       id="path2280" />
    <path
       style="fill:none;fill-opacity:0.75;fill-rule:evenodd;stroke:#000000;stroke-width:1.03812099px;stroke-linecap:butt;stroke-linejoin:miter;stroke-opacity:1"
       d="M 186.43569,245.72991 C 189.36347,246.60294 195.4883,274.35861 197.05743,287.02406"
       id="path2284" />
    <path
       id="path2286"
       d="M 189.58476,246.01326 C 192.4797,246.98967 197.38521,275.09978 198.50376,287.81295"
       style="fill:none;fill-opacity:0.75;fill-rule:evenodd;stroke:#000000;stroke-width:1.03812099px;stroke-linecap:butt;stroke-linejoin:miter;stroke-opacity:1" />
    <path
       style="fill:none;fill-opacity:0.75;fill-rule:evenodd;stroke:#000000;stroke-width:1.03812099px;stroke-linecap:butt;stroke-linejoin:miter;stroke-opacity:1"
       d="M 192.22406,245.99632 C 195.07724,247.0888 199.24275,276.62997 199.84713,289.37792"
       id="path2288" />
    <path
       id="path2290"
       d="M 195.26075,246.45889 C 198.06236,247.67752 201.20596,278.41661 201.24124,291.17882"
       style="fill:none;fill-opacity:0.75;fill-rule:evenodd;stroke:#000000;stroke-width:1.03812099px;stroke-linecap:butt;stroke-linejoin:miter;stroke-opacity:1" />
    <path
       style="fill:none;fill-opacity:0.75;fill-rule:evenodd;stroke:#000000;stroke-width:1.03812099px;stroke-linecap:butt;stroke-linejoin:miter;stroke-opacity:1"
       d="M 198.17523,246.66826 C 200.92816,247.99317 202.77382,278.55581 202.32087,291.31004"
       id="path2292" />
    <path
       id="path2294"
       d="M 201.50199,247.36926 C 204.19412,248.81372 204.74363,279.00208 203.73132,291.72414"
       style="fill:none;fill-opacity:0.75;fill-rule:evenodd;stroke:#000000;stroke-width:1.03812099px;stroke-linecap:butt;stroke-linejoin:miter;stroke-opacity:1" />
    <path
       style="fill:none;fill-opacity:0.75;fill-rule:evenodd;stroke:#000000;stroke-width:1.03812099px;stroke-linecap:butt;stroke-linejoin:miter;stroke-opacity:1"
       d="M 204.2319,248.09025 C 206.88203,249.61038 206.5211,279.22221 205.14885,291.91049"
       id="path2296" />
    <path
       id="path2298"
       d="M 206.07489,248.79909 C 208.72503,250.31922 208.36409,279.50575 206.99184,292.19402"
       style="fill:none;fill-opacity:0.75;fill-rule:evenodd;stroke:#000000;stroke-width:1.03812099px;stroke-linecap:butt;stroke-linejoin:miter;stroke-opacity:1" />
    <path
       id="path2302"
       d="M 210.18618,250.07502 C 212.83632,251.59515 212.47539,280.07283 211.10313,292.76111"
       style="fill:none;fill-opacity:0.75;fill-rule:evenodd;stroke:#000000;stroke-width:1.03812099px;stroke-linecap:butt;stroke-linejoin:miter;stroke-opacity:1" />
    <path
       style="fill:none;fill-opacity:0.75;fill-rule:evenodd;stroke:#000000;stroke-width:1.03812099px;stroke-linecap:butt;stroke-linejoin:miter;stroke-opacity:1"
       d="M 212.02918,251.4927 C 214.67932,253.01284 214.31838,281.49052 212.94613,294.1788"
       id="path2304" />
    <path
       id="path2306"
       d="M 214.15571,252.05978 C 216.80584,253.57991 216.44491,283.33351 215.07266,296.02178"
       style="fill:none;fill-opacity:0.75;fill-rule:evenodd;stroke:#000000;stroke-width:1.03812099px;stroke-linecap:butt;stroke-linejoin:miter;stroke-opacity:1" />
    <path
       style="fill:none;fill-opacity:0.75;fill-rule:evenodd;stroke:#000000;stroke-width:1.03812099px;stroke-linecap:butt;stroke-linejoin:miter;stroke-opacity:1"
       d="M 215.85693,252.76862 C 218.50707,254.28875 218.14613,283.75881 216.77388,296.44709"
       id="path2308" />
    <path
       id="path2310"
       d="M 217.69993,254.04453 C 220.35006,255.56466 219.98913,284.04234 218.61688,296.73062"
       style="fill:none;fill-opacity:0.75;fill-rule:evenodd;stroke:#000000;stroke-width:1.03812099px;stroke-linecap:butt;stroke-linejoin:miter;stroke-opacity:1" />
    <path
       style="fill:none;fill-opacity:0.75;fill-rule:evenodd;stroke:#000000;stroke-width:1.03812099px;stroke-linecap:butt;stroke-linejoin:miter;stroke-opacity:1"
       d="M 219.82646,254.89515 C 222.47659,256.41528 221.69035,286.87772 220.3181,299.566"
       id="path2312" />
    <path
       id="path2314"
       d="M 221.81122,255.88753 C 224.46135,257.40766 223.39158,287.01949 222.01933,299.70777"
       style="fill:none;fill-opacity:0.75;fill-rule:evenodd;stroke:#000000;stroke-width:1.03812099px;stroke-linecap:butt;stroke-linejoin:miter;stroke-opacity:1" />
    <path
       style="fill:none;fill-opacity:0.75;fill-rule:evenodd;stroke:#000000;stroke-width:1.03812099px;stroke-linecap:butt;stroke-linejoin:miter;stroke-opacity:1"
       d="M 223.65422,256.59637 C 226.30435,258.1165 225.0928,289.42956 223.72055,302.11784"
       id="path2316" />
    <path
       id="path2318"
       d="M 225.92251,258.01406 C 228.57265,259.53419 227.07756,290.1384 225.70531,302.82668"
       style="fill:none;fill-opacity:0.75;fill-rule:evenodd;stroke:#000000;stroke-width:1.03812099px;stroke-linecap:butt;stroke-linejoin:miter;stroke-opacity:1" />
    <path
       style="fill:none;fill-opacity:0.75;fill-rule:evenodd;stroke:#000000;stroke-width:1.03812099px;stroke-linecap:butt;stroke-linejoin:miter;stroke-opacity:1"
       d="M 228.05143,259.28384 C 230.68195,260.83766 228.37123,294.96452 226.83721,307.63426"
       id="path2320" />
    <path
       style="fill:none;fill-opacity:0.75;fill-rule:evenodd;stroke:#000000;stroke-width:1.03812099px;stroke-linecap:butt;stroke-linejoin:miter;stroke-opacity:1"
       d="M 231.73742,261.83567 C 234.36795,263.38949 231.20534,298.79417 229.67132,311.46391"
       id="path2324" />
    <path
       id="path2326"
       d="M 233.86711,263.32646 C 236.49764,264.88028 233.33504,300.28496 231.80101,312.9547"
       style="fill:none;fill-opacity:0.75;fill-rule:evenodd;stroke:#000000;stroke-width:1.03812099px;stroke-linecap:butt;stroke-linejoin:miter;stroke-opacity:1" />
    <path
       style="fill:none;fill-opacity:0.75;fill-rule:evenodd;stroke:#000000;stroke-width:1.03812099px;stroke-linecap:butt;stroke-linejoin:miter;stroke-opacity:1"
       d="M 236.20978,265.2432 C 238.84031,266.79702 235.25176,301.98873 233.71774,314.65846"
       id="path2328" />
    <path
       id="path2330"
       d="M 238.1265,267.58586 C 240.75703,269.13968 237.16848,304.33139 235.63446,317.00113"
       style="fill:none;fill-opacity:0.75;fill-rule:evenodd;stroke:#000000;stroke-width:1.03812099px;stroke-linecap:butt;stroke-linejoin:miter;stroke-opacity:1" />
    <path
       style="fill:none;fill-opacity:0.75;fill-rule:evenodd;stroke:#000000;stroke-width:1.03812099px;stroke-linecap:butt;stroke-linejoin:miter;stroke-opacity:1"
       d="M 239.83027,269.07666 C 242.46079,270.63048 238.87225,305.82219 237.33823,318.49192"
       id="path2332" />
    <path
       id="path2334"
       d="M 242.17293,270.78042 C 244.80346,272.33424 240.36303,309.65564 238.82901,322.32538"
       style="fill:none;fill-opacity:0.75;fill-rule:evenodd;stroke:#000000;stroke-width:1.03812099px;stroke-linecap:butt;stroke-linejoin:miter;stroke-opacity:1" />
    <path
       style="fill:none;fill-opacity:0.75;fill-rule:evenodd;stroke:#000000;stroke-width:1.03812099px;stroke-linecap:butt;stroke-linejoin:miter;stroke-opacity:1"
       d="M 244.08966,273.54903 C 246.72018,275.10285 242.06679,311.57238 240.53276,324.24212"
       id="path2336" />
    <path
       id="path2338"
       d="M 246.21935,275.46575 C 248.84988,277.01957 243.98351,313.27613 242.44949,325.94587"
       style="fill:none;fill-opacity:0.75;fill-rule:evenodd;stroke:#000000;stroke-width:1.03812099px;stroke-linecap:butt;stroke-linejoin:miter;stroke-opacity:1" />
    <path
       style="fill:none;fill-opacity:0.75;fill-rule:evenodd;stroke:#000000;stroke-width:1.03812099px;stroke-linecap:butt;stroke-linejoin:miter;stroke-opacity:1"
       d="M 248.13608,277.16951 C 250.7666,278.72332 245.90023,315.19286 244.36621,327.86259"
       id="path2340" />
    <path
       id="path2342"
       d="M 250.0528,278.87326 C 252.68333,280.42708 247.81696,317.32255 246.28294,329.99229"
       style="fill:none;fill-opacity:0.75;fill-rule:evenodd;stroke:#000000;stroke-width:1.03812099px;stroke-linecap:butt;stroke-linejoin:miter;stroke-opacity:1" />
    <path
       style="fill:none;fill-opacity:0.75;fill-rule:evenodd;stroke:#000000;stroke-width:1.77297997;stroke-linecap:butt;stroke-linejoin:miter;stroke-miterlimit:4;stroke-dasharray:none;stroke-opacity:1"
       d="M 251.96954,281.00297 C 254.60006,282.55678 248.88181,322.85978 247.34779,335.52951 C 243.8378,316.34841 227.44042,320.30988 229.43526,298.65911"
       id="path2344" />
    <path
       id="path2346"
       d="M 253.88626,282.49376 C 256.51679,284.04758 250.79854,324.35057 249.26451,337.02031"
       style="fill:none;fill-opacity:0.75;fill-rule:evenodd;stroke:#000000;stroke-width:1.03812099px;stroke-linecap:butt;stroke-linejoin:miter;stroke-opacity:1" />
    <path
       style="fill:none;fill-opacity:0.75;fill-rule:evenodd;stroke:#000000;stroke-width:1.03812099px;stroke-linecap:butt;stroke-linejoin:miter;stroke-opacity:1"
       d="M 255.80298,283.55861 C 258.43351,285.11243 252.92823,326.90622 251.39421,339.57595"
       id="path2348" />
    <path
       id="path2350"
       d="M 257.93268,286.32722 C 260.56321,287.88104 255.05793,330.31373 253.5239,342.98347"
       style="fill:none;fill-opacity:0.75;fill-rule:evenodd;stroke:#000000;stroke-width:1.03812099px;stroke-linecap:butt;stroke-linejoin:miter;stroke-opacity:1" />
    <path
       style="fill:none;fill-opacity:0.75;fill-rule:evenodd;stroke:#000000;stroke-width:1.03812099px;stroke-linecap:butt;stroke-linejoin:miter;stroke-opacity:1"
       d="M 259.63644,289.30879 C 262.26697,290.86261 256.76169,333.29531 255.22767,345.96505"
       id="path2352" />
    <path
       id="path2354"
       d="M 261.76614,291.43849 C 264.39666,292.99231 258.89138,335.42501 257.35736,348.09474"
       style="fill:none;fill-opacity:0.75;fill-rule:evenodd;stroke:#000000;stroke-width:1.03812099px;stroke-linecap:butt;stroke-linejoin:miter;stroke-opacity:1" />
    <path
       style="fill:none;fill-opacity:0.75;fill-rule:evenodd;stroke:#000000;stroke-width:1.03812099px;stroke-linecap:butt;stroke-linejoin:miter;stroke-opacity:1"
       d="M 263.68286,293.35521 C 266.31339,294.90903 260.80811,337.34173 259.27409,350.01147"
       id="path2356" />
    <path
       id="path2358"
       d="M 265.81256,296.33679 C 268.44308,297.89061 262.9378,340.32331 261.40378,352.99304"
       style="fill:none;fill-opacity:0.75;fill-rule:evenodd;stroke:#000000;stroke-width:1.03812099px;stroke-linecap:butt;stroke-linejoin:miter;stroke-opacity:1" />
    <path
       style="fill:none;fill-opacity:0.75;fill-rule:evenodd;stroke:#000000;stroke-width:1.03812099px;stroke-linecap:butt;stroke-linejoin:miter;stroke-opacity:1"
       d="M 267.51632,298.25352 C 270.14685,299.80733 264.64157,342.24003 263.10755,354.90977"
       id="path2360" />
    <path
       id="path2362"
       d="M 267.51632,298.25352 C 270.14685,299.80733 264.64157,342.24003 263.10755,354.90977"
       style="fill:none;fill-opacity:0.75;fill-rule:evenodd;stroke:#000000;stroke-width:1.03812099px;stroke-linecap:butt;stroke-linejoin:miter;stroke-opacity:1" />
    <path
       style="fill:none;fill-opacity:0.75;fill-rule:evenodd;stroke:#000000;stroke-width:1.03812099px;stroke-linecap:butt;stroke-linejoin:miter;stroke-opacity:1"
       d="M 269.64602,301.66103 C 272.27654,303.21485 266.77126,345.64755 265.23724,358.31729"
       id="path2364" />
    <path
       id="path2366"
       d="M 271.77571,304.0037 C 274.40624,305.55752 268.90096,347.99021 267.36694,360.65995 C 261.63328,346.41716 246.08394,345.18238 248.85336,322.58986"
       style="fill:none;fill-opacity:0.75;fill-rule:evenodd;stroke:#000000;stroke-width:1.77297997;stroke-linecap:butt;stroke-linejoin:miter;stroke-miterlimit:4;stroke-dasharray:none;stroke-opacity:1" />
    <path
       style="fill:none;fill-opacity:0.75;fill-rule:evenodd;stroke:#000000;stroke-width:1.03812099px;stroke-linecap:butt;stroke-linejoin:miter;stroke-opacity:1"
       d="M 273.69244,307.19825 C 276.32296,308.75206 270.81768,351.18476 269.28366,363.8545"
       id="path2368" />
    <path
       id="path2370"
       d="M 275.82213,309.54091 C 278.45266,311.09473 272.94738,353.52743 271.41336,366.19716"
       style="fill:none;fill-opacity:0.75;fill-rule:evenodd;stroke:#000000;stroke-width:1.03812099px;stroke-linecap:butt;stroke-linejoin:miter;stroke-opacity:1" />
    <path
       style="fill:none;fill-opacity:0.75;fill-rule:evenodd;stroke:#000000;stroke-width:1.03812099px;stroke-linecap:butt;stroke-linejoin:miter;stroke-opacity:1"
       d="M 277.73886,312.52249 C 280.36938,314.07631 275.29004,354.59228 273.75602,367.26202"
       id="path2372" />
    <path
       id="path2374"
       d="M 279.86855,315.50407 C 282.49908,317.05788 277.20677,354.3793 275.67275,367.04904"
       style="fill:none;fill-opacity:0.75;fill-rule:evenodd;stroke:#000000;stroke-width:1.03812099px;stroke-linecap:butt;stroke-linejoin:miter;stroke-opacity:1" />
    <path
       style="fill:none;fill-opacity:0.75;fill-rule:evenodd;stroke:#000000;stroke-width:1.03812099px;stroke-linecap:butt;stroke-linejoin:miter;stroke-opacity:1"
       d="M 116.94906,269.98708 C 132.28238,273.25979 132.28454,288.82174 137.34243,300.90842"
       id="path1465" />
    <path
       id="path1467"
       d="M 115.82437,270.20666 C 130.49891,274.35772 130.20829,288.82174 135.26618,300.90842"
       style="fill:none;fill-opacity:0.75;fill-rule:evenodd;stroke:#000000;stroke-width:1.03812099px;stroke-linecap:butt;stroke-linejoin:miter;stroke-opacity:1" />
    <path
       style="fill:none;fill-opacity:0.75;fill-rule:evenodd;stroke:#000000;stroke-width:1.03812099px;stroke-linecap:butt;stroke-linejoin:miter;stroke-opacity:1"
       d="M 114.69968,270.71904 C 128.42267,275.52887 128.13205,288.82174 133.18994,300.90842"
       id="path1469" />
    <path
       id="path1471"
       d="M 113.94097,271.30461 C 126.56601,275.89485 126.05581,288.82174 131.1137,300.90842"
       style="fill:none;fill-opacity:0.75;fill-rule:evenodd;stroke:#000000;stroke-width:1.03812099px;stroke-linecap:butt;stroke-linejoin:miter;stroke-opacity:1" />
    <path
       style="fill:none;fill-opacity:0.75;fill-rule:evenodd;stroke:#000000;stroke-width:1.03812099px;stroke-linecap:butt;stroke-linejoin:miter;stroke-opacity:1"
       d="M 112.88948,271.45101 C 123.83101,276.70001 121.71048,281.94128 126.76838,294.02796"
       id="path1473" />
    <path
       id="path1475"
       d="M 112.64314,271.89018 C 119.63207,276.8464 120.80538,281.5753 123.59419,290.14856"
       style="fill:none;fill-opacity:0.75;fill-rule:evenodd;stroke:#000000;stroke-width:1.03812099px;stroke-linecap:butt;stroke-linejoin:miter;stroke-opacity:1" />
    <path
       style="fill:none;fill-opacity:0.75;fill-rule:evenodd;stroke:#a0a0a0;stroke-width:1.03812099px;stroke-linecap:butt;stroke-linejoin:miter;stroke-opacity:1"
       d="M 146.68817,256.48542 C 152.97061,258.73232 160.78604,271.24502 166.14734,281.45701"
       id="path2353" />
    <path
       id="path2355"
       d="M 148.61153,255.26235 C 154.43532,257.89146 163.32094,271.85655 168.68223,282.06853"
       style="fill:none;fill-opacity:0.75;fill-rule:evenodd;stroke:#a0a0a0;stroke-width:1.03812099px;stroke-linecap:butt;stroke-linejoin:miter;stroke-opacity:1" />
    <path
       style="fill:none;fill-opacity:0.75;fill-rule:evenodd;stroke:#a0a0a0;stroke-width:1.03812099px;stroke-linecap:butt;stroke-linejoin:miter;stroke-opacity:1"
       d="M 150.98123,254.26861 C 156.34636,257.35636 165.23198,271.24501 170.59328,281.457"
       id="path2357" />
    <path
       id="path2359"
       d="M 153.18887,253.21749 C 158.02844,256.69942 167.30823,271.24501 172.66952,281.457"
       style="fill:none;fill-opacity:0.75;fill-rule:evenodd;stroke:#a0a0a0;stroke-width:1.03812099px;stroke-linecap:butt;stroke-linejoin:miter;stroke-opacity:1" />
    <path
       style="fill:none;fill-opacity:0.75;fill-rule:evenodd;stroke:#a0a0a0;stroke-width:1.03812099px;stroke-linecap:butt;stroke-linejoin:miter;stroke-opacity:1"
       d="M 155.39649,252.44215 C 160.23607,255.92408 169.38447,271.25801 174.74576,281.47"
       id="path2361" />
    <path
       id="path2383"
       d="M 157.73551,251.53541 C 162.44369,255.28012 171.59209,271.40239 176.95339,281.61438"
       style="fill:none;fill-opacity:0.75;fill-rule:evenodd;stroke:#a0a0a0;stroke-width:1.03812099px;stroke-linecap:butt;stroke-linejoin:miter;stroke-opacity:1" />
    <path
       style="fill:none;fill-opacity:0.75;fill-rule:evenodd;stroke:#a0a0a0;stroke-width:1.03812099px;stroke-linecap:butt;stroke-linejoin:miter;stroke-opacity:1"
       d="M 160.20592,250.74707 C 164.9141,254.49178 173.66834,271.40239 179.02963,281.61438"
       id="path2385" />
    <path
       id="path2387"
       d="M 162.54493,250.35291 C 166.99034,254.49178 175.74458,271.40239 181.10587,281.61438"
       style="fill:none;fill-opacity:0.75;fill-rule:evenodd;stroke:#000000;stroke-width:1.03730357;stroke-linecap:butt;stroke-linejoin:miter;stroke-miterlimit:4;stroke-dasharray:none;stroke-opacity:1" />
    <path
       style="fill:none;fill-opacity:0.75;fill-rule:evenodd;stroke:#a0a0a0;stroke-width:1.03812099px;stroke-linecap:butt;stroke-linejoin:miter;stroke-opacity:1"
       d="M 164.88395,249.43319 C 168.93519,253.44068 177.82082,271.40239 183.18211,281.61438"
       id="path2389" />
    <path
       id="path2391"
       d="M 167.35436,249.03902 C 171.4056,253.04651 179.89706,271.00823 184.86419,281.87716"
       style="fill:none;fill-opacity:0.75;fill-rule:evenodd;stroke:#a0a0a0;stroke-width:1.03812099px;stroke-linecap:butt;stroke-linejoin:miter;stroke-opacity:1" />
    <path
       style="fill:none;fill-opacity:0.75;fill-rule:evenodd;stroke:#a0a0a0;stroke-width:1.03812099px;stroke-linecap:butt;stroke-linejoin:miter;stroke-opacity:1"
       d="M 170.07456,248.51346 C 173.60024,252.38957 181.96031,271.00823 186.53327,282.13994"
       id="path2393" />
    <path
       id="path2395"
       d="M 173.07052,248.25068 C 176.07064,252.65235 183.90516,270.35128 188.21535,282.27132"
       style="fill:none;fill-opacity:0.75;fill-rule:evenodd;stroke:#a0a0a0;stroke-width:1.03812099px;stroke-linecap:butt;stroke-linejoin:miter;stroke-opacity:1" />
    <path
       style="fill:none;fill-opacity:0.75;fill-rule:evenodd;stroke:#a0a0a0;stroke-width:1.03812099px;stroke-linecap:butt;stroke-linejoin:miter;stroke-opacity:1"
       d="M 175.67232,247.9879 C 178.54598,252.20404 188.93848,277.93643 189.89742,283.19104"
       id="path2397" />
    <path
       id="path2399"
       d="M 178.40551,247.72512 C 181.40563,252.12679 188.18903,271.4024 191.71089,283.97938"
       style="fill:none;fill-opacity:0.75;fill-rule:evenodd;stroke:#a0a0a0;stroke-width:1.03812099px;stroke-linecap:butt;stroke-linejoin:miter;stroke-opacity:1" />
    <path
       style="fill:none;fill-opacity:0.75;fill-rule:evenodd;stroke:#a0a0a0;stroke-width:1.03812099px;stroke-linecap:butt;stroke-linejoin:miter;stroke-opacity:1"
       d="M 180.9735,247.55215 C 183.8537,252.03319 190.11431,271.48489 193.29538,284.15235"
       id="path2401" />
    <path
       id="path2403"
       d="M 183.70018,247.3459 C 186.42026,251.9259 191.7269,271.84944 194.45841,284.62139"
       style="fill:none;fill-opacity:0.75;fill-rule:evenodd;stroke:#a0a0a0;stroke-width:1.03812099px;stroke-linecap:butt;stroke-linejoin:miter;stroke-opacity:1" />
    <path
       style="fill:none;fill-opacity:0.75;fill-rule:evenodd;stroke:#a0a0a0;stroke-width:1.03812099px;stroke-linecap:butt;stroke-linejoin:miter;stroke-opacity:1"
       d="M 186.41303,247.16814 C 188.97477,251.83855 193.99942,273.12369 196.29221,285.98165"
       id="path2405" />
    <path
       id="path2407"
       d="M 189.30216,247.70587 C 191.66708,252.47895 195.80049,273.95497 197.55556,286.89729"
       style="fill:none;fill-opacity:0.75;fill-rule:evenodd;stroke:#a0a0a0;stroke-width:1.03812099px;stroke-linecap:butt;stroke-linejoin:miter;stroke-opacity:1" />
    <path
       style="fill:none;fill-opacity:0.75;fill-rule:evenodd;stroke:#a0a0a0;stroke-width:1.03812099px;stroke-linecap:butt;stroke-linejoin:miter;stroke-opacity:1"
       d="M 192.10331,248.08616 C 194.29073,252.94316 197.62994,274.55691 198.90689,287.55512"
       id="path2409" />
    <path
       id="path2411"
       d="M 195.06303,248.26553 C 197.03167,253.21524 199.40366,274.95641 200.09965,287.99862"
       style="fill:none;fill-opacity:0.75;fill-rule:evenodd;stroke:#a0a0a0;stroke-width:1.03812099px;stroke-linecap:butt;stroke-linejoin:miter;stroke-opacity:1" />
    <path
       style="fill:none;fill-opacity:0.75;fill-rule:evenodd;stroke:#a0a0a0;stroke-width:1.03812099px;stroke-linecap:butt;stroke-linejoin:miter;stroke-opacity:1"
       d="M 197.6454,248.62315 C 199.48751,253.62133 201.30573,275.4158 201.66977,288.4715"
       id="path2413" />
    <path
       id="path2415"
       d="M 201.14884,249.28755 C 202.70904,254.35051 203.30734,276.19964 202.9417,289.26152"
       style="fill:none;fill-opacity:0.75;fill-rule:evenodd;stroke:#a0a0a0;stroke-width:1.03812099px;stroke-linecap:butt;stroke-linejoin:miter;stroke-opacity:1" />
    <path
       style="fill:none;fill-opacity:0.75;fill-rule:evenodd;stroke:#a0a0a0;stroke-width:1.03812099px;stroke-linecap:butt;stroke-linejoin:miter;stroke-opacity:1"
       d="M 203.63027,249.89531 C 205.08757,254.98884 205.24301,276.84561 204.61277,289.8974"
       id="path2417" />
    <path
       id="path2419"
       d="M 206.13971,250.40462 C 207.48638,255.5285 207.16857,277.38353 206.2559,290.41861"
       style="fill:none;fill-opacity:0.75;fill-rule:evenodd;stroke:#a0a0a0;stroke-width:1.03812099px;stroke-linecap:butt;stroke-linejoin:miter;stroke-opacity:1" />
    <path
       style="fill:none;fill-opacity:0.75;fill-rule:evenodd;stroke:#a0a0a0;stroke-width:1.03812099px;stroke-linecap:butt;stroke-linejoin:miter;stroke-opacity:1"
       d="M 208.11214,251.1313 C 209.45881,256.25519 209.141,278.11021 208.22833,291.14529"
       id="path2421" />
    <path
       id="path2423"
       d="M 210.18838,251.85799 C 211.53506,256.98187 211.21725,278.83689 210.30457,291.87198"
       style="fill:none;fill-opacity:0.75;fill-rule:evenodd;stroke:#a0a0a0;stroke-width:1.03812099px;stroke-linecap:butt;stroke-linejoin:miter;stroke-opacity:1" />
    <path
       style="fill:none;fill-opacity:0.75;fill-rule:evenodd;stroke:#a0a0a0;stroke-width:1.03812099px;stroke-linecap:butt;stroke-linejoin:miter;stroke-opacity:1"
       d="M 212.26463,252.58467 C 213.6113,257.70856 213.29349,279.56358 212.38081,292.59866"
       id="path2425" />
    <path
       id="path2427"
       d="M 214.13324,252.99992 C 215.47992,258.12381 215.1621,279.97883 214.24943,293.01391"
       style="fill:none;fill-opacity:0.75;fill-rule:evenodd;stroke:#a0a0a0;stroke-width:1.03812099px;stroke-linecap:butt;stroke-linejoin:miter;stroke-opacity:1" />
    <path
       style="fill:none;fill-opacity:0.75;fill-rule:evenodd;stroke:#a0a0a0;stroke-width:1.03812099px;stroke-linecap:butt;stroke-linejoin:miter;stroke-opacity:1"
       d="M 216.00186,254.03804 C 217.34853,259.16193 217.03072,281.01695 216.11805,294.05203"
       id="path2430" />
    <path
       id="path2432"
       d="M 217.87048,255.49141 C 219.21715,260.6153 218.89934,282.47032 217.98667,295.5054"
       style="fill:none;fill-opacity:0.75;fill-rule:evenodd;stroke:#a0a0a0;stroke-width:1.03812099px;stroke-linecap:butt;stroke-linejoin:miter;stroke-opacity:1" />
    <path
       style="fill:none;fill-opacity:0.75;fill-rule:evenodd;stroke:#a0a0a0;stroke-width:1.03812099px;stroke-linecap:butt;stroke-linejoin:miter;stroke-opacity:1"
       d="M 219.7391,256.11428 C 221.08577,261.23817 220.76796,283.09319 219.85528,296.12827"
       id="path2434" />
    <path
       id="path2435"
       d="M 266.28145,399.65566 C 266.36614,399.65566 266.45083,399.65566 266.28145,399.65566 z "
       style="fill:none;fill-opacity:0.75;fill-rule:evenodd;stroke:#000000;stroke-width:1.03812099px;stroke-linecap:butt;stroke-linejoin:miter;stroke-opacity:1" />
    <path
       id="path2394"
       d="M 298.60989,351.07003 C 301.24042,352.62385 296.37405,376.31518 296.54379,376.4197"
       style="fill:none;fill-opacity:0.75;fill-rule:evenodd;stroke:#000000;stroke-width:1.03812099px;stroke-linecap:butt;stroke-linejoin:miter;stroke-opacity:1" />
    <path
       id="path2446"
       d="M 454.48071,581.63076 C 466.26657,594.64989 477.14876,607.56379 494.9903,615.64371"
       style="fill:none;fill-opacity:0.75;fill-rule:evenodd;stroke:#000000;stroke-width:3.24433255;stroke-linecap:round;stroke-linejoin:miter;stroke-miterlimit:4;stroke-dasharray:none;stroke-opacity:1" />
    <path
       id="path2371"
       d="M 368.40261,360.68797 L 308.78037,417.32911 L 342.16883,446.54401 C 366.31263,429.48435 385.88951,410.90239 405.36841,392.28776 L 368.40261,360.68797 z "
       style="fill:#ffffff;fill-opacity:1;fill-rule:evenodd;stroke:#000000;stroke-width:2.94270539;stroke-linecap:butt;stroke-linejoin:round;stroke-miterlimit:4;stroke-dasharray:none;stroke-opacity:1" />
    <path
       id="path2365"
       d="M 315.1692,405.79805 C 319.61092,401.061 325.20366,396.13211 333.01025,390.83425 L 369.875,394.79284 C 357.40125,409.67408 339.53141,419.78968 315.1692,405.79805 z "
       style="fill:#ffffff;fill-opacity:1;fill-rule:evenodd;stroke:#000000;stroke-width:3.67838144;stroke-linecap:butt;stroke-linejoin:miter;stroke-miterlimit:4;stroke-dasharray:none;stroke-opacity:1" />
    <path
       id="path1308"
       d="M 280.43606,98.657707 L 557.31354,103.05966 C 579.79247,103.80648 594.65306,107.60064 608.50253,111.79924 C 596.38086,118.66197 578.16821,120.6519 557.32678,120.53883 L 280.02676,123.10016 L 280.43606,98.657707 z "
       style="fill:#dedede;fill-opacity:1;fill-rule:evenodd;stroke:#000000;stroke-width:1.4713527;stroke-linecap:butt;stroke-linejoin:miter;stroke-miterlimit:4;stroke-dasharray:none;stroke-opacity:1" />
    <path
       id="path2186"
       d="M 280.04235,109.58953 L 557.05248,112.11137 L 279.97527,112.69752 L 280.04235,109.58953 z "
       style="fill:#4a4c4a;fill-opacity:1;fill-rule:evenodd;stroke:#000000;stroke-width:1.03812099px;stroke-linecap:butt;stroke-linejoin:miter;stroke-opacity:1" />
    <rect
       ry="0.95487827"
       y="105.9819"
       x="231.50957"
       height="9.4713764"
       width="44.886086"
       id="rect2191"
       style="opacity:1;fill:#dedede;fill-opacity:1;fill-rule:nonzero;stroke:#000000;stroke-width:1.4713527;stroke-linecap:round;stroke-linejoin:round;stroke-miterlimit:4;stroke-dasharray:none;stroke-dashoffset:1.85598424;stroke-opacity:1" />
    <path
       id="rect2188"
       d="M 275.90926,81.27396 L 281.61778,81.27396 C 282.14678,81.27396 282.57266,81.699837 282.57266,82.228839 C 280.60357,101.35861 280.69878,120.48836 282.57266,139.61813 C 282.57266,140.14714 282.14678,140.57302 281.61778,140.57302 L 275.90926,140.57302 C 275.38025,140.57302 274.95438,140.14714 274.95438,139.61813 C 276.68125,120.48836 276.52026,101.35861 274.95438,82.228839 C 274.95438,81.699837 275.38025,81.27396 275.90926,81.27396 z "
       style="fill:#dedede;fill-opacity:1;fill-rule:nonzero;stroke:#000000;stroke-width:1.4713527;stroke-linecap:round;stroke-linejoin:round;stroke-miterlimit:4;stroke-dashoffset:1.85598424;stroke-opacity:1" />
    <path
       transform="matrix(1.038121,0.000000,0.000000,1.038121,0.490340,-5.592283)"
       d="M 223.92429 112.03884 A 8.1318827 8.3302212 0 1 1  207.66052,112.03884 A 8.1318827 8.3302212 0 1 1  223.92429 112.03884 z"
       id="path2193"
       style="opacity:1;fill:#dedede;fill-opacity:1;fill-rule:nonzero;stroke:#000000;stroke-width:2.83464575;stroke-linecap:round;stroke-linejoin:round;stroke-miterlimit:4;stroke-dasharray:none;stroke-dashoffset:1.85598424;stroke-opacity:1" />
    <path
       id="path2225"
       d="M 327.86019,223.45607 L 330.70604,234.83947 C 344.39257,231.50493 353.21772,223.5166 359.16454,212.07267 L 339.81276,209.79599 L 327.86019,223.45607 z "
       style="fill:#ff7b42;fill-opacity:1;fill-rule:evenodd;stroke:#000000;stroke-width:1.77297997;stroke-linecap:butt;stroke-linejoin:miter;stroke-miterlimit:4;stroke-dasharray:none;stroke-opacity:1" />
    <path
       id="path2250"
       d="M 300.0021,254.32792 C 310.40591,258.35183 322.77944,258.10855 330.8558,258.3116 L 333.37327,235.06209 L 326.14858,218.89256 L 313.07534,218.54853 L 300.0021,254.32792 z "
       style="fill:#fffff7;fill-opacity:1;fill-rule:evenodd;stroke:#000000;stroke-width:2.94270539;stroke-linecap:butt;stroke-linejoin:round;stroke-miterlimit:4;stroke-dasharray:none;stroke-opacity:1" />
    <path
       id="path2248"
       d="M 288.99305,215.10819 L 274.19964,247.10323 C 279.68592,253.7467 291.71368,254.87758 299.65806,254.67195 L 312.38728,219.92466 C 304.70388,217.28108 296.67645,213.18473 288.99305,215.10819 z "
       style="fill:#fffff7;fill-opacity:1;fill-rule:evenodd;stroke:#000000;stroke-width:3.67838144;stroke-linecap:butt;stroke-linejoin:round;stroke-miterlimit:4;stroke-dasharray:none;stroke-opacity:1" />
    <path
       id="path2202"
       d="M 296.57382,171.86974 L 308.92778,171.86974 L 309.05916,163.99256 L 335.54567,164.42203 L 335.69472,200.28387 C 335.23371,210.56366 340.88984,212.97857 348.04868,213.46143 L 376.46281,213.04963 C 377.22773,197.15608 377.85419,181.33175 376.46281,166.51634 C 371.34815,148.87017 360.39275,135.60453 337.75371,131.10164 C 319.23742,136.19516 304.94583,145.51337 297.39741,161.57476 C 296.55218,165.00642 295.94019,168.43808 296.57382,171.86974 z "
       style="fill:#ffffff;fill-opacity:1;fill-rule:evenodd;stroke:#000000;stroke-width:3.98000884;stroke-linecap:butt;stroke-linejoin:round;stroke-miterlimit:4;stroke-dasharray:none;stroke-opacity:1" />
    <path
       id="path2204"
       d="M 314.39489,164.02236 L 341.03486,162.62027 C 351.87099,163.72358 358.09933,169.03092 360.94472,175.2392"
       style="fill:none;fill-opacity:0.75;fill-rule:evenodd;stroke:#000000;stroke-width:4.71568489;stroke-linecap:round;stroke-linejoin:miter;stroke-miterlimit:4;stroke-dasharray:none;stroke-opacity:1" />
    <path
       id="path2206"
       d="M 340.1936,212.53516 C 336.90411,225.60392 323.44354,223.87836 312.43194,225.71493 C 309.91767,225.3595 306.90571,226.76228 306.45139,223.66027 C 306.5446,219.95364 308.02205,217.41984 306.45139,213.71322 C 304.71693,209.83573 312.29035,211.71093 317.55545,210.94434 C 312.14927,208.71101 304.02702,211.65532 306.73181,208.23187 L 308.50605,200.75749 C 306.28345,199.87515 304.40016,200.35008 302.93626,202.50253 C 298.91895,204.17668 299.2653,199.76069 301.50079,196.26023 C 303.08467,191.2148 305.7641,186.60759 310.46899,182.81056 C 311.58344,178.43679 307.98397,176.74608 307.66479,173.83709 C 306.91556,170.65935 305.99035,167.52561 307.66479,163.74195 L 336.54812,162.90068 L 336.2677,205.24422 L 340.1936,212.53516 z "
       style="fill:#ff7b42;fill-opacity:1;fill-rule:evenodd;stroke:#000000;stroke-width:3.3105433;stroke-linecap:butt;stroke-linejoin:miter;stroke-miterlimit:4;stroke-dasharray:none;stroke-opacity:1" />
    <path
       id="path2208"
       d="M 308.06249,202.12275 C 318.44253,200.12128 320.70558,211.6481 325.42,212.20888 C 318.69592,214.0326 316.89762,207.39765 306.65511,209.15958 C 305.59595,206.08893 306.67208,203.96863 308.06249,202.12275 z "
       style="fill:#100000;fill-opacity:1;fill-rule:evenodd;stroke:#000000;stroke-width:1.03812099px;stroke-linecap:butt;stroke-linejoin:miter;stroke-opacity:1" />
    <path
       id="path2210"
       d="M 310.64266,176.32103 C 311.39677,174.2743 313.73213,173.13546 316.9758,172.3335 C 322.81526,173.66268 323.13463,176.86834 324.95089,178.43208 C 319.98801,177.21016 316.2144,174.49861 310.64266,176.32103 z "
       style="fill:#010000;fill-opacity:1;fill-rule:evenodd;stroke:#000000;stroke-width:1.03812099px;stroke-linecap:butt;stroke-linejoin:miter;stroke-opacity:1" />
    <path
       id="path2212"
       d="M 312.75371,181.24681 C 314.47383,185.11087 318.53954,183.08383 322.37071,180.54313 C 318.53954,178.6328 313.30102,177.17142 312.75371,181.24681 z "
       style="fill:#ffffff;fill-opacity:1;fill-rule:evenodd;stroke:#000000;stroke-width:1.40514171;stroke-linecap:butt;stroke-linejoin:miter;stroke-miterlimit:4;stroke-dasharray:none;stroke-opacity:1" />
    <path
       transform="matrix(1.038121,0.000000,0.000000,1.038121,31.04587,-11.92543)"
       d="M 274.97835 185.51387 A 0.7908169 1.0167646 0 1 1  273.39671,185.51387 A 0.7908169 1.0167646 0 1 1  274.97835 185.51387 z"
       id="path2214"
       style="opacity:1;fill:#010000;fill-opacity:1;fill-rule:nonzero;stroke:#000000;stroke-width:0.6448819;stroke-linecap:round;stroke-linejoin:round;stroke-miterlimit:4;stroke-dasharray:none;stroke-dashoffset:1.85598424;stroke-opacity:1" />
    <path
       id="path2227"
       d="M 235.65464,115.31377 C 235.41025,123.97351 236.19297,133.54263 241.91552,139.21891 L 260.82172,139.34251 C 267.22308,135.95762 272.30057,131.24671 275.73153,122.81216 L 276.1649,102.07484 C 274.15662,100.68117 271.32484,101.69841 270.56019,106.31844 C 270.39709,110.74165 269.99459,118.60523 266.38983,119.29795 C 261.32604,120.85392 259.53447,123.54996 256.73835,126.52321 C 257.32896,120.44475 269.16287,118.74161 268.30791,115.19017 L 235.65464,115.31377 z "
       style="fill:#ff7b42;fill-opacity:1;fill-rule:evenodd;stroke:#000000;stroke-width:2.94270539;stroke-linecap:butt;stroke-linejoin:round;stroke-miterlimit:4;stroke-dasharray:none;stroke-opacity:1" />
    <rect
       rx="3.2601316"
       ry="5.3960004"
       y="98.142326"
       x="235.47554"
       height="20.322685"
       width="7.5164156"
       id="rect2229"
       style="opacity:1;fill:#ff7b42;fill-opacity:1;fill-rule:nonzero;stroke:#000000;stroke-width:2.94270539;stroke-linecap:round;stroke-linejoin:round;stroke-miterlimit:4;stroke-dasharray:none;stroke-dashoffset:1.85598424;stroke-opacity:1" />
    <rect
       style="opacity:1;fill:#ff7b42;fill-opacity:1;fill-rule:nonzero;stroke:#000000;stroke-width:2.94270539;stroke-linecap:round;stroke-linejoin:round;stroke-miterlimit:4;stroke-dasharray:none;stroke-dashoffset:1.85598424;stroke-opacity:1"
       id="rect2231"
       width="8.1029959"
       height="21.620962"
       x="242.92274"
       y="96.379265"
       ry="5.7407141"
       rx="3.5145521" />
    <rect
       rx="3.5145521"
       ry="5.9707251"
       y="95.723343"
       x="251.17336"
       height="22.48724"
       width="8.1029959"
       id="rect2233"
       style="opacity:1;fill:#ff7b42;fill-opacity:1;fill-rule:nonzero;stroke:#000000;stroke-width:2.94270539;stroke-linecap:round;stroke-linejoin:round;stroke-miterlimit:4;stroke-dasharray:none;stroke-dashoffset:1.85598424;stroke-opacity:1" />
    <rect
       style="opacity:1;fill:#ff7b42;fill-opacity:1;fill-rule:nonzero;stroke:#000000;stroke-width:2.94270539;stroke-linecap:round;stroke-linejoin:round;stroke-miterlimit:4;stroke-dasharray:none;stroke-dashoffset:1.85598424;stroke-opacity:1"
       id="rect2235"
       width="8.1029959"
       height="20.754181"
       x="259.55811"
       y="97.48101"
       ry="5.51057"
       rx="3.5145521" />
    <path
       id="rect2237"
       d="M 238.42025,138.73294 L 263.53463,139.07697 C 264.80845,144.58149 264.09558,149.39795 263.1906,155.2465 L 237.73218,155.59054 C 236.78074,150.54473 236.54595,144.12278 238.42025,138.73294 z "
       style="fill:#fffff7;fill-opacity:1;fill-rule:nonzero;stroke:#000000;stroke-width:2.94270539;stroke-linecap:round;stroke-linejoin:round;stroke-miterlimit:4;stroke-dasharray:none;stroke-dashoffset:1.85598424;stroke-opacity:1" />
    <path
       style="fill:#fffff7;fill-opacity:1;fill-rule:nonzero;stroke:#000000;stroke-width:3.67838144;stroke-linecap:round;stroke-linejoin:round;stroke-miterlimit:4;stroke-dasharray:none;stroke-dashoffset:1.85598424;stroke-opacity:1"
       d="M 237.25899,155.57885 L 263.45945,155.65656 C 265.32433,162.06039 266.53742,170.02897 265.45693,177.19858 L 235.06136,176.93225 C 233.92539,170.74671 235.02121,162.18612 237.25899,155.57885 z "
       id="path2240" />
    <path
       id="path2242"
       d="M 233.91789,176.95804 L 266.08058,177.40093 C 268.15725,183.98162 268.82004,190.74664 267.61684,198.11426 L 232.23688,198.90117 C 230.97191,192.5448 231.42597,183.74779 233.91789,176.95804 z "
       style="fill:#fffff7;fill-opacity:1;fill-rule:nonzero;stroke:#000000;stroke-width:3.67838144;stroke-linecap:round;stroke-linejoin:round;stroke-miterlimit:4;stroke-dasharray:none;stroke-dashoffset:1.85598424;stroke-opacity:1" />
    <path
       id="path2244"
       d="M 231.19557,199.28269 C 228.75007,202.07222 227.95539,220.06854 228.09927,229.55757 C 229.1638,235.74224 232.54245,239.99848 239.10832,241.59871 L 269.72722,210.29174 C 271.08694,206.27803 270.4813,201.57624 268.69512,198.59463 L 231.19557,199.28269 z "
       style="fill:#fffff7;fill-opacity:1;fill-rule:evenodd;stroke:#000000;stroke-width:4.04621983;stroke-linecap:butt;stroke-linejoin:round;stroke-miterlimit:4;stroke-dasharray:none;stroke-opacity:1" />
    <path
       id="path2246"
       d="M 268.35109,210.63577 L 240.14041,240.22258 C 250.22596,246.42732 261.40676,246.65718 274.19964,247.44726 L 289.33709,215.45223 C 282.1124,213.85594 275.57577,210.48792 268.35109,210.63577 z "
       style="fill:#fffff7;fill-opacity:1;fill-rule:evenodd;stroke:#000000;stroke-width:3.67838144;stroke-linecap:butt;stroke-linejoin:round;stroke-miterlimit:4;stroke-dasharray:none;stroke-opacity:1" />
    <path
       id="path2252"
       d="M 329.81256,246.92032 C 344.89147,243.45395 362.97513,232.38234 370.93642,215.25871 L 357.36509,215.14705 C 352.92274,223.60547 343.87383,231.28999 332.76829,234.55998 L 329.81256,246.92032 z "
       style="fill:#fffff7;fill-opacity:1;fill-rule:evenodd;stroke:#000000;stroke-width:3.67838144;stroke-linecap:butt;stroke-linejoin:miter;stroke-miterlimit:4;stroke-dasharray:none;stroke-opacity:1" />
    <path
       id="path2254"
       d="M 332.07095,243.81259 C 346.07979,239.27661 359.5109,230.27853 366.87418,216.99701"
       style="fill:none;fill-opacity:0.75;fill-rule:evenodd;stroke:#000000;stroke-width:2.14081812;stroke-linecap:butt;stroke-linejoin:miter;stroke-miterlimit:4;stroke-dasharray:2.14081803 2.14081803 ;stroke-dashoffset:0;stroke-opacity:1" />
    <path
       id="path2256"
       d="M 334.60603,245.71033 C 349.77119,240.51196 360.75787,233.01293 369.34652,218.70864 C 378.34845,217.63592 385.0682,219.00691 394.07012,219.84973 C 377.22151,247.56183 357.14061,259.10398 328.26734,267.39509 C 330.43421,259.78783 331.47734,253.31759 334.60603,245.71033 z "
       style="fill:#fffff7;fill-opacity:1;fill-rule:evenodd;stroke:#000000;stroke-width:2.94270539;stroke-linecap:butt;stroke-linejoin:round;stroke-miterlimit:4;stroke-dasharray:none;stroke-opacity:1" />
    <path
       style="fill:none;fill-opacity:0.75;fill-rule:evenodd;stroke:#000000;stroke-width:2.14081812;stroke-linecap:butt;stroke-linejoin:miter;stroke-miterlimit:4;stroke-dasharray:2.14081803 2.14081803 ;stroke-dashoffset:0;stroke-opacity:1"
       d="M 331.89068,263.28134 C 355.42118,258.145 380.7123,239.72447 389.58772,221.3234"
       id="path2258" />
    <path
       id="path2260"
       d="M 394.16331,222.34625 C 415.19353,222.7163 434.9956,257.37147 440.22458,263.33119 C 420.00936,291.35118 374.18998,329.03595 340.12724,329.84473 C 322.31643,329.5011 317.86401,307.76816 320.85513,295.74846 L 329.92585,267.50882 C 356.23358,258.39886 378.31905,244.16186 394.16331,222.34625 z "
       style="fill:#fffff7;fill-opacity:1;fill-rule:evenodd;stroke:#000000;stroke-width:2.94270539;stroke-linecap:butt;stroke-linejoin:miter;stroke-miterlimit:4;stroke-dasharray:none;stroke-opacity:1" />
    <path
       transform="matrix(1.038121,0.000000,0.000000,1.038121,1.725808,-5.592283)"
       d="M 389.6459 244.15767 A 17.15847 18.374426 0 1 1  355.32896,244.15767 A 17.15847 18.374426 0 1 1  389.6459 244.15767 z"
       id="path2262"
       style="opacity:1;fill:#fffff7;fill-opacity:1;fill-rule:nonzero;stroke:#000000;stroke-width:3.54330707;stroke-linecap:round;stroke-linejoin:round;stroke-miterlimit:4;stroke-dasharray:none;stroke-dashoffset:0;stroke-opacity:1" />
    <path
       id="path2369"
       d="M 339.63528,364.78308 L 382.91427,376.47544 L 384.22307,373.46338 L 354.04062,340.03229 L 339.63528,364.78308 z "
       style="fill:#ffffff;fill-opacity:1;fill-rule:evenodd;stroke:#000000;stroke-width:2.94270539;stroke-linecap:butt;stroke-linejoin:miter;stroke-miterlimit:4;stroke-dasharray:none;stroke-opacity:1" />
    <path
       id="path2363"
       d="M 345.69885,330.77866 C 336.53808,332.76596 326.487,333.0352 320.05019,339.56244 C 317.65161,342.51925 318.33198,344.96292 317.59073,347.64352 L 322.1583,344.13 C 326.02316,342.45644 329.07161,341.19456 334.21942,343.66348 C 336.57195,344.94607 337.56984,346.38741 337.96912,348.69757 C 336.90373,353.06867 327.9602,360.96851 321.45559,357.83272 L 317.23938,361.34622 C 317.42468,366.11394 323.28482,366.17085 329.65478,366.0348 C 336.45354,365.97739 340.52775,363.28656 346.40155,358.18406 L 353.42858,341.3192 L 345.69885,330.77866 z "
       style="fill:#ff7b42;fill-opacity:1;fill-rule:evenodd;stroke:#000000;stroke-width:2.94270539;stroke-linecap:butt;stroke-linejoin:miter;stroke-miterlimit:4;stroke-dasharray:none;stroke-opacity:1" />
    <path
       id="path2373"
       d="M 310.07919,419.06212 C 298.52107,430.65868 295.23357,445.43626 295.86015,461.71923 L 336.16701,462.77685 C 336.56759,455.87563 337.78198,449.63446 341.10254,445.03244 L 310.07919,419.06212 z "
       style="fill:#ffffff;fill-opacity:1;fill-rule:evenodd;stroke:#000000;stroke-width:3.67838144;stroke-linecap:butt;stroke-linejoin:miter;stroke-miterlimit:4;stroke-dasharray:none;stroke-opacity:1" />
    <path
       id="path2375"
       d="M 332.40661,447.6177 L 300.91319,427.40552 C 297.43475,431.72325 294.09163,440.12798 293.74492,446.6776 L 330.64391,452.67075 C 333.58094,453.44477 334.93853,449.18703 332.40661,447.6177 z "
       style="fill:#ffffff;fill-opacity:1;fill-rule:evenodd;stroke:#000000;stroke-width:3.67838144;stroke-linecap:butt;stroke-linejoin:miter;stroke-miterlimit:4;stroke-dasharray:none;stroke-opacity:1" />
    <path
       id="path2377"
       d="M 298.20535,461.35497 C 295.78003,493.07439 312.81082,517.42212 315.82129,546.77565 L 336.42861,546.77565 C 332.33229,525.61437 342.74093,499.13507 335.76385,463.68161 L 298.20535,461.35497 z "
       style="fill:#ffffff;fill-opacity:1;fill-rule:evenodd;stroke:#000000;stroke-width:3.67838144;stroke-linecap:butt;stroke-linejoin:miter;stroke-miterlimit:4;stroke-dasharray:none;stroke-opacity:1" />
    <path
       id="path2379"
       d="M 323.13356,462.68447 C 329.4447,491.82164 327.53252,518.60929 328.11921,546.1109"
       style="fill:none;fill-opacity:0.75;fill-rule:evenodd;stroke:#000000;stroke-width:3.67838144;stroke-linecap:butt;stroke-linejoin:miter;stroke-miterlimit:4;stroke-dasharray:none;stroke-opacity:1" />
    <path
       id="path2367"
       d="M 340.84531,365.10338 C 336.56199,373.27264 333.4769,381.68155 332.00281,390.41266 L 369.74374,394.79284 C 375.5065,390.06553 380.0844,383.85714 383.59882,376.31939 L 340.84531,365.10338 z "
       style="fill:#ffffff;fill-opacity:1;fill-rule:evenodd;stroke:#000000;stroke-width:3.67838144;stroke-linecap:butt;stroke-linejoin:miter;stroke-miterlimit:4;stroke-dasharray:none;stroke-opacity:1" />
    <path
       id="path2575"
       d="M 219.24913,467.86323 L 143.79427,452.58123 C 130.85086,448.97909 115.50936,452.87353 115.14052,470.7286 C 115.46977,488.20963 115.53944,505.66949 111.32001,523.26047 C 110.27607,529.46144 110.56397,535.6624 113.27435,541.86337 C 118.08559,550.96088 123.73011,555.05879 129.46739,558.60009 L 153.09571,577.70259 C 162.81745,574.77259 161.19665,561.20539 160.88366,548.24065 L 132.37684,534.23706 C 137.73428,519.85287 134.92413,504.10741 135.19814,488.87597 C 137.94393,482.18996 142.28229,476.66219 155.25575,477.41448 L 227.84524,503.20285 L 219.24913,467.86323 z "
       style="fill:#ffffff;fill-opacity:1;fill-rule:evenodd;stroke:#000000;stroke-width:3.98000884;stroke-linecap:butt;stroke-linejoin:miter;stroke-miterlimit:4;stroke-dasharray:none;stroke-opacity:1" />
    <path
       id="path2569"
       d="M 285.37194,387.915 L 202.36281,429.98812 C 200.52308,440.68282 196.19818,450.54913 202.93137,464.10146 C 212.33627,468.61042 215.08384,475.33848 215.43959,482.86381 C 225.46101,489.0808 240.2533,483.37064 252.96426,482.86381 C 226.60859,491.56907 202.39265,484.22028 173.93502,483.43237 C 159.9188,484.83304 149.8615,491.51228 144.93868,505.03748 L 129.01913,556.20749 C 125.19465,573.43631 125.74159,584.90564 139.25313,598.84917 L 154.60413,617.61151 C 150.0781,628.53544 154.03214,637.5749 163.13247,645.47074 C 170.0177,643.70069 174.20353,633.76557 178.21081,626.23961 C 180.84821,620.09399 179.25567,615.04052 174.72636,612.24849 C 166.69347,604.71232 167.65494,605.2393 160.07764,594.80134 C 147.25839,577.44303 147.97597,571.73775 152.37967,563.05381 L 162.21125,529.24799 C 168.60768,516.22419 173.34453,509.47285 193.26805,512.89677 C 223.40822,526.28534 254.28419,526.70961 285.9405,524.93692 L 303.56573,373.70111 L 285.37194,387.915 z "
       style="fill:#ffffff;fill-opacity:1;fill-rule:evenodd;stroke:#000000;stroke-width:3.98000884;stroke-linecap:butt;stroke-linejoin:miter;stroke-miterlimit:4;stroke-dasharray:none;stroke-opacity:1" />
    <g
       transform="matrix(1.038121,0.000000,0.000000,1.038121,0.525533,-3.535090)"
       id="g1457">
      <path
         style="fill:#005ae7;fill-opacity:1;fill-rule:evenodd;stroke:#000000;stroke-width:3.12519693;stroke-linecap:butt;stroke-linejoin:miter;stroke-miterlimit:4;stroke-dasharray:none;stroke-opacity:1"
         d="M 114.28125,274 C 110.75329,288.36325 106.71153,296.13768 99.96875,304.875 C 97.202353,326.76652 100.89485,336.98895 111.0625,335.4375 L 108.75,380.78125 C 108.04579,381.13018 107.35101,381.48891 106.65625,381.84375 L 107.75,389.5 C 119.07568,381.88842 133.63616,380.754 149.3125,381.84375 L 148,377.5625 L 151.75,372.5625 L 122.96875,328.53125 C 130.68576,323.48671 131.80306,308.57544 135.40625,297.4375 C 124.18403,293.39889 119.14867,284.39342 114.28125,274 z M 117.21875,334.6875 L 143.9375,374.4375 C 130.35637,373.34341 121.65717,375.28615 114.46875,378.1875 L 117.21875,334.6875 z "
         id="path2429" />
      <path
         id="path2433"
         style="fill:#005ae7;fill-opacity:1;fill-rule:evenodd;stroke:#000000;stroke-width:2.83464575;stroke-linecap:butt;stroke-linejoin:miter;stroke-miterlimit:4;stroke-dasharray:none;stroke-opacity:1"
         d="M 225.89415,373.70078 C 205.42883,390.21288 181.32738,382.72653 157.73432,378.59556 L 155.40197,383.07414 C 173.98091,387.86999 194.94429,389.45917 195.31203,418.74595 C 216.56315,410.58889 237.44696,401.78905 256.11942,389.11934 C 279.54877,378.23228 304.4874,350.04637 329.03871,337.83666 L 314.51668,336.46726 C 298.27134,348.99938 248.66495,361.24959 225.89415,373.70078 z " />
      <path
         transform="matrix(0.955969,0.000000,0.000000,0.955969,29.52298,5.150966)"
         d="M 217.57302 397.68521 A 6.3632154 7.0974326 0 1 1  204.84659,397.68521 A 6.3632154 7.0974326 0 1 1  217.57302 397.68521 z"
         id="path2449"
         style="opacity:1;fill:#ffff00;fill-opacity:1;fill-rule:nonzero;stroke:#000000;stroke-width:2.48031497;stroke-linecap:round;stroke-linejoin:round;stroke-miterlimit:4;stroke-dasharray:none;stroke-dashoffset:0;stroke-opacity:1" />
      <path
         style="opacity:1;fill:#ffff00;fill-opacity:1;fill-rule:nonzero;stroke:#000000;stroke-width:2.48031497;stroke-linecap:round;stroke-linejoin:round;stroke-miterlimit:4;stroke-dasharray:none;stroke-dashoffset:0;stroke-opacity:1"
         id="path2451"
         d="M 217.57302 397.68521 A 6.3632154 7.0974326 0 1 1  204.84659,397.68521 A 6.3632154 7.0974326 0 1 1  217.57302 397.68521 z"
         transform="matrix(0.871247,0.000000,0.000000,0.871247,71.98112,25.41098)" />
      <path
         style="opacity:1;fill:#ffff00;fill-opacity:1;fill-rule:nonzero;stroke:#000000;stroke-width:2.48031497;stroke-linecap:round;stroke-linejoin:round;stroke-miterlimit:4;stroke-dasharray:none;stroke-dashoffset:0;stroke-opacity:1"
         id="path2447"
         d="M 217.57302 397.68521 A 6.3632154 7.0974326 0 1 1  204.84659,397.68521 A 6.3632154 7.0974326 0 1 1  217.57302 397.68521 z"
         transform="translate(-2.202652,-2.202652)" />
      <path
         style="opacity:1;fill:#ffff00;fill-opacity:1;fill-rule:nonzero;stroke:#000000;stroke-width:2.83464575;stroke-linecap:round;stroke-linejoin:round;stroke-miterlimit:4;stroke-dasharray:none;stroke-dashoffset:0;stroke-opacity:1"
         id="path2431"
         d="M 159.14949 378.62933 A 5.6081247 6.2144089 0 1 1  147.93324,378.62933 A 5.6081247 6.2144089 0 1 1  159.14949 378.62933 z"
         transform="translate(-0.606284,0.303142)" />
    </g>
    <path
       id="path2454"
       d="M 288.67844,481.76485 C 282.13695,493.3282 274.81135,508.10958 265.23743,512.63837 L 292.10883,533.79246 L 288.67844,481.76485 z "
       style="fill:#0052e7;fill-opacity:1;fill-rule:evenodd;stroke:#000000;stroke-width:4.34784698;stroke-linecap:butt;stroke-linejoin:miter;stroke-miterlimit:4;stroke-dasharray:none;stroke-opacity:1" />
    <path
       id="path2531"
       d="M 355.52009,438.30066 L 354.98059,452.8673"
       style="fill:none;fill-opacity:0.75;fill-rule:evenodd;stroke:#000000;stroke-width:3.61217046;stroke-linecap:round;stroke-linejoin:miter;stroke-miterlimit:4;stroke-dasharray:none;stroke-opacity:1" />
    <path
       id="path2533"
       d="M 358.21763,448.55126 L 358.75713,473.90801"
       style="fill:none;fill-opacity:0.75;fill-rule:evenodd;stroke:#000000;stroke-width:3.61217046;stroke-linecap:round;stroke-linejoin:miter;stroke-miterlimit:4;stroke-dasharray:none;stroke-opacity:1" />
    <path
       id="path2535"
       d="M 362.53367,469.59197 L 361.99416,482.0006"
       style="fill:none;fill-opacity:0.75;fill-rule:evenodd;stroke:#000000;stroke-width:3.61217046;stroke-linecap:round;stroke-linejoin:miter;stroke-miterlimit:4;stroke-dasharray:none;stroke-opacity:1" />
    <path
       id="path2537"
       d="M 366.31021,487.93515 L 371.70526,512.2129"
       style="fill:none;fill-opacity:0.75;fill-rule:evenodd;stroke:#000000;stroke-width:3.61217046;stroke-linecap:round;stroke-linejoin:miter;stroke-miterlimit:4;stroke-dasharray:none;stroke-opacity:1" />
    <path
       id="path2539"
       d="M 373.32377,516.52894 L 380.87685,533.79312"
       style="fill:none;fill-opacity:0.75;fill-rule:evenodd;stroke:#000000;stroke-width:3.61217046;stroke-linecap:round;stroke-linejoin:miter;stroke-miterlimit:4;stroke-dasharray:none;stroke-opacity:1" />
    <path
       id="path2541"
       d="M 383.57438,540.80669 C 383.57438,540.98652 383.57438,541.16635 383.57438,540.80669 z "
       style="fill:none;fill-opacity:0.75;fill-rule:evenodd;stroke:#000000;stroke-width:1.03812099px;stroke-linecap:butt;stroke-linejoin:miter;stroke-opacity:1" />
    <path
       id="path2543"
       d="M 381.66101,538.80424 L 396.22766,572.79307"
       style="fill:none;fill-opacity:0.75;fill-rule:evenodd;stroke:#000000;stroke-width:2.50865602;stroke-linecap:round;stroke-linejoin:miter;stroke-miterlimit:4;stroke-dasharray:none;stroke-opacity:1" />
    <path
       id="path2545"
       d="M 363.61268,431.82659 L 363.07317,444.77472"
       style="fill:none;fill-opacity:0.75;fill-rule:evenodd;stroke:#000000;stroke-width:3.61217046;stroke-linecap:round;stroke-linejoin:miter;stroke-miterlimit:4;stroke-dasharray:none;stroke-opacity:1" />
    <path
       id="path2547"
       d="M 366.84971,444.23522 L 367.38922,464.19692"
       style="fill:none;fill-opacity:0.75;fill-rule:evenodd;stroke:#000000;stroke-width:3.61217046;stroke-linecap:round;stroke-linejoin:miter;stroke-miterlimit:4;stroke-dasharray:none;stroke-opacity:1" />
    <path
       id="path2549"
       d="M 370.62625,464.19692 L 370.62625,481.46109"
       style="fill:none;fill-opacity:0.75;fill-rule:evenodd;stroke:#000000;stroke-width:3.61217046;stroke-linecap:round;stroke-linejoin:miter;stroke-miterlimit:4;stroke-dasharray:none;stroke-opacity:1" />
    <path
       id="path2551"
       d="M 373.86329,484.15861 L 375.4818,497.64626"
       style="fill:none;fill-opacity:0.75;fill-rule:evenodd;stroke:#000000;stroke-width:3.61217046;stroke-linecap:round;stroke-linejoin:miter;stroke-miterlimit:4;stroke-dasharray:none;stroke-opacity:1" />
    <path
       id="path2553"
       d="M 379.25834,493.86972 L 386.2719,501.9623"
       style="fill:none;fill-opacity:0.75;fill-rule:evenodd;stroke:#000000;stroke-width:3.61217046;stroke-linecap:round;stroke-linejoin:miter;stroke-miterlimit:4;stroke-dasharray:none;stroke-opacity:1" />
    <path
       id="path2555"
       d="M 393.82498,500.34378 L 401.37806,505.73884"
       style="fill:none;fill-opacity:0.75;fill-rule:evenodd;stroke:#000000;stroke-width:3.98000884;stroke-linecap:round;stroke-linejoin:miter;stroke-miterlimit:4;stroke-dasharray:none;stroke-opacity:1" />
    <path
       id="path2563"
       d="M 391.12746,409.16737 C 390.87968,435.536 399.77203,456.42055 406.23361,478.76356"
       style="fill:none;fill-opacity:0.75;fill-rule:evenodd;stroke:#000000;stroke-width:3.67838144;stroke-linecap:round;stroke-linejoin:miter;stroke-miterlimit:4;stroke-dasharray:none;stroke-opacity:1" />
    <path
       id="path2571"
       d="M 155.74124,515.84003 C 159.16035,504.93473 173.10279,499.27112 185.8747,499.35192 C 186.8991,500.86808 186.3888,502.38422 185.8747,503.90038 C 171.18754,505.32229 161.90765,508.17159 156.3098,518.68281 C 155.7751,518.35654 155.18315,518.13334 155.74124,515.84003 z "
       style="fill:#323237;fill-opacity:1;fill-rule:evenodd;stroke:none;stroke-width:1px;stroke-linecap:butt;stroke-linejoin:miter;stroke-opacity:1" />
    <path
       id="path2573"
       d="M 150.5346,612.34554 C 153.19633,611.86889 155.3974,611.96808 159.8033,609.31121 C 156.51968,613.17255 155.61391,617.03387 154.5655,620.8952 C 154.57791,617.7063 154.15917,614.62519 150.5346,612.34554 z "
       style="fill:#000000;fill-opacity:1;fill-rule:evenodd;stroke:#000000;stroke-width:2.50865602;stroke-linecap:butt;stroke-linejoin:miter;stroke-miterlimit:4;stroke-dasharray:none;stroke-opacity:1" />
    <path
       style="fill:#5a5a5a;fill-opacity:1;fill-rule:evenodd;stroke:none;stroke-width:1px;stroke-linecap:butt;stroke-linejoin:miter;stroke-opacity:1"
       d="M 125.2664,482.89022 C 127.27826,467.7033 138.03893,463.44146 152.42754,461.86271 C 153.67791,463.19864 153.41272,466.8922 153.14378,468.4704 C 138.86376,472.18735 133.32228,473.28845 129.44947,484.55003 C 128.87006,484.31202 125.0764,485.2428 125.2664,482.89022 z "
       id="path2577" />
    <path
       id="path1529"
       d="M 435.03896,484.34601 L 436.89414,505.93369 C 459.90332,541.25008 485.41816,561.04131 512.63501,564.09879 C 530.30344,564.16763 543.29345,576.37239 545.30274,583.47865 C 549.35078,594.85727 552.47267,606.5446 554.6298,618.55352 C 555.87349,635.26569 551.00465,643.42031 545.32829,650.44441 C 541.02282,652.72097 538.71444,655.99606 540.01314,661.07471 C 531.57461,671.26208 521.90542,681.44944 517.42376,691.63681 C 525.49611,697.73819 542.36771,695.54506 555.95858,693.49589 C 554.54867,687.29488 557.16755,684.27397 562.62808,678.07296 C 561.6462,662.45522 565.27958,657.14643 571.16309,649.76715 C 572.26161,639.10139 570.87091,627.41835 571.99343,579.87173 L 435.03896,484.34601 z "
       style="fill:#ffffff;fill-opacity:1;fill-rule:evenodd;stroke:#000000;stroke-width:3.67838144;stroke-linecap:butt;stroke-linejoin:miter;stroke-miterlimit:4;stroke-dasharray:none;stroke-opacity:1" />
    <path
       style="fill:#ffffff;fill-opacity:1;fill-rule:evenodd;stroke:#000000;stroke-width:3.61217046;stroke-linecap:butt;stroke-linejoin:miter;stroke-miterlimit:4;stroke-dasharray:none;stroke-opacity:1"
       d="M 596.33351,394.92099 C 622.07048,389.04459 659.12977,437.84041 645.27598,469.07476 C 643.55472,481.47704 639.52997,498.02496 641.48458,527.58137 C 642.10938,541.38732 660.0994,551.0134 665.68927,555.50987 C 664.68567,532.61011 660.08742,511.76445 667.08571,484.29219 C 678.92878,459.11421 666.96535,413.10586 650.3286,400.04122 C 619.26265,383.97394 610.6542,390.65473 596.33351,394.92099 z "
       id="path2414" />
    <path
       id="path2586"
       d="M 424.7603,397.9226 C 464.18349,393.81904 505.50116,375.50674 541.38842,397.9226 C 552.70857,406.8441 562.61727,404.47399 572.00331,397.9226 C 605.94263,379.00045 627.09514,386.27424 649.99835,391.36227 C 687.59712,411.31678 685.3562,435.83979 683.52893,459.15237 C 676.0056,497.52398 663.05912,538.44765 687.17357,561.93089 C 668.77427,559.81978 659.4192,547.02001 662.39009,519.6532 L 666.76364,446.76063 C 672.72678,414.3407 635.43914,385.9432 608.44958,400.10938 C 632.24702,395.12452 647.3322,421.67325 648.5405,443.84492 C 648.12852,476.91439 640.92072,506.58595 647.96297,543.38254 C 642.15558,525.7719 626.83724,534.65602 633.96199,481.02014 C 635.94588,429.66064 631.70686,412.70445 609.90744,406.66971 C 621.83256,420.98959 626.34925,442.21391 625.21489,464.25485 C 621.24914,483.09702 621.92588,496.1382 623.98429,510.96428 C 612.97794,496.94205 611.29468,482.11041 610.63637,464.98377 C 613.85352,446.26215 611.02444,428.83615 599.70248,413.23005 C 592.31226,409.25092 584.90977,405.2902 573.46116,407.39864 C 566.08409,410.99936 557.45197,413.97255 566.1719,425.62177 C 578.15227,451.33506 568.84929,474.26052 564.32436,489.51492 C 559.59998,504.37682 559.44403,520.91022 563.54497,537.58757 C 568.68598,545.28571 577.25363,547.68936 585.56412,549.43823 C 603.18532,552.37835 607.06171,561.40933 606.26281,568.49123 C 607.82681,584.21619 605.83265,598.16209 605.53389,612.95569 C 605.2602,632.8422 611.20373,651.34745 605.35354,667.18236 C 591.55001,672.9519 594.20307,670.96081 590.13953,683.22133 L 588.42936,700.32584 C 572.66144,706.12314 558.80066,701.87104 549.40661,701.15571 L 565.44297,680.01686 C 569.77669,664.50966 571.73224,662.73887 582.1818,651.30891 C 586.86099,621.23944 585.8985,596.39303 570.93264,582.34081 C 560.7295,568.24552 544.08158,568.46816 527.06803,564.58847 C 503.45658,561.85854 487.98888,548.24175 471.41155,534.96063 C 454.61756,522.94772 446.55934,506.5669 436.42311,491.22509 L 424.7603,397.9226 z "
       style="fill:#ffffff;fill-opacity:1;fill-rule:evenodd;stroke:#000000;stroke-width:3.98000884;stroke-linecap:butt;stroke-linejoin:miter;stroke-miterlimit:4;stroke-dasharray:none;stroke-opacity:1" />
    <path
       id="path2590"
       d="M 567.63991,674.33934 C 575.70364,676.01473 582.49575,687.14683 589.57345,685.96128 C 591.04983,685.71398 589.27868,692.11889 588.93053,694.52101 C 578.36705,684.96075 573.00628,678.40893 562.27546,685.20031 L 567.63991,674.33934 z "
       style="fill:#000000;fill-opacity:1;fill-rule:evenodd;stroke:#000000;stroke-width:0.66946542;stroke-linecap:butt;stroke-linejoin:miter;stroke-miterlimit:4;stroke-dasharray:none;stroke-opacity:1" />
    <path
       id="path2404"
       d="M 534.25071,668.29542 C 538.96852,673.86696 546.52613,677.30868 553.77631,680.98096 C 545.57122,678.5457 537.61755,675.35619 528.80402,674.74626 L 534.25071,668.29542 z "
       style="fill:#000000;fill-opacity:1;fill-rule:evenodd;stroke:#000000;stroke-width:1.03812099px;stroke-linecap:butt;stroke-linejoin:miter;stroke-opacity:1" />
    <path
       id="path1531"
       d="M 541.15445,653.87132 C 542.0657,658.88802 543.75384,662.61435 548.41949,663.25092 C 544.1366,664.7617 541.15039,664.84541 539.99808,661.34727 C 539.17572,658.08668 539.64074,655.44153 541.15445,653.87132 z "
       style="fill:#000000;fill-opacity:1;fill-rule:evenodd;stroke:#000000;stroke-width:1.03812099px;stroke-linecap:butt;stroke-linejoin:miter;stroke-opacity:1" />
    <path
       id="path2410"
       d="M 133.3056,590.1545 C 134.03035,586.72988 136.33617,585.92365 140.7399,586.178 C 143.58436,588.37207 145.31696,592.41924 146.79107,596.89724 C 142.66192,596.60674 142.57825,598.79419 141.08568,600.70083 L 133.3056,590.1545 z "
       style="fill:#000000;fill-opacity:1;fill-rule:evenodd;stroke:#000000;stroke-width:1.03812099px;stroke-linecap:butt;stroke-linejoin:miter;stroke-opacity:1" />
    <path
       id="path2448"
       d="M 435.04182,574.38543 C 439.69131,581.94016 439.60302,591.38999 449.90685,596.68298"
       style="fill:none;fill-opacity:0.75;fill-rule:evenodd;stroke:#000000;stroke-width:3.98000884;stroke-linecap:round;stroke-linejoin:miter;stroke-miterlimit:4;stroke-dasharray:none;stroke-opacity:1" />
    <path
       id="path2450"
       d="M 418.4616,569.23985 C 418.4616,569.43041 418.4616,569.62099 418.4616,569.23985 z "
       style="fill:none;fill-opacity:0.75;fill-rule:evenodd;stroke:#000000;stroke-width:1.03812099px;stroke-linecap:butt;stroke-linejoin:miter;stroke-opacity:1" />
    <path
       id="path2452"
       d="M 418.4616,569.81157 C 421.45046,580.29332 425.94485,590.77507 432.75489,601.25683"
       style="fill:none;fill-opacity:0.75;fill-rule:evenodd;stroke:#000000;stroke-width:3.61217046;stroke-linecap:round;stroke-linejoin:miter;stroke-miterlimit:4;stroke-dasharray:none;stroke-opacity:1" />
    <path
       id="path2579"
       d="M 489.64273,385.5332 C 499.56927,395.61364 512.36946,409.20725 512.96801,424.88447 L 512.96801,431.30784 L 493.98986,432.18376 C 494.00235,431.93568 494.00984,431.686 494.0223,431.43761 L 477.25016,430.7239 L 477.31504,432.96235 L 430.5996,435.10347 L 430.5996,448.20975 L 477.6719,446.74989 L 477.96387,457.68261 C 478.76353,469.67758 478.70206,482.36824 488.89658,486.84732 C 503.79038,494.93864 512.39279,505.72348 513.68172,519.64545 C 516.59742,522.56117 520.50108,522.56115 525.36058,519.64545 C 526.47929,508.26801 526.3882,497.06027 512.22186,487.59347 C 495.6193,480.86266 493.11424,464.87256 493.40592,446.26327 L 512.96801,445.64689 L 512.96801,461.34847 C 511.99953,482.41544 522.47143,493.51805 538.46686,499.23989 C 545.38153,495.68384 544.17283,490.11163 543.56014,484.67375 C 527.92307,482.29001 527.43212,464.00897 527.92344,445.19271 L 572.01114,443.83018 L 572.72485,428.55033 L 528.2803,430.59414 C 528.28075,430.39359 528.28052,430.20985 528.2803,430.01019 C 529.79355,412.25222 523.33913,397.45984 509.30215,385.5332 L 489.64273,385.5332 z "
       style="fill:#005ae7;fill-opacity:1;fill-rule:evenodd;stroke:#000000;stroke-width:3.52756786;stroke-linecap:butt;stroke-linejoin:miter;stroke-miterlimit:4;stroke-dasharray:none;stroke-opacity:1" />
    <path
       id="path2557"
       d="M 401.91756,508.97587 L 402.45707,514.91043"
       style="fill:none;fill-opacity:0.75;fill-rule:evenodd;stroke:#000000;stroke-width:3.61217046;stroke-linecap:round;stroke-linejoin:miter;stroke-miterlimit:4;stroke-dasharray:none;stroke-opacity:1" />
    <path
       id="path2559"
       d="M 406.23361,517.60795 L 406.23361,525.70053"
       style="fill:none;fill-opacity:0.75;fill-rule:evenodd;stroke:#000000;stroke-width:3.61217046;stroke-linecap:round;stroke-linejoin:miter;stroke-miterlimit:4;stroke-dasharray:none;stroke-opacity:1" />
    <path
       id="path2561"
       d="M 410.54965,523.54252 L 411.08915,531.6351"
       style="fill:none;fill-opacity:0.75;fill-rule:evenodd;stroke:#000000;stroke-width:3.61217046;stroke-linecap:round;stroke-linejoin:miter;stroke-miterlimit:4;stroke-dasharray:none;stroke-opacity:1" />
    <path
       id="path2565"
       d="M 418.64223,502.50181 C 424.72371,520.98429 431.80919,537.96076 440.76195,552.1363"
       style="fill:none;fill-opacity:0.75;fill-rule:evenodd;stroke:#000000;stroke-width:3.67838144;stroke-linecap:round;stroke-linejoin:miter;stroke-miterlimit:4;stroke-dasharray:none;stroke-opacity:1" />
    <path
       id="path2567"
       d="M 406.2336,393.5217 C 407.23465,424.20283 415.97892,445.01455 424.03728,465.81544 C 418.81162,444.33037 411.97609,423.65022 412.16816,399.45628 L 406.2336,393.5217 z "
       style="fill:#000000;fill-opacity:1;fill-rule:evenodd;stroke:#000000;stroke-width:1.03812099px;stroke-linecap:butt;stroke-linejoin:miter;stroke-opacity:1" />
    <path
       id="path2408"
       d="M 578.47447,561.18555 C 576.92386,558.06424 575.7611,555.09807 578.64346,553.74995 C 589.04851,555.34358 604.55728,561.94374 601.28824,587.37914 C 598.45071,590.72869 597.47786,588.01802 596.38751,585.68924 C 595.01341,570.80739 592.56374,563.06582 578.47447,561.18555 z "
       style="fill:#000000;fill-opacity:1;fill-rule:evenodd;stroke:#000000;stroke-width:1.03812099px;stroke-linecap:butt;stroke-linejoin:miter;stroke-opacity:1" />
    <path
       id="path2281"
       d="M 141.76489,256.35129 C 148.21742,254.93745 158.29696,268.59326 163.10266,278.45726 C 171.00299,284.5274 174.9609,280.34724 180.89001,281.29222"
       style="fill:none;fill-opacity:0.75;fill-rule:evenodd;stroke:#000000;stroke-width:1.40514171;stroke-linecap:butt;stroke-linejoin:miter;stroke-miterlimit:4;stroke-dasharray:none;stroke-opacity:1" />
    <path
       id="path2282"
       d="M 183.70337,245.74576 C 186.65615,246.53012 193.70358,273.47675 195.65388,286.08914 C 190.81883,281.43491 182.65615,283.61908 179.24904,276.23257"
       style="fill:none;fill-opacity:0.75;fill-rule:evenodd;stroke:#000000;stroke-width:1.77297997;stroke-linecap:butt;stroke-linejoin:miter;stroke-miterlimit:4;stroke-dasharray:none;stroke-opacity:1" />
    <path
       style="fill:none;fill-opacity:0.75;fill-rule:evenodd;stroke:#000000;stroke-width:1.40514171;stroke-linecap:butt;stroke-linejoin:miter;stroke-miterlimit:4;stroke-dasharray:none;stroke-opacity:1"
       d="M 208.05965,249.2244 C 210.70979,250.74453 210.34886,279.78929 208.97661,292.47757 C 205.58381,289.09579 197.96857,291.56572 195.24846,283.48018"
       id="path2300" />
    <path
       id="path2322"
       d="M 229.89442,260.55976 C 232.52495,262.11358 229.77259,296.88161 228.23857,309.55134 C 224.16579,294.20909 209.75002,299.1481 209.33342,287.99283"
       style="fill:none;fill-opacity:0.75;fill-rule:evenodd;stroke:#000000;stroke-width:1.77297997;stroke-linecap:butt;stroke-linejoin:miter;stroke-miterlimit:4;stroke-dasharray:none;stroke-opacity:1" />
    <path
       id="path4006"
       d="M 268.40821,349.52907 C 267.4718,367.49292 272.62593,364.99706 275.51906,368.53693"
       style="fill:none;fill-opacity:0.75;fill-rule:evenodd;stroke:#000000;stroke-width:1.77297997;stroke-linecap:butt;stroke-linejoin:miter;stroke-miterlimit:4;stroke-dasharray:none;stroke-opacity:1" />
    <path
       id="path4912"
       d="M 659.42879,475.81077 C 659.37381,521.36293 652.78595,527.1285 662.82467,552.56687"
       style="fill:none;fill-opacity:0.75;fill-rule:evenodd;stroke:#000000;stroke-width:2.50865602;stroke-linecap:butt;stroke-linejoin:miter;stroke-miterlimit:4;stroke-dasharray:none;stroke-opacity:1" />
    <path
       style="fill:none;fill-opacity:0.75;fill-rule:evenodd;stroke:#000000;stroke-width:2.50865602;stroke-linecap:butt;stroke-linejoin:miter;stroke-miterlimit:4;stroke-dasharray:none;stroke-opacity:1"
       d="M 655.45928,467.82586 C 657.08388,479.29945 647.97665,528.66107 657.45551,549.06084"
       id="path4914" />
    <path
       id="path4916"
       d="M 672.68649,490.02758 C 674.3111,502.268 661.56476,532.38753 679.16161,558.38575"
       style="fill:none;fill-opacity:0.75;fill-rule:evenodd;stroke:#000000;stroke-width:2.26956129;stroke-linecap:round;stroke-linejoin:miter;stroke-miterlimit:4;stroke-dasharray:none;stroke-opacity:1" />
    <path
       style="fill:none;fill-opacity:0.75;fill-rule:evenodd;stroke:#000000;stroke-width:2.50865602;stroke-linecap:butt;stroke-linejoin:miter;stroke-miterlimit:4;stroke-dasharray:none;stroke-opacity:1"
       d="M 642.01801,455.65116 C 643.64262,467.89157 634.25545,517.88619 643.17445,535.20657"
       id="path4918" />
    <path
       id="path4920"
       d="M 627.11744,436.96464 C 634.90052,446.40575 621.31439,501.43912 632.47283,526.59756"
       style="fill:none;fill-opacity:0.75;fill-rule:evenodd;stroke:#000000;stroke-width:3.24433255;stroke-linecap:butt;stroke-linejoin:miter;stroke-miterlimit:4;stroke-dasharray:none;stroke-opacity:1" />
    <path
       id="path4922"
       d="M 637.14905,438.29546 C 641.01311,454.4549 633.30552,508.64847 636.6259,525.96885"
       style="fill:none;fill-opacity:0.75;fill-rule:evenodd;stroke:#000000;stroke-width:2.50865602;stroke-linecap:butt;stroke-linejoin:miter;stroke-miterlimit:4;stroke-dasharray:none;stroke-opacity:1" />
    <path
       id="path4924"
       d="M 652.15977,456.20184 C 653.78437,468.44226 644.11727,526.8348 653.03627,544.15517"
       style="fill:none;fill-opacity:0.75;fill-rule:evenodd;stroke:#000000;stroke-width:2.50865602;stroke-linecap:butt;stroke-linejoin:miter;stroke-miterlimit:4;stroke-dasharray:none;stroke-opacity:1" />
    <path
       style="fill:none;fill-opacity:0.75;fill-rule:evenodd;stroke:#000000;stroke-width:2.26956129;stroke-linecap:round;stroke-linejoin:miter;stroke-miterlimit:4;stroke-dasharray:none;stroke-opacity:1"
       d="M 668.82712,479.91336 C 672.41124,492.15377 658.54518,534.87019 672.78286,555.82966"
       id="path4926" />
    <g
       transform="matrix(1.038121,0.000000,0.000000,1.038121,2.378475,-4.860221)"
       id="g2359">
      <path
         style="fill:#005ae7;fill-opacity:1;fill-rule:evenodd;stroke:#000000;stroke-width:4.25196838;stroke-linecap:butt;stroke-linejoin:miter;stroke-miterlimit:4;stroke-dasharray:none;stroke-opacity:1"
         d="M 420.33216,213.95287 L 311.96791,264.87696 C 308.07962,268.07291 305.35301,271.84969 306.44429,277.53542 C 335.91728,352.7036 386.43161,390.16152 456.11807,422.22747 C 464.2797,423.77095 468.12568,420.13566 469.08825,413.04026 C 487.15535,342.93113 469.98536,259.20801 432.91395,216.83245 C 430.78553,214.3995 423.62314,212.19318 420.33216,213.95287 z "
         id="path2264" />
      <path
         style="fill:#ffff00;fill-opacity:1;fill-rule:evenodd;stroke:#000000;stroke-width:3.54330707;stroke-linecap:butt;stroke-linejoin:miter;stroke-miterlimit:4;stroke-dasharray:none;stroke-opacity:1"
         d="M 378.81248,250.53125 L 365.65623,258.0625 L 379.71873,284.03125 L 350.15623,299.875 L 357.68748,313.5 L 387.21873,297.875 L 407.56248,335.40625 L 377.40623,351.59375 L 384.93748,365.21875 L 415.06248,349.28125 L 432.87498,382.125 L 445.56248,374.625 L 428.18748,342.3125 L 456.84373,327.15625 L 449.31248,313.03125 L 420.68748,328.375 L 400.49998,290.84375 L 429.59373,275.4375 L 422.06248,261.34375 L 392.99998,276.90625 L 378.81248,250.53125 z "
         id="path2266" />
    </g>
  </g>
</svg>