<!-- Creator: CorelDRAW -->
<svg
   xmlns="http://www.w3.org/2000/svg"
   style="shape-rendering:geometricPrecision; text-rendering:geometricPrecision; image-rendering:optimizeQuality; fill-rule:evenodd; clip-rule:evenodd"
   viewBox="-34.99 -11.88 279.99 320.76"
   id="svg2"
   version="1.0"><title>Herb Chełmża</title><metadata
   id="metadata20"><rdf:RDF><cc:Work
       rdf:about=""><dc:format>image/svg+xml</dc:format><dc:type
         rdf:resource="http://purl.org/dc/dcmitype/StillImage" /></cc:Work></rdf:RDF></metadata><sodipodi:namedview
   guidetolerance="10.0"
   gridtolerance="10.0"
   objecttolerance="10.0"
   borderopacity="1.0"
   bordercolor="#666666"
   pagecolor="#ffffff"
   id="base" />
 <defs
   id="defs4">
  <style
   type="text/css"
   id="style6">
   
    .fil0 {fill:#0A0B0C}
    .fil1 {fill:#DA251D}
    .fil3 {fill:#FFF500}
    .fil4 {fill:white}
    .fil2 {fill:#6599FF}
   
  </style>
 </defs>
 <g
   id="Warstwa_x0020_1"
   transform="matrix(1.2345167,0,0,1.2345167,-24.62425,-34.825744)">
  <metadata
   id="CorelCorpID_0Corel-Layer" />
  <g
   id="_110337128">
   <path
   id="_110337632"
   class="fil0"
   d="M 210,154.178 C 210,217.304 162.8319,268.79 105,268.79 C 47.168,268.79 0,217.3041 0,154.178 L 0,28.21 L 210,28.21 L 210,154.178 L 210,154.178 z "
   style="fill:#0a0b0c" />
   <path
   id="_110337560"
   class="fil1"
   d="M 80.9685,220.428 L 81.6782,220.039 L 81.4369,220.817 L 80.9685,220.428 L 80.9685,220.428 z M 162.0326,248.0864 C 170.4377,241.9844 177.9858,234.5736 184.4242,226.1268 L 184.4242,82.9158 L 143.7895,82.9158 L 143.7895,141.656 L 150.9014,141.656 L 165.9558,167.3876 L 162.0326,167.3876 L 162.0326,248.0864 L 162.0326,248.0864 z M 152.7299,254.1049 L 152.7299,206.0918 C 149.3814,206.1262 146.4384,206.7779 143.0905,207.8252 L 136.5272,199.0406 C 135.0202,198.1563 132.3814,197.1655 130.5889,199.2885 C 130.5444,198.728 130.3446,198.1915 129.8028,197.7089 L 119.3694,191.4239 C 117.9464,191.0742 115.4992,190.7827 114.5743,191.3682 C 114.6146,189.351 114.1854,188.7578 112.194,188.1719 L 97.421,188.1693 C 94.8097,188.5887 94.5996,191.1958 95.8291,194.4995 C 95.0525,191.5339 93.5806,190.4094 91.2403,191.6527 L 78.3952,197.3098 C 77.796,197.8256 77.4295,198.3025 77.1874,198.9747 L 75.5641,198.2833 C 74.6298,198.2533 73.7534,198.6345 72.9613,199.6175 L 64.5593,211.783 C 64.0769,213.2293 64.3767,214.2467 65.459,214.8356 L 68.7518,216.0914 C 67.4523,216.4445 66.4641,217.3085 65.7338,218.5965 L 64.6125,230.9001 C 64.695,231.4449 64.9679,232.6105 66.6845,233.8968 C 65.756,234.1938 65.1233,235.231 64.6925,236.7744 L 64.6902,246.5059 C 65.4361,247.7128 66.2489,248.8267 67.2084,249.1759 C 66.2632,249.9003 65.0959,249.9294 64.7191,252.4332 L 64.7192,257.9597 C 59.1499,255.3699 53.8279,252.2609 48.8058,248.6885 L 48.8058,167.3876 L 65.9002,167.3876 L 160.7585,167.3876 L 160.7585,248.9975 C 158.1597,250.8264 155.4809,252.5322 152.7299,254.1049 L 152.7299,254.1049 z M 24.8239,225.1251 C 31.3166,233.8403 38.9738,241.4835 47.5314,247.7686 L 47.5314,167.3876 L 45.0945,167.3876 L 60.2462,141.6562 L 65.4586,141.6562 L 65.4586,82.9173 L 24.8239,82.9173 L 24.8239,225.1253 L 24.8239,225.1251 z M 84.5565,124.6241 L 84.5565,141.3236 L 125.2749,141.3236 L 125.2749,124.6241 L 84.5565,124.6241 z M 79.436,263.4001 C 79.909,263.5325 80.3835,263.6613 80.859,263.7865 L 80.859,262.2599 L 79.436,263.4001 z M 78.752,249.0362 C 79.6625,249.0541 80.2948,248.6034 80.8261,247.9831 L 80.8261,250.2808 C 80.1497,249.7845 79.4578,249.3722 78.752,249.0362 z M 128.3934,219.429 C 128.6554,219.5087 128.8955,219.6843 129.1794,219.6684 L 128.7863,220.8652 C 128.6193,220.3609 128.4443,219.9309 128.3934,219.429 L 128.3934,219.429 z M 121.8648,211.1117 C 122.2577,211.1199 122.5707,210.9961 122.8474,210.8126 L 122.8145,212.0692 L 121.8648,211.1117 L 121.8648,211.1117 z M 110.9583,205.1281 C 110.7073,205.8581 110.3543,206.4286 109.8993,206.8395 L 112.2247,207.2344 C 111.7262,206.7357 111.3804,205.8302 110.9583,205.1281 z M 98.7308,206.1214 L 99.113,206.7676 L 98.2613,207.007 C 98.4562,206.7534 98.6235,206.4701 98.7308,206.1214 L 98.7308,206.1214 z M 86.6671,210.5014 C 87.3383,211.0099 87.9497,211.1456 88.534,211.1117 L 87.1475,212.1889 C 87.0282,211.4767 86.8737,210.8941 86.6671,210.5014 z M 80.9573,220.4224 L 80.8372,220.4224 L 80.9573,220.4224 z M 78.6646,233.7301 C 79.4837,233.382 80.2107,232.8893 80.8261,232.2221 L 80.8261,235.1182 C 80.1564,234.231 79.4222,233.8828 78.6646,233.7301 L 78.6646,233.7301 z "
   style="fill:#da251d" />
   <path
   id="_110337488"
   class="fil2"
   d="M 22.3864,66.3314 L 22.3864,81.6585 L 67.7333,81.6585 L 67.7333,66.0718 L 62.008,73.7031 L 44.8973,41.895 L 27.7215,73.9884 L 22.3864,66.3314 L 22.3864,66.3314 z M 81.585,248.5674 L 87.0994,248.5674 C 88.2413,246.8105 85.8943,246.1865 83.7807,245.7391 C 87.2575,243.7737 91.2133,245.792 89.8655,248.6542 C 91.0096,248.9001 91.6023,248.3266 92.2944,246.4333 C 92.884,247.6743 94.8891,249.8773 96.1834,249.96 C 94.9035,250.0588 92.6447,252.1641 92.1378,253.7378 C 91.8077,252.233 91.8039,251.3227 89.8448,251.3139 C 91.1757,255.0201 87.4938,256.1382 83.7391,253.8961 C 84.5647,253.9445 88.573,253.505 87.1051,251.4449 L 81.585,251.4449 L 81.585,263.9655 C 88.86,265.8223 96.4234,266.8343 104.1884,266.9002 L 104.1884,207.3741 C 89.94,208.6309 81.7452,214.952 81.585,227.9955 L 81.585,228.9039 L 87.0694,228.9039 C 88.2114,227.1471 85.8644,226.5231 83.7507,226.0756 C 87.2275,224.1103 91.1833,226.1286 89.8355,228.9908 C 90.9796,229.2367 91.5724,228.6631 92.2645,226.7699 C 92.8541,228.0109 94.8592,230.2139 96.1534,230.2966 C 94.8735,230.3954 92.6147,232.5007 92.1078,234.0744 C 91.7778,232.5695 91.7739,231.6591 89.8148,231.6504 C 91.1457,235.3566 87.4638,236.4747 83.7091,234.2326 C 84.5347,234.2811 88.543,233.8416 87.0751,231.7815 L 81.585,231.7815 L 81.585,248.5674 L 81.585,248.5674 z M 129.7357,248.5554 L 135.2461,248.5554 C 136.3879,246.7987 134.0408,246.1748 131.9272,245.7274 C 135.4041,243.7617 139.3597,245.7801 138.0119,248.6423 C 139.156,248.8882 139.749,248.3146 140.4411,246.4215 C 141.0305,247.6626 143.0358,249.8655 144.3298,249.948 C 143.0499,250.0469 140.7911,252.1524 140.2846,253.726 C 139.9542,252.2213 139.9504,251.3109 137.9914,251.3019 C 139.3223,255.0083 135.6404,256.1265 131.8858,253.8843 C 132.7111,253.9327 136.7197,253.4931 135.2518,251.433 L 129.7357,251.433 L 129.7357,263.6318 C 137.5198,261.5305 144.9604,258.4606 151.9405,254.5491 L 151.9405,207.0078 C 137.6922,208.2645 129.8957,214.5857 129.7357,227.6291 L 129.7357,228.9039 L 135.2461,228.9039 C 136.3879,227.1471 134.0408,226.5231 131.9272,226.0756 C 135.4041,224.1103 139.3597,226.1286 138.0119,228.9908 C 139.156,229.2367 139.749,228.6631 140.4411,226.7699 C 141.0305,228.0109 143.0358,230.2139 144.3298,230.2966 C 143.0499,230.3954 140.7911,232.5007 140.2846,234.0744 C 139.9542,232.5695 139.9504,231.6591 137.9914,231.6504 C 139.3223,235.3566 135.6404,236.4747 131.8858,234.2326 C 132.7111,234.2811 136.7197,233.8416 135.2518,231.7815 L 129.7357,231.7815 L 129.7357,248.5554 L 129.7357,248.5554 z M 104.8947,95.4334 L 82.5508,123.5705 L 127.053,123.5497 L 104.8947,95.4334 L 104.8947,95.4334 z M 141.7102,66.3311 L 141.7102,81.6582 L 187.0571,81.6582 L 187.0571,66.0715 L 181.3317,73.7028 L 164.221,41.8947 L 147.0453,73.9881 L 141.7102,66.3311 L 141.7102,66.3311 z M 60.9272,142.8282 L 150.2207,142.8282 L 163.5363,166.0752 L 47.6113,166.0752 L 60.9268,142.8282 L 60.9272,142.8282 z "
   style="fill:#6599ff" />
   <path
   id="_110337416"
   class="fil3"
   d="M 81.5148,229.736 L 87.4407,229.736 C 88.8349,227.7717 87.5097,226.2516 85.1436,226.0115 C 87.8851,225.4337 90.5356,226.6936 88.8881,229.7649 L 90.7031,229.7649 C 91.3001,229.527 92.0494,228.5482 92.2958,227.945 C 93.0835,228.8817 93.7492,229.9267 94.889,230.2458 C 93.8221,230.7572 93.0139,231.6805 92.2292,232.5784 C 91.9312,232.0142 91.4934,231.0631 90.7031,230.9527 L 88.8167,230.989 C 90.4967,234.5006 87.8075,235.2869 84.9001,234.5395 C 87.7114,234.1878 88.9404,233.2464 87.4619,231.0383 L 81.5148,231.0383 L 81.5148,229.736 L 81.5148,229.736 z M 81.5449,249.3994 L 87.4706,249.3994 C 88.865,247.4352 87.5397,245.915 85.1736,245.675 C 87.9151,245.0973 90.5656,246.357 88.9181,249.4284 L 90.7331,249.4284 C 91.33,249.1905 92.0793,248.2117 92.3258,247.6084 C 93.1135,248.5452 93.7791,249.5903 94.919,249.9094 C 93.8521,250.4206 93.0439,251.344 92.2591,252.2419 C 91.9613,251.6776 91.5234,250.7266 90.7331,250.6161 L 88.8466,250.6524 C 90.5266,254.164 87.8375,254.9504 84.93,254.2029 C 87.7413,253.8514 88.9704,252.9099 87.4918,250.7018 L 81.5449,250.7018 L 81.5449,249.3994 L 81.5449,249.3994 z M 129.6915,249.3876 L 135.6172,249.3876 C 137.0115,247.4234 135.6862,245.9032 133.3203,245.6631 C 136.0616,245.0853 138.7121,246.3451 137.0648,249.4165 L 138.8796,249.4165 C 139.4766,249.1785 140.2259,248.1998 140.4724,247.5966 C 141.26,248.5334 141.9257,249.5783 143.0656,249.8974 C 141.9986,250.4088 141.1904,251.3321 140.4057,252.23 C 140.1079,251.6658 139.6699,250.7147 138.8796,250.6043 L 136.9932,250.6406 C 138.6732,254.1521 135.984,254.9385 133.0766,254.1911 C 135.8879,253.8394 137.1169,252.898 135.6384,250.69 L 129.6915,250.69 L 129.6915,249.3876 L 129.6915,249.3876 z M 129.6915,229.736 L 135.6172,229.736 C 137.0115,227.7717 135.6862,226.2516 133.3203,226.0115 C 136.0616,225.4337 138.7121,226.6936 137.0648,229.7649 L 138.8796,229.7649 C 139.4766,229.527 140.2259,228.5482 140.4724,227.945 C 141.26,228.8817 141.9257,229.9267 143.0656,230.2458 C 141.9986,230.7572 141.1904,231.6805 140.4057,232.5784 C 140.1079,232.0142 139.6699,231.0631 138.8796,230.9527 L 136.9932,230.989 C 138.6732,234.5006 135.984,235.2869 133.0766,234.5395 C 135.8879,234.1878 137.1169,233.2464 135.6384,231.0383 L 129.6915,231.0383 L 129.6915,229.736 L 129.6915,229.736 z M 104.6055,86.658 C 106.6023,86.658 108.2308,88.3072 108.2308,90.3294 C 108.2308,92.3515 106.6023,94.0006 104.6055,94.0006 C 102.6087,94.0006 100.9802,92.3515 100.9802,90.3294 C 100.9802,88.3072 102.6087,86.658 104.6055,86.658 z "
   style="fill:#fff500" />
   <path
   id="_110337344"
   class="fil4"
   d="M 131.229,200.498 C 132.7068,199.0699 134.3011,198.8228 136.0658,200.3014 L 142.2691,208.1674 C 133.9786,210.6873 131.2477,217.5657 129.8512,218.3539 C 128.4319,219.1549 126.212,216.6677 123.9151,211.4463 C 123.7253,210.468 123.8848,209.6173 124.5553,208.9533 L 131.229,200.498 L 131.229,200.498 z M 65.9451,258.5145 C 69.9513,260.3117 74.0825,261.8411 78.319,263.0827 C 79.1446,262.6906 79.8821,262.01 80.5317,261.0409 L 80.5137,251.9586 C 80.2605,250.7912 79.3754,250.201 78.2613,249.8198 L 67.8902,249.937 C 67.1651,250.275 66.5176,250.8953 66.0073,252.019 L 65.9451,258.5145 L 65.9451,258.5145 z M 114.6893,192.5873 C 115.8666,191.8328 117.3885,192.0507 119.0672,192.7102 L 129.0656,198.4796 C 129.2796,199.0053 129.7938,199.423 129.5868,200.5868 L 122.7444,209.5913 C 121.9937,210.3686 120.7772,210.4436 118.8796,209.4928 L 113.2266,206.5008 C 111.8623,205.3844 111.6045,203.9881 112.1034,202.4005 L 114.6893,192.5873 L 114.6893,192.5873 z M 97.5177,189.47 L 112.3694,189.47 C 113.0097,189.7442 113.4774,190.2764 113.3281,191.7303 L 109.8918,204.5464 C 109.6797,205.4873 109.2704,205.9423 108.7716,206.1764 L 100.3544,206.1468 C 99.6124,205.9386 99.2154,205.0828 98.9749,203.9323 L 96.1894,191.5415 C 96.108,190.0998 96.6673,189.5763 97.5177,189.47 L 97.5177,189.47 z M 91.6654,192.6746 L 80.1498,197.7863 C 78.5479,198.3942 77.7528,199.1741 78.7314,200.332 L 85.79,208.7299 C 86.6175,209.3558 87.754,210.4434 88.5545,210.1957 L 96.711,206.5757 C 97.4097,206.3402 97.7728,205.9081 97.3961,205.0439 L 94.3627,193.5548 C 93.7324,192.562 92.8693,192.1753 91.6654,192.6746 L 91.6654,192.6746 z M 81.3904,218.5859 L 85.8252,212.4872 C 86.3125,211.8795 85.4588,210.7379 84.8838,210.2396 L 76.6822,200.2443 C 75.783,199.1057 74.8123,199.2242 73.7696,200.5998 L 65.6611,212.3476 C 65.3977,212.8468 65.5118,213.2769 65.6797,213.6968 L 78.5306,219.1218 C 79.8868,219.7165 80.894,219.6409 81.3904,218.5859 L 81.3904,218.5859 z M 79.9284,231.2354 L 81.1889,223.5303 C 81.4713,222.6516 81.3594,222.0087 80.8535,221.6014 L 69.3996,216.9149 C 68.2642,217.1796 67.3798,217.9158 66.7459,219.1231 L 65.9273,231.2273 C 66.1262,232.1462 66.594,232.8441 67.6528,233.0563 L 77.2393,233.1408 C 78.3573,232.951 79.2404,232.289 79.9284,231.2354 L 79.9284,231.2354 z M 80.4754,246.3706 L 80.4625,236.4115 C 79.6446,235.3939 78.6788,234.8086 77.6456,234.42 L 68.8308,234.012 C 67.5209,234.1815 66.4596,234.8283 66.0097,236.6486 L 65.9933,246.4856 C 66.512,247.6141 67.4562,248.4474 69.3366,248.6329 L 77.5613,248.2593 C 78.8196,248.1306 79.791,247.1278 80.4754,246.3706 L 80.4754,246.3706 z M 105.4992,266.9045 C 113.2624,266.8649 120.8346,265.8756 128.1026,264.0499 L 128.1026,228.1479 C 127.9425,215.1045 119.7475,208.7833 105.4992,207.5267 L 105.4992,266.9045 z M 104.61,85.5055 C 107.1802,85.5055 109.2767,87.6286 109.2767,90.2314 C 109.2767,92.3575 107.878,94.1636 105.965,94.7534 L 129.2741,124.542 L 126.4652,124.542 L 126.4652,141.6555 L 142.4947,141.6555 L 142.4947,82.9152 L 140.6074,82.9152 L 140.6074,62.933 L 147.0684,71.9812 L 164.1983,39.5206 L 181.402,71.5362 L 188.3211,62.5204 L 188.3211,82.9152 L 185.7203,82.9152 L 185.7203,224.3902 C 199.8626,205.0944 208.3391,180.6343 208.3391,154.0887 L 208.3391,30.0877 L 1.6621,30.0877 L 1.6621,154.0887 C 1.6621,180.1623 9.8374,204.216 23.5296,223.3573 L 23.5296,82.9153 L 21.2836,82.9153 L 21.2836,62.9334 L 27.7449,71.9813 L 44.8748,39.521 L 62.0785,71.5363 L 68.9976,62.5208 L 68.9976,82.9153 L 66.7549,82.9153 L 66.7549,141.6556 L 83.3686,141.6556 L 83.3686,124.5421 L 80.3547,124.5421 L 103.7653,94.8794 C 101.596,94.475 99.9433,92.5425 99.9433,90.2315 C 99.9433,87.6287 102.0397,85.5056 104.6101,85.5056 L 104.61,85.5055 z "
   style="fill:#ffffff" />
   <path
   id="_110337272"
   class="fil0"
   d="M 173.113,93.6792 C 176.1679,95.161 177.6815,97.6183 177.6813,101.3611 L 177.6813,124.4713 L 168.2728,124.4713 L 168.2728,101.3893 C 168.2728,97.9636 170.3897,95.1349 173.113,93.6792 z M 156.4435,93.6792 C 159.4984,95.161 161.012,97.6183 161.0118,101.3611 L 161.0118,124.4713 L 151.6033,124.4713 L 151.6033,101.3893 C 151.6033,97.9636 153.7202,95.1349 156.4435,93.6792 z M 53.8335,93.6792 C 56.8884,95.161 58.402,97.6183 58.4018,101.3611 L 58.4018,124.4713 L 48.9933,124.4713 L 48.9933,101.3893 C 48.9933,97.9636 51.1102,95.1349 53.8335,93.6792 L 53.8335,93.6792 z M 37.164,93.6792 C 40.2188,95.161 41.7325,97.6183 41.7323,101.3611 L 41.7323,124.4713 L 32.3238,124.4713 L 32.3238,101.3893 C 32.3238,97.9636 34.4407,95.1349 37.164,93.6792 L 37.164,93.6792 z "
   style="fill:#0a0b0c" />
   <path
   id="_110337200"
   class="fil4"
   d="M 173.117,94.6884 C 175.5845,96.3089 176.6591,98.1565 176.6591,101.3893 L 176.6591,123.4625 L 169.2958,123.4625 L 169.2958,101.3893 C 169.2958,98.1309 170.8997,96.4487 173.117,94.6884 z M 156.4475,94.6884 C 158.915,96.3089 159.9896,98.1565 159.9896,101.3893 L 159.9896,123.4625 L 152.6263,123.4625 L 152.6263,101.3893 C 152.6263,98.1309 154.2301,96.4487 156.4475,94.6884 z M 53.8375,94.6884 C 56.305,96.3089 57.3796,98.1565 57.3796,101.3893 L 57.3796,123.4625 L 50.0163,123.4625 L 50.0163,101.3893 C 50.0163,98.1309 51.6201,96.4487 53.8375,94.6884 L 53.8375,94.6884 z M 37.1679,94.6884 C 39.6355,96.3089 40.7101,98.1565 40.7101,101.3893 L 40.7101,123.4625 L 33.3468,123.4625 L 33.3468,101.3893 C 33.3468,98.1309 34.9506,96.4487 37.1679,94.6884 z "
   style="fill:#ffffff" />
   <path
   id="_110337032"
   class="fil0"
   d="M 109.493,128.928 C 111.1348,128.928 112.4738,130.3164 112.4738,132.0188 C 112.4738,133.2983 111.7172,134.4009 110.6441,134.8691 C 110.8858,135.3155 111.0239,135.8291 111.0239,136.3754 C 111.0239,138.078 109.6847,139.4665 108.0431,139.4665 C 106.9593,139.4665 106.0075,138.8613 105.4855,137.9602 C 104.9905,138.958 103.9867,139.6432 102.8335,139.6432 C 101.1916,139.6432 99.8526,138.2548 99.8526,136.5523 C 99.8526,135.974 100.0074,135.432 100.2757,134.9686 C 99.1514,134.5256 98.3487,133.3959 98.3487,132.0779 C 98.3487,130.3757 99.6876,128.9872 101.3293,128.9872 C 101.7385,128.9872 102.1288,129.0734 102.4845,129.2292 C 102.4841,129.2172 102.4838,129.2052 102.4838,129.1932 C 102.4838,127.4909 103.8231,126.1025 105.4648,126.1025 C 107.0847,126.1025 108.4099,127.4548 108.4448,129.1258 C 108.771,128.998 109.1244,128.928 109.493,128.928 L 109.493,128.928 z "
   style="fill:#0a0b0c" />
  </g>
 </g>
</svg>