<!-- Created with Inkscape (http://www.inkscape.org/) -->
<svg role="img" viewBox="-17.86 -22.66 515.72 645.32"
   xmlns="http://www.w3.org/2000/svg"
   xmlns:xlink="http://www.w3.org/1999/xlink"
   id="svg38241"><title>Herb Lubliniec</title>
  <defs
     id="defs3">
    <radialGradient
       gradientUnits="userSpaceOnUse"
       r="883.08777"
       fy="192.13872"
       fx="917.11401"
       cy="195.71115"
       cx="908.28290"
       gradientTransform="matrix(0.527724,0.000000,0.000000,1.312103,-227.6731,33.83175)"
       id="radialGradient35963"
       xlink:href="#linearGradient2518" />
    <linearGradient
       id="linearGradient2518">
      <stop
         id="stop2520"
         offset="0.00000000"
         style="stop-color:#379cff;stop-opacity:1.0000000;" />
      <stop
         id="stop2522"
         offset="1.0000000"
         style="stop-color:#3b3bff;stop-opacity:1.0000000;" />
    </linearGradient>
    <radialGradient
       gradientUnits="userSpaceOnUse"
       r="883.08777"
       fy="192.13872"
       fx="917.11401"
       cy="195.71115"
       cx="908.28290"
       gradientTransform="matrix(0.527724,0.000000,0.000000,1.312103,-227.6731,33.83175)"
       id="radialGradient35961"
       xlink:href="#linearGradient2518" />
  </defs>
  <sodipodi:namedview
     borderopacity="1.0"
     bordercolor="#666666"
     pagecolor="#ffffff"
     id="base" />
  <metadata
     id="metadata4">
    <rdf:RDF
       id="RDF5">
      <cc:Work
         id="Work6"
         rdf:about="">
        <dc:format
           id="format7">image/svg+xml</dc:format>
        <dc:type
           rdf:resource="http://purl.org/dc/dcmitype/StillImage"
           id="type9" />
      </cc:Work>
    </rdf:RDF>
  </metadata>
  <g
     id="layer1">
    <path
       id="path31515"
       d="M 240.06846,1.2381461 L 240.06846,598.76184 C 115.96863,598.63506 12.637745,496.88849 1.2381640,366.60334 L 1.4690590,1.2381461 L 240.06846,1.2381461 z "
       style="fill:url(#radialGradient35961);fill-opacity:1.0000000;fill-rule:nonzero;stroke:#000000;stroke-width:2.4763279;stroke-miterlimit:4.0000000;stroke-dashoffset:0.00000000;stroke-opacity:1.0000000" />
    <path
       id="path36723"
       d="M 203.37999,97.498756 C 203.37999,97.498756 195.29777,79.418896 190.98244,78.465056 C 186.66713,77.511226 167.67055,73.583856 163.27893,70.873486 C 158.88732,68.163126 153.06484,48.350896 153.06484,48.350896 C 153.06484,48.350896 162.09542,63.305316 166.52058,65.827906 C 170.94573,68.350516 190.08863,70.366896 194.82487,73.331636 C 199.56113,76.296396 211.47987,95.826776 211.47987,95.826776 L 203.37999,97.498756 z "
       style="fill:#ffff00;fill-opacity:1.0000000;fill-rule:evenodd;stroke:#000000;stroke-width:3.1204648;stroke-linecap:butt;stroke-linejoin:miter;stroke-miterlimit:4.0000000;stroke-opacity:1.0000000" />
    <g
       transform="matrix(0.835029,0.000000,0.000000,0.829228,284.1621,30.35775)"
       id="g35024">
      <path
         id="path27396"
         d="M -63.561631,462.11476 L -59.619921,419.62126 L -43.520171,420.82882 L -43.941511,467.59837 L -63.561631,462.11476 z "
         style="fill:#ffff00;fill-opacity:1.0000000;fill-rule:evenodd;stroke:#000000;stroke-width:5.0000000;stroke-linecap:butt;stroke-linejoin:miter;stroke-miterlimit:4.0000000;stroke-opacity:1.0000000" />
      <path
         id="path10122"
         d="M -264.93376,88.638259 C -264.93376,88.638259 -262.74356,198.67599 -291.48998,203.87677 C -263.98741,216.39443 -232.35447,170.75597 -229.61672,156.52222 C -226.87897,142.28849 -264.93376,88.638259 -264.93376,88.638259 z "
         style="fill:#ffff00;fill-opacity:1.0000000;fill-rule:evenodd;stroke:#000000;stroke-width:4.0000281;stroke-linecap:butt;stroke-linejoin:miter;stroke-miterlimit:4.0000000;stroke-opacity:1.0000000" />
      <path
         id="path10882"
         d="M -235.71025,162.70138 C -235.71025,162.70138 -227.49699,283.41442 -285.81117,278.48735 C -215.32583,321.38856 -202.03586,220.73124 -199.29811,206.49750 C -189.71596,164.89119 -235.71025,162.70138 -235.71025,162.70138 z "
         style="fill:#ffff00;fill-opacity:1.0000000;fill-rule:evenodd;stroke:#000000;stroke-width:4.0000281;stroke-linecap:butt;stroke-linejoin:miter;stroke-miterlimit:4.0000000;stroke-opacity:1.0000000" />
      <path
         id="path10884"
         d="M -198.78920,182.85408 C -200.43185,184.22271 -184.00532,347.63695 -259.84115,360.22832 C -156.50275,411.34129 -163.87908,224.42924 -160.46064,195.99292 C -157.03844,167.52544 -198.78920,182.85408 -198.78920,182.85408 z "
         style="fill:#ffff00;fill-opacity:1.0000000;fill-rule:evenodd;stroke:#000000;stroke-width:4.0000281;stroke-linecap:butt;stroke-linejoin:miter;stroke-miterlimit:4.0000000;stroke-opacity:1.0000000" />
      <path
         id="path10886"
         d="M -160.37404,195.47519 C -160.37404,195.47519 -152.13520,338.88051 -160.53542,379.92497 C -138.65440,360.26113 -124.60307,253.19247 -124.49245,226.54966 C -124.38182,199.90687 -160.37404,195.47519 -160.37404,195.47519 z "
         style="fill:#ffff00;fill-opacity:1.0000000;fill-rule:evenodd;stroke:#000000;stroke-width:4.9472494;stroke-linecap:butt;stroke-linejoin:miter;stroke-miterlimit:4.0000000;stroke-opacity:1.0000000" />
      <path
         style="fill:#000000;fill-opacity:1.0000000;fill-rule:evenodd;stroke:none;stroke-width:1.0000000px;stroke-linecap:butt;stroke-linejoin:miter;stroke-opacity:1.0000000"
         d="M -144.82204,203.25480 C -138.16759,241.73098 -142.37489,260.62243 -144.85080,271.62985 C -133.06465,266.04535 -132.22866,204.82149 -133.14358,202.88002 C -134.05850,200.93854 -143.01514,204.16813 -144.82204,203.25480 z "
         id="path14311" />
      <path
         id="path10110"
         d="M -253.83744,120.12354 C -252.33168,124.50314 -254.56718,177.05166 -251.41876,177.73597 C -248.27035,178.42029 -220.81078,154.64458 -219.16440,149.13456 C -217.66720,144.12385 -255.42763,115.49837 -253.83744,120.12354 z "
         style="fill:#ffff00;fill-opacity:1.0000000;fill-rule:evenodd;stroke:#000000;stroke-width:4.0000281;stroke-linecap:butt;stroke-linejoin:miter;stroke-miterlimit:4.0000000;stroke-opacity:1.0000000" />
      <path
         id="path9340"
         d="M -265.75508,62.313501 C -265.75508,62.313501 -265.33977,95.739671 -264.65998,100.36137 C -263.97555,105.01471 -256.17294,131.01864 -252.61386,131.29237 C -249.32856,131.01864 -238.65131,118.70099 -238.92509,114.04766 C -239.19886,109.39432 -247.13835,99.540191 -247.13835,99.540191 L -265.75508,62.313501 z "
         style="fill:#ffff00;fill-opacity:1.0000000;fill-rule:evenodd;stroke:#000000;stroke-width:4.0000281;stroke-linecap:butt;stroke-linejoin:miter;stroke-miterlimit:4.0000000;stroke-opacity:1.0000000" />
      <path
         style="fill:#000000;fill-opacity:1.0000000;fill-rule:evenodd;stroke:none;stroke-width:1.0000000px;stroke-linecap:butt;stroke-linejoin:miter;stroke-opacity:1.0000000"
         d="M -218.84773,174.71624 C -217.52790,213.74131 -236.91714,256.59073 -240.87790,267.15509 C -228.43774,263.23816 -205.48924,181.10561 -206.12952,179.05709 C -206.76979,177.00857 -217.18301,175.86853 -218.84773,174.71624 z "
         id="path14305" />
      <path
         id="path10112"
         d="M -230.70388,142.73997 C -229.19812,147.11957 -230.84076,195.51886 -227.69235,196.20317 C -224.54394,196.88749 -201.82721,172.51903 -200.18083,167.00901 C -198.68363,161.99830 -232.29408,138.11480 -230.70388,142.73997 z "
         style="fill:#ffff00;fill-opacity:1.0000000;fill-rule:evenodd;stroke:#000000;stroke-width:4.0000281;stroke-linecap:butt;stroke-linejoin:miter;stroke-miterlimit:4.0000000;stroke-opacity:1.0000000" />
      <path
         id="path10100"
         d="M -237.83256,111.08376 C -237.83256,111.35749 -240.99120,123.07225 -240.02277,128.32848 C -239.06456,133.52926 -233.45215,154.33242 -229.89307,154.60614 C -226.60777,154.33242 -216.75558,142.59772 -216.20430,137.36143 C -215.65675,132.16064 -215.65675,130.79201 -215.93052,128.87594 L -237.83256,111.08376 z "
         style="fill:#ffff00;fill-opacity:1.0000000;fill-rule:evenodd;stroke:#000000;stroke-width:4.0000281;stroke-linecap:butt;stroke-linejoin:miter;stroke-miterlimit:4.0000000;stroke-opacity:1.0000000" />
      <path
         id="path10114"
         d="M -207.84460,156.88117 C -206.33884,161.26078 -204.28454,205.64672 -201.13612,206.33103 C -197.98771,207.01534 -177.04955,183.83239 -175.40317,178.32238 C -173.90597,173.31167 -209.43480,152.25600 -207.84460,156.88117 z "
         style="fill:#ffff00;fill-opacity:1.0000000;fill-rule:evenodd;stroke:#000000;stroke-width:4.0000281;stroke-linecap:butt;stroke-linejoin:miter;stroke-miterlimit:4.0000000;stroke-opacity:1.0000000" />
      <path
         id="path10102"
         d="M -214.28293,129.01280 C -214.28293,129.28653 -217.44157,141.00130 -216.47315,146.25753 C -215.51493,151.45831 -209.90252,172.26146 -206.34344,172.53519 C -203.05814,172.26146 -193.20596,160.52677 -192.65467,155.29048 C -192.10712,150.08968 -192.10712,148.72106 -192.38089,146.80498 L -214.28293,129.01280 z "
         style="fill:#ffff00;fill-opacity:1.0000000;fill-rule:evenodd;stroke:#000000;stroke-width:4.0000281;stroke-linecap:butt;stroke-linejoin:miter;stroke-miterlimit:4.0000000;stroke-opacity:1.0000000" />
      <path
         style="fill:#000000;fill-opacity:1.0000000;fill-rule:evenodd;stroke:none;stroke-width:1.0000000px;stroke-linecap:butt;stroke-linejoin:miter;stroke-opacity:1.0000000"
         d="M -187.44492,191.30937 C -178.20921,229.24920 -196.99069,327.53531 -211.07214,342.94371 C -183.71470,332.74420 -167.95347,201.44868 -174.10929,192.97154 C -175.15315,191.09617 -185.58049,192.09882 -187.44492,191.30937 z "
         id="path14309" />
      <path
         id="path10116"
         d="M -188.29578,167.82259 C -185.74995,171.69151 -176.20084,215.68718 -172.98106,215.56880 C -169.76129,215.45042 -155.72335,188.53138 -155.49629,182.78522 C -155.28980,177.55977 -190.98438,163.73675 -188.29578,167.82259 z "
         style="fill:#ffff00;fill-opacity:1.0000000;fill-rule:evenodd;stroke:#000000;stroke-width:4.0000281;stroke-linecap:butt;stroke-linejoin:miter;stroke-miterlimit:4.0000000;stroke-opacity:1.0000000" />
      <path
         id="path10104"
         d="M -191.55956,145.98378 C -191.55956,146.25751 -193.62311,158.51973 -192.65468,163.77595 C -191.69647,168.97674 -186.08406,189.77989 -182.52498,190.05362 C -179.23968,189.77989 -170.75637,178.04520 -168.83621,172.80891 C -166.94641,167.65543 -161.17049,159.94380 -164.18202,158.02772 L -191.55956,145.98378 z "
         style="fill:#ffff00;fill-opacity:1.0000000;fill-rule:evenodd;stroke:#000000;stroke-width:4.0000281;stroke-linecap:butt;stroke-linejoin:miter;stroke-miterlimit:4.0000000;stroke-opacity:1.0000000" />
      <path
         id="path10118"
         d="M -165.87650,173.92886 C -163.14109,177.66620 -152.23979,221.19667 -149.02991,220.91811 C -145.82003,220.63954 -134.68062,197.87953 -134.74009,192.12920 C -134.79416,186.89994 -168.76528,169.98198 -165.87650,173.92886 z "
         style="fill:#ffff00;fill-opacity:1.0000000;fill-rule:evenodd;stroke:#000000;stroke-width:4.0000281;stroke-linecap:butt;stroke-linejoin:miter;stroke-miterlimit:4.0000000;stroke-opacity:1.0000000" />
      <path
         id="path10106"
         d="M -161.17049,158.30144 C -161.17049,158.57517 -168.16198,167.00523 -167.19356,172.26146 C -166.23534,177.46225 -162.53936,195.25441 -158.98028,195.52814 C -155.69498,195.25441 -146.93789,183.79345 -145.29151,178.28343 C -143.79432,173.27272 -143.10131,167.06067 -143.37509,165.14459 L -161.17049,158.30144 z "
         style="fill:#ffff00;fill-opacity:1.0000000;fill-rule:evenodd;stroke:#000000;stroke-width:4.0000281;stroke-linecap:butt;stroke-linejoin:miter;stroke-miterlimit:4.0000000;stroke-opacity:1.0000000" />
      <path
         id="path13267"
         d="M -129.59084,221.48672 C -130.88316,233.42172 -130.53081,331.70749 -122.47597,346.11868 C -114.61994,330.80498 -106.22196,226.55477 -106.86831,213.37729 C -107.51466,200.19979 -128.09971,195.59005 -129.59084,221.48672 z "
         style="fill:#ffff00;fill-opacity:1.0000000;fill-rule:evenodd;stroke:#000000;stroke-width:5.0000000;stroke-linecap:butt;stroke-linejoin:miter;stroke-miterlimit:4.0000000;stroke-opacity:1.0000000" />
      <path
         id="path10120"
         d="M -143.20935,183.14318 C -140.51058,186.90704 -130.58156,225.79436 -127.36912,225.54715 C -124.15667,225.29994 -111.60972,194.94408 -111.61301,189.19344 C -111.61600,183.96391 -146.05945,179.16826 -143.20935,183.14318 z "
         style="fill:#ffff00;fill-opacity:1.0000000;fill-rule:evenodd;stroke:#000000;stroke-width:4.0000281;stroke-linecap:butt;stroke-linejoin:miter;stroke-miterlimit:4.0000000;stroke-opacity:1.0000000" />
      <path
         id="path10108"
         d="M -143.22383,163.09163 C -143.22383,163.36536 -145.28736,174.53268 -144.31894,179.78891 C -143.36072,184.98970 -140.48607,200.86578 -136.92699,201.13951 C -133.64169,200.86578 -124.88460,189.40481 -123.23822,183.89480 C -121.74103,178.88409 -121.04802,172.67204 -121.32179,170.75596 L -143.22383,163.09163 z "
         style="fill:#ffff00;fill-opacity:1.0000000;fill-rule:evenodd;stroke:#000000;stroke-width:4.0000281;stroke-linecap:butt;stroke-linejoin:miter;stroke-miterlimit:4.0000000;stroke-opacity:1.0000000" />
      <path
         id="path1703"
         d="M -225.72617,16.859259 C -236.17999,16.859259 -245.49156,21.343029 -252.02523,28.358289 C -287.51849,58.200769 -259.06967,137.08789 -123.84919,168.94023 L -123.84919,156.31629 C -160.78332,148.81138 -204.34331,121.78354 -228.18373,86.540899 C -227.35475,86.597319 -226.56971,86.790879 -225.72617,86.790879 C -206.01030,86.790879 -190.01177,71.127289 -190.01177,51.825069 C -190.01177,32.522849 -206.01030,16.859259 -225.72617,16.859259 z "
         style="fill:#ffff00;fill-opacity:1.0000000;fill-rule:evenodd;stroke:#000000;stroke-width:4.0422516;stroke-miterlimit:4.0000000;stroke-dashoffset:0.00000000;stroke-opacity:1.0000000" />
      <path
         style="fill:#000000;fill-opacity:1.0000000;fill-rule:evenodd;stroke:none;stroke-width:1.0000000px;stroke-linecap:butt;stroke-linejoin:miter;stroke-opacity:1.0000000"
         d="M -256.48701,88.707579 C -256.87117,94.084949 -253.15755,115.21031 -252.64533,115.97851 C -252.13311,116.74670 -248.93172,101.51083 -249.57200,99.462319 C -250.21227,97.413789 -256.48701,88.707579 -256.48701,88.707579 z "
         id="path13521" />
      <path
         style="fill:#000000;fill-opacity:1.0000000;fill-rule:evenodd;stroke:none;stroke-width:1.0000000px;stroke-linecap:butt;stroke-linejoin:miter;stroke-opacity:1.0000000"
         d="M -232.05658,118.07700 C -232.44075,123.45437 -228.72713,144.57974 -228.21491,145.34793 C -227.70269,146.11613 -223.47684,128.06354 -224.11712,126.01503 C -224.75740,123.96650 -232.05658,118.07700 -232.05658,118.07700 z "
         id="path14281" />
      <path
         style="fill:#000000;fill-opacity:1.0000000;fill-rule:evenodd;stroke:none;stroke-width:1.0000000px;stroke-linecap:butt;stroke-linejoin:miter;stroke-opacity:1.0000000"
         d="M -208.10094,134.85139 C -208.48510,140.22876 -205.41176,161.48216 -204.89954,162.25035 C -204.38732,163.01855 -199.52119,144.83793 -200.16148,142.78942 C -200.80175,140.74089 -208.10094,134.85139 -208.10094,134.85139 z "
         id="path14283" />
      <path
         style="fill:#000000;fill-opacity:1.0000000;fill-rule:evenodd;stroke:none;stroke-width:1.0000000px;stroke-linecap:butt;stroke-linejoin:miter;stroke-opacity:1.0000000"
         d="M -182.09900,147.71873 C -182.48317,153.09610 -181.20261,176.52606 -180.69039,177.29425 C -180.17817,178.06245 -173.51926,157.70527 -174.15954,155.65676 C -174.79981,153.60823 -182.09900,147.71873 -182.09900,147.71873 z "
         id="path14285" />
      <path
         style="fill:#000000;fill-opacity:1.0000000;fill-rule:evenodd;stroke:none;stroke-width:1.0000000px;stroke-linecap:butt;stroke-linejoin:miter;stroke-opacity:1.0000000"
         d="M -157.38422,160.52199 C -157.76839,165.89936 -158.40867,186.00046 -157.89645,186.76866 C -157.38423,187.53685 -148.67642,166.02739 -149.31671,163.97888 C -149.95698,161.93035 -155.71949,161.67428 -157.38422,160.52199 z "
         id="path14287" />
      <path
         style="fill:#000000;fill-opacity:1.0000000;fill-rule:evenodd;stroke:none;stroke-width:1.0000000px;stroke-linecap:butt;stroke-linejoin:miter;stroke-opacity:1.0000000"
         d="M -135.45979,165.96515 C -135.84396,171.34252 -136.48424,191.44362 -135.97202,192.21182 C -135.45980,192.98001 -126.75200,171.47056 -127.39228,169.42204 C -128.03255,167.37351 -133.79507,167.11744 -135.45979,165.96515 z "
         id="path14289" />
      <path
         style="fill:#000000;fill-opacity:1.0000000;fill-rule:evenodd;stroke:none;stroke-width:1.0000000px;stroke-linecap:butt;stroke-linejoin:miter;stroke-opacity:1.0000000"
         d="M -241.40922,131.87647 C -241.79339,137.25384 -245.81330,162.80496 -245.30108,163.57315 C -244.78886,164.34135 -235.31791,142.83189 -235.95820,140.78338 C -236.59847,138.73485 -239.74450,133.02877 -241.40922,131.87647 z "
         id="path14291" />
      <path
         style="fill:#000000;fill-opacity:1.0000000;fill-rule:evenodd;stroke:none;stroke-width:1.0000000px;stroke-linecap:butt;stroke-linejoin:miter;stroke-opacity:1.0000000"
         d="M -219.06010,149.75252 C -219.44427,155.12989 -222.37397,180.35400 -221.86175,181.12220 C -221.34953,181.89040 -211.66054,160.70794 -212.30083,158.65942 C -212.94110,156.61090 -217.39538,150.90482 -219.06010,149.75252 z "
         id="path14293" />
      <path
         style="fill:#000000;fill-opacity:1.0000000;fill-rule:evenodd;stroke:none;stroke-width:1.0000000px;stroke-linecap:butt;stroke-linejoin:miter;stroke-opacity:1.0000000"
         d="M -195.94782,162.61455 C -196.33199,167.99192 -198.49855,194.08804 -197.98633,194.85624 C -197.47411,195.62443 -188.76631,174.11498 -189.40659,172.06646 C -190.04687,170.01793 -194.28310,163.76684 -195.94782,162.61455 z "
         id="path14295" />
      <path
         style="fill:#000000;fill-opacity:1.0000000;fill-rule:evenodd;stroke:none;stroke-width:1.0000000px;stroke-linecap:butt;stroke-linejoin:miter;stroke-opacity:1.0000000"
         d="M -171.03857,172.26108 C -171.42274,177.63845 -172.28107,200.68257 -171.76885,201.45076 C -171.25662,202.21896 -163.85706,183.76151 -164.49734,181.71299 C -165.13762,179.66446 -169.37385,173.41338 -171.03857,172.26108 z "
         id="path14297" />
      <path
         style="fill:#000000;fill-opacity:1.0000000;fill-rule:evenodd;stroke:none;stroke-width:1.0000000px;stroke-linecap:butt;stroke-linejoin:miter;stroke-opacity:1.0000000"
         d="M -147.67067,182.28749 C -148.05483,187.66486 -148.91316,210.92698 -148.40094,211.69517 C -147.88872,212.46337 -141.57935,194.00592 -142.21963,191.95740 C -142.85990,189.90887 -146.00594,183.43979 -147.67067,182.28749 z "
         id="path14299" />
      <path
         style="fill:#000000;fill-opacity:1.0000000;fill-rule:evenodd;stroke:none;stroke-width:1.0000000px;stroke-linecap:butt;stroke-linejoin:miter;stroke-opacity:1.0000000"
         d="M -125.34686,186.60418 C -125.73103,191.98155 -127.59739,211.83412 -127.08517,212.60232 C -126.57295,213.37051 -120.34943,194.49312 -120.98971,192.44460 C -121.62998,190.39607 -123.68214,187.75647 -125.34686,186.60418 z "
         id="path14301" />
      <path
         style="fill:#000000;fill-opacity:1.0000000;fill-rule:evenodd;stroke:none;stroke-width:1.0000000px;stroke-linecap:butt;stroke-linejoin:miter;stroke-opacity:1.0000000"
         d="M -256.05364,129.88392 C -256.01181,162.73315 -266.88108,178.53663 -269.13785,189.52691 C -268.62563,190.29511 -252.28011,161.18964 -252.92040,159.14112 C -253.56067,157.09260 -254.38892,131.03621 -256.05364,129.88392 z "
         id="path14303" />
      <path
         id="path23595"
         d="M -51.586711,628.83509 C -51.586711,628.83509 -77.721838,583.16667 -78.941368,560.68838 C -80.166958,538.09837 -52.546521,472.86552 -52.546521,472.86552 L -48.227361,477.18468 L -51.586711,628.83509 z "
         style="fill:#ffff00;fill-opacity:1.0000000;fill-rule:evenodd;stroke:#000000;stroke-width:5.0000000;stroke-linecap:butt;stroke-linejoin:miter;stroke-miterlimit:4.0000000;stroke-opacity:1.0000000" />
      <path
         id="path17079"
         d="M -66.749811,366.06445 C -67.675361,374.43496 -59.561101,432.25295 -51.072681,441.93779 C -43.693221,430.92543 -40.786121,367.98862 -41.835421,358.83778 C -42.884711,349.68693 -66.053211,347.95976 -66.749811,366.06445 z "
         style="fill:#ffff00;fill-opacity:1.0000000;fill-rule:evenodd;stroke:#000000;stroke-width:6.1683679;stroke-linecap:butt;stroke-linejoin:miter;stroke-miterlimit:4.0000000;stroke-opacity:1.0000000" />
      <path
         id="path17867"
         d="M -53.308751,408.33105 L -62.220981,354.16231 L -49.167941,349.15342 L -53.308751,408.33105 z "
         style="fill:#000000;fill-opacity:1.0000000;fill-rule:evenodd;stroke:none;stroke-width:1.0000000px;stroke-linecap:butt;stroke-linejoin:miter;stroke-opacity:1.0000000" />
      <path
         id="path13287"
         d="M -79.915279,331.27829 C -81.330764,336.58328 -75.233297,373.63295 -66.410781,380.03858 C -57.806031,373.23180 -54.319211,333.53099 -55.027161,327.67373 C -55.735111,321.81646 -78.282036,319.76748 -79.915279,331.27829 z "
         style="fill:#ffff00;fill-opacity:1.0000000;fill-rule:evenodd;stroke:#000000;stroke-width:5.0000000;stroke-linecap:butt;stroke-linejoin:miter;stroke-miterlimit:4.0000000;stroke-opacity:1.0000000" />
      <path
         id="path17863"
         d="M -67.151891,362.30739 L -75.046408,322.50426 L -62.640541,319.37570 L -67.151891,362.30739 z "
         style="fill:#000000;fill-opacity:1.0000000;fill-rule:evenodd;stroke:none;stroke-width:1.0000000px;stroke-linecap:butt;stroke-linejoin:miter;stroke-opacity:1.0000000" />
      <g
         id="g7522"
         transform="matrix(0.808765,-0.429291,0.429291,0.808765,219.1553,-180.5731)">
        <path
           style="fill:#ffff00;fill-opacity:1.0000000;fill-rule:evenodd;stroke:#000000;stroke-width:5.4606776;stroke-linecap:butt;stroke-linejoin:miter;stroke-miterlimit:4.0000000;stroke-opacity:1.0000000"
           d="M -611.59866,372.54972 C -611.59866,372.54972 -647.96149,411.86089 -662.04799,409.24015 C -676.13449,406.61940 -687.60025,383.68788 -696.11767,385.32585 C -705.14817,387.06249 -708.89380,403.99865 -702.99712,406.29180 C -697.10045,408.58495 -687.27265,405.63662 -687.27265,405.63662 C -685.96228,412.51607 -674.16894,420.05071 -669.91023,419.72312 C -665.65152,419.39552 -691.85896,420.37830 -695.79007,417.10237 C -699.72119,413.82644 -712.16972,416.44718 -713.48010,421.36108 C -714.79047,426.27498 -714.79669,434.83673 -705.61786,436.10277 C -696.11766,437.41314 -692.01844,429.22332 -692.01844,429.22332 L -670.56541,428.56813 L -682.35876,437.08555 C -682.35876,437.08555 -701.03156,446.91334 -695.46248,455.10316 C -689.89340,463.29299 -675.15171,463.29299 -675.80690,447.89612 C -676.46208,445.60297 -660.08243,430.20610 -656.47891,432.17165 C -652.87538,434.13721 -646.32352,433.15443 -642.06481,432.17165 C -637.80610,431.18888 -630.27147,429.87850 -630.27147,434.13721 C -630.27147,438.39592 -621.09886,438.06833 -615.52978,436.75796 C -609.96070,435.44759 -608.40611,419.48190 -617.90631,419.48190 C -627.40651,419.48190 -642.72000,423.98183 -641.40963,419.39553 C -640.09925,414.80922 -603.73643,389.25696 -597.51216,385.65344 L -611.59866,372.54972 z "
           id="path5238" />
        <path
           style="fill:#ffff00;fill-opacity:1.0000000;fill-rule:evenodd;stroke:#000000;stroke-width:4.0955081;stroke-linecap:butt;stroke-linejoin:miter;stroke-miterlimit:4.0000000;stroke-opacity:1.0000000"
           d="M -184.76248,514.45440 C -184.76248,514.45440 -176.90025,507.90254 -176.24506,509.54050 C -175.58987,511.17847 -170.67598,513.14403 -168.05524,511.83366 C -161.83097,511.50606 -158.88262,501.02309 -164.77930,499.05752 C -169.03801,498.72993 -180.55723,499.17336 -182.46933,503.31623 C -184.43488,507.57494 -184.76248,514.45440 -184.76248,514.45440 z "
           id="path5998"
           transform="translate(-534.2867,-113.0765)" />
        <path
           style="fill:#ffff00;fill-opacity:1.0000000;fill-rule:evenodd;stroke:#000000;stroke-width:4.0955081;stroke-linecap:butt;stroke-linejoin:miter;stroke-miterlimit:4.0000000;stroke-opacity:1.0000000"
           d="M -717.21056,443.96256 C -717.21056,443.96256 -715.52831,433.86743 -713.96300,434.68106 C -712.39768,435.49470 -707.39156,433.77758 -706.26076,431.07450 C -701.75809,426.76466 -706.36455,416.89724 -712.11539,419.25567 C -715.55621,421.78642 -723.99556,429.63922 -722.74106,434.02621 C -721.45146,438.53586 -717.21056,443.96256 -717.21056,443.96256 z "
           id="path6758" />
        <path
           style="fill:#ffff00;fill-opacity:1.0000000;fill-rule:evenodd;stroke:#000000;stroke-width:4.0955081;stroke-linecap:butt;stroke-linejoin:miter;stroke-miterlimit:4.0000000;stroke-opacity:1.0000000"
           d="M -694.43014,467.30858 C -694.43014,467.30858 -692.74789,457.21345 -691.18258,458.02708 C -689.61726,458.84072 -684.61114,457.12360 -683.48034,454.42052 C -678.97767,450.11068 -683.58413,440.24326 -689.33497,442.60169 C -692.77579,445.13244 -701.21514,452.98524 -699.96064,457.37223 C -698.67104,461.88188 -694.43014,467.30858 -694.43014,467.30858 z "
           id="path6760" />
        <path
           style="fill:#ffff00;fill-opacity:1.0000000;fill-rule:evenodd;stroke:#000000;stroke-width:4.0955081;stroke-linecap:butt;stroke-linejoin:miter;stroke-miterlimit:4.0000000;stroke-opacity:1.0000000"
           d="M -609.02747,448.30818 C -609.02747,448.30818 -610.70972,438.21305 -612.27503,439.02668 C -613.84035,439.84032 -618.84647,438.12320 -619.97727,435.42012 C -624.47994,431.11028 -619.87348,421.24286 -614.12264,423.60129 C -610.68182,426.13204 -602.24247,433.98484 -603.49697,438.37183 C -604.78657,442.88148 -609.02747,448.30818 -609.02747,448.30818 z "
           id="path6762" />
      </g>
      <path
         id="path20509"
         d="M -109.96341,361.79716 C -111.04087,367.26499 -106.39954,405.45191 -99.683918,412.05417 C -93.134063,405.03844 -88.407914,363.80951 -88.946799,357.77246 C -89.485684,351.73540 -108.72021,349.93302 -109.96341,361.79716 z "
         style="fill:#ffff00;fill-opacity:1.0000000;fill-rule:evenodd;stroke:#000000;stroke-width:4.5654573;stroke-linecap:butt;stroke-linejoin:miter;stroke-miterlimit:4.0000000;stroke-opacity:1.0000000" />
      <path
         id="path20529"
         d="M -99.348718,395.42760 L -104.64664,355.19646 L -92.064068,352.87862 L -99.348718,395.42760 z "
         style="fill:#000000;fill-opacity:1.0000000;fill-rule:evenodd;stroke:none;stroke-width:1.0000000px;stroke-linecap:butt;stroke-linejoin:miter;stroke-opacity:1.0000000" />
      <path
         id="path20511"
         d="M -87.083306,356.07422 C -88.635530,361.44053 -111.19895,391.50589 -120.79767,393.10126 C -123.78508,383.06745 -108.80658,344.67444 -105.42726,339.80261 C -102.04792,334.93077 -82.660513,345.09731 -87.083306,356.07422 z "
         style="fill:#ffff00;fill-opacity:1.0000000;fill-rule:evenodd;stroke:#000000;stroke-width:4.8286624;stroke-linecap:butt;stroke-linejoin:miter;stroke-miterlimit:4.0000000;stroke-opacity:1.0000000" />
      <path
         id="path20515"
         d="M -98.808519,332.15435 C -100.10084,337.62218 -94.533929,375.80910 -86.479079,382.41136 C -78.623049,375.39563 -72.954409,334.16670 -73.600759,328.12965 C -74.247109,322.09259 -97.317389,320.29021 -98.808519,332.15435 z "
         style="fill:#ffff00;fill-opacity:1.0000000;fill-rule:evenodd;stroke:#000000;stroke-width:5.0000000;stroke-linecap:butt;stroke-linejoin:miter;stroke-miterlimit:4.0000000;stroke-opacity:1.0000000" />
      <path
         id="path20527"
         d="M -112.62662,374.38385 L -97.885114,336.57775 L -85.742570,340.60915 L -112.62662,374.38385 z "
         style="fill:#000000;fill-opacity:1.0000000;fill-rule:evenodd;stroke:none;stroke-width:1.0000000px;stroke-linecap:butt;stroke-linejoin:miter;stroke-opacity:1.0000000" />
      <path
         id="path20531"
         d="M -84.779936,367.44021 L -90.077856,327.20907 L -77.495286,324.89123 L -84.779936,367.44021 z "
         style="fill:#000000;fill-opacity:1.0000000;fill-rule:evenodd;stroke:none;stroke-width:1.0000000px;stroke-linecap:butt;stroke-linejoin:miter;stroke-opacity:1.0000000" />
      <path
         id="path20520"
         d="M -78.154548,325.30302 C -78.363356,330.26341 -91.237168,361.36968 -99.011250,365.02879 C -103.59185,357.16200 -98.828875,320.74716 -96.976476,315.77285 C -95.124076,310.79854 -76.674350,314.85815 -78.154548,325.30302 z "
         style="fill:#ffff00;fill-opacity:1.0000000;fill-rule:evenodd;stroke:#000000;stroke-width:4.2395320;stroke-linecap:butt;stroke-linejoin:miter;stroke-miterlimit:4.0000000;stroke-opacity:1.0000000" />
      <path
         id="path20523"
         d="M -94.645765,351.15354 L -91.165768,310.72456 L -78.379162,311.16754 L -94.645765,351.15354 z "
         style="fill:#000000;fill-opacity:1.0000000;fill-rule:evenodd;stroke:none;stroke-width:1.0000000px;stroke-linecap:butt;stroke-linejoin:miter;stroke-opacity:1.0000000" />
      <path
         id="path20517"
         d="M -78.657713,300.02096 C -79.082133,305.62338 -95.953257,340.33068 -105.62941,344.18327 C -110.99160,335.11769 -103.90698,294.10836 -101.46255,288.55061 C -99.018112,282.99286 -76.485513,288.26244 -78.657713,300.02096 z "
         style="fill:#ffff00;fill-opacity:1.0000000;fill-rule:evenodd;stroke:#000000;stroke-width:5.0000000;stroke-linecap:butt;stroke-linejoin:miter;stroke-miterlimit:4.0000000;stroke-opacity:1.0000000" />
      <path
         id="path13281"
         d="M -91.352257,288.49524 C -92.767742,293.80023 -86.670275,330.84990 -77.847758,337.25553 C -69.243005,330.44875 -65.756191,290.74794 -66.464141,284.89068 C -67.172091,279.03341 -89.719014,276.98443 -91.352257,288.49524 z "
         style="fill:#ffff00;fill-opacity:1.0000000;fill-rule:evenodd;stroke:#000000;stroke-width:5.0000000;stroke-linecap:butt;stroke-linejoin:miter;stroke-miterlimit:4.0000000;stroke-opacity:1.0000000" />
      <path
         id="path20525"
         d="M -101.12120,331.87521 L -97.641208,291.44623 L -84.854602,291.88921 L -101.12120,331.87521 z "
         style="fill:#000000;fill-opacity:1.0000000;fill-rule:evenodd;stroke:none;stroke-width:1.0000000px;stroke-linecap:butt;stroke-linejoin:miter;stroke-opacity:1.0000000" />
      <path
         id="path17859"
         d="M -80.287743,308.81179 L -85.585663,268.58065 L -73.003093,266.26281 L -80.287743,308.81179 z "
         style="fill:#000000;fill-opacity:1.0000000;fill-rule:evenodd;stroke:none;stroke-width:1.0000000px;stroke-linecap:butt;stroke-linejoin:miter;stroke-opacity:1.0000000" />
      <path
         id="path13273"
         d="M -104.86269,251.28227 C -106.27818,256.58726 -100.18071,293.63693 -91.358196,300.04256 C -82.753443,293.23578 -79.266626,253.53497 -79.974576,247.67771 C -80.682527,241.82044 -103.22945,239.77146 -104.86269,251.28227 z "
         style="fill:#ffff00;fill-opacity:1.0000000;fill-rule:evenodd;stroke:#000000;stroke-width:5.0000000;stroke-linecap:butt;stroke-linejoin:miter;stroke-miterlimit:4.0000000;stroke-opacity:1.0000000" />
      <path
         id="path17855"
         d="M -91.545838,279.67319 L -96.843758,239.44205 L -84.261188,237.12421 L -91.545838,279.67319 z "
         style="fill:#000000;fill-opacity:1.0000000;fill-rule:evenodd;stroke:none;stroke-width:1.0000000px;stroke-linecap:butt;stroke-linejoin:miter;stroke-opacity:1.0000000" />
      <path
         id="path13265"
         d="M -113.27709,208.97327 C -114.69258,214.27826 -108.59511,251.32793 -99.772593,257.73356 C -91.167840,250.92678 -87.681022,211.22597 -88.388972,205.36871 C -89.096924,199.51144 -111.64385,197.46246 -113.27709,208.97327 z "
         style="fill:#ffff00;fill-opacity:1.0000000;fill-rule:evenodd;stroke:#000000;stroke-width:5.0000000;stroke-linecap:butt;stroke-linejoin:miter;stroke-miterlimit:4.0000000;stroke-opacity:1.0000000" />
      <path
         id="path17849"
         d="M -100.65165,235.96529 L -105.94957,195.73415 L -93.367000,193.41631 L -100.65165,235.96529 z "
         style="fill:#000000;fill-opacity:1.0000000;fill-rule:evenodd;stroke:none;stroke-width:1.0000000px;stroke-linecap:butt;stroke-linejoin:miter;stroke-opacity:1.0000000" />
      <path
         id="path13257"
         d="M -121.74062,167.62382 C -123.15611,172.92881 -117.05864,209.97848 -108.23612,216.38411 C -99.631370,209.57733 -96.144553,169.87652 -96.852503,164.01926 C -97.560454,158.16199 -120.10738,156.11301 -121.74062,167.62382 z "
         style="fill:#ffff00;fill-opacity:1.0000000;fill-rule:evenodd;stroke:#000000;stroke-width:5.0000000;stroke-linecap:butt;stroke-linejoin:miter;stroke-miterlimit:4.0000000;stroke-opacity:1.0000000" />
      <path
         id="path13285"
         d="M -55.910461,329.27988 C -57.202781,334.74771 -51.635871,372.93463 -43.581021,379.53689 C -35.724991,372.52116 -30.056351,331.29223 -30.702701,325.25518 C -31.349051,319.21812 -54.419331,317.41574 -55.910461,329.27988 z "
         style="fill:#ffff00;fill-opacity:1.0000000;fill-rule:evenodd;stroke:#000000;stroke-width:5.0000000;stroke-linecap:butt;stroke-linejoin:miter;stroke-miterlimit:4.0000000;stroke-opacity:1.0000000" />
      <path
         id="path17865"
         d="M -45.520091,348.38068 L -50.818011,308.14954 L -38.235441,305.83170 L -45.520091,348.38068 z "
         style="fill:#000000;fill-opacity:1.0000000;fill-rule:evenodd;stroke:none;stroke-width:1.0000000px;stroke-linecap:butt;stroke-linejoin:miter;stroke-opacity:1.0000000" />
      <path
         id="path13277"
         d="M -69.717689,287.20791 C -71.010009,292.67574 -65.443101,330.86266 -57.388251,337.46492 C -49.532221,330.44919 -43.863581,289.22026 -44.509931,283.18321 C -45.156281,277.14615 -68.226561,275.34377 -69.717689,287.20791 z "
         style="fill:#ffff00;fill-opacity:1.0000000;fill-rule:evenodd;stroke:#000000;stroke-width:5.0000000;stroke-linecap:butt;stroke-linejoin:miter;stroke-miterlimit:4.0000000;stroke-opacity:1.0000000" />
      <path
         id="path17861"
         d="M -57.992151,312.73505 L -68.448149,273.52683 L -56.270971,269.60132 L -57.992151,312.73505 z "
         style="fill:#000000;fill-opacity:1.0000000;fill-rule:evenodd;stroke:none;stroke-width:1.0000000px;stroke-linecap:butt;stroke-linejoin:miter;stroke-opacity:1.0000000" />
      <path
         id="path13269"
         d="M -82.280026,241.93607 C -83.572346,247.40390 -78.005436,285.59082 -69.950586,292.19308 C -62.094551,285.17735 -56.425911,243.94842 -57.072261,237.91137 C -57.718611,231.87431 -80.788896,230.07193 -82.280026,241.93607 z "
         style="fill:#ffff00;fill-opacity:1.0000000;fill-rule:evenodd;stroke:#000000;stroke-width:5.0000000;stroke-linecap:butt;stroke-linejoin:miter;stroke-miterlimit:4.0000000;stroke-opacity:1.0000000" />
      <path
         id="path13271"
         d="M -61.872171,246.63535 C -63.164491,252.04927 -57.597581,289.85970 -49.542741,296.39686 C -41.686711,289.45030 -38.503291,248.93431 -39.149641,242.95677 C -39.795991,236.97923 -60.381041,234.88818 -61.872171,246.63535 z "
         style="fill:#ffff00;fill-opacity:1.0000000;fill-rule:evenodd;stroke:#000000;stroke-width:5.0000000;stroke-linecap:butt;stroke-linejoin:miter;stroke-miterlimit:4.0000000;stroke-opacity:1.0000000" />
      <path
         id="path17857"
         d="M -48.665741,267.91841 L -53.963661,227.68727 L -41.381091,225.36943 L -48.665741,267.91841 z "
         style="fill:#000000;fill-opacity:1.0000000;fill-rule:evenodd;stroke:none;stroke-width:1.0000000px;stroke-linecap:butt;stroke-linejoin:miter;stroke-opacity:1.0000000" />
      <path
         id="path17853"
         d="M -70.685250,273.05078 L -75.983170,232.81964 L -63.400601,230.50180 L -70.685250,273.05078 z "
         style="fill:#000000;fill-opacity:1.0000000;fill-rule:evenodd;stroke:none;stroke-width:1.0000000px;stroke-linecap:butt;stroke-linejoin:miter;stroke-opacity:1.0000000" />
      <path
         id="path13263"
         d="M -69.338472,207.64470 C -70.630792,213.05862 -65.063881,250.86905 -57.009041,257.40621 C -49.153011,250.45965 -45.969591,209.94366 -46.615941,203.96612 C -47.262291,197.98858 -67.847341,195.89753 -69.338472,207.64470 z "
         style="fill:#ffff00;fill-opacity:1.0000000;fill-rule:evenodd;stroke:#000000;stroke-width:5.0000000;stroke-linecap:butt;stroke-linejoin:miter;stroke-miterlimit:4.0000000;stroke-opacity:1.0000000" />
      <path
         id="path17851"
         d="M -57.274871,239.77318 L -62.572791,199.54204 L -49.990221,197.22420 L -57.274871,239.77318 z "
         style="fill:#000000;fill-opacity:1.0000000;fill-rule:evenodd;stroke:none;stroke-width:1.0000000px;stroke-linecap:butt;stroke-linejoin:miter;stroke-opacity:1.0000000" />
      <path
         id="path13259"
         d="M -60.073071,166.66870 C -61.365391,171.93738 -55.798481,208.73346 -47.743641,215.09525 C -39.887611,208.33505 -36.704191,168.90598 -37.350541,163.08881 C -37.996891,157.27163 -58.581941,155.23667 -60.073071,166.66870 z "
         style="fill:#ffff00;fill-opacity:1.0000000;fill-rule:evenodd;stroke:#000000;stroke-width:5.0000000;stroke-linecap:butt;stroke-linejoin:miter;stroke-miterlimit:4.0000000;stroke-opacity:1.0000000" />
      <path
         id="path17845"
         d="M -47.010141,195.07192 L -52.308061,154.84078 L -41.202771,157.54568 L -47.010141,195.07192 z "
         style="fill:#000000;fill-opacity:1.0000000;fill-rule:evenodd;stroke:none;stroke-width:1.0000000px;stroke-linecap:butt;stroke-linejoin:miter;stroke-opacity:1.0000000" />
      <path
         id="path13261"
         d="M -93.775751,206.73783 C -95.068071,212.20566 -89.501161,250.39258 -81.446312,256.99484 C -73.590282,249.97911 -67.921641,208.75018 -68.567992,202.71313 C -69.214342,196.67607 -92.284621,194.87369 -93.775751,206.73783 z "
         style="fill:#ffff00;fill-opacity:1.0000000;fill-rule:evenodd;stroke:#000000;stroke-width:5.0000000;stroke-linecap:butt;stroke-linejoin:miter;stroke-miterlimit:4.0000000;stroke-opacity:1.0000000" />
      <path
         id="path13253"
         d="M -77.802007,166.29525 C -79.094327,171.70917 -73.527417,209.51960 -65.472571,216.05676 C -57.616541,209.11020 -54.433121,168.59421 -55.079471,162.61667 C -55.725821,156.63913 -76.310877,154.54808 -77.802007,166.29525 z "
         style="fill:#ffff00;fill-opacity:1.0000000;fill-rule:evenodd;stroke:#000000;stroke-width:5.0000000;stroke-linecap:butt;stroke-linejoin:miter;stroke-miterlimit:4.0000000;stroke-opacity:1.0000000" />
      <path
         id="path17081"
         d="M -109.26078,199.95594 L -114.55870,159.72480 L -101.97613,157.40696 L -109.26078,199.95594 z "
         style="fill:#000000;fill-opacity:1.0000000;fill-rule:evenodd;stroke:none;stroke-width:1.0000000px;stroke-linecap:butt;stroke-linejoin:miter;stroke-opacity:1.0000000" />
      <path
         id="path17847"
         d="M -80.949984,233.15077 L -86.247904,192.91963 L -73.665334,190.60179 L -80.949984,233.15077 z "
         style="fill:#000000;fill-opacity:1.0000000;fill-rule:evenodd;stroke:none;stroke-width:1.0000000px;stroke-linecap:butt;stroke-linejoin:miter;stroke-opacity:1.0000000" />
      <path
         id="path12471"
         d="M -100.34308,165.38838 C -101.63540,170.85621 -96.068489,209.04313 -88.013639,215.64539 C -80.157609,208.62966 -74.488969,167.40073 -75.135319,161.36368 C -75.781669,155.32662 -98.851949,153.52424 -100.34308,165.38838 z "
         style="fill:#ffff00;fill-opacity:1.0000000;fill-rule:evenodd;stroke:#000000;stroke-width:5.0000000;stroke-linecap:butt;stroke-linejoin:miter;stroke-miterlimit:4.0000000;stroke-opacity:1.0000000" />
      <path
         id="path17843"
         d="M -65.454831,196.74239 L -73.735963,157.01790 L -61.361091,153.76888 L -65.454831,196.74239 z "
         style="fill:#000000;fill-opacity:1.0000000;fill-rule:evenodd;stroke:none;stroke-width:1.0000000px;stroke-linecap:butt;stroke-linejoin:miter;stroke-opacity:1.0000000" />
      <path
         id="path17841"
         d="M -87.646988,197.24320 L -95.605736,157.45286 L -83.204932,154.30429 L -87.646988,197.24320 z "
         style="fill:#000000;fill-opacity:1.0000000;fill-rule:evenodd;stroke:none;stroke-width:1.0000000px;stroke-linecap:butt;stroke-linejoin:miter;stroke-opacity:1.0000000" />
      <path
         id="path16222"
         d="M -78.047439,95.942549 C -78.047439,95.942549 -75.018529,115.83798 -80.319139,125.54308 C -87.512819,143.49749 -108.62718,139.27092 -111.36558,142.04171 C -115.82088,146.54974 -128.95845,158.20848 -123.74884,168.62770 C -123.31471,172.10077 -116.75797,162.57518 -110.48865,159.81643 C -104.21933,164.00695 -100.59236,167.37564 -100.59236,167.37564 L -89.103231,159.25859 L -77.895491,167.45349 L -66.832191,161.12001 L -55.769671,170.41652 L -45.799621,162.09207 L -47.569871,31.055029 C -52.870481,31.055029 -84.862519,12.478779 -90.163129,16.360819 C -95.463739,20.242849 -99.249889,37.226759 -92.813439,44.020329 C -86.376979,50.813879 -64.795921,77.017639 -64.795921,80.899659 C -64.795921,84.781689 -73.125449,95.457299 -78.047439,95.942549 z "
         style="fill:#ffff00;fill-opacity:1.0000000;fill-rule:evenodd;stroke:#000000;stroke-width:4.5288544;stroke-linecap:butt;stroke-linejoin:miter;stroke-miterlimit:4.0000000;stroke-opacity:1.0000000" />
      <path
         id="path16982"
         d="M -133.97627,44.631049 C -133.97627,44.631049 -139.50663,13.541109 -128.08522,9.6927288 C -107.82957,2.8676992 -87.426859,36.741509 -87.426859,36.741509 L -63.862641,78.473389 C -63.862641,78.473389 -71.062809,96.427799 -78.590279,94.486779 C -88.735989,100.30984 -106.62806,87.924189 -112.19184,80.645379 C -116.25406,75.330979 -126.59220,70.455029 -126.59220,70.455029 C -127.57404,71.425539 -123.31939,62.690979 -119.06474,63.661469 C -114.81010,64.631989 -90.699659,79.929149 -86.772299,82.355419 C -82.844919,84.781689 -78.981579,79.422539 -82.190369,73.620849 C -90.639319,58.344569 -115.97583,31.043929 -120.55776,32.499689 C -125.13969,33.955449 -133.97627,44.631049 -133.97627,44.631049 z "
         style="fill:#ffff00;fill-opacity:1.0000000;fill-rule:evenodd;stroke:#000000;stroke-width:4.2106557;stroke-linecap:butt;stroke-linejoin:miter;stroke-miterlimit:4.0000000;stroke-opacity:1.0000000" />
      <path
         id="path25704"
         d="M -86.173629,24.475219 C -73.693469,21.292869 -76.170989,31.043179 -56.510271,32.941609 C -53.811191,34.386959 -59.188021,38.003589 -68.054161,40.357839 C -79.891179,40.798349 -88.312469,26.794229 -86.173629,24.475219 z "
         style="fill:#000000;fill-opacity:1.0000000;fill-rule:evenodd;stroke:none;stroke-width:1.0000000px;stroke-linecap:butt;stroke-linejoin:miter;stroke-opacity:1.0000000" />
      <path
         id="path25706"
         d="M -65.612391,31.785769 L -73.735369,30.322399 C -73.735369,30.322399 -74.474329,30.351029 -75.993159,28.619849 C -76.893479,29.270159 -77.654899,30.043079 -78.002589,31.087009 C -78.972789,34.000049 -76.923269,37.149149 -73.433289,38.089719 C -69.943309,39.030289 -66.335971,37.405729 -65.365771,34.492699 C -64.906341,33.113259 -64.886251,33.006409 -65.612391,31.785769 z "
         style="fill:#ffff9e;fill-opacity:1.0000000;fill-rule:nonzero;stroke:#000000;stroke-width:0.99914175;stroke-miterlimit:4.0000000;stroke-dashoffset:0.00000000;stroke-opacity:1.0000000" />
      <path
         id="path22067"
         d="M -99.056860,147.70818 L -114.40026,159.57348 L -103.44270,165.96132 L -99.056860,147.70818 z "
         style="fill:#000000;fill-opacity:1.0000000;fill-rule:evenodd;stroke:none;stroke-width:1.0000000px;stroke-linecap:butt;stroke-linejoin:miter;stroke-opacity:1.0000000" />
      <path
         id="path22069"
         d="M -87.037327,146.78779 L -94.255706,162.49402 L -83.889051,164.15457 L -87.037327,146.78779 z "
         style="fill:#000000;fill-opacity:1.0000000;fill-rule:evenodd;stroke:none;stroke-width:1.0000000px;stroke-linecap:butt;stroke-linejoin:miter;stroke-opacity:1.0000000" />
      <path
         id="path22071"
         d="M -66.059531,148.22079 L -72.096089,165.25657 L -62.911261,165.29211 L -66.059531,148.22079 z "
         style="fill:#000000;fill-opacity:1.0000000;fill-rule:evenodd;stroke:none;stroke-width:1.0000000px;stroke-linecap:butt;stroke-linejoin:miter;stroke-opacity:1.0000000" />
      <path
         id="path22835"
         d="M -169.16377,497.82065 C -179.72171,544.85147 -154.76657,573.64586 -87.099778,541.97204 C -73.182488,529.01456 -66.943711,497.34074 -66.943711,497.34074 C -66.943711,497.34074 -128.37172,565.48745 -169.16377,497.82065 z "
         style="fill:#ffff00;fill-opacity:1.0000000;fill-rule:evenodd;stroke:#000000;stroke-width:5.0000000;stroke-linecap:butt;stroke-linejoin:miter;stroke-miterlimit:4.0000000;stroke-opacity:1.0000000" />
      <path
         id="path25115"
         d="M -67.903521,514.13747 C -67.903521,514.13747 -128.37172,561.16829 -156.68620,531.41410"
         style="fill:none;fill-opacity:0.75000000;fill-rule:evenodd;stroke:#000000;stroke-width:5.0000000;stroke-linecap:butt;stroke-linejoin:miter;stroke-miterlimit:4.0000000;stroke-opacity:1.0000000" />
      <path
         id="path26636"
         d="M -141.35601,567.81459 C -135.66416,574.54133 -119.10605,585.40759 -106.68746,585.40759 C -66.327071,588.51223 -54.425931,490.19845 -54.425931,490.19845 L -63.739871,488.12869 C -63.739871,488.12869 -94.268878,582.82038 -141.35601,567.81459 z "
         style="fill:#ffff00;fill-opacity:1.0000000;fill-rule:evenodd;stroke:#000000;stroke-width:5.0000000;stroke-linecap:butt;stroke-linejoin:miter;stroke-miterlimit:4.0000000;stroke-opacity:1.0000000" />
      <path
         id="path25875"
         d="M -102.93669,572.20614 C -84.220338,566.44726 -62.683541,505.74313 -58.844291,491.34594"
         style="fill:none;fill-opacity:0.75000000;fill-rule:evenodd;stroke:#000000;stroke-width:5.0000000;stroke-linecap:butt;stroke-linejoin:miter;stroke-miterlimit:4.0000000;stroke-opacity:1.0000000" />
      <path
         transform="matrix(0.876417,0.000000,0.000000,0.901317,-411.5489,-85.14195)"
         d="M 435.75499 619.72656 A 24.235271 21.835739 0 1 1  387.28444,619.72656 A 24.235271 21.835739 0 1 1  435.75499 619.72656 z"
         id="path22075"
         style="fill:#ffff00;fill-opacity:1.0000000;fill-rule:evenodd;stroke:#000000;stroke-width:6.1344633;stroke-miterlimit:4.0000000;stroke-dashoffset:0.00000000;stroke-opacity:1.0000000" />
      <path
         id="path28914"
         d="M -47.796431,608.76625 C -47.796431,608.76625 -59.481441,582.69048 -60.026691,569.85581 C -60.574651,556.95736 -48.225571,519.71069 -48.225571,519.71069 L -46.294471,522.17684 L -47.796431,608.76625 z "
         style="fill:#000000;fill-opacity:1.0000000;fill-rule:evenodd;stroke:none;stroke-width:2.5262871;stroke-linecap:butt;stroke-linejoin:miter;stroke-miterlimit:4.0000000;stroke-opacity:1.0000000" />
    </g>
    <path
       id="rect1293"
       d="M 239.93153,1.2381661 L 239.93153,598.76183 C 364.03137,598.63511 467.36226,496.88850 478.76184,366.60335 L 478.53095,1.2381661 L 239.93153,1.2381661 z "
       style="fill:url(#radialGradient35963);fill-opacity:1.0000000;fill-rule:nonzero;stroke:#000000;stroke-width:2.4763279;stroke-miterlimit:4.0000000;stroke-dashoffset:0.00000000;stroke-opacity:1.0000000" />
    <g
       transform="matrix(0.727165,0.000000,0.000000,0.829228,297.0964,27.70795)"
       id="g34987">
      <g
         transform="translate(-345.2486,-134.7762)"
         id="g34920">
        <g
           transform="matrix(1.789836,0.000000,0.000000,1.577884,37.85056,-797.8424)"
           id="g1805"
           style="fill:#000000;fill-opacity:1.0000000;stroke:#000000;stroke-width:2.9752662;stroke-miterlimit:4.0000000;stroke-opacity:1.0000000">
          <path
             id="path1807"
             d="M 158.37027,670.51248 L 187.94281,619.43038 L 217.52024,670.50730 L 158.37027,670.51248 z "
             style="fill-rule:evenodd;stroke-linecap:butt;stroke-linejoin:miter" />
          <path
             id="path1809"
             d="M 158.44289,635.52611 L 188.01543,686.60821 L 217.59286,635.53129 L 158.44289,635.52611 z "
             style="fill-rule:evenodd;stroke-linecap:butt;stroke-linejoin:miter" />
        </g>
        <g
           style="stroke:none"
           transform="matrix(1.652157,0.000000,0.000000,1.456508,63.73174,-718.5816)"
           id="g5781">
          <path
             id="path5011"
             d="M 158.37027,670.51248 L 187.94281,619.43038 L 217.52024,670.50730 L 158.37027,670.51248 z "
             style="fill:#ffff00;fill-opacity:1.0000000;fill-rule:evenodd;stroke-width:1.0000000px;stroke-linecap:butt;stroke-linejoin:miter;stroke-opacity:1.0000000" />
          <path
             id="path5015"
             d="M 158.44289,635.52611 L 188.01543,686.60821 L 217.59286,635.53129 L 158.44289,635.52611 z "
             style="fill:#ffff00;fill-opacity:1.0000000;fill-rule:evenodd;stroke-width:1.0000000px;stroke-linecap:butt;stroke-linejoin:miter;stroke-opacity:1.0000000" />
        </g>
      </g>
      <g
         transform="translate(-232.1515,-36.20053)"
         id="g34928">
        <g
           transform="matrix(1.789836,0.000000,0.000000,1.577884,37.85056,-797.8424)"
           id="g34930"
           style="fill:#000000;fill-opacity:1.0000000;stroke:#000000;stroke-width:2.9752662;stroke-miterlimit:4.0000000;stroke-opacity:1.0000000">
          <path
             id="path34932"
             d="M 158.37027,670.51248 L 187.94281,619.43038 L 217.52024,670.50730 L 158.37027,670.51248 z "
             style="fill-rule:evenodd;stroke-linecap:butt;stroke-linejoin:miter" />
          <path
             id="path34934"
             d="M 158.44289,635.52611 L 188.01543,686.60821 L 217.59286,635.53129 L 158.44289,635.52611 z "
             style="fill-rule:evenodd;stroke-linecap:butt;stroke-linejoin:miter" />
        </g>
        <g
           style="stroke:none"
           transform="matrix(1.652157,0.000000,0.000000,1.456508,63.73174,-718.5816)"
           id="g34936">
          <path
             id="path34938"
             d="M 158.37027,670.51248 L 187.94281,619.43038 L 217.52024,670.50730 L 158.37027,670.51248 z "
             style="fill:#ffff00;fill-opacity:1.0000000;fill-rule:evenodd;stroke-width:1.0000000px;stroke-linecap:butt;stroke-linejoin:miter;stroke-opacity:1.0000000" />
          <path
             id="path34940"
             d="M 158.44289,635.52611 L 188.01543,686.60821 L 217.59286,635.53129 L 158.44289,635.52611 z "
             style="fill:#ffff00;fill-opacity:1.0000000;fill-rule:evenodd;stroke-width:1.0000000px;stroke-linecap:butt;stroke-linejoin:miter;stroke-opacity:1.0000000" />
        </g>
      </g>
      <g
         transform="translate(-341.0802,63.49692)"
         id="g34942">
        <g
           transform="matrix(1.789836,0.000000,0.000000,1.577884,37.85056,-797.8424)"
           id="g34944"
           style="fill:#000000;fill-opacity:1.0000000;stroke:#000000;stroke-width:2.9752662;stroke-miterlimit:4.0000000;stroke-opacity:1.0000000">
          <path
             id="path34946"
             d="M 158.37027,670.51248 L 187.94281,619.43038 L 217.52024,670.50730 L 158.37027,670.51248 z "
             style="fill-rule:evenodd;stroke-linecap:butt;stroke-linejoin:miter" />
          <path
             id="path34948"
             d="M 158.44289,635.52611 L 188.01543,686.60821 L 217.59286,635.53129 L 158.44289,635.52611 z "
             style="fill-rule:evenodd;stroke-linecap:butt;stroke-linejoin:miter" />
        </g>
        <g
           style="stroke:none"
           transform="matrix(1.652157,0.000000,0.000000,1.456508,63.73174,-718.5816)"
           id="g34950">
          <path
             id="path34952"
             d="M 158.37027,670.51248 L 187.94281,619.43038 L 217.52024,670.50730 L 158.37027,670.51248 z "
             style="fill:#ffff00;fill-opacity:1.0000000;fill-rule:evenodd;stroke-width:1.0000000px;stroke-linecap:butt;stroke-linejoin:miter;stroke-opacity:1.0000000" />
          <path
             id="path34954"
             d="M 158.44289,635.52611 L 188.01543,686.60821 L 217.59286,635.53129 L 158.44289,635.52611 z "
             style="fill:#ffff00;fill-opacity:1.0000000;fill-rule:evenodd;stroke-width:1.0000000px;stroke-linecap:butt;stroke-linejoin:miter;stroke-opacity:1.0000000" />
        </g>
      </g>
      <g
         transform="translate(-233.9977,166.8869)"
         id="g34956">
        <g
           transform="matrix(1.789836,0.000000,0.000000,1.577884,37.85056,-797.8424)"
           id="g34958"
           style="fill:#000000;fill-opacity:1.0000000;stroke:#000000;stroke-width:2.9752662;stroke-miterlimit:4.0000000;stroke-opacity:1.0000000">
          <path
             id="path34960"
             d="M 158.37027,670.51248 L 187.94281,619.43038 L 217.52024,670.50730 L 158.37027,670.51248 z "
             style="fill-rule:evenodd;stroke-linecap:butt;stroke-linejoin:miter" />
          <path
             id="path34962"
             d="M 158.44289,635.52611 L 188.01543,686.60821 L 217.59286,635.53129 L 158.44289,635.52611 z "
             style="fill-rule:evenodd;stroke-linecap:butt;stroke-linejoin:miter" />
        </g>
        <g
           style="stroke:none"
           transform="matrix(1.652157,0.000000,0.000000,1.456508,63.73174,-718.5816)"
           id="g34964">
          <path
             id="path34966"
             d="M 158.37027,670.51248 L 187.94281,619.43038 L 217.52024,670.50730 L 158.37027,670.51248 z "
             style="fill:#ffff00;fill-opacity:1.0000000;fill-rule:evenodd;stroke-width:1.0000000px;stroke-linecap:butt;stroke-linejoin:miter;stroke-opacity:1.0000000" />
          <path
             id="path34968"
             d="M 158.44289,635.52611 L 188.01543,686.60821 L 217.59286,635.53129 L 158.44289,635.52611 z "
             style="fill:#ffff00;fill-opacity:1.0000000;fill-rule:evenodd;stroke-width:1.0000000px;stroke-linecap:butt;stroke-linejoin:miter;stroke-opacity:1.0000000" />
        </g>
      </g>
      <g
         transform="translate(-344.7728,264.7382)"
         id="g34970">
        <g
           transform="matrix(1.789836,0.000000,0.000000,1.577884,37.85056,-797.8424)"
           id="g34972"
           style="fill:#000000;fill-opacity:1.0000000;stroke:#000000;stroke-width:2.9752662;stroke-miterlimit:4.0000000;stroke-opacity:1.0000000">
          <path
             id="path34974"
             d="M 158.37027,670.51248 L 187.94281,619.43038 L 217.52024,670.50730 L 158.37027,670.51248 z "
             style="fill-rule:evenodd;stroke-linecap:butt;stroke-linejoin:miter" />
          <path
             id="path34976"
             d="M 158.44289,635.52611 L 188.01543,686.60821 L 217.59286,635.53129 L 158.44289,635.52611 z "
             style="fill-rule:evenodd;stroke-linecap:butt;stroke-linejoin:miter" />
        </g>
        <g
           style="stroke:none"
           transform="matrix(1.652157,0.000000,0.000000,1.456508,63.73174,-718.5816)"
           id="g34978">
          <path
             id="path34980"
             d="M 158.37027,670.51248 L 187.94281,619.43038 L 217.52024,670.50730 L 158.37027,670.51248 z "
             style="fill:#ffff00;fill-opacity:1.0000000;fill-rule:evenodd;stroke-width:1.0000000px;stroke-linecap:butt;stroke-linejoin:miter;stroke-opacity:1.0000000" />
          <path
             id="path34982"
             d="M 158.44289,635.52611 L 188.01543,686.60821 L 217.59286,635.53129 L 158.44289,635.52611 z "
             style="fill:#ffff00;fill-opacity:1.0000000;fill-rule:evenodd;stroke-width:1.0000000px;stroke-linecap:butt;stroke-linejoin:miter;stroke-opacity:1.0000000" />
        </g>
      </g>
    </g>
  </g>
</svg>