<svg><title>Herb Kisielice</title><path d="M537.265 0v460.641c0 355.953-537.265 355.953-537.265 0V0zM281.484 224.598c-36.242 0-65.804-29.559-65.804-65.801s29.558-65.8 65.804-65.8c36.242 0 65.801 29.558 65.801 65.8s-29.559 65.801-65.801 65.801" style="stroke:none;fill-rule:evenodd;fill:#ec2a32"/><path d="m174.469 504.676 15.683 1.012c.778-7.25-1.691-9.305-6.375-11.07-5.34.418-6.68 5.433-9.308 10.054zm33.679-9.883c-3.738 3.95-5.324 5.438-4.636 10.965l15.636-.359c-1.902-6.762-4.019-9.527-11-10.606m30.348 9.485-5.887.336c5.223-7.242 5.039-22.946-7.566-24.344-2.938-.344-5.879-.129-8.817.469l17.969-18.914 1.656-2.09c1.145 7.656 4.137 13.633 7.282 19.465l9.496-8.493c3.25-2.652 5.918-7.519 5.351-14.355l-1.101-12.137 1.468.758.211 1.02 1.219 9.168.391 7.054c8.34-6.554 12.387-15.394 11.363-26.129-.398-5.574-1.344-11.343-2.797-13.746l-.058-1.746 2.078.199c2.969 6.446 3.351 13.293 3.199 19.739 4.855-7.438 9.348-15.168 13.07-26.106.953-2.523.922-5.199-1.59-7.726-3.347-4.457-6.57-6.871-9.625-8.793-4.089-1.696-2.39-3.383.227-2.047 6.809 3.004 11.23 7.926 14.566 13.719 9.559 16.378 11.399 34.992 2.34 57.878l6.293-4 1.254 1.168c-1.871 7.528-21 21.168-26.933 26.086-19.071-8.699-36.602 1.766-35.079 13.578zm65.637-241.516c-8.043-4.492-20.184-25.769-17.118-32.16 3.536 1.332 8.86 2.316 11.629 3.563-1.847-7.102-3.953-14.333-5.289-21.434.215-3.934.305-7.867.524-11.801 1.203-10.297 2.129-17.047 12.539-22.219 11-4.132 21.258-10.5 25.781-18.683-31.816 4.304-30.945-36.235-69.195-9.176-15.559-21.191-42.059-7.746-37.801 23.273 8.82-17.937 23.309-24.109 37.496-8.781 4.426 4.942-.25 5.785-1.867 3.406-10.422-12.511-21.887-12.062-31.442 4.059q8.509-2.556 15.993-.98c18.066 4.757 8.097 17.691-5.875 31.796-9.653 6.934-18.149 13.348-27.285 21.704 7.285-.325 14.449-.395 21.738-.723q-10.354 9.973-17.625 20.976l-1.403 1.614c-25.71-15.645-33.886-42.774-35.496-75.121 4.18-42.438-18.097-47.539-33.656-44.758-37.359 9.543-45.699 61.941-37.355 124.426 16.929 101.304 39.867 113.109 57.421 169.656 4.012 13.68 8.176 25.402 9.067 32.691 10.101-15.265 11.199-52.578 5.883-76.906l1.894-.398c1.785 5.222 4.34 10.961 8.586 17.836.758-21.032 7.473-35.817 5.805-43.989l1.168-1.304 1.715 3.609c3.675 9.066 7.855 17.18 13.168 25.293 2.863-10.149 5.679-20.785 5.015-31.399 4.875 13.43 9.664 28.922 19.375 42.739l.731 3.078-.969-.317-.918-.804c.363 14.715-8.809 20.715-9.238 26.152 2.48-.551 5.609-1.465 8.097-3.066l.649-.203-.067 2.058c-5.808 6.086-9.812 8.789-19.773 12.867 4.438 3.215 10.312 2.887 16.25.094l1.695-.305-.211 1.758c-8.437 5.68-16.089 13.731-24.605 19.078 4.309 1.52 9.285 1.368 14.719.071-8.77 8.453-19.461 19.379-30.496 29.078-3.774-3.637-8.422-5.985-15-5.488-12.832 1.058-23.387 16.996-16.282 28.984-34.593-6.602-53.605-25.352-66.898-45.141l-14.84 28.317-30.988-.203c25.511 46.613 58.32 64.984 94.812 69.07 30.344 3.488 60.336 4.508 90.239 4.277 79.3-.035 141.417 2.973 174.152 82.145l13.949-33.86 40.77 13.782c-15.516-32.965-37.512-64.961-76.555-90.692-24.324-14.949-40.785-20.789-71.047-25.59-1.269-8.351-6.652-11.429-13.523-13.449 4.8-6.562 9.089-14.14 20.339-20.246l2.286-1.129c5.972 6.25 26.902 15.949 28.281 7l1.535-.269c6.695 9.601 14.594 16.906 24.856 19.668 7.339 1.566 9.222-1.661 6.785-2.961l2.339-.067c5.696 3.739 11.606 6.074 17.77 6.707 6.656-1.152 4.734-5.789 2.625-8.648l3.063.887 3.066 1.48c.418-6.352-.293-15.723-2.195-20.519l-.633-2.059c3.543-5.063 7.23-12.742 8.191-16.594-13.48-3.676-44.859-40.781-55.441-51.398-.25-12.715-.86-24.996-4.766-37.239 2.293-5.175 4.399-10.55 5.813-16.613 3.613 20.938 14.953 46.352 27.16 49.543-1.059-9-.723-17.5-1.254-26.504l1.977-.062c2.988 17.652 15.425 36.05 24.218 51.437 3.121-7.445 5.856-17.703 7.094-32.254l2.074-.515c3.403 21.715 11.004 35.75 20.543 44.675 4.305-43.582 24.602-66.957 12.91-130.75-11.097-69.476-30.472-114.777-56.703-140.043-24.234-12.789-42.277-5.886-46.39 30.024-2.141 22.609 1.058 42.949-22.235 55.715-8.676 4.656-18.273 9.066-29.351 13.066l-2.024-.824zm-28.582-111.695c6.097-3.84 12.464-4.508 18.957 3.691 6.859 6.946 12.582 6.348 14.222 7.492-2.129.645-4.601.969-8.726-.226-5.356-1.863-7.039-.211-8.668.976-3.805 1.918-6.617 1.094-7.977-3.746-1.488-3.992-4.019-6.804-7.808-8.183zm-9.211 2.152c-.867-2.375 2.109-3.125 2.82-.586.934 4.094-.813 6.641 1.234 11.324 4.856 5.762 3.301 8.676 5.016 15.122-3.23-3.922-2.387-8.844-5.621-11.95-5.289-4.433-1.609-8.168-3.453-13.914" style="stroke:none;fill-rule:evenodd;fill:#d1b179"/><path d="M304.133 262.762c-6.348 1.996-14.387-.387-23.825-7.347-4.351 9.691-10.093 18.582-19.394 20.976 5.527-13.625 6.062-22.609 3.398-30.156-13.675 10.41-27.285 20.117-40.144 24.582 2.258-10.379 5.765-20.758 10.769-31.141-6.199 2.801-12.398 5.531-18.601 5.899l-1.352 1.722c4.395.59 11.156-1.382 16.567-4.347-3.461 7.175-6.469 13.089-8.754 22.804-2.844 10.985 3.25 7.137 7.898 4.782 10.418-5.442 25.317-13.754 32.699-21.762 1.235 4.422.829 13.398-3.761 24.371-2.118 5.277-3.16 6.484 4.277 4.512 4.5-1.84 13.156-8.68 16.832-19.7 10.527 6.79 17.355 8.79 25.711 5.543l-2.32-.746zm-150.207 44.695c1.687-1.105 3.379-3.062 4.468-4.683 9.813 24.406 15.778 46.34 22.407 74.519l1.871-.421c-4.953-19.063-10.739-47.555-23.293-76.075 1.519-3.168 2.281-6.343 2.426-9.41 1 2.836 6.996 20.844 11.886 28.582 3.871-3.914 8.274-17.883 8.84-22.039 6.027 16.906 11.684 37.258 14.621 52.867l1.434-.601c-.852-7.012-1.68-9.867-2.242-13.055 5.953-3.777 8.843-14.473 8.859-30.184 2.902 1.79 4.574 2.446 6.34 2.735.961 10.57 2.402 22.055 5.269 32.629.571 2.152 2.27 1.433 1.411-.86-3.059-13.859-5.286-25.629-5.032-39.687-5.273-.399-7.941-12.637-5.594-16.469 1.969 1.824 4.098 2 5.727 2.125 2.231-.074 2.527-1.863.945-1.598-3.203-.07-5.277-.75-7.046-3.421-12.219 8.187-25.211 2.136-25.02-18.11-16.938 10.606-23.777-14.847-13.98-26.48-22.399 4.304-15.79-16.821-9.575-29.547-20.836 7.543-20.433-20.695-7.851-31.914-12.098-5.621-12.953-16.43-.008-26.531-12.609 4.668-15.816 20.675-2.375 27.121-11.43 10.8-12.289 38.019 7.355 33.504-6.054 12.933-9.714 31.175 9.192 29.125-6.625 9.339-3.465 34.109 15.84 27.668.277 16.343 11.675 25.328 25.011 17.656-2.816 6.328 1.172 16.707 5.461 18.23l.133 4.449c-1.57.168-5.051-1.503-7.758-3.703-.043 7.528-.566 27.641-7.984 31.817-1.039-3.449-7.836-33.426-13.797-42.145-2.094 7.856-4.941 17.949-8.215 23.074-4.254-9.496-8.476-20.386-12.289-31.722-1.328 8.683-2.828 17.265-6.988 19.664-8.731-11.27-12.477-25.68-17.672-43.461-1.707 11.074-2.781 22.141-5.113 29.551-6.379-11.211-11.782-24.59-16.809-37.051 1.113 7.797 13.664 39.965 17.352 41.051 3.125-6.516 4.519-16.739 5.242-23.645 3.664 11.422 7.125 23.758 16.535 36.445zm231.687-73.082c3.625 6.25.293 28.375-13.883 26.7 1.758 18.507-17.265 38.484-29.89 20.703-2.313 7.551-13.125 23.453-22.102 13.734.461 19.09-12.379 2.555-14.957-1.473.145 6.161 3.637 11.102 7.77 16.047-6.883-1.781-11.883-16.089-8.598-20.519 2.621 4.066 15.824 25.246 14.27 2.465 6.183 7.57 15.019 4.633 23.179-13.075 12.336 17.735 29 1.204 28.336-20.175 13.285 2.824 17.719-16.434 12.965-25.782 12.422-3.046 15.199-18.461 10.449-29.527 1.715-1.594 1.735-4.004 1.656-10.051 2.547 3.305 1.399 7.239 1.2 9.856 4.144 11.613 2.246 26.23-10.387 31.101zm38.008 47.122c12.84-30.618-2.066-69.176-17.586-94.965 14.676 30.383 25.012 62.875 16.598 89.199-6.5-10.445-10.618-25.762-15.586-43.582-.52 7.137 4.968 37.808 16.57 49.344zm-92.289 74.355c-3.813-1.867-5.289-9.266-4.996-11.215-4.063 2.746-10.469-20.918-10.508-22.578.734.961 7.715 22.223 11.019 19.727 3.559-2.34 8.649-17.157 8.766-21.891 3.168 4.992 8.555 12.336 12.012 14.762 4.797-3.504 5.785-20.653 6.254-26.203 2.39 3.464 6.957 5.347 7.742 4.886.129-10.402 1.266-23.64 4.898-28.547-1.265 6.434-2.234 13.02-2.714 19.852l-.071 20.516q1.173 12.135 2.352 24.277c-.586 14.758-12.5 25.539-17.028 28.008-10.093-3.074-16.707-20.031-17.726-21.586zm30.426-25.633c-.957 4.567-6.461 18.082-11.305 23.836-2.941-2.523-6.691-10.273-9.344-15.398 1.199 8.293 6.117 14.941 9.156 17.949 5.758-5.496 11.063-18.617 12.102-23.336.5 5.836 1.121 13.105 1.637 16.391-1.367 9.796-5.473 18.175-15.09 25.281-8.098-2.512-14.457-17.027-16.297-20.949 2.246-3.551 3.625-8.157 4.578-12.321.899-4.476-1.601-3.75-1.687-.183-.336 1.843-2.215 8.949-4.25 11.566-2.043-1.07-3.907-7.926-2.352-9.308 3.16-6.352 6.734-12.602 7.801-19.629 1.758 3.91 6.117 9.722 10.992 12.785 6.199-3.434 7.074-19.09 7.356-25.328 2.031 2.359 4.941 3.238 6.546 3.547-.007 4.203.539 10.578.149 15.093zm32.234 42.02-1.965.058c.238-27.203-2.961-60.109-13.402-85.492-1.028-1.933.93-2.144 1.922-.726 11.269 27.488 13.812 54.988 13.445 86.164zm33.406 18.687-2.07.5c.273-35.64-6.254-77.008-13.609-99.976-.778-1.618 1.339-3.028 2.058-.262 7.25 20.418 14.567 61.863 13.621 99.742zm-189.879-1.39c3.137 3.98 6.696 6.89 9.836 10.875 1.481 1.519.383 2.433-.531 1.484-4.625-4.207-7.207-7.168-10.344-10.438 1.012-.117 1.16-.593 1.043-1.921zm-2.281 25.078c1.762-.949 5.356-4.91 6.887-6.75.863-1.008 1.508-.082.844.75-1.664 2.371-5.129 5.808-7.161 7.847-.234-1.129.61-1.195-.57-1.847m-2.965 14.781c1.785-.727 2.867-2.793 5.02-2.356-1.219 1.543-2.465 2.75-3.492 3.829-.411-1.02-.727-1.231-1.524-1.473zm2.7 16.242c-2.559 1.59-6.489 3.113-9.411 4.137 1.039.34 6.137-.863 7.176-1.301.875 3.613 2.199 8.535 3.129 11.344-1.879-7.43-.77-12.328-.891-14.18zm35.843-24.64c-.691-1.661-1.429-3.325-2.422-4.821-.851-1.254-2.687-.574-1.843 1.02.714 1.566 1.644 3.437 2.277 5.343-.242-1.25.922-1.937 1.984-1.546zm-12.219 25.015-.796-9.176c-.133-1.461-1.61-2.297-1.485-.304.125 2.644.481 5.215.602 7.82.57.059 1.101.613 1.676 1.66zm-8.238 57.469c.625 1.473 1.25 2.84 1.875 3.441-3.699 2.594-5.914 5.649-7.652 8.246-1.102-2.687-1.246-9.136 5.777-11.687m49.414 5.273c-1.457-1.707-3.605-5.035-5.066-6.746-6.641-1.074-9.238 2.875-9.848 5.465 5.184-3.012 10.754-2.918 14.918 1.281zm-.519-45.3 1.203 1.199c5.277-3.442 9.777-6.512 13.055-9.797.503 5.262 4.015 10.414 9.578 15.965l1.648-.989c-4.961-4.296-9.41-10.058-10.5-18.21-3.566 4.882-10.117 8.093-14.988 11.835zm61.886-39.797c-4.55-5.961-10.148-13.125-12.968-19.832-.578-1.512-1.852-.95-.965 1.683 2.445 5.551 6.492 11.469 11.004 17.309 1.16 1.855.699 2.609-2.871 2.133-8-1.801-13.164-4.2-17.035-6.868-.575 12.438 6.601 22.481 12.968 30.977-9.324-.402-13.965-3.387-17.937-6.738 1.574 12.988 10.726 25.105 19.511 34.652.75-.32 1.028-.215 1.782-.363-6.406-6.649-17.074-19.508-19.035-30.653 4.171 3.04 8.972 4.008 14.191 4.856 5.785 10.476 20.344 28.953 36.57 42.519l2.274-.062c-13.864-11.141-27.981-27.543-37.391-42.539 1.336.359 2.672.23 4.012.133-.621-.84-2.281-2.117-2.82-2.961-3.895-5.27-12.598-16.082-12.477-27.199 3.559 2.996 12.273 5.335 18.027 6.406-.152 3.277-.367 7.394 3.188 12.945 10.265 15.024 33.121 38.328 47.926 51.309l2.894.797c-15.476-15.329-53.605-49.512-52.637-62.559-.144-1.441.688-3.547 1.465-4.063l3.094 3.821c12.84 13.699 30.379 30.578 49.043 43.812l-.645-2.07c-19.453-15.09-33.738-29.195-51.171-47.441zm-192.417 81.761 5.394-9.285c-2.566-1.41-10.031 1-7.703 4.508zm155.015 55.039c-59.812-9.203-90.848-3.82-155.918-6.82-53.422-4.738-91.426-27.691-111.023-64.133l26.308.297 12.118-24.64c15.66 24.871 46.132 45.632 94.55 44.941-.535 1.687 2.395 3.035 3.418 5.789 9.27-.391 11.571-3.039 11.461-5.488l14.852-.524c.758.348.734 2.067.547 2.528 5.91-.832 7.781-2.258 10.078-3.196 2.449-.554 7.136-.386 8.519-.437.891 3.754 2.895 8.828 4.957 11.015 18.696-17.632 31.254-6.183 38.985-7.511 12.379-3.012 18.582-.613 15.757 9.691 4.774-2.937 15.442-5.703 17.297-12.312 45.321 5.152 101.86 36.179 136.547 100.097l-33.578-11.578-11.824 28.203c-16.602-33.472-42.813-56.976-83.066-65.91" style="stroke:none;fill-rule:evenodd;fill:#fffdfd"/><path d="M157.726 511.84c-5.195 1.711-7.902-1.843-10.257-6.156-3.262 1.922-8.055 3.207-15.094 3.551-.137 1.797 1.238 2.941 3.301 3.789q-.705 1.953-1.414 3.906l.117 1.418c-3.91 1.774-5.875 3.117-6.957 4.262 4.222-.758 8.652-1.821 9.668 2.25q.645 1.775 1.297 3.551c.351-.036.707-.075 1.058-.118q-.586-2.424-1.18-4.855c1.649-.035 3.301-.078 4.95-.117l-3.418 9.355c-7.25-4.508-11.887-4.332-14.739-.945-1.66 6.785 2.84 10.578 11.555 12.316l.703-2.722c-4.183-.313-7.289-2.368-9.902-5.211-1.301-1.262-1.977-2.449 1.766-3.078 3.144-.797 6.289 1.73 9.433 4.734 4.086-.078 7.781-.551 10.61-1.895q-3.3-2.782-2.356-5.566l2.004-5.445q3.773 1.833 6.602-.117c-.075-.313-.157-.629-.235-.946-2.355-.152-4.754-.777-7.426-4.734q-1.293.175-2.593.355c-.391.391-.786.785-1.176 1.184-2.121.766-4.047.848-5.543-.59q1.706-4.381 3.418-8.762c3.851 7.125 12.027 5.903 15.801.59zm.235 30.438c.191-2.09.66-4.184 3.062-6.274q-1.294-1.06-2.593-.234c-1.387-1.242-2.715-2.688-5.067-.707-1.551 1.476-2.023 2.859-.117 4.023l4.715 3.196zm23.465-27.239q1.001 2.603 6.25 3.313c-3.516 4.41-4.579 8.535-6.012 13.738-.899 2.711-1.512 5.528.469 6.629l1.648 2.012-3.418 2.129c-3.105-2.77-5.109-2.488-6.953-1.774-2.945 1.145-2.789 3.313 1.531 4.379.117 1.301-1.019 1.813-3.418 1.539-4.777-3.136-2.808-8.664 4.242-8.882-.273-5.899 1.176-12.02 3.418-18.239-7.113-.375-7.308 3.61-4.359 4.379-2.437 2.012-6.051 1.262-5.894-2.367.742-4.301 9.156-3.273 12.496-6.867zm12.972 11.016-2.593.234q-5.069 13.442 2.121 15.985c1.453-.231 2.793-.664 3.3-2.485 5.403-4.925 4.008-7.96 3.536-11.25-1.356 3.118-2.219 6.235-2.004 9.356q-.763.233-1.532.473c-.382-3.079.383-7.184 2.829-12.789l-1.649.351c-2.344 4.363-2.644 8.391-3.062 12.434q-1.945-.234-3.891-.473c.98-3.945 1.965-7.894 2.945-11.84zm-1.058-1.543c3.449-.324 6.886-.75 10.019-4.262l1.887 1.657c2.172 9.132-2.141 21.629-12.027 23.211-6.372-1.149-9.231-7.102-8.372-14.805.532-2.473 3.333-10.449 12.852-11.25 2.75.234 2.512 2.211-.707 2.367l-3.652 3.078zm24.761 7.461q-.177-4.085-1.765-7.695c-1.61 2.406-2.789 4.812-3.774 7.222 1.848.512 3.696.59 5.543.473zm1.887-11.605c.981-.508 1.887-1.141 2.238-2.606l2.473 1.184c-2.238 1.144-3.223 2.761-2.945 4.855 2.633 5.524-1.215 18.039 7.898 16.578-1.883 3.453-8.527 6.692-9.785 2.485-1.098-1.973-1.02-4.657-1.531-6.985h-7.192c-.703 1.301-1.414 2.602-2.121 3.907-.797 2.613 2.27 2.175 5.895 1.3-.942 1.895-1.176 3.196-1.18 5.09-2.277-1.144-4.793-1.695-7.074-2.84-2.074 1.579-5.988 5.731 4.598 3.079v1.539c-5.629 2.418-8.219 1.226-10.375-.473-1.887-3.176-1.414-5.664 4.242-6.629q4.477-9.236 8.961-18.473c-3.43-1.027-6.657 1.891-3.184 4.024-.351.394-.703.785-1.059 1.183-3.597-2.121-3.796-6.168.469-8.406 3.223-2.09 6.446-1.144 9.668 1.184zm20.52-1.301-1.176 5.566c3.183-.57 5.973-1.836 7.898-4.617 2.907 1.934 5.817 3.633 8.723 3.668.234.352.469.711.707 1.063q-2.063.766-4.125 1.539c-1.965 10.441-2.828 14.468.707 14.328 2.082-.035 4.008-.551 5.777-1.535-.074.273-.156.55-.234.828-6.73 6.293-9.32 5.656-11.32 4.023-1.715-1.355-1.387-4.762-1.176-8.051q.468-3.845.941-7.695c.278-2.449.594-4.465-.707-4.379l-3.418 1.656q-.821 11.128-1.648 22.262l-2.004.234c-11.59-3.214-11.609-.164-10.375 1.063 2.492 1.023 5.48 1.457 9.551.59v1.418c-9.196 1.422-12.34-.196-12.735-3.196-.39-2.402.961-5.375 13.559-2.605.508-6.312 1.02-12.633 1.531-18.945l-2.238.707c-1.137 6.156-1.297 11.328-1.176 16.222-1.965-.964-3.93-.847-5.894-.234 1.57-3.156 1.257-10.816 1.886-16.223-4.949-.945-7.074-3.789-6.367-8.523.547-.035 1.098-.078 1.649-.117-.454 6.558 10.035 3.144 11.671.945zm18.16.945c2.863 2.688 6.047 4.824 11.437 3.078l1.887-.234c-.035.867-.078 1.734-.117 2.605 4.773-.254 6.738-1.597 7.426-3.433 2.355 2.187 5.5 3.492 10.375 2.84l.468 1.3c-1.726.946-3.457 1.34-5.187 1.657-3.238 10.047-5.133 18.464 2.355 15.511q.235.47.469.946c-3.379 3.117-8.766 3.629-10.141-.59-1.414-2.973.243-9.656 2.004-16.461l-2.945.351c-2.769 7.661-3.027 13.887-3.535 20.25q-.471.587-.941 1.184c-13.387-3.062-9.508-.176-8.727.234 4.707 1.461 7.57.766 10.375 0q.467 1.003.941 2.012c-5.043 1.242-14.57 1.195-14.621-3.195-.234-1.934 3.141-2.762 10.141-2.485l2.355-16.695-2.476.235c-1.114 4.871-2.391 9.726-.942 14.921-3.078-.625-5.187.051-7.308.707 2.008-2.988 2.633-9.859 3.062-17.289-5.523.446-5.449-4.16-7.308-6.629.312-.273.629-.55.941-.828zm45.281 3.672c-2.711.195-5.422.395-8.137.59q-2.296 2.192-4.597 4.379c-6.645 9.816.297 20.605 6.718 21.316 9.274.946 11.122-3.668 16.86-4.379q-.53-.825-1.059-1.656c-3.34-.41-5.383.254-6.84 1.422q.646-4.794 1.297-9.594 1.53.233 2.121 1.422v1.184q.41.585.825 1.183c3.582-.785 6.574-1.73 5.421-3.789-.804-1.301-1.707-2.406-2.828-3.078q-2.474.766-4.949 1.539l.234-4.023c3.731 1.422 6.879.867 8.723-4.024-.273-.394-.547-.785-.824-1.183-4.762 3.168-7.039 1.347-8.961-1.184h-1.18c-2.633 3.707-10.101 6-9.312 7.223-.309.824 3.894-1.227 3.301.711-.309 3.464-.657 6.918-2.239 10.066-.804 3.57 2.571 2.82 5.539-.473l1.766-10.421q.588-2.25-1.648-2.606.762-.709 1.531-1.418l1.176 2.367q-.945 7.22-1.883 14.446c.207 4.808-4.969 2.664-7.309.472-3.855-3.168-4.371-9.933-1.887-13.5.942-2.367 2.438-4.105 4.008-5.211q2.18-.233 4.36-.472l-.235-1.301zm25.117-3.551c.313 7.305 6.207 11.289 13.914 5.922v.59c-4.851 7.5-9.922 7.184-15.093 3.312l-.942 9.118c5.149 1.062 9.352-.395 12.617-4.383q-.703 2.308-1.414 4.617c.668 1.91 1.766 3.176 3.063 4.145-5.129.117-4.856 4.734-2.121 7.105-3.575.176-6.367 1.043-7.43 3.434-8.676-6.692-13.145-5.184-12.617-2.961 1.215 2.781 5.461 3.609 11.082 3.55l-.942 2.84c-13.144-2.777-13.015-5.234-13.089-7.695.453-2.297 6.437-5.848 14.976-1.301-.156-2.406.153-4.816.942-7.222h-5.188l.234 4.261q-1.352-3.61-4.597-5.328h-4.598c-1.41-1.992 8.024-7.879 1.414-11.961q-1.234-1.715.824-1.539c4.934-.57 7.489-3.098 8.961-6.512" style="stroke:none;fill-rule:evenodd;fill:#d1b179"/></svg>