<svg xmlns="http://www.w3.org/2000/svg" style="shape-rendering:geometricPrecision;text-rendering:geometricPrecision;image-rendering:optimizeQuality;fill-rule:evenodd;clip-rule:evenodd" viewBox="-739.25 -854.19 22484.94 25826.16"><title>Herb Szydłów</title><defs><style>.fil4{fill:none}.fil3{fill:#fecc00}.fil1{fill:#fefefe}.fil2{fill:#2b2a29;fill-rule:nonzero}</style></defs><g id="Warstwa_x0020_1"><path d="M20912.92 13822.52c-79.71 2563.8-964.06 4803.06-2633.99 6713.96-2013.45 2207.01-4549.15 3408.78-7402.84 3474.72-3062.88 86.36-5983.08-1151.5-8078.01-3468.65C1826.79 19342.77 93.7 17336.67 93.7 13813.41c0-863.38-.17-13711.08-.17-13711.08h20819.39z" style="stroke:#2b2a29;stroke-width:88.33;stroke-miterlimit:22.9256;fill:#e31e24"/><g id="_2853044767488"><path d="M9906.95 3340.73c330.52 467.59 459.48 801.86 443.62 1197.16-31.53 786.16-595.82 1272-595.82 1272s277.11 1586.66-39.72 2395.92c-360.25 920.24-1423.22 798.91-1574.94 332.9-1720.28-5284.07-3043.87 103.96-2921.01 964.16 243.29 1703.08 245.78 1966.18 245.78 3809.48 0 2019.54-870.06 3937.28-614.43 3809.48 491.49-245.7 983.09-737.3 1351.75-1474.61 185.97-285.32 500.31 82.53 737.31-864.46 753.96-185.83 573.47-570.56 860.21-855.98 61.96-185.95 737.32-245.77 1105.98-1966.18-446.89 1803.26-23.3 2529.03 368.65 3317.93 759.98 1529.72 737.27 2089.1 245.78 2949.28-150.51 263.39-413.15 491.54-737.32 860.2 245.77 245.77 737.32 368.66 1105.98 368.66-368.66 1351.75 122.88 2211.95 614.43 2949.27 491.54-737.32 983.09-1597.52 614.43-2949.27 368.66 0 860.21-122.89 1105.98-368.66-324.18-368.66-586.81-596.81-737.32-860.2-491.5-860.18-514.21-1419.56 245.77-2949.28 391.96-788.9 815.55-1514.67 368.66-3317.93 368.66 1720.41 1044.02 1780.23 1105.98 1966.18 286.74 286.75 106.22 671.75 860.2 860.21 266.27 959.69 580.35 455.32 737.32 860.2 368.66 737.32 860.23 1228.91 1351.75 1474.64 255.65 127.82-614.43-1789.94-614.43-3809.48 0-1843.3 2.48-2106.37 245.77-3809.48 122.89-860.2-1106.05-6267.18-2826.38-983.09-144.84 444.87-499.73 1055.84-931.97 143.29-248.48-524.65-57.2-1454.46 12.43-2252.26 90.77-1039.94-516.39-1347.95-516.39-1347.95 369.03 9.47 879.99 0 879.99 0-84.47-133.23-261.26-138.24-322.01-395.74-200.23-848.5-1183.08-2221.44-2176.03-1326.39" class="fil1"/><path id="1" d="m10394.7 4539.66-88.26-3.54 1.03-35.88.2-35.52-.64-35.21-1.51-34.93-2.36-34.7-3.24-34.5-4.11-34.36-5-34.25-5.91-34.18-6.81-34.13-7.75-34.16-8.69-34.22-9.63-34.32-10.59-34.43-11.58-34.62-12.57-34.82-13.57-35.09-14.59-35.36-15.61-35.68-16.67-36.06-17.72-36.44-18.8-36.89-19.87-37.34-20.98-37.85-22.07-38.39-23.2-38.95-24.32-39.56-25.48-40.19-26.62-40.88-27.79-41.58-28.96-42.32-30.15-43.09 72.14-50.98 30.65 43.81 29.48 43.1 28.35 42.4 27.22 41.78 26.08 41.17 24.96 40.6 23.86 40.07 22.77 39.57 21.68 39.13 20.59 38.7 19.52 38.31 18.46 37.96 17.41 37.66 16.37 37.38 15.31 37.14 14.29 36.93 13.27 36.76 12.24 36.62 11.23 36.51 10.23 36.44 9.23 36.38 8.25 36.38 7.27 36.39 6.29 36.44 5.34 36.51 4.39 36.62 3.44 36.76 2.52 36.92 1.59 37.13.68 37.35-.2 37.6zm-596.44 1262.63-87.02 15.2 14.69-41.07 1.06-.92 4.37-3.92 7.24-6.65 9.89-9.33 12.37-12.02 14.68-14.68 16.76-17.28 18.64-19.87 20.33-22.4 21.82-24.91 23.1-27.38 24.18-29.81 25.08-32.22 25.75-34.56 26.24-36.9 26.53-39.18 26.61-41.43 26.5-43.64 26.2-45.81 25.68-47.95 24.99-50.06 24.08-52.12 22.99-54.14 21.68-56.15 20.21-58.1 18.53-60.02 16.65-61.92 14.59-63.78 12.32-65.6 9.86-67.42 7.21-69.18 4.37-70.95 88.26 3.54-4.59 74.69-7.61 72.86-10.38 70.98-12.96 69.06-15.35 67.1-17.49 65.1-19.47 63.06-21.21 61-22.76 58.89-24.09 56.76-25.22 54.58-26.15 52.38-26.86 50.15-27.38 47.89-27.68 45.58-27.79 43.27-27.69 40.9-27.4 38.52-26.89 36.1-26.18 33.64-25.28 31.17-24.18 28.66-22.86 26.11-21.35 23.52-19.64 20.93-17.72 18.28-15.6 15.6-13.29 12.92-10.79 10.17-8.02 7.37-5.07 4.54-2.18 1.92zm-14.69 41.07c-18.48 15.91-46.38 13.83-62.29-4.65s-13.83-46.38 4.65-62.29zm-27.41 2378.55-82.26-32.2 27.16-75.76 24.04-80.11 21.05-84.02 18.15-87.5 15.42-90.48 12.79-93.04 10.32-95.12 8.02-96.77 5.83-97.96 3.8-98.71 1.95-99.03.24-98.88-1.33-98.3-2.72-97.27-3.97-95.84-5.04-93.92-5.97-91.61-6.73-88.83-7.35-85.62-7.79-81.99-8.08-77.9-8.21-73.39-8.19-68.45-7.99-63.07-7.65-57.24-7.14-51-6.48-44.33-5.64-37.19-4.66-29.64-3.53-21.67-2.21-13.28-.75-4.3 87.02-15.2.83 4.86 2.27 13.6 3.59 22.07 4.74 30.1 5.72 37.67 6.54 44.81 7.22 51.54 7.73 57.82 8.07 63.67 8.25 69.09 8.29 74.07 8.16 78.64 7.87 82.77 7.41 86.46 6.81 89.73 6.03 92.57 5.1 94.98 4.01 96.96 2.76 98.51 1.33 99.64-.24 100.34-1.97 100.61-3.88 100.47-5.95 99.9-8.18 98.91-10.58 97.5-13.17 95.68-15.92 93.44-18.85 90.8-21.97 87.74-25.3 84.29zm-1658.07 330.47 84-27.34 14.88 37.69 19.45 35.98 23.87 34.25 28.13 32.41 32.17 30.39 36 28.21 39.6 25.84 42.89 23.29 45.92 20.57 48.64 17.66 51.07 14.61 53.21 11.4 55 8.05 56.53 4.57 57.73.93 58.63-2.81 59.24-6.69 59.55-10.69 59.56-14.8 59.29-19.04 58.74-23.4 57.92-27.89 56.8-32.49 55.43-37.23 53.8-42.11 51.88-47.12 49.71-52.3 47.26-57.61 44.53-63.11 41.53-68.76 38.22-74.57 34.63-80.56 82.26 32.2-36.93 85.92-41 79.97-44.73 74.08-48.19 68.29-51.34 62.59-54.17 57-56.68 51.48-58.86 46.07-60.73 40.81-62.28 35.61-63.5 30.59-64.4 25.66-64.99 20.88-65.28 16.22-65.25 11.71-64.92 7.33-64.31 3.09-63.39-1.03-62.21-5.01-60.72-8.89-58.95-12.64-56.89-16.27-54.56-19.82-51.92-23.25-48.99-26.61-45.76-29.88-42.22-33.07-38.31-36.21-34.05-39.27-29.41-42.21-24.33-45.04zM5262.8 9496.62l-87.44 12.5v-.01l-7.74-98.36.99-120.25 9.2-140.31 17.14-158.01 24.87-173.13 32.4-185.61 39.74-195.36 46.9-202.39 53.88-206.68 60.68-208.24 67.32-207.03 73.78-203.08 80.08-196.43 86.3-187.04 92.38-174.94 98.44-160.15 104.55-142.67 110.86-122.45 117.51-99.35 124.62-73 131.79-42.74 137.85-8.31 141.61 29.33 143.43 68.74 144.7 109.49 146.33 152.21 148.4 197.4 150.77 245.38 153.29 296.25 155.8 349.99 158.26 406.6 160.6 466.07-84 27.34-159.56-463.09-156.88-403.06-153.9-345.75-150.63-291.11-146.95-239.18-142.76-189.94-137.87-143.47-132.16-100.07-125.71-60.3-119.41-24.75-114.69 7.01-111.85 36.42-109.78 64.44-107.23 90.77-103.86 114.81-99.75 136.17-95.06 154.67-89.94 170.34-84.46 183.1-78.7 193.01-72.68 200.08-66.42 204.31-59.96 205.72-53.26 204.3-46.36 200.07-39.26 193-31.96 183.09-24.47 170.33-16.78 154.67-8.92 135.99-.95 114.13 6.88 88.54zm0 .01c3.44 24.14-13.34 46.52-37.48 49.96s-46.52-13.34-49.96-37.48zm246.23 3815.72h-88.34l-.01-168.26-.08-159.54-.17-151.38-.32-143.75-.5-136.69-.74-130.17-1.02-124.21-1.34-118.8-1.7-113.94-2.11-109.61-2.55-105.87-3.05-102.67-3.58-100.01-4.17-97.93-4.78-96.39-5.45-95.41-6.16-95-6.92-95.14-7.71-95.84-8.55-97.09-9.44-98.91-10.37-101.29-11.35-104.22-12.36-107.71-13.43-111.73-14.54-116.33-15.69-121.48-16.88-127.18-18.13-133.42-19.4-140.22-20.73-147.57-22.1-155.47 87.44-12.5 22.12 155.61 20.75 147.73 19.44 140.42 18.15 133.66 16.92 127.46 15.73 121.82 14.6 116.71 13.47 112.19 12.42 108.19 11.41 104.76 10.43 101.87 9.5 99.53 8.61 97.75 7.77 96.52 6.96 95.82 6.2 95.68 5.49 96.09 4.82 97.03 4.19 98.53 3.6 100.59 3.07 103.17 2.57 106.33 2.11 110.03 1.7 114.28 1.34 119.1 1.02 124.45.74 130.37.52 136.85.32 143.87.17 151.44.08 159.6zm-678.35 3769.98 39.5 79-39.89 10.71-45.84-18.04-20.59-37.31-4.58-38.27 2.22-43.53 7.15-51.41 11.5-60.11 15.45-68.97 19.05-77.71 22.3-86.24 25.19-94.47 27.74-102.41 29.91-110 31.74-117.29 33.2-124.21 34.29-130.8 35.04-137.03 35.4-142.9 35.42-148.44 35.06-153.61 34.34-158.42 33.26-162.89 31.81-166.99 30-170.74 27.83-174.14 25.29-177.17 22.4-179.83 19.13-182.16 15.51-184.11 11.53-185.7 7.18-186.96 2.47-187.83h88.34l-2.51 190.11-7.26 189.1-11.65 187.72-15.67 185.99-19.31 183.9-22.6 181.47-25.51 178.67-28.05 175.54-30.24 172.04-32.03 168.19-33.48 163.97-34.56 159.42-35.26 154.51-35.6 149.22-35.58 143.6-35.18 137.61-34.41 131.26-33.3 124.55-31.78 117.47-29.93 110.02-27.68 102.21-25.07 93.99-22.08 85.38-18.71 76.33-14.97 66.81-10.84 56.67-6.39 45.67-1.78 33.15 1.68 17.27-3.33-3.59-16.84-6.88zm1334.5-1459.23 74 48.24 2.5-4.37-35.25 69.06-35.96 67.63-36.67 66.18-37.32 64.73-37.96 63.32-38.61 61.86-39.18 60.41-39.77 58.99-40.33 57.54-40.87 56.1-41.38 54.65-41.87 53.21-42.33 51.78-42.78 50.32-43.2 48.9-43.61 47.44-43.99 45.99-44.34 44.55-44.68 43.11-45 41.67-45.28 40.21-45.56 38.77-45.8 37.32-46.02 35.87-46.24 34.43-46.42 32.97-46.57 31.53-46.72 30.07-46.83 28.61-46.91 27.17-47.01 25.72-47.04 24.25-39.5-79 45.1-23.25 45.11-24.68 45.09-26.11 45.05-27.53 44.98-28.97 44.91-30.39 44.8-31.83 44.66-33.25 44.5-34.69 44.34-36.12 44.12-37.55 43.9-38.99 43.66-40.41 43.38-41.87 43.1-43.29 42.77-44.73 42.43-46.16 42.06-47.6 41.7-49.04 41.27-50.48 40.85-51.91 40.38-53.35 39.91-54.8 39.41-56.22 38.89-57.67 38.34-59.11 37.77-60.54 37.18-61.98 36.56-63.43 35.93-64.86 35.26-66.31 34.59-67.74zm-2.5 4.37c10.9-21.81 37.44-30.65 59.25-19.75s30.65 37.44 19.75 59.25zm766.24-887.59 21.14 85.76 32.27-32.16-22.73 86.12-23.22 78.9-23.7 72.05-24.14 65.57-24.56 59.46-25 53.72-25.42 48.33-25.84 43.29-26.25 38.59-26.63 34.18-26.99 30.11-27.29 26.31-27.52 22.77-27.59 19.54-27.51 16.6-27.3 14-26.89 11.75-26.34 9.89-25.64 8.43-24.86 7.36-23.97 6.69-23.01 6.37-21.99 6.41-20.95 6.75-19.87 7.39-18.84 8.3-17.93 9.52-17.15 11.06-16.54 12.97-16.12 15.39-15.8 18.27-15.56 21.77-74-48.24 20.04-28.03 21.24-24.57 22.28-21.27 23.12-18.17 23.73-15.32 24.07-12.82 24.22-10.7 24.15-8.99 23.99-7.75 23.77-6.93 23.49-6.51 23.21-6.47 22.94-6.8 22.66-7.43 22.42-8.41 22.25-9.71 22.14-11.34 22.13-13.34 22.23-15.72 22.36-18.51 22.57-21.75 22.81-25.43 23.01-29.54 23.17-34.07 23.28-39.01 23.32-44.33 23.28-50.02 23.18-56.1 23-62.51 22.78-69.27 22.48-76.38 22.15-83.86zm-32.27 32.16c5.92-23.65 29.91-38.04 53.56-32.12s38.04 29.91 32.12 53.56zm861.15-859.22 83.8 27.92-10.74 17.34-23.74 25.11-21.39 25.57-19.38 26.07-17.63 26.59-16.15 27.09-14.88 27.6-13.89 28.11-13.12 28.59-12.59 29.03-12.31 29.45-12.28 29.8-12.49 30.1-12.97 30.35-13.73 30.54-14.75 30.64-16.05 30.67-17.63 30.58-19.45 30.42-21.56 30.13-23.93 29.72-26.49 29.18-29.31 28.55-32.33 27.8-35.56 26.97-39 26.07-42.65 25.09-46.54 24.07-50.61 23-54.97 21.92-59.56 20.77-64.38 19.59-69.48 18.39-21.14-85.76 66.5-17.61 61.16-18.61 56.06-19.55 51.23-20.42 46.69-21.22 42.4-21.93 38.39-22.59 34.7-23.19 31.3-23.73 28.19-24.26 25.39-24.73 22.91-25.24 20.69-25.72 18.76-26.23 17.11-26.74 15.69-27.26 14.53-27.77 13.61-28.26 12.91-28.74 12.47-29.17 12.27-29.58 12.32-29.9 12.63-30.19 13.19-30.43 14.04-30.59 15.15-30.65 16.54-30.66 18.21-30.55 20.13-30.33 22.32-30.01 24.75-29.57 27.38-28.97zm10.74-17.34c17.28-17.2 45.26-17.14 62.46.14s17.14 45.26-.14 62.46zm1180.01-1924.26-85.74-21.24 86.05 19.87-35.65 157.49-37.33 148.13-38.83 139.1-40.17 130.4-41.33 122.02-42.35 113.97-43.2 106.24-43.86 98.82-44.4 91.75-44.72 84.97-44.92 78.53-44.92 72.4-44.76 66.58-44.42 61.08-43.91 55.9-43.22 51.02-42.34 46.45-41.25 42.21-40 38.27-38.54 34.64-36.86 31.32-34.99 28.32-32.89 25.61-30.55 23.2-27.98 21.07-25.15 19.21-22.03 17.54-18.64 16.02-14.99 14.55-11.19 12.98-7.48 11.29-4.39 9.81-83.8-27.92 10.77-24.43 14.52-22.11 17.33-20.26 19.71-19.19 21.9-18.84 24.01-19.12 26.07-19.91 28.06-21.13 29.97-22.76 31.81-24.77 33.51-27.12 35.12-29.84 36.6-32.9 37.94-36.29 39.15-40.05 40.22-44.13 41.12-48.54 41.89-53.32 42.5-58.44 42.96-63.9 43.24-69.68 43.36-75.81 43.32-82.29 43.1-89.09 42.72-96.22 42.16-103.7 41.43-111.51 40.53-119.64 39.47-128.1 38.21-136.9 36.79-146.01 35.21-155.47zm-86.05-19.87c5.1-23.84 28.59-39.03 52.43-33.93s39.03 28.59 33.93 52.43zm451.38 3307.53-79.1 39.3-36.77-73.73-36.84-73.66-36.75-73.82-36.5-74.21-36.07-74.77-35.48-75.57-34.73-76.56-33.78-77.77-32.68-79.17-31.39-80.78-29.94-82.58-28.31-84.61-26.5-86.81-24.52-89.24-22.38-91.83-20.04-94.64-17.56-97.65-14.89-100.85-12.06-104.24-9.06-107.84-5.9-111.62-2.58-115.63.92-119.81 4.55-124.21 8.38-128.81 12.35-133.61 16.47-138.63 20.79-143.84 25.23-149.26 29.86-154.91 34.64-160.75 39.57-166.79 85.74 21.24-39.17 165.07-34.24 158.91-29.48 152.97-24.89 147.22-20.47 141.7-16.21 136.37-12.13 131.27-8.22 126.37-4.47 121.67-.9 117.21 2.52 112.95 5.76 108.92 8.84 105.08 11.74 101.5 14.49 98.11 17.06 94.93 19.5 92 21.74 89.29 23.86 86.78 25.8 84.51 27.59 82.45 29.22 80.6 30.69 78.98 32.02 77.57 33.18 76.37 34.19 75.38 35.04 74.63 35.73 74.05 36.24 73.71 36.63 73.56 36.82 73.64zm0 0c10.85 21.84 1.94 48.35-19.9 59.2s-48.35 1.94-59.2-19.9zm244.58 2990.84-76.7-43.82 44.3-79.11 41.47-77.46 38.55-76.04 35.6-74.84 32.6-73.87 29.55-73.12 26.47-72.62 23.33-72.34 20.17-72.33 16.94-72.55 13.71-73.03 10.41-73.78 7.06-74.77 3.65-76.05.2-77.57-3.33-79.36-6.91-81.42-10.57-83.69-14.31-86.25-18.11-89.01-21.98-92.04-25.91-95.28-29.93-98.76-34-102.45-38.14-106.38-42.33-110.54-46.59-114.91-50.9-119.53-55.29-124.34-59.72-129.41-64.22-134.68-68.75-140.19 79.1-39.3 69.17 141.03 64.66 135.62 60.22 130.47 55.81 125.54 51.48 120.87 47.21 116.43 42.97 112.22 38.82 108.26 34.68 104.55 30.63 101.08 26.61 97.82 22.64 94.82 18.73 92.05 14.85 89.51 11.01 87.19 7.23 85.1 3.49 83.22-.22 81.55-3.85 80.09-7.44 78.83-10.97 77.78-14.43 76.91-17.82 76.27-21.13 75.83-24.39 75.62-27.55 75.6-30.65 75.84-33.66 76.29-36.62 76.98-39.51 77.9-42.31 79.08zm-744.44 807.06-62.46 62.46-1.94-60.39 30.38-34.35 29.99-33.53 29.61-32.77 29.2-32.02 28.79-31.31 28.36-30.63 27.93-29.98 27.5-29.36 27.03-28.77 26.57-28.22 26.09-27.69 25.61-27.2 25.12-26.73 24.59-26.3 24.09-25.91 23.56-25.53 23.03-25.19 22.48-24.87 21.91-24.59 21.36-24.35 20.77-24.12 20.19-23.93 19.59-23.78 19-23.65 18.39-23.55 17.77-23.47 17.13-23.44 16.51-23.43 15.87-23.47 15.23-23.49 14.57-23.6 13.92-23.72 76.7 43.82-14.96 25.46-15.59 25.26-16.23 25.05-16.83 24.87-17.43 24.75-18.03 24.66-18.61 24.59-19.17 24.55-19.72 24.55-20.27 24.6-20.81 24.67-21.33 24.76-21.84 24.91-22.35 25.09-22.86 25.29-23.33 25.53-23.82 25.81-24.29 26.11-24.75 26.46-25.22 26.85-25.65 27.24-26.09 27.69-26.53 28.18-26.95 28.67-27.36 29.24-27.77 29.8-28.16 30.41-28.57 31.07-28.94 31.72-29.31 32.45-29.69 33.19-30.04 33.97zm1.94 60.39c-16.1 18.31-44.02 20.11-62.33 4.01s-20.11-44.02-4.01-62.33zm1115.42 351.12-85.22-23.24 42.61 55.79-35.81-.37-36.43-1.11-37-1.84-37.49-2.58-37.91-3.31-38.29-4.04-38.61-4.78-38.83-5.51-39.02-6.24-39.12-6.98-39.18-7.72-39.17-8.45-39.08-9.18-38.94-9.93-38.73-10.68-38.45-11.41-38.12-12.15-37.72-12.91-37.25-13.66-36.71-14.41-36.12-15.17-35.47-15.94-34.73-16.72-33.94-17.48-33.09-18.28-32.16-19.07-31.18-19.88-30.12-20.68-29-21.51-27.81-22.35-26.54-23.2-25.19-24.06 62.46-62.46 22.31 21.3 23.7 20.72 25.05 20.13 26.32 19.53 27.56 18.92 28.7 18.3 29.78 17.65 30.79 17 31.74 16.36 32.61 15.68 33.41 15.02 34.16 14.35 34.81 13.67 35.41 12.98 35.94 12.29 36.38 11.61 36.77 10.91 37.07 10.22 37.32 9.51 37.48 8.82 37.59 8.11 37.62 7.4 37.58 6.7 37.46 6 37.29 5.29 37.03 4.58 36.71 3.88 36.31 3.17 35.85 2.46 35.3 1.76 34.69 1.05 34.01.35zm-42.61-55.79c24.39 0 44.17 19.78 44.17 44.17s-19.78 44.17-44.17 44.17zm577.68 2968.94 73.5 49h-73.5l-46.21-69.73-46.08-70.56-45.81-71.5-45.38-72.49-44.78-73.55-44.04-74.68-43.11-75.89-42.05-77.14-40.8-78.49-39.39-79.88-37.84-81.36-36.11-82.89-34.21-84.5-32.16-86.17-29.94-87.9-27.55-89.69-25.01-91.56-22.3-93.48-19.41-95.46-16.39-97.51-13.18-99.61-9.82-101.77-6.3-104-2.62-106.26 1.21-108.61 5.21-111 9.36-113.46 13.65-115.98 18.13-118.55 22.73-121.19 27.5-123.88 32.41-126.65 85.22 23.24-31.73 123.95-26.86 121.08-22.19 118.29-17.67 115.57-13.31 112.94-9.1 110.36-5.05 107.86-1.19 105.45 2.56 103.1 6.1 100.84 9.52 98.65 12.78 96.53 15.87 94.49 18.83 92.54 21.62 90.64 24.27 88.84 26.75 87.09 29.1 85.42 31.28 83.83 33.33 82.3 35.21 80.85 36.96 79.46 38.53 78.14 39.98 76.89 41.25 75.7 42.37 74.59 43.36 73.52 44.18 72.55 44.84 71.63 45.35 70.78 45.72 70 45.91 69.27zm73.5 0c13.53 20.29 8.04 47.72-12.25 61.25s-47.72 8.04-61.25-12.25zm577.68-2968.94v88.34l42.61-55.79 32.41 126.65 27.5 123.88 22.73 121.19 18.13 118.55 13.65 115.98 9.36 113.46 5.21 111 1.21 108.61-2.62 106.26-6.3 104-9.83 101.77-13.18 99.61-16.39 97.51-19.41 95.46-22.29 93.48-25.01 91.56-27.56 89.69-29.93 87.9-32.17 86.17-34.21 84.5-36.11 82.89-37.83 81.36-39.4 79.88-40.79 78.49-42.05 77.15-43.12 75.88-44.02 74.68-44.79 73.55-45.38 72.49-45.82 71.5-46.07 70.56-46.21 69.73-73.5-49 45.91-69.27 45.71-70 45.36-70.78 44.84-71.63 44.17-72.55 43.36-73.52 42.38-74.6 41.25-75.69 39.97-76.89 38.54-78.14 36.95-79.46 35.21-80.85 33.33-82.3 31.29-83.83 29.09-85.42 26.76-87.09 24.27-88.84 21.61-90.64 18.83-92.54 15.87-94.49 12.78-96.53 9.53-98.65 6.1-100.84 2.56-103.1-1.19-105.45-5.05-107.86-9.1-110.36-13.31-112.94-17.67-115.57-22.19-118.29-26.86-121.08-31.73-123.95zm-42.61 55.79c-6.41-23.53 7.46-47.82 30.99-54.23s47.82 7.46 54.23 30.99zm1115.42-351.12 66.34-58.32-1.94 60.39-25.19 24.06-26.54 23.2-27.81 22.35-29 21.51-30.12 20.68-31.18 19.88-32.16 19.07-33.09 18.28-33.94 17.48-34.73 16.72-35.47 15.94-36.12 15.17-36.71 14.41-37.25 13.66-37.72 12.91-38.12 12.15-38.45 11.41-38.73 10.68-38.94 9.93-39.08 9.18-39.17 8.45-39.18 7.72-39.12 6.98-39.02 6.24-38.83 5.51-38.61 4.78-38.29 4.04-37.91 3.31-37.49 2.58-37 1.84-36.43 1.11-35.81.37v-88.34l34.01-.35 34.69-1.05 35.3-1.76 35.85-2.46 36.31-3.17 36.71-3.88 37.03-4.58 37.29-5.29 37.46-6 37.58-6.7 37.62-7.4 37.59-8.11 37.48-8.82 37.32-9.51 37.07-10.22 36.77-10.91 36.38-11.61 35.94-12.29 35.41-12.98 34.81-13.67 34.16-14.35 33.41-15.02 32.61-15.68 31.74-16.36 30.79-17 29.78-17.65 28.7-18.3 27.56-18.92 26.32-19.53 25.05-20.13 23.7-20.72 22.31-21.3zm1.94-60.39c17.24-17.24 45.22-17.24 62.46 0s17.24 45.22 0 62.46zm-744.44-807.06 76.7-43.82 13.92 23.72 14.57 23.6 15.23 23.49 15.87 23.47 16.51 23.43 17.13 23.44 17.78 23.47 18.37 23.55 18.99 23.64 19.61 23.78 20.19 23.94 20.77 24.12 21.36 24.35 21.91 24.6 22.47 24.87 23.03 25.18 23.56 25.53 24.09 25.9 24.6 26.31 25.11 26.73 25.61 27.2 26.1 27.69 26.56 28.22 27.04 28.77 27.49 29.37 27.93 29.97 28.37 30.63 28.79 31.31 29.2 32.02 29.61 32.77 29.99 33.53 30.38 34.35-66.34 58.32-30.04-33.97-29.69-33.19-29.31-32.45-28.94-31.72-28.57-31.07-28.17-30.41-27.77-29.81-27.35-29.23-26.96-28.67-26.52-28.18-26.1-27.69-25.65-27.24-25.21-26.85-24.76-26.45-24.29-26.12-23.82-25.81-23.33-25.54-22.85-25.29-22.35-25.08-21.84-24.91-21.33-24.76-20.81-24.66-20.27-24.6-19.73-24.56-19.17-24.55-18.6-24.59-18.03-24.66-17.43-24.75-16.83-24.87-16.23-25.05-15.59-25.26zm0 0c-12.1-21.18-4.74-48.16 16.44-60.26s48.16-4.74 60.26 16.44zm244.57-2990.84 79.1 39.3-68.75 140.19-64.22 134.68-59.72 129.41-55.29 124.34-50.9 119.53-46.59 114.91-42.33 110.54-38.14 106.38-34 102.45-29.93 98.76-25.91 95.28-21.98 92.04-18.11 89.01-14.3 86.25-10.58 83.69-6.91 81.41-3.32 79.37.19 77.57 3.66 76.05 7.06 74.78 10.4 73.77 13.71 73.03 16.95 72.55 20.17 72.33 23.33 72.34 26.46 72.62 29.55 73.12 32.61 73.87 35.59 74.84 38.55 76.04 41.46 77.46 44.32 79.11-76.7 43.82-45.08-80.49-42.32-79.08-39.51-77.9-36.61-76.98-33.67-76.29-30.65-75.84-27.54-75.6-24.39-75.62-21.13-75.83-17.83-76.27-14.43-76.91-10.96-77.79-7.44-78.82-3.86-80.09-.21-81.55 3.48-83.21 7.23-85.11 11.02-87.19 14.84-89.51 18.73-92.05 22.64-94.82 26.61-97.82 30.63-101.08 34.68-104.55 38.82-108.26 42.97-112.22 47.21-116.43 51.48-120.87 55.81-125.54 60.22-130.47 64.66-135.62zm451.39-3307.53-86.36 18.5 86.05-19.87 39.57 166.79 34.64 160.75 29.86 154.91 25.23 149.26 20.79 143.84 16.47 138.63 12.35 133.61 8.38 128.81 4.55 124.21.92 119.81-2.58 115.63-5.9 111.62-9.06 107.84-12.06 104.24-14.89 100.85-17.56 97.65-20.04 94.64-22.38 91.83-24.52 89.24-26.5 86.81-28.31 84.61-29.94 82.59-31.4 80.77-32.67 79.17-33.79 77.77-34.72 76.55-35.48 75.58-36.08 74.77-36.5 74.21-36.75 73.82-36.84 73.66-36.77 73.73-79.1-39.3 36.85-73.89 36.82-73.64 36.63-73.56 36.26-73.71 35.72-74.05 35.04-74.62 34.18-75.39 33.19-76.37 32.01-77.57 30.7-78.99 29.22-80.59 27.59-82.45 25.8-84.51 23.86-86.78 21.74-89.29 19.5-92 17.06-94.93 14.49-98.11 11.74-101.5 8.84-105.08 5.76-108.92 2.52-112.95-.9-117.21-4.47-121.67-8.22-126.37-12.13-131.27-16.21-136.37-20.47-141.7-24.89-147.22-29.48-152.97-34.24-158.91-39.17-165.07zm-86.05 19.87c-5.86-23.67 8.58-47.63 32.25-53.49s47.63 8.58 53.49 32.25zm1180.08 1924.33-62.46 62.46-10.67-17.27-4.39-9.81-7.48-11.29-11.19-12.98-14.99-14.55-18.64-16.02-22.03-17.54-25.15-19.21-27.98-21.07-30.55-23.2-32.89-25.61-34.99-28.32-36.86-31.32-38.54-34.64-40-38.27-41.25-42.21-42.34-46.45-43.22-51.02-43.91-55.9-44.42-61.08-44.76-66.58-44.92-72.4-44.92-78.53-44.72-84.97-44.4-91.75-43.86-98.82-43.2-106.24-42.35-113.97-41.33-122.02-40.17-130.4-38.83-139.1-37.33-148.13-35.65-157.49 86.36-18.5 35.21 155.47 36.79 146.01 38.21 136.9 39.47 128.1 40.53 119.64 41.43 111.51 42.16 103.7 42.72 96.22 43.1 89.09 43.32 82.29 43.36 75.81 43.24 69.68 42.96 63.9 42.5 58.44 41.89 53.32 41.12 48.54 40.22 44.13 39.15 40.05 37.94 36.29 36.6 32.9 35.12 29.84 33.51 27.12 31.81 24.77 29.97 22.76 28.06 21.13 26.07 19.91 24.01 19.12 21.9 18.84 19.71 19.19 17.33 20.26 14.52 22.11 10.77 24.43zm10.67 17.27c7.7 23.14-4.8 48.16-27.94 55.86s-48.16-4.8-55.86-27.94zm860.86 862.36-85.12 23.62 31.85 31.04-69.48-18.63-64.38-19.84-59.55-20.98-54.98-22.12-50.61-23.21-46.52-24.25-42.65-25.27-38.99-26.22-35.55-27.12-32.33-27.96-29.29-28.69-26.49-29.31-23.9-29.83-21.56-30.24-19.46-30.53-17.6-30.7-16.04-30.75-14.75-30.73-13.73-30.64-12.97-30.44-12.49-30.2-12.28-29.9-12.31-29.55-12.58-29.12-13.12-28.68-13.89-28.21-14.9-27.71-16.15-27.21-17.63-26.68-19.39-26.19-21.41-25.69-23.74-25.23 62.46-62.46 27.38 29.09 24.73 29.69 22.31 30.11 20.13 30.44 18.19 30.65 16.54 30.75 15.15 30.75 14.04 30.68 13.2 30.52 12.61 30.29 12.32 30 12.27 29.66 12.47 29.28 12.91 28.82 13.61 28.37 14.54 27.89 15.7 27.38 17.1 26.85 18.78 26.34 20.7 25.85 22.91 25.37 25.41 24.87 28.21 24.4 31.29 23.88 34.71 23.34 38.41 22.77 42.4 22.11 46.69 21.39 51.24 20.62 56.07 19.76 61.16 18.84 66.5 17.83zm-31.85-31.04c23.66 5.91 38.05 29.9 32.14 53.56s-29.9 38.05-53.56 32.14zm766.11 883.3-79 39.5-1.68-3.79-13.9-32.41-14.29-27.13-14.57-22.44-14.79-18.35-14.99-14.93-15.37-12.18-15.99-10.05-16.9-8.4-18.06-7.13-19.35-6.19-20.71-5.55-22.02-5.25-23.29-5.33-24.47-5.83-25.56-6.8-26.5-8.24-27.33-10.17-27.95-12.6-28.36-15.44-28.58-18.7-28.6-22.35-28.47-26.31-28.24-30.61-27.95-35.25-27.64-40.25-27.33-45.64-27.02-51.44-26.71-57.67-26.41-64.32-26.1-71.44-25.79-78.98-25.46-86.97 85.12-23.62 24.74 84.53 24.89 76.24 24.98 68.38 25.01 60.92 24.97 53.91 24.86 47.32 24.65 41.18 24.38 35.49 24.01 30.29 23.62 25.59 23.21 21.43 22.8 17.81 22.48 14.7 22.28 12.12 22.21 9.98 22.27 8.27 22.44 6.96 22.68 6.02 22.97 5.47 23.29 5.33 23.62 5.65 23.93 6.43 24.17 7.75 24.32 9.65 24.22 12.08 23.81 15.01 23.05 18.3 21.97 21.89 20.63 25.63 19.23 29.58 17.81 33.81 16.44 38.33zm1.68 3.79c8.81 22.74-2.48 48.33-25.22 57.14s-48.33-2.48-57.14-25.22zm1330.32 1451.1-39.5 79-47.06-24.26-46.99-25.71-46.92-27.16-46.84-28.63-46.71-30.07-46.57-31.53-46.42-32.97-46.24-34.43-46.03-35.89-45.8-37.31-45.55-38.77-45.29-40.21-44.99-41.67-44.68-43.11-44.34-44.55-43.99-46-43.61-47.44-43.2-48.89-42.77-50.33-42.34-51.77-41.87-53.21-41.37-54.66-40.87-56.09-40.33-57.55-39.77-58.98-39.19-60.43-38.6-61.85-37.96-63.31-37.32-64.74-36.67-66.18-35.96-67.63-35.25-69.06 79-39.5 34.59 67.74 35.26 66.31 35.93 64.86 36.56 63.44 37.18 61.97 37.76 60.55 38.35 59.11 38.89 57.66 39.41 56.23 39.91 54.79 40.39 53.36 40.83 51.91 41.28 50.47 41.69 49.05 42.06 47.59 42.43 46.18 42.77 44.72 43.1 43.29 43.38 41.87 43.65 40.41 43.91 38.99 44.13 37.55 44.32 36.13 44.51 34.69 44.66 33.25 44.8 31.83 44.91 30.39 44.99 28.97 45.04 27.53 45.1 26.1 45.11 24.69zm-678.35-3769.98h88.34l2.47 187.83 7.18 186.96 11.53 185.7 15.51 184.11 19.13 182.16 22.4 179.83 25.29 177.18 27.84 174.13 29.99 170.74 31.82 166.99 33.26 162.9 34.34 158.42 35.06 153.61 35.42 148.44 35.4 142.9 35.03 137.03 34.3 130.8 33.19 124.21 31.74 117.28 29.92 110.01 27.73 102.41 25.2 94.47 22.3 86.24 19.05 77.71 15.45 68.97 11.5 60.11 7.15 51.41 2.22 43.53-4.59 38.27-20.59 37.3-45.84 18.04-39.89-10.71 39.5-79 1.57 1.39-16.84 6.88-3.33 3.58 1.69-17.27-1.78-33.13-6.39-45.67-10.84-56.67-14.97-66.81-18.71-76.33-22.08-85.38-25.08-93.99-27.67-102.21-29.92-110.03-31.8-117.46-33.29-124.55-34.42-131.26-35.17-137.61-35.58-143.6-35.6-149.22-35.26-154.51-34.56-159.42-33.48-163.98-32.04-168.19-30.23-172.04-28.06-175.53-25.51-178.68-22.6-181.47-19.31-183.9-15.67-185.99-11.65-187.72-7.26-189.1zm246.22-3815.73 87.44 12.5-22.1 155.47-20.73 147.58-19.4 140.22-18.13 133.42-16.88 127.18-15.69 121.48-14.53 116.34-13.44 111.74-12.36 107.69-11.35 104.22-10.37 101.29-9.44 98.91-8.55 97.1-7.71 95.83-6.92 95.14-6.16 95-5.45 95.41-4.78 96.39-4.16 97.93-3.59 100-3.04 102.67-2.55 105.87-2.11 109.62-1.7 113.94-1.34 118.79-1.02 124.21-.74 130.17-.5 136.69-.32 143.75-.17 151.38-.08 159.54-.01 168.26h-88.34l.01-168.28.08-159.6.17-151.44.32-143.87.52-136.85.74-130.37 1.02-124.45 1.34-119.09 1.7-114.28 2.11-110.04 2.57-106.31 3.06-103.19 3.61-100.58 4.18-98.53 4.82-97.03 5.49-96.09 6.2-95.68 6.96-95.82 7.77-96.51 8.61-97.76 9.5-99.53 10.43-101.87 11.41-104.76 12.42-108.19 13.48-112.18 14.59-116.72 15.73-121.82 16.92-127.46 18.15-133.66 19.44-140.42 20.75-147.74zm-2740.66-963.17-84-27.34 160.32-465.98 157.44-406.39 154.51-349.69 151.52-295.85 148.58-244.91 145.82-196.87 143.4-151.64 141.52-108.94 140.1-68.16 138.22-28.66 134.33 9.22 127.93 43.81 120.45 74.07 113.12 100.38 106.37 123.41 100.03 143.6 93.93 161.03 87.91 175.81 81.9 187.88 75.82 197.24 69.66 203.89 63.35 207.78 56.96 208.94 50.38 207.34 43.69 202.99 36.85 195.9 29.85 186.06 22.7 173.52 15.38 158.29 7.89 140.47.18 120.27-8.01 98.2-87.44-12.5 7.17-88.8-.18-114.43-7.67-136.35-15.08-155.07-22.34-170.82-29.47-183.64-36.41-193.62-43.21-200.73-49.82-205.02-56.28-206.5-62.55-205.12-68.64-200.93-74.52-193.88-80.2-184-85.61-171.21-90.71-155.57-95.41-137.02-99.57-115.61-102.96-91.48-105.51-65.03-107.55-36.99-110.39-7.68-115.4 23.94-122.12 59.5-128.98 99.36-135.06 142.88-140.3 189.45-144.86 238.81-148.94 290.83-152.67 345.53-156.1 402.95zm-1013.89 148.52 79.84-37.8-.01-.01 39.54 79.63 38.89 70.82 38.14 62.31 37.31 54.08 36.36 46.16 35.28 38.54 34.04 31.31 32.64 24.47 31.09 18.14 29.5 12.36 28.06 7.24 26.88 2.68 26.18-1.49 25.88-5.44 25.84-9.36 25.93-13.28 25.94-17.13 25.82-20.82 25.52-24.33 25.11-27.55 24.54-30.47 23.89-33.1 23.13-35.36 22.28-37.33 21.4-38.99 20.45-40.27 19.46-41.25 18.41-41.91 17.34-42.24 16.23-42.25 15.08-41.94 13.9-41.28 84 27.34-14.48 43-15.72 43.68-16.93 44.07-18.12 44.16-19.33 43.97-20.5 43.49-21.69 42.69-22.84 41.61-24.04 40.25-25.23 38.58-26.43 36.62-27.7 34.39-29.03 31.83-30.42 28.95-31.92 25.74-33.54 22.11-35.23 18-36.94 13.34-38.5 8.06-39.74 2.21-40.52-4.04-40.8-10.54-40.74-17.06-40.49-23.6-40.24-30.15-40.08-36.85-40.04-43.74-40.1-50.9-40.27-58.34-40.48-66.13-40.75-74.22-41.04-82.65zm.01.01c-10.44-22.04-1.04-48.38 21-58.82s48.38-1.04 58.82 21zm8.34-2275.01 88 7.68-6.9 75.5-7.5 76.12-8.01 76.65-8.41 77.06-8.71 77.4-8.89 77.62-8.99 77.76-8.97 77.79-8.86 77.72-8.64 77.57-8.33 77.3-7.89 76.93-7.37 76.47-6.75 75.92-6.02 75.25-5.19 74.47-4.26 73.61-3.22 72.64-2.1 71.56-.87 70.38.45 69.1 1.88 67.69 3.4 66.2 5.02 64.6 6.73 62.88 8.51 61.05 10.39 59.13 12.37 57.1 14.4 54.96 16.52 52.71 18.72 50.39 20.98 47.99-79.84 37.8-23.06-52.73-20.38-54.87-17.84-56.91-15.42-58.82-13.13-60.64-10.97-62.37-8.93-64.01-7.01-65.56-5.2-67.02-3.52-68.4-1.94-69.67-.47-70.86.89-71.96 2.14-72.98 3.28-73.9 4.32-74.71 5.27-75.45 6.08-76.09 6.81-76.62 7.43-77.07 7.95-77.43 8.37-77.68 8.66-77.83 8.88-77.9 8.99-77.87 8.97-77.72 8.89-77.48 8.67-77.16 8.37-76.72 7.97-76.19 7.44-75.56zm-471.26-1388.26-2.26 88.3 21.11-83.54 2.91 1.54 5.85 3.23 9.05 5.3 11.92 7.38 14.56 9.56 16.95 11.81 19.12 14.15 21.02 16.57 22.67 19.05 24.11 21.64 25.27 24.3 26.19 27.02 26.89 29.84 27.33 32.75 27.52 35.72 27.46 38.77 27.16 41.89 26.61 45.08 25.81 48.36 24.76 51.7 23.48 55.11 21.92 58.58 20.16 62.13 18.13 65.75 15.87 69.41 13.35 73.18 10.62 76.97 7.64 80.84 4.42 84.81.98 88.81-2.71 92.9-6.61 97.03-88-7.68 6.39-93.69 2.61-89.4-.94-85.23-4.24-81.13-7.28-77.12-10.1-73.19-12.67-69.36-14.99-65.61-17.09-61.95-18.94-58.39-20.56-54.9-21.94-51.51-23.1-48.22-24.01-44.98-24.71-41.86-25.16-38.81-25.38-35.83-25.4-32.96-25.15-30.13-24.69-27.4-24.01-24.76-23.07-22.18-21.89-19.66-20.53-17.23-18.88-14.89-17.02-12.59-14.93-10.39-12.6-8.26-10.04-6.22-7.21-4.22-4.27-2.35-.57-.3zm-21.11 83.54c-21.75-11.03-30.44-37.62-19.41-59.37s37.62-30.44 59.37-19.41zm862.67-15.74 74.6-47.3-36.48 67.81-1.54.03-4.34.07-7.11.13-9.79.16-12.28.2-14.69.22-16.95.25-19.1.27-21.17.29-23.09.29-24.86.29-26.56.3-28.12.28-29.55.28-30.9.26-32.08.23-33.17.21-34.13.17-34.99.15-35.69.09-36.32.05-36.81-.01-37.17-.07-37.42-.14-37.54-.21-37.57-.27-37.45-.36-37.24-.44-36.89-.53-36.42-.63-35.85-.74-35.15-.83 2.26-88.3 34.83.83 35.57.72 36.16.63 36.65.53 37.02.44 37.25.36 37.39.27 37.38.21 37.26.12 37.03.07 36.67.01 36.18-.05 35.59-.09 34.87-.13 34.03-.17 33.07-.21 32-.23 30.78-.26 29.49-.28 28.04-.28 26.48-.3 24.82-.29 22.99-.29 21.09-.29 19.06-.27 16.91-.25 14.63-.22 12.22-.2 9.71-.16 7.09-.13 4.36-.07 1.42-.03zm36.48-67.81c24.38-.45 44.53 18.96 44.98 43.34s-18.96 44.53-43.34 44.98zM12040 4677.26l85.96-20.28h.01l5.57 21.66 6.12 20.18 6.61 18.79 7.07 17.49 7.5 16.29 7.89 15.19 8.24 14.17 8.57 13.24 8.91 12.42 9.21 11.68 9.5 11.03 9.79 10.45 10.08 9.98 10.34 9.54 10.58 9.19 10.82 8.9 11.06 8.69 11.24 8.55 11.41 8.45 11.56 8.45 11.66 8.5 11.73 8.61 11.8 8.85 11.77 9.13 11.72 9.48 11.62 9.93 11.49 10.49 11.24 11.08 10.94 11.77 10.58 12.52 10.13 13.34 9.57 14.19-74.6 47.3-6.79-10.07-7.25-9.54-7.72-9.14-8.22-8.81-8.68-8.56-9.15-8.35-9.64-8.23-10.08-8.16-10.49-8.13-10.88-8.15-11.25-8.27-11.58-8.44-11.84-8.65-12.07-8.95-12.26-9.31-12.38-9.75-12.48-10.26-12.5-10.85-12.46-11.52-12.34-12.22-12.19-13.01-11.96-13.89-11.65-14.78-11.29-15.76-10.87-16.78-10.36-17.83-9.83-18.93-9.24-20.09-8.61-21.29-7.93-22.53-7.22-23.84-6.49-25.16zm-.01 0c-5.6-23.74 9.11-47.53 32.85-53.13s47.53 9.11 53.13 32.85zM9943.02 3315.24l-72.14 50.98 6.5-58.29 95.81-79.65 96.07-66.84 96.19-54.39 96.15-42.38 95.87-30.74 95.33-19.55 94.51-8.81 93.37 1.43 91.96 11.08 90.31 20.17 88.44 28.64 86.43 36.5 84.27 43.77 82.02 50.49 79.63 56.62 77.17 62.23 74.6 67.31 71.91 71.85 69.14 75.9 66.22 79.43 63.22 82.44 60.08 84.96 56.82 86.98 53.43 88.49 49.92 89.52 46.27 90.02 42.49 90.06 38.57 89.58 34.53 88.62 30.32 87.18 26.01 85.26 21.52 82.88-85.96 20.28-20.56-79.12-24.97-81.86-29.24-84.04-33.37-85.68-37.37-86.76-41.21-87.34-44.89-87.36-48.44-86.88-51.85-85.85-55.06-84.32-58.16-82.24-61.08-79.66-63.84-76.55-66.44-72.94-68.85-68.81-71.1-64.17-73.19-59.01-75.07-53.4-76.78-47.27-78.31-40.69-79.67-33.66-80.88-26.2-81.97-18.31-82.98-10.02-83.95-1.29-84.91 7.91-85.91 17.61-86.91 27.86-87.87 38.74-88.79 50.21-89.59 62.32-90.27 75.05zm-6.5 58.29c-18.11 16.33-46.04 14.88-62.37-3.23s-14.88-46.04 3.23-62.37z" class="fil2"/><g id="_2853044773024"><path d="M10093.2 5255.4c-29.2-484.32-164.05-796.57-338.45-993.75-313.09-186.72-1081.62 241.96-943.35 259.24 138.27 17.27 648.1 72.01 777.72 331.25s504.08 403.26 504.08 403.26" class="fil1"/><path d="m9732.13 4299.58 45.24-75.86 10.46 8.67 16.96 19.66 16.69 20.37 16.4 21.07 16.12 21.79 15.81 22.51 15.48 23.25 15.16 23.98 14.82 24.75 14.44 25.5 14.1 26.27 13.7 27.05 13.32 27.83 12.92 28.64 12.49 29.43 12.07 30.25 11.63 31.07 11.19 31.89 10.72 32.74 10.26 33.61 9.76 34.46 9.27 35.32 8.77 36.2 8.25 37.1 7.72 38 7.18 38.91 6.64 39.82 6.07 40.77 5.49 41.69 4.92 42.67 4.3 43.6 3.71 44.59 3.1 45.56-88.18 5.32-3-44.24-3.59-43.23-4.18-42.22-4.74-41.23-5.31-40.25-5.85-39.27-6.38-38.32-6.9-37.37-7.4-36.42-7.89-35.5-8.37-34.58-8.85-33.68-9.28-32.78-9.74-31.89-10.16-31.02-10.57-30.17-10.97-29.31-11.37-28.47-11.73-27.65-12.1-26.82-12.46-26.03-12.78-25.23-13.12-24.45-13.44-23.7-13.72-22.93-14.02-22.18-14.3-21.47-14.55-20.73-14.82-20.03-15.06-19.35-15.29-18.65-15.5-17.98zm-10.46-8.67c-16.15-18.26-14.44-46.19 3.82-62.34s46.19-14.44 62.34 3.82zm-904.8 186.16-10.94 87.64h-.01l-24.61-7.1-25.41-25.54-3.67-35.82 10.01-23.01 13.15-16.65 15.7-15.18 18.63-15.23 21.63-15.69 24.62-16.26 27.47-16.78 30.17-17.19 32.65-17.44 34.92-17.55 36.99-17.47 38.8-17.22 40.39-16.8 41.76-16.18 42.89-15.4 43.79-14.4 44.46-13.26 44.92-11.88 45.13-10.33 45.14-8.58 44.93-6.63 44.52-4.46 43.91-2.06 43.09.56 42.08 3.47 40.87 6.66 39.4 10.16 37.66 14.05 35.46 18.22-45.24 75.86-25.82-13.24-28.48-10.59-31.06-8-33.45-5.44-35.56-2.91-37.41-.48-38.93 1.84-40.16 4.02-41.09 6.07-41.74 7.94-42.09 9.63-42.16 11.16-41.96 12.5-41.49 13.66-40.73 14.62-39.74 15.4-38.43 15.98-36.9 16.38-35.07 16.57-32.98 16.57-30.63 16.36-27.97 15.93-25.01 15.28-21.74 14.36-18.09 13.11-13.97 11.39-9.24 8.88-3.69 4.45 1.83-5.21-2.73-21.72-14.85-15.5-3.91-1.52zm.01 0c24.2 3.02 41.36 25.1 38.34 49.3s-25.1 41.36-49.3 38.34zm811.74 355.32-79 39.5-11.31-20.24-13.23-19.44-15.1-18.7-16.91-17.96-18.64-17.23-20.27-16.51-21.76-15.75-23.16-14.99-24.42-14.23-25.53-13.47-26.5-12.71-27.32-11.97-28.01-11.22-28.54-10.49-28.93-9.8-29.19-9.1-29.28-8.44-29.24-7.81-29.05-7.18-28.72-6.6-28.25-6.02-27.66-5.5-26.89-4.99-26.01-4.51-24.97-4.05-23.8-3.63-22.51-3.24-21.08-2.89-19.49-2.54-17.82-2.24-16.02-1.99-14.08-1.74 10.94-87.64 13.98 1.72 16.12 1.99 18.12 2.28 19.97 2.62 21.64 2.95 23.19 3.34 24.6 3.75 25.85 4.21 26.97 4.67 27.97 5.19 28.8 5.72 29.53 6.3 30.12 6.92 30.55 7.56 30.88 8.23 31.04 8.96 31.11 9.7 31.01 10.5 30.82 11.33 30.47 12.22 30 13.13 29.4 14.11 28.67 15.13 27.8 16.21 26.82 17.37 25.66 18.57 24.37 19.85 22.92 21.21 21.29 22.64 19.46 24.12 17.45 25.64zm420.49 425.67 88.18-5.32-59.94 43.88-1.5-.58-3.45-1.38-5.46-2.22-7.35-3.08-9.09-3.91-10.74-4.73-12.28-5.56-13.71-6.39-15-7.21-16.21-8.01-17.31-8.84-18.27-9.65-19.13-10.44-19.87-11.25-20.53-12.06-21.05-12.85-21.46-13.65-21.78-14.46-21.96-15.25-22.05-16.05-22.02-16.87-21.88-17.67-21.63-18.48-21.26-19.29-20.78-20.13-20.19-20.95-19.46-21.8-18.65-22.65-17.68-23.52-16.59-24.39-15.38-25.27-14.01-26.14 79-39.5 11.69 21.8 12.96 21.29 14.17 20.81 15.26 20.3 16.27 19.77 17.18 19.22 17.97 18.65 18.66 18.07 19.22 17.45 19.69 16.82 20.04 16.19 20.28 15.51 20.39 14.85 20.4 14.17 20.28 13.46 20.06 12.75 19.71 12.05 19.25 11.3 18.69 10.57 17.99 9.84 17.19 9.07 16.25 8.3 15.25 7.53 14.1 6.77 12.81 5.97 11.44 5.18 9.96 4.39 8.35 3.59 6.61 2.76 4.78 1.96 2.87 1.14.66.26zm59.94-43.88c22.76 8.75 34.12 34.31 25.37 57.07s-34.31 34.12-57.07 25.37z" class="fil2"/><path d="M10107.6 5377.82c123.36-221.68 251.4-526.07 263.67-833.09 15.8-395.28-123.82-733.76-462.77-1204.63-1271.99-708.49-1406.75 554.29-1406.75 554.29s1454.63-439.27 1605.85 1483.43" class="fil1"/><path d="m10327.14 4542.97 88.26 3.52-1.54 29.79-2.22 29.73-2.86 29.65-3.5 29.56-4.1 29.46-4.69 29.32-5.23 29.21-5.78 29.04-6.29 28.88-6.76 28.72-7.24 28.52-7.68 28.31-8.1 28.11-8.49 27.87-8.85 27.63-9.22 27.37-9.54 27.09-9.84 26.81-10.12 26.53-10.39 26.2-10.62 25.87-10.83 25.53-11.03 25.19-11.2 24.81-11.35 24.44-11.48 24.03-11.58 23.63-11.66 23.2-11.71 22.76-11.76 22.32-11.78 21.86-11.77 21.37-77.18-42.96 11.39-20.67 11.38-21.12 11.36-21.58 11.33-22.02 11.28-22.42 11.18-22.83 11.08-23.21 10.95-23.58 10.8-23.93 10.63-24.25 10.43-24.59 10.22-24.91 9.99-25.18 9.72-25.45 9.44-25.73 9.14-25.97 8.82-26.19 8.47-26.41 8.11-26.61 7.72-26.79 7.3-26.95 6.88-27.1 6.42-27.24 5.95-27.36 5.46-27.46 4.95-27.55 4.41-27.62 3.86-27.68 3.28-27.72 2.68-27.73 2.06-27.77zm-440.13-1164.29 42.98-77.16 14.35 12.78 31.44 44.1 30.29 43.39 29.16 42.72 28.02 42.07 26.9 41.47 25.8 40.9 24.68 40.37 23.58 39.88 22.49 39.41 21.41 39 20.32 38.61 19.25 38.25 18.19 37.95 17.12 37.67 16.06 37.41 15.01 37.2 13.96 37.02 12.93 36.89 11.87 36.76 10.85 36.68 9.81 36.62 8.81 36.6 7.77 36.61 6.76 36.64 5.77 36.72 4.76 36.81 3.77 36.94 2.78 37.08 1.82 37.26.84 37.47-.11 37.71-1.05 37.98-88.26-3.52.99-35.82.11-35.49-.8-35.19-1.7-34.96-2.6-34.74-3.53-34.56-4.46-34.45-5.39-34.36-6.34-34.32-7.29-34.31-8.25-34.34-9.23-34.42-10.21-34.54-11.21-34.68-12.21-34.87-13.24-35.1-14.27-35.36-15.32-35.67-16.36-35.99-17.43-36.37-18.51-36.77-19.58-37.21-20.69-37.68-21.79-38.19-22.9-38.74-24.02-39.29-25.16-39.9-26.3-40.55-27.46-41.21-28.6-41.92-29.79-42.65-30.94-43.42zm-14.35-12.78c-14.24-19.79-9.75-47.4 10.04-61.64s47.4-9.75 61.64 10.04zm-1383.68 486.21 25.54 84.56-56.69-46.97.55-4.6 1.49-11.11 2.69-17.46 4.06-23.18 5.62-28.3 7.38-32.84 9.34-36.78 11.47-40.14 13.82-42.93 16.37-45.14 19.14-46.76 22.1-47.8 25.29-48.25 28.72-48.11 32.37-47.36 36.26-46 40.37-44 44.71-41.35 49.26-38.01 53.99-33.98 58.81-29.22 63.74-23.8 68.72-17.72 73.73-11.01 78.79-3.73 83.91 4.07 89.15 12.41 94.53 21.22 100.1 30.58 105.86 40.44 111.82 50.87 118 61.81-42.98 77.16-113.9-59.67-107.12-48.71-100.48-38.4-94.02-28.72-87.73-19.7-81.61-11.35-75.73-3.67-70.11 3.31-64.75 9.67-59.76 15.42-55.08 20.58-50.71 25.22-46.63 29.36-42.8 33.05-39.15 36.21-35.67 38.9-32.34 41.06-29.13 42.66-26.08 43.69-23.13 44.15-20.36 44.02-17.7 43.28-15.21 41.96-12.88 40.01-10.71 37.48-8.7 34.34-6.88 30.6-5.22 26.24-3.72 21.32-2.43 15.78-1.29 9.71-.31 2.6zm56.69 46.97c-2.59 24.25-24.36 41.82-48.61 39.23s-41.82-24.36-39.23-48.61zm1523.34 1457.26 77.18 42.96-82.62-18.02-17.68-171.24-24.67-157.72-31.14-144.73-37.03-132.29-42.41-120.36-47.25-108.97-51.56-98.17-55.36-87.92-58.65-78.25-61.46-69.17-63.82-60.68-65.72-52.72-67.19-45.34-68.22-38.47-68.82-32.12-68.94-26.26-68.64-20.89-67.82-15.99-66.55-11.58-64.75-7.64-62.47-4.19-59.68-1.23-56.35 1.25-52.52 3.23-48.18 4.7-43.32 5.7-37.95 6.17-32.05 6.15-25.66 5.62-18.76 4.58-11.41 3.05-3.02.87-25.54-84.56 5.34-1.53 12.97-3.47 20.66-5.04 27.78-6.08 34.39-6.59 40.49-6.57 46.1-6.06 51.22-5 55.84-3.43 59.97-1.33 63.6 1.33 66.73 4.47 69.37 8.2 71.51 12.46 73.12 17.25 74.22 22.59 74.78 28.5 74.8 34.92 74.26 41.89 73.13 49.36 71.46 57.34 69.2 65.8 66.38 74.71 63.01 84.07 59.1 93.9 54.7 104.13 49.79 114.85 44.41 126.02 38.55 137.67 32.22 149.83 25.41 162.46 18.14 175.6zm82.62 18.02c1.91 24.31-16.26 45.58-40.57 47.49s-45.58-16.26-47.49-40.57z" class="fil2"/><path d="M9758.21 5808.07s-574.44-757.13-393.5-1153.75c97.81 46.91 181.33 110.03 223.82 195.02 129.55 259.21 567.29 437.87 567.29 437.87-180.74 331.25-397.61 520.86-397.61 520.86" class="fil1"/><path d="m9383.81 4614.5-38.2 79.64 59.28-21.49-12.96 33.5-9.41 35.61-6 37.66-2.7 39.6.45 41.33 3.45 42.8 6.3 44.07 8.94 45.07 11.38 45.81 13.6 46.33 15.59 46.61 17.33 46.62 18.86 46.43 20.14 46.01 21.18 45.38 21.98 44.51 22.52 43.42 22.84 42.13 22.89 40.63 22.72 38.89 22.28 36.97 21.62 34.82 20.7 32.47 19.54 29.91 18.15 27.14 16.48 24.16 14.6 20.98 12.47 17.59 10.08 14 7.46 10.19 4.61 6.21 1.41 1.88-70.36 53.38-1.87-2.48-4.93-6.63-7.82-10.69-10.48-14.54-12.87-18.17-15.04-21.62-16.96-24.84-18.63-27.88-20.06-30.71-21.26-33.33-22.2-35.76-22.9-37.99-23.36-40.01-23.59-41.85-23.56-43.47-23.3-44.92-22.78-46.17-22.04-47.2-21.04-48.07-19.8-48.75-18.31-49.24-16.57-49.55-14.58-49.69-12.32-49.65-9.8-49.45-7.02-49.11-3.91-48.58-.51-47.89 3.24-47.04 7.34-45.96 11.81-44.61 16.62-42.92zm-59.28 21.49c10.12-22.19 36.32-31.97 58.51-21.85s31.97 36.32 21.85 58.51zm303.51 193.61-79.02 39.48.01.01-3.49-6.72-3.7-6.62-3.91-6.56-4.11-6.46-4.32-6.37-4.53-6.3-4.73-6.21-4.94-6.16-5.11-6.05-5.33-5.97-5.54-5.94-5.7-5.83-5.89-5.74-6.09-5.69-6.23-5.57-6.45-5.53-6.62-5.44-6.77-5.36-6.93-5.27-7.1-5.2-7.25-5.11-7.42-5.04-7.55-4.96-7.68-4.86-7.83-4.79-7.96-4.7-8.09-4.63-8.2-4.53-8.32-4.45-8.44-4.38-8.55-4.29-8.64-4.22 38.2-79.64 9.62 4.68 9.53 4.79 9.44 4.9 9.38 5.01 9.28 5.15 9.17 5.23 9.1 5.38 8.97 5.49 8.88 5.62 8.75 5.74 8.62 5.86 8.53 6.01 8.38 6.14 8.25 6.27 8.11 6.42 7.94 6.54 7.81 6.69 7.67 6.85 7.47 6.99 7.33 7.14 7.14 7.31 6.94 7.42 6.77 7.61 6.59 7.79 6.36 7.92 6.15 8.09 5.93 8.26 5.72 8.43 5.47 8.6 5.23 8.74 4.98 8.94 4.71 9.08zm-.01-.01c10.9 21.81 2.06 48.35-19.75 59.25s-48.35 2.06-59.25-19.75zm566.56 478.77-77.54-42.3 22.08 62.04-1.61-.66-3.93-1.65-6.25-2.68-8.43-3.68-10.49-4.68-12.35-5.64-14.13-6.58-15.76-7.53-17.26-8.43-18.62-9.35-19.83-10.23-20.93-11.09-21.87-11.95-22.69-12.79-23.4-13.61-23.93-14.43-24.36-15.23-24.63-16.01-24.79-16.77-24.8-17.53-24.7-18.3-24.45-19.03-24.06-19.78-23.56-20.51-22.9-21.24-22.12-21.98-21.2-22.7-20.14-23.46-18.93-24.22-17.57-24.99-16.05-25.75-14.37-26.54 79.02-39.48 11.69 21.58 13.33 21.39 14.89 21.15 16.31 20.86 17.62 20.52 18.82 20.16 19.86 19.74 20.78 19.26 21.56 18.77 22.2 18.24 22.69 17.67 23.06 17.08 23.28 16.45 23.35 15.81 23.29 15.13 23.1 14.43 22.75 13.71 22.26 12.97 21.65 12.19 20.89 11.41 19.99 10.61 18.97 9.77 17.78 8.93 16.46 8.05 15.02 7.17 13.43 6.26 11.71 5.34 9.83 4.38 7.83 3.42 5.71 2.44 3.45 1.45.91.38zm-22.08-62.04c22.58 9.21 33.41 35 24.2 57.58s-35 33.41-57.58 24.2zm-449.48 588.44 70.36-53.38-64.25-6.56.32-.27 1.62-1.46 2.82-2.56 3.92-3.61 5-4.67 6.01-5.72 7.02-6.79 7.98-7.83 8.84-8.85 9.7-9.88 10.51-10.89 11.26-11.89 11.97-12.88 12.63-13.88 13.27-14.86 13.82-15.81 14.35-16.77 14.83-17.72 15.26-18.66 15.64-19.59 15.99-20.51 16.28-21.42 16.53-22.33 16.73-23.21 16.89-24.1 17-24.97 17.06-25.83 17.07-26.68 17.06-27.55 16.98-28.36 16.86-29.19 16.69-30.02 77.54 42.3-17.39 31.26-17.56 30.41-17.68 29.54-17.74 28.65-17.77 27.78-17.76 26.87-17.68 25.99-17.57 25.06-17.39 24.15-17.21 23.23-16.94 22.28-16.63 21.35-16.3 20.41-15.9 19.44-15.45 18.46-14.97 17.51-14.44 16.51-13.85 15.52-13.23 14.52-12.55 13.52-11.84 12.49-11.05 11.47-10.26 10.44-9.42 9.41-8.48 8.33-7.52 7.29-6.57 6.24-5.5 5.15-4.4 4.05-3.24 2.94-2.08 1.86-.94.83zm64.25 6.56c-18.36 16.05-46.27 14.18-62.32-4.18s-14.18-46.27 4.18-62.32z" class="fil2"/><path d="M10832.22 4251.63c.99-300.95-190.24-530.56-414.8-604.54-74.17 172.44 58.15 451.33 414.8 604.54" class="fil1"/><path d="m10457.75 3664.61-80.66-35.04 54.02-24.45 22.65 8 22.4 8.94 22.09 9.9 21.76 10.81 21.4 11.72 21.01 12.59 20.59 13.48 20.16 14.32 19.67 15.16 19.17 15.98 18.65 16.78 18.08 17.57 17.5 18.34 16.87 19.1 16.23 19.83 15.55 20.57 14.84 21.27 14.09 21.96 13.33 22.63 12.53 23.3 11.69 23.94 10.82 24.56 9.95 25.18 9 25.76 8.05 26.33 7.06 26.88 6.04 27.41 4.99 27.92 3.92 28.43 2.8 28.89 1.66 29.34.5 29.77-87.88-.3-.44-26.23-1.46-25.8-2.46-25.35-3.42-24.89-4.37-24.42-5.28-23.95-6.16-23.46-7.03-22.97-7.84-22.44-8.65-21.92-9.44-21.38-10.17-20.84-10.89-20.26-11.59-19.69-12.27-19.1-12.9-18.49-13.51-17.87-14.09-17.23-14.65-16.58-15.18-15.92-15.68-15.23-16.15-14.54-16.59-13.82-17.01-13.1-17.38-12.36-17.75-11.6-18.05-10.83-18.36-10.06-18.62-9.25-18.85-8.44-19.06-7.62-19.25-6.78zm-54.02 24.45c-23.05-7.59-35.62-32.56-28.06-55.73s32.39-35.8 55.44-28.21zm384.55 562.42 87.88.3-61.21 40.46-34.09-15.31-32.8-16.07-31.49-16.78-30.17-17.45-28.88-18.07-27.56-18.66-26.26-19.2-24.96-19.7-23.66-20.17-22.35-20.6-21.06-20.98-19.75-21.34-18.44-21.64-17.14-21.9-15.84-22.13-14.54-22.33-13.22-22.48-11.9-22.59-10.59-22.66-9.28-22.71-7.93-22.71-6.6-22.67-5.25-22.58-3.89-22.48-2.51-22.3-1.12-22.09.28-21.84 1.72-21.54 3.16-21.16 4.61-20.71 6.08-20.2 7.57-19.62 80.66 35.04-5.13 13.32-4.18 13.9-3.23 14.47-2.24 15.02-1.24 15.54-.2 16.06.84 16.57 1.91 16.98 3.01 17.38 4.13 17.76 5.26 18.09 6.41 18.33 7.58 18.57 8.77 18.76 9.96 18.89 11.16 18.98 12.38 19.01 13.6 19.01 14.84 18.96 16.08 18.86 17.31 18.7 18.58 18.52 19.83 18.28 21.12 17.99 22.38 17.68 23.66 17.3 24.94 16.88 26.24 16.43 27.53 15.91 28.83 15.36 30.14 14.77 31.47 14.13zm61.21-40.46c22.31 9.58 32.66 35.55 23.13 57.97s-35.36 32.83-57.67 23.25z" class="fil2"/></g><path d="M10593.99 3049.84c512.36 27.23 968.64 499.75 1249.97 995.25l258.65-245.72 1058.52 122.05c-41.85-819.63-594.05-935.34-717.78-934.7-123.72.64 279.67-375.78 216.43-1028.92-383.77-118.61-1019.12 262.19-1019.12 262.19-374.19-535.94-904.71-513.37-1086.22-505.66 0 0 .71 4.6 146.46 929.25-27.85 170.51-110.57 303.8-106.91 406.26" class="fil3"/><path d="m11813.54 4013.07 60.84 64.04-68.83-10.21-26.48-45.68-27.47-45.48-28.44-45.19-29.38-44.81-30.28-44.37-31.2-43.84-32.04-43.23-32.9-42.56-33.71-41.78-34.51-40.94-35.29-40.03-36.02-39.03-36.74-37.96-37.44-36.8-38.1-35.58-38.74-34.28-39.34-32.88-39.94-31.43-40.5-29.9-41.02-28.3-41.53-26.61-42-24.87-42.45-23.04-42.87-21.15-43.28-19.21-43.64-17.16-43.99-15.08-44.33-12.92-44.63-10.71-44.93-8.41-45.21-6.08-45.5-3.65 4.68-88.2 50.24 4.03 49.81 6.68 49.35 9.25 48.87 11.71 48.35 14.1 47.79 16.38 47.24 18.58 46.64 20.69 46.03 22.71 45.41 24.66 44.76 26.49 44.11 28.27 43.42 29.94 42.74 31.56 42.02 33.07 41.3 34.52 40.56 35.88 39.8 37.16 39.02 38.36 38.24 39.5 37.42 40.55 36.59 41.51 35.75 42.42 34.89 43.24 34 43.98 33.1 44.65 32.18 45.24 31.24 45.75 30.28 46.19 29.3 46.57 28.31 46.84 27.28 47.06zm68.83 10.21c12.04 21.21 4.61 48.18-16.6 60.22s-48.18 4.61-60.22-16.6zm250.66-191.89-258.65 245.72-60.84-64.04 258.65-245.72 35.48-11.85zm-60.84-64.04c17.68-16.8 45.64-16.08 62.44 1.6s16.08 45.64-1.6 62.44zm1083.88 197.94-1058.52-122.05 10.12-87.74 1058.52 122.05 39.05 41.62zm10.12-87.74c24.22 2.79 41.6 24.71 38.81 48.93s-24.71 41.6-48.93 38.81zm-722.61-846.67-.46-88.32 15.25.35 17.12 1.23 19.11 2.18 21.02 3.26 22.79 4.42 24.42 5.7 25.92 7.1 27.23 8.61 28.4 10.22 29.38 11.98 30.22 13.82 30.86 15.81 31.32 17.89 31.61 20.09 31.72 22.4 31.64 24.84 31.36 27.37 30.9 30 30.26 32.74 29.42 35.58 28.39 38.5 27.19 41.53 25.8 44.64 24.21 47.84 22.47 51.12 20.55 54.5 18.45 57.95 16.2 61.51 13.77 65.16 11.18 68.88 8.43 72.73 5.53 76.66-88.22 4.5-5.25-72.94-7.99-68.83-10.52-64.84-12.89-60.98-15.08-57.25-17.07-53.61-18.89-50.12-20.55-46.76-22.03-43.5-23.34-40.4-24.49-37.41-25.49-34.54-26.3-31.82-26.98-29.18-27.52-26.7-27.86-24.31-28.08-22.04-28.14-19.88-28.03-17.81-27.76-15.85-27.34-13.99-26.74-12.24-25.98-10.58-25.04-9.02-23.95-7.57-22.64-6.2-21.18-4.94-19.51-3.78-17.64-2.72-15.55-1.78-13.2-.95zm0 0c-24.38.12-44.27-19.55-44.39-43.93s19.55-44.27 43.93-44.39zM12646.74 2000l26.08-84.4 30.92 37.94 4.73 62.23 2.1 60.58-.34 58.89-2.6 57.16-4.66 55.42-6.54 53.65-8.24 51.86-9.74 50.02-11.05 48.18-12.16 46.31-13.12 44.42-13.83 42.5-14.4 40.58-14.75 38.61-14.93 36.64-14.9 34.63-14.69 32.6-14.28 30.55-13.68 28.44-12.87 26.31-11.87 24.11-10.66 21.84-9.21 19.43-7.55 16.88-5.65 14.01-3.54 10.57-1.42 6.09-.16-.29-2.46-8.19-8.86-10.58-8.53-4.18-.76-.25.46 88.32-20.92-2.33-22.89-10.64-17.78-21.4-6.28-23.31.74-19.67 3.84-17.55 5.72-17.25 7.23-17.97 8.59-19.24 9.83-20.75 10.94-22.42 11.89-24.15 12.69-25.93 13.34-27.74 13.82-29.55 14.13-31.34 14.26-33.15 14.23-34.94 14.03-36.73 13.66-38.48 13.11-40.24 12.38-41.96 11.48-43.69 10.41-45.4 9.18-47.08 7.74-48.76 6.16-50.41 4.38-52.08 2.44-53.72.32-55.35-1.98-56.98-4.45-58.61zm-30.92-37.94c-2.35-24.27 15.43-45.87 39.7-48.22s45.87 15.43 48.22 39.7zm-1011.37 283.21 72.42-50.56-58.91-12.6 2.15-1.28 5.62-3.29 9.06-5.23 12.32-6.97 15.4-8.57 18.34-10.01 21.11-11.28 23.73-12.39 26.17-13.34 28.46-14.13 30.6-14.77 32.57-15.22 34.38-15.55 36.04-15.67 37.53-15.68 38.89-15.48 40.06-15.16 41.1-14.65 41.98-14.01 42.73-13.15 43.28-12.18 43.72-11.03 44.01-9.7 44.16-8.2 44.15-6.54 44.01-4.69 43.74-2.66 43.33-.43 42.78 2 42.08 4.65 41.21 7.51 40.15 10.59-26.08 84.4-33.23-8.77-34.79-6.33-36.22-3.99-37.48-1.74-38.61.39-39.5 2.4-40.23 4.29-40.77 6.04-41.12 7.64-41.27 9.1-41.28 10.41-41.08 11.56-40.71 12.55-40.16 13.39-39.44 14.07-38.56 14.58-37.49 14.94-36.27 15.14-34.86 15.17-33.3 15.05-31.57 14.76-29.66 14.31-27.6 13.71-25.37 12.92-22.97 12.01-20.41 10.9-17.68 9.65-14.8 8.23-11.74 6.65-8.52 4.91-5.18 3.03-1.51.9zm58.91 12.6c-20.92 12.53-48.05 5.74-60.58-15.18s-5.74-48.05 15.18-60.58zm-1065.27-550.28-87.3 13.48 41.78-50.87 18.17-.75 20.29-.74 22.29-.62 24.17-.39 25.97-.05 27.62.41 29.2.96 30.67 1.63 32.06 2.4 33.33 3.31 34.53 4.29 35.62 5.41 36.6 6.63 37.52 7.95 38.32 9.4 39.04 10.94 39.63 12.61 40.16 14.38 40.57 16.27 40.87 18.24 41.11 20.36 41.2 22.55 41.21 24.87 41.11 27.29 40.91 29.79 40.61 32.43 40.2 35.13 39.69 37.95 39.07 40.87 38.37 43.87 37.56 46.96 36.63 50.16-72.42 50.56-34.41-47.1-35.14-43.94-35.79-40.93-36.35-38.01-36.83-35.21-37.24-32.55-37.53-29.97-37.79-27.51-37.93-25.17-37.99-22.93-37.98-20.79-37.89-18.76-37.71-16.84-37.45-15.01-37.12-13.28-36.67-11.67-36.16-10.14-35.56-8.72-34.86-7.39-34.08-6.17-33.2-5.03-32.25-4.01-31.19-3.09-30.04-2.26-28.83-1.53-27.5-.9-26.1-.39-24.59.05-23.03.37-21.39.6-19.67.72-17.87.75zm-41.78 50.87c-24.37 1.03-44.97-17.89-46-42.26s17.89-44.97 42.26-46zm188.18 892.24-87.18-14.24-.04 14-13.24-84.02-12.42-78.79-11.63-73.74-10.85-68.85-10.11-64.14-9.39-59.57-8.7-55.21-8.03-50.96-7.4-46.93-6.78-43.05-6.2-39.32-5.64-35.78-5.11-32.4-4.6-29.2-4.12-26.14-3.67-23.27-3.24-20.56-2.84-18.03-2.46-15.64-2.12-13.43-1.8-11.4-1.5-9.56-1.23-7.82-.99-6.27-.78-4.95-.58-3.71-.43-2.71-.29-1.88-.13-.82-.16-.95-.1-.74.06.45 87.3-13.48.08.53-.04-.26.04.25.23 1.42.27 1.78.43 2.67.58 3.73.78 4.91.99 6.31 1.23 7.82 1.5 9.52 1.8 11.4 2.12 13.45 2.46 15.64 2.84 18.01 3.24 20.56 3.67 23.27 4.12 26.16 4.6 29.18 5.11 32.4 5.64 35.78 6.2 39.34 6.78 43.03 7.4 46.93 8.03 50.98 8.7 55.19 9.39 59.57 10.11 64.14 10.85 68.85 11.63 73.74 12.42 78.79 13.24 84.02zm.04-14c3.79 24.09-12.66 46.72-36.75 50.51s-46.72-12.66-50.51-36.75zm-148.2 369.04-4.68 88.2-41.8-42.52-.11-11.93.46-11.92.99-11.93 1.47-11.9 1.91-11.9 2.3-11.91 2.64-11.92 2.97-11.98 3.25-12.02 3.5-12.07 3.73-12.17 3.92-12.22 4.08-12.33 4.22-12.42 4.34-12.56 4.44-12.66 4.5-12.76 4.53-12.88 4.55-13.03 4.54-13.17 4.52-13.3 4.45-13.43 4.36-13.57 4.28-13.74 4.14-13.87 3.99-14 3.82-14.18 3.61-14.32 3.4-14.48 3.16-14.62 2.89-14.8 2.61-14.97 87.18 14.24-2.93 16.79-3.23 16.52-3.5 16.26-3.76 15.98-3.97 15.7-4.16 15.44-4.31 15.18-4.46 14.89-4.54 14.62-4.62 14.35-4.67 14.09-4.68 13.82-4.68 13.53-4.63 13.27-4.57 13-4.48 12.74-4.36 12.42-4.2 12.14-4.04 11.88-3.84 11.59-3.62 11.3-3.37 10.97-3.08 10.67-2.81 10.34-2.47 10.02-2.16 9.68-1.8 9.33-1.43 8.96-1.07 8.58-.69 8.21-.3 7.82.07 7.47zm41.8 42.52c.87 24.37-18.19 44.85-42.56 45.72s-44.85-18.19-45.72-42.56z" class="fil2"/><path d="M10709.54 2668.1c-23.88-4.94-39.23-28.33-34.29-52.21s28.33-39.23 52.21-34.29zm1476.73 1137.83-81.38 34.36-12.41-29.36-13.39-31.3-14.48-33.11-15.66-34.75-16.95-36.27-18.35-37.64-19.85-38.87-21.45-39.94-23.14-40.87-24.96-41.63-26.85-42.26-28.87-42.73-30.97-43.06-33.17-43.24-35.49-43.24-37.89-43.13-40.41-42.85-43.02-42.43-45.75-41.85-48.57-41.12-51.52-40.27-54.56-39.25-57.71-38.07-60.98-36.75-64.36-35.29-67.86-33.67-71.45-31.89-75.16-29.96-79-27.86-82.95-25.63-87-23.24-91.17-20.66 17.92-86.5 94.39 21.4 90.26 24.1 86.25 26.65 82.32 29.04 78.48 31.28 74.73 33.35 71.08 35.27 67.54 37.03 64.06 38.61 60.71 40.05 57.44 41.31 54.26 42.41 51.19 43.34 48.23 44.11 45.34 44.71 42.57 45.15 39.91 45.41 37.35 45.52 34.89 45.46 32.51 45.22 30.29 44.83 28.15 44.28 26.1 43.57 24.18 42.67 22.35 41.62 20.63 40.41 19.03 39.02 17.53 37.49 16.1 35.77 14.82 33.87 13.61 31.8zm0 0c9.48 22.47-1.04 48.39-23.51 57.87s-48.39-1.04-57.87-23.51z" class="fil2"/><path d="M9185.49 15100.15c-208.66-355.19-366.28-710.36-434.55-1129.57-2703.5 2334.84-705.47 2659.7-951.24 3274.13-368.66 491.55-2027.46 553.17-1351.75 1228.87 122.88 122.88 122.88-245.77 368.66-245.77 368.66 122.88 122.91 202.39 368.66-122.89 79.58-105.34 369.84 22.24 491.54-122.89 298.32-361.77 737.32-737.32 737.32-737.32-737.32-1105.95 279.81-1038.58 771.36-2144.56" class="fil1"/><path d="m8779.81 14004.01-57.74-66.86 72.46 26.33 6.55 38.49 7.07 38.12 7.56 37.78 8.05 37.44 8.55 37.12 9.02 36.8 9.5 36.51 9.97 36.24 10.42 35.95 10.89 35.68 11.33 35.45 11.77 35.21 12.21 35 12.63 34.76 13.07 34.59 13.47 34.39 13.89 34.22 14.29 34.06 14.68 33.91 15.08 33.76 15.46 33.66 15.84 33.52 16.21 33.43 16.57 33.34 16.94 33.26 17.28 33.19 17.64 33.14 17.97 33.1 18.3 33.06 18.62 33.05 18.95 33.03 19.26 33.04-76.16 44.74-19.56-33.56-19.27-33.59-18.96-33.63-18.64-33.68-18.31-33.74-18-33.8-17.66-33.91-17.3-34-16.95-34.1-16.61-34.23-16.22-34.36-15.86-34.5-15.48-34.66-15.08-34.83-14.69-35-14.27-35.2-13.87-35.39-13.45-35.61-13.03-35.84-12.57-36.06-12.15-36.31-11.69-36.57-11.23-36.84-10.76-37.13-10.29-37.4-9.82-37.71-9.32-38.02-8.83-38.34-8.31-38.68-7.82-39.02-7.29-39.38-6.77-39.75zm-72.46-26.33c-3.92-24.07 12.42-46.77 36.49-50.69s46.77 12.42 50.69 36.49zm-872.32 3293.53-70.66-53-5.68 10.1 14.31-48.71 4.02-46.86-5.01-46.77-13.4-47.88-21.24-49.58-28.25-51.46-34.22-53.47-38.97-55.62-42.43-58.01-44.6-60.74-45.42-63.83-44.91-67.33-43.08-71.26-39.85-75.66-35.22-80.45-29.19-85.65-21.72-91.18-12.84-96.99-2.63-103 8.9-109.22 21.61-115.68 35.52-122.43 50.55-129.54 66.77-137.06 84.17-145.03 102.79-153.46 122.65-162.38 143.74-171.76 166.1-181.61 189.75-191.93 214.65-202.7 240.83-213.91 57.74 66.86-238.95 212.23-212.59 200.74-187.47 189.63-163.64 178.93-141.1 168.58-119.81 158.64-99.83 149.04-81.15 139.81-63.81 130.96-47.81 122.52-33.2 114.49-19.99 106.94-8.12 99.96 2.39 93.56 11.66 87.83 19.72 82.7 26.65 78.15 32.48 74.11 37.17 70.52 40.72 67.34 43.09 64.57 44.28 62.21 44.24 60.26 43.01 58.81 40.51 57.86 36.78 57.51 31.71 57.84 25.14 58.92 16.86 60.64 6.59 62.63-5.58 64.24-19.05 64.93zm5.68-10.1c-9.05 22.64-34.77 33.66-57.41 24.61s-33.66-34.77-24.61-57.41zm-1361.53 1181.24-62.46 62.46-59.26-64.46-46.56-62.15-34.32-60.37-22.22-59.06-10.05-57.83 2.19-56 13.83-53.03 24.18-49.21 32.94-45.27 40.43-41.76 46.97-38.88 52.79-36.52 57.98-34.66 62.58-33.14 66.58-31.94 69.97-31.02 72.75-30.33 74.88-29.86 76.4-29.61 77.24-29.57 77.44-29.71 76.99-30.05 75.84-30.55 74.02-31.25 71.52-32.11 68.33-33.11 64.44-34.25 59.85-35.5 54.53-36.83 48.58-38.19 41.95-39.51 34.86-40.87 70.66 53-41.6 48.85-48.31 45.53-54.14 42.59-59.31 40.07-63.83 37.88-67.7 35.99-70.97 34.41-73.6 33.03-75.6 31.93-76.96 31.01-77.67 30.31-77.72 29.81-77.1 29.51-75.82 29.39-73.86 29.46-71.21 29.69-67.87 30.08-63.82 30.6-59.04 31.26-53.54 31.98-47.29 32.7-40.37 33.36-32.81 33.84-24.9 34.07-16.92 34.29-9.19 34.97-1.45 36.92 7.03 40.37 16.9 44.8 28.2 49.55 40.64 54.19zm351.4-256.44-27.94 83.8 13.97 2.27-18.16.85-16.64 2.43-15.39 3.84-14.34 5.14-13.48 6.36-12.78 7.51-12.17 8.64-11.65 9.69-11.16 10.7-10.71 11.57-10.27 12.33-9.84 12.98-9.47 13.49-9.13 13.85-8.81 14.05-8.58 14.14-8.4 14.07-8.29 13.88-8.31 13.58-8.45 13.18-8.75 12.68-9.31 12.13-10.21 11.49-11.6 10.71-13.63 9.53-16.17 7.49-18.52 4.11-19.51-.36-18.77-4.78-17.1-8.26-15.61-10.93-14.68-13.26 62.46-62.46 7.66 6.96 5.43 3.83 2.76 1.38.07.04-1.57-.04-1.36.25.37-.25 2.41-1.75 4.08-3.83 5.25-5.95 6.05-7.93 6.67-9.68 7.15-11.16 7.59-12.42 8.07-13.48 8.54-14.31 9.08-14.98 9.71-15.47 10.39-15.75 11.15-15.89 12.06-15.86 13.03-15.65 14.11-15.23 15.32-14.64 16.63-13.83 18.05-12.78 19.52-11.47 21-9.88 22.5-8.04 23.93-5.96 25.28-3.69 26.5-1.25zm-13.97-2.27c24.39 0 44.17 19.78 44.17 44.17s-19.78 44.17-44.17 44.17zm333.42-105.34 70.48 53.24-21.04 28.52-18.34 26.13-15.86 23.85-13.6 21.63-11.54 19.49-9.69 17.41-8.07 15.47-6.68 13.61-5.5 11.91-4.58 10.4-3.93 9.14-3.64 8.32-3.92 8.17-5.35 9.06-9.55 11.01-17.48 10.41-21.13 2.77-15.43-3.42-10.1-4.59-7.82-4.56-7.42-4.76-7.91-5.19-8.97-5.77-10.49-6.48-12.27-7.18-14.37-7.87-16.69-8.54-19.26-9.15-22.07-9.72-25.09-10.23-28.3-10.65-31.78-11.02 27.94-83.8 33.82 11.74 30.48 11.47 27.33 11.13 24.35 10.72 21.58 10.25 18.97 9.7 16.53 9.07 14.25 8.32 12.09 7.46 10.05 6.45 7.95 5.23 5.7 3.66 2.96 1.78-1.26-.47-8.11-1.66-14.95 2.03-12 7.03-4.41 4.89-.11.04 1.82-3.87 3-6.88 4.01-9.34 5.08-11.5 6.26-13.55 7.62-15.53 9.13-17.49 10.85-19.49 12.74-21.51 14.82-23.57 17.1-25.71 19.58-27.89zm492.71-124.37 68.14 56.2-.23.28-14.86 16.03-16.06 14.19-17 12.33-17.77 10.58-18.34 8.91-18.76 7.41-19.12 6.06-19.29 4.83-19.44 3.8-19.51 2.88-19.52 2.11-19.51 1.46-19.4.92-19.24.5-19.04.18-18.78-.04-18.42-.16-17.99-.17-17.54-.1-16.92.04-16.26.3-15.5.6-14.61.99-13.63 1.44-12.5 1.89-11.27 2.38-9.92 2.82-8.51 3.23-7.1 3.52-5.74 3.74-4.67 4-3.92 4.46-70.48-53.24 12.22-13.96 13.79-11.88 14.9-9.76 15.62-7.82 16.11-6.13 16.46-4.72 16.77-3.56 17.02-2.59 17.25-1.82 17.51-1.19 17.68-.7 17.86-.32 18-.06 18.06.12 18.11.17 18.08.16 17.98.02 17.82-.16 17.58-.46 17.26-.8 16.83-1.26 16.38-1.77 15.79-2.32 15.16-2.96 14.43-3.61 13.6-4.3 12.8-5.05 11.96-5.79 11.11-6.6 10.32-7.47 9.56-8.45 8.92-9.61zm.23-.28c15.67-18.68 43.54-21.13 62.22-5.46s21.13 43.54 5.46 62.22zm734.41-684.44 73.5-49-8.04 58.06-1.14.98-3.7 3.19-6.04 5.22-8.24 7.17-10.41 9.1-12.45 10.94-14.38 12.73-16.21 14.4-17.92 16.03-19.53 17.59-21.05 19.08-22.43 20.47-23.74 21.83-24.93 23.09-25.99 24.29-26.99 25.41-27.84 26.46-28.61 27.45-29.25 28.33-29.8 29.2-30.24 29.94-30.58 30.64-30.8 31.26-30.92 31.8-30.94 32.28-30.83 32.68-30.64 33-30.33 33.25-29.9 33.44-29.38 33.53-28.74 33.56-28.01 33.52-68.14-56.2 28.71-34.36 29.42-34.36 30-34.25 30.5-34.08 30.87-33.85 31.14-33.56 31.33-33.18 31.38-32.76 31.36-32.24 31.2-31.68 30.96-31.02 30.6-30.3 30.14-29.52 29.59-28.67 28.91-27.73 28.14-26.74 27.25-25.67 26.27-24.53 25.17-23.33 23.98-22.05 22.67-20.69 21.27-19.28 19.75-17.77 18.12-16.23 16.41-14.58 14.56-12.87 12.63-11.1 10.57-9.26 8.46-7.35 6.16-5.32 3.76-3.25 1.4-1.2zm8.04-58.06c18.53-15.85 46.42-13.68 62.27 4.85s13.68 46.42-4.85 62.27zm761.99-2088.63 76.16-44.74 2.28 40.31-48.46 102.24-51.22 95.74-53.5 89.6-55.34 83.89-56.75 78.57-57.69 73.67-58.19 69.2-58.23 65.14-57.84 61.51-56.99 58.3-55.68 55.49-53.95 53.12-51.75 51.14-49.13 49.58-46.06 48.38-42.58 47.54-38.67 47.09-34.41 46.96-29.82 47.21-24.92 47.82-19.81 48.9-14.47 50.54-8.85 52.82-2.91 55.82 3.52 59.49 10.44 63.8 17.93 68.64 25.99 73.9 34.55 79.6 43.62 85.61 53.12 92.02 63.08 98.79-73.5 49-65.02-101.85-55.26-95.72-45.88-90.09-36.89-84.96-28.23-80.32-19.89-76.14-11.84-72.38-4.06-68.95 3.41-65.76 10.51-62.74 17.11-59.86 23.13-57.2 28.56-54.84 33.38-52.89 37.65-51.4 41.41-50.43 44.72-49.96 47.6-50 50.07-50.52 52.13-51.52 53.81-52.98 55.08-54.91 55.99-57.26 56.48-60.07 56.61-63.32 56.33-66.98 55.69-71.11 54.65-75.65 53.22-80.67 51.42-86.12 49.22-92 46.64-98.4zm-2.28-40.31c9.9-22.29 36.01-32.32 58.3-22.42s32.32 36.01 22.42 58.3z" class="fil2"/><path d="M11820.91 15100.15c208.66-355.19 366.27-710.36 434.55-1129.57 2703.5 2334.84 705.47 2659.7 951.24 3274.13 368.66 491.55 2027.45 553.17 1351.75 1228.87-122.89 122.88-122.89-245.77-368.66-245.77-368.66 122.88-122.91 202.39-368.66-122.89-79.58-105.34-369.84 22.24-491.54-122.89-298.32-361.77-737.32-737.32-737.32-737.32 737.32-1105.95-279.82-1038.58-771.36-2144.56" class="fil1"/><path d="m12226.59 14004.01 72.46-26.33-6.77 39.75-7.29 39.38-7.82 39.02-8.32 38.68-8.82 38.34-9.33 38.02-9.81 37.7-10.29 37.42-10.77 37.12-11.23 36.84-11.69 36.56-12.14 36.32-12.59 36.07-13.02 35.82-13.44 35.61-13.87 35.4-14.28 35.2-14.68 35-15.09 34.83-15.47 34.65-15.86 34.52-16.23 34.35-16.59 34.22-16.96 34.11-17.32 34-17.65 33.9-17.99 33.81-18.31 33.74-18.64 33.68-18.96 33.63-19.27 33.59-19.56 33.56-76.16-44.74 19.26-33.04 18.95-33.03 18.62-33.05 18.3-33.06 17.97-33.1 17.63-33.13 17.29-33.2 16.94-33.26 16.56-33.33 16.21-33.44 15.85-33.53 15.46-33.64 15.07-33.77 14.69-33.91 14.28-34.06 13.9-34.22 13.47-34.38 13.06-34.59 12.64-34.78 12.21-34.99 11.76-35.2 11.33-35.46 10.89-35.68 10.43-35.96 9.97-36.22 9.49-36.52 9.03-36.8 8.54-37.12 8.06-37.44 7.56-37.78 7.07-38.12 6.55-38.49 72.46-26.33zm72.46-26.33-87.18-14.2c3.92-24.07 26.62-40.41 50.69-36.49s40.41 26.62 36.49 50.69m872.32 3293.53-5.68-10.1-19.05-64.93-5.58-64.24 6.59-62.63 16.86-60.64 25.14-58.92 31.71-57.84 36.78-57.51 40.51-57.86 43.01-58.81 44.24-60.26 44.28-62.21 43.09-64.57 40.72-67.34 37.17-70.52 32.48-74.11 26.65-78.15 19.72-82.7 11.66-87.83 2.39-93.56-8.12-99.96-19.99-106.94-33.2-114.49-47.81-122.52-63.81-130.96-81.15-139.81-99.83-149.04-119.81-158.64-141.1-168.58-163.64-178.93-187.47-189.63-212.59-200.74-238.95-212.23 57.74-66.86 240.83 213.91 214.65 202.7 189.75 191.93 166.1 181.61 143.74 171.76 122.65 162.38 102.79 153.46 84.17 145.03 66.77 137.06 50.55 129.54 35.52 122.43 21.61 115.68 8.9 109.22-2.63 103-12.84 96.99-21.72 91.18-29.19 85.65-35.22 80.45-39.85 75.66-43.08 71.26-44.91 67.33-45.42 63.83-44.6 60.74-42.43 58.01-38.97 55.62-34.22 53.47-28.25 51.46-21.24 49.58-13.4 47.88-5.01 46.77 4.02 46.86 14.31 48.71-5.68-10.1zm-5.68-10.1 82.02-32.8c9.05 22.64-1.97 48.36-24.61 57.41s-48.36-1.97-57.41-24.61m1361.53 1181.24 53.98-58.7 40.64-54.19 28.19-49.55 16.91-44.81 7.03-40.36-1.45-36.92-9.2-34.97-16.92-34.29-24.9-34.07-32.82-33.84-40.35-33.36-47.3-32.69-53.54-31.99-59.04-31.26-63.81-30.6-67.87-30.08-71.21-29.69-73.86-29.46-75.82-29.39-77.11-29.51-77.72-29.81-77.66-30.32-76.96-31-75.6-31.93-73.6-33.03-70.97-34.41-67.71-35.99-63.83-37.88-59.3-40.07-54.14-42.59-48.31-45.53-41.6-48.85 70.66-53 34.86 40.87 41.95 39.51 48.58 38.19 54.54 36.83 59.83 35.5 64.45 34.25 68.33 33.11 71.52 32.11 74.02 31.25 75.84 30.56 76.98 30.04 77.44 29.71 77.25 29.57 76.4 29.61 74.88 29.86 72.75 30.33 69.97 31.02 66.57 31.94 62.58 33.14 57.98 34.65 52.8 36.53 46.97 38.88 40.42 41.76 32.94 45.27 24.18 49.21 13.84 53.03 2.19 56-10.05 57.84-22.23 59.05-34.31 60.37-46.56 62.15-59.26 64.46zm-351.4-256.44 13.97-2.27 26.5 1.25 25.28 3.69 23.93 5.96 22.49 8.04 21.01 9.88 19.52 11.47 18.03 12.77 16.65 13.83 15.32 14.65 14.12 15.24 13.02 15.64 12.05 15.86 11.15 15.89 10.39 15.75 9.71 15.47 9.08 14.98 8.54 14.31 8.06 13.47 7.61 12.43 7.15 11.17 6.66 9.67 6.05 7.93 5.25 5.95 4.07 3.82 2.42 1.75.38.26-1.36-.25-1.58.04.07-.04 2.78-1.38 5.42-3.83 7.66-6.96 62.46 62.46-14.68 13.26-15.62 10.93-17.1 8.26-18.75 4.78-19.52.36-18.52-4.11-16.16-7.48-13.64-9.53-11.61-10.72-10.21-11.49-9.31-12.13-8.76-12.69-8.43-13.17-8.31-13.57-8.3-13.89-8.4-14.07-8.58-14.14-8.81-14.05-9.13-13.85-9.47-13.49-9.85-12.98-10.26-12.34-10.7-11.56-11.16-10.69-11.65-9.69-12.19-8.65-12.76-7.51-13.49-6.36-14.33-5.14-15.39-3.84-16.64-2.43-18.16-.85 13.97-2.27zm13.97-2.27v88.34c-24.39 0-44.17-19.78-44.17-44.17s19.78-44.17 44.17-44.17m-333.42-105.34 22.22 30.12 19.58 27.89 17.1 25.71 14.82 23.57 12.74 21.51 10.85 19.49 9.13 17.49 7.62 15.53 6.26 13.55 5.08 11.5 4.01 9.34 3 6.88 1.82 3.87-.11-.04-4.41-4.89-12-7.03-14.95-2.03-8.11 1.66-1.26.47 2.96-1.78 5.7-3.66 7.95-5.23 10.05-6.45 12.09-7.46 14.25-8.32 16.53-9.07 18.97-9.7 21.58-10.25 24.35-10.72 27.33-11.13 30.48-11.47 33.82-11.74 27.94 83.8-31.78 11.02-28.3 10.65-25.09 10.23-22.07 9.72-19.26 9.15-16.69 8.54-14.37 7.87-12.27 7.18-10.49 6.48-8.97 5.77-7.91 5.19-7.42 4.76-7.82 4.56-10.1 4.59-15.43 3.42-21.13-2.77-17.48-10.41-9.55-11.01-5.35-9.06-3.92-8.17-3.64-8.32-3.93-9.14-4.58-10.4-5.5-11.91-6.68-13.61-8.07-15.47-9.69-17.41-11.54-19.49-13.6-21.63-15.86-23.85-18.34-26.13-21.04-28.52zm-492.71-124.37-.23-.28 8.92 9.61 9.56 8.45 10.32 7.47 11.11 6.6 11.96 5.79 12.8 5.05 13.6 4.3 14.43 3.61 15.16 2.96 15.79 2.32 16.38 1.77 16.83 1.26 17.26.8 17.58.46 17.82.16 17.98-.02 18.08-.16 18.11-.17 18.06-.12 18 .06 17.86.32 17.68.7 17.51 1.19 17.25 1.82 17.02 2.59 16.77 3.56 16.46 4.72 16.11 6.13 15.62 7.82 14.9 9.76 13.79 11.88 12.22 13.96-70.48 53.24-3.92-4.46-4.67-4-5.74-3.74-7.1-3.52-8.51-3.23-9.92-2.82-11.27-2.38-12.5-1.89-13.63-1.44-14.61-.99-15.5-.6-16.26-.3-16.92-.04-17.54.1-17.99.17-18.42.16-18.78.04-19.04-.18-19.24-.5-19.4-.92-19.51-1.46-19.52-2.11-19.51-2.88-19.44-3.8-19.29-4.83-19.12-6.06-18.76-7.41-18.34-8.91-17.77-10.58-17-12.33-16.06-14.19-14.86-16.03-.23-.28zm-.23-.28-67.68 56.76c-15.67-18.68-13.22-46.55 5.46-62.22s46.55-13.22 62.22 5.46m-734.41-684.44-8.04-58.06 1.4 1.2 3.76 3.25 6.16 5.32 8.46 7.35 10.57 9.26 12.63 11.1 14.56 12.87 16.41 14.58 18.12 16.23 19.75 17.77 21.27 19.28 22.67 20.69 23.98 22.05 25.17 23.33 26.27 24.53 27.25 25.67 28.14 26.74 28.91 27.73 29.59 28.67 30.14 29.52 30.6 30.3 30.96 31.02 31.2 31.68 31.36 32.24 31.38 32.76 31.33 33.18 31.14 33.56 30.87 33.85 30.5 34.08 30 34.25 29.42 34.36 28.71 34.36-68.14 56.2-28.01-33.52-28.74-33.56-29.38-33.53-29.9-33.44-30.33-33.25-30.64-33-30.83-32.68-30.94-32.28-30.92-31.8-30.8-31.26-30.58-30.64-30.24-29.94-29.8-29.2-29.25-28.33-28.61-27.45-27.84-26.46-26.99-25.41-25.99-24.29-24.93-23.09-23.74-21.83-22.43-20.47-21.05-19.08-19.53-17.59-17.92-16.03-16.21-14.4-14.38-12.73-12.45-10.94-10.41-9.1-8.24-7.17-6.04-5.22-3.7-3.19-1.14-.98-8.04-58.06zm-8.04-58.06-57.42 67.12c-18.53-15.85-20.7-43.74-4.85-62.27s43.74-20.7 62.27-4.85m-761.99-2088.63 2.28-40.31 46.64 98.4 49.22 92 51.42 86.12 53.22 80.67 54.65 75.65 55.69 71.11 56.33 66.98 56.61 63.32 56.49 60.07 55.97 57.26 55.09 54.91 53.8 52.98 52.14 51.52 50.07 50.52 47.59 50 44.72 49.95 41.42 50.44 37.65 51.4 33.38 52.89 28.56 54.84 23.13 57.2 17.11 59.86 10.51 62.74 3.4 65.76-4.05 68.95-11.84 72.38-19.89 76.14-28.23 80.32-36.89 84.96-45.88 90.09-55.26 95.72-65.02 101.85-73.5-49 63.08-98.79 53.12-92.02 43.62-85.61 34.55-79.6 25.99-73.9 17.93-68.64 10.44-63.8 3.51-59.49-2.9-55.82-8.85-52.82-14.47-50.54-19.81-48.9-24.92-47.82-29.82-47.21-34.41-46.96-38.68-47.08-42.58-47.55-46.07-48.38-49.11-49.58-51.76-51.14-53.94-53.12-55.69-55.49-56.99-58.3-57.83-61.51-58.23-65.14-58.19-69.2-57.69-73.67-56.75-78.57-55.34-83.89-53.5-89.6-51.22-95.74-48.46-102.24 2.28-40.31zm2.28-40.31-80.72 35.88c-9.9-22.29.13-48.4 22.42-58.3s48.4.13 58.3 22.42m-4719.99-3880.37c-2.18-24.29 15.75-45.76 40.04-47.94s45.76 15.75 47.94 40.04zm-165.05 3628.53-83.8-27.92 32.2-98.02 30.53-95.85 28.87-93.97 27.2-92.41 25.56-91.17 23.94-90.21 22.3-89.57 20.69-89.26 19.1-89.25 17.52-89.56 15.93-90.18 14.37-91.11 12.82-92.37 11.26-93.94 9.73-95.82 8.2-98.02 6.67-100.53 5.16-103.36 3.65-106.49 2.15-109.93.64-113.69-.83-117.75-2.33-122.11-3.8-126.79-5.27-131.78-6.73-137.06-8.18-142.64-9.64-148.54-11.07-154.75-12.51-161.24-13.94-168.07-15.34-175.17 87.98-7.9 15.38 175.57 13.96 168.49 12.55 161.74 11.11 155.31 9.68 149.16 8.22 143.34 6.77 137.82 5.31 132.62 3.82 127.71 2.35 123.13.85 118.83-.66 114.87-2.17 111.19-3.69 107.83-5.24 104.78-6.77 102.01-8.32 99.56-9.89 97.4-11.46 95.54-13.04 93.99-14.63 92.73-16.21 91.78-17.82 91.12-19.42 90.75-21.03 90.68-22.64 90.93-24.26 91.47-25.88 92.31-27.52 93.45-29.15 94.91-30.79 96.67zm0 0c-7.7 23.14-32.72 35.64-55.86 27.94s-35.64-32.72-27.94-55.86zM7854.9 13918c-5.77 23.69-29.68 38.22-53.37 32.45s-38.22-29.68-32.45-53.37zm46.14-2369.54 79.96-37.54 8.11 20.96 6.92 24.57 6.43 29.08 6.1 33.86 5.8 38.66 5.49 43.4 5.12 48.02 4.69 52.46 4.23 56.76 3.68 60.86 3.09 64.81 2.42 68.54 1.71 72.11.91 75.49.07 78.67-.84 81.67-1.82 84.46-2.86 87.07-3.96 89.51-5.14 91.71-6.37 93.76-7.66 95.61-9.02 97.25-10.45 98.71-11.94 99.97-13.5 101.05-15.11 101.93-16.81 102.62-18.56 103.12-20.37 103.42-22.26 103.53-24.2 103.44-85.82-20.92 23.84-101.86 21.92-102.01 20.09-101.96 18.3-101.72 16.59-101.28 14.93-100.63 13.32-99.81 11.8-98.79 10.33-97.55 8.92-96.13 7.58-94.51 6.29-92.7 5.08-90.69 3.92-88.47 2.82-86.07 1.8-83.48.84-80.67-.07-77.69-.91-74.47-1.69-71.09-2.38-67.5-3.03-63.69-3.62-59.7-4.13-55.5-4.57-51.06-4.94-46.42-5.25-41.54-5.46-36.4-5.58-30.94-5.53-25.06-5.2-18.53zm0 0c-10.36-22.08-.87-48.39 21.21-58.75s48.39-.87 58.75 21.21zm6696.38-831.14-88.26-3.7c1.02-24.37 21.61-43.3 45.98-42.28s43.3 21.61 42.28 45.98m157.66 4929.67-33.33-157.74-30.95-156.73-28.65-155.74-26.41-154.87-24.26-154.07-22.18-153.36-20.15-152.71-18.21-152.15-16.35-151.68-14.54-151.28-12.82-150.96-11.15-150.74-9.58-150.58-8.06-150.51-6.63-150.52-5.26-150.61-3.97-150.78-2.75-151.03-1.6-151.38-.53-151.8.49-152.3 1.42-152.87 2.27-153.55 3.07-154.29 3.77-155.11 4.42-156.04 5-157.02 5.49-158.11 5.92-159.25 6.28-160.51 6.56-161.83 6.77-163.25 88.26 3.7-6.77 163.17-6.56 161.73-6.28 160.35-5.9 159.07-5.49 157.87-4.98 156.74-4.42 155.7-3.77 154.75-3.05 153.87-2.27 153.07-1.42 152.37-.47 151.72.51 151.2 1.6 150.72 2.73 150.35 3.95 150.04 5.24 149.83 6.59 149.7 8.02 149.65 9.52 149.68 11.09 149.8 12.74 150 14.44 150.28 16.23 150.66 18.09 151.11 20.01 151.63 22.02 152.26 24.08 152.97 26.23 153.75 28.43 154.62 30.73 155.57 33.09 156.62zm0 0 86.3-18.82c5.19 23.83-9.91 47.37-33.74 52.56s-47.37-9.91-52.56-33.74m-1608.74-1745.26 85.82-20.92c5.77 23.69-8.76 47.6-32.45 53.37s-47.6-8.76-53.37-32.45m-46.14-2369.54-4.05 10.7-5.2 18.53-5.53 25.06-5.58 30.94-5.46 36.4-5.25 41.54-4.94 46.42-4.57 51.06-4.13 55.5-3.62 59.7-3.03 63.69-2.38 67.5-1.69 71.09-.91 74.47-.07 77.69.84 80.67 1.8 83.48 2.82 86.07 3.92 88.47 5.08 90.69 6.29 92.7 7.58 94.51 8.92 96.13 10.33 97.55 11.8 98.79 13.32 99.81 14.93 100.63 16.59 101.28 18.3 101.72 20.09 101.96 21.92 102.01 23.84 101.86-85.82 20.92-24.2-103.44-22.26-103.53-20.37-103.42-18.56-103.12-16.81-102.62-15.11-101.93-13.5-101.05-11.94-99.97-10.45-98.71-9.02-97.25-7.66-95.61-6.37-93.76-5.14-91.71-3.96-89.51-2.86-87.07-1.82-84.46-.84-81.67.07-78.67.91-75.49 1.71-72.11 2.42-68.54 3.09-64.81 3.68-60.86 4.23-56.76 4.69-52.46 5.12-48.02 5.49-43.4 5.8-38.66 6.1-33.86 6.43-29.08 6.92-24.57 8.11-20.96zm0 0-79.96-37.54c10.36-22.08 36.67-31.57 58.75-21.21s31.57 36.67 21.21 58.75m-6714.42-778.01c-1.02-24.37 17.91-44.96 42.28-45.98s44.96 17.91 45.98 42.28zm-157.66 4929.68-86.3-18.82 33.08-156.62 30.73-155.58 28.44-154.62 26.23-153.75 24.08-152.96 22.01-152.26 20.02-151.65 18.09-151.1 16.22-150.65 14.45-150.29 12.73-150 11.1-149.8 9.51-149.68 8.03-149.65 6.59-149.69 5.24-149.83 3.95-150.05 2.73-150.34 1.59-150.73.52-151.19-.48-151.72-1.41-152.38-2.27-153.06-3.05-153.87-3.77-154.76-4.42-155.69-4.98-156.75-5.49-157.86-5.9-159.08-6.28-160.35-6.56-161.73-6.77-163.17 88.26-3.7 6.77 163.25 6.56 161.83 6.28 160.51 5.92 159.26 5.49 158.1 5 157.03 4.42 156.03 3.77 155.12 3.07 154.29 2.27 153.54 1.41 152.88.5 152.3-.54 151.79-1.59 151.37-2.75 151.04-3.97 150.79-5.26 150.61-6.63 150.51-8.07 150.51-9.57 150.58-11.16 150.74-12.81 150.96-14.55 151.29-16.34 151.67-18.21 152.16-20.16 152.71-22.17 153.36-24.26 154.06-26.41 154.87-28.66 155.76-30.95 156.7zm0 0c-5.19 23.83-28.73 38.93-52.56 33.74s-38.93-28.73-33.74-52.56zm7623.83-4546.48-87.98-7.9c2.18-24.29 23.65-42.22 47.94-40.04s42.22 23.65 40.04 47.94m165.04 3628.52-32.44-98.74-30.79-96.67-29.14-94.91-27.53-93.45-25.88-92.32-24.25-91.46-22.65-90.92-21.03-90.69-19.42-90.75-17.82-91.12-16.21-91.78-14.63-92.73-13.03-93.99-11.47-95.54-9.88-97.41-8.32-99.55-6.78-102.01-5.23-104.77-3.69-107.83-2.17-111.2-.66-114.86.85-118.84 2.34-123.13 3.83-127.71 5.3-132.61 6.78-137.82 8.22-143.34 9.68-149.17 11.11-155.3 12.55-161.75 13.96-168.48 15.38-175.57 87.98 7.9-15.34 175.17-13.94 168.06-12.51 161.25-11.07 154.74-9.64 148.55-8.18 142.64-6.74 137.06-5.26 131.77-3.81 126.79-2.32 122.11-.83 117.76.64 113.68 2.15 109.94 3.65 106.49 5.15 103.35 6.68 100.53 8.2 98.03 9.72 95.81 11.27 93.94 12.81 92.37 14.37 91.11 15.93 90.18 17.52 89.56 19.1 89.25 20.69 89.25 22.31 89.58 23.93 90.22 25.56 91.16 27.21 92.41 28.86 93.97 30.53 95.85 32.2 98.02zm0 0 83.8-27.92c7.7 23.14-4.8 48.16-27.94 55.86s-48.16-4.8-55.86-27.94" class="fil2"/></g><path d="M2412.46 2853.7c-494.97 0-898.78 403.79-898.78 898.92 0 494.95 403.81 898.75 898.78 898.75 495.11 0 898.92-403.8 898.92-898.75 0-495.13-403.81-898.92-898.92-898.92" class="fil3" style="stroke:#2b2a29;stroke-width:88.35;stroke-linecap:round;stroke-linejoin:round;stroke-miterlimit:22.9256"/><path d="m3503.97 21249.77-.67-16598.4H1200.32l.78 13590.74c570.66 1001.05 1622.36 2394.97 2302.87 3007.66" class="fil1" style="stroke:#2b2a29;stroke-width:88.32;stroke-linecap:round;stroke-linejoin:round;stroke-miterlimit:22.9256"/><path d="M2927.55 12903.74v959.57H1776.06v-959.57c0-211.42 258.63-383.83 575.75-383.83s575.74 172.41 575.74 383.83m-1727.23 959.53H3503.3zm0-2303.13 2302.98.19zm2302.98-2302.8H1200.32zm-575.75-959.57v959.57H1776.06v-959.57c0-211.42 258.63-383.83 575.75-383.83s575.74 172.41 575.74 383.83M1200.32 6954.32H3503.3z" class="fil1"/><path d="M2927.55 12903.74v959.57H1776.06v-959.57c0-211.42 258.63-383.83 575.75-383.83s575.74 172.41 575.74 383.83m-1727.23 959.53H3503.3m-2302.98-2303.13 2302.98.19m0-2302.99H1200.32m1727.23-959.57v959.57H1776.06v-959.57c0-211.42 258.63-383.83 575.75-383.83s575.74 172.41 575.74 383.83M1200.32 6954.32H3503.3" class="fil4" style="stroke:#2b2a29;stroke-width:88.32;stroke-linecap:round;stroke-linejoin:round;stroke-miterlimit:22.9256"/><path d="M18521.39 2976.95c494.96 0 898.77 403.79 898.77 898.92 0 494.95-403.81 898.75-898.77 898.75-495.12 0-898.93-403.8-898.93-898.75 0-495.13 403.81-898.92 898.93-898.92" class="fil3" style="stroke:#2b2a29;stroke-width:88.35;stroke-linecap:round;stroke-linejoin:round;stroke-miterlimit:22.9256"/><path d="m17429.87 21373.02.67-16598.4h2302.99l-.79 13590.74c-454.38 1009.09-1544.4 2388.16-2302.87 3007.66" class="fil1" style="stroke:#2b2a29;stroke-width:88.32;stroke-linecap:round;stroke-linejoin:round;stroke-miterlimit:22.9256"/><path d="M18006.29 13026.99v959.57h1151.49v-959.57c0-211.42-258.62-383.83-575.74-383.83-317.13 0-575.75 172.41-575.75 383.83m1727.24 959.53h-2302.99zm0-2303.13-2302.99.19zm-2302.99-2302.8h2302.99zm575.75-959.57v959.57h1151.49v-959.57c0-211.42-258.62-383.83-575.74-383.83-317.13 0-575.75 172.41-575.75 383.83m1727.24-1343.45h-2302.99z" class="fil1"/><path d="M18006.29 13026.99v959.57h1151.49v-959.57c0-211.42-258.62-383.83-575.74-383.83-317.13 0-575.75 172.41-575.75 383.83m1727.24 959.53h-2302.99m2302.99-2303.13-2302.99.19m0-2302.99h2302.99m-1727.24-959.57v959.57h1151.49v-959.57c0-211.42-258.62-383.83-575.74-383.83-317.13 0-575.75 172.41-575.75 383.83m1727.24-1343.45h-2302.99" class="fil4" style="stroke:#2b2a29;stroke-width:88.32;stroke-linecap:round;stroke-linejoin:round;stroke-miterlimit:22.9256"/><ellipse cx="10546.09" cy="3874.88" rx="60.47" ry="64.59" style="stroke:#2b2a29;stroke-width:76.19;stroke-miterlimit:22.9256;fill:#2b2a29"/><path d="M20912.92 13822.52c-79.71 2563.8-964.06 4803.06-2633.99 6713.96-2013.45 2207.01-4549.15 3408.78-7402.84 3474.72-3062.88 86.36-5983.08-1151.5-8078.01-3468.65C1826.79 19342.77 93.7 17336.67 93.7 13813.41c0-863.38-.17-13711.08-.17-13711.08h20819.39z" class="fil4" style="stroke:#2b2a29;stroke-width:152.36;stroke-miterlimit:22.9256"/></g></svg>