<!-- Created with Inkscape (http://www.inkscape.org/) -->
<svg
   xmlns="http://www.w3.org/2000/svg"
   id="svg2"
   version="1.0"><title>Herb Ciechanów</title>
  <metadata
     id="metadata7">
    <rdf:RDF>
      <cc:Work
         rdf:about="">
        <dc:format>image/svg+xml</dc:format>
        <dc:type
           rdf:resource="http://purl.org/dc/dcmitype/StillImage" />
        <dc:title>Ciechanów_COA</dc:title>
        <dc:creator>
          <cc:Agent>
            <dc:title />
          </cc:Agent>
        </dc:creator>
        <cc:license
           rdf:resource="" />
        <dc:description>{{GFDL}}</dc:description>
      </cc:Work>
    </rdf:RDF>
  </metadata>
  <defs
     id="defs5" />
  <sodipodi:namedview
     borderopacity="1.0"
     bordercolor="#666666"
     pagecolor="#ffffff"
     id="base"
     borderlayer="top"
     showguides="true"
     showgrid="false"
     gridtolerance="5px"
     gridspacingx="5px"
     gridspacingy="5px" />
  <g
     id="layer1"
     style="display:inline" />
  <g
     id="layer5"
     style="display:inline">
    <path
       style="color:#000000;fill:#0092de;fill-opacity:1;fill-rule:evenodd;stroke:none;stroke-width:2.00000215;stroke-linecap:butt;stroke-linejoin:miter;marker:none;marker-start:none;marker-mid:none;marker-end:none;stroke-miterlimit:4;stroke-dasharray:none;stroke-dashoffset:0;stroke-opacity:1;visibility:visible;display:inline;overflow:visible"
       d="M 497.49337,331.31563 C 497.49337,467.95003 386.56421,578.87916 249.92981,578.87916 C 113.29542,578.87916 2.4825082,467.94998 2.3662709,331.31563 L 2.0859656,1.8229512 L 496.68208,2.530058 L 497.49337,331.31563 z "
       id="path10311" />
  </g>
  <g
     id="layer4"
     style="display:inline">
    <path
       style="opacity:1;color:#000000;fill:#ffff0d;fill-opacity:1;fill-rule:evenodd;stroke:#000000;stroke-width:1.95391703;stroke-linecap:butt;stroke-linejoin:miter;marker:none;marker-start:none;marker-mid:none;marker-end:none;stroke-miterlimit:4;stroke-dasharray:none;stroke-dashoffset:0;stroke-opacity:1;visibility:visible;display:inline;overflow:visible"
       id="path6040"
       d="M 348 128 A 105 105 0 1 1  138,128 A 105 105 0 1 1  348 128 z"
       transform="matrix(1.023585,0,0,1.023585,-8.231132,-8.518868)" />
    <g
       id="g7112"
       transform="translate(-6.39e-2,-7.5)" />
    <path
       style="fill:#f0d5b7;fill-opacity:1;fill-rule:evenodd;stroke:#000000;stroke-width:1px;stroke-linecap:butt;stroke-linejoin:miter;stroke-opacity:1"
       d="M 200,79.999999 C 224.5966,58.08233 257.22822,52.831889 282,81.999999 L 292,122 L 272,168.5 L 203,169.5 L 187,130.5 L 200,79.999999 z "
       id="path2273" />
    <path
       style="color:#000000;fill:#ffffff;fill-opacity:1;fill-rule:evenodd;stroke:#000000;stroke-width:2;stroke-linecap:butt;stroke-linejoin:miter;marker:none;marker-start:none;marker-mid:none;marker-end:none;stroke-miterlimit:4;stroke-dasharray:none;stroke-dashoffset:0;stroke-opacity:1;visibility:visible;display:inline;overflow:visible"
       d="M 278.68208,189.28006 C 278.68208,189.28006 284.3815,195.68335 289.87977,197.55183 C 297.86054,197.4355 308.84858,200.20987 311.29278,211.38107 C 321.40092,214.97721 325.63031,215.6126 333.83424,226.95218 C 338.18581,222.05171 349.4863,226.56362 362.81681,245.44715 C 372.7516,259.52042 383.23427,247.83639 389.82665,279.28196 C 405.41185,299.66659 407.45103,306.15606 416.85223,328.31676 C 431.12139,342.80761 427.75343,358.72705 426.18876,374.68924 C 445.17142,407.4337 434.49279,429.68368 429.32083,438.933 C 439.92661,463.04997 450.32594,476.81391 445.82185,482.63419 C 400.52616,541.16623 329.59753,578.87916 249.92981,578.87916 C 160.81058,578.87916 82.676443,531.68713 39.078715,460.95118 C 42.817507,430.88636 51.157597,400.82153 73.636928,370.75671 C 78.795182,345.32369 81.282475,314.99391 97.162953,309.21831 C 137.81594,195.97871 161.54601,235.04531 192.08597,212.82295 L 198.69701,201.69787 C 198.63901,193.61216 193.15743,182.78996 195.4924,175.06809 C 190.79173,168.80283 189.23844,161.44409 187.93959,153.92953 C 186.52766,145.76073 180.83251,138.96447 173.82459,132.62346 C 172.85254,123.14823 173.76986,115.65074 177.79597,107.72384 C 179.20626,98.389776 184.3856,85.690631 198.69701,77.247078 C 201.18325,75.477847 205.97525,79.391065 201.79433,97.490338 C 197.0666,117.95677 198.74556,154.2103 210.2514,163.35481 C 222.56066,147.7696 239.60648,151.24544 242.29861,150.36861 C 251.05151,147.51776 263.70602,159.31198 268.32649,158.46896 C 273.03785,147.92248 281.3558,146.68103 282.56939,130.57286 C 284.07113,110.64006 279.64744,83.973822 282.13561,82.196826 C 297.36535,95.080578 302.78377,101.60037 298.29695,118.01965 C 299.76233,124.92435 299.11947,132.03551 297.87835,139.13001 C 300.35811,149.40761 295.3339,151.18788 294.34178,157.06139 C 294.04076,165.06094 295.3856,176.52441 287.74171,177.63136 C 286.67541,182.88889 284.1793,189.36473 278.68208,189.28006 z "
       id="path1398" />
    <path
       style="fill:#ffffff;fill-opacity:1;fill-rule:evenodd;stroke:#000000;stroke-width:2;stroke-linecap:butt;stroke-linejoin:miter;stroke-miterlimit:4;stroke-dasharray:none;stroke-opacity:1"
       d="M 206,119 C 213.5,113.45431 221,112.55965 228.5,119 C 227,126.65595 207.5,124.66188 206,119 z "
       id="path2275" />
    <path
       style="fill:#ffffff;fill-opacity:1;fill-rule:evenodd;stroke:#000000;stroke-width:2;stroke-linecap:butt;stroke-linejoin:miter;stroke-miterlimit:4;stroke-dasharray:none;stroke-opacity:1;display:inline"
       d="M 251.81608,119.75587 C 259.77272,114.88796 267.32225,114.65323 274.22972,121.72536 C 272.06533,129.22063 252.81472,125.52732 251.81608,119.75587 z "
       id="path2277" />
    <path
       style="fill:none;fill-opacity:0.75;fill-rule:evenodd;stroke:#000000;stroke-width:2;stroke-linecap:butt;stroke-linejoin:miter;stroke-miterlimit:4;stroke-dasharray:none;stroke-opacity:1"
       d="M 226.5,145 C 235.16199,146.0629 236.82411,151.33297 241.98597,151.2525 C 245.99065,151.19007 247.99532,146.11275 255.5,145.5"
       id="path3152" />
    <path
       style="fill:none;fill-opacity:0.75;fill-rule:evenodd;stroke:#000000;stroke-width:1px;stroke-linecap:butt;stroke-linejoin:miter;stroke-opacity:1"
       d="M 230.5,140 C 231.3166,132.86318 239.31783,129.73255 235,104.5 C 236.28474,102 234.20716,99.499999 233,96.999999"
       id="path3154" />
    <path
       style="fill:none;fill-opacity:0.75;fill-rule:evenodd;stroke:#000000;stroke-width:1px;stroke-linecap:butt;stroke-linejoin:miter;stroke-opacity:1"
       d="M 250.5,139.5 C 249.75373,127.59951 243.91393,125.56592 244.5,101 L 246.5,95.999999"
       id="path3156" />
    <path
       style="fill:none;fill-opacity:0.75;fill-rule:evenodd;stroke:#000000;stroke-width:1px;stroke-linecap:butt;stroke-linejoin:miter;stroke-opacity:1"
       d="M 204.5,109 C 212.17393,100.85693 224.99275,106.80976 235.5,110.5"
       id="path3158" />
    <path
       style="fill:none;fill-opacity:0.75;fill-rule:evenodd;stroke:#000000;stroke-width:1px;stroke-linecap:butt;stroke-linejoin:miter;stroke-opacity:1"
       d="M 244.5,110.5 C 247.66667,110 250.83333,109.5 244.5,110.5 z "
       id="path3160" />
    <path
       style="fill:none;fill-opacity:0.75;fill-rule:evenodd;stroke:#000000;stroke-width:1px;stroke-linecap:butt;stroke-linejoin:miter;stroke-opacity:1"
       d="M 274,110 C 266.3531,103.20693 256.7503,107.36424 244.5,110.5"
       id="path3162" />
    <path
       style="fill:none;fill-opacity:0.75;fill-rule:evenodd;stroke:#000000;stroke-width:1px;stroke-linecap:butt;stroke-linejoin:miter;stroke-opacity:1"
       d="M 221.5,144 C 216.32418,149.5 210.02998,157.12132 210.17157,162.62132"
       id="path3164" />
    <path
       style="fill:none;fill-opacity:0.75;fill-rule:evenodd;stroke:#000000;stroke-width:1px;stroke-linecap:butt;stroke-linejoin:miter;stroke-opacity:1"
       d="M 258.5,144.5 C 265.33906,148.09771 268.32382,153.23714 268.5,159.5"
       id="path3166" />
    <path
       style="opacity:1;color:#000000;fill:#f0d5b7;fill-opacity:1;fill-rule:evenodd;stroke:#000000;stroke-width:2;stroke-linecap:butt;stroke-linejoin:miter;marker:none;marker-start:none;marker-mid:none;marker-end:none;stroke-miterlimit:4;stroke-dasharray:none;stroke-dashoffset:0;stroke-opacity:1;visibility:visible;display:inline;overflow:visible"
       d="M 212.5,191 C 201.99577,209.1916 206.73068,224.55122 217.42494,234.20352 C 239.66664,254.27816 288.68539,248.6659 277.5,191 C 275.54632,195.54971 273.59265,194.80442 271.63897,195.6623 C 273.25636,200.67963 270.27423,202.63063 268.07909,205.10628 C 267.00315,218.22055 261.11508,219.30447 254.79492,219.30816 C 250.36287,229.35358 245.93083,229.43798 241.49878,233.52284 C 241.59314,227.0937 242.49766,226.04425 241.34763,222.1039 C 231.5714,230.4929 226.24549,223.30578 221.74234,213.23897 C 220.20773,210.73132 211.16874,214.30836 214.63851,212.1495 C 219.33772,209.2257 216.8424,195.91638 212.5,191 z "
       id="path3168" />
    <path
       style="opacity:1;color:#000000;fill:#000000;fill-opacity:1;fill-rule:evenodd;stroke:none;stroke-width:2;stroke-linecap:butt;stroke-linejoin:miter;marker:none;marker-start:none;marker-mid:none;marker-end:none;stroke-miterlimit:4;stroke-dasharray:none;stroke-dashoffset:0;stroke-opacity:1;visibility:visible;display:inline;overflow:visible"
       id="path3170"
       d="M 222.5 121 A 5 3 0 1 1  212.5,121 A 5 3 0 1 1  222.5 121 z" />
    <path
       style="opacity:1;color:#000000;fill:#000000;fill-opacity:1;fill-rule:evenodd;stroke:none;stroke-width:2;stroke-linecap:butt;stroke-linejoin:miter;marker:none;marker-start:none;marker-mid:none;marker-end:none;stroke-miterlimit:4;stroke-dasharray:none;stroke-dashoffset:0;stroke-opacity:1;visibility:visible;display:inline;overflow:visible"
       id="path3172"
       d="M 222.5 121 A 5 3 0 1 1  212.5,121 A 5 3 0 1 1  222.5 121 z"
       transform="translate(45.5,2.5)" />
    <path
       style="fill:none;fill-opacity:0.75;fill-rule:evenodd;stroke:#000000;stroke-width:1px;stroke-linecap:butt;stroke-linejoin:miter;stroke-opacity:1"
       d="M 184,112.5 C 184.80556,123.5463 181.00333,126.84111 184,144.5"
       id="path3178" />
    <path
       style="fill:none;fill-opacity:0.75;fill-rule:evenodd;stroke:#000000;stroke-width:1px;stroke-linecap:butt;stroke-linejoin:miter;stroke-opacity:1"
       d="M 209.5,163.5 C 209.33333,163.5 209.16667,163.5 209.5,163.5 z "
       id="path3182" />
    <path
       style="fill:none;fill-opacity:0.75;fill-rule:evenodd;stroke:#000000;stroke-width:1px;stroke-linecap:butt;stroke-linejoin:miter;stroke-opacity:1"
       d="M 210,162 C 209.83333,162 209.66667,162 210,162 z "
       id="path3184" />
    <path
       style="fill:none;fill-opacity:0.75;fill-rule:evenodd;stroke:#000000;stroke-width:2;stroke-linecap:butt;stroke-linejoin:miter;stroke-miterlimit:4;stroke-dasharray:none;stroke-opacity:1"
       d="M 210,162 C 206.82108,171.5 215.04855,178.5 212,190.5 C 215.58316,185.54927 219.89205,184.95294 222.27359,172.79245 C 222.73628,174.56484 222.49064,176.51431 225.46933,177.6577 C 228.45431,169.06307 235.21018,167.4199 239.5,160.5 C 242.72489,166.41091 253.94979,169.60619 255.67468,176.68173 C 256.43426,173.12498 258.37636,171.93327 261.13438,172.37341 C 262.54437,182.12749 266.59995,189.23598 272,195 C 268.32407,176.5 274.32778,171 268,159"
       id="path3186" />
    <path
       style="fill:none;fill-opacity:0.75;fill-rule:evenodd;stroke:#000000;stroke-width:1px;stroke-linecap:butt;stroke-linejoin:miter;stroke-opacity:1"
       d="M 237.23433,172.35294 C 219.62861,188.86636 231.00027,212.88667 218.14244,211.95092"
       id="path3188" />
    <path
       style="fill:none;fill-opacity:0.75;fill-rule:evenodd;stroke:#000000;stroke-width:1px;stroke-linecap:butt;stroke-linejoin:miter;stroke-opacity:1"
       d="M 254.91199,220.4362 C 251.82256,203.89377 267.09251,194.7327 254.20489,180.83822 C 258.13413,185.86566 260.62131,192.33517 266.2257,195.68746"
       id="path3190" />
    <path
       style="fill:none;fill-opacity:0.75;fill-rule:evenodd;stroke:#000000;stroke-width:1px;stroke-linecap:butt;stroke-linejoin:miter;stroke-opacity:1"
       d="M 228.74904,216.90067 C 242.14829,222.4955 243.74455,211.37103 238.18309,204.54047 C 232.97481,198.14369 232.2253,191.41249 238.39795,185.0487 C 242.00702,181.32788 239.90372,174.65909 242.89118,169.87807"
       id="path3192" />
    <path
       style="fill:none;fill-opacity:0.75;fill-rule:evenodd;stroke:#000000;stroke-width:1px;stroke-linecap:butt;stroke-linejoin:miter;stroke-opacity:1"
       d="M 210.05361,170.60294 C 207.66758,178.26387 195.99852,183.8399 198.69701,202.05142"
       id="path3194" />
    <path
       style="fill:none;fill-opacity:0.75;fill-rule:evenodd;stroke:#000000;stroke-width:1px;stroke-linecap:butt;stroke-linejoin:miter;stroke-opacity:1"
       d="M 277.18586,146.8971 C 275.22774,160.81777 283.89059,164.42872 288.14601,177.65624"
       id="path3196" />
    <path
       style="fill:none;fill-opacity:0.75;fill-rule:evenodd;stroke:#000000;stroke-width:1px;stroke-linecap:butt;stroke-linejoin:miter;stroke-opacity:1"
       d="M 282.13561,134.52273 C 293.42267,141.59713 290.31269,148.43822 294.15642,157.5037"
       id="path3198" />
    <path
       style="fill:none;fill-opacity:0.75;fill-rule:evenodd;stroke:#000000;stroke-width:1px;stroke-linecap:butt;stroke-linejoin:miter;stroke-opacity:1"
       d="M 297.5,139.75 C 295.6963,125.48608 286.25986,116.46771 281.75,100.75"
       id="path3200" />
    <path
       style="fill:none;fill-opacity:0.75;fill-rule:evenodd;stroke:#000000;stroke-width:1px;stroke-linecap:butt;stroke-linejoin:miter;stroke-opacity:1"
       d="M 195.25,175 C 193.16864,157.38806 200.56435,152.5211 199.25,131.75"
       id="path3202" />
    <path
       style="opacity:1;color:#000000;fill:none;fill-opacity:0.75;fill-rule:evenodd;stroke:#000000;stroke-width:2;stroke-linecap:butt;stroke-linejoin:miter;marker:none;marker-start:none;marker-mid:none;marker-end:none;stroke-miterlimit:4;stroke-dasharray:none;stroke-dashoffset:0;stroke-opacity:1;visibility:visible;display:inline;overflow:visible"
       d="M 211,191.5 C 207,192.38097 203,194.1256 199,201.5 C 195.17472,215.03703 198.02762,224.00455 200.61562,230.17663 C 213.12621,260.0129 295.76587,277.85285 289,197"
       id="path3204" />
    <path
       style="fill:none;fill-opacity:0.75;fill-rule:evenodd;stroke:#000000;stroke-width:1px;stroke-linecap:butt;stroke-linejoin:miter;stroke-opacity:1"
       d="M 72.124892,397.56645 C 81.865646,373.44545 74.320378,370.02637 74.246212,369.98929"
       id="path3206" />
    <path
       style="fill:none;fill-opacity:0.75;fill-rule:evenodd;stroke:#000000;stroke-width:1px;stroke-linecap:butt;stroke-linejoin:miter;stroke-opacity:1"
       d="M 104.6518,376.35325 C 96.509009,347.82286 108.39684,324.04918 97.580736,308.471"
       id="path3208" />
    <path
       style="fill:none;fill-opacity:0.75;fill-rule:evenodd;stroke:#000000;stroke-width:1px;stroke-linecap:butt;stroke-linejoin:miter;stroke-opacity:1"
       d="M 155.56349,347.36187 C 164.81673,309.24017 145.37955,297.71266 136.47161,275.94408"
       id="path3210" />
    <path
       style="fill:none;fill-opacity:0.75;fill-rule:evenodd;stroke:#000000;stroke-width:1px;stroke-linecap:butt;stroke-linejoin:miter;stroke-opacity:1"
       d="M 207.88939,276.65119 C 212.85375,270.55215 215.1665,259.14989 216.37468,245.53849"
       id="path3212" />
    <path
       style="fill:none;fill-opacity:0.75;fill-rule:evenodd;stroke:#000000;stroke-width:1px;stroke-linecap:butt;stroke-linejoin:miter;stroke-opacity:1"
       d="M 237.58788,298.5715 C 238.66757,279.76473 241.67619,267.77167 240.41631,254.02377"
       id="path3214" />
    <path
       style="fill:none;fill-opacity:0.75;fill-rule:evenodd;stroke:#000000;stroke-width:1px;stroke-linecap:butt;stroke-linejoin:miter;stroke-opacity:1"
       d="M 262.33662,251.90245 C 266.75387,265.80888 268.01102,279.71532 268.70058,293.62175"
       id="path3216" />
    <path
       style="fill:none;fill-opacity:0.75;fill-rule:evenodd;stroke:#000000;stroke-width:1px;stroke-linecap:butt;stroke-linejoin:miter;stroke-opacity:1"
       d="M 286.37825,229.27504 C 264.22856,326.67837 245.11928,370.85558 219.46398,400.72138 C 208.26368,413.75985 196.89391,425.41836 185.96908,440.69996"
       id="path3218" />
    <path
       style="fill:none;fill-opacity:0.75;fill-rule:evenodd;stroke:#000000;stroke-width:1px;stroke-linecap:butt;stroke-linejoin:miter;stroke-opacity:1"
       d="M 291.32799,287.25779 C 278.10969,324.10324 276.45113,349.35794 252.43712,384.13142 C 294.99418,322.86587 350.29172,251.91233 334.46151,225.7395"
       id="path3220" />
    <path
       style="fill:none;fill-opacity:0.75;fill-rule:evenodd;stroke:#000000;stroke-width:1px;stroke-linecap:butt;stroke-linejoin:miter;stroke-opacity:1"
       d="M 293.44931,401.80909 C 336.87801,363.38962 368.54323,317.19198 387.49451,278.77252"
       id="path3222" />
    <path
       style="fill:none;fill-opacity:0.75;fill-rule:evenodd;stroke:#000000;stroke-width:1px;stroke-linecap:butt;stroke-linejoin:miter;stroke-opacity:1"
       d="M 330.92597,425.14361 C 376.06671,396.15223 410.79389,363.62532 416.48589,334.63395"
       id="path3224" />
    <path
       style="fill:none;fill-opacity:0.75;fill-rule:evenodd;stroke:#000000;stroke-width:1px;stroke-linecap:butt;stroke-linejoin:miter;stroke-opacity:1"
       d="M 320.31937,490.90455 C 359.44595,473.21645 398.57252,447.77855 437.6991,413.1228"
       id="path3226" />
    <path
       style="fill:none;fill-opacity:0.75;fill-rule:evenodd;stroke:#000000;stroke-width:1px;stroke-linecap:butt;stroke-linejoin:miter;stroke-opacity:1"
       d="M 294.86353,563.73654 C 300.13834,532.66853 327.88467,508.94718 335.87572,483.12637"
       id="path3228" />
    <path
       style="fill:none;fill-opacity:0.75;fill-rule:evenodd;stroke:#000000;stroke-width:1px;stroke-linecap:butt;stroke-linejoin:miter;stroke-opacity:1"
       d="M 340.11836,508.58222 C 350.74469,498.76163 359.62647,481.96285 368.40264,464.7416"
       id="path3230" />
    <path
       style="fill:none;fill-opacity:0.75;fill-rule:evenodd;stroke:#000000;stroke-width:1px;stroke-linecap:butt;stroke-linejoin:miter;stroke-opacity:1"
       d="M 424.26407,469.69134 C 415.88982,466.01361 425.99579,455.19322 432.04224,440.69996"
       id="path3232" />
    <path
       style="fill:none;fill-opacity:0.75;fill-rule:evenodd;stroke:#000000;stroke-width:1px;stroke-linecap:butt;stroke-linejoin:miter;stroke-opacity:1"
       d="M 395.27269,321.19892 C 388.38932,309.90921 387.15997,292.96407 387.49451,278.06541"
       id="path3234" />
    <path
       style="fill:none;fill-opacity:0.75;fill-rule:evenodd;stroke:#000000;stroke-width:2;stroke-linecap:butt;stroke-linejoin:miter;stroke-opacity:1;stroke-miterlimit:4;stroke-dasharray:none"
       d="M 188.79751,570.80761 C 191.72359,506.22519 173.98353,450.12806 187.3833,389.78828"
       id="path6038" />
    <g
       id="g5986"
       transform="matrix(0.924531,-0.381106,0.381106,0.924531,-465.8522,238.0075)">
      <path
         id="path3247"
         d="M 521.70293,84.296228 L 548.89682,84.296228 L 548.89682,120.55475 L 567.02607,120.55475 L 567.02607,111.49013 L 557.96145,111.49013 L 557.96145,84.296228 L 567.02607,84.296228 L 567.02607,102.42549 L 576.09071,102.42549 L 585.15535,111.49013 L 585.15535,174.94254 L 576.09071,184.00717 L 567.02607,184.00717 L 567.02607,202.13643 L 557.96145,202.13643 L 557.96145,174.94254 L 567.02607,174.94254 L 567.02607,165.87791 L 548.89682,165.87791 L 548.89682,202.13643 L 539.83219,202.13643 L 521.70293,202.13643 L 521.70293,184.00717 L 530.76756,184.00717 L 530.76756,165.87791 L 521.70293,165.87791 L 521.70293,147.74865 L 557.96145,147.74865 L 557.96145,138.68401 L 521.70293,138.68401 L 521.70293,120.55475 L 530.76756,120.55475 L 530.76756,102.42549 L 521.70293,102.42549 L 521.70293,84.296228 z "
         style="fill:#ffff0d;fill-opacity:1;fill-rule:evenodd;stroke:#000000;stroke-width:2.00000143;stroke-linecap:butt;stroke-linejoin:miter;stroke-miterlimit:4;stroke-dasharray:none;stroke-opacity:1" />
      <path
         id="rect3236"
         d="M 575.36924,71.702446 L 595.90104,71.702446 L 595.90104,443.5 C 601.54422,452.84832 597.86323,462.19663 595.90104,471.54495 L 575.36924,471.54495 C 572.75299,462.19663 567.845,452.84832 575.36924,443.5 L 575.36924,71.702446 z "
         style="color:#000000;fill:#ffff0d;fill-opacity:1;fill-rule:evenodd;stroke:#000000;stroke-width:2.00000453;stroke-linecap:butt;stroke-linejoin:miter;marker:none;marker-start:none;marker-mid:none;marker-end:none;stroke-miterlimit:4;stroke-dashoffset:0;stroke-opacity:1;visibility:visible;display:inline;overflow:visible" />
      <g
         transform="translate(-1.5,-108)"
         id="g5949">
        <g
           id="g5014"
           transform="translate(15.55635,9.899495)">
          <path
             transform="matrix(-0.5,0.866025,-0.866025,-0.5,1305.675,379.5483)"
             d="M 595 567.5 A 37.5 37.5 0 1 1  520,567.5 A 37.5 37.5 0 1 1  595 567.5 z"
             id="path5002"
             style="opacity:1;color:#000000;fill:#ffff0d;fill-opacity:1;fill-rule:evenodd;stroke:#000000;stroke-width:2;stroke-linecap:butt;stroke-linejoin:miter;marker:none;marker-start:none;marker-mid:none;marker-end:none;stroke-miterlimit:4;stroke-dasharray:none;stroke-dashoffset:0;stroke-opacity:1;visibility:visible;display:inline;overflow:visible" />
          <path
             transform="matrix(-0.5,0.866025,-0.99926,-0.576923,1384.037,416.13)"
             d="M 591.5 560 A 26.5 25 0 1 1  538.5,560 A 26.5 25 0 1 1  591.5 560 z"
             id="path5004"
             style="opacity:1;color:#000000;fill:#ffffff;fill-opacity:1;fill-rule:evenodd;stroke:#000000;stroke-width:1.86189866;stroke-linecap:butt;stroke-linejoin:miter;marker:none;marker-start:none;marker-mid:none;marker-end:none;stroke-miterlimit:4;stroke-dasharray:none;stroke-dashoffset:0;stroke-opacity:1;visibility:visible;display:inline;overflow:visible" />
          <path
             id="path5006"
             d="M 521.45273,561.86207 C 527.08189,565.11207 519.83189,577.66943 513.95273,574.85245 L 499.2303,566.35245 C 489.51643,560.3228 496.54887,548.13334 506.7303,553.36207 L 521.45273,561.86207 z "
             style="color:#000000;fill:#ffff0d;fill-opacity:1;fill-rule:evenodd;stroke:#000000;stroke-width:1.99999928;stroke-linecap:butt;stroke-linejoin:miter;marker:none;marker-start:none;marker-mid:none;marker-end:none;stroke-miterlimit:4;stroke-dashoffset:0;stroke-opacity:1;visibility:visible;display:inline;overflow:visible" />
        </g>
        <g
           id="g5019"
           transform="translate(-4.949747,-4.242641)">
          <path
             transform="translate(33.94113,84.85281)"
             d="M 595 567.5 A 37.5 37.5 0 1 1  520,567.5 A 37.5 37.5 0 1 1  595 567.5 z"
             id="path4122"
             style="opacity:1;color:#000000;fill:#ffff0d;fill-opacity:1;fill-rule:evenodd;stroke:#000000;stroke-width:2;stroke-linecap:butt;stroke-linejoin:miter;marker:none;marker-start:none;marker-mid:none;marker-end:none;stroke-miterlimit:4;stroke-dasharray:none;stroke-dashoffset:0;stroke-opacity:1;visibility:visible;display:inline;overflow:visible" />
          <path
             transform="matrix(1,0,0,1.153846,26.44113,-1.301036)"
             d="M 591.5 560 A 26.5 25 0 1 1  538.5,560 A 26.5 25 0 1 1  591.5 560 z"
             id="path4124"
             style="opacity:1;color:#000000;fill:#ffffff;fill-opacity:1;fill-rule:evenodd;stroke:#000000;stroke-width:1.86189866;stroke-linecap:butt;stroke-linejoin:miter;marker:none;marker-start:none;marker-mid:none;marker-end:none;stroke-miterlimit:4;stroke-dasharray:none;stroke-dashoffset:0;stroke-opacity:1;visibility:visible;display:inline;overflow:visible" />
          <path
             id="rect4126"
             d="M 583.94113,672.85281 C 583.94113,666.35281 598.44113,666.35281 598.94113,672.85281 L 598.94113,689.85281 C 598.57624,701.2801 584.50364,701.28456 583.94113,689.85281 L 583.94113,672.85281 z "
             style="color:#000000;fill:#ffff0d;fill-opacity:1;fill-rule:evenodd;stroke:#000000;stroke-width:2;stroke-linecap:butt;stroke-linejoin:miter;marker:none;marker-start:none;marker-mid:none;marker-end:none;stroke-miterlimit:4;stroke-dashoffset:0;stroke-opacity:1;visibility:visible;display:inline;overflow:visible" />
        </g>
        <g
           id="g5024"
           transform="translate(-33.23402,5.656854)">
          <path
             transform="matrix(0.5,0.866025,0.866025,-0.5,-114.2895,383.7695)"
             d="M 595 567.5 A 37.5 37.5 0 1 1  520,567.5 A 37.5 37.5 0 1 1  595 567.5 z"
             id="path5008"
             style="opacity:1;color:#000000;fill:#ffff0d;fill-opacity:1;fill-rule:evenodd;stroke:#000000;stroke-width:2;stroke-linecap:butt;stroke-linejoin:miter;marker:none;marker-start:none;marker-mid:none;marker-end:none;stroke-miterlimit:4;stroke-dasharray:none;stroke-dashoffset:0;stroke-opacity:1;visibility:visible;display:inline;overflow:visible" />
          <path
             transform="matrix(0.5,0.866025,0.99926,-0.576923,-192.6515,420.3512)"
             d="M 591.5 560 A 26.5 25 0 1 1  538.5,560 A 26.5 25 0 1 1  591.5 560 z"
             id="path5010"
             style="opacity:1;color:#000000;fill:#ffffff;fill-opacity:1;fill-rule:evenodd;stroke:#000000;stroke-width:1.86189866;stroke-linecap:butt;stroke-linejoin:miter;marker:none;marker-start:none;marker-mid:none;marker-end:none;stroke-miterlimit:4;stroke-dasharray:none;stroke-dashoffset:0;stroke-opacity:1;visibility:visible;display:inline;overflow:visible" />
          <path
             id="path5012"
             d="M 669.93246,566.08326 C 664.3033,569.33326 671.5533,581.89062 677.43246,579.07364 L 692.15489,570.57364 C 701.86876,564.54399 694.83632,552.35453 684.65489,557.58326 L 669.93246,566.08326 z "
             style="color:#000000;fill:#ffff0d;fill-opacity:1;fill-rule:evenodd;stroke:#000000;stroke-width:1.99999928;stroke-linecap:butt;stroke-linejoin:miter;marker:none;marker-start:none;marker-mid:none;marker-end:none;stroke-miterlimit:4;stroke-dashoffset:0;stroke-opacity:1;visibility:visible;display:inline;overflow:visible" />
        </g>
        <path
           style="opacity:1;color:#000000;fill:#ffffff;fill-opacity:1;fill-rule:evenodd;stroke:none;stroke-width:2;stroke-linecap:butt;stroke-linejoin:miter;marker:none;marker-start:none;marker-mid:none;marker-end:none;stroke-miterlimit:4;stroke-dasharray:none;stroke-dashoffset:0;stroke-opacity:1;visibility:visible;display:inline;overflow:visible"
           id="path5074"
           d="M 617.3042 607.57715 A 31.466251 31.466251 0 1 1  554.3717,607.57715 A 31.466251 31.466251 0 1 1  617.3042 607.57715 z" />
        <g
           id="g5043"
           style="fill:#ffff0d;fill-opacity:1"
           transform="matrix(-0.854585,0,0,-0.854585,961.0044,1133.944)">
          <g
             transform="matrix(0.898628,0,0,1,44.71724,0)"
             id="g5038"
             style="fill:#ffff0d;fill-opacity:1">
            <path
               style="opacity:1;color:#000000;fill:#ffff0d;fill-opacity:1;fill-rule:evenodd;stroke:#000000;stroke-width:2.46879435;stroke-linecap:butt;stroke-linejoin:miter;marker:none;marker-start:none;marker-mid:none;marker-end:none;stroke-miterlimit:4;stroke-dasharray:none;stroke-dashoffset:0;stroke-opacity:1;visibility:visible;display:inline;overflow:visible"
               id="path5034"
               d="M 417.19301 633.03302 A 4.7729707 7.4246211 0 1 1  407.64707,633.03302 A 4.7729707 7.4246211 0 1 1  417.19301 633.03302 z"
               transform="matrix(0.965926,0.258819,-0.258819,0.965926,211.3047,-74.84596)" />
            <path
               style="opacity:1;color:#000000;fill:#ffff0d;fill-opacity:1;fill-rule:evenodd;stroke:#000000;stroke-width:2.46879435;stroke-linecap:butt;stroke-linejoin:miter;marker:none;marker-start:none;marker-mid:none;marker-end:none;stroke-miterlimit:4;stroke-dasharray:none;stroke-dashoffset:0;stroke-opacity:1;visibility:visible;display:inline;overflow:visible"
               id="path5036"
               d="M 417.19301 633.03302 A 4.7729707 7.4246211 0 1 1  407.64707,633.03302 A 4.7729707 7.4246211 0 1 1  417.19301 633.03302 z"
               transform="matrix(-0.965926,0.258819,0.258819,0.965926,664.4472,-74.91914)" />
            <path
               style="opacity:1;color:#000000;fill:#ffff0d;fill-opacity:1;fill-rule:evenodd;stroke:#000000;stroke-width:2.46879435;stroke-linecap:butt;stroke-linejoin:miter;marker:none;marker-start:none;marker-mid:none;marker-end:none;stroke-miterlimit:4;stroke-dasharray:none;stroke-dashoffset:0;stroke-opacity:1;visibility:visible;display:inline;overflow:visible"
               id="path5032"
               d="M 417.19301 633.03302 A 4.7729707 7.4246211 0 1 1  407.64707,633.03302 A 4.7729707 7.4246211 0 1 1  417.19301 633.03302 z"
               transform="translate(25.45591,10.25305)" />
          </g>
          <path
             id="rect5029"
             d="M 428.72887,646.97306 L 447.82075,646.97306 C 451.31656,646.97306 451.67118,653.74334 447.82075,653.74334 L 428.72887,653.74334 C 424.84487,654.02543 424.88922,646.97306 428.72887,646.97306 z "
             style="color:#000000;fill:#ffff0d;fill-opacity:1;fill-rule:evenodd;stroke:#000000;stroke-width:2.34031773;stroke-linecap:butt;stroke-linejoin:miter;marker:none;marker-start:none;marker-mid:none;marker-end:none;stroke-miterlimit:4;stroke-dashoffset:0;stroke-opacity:1;visibility:visible;display:inline;overflow:visible" />
        </g>
        <g
           id="g5050"
           style="fill:#ffff0d;fill-opacity:1;display:inline"
           transform="matrix(0.427293,-0.740092,0.740092,0.427293,-53.51777,671.5707)">
          <g
             transform="matrix(0.898628,0,0,1,44.71724,0)"
             id="g5052"
             style="fill:#ffff0d;fill-opacity:1">
            <path
               style="opacity:1;color:#000000;fill:#ffff0d;fill-opacity:1;fill-rule:evenodd;stroke:#000000;stroke-width:2.46879435;stroke-linecap:butt;stroke-linejoin:miter;marker:none;marker-start:none;marker-mid:none;marker-end:none;stroke-miterlimit:4;stroke-dasharray:none;stroke-dashoffset:0;stroke-opacity:1;visibility:visible;display:inline;overflow:visible"
               id="path5054"
               d="M 417.19301 633.03302 A 4.7729707 7.4246211 0 1 1  407.64707,633.03302 A 4.7729707 7.4246211 0 1 1  417.19301 633.03302 z"
               transform="matrix(0.965926,0.258819,-0.258819,0.965926,211.3047,-74.84596)" />
            <path
               style="opacity:1;color:#000000;fill:#ffff0d;fill-opacity:1;fill-rule:evenodd;stroke:#000000;stroke-width:2.46879435;stroke-linecap:butt;stroke-linejoin:miter;marker:none;marker-start:none;marker-mid:none;marker-end:none;stroke-miterlimit:4;stroke-dasharray:none;stroke-dashoffset:0;stroke-opacity:1;visibility:visible;display:inline;overflow:visible"
               id="path5056"
               d="M 417.19301 633.03302 A 4.7729707 7.4246211 0 1 1  407.64707,633.03302 A 4.7729707 7.4246211 0 1 1  417.19301 633.03302 z"
               transform="matrix(-0.965926,0.258819,0.258819,0.965926,664.4472,-74.91914)" />
            <path
               style="opacity:1;color:#000000;fill:#ffff0d;fill-opacity:1;fill-rule:evenodd;stroke:#000000;stroke-width:2.46879435;stroke-linecap:butt;stroke-linejoin:miter;marker:none;marker-start:none;marker-mid:none;marker-end:none;stroke-miterlimit:4;stroke-dasharray:none;stroke-dashoffset:0;stroke-opacity:1;visibility:visible;display:inline;overflow:visible"
               id="path5058"
               d="M 417.19301 633.03302 A 4.7729707 7.4246211 0 1 1  407.64707,633.03302 A 4.7729707 7.4246211 0 1 1  417.19301 633.03302 z"
               transform="translate(25.45591,10.25305)" />
          </g>
          <path
             id="path5060"
             d="M 428.72887,646.97306 L 447.82075,646.97306 C 451.31656,646.97306 451.67118,653.74334 447.82075,653.74334 L 428.72887,653.74334 C 424.84487,654.02543 424.88922,646.97306 428.72887,646.97306 z "
             style="color:#000000;fill:#ffff0d;fill-opacity:1;fill-rule:evenodd;stroke:#000000;stroke-width:2.34031773;stroke-linecap:butt;stroke-linejoin:miter;marker:none;marker-start:none;marker-mid:none;marker-end:none;stroke-miterlimit:4;stroke-dashoffset:0;stroke-opacity:1;visibility:visible;display:inline;overflow:visible" />
        </g>
        <g
           id="g5062"
           style="fill:#ffff0d;fill-opacity:1;display:inline"
           transform="matrix(-0.427293,-0.740092,-0.740092,0.427293,1226.807,670.9991)">
          <g
             transform="matrix(0.898628,0,0,1,44.71724,0)"
             id="g5064"
             style="fill:#ffff0d;fill-opacity:1">
            <path
               style="opacity:1;color:#000000;fill:#ffff0d;fill-opacity:1;fill-rule:evenodd;stroke:#000000;stroke-width:2.46879435;stroke-linecap:butt;stroke-linejoin:miter;marker:none;marker-start:none;marker-mid:none;marker-end:none;stroke-miterlimit:4;stroke-dasharray:none;stroke-dashoffset:0;stroke-opacity:1;visibility:visible;display:inline;overflow:visible"
               id="path5066"
               d="M 417.19301 633.03302 A 4.7729707 7.4246211 0 1 1  407.64707,633.03302 A 4.7729707 7.4246211 0 1 1  417.19301 633.03302 z"
               transform="matrix(0.965926,0.258819,-0.258819,0.965926,211.3047,-74.84596)" />
            <path
               style="opacity:1;color:#000000;fill:#ffff0d;fill-opacity:1;fill-rule:evenodd;stroke:#000000;stroke-width:2.46879435;stroke-linecap:butt;stroke-linejoin:miter;marker:none;marker-start:none;marker-mid:none;marker-end:none;stroke-miterlimit:4;stroke-dasharray:none;stroke-dashoffset:0;stroke-opacity:1;visibility:visible;display:inline;overflow:visible"
               id="path5068"
               d="M 417.19301 633.03302 A 4.7729707 7.4246211 0 1 1  407.64707,633.03302 A 4.7729707 7.4246211 0 1 1  417.19301 633.03302 z"
               transform="matrix(-0.965926,0.258819,0.258819,0.965926,664.4472,-74.91914)" />
            <path
               style="opacity:1;color:#000000;fill:#ffff0d;fill-opacity:1;fill-rule:evenodd;stroke:#000000;stroke-width:2.46879435;stroke-linecap:butt;stroke-linejoin:miter;marker:none;marker-start:none;marker-mid:none;marker-end:none;stroke-miterlimit:4;stroke-dasharray:none;stroke-dashoffset:0;stroke-opacity:1;visibility:visible;display:inline;overflow:visible"
               id="path5070"
               d="M 417.19301 633.03302 A 4.7729707 7.4246211 0 1 1  407.64707,633.03302 A 4.7729707 7.4246211 0 1 1  417.19301 633.03302 z"
               transform="translate(25.45591,10.25305)" />
          </g>
          <path
             id="path5072"
             d="M 428.72887,646.97306 L 447.82075,646.97306 C 451.31656,646.97306 451.67118,653.74334 447.82075,653.74334 L 428.72887,653.74334 C 424.84487,654.02543 424.88922,646.97306 428.72887,646.97306 z "
             style="color:#000000;fill:#ffff0d;fill-opacity:1;fill-rule:evenodd;stroke:#000000;stroke-width:2.34031773;stroke-linecap:butt;stroke-linejoin:miter;marker:none;marker-start:none;marker-mid:none;marker-end:none;stroke-miterlimit:4;stroke-dashoffset:0;stroke-opacity:1;visibility:visible;display:inline;overflow:visible" />
        </g>
      </g>
      <path
         id="path5982"
         d="M 597.26242,450.04305 L 572.05328,450.04305 C 562.93738,450.04305 566.96913,436.76183 572.05328,436.76183 L 597.26242,436.76183 C 602.39089,436.20846 608.83234,450.04305 597.26242,450.04305 z "
         style="color:#000000;fill:#ffff0d;fill-opacity:1;fill-rule:evenodd;stroke:#000000;stroke-width:2.00000167;stroke-linecap:butt;stroke-linejoin:miter;marker:none;marker-start:none;marker-mid:none;marker-end:none;stroke-miterlimit:4;stroke-dashoffset:0;stroke-opacity:1;visibility:visible;display:inline;overflow:visible" />
      <path
         id="path5984"
         d="M 595.69725,433.89641 L 575.15228,433.89641 C 571.39042,433.89641 571.0088,428.11063 575.15228,428.11063 L 595.69725,428.11063 C 599.87686,427.86956 599.82914,433.89641 595.69725,433.89641 z "
         style="color:#000000;fill:#ffff0d;fill-opacity:1;fill-rule:evenodd;stroke:#000000;stroke-width:2.00000072;stroke-linecap:butt;stroke-linejoin:miter;marker:none;marker-start:none;marker-mid:none;marker-end:none;stroke-miterlimit:4;stroke-dashoffset:0;stroke-opacity:1;visibility:visible;display:inline;overflow:visible" />
    </g>
    <path
       style="opacity:1;color:#000000;fill:#f0d5b7;fill-opacity:1;fill-rule:evenodd;stroke:#000000;stroke-width:2.00000048;stroke-linecap:butt;stroke-linejoin:miter;marker:none;marker-start:none;marker-mid:none;marker-end:none;stroke-miterlimit:4;stroke-dasharray:none;stroke-dashoffset:0;stroke-opacity:1;visibility:visible;display:inline;overflow:visible"
       d="M 165.46299,365.74665 C 168.80574,360.29996 168.23619,361.40671 171.78802,355.13095 C 178.06072,344.04766 170.37725,330.49254 185.60512,308.74917 L 193.5,328 L 193.53553,330.73223 C 202.81557,324.62198 217.43199,323.8885 208.5,309.5 C 216.97331,298.16626 230.20076,315.7675 226.5,324.5 C 229.15188,323.64738 235.53647,329.36068 230,338 C 236.1253,338.04477 237.44797,345.43406 233,353 C 241.15538,356.11403 237.91235,362.6824 235,369.5 C 219.05876,389.74019 202.44806,379.56136 194.21548,384.96379 C 187.02441,392.39853 179.91328,398.15559 165.5,413.5 L 150.5,398 L 165.46299,365.74665 z "
       id="path6024" />
    <path
       style="fill:none;fill-opacity:1;fill-rule:evenodd;stroke:#000000;stroke-width:2.00000043;stroke-linecap:butt;stroke-linejoin:miter;stroke-opacity:1;opacity:1;color:#000000;marker:none;marker-start:none;marker-mid:none;marker-end:none;stroke-miterlimit:4;stroke-dasharray:none;stroke-dashoffset:0;visibility:visible;display:inline;overflow:visible"
       d="M 226.27417,324.73445 C 223.14497,330.54121 220.79916,332.52264 211.53584,339.91212"
       id="path6026" />
    <path
       style="fill:none;fill-opacity:1;fill-rule:evenodd;stroke:#000000;stroke-width:2.00000043;stroke-linecap:butt;stroke-linejoin:miter;stroke-opacity:1;opacity:1;color:#000000;marker:none;marker-start:none;marker-mid:none;marker-end:none;stroke-miterlimit:4;stroke-dasharray:none;stroke-dashoffset:0;visibility:visible;display:inline;overflow:visible"
       d="M 230.51681,337.10882 C 226.67095,346.74713 222.36121,351.04957 216.02112,353.37227"
       id="path6028" />
    <path
       style="fill:none;fill-opacity:1;fill-rule:evenodd;stroke:#000000;stroke-width:2.00000043;stroke-linecap:butt;stroke-linejoin:miter;stroke-opacity:1;opacity:1;color:#000000;marker:none;marker-start:none;marker-mid:none;marker-end:none;stroke-miterlimit:4;stroke-dasharray:none;stroke-dashoffset:0;visibility:visible;display:inline;overflow:visible"
       d="M 233.34524,353.01872 C 230.24024,359.93107 227.14583,364.02558 219.2031,366.80731"
       id="path6030" />
    <path
       style="fill:#ffffff;fill-opacity:1;fill-rule:evenodd;stroke:#000000;stroke-width:2;stroke-linecap:butt;stroke-linejoin:miter;stroke-opacity:1;opacity:1;color:#000000;marker:none;marker-start:none;marker-mid:none;marker-end:none;stroke-miterlimit:4;stroke-dasharray:none;stroke-dashoffset:0;visibility:visible;display:inline;overflow:visible"
       d="M 65.053824,437.87154 C 73.805829,426.39153 82.73207,418.75894 96.220175,401.61666 C 112.13206,393.5952 129.51706,384.84052 131.5322,373.77975 C 146.26226,364.92578 159.89493,359.55335 170.41273,357.26136 C 150.90946,371.05783 186.10208,470.63958 157.68481,560.20101"
       id="path6032" />
    <path
       style="fill:none;fill-opacity:0.75;fill-rule:evenodd;stroke:#000000;stroke-width:1px;stroke-linecap:butt;stroke-linejoin:miter;stroke-opacity:1"
       d="M 103.9447,500.80404 C 117.99425,454.02918 109.36932,401.84672 123.03658,384.13142"
       id="path6034" />
    <path
       style="fill:none;fill-opacity:0.75;fill-rule:evenodd;stroke:#000000;stroke-width:1px;stroke-linecap:butt;stroke-linejoin:miter;stroke-opacity:1"
       d="M 67.882251,451.30657 C 74.810593,439.4717 74.923896,426.02758 82.731493,416.65833"
       id="path6036" />
  </g>
  <g
     id="layer3"
     style="display:inline" />
  <g
     id="layer2"
     style="display:inline">
    <path
       style="color:#000000;fill:none;fill-opacity:1;fill-rule:evenodd;stroke:#000000;stroke-width:2.00000262;stroke-linecap:butt;stroke-linejoin:miter;marker:none;marker-start:none;marker-mid:none;marker-end:none;stroke-miterlimit:4;stroke-dasharray:none;stroke-dashoffset:0;stroke-opacity:1;visibility:visible;display:inline;overflow:visible"
       d="M 497.04869,331.31563 C 497.04869,411.22999 459.10187,482.35107 400.25948,527.62761 C 391.75756,534.16945 382.81943,540.17175 373.4965,545.58308 C 337.02238,566.75384 294.65864,578.87916 249.48513,578.87916 C 169.84563,578.87916 98.961472,541.19293 53.669323,482.69637 C 43.644207,469.74854 34.872916,455.78116 27.538033,440.97722 C 11.157319,407.91616 1.940624,370.68284 1.9215879,331.31563 L 1.7626029,2.530058 L 498.2374,2.530058 L 497.04869,331.31563 z "
       id="path3989" />
  </g>
</svg>