<svg viewBox="-18.71 -30.78 505.19 831.01"><title>Herb Czerwieńsk</title><path d="M8.775 222.686h454.609v323.418c-17.3 293.18-432.05 302.363-454.609 0zM71.63 84.959c12.25-2.844 24.887-5.828 38.899-7.883q.257-5.648 5.781-7.359l-1.312-9.168-3.614.102-2.101-10.907-7.223.196c-1.555.5-3.996-1.23-1.144-3.946l27.066-25.769c-4.422-4.903-5.559-7.953 1.016-12.86 4.254-1.5 5.98-.246 8.472 1.774 3.102 3.152 1.692 6.965.391 10.117l33.117 17.348c1.184-.129 2.027 3.761-.391 4.086l-6.851.906 1.461 10.726-2.738.29 1.324 10.507c2.402-.414 4.773 1.461 4.222 4.328 13.668-1.312 26.825-1.894 40.493-2.332-.364-2.777 1.242-4.707 4.507-5.296l.047-10.192-4.754-.019V38.182h-7.339c-2.266-1.207-1.895-2.254-.325-3.496l32.559-22.348c-2.375-1.414-3.586-3.82-3.543-6.625.699-3.71 2.996-7.39 10.785-4.898 3.86 3.66 4.094 7.941-.269 11.82l31.746 21.348c.797 2.726-.66 3.984-3.153 3.972l-5.781.114v11.742l-3.168.027-.105 9.871c2.289.133 5.16 2.36 4.836 5.848 12.789.79 27.175 2.191 39.968 3.547-.273-4.117 1.965-5.367 5.395-4.754l2.004-12.528-4.227-1.015 1.848-11.578-6.18-1.05c-1.39-1.399-1.226-2.439 1.215-3.84l32.641-15.653c-2.125-3.328-3.524-5.578-1.817-8.91 3.852-4.622 6.063-2.723 9.305-2.125 5.32 3.968 2.398 9.386-.844 11.84l29.004 26.578c.688 1.695-.535 2.777-3.68 2.832l-5.984-.96-1.609 11.413-3.231-.395-1.254 8.656c3.25 2.321 2.746 6.137 2.711 9.008 15.645 3.395 28.875 6.696 40.024 9.758.554-3.394 1.711-6.047 5.007-6.156l2.809-9.774-3.48-1.51 3.953-11.732-8.035-2.754c-.715-2.12 2.382-3.152 5.804-4.336l32.61-9.593c-1.039-2.45-2.137-5.723.41-8.028 2.496-2.926 4.086-3.69 9.719-2.03 4.218 5.917 1.988 8.89-1.965 12.952l20.379 26.688c.933 1.925 1.211 3.63-.61 4.738l-6.191-1.707-4.344 12.656-2.922-.93-3.543 11.137 4.016 1.485-3.828 11.664c2.344.48 3.043 2.054 2.101 4.73l-3.152 8.934c2.902 3.922-.672 5.535.586 7.816 10.871 5.805 4.09 21.5-3.988 18.234-2.579 3.524-4.008 6.282-8.391 5.692l-11.195 35.14 4.039 2.161-11.742 28.929c-119.442-41.437-242.028-44.804-369.883-.73l-10.317-29.238 4.27-1.774-10.316-34.496c-1.926-.262-5.496-4.141-7.426-7.031-9.644 3.027-13.914-9.067-7.883-13.602 3.438-1.547 4.469-2.441 6.371-7.945l-3.086-10.512 2.102-3.679-3.68-13.14c.875-.876 2.407-2.079 3.285-2.954l-2.757-9.133c-2.012.79-3.59.262-4.73-1.574l-2.887-9.528-8.211 2.563c-2.192-.086-3.903-1.55-1.711-4.27l22.949-29.933c-2.277-2.106-6.367-1.93-4.352-8.766.567-3.68 3.543-5.605 9.594-5.125 4.625 2.934 4.863 5.535 3.02 11.758l36.73 10.777c1.468 1.137 2.586 3.352.066 4.664l-6.766 1.97 3.614 11.694-3.286.918 2.876 8.836c2.101-1.093 5.355.938 6.191 4.438" style="stroke:none;fill-rule:evenodd;fill:#222"/><path d="M171.525 252.408h130.586v86.973c-6.731 38.953-29.359 57.57-65.168 59.332-35.754-2.238-59.418-19.312-65.418-58.066v-88.243" style="stroke:none;fill-rule:evenodd;fill:#222"/><path d="M459.502 226.037H12.881v236.168h18.09l.027-172.304-12.195-15.016-.035-33.863c-4.934-5.172-2.657-7.383-.29-9.828h25.45c3.75 3.617 2.913 6.21 0 9.828v13.183h13.745v-13.183c-3.679-3.618-4.886-6.211-.082-9.828H83.69c3.707 3.543 3.024 6.132-.684 9.828v13.183h14.317v-13.183c-3.71-3.352-4.77-5.868 0-9.828h24.879c4.652 3.957 3.859 6.472.34 9.828v13.183h16.211v-13.183c-3.856-3.242-3.848-6.289.007-9.828h22.082c3.559 2.964 3.774 5.632.106 9.828v33.609l-12.961 14.586v172.984l32.832-.015c7.395.636 9.25 8.015 4.68 15.117v30.742h30.375v-30.742c-4.313-7.649-4.118-14.188 5.949-15.133h30.105c9.028 2.098 8.528 8.27 5.219 15.449v30.43h30.547v-30.742c-4.406-8.098-2.313-14.309 5.238-15.117l31.598.015V287.776l-12.723-13.668v-33.09c-4.48-3.922-4.375-6.895.231-10.211h22.211c4.543 3.082 4.504 6.512-.039 10.211v13.183h16.57v-13.183c-3.977-3.352-4.68-6.25.43-10.211h24.574c4.769 3.957 3.281 7.07-.426 10.426v12.968h14.703v-13.183c-3.937-3.922-4.152-6.895-.215-10.211h24.543c4.801 3.617 3.555 7.019-.129 10.64v12.754h15.563v-13.183c-2.914-3.617-3.75-6.59 0-10.211h24.476c2.188 1.988 4.657 4.578.016 10.211v32.176l-13.289 16.394v172.613h18.434V226.033zm-287.977 26.371h129.129v87.215c-2.18 36.125-33.5 58.043-63.949 57.633-35.508-2.238-58.77-17.855-65.176-56.605v-88.243zm65.93 101.68 59.336-58.824v40.562l-57.407 57.489-1.925.293v-39.52zm.254-80.129 19.332-17.496h37.964l-57.3 55.777v-38.281zm-55.61-17.484h15.992q1.84 2.333-.242 3.687-2.953.488-1.969 3.934 1.228 4.67-.488 6.394-2.21-1.102-1.472-2.21c.16-2.293-.653-2.622-2.457-.981q-2.092.857-2.215 2.703c-.293-2.164-1.465-3.453-2.457-4.918-3.403-1.762-4.551-4.879-4.672-8.609zm40.035 4.324c1.969-.816 3.348-2.848 4.004-4.324l-3.687.031-.313 4.293zm13.11 96.551q-8.361-5.533 0-9.102zm-54.621 2.707c6.968 10.781 10.984 21.785 34.187 29.781-.203-3.988-1.801-6.887 4.684-8.871 3.363.102 6.152-.508 6.886-3.687-.488-1.145 0-2.293 1.477-3.442-.488-.57-.984-1.144-1.477-1.719q.243-1.846-.488-3.687c-3.195.242-6.394.078-9.594-.981q1.349 3.195 4.672 6.395c-.57.406-1.148.816-1.722 1.226q-.611.857-2.211.735l2.211 1.473q-2.949 2.332-7.871 2.703c-1.723-.489-2.786-1.641-3.196-3.442v-2.703c-2.051-.652-3.527-2.457-4.918-4.426-.41 2.703-.496 5.41 1.719 8.118q1.472 1.348 0 2.703-2.702.978-5.41 0-3.687-2.583-4.426-5.164c.488-1.801-.652-3.606-3.441-5.411-.653-.488-1.313-.98-1.969-1.472-.25-1.395.066-2.625 4.426-2.703q2.209-1.35.488-2.703-2.579-.242-5.164-2.458-.61-4.67-2.211-1.476-2.334 2.092-6.641 1.23zm9.105-78.488c1.879-1.805 5.492-2.461 9.348-2.95l-.735-2.461c-2.214.739-4.425 1.235-6.64 0l-2.703-3.933.734 9.347zm-1.723 40.843c3.032-.082 6.067 0 9.102 1.227q5.778 1.474 6.641 8.855.979 2.947 1.965 0c.488-2.785-.325-5.574-2.458-8.363-1.433-2.746-4.222-4.141-7.625-4.918-1.125-.379-1.535-1.113-1.226-2.215-.895 2.625-3.524 4.102-6.395 5.41zm-12.546-21.16v8.856c.816-.161 1.39-.817 2.211-.981.738-.078 1.472.324 2.214.242q2.088 1.35 4.18 1.719c.324-3.605-.324-5.574-1.965-5.902-3.449-.489-5.168-2.129-6.64-3.934m-.246-26.082v19.188c2.128 3.851 3.277 3.336 5.41 3.687q1.84-1.102 3.687-.242 2.461-1.472 1.969-2.949c-3.934.656-6.887-.324-8.856-2.95q-1.347-2.947 1.231-3.933 1.47-2.703 0-5.41c-1.211-1.965-.676-3.934-.488-5.903-1.969-2.785-2.297-3.277-2.95-1.476zm17.714-3.687q1.964 4.425 6.887.98c-2.621.324-4.918 0-6.887-.98m25.094 34.691c2.047.574 4.098.16 6.149-1.227.242 1.391-.161 2.786-1.227 4.18-1.395 3.195-.488 6.395 2.703 9.594.899 2.297 1.805 4.59 2.703 6.887.899 1.554 1.801 2.621 2.703 4.179-1.226.243-2.457.981-3.687 1.231-1.805-.653-2.297-1.641-1.477-2.949l.981-2.211c-2.008-5.454-4.633-10.293-8.61-13.778q-1.594-2.948-.242-5.902zm-33.215 24.602c-.496 2.949-.66 5.902 1.473 8.855.848.91 1.879.477 2.012-.758-1.805-2.785-3-5.304-3.489-8.093zm22.477 35.257c.535-1.347 2.328-1.707 3.226-1.613-.043.852-1.433 1.57-1.476 2.422-.762.18-1.117 1.57-1.879 1.75-.672-.582-.625-1.973.133-2.559zm-3.09-2.425c1.117-.489 2.238-1.161 3.359-3.098-2.019-1.207-3.769-2.555-3.629-4.848.625-1.074 1.118-2.648 1.747-4.445-.493-.176-.852-.223-1.344-.402-.223 1.57-.535 3.097-1.477 4.308q-.733 1.343.133 2.692c.902 1.929 1.035 3.859 1.207 5.789zm-27.773-32.059c.406 0 .738.422.738.941 0 .516-.328.942-.738.942-.407 0-.739-.422-.739-.942 0-.515.328-.941.739-.941m-.067-6.332a.807.807 0 0 1 0 1.613.806.806 0 0 1 0-1.613m56.617-20.473c1.332 0 2.016-.621 2.016-.066s-1.758 2.086-3.094 2.086c-1.332 0-1.746-.723-1.746-1.277 0-.555 1.488-.739 2.82-.739zm1.883 12.93c.367 0 .266 4.602.266 5.789 0 1.184-.301-1.211-.672-1.211-.367 0-1.211-1.101-1.211-2.289 0-1.183 1.242-2.289 1.613-2.289zm-56.683 32.465a.876.876 0 0 1 0 1.75.875.875 0 0 1 0-1.75m5.121 304.359 8.336-10.859 9.535 10.105 8.699-10.105 9.844 10.105 8.476-10.105 9.235 10.105 8.328-10.105 10.008 10.105 8.699-10.105 9.019 10.105 8.539-10.105 8.852 10.707c-.188 2.684.375 4.992 2.602 6.473-5.883.601-6.184 10.558 0 12.214v83.239c-43.231 10.527-67.348 10.938-114.547.379v-83.692c7.289-1.937 7.136-11.976 0-12.91q3.984-1.57 4.347-5.555zm18.644-72.082c3.977-4.687 9.133-7.867 15.457-9.543v17.844h-15.457zm19.543-9.754h13.168v17.844h-13.168zm17.633 0h13.797v17.844h-13.797zm18.269 0c4.536 1.84 8.965 4.52 13.168 9.039v8.801H257.38v-17.844zm18.055 22.305h5.66c2.633 3.875 5.368 7.437 8.336 10.309l.074 3.496h-14.074v-13.805zm-18.055 0h13.7v13.805h-13.7zm-18.269 0h13.949v13.805h-13.949zm-17.633 0h13.449v13.805h-13.449zm-19.543 0h15.457v13.805h-15.457zm-17.312 7.66a24.1 24.1 0 0 0 6.613-7.59l7.082-.066v13.805h-13.699v-6.145zm0 9.121h13.699v13.805h-13.699zm17.527 0h15.207v13.805H202.15zm19.328 0h13.324v13.805h-13.324zm17.594 0h13.949v13.805h-13.949zm18.308 0h13.575v13.805H257.38zm18.055 0h14.074v13.805h-14.074zm-90.801 17.938v9.543c1.95.054 3.211-1.172 5.899-1.004.836.75 1.086 1.797 1.254 2.887.25-1.129.543-2.176 1.129-2.637.812-.653 2.57.14 5.398.5v-9.293h-13.687zm17.457 0v9.543c1.95.054 3.59-1.172 6.278-1.004.836.75 1.465 1.797 1.629 2.887.25-1.129.668-2.176 1.254-2.637.812-.653 3.199.14 6.027.5v-9.293h-15.192zm19.336 0v9.543c1.95.054 2.586-1.172 5.274-1.004.836.75 1.34 1.797 1.504 2.887.25-1.129.793-2.176 1.379-2.637.812-.653 2.57.14 5.398.5v-9.293h-13.559zm17.832 0v9.543c1.95.054 2.461-1.297 5.149-1.129.836.75 1.465 1.922 1.629 3.012.25-1.129.543-2.176 1.129-2.637.812-.653 2.945.14 5.773.5v-9.293h-13.687zm17.957 0v9.543c1.95.054 3.211-1.172 5.899-1.004.836.75 1.086 1.797 1.254 2.887.25-1.129.543-2.176 1.129-2.637.812-.653 2.57.14 5.398.5v-9.293h-13.683zm18.211 0v9.543c1.95.054 2.836-1.297 5.524-1.129.836.75 1.215 1.922 1.379 3.012.25-1.129.543-2.426 1.129-2.887.812-.653 3.195.39 6.027.754v-9.293h-14.063zm-.172-42.891v3.699h2.797zm-76.824 3.602v-4.7l-3.898 4.7z" style="stroke:none;fill-rule:evenodd;fill:#fffdfd"/><path d="M92.392 591.455c4.367 0 7.93 3.563 7.93 7.93s-3.563 7.93-7.93 7.93-7.929-3.563-7.929-7.93 3.562-7.93 7.93-7.93m288.379 0c-4.367 0-7.93 3.563-7.93 7.93s3.563 7.93 7.93 7.93 7.93-3.563 7.93-7.93-3.563-7.93-7.93-7.93m0-3.172c-6.113 0-11.101 4.989-11.101 11.102s4.988 11.105 11.101 11.105 11.106-4.988 11.106-11.105c0-6.113-4.989-11.102-11.106-11.102m0-3.621c-8.105 0-14.723 6.614-14.723 14.723 0 8.105 6.614 14.723 14.723 14.723 8.106 0 14.723-6.614 14.723-14.723 0-8.105-6.614-14.723-14.723-14.723m0-2.156c-9.297 0-16.879 7.582-16.879 16.879s7.582 16.879 16.879 16.879 16.879-7.582 16.879-16.879-7.582-16.879-16.879-16.879m2.617-268.047a3.193 3.193 0 0 0-3.187 3.188 3.195 3.195 0 0 0 3.187 3.187 3.194 3.194 0 0 0 3.188-3.187 3.19 3.19 0 0 0-3.188-3.188m-.14-4.785c-4.618 0-8.383 3.606-8.383 8.023 0 4.422 3.765 8.028 8.383 8.028s8.382-3.606 8.382-8.028c0-4.417-3.765-8.023-8.382-8.023m0-2.84c-6.25 0-11.348 4.879-11.348 10.863 0 5.985 5.098 10.864 11.348 10.864s11.347-4.879 11.347-10.864c0-5.984-5.097-10.863-11.347-10.863m73.66 160.387h-24.391q-2.349 3.376 0 6.758h24.688c1.769-2.25 2.656-4.504-.293-6.758zm-59.074 0h-34.387q-2.35 3.376 0 6.758h34.387c1.769-2.25 2.949-4.504 0-6.758m-72.008 0H291.44q-2.349 3.376 0 6.758h34.387c1.769-2.25 2.949-4.504 0-6.758m-107.278 0q-2.349 3.376 0 6.758h36.063c1.566-2.254 1.566-4.504 0-6.758zm239.465 56.516H14.904v14.343h195.559l-2.422-7.648c14.16-6.328 42.964-6.309 57.086 0l-2.422 7.648h195.308zm0-44.547h-22.902v33.222h-38.758V479.19h-30.957v32.718h-39.512V479.19h-34.48v32.718h-38.508V479.19h-32.605v32.718h-38.508V479.19h-34.481v32.718h-39.511V479.19H76.834v33.222H38.076V479.19H15.174v39.765h442.855V479.19zM281.01 563.065c-7.211-5.129-14.554-9.086-22.183-10.465l-4.684 14.527c6.281 2.106 11.996 4.969 17.028 8.746zm172.254 18.261h-60.64c14.386 6.856 13.043 29.559.683 35.653h50.477c4.304-11.883 7-23.77 9.476-35.653zm-84.871 0h-42.055l-15.429 7.934c3.769 7.914 6.629 17.363 8.574 27.719l13.027-2.512 4.34 2.512h31.539c-12.98-8.496-12.41-27.504 0-35.653zm-61.183 9.735-15.157 7.636c2.637 7.321 4.446 14.922 5.254 22.856l18.27-3.957c-1.602-9.383-4.301-18.785-8.371-26.535zm-18.813 5.125a178 178 0 0 0-13.711-16.453l21.028-29.254c9.968 8.359 18.367 17.769 24.683 28.57L288.4 596.19zm134.598 63.613H297.123c1.187 2.383.738 4.055-2.102 4.684-2.824.488-3.531 2.062-2.121 4.73h124.391zm-9.699 13.695H297.181v29.673h89.867c10.27-8.75 19.02-18.637 26.247-29.673m-30.813 33.665h-85.305v21.679h58.2c11.695-7.605 20.73-14.835 27.101-21.679zm-35.664 25.965h-49.641v22.535q34.518-11.268 49.641-22.535m-15.406-113.509-36.516 6.801v28.528h37.941l-1.425-35.332zm46.218 1.668h-41.652v33.95h41.652zm65.313 0h-61.316v33.95h43.738c6.941-11.317 11.98-22.633 17.578-33.95m-121.559-78.449h-59.5l-1.851 5.32c9.336 2.856 17.519 6.481 23.152 11.805l11.574-14.816c10.274 7.222 19.438 16 26.621 27.551V542.83zm136.36.231H382.97v34.031h71.203c1.676-9.59 2.95-21.031 3.567-34.031zm-78.477 0h-54.406v34.031h54.406zm58.793-137.946h-24.094v26.274h24.094zm-65.973-58.476h-17.089v26.84h13.312v-16.317c.324-4.574 1.613-7.219 3.774-10.523zm38.075 0h-17.696c2.25 2.722 4.696 6.531 4.594 10.5v16.761h13.102zm27.898-27.688h-39.344c-2.796 18.028-27.375 19.242-31.019 0h-38.688v23.879h109.055v-23.879zm-28.109-29.801H355.49v26.84h12.66c2.777-17.902 27.703-18.132 30.328 0h11.465v-26.84zm-76.262-54.441h-21.316q-1.594.897 0 2.59h21.316c1.328-.859 1.328-1.727 0-2.59m40.25 0h-21.316q-1.594.897 0 2.59h21.316c1.328-.859 1.328-1.727 0-2.59m39.254 0h-21.316q-1.594.897 0 2.59h21.316c1.324-.859 1.324-1.727 0-2.59m40.246 0h-21.316q-1.589.897 0 2.59h21.316c1.328-.859 1.328-1.727 0-2.59m-2.488 7.098h-17.633v16.535h-22.516v-16.535h-16.933v16.136h-22.317v-16.136H354.22v15.937h-23.511v-15.937h-15.223v30.433h135.477v-30.433zm-90.446 250.871h-30.41v15.383h30.41zm70.352 0h-29.852v15.383h29.852zm-67.246-30.93h-9.617v26.883h6.551v-11.047c-7.149-7.582-.434-10.945 3.066-15.836m68.891 0H413.42v26.883h17.531v-10.723c-8.793-8.105-.672-11.574 1.551-16.16m-23.586 0h-11.172c2.148 4.801 12.066 6.688 3.258 15.688v11.195h7.91v-26.883zm-58.34 0h-22.961c2.719 4.719 7.984 6.438 2.637 13.539v13.34h20.324v-26.883zm87.484-26.344h-46.918c3.578 3.047 5.188 6.657 4.821 10.829l.035 12.203h42.058v-23.036zm-65.73 0h-43.325v23.036h39.157v-14.149q.39-6.555 4.164-8.887zm37.41-30.289h-55.371v26.274h55.371zm-58.969 0h-21.766v26.274h21.766zm87.289-27.621h-41v23.883h41zm-69.746 0h-39.309v23.883h39.309zm-16.91-31.066h-22.402v27.051h22.402zm86.656.211h-23.883v27.261h23.883zm-86.656-57.489h-22.402v26.84h22.402zm86.656 0h-23.672v26.84h23.672zm8.664-12.046H320.127l6.972 7.605H440.17l6.55-7.605zm-54.726 79.218c-2.067-11.25-17.371-11.5-19.11 0v42.688l3.723-4.465v-35.242c.5-10.899 10.676-10.899 11.91 0v34.992l3.473 4.715v-42.688zm-4.219 44.922c-.66-4.629-9.594-4.629-11.168 0zm-3.477-43.468c-1.32-1.321-2.644-1.286-3.968.031v35.738h3.968v-35.773zm7.77 104.007q-2.134 1.483-4.637 0v-16.418c-.398-6.925-10.914-6.738-11.222 0v16.418q-2.27 1.665-4.543 0v-17.718c.648-10.512 19.789-10.606 20.406 0v17.718zm-8.258-15.957q-2.039-2.407-4.078 0v15.953c1.48.864 2.844.864 4.078 0zM92.392 588.283c6.113 0 11.102 4.989 11.102 11.102s-4.989 11.105-11.102 11.105-11.105-4.988-11.105-11.105c0-6.113 4.988-11.102 11.105-11.102m0-3.621c8.106 0 14.719 6.614 14.719 14.723 0 8.105-6.613 14.723-14.719 14.723s-14.722-6.614-14.722-14.723c0-8.105 6.613-14.723 14.722-14.723m0-2.156c9.297 0 16.879 7.582 16.879 16.879s-7.582 16.879-16.879 16.879-16.879-7.582-16.879-16.879 7.582-16.879 16.88-16.879M89.78 314.459a3.193 3.193 0 0 1 3.187 3.188 3.195 3.195 0 0 1-3.187 3.187 3.194 3.194 0 0 1-3.188-3.187 3.19 3.19 0 0 1 3.188-3.188m.141-4.785c4.617 0 8.382 3.606 8.382 8.023 0 4.422-3.765 8.028-8.382 8.028-4.618 0-8.383-3.606-8.383-8.028 0-4.417 3.765-8.023 8.383-8.023m0-2.84c6.25 0 11.347 4.879 11.347 10.863 0 5.985-5.097 10.864-11.347 10.864s-11.348-4.879-11.348-10.864c0-5.984 5.098-10.863 11.348-10.863M16.26 467.221h24.39q2.349 3.376 0 6.758H15.963c-1.77-2.25-2.656-4.504.293-6.758zm59.074 0h34.386q2.35 3.376 0 6.758H75.334c-1.77-2.25-2.95-4.504 0-6.758m72.007 0h34.387q2.35 3.376 0 6.758h-34.387c-1.769-2.25-2.949-4.504 0-6.758m44.817 95.844c7.211-5.129 14.555-9.086 22.183-10.465l4.684 14.527c-6.281 2.106-11.996 4.969-17.027 8.746zM19.08 581.326h61.461c-14.879 6.606-13.469 29.309-.684 35.653H29.654c-4.304-11.883-8.097-23.77-10.574-35.653m85.695 0h42.055l15.429 7.934c-3.769 7.914-6.629 17.363-8.574 27.719l-13.027-2.512-4.34 2.512h-31.539c12.844-8.36 12.273-27.367 0-35.653zm61.18 9.735 15.156 7.636c-2.637 7.321-4.445 14.922-5.254 22.856l-18.27-3.957c1.602-9.383 4.301-18.785 8.372-26.535zm18.816 5.125a178 178 0 0 1 13.711-16.453l-21.027-29.254c-9.969 8.359-18.368 17.769-24.684 28.57l31.996 17.141zm-134.6 63.613h125.87c-1.188 2.383-.739 4.055 2.101 4.684 2.824.488 3.531 2.062 2.121 4.73H55.873zm9.702 13.695H175.99v29.673H86.123c-10.27-8.75-19.02-18.637-26.246-29.673zm30.812 33.665h85.305v21.679h-58.199c-11.696-7.605-20.73-14.835-27.102-21.679zm35.66 25.965h49.641v22.535q-34.518-11.268-49.641-22.535m15.407-113.509 36.515 6.801v28.528h-37.941l1.426-35.332zm-46.219 1.668h41.652v33.95H95.533zm-63.906 0h59.91v33.95H46.748q-10.412-16.975-15.117-33.95zm120.156-78.449h59.5l1.851 5.32c-9.336 2.856-17.515 6.481-23.148 11.805l-11.574-14.816c-10.274 7.222-19.438 16-26.621 27.551V542.83zm-137.062.231h75.472v34.031h-72c-2.468-10.031-3.472-21.531-3.472-34.031m79.18 0h54.405v34.031H93.9zM35.106 405.822H59.2v25.571H35.107zm65.973-59.179h17.09v26.84h-13.313v-16.317c-.324-4.574-1.613-7.219-3.773-10.523zm-38.075 0H80.7c-2.25 2.722-4.696 6.531-4.594 10.5v16.761H63.005zm-27.898-27.688H74.45c2.797 18.028 27.375 19.242 31.019 0h38.688v23.879H35.1v-23.879zm28.11-29.801h55.16v26.84h-13.364c-2.777-17.902-27.703-18.132-30.328 0H63.22v-26.84zm76.261-54.441h21.317q1.587.897 0 2.59h-21.317c-1.324-.859-1.324-1.727 0-2.59m-40.25 0h21.317q1.587.897 0 2.59H99.228c-1.328-.859-1.328-1.727 0-2.59m-39.254 0h21.317q1.593.897 0 2.59H59.974c-1.324-.859-1.324-1.727 0-2.59m-40.25 0h21.317q1.587.897 0 2.59H19.725c-1.325-.859-1.325-1.727 0-2.59m2.489 7.098h17.632v16.535h22.516v-16.535h16.934v16.136h22.316v-16.136h17.332v15.937h23.512v-15.937h15.222v30.433H22.201v-30.433zm90.449 250.871h30.41v15.383h-30.41zm-70.598 0h30.41v15.383h-30.41zm67.492-30.93h9.617v26.883h-6.515l-.031-11.047c7.148-7.582.433-10.945-3.067-15.836zm-68.89 0h19.082v26.883H42.216v-10.723c8.793-8.105.672-11.574-1.55-16.16m23.586 0h11.171c-2.148 4.801-12.125 6.688-3.316 15.688l.055 11.195h-7.91zm58.339 0h22.961c-2.718 4.719-7.918 6.438-2.566 13.539l-.066 13.34h-20.325v-26.883zm-87.484-26.344h46.918c-3.578 3.047-5.188 6.657-4.82 10.829l-.039 12.203H35.107v-23.036zm65.73 0h43.325v23.036h-39.16v-14.149q-.392-6.555-4.165-8.887m-37.41-29.586h55.375v25.571H63.427zm58.969 0h21.766v25.571h-21.766zm-87.289-28.324h41v23.883h-41zm69.746 0h39.309v23.883h-39.309zm16.906-31.066h22.403v27.051h-22.403zm-86.652.211H58.99v27.261H35.107zm86.652-57.489h22.403v26.84h-22.403zm-86.652 0H58.78v26.84H35.107zm-8.664-12.046h126.598l-6.973 7.605H32.998l-6.55-7.605zm54.727 79.218c2.066-11.25 17.371-11.5 19.109 0v42.688l-3.723-4.465v-35.242c-.773-11.067-10.945-11-11.91 0v34.992l-3.473 4.715v-42.688zm4.218 44.922c.66-4.629 9.594-4.629 11.168 0zm3.477-43.468c1.32-1.321 2.644-1.286 3.97.031v35.738h-3.97v-35.773zm-7.77 104.007q2.135 1.483 4.637 0v-16.418c.398-6.925 10.914-6.738 11.223 0v16.418q2.268 1.665 4.543 0v-17.718c-.649-10.512-19.789-10.606-20.407 0v17.718zm8.254-15.957q2.04-2.407 4.078 0v15.953q-2.226 1.296-4.078 0zm133.852 121.657-9.66-33.672c13.691-4.668 32.98-4.735 45.8 0l-9.761 33.773-26.371-.098zm14.508-295.043 17.546-15.977h-17.546zm0 41.836 59.332-57.813v36.762l-59.594 58.828.258-37.777zm3.043 79.621 56.289-56.547q0 21.804-17.239 39.554c-13.015 11.411-26.031 16.395-39.047 16.989zm-22.547-4.567c-2.188-2.031-2.305-4.062 2.117-6.097a7.9 7.9 0 0 1 4.508 0c2.644 1.054 3.972-.09 3.976-3.446q-.195-4.765 1.59-4.238c-1.723-4.031-1.898-6.129-1.851-7.953 2.292.176 1.644-1.41 1.589-2.649-.222-1.187-1.547-1.277-3.976-.261-3.25 1.867-5.754.742-8.481.527-2.047-3.66-4.398-4.898-6.89-5.035q-1.124-1.853-.262-3.711-1.985-.662-3.977-1.324 1.784-2.385.262-4.77c-1.765-4.551-5.445-7.668-9.012-10.867q-4.036-1.844-3.445 1.59l4.77 6.89c1.203 2.004 3.351 3.536.793 7.422-1.086 1.028-2.996 1.946-.793 3.446 1.632.449 2.601 1.586 1.59 4.238.73 1.68 1.128 3.355-.793 5.035-.243 2.383-.375 4.77.261 7.156q.53 2.912-1.59.528c-1.281-1.567-1.015-3.907-.527-6.36-.637-1.996-.062-3.386 1.059-4.504q1.253-3.177-.793-5.035c-3.559.301-6.785-.113-7.688-5.566-.66-1.852-1.547-1.938-2.648-.262-1.688 1.867-3.434 3.348-5.567 2.117-1.933-.316-3.371-.91-1.324-3.445.617-.895 1.234-1.844 1.856-3.18.836-1.633.128-2.16-2.118-1.59-2.511-.484-3.043-1.984-1.589-2.382.527-1.149 1.41-1.946.527-4.508-3.094-2.238-4.672-4.207-2.914-5.567q2.712-2.772 4.769 1.059c1.371 1.234 1.192 2.473.793 3.711-.464 1.762.379 2.738 2.118 3.18 2.031 1.461 4.062 1.757 6.097 2.121q2.25-.465 1.852-2.914c-.063-2.043-.903-3.7-1.852-5.301-.23-3.969-1.621-5.227-3.179-6.098q-1.982-3.773 0-5.566c2.382-2.731 4.179-.762 6.097.262 4.227 1.656 6.637 4.531 8.219 7.953q.333 5.097 5.301 4.242c1.172.066 1.566-2.184 1.855-4.77-.914-2.152-1.941-4.285-1.058-6.89-3.59-7.067-7.844-8.211-11.93-10.868-.129-1.632 2.988-1.886 2.914-4.238 1.598 1.555 3.258 2.949 5.301 3.18 1.566-.02 2.582-.598 2.386-2.383-3.324-1.164-4.531-2.633-4.769-4.238q.066-1.324-1.856-1.324c-1.586.925-2.293.746-2.117-.528-.969-1.281-1.941-1.015-2.914-.527-1.336.84-2.285.133-3.179-.793-.793-.82-1.59-2.469-2.383 0-.172 2.383 1.414 3.004 2.648 3.977 3.617 1.855 1.942 3.121 1.324 4.503-.351 4.59-2.472 4.477-4.238 5.301-1.777.696-3.168 2.274-4.508 3.41-2.07.571-2.156-.449-.261-2.086q1.986-.86 2.648-2.386.393-1.39-.527-2.118c-3.914.895-8.086 1.989-7.953-.261q-1.653-1.455 0-2.914c2.253-.399 2.96.75 3.445 2.117 1.59.141 3.179.121 4.769-1.059a7 7 0 0 0 0-4.238c-.988-3.742-.324-7.211 3.977-10.074 1.781-1.36 3.871-1.813 6.098-1.856 1.371 1.766 1.191 3.535.793 5.301.792-.086 1.589-.176 2.382-.262q.526-1.722 1.059-3.445c2.82-.789 2.707.766 3.18 1.856.527 2.117-.703 3.062-1.59 4.238q1.92 3.972 4.504 3.976c3.308 1.063 5.078 3.004 5.3 5.832 1.149 4.204 2.297 3.758 3.446 2.649q.662-1.454 1.324-1.59c4.926 3.641 6.285 7.934 6.359 12.461-.531 4.68-1.648 6.418-2.648 8.746-2.203 2.031-1.469 2.887-1.324 3.977.883 2.82 2.355 1.527 3.711 1.058 1.234-1.711 2.472-2.265 3.711-2.648-1.059-1.324-.352-2.649 0-3.977q1.654-1.587 3.976-1.855.99-.925 1.324-1.856.394-1.324.793-2.648l-.261-3.18c-.176-1.277-.797-2.34-1.856-3.18q-1.723-2.116-2.117-4.238c-.242-1.422-1.258-2.461-2.387-3.445-2.101-2.328-1.879-3.5-1.324-4.504.883-2.027 2.356-1.707 3.711-1.855 1.691.484 2.996 1.187 1.59 3.445q.726 1.986 2.121 2.648-1.916 3.046-.527 6.098c.265 2.297 1.117 4.594 1.855 6.891.219 4.859-.992 6.851-2.117 9.011q-1.124 1.055-.262 2.117.925 1.324 1.856 2.649h-2.118c-2.882-.18-3.648 1.156-3.445 3.18 2.199 3.085-.883 2.058-2.914 1.855-1.687-.387-2.992.383-4.238 1.324-2.821 1.676-.938 2.77 0 3.977 1.855-.528 3.711-.172 5.566 1.058 1.524 2.707 3.156 5.247 5.567 6.625 3.371.95 3.261 2.672 2.648 4.504-.586 1.059-1.41 2.121-1.059 3.18 1.012 1.5.922 3.004-.261 4.504-.879 2.558-.879 4.684 0 6.363-.352.883-1.059 1.766 0 2.649 1.015 1.589.484 3.179-.262 4.769-.426 1.938 1.363 2.692 3.145 3.742.171 1.895-1.028 3.188-2.614 2.883-.707-.75-1.414-1.277-2.117-1.59-.973-1.851-1.941-1.937-2.914-.261.133 3.472-1.277 3.07-2.914 2.117q-3.107-1.325-.262-2.649 1.449-4.892-2.383-1.851c-1.504 3.297-3.004 2.719-4.507 1.59zm4.047-96.051c-.508-2.961-.563-6.117.996-9.968 1.234-4.844.793-8.852-2.102-11.629-.41 3.34-1.277 6.039-3.766 6.422-2.972-.239-5.851-.016-8.527 1.218q-3.432 1.717-7.754 2.547c-6.054-.59-9.894.293-11.519 2.657-1.289.035-1.993-.809-2.102-2.547-.094-4.375-.039-8.774-2.547-12.848-1.328-3.32-3.062-5.02-4.984-5.981-.445-1.585-.11-2.656.328-3.652-1.066-2.515-3.027-2.512-4.098-2.656.996.883 2.735 1.402 2.547 2.879.071.738-.035 1.918-1.437 2.656.218 2.359 4.429 2.176 2.765 3.984-1.586.18-3.027.586-3.433 2.547-.184 2.215 1.105 3.102 3.875 2.657-.11 2.179-.039 4.211 1.328 5.203.656.855.523 2.5.551 3.984.605 2.121.605 4.449.328 6.867.812 1.473 2.472 1.403 5.648-.664 1.809-1.437 3.469-2.215 5.871-2.765 1.809-.145 3.102-.551 3.434-.11.746 1.856 2.094 3.352 4.32 4.317.293 1.769-.293 2.214-1.769 1.328-2.434.062-4.871.054-7.309 1.328-.996.922-1.848 1.953-1.66 3.765.144.665.512 1.184 2.434.665 1.293-1.438 2.878-2.29 4.761-2.547 1.453-1.25 2.887 2.507 4.43.441 1.828-.332 2.785 1.992 4.32 5.203 1.778-.707 2.059-5.129.219-5.98-1.437.222-2.734.152-2.988-1.992q.995-3.042-.664-3.434c-.875-1.457-2.774-3.234.441-3.434.848-.183 1.695-.441 2.547.555.242-.84.879-.672 1.437-.887-.605-.242-1.445-.25-1.105-1.437 1.215-.887 2.687-1.699 5.98-1.992 1.145.218 1.403.738.774 1.55-1.035.329-1.957.77-2.102 1.993q1.107.327.883 1.992c-.867.664-.164 1.328.219 1.992.664-.773 1.328-1.621 1.992-2.988q.997-1.548 2.434 0 1.161.165 1.437 1.66c.07 2.047-.035 4.191-.551 6.535-.035.734.516 1.477 1.661 2.215.48.66 1.367.695 2.437.773v-2.433zm6.421-29.027c-3.543-.09-3.839-2.012-2.656-4.762 3.18-2.48 4.543-2.363 5.649-1.882q.326.884-.219 1.769c-2.254.625-2.879 2.473-2.77 4.871zm-27.582 2.883c-1.367-.328-2.55-.844-2.437-2.656-.039-1.364.25-2.696 2.879-3.766 2.027-.43 4.058-1.254 6.09-.109q1.106.55 1.328 1.992c1.551.219 2.957.586 3.32 1.992q1.326 1.22 3.543.219c-.402-1.844.219-2.508 1.883-1.992q3.434 1.217 6.867 3.765l2.324.883c-1.105.734-2.14 1.512-2.656 2.547q-1.992.054-1.769-2.102-1.828.166-2.766-1.437c-1.106.957-2.043 1.437-3.149.922-.886 1.031-1.652 1.843-.171 3.175q1.88.938 1.105 3.211c.742 1.7-.844 2.106-2.769 2.325-1.586-.774-2.739-1.801-1.961-3.758.543-.465 1.101-1.395 1.074-2.551-1.531-.809-2.824-1.66-3.766-2.766-1.223-.847-.887-1.695-.328-2.546-2.547-.239-3.062 1.347-2.656 3.765-1.59-.699-2.848-1.617-1.77-4.098.649-.593 1.336-.976 2.102-.882.074-.774-.141-1.477-2.434-1.66-1.511-.075-2.988.105-4.207 2.101-.441 1.145-.109 2.289.332 3.434zm6.504 3.992c-1.031 2.176-1.738 3.684-3.07 4.09q-2.045-.329-4.098-.664c.59 1.918 2.399 3.027 4.762 3.765a700 700 0 0 0 2.434-1.66c.707-1.394 2.332-1.742 3.672-2.508.46-1.179-.219-2.214-1.235-2.804-.808-1.031-1.949-1.25-2.465-.215zm23.422 23.461q1.675-2.754 3.356 1.195c-1.438.559-2.559.157-3.356-1.195m-6.472-3.359q-1.077 2.155-.239 4.316c1.117.102 2.235-.496 3.356-3.594q-1.559-1.318-3.117-.718zm1.918-11.512c4.156-1.117 6.714.637 7.671 5.273zm.957-6.477c1.917-2.402 3.914-4.324 6.472-2.879.399-.316-.156-1.277-1.676-2.875-.957-.796-1.597-1.918-1.918-3.355.079 1.996-.476 3.676-1.675 5.035-3.469 2.895-1.821 3.231-1.196 4.074zm-44.879 49.957c.617 3.985-.024 6.313-1.536 7.512-1.636.164-2.648-.473-3.14-1.781.109-2.625 1.015-3.899 2.277-4.555-1.508-.402-2.285-1.437-2.644-2.828-.325-1.641.328-2.461 1.968-2.461q2.092.03 1.723 1.781c-1.484 2.442-.602 2.852 1.352 2.34zm47.597-34.05c-.633-1.563-1.781-2.743-3.074-3.817q-.457-.921.797-.859c1.621.961 3.102 2.07 3.57 4.183q-.397 1.108-1.293.493m-2.707 12.253c.356-1.117 1.074-2.082 2.586-2.707.758.243 1.496.571 2.094 1.477.082 1.215-1.125.984-2.524.551-.964.801-1.679 1.023-2.152.676zm-2.648.122q-.24-1.354-1.231-1.969c-1.168.285-1.597.449-2.277 1.293 1.105.449 1.578.883 3.508.676m-10.469-4.004c.551-.864 1.106-.575 1.66-.121.031 1.777.391 3.308 1.906 3.937.614 2.031-.121 2.258-1.476 1.66-2.008-1.476-2.551-3.344-2.094-5.48zm-2.586 1.172c.156-2.18.359-4.301 1.844-4.493q1.04-2.303-.613-1.906c-2.071-.66-1.954 2.617-2.278 5.109q-.827 1.751 1.047 1.293zm-4.742 3.941q2.337 2.49 4.926.059c1.668 1.117 2.699 4.253 3.383 8.496-.676.211-1.473-.153-3.137-4.555-.981-.727-3.09-.652-5.231-.551-1.453-1.332-1.105-2.441.059-3.445zm23.727-29.531c1.742.758 2.46 2.652 3.449 4.371-1.485.109-3.051-.422-4.668-1.395q-1.57-2.654 1.219-2.972zm-40.75 17.133c1.058-2.29 2.195-3.688 3.863-3.551.234 2.347-2.387 1.914-3.863 3.551m-5.368.226c1.852 0 3.364.57 3.364 1.274 0 .699-1.512 1.273-3.364 1.273s-3.363-.57-3.363-1.273c0-.7 1.512-1.274 3.363-1.274m-4.136 11.387c1.566-.133 1.472-.906 3.816-1.637.617.211 1.105.848.27 1.91-2.372.637-3.782.543-4.09-.269zm30.683 71.754c-.367-1.762-.957-3.496.11-5.465 1.128-1.039 1.921-.582 2.558.555-.191 1.722-.859 2.355-1.742 2.488-1.02.488-.855 1.504-.926 2.418zm-13.961-6.438c-.992-.086-2.39-.32-2.894.778-.383 1.093.269 1.14 1.074 1.039.418-.137.594-.469.519-1.004.176-.653 1.02-.465 1.297-.817zm12.574-108.422c1.325-.882 3.262-1.269 6.54-1.117q-.235-.752-.129-1.68c-1.856.114-3.621.301-5.25-.043-1.852 1.43-2.067 2.215-1.161 2.844zm-3.316-1.593c-.961-.2-1.418-.7-1.805-1.25-.859.171-.918.543-.859.945.656.359 1.492.848 1.762 1.379.457-.141.902-.703.902-1.074m222.09-167.813 3.445-10.16-2.191-.75-3.457 10.09zm-94-22.39 1.723-10.59-2.286-.375-1.742 10.523 2.309.445zm-97.254-6.465v-10.73l-2.316-.005-.032 10.668 2.352.067zm-96.109 5.554-1.551-10.617-2.293.328 1.508 10.56zm-97.12 21.02L40.67 76.873l-2.204.723 3.325 10.133zm29.417.492 38.757-8.328 1.192 6.79-38.246 8.565zm5.84 10.18 2.36 9.953 32.171-6.695-2.215-10.07zm89.452-27.582 39.555-2.739.336 7.793-39.48 2.11-.411-7.168zm4.188 11.222.449 10.06 32.926-1.649-.379-9.829-32.992 1.422zm130.812-9.375-39.496-3.933-.785 7.472 39.703 3.614.578-7.157zm-4.261 11.032-1.035 10.046-32.872-2.718.868-10.086 33.039 2.754zm99.117 5.207-38.828-8.657-2.047 7.56 39.004 8.89zm-6.348 10.746-1.738 8.894-32.434-6.777 2.086-9.016zm37.403 10.468 17.554 5.797-3.281 9.985-17.559-5.805zm-14.25 6.387 7.535 2.547 3.871-11.891c.09-4.691-5.184-6.492-7.539-2.367zm-17.953-16.719 17.554 5.27-3.281 9.984-17.559-4.754 3.286-10.503zm7.46-13.484 43.79 14.5-3.266 9.922-15.328-5.109c1.718-6.98-9.875-10.52-13.012-4.008l-15.559-5.125 3.375-10.176zm-66.386 1.766 17.953 2.88-1.414 10.233-17.957-2.703zm-12.852 8.867 7.875 1.137 1.649-12.395c-.762-4.633-6.278-5.445-7.844-.957zm-20.789-13.52 18.137 2.696-1.235 10.054-18.32-2.519zm4.984-14.28 45.692 6.308-1.406 10.351-16-2.242c.421-7.176-11.621-8.55-13.524-1.578l-16.23-2.215 1.472-10.62zm-65.8 10.765 18.308.383.067 10.511-18.492.137.113-11.03zm-11.649 10.922 8.137-.028-.086-12.324c-1.328-4.5-7.086-4.62-8.082.02l.027 12.328zm-22.332-11.008 18.488.035.067 10.691-18.492-.043-.063-10.687zm3.196-14.61 46.121.036-.11 10.808-15.609-.055c-.473-7.17-13.684-7.039-14.699.11h-15.84l.14-10.902zm-62.618 19.852 18.25-2.727L170.15 91.8l-17.937 2.523-1.532-9.937zm-9.765 12.113 7.765-1.1-1.902-12.36c-2.031-4.23-7.555-3.462-7.797 1.281zm-23.875-7.062 18.25-2.957 1.453 9.914-18.176 3.207-1.531-10.168zm.785-15.153 45.625-6.793 1.402 10.317-15.828 2.355c-2.687-6.617-13.558-4.937-13.422 2.285l-16.168 2.657-1.601-10.824zm-61.129 29.645 17.805-5.5 2.793 10.219-17.297 5.32-3.305-10.043zm-7.59 13.48 7.504-2.285-3.78-11.918c-2.66-3.867-8-2.254-7.509 2.469zm-24.683-3.304 17.578-5.731 3.257 9.992-17.53 5.778L24.42 114.1zm-1.332-14.629 43.808-14.199 3.168 9.95-15.469 4.796c-3.675-6.125-14.156-2.789-12.91 4.324l-15.562 5.113-3.027-9.988zM444.177 83.58a4.71 4.71 0 0 1 .989 6.582 4.72 4.72 0 0 1-6.582.99 4.72 4.72 0 0 1-.989-6.583 4.715 4.715 0 0 1 6.578-.989zm-7.683-3.78 13.246 4.296-3.449 10.68-13.141-4.313zm-16.375-4.169a4.72 4.72 0 0 1 .937 6.59c-1.554 2.07-4.515 2.492-6.59.937a4.72 4.72 0 0 1-.937-6.589 4.72 4.72 0 0 1 6.59-.938m-7.653-3.844 13.211 4.403-3.535 10.652-13.105-4.418 3.429-10.64zm-63.605-12.504a4.72 4.72 0 0 1 2.109 6.313 4.71 4.71 0 0 1-6.312 2.11c-2.317-1.153-3.266-3.989-2.11-6.309a4.72 4.72 0 0 1 6.313-2.114m-8.223-2.398 13.789 1.941-1.554 11.118-13.688-1.977 1.449-11.082zm-16.41-1.234a4.716 4.716 0 0 1 2.098 6.316c-1.16 2.316-4 3.258-6.317 2.098a4.72 4.72 0 0 1-2.097-6.317 4.715 4.715 0 0 1 6.316-2.097m-8.215-2.418 13.782 1.976-1.579 11.113-13.683-2.007 1.48-11.078zm-65.429-2.223c2.449.844 3.753 3.535 2.906 5.984a4.71 4.71 0 0 1-5.985 2.907c-2.449-.844-3.753-3.536-2.906-5.985a4.71 4.71 0 0 1 5.985-2.906m-8.461-1.316 13.925-.032.071 11.043-13.969-.015zm-20.047 9.68a4.716 4.716 0 0 1-2.926-5.977 4.71 4.71 0 0 1 5.977-2.922 4.71 4.71 0 0 1 2.921 5.976 4.71 4.71 0 0 1-5.976 2.922zm8.504 1.292-13.961.067.078-11.407 13.828-.019.055 11.355zm-77.996-6.054c2.546.46 4.25 2.918 3.789 5.468a4.71 4.71 0 0 1-5.469 3.79 4.71 4.71 0 0 1-3.789-5.469 4.71 4.71 0 0 1 5.469-3.789m-8.563-.004 13.781-1.98 1.61 11.11-13.696 1.916zm-16.301 3.796a4.71 4.71 0 0 1 3.844 5.43 4.71 4.71 0 0 1-5.43 3.844 4.71 4.71 0 0 1-3.843-5.43c.433-2.554 2.875-4.28 5.429-3.844m-8.558.08 13.761-2.119 1.719 11.094-13.676 2.055zM53.47 73.95a4.713 4.713 0 0 1 4.65 4.762 4.713 4.713 0 0 1-4.763 4.65A4.71 4.71 0 0 1 48.71 78.6a4.71 4.71 0 0 1 4.757-4.649zm-8.445 1.422 13.258-4.254 3.441 10.684-13.183 4.18-3.52-10.61zm-15.789 6.203a4.71 4.71 0 0 1 4.649 4.758c-.028 2.59-2.168 4.68-4.762 4.65a4.71 4.71 0 0 1-4.648-4.763c.027-2.59 2.168-4.68 4.761-4.649zm-8.441 1.422 13.258-4.254 3.441 10.684-13.183 4.18-3.52-10.61zM412.61 59.85l43.551 13.887-1.992 7.417-44.047-14.39 2.492-6.91zm-98.582-18.653 45.766 6.704-1.106 7.496-45.531-6.774.875-7.426zM213.486 38.1l45.863-.059-.008 7.535-45.972-.129.117-7.343zm-99.082 9.762 45.449-6.71 1.008 7.588-44.906 6.426-1.551-7.308zm-99.586 25.46L58.56 59.518l2.418 6.754-44.136 14.113zM398.4 140.787l35.355 10.547-3.226 10.336-35.141-10.59 3.008-10.293zm-40.102-10.488 35.84 8.781-2.711 10.481-35.621-8.836 2.492-10.43zm-40.339-6.668 36.414 5.953-1.883 10.66-36.203-6.023 1.672-10.594zm-40.743-4.402 36.774 3.57-1.555 10.777-36.043-3.656zm-40.769-2.391 37.418 1.313-.367 10.82-36.692-.887-.355-11.25zm-40.793 1.692 36.34-1.559.843 10.82-36.671 1.449zm-40.945 3.492 36.703-3.797.976 10.785-36.515 3.672-1.16-10.66zm-40.59 6.293 36.418-5.946 1.605 10.707-36.238 5.813zm-40.746 10.004 35.75-9.129 2.543 10.523-35.586 8.981-2.71-10.375zM33.818 150.03l35.301-10.735 3.015 10.399-35.144 10.582-3.175-10.243zm-3.918-5.266c132.895-45.453 268.687-45.68 407.52 1.598l-1.594 1.558c-137.449-46.516-268.125-47.973-404.894-1.043l-1.028-2.117zm379.023 15.625 20.204 5.406-2.243 8.547-20.023-5.816 2.066-8.137zm-36.937-10.309 32.25 8.336-2.125 8.434-32.191-8.633zm-38.285-8.426 32.73 6.196-1.566 8.554-32.688-6.496 1.528-8.254zm-38.422-5.453 33.101 3.727-.921 8.648-33.086-4.027.902-8.348zm-38.93-2.621 33.258 1.899-.441 8.683-33.258-1.675.441-8.911zm-37.933-.953 33.304.59.422 8.695-33.844-.89.114-8.395zm-38.86 2.149 33.492-1.817.289 8.695-33.292 1.504-.489-8.378zm-39.097 4.476 33.257-3.961 1.051 8.649-33.086 3.636-1.222-8.32zm-37.809 7.192 32.965-5.907 1.558 8.571-32.812 5.574-1.711-8.235zm-38.12 10.097 32.28-8.914 2.34 8.391-32.16 8.566zm-25.997 7.594 21.922-7.063 2.226 8.274-21.687 6.832zm-10.508-37.156c134.77-44.832 273.641-44.344 416.91.984.84 2.008.438 3.039-1.777 2.629-142.52-44.945-281.453-46.684-415.488-.105-2.785.109-3.05-.887.355-3.508M444.658 33.08a3.075 3.075 0 0 1 3.031 3.106 3.074 3.074 0 0 1-3.105 3.031 3.076 3.076 0 0 1-3.032-3.105 3.076 3.076 0 0 1 3.106-3.032m-418.097.235a3.07 3.07 0 0 1 3.03 3.105 3.075 3.075 0 0 1-3.105 3.031 3.075 3.075 0 0 1-3.03-3.105 3.074 3.074 0 0 1 3.105-3.03m105.683-22.82a3.075 3.075 0 0 1 3.031 3.105 3.075 3.075 0 0 1-3.105 3.031 3.075 3.075 0 0 1-3.032-3.105 3.076 3.076 0 0 1 3.106-3.032m104.48-6.969a3.074 3.074 0 0 1 3.031 3.105 3.07 3.07 0 0 1-3.105 3.031 3.075 3.075 0 0 1-3.031-3.105 3.074 3.074 0 0 1 3.105-3.03m104.828 6.855a3.076 3.076 0 0 1 3.032 3.106 3.074 3.074 0 0 1-3.106 3.031 3.075 3.075 0 0 1-3.031-3.106 3.075 3.075 0 0 1 3.105-3.03m-331.16 59 19.169-23.98 30.448 8.617zm100.199-26.316L133.31 22.42l28.703 13.324-51.426 7.321zm100.196-10.504 25.574-16.985 26.363 17.137-51.941-.152zm101.207 3.695 27.593-13.453 23.821 20.832-51.418-7.375zm99.554 17.746 29.536-8.375 19.769 24.707-49.308-16.332zM18.19 136.588c144.034-48.402 288.843-48.887 434.46.981l-3.164 8.148c-147.172-50.98-290.031-50.676-428.82-1.937l-2.473-7.192zm371.878 31.531 34.969 10.879-3.532 10.864-34.609-11.274zm-37.254-10.363 33.25 8.496-3.008 11.938-33.343-8.555zm-38.519-6.769 33.914 5.773-2.891 11.644-32.965-5.296zm-38.571-3.313 33.68 3.281-1.469 11.223-33.262-2.797zm-38.57-1.672 34.312 1.59-1.199 11.258-33.371-1.094.258-11.75zm-39.086.328 34.301-1.019-.114 12.304-33.882.993-.301-12.274zm-39.254 3.453 34.188-2.968 1.105 12.261-34.301 2.946-.996-12.239zm-39.406 6.508 33.859-5.59 2.047 12.137-33.969 5.574-1.933-12.125zm-37.832 8.621 33.492-7.472 2.719 12.007-33.606 7.461-2.609-11.996zm-38.379 11.563 32.89-9.793 3.551 11.785-33.004 9.793-3.44-11.785zm358.133 11.578-6.621 21.004 19.961 6.715 7.812-20.547-21.148-7.172zm-35.91-10.379-5.997 21.188 30.301 8.578 6.543-20.758-30.844-9.008zm-36.364-7.77-4.715 21.512 30.762 6.742 5.285-21.113-31.328-7.141zm-37.871-4.378-2.336 21.371 31.313 3.863 3.468-21.563-32.449-3.671zm-35.859-2.614-1.262 21.504 30.789 1.895 2.231-21.184-31.762-2.215zm-36.969-.758v22.02l31.488.004.641-21.754-32.133-.266zm-36.449 2.27 2.328 21.457 29.859-1.828-1.148-21.231-31.043 1.602zm-71.735 10.777 29.774-5.484 3.172 21.449-29.649 5.84zm34.7-6.402 32.257-3.707 2.516 21.441-32.047 4.274-2.722-22.012zm-71.059 15.645 31.215-8.024 4.625 21.473-30.125 8.387-5.715-21.833zm-30.676 10.218 26.465-8.695 5.242 21.371-24.918 7.836z" style="stroke:none;fill-rule:evenodd;fill:#ec2a32"/></svg>