<svg xmlns="http://www.w3.org/2000/svg"><title>Herb Tychy old</title><path d="M231.13 105.118h262.39l.06 435.792c-16.27 95.996-235.924 134.527-246.98 203.774C235.543 675.437 16.75 636.907.479 540.91V105.118h485.278" style="fill:#fff;fill-rule:evenodd;stroke:none;stroke-width:1px;stroke-linecap:butt;stroke-linejoin:miter;stroke-opacity:1"/><path d="M14.472 573.251c23.605 34.656 72.316 60.241 119.234 84v-84zm149.593-2.045v101.302c43.179 22.435 78.923 44.607 82.898 72.673 3.783-26.72 36.538-48.03 76.92-69.37V571.207zm182.155 0v93.123c51.767-26.244 109.147-53.946 134.492-93.123zM323.377 428.87v-90.436H163.559v89.157m183.761-89.19v89.19l146.605 1.1v-90.29zm-347.32 0v89.347l139.683 1.101v-90.448z" style="fill:#cc3b25;fill-opacity:1;stroke:none;stroke-width:4;stroke-miterlimit:4;stroke-opacity:1"/><path d="M69.462 41.904V23.937h-31.75V41.65m36.507-17.72v17.72l29.125.218V23.931zm-69 0v17.75l27.75.22V23.93z" style="fill:#cc3b25;fill-opacity:1;stroke:none;stroke-width:4;stroke-miterlimit:4;stroke-opacity:1" transform="translate(-26.27 -15.84)scale(5.03363)"/><g style="fill:#cc3b25;fill-opacity:1"><path d="M5.219 93.296v17.75l46.046.218V93.296zm49.862 0v17.75l48.057.218V93.296z" style="fill:#cc3b25;fill-opacity:1;stroke:none;stroke-width:4;stroke-miterlimit:4;stroke-opacity:1" transform="translate(-25.73 -15.84)scale(5.03363)"/></g><g style="fill:#cc3b25;fill-opacity:1"><path d="M5.219 93.296v17.75l46.046.218V93.296zm49.862 0v17.75l48.057.218V93.296z" style="fill:#cc3b25;fill-opacity:1;stroke:none;stroke-width:4;stroke-miterlimit:4;stroke-opacity:1" transform="translate(-25.73 -246.589)scale(5.03363)"/></g><path d="m108.451 287.605 5.027-4.385-46.406-49.921 13.825-12.06-9.054-9.74-32.678 28.505 9.055 9.74 13.824-12.06z" style="fill:#000;fill-rule:evenodd;stroke:#000;stroke-width:5.51947737px;stroke-linecap:butt;stroke-linejoin:miter;stroke-opacity:1"/><path d="m64.248 285.624-4.757-4.677 49.298-47.069-13.082-12.861 9.618-9.183 30.921 30.4 1.384 11.456-11.002-2.273-13.082-12.862z" style="fill:#000;fill-rule:evenodd;stroke:#000;stroke-width:5.51947737px;stroke-linecap:butt;stroke-linejoin:miter;stroke-opacity:1"/><text x="6.071" y="73.314" style="font-size:100.70196533px" transform="scale(1.05772 .94543)"><tspan x="6.071" y="73.314"><tspan x="6.071" y="73.314">T Y C H Y</tspan></tspan></text></svg>