<!-- Created with Inkscape (http://www.inkscape.org/) -->
<svg role="img" viewBox="-22.31 -26.83 793.44 966.57"
   xmlns="http://www.w3.org/2000/svg"
   xmlns:xlink="http://www.w3.org/1999/xlink"
   id="svg2"
   version="1.0"><title>Herb Brzeszcze</title>
  <metadata
     id="metadata7">
    <rdf:RDF>
      <cc:Work
         rdf:about="">
        <dc:format>image/svg+xml</dc:format>
        <dc:type
           rdf:resource="http://purl.org/dc/dcmitype/StillImage" />
      </cc:Work>
    </rdf:RDF>
  </metadata>
  <defs
     id="defs5">
    <radialGradient
       r="7.7925749"
       fy="442.06165"
       fx="258.88525"
       cy="442.06165"
       cx="258.88525"
       gradientTransform="matrix(1.449740,-0.120050,0.115892,1.399529,-167.6624,-145.5075)"
       gradientUnits="userSpaceOnUse"
       id="radialGradient4548"
       xlink:href="#linearGradient3554" />
    <radialGradient
       r="7.7925749"
       fy="442.06165"
       fx="258.88525"
       cy="442.06165"
       cx="258.88525"
       gradientTransform="matrix(1.449740,-0.120050,0.115892,1.399529,-167.6624,-145.5075)"
       gradientUnits="userSpaceOnUse"
       id="radialGradient4416"
       xlink:href="#linearGradient3554" />
    <radialGradient
       r="7.7925749"
       fy="442.06165"
       fx="258.88525"
       cy="442.06165"
       cx="258.88525"
       gradientTransform="matrix(1.449740,-0.120050,0.115892,1.399529,-167.6624,-145.5075)"
       gradientUnits="userSpaceOnUse"
       id="radialGradient4098"
       xlink:href="#linearGradient3554" />
    <radialGradient
       r="7.7925749"
       fy="442.06165"
       fx="258.88525"
       cy="442.06165"
       cx="258.88525"
       gradientTransform="matrix(1.449740,-0.120050,0.115892,1.399529,-167.6624,-145.5075)"
       gradientUnits="userSpaceOnUse"
       id="radialGradient3572"
       xlink:href="#linearGradient3554" />
    <linearGradient
       id="linearGradient3554">
      <stop
         id="stop3556"
         offset="0"
         style="stop-color:#ffffff;stop-opacity:1;" />
      <stop
         id="stop3558"
         offset="1"
         style="stop-color:#000000;stop-opacity:1;" />
    </linearGradient>
    <radialGradient
       r="26.672326"
       fy="602.09741"
       fx="-486.78445"
       cy="602.09741"
       cx="-486.78445"
       gradientTransform="matrix(-1.882386,-1.438549,-2.782273,3.640687,450.6645,-2282.949)"
       gradientUnits="userSpaceOnUse"
       id="radialGradient2288"
       xlink:href="#linearGradient2234" />
    <radialGradient
       r="26.672326"
       fy="602.09741"
       fx="-486.78445"
       cy="602.09741"
       cx="-486.78445"
       gradientTransform="matrix(1.882386,-1.438549,2.782273,3.640687,-1233.064,-2282.949)"
       gradientUnits="userSpaceOnUse"
       id="radialGradient2286"
       xlink:href="#linearGradient2234" />
    <radialGradient
       r="26.672326"
       fy="602.09741"
       fx="-486.78445"
       cy="602.09741"
       cx="-486.78445"
       gradientTransform="matrix(-1.882386,-1.438549,-2.782273,3.640687,450.6645,-2282.949)"
       gradientUnits="userSpaceOnUse"
       id="radialGradient2246"
       xlink:href="#linearGradient2234" />
    <radialGradient
       gradientUnits="userSpaceOnUse"
       gradientTransform="matrix(1.882386,-1.438549,2.782273,3.640687,-1233.064,-2282.949)"
       r="26.672326"
       fy="602.09741"
       fx="-486.78445"
       cy="602.09741"
       cx="-486.78445"
       id="radialGradient2240"
       xlink:href="#linearGradient2234" />
    <linearGradient
       id="linearGradient2234">
      <stop
         id="stop2236"
         offset="0"
         style="stop-color:#c9cab9;stop-opacity:1;" />
      <stop
         id="stop2238"
         offset="1"
         style="stop-color:#0e0c09;stop-opacity:0.79611653;" />
    </linearGradient>
    <radialGradient
       xlink:href="#linearGradient2234"
       id="radialGradient2556"
       gradientUnits="userSpaceOnUse"
       gradientTransform="matrix(1.882386,-1.438549,2.782273,3.640687,-1233.064,-2282.949)"
       cx="-486.78445"
       cy="602.09741"
       fx="-486.78445"
       fy="602.09741"
       r="26.672326" />
    <radialGradient
       xlink:href="#linearGradient2234"
       id="radialGradient2558"
       gradientUnits="userSpaceOnUse"
       gradientTransform="matrix(-1.882386,-1.438549,-2.782273,3.640687,450.6645,-2282.949)"
       cx="-486.78445"
       cy="602.09741"
       fx="-486.78445"
       fy="602.09741"
       r="26.672326" />
  </defs>
  <sodipodi:namedview
     borderopacity="1.0"
     bordercolor="#666666"
     pagecolor="#ffffff"
     id="base"
     showguides="true" />
  <g
     id="g2777">
    <path
       id="rect2571"
       d="M 7.126706,8.967227 L 7.083076,552.58352 C 9.957243,754.0451 176.22763,903.93555 372.40012,903.93555 C 568.57242,903.93555 744.26661,747.9723 741.49822,552.15354 L 741.75232,8.967227 L 7.126706,8.967227 z "
       style="opacity:1;fill:#6b95ff;fill-opacity:1;fill-rule:evenodd;stroke:#000000;stroke-width:12.4015748;stroke-linecap:round;stroke-linejoin:round;stroke-miterlimit:4;stroke-dasharray:none;stroke-dashoffset:0;stroke-opacity:1" />
    <g
       transform="translate(-1619.310,0.000000)"
       id="g2676">
      <g
         id="g3174"
         transform="matrix(1.646118,0.560127,-0.776425,2.281781,1542.852,-214.9460)">
        <path
           id="path3128"
           d="M 279.56532,277.79452 L 281.95185,288.36345 C 270.52744,286.70772 269.73833,292.4967 266.95079,296.88678 C 262.07684,283.58008 269.09454,279.36701 279.56532,277.79452 z "
           style="fill:#a4a67f;fill-opacity:1;fill-rule:evenodd;stroke:#000000;stroke-width:2.49094486;stroke-linecap:butt;stroke-linejoin:miter;stroke-miterlimit:4;stroke-dasharray:none;stroke-opacity:1" />
        <path
           style="fill:#a4a67f;fill-opacity:1;fill-rule:evenodd;stroke:#000000;stroke-width:2.49094486;stroke-linecap:butt;stroke-linejoin:miter;stroke-miterlimit:4;stroke-dasharray:none;stroke-opacity:1"
           d="M 285.68585,295.87056 L 293.07133,302.87475 C 283.33576,307.60305 285.7537,312.54462 285.88791,317.44611 C 275.13823,309.61295 278.38056,302.6198 285.68585,295.87056 z "
           id="path3130" />
        <path
           id="path3132"
           d="M 300.05428,306.37606 L 310.1683,307.3911 C 305.2428,315.93609 310.14882,318.14322 313.20743,321.54128 C 299.90833,321.73559 298.28598,315.05411 300.05428,306.37606 z "
           style="fill:#a4a67f;fill-opacity:1;fill-rule:evenodd;stroke:#000000;stroke-width:2.49094486;stroke-linecap:butt;stroke-linejoin:miter;stroke-miterlimit:4;stroke-dasharray:none;stroke-opacity:1" />
        <path
           style="fill:#a4a67f;fill-opacity:1;fill-rule:evenodd;stroke:#000000;stroke-width:2.49094486;stroke-linecap:butt;stroke-linejoin:miter;stroke-miterlimit:4;stroke-dasharray:none;stroke-opacity:1"
           d="M 346.83522,291.01266 L 338.97068,294.99993 C 345.26119,300.84717 341.91309,304.25888 340.37614,308.12823 C 351.13357,304.20281 350.62071,297.94621 346.83522,291.01266 z "
           id="path3134" />
        <path
           id="path2253"
           d="M 344.68359,242.33745 L 333.43279,244.72398 C 329.73353,255.67361 326.58012,266.70121 316.72705,276.77172 C 304.19776,280.94816 287.26665,271.85851 280.24719,277.11265 L 282.29279,288.70438 C 290.01276,288.43786 295.54643,281.33101 303.43065,283.93132 C 297.73506,293.45517 288.46719,289.52468 285.36119,295.18212 L 292.86172,303.02359 C 297.57147,303.03292 296.50994,293.42932 308.54465,289.04531 C 310.94757,296.33947 298.14647,301.09171 300.02132,306.43291 L 310.24932,307.11478 C 315.23973,300.31883 312.32258,294.53333 317.09278,290.81074 C 322.97548,286.21998 331.35354,286.50491 338.54679,294.50025 L 347.07012,290.40905 C 344.99773,283.41667 338.01193,286.25113 333.43279,284.27225 C 326.13928,275.50105 334.15927,270.01132 338.88772,263.81625 L 347.41106,250.86078 L 344.68359,242.33745 z "
           style="fill:#fee302;fill-opacity:1;fill-rule:evenodd;stroke:#000000;stroke-width:2.49094486;stroke-linecap:butt;stroke-linejoin:miter;stroke-miterlimit:4;stroke-dasharray:none;stroke-opacity:1" />
      </g>
      <g
         id="g3167"
         transform="matrix(1.662417,-0.509720,0.706553,2.304374,1190.311,189.5466)">
        <path
           style="fill:#a4a67f;fill-opacity:1;fill-rule:evenodd;stroke:#000000;stroke-width:2.13661408;stroke-linecap:butt;stroke-linejoin:miter;stroke-miterlimit:4;stroke-dasharray:none;stroke-opacity:1"
           d="M 490.45749,277.79452 L 488.07096,288.36345 C 499.49537,286.70772 500.28448,292.4967 503.07202,296.88678 C 507.94597,283.58008 500.92827,279.36701 490.45749,277.79452 z "
           id="path3147" />
        <path
           id="path3149"
           d="M 484.33696,295.87056 L 476.95148,302.87475 C 486.68705,307.60305 484.26911,312.54462 484.1349,317.44611 C 494.88458,309.61295 491.64225,302.6198 484.33696,295.87056 z "
           style="fill:#a4a67f;fill-opacity:1;fill-rule:evenodd;stroke:#000000;stroke-width:2.13661408;stroke-linecap:butt;stroke-linejoin:miter;stroke-miterlimit:4;stroke-dasharray:none;stroke-opacity:1" />
        <path
           style="fill:#a4a67f;fill-opacity:1;fill-rule:evenodd;stroke:#000000;stroke-width:2.13661408;stroke-linecap:butt;stroke-linejoin:miter;stroke-miterlimit:4;stroke-dasharray:none;stroke-opacity:1"
           d="M 469.96853,306.37606 L 459.85451,307.3911 C 464.78001,315.93609 459.87399,318.14322 456.81538,321.54128 C 470.11448,321.73559 471.73683,315.05411 469.96853,306.37606 z "
           id="path3151" />
        <path
           id="path3153"
           d="M 423.18759,291.01266 L 431.05213,294.99993 C 424.76162,300.84717 428.10972,304.25888 429.64667,308.12823 C 418.88924,304.20281 419.4021,297.94621 423.18759,291.01266 z "
           style="fill:#a4a67f;fill-opacity:1;fill-rule:evenodd;stroke:#000000;stroke-width:2.13661408;stroke-linecap:butt;stroke-linejoin:miter;stroke-miterlimit:4;stroke-dasharray:none;stroke-opacity:1" />
        <path
           style="fill:#fee302;fill-opacity:1;fill-rule:evenodd;stroke:#000000;stroke-width:2.13661408;stroke-linecap:butt;stroke-linejoin:miter;stroke-miterlimit:4;stroke-dasharray:none;stroke-opacity:1"
           d="M 425.33922,242.33745 L 436.59002,244.72398 C 440.28928,255.67361 443.44269,266.70121 453.29576,276.77172 C 465.82505,280.94816 482.75616,271.85851 489.77562,277.11265 L 487.73002,288.70438 C 480.01005,288.43786 474.47638,281.33101 466.59216,283.93132 C 472.28775,293.45517 481.55562,289.52468 484.66162,295.18212 L 477.16109,303.02359 C 472.45134,303.03292 473.51287,293.42932 461.47816,289.04531 C 459.07524,296.33947 471.87634,301.09171 470.00149,306.43291 L 459.77349,307.11478 C 454.78308,300.31883 457.70023,294.53333 452.93003,290.81074 C 447.04733,286.21998 438.66927,286.50491 431.47602,294.50025 L 422.95269,290.40905 C 425.02508,283.41667 432.01088,286.25113 436.59002,284.27225 C 443.88353,275.50105 435.86354,270.01132 431.13509,263.81625 L 422.61175,250.86078 L 425.33922,242.33745 z "
           id="path3155" />
      </g>
      <path
         style="fill:#fee302;fill-opacity:1;fill-rule:evenodd;stroke:#000000;stroke-width:9.42995834;stroke-linecap:butt;stroke-linejoin:miter;stroke-miterlimit:4;stroke-dasharray:none;stroke-opacity:1"
         d="M 1767.0625,78.8125 C 1728.4579,83.346162 1705.8426,121.92119 1714,173.78125 L 1731.5625,278.375 C 1745.6944,350.41919 1718.4791,357.34335 1687.6875,358.625 C 1711.7707,396.45944 1772.4902,411.77348 1780.6875,344.03125 L 1777.1563,234.59375 L 1782.4375,382.96875 C 1778.97,439.83259 1755.3118,440.67599 1731.5625,441.3125 C 1745.1055,464.57709 1796.8035,499.1254 1821.0313,446.1875 L 1826.2813,278.375 L 1821.0313,475.375 C 1820.0113,523.37983 1784.3358,528.33038 1768.4063,519.15625 C 1784.4703,569.37344 1877.6733,594.73829 1882.4375,482.65625 L 1879.5,374.5625 C 1880.861,405.10448 1884.519,429.90936 1896.4688,434.03125 C 1919.6883,409.69801 1923.5164,371.03297 1922.6875,335.28125 C 1920.8654,319.40774 1919.6784,300.32251 1919.3125,276.90625 C 1919.9303,292.64822 1922.1808,313.4261 1922.6875,335.28125 C 1931.5038,412.08768 1954.5621,413.39416 1964.8125,462.875 C 1956.814,435.40701 1945.3203,418.03445 1938.375,399.4375 C 1927.4291,410.36396 1914.2558,416.6468 1919.2813,460.78125 C 1895.5546,479.52707 1891.1927,505.9553 1896.4688,536.1875 C 1908.8859,540.61623 1915.6656,533.64943 1924.5625,524 C 1920.5222,535.37945 1915.0864,546.02168 1921.0313,562.9375 C 1953.4224,558.35537 1940.1366,507.87154 1954.375,497.25 L 1952.5938,575.09375 C 1959.9591,570.44063 1967.1633,569.13998 1969.4688,549.84375 C 1968.4307,561.58784 1966.4255,581.05002 1964.5,604.40625 C 1964.4463,604.12693 1964.399,603.84301 1964.3438,603.5625 C 1964.3901,604.03813 1964.4079,604.52247 1964.4375,605 C 1964.4395,605.03184 1964.4356,605.06191 1964.4375,605.09375 C 1964.111,609.07149 1963.7841,613.16144 1963.4688,617.34375 C 1963.468,617.35411 1963.4695,617.36464 1963.4688,617.375 C 1957.5378,645.2708 1927.8826,669.53412 1906.7188,645.8125 C 1913.3281,697.48109 1945.2306,701.36598 1959.9375,670.84375 C 1960.6002,717.69518 1909.4515,767.96331 1874.1875,728.4375 C 1885.4552,816.52175 1946.1989,810.98086 1960.9375,741.96875 C 1963.8401,786.82712 1972.8013,823.30632 1993.7188,830.71875 C 2013.6029,823.76051 2022.248,786.89151 2025.1563,741.5 C 2039.509,806.97921 2097.9036,812.23443 2111.4375,726.3125 C 2078.0543,761.61406 2033.492,720.99387 2027.9063,677.90625 C 2043.5433,702.50008 2071.9869,696.0974 2078.1875,647.625 C 2059.212,668.89384 2033.4072,651.56888 2024,627.65625 C 2021.2625,581.72974 2017.1913,544.59712 2017.5,538.59375 C 2018.1505,568.78999 2028.1893,569.66566 2036.7813,575.09375 L 2033.2813,497.25 C 2047.5197,507.87154 2034.2337,558.35537 2066.625,562.9375 C 2072.5698,546.02168 2067.1342,535.37947 2063.0938,524 C 2071.9907,533.64941 2078.7704,540.61625 2091.1875,536.1875 C 2096.4636,505.95528 2092.1017,479.52706 2068.375,460.78125 C 2073.4004,416.64681 2060.1959,410.36396 2049.25,399.4375 C 2042.3047,418.03445 2030.8423,435.407 2022.8438,462.875 C 2033.0929,413.40048 2056.15,412.08987 2064.9688,335.3125 C 2065.4741,313.44623 2067.7257,292.65551 2068.3438,276.90625 C 2067.9776,300.33696 2066.7927,319.43317 2064.9688,335.3125 C 2064.1427,371.05575 2067.9746,409.7049 2091.1875,434.03125 C 2103.1373,429.90936 2106.7953,405.10448 2108.1563,374.5625 L 2105.2188,482.65625 C 2109.9829,594.73828 2203.186,569.37342 2219.25,519.15625 C 2203.3205,528.3304 2167.645,523.37984 2166.625,475.375 L 2161.375,278.375 L 2166.625,446.1875 C 2190.8528,499.12542 2242.5509,464.5771 2256.0938,441.3125 C 2232.3445,440.67598 2208.6864,439.8326 2205.2188,382.96875 L 2210.5,234.59375 L 2206.9688,344.03125 C 2215.166,411.77347 2275.8857,396.45945 2299.9688,358.625 C 2269.1772,357.34334 2241.962,350.41918 2256.0938,278.375 L 2273.6563,173.78125 C 2279.1624,109.64515 2235.2776,63.589925 2182.4063,86.25 C 2146.4803,100.75922 2144.5014,175.93689 2189.0625,173.53125 C 2198.406,275.49933 2097.1246,257.61018 1993.8125,229.71875 C 1890.5004,257.61017 1789.2503,275.49932 1798.5938,173.53125 C 1846.5698,181.05941 1852.7457,71.919779 1767.0625,78.8125 z M 1877.25,291.8125 C 1878.3606,309.31938 1878.4519,329.38755 1878.7813,348.84375 L 1877.25,291.8125 z M 2110.4063,291.8125 L 2108.875,348.84375 C 2109.2043,329.38755 2109.2956,309.31938 2110.4063,291.8125 z M 1878.8125,350.8125 L 1879.4063,372.53125 C 1879.1186,365.51327 1878.945,358.21758 1878.8125,350.8125 z M 2108.8438,350.8125 C 2108.7198,357.73983 2108.537,364.58896 2108.2813,371.1875 C 2108.2636,371.64257 2108.2686,372.07848 2108.25,372.53125 L 2108.2813,371.1875 L 2108.8438,350.8125 z M 1970.1563,538.59375 C 1970.2024,539.49207 1970.1507,541.10339 1970,543.3125 C 1970.0802,541.83109 1970.1207,540.24511 1970.1563,538.59375 z M 1969.9063,544.5625 C 1969.893,544.76748 1969.8891,544.95454 1969.875,545.15625 C 1969.8908,544.95193 1969.8916,544.75894 1969.9063,544.5625 z M 1969.8438,545.46875 C 1969.822,545.76888 1969.805,546.05086 1969.7813,546.34375 C 1969.8051,546.05025 1969.8218,545.74832 1969.8438,545.46875 z M 1969.75,546.65625 C 1969.7257,546.94675 1969.7137,547.21659 1969.6875,547.5 C 1969.711,547.22001 1969.7279,546.92515 1969.75,546.65625 z M 1969.5938,548.5 C 1969.5848,548.60343 1969.5716,548.70772 1969.5625,548.8125 C 1969.5734,548.71093 1969.5831,548.60253 1969.5938,548.5 z M 1960.4688,669.65625 C 1960.4645,669.77107 1960.4417,669.88516 1960.4375,670 C 1960.4243,669.92694 1960.4195,669.85437 1960.4063,669.78125 C 1960.4251,669.74003 1960.45,669.69759 1960.4688,669.65625 z "
         id="path2223" />
      <path
         style="fill:#000f21;fill-opacity:1;fill-rule:evenodd;stroke:#000000;stroke-width:2.04718733px;stroke-linecap:butt;stroke-linejoin:miter;stroke-opacity:1"
         d="M 1780.1287,140.25603 C 1757.067,163.18428 1761.5891,208.06283 1786.9101,237.75209 C 1816.3176,268.14261 1858.0171,293.36671 1920.9587,279.94534 L 1920.9587,289.68224 C 1897.9026,300.25857 1838.6435,301.37244 1783.3979,252.35745 C 1757.5871,213.6803 1744.141,172.4419 1771.3483,133.76476 C 1776.3652,130.85831 1781.2214,128.34191 1780.1287,140.25603 z "
         id="path2238" />
      <path
         id="path2240"
         d="M 2210.5221,142.81729 C 2233.5839,165.74554 2225.6467,208.06283 2200.3257,237.75209 C 2170.9183,268.14261 2129.2187,293.36671 2066.2772,279.94534 L 2066.2771,289.68224 C 2089.3333,300.25857 2148.5924,301.37244 2203.8379,252.35745 C 2229.6487,213.6803 2246.5099,175.00316 2219.3026,136.32602 C 2214.2856,133.41957 2209.4295,130.90317 2210.5221,142.81729 z "
         style="fill:#000f21;fill-opacity:1;fill-rule:evenodd;stroke:#000000;stroke-width:2.04718733px;stroke-linecap:butt;stroke-linejoin:miter;stroke-opacity:1" />
      <g
         id="g3191"
         transform="matrix(2.067860,0.000000,0.000000,2.080751,2799.848,-22.57646)">
        <path
           id="path3181"
           d="M -409.7017,53.971164 C -378.87783,36.450429 -370.79174,74.341233 -352.16783,74.865042 C -355.36368,81.906696 -361.02263,83.972803 -370.33642,81.829668 C -376.55105,94.224559 -372.67146,113.81583 -368.21675,116.6528 C -360.40824,125.33504 -351.48648,122.1411 -341.26668,119.6809 C -341.3781,129.46784 -361.40954,149.90177 -376.69543,133.30734 C -372.63473,147.82406 -381.69261,155.1091 -390.92749,161.46865 C -401.43209,153.15167 -408.3817,144.95495 -404.25112,131.79329 C -422.31121,147.96714 -436.27045,128.13713 -436.95458,118.77247 C -428.94258,123.11274 -411.72043,121.39682 -403.34269,113.01908 C -399.35278,105.85258 -397.77408,98.686082 -401.82864,91.519583 C -396.38255,91.733569 -391.66669,81.851665 -399.10336,72.139754 C -397.2678,70.719692 -397.53872,56.782835 -409.7017,53.971164 z "
           style="fill:#fee302;fill-opacity:1;fill-rule:evenodd;stroke:#000000;stroke-width:4.96062994;stroke-linecap:butt;stroke-linejoin:round;stroke-miterlimit:4;stroke-dasharray:none;stroke-opacity:1" />
        <path
           id="path3183"
           d="M -409.39889,53.668354 C -426.20815,44.511627 -442.42163,51.722361 -433.92648,71.534134 C -431.23393,62.336482 -418.64899,63.559377 -402.43426,78.19595 C -397.39913,73.350993 -395.23558,59.118931 -409.39889,53.668354 z "
           style="fill:#fee302;fill-opacity:1;fill-rule:evenodd;stroke:#000000;stroke-width:4.25196838;stroke-linecap:butt;stroke-linejoin:miter;stroke-miterlimit:4;stroke-dasharray:none;stroke-opacity:1" />
        <path
           id="path3185"
           d="M -399.10336,72.442563 C -391.42713,82.437363 -396.29724,91.02443 -401.82864,91.822392 C -415.70761,89.966384 -423.07205,84.49119 -422.41971,74.562232 C -414.33811,70.84568 -401.27647,88.346421 -399.10336,72.442563 z "
           style="fill:#fee302;fill-opacity:1;fill-rule:evenodd;stroke:#000000;stroke-width:3.89763784;stroke-linecap:butt;stroke-linejoin:miter;stroke-miterlimit:4;stroke-dasharray:none;stroke-opacity:1" />
        <path
           id="path3187"
           d="M -395.46964,63.055459 C -394.73904,70.744863 -385.52872,71.466959 -381.23758,67.294796 C -384.05506,61.542997 -390.00576,57.791628 -395.46964,63.055459 z "
           style="fill:#f2dc71;fill-opacity:1;fill-rule:evenodd;stroke:#000000;stroke-width:2.41653538;stroke-linecap:butt;stroke-linejoin:miter;stroke-miterlimit:4;stroke-dasharray:none;stroke-opacity:1" />
        <path
           transform="translate(1.816859,1.514049)"
           d="M -390.01907 63.812485 A 1.3626442 1.3626442 0 1 1  -392.74436,63.812485 A 1.3626442 1.3626442 0 1 1  -390.01907 63.812485 z"
           id="path3189"
           style="opacity:1;fill:#f2dc71;fill-opacity:1;fill-rule:nonzero;stroke:#000000;stroke-width:2.48031497;stroke-linecap:round;stroke-linejoin:round;stroke-miterlimit:4;stroke-dasharray:none;stroke-dashoffset:0;stroke-opacity:1" />
      </g>
      <path
         style="fill:none;fill-opacity:0.75;fill-rule:evenodd;stroke:#000000;stroke-width:10.21181107;stroke-linecap:butt;stroke-linejoin:miter;stroke-miterlimit:4;stroke-dasharray:none;stroke-opacity:1"
         d="M 1851.7879,292.67611 C 1847.6547,392.283 1862.5959,552.29204 1821.0528,533.43415"
         id="path2654" />
      <path
         style="fill:none;fill-opacity:0.75;fill-rule:evenodd;stroke:#000000;stroke-width:1px;stroke-linecap:butt;stroke-linejoin:miter;stroke-opacity:1"
         d="M 1800.5628,264.5023 C 1801.4165,264.5023 1802.2703,264.5023 1800.5628,264.5023 z "
         id="path2656" />
      <path
         style="fill:none;fill-opacity:0.75;fill-rule:evenodd;stroke:#000000;stroke-width:10.21181107;stroke-linecap:butt;stroke-linejoin:miter;stroke-miterlimit:4;stroke-dasharray:none;stroke-opacity:1"
         d="M 1803.124,267.06355 C 1802.5391,339.58541 1810.2699,457.54412 1780.0727,451.47397"
         id="path2658" />
      <path
         style="fill:none;fill-opacity:0.75;fill-rule:evenodd;stroke:#000000;stroke-width:10.21181107;stroke-linecap:butt;stroke-linejoin:miter;stroke-miterlimit:4;stroke-dasharray:none;stroke-opacity:1"
         d="M 2136.0873,287.5536 C 2144.6522,372.2958 2118.6629,537.6642 2164.2611,535.99541"
         id="path2660" />
      <path
         style="fill:none;fill-opacity:0.75;fill-rule:evenodd;stroke:#000000;stroke-width:10.21181107;stroke-linecap:butt;stroke-linejoin:miter;stroke-miterlimit:4;stroke-dasharray:none;stroke-opacity:1"
         d="M 2184.7512,259.37978 C 2184.2054,339.80876 2175.9362,457.71914 2207.8025,446.35145"
         id="path2662" />
      <path
         style="opacity:1;fill:#000000;fill-opacity:1;fill-rule:nonzero;stroke:#010000;stroke-width:10.21181107;stroke-linecap:round;stroke-linejoin:miter;stroke-miterlimit:4;stroke-dasharray:none;stroke-dashoffset:0;stroke-opacity:1"
         id="path2664"
         d="M 1774.9503 124.91386 A 6.8300152 7.2568913 0 1 1  1761.2902,124.91386 A 6.8300152 7.2568913 0 1 1  1774.9503 124.91386 z"
         transform="translate(-3.785806,1.931814)" />
      <path
         d="M 1774.9503 124.91386 A 6.8300152 7.2568913 0 1 1  1761.2902,124.91386 A 6.8300152 7.2568913 0 1 1  1774.9503 124.91386 z"
         id="path2666"
         style="opacity:1;fill:#000000;fill-opacity:1;fill-rule:nonzero;stroke:#010000;stroke-width:10.21181107;stroke-linecap:round;stroke-linejoin:miter;stroke-miterlimit:4;stroke-dasharray:none;stroke-dashoffset:0;stroke-opacity:1"
         transform="translate(20.49005,0.302132)" />
      <path
         transform="translate(16.99722,25.09527)"
         style="opacity:1;fill:#000000;fill-opacity:1;fill-rule:nonzero;stroke:#010000;stroke-width:10.21181107;stroke-linecap:round;stroke-linejoin:miter;stroke-miterlimit:4;stroke-dasharray:none;stroke-dashoffset:0;stroke-opacity:1"
         id="path2668"
         d="M 1774.9503 124.91386 A 6.8300152 7.2568913 0 1 1  1761.2902,124.91386 A 6.8300152 7.2568913 0 1 1  1774.9503 124.91386 z" />
      <path
         d="M 1774.9503 124.91386 A 6.8300152 7.2568913 0 1 1  1761.2902,124.91386 A 6.8300152 7.2568913 0 1 1  1774.9503 124.91386 z"
         id="path2670"
         style="opacity:1;fill:#000000;fill-opacity:1;fill-rule:nonzero;stroke:#010000;stroke-width:10.21181107;stroke-linecap:round;stroke-linejoin:miter;stroke-miterlimit:4;stroke-dasharray:none;stroke-dashoffset:0;stroke-opacity:1"
         transform="translate(434.3354,1.000243)" />
      <path
         transform="translate(457.6957,2.112638)"
         style="opacity:1;fill:#000000;fill-opacity:1;fill-rule:nonzero;stroke:#010000;stroke-width:10.21181107;stroke-linecap:round;stroke-linejoin:miter;stroke-miterlimit:4;stroke-dasharray:none;stroke-dashoffset:0;stroke-opacity:1"
         id="path2672"
         d="M 1774.9503 124.91386 A 6.8300152 7.2568913 0 1 1  1761.2902,124.91386 A 6.8300152 7.2568913 0 1 1  1774.9503 124.91386 z" />
      <path
         d="M 1774.9503 124.91386 A 6.8300152 7.2568913 0 1 1  1761.2902,124.91386 A 6.8300152 7.2568913 0 1 1  1774.9503 124.91386 z"
         id="path2674"
         style="opacity:1;fill:#000000;fill-opacity:1;fill-rule:nonzero;stroke:#010000;stroke-width:10.21181107;stroke-linecap:round;stroke-linejoin:miter;stroke-miterlimit:4;stroke-dasharray:none;stroke-dashoffset:0;stroke-opacity:1"
         transform="translate(436.5602,25.47294)" />
    </g>
    <g
       transform="translate(-12.58532,0.000000)"
       id="g2311">
      <g
         id="g2245">
        <path
           id="path1358"
           d="M 553.76086,425.6036 L 553.84547,280.1035 L 228.86546,280.1035 L 228.85095,425.60401 L 553.76086,425.6036 z "
           style="opacity:1;fill:#41cf8f;fill-opacity:1;fill-rule:evenodd;stroke:#000000;stroke-width:7.08661413;stroke-linecap:round;stroke-linejoin:round;stroke-miterlimit:4;stroke-dasharray:none;stroke-dashoffset:0;stroke-opacity:1" />
        <path
           id="path2235"
           d="M 228.85095,425.60401 L 228.84616,473.58572 C 230.11761,562.70726 303.67146,629.01504 390.45326,629.01504 C 477.23496,629.01504 554.95767,560.02081 553.73307,473.3955 L 553.76086,425.6036 L 228.85095,425.60401 z "
           style="opacity:1;fill:#0b0311;fill-opacity:1;fill-rule:evenodd;stroke:#000000;stroke-width:7.08661413;stroke-linecap:round;stroke-linejoin:round;stroke-miterlimit:4;stroke-dasharray:none;stroke-dashoffset:0;stroke-opacity:1" />
      </g>
      <g
         id="g2303"
         transform="translate(-737.0022,0.000000)">
        <g
           id="g2260">
          <path
             style="opacity:1;fill:#fbfe4d;fill-opacity:1;fill-rule:nonzero;stroke:none;stroke-width:2.09020472;stroke-linecap:round;stroke-linejoin:miter;stroke-miterlimit:4;stroke-dasharray:none;stroke-dashoffset:0;stroke-opacity:1"
             d="M 1107.6049,415.61236 L 1072.8289,452.32294 L 1090.583,467.73009 L 1102.8721,454.74722 L 1160.0625,510.41853 L 1167.8225,502.44681 L 1110.5201,446.66651 L 1125.359,431.01952 L 1107.6049,415.61236 z "
             id="rect2249" />
          <path
             style="fill:#fbfe4d;fill-opacity:1;fill-rule:nonzero;stroke:none;stroke-width:2.08919907;stroke-linecap:round;stroke-linejoin:miter;stroke-miterlimit:4;stroke-dashoffset:0;stroke-opacity:1"
             d="M 1153.5606,416.14519 L 1137.4405,433.252 L 1149.3441,445.5266 L 1092.0704,503.7724 L 1099.4235,511.00282 L 1156.5219,452.93528 L 1172.6383,469.52775 L 1173.4854,436.26336 L 1153.5606,416.14519 z "
             id="rect2251" />
        </g>
        <path
           id="rect2264"
           d="M 1018.0625,292.15625 C 1016.4612,312.21052 1019.1618,331.21488 1040.3125,336.4375 L 1040.3125,346.40625 C 1033.7791,343.49641 1024.7831,344.62316 1018.0625,343.875 C 1017.0097,356.80907 1022.0151,375.37213 1040.3125,378.40625 L 1040.3125,386.4375 C 1032.8959,383.58997 1025.4791,385.66072 1018.0625,384.375 C 1017.0097,397.30907 1022.0151,415.87213 1040.3125,418.90625 L 1040.3125,527.8125 L 1027.625,527.65625 L 1046.6563,557.78125 L 1063.7813,528.0625 L 1051.4063,527.9375 L 1051.4063,419.25 C 1068.7758,417.48266 1076.9607,398.64745 1075.2813,384.96875 C 1067.4265,386.23592 1058.746,382.51771 1051.4063,386.875 L 1051.4063,378.78125 C 1068.7758,377.01391 1076.9607,358.14745 1075.2813,344.46875 C 1068.0614,345.45565 1057.8226,343.6265 1051.4063,346.78125 L 1051.4063,336.8125 C 1073.9885,332.15242 1076.89,312.69387 1075.25,292.15625 C 1066.5068,293.84605 1058.3768,298.91744 1051.4063,308.90625 L 1051.4063,297.53125 L 1040.3125,297.53125 L 1040.3125,306.71875 C 1033.7111,298.17097 1026.1416,293.71772 1018.0625,292.15625 z "
           style="opacity:1;fill:#fbfe4d;fill-opacity:1;fill-rule:nonzero;stroke:none;stroke-width:1.77165353;stroke-linecap:round;stroke-linejoin:miter;stroke-miterlimit:4;stroke-dasharray:none;stroke-dashoffset:0;stroke-opacity:1" />
        <path
           style="opacity:1;fill:#fbfe4d;fill-opacity:1;fill-rule:nonzero;stroke:none;stroke-width:1.77165353;stroke-linecap:round;stroke-linejoin:miter;stroke-miterlimit:4;stroke-dasharray:none;stroke-dashoffset:0;stroke-opacity:1"
           d="M 1102.3983,292.15625 C 1100.797,312.21052 1103.4976,331.21488 1124.6483,336.4375 L 1124.6483,346.40625 C 1118.1149,343.49641 1109.1189,344.62316 1102.3983,343.875 C 1101.3455,356.80907 1106.3509,375.37213 1124.6483,378.40625 L 1124.6483,386.4375 C 1117.2317,383.58997 1109.8149,385.66072 1102.3983,384.375 C 1101.3455,397.30907 1106.3509,415.87213 1124.6483,418.90625 L 1124.6483,527.8125 L 1111.9608,527.65625 L 1130.9921,557.78125 L 1148.1171,528.0625 L 1135.7421,527.9375 L 1135.7421,419.25 C 1153.1116,417.48266 1161.2965,398.64745 1159.6171,384.96875 C 1151.7623,386.23592 1143.0818,382.51771 1135.7421,386.875 L 1135.7421,378.78125 C 1153.1116,377.01391 1161.2965,358.14745 1159.6171,344.46875 C 1152.3972,345.45565 1142.1584,343.6265 1135.7421,346.78125 L 1135.7421,336.8125 C 1158.3243,332.15242 1161.2258,312.69387 1159.5858,292.15625 C 1150.8426,293.84605 1142.7126,298.91744 1135.7421,308.90625 L 1135.7421,297.53125 L 1124.6483,297.53125 L 1124.6483,306.71875 C 1118.0469,298.17097 1110.4774,293.71772 1102.3983,292.15625 z "
           id="path2299" />
        <path
           id="path2301"
           d="M 1182.4143,292.15625 C 1180.813,312.21052 1183.5136,331.21488 1204.6643,336.4375 L 1204.6643,346.40625 C 1198.1309,343.49641 1189.1349,344.62316 1182.4143,343.875 C 1181.3615,356.80907 1186.3669,375.37213 1204.6643,378.40625 L 1204.6643,386.4375 C 1197.2477,383.58997 1189.8309,385.66072 1182.4143,384.375 C 1181.3615,397.30907 1186.3669,415.87213 1204.6643,418.90625 L 1204.6643,527.8125 L 1191.9768,527.65625 L 1211.0081,557.78125 L 1228.1331,528.0625 L 1215.7581,527.9375 L 1215.7581,419.25 C 1233.1276,417.48266 1241.3125,398.64745 1239.6331,384.96875 C 1231.7783,386.23592 1223.0978,382.51771 1215.7581,386.875 L 1215.7581,378.78125 C 1233.1276,377.01391 1241.3125,358.14745 1239.6331,344.46875 C 1232.4132,345.45565 1222.1744,343.6265 1215.7581,346.78125 L 1215.7581,336.8125 C 1238.3403,332.15242 1241.2418,312.69387 1239.6018,292.15625 C 1230.8586,293.84605 1222.7286,298.91744 1215.7581,308.90625 L 1215.7581,297.53125 L 1204.6643,297.53125 L 1204.6643,306.71875 C 1198.0629,298.17097 1190.4934,293.71772 1182.4143,292.15625 z "
           style="opacity:1;fill:#fbfe4d;fill-opacity:1;fill-rule:nonzero;stroke:none;stroke-width:1.77165353;stroke-linecap:round;stroke-linejoin:miter;stroke-miterlimit:4;stroke-dasharray:none;stroke-dashoffset:0;stroke-opacity:1" />
      </g>
    </g>
    <path
       id="path2321"
       d="M 679.55583,775.10912 C 679.79494,776.30466 680.03405,777.50019 679.55583,775.10912 z "
       style="fill:none;fill-opacity:0.75;fill-rule:evenodd;stroke:#000000;stroke-width:1px;stroke-linecap:butt;stroke-linejoin:miter;stroke-opacity:1" />
    <path
       id="path2432"
       d="M 679.55583,776.54376 C 679.55583,776.78287 679.55583,777.02197 679.55583,776.54376 z "
       style="fill:none;fill-opacity:0.75;fill-rule:evenodd;stroke:#000000;stroke-width:1px;stroke-linecap:butt;stroke-linejoin:miter;stroke-opacity:1" />
    <path
       id="path2225"
       d="M 682.69252,213.92779 L 682.69252,214.93685"
       style="fill:none;fill-opacity:0.75;fill-rule:evenodd;stroke:#00fc00;stroke-width:1px;stroke-linecap:butt;stroke-linejoin:miter;stroke-opacity:1" />
    <path
       id="path2227"
       d="M 681.68347,216.95495 C 681.68347,216.6186 681.68347,216.28225 681.68347,216.95495 z "
       style="fill:none;fill-opacity:0.75;fill-rule:evenodd;stroke:#000000;stroke-width:1px;stroke-linecap:butt;stroke-linejoin:miter;stroke-opacity:1" />
    <path
       id="path2775"
       d="M 365.52526,610.23873 C 363.75182,677.96537 358.40068,741.0478 372.55459,795.81309 C 389.79374,742.73895 385.04013,674.23926 385.20738,610.23872"
       style="fill:none;fill-opacity:0.75;fill-rule:evenodd;stroke:#000000;stroke-width:8.50393701;stroke-linecap:butt;stroke-linejoin:miter;stroke-opacity:1;stroke-miterlimit:4;stroke-dasharray:none" />
  </g>
</svg>