<!-- Creator: CorelDRAW -->
<svg
   xmlns="http://www.w3.org/2000/svg"
   style="shape-rendering:geometricPrecision; text-rendering:geometricPrecision; image-rendering:optimizeQuality; fill-rule:evenodd; clip-rule:evenodd"
   viewBox="0 0 210 297"
   id="svg2"
   version="1.0"><title>Herb Karpacz</title><metadata
   id="metadata38"><rdf:RDF><cc:Work
       rdf:about=""><dc:format>image/svg+xml</dc:format><dc:type
         rdf:resource="http://purl.org/dc/dcmitype/StillImage" /></cc:Work></rdf:RDF></metadata><sodipodi:namedview
   guidetolerance="10.0"
   gridtolerance="10.0"
   objecttolerance="10.0"
   borderopacity="1.0"
   bordercolor="#666666"
   pagecolor="#ffffff"
   id="base" />
 <defs
   id="defs4">
  <style
   type="text/css"
   id="style6">
   
    .fil0 {fill:#0A0B0C}
    .fil8 {fill:white}
    .fil5 {fill:#0085C6}
    .fil3 {fill:#29166F}
    .fil4 {fill:#349B66}
    .fil7 {fill:#602829}
    .fil6 {fill:#802729}
    .fil1 {fill:#DB2F23}
    .fil2 {fill:#F2EB00}
   
  </style>
 </defs>
 <g
   id="Warstwa_x0020_1"
   transform="matrix(1.0736971,0,0,1.0736971,-7.7363229,-10.944412)">
  <metadata
   id="CorelCorpID_0Corel-Layer" />
  <g
   id="_70065088">
   <path
   id="_70080696"
   class="fil0"
   d="M 0,10.1932 L 210,10.1932 L 210,205.5122 C 210.9255,256.5918 151.0242,287.857 104.688,286.7111 C 61.0161,288.8771 -1.087,254.3311 0,205.5122 L 0,10.1932 L 0,10.1932 z "
   style="fill:#0a0b0c" />
   <g
   id="g12">
    <polygon
   id="_70080624"
   class="fil1"
   points="202.857,51.0747 202.857,154.891 6.4121,154.891 6.4121,51.0747 202.857,51.0747 "
   style="fill:#db2f23" />
    <polygon
   id="_70080552"
   class="fil2"
   points="62.0601,115.713 43.7643,115.024 43.7092,113.784 78.5626,109.763 38.5017,108.411 38.5017,107.447 72.8335,106.344 30.8691,97.4169 30.8691,96.1219 72.5873,100.274 23.8982,81.1247 24.0279,80.1765 75.1401,95.3959 29.8871,67.4207 29.9519,66.3348 77.4902,90.3633 45.6656,62.2585 45.7953,61.3022 81.0722,85.8169 60.4069,60.3864 60.7392,59.4382 84.7109,81.8784 72.2631,57.9876 73.4868,57.8499 89.8894,79.3418 82.693,56.6099 94.5006,76.9754 90.2621,55.7833 99.3874,75.93 99.3955,55.67 100.013,55.7323 104.493,75.9543 108.075,56.1966 110.141,75.8976 116.617,57.5743 117.662,57.6959 116.057,75.1845 124.129,57.7202 124.207,58.3933 120.126,77.4779 132.047,59.9164 133.424,59.9164 124.137,81.2463 141.553,62.534 142.242,62.6718 127.776,84.577 151.334,65.1516 152.574,65.1516 132.873,86.6354 161.943,69.698 163.733,69.8357 134.81,91.1818 172,77.413 173.928,77.6886 137.695,96.7006 177.51,86.9758 180.671,87.3972 138.66,102.074 179.99,99.0427 180.541,99.8693 126.131,107.406 175.841,108.751 176.043,109.999 117.896,110.249 62.0601,115.713 "
   style="fill:#f2eb00" />
    <polygon
   id="_70080480"
   class="fil3"
   points="6.4121,130.887 62.2377,111.802 68.6553,109.981 88.0808,105.322 93.019,104.493 93.019,102.561 92.109,102.561 92.109,101.082 94.7251,101.082 94.7251,99.6791 98.1752,99.6791 98.1752,100.589 99.3126,100.589 99.3126,98.2384 97.9477,98.2384 97.9477,97.3664 98.6302,97.3664 98.6302,96.4944 103.445,96.4944 103.445,97.3664 104.355,97.3664 104.355,98.2384 103.445,98.2384 103.445,99.3361 107.312,99.6791 107.312,100.914 110.118,100.165 110.118,98.5797 112.127,98.5797 112.127,99.6283 112.165,99.6182 131.249,100.368 153.59,110.808 175.612,117.801 186.264,122.325 193.732,128.698 199.487,129.31 202.857,130.258 202.857,154.891 6.4121,154.891 6.4121,130.887 "
   style="fill:#29166f" />
    <path
   id="_70080408"
   class="fil4"
   d="M 100.266,162.206 L 100.266,279.533 C 59.7389,279.3325 5.4286,247.397 6.4122,202.8679 L 6.4122,162.2056 L 100.266,162.2056 L 100.266,162.206 z "
   style="fill:#379b67;fill-opacity:1" />
    <path
   id="_70080336"
   class="fil5"
   d="M 202.857,162.206 L 202.857,202.8683 C 203.7015,249.8499 150.426,279.0518 107.5818,279.4646 L 107.5818,162.2056 L 202.857,162.2056 L 202.857,162.206 z "
   style="fill:#7297cb;fill-opacity:1" />
    <polygon
   id="_70080264"
   class="fil6"
   points="25.7648,189.381 31.1734,171.059 35.5509,189.374 34.0406,189.375 38.311,207.24 36.1468,207.241 40.8117,225.42 33.4657,225.425 33.4657,236.489 28.8088,236.489 28.8088,225.428 19.7908,225.434 25.0427,207.248 22.7254,207.25 27.5899,189.379 25.7648,189.381 "
   style="fill:#61292a;fill-opacity:1;stroke:#dcdc00;stroke-opacity:1;stroke-width:0.56458243;stroke-miterlimit:4;stroke-dasharray:none" />
    <polygon
   id="_70080192"
   class="fil7"
   points="54.3454,235.347 54.3454,248.366 49.0105,248.366 49.0105,235.351 40.2223,235.358 45.302,213.911 42.5956,213.913 47.9975,193.866 46.1545,193.868 51.4459,172.323 56.8687,193.86 54.6939,193.861 60.2185,213.9 57.4525,213.902 63.2969,235.341 54.3454,235.347 "
   style="fill:#61292a;fill-opacity:1;stroke:#dcdc00;stroke-opacity:1;stroke-width:0.56458243;stroke-miterlimit:4;stroke-dasharray:none" />
    <polygon
   id="_70080120"
   class="fil6"
   points="78.9171,244.341 78.9171,259.724 73.422,259.724 73.422,244.345 62.7083,244.353 68.9896,220.098 65.9052,220.101 72.1147,195.821 69.7141,195.823 76.0542,170.003 82.5541,195.813 80.4896,195.815 86.2001,220.086 83.5711,220.087 89.4436,244.333 78.9171,244.341 "
   style="fill:#61292a;fill-opacity:1;stroke:#dcdc00;stroke-opacity:1;stroke-width:0.56458243;stroke-miterlimit:4;stroke-dasharray:none" />
    <g
   id="g22">
     <g
   id="g24">
      <path
   id="_70080048"
   class="fil0"
   d="M 121.816,180.309 C 121.278,178.6156 123.1594,177.6592 126.0942,176.9066 C 133.8623,174.9144 147.4283,175.2926 149.0003,175.6078 L 154.719,169.5896 L 163.8066,175.8439 L 162.5987,177.642 C 166.3231,177.8913 168.7482,178.7068 171.0939,179.0269 C 172.7859,179.2577 174.1114,179.2344 175.5644,178.3143 C 178.2884,176.5896 182.5363,174.0297 185.8842,173.7734 C 186.258,174.7287 185.6862,180.1321 183.4623,182.2405 C 185.8535,184.6947 185.9759,188.3533 185.9537,189.4967 C 182.823,190.2129 180.7318,188.6301 178.7224,187.5959 C 176.9595,186.6887 175.2931,185.2173 172.5886,185.9881 L 169.4251,192.4059 L 163.6886,188.4795 C 161.2484,188.9248 159.7248,188.8585 158.9479,188.8094 L 156.2114,194.1253 L 149.718,189.1637 C 137.2045,191.1721 127.1513,188.3087 122.0819,184.0781 C 120.4496,182.7158 119.6908,180.878 121.816,180.309 L 121.816,180.309 z "
   style="fill:#0a0b0c" />
      <path
   id="_70079976"
   class="fil8"
   d="M 164.652,187.976 L 169.0674,190.6539 L 171.4726,185.77 C 169.4516,186.9421 166.4622,187.976 164.652,187.976 L 164.652,187.976 z M 125.601,181.4208 L 123.5313,180.3113 C 122.2218,179.6092 123.0778,178.9789 124.5926,178.4718 C 129.0182,176.9901 135.7486,176.5395 142.3958,176.5494 C 145.9554,176.5546 149.429,176.6236 152.808,176.9784 C 155.9823,177.3117 159.0649,177.9112 162.3262,178.5443 C 164.5242,178.9712 166.69,179.3865 168.7745,179.7286 C 171.3301,180.1478 173.4976,181.0633 176.7427,179.0277 C 178.7847,177.7467 182.1416,175.6917 184.816,174.8985 C 184.2147,177.7046 184.0357,180.202 181.9312,182.3066 C 183.5513,183.0074 184.9604,187.6665 184.6373,188.4604 C 182.3509,188.2942 180.0111,186.9991 178.5007,185.9656 C 176.7994,184.8014 175.4565,184.5408 174.6346,184.5408 C 172.9296,184.5408 171.2488,185.1466 169.9659,185.7159 C 165.8754,187.5314 160.5663,187.838 157.4431,187.6163 C 156.4747,187.5477 155.8306,187.3532 154.8959,187.1138 L 154.5578,188.131 L 157.5806,188.911 L 155.9669,192.3716 L 150.0541,187.962 C 142.9232,188.9203 137.0026,188.8751 131.2547,187.239 C 128.1578,186.3576 124.4381,184.9639 122.2154,182.7932 C 121.7569,182.3454 121.2635,181.9771 121.7928,181.4479 C 122.2312,181.0094 122.7717,181.144 123.32,181.4273 L 125.2407,182.4203 L 125.601,181.4208 L 125.601,181.4208 z M 150.3839,175.7355 C 156.0352,176.2101 157.5995,176.6792 161.3272,177.4863 L 162.2608,176.0456 L 154.8645,171.0253 L 150.3839,175.7355 L 150.3839,175.7355 z "
   style="fill:#ffffff" />
      <path
   id="_70079904"
   class="fil0"
   d="M 133.231,185.557 C 136.0873,182.0495 137.6249,184.4547 141.1346,184.4546 C 141.1158,189.5698 137.0399,188.2498 133.231,185.557 z M 127.5997,178.6637 C 128.3068,178.6637 128.8835,179.2404 128.8835,179.9475 C 128.8835,180.6545 128.3068,181.2312 127.5997,181.2312 C 126.8926,181.2312 126.316,180.6545 126.316,179.9475 C 126.316,179.2404 126.8926,178.6637 127.5997,178.6637 z "
   style="fill:#0a0b0c" />
     </g>
     <path
   id="_70065640"
   class="fil0"
   d="M 121.816,205.186 C 121.278,203.4926 123.1594,202.5362 126.0942,201.7836 C 133.8623,199.7914 147.4283,200.1696 149.0003,200.4847 L 154.719,194.4666 L 163.8066,200.7209 L 162.5987,202.519 C 166.3231,202.7682 168.7482,203.5838 171.0939,203.9038 C 172.7859,204.1347 174.1114,204.1114 175.5644,203.1913 C 178.2884,201.4666 182.5363,198.9067 185.8842,198.6504 C 186.258,199.6057 185.6862,205.0091 183.4623,207.1174 C 185.8535,209.5717 185.9759,213.2303 185.9537,214.3737 C 182.823,215.0899 180.7318,213.5071 178.7224,212.4729 C 176.9595,211.5656 175.2931,210.0943 172.5886,210.8651 L 169.4251,217.2829 L 163.6886,213.3565 C 161.2484,213.8018 159.7248,213.7355 158.9479,213.6864 L 156.2114,219.0023 L 149.718,214.0407 C 137.2045,216.0491 127.1513,213.1857 122.0819,208.955 C 120.4496,207.5928 119.6908,205.755 121.816,205.186 L 121.816,205.186 z "
   style="fill:#0a0b0c" />
     <path
   id="_70065568"
   class="fil8"
   d="M 164.652,212.853 L 169.0674,215.5309 L 171.4726,210.647 C 169.4516,211.8191 166.4622,212.853 164.652,212.853 L 164.652,212.853 z M 125.601,206.2978 L 123.5313,205.1883 C 122.2218,204.4862 123.0778,203.8559 124.5926,203.3488 C 129.0182,201.8671 135.7486,201.4165 142.3958,201.4264 C 145.9554,201.4316 149.429,201.5005 152.808,201.8554 C 155.9823,202.1887 159.0649,202.7882 162.3262,203.4213 C 164.5242,203.8482 166.69,204.2635 168.7745,204.6056 C 171.3301,205.0248 173.4976,205.9403 176.7427,203.9047 C 178.7847,202.6237 182.1416,200.5686 184.816,199.7755 C 184.2147,202.5816 184.0357,205.079 181.9312,207.1836 C 183.5513,207.8844 184.9604,212.5435 184.6373,213.3374 C 182.3509,213.1712 180.0111,211.8761 178.5007,210.8426 C 176.7994,209.6784 175.4565,209.4178 174.6346,209.4178 C 172.9296,209.4178 171.2488,210.0236 169.9659,210.5929 C 165.8754,212.4084 160.5663,212.715 157.4431,212.4933 C 156.4747,212.4247 155.8306,212.2302 154.8959,211.9908 L 154.5578,213.008 L 157.5806,213.788 L 155.9669,217.2486 L 150.0541,212.839 C 142.9232,213.7973 137.0026,213.7521 131.2547,212.116 C 128.1578,211.2345 124.4381,209.8409 122.2154,207.6702 C 121.7569,207.2224 121.2635,206.8541 121.7928,206.3249 C 122.2312,205.8864 122.7717,206.0209 123.32,206.3043 L 125.2407,207.2973 L 125.601,206.2978 L 125.601,206.2978 z M 150.3839,200.6125 C 156.0352,201.0871 157.5995,201.5562 161.3272,202.3633 L 162.2608,200.9225 L 154.8645,195.9023 L 150.3839,200.6125 L 150.3839,200.6125 z "
   style="fill:#ffffff" />
     <path
   id="_70065496"
   class="fil0"
   d="M 122.718,231.043 C 122.18,229.3495 124.0614,228.3931 126.9962,227.6405 C 134.7642,225.6484 148.3303,226.0265 149.9023,226.3417 L 155.6209,220.3236 L 164.7086,226.5779 L 163.5007,228.376 C 167.225,228.6252 169.6502,229.4407 171.9959,229.7608 C 173.6878,229.9917 175.0134,229.9684 176.4664,229.0483 C 179.1904,227.3236 183.4383,224.7637 186.7861,224.5073 C 187.16,225.4627 186.5881,230.8661 184.3642,232.9744 C 186.7555,235.4286 186.8779,239.0873 186.8557,240.2306 C 183.7249,240.9469 181.6337,239.364 179.6243,238.3299 C 177.8615,237.4226 176.1951,235.9512 173.4905,236.722 L 170.3271,243.1398 L 164.5905,239.2135 C 162.1504,239.6588 160.6267,239.5925 159.8499,239.5433 L 157.1133,244.8592 L 150.62,239.8976 C 138.1064,241.9061 128.0533,239.0426 122.9839,234.812 C 121.3515,233.4498 120.5928,231.6119 122.718,231.043 z "
   style="fill:#0a0b0c" />
     <path
   id="_70065424"
   class="fil8"
   d="M 165.554,238.71 L 169.9694,241.3879 L 172.3746,236.5041 C 170.3536,237.6761 167.3642,238.71 165.554,238.71 z M 126.5031,232.1549 L 124.4334,231.0453 C 123.1238,230.3432 123.9799,229.7129 125.4946,229.2058 C 129.9202,227.7242 136.6506,227.2736 143.2978,227.2835 C 146.8575,227.2886 150.331,227.3576 153.71,227.7125 C 156.8844,228.0457 159.967,228.6452 163.2283,229.2784 C 165.4263,229.7052 167.5921,230.1206 169.6766,230.4626 C 172.2321,230.8819 174.3996,231.7973 177.6447,229.7617 C 179.6868,228.4807 183.0437,226.4257 185.718,225.6325 C 185.1167,228.4386 184.9378,230.9361 182.8332,233.0406 C 184.4534,233.7414 185.8624,238.4006 185.5393,239.1945 C 183.2529,239.0282 180.9131,237.7331 179.4028,236.6997 C 177.7015,235.5354 176.3586,235.2749 175.5367,235.2749 C 173.8316,235.2749 172.1509,235.8807 170.868,236.45 C 166.7774,238.2655 161.4683,238.572 158.3452,238.3503 C 157.3768,238.2818 156.7326,238.0872 155.7979,237.8478 L 155.4599,238.8651 L 158.4827,239.6451 L 156.8689,243.1056 L 150.9561,238.696 C 143.8252,239.6544 137.9047,239.6091 132.1568,237.973 C 129.0598,237.0916 125.3402,235.698 123.1174,233.5272 C 122.6589,233.0794 122.1656,232.7111 122.6948,232.1819 C 123.1332,231.7435 123.6738,231.878 124.2221,232.1614 L 126.1428,233.1544 L 126.5031,232.1549 L 126.5031,232.1549 z M 151.286,226.4695 C 156.9373,226.9442 158.5015,227.4133 162.2292,228.2203 L 163.1628,226.7796 L 155.7666,221.7593 L 151.286,226.4695 L 151.286,226.4695 z "
   style="fill:#ffffff" />
     <path
   id="_70065352"
   class="fil0"
   d="M 133.031,208.931 C 135.8873,205.4235 137.425,207.8287 140.9347,207.8286 C 140.9158,212.9438 136.84,211.6238 133.031,208.931 z M 127.6002,203.541 C 128.3073,203.541 128.884,204.1177 128.884,204.8248 C 128.884,205.5318 128.3073,206.1085 127.6002,206.1085 C 126.8931,206.1085 126.3165,205.5318 126.3165,204.8248 C 126.3165,204.1177 126.8931,203.541 127.6002,203.541 L 127.6002,203.541 z "
   style="fill:#0a0b0c" />
     <path
   id="_70065280"
   class="fil0"
   d="M 131.828,235.289 C 134.6843,231.7816 136.222,234.1868 139.7317,234.1867 C 139.7128,239.3018 135.637,237.9819 131.828,235.289 z M 128.4015,229.2977 C 129.1086,229.2977 129.6853,229.8744 129.6853,230.5815 C 129.6853,231.2886 129.1086,231.8652 128.4015,231.8652 C 127.6945,231.8652 127.1178,231.2886 127.1178,230.5815 C 127.1178,229.8744 127.6945,229.2977 128.4015,229.2977 z "
   style="fill:#0a0b0c" />
    </g>
    <path
   id="_70065184"
   class="fil8"
   d="M 6.4121,134.371 L 172.4921,154.8902 L 143.0642,154.8902 L 6.4122,136.3909 L 6.4122,134.371 L 6.4121,134.371 z M 171.3991,144.8217 L 177.7534,148.6472 C 186.9436,148.9019 193.7565,151.5317 198.6316,154.8902 L 202.857,154.8902 L 202.857,146.4766 C 191.3479,143.6333 180.7959,142.4159 171.3991,144.8217 z M 120.6758,100.6112 L 122.0745,100.0348 L 130.0849,100.3567 L 153.3823,111.025 L 175.5182,118.1737 L 186.1559,122.6803 L 193.1835,129.002 L 187.8852,127.3966 L 180.3392,127.5538 L 172.0072,125.0384 L 171.2735,124.4096 L 171.4832,123.7808 L 180.6536,124.9837 L 180.6012,124.0952 L 170.4875,122.2611 L 170.5399,121.4226 L 177.8239,121.7895 L 186.1035,124.5668 L 180.491,121.151 L 177.4571,119.8506 L 168.5476,117.6867 L 156.3387,114.2959 L 153.509,112.9334 L 140.6179,105.6494 L 133.7052,104.9637 L 127.4124,101.6144 L 120.6758,100.6112 L 120.6758,100.6112 z M 112.1532,100.7168 C 121.3873,100.8597 123.011,101.3234 124.858,103.2367 C 126.2966,104.7268 127.9912,106.0819 130.0132,107.0652 C 135.1411,109.5592 140.9836,112.323 145.6243,114.1267 C 148.5436,115.2613 150.6959,115.0611 153.9944,115.1232 C 155.8733,115.1586 157.311,115.9627 158.7141,116.7082 C 161.8182,118.3573 164.8636,120.5958 165.8077,121.1444 L 164.6739,121.7139 C 162.9,120.4566 160.471,119.2928 159.0813,118.3825 C 156.7572,116.8602 154.8613,117.418 150.9994,117.418 C 146.1117,115.5456 140.7798,113.7945 136.0279,111.6448 C 131.4282,109.5639 128.9121,108.5911 125.0547,105.4813 C 122.9296,103.768 119.6576,102.0487 112.147,101.5236 L 112.1532,100.7168 z "
   style="fill:#ffffff" />
   </g>
   <path
   id="_70065016"
   class="fil8"
   d="M 166.601,22.0371 L 176.1521,22.0275 L 165.1641,39.267 C 163.6314,41.6721 163.4522,44.4 167.2385,44.3942 L 182.771,44.3711 C 186.1237,44.367 185.8714,38.7896 182.8578,38.7896 L 171.6157,38.7896 L 183.6517,20.8253 C 185.0022,19.0439 184.4637,15.9328 181.6118,15.9728 L 167.0356,15.9632 C 163.0266,15.96 163.3018,22.0392 166.601,22.0371 L 166.601,22.0371 z M 159.1244,17.7021 C 148.451,12.0707 139.7979,19.9285 139.1885,28.7277 C 138.3824,40.3652 148.449,48.7285 159.1872,42.7467 C 160.161,42.2042 160.8146,41.1249 160.4975,39.5247 C 160.0483,37.2575 158.4404,36.9833 156.27,37.7588 C 151.1109,39.6026 146.1052,38.7015 145.8302,29.4309 C 145.6708,24.0508 151.0681,19.5854 156.0364,22.5124 C 157.7665,23.5317 159.2167,23.2884 159.9701,22.1675 C 161.0026,20.6319 160.8177,18.5953 159.1244,17.7021 L 159.1244,17.7021 z M 114.1493,40.3371 L 122.0064,18.3309 C 122.9993,15.3897 127.6705,15.4467 128.6767,18.1179 L 137.1607,40.6253 C 138.4532,44.0526 132.4039,45.767 131.359,42.418 L 130.1279,38.2758 L 120.9906,38.3081 L 119.585,42.3477 C 119.0836,43.7486 117.1268,44.5467 115.7322,44.1026 C 114.166,43.6039 113.6057,41.9478 114.1493,40.3371 L 114.1493,40.3371 z M 96.0815,18.6584 L 96.0854,41.5953 C 96.0854,44.8717 102.5001,44.7536 102.4592,41.6685 L 102.3521,33.3868 L 107.9543,33.3722 C 112.5084,33.3608 115.7901,29.0462 115.6571,24.6392 C 115.5166,19.978 111.8647,16.2663 107.2211,16.2709 L 98.5082,16.2795 C 97.2073,16.268 96.0807,17.3351 96.0815,18.6584 z M 74.7678,18.2173 L 74.7551,40.8752 C 74.7542,42.4574 76.1305,44.0468 77.7996,43.9434 C 79.3381,43.848 81.1233,42.8557 81.1424,41.1021 L 81.232,32.995 L 89.7088,42.672 C 90.5941,43.7884 92.713,43.8734 93.7075,43.038 C 94.8231,42.1006 95.0446,39.9707 94.0237,38.923 L 87.3723,32.098 C 91.228,30.5016 93.2135,28.0459 93.3288,24.731 C 93.5355,21.5662 90.6515,17.2413 86.8769,16.8288 L 76.4096,16.8288 C 75.5227,16.8288 74.7678,17.2949 74.7678,18.2173 L 74.7678,18.2173 z M 48.8807,40.3909 L 56.586,18.7087 C 57.6158,15.8108 62.9055,15.867 63.949,18.4988 L 72.749,40.6748 C 74.0895,44.0516 68.1808,45.3501 67.097,42.0504 L 65.7286,37.8825 L 55.9312,37.8707 L 54.3818,41.9811 C 53.8617,43.3613 52.1065,44.3215 50.6599,43.8838 C 49.0352,43.3924 48.3169,41.9778 48.8807,40.3909 L 48.8807,40.3909 z M 25.7745,19.1911 L 25.7924,41.6229 C 25.7941,44.7697 32.2859,45.0435 32.2694,41.646 L 32.2246,32.265 L 42.7916,43.1037 C 43.7161,44.0877 45.7025,43.4807 46.5251,42.6778 C 47.2812,41.9396 47.8229,40.1753 46.9789,39.2908 L 37.6458,29.5091 L 45.3284,21.013 C 47.004,19.1616 42.7962,15.7558 41.1173,17.5011 L 31.9489,27.3961 L 31.9506,19.191 C 31.9188,16.2176 26.1602,16.0654 25.7745,19.1911 z M 57.677,32.9089 L 60.6174,23.8122 L 63.9253,32.9089 L 57.677,32.9089 z M 80.4648,21.515 L 80.4648,27.8552 L 84.8315,27.8422 C 86.5954,27.8377 87.2484,26.1436 87.2594,24.5932 C 87.2691,23.2123 86.3387,21.515 84.8032,21.515 L 80.4648,21.515 L 80.4648,21.515 z M 102.3691,21.4002 L 102.3691,27.9737 L 107.2882,27.9603 C 109.2753,27.9555 110.0109,26.1992 110.0233,24.5917 C 110.0343,23.16 108.9861,21.4002 107.2565,21.4002 L 102.3691,21.4002 L 102.3691,21.4002 z M 122.3212,32.7432 L 125.4647,23.5106 L 128.6537,32.7432 L 122.3212,32.7432 L 122.3212,32.7432 z "
   style="fill:#ffffff" />
  </g>
 </g>
</svg>