<!-- Created with Inkscape (http://www.inkscape.org/) -->
<svg
   xmlns="http://www.w3.org/2000/svg"
   xmlns:xlink="http://www.w3.org/1999/xlink"
   id="svg2"><title>Herb Lewin Kłodzki</title>
  <defs
     id="defs3">
    <linearGradient
       id="linearGradient2858">
      <stop
         id="stop2860"
         offset="0"
         style="stop-color:#00c8ff;stop-opacity:1;" />
      <stop
         id="stop2862"
         offset="1.0000000"
         style="stop-color:#0080ff;stop-opacity:1.0000000;" />
    </linearGradient>
    <linearGradient
       id="linearGradient3891">
      <stop
         style="stop-color:#0080ff;stop-opacity:1;"
         offset="0"
         id="stop3893" />
      <stop
         style="stop-color:#0080ff;stop-opacity:0.78431374;"
         offset="1.0000000"
         id="stop3895" />
    </linearGradient>
    <linearGradient
       y2="731.13635"
       x2="397.58499"
       y1="220.91516"
       x1="397.58484"
       gradientTransform="scale(0.933212,1.071567)"
       gradientUnits="userSpaceOnUse"
       id="linearGradient10437"
       xlink:href="#linearGradient10413" />
    <linearGradient
       gradientUnits="userSpaceOnUse"
       y2="655.48969"
       x2="376.23672"
       y1="296.23526"
       x1="376.23676"
       gradientTransform="scale(1.001349,0.998653)"
       id="linearGradient9652"
       xlink:href="#linearGradient9646" />
    <linearGradient
       id="linearGradient9646">
      <stop
         id="stop9648"
         offset="0.00000000"
         style="stop-color:#ffffff;stop-opacity:1.0000000;" />
      <stop
         id="stop9650"
         offset="1.0000000"
         style="stop-color:#c8c8c8;stop-opacity:1.0000000;" />
    </linearGradient>
    <linearGradient
       id="linearGradient10413">
      <stop
         id="stop10415"
         offset="0"
         style="stop-color:#0040ff;stop-opacity:1;" />
      <stop
         id="stop10417"
         offset="1.0000000"
         style="stop-color:#0000c4;stop-opacity:1.0000000;" />
    </linearGradient>
    <linearGradient
       xlink:href="#linearGradient9646"
       id="linearGradient2373"
       gradientUnits="userSpaceOnUse"
       gradientTransform="matrix(0.973339,0.000000,0.000000,1.120838,-28.18672,-49.90152)"
       x1="397.58484"
       y1="220.91516"
       x2="397.58499"
       y2="731.13635" />
    <linearGradient
       xlink:href="#linearGradient3891"
       id="linearGradient3897"
       gradientTransform="scale(0.931313,1.073753)"
       x1="390.24625"
       y1="729.60162"
       x2="390.24628"
       y2="193.06099"
       gradientUnits="userSpaceOnUse" />
    <linearGradient
       xlink:href="#linearGradient9646"
       id="linearGradient4665"
       gradientUnits="userSpaceOnUse"
       gradientTransform="matrix(0.973339,0.000000,0.000000,1.120838,-28.18672,-49.90152)"
       x1="397.58484"
       y1="220.91516"
       x2="397.58499"
       y2="731.13635" />
    <linearGradient
       xlink:href="#linearGradient3891"
       id="linearGradient4667"
       gradientUnits="userSpaceOnUse"
       gradientTransform="scale(0.931313,1.073753)"
       x1="390.24625"
       y1="729.60162"
       x2="390.24628"
       y2="193.06099" />
    <linearGradient
       y2="731.13635"
       x2="397.58499"
       y1="220.91516"
       x1="397.58484"
       gradientTransform="matrix(0.968680,0.000000,0.000000,1.116189,-125.1330,-231.3344)"
       gradientUnits="userSpaceOnUse"
       id="linearGradient1325"
       xlink:href="#linearGradient9646" />
    <linearGradient
       gradientUnits="userSpaceOnUse"
       y2="535.09851"
       x2="273.87067"
       y1="27.885368"
       x1="273.87061"
       gradientTransform="matrix(0.976497,0.000000,0.000000,1.128054,-12.03611,-15.21236)"
       id="linearGradient2864"
       xlink:href="#linearGradient2858" />
  </defs>
  <sodipodi:namedview
     id="base"
     pagecolor="#ffffff"
     bordercolor="#666666"
     borderopacity="1.0" />
  <metadata
     id="metadata4">
    <rdf:RDF
       id="RDF5">
      <cc:Work
         rdf:about=""
         id="Work6">
        <dc:format
           id="format7">image/svg+xml</dc:format>
        <dc:type
           id="type9"
           rdf:resource="http://purl.org/dc/dcmitype/StillImage" />
      </cc:Work>
    </rdf:RDF>
  </metadata>
  <g
     id="layer1">
    <path
       id="path6559"
       d="M 1.2444160,1.2443997 L 1.2444160,432.74408 C 1.2444478,516.56158 220.64186,584.56133 237.58554,588.27407 C 253.96472,591.86311 253.21710,592.94232 260.00000,598.75558 C 266.78291,592.94227 266.03527,591.86311 282.41445,588.27407 C 299.35813,584.56128 518.75556,516.56158 518.75559,432.74408 L 518.75559,1.2443997 L 260.00000,1.2443997 L 1.2444160,1.2443997 z "
       style="fill:url(#linearGradient1325);fill-opacity:1.0000000;fill-rule:nonzero;stroke:#000000;stroke-width:2.4888320;stroke-miterlimit:4.0000000;stroke-dashoffset:0.00000000;stroke-opacity:1.0000000" />
    <g
       id="g2358"
       transform="translate(168.4209,12.36232)" />
    <path
       id="path1330"
       d="M 2.2867760,2.2886596 L 2.2867760,112.61291 L 106.44874,112.61291 L 106.44874,62.934167 L 208.52111,62.934167 L 208.52111,112.61291 L 313.42685,112.61291 L 313.42685,62.934167 L 415.46377,62.934167 L 415.46377,112.61291 L 517.71322,112.61291 L 517.71322,2.2886596 L 423.39723,2.2886596 L 101.34867,2.2886596 L 2.2867760,2.2886596 z M 2.2867760,135.46579 L 2.2867760,196.11131 L 103.33203,196.11131 L 103.33203,245.79005 L 208.23777,245.79005 L 208.23777,196.11131 L 310.31013,196.11131 L 310.31013,245.79005 L 415.21585,245.79005 L 415.21585,196.11131 L 517.71322,196.11131 L 517.71322,135.46579 L 318.20816,135.46579 L 2.2867760,135.46579 z M 2.2867760,277.21277 L 2.2867760,376.20909 L 104.21746,376.20909 L 104.21746,331.61971 L 206.25440,331.61971 L 206.25440,376.20909 L 311.12471,376.20909 L 311.12471,331.61971 L 413.19708,331.61971 L 413.19708,376.20909 L 517.71322,376.20909 L 517.71322,277.21277 L 421.09509,277.21277 L 99.117389,277.21277 L 2.2867760,277.21277 z M 2.2867760,395.87703 L 2.2867760,432.48760 C 2.2867780,438.52700 3.5294948,444.46026 5.6514095,450.31679 L 100.78200,450.31679 L 100.78200,494.87334 L 205.68773,494.87334 L 205.68773,450.31679 L 307.76008,450.31679 L 307.76008,494.87334 L 412.66582,494.87334 L 412.66582,450.31679 L 514.34859,450.31679 C 516.47051,444.46026 517.71322,438.52700 517.71322,432.48760 L 517.71322,395.87703 L 200.58766,395.87703 L 2.2867760,395.87703 z M 90.086007,527.67511 C 152.93230,562.51841 228.04763,585.51950 237.66946,587.63110 C 253.56417,591.11933 253.36998,592.29300 259.59270,597.71132 C 266.01148,592.58570 266.79631,591.11109 279.78050,588.25496 C 280.73520,588.03353 281.22743,587.87318 282.33055,587.63110 C 291.95239,585.51946 367.06772,562.51840 429.91399,527.67511 L 137.43879,527.67511 L 90.086007,527.67511 z "
       style="fill:url(#linearGradient2864);fill-opacity:1.0000000;fill-rule:nonzero;stroke:none;stroke-width:2.3000000;stroke-miterlimit:4.0000000;stroke-dashoffset:0.00000000;stroke-opacity:1.0000000" />
  </g>
</svg>