<svg viewBox="-26.39 -27.98 588.33 755.47"><title>Herb Opalenica</title><path d="M.078 0h536.437v385.25c3.633 314.258-207.921 188.45-269.777 294.422C193.445 572.137-4.598 694.805.082 385.25V0z" style="stroke:none;fill-rule:evenodd;fill:#fff"/><path d="M.078 0h536.437v385.25c3.633 314.258-207.921 188.45-269.777 294.422C193.445 572.137-4.598 694.805.082 385.25V0zm12.257 16.676H523.7v366c3.461 298.555-198.203 179.035-257.168 279.711-69.864-102.168-258.65 14.379-254.193-279.711v-366zm187.751 110.176c-8.922 15.969-3.801 17.777 5.258 28.117 14.671 11.453-10.266 23.192 6.937 36.34-4.684 4.633 14.23 16.883 4.488 3.461 7.395-7.609 3.555-21.43 5.336-32.145.856-9.168 4.129-11.046 10.239-13.437q2.037-3.61.253-7.219c-6.035-4.519-6.097-9.668-4.488-17.375 14.942-18.613 25.742-4.793 16.43-38.844 19.449 24.719 21.543 9.086 33.965 7.985 12.281-.836 16.695 1.844 17.527 6.121l13.719-7.652c4.738 6.988-1.016 9.183-1.524 13.777 14.895 12.441 20.508 23.937 12.957 35.211-5.379 11.457 4.27 12.848 6.766 19.754-19.719.894-13.656 12.344-20.484 18.515-4.231 10.012-17.059-.347-20.578 9.184-1.829 10.098-2.352 19.723 1.523 28.32 1.269-6.886-2.797-10.109 3.809-20.664 4.57-3.062 5.492.645 15.125-10.312.8 8.793-.36 23.797 2.402 26.386 1.031 12.782-1.215 20.622-10.672 17.606-6.766 5.715-8.293 10.309-4.57 13.773 4.757 3.118 17.664-15.765 25.793-23.929 1.121-7.492-4.493-11.602-6.739-17.403-1.515-14.535 4.832-21.172 19.055-19.902l-2.684 31.465c13.735-1.473 20.731-15.934 4.973-6.969q-2.755-7.071 6.859-13.012c3.977-6.254-2.539-8.671-3.808-13.011-4.402-6.696-3.113-12.067.762-16.84 4.589-3.789 3.211-11.891 8.757-17.117 2.668-2.637 6.528-4.075 9.196-4.555.972-6.316-1.399-10.715-1.86-16.793q8.243 2.478 13.625 11.672c7.793-6.289 17.098-8.403 27.438-7.653 7.875.766 11.691 20.465 25.773 1.336 2.879 7.786-1.636 9.821-2.097 14.735 4.824 4.094 23.015 12.746 15.195 36.742-.762 3.059-3.91 5.883-2.285 9.184 4.769 5.671 8.23 11.351 11.097 17.031-11.492.367-12.48-2.617-18.722-2.488.543 8.636-1.297 15.476-8.383 18.367-6.402 2.441-12.402 3.687-17.527 2.293-2-1.274-3.524-2.071-4.571-3.824q-.47 7.266-7.621 14.539c-3.406-4.422-5.629-9.239-5.215-14.946-8.519 2.114-14.414 1.266-19.933-1.125-4.328.172-7.543-1.156-9.625-3.984-1.215-6.598-14.793 5.707-.278 4.754 5.196.129 8.993 16.621 19.813 28.32-9.906 1.539-18.977.074-28.879-4.391-5.105-4.148-4.598-21.277-15.324-12.445-13.723 13.68-17.848 21.953-.84 18.328 10.773-4.894 20.52-2.547 29.805 3.102 4.57 13.519 14.48 26.476 13.718 40.566-7.511-12.933-14.617 1.899-29.722-.761-10.11-5.114-16.664-12.114-20.778-18.735-8.73-11.961-16.976-3.191-24.949 17.203l-.762 30.614 141.008 3.824c9.344.933 11.305 4.152 9.907 8.418l-.762 8.418q1.293 6.79-16.004 6.121l-12.191-.481v8.875c6.16.196 10.621 1.536 14.312 3.399l-.141 40.543-28.796-.168q-4.079-3.165-4.43-10.063l.113-8.847-8.5-.028c-.668 6.02-.402 13.285-2 17.75-10.933 1.301-19.805 1.254-29.082-.761l-.281-14.856c-5.434-2.703-11.227.402-10.863 14.309l-32.102-.364c.82-12.605-.059-25.214-1.715-37.816-.73-3.445 2.262-5.234 8.981-5.355 6.296 1.003 10.113-.473 11.453-4.446.222-5.836-.684-5.441-14.504-4.734h-24.387c-2.058 15.562-2.773 31.125-1.523 46.691.984 16.168 5.414 35.297 12.191 40.571 9.774 5.769 17.848 3.55 25.149-2.297 12.761 1.734 20.878 19.043 45.73 22.965l-22.223 18.367c-1.855-10.45-4.953-11.875-10.836-14.231l3.332 30.309c-14.089-7.758-13.925-16.141-20.886-24.207-10.672-9.235-14.528.828-21.793 1.246-3.555-.629-6.492-10.281-10.668-8.422-10.36 11.18-6.508 18.359 3.808 23.727 13.102 9.992 3.579 15.843 4.907 30.617-4.938-10.465-11.118-15.508-16.055-16.84 2.754 20.066 1.137 18.859-14.289 36.855.09-8.968-3.227-17.937-8.098-26.902-4.058-5.359-4.711-10.719-3.808-16.074-12.727-1.418-16.364 7.441-15.864 20.976-9.992-10.367-11.312-23.23-3.949-38.582 6.602-2.55 11.969-1.054 19.813-7.652-1.586-13.277-11.231-16.598-12.192-9.949-13.371 10.793-23.648 6.953-28.961 18.371-2.265 6.668-6.652 20.441-10.668 22.961-1.808-10.004-12.918-15.031-9.144-29.086 1.648-4.082 4.945-8.168 9.906-12.246-13.273-8.176-27.047-.082-41.156 19.137 6.664-38.958 24.125-46.516 46.492-39.801 5.844 5.98 15.102 3.402 25.914-3.063 8.832-6.097 13.973-13.547 13.719-22.961 2.008-20.515 2.89-41.035 2.429-61.547l-30.343-1.218c-5.778 13.183-10.219 13.187-17.649 5.617-7.828 36.988-25.656 56.883-55.808 44.902-23.367-12.285-27.825-37.961-61.735-57.406 25.063-33.148 45.578-49.172 64.024-57.41 24.113-8.602 40.375 3.133 48.777 35.211 10.418-7.504 17.527-5.465 21.34 6.121h30.488l-.758-38.27c.371-16.925-15.445-19.75-21.339 0-8.75 16.301-30.391 3.766-55.641-16.84 23.426 1.141 20.398-8.339 27.437-13.777 4.497-7.195 13.125-5.598 23.629 0 3.715 7.711 14.457 6.68 6.098-10.715-3.852-11.554-9.949-12.578-18.293-3.058-16.02 14.035-15.75 4.656-21.937 4.027-3.383-2.246-10.008-1.859-15.649-1.086 14.617-10.504 11.82-13.953 20.262-20.504 8.422-3.824 14.039-2.293 21.34-2.734-2.606-6.774-8.024-12.852-19.618-17.363-11.304 13.535-15.617 16.355-24.027 17.484-7.445-5.672-15.176 3.605-19.816 17.121-2.457-15.68-3.567-15.18-19.055-16.84-29.664-5.648 6.125-20.898-35.059-23.726 37.86-19.7-2.101-15.989 9.907-41.336 5.453-12.114 32.824-12.657 18.89-30.414 9.481-.778 10.907 17.906 23.664 5.273 14.75-21.871 16.293 16.066 45.934-2.98zm-82.114 207.859c9.481 11.84 20.622 22.954 33.422 33.969 14.571 12.695 24.719 7.153 31.844-10.863 1.387-11.902-5.746-19.238-16.766-24.492 2.055-9.625 15.266-4.618 12.672-23.27-1.711-18.082-26.05-2.543-37.066 4.902-9.43 3.833-18.805 10.102-24.106 19.754m106.426-169.023c15.219 15.969 18.68 29.824 16.004 39.035 1.68 13.387-7.191 13.981 22.106 44.395 2.589-12.653 1.07-19.285-4.575-19.899-18.816-1.191-9.265-19.871-16.004-38.273 14.668-1.547 20.926 4.047 22.864 14.543 1.886 7.672 4.011 13.234 6.656 14.14 3.996-11.601-2.953-22.64.199-34.804q-16.271 9.61-19.054 2.293c-13.833-4.352-16.481-13.328-17.528-22.961l-10.668 1.527" style="stroke:none;fill-rule:evenodd;fill:#222"/><path d="M224.871 259.571c-9.145-18.856-18.774 5.91-28.164 8.867 2.957 21.91 33.98 16.551 31.504 3.355-5.805-.96-15.43-.48-17.422-2.875 4.691-3.113 13.441-1.675 14.078-9.343zm-14.082-33.078c-7.156-8.149-14.32 7.668-21.481 11.504 5.965-.161 9.547 4.949 14.321 4.554 7.957-3.238 10.656-6.914 10.976-10.785q-18.616 5.993-3.816-5.269zm26.734-20.375c3.34-14.7-7.316-19.813-9.785-29.719-5.809 11.863-7.238 22.734.953 31.398 2.27-6.066 2.352-12.14 1.43-18.214 6.285 5.507 3.738 11.507 7.398 16.535zm23.629 3.117c.074-7.149-5.09-11.219-12.648-13.899 3.66 13.899-4.293 20.289 11.215 28.52.953-7.668-3.817-11.023-5.727-16.539 1.434-3.192 4.531 4.875 7.16 1.918m32.938 5.273c-.559-12.859 6.839-13.82 10.023-19.414-1.512 9.508 7.477 30.039-4.531 28.52 1.191-5.192.234-12.543 2.383-17.258-4.532 2.477-4.774 7.113-7.875 8.152m28.644-9.351c-8.113-4.227-6.445-13.735 4.531-19.891 1.11 4.156 1.266 8.309.477 12.461-3.422.078-3.738-8.465-5.25.238a27.6 27.6 0 0 0 .238 7.188zm20.285 26.847c.192 10.985 6.953 13.618 16.703 12.465-.554-9.668-7.558-4.711-16.703-12.465m-3.816 26.606c12.766 1.074 20.961 4.426 19.09 24.449-4.61-1.117-9.942 9.266-18.137 4.551-12.519-6.637-13.859-11.59-13.605-16.297 6.843-2.477 13.683 8.703 25.539 9.105-6.45-6.91-10.266-14.257-12.887-21.808m-132.406-60.207c11.363 1.242 14.672 14.316 25.726 16.808 1.547 7.676 4.953 17.532 11.156 20.235 9.297 5.703 20.149 39.429 27.895 17.117.41-10.063-1.238-19.719-4.957-28.949 21.07 15.457 1.34-26.567 14.258-30.817-2.399 23.707.226 35.95 10.226 31.442 4.543 6.847-10.433 31.437.618 31.75 9.195.101 9.707-9.754 14.562-14.629 5.992-7.262 15.398-12.348 17.98-21.789 3.407 1.238 10.118-.418 20.145-4.981-5.988 4.981-7.437 8.297-4.336 9.961-14.598-.547-37.48 21.188-26.035 30.817 10.949 7.886 21.902 5.183 26.348 12.449-37.77-14.567-55.438 7.09-52.696 54.785l-15.187.621c-10.539-.207-12.504-3.32-11.469-16.808-.492-33.75-1.473-43.141-26.965-43.579 19.75-6.629 7.836-14.707 2.715-22.683-5.437-15.324-20.543-31.117-29.992-41.754zm56.726 148.801 21.074.933c1.239 23.863.618 55.203 3.719 71.598-.133 2.633 1.141 5.41 4.082 8.355 7.696 3.352 9.465 16.2 29.699 16.231 18.079-7.778 27.481 9.336 41.227 14.008-9.605 5.078-14.57-2.282-19.527-4.356q-11.469-6.532-9.297 1.863c1.031 6.329 6.715 6.743 3.097 18.989q-11.934-26.46-25.105-16.809c-11.731 1.602-21.75-6.484-30.996-18.988 16.117 25.73-22.625 25.941 14.879 51.984-5.578.93-12.817-1.043-21.696-5.914-.101 12.348 9.711 25.008-.308 37.043-1.445-10.891-9.711-19.301-10.848-29.883-2.629-13.492-11.515-11.004-23.246-1.242 3.41-22.203 22.317-15.769 24.176-27.394 4.648-13.903-6.711-23.969-22.008-14.317-11.262 11.203-26.863 4.664-33.785 33.617-7.047-7.859-6.375-16.734 5.578-27.082-8.262-10.429-18.594-14.375-33.477-4.047 5.477-16.601 20.047-18.679 43.708-6.222 10.746-7.055 22.73-10.996 32.234-21.168-.102-24.594 7.851-39.848 5.269-59.77-1.808-5.808-.773-11.621 1.551-17.429" style="stroke:none;fill-rule:evenodd;fill:#3ba66d"/><path d="M339.234 348.758c1.551 23.242-4.336 16.91-18.597 19.301-5.372 6.43 1.339 15.977-.309 23.969-.512 7.051 13.223 2.902 19.836 4.355.453-17.953 6.035-21.066 13.945-17.429 8.469-1.036 11.051 3.32 9.606 13.074v6.222H382l-.305-15.875c2.324-4.777 6.352-4.98 11.156-3.109 10.118 1.555 13.946-3.008 12.399 13.383-4.442 6.742 12.808 4.461 19.215 5.289l.617-25.836c.512-5.082-8.266-2.074-12.399-3.109-7.644-2.18-3.511-8.715-5.269-13.075 2.273-4.562-1.235-6.226-10.535-4.98l-57.657-2.176zm-114.691-20.543.308 11.516 207.063 5.602c9.605 1.761 10.633-15.047-.617-12.141zm-127.321 7.918c14.293 15.262 32.309 28.039 44.75 43.93 21.95 21.043 38.079 16.031 50.946-3.594 11.066-16.652 9.734-48.863-.266-73.297-13.719-24.668-32.301-22.5-52.644-10.621-16.739 11.727-28.52 29.059-42.786 43.586zm13.383-.172c9.586 13.496 29.41 19.836 33.422 34.899 8.699 15.109 22.106 17.398 42.383.965 5.621-16.852.445-30.258-12.113-41.301 3.394-7.551 14.543-6.695 10.191-22.652-8.687-19.684-35.508-16.184-44.191-2.563-5.391 5.699-18.524 16.359-29.688 30.652zm95.028-14.285c-6.122 10.492 2.382 15.664 1.238 23.969 5.781 6.43 12.082-.312 13.324-10.895-.723-15.566-5.582-19.921-14.566-13.07" style="stroke:none;fill-rule:evenodd;fill:#fff101"/><path d="M150.816 179.282c13.203 5.828 11.516-.942 17.699-1.688q5.332-5.496-.558-11.004c-11.664-5.687-25.055 1.645-17.137 12.696zm211.301-41.481c.078 8.469 2.141 16.137 8.59 22.051 1.269-7.988-1.59-15.34-8.59-22.051m-5.254 10.547c-14.875-4.391-4.367 18.531-12.172 19.176-3.18 1.273-3.496 7.023-.953 17.258 5.328 2.476 9.703-3.114 4.531-5.989-2.304-5.832 5.41-9.75 4.532-15.339.632-2.954-2.067-6.871 1.906-8.868 9.066-.64 2.863-4.152 2.148-6.23zm57.047-5.754c1.269 6.547-1.586 12.063-10.5 16.059.953-10.461 4.449-15.817 10.5-16.059m-6.445 44.106c4.293 7.308 12.722 13.058 27.211 16.539-2.149-8.989-9.786-15.219-27.211-16.539m-19.332 4.316c-8.133 10.445-9.524 23.824-.477 36.191 5.488-11.023 5.805-24.527.477-36.191m-14.321-5.516c-5.644-.996-11.691-1-18.617 1.196-5.48 3.058-8.922 6.933-11.215 11.265 4.875 3.754 32.684-6.949 29.836-12.464zm5.489-7.429c2.941-4.789 6.523-7.668 10.738-8.629 5.586-.652 9.281 2.101 11.695 7.191 2.465 7.989.156 12.141-6.918 12.461q-15.393-1.202-15.512-11.023zm-3.821-32.598c-6.203-5.187-4.773-7.828 4.297-7.91 9.762-3.434 18.234-2.711 24.82 4.074.157 3.594-.871 4.074-3.816 1.438-8.434.797-20.445-4.153-25.301 2.394zm42.961 6.711c3.18-.637 7.395 5.988 13.129 23.25 4.367 9.746-5.652 13.738-7.16 8.391 4.371-8.469-.793-15.5-3.34-22.532-4.695-3.671-5.57-6.71-2.625-9.105zm-.953 50.578c10.422-.836 4.375 20.571-10.262 17.016-5.804-.16-9.226 7.351-13.125-.715-3.656-9.984 12.727-2.953 18.375-4.551-.836-5.711 1.391-9.226 5.012-11.742zm-65.637.957c2.922 5.406 8.688 8.481 18.614 8.149 3.019 2.554 6.043 3.836 9.07 3.836-3.82 9.425-33.098-2.239-27.684-11.985m28.164-9.347c-6.918 11.503-6.679 6.23-4.296-2.875-.473-1.84-6.204 2.472-14.321 9.586-4.691 2.953 7.317 3.511 15.274 8.39q5.496-6.593 3.339-15.101zm15.036-1.2c13.843 12.387 13.046 9.43 6.921-3.113 2.024-2.195 5.364 1.316 9.305 7.43 1.27 9.508-3.5 13.261-14.32 11.265-2.426-5.195-2.664-10.39-1.906-15.578zm12.175-15.578c-1.152 5.227 4.969 7.067 13.364 5.27 3.121-7.407.136-16.637-6.918-22.77-9.075 3.836-12.094 7.352-9.071 10.547 14.801.16 15.91-1.273 2.625 6.949zm-15.754-17.261q5.006 7.067 8.114-5.032 3.094-5.632-6.203-8.386-19.33-1.912-16.704 7.668c1.985 11.824 5.567 13.425 10.739 4.792.761-9.824 4.519-14.277 4.054.958m-33.414-1.196c.516 4.672-.355 9.149-4.297 13.18-6.011 13.98 4.571 4.312 15.989 8.148 2.941-1.199 2.543-4.793-1.192-7.187-12.886-5.192-8.113-5.832 0-4.074 11.856 5.429-2.543-6.868-3.816-10.305-2.227-1.836-4.457-1.754-6.68.238zm-104.781-58.969c-3.742 12.18-3.101 21.77 7.16 25.645 1.223-1.879 1.145-5.953.473-11.023-1.828-7.391-4.531-11.704-7.633-14.622m53.227 0c-4.293 13.461-8.989 21.93-14.559 19.415-2.246-10.543 3.438-16.536 14.559-19.415m-14.321 46.743q9.663 10.899 22.196 8.386c-5.25-9.265-13.129-10.625-22.196-8.386m-15.039 6.711c5.129 9.265 5.684 20.765 0 34.515-5.07-9.804-4.472-21.512 0-34.515m-47.5 5.992c8.371 2.855 16.367-1.492 24.106-10.785-6.242-2.692-14.043.062-24.106 10.785m33.657-46.024c2.859-4.39-6.922-9.265 8.589-13.179 7.239-2.391 13.524.957 20.289 1.437-1.507 8.074-5.41 12.145-14.558 7.43-11.141-4.313-8.906 2.875-14.317 4.312zm-17.903 1.442c-3.656 5.91-6.84 2.234-9.547 7.668-2.82 12.242-3.054 21.289 2.383 19.414 3.422-2.395-1.75-5.512 5.965-12.942-.078-9.265 7.715-10.386 1.191-14.14zm.481 48.894c-7.496-7.851-7.137 11.125 3.097 12.465 7.395.957 11.692 11.262 22.196 2.875-1.274-8.226-8.274-2.074-12.411-3.113.477-5.192-1.429-3.672-6.441-4.793-3.34-1.356-5.644-4.156-6.441-7.43zm42.246 10.551c-9.512 4.551-4.578 5.59 6.918 5.031 17.742-7.386 18.379-14.179 11.691-17.496-6.801-1.355 2.024 12.387-18.613 12.465zm17.183-58.969c-.379 4.352 11.032 7.789 5.489 27.086 4.211 3.356 6.996 3.672 9.785-9.105-4.375-6.469-8.274-19.653-15.274-17.977zm-19.574-.238c-6.441.316-8.59-3.914-14.32-1.918-6.668 3.18-8.992 7.512-3.578 13.902q4.411 2.274 7.875-6.949c1.91-11.664 2.386 4.949 3.578 7.43 7.875 1.594 8.754-3.836 6.441-12.461zm-22.195 17.977c-19.488.796-14.879-3.04-2.387 8.628-4.687.875-14.398 2.473-18.379-2.394.156-5.992 8.668-7.191 8.352-14.383 4.531.16 8.512 3.52 12.41 8.149zm-2.149 16.058c-2.941 4.555-15.91 7.192-8.828 15.582q11.931 8.146 16.227.957 8.94-17.137-1.192-11.265c-4.531 10.304-12.648 13.898-4.296 1.433 3.66-4.394.875-5.676-1.907-6.711zm26.254 11.988q-8.47 9.106 8.828 10.547c4.293-3.195-.953-4.472 5.727-13.183-4.773-.797-14.797-12.383-14.316-2.395 9.226 9.11 8.906 16.059-.239 5.031m12.414-26.367c7.637-7.109 12.172-1.277-3.578 3.832-3.898 5.594 7.477.16 11.215.239 3.734-4.868 2.223-9.743-1.672-14.622-3.418-4.945-7.472-4.785-12.172.477-8.746 9.434-6.675 12.785 6.203 10.066zm-22.437-1.199c-5.488-1.035-8.43 2.074-8.828 9.344-1.348 5.512 16.945 8.148 15.988 2.156 3.973-5.434 1.586-9.273-7.156-11.504zm-146.469 12.266c-7.582-1.364-13.293 3.144-14.891 20.593q.706 6.483 5.899 12.977c-3.93-17.539 5.43-18.672 8.988-33.574zm7.305-11.852c-1.403 4.231-1.68 8.836-.84 13.824 1.211 3.008 4.68 5.637 10.391 7.899q2.525-13.12-9.551-21.723m8.711 1.41c8.004-.468 11.984-4.043 17.203-4.371 5.781-.609 9.433 3.992 15.379 5.781l-4.774 2.821c-18.074-13.543-26.597 11-27.812-4.231zm41.859-.847c-6.457 1.785-12.078 8.652-16.012 22.57 3.903 9.781 15-15.656 16.012-22.57m-41.301 27.367c-4.582-5.637-9.172-9.211-13.761-11.848-3.602 3.008-6.508 9.305-7.864 22.852 1.313 5.027 6.743 5.402 14.047 3.664 7.117-2.254 4.121-5.266-8.988-9.024q.705-4.512 7.023 0c6.137 1.504 8.664-1.129 9.547-5.644zm-7.023 20.597q-13.904.702-26.688 10.438c5.899 1.316 11.801 1.691 17.7 0 5.527-2.211 7.961-5.973 8.988-10.438m7.867 3.387c-3.18-.281-7.113 2.442-11.797 8.18 0 4.137.278 8.273 2.528 12.414 3.558 1.883 7.117 1.879 10.671 0-.464-5.738 1.684-10.352 6.461-13.824q-.984-9.31-7.582 2.82c-2.808 4.605-6.457 6.676-4.211 1.129 2.813-3.574 4.118-7.149 3.93-10.723zm-13.766 11.848c-.843 3.383-.558 6.765.844 10.156 3.461 5.641 19.289-2.258 16.293 10.156-7.301.469-24.156-4.418-24.441-17.211q3.087-5.503 7.301-3.101zm26.411-4.231c-3.192 2.809-8.153 9.969-6.18 14.106-.277 5.172.937 9.965 3.652 14.387 4.68-1.317.934-9.969 4.774-14.954 1.875-5.64 1.121-10.16-2.246-13.543zm6.179-1.691q1.402 4.929.559 9.875 7.02-.001 9.551 2.254 4.768-2.68 7.304-8.746-5.057-7.617-10.113-8.465c-3.277 5.074 3.277 9.308.844 13.543-4.59-4.516-5.059-7.899-8.145-8.461m21.914 3.383c-3.543 7.91-7.652 15.066-20.226 12.41l-.281 5.641c7.886 3.351 15.804-2.633 24.441-15.797zm-10.113-13.258c10.645-1.266 18.184 1.922 23.594 8.18-7.164 2.562-14.938.535-23.594-8.18m-4.496-17.215q2.947-7.048 10.395-8.461c4.679 3.477 3.183 10.063 8.144 13.824 1.211 3.196.555 5.637-1.965 7.336-3.933-4.699-10.113-2.066-15.168-3.101-1.781-4.047.555-6.586 7.02-7.617 5.336-7.993-5.617-1.317-8.426-1.973zm16.016-14.953c.746 4.605 4.304 5.828 2.246 13.824 1.683 6.863 6.742.184 6.742 11.285-2.715 1.313-.75 4.227 2.527 7.051-.281-8.578-.191-18.312-4.215-27.648-2.058-6.774-4.496-8.274-7.3-4.512m-39.614-5.078q4.072 7.471 4.774 14.949c4.961-2.16 6.551-6.207 4.773-12.129 1.215-1.973 2.153-2.254 3.653 0-1.407 4.086-1.879 8.41-.282 13.262 5.242-3.34 7.395-8.231 8.149-13.824 4.773-14.575-14.606-4.328-21.071-2.254" style="stroke:none;fill-rule:evenodd;fill:#ec2a32"/></svg>