<svg
   xmlns="http://www.w3.org/2000/svg"
   version="1.0"
   id="svg12144"><title>Herb Dobrzyca</title>
  <metadata
     id="metadata9">
    <rdf:RDF>
      <cc:Work
         rdf:about="">
        <dc:format>image/svg+xml</dc:format>
        <dc:type
           rdf:resource="http://purl.org/dc/dcmitype/StillImage" />
        <dc:title></dc:title>
      </cc:Work>
    </rdf:RDF>
  </metadata>
  <sodipodi:namedview
     pagecolor="#ffffff"
     bordercolor="#666666"
     borderopacity="1"
     objecttolerance="10"
     gridtolerance="10"
     guidetolerance="10"
     id="namedview7"
     showgrid="false"
     units="px" />
  <defs
     id="defs3" />
  <g
     transform="matrix(0.98908327,0,0,0.98957161,4.1127457,4.3347313)"
     id="g3087">
    <path
       d="M -0.41842397,-0.90549824 -0.00441308,532.55397 C 15.088736,835.50823 205.37248,720.6939 376.1517,874.50543 548.23589,717.9414 737.8346,835.85875 750.35658,524.12947 l -0.015,-524.74261236 z"
       style="fill:#e42020;fill-opacity:1;fill-rule:evenodd;stroke:#000000;stroke-width:7.5;stroke-linecap:butt;stroke-linejoin:miter;stroke-miterlimit:4;stroke-dasharray:none;stroke-opacity:1"
       id="path33309" />
    <path
       d="m 338.5,35.65625 v 81.15625 h -81.15625 v 81.125 h 77.5625 V 336.75 h -139.75 v -84.71875 h -81.125 v 81.125 H 32.875 v 81.15625 h 81.15625 v 81.125 h 81.125 V 417.875 h 139.75 v 140.4375 h -77.5625 v 81.125 H 338.5 v 81.15625 h 81.125 V 639.4375 h 81.125 v -81.125 H 416.03125 V 417.875 h 138.8125 v 77.5625 H 636 v -81.125 h 81.125 V 333.15625 H 636 v -81.125 H 554.84375 V 336.75 H 416.03125 V 197.9375 H 500.75 v -81.125 H 419.625 V 35.65625 Z"
       style="fill:#ffffff;fill-opacity:1;stroke:none;stroke-width:3.75;stroke-miterlimit:4;stroke-dasharray:none;stroke-opacity:1"
       id="rect1372" />
  </g>
</svg>