<!-- Created with Inkscape (http://www.inkscape.org/) -->
<svg
   xmlns="http://www.w3.org/2000/svg"
   id="svg2"><title>Herb Brwinów</title>
  <defs
     id="defs3" />
  <sodipodi:namedview
     borderopacity="1.0"
     bordercolor="#666666"
     pagecolor="#ffffff"
     id="base" />
  <metadata
     id="metadata4">
    <rdf:RDF
       id="RDF5">
      <cc:Work
         id="Work6"
         rdf:about="">
        <dc:format
           id="format7">image/svg+xml</dc:format>
        <dc:type
           rdf:resource="http://purl.org/dc/dcmitype/StillImage"
           id="type9" />
      </cc:Work>
    </rdf:RDF>
  </metadata>
  <g
     id="layer1">
    <g
       transform="matrix(2.583166,0.000000,0.000000,2.565847,-275.2650,-94.07793)"
       id="g17193">
      <path
         id="path33309"
         style="fill:#ee192c;fill-opacity:1.0000000;fill-rule:evenodd;stroke:#000000;stroke-width:7.1867118;stroke-linecap:butt;stroke-linejoin:miter;stroke-miterlimit:4.0000000;stroke-opacity:1.0000000"
         d="M 110.15447,41.638350 L 110.15447,263.81765 L 110.30046,263.81765 C 115.40062,351.57520 179.16333,318.56561 236.87181,363.12060 C 295.02124,317.76829 359.35778,351.61417 363.58912,261.31474 L 362.93218,41.638350 L 110.15447,41.638350 z " />
      <g
         id="g17189">
        <path
           d="M 236.81250,49.906250 C 238.59790,50.195979 240.84712,52.189394 240.87500,53.500000 C 240.91081,55.182398 242.00124,57.570581 243.90625,60.093750 C 246.30292,63.268106 246.82290,64.995733 246.15625,67.437500 C 245.74422,68.946645 245.79385,69.839372 246.40625,72.281250 C 247.72498,77.539569 246.76538,79.762820 241.09375,84.500000 C 239.87812,85.515343 238.89500,86.422260 238.12500,87.281250 C 237.35499,88.140239 233.92146,88.424090 233.28125,87.812500 C 232.64103,87.200908 231.79617,86.476712 230.90625,85.781250 C 227.58034,83.182074 227.12390,82.559242 224.81250,77.093750 C 223.11382,73.077083 223.07589,71.368285 224.65625,69.718750 C 225.63728,68.694764 225.89243,67.970533 226.03125,65.687500 C 226.25872,61.946589 226.79511,60.707368 228.65625,59.718750 C 230.42534,58.779023 231.08006,57.760055 232.12500,54.125000 C 233.03828,50.947939 234.58805,49.545272 236.81250,49.906250 z M 262.96875,75.281250 C 261.90412,75.440115 260.70096,75.988442 259.62500,76.906250 C 254.57826,81.211156 253.64950,81.843751 252.31250,81.843750 C 251.21397,81.843746 250.38410,82.403157 248.18750,84.625000 C 246.67288,86.157043 244.93085,87.836638 244.31250,88.343750 C 242.19130,90.083359 242.34219,95.140920 244.53125,95.562500 C 244.96133,95.645330 246.53918,94.809116 248.03125,93.687500 C 251.07696,91.398014 252.28175,91.070434 251.78125,92.656250 C 250.92338,95.374370 250.98141,96.098350 252.06250,96.531250 C 254.46903,97.494900 255.27964,97.137960 259.28125,93.312500 L 263.12500,89.593750 L 263.15625,87.156250 C 263.16319,85.561218 263.56260,83.818164 264.31250,82.062500 C 266.61012,76.683332 266.51039,77.078659 265.56250,76.031250 C 264.95873,75.364094 264.03338,75.122386 262.96875,75.281250 z M 208.12500,78.781250 C 207.59731,78.876741 207.13456,79.062554 206.75000,79.343750 C 205.79915,80.039021 206.09197,80.975826 207.96875,83.312500 C 209.01798,84.618850 209.01111,84.417946 207.53125,89.562500 C 207.17661,90.795351 213.98242,97.000000 215.68750,97.000000 C 215.93263,97.000000 216.76584,96.610730 217.56250,96.125000 C 219.35304,95.033280 219.36339,94.512888 217.65625,92.156250 C 216.91234,91.129333 216.41695,90.079246 216.56250,89.843750 C 217.15896,88.878661 218.39147,89.580604 221.00000,92.375000 C 224.25647,95.863500 225.41348,96.084810 225.56250,93.218750 C 225.63253,91.871926 225.15098,90.405079 223.56250,87.218750 C 221.50730,83.096252 221.43334,82.986577 219.46875,82.500000 C 218.36568,82.226797 216.06654,81.280164 214.37500,80.375000 C 211.88204,79.040993 209.70806,78.494777 208.12500,78.781250 z M 280.50000,79.437500 L 277.81250,80.406250 C 275.78863,81.134440 274.89113,81.264428 274.03125,80.937500 C 271.37093,79.926048 266.98674,80.966084 265.71875,82.906250 C 265.01201,83.987640 265.37149,86.688543 266.37500,87.812500 L 267.37500,88.937500 L 271.56250,88.062500 C 274.28323,87.492220 275.93872,87.344973 276.21875,87.625000 C 276.90636,88.312612 275.70737,89.370311 273.65625,89.906250 C 272.64354,90.170866 271.09806,90.556599 270.21875,90.781250 C 268.15460,91.308597 267.13197,92.507423 266.84375,94.656250 C 266.57910,96.629320 267.18410,97.356460 269.50000,97.906250 C 271.65265,98.417290 272.89156,98.403520 273.93750,97.843750 C 274.45363,97.567530 275.36873,96.744330 275.96875,96.031250 C 277.38003,94.354040 279.19932,93.437501 281.09375,93.437500 C 282.78975,93.437503 283.68621,92.663385 284.65625,90.312500 C 285.26219,88.843996 286.90958,87.164278 289.65625,85.250000 C 290.51897,84.648728 290.78804,84.119055 290.68750,83.250000 C 290.55914,82.140475 290.36772,82.045102 287.65625,81.750000 C 286.06292,81.576591 283.79778,80.984035 282.62500,80.437500 L 280.50000,79.437500 z M 186.21875,82.875000 C 186.05505,82.995120 186.03125,83.309214 186.03125,83.906250 C 186.03125,84.611302 186.54780,85.964841 187.18750,86.906250 C 187.82722,87.847658 188.46763,89.453531 188.59375,90.468750 C 188.73865,91.635101 189.28415,92.811398 190.06250,93.656250 C 190.73998,94.391627 191.60626,95.624460 192.00000,96.406250 C 192.39374,97.188030 193.09928,98.084960 193.56250,98.406250 C 194.67053,99.174770 201.23700,99.435290 203.21875,98.781250 C 205.66715,97.973210 205.17258,97.028960 201.15625,94.781250 C 195.19142,91.443061 194.09034,90.206380 196.53125,89.593750 C 197.40417,89.374659 198.23816,89.702549 200.03125,90.937500 C 202.87199,92.893990 204.61887,93.049294 205.03125,91.406250 C 205.39538,89.955407 204.34200,87.202660 203.18750,86.562500 C 202.69728,86.290675 201.53444,85.409171 200.59375,84.593750 L 198.87500,83.125000 L 193.68750,83.250000 C 190.82873,83.330043 187.92410,83.241672 187.25000,83.031250 C 186.67917,82.853066 186.38245,82.754881 186.21875,82.875000 z M 262.34375,94.781250 C 261.34691,94.760590 260.26756,95.565160 258.53125,97.125000 C 256.17166,99.244780 255.92438,99.586320 256.06250,101.00000 C 256.19646,102.37125 256.50982,102.70804 258.46875,103.68750 C 260.84819,104.87722 261.28736,105.59320 259.75000,105.81250 C 259.15511,105.89736 257.05391,104.78304 254.15625,102.81250 C 251.20044,100.80241 249.09627,99.687790 248.31250,99.687500 C 246.80851,99.686940 246.77233,100.33247 248.00000,103.56250 C 248.49012,104.85205 248.87500,106.85757 248.87500,108.00000 C 248.87500,111.64514 250.55317,112.48565 254.40625,110.78125 C 256.17890,109.99712 257.00691,109.90061 259.93750,110.15625 C 262.92906,110.41721 263.58459,110.35237 264.93750,109.56250 C 265.79310,109.06297 267.95848,108.46302 269.75000,108.21875 C 273.44325,107.71520 274.28125,107.18675 274.28125,105.50000 C 274.28125,103.72477 273.14940,102.46332 270.31250,101.03125 C 268.68045,100.20740 267.01326,98.838400 265.65625,97.250000 C 264.26832,95.625410 263.34059,94.801911 262.34375,94.781250 z M 212.03125,99.031250 C 209.48172,98.547430 208.28131,98.917360 205.87500,101.00000 C 204.74363,101.97920 203.44819,102.78125 203.00000,102.78125 C 202.55182,102.78125 201.70370,103.18339 201.12500,103.65625 C 199.90073,104.65661 200.21443,105.11544 202.59375,105.87500 C 203.48498,106.15950 205.45375,107.37789 206.96875,108.59375 C 209.78228,110.85176 211.12918,111.24685 212.87500,110.31250 C 213.38410,110.04004 215.22656,109.65282 216.96875,109.43750 C 222.25734,108.78389 222.59304,108.64712 223.28125,107.00000 C 224.14382,104.93554 224.11737,102.78125 223.21875,102.78125 C 222.83342,102.78125 221.68041,103.28083 220.65625,103.87500 C 219.63208,104.46916 217.64497,105.35851 216.25000,105.84375 C 214.13455,106.57963 213.59600,106.60650 212.93750,106.12500 C 211.83008,105.31521 212.79490,104.22850 214.93750,103.87500 C 217.48957,103.45395 219.01693,102.74381 219.75000,101.62500 C 220.88815,99.887970 220.34755,99.444620 216.96875,99.406250 C 215.27364,99.387010 213.05823,99.226140 212.03125,99.031250 z M 288.78125,106.96875 C 288.42059,106.83035 285.60828,106.89869 282.53125,107.12500 C 277.02534,107.52997 276.91419,107.56971 275.40625,109.03125 C 273.98808,110.40581 273.59018,110.53232 270.06250,110.81250 C 266.91040,111.06285 266.05816,111.31085 265.12500,112.18750 C 264.38610,112.88166 264.03876,113.62186 264.12500,114.34375 C 264.23410,115.25703 264.61919,115.53828 266.43750,116.00000 C 267.64459,116.30652 269.19230,116.96401 269.87500,117.46875 C 271.43789,118.62424 272.71085,118.63695 274.15625,117.50000 C 274.77950,117.00975 275.57162,116.59375 275.90625,116.59375 C 277.19190,116.59375 276.42317,117.97342 273.96875,120.03125 C 270.02944,123.33404 268.50000,125.05523 268.50000,126.15625 C 268.50000,128.07464 269.93985,128.30557 272.40625,126.78125 C 273.27430,126.24477 275.19792,125.37282 276.68750,124.84375 C 279.05037,124.00450 279.51616,123.65155 280.31250,122.03125 C 280.81453,121.00979 282.25479,119.09597 283.50000,117.81250 C 284.74520,116.52903 285.90031,114.91284 286.06250,114.21875 C 286.22469,113.52466 287.05800,111.95190 287.90625,110.71875 C 289.58524,108.27793 289.79299,107.35699 288.78125,106.96875 z M 301.78125,107.59375 C 300.96601,107.67892 300.19633,107.85947 299.25000,108.18750 C 297.91030,108.65188 295.98549,109.03125 294.96875,109.03125 C 293.32758,109.03125 292.89715,109.28860 291.06250,111.25000 C 289.28977,113.14519 289.00000,113.72282 289.00000,115.31250 C 289.00000,117.23024 288.89162,117.36328 285.25000,120.31250 C 284.37807,121.01863 284.02866,121.59836 284.21875,122.09375 C 284.64527,123.20525 285.63001,123.01516 288.00000,121.31250 C 291.83351,118.55839 298.13819,115.80191 299.46875,116.31250 C 300.78928,116.81923 299.45898,118.10370 295.81250,119.81250 C 289.99360,122.53933 287.87130,124.83076 289.28125,126.84375 C 290.07577,127.97808 291.85943,128.01647 295.75000,127.03125 C 299.17743,126.16330 299.91433,125.57497 300.53125,123.12500 C 301.14282,120.69621 302.06633,119.89229 304.71875,119.50000 C 307.73898,119.05332 308.28380,118.34189 307.87500,115.53125 C 307.69300,114.27995 307.55119,112.06451 307.53125,110.59375 L 307.46875,107.90625 L 304.59375,107.62500 C 303.46828,107.51341 302.59649,107.50858 301.78125,107.59375 z M 174.28125,110.62500 C 173.75995,110.43479 173.25897,110.50215 172.43750,110.65625 C 171.45700,110.84019 168.88953,110.92849 166.71875,110.87500 C 161.17199,110.73833 160.25680,111.77326 162.81250,115.40625 C 163.53046,116.42683 164.38594,118.11381 164.68750,119.15625 C 165.04569,120.39450 165.76331,121.46617 166.75000,122.21875 C 167.58065,122.85232 168.98352,124.46984 169.87500,125.81250 C 172.27691,129.43003 174.42829,130.37926 176.06250,128.53125 C 176.55022,127.97973 177.25501,127.01907 177.62500,126.40625 C 179.05900,124.03110 179.03545,123.69642 177.06250,121.87500 C 175.60921,120.53333 175.30556,120.03820 175.71875,119.62500 C 176.29608,119.04767 176.41457,119.09496 184.00000,122.21875 C 187.77881,123.77492 188.00042,123.79993 188.56250,123.03125 C 188.88783,122.58632 189.15625,121.92852 189.15625,121.56250 C 189.15624,120.56688 187.54003,117.48014 186.15625,115.84375 C 185.04806,114.53326 184.62049,114.36206 181.65625,114.09375 C 178.71474,113.82749 178.19109,113.63565 176.31250,112.06250 C 175.35201,111.25818 174.80255,110.81521 174.28125,110.62500 z M 192.75000,113.34375 C 191.94300,113.24548 191.25311,113.26777 190.81250,113.43750 C 190.13212,113.69960 189.45407,114.22480 189.31250,114.59375 C 189.17092,114.96269 189.83673,116.79359 190.78125,118.65625 C 192.03069,121.12024 193.00296,122.37864 194.34375,123.31250 C 196.89309,125.08812 198.40831,127.01131 199.00000,129.21875 C 199.87192,132.47166 200.26431,133.13550 201.75000,133.78125 C 203.49944,134.54162 204.60883,134.60167 205.00000,133.96875 C 205.52036,133.12680 204.81139,131.56091 202.75000,128.90625 C 201.63794,127.47414 200.75000,126.02570 200.75000,125.68750 C 200.75000,124.38719 202.42528,125.17002 203.78125,127.09375 C 204.55875,128.19683 205.48056,129.09375 205.84375,129.09375 C 206.78071,129.09375 208.20060,127.43399 208.46875,126.03125 C 208.93544,123.58984 206.10009,119.22280 203.53125,118.37500 C 202.66077,118.08772 201.23093,117.18563 200.34375,116.40625 C 198.71604,114.97635 195.17101,113.63856 192.75000,113.34375 z M 265.59375,118.96875 C 264.71833,118.93796 263.62819,119.07708 262.34375,119.40625 C 260.70059,119.82735 258.50462,120.18956 257.46875,120.18750 C 256.36557,120.18531 254.97974,120.54157 254.12500,121.06250 C 253.32241,121.55165 251.71615,122.06492 250.56250,122.21875 C 248.25529,122.52639 247.48364,123.19123 246.71875,125.46875 C 246.03637,127.50055 246.03081,131.75000 246.71875,131.75000 C 247.00808,131.74999 248.48091,130.95999 249.96875,130.00000 C 252.94888,128.07718 257.14258,126.61373 257.59375,127.34375 C 258.01807,128.03031 256.46590,129.51736 254.00000,130.75000 C 249.65418,132.92237 248.17803,135.37996 250.31250,136.87500 C 251.53894,137.73404 252.56856,137.74732 254.12500,136.93750 C 254.78692,136.59310 255.85593,135.76308 256.46875,135.09375 C 258.50458,132.87018 260.96283,131.31250 262.50000,131.31250 C 264.48194,131.31250 265.37500,129.99694 265.37500,127.00000 C 265.37499,125.02682 265.59306,124.41144 266.75000,123.09375 C 268.88271,120.66473 268.22000,119.06111 265.59375,118.96875 z M 211.15625,119.12500 C 209.28423,118.93075 209.03563,120.11125 210.12500,122.87500 C 210.94563,124.95697 210.93793,125.19887 210.28125,126.46875 C 209.27145,128.42150 209.79337,129.70612 212.59375,132.31250 C 213.93931,133.56484 215.13224,135.11732 215.28125,135.75000 C 215.69222,137.49499 217.20641,138.90625 218.65625,138.90625 C 220.17761,138.90624 220.70449,137.88872 220.03125,136.25000 C 218.39265,132.26152 218.36812,132.22564 218.90625,131.68750 C 219.75327,130.84050 221.10330,132.42545 221.90625,135.18750 C 222.38130,136.82160 223.19170,138.16045 224.37500,139.34375 C 226.77787,141.74662 230.13568,142.52609 230.78125,140.84375 C 230.91285,140.50081 230.65009,139.57850 230.18750,138.78125 C 229.31961,137.28545 228.79987,135.57564 227.93750,131.25000 C 227.47468,128.92845 227.27574,128.64610 225.28125,127.40625 C 224.09582,126.66935 222.46430,125.19692 221.65625,124.12500 C 220.63205,122.76633 219.57670,121.94992 218.15625,121.43750 C 217.03558,121.03322 214.98848,120.29216 213.59375,119.78125 C 212.60557,119.41926 211.78026,119.18975 211.15625,119.12500 z M 283.81250,126.59375 C 283.20982,126.44249 281.45766,126.54694 279.93750,126.84375 C 274.51913,127.90167 270.39950,130.44817 271.43750,132.09375 C 271.95654,132.91659 275.09808,133.93741 278.50000,134.37500 C 280.33575,134.61113 280.75000,134.82819 280.75000,135.56250 C 280.75000,136.40320 280.49578,136.41926 276.37500,136.28125 C 271.46409,136.11679 270.70851,136.45084 270.71875,138.62500 C 270.72836,140.65927 271.64288,142.11558 273.40625,143.00000 C 275.55994,144.08018 276.58002,144.01026 279.46875,142.46875 C 281.31435,141.48388 282.57053,141.12500 284.25000,141.12500 C 287.25496,141.12500 289.15722,140.53916 290.87500,139.09375 C 292.00507,138.14287 292.58029,137.95629 293.81250,138.15625 C 295.89372,138.49398 297.00000,137.84237 297.00000,136.25000 C 297.00000,134.36140 295.13674,132.35573 293.03125,132.00000 C 291.91823,131.81196 290.13475,130.82752 288.09375,129.28125 C 286.33738,127.95062 284.41516,126.74501 283.81250,126.59375 z M 193.59375,127.00000 C 193.11301,127.06289 192.53408,127.24052 191.81250,127.50000 C 190.02458,128.14293 188.75145,128.25230 186.09375,128.06250 C 184.21834,127.92855 182.36536,127.68960 181.96875,127.53125 C 181.45606,127.32655 180.97020,127.69778 180.31250,128.81250 C 179.80371,129.67484 178.29858,131.26131 176.93750,132.31250 C 173.29583,135.12507 173.53748,136.71645 177.75000,137.34375 C 179.52586,137.60820 180.34776,138.05775 181.93750,139.62500 C 184.84720,142.49354 186.71744,142.95522 194.28125,142.65625 C 199.33175,142.45662 200.61156,142.27710 201.06250,141.68750 C 201.83014,140.68380 201.78141,139.10663 200.93750,138.40625 C 200.35754,137.92493 199.87421,137.93718 198.15625,138.43750 C 195.67408,139.16039 194.94767,139.17672 190.09375,138.56250 C 186.21070,138.07116 184.58371,137.22856 185.68750,136.31250 C 186.11335,135.95907 187.60007,135.98465 191.06250,136.34375 C 195.74825,136.82972 195.85159,136.80330 196.90625,135.81250 C 198.52055,134.29595 198.52741,133.47261 197.00000,130.40625 C 195.63119,127.65833 195.03596,126.81134 193.59375,127.00000 z M 262.12500,135.03125 C 261.00706,135.18097 259.36524,136.06444 257.21875,137.68750 C 255.44577,139.02813 253.43413,140.24618 252.75000,140.40625 C 251.24912,140.75743 251.53860,141.36006 253.59375,142.21875 C 255.51378,143.02099 255.64270,144.25000 253.81250,144.25000 C 253.09583,144.25000 251.49996,144.00728 250.25000,143.71875 C 248.44584,143.30230 247.84039,143.29955 247.40625,143.75000 C 246.96939,144.20328 247.58932,144.98265 250.43750,147.62500 C 254.60193,151.48847 256.96742,152.83119 258.90625,152.43750 C 259.64163,152.28817 261.54403,151.33059 263.12500,150.31250 C 265.43633,148.82407 266.52483,148.42919 268.65625,148.25000 C 271.64559,147.99870 272.73529,147.08695 271.71875,145.68750 C 271.40715,145.25854 270.45031,143.48329 269.62500,141.75000 C 268.60591,139.60975 267.43883,137.98190 265.96875,136.68750 C 264.04639,134.99488 263.61600,134.83155 262.12500,135.03125 z M 206.46875,137.84375 C 206.08731,137.95257 205.73201,138.16460 205.37500,138.50000 C 204.61490,139.21408 204.31250,139.97049 204.31250,141.21875 C 204.31251,143.59209 203.75795,144.47157 201.65625,145.31250 C 200.66858,145.70769 199.84375,146.11328 199.84375,146.25000 C 199.84375,146.83201 201.24071,149.15625 201.59375,149.15625 C 201.80608,149.15625 202.96539,149.99872 204.15625,151.06250 C 206.07573,152.77714 208.46594,153.99965 211.21875,154.65625 C 213.24060,155.13851 215.54607,154.51232 217.96875,152.84375 C 219.33489,151.90285 220.94815,150.56797 221.53125,149.87500 C 222.80265,148.36400 222.95962,146.47715 221.81250,146.46875 C 220.57771,146.45972 214.57878,147.79215 211.84375,148.68750 C 209.20347,149.55182 208.11701,149.33962 208.37500,148.00000 C 208.60885,146.78571 212.94631,144.68750 215.21875,144.68750 C 216.33862,144.68749 217.33879,144.41376 217.65625,144.03125 C 218.31701,143.23510 217.89518,142.40649 217.00000,142.75000 C 215.83198,143.19820 214.33672,142.53896 211.56250,140.31250 C 208.99230,138.24977 207.61306,137.51729 206.46875,137.84375 z M 302.65625,141.84375 C 301.99545,141.96124 301.22622,142.29067 299.93750,142.87500 C 295.50235,144.88600 294.19764,147.90165 295.93750,152.25000 C 296.52341,153.71436 296.88164,154.03935 297.84375,154.03125 C 298.49123,154.02580 299.51219,153.63561 300.12500,153.15625 C 300.73782,152.67691 301.60228,152.28670 302.03125,152.28125 C 303.50725,152.26249 302.79008,153.55924 300.34375,155.40625 C 298.99555,156.42414 297.90625,157.42937 297.90625,157.62500 C 297.90625,157.82062 297.79291,158.26887 297.65625,158.62500 C 297.29245,159.57303 298.66427,160.71875 300.15625,160.71875 C 301.05561,160.71875 301.66551,160.39042 302.18750,159.59375 C 302.60089,158.96285 304.06917,157.71906 305.43750,156.84375 C 308.60010,154.82066 309.01390,154.26572 309.03125,151.90625 C 309.04187,150.46195 309.28001,149.74901 310.03125,149.12500 C 314.26113,145.61156 314.44625,145.43299 314.31250,144.28125 C 314.18279,143.16429 314.02561,143.12730 310.37500,142.81250 C 308.29142,142.63283 305.72774,142.25245 304.68750,142.00000 C 303.84273,141.79500 303.31705,141.72626 302.65625,141.84375 z M 293.21875,142.21875 C 292.71962,142.27649 292.11503,142.49945 291.40625,142.93750 C 290.08833,143.75202 288.85244,143.98977 284.96875,144.21875 C 280.62784,144.47469 279.98042,144.63497 278.28125,145.81250 C 275.90986,147.45587 275.41173,148.22334 274.50000,151.78125 C 273.80188,154.50558 273.81479,154.70326 274.56250,155.25000 C 274.99676,155.56753 275.55216,155.81250 275.81250,155.81250 C 276.89470,155.81250 282.35150,154.05747 283.28125,153.40625 C 284.52615,152.53428 284.80586,152.54333 285.12500,153.37500 C 285.57243,154.54097 283.33360,156.54571 280.40625,157.62500 C 278.86931,158.19166 277.16698,158.93632 276.62500,159.28125 C 274.91114,160.37202 274.76484,162.81474 276.43750,162.34375 C 276.84584,162.22877 278.88517,161.98058 280.96875,161.81250 C 283.05232,161.64443 285.12494,161.32412 285.56250,161.09375 C 286.00004,160.86338 286.89698,159.54404 287.56250,158.15625 C 288.49616,156.20929 289.18693,155.42009 290.56250,154.71875 L 292.34375,153.81250 L 292.46875,150.56250 C 292.57457,147.93703 292.82986,146.95292 293.75000,145.56250 C 295.15303,143.44238 294.71613,142.04553 293.21875,142.21875 z M 320.78125,143.03125 C 319.73140,143.27778 318.43272,144.42244 316.06250,146.81250 C 310.11748,152.80731 310.01093,154.37155 315.50000,154.59375 C 319.07947,154.73866 319.69928,155.53448 317.12500,156.75000 C 315.69941,157.42315 314.40625,158.70053 314.40625,159.43750 C 314.40625,160.15463 315.83974,161.18750 316.87500,161.18750 C 317.47769,161.18750 319.16902,160.67532 320.62500,160.06250 C 322.08099,159.44969 323.70997,158.93750 324.21875,158.93750 C 325.58181,158.93751 327.20791,157.05929 327.56250,155.09375 C 327.95366,152.92549 328.34474,152.44723 331.18750,150.62500 C 335.45749,147.88791 334.84761,146.03125 329.68750,146.03125 C 326.24649,146.03126 325.28092,145.70492 323.15625,143.93750 C 322.63934,143.50750 322.21300,143.20773 321.78125,143.06250 C 321.45744,142.95358 321.13120,142.94907 320.78125,143.03125 z M 169.87500,145.21875 C 169.31049,145.14058 168.85161,145.39721 168.12500,145.96875 C 167.52883,146.43770 165.86541,147.17517 164.40625,147.59375 C 162.94708,148.01232 161.47505,148.55667 161.15625,148.81250 C 160.04492,149.70433 160.76134,151.51166 162.75000,152.84375 C 163.80634,153.55133 164.65625,154.45909 164.65625,154.90625 C 164.65624,156.31242 166.37293,157.99541 168.12500,158.31250 C 170.37055,158.71889 172.21875,159.73540 172.21875,160.53125 C 172.21875,161.25516 171.98822,161.29920 169.18750,161.18750 C 167.65735,161.12647 167.04157,161.33343 166.12500,162.25000 C 165.49256,162.88245 164.13311,163.63690 163.12500,163.90625 C 159.29743,164.92892 157.48713,165.75553 157.00000,166.68750 C 156.72289,167.21768 155.72697,168.49494 154.78125,169.53125 C 153.83554,170.56756 153.06250,171.82243 153.06250,172.31250 C 153.06251,173.46615 154.56165,174.37788 157.06250,174.75000 C 158.15916,174.91318 159.39702,175.34275 159.81250,175.71875 C 161.02578,176.81677 164.17397,177.59289 167.50000,177.62500 C 170.38027,177.65280 170.78985,177.55929 173.37500,175.87500 C 176.52719,173.82125 177.56737,172.07516 176.75000,170.28125 C 176.16172,168.99009 174.14496,168.80174 171.71875,169.81250 C 169.64916,170.67470 166.33517,171.10609 165.56250,170.59375 C 164.57678,169.94012 165.67827,168.89885 167.65625,168.62500 C 168.56609,168.49903 170.43306,168.06433 171.78125,167.65625 C 173.77512,167.05272 175.37178,166.94388 180.31250,167.15625 C 185.71545,167.38848 186.47138,167.33139 187.34375,166.62500 L 188.34375,165.84375 L 187.37500,164.96875 C 186.66583,164.32583 185.54395,164.00638 183.21875,163.84375 L 180.03125,163.62500 L 179.87500,161.62500 C 179.71023,159.30610 179.09534,158.46486 176.00000,156.46875 C 173.03563,154.55710 172.39665,153.80871 173.09375,152.96875 C 173.84539,152.06310 174.70905,152.46845 178.09375,155.43750 C 181.13785,158.10777 181.87971,158.46404 182.81250,157.53125 C 183.69271,156.65102 183.43126,154.94327 182.06250,152.71875 C 181.35225,151.56445 180.71453,150.24738 180.62500,149.78125 C 180.49467,149.10267 179.83718,148.81369 177.34375,148.43750 C 175.02660,148.08790 173.70916,147.62231 172.25000,146.56250 C 171.10653,145.73198 170.43951,145.29692 169.87500,145.21875 z M 155.62500,148.87500 C 154.88631,149.02274 152.72406,149.15625 150.81250,149.15625 C 147.66605,149.15625 147.20572,149.26543 145.90625,150.37500 C 145.11676,151.04908 143.24675,152.20212 141.75000,152.93750 C 138.47746,154.54537 138.26484,155.44839 140.81250,156.87500 C 142.05203,157.56909 142.74452,158.33438 143.09375,159.40625 C 143.76363,161.46225 145.15587,162.41096 148.37500,163.00000 C 149.84577,163.26913 151.35106,163.66035 151.71875,163.87500 C 152.85186,164.53647 154.12807,164.33813 156.56250,163.12500 C 158.14341,162.33721 158.84379,161.73704 158.75000,161.25000 C 158.58191,160.37716 154.88845,158.27676 152.25000,157.56250 C 150.67699,157.13666 150.35823,156.86818 150.46875,156.09375 C 150.69008,154.54283 152.97721,154.63282 155.65625,156.28125 C 160.06627,158.99476 162.78420,157.15645 159.59375,153.62500 C 158.74689,152.68763 157.80203,151.19641 157.50000,150.28125 C 156.99297,148.74493 156.86509,148.62699 155.62500,148.87500 z M 186.43750,149.90625 C 184.34572,149.95634 184.22122,151.39101 185.81250,154.53125 C 186.84378,156.56641 186.90749,156.88950 186.40625,158.56250 C 185.87456,160.33708 185.88627,160.42485 187.15625,161.43750 C 187.89247,162.02454 190.05595,162.86418 192.06250,163.34375 C 196.43957,164.38988 196.58582,164.41663 197.65625,163.84375 C 199.11702,163.06197 198.72503,161.25075 196.68750,159.31250 C 195.55742,158.23749 194.96705,157.31787 195.12500,156.90625 C 195.51385,155.89293 196.88463,156.97779 200.25000,160.93750 C 202.85211,163.99915 204.31910,164.93810 204.93750,163.93750 C 205.06332,163.73391 204.60149,161.06332 203.90625,158.03125 C 202.78567,153.14422 202.46602,152.39236 201.18750,151.25000 C 199.64463,149.87145 200.07869,149.90162 193.84375,150.75000 C 192.86324,150.88342 190.75905,150.68339 189.18750,150.31250 C 188.03692,150.04096 187.13476,149.88955 186.43750,149.90625 z M 267.87500,151.00000 C 266.35269,151.08829 264.47390,151.95290 262.81250,153.37500 C 261.24235,154.71898 260.66830,154.93750 258.75000,154.93750 C 255.40880,154.93750 254.21875,155.51215 254.21875,157.15625 C 254.21875,158.21977 253.69734,159.05140 251.75000,160.93750 C 249.89812,162.73115 249.29697,163.60703 249.40625,164.37500 C 249.71982,166.57852 252.58436,165.93313 255.71875,162.96875 C 259.57508,159.32161 262.50993,159.40718 258.90625,163.06250 C 256.94563,165.05119 256.37172,166.68234 257.46875,167.12500 C 258.65382,167.60318 262.35724,167.38417 263.87500,166.75000 C 265.38814,166.11777 267.21137,164.82513 269.62500,162.65625 C 270.67745,161.71050 270.69909,161.48940 270.56250,156.62500 C 270.42263,151.64421 270.40553,151.59481 269.25000,151.18750 C 268.83696,151.04191 268.38244,150.97057 267.87500,151.00000 z M 208.96875,156.40625 C 208.22376,156.21699 207.51285,156.25051 206.78125,156.53125 C 205.75149,156.92641 205.91084,158.94511 207.18750,161.68750 C 207.79792,162.99876 208.31010,164.58738 208.31250,165.21875 C 208.32269,167.90935 214.26744,170.70512 214.62500,168.18750 C 214.86770,166.47862 216.66435,166.73827 220.12500,168.96875 C 223.77583,171.32180 225.39867,171.47375 225.62500,169.50000 C 225.73918,168.50433 225.37457,167.86015 223.81250,166.37500 C 219.45541,162.23248 217.52743,160.72098 216.62500,160.71875 C 215.63560,160.71630 214.62731,160.13777 211.43750,157.71875 C 210.51228,157.01710 209.71374,156.59551 208.96875,156.40625 z M 292.03125,157.25000 C 291.33895,157.34807 290.94181,157.74519 290.84375,158.43750 C 290.72135,159.30160 290.88590,159.43489 291.75000,159.31250 C 292.44230,159.21443 292.83944,158.81731 292.93750,158.12500 C 293.05990,157.26090 292.89535,157.12761 292.03125,157.25000 z M 309.34375,159.09375 C 308.39919,158.88129 307.56918,159.40208 306.25000,160.53125 C 304.09830,162.37302 300.96777,163.38378 297.50000,163.40625 L 295.00000,163.43750 L 297.46875,164.34375 C 298.81694,164.84554 300.96671,165.52945 302.25000,165.84375 C 304.93418,166.50116 305.93750,167.18962 305.93750,168.37500 C 305.93750,169.45438 304.98002,169.43327 302.03125,168.31250 C 296.17836,166.08794 294.65781,168.53832 299.78125,171.93750 C 301.52892,173.09700 302.03020,173.21701 305.59375,173.21875 C 308.63443,173.22023 309.92508,173.00436 311.28125,172.31250 C 312.49937,171.69106 313.91260,171.43750 315.93750,171.43750 C 318.53095,171.43750 318.88995,171.32249 319.53125,170.34375 C 320.01033,169.61257 320.16278,168.78970 319.96875,167.90625 C 319.62622,166.34674 319.09202,165.85036 317.28125,165.43750 C 316.43303,165.24409 314.88099,164.02862 313.03125,162.06250 C 311.32970,160.25388 310.28831,159.30621 309.34375,159.09375 z M 277.96875,164.84375 C 277.26040,164.89990 276.75740,165.04904 276.18750,165.34375 C 275.41523,165.74311 273.80152,166.09040 272.62500,166.09375 C 269.64405,166.10224 268.50000,166.49082 268.50000,167.46875 C 268.50000,168.53618 270.65216,169.65625 272.71875,169.65625 C 274.38514,169.65624 283.53558,172.48750 284.31250,173.25000 C 285.59899,174.51259 281.34183,174.95484 278.28125,173.87500 C 275.97427,173.06106 273.98523,173.02991 273.71875,173.78125 C 273.44534,174.55216 275.44728,178.41034 276.40625,178.96875 C 277.67793,179.70923 286.06455,179.54562 287.96875,178.75000 C 288.87114,178.37296 290.00608,177.73121 290.46875,177.31250 C 290.95491,176.87254 292.35599,176.47349 293.78125,176.34375 C 295.69519,176.16952 296.39222,175.87123 296.90625,175.09375 C 297.53414,174.14409 297.45175,174.01527 295.53125,172.21875 C 294.41699,171.17644 293.07719,169.34263 292.53125,168.15625 C 291.98530,166.96988 291.28345,165.90202 290.96875,165.78125 C 290.65404,165.66049 289.01400,165.50263 287.34375,165.43750 C 285.67352,165.37238 282.78816,165.16019 280.93750,164.96875 C 279.57181,164.82748 278.67710,164.78760 277.96875,164.84375 z M 194.21875,167.09375 C 193.24283,167.24741 192.32335,167.61848 190.65625,168.31250 C 187.97645,169.42811 186.50922,169.75000 184.37500,169.75000 C 182.84317,169.75000 181.33340,169.97423 181.00000,170.25000 C 180.66661,170.52577 180.03547,171.64693 179.62500,172.75000 C 179.11501,174.12051 178.32473,175.16164 177.09375,176.03125 C 175.67462,177.03376 175.32997,177.54351 175.43750,178.43750 C 175.54850,179.36032 175.94505,179.70904 177.59375,180.18750 C 178.70885,180.51110 180.10527,181.25524 180.68750,181.87500 C 181.70004,182.95280 181.94238,183.00000 186.81250,183.00000 C 191.90063,183.00001 191.93346,182.99870 193.18750,181.65625 C 193.91127,180.88143 194.54397,179.56578 194.71875,178.53125 C 195.07199,176.44045 196.06642,175.67704 198.93750,175.25000 C 201.08463,174.93065 202.09375,174.32803 202.09375,173.37500 C 202.09374,172.38129 200.14397,172.20270 198.03125,173.00000 C 192.11338,175.23331 189.82978,175.93553 188.56250,175.81250 C 186.40489,175.60304 186.85503,174.52184 189.68750,173.12500 C 194.56089,170.72169 201.79059,169.01282 204.25000,169.68750 C 204.58706,169.77995 204.94899,169.62239 205.06250,169.31250 C 205.40142,168.38726 202.37799,167.42689 198.12500,167.12500 C 196.23590,166.99091 195.19467,166.94009 194.21875,167.09375 z M 259.00000,170.68750 C 257.14326,170.38619 255.09403,171.35651 253.81250,173.15625 C 251.88788,175.85915 253.00378,177.19736 257.25000,177.21875 C 261.42720,177.23978 263.26184,178.62532 260.65625,179.81250 C 258.74122,180.68505 256.22529,180.40987 251.81250,178.81250 C 248.26951,177.53000 247.52311,177.38890 247.09375,177.90625 C 245.71081,179.57260 248.02394,181.54494 251.84375,181.93750 C 255.54864,182.31826 256.57773,182.81626 258.65625,185.28125 C 260.13847,187.03907 260.79296,187.46875 261.90625,187.46875 C 262.66902,187.46875 263.63045,187.14099 264.06250,186.75000 C 265.33087,185.60215 268.06839,184.84081 270.93750,184.81250 C 275.39366,184.76853 275.56044,184.21800 272.53125,179.53125 C 271.13012,177.36343 270.35842,176.67499 268.40625,175.78125 C 267.08588,175.17677 264.76090,173.84384 263.25000,172.81250 C 261.73908,171.78117 259.83177,170.82248 259.00000,170.68750 z M 212.43750,173.15625 C 210.58813,172.95297 208.25403,173.69914 205.25000,175.40625 C 203.13484,176.60824 200.70169,177.80732 199.84375,178.09375 C 198.67230,178.48485 197.82872,179.34336 196.40625,181.50000 C 195.36445,183.07947 194.50000,184.85975 194.50000,185.46875 C 194.50000,186.53019 194.60439,186.59375 197.28125,186.59375 C 199.21617,186.59375 200.58021,186.83759 201.65625,187.43750 C 203.87798,188.67617 204.64062,188.58104 208.53125,186.53125 C 211.37526,185.03287 212.30394,184.75879 213.62500,184.96875 C 215.69264,185.29735 216.10148,184.99451 217.21875,182.46875 C 218.45224,179.68023 219.78847,178.73480 222.96875,178.37500 C 224.69995,178.17913 225.84230,177.80409 226.34375,177.25000 C 227.07354,176.44358 227.04839,176.36227 225.62500,175.62500 C 224.80634,175.20096 223.32158,174.83510 222.31250,174.81250 C 220.74007,174.77729 220.17326,175.06131 218.37500,176.71875 C 214.97540,179.85215 209.69554,181.63400 209.31250,179.78125 C 209.19210,179.19890 209.69467,178.75309 211.28125,178.06250 C 214.92660,176.47577 216.09351,174.69304 214.15625,173.65625 C 213.64235,173.38122 213.05396,173.22401 212.43750,173.15625 z "
           style="fill:#30b457;fill-opacity:1.0000000;fill-rule:nonzero;stroke:none;stroke-width:8.1496067;stroke-linecap:butt;stroke-linejoin:miter;stroke-miterlimit:4.0000000;stroke-dashoffset:0.0000000;stroke-opacity:1.0000000"
           id="path13253" />
        <path
           id="path2919"
           d="M 236.81250,49.906250 C 234.58805,49.545271 233.03828,50.947939 232.12500,54.125000 C 231.08006,57.760054 230.42534,58.779023 228.65625,59.718750 C 226.79511,60.707367 226.25872,61.946589 226.03125,65.687500 C 225.89243,67.970532 225.63728,68.694764 224.65625,69.718750 C 223.07589,71.368284 223.11382,73.077083 224.81250,77.093750 C 227.12390,82.559241 227.58034,83.182074 230.90625,85.781250 C 231.79617,86.476711 232.66845,87.173439 233.28125,87.812500 C 236.17962,90.835057 234.28187,95.780227 232.75000,97.156250 C 231.18761,98.559690 228.37500,95.169700 228.37500,91.937500 C 228.37500,90.937977 227.98470,89.927176 227.31250,89.125000 C 226.73186,88.432094 225.55695,86.448746 224.68750,84.718750 C 222.84181,81.046247 222.49136,80.708383 220.12500,80.343750 C 219.14756,80.193140 216.74533,79.225004 214.78125,78.187500 C 211.64213,76.529291 210.85226,76.297628 208.25000,76.281250 C 204.93031,76.260361 203.66651,76.975369 203.18750,79.156250 C 203.03715,79.840795 202.52656,80.770498 202.03125,81.218750 C 201.15778,82.009234 201.05184,82.020241 198.59375,81.125000 C 196.99205,80.541657 195.71577,80.312743 195.15625,80.531250 C 193.71772,81.093022 191.77983,81.011110 188.68750,80.218750 C 186.14563,79.567440 185.62002,79.543122 184.50000,80.093750 C 183.79539,80.440145 182.96371,81.138791 182.62500,81.656250 C 182.07306,82.499485 182.15257,82.904825 183.56250,85.562500 C 184.42772,87.193416 185.15270,89.079422 185.15625,89.750000 C 185.15980,90.420577 186.21664,93.082423 187.50000,95.656250 L 189.81250,100.34375 L 192.84375,101.78125 C 194.49835,102.57803 195.84238,103.47496 195.84375,103.78125 C 195.84512,104.08755 196.05128,105.12177 196.31250,106.06250 C 196.70119,107.46230 197.13206,107.93254 198.65625,108.59375 C 199.68058,109.03812 201.42818,109.54282 202.53125,109.71875 C 206.13306,110.29320 207.87499,111.67762 207.87500,113.96875 C 207.87500,114.84718 207.69062,114.92456 206.15625,114.71875 C 205.14301,114.58285 203.59143,113.82738 202.34375,112.87500 C 198.88724,110.23659 196.37789,109.75712 187.81250,110.06250 L 180.46875,110.31250 L 178.18750,108.75000 C 175.41631,106.84437 172.85584,106.37560 171.18750,107.46875 C 170.31174,108.04257 169.47039,108.16712 167.87500,107.96875 C 160.35277,107.03342 160.81012,107.00239 159.09375,108.71875 C 157.01502,110.79748 156.99174,112.33395 159.06250,114.81250 C 160.12145,116.07997 160.98919,117.90675 161.78125,120.53125 C 162.79991,123.90661 163.21894,124.65929 165.12500,126.46875 C 166.32396,127.60693 167.31250,128.70028 167.31250,128.87500 C 167.31250,129.04973 167.92087,129.94651 168.65625,130.87500 C 169.39163,131.80349 170.00000,132.97587 170.00000,133.50000 C 170.00000,135.12033 171.16318,137.37533 172.50000,138.31250 C 173.20184,138.80450 174.96674,139.64623 176.43750,140.18750 C 181.65507,142.10769 184.33264,144.35487 183.00000,145.68750 C 182.74380,145.94370 181.21096,146.06719 179.46875,145.96875 C 176.76773,145.81613 176.03817,145.55083 173.53125,143.93750 C 169.64071,141.43377 168.09188,141.14089 166.68750,142.65625 C 165.32856,144.12257 163.16935,144.78950 160.78125,144.43750 C 159.62510,144.26709 157.99992,144.42987 156.46875,144.87500 C 154.94574,145.31775 152.33908,145.56251 149.56250,145.56250 L 145.09375,145.56250 L 144.09375,147.03125 C 142.78735,148.90171 142.57731,149.01601 139.68750,149.87500 C 136.55989,150.80468 134.78124,152.55146 134.78125,154.65625 C 134.78125,155.97083 135.11643,156.47449 136.84375,157.90625 C 138.96576,159.66516 139.97436,160.65296 141.93750,162.81250 C 142.67075,163.61912 144.21949,164.44122 146.25000,165.09375 C 147.99407,165.65423 149.90111,166.47758 150.46875,166.93750 C 151.43255,167.71842 151.44283,167.89232 150.87500,169.28125 C 149.51213,172.61480 149.70742,174.98064 151.40625,176.09375 C 151.96006,176.45663 154.06848,177.22590 156.09375,177.81250 C 158.11902,178.39910 160.20761,179.27883 160.75000,179.78125 C 161.56864,180.53958 162.45392,180.74550 165.96875,180.87500 C 169.66982,181.01137 170.44165,181.17764 172.00000,182.21875 C 172.98051,182.87381 174.58199,183.54124 175.56250,183.71875 C 176.54301,183.89625 177.89877,184.45566 178.59375,184.96875 C 179.66980,185.76316 180.51941,185.90302 184.18750,185.90625 C 188.50860,185.91003 190.12827,186.36180 190.62500,187.65625 C 191.18527,189.11629 193.31354,189.92213 197.37500,190.21875 C 199.59363,190.38077 202.43720,190.64045 203.68750,190.81250 C 205.48720,191.06016 206.38506,190.96437 208.00000,190.25000 C 209.59878,189.54279 210.62586,189.37273 212.71875,189.56250 C 215.88996,189.85005 217.47303,189.07381 220.34375,185.81250 C 222.76981,183.05635 224.65499,181.74049 226.96875,181.15625 C 228.03306,180.88751 229.51520,180.14953 230.25000,179.53125 C 231.34580,178.60920 231.64151,178.51428 231.96875,179.03125 C 232.15224,179.32113 232.62816,179.45070 233.09375,179.56250 C 231.68172,225.14117 230.04320,249.04089 229.71875,251.37500 C 229.51394,252.84851 229.62149,257.23107 229.53125,259.40625 C 229.08817,270.08666 226.43942,284.54757 223.56250,296.40625 C 220.69918,308.20887 217.13991,317.24615 217.12500,318.25000 C 217.10873,319.32225 218.61568,319.76658 219.87500,319.78125 C 227.45517,319.86953 237.98718,311.35847 240.37500,311.37500 C 242.64502,311.39153 254.16995,321.55979 269.53125,321.56250 C 290.42562,321.56622 317.03550,301.99205 317.37500,265.46875 C 317.58807,242.42900 301.88010,215.41018 278.09375,215.31250 C 260.50943,215.24029 245.76240,227.39958 244.87500,227.43750 C 243.08575,227.51393 240.92083,212.75127 239.03125,178.96875 C 239.38702,178.86885 240.03874,178.76857 240.25000,178.68750 C 240.61036,178.54921 242.13107,179.66914 243.90625,181.34375 C 246.69574,183.97522 247.32415,184.32880 251.37500,185.62500 C 253.80495,186.40253 256.30200,187.38365 256.93750,187.81250 C 261.08502,190.61129 261.11874,190.61222 262.62500,190.34375 C 263.44954,190.19680 265.21654,189.55105 266.53125,188.90625 L 268.90625,187.75000 L 271.93750,188.46875 C 274.80149,189.16858 275.00534,189.16732 276.06250,188.40625 C 276.67532,187.96507 277.61369,186.92915 278.15625,186.09375 C 280.59721,182.33518 280.19392,182.56249 284.50000,182.56250 C 288.19463,182.56250 288.51168,182.47602 290.09375,181.21875 C 291.01911,180.48337 291.83512,179.90625 291.90625,179.90625 C 293.38358,179.90625 299.40479,178.75083 300.56250,178.25000 C 301.49772,177.84543 303.26181,177.61377 304.93750,177.65625 C 307.37148,177.71794 308.28567,177.46837 311.81250,175.84375 C 314.76999,174.48140 316.54404,173.95498 318.34375,173.87500 C 320.26310,173.78970 320.98289,173.53564 321.59375,172.78125 C 322.72056,171.38969 323.01593,169.16587 322.43750,166.46875 C 321.83194,163.64514 322.03737,163.36441 326.09375,161.40625 C 328.89318,160.05487 329.11131,159.75236 329.75000,156.59375 C 329.92588,155.72393 330.91184,154.70346 333.12500,153.09375 C 336.10825,150.92392 337.56250,149.13935 337.56250,147.59375 C 337.56250,144.70655 334.09304,142.62531 330.09375,143.12500 C 328.03335,143.38244 327.46102,143.25810 325.68750,142.21875 C 322.56048,140.38619 321.36679,140.13730 313.93750,139.75000 C 307.13063,139.39515 301.63430,138.75931 301.15625,138.28125 C 300.68021,137.80522 298.78317,131.97022 298.78125,130.96875 C 298.78017,130.40469 299.12981,129.81421 299.56250,129.65625 C 300.86324,129.18141 302.21790,127.98491 304.25000,125.50000 C 305.50841,123.96121 307.11828,122.67459 308.84375,121.78125 L 311.50000,120.40625 L 311.56250,115.93750 C 311.60312,113.48623 311.77222,110.33607 311.93750,108.93750 C 312.20924,106.63803 312.15045,106.30669 311.18750,105.34375 C 310.17564,104.33189 309.84940,104.28446 305.00000,104.37500 C 302.19313,104.42740 299.34631,104.69152 298.65625,104.96875 C 296.81927,105.70676 295.19280,105.58597 293.68750,104.59375 C 291.70031,103.28390 289.23381,103.09529 284.56250,103.90625 C 282.25025,104.30767 279.93440,104.50755 279.40625,104.37500 C 277.78409,103.96786 276.06250,102.35357 276.06250,101.21875 C 276.06250,98.472710 277.41212,97.328740 282.40625,95.906250 C 284.77176,95.232480 285.04640,95.036420 286.06250,93.031250 C 286.73531,91.703516 288.47764,89.689006 290.53125,87.843750 C 293.56916,85.114039 293.90625,84.656359 293.90625,83.156250 C 293.90625,80.495897 292.75467,79.475537 289.62500,79.375000 C 288.17709,79.328489 285.61792,78.869498 283.93750,78.343750 C 280.58302,77.294248 277.14557,77.096748 275.43750,77.875000 C 273.53660,78.741107 271.44162,77.999759 268.50000,75.375000 C 266.10428,73.237346 265.55159,72.936037 263.90625,72.937500 C 261.87745,72.939300 260.43455,73.661635 256.84375,76.500000 C 255.60761,77.477115 254.24274,78.281254 253.81250,78.281250 C 252.42524,78.281250 247.84109,81.649291 244.34375,85.250000 L 240.93750,88.750000 L 240.75000,92.031250 C 240.58528,94.542303 240.37248,95.572854 239.62500,96.218750 C 236.66759,98.774245 234.77395,91.006141 238.12500,87.281250 C 238.89654,86.423641 239.87812,85.515343 241.09375,84.500000 C 246.76538,79.762819 247.72498,77.539569 246.40625,72.281250 C 245.79385,69.839371 245.74422,68.946645 246.15625,67.437500 C 246.82290,64.995732 246.30292,63.268106 243.90625,60.093750 C 242.00124,57.570580 240.91081,55.182398 240.87500,53.500000 C 240.84712,52.189393 238.59790,50.195979 236.81250,49.906250 z M 236.87500,52.437500 C 238.08565,52.437500 239.06250,54.162899 239.06250,56.281250 C 239.06250,57.793893 239.48294,58.767075 241.28125,61.406250 C 243.69619,64.950371 243.96107,66.182141 242.78125,68.656250 C 242.04351,70.203316 242.06764,70.258331 243.50000,72.562500 C 244.29464,73.840813 244.94895,75.459969 244.96875,76.156250 C 245.01994,77.956780 243.33705,79.509912 240.46875,80.343750 C 238.15031,81.017741 237.99762,81.011945 237.40625,80.218750 C 236.95726,79.616532 236.87057,78.912023 237.12500,77.625000 C 237.71908,74.619865 237.50254,71.339303 236.62500,70.000000 C 235.84910,68.815830 235.81570,68.808621 235.21875,69.625000 C 234.79422,70.205587 234.70000,70.891732 234.93750,71.812500 C 235.58947,74.340180 235.30429,78.827003 234.37500,80.718750 C 233.72313,82.045735 233.20472,82.553215 232.31250,82.656250 C 230.83084,82.827352 229.28126,81.380475 229.28125,79.843750 C 229.28125,79.172504 228.47460,77.878831 227.25000,76.500000 C 224.98509,73.949824 224.74573,72.513669 226.31250,71.281250 C 227.73783,70.160082 228.20673,69.139110 228.78125,66.031250 C 229.16967,63.930065 229.62412,63.014033 230.96875,61.593750 C 233.02831,59.418311 233.69894,58.331881 235.03125,55.000000 C 235.75536,53.189139 236.29958,52.437499 236.87500,52.437500 z M 262.96875,75.281250 C 264.03338,75.122385 264.95873,75.364094 265.56250,76.031250 C 266.51039,77.078658 266.61012,76.683332 264.31250,82.062500 C 263.56260,83.818163 263.16319,85.561218 263.15625,87.156250 L 263.12500,89.593750 L 259.28125,93.312500 C 255.27964,97.137960 254.46903,97.494900 252.06250,96.531250 C 250.98141,96.098350 250.92338,95.374370 251.78125,92.656250 C 252.28175,91.070433 251.07696,91.398014 248.03125,93.687500 C 246.53918,94.809115 244.96133,95.645330 244.53125,95.562500 C 242.34219,95.140920 242.19130,90.083359 244.31250,88.343750 C 244.93085,87.836637 246.67288,86.157043 248.18750,84.625000 C 250.38410,82.403156 251.21397,81.843746 252.31250,81.843750 C 253.64950,81.843750 254.57826,81.211156 259.62500,76.906250 C 260.70096,75.988441 261.90412,75.440115 262.96875,75.281250 z M 208.12500,78.781250 C 209.70806,78.494776 211.88204,79.040993 214.37500,80.375000 C 216.06654,81.280163 218.36568,82.226797 219.46875,82.500000 C 221.43334,82.986576 221.50730,83.096252 223.56250,87.218750 C 225.15098,90.405078 225.63253,91.871926 225.56250,93.218750 C 225.41348,96.084810 224.25647,95.863500 221.00000,92.375000 C 218.39147,89.580603 217.15896,88.878661 216.56250,89.843750 C 216.41695,90.079245 216.91234,91.129333 217.65625,92.156250 C 219.36339,94.512887 219.35304,95.033280 217.56250,96.125000 C 216.76584,96.610730 215.93263,97.000000 215.68750,97.000000 C 213.98242,97.000000 207.17661,90.795351 207.53125,89.562500 C 209.01111,84.417945 209.01798,84.618850 207.96875,83.312500 C 206.09197,80.975825 205.79915,80.039021 206.75000,79.343750 C 207.13456,79.062553 207.59731,78.876741 208.12500,78.781250 z M 280.50000,79.437500 L 282.62500,80.437500 C 283.79778,80.984034 286.06292,81.576591 287.65625,81.750000 C 290.36772,82.045101 290.55914,82.140475 290.68750,83.250000 C 290.78804,84.119054 290.51897,84.648728 289.65625,85.250000 C 286.90958,87.164277 285.26219,88.843996 284.65625,90.312500 C 283.68621,92.663384 282.78975,93.437503 281.09375,93.437500 C 279.19932,93.437500 277.38003,94.354039 275.96875,96.031250 C 275.36873,96.744330 274.45363,97.567530 273.93750,97.843750 C 272.89156,98.403520 271.65265,98.417290 269.50000,97.906250 C 267.18410,97.356460 266.57910,96.629320 266.84375,94.656250 C 267.13197,92.507422 268.15460,91.308597 270.21875,90.781250 C 271.09806,90.556598 272.64354,90.170866 273.65625,89.906250 C 275.70737,89.370310 276.90636,88.312612 276.21875,87.625000 C 275.93872,87.344972 274.28323,87.492220 271.56250,88.062500 L 267.37500,88.937500 L 266.37500,87.812500 C 265.37149,86.688542 265.01201,83.987640 265.71875,82.906250 C 266.98674,80.966083 271.37093,79.926048 274.03125,80.937500 C 274.89113,81.264427 275.78863,81.134440 277.81250,80.406250 L 280.50000,79.437500 z M 186.21875,82.875000 C 186.38245,82.754880 186.67917,82.853066 187.25000,83.031250 C 187.92410,83.241671 190.82873,83.330043 193.68750,83.250000 L 198.87500,83.125000 L 200.59375,84.593750 C 201.53444,85.409170 202.69728,86.290675 203.18750,86.562500 C 204.34200,87.202659 205.39538,89.955407 205.03125,91.406250 C 204.61887,93.049293 202.87199,92.893990 200.03125,90.937500 C 198.23816,89.702548 197.40417,89.374659 196.53125,89.593750 C 194.09034,90.206379 195.19142,91.443061 201.15625,94.781250 C 205.17258,97.028960 205.66715,97.973210 203.21875,98.781250 C 201.23700,99.435290 194.67053,99.174770 193.56250,98.406250 C 193.09928,98.084960 192.39374,97.188030 192.00000,96.406250 C 191.60626,95.624460 190.73998,94.391627 190.06250,93.656250 C 189.28415,92.811397 188.73865,91.635101 188.59375,90.468750 C 188.46763,89.453530 187.82722,87.847658 187.18750,86.906250 C 186.54780,85.964840 186.03125,84.611302 186.03125,83.906250 C 186.03125,83.309213 186.05505,82.995120 186.21875,82.875000 z M 262.34375,94.781250 C 263.34059,94.801910 264.26832,95.625410 265.65625,97.250000 C 267.01326,98.838400 268.68045,100.20740 270.31250,101.03125 C 273.14940,102.46332 274.28125,103.72477 274.28125,105.50000 C 274.28125,107.18675 273.44325,107.71520 269.75000,108.21875 C 267.95848,108.46302 265.79310,109.06297 264.93750,109.56250 C 263.58459,110.35237 262.92906,110.41721 259.93750,110.15625 C 257.00691,109.90061 256.17890,109.99712 254.40625,110.78125 C 250.55317,112.48565 248.87500,111.64514 248.87500,108.00000 C 248.87500,106.85757 248.49012,104.85205 248.00000,103.56250 C 246.77233,100.33247 246.80851,99.686940 248.31250,99.687500 C 249.09627,99.687790 251.20044,100.80241 254.15625,102.81250 C 257.05391,104.78304 259.15511,105.89736 259.75000,105.81250 C 261.28736,105.59320 260.84819,104.87722 258.46875,103.68750 C 256.50982,102.70804 256.19646,102.37125 256.06250,101.00000 C 255.92438,99.586320 256.17166,99.244780 258.53125,97.125000 C 260.26756,95.565160 261.34691,94.760590 262.34375,94.781250 z M 212.03125,99.031250 C 213.05823,99.226140 215.27364,99.387010 216.96875,99.406250 C 220.34755,99.444620 220.88815,99.887970 219.75000,101.62500 C 219.01693,102.74381 217.48957,103.45395 214.93750,103.87500 C 212.79490,104.22850 211.83008,105.31521 212.93750,106.12500 C 213.59600,106.60650 214.13455,106.57963 216.25000,105.84375 C 217.64497,105.35851 219.63208,104.46916 220.65625,103.87500 C 221.68041,103.28083 222.83342,102.78125 223.21875,102.78125 C 224.11737,102.78125 224.14382,104.93554 223.28125,107.00000 C 222.59304,108.64712 222.25734,108.78389 216.96875,109.43750 C 215.22656,109.65282 213.38410,110.04004 212.87500,110.31250 C 211.12918,111.24685 209.78228,110.85176 206.96875,108.59375 C 205.45375,107.37789 203.48498,106.15950 202.59375,105.87500 C 200.21443,105.11544 199.90073,104.65661 201.12500,103.65625 C 201.70370,103.18339 202.55182,102.78125 203.00000,102.78125 C 203.44819,102.78125 204.74363,101.97920 205.87500,101.00000 C 208.28131,98.917360 209.48172,98.547430 212.03125,99.031250 z M 234.62670,106.07774 C 234.60595,107.63411 234.23043,130.93909 234.20437,132.32641 C 234.17832,133.71373 233.43911,135.21277 233.43750,135.21875 C 233.10160,136.47215 231.70936,136.52117 231.06250,135.31250 C 230.79940,134.82089 230.45990,133.09074 230.31250,131.43750 C 229.95245,127.39904 229.32358,126.25956 226.84375,125.31250 C 225.24077,124.70031 224.41643,123.99375 223.06250,122.00000 C 220.83805,118.72435 220.37849,118.39382 217.84375,118.03125 C 216.03251,117.77216 215.66497,117.51389 215.18750,116.34375 C 214.88153,115.59389 214.77662,114.74839 214.96875,114.43750 C 215.16089,114.12662 216.62746,113.69735 218.21875,113.50000 C 219.81005,113.30265 221.50295,112.94084 221.96875,112.68750 C 223.31958,111.95280 225.58698,109.33947 225.93750,108.12500 C 226.79462,105.15526 227.56088,104.13633 229.34375,103.65625 C 230.31789,103.39394 231.72262,103.31174 232.43750,103.46875 C 232.43750,103.46875 234.64744,104.52138 234.62670,106.07774 z M 239.12500,102.78125 C 242.08300,102.78125 245.81786,106.20730 246.87500,109.84375 C 248.10058,114.05962 250.55914,115.39215 255.15625,114.40625 C 256.43499,114.13201 257.57935,114.01685 257.71875,114.15625 C 258.68684,115.12434 253.12684,118.69976 249.84375,119.21875 C 246.04688,119.81896 244.95592,121.30307 243.56250,127.68750 C 242.61325,132.03681 242.14555,133.21476 240.71875,134.78125 C 239.62701,135.97988 237.89122,136.09845 237.56250,135.00000 C 237.55669,134.98057 237.13881,132.90288 237.09957,131.58459 C 237.06033,130.26630 236.47739,107.64153 236.44366,106.11456 C 236.40992,104.58758 238.42164,102.78125 239.12500,102.78125 z M 288.78125,106.96875 C 289.79299,107.35699 289.58524,108.27793 287.90625,110.71875 C 287.05800,111.95190 286.22469,113.52466 286.06250,114.21875 C 285.90031,114.91284 284.74520,116.52903 283.50000,117.81250 C 282.25479,119.09597 280.81453,121.00979 280.31250,122.03125 C 279.51616,123.65155 279.05037,124.00450 276.68750,124.84375 C 275.19792,125.37282 273.27430,126.24477 272.40625,126.78125 C 269.93985,128.30557 268.50000,128.07464 268.50000,126.15625 C 268.50000,125.05523 270.02944,123.33404 273.96875,120.03125 C 276.42317,117.97342 277.19190,116.59375 275.90625,116.59375 C 275.57162,116.59375 274.77950,117.00975 274.15625,117.50000 C 272.71085,118.63695 271.43789,118.62424 269.87500,117.46875 C 269.19230,116.96401 267.64459,116.30652 266.43750,116.00000 C 264.61919,115.53828 264.23410,115.25703 264.12500,114.34375 C 264.03876,113.62186 264.38610,112.88166 265.12500,112.18750 C 266.05816,111.31085 266.91040,111.06285 270.06250,110.81250 C 273.59018,110.53232 273.98808,110.40581 275.40625,109.03125 C 276.91419,107.56971 277.02534,107.52997 282.53125,107.12500 C 285.60828,106.89869 288.42059,106.83035 288.78125,106.96875 z M 301.78125,107.59375 C 302.59649,107.50858 303.46828,107.51341 304.59375,107.62500 L 307.46875,107.90625 L 307.53125,110.59375 C 307.55119,112.06451 307.69300,114.27995 307.87500,115.53125 C 308.28380,118.34189 307.73898,119.05332 304.71875,119.50000 C 302.06633,119.89229 301.14282,120.69621 300.53125,123.12500 C 299.91433,125.57497 299.17743,126.16330 295.75000,127.03125 C 291.85943,128.01647 290.07577,127.97808 289.28125,126.84375 C 287.87130,124.83076 289.99360,122.53933 295.81250,119.81250 C 299.45898,118.10370 300.78928,116.81923 299.46875,116.31250 C 298.13819,115.80191 291.83351,118.55839 288.00000,121.31250 C 285.63001,123.01516 284.64527,123.20525 284.21875,122.09375 C 284.02866,121.59836 284.37807,121.01863 285.25000,120.31250 C 288.89162,117.36328 289.00000,117.23024 289.00000,115.31250 C 289.00000,113.72282 289.28977,113.14519 291.06250,111.25000 C 292.89715,109.28860 293.32758,109.03125 294.96875,109.03125 C 295.98549,109.03125 297.91030,108.65188 299.25000,108.18750 C 300.19633,107.85947 300.96601,107.67892 301.78125,107.59375 z M 174.28125,110.62500 C 174.80255,110.81521 175.35201,111.25818 176.31250,112.06250 C 178.19109,113.63565 178.71474,113.82749 181.65625,114.09375 C 184.62049,114.36206 185.04806,114.53326 186.15625,115.84375 C 187.54003,117.48014 189.15624,120.56688 189.15625,121.56250 C 189.15625,121.92852 188.88783,122.58632 188.56250,123.03125 C 188.00042,123.79993 187.77881,123.77492 184.00000,122.21875 C 176.41457,119.09496 176.29608,119.04767 175.71875,119.62500 C 175.30556,120.03820 175.60921,120.53333 177.06250,121.87500 C 179.03545,123.69642 179.05900,124.03110 177.62500,126.40625 C 177.25501,127.01907 176.55022,127.97973 176.06250,128.53125 C 174.42829,130.37926 172.27691,129.43003 169.87500,125.81250 C 168.98352,124.46984 167.58065,122.85232 166.75000,122.21875 C 165.76331,121.46617 165.04569,120.39450 164.68750,119.15625 C 164.38594,118.11381 163.53046,116.42683 162.81250,115.40625 C 160.25680,111.77326 161.17199,110.73833 166.71875,110.87500 C 168.88953,110.92849 171.45700,110.84019 172.43750,110.65625 C 173.25897,110.50215 173.75995,110.43479 174.28125,110.62500 z M 192.75000,113.34375 C 195.17101,113.63856 198.71604,114.97635 200.34375,116.40625 C 201.23093,117.18563 202.66077,118.08772 203.53125,118.37500 C 206.10009,119.22280 208.93544,123.58984 208.46875,126.03125 C 208.20060,127.43399 206.78071,129.09375 205.84375,129.09375 C 205.48056,129.09375 204.55875,128.19683 203.78125,127.09375 C 202.42528,125.17002 200.75000,124.38719 200.75000,125.68750 C 200.75000,126.02570 201.63794,127.47414 202.75000,128.90625 C 204.81139,131.56091 205.52036,133.12680 205.00000,133.96875 C 204.60883,134.60167 203.49944,134.54162 201.75000,133.78125 C 200.26431,133.13550 199.87192,132.47166 199.00000,129.21875 C 198.40831,127.01131 196.89309,125.08812 194.34375,123.31250 C 193.00296,122.37864 192.03069,121.12024 190.78125,118.65625 C 189.83673,116.79359 189.17092,114.96269 189.31250,114.59375 C 189.45407,114.22480 190.13212,113.69960 190.81250,113.43750 C 191.25311,113.26777 191.94300,113.24548 192.75000,113.34375 z M 265.59375,118.96875 C 268.22000,119.06111 268.88271,120.66473 266.75000,123.09375 C 265.59306,124.41144 265.37499,125.02682 265.37500,127.00000 C 265.37500,129.99694 264.48194,131.31250 262.50000,131.31250 C 260.96283,131.31250 258.50458,132.87018 256.46875,135.09375 C 255.85593,135.76308 254.78692,136.59310 254.12500,136.93750 C 252.56856,137.74732 251.53894,137.73404 250.31250,136.87500 C 248.17803,135.37996 249.65418,132.92237 254.00000,130.75000 C 256.46590,129.51736 258.01807,128.03031 257.59375,127.34375 C 257.14258,126.61373 252.94888,128.07718 249.96875,130.00000 C 248.48091,130.95999 247.00808,131.74999 246.71875,131.75000 C 246.03081,131.75000 246.03637,127.50055 246.71875,125.46875 C 247.48364,123.19123 248.25529,122.52639 250.56250,122.21875 C 251.71615,122.06492 253.32241,121.55165 254.12500,121.06250 C 254.97974,120.54157 256.36557,120.18531 257.46875,120.18750 C 258.50462,120.18956 260.70059,119.82735 262.34375,119.40625 C 263.62819,119.07708 264.71833,118.93796 265.59375,118.96875 z M 211.15625,119.12500 C 211.78026,119.18975 212.60557,119.41926 213.59375,119.78125 C 214.98848,120.29216 217.03558,121.03322 218.15625,121.43750 C 219.57670,121.94992 220.63205,122.76633 221.65625,124.12500 C 222.46430,125.19692 224.09582,126.66935 225.28125,127.40625 C 227.27574,128.64610 227.47468,128.92845 227.93750,131.25000 C 228.79987,135.57564 229.31961,137.28545 230.18750,138.78125 C 230.65009,139.57850 230.91285,140.50081 230.78125,140.84375 C 230.13568,142.52609 226.77787,141.74662 224.37500,139.34375 C 223.19170,138.16045 222.38130,136.82160 221.90625,135.18750 C 221.10330,132.42545 219.75327,130.84050 218.90625,131.68750 C 218.36812,132.22564 218.39265,132.26152 220.03125,136.25000 C 220.70449,137.88872 220.17761,138.90624 218.65625,138.90625 C 217.20641,138.90625 215.69222,137.49499 215.28125,135.75000 C 215.13224,135.11732 213.93931,133.56484 212.59375,132.31250 C 209.79337,129.70612 209.27145,128.42150 210.28125,126.46875 C 210.93793,125.19887 210.94563,124.95697 210.12500,122.87500 C 209.03563,120.11125 209.28423,118.93075 211.15625,119.12500 z M 283.81250,126.59375 C 284.41516,126.74501 286.33738,127.95062 288.09375,129.28125 C 290.13475,130.82752 291.91823,131.81196 293.03125,132.00000 C 295.13674,132.35573 297.00000,134.36140 297.00000,136.25000 C 297.00000,137.84237 295.89372,138.49398 293.81250,138.15625 C 292.58029,137.95629 292.00507,138.14287 290.87500,139.09375 C 289.15722,140.53916 287.25496,141.12500 284.25000,141.12500 C 282.57053,141.12500 281.31435,141.48388 279.46875,142.46875 C 276.58002,144.01026 275.55994,144.08018 273.40625,143.00000 C 271.64288,142.11558 270.72836,140.65927 270.71875,138.62500 C 270.70851,136.45084 271.46409,136.11679 276.37500,136.28125 C 280.49578,136.41926 280.75000,136.40320 280.75000,135.56250 C 280.75000,134.82819 280.33575,134.61113 278.50000,134.37500 C 275.09808,133.93741 271.95654,132.91659 271.43750,132.09375 C 270.39950,130.44817 274.51913,127.90167 279.93750,126.84375 C 281.45766,126.54694 283.20982,126.44249 283.81250,126.59375 z M 193.59375,127.00000 C 195.03596,126.81134 195.63119,127.65833 197.00000,130.40625 C 198.52741,133.47261 198.52055,134.29595 196.90625,135.81250 C 195.85159,136.80330 195.74825,136.82972 191.06250,136.34375 C 187.60007,135.98465 186.11335,135.95907 185.68750,136.31250 C 184.58371,137.22856 186.21070,138.07116 190.09375,138.56250 C 194.94767,139.17672 195.67408,139.16039 198.15625,138.43750 C 199.87421,137.93718 200.35754,137.92493 200.93750,138.40625 C 201.78141,139.10663 201.83014,140.68380 201.06250,141.68750 C 200.61156,142.27710 199.33175,142.45662 194.28125,142.65625 C 186.71744,142.95522 184.84720,142.49354 181.93750,139.62500 C 180.34776,138.05775 179.52586,137.60820 177.75000,137.34375 C 173.53748,136.71645 173.29583,135.12507 176.93750,132.31250 C 178.29858,131.26131 179.80371,129.67484 180.31250,128.81250 C 180.97020,127.69778 181.45606,127.32655 181.96875,127.53125 C 182.36536,127.68960 184.21834,127.92855 186.09375,128.06250 C 188.75145,128.25230 190.02458,128.14293 191.81250,127.50000 C 192.53408,127.24052 193.11301,127.06289 193.59375,127.00000 z M 262.12500,135.03125 C 263.61600,134.83155 264.04639,134.99488 265.96875,136.68750 C 267.43883,137.98190 268.60591,139.60975 269.62500,141.75000 C 270.45031,143.48329 271.40715,145.25854 271.71875,145.68750 C 272.73529,147.08695 271.64559,147.99870 268.65625,148.25000 C 266.52483,148.42919 265.43633,148.82407 263.12500,150.31250 C 261.54403,151.33059 259.64163,152.28817 258.90625,152.43750 C 256.96742,152.83119 254.60193,151.48847 250.43750,147.62500 C 247.58932,144.98265 246.96939,144.20328 247.40625,143.75000 C 247.84039,143.29955 248.44584,143.30230 250.25000,143.71875 C 251.49996,144.00728 253.09583,144.25000 253.81250,144.25000 C 255.64270,144.25000 255.51378,143.02099 253.59375,142.21875 C 251.53860,141.36006 251.24912,140.75743 252.75000,140.40625 C 253.43413,140.24618 255.44577,139.02813 257.21875,137.68750 C 259.36524,136.06444 261.00706,135.18097 262.12500,135.03125 z M 206.46875,137.84375 C 207.61306,137.51729 208.99230,138.24977 211.56250,140.31250 C 214.33672,142.53896 215.83198,143.19820 217.00000,142.75000 C 217.89518,142.40649 218.31701,143.23510 217.65625,144.03125 C 217.33879,144.41376 216.33862,144.68749 215.21875,144.68750 C 212.94631,144.68750 208.60885,146.78571 208.37500,148.00000 C 208.11701,149.33962 209.20347,149.55182 211.84375,148.68750 C 214.57878,147.79215 220.57771,146.45972 221.81250,146.46875 C 222.95962,146.47715 222.80265,148.36400 221.53125,149.87500 C 220.94815,150.56797 219.33489,151.90285 217.96875,152.84375 C 215.54607,154.51232 213.24060,155.13851 211.21875,154.65625 C 208.46594,153.99965 206.07573,152.77714 204.15625,151.06250 C 202.96539,149.99872 201.80608,149.15625 201.59375,149.15625 C 201.24071,149.15625 199.84375,146.83201 199.84375,146.25000 C 199.84375,146.11328 200.66858,145.70769 201.65625,145.31250 C 203.75795,144.47157 204.31251,143.59209 204.31250,141.21875 C 204.31250,139.97049 204.61490,139.21408 205.37500,138.50000 C 205.73201,138.16460 206.08731,137.95257 206.46875,137.84375 z M 302.65625,141.84375 C 303.31705,141.72626 303.84273,141.79500 304.68750,142.00000 C 305.72774,142.25245 308.29142,142.63283 310.37500,142.81250 C 314.02561,143.12730 314.18279,143.16429 314.31250,144.28125 C 314.44625,145.43299 314.26113,145.61156 310.03125,149.12500 C 309.28001,149.74901 309.04187,150.46195 309.03125,151.90625 C 309.01390,154.26572 308.60010,154.82066 305.43750,156.84375 C 304.06917,157.71906 302.60089,158.96285 302.18750,159.59375 C 301.66551,160.39042 301.05561,160.71875 300.15625,160.71875 C 298.66427,160.71875 297.29245,159.57303 297.65625,158.62500 C 297.79291,158.26887 297.90625,157.82062 297.90625,157.62500 C 297.90625,157.42937 298.99555,156.42414 300.34375,155.40625 C 302.79008,153.55924 303.50725,152.26249 302.03125,152.28125 C 301.60228,152.28670 300.73782,152.67691 300.12500,153.15625 C 299.51219,153.63561 298.49123,154.02580 297.84375,154.03125 C 296.88164,154.03935 296.52341,153.71436 295.93750,152.25000 C 294.19764,147.90165 295.50235,144.88600 299.93750,142.87500 C 301.22622,142.29067 301.99545,141.96124 302.65625,141.84375 z M 293.21875,142.21875 C 294.71613,142.04553 295.15303,143.44238 293.75000,145.56250 C 292.82986,146.95292 292.57457,147.93703 292.46875,150.56250 L 292.34375,153.81250 L 290.56250,154.71875 C 289.18693,155.42009 288.49616,156.20929 287.56250,158.15625 C 286.89698,159.54404 286.00004,160.86338 285.56250,161.09375 C 285.12494,161.32412 283.05232,161.64443 280.96875,161.81250 C 278.88517,161.98058 276.84584,162.22877 276.43750,162.34375 C 274.76484,162.81474 274.91114,160.37202 276.62500,159.28125 C 277.16698,158.93632 278.86931,158.19166 280.40625,157.62500 C 283.33360,156.54571 285.57243,154.54097 285.12500,153.37500 C 284.80586,152.54333 284.52615,152.53428 283.28125,153.40625 C 282.35150,154.05747 276.89470,155.81250 275.81250,155.81250 C 275.55216,155.81250 274.99676,155.56753 274.56250,155.25000 C 273.81479,154.70326 273.80188,154.50558 274.50000,151.78125 C 275.41173,148.22334 275.90986,147.45587 278.28125,145.81250 C 279.98042,144.63497 280.62784,144.47469 284.96875,144.21875 C 288.85244,143.98977 290.08833,143.75202 291.40625,142.93750 C 292.11503,142.49945 292.71962,142.27649 293.21875,142.21875 z M 237.96875,143.12500 L 238.96875,142.96875 C 239.97541,142.82573 242.46771,144.76342 247.90625,149.84375 C 250.01978,151.81808 250.32092,152.35272 250.53125,154.21875 C 250.75341,156.18980 250.67301,156.44684 249.21875,157.96875 C 247.36431,159.90945 246.81985,160.91488 245.90625,164.00000 C 244.91070,167.36188 244.10312,168.67878 242.50000,169.65625 C 240.55209,170.84397 239.71847,170.73562 238.93750,169.21875 C 238.83521,169.69862 238.46048,168.27708 238.41002,167.21708 C 238.35956,166.15708 237.58850,147.78060 237.54264,146.49834 C 237.49677,145.21607 237.96875,143.12500 237.96875,143.12500 z M 320.78125,143.03125 C 321.13120,142.94907 321.45744,142.95358 321.78125,143.06250 C 322.21300,143.20773 322.63934,143.50750 323.15625,143.93750 C 325.28092,145.70492 326.24649,146.03126 329.68750,146.03125 C 334.84761,146.03125 335.45749,147.88791 331.18750,150.62500 C 328.34474,152.44723 327.95366,152.92549 327.56250,155.09375 C 327.20791,157.05929 325.58181,158.93751 324.21875,158.93750 C 323.70997,158.93750 322.08099,159.44969 320.62500,160.06250 C 319.16902,160.67532 317.47769,161.18750 316.87500,161.18750 C 315.83974,161.18750 314.40625,160.15463 314.40625,159.43750 C 314.40625,158.70053 315.69941,157.42315 317.12500,156.75000 C 319.69928,155.53448 319.07947,154.73866 315.50000,154.59375 C 310.01093,154.37155 310.11748,152.80731 316.06250,146.81250 C 318.43272,144.42244 319.73140,143.27778 320.78125,143.03125 z M 233.91739,147.30641 C 233.88991,148.59156 233.43603,167.83618 233.40556,168.96378 C 233.37509,170.09137 232.43136,170.51781 232.40625,170.53125 C 230.77837,171.40246 230.05974,170.94871 229.31250,168.65625 C 228.93479,167.49747 227.62067,165.97007 224.96875,163.56250 C 221.07199,160.02475 219.89413,158.40974 219.90625,156.62500 C 219.91472,155.37542 225.54351,148.05937 227.81250,146.34375 C 229.79936,144.84145 231.46276,144.51472 232.03125,145.12500 C 233.13893,146.31412 233.94487,146.02125 233.91739,147.30641 z M 169.87500,145.21875 C 170.43951,145.29692 171.10653,145.73198 172.25000,146.56250 C 173.70916,147.62231 175.02660,148.08790 177.34375,148.43750 C 179.83718,148.81369 180.49467,149.10267 180.62500,149.78125 C 180.71453,150.24738 181.35225,151.56445 182.06250,152.71875 C 183.43126,154.94327 183.69271,156.65102 182.81250,157.53125 C 181.87971,158.46404 181.13785,158.10777 178.09375,155.43750 C 174.70905,152.46845 173.84539,152.06310 173.09375,152.96875 C 172.39665,153.80871 173.03563,154.55710 176.00000,156.46875 C 179.09534,158.46486 179.71023,159.30610 179.87500,161.62500 L 180.03125,163.62500 L 183.21875,163.84375 C 185.54395,164.00638 186.66583,164.32583 187.37500,164.96875 L 188.34375,165.84375 L 187.34375,166.62500 C 186.47138,167.33139 185.71545,167.38848 180.31250,167.15625 C 175.37178,166.94388 173.77512,167.05272 171.78125,167.65625 C 170.43306,168.06433 168.56609,168.49903 167.65625,168.62500 C 165.67827,168.89885 164.57678,169.94012 165.56250,170.59375 C 166.33517,171.10609 169.64916,170.67470 171.71875,169.81250 C 174.14496,168.80174 176.16172,168.99009 176.75000,170.28125 C 177.56737,172.07516 176.52719,173.82125 173.37500,175.87500 C 170.78985,177.55929 170.38027,177.65280 167.50000,177.62500 C 164.17397,177.59289 161.02578,176.81677 159.81250,175.71875 C 159.39702,175.34275 158.15916,174.91318 157.06250,174.75000 C 154.56165,174.37788 153.06251,173.46615 153.06250,172.31250 C 153.06250,171.82243 153.83554,170.56756 154.78125,169.53125 C 155.72697,168.49494 156.72289,167.21768 157.00000,166.68750 C 157.48713,165.75553 159.29743,164.92892 163.12500,163.90625 C 164.13311,163.63690 165.49256,162.88245 166.12500,162.25000 C 167.04157,161.33343 167.65735,161.12647 169.18750,161.18750 C 171.98822,161.29920 172.21875,161.25516 172.21875,160.53125 C 172.21875,159.73540 170.37055,158.71889 168.12500,158.31250 C 166.37293,157.99541 164.65624,156.31242 164.65625,154.90625 C 164.65625,154.45909 163.80634,153.55133 162.75000,152.84375 C 160.76134,151.51166 160.04492,149.70433 161.15625,148.81250 C 161.47505,148.55667 162.94708,148.01232 164.40625,147.59375 C 165.86541,147.17517 167.52883,146.43770 168.12500,145.96875 C 168.85161,145.39721 169.31049,145.14058 169.87500,145.21875 z M 155.62500,148.87500 C 156.86509,148.62699 156.99297,148.74493 157.50000,150.28125 C 157.80203,151.19641 158.74689,152.68763 159.59375,153.62500 C 162.78420,157.15645 160.06627,158.99476 155.65625,156.28125 C 152.97721,154.63282 150.69008,154.54283 150.46875,156.09375 C 150.35823,156.86818 150.67699,157.13666 152.25000,157.56250 C 154.88845,158.27676 158.58191,160.37716 158.75000,161.25000 C 158.84379,161.73704 158.14341,162.33721 156.56250,163.12500 C 154.12807,164.33813 152.85186,164.53647 151.71875,163.87500 C 151.35106,163.66035 149.84577,163.26913 148.37500,163.00000 C 145.15587,162.41096 143.76363,161.46225 143.09375,159.40625 C 142.74452,158.33438 142.05203,157.56909 140.81250,156.87500 C 138.26484,155.44839 138.47746,154.54537 141.75000,152.93750 C 143.24675,152.20212 145.11676,151.04908 145.90625,150.37500 C 147.20572,149.26543 147.66605,149.15625 150.81250,149.15625 C 152.72406,149.15625 154.88631,149.02274 155.62500,148.87500 z M 186.43750,149.90625 C 187.13476,149.88955 188.03692,150.04096 189.18750,150.31250 C 190.75905,150.68339 192.86324,150.88342 193.84375,150.75000 C 200.07869,149.90162 199.64463,149.87145 201.18750,151.25000 C 202.46602,152.39236 202.78567,153.14422 203.90625,158.03125 C 204.60149,161.06332 205.06332,163.73391 204.93750,163.93750 C 204.31910,164.93810 202.85211,163.99915 200.25000,160.93750 C 196.88463,156.97779 195.51385,155.89293 195.12500,156.90625 C 194.96705,157.31787 195.55742,158.23749 196.68750,159.31250 C 198.72503,161.25075 199.11702,163.06197 197.65625,163.84375 C 196.58582,164.41663 196.43957,164.38988 192.06250,163.34375 C 190.05595,162.86418 187.89247,162.02454 187.15625,161.43750 C 185.88627,160.42485 185.87456,160.33708 186.40625,158.56250 C 186.90749,156.88950 186.84378,156.56641 185.81250,154.53125 C 184.22122,151.39101 184.34572,149.95634 186.43750,149.90625 z M 267.87500,151.00000 C 268.38244,150.97057 268.83696,151.04191 269.25000,151.18750 C 270.40553,151.59481 270.42263,151.64421 270.56250,156.62500 C 270.69909,161.48940 270.67745,161.71050 269.62500,162.65625 C 267.21137,164.82513 265.38814,166.11777 263.87500,166.75000 C 262.35724,167.38417 258.65382,167.60318 257.46875,167.12500 C 256.37172,166.68234 256.94563,165.05119 258.90625,163.06250 C 262.50993,159.40718 259.57508,159.32161 255.71875,162.96875 C 252.58436,165.93313 249.71982,166.57852 249.40625,164.37500 C 249.29697,163.60703 249.89812,162.73115 251.75000,160.93750 C 253.69734,159.05140 254.21875,158.21977 254.21875,157.15625 C 254.21875,155.51215 255.40880,154.93750 258.75000,154.93750 C 260.66830,154.93750 261.24235,154.71898 262.81250,153.37500 C 264.47390,151.95290 266.35269,151.08829 267.87500,151.00000 z M 208.96875,156.40625 C 209.71374,156.59551 210.51228,157.01710 211.43750,157.71875 C 214.62731,160.13777 215.63560,160.71630 216.62500,160.71875 C 217.52743,160.72098 219.45541,162.23248 223.81250,166.37500 C 225.37457,167.86015 225.73918,168.50433 225.62500,169.50000 C 225.39867,171.47375 223.77583,171.32180 220.12500,168.96875 C 216.66435,166.73827 214.86770,166.47862 214.62500,168.18750 C 214.26744,170.70512 208.32269,167.90935 208.31250,165.21875 C 208.31010,164.58738 207.79792,162.99876 207.18750,161.68750 C 205.91084,158.94511 205.75149,156.92641 206.78125,156.53125 C 207.51285,156.25051 208.22376,156.21699 208.96875,156.40625 z M 292.03125,157.25000 C 292.89535,157.12761 293.05990,157.26090 292.93750,158.12500 C 292.83944,158.81731 292.44230,159.21443 291.75000,159.31250 C 290.88590,159.43489 290.72135,159.30160 290.84375,158.43750 C 290.94181,157.74519 291.33895,157.34807 292.03125,157.25000 z M 309.34375,159.09375 C 310.28831,159.30621 311.32970,160.25388 313.03125,162.06250 C 314.88099,164.02862 316.43303,165.24409 317.28125,165.43750 C 319.09202,165.85036 319.62622,166.34674 319.96875,167.90625 C 320.16278,168.78970 320.01033,169.61257 319.53125,170.34375 C 318.88995,171.32249 318.53095,171.43750 315.93750,171.43750 C 313.91260,171.43750 312.49937,171.69106 311.28125,172.31250 C 309.92508,173.00436 308.63443,173.22023 305.59375,173.21875 C 302.03020,173.21701 301.52892,173.09700 299.78125,171.93750 C 294.65781,168.53832 296.17836,166.08794 302.03125,168.31250 C 304.98002,169.43327 305.93750,169.45438 305.93750,168.37500 C 305.93750,167.18962 304.93418,166.50116 302.25000,165.84375 C 300.96671,165.52945 298.81694,164.84554 297.46875,164.34375 L 295.00000,163.43750 L 297.50000,163.40625 C 300.96777,163.38378 304.09830,162.37302 306.25000,160.53125 C 307.56918,159.40208 308.39919,158.88129 309.34375,159.09375 z M 277.96875,164.84375 C 278.67710,164.78760 279.57181,164.82748 280.93750,164.96875 C 282.78816,165.16019 285.67352,165.37238 287.34375,165.43750 C 289.01400,165.50263 290.65404,165.66049 290.96875,165.78125 C 291.28345,165.90202 291.98530,166.96988 292.53125,168.15625 C 293.07719,169.34263 294.41699,171.17644 295.53125,172.21875 C 297.45175,174.01527 297.53414,174.14409 296.90625,175.09375 C 296.39222,175.87123 295.69519,176.16952 293.78125,176.34375 C 292.35599,176.47349 290.95491,176.87254 290.46875,177.31250 C 290.00608,177.73121 288.87114,178.37296 287.96875,178.75000 C 286.06455,179.54562 277.67793,179.70923 276.40625,178.96875 C 275.44728,178.41034 273.44534,174.55216 273.71875,173.78125 C 273.98523,173.02991 275.97427,173.06106 278.28125,173.87500 C 281.34183,174.95484 285.59899,174.51259 284.31250,173.25000 C 283.53558,172.48750 274.38514,169.65624 272.71875,169.65625 C 270.65216,169.65625 268.50000,168.53618 268.50000,167.46875 C 268.50000,166.49082 269.64405,166.10224 272.62500,166.09375 C 273.80152,166.09040 275.41523,165.74311 276.18750,165.34375 C 276.75740,165.04904 277.26040,164.89990 277.96875,164.84375 z M 194.21875,167.09375 C 195.19467,166.94009 196.23590,166.99091 198.12500,167.12500 C 202.37799,167.42689 205.40142,168.38726 205.06250,169.31250 C 204.94899,169.62239 204.58706,169.77995 204.25000,169.68750 C 201.79059,169.01282 194.56089,170.72169 189.68750,173.12500 C 186.85503,174.52184 186.40489,175.60304 188.56250,175.81250 C 189.82978,175.93553 192.11338,175.23331 198.03125,173.00000 C 200.14397,172.20270 202.09374,172.38129 202.09375,173.37500 C 202.09375,174.32803 201.08463,174.93065 198.93750,175.25000 C 196.06642,175.67704 195.07199,176.44045 194.71875,178.53125 C 194.54397,179.56578 193.91127,180.88143 193.18750,181.65625 C 191.93346,182.99870 191.90063,183.00001 186.81250,183.00000 C 181.94238,183.00000 181.70004,182.95280 180.68750,181.87500 C 180.10527,181.25524 178.70885,180.51110 177.59375,180.18750 C 175.94505,179.70904 175.54850,179.36032 175.43750,178.43750 C 175.32997,177.54351 175.67462,177.03376 177.09375,176.03125 C 178.32473,175.16164 179.11501,174.12051 179.62500,172.75000 C 180.03547,171.64693 180.66661,170.52577 181.00000,170.25000 C 181.33340,169.97423 182.84317,169.75000 184.37500,169.75000 C 186.50922,169.75000 187.97645,169.42811 190.65625,168.31250 C 192.32335,167.61848 193.24283,167.24741 194.21875,167.09375 z M 259.00000,170.68750 C 259.83177,170.82248 261.73908,171.78117 263.25000,172.81250 C 264.76090,173.84384 267.08588,175.17677 268.40625,175.78125 C 270.35842,176.67499 271.13012,177.36343 272.53125,179.53125 C 275.56044,184.21800 275.39366,184.76853 270.93750,184.81250 C 268.06839,184.84081 265.33087,185.60215 264.06250,186.75000 C 263.63045,187.14099 262.66902,187.46875 261.90625,187.46875 C 260.79296,187.46875 260.13847,187.03907 258.65625,185.28125 C 256.57773,182.81626 255.54864,182.31826 251.84375,181.93750 C 248.02394,181.54494 245.71081,179.57260 247.09375,177.90625 C 247.52311,177.38890 248.26951,177.53000 251.81250,178.81250 C 256.22529,180.40987 258.74122,180.68505 260.65625,179.81250 C 263.26184,178.62532 261.42720,177.23978 257.25000,177.21875 C 253.00378,177.19736 251.88788,175.85915 253.81250,173.15625 C 255.09403,171.35651 257.14326,170.38619 259.00000,170.68750 z M 212.43750,173.15625 C 213.05396,173.22401 213.64235,173.38122 214.15625,173.65625 C 216.09351,174.69304 214.92660,176.47577 211.28125,178.06250 C 209.69467,178.75309 209.19210,179.19890 209.31250,179.78125 C 209.69554,181.63400 214.97540,179.85215 218.37500,176.71875 C 220.17326,175.06131 220.74007,174.77729 222.31250,174.81250 C 223.32158,174.83510 224.80634,175.20096 225.62500,175.62500 C 227.04839,176.36227 227.07354,176.44358 226.34375,177.25000 C 225.84230,177.80409 224.69995,178.17913 222.96875,178.37500 C 219.78847,178.73480 218.45224,179.68023 217.21875,182.46875 C 216.10148,184.99451 215.69264,185.29735 213.62500,184.96875 C 212.30394,184.75879 211.37526,185.03287 208.53125,186.53125 C 204.64062,188.58104 203.87798,188.67617 201.65625,187.43750 C 200.58021,186.83759 199.21617,186.59375 197.28125,186.59375 C 194.60439,186.59375 194.50000,186.53019 194.50000,185.46875 C 194.50000,184.85975 195.36445,183.07947 196.40625,181.50000 C 197.82872,179.34336 198.67230,178.48485 199.84375,178.09375 C 200.70169,177.80732 203.13484,176.60824 205.25000,175.40625 C 208.25403,173.69914 210.58813,172.95297 212.43750,173.15625 z M 273.62500,220.96875 C 290.11887,221.44000 301.42398,229.46939 301.65625,266.46875 C 301.87377,301.11713 290.35762,315.69937 270.09375,316.40625 C 255.49191,316.91562 241.10060,307.21980 242.06250,265.75000 C 242.91149,229.38409 257.84271,220.51783 273.62500,220.96875 z "
           style="fill:#000000;fill-opacity:1.0000000;fill-rule:evenodd;stroke:none;stroke-width:0.17716534;stroke-linecap:butt;stroke-linejoin:miter;stroke-miterlimit:4.0000000;stroke-opacity:1.0000000" />
      </g>
    </g>
  </g>
</svg>