<!-- Created with Inkscape (http://www.inkscape.org/) -->
<svg role="img" viewBox="-429.16 -25.36 1218.49 915.21"
   xmlns="http://www.w3.org/2000/svg"
   xmlns:xlink="http://www.w3.org/1999/xlink"
   id="svg2"
   version="1.0"><title>Herb Luboń</title>
  <metadata
     id="metadata7">
    <rdf:RDF>
      <cc:Work
         rdf:about="">
        <dc:format>image/svg+xml</dc:format>
        <dc:type
           rdf:resource="http://purl.org/dc/dcmitype/StillImage" />
      </cc:Work>
    </rdf:RDF>
  </metadata>
  <defs
     id="defs5">
    <radialGradient
       r="7.7925749"
       fy="442.06165"
       fx="258.88525"
       cy="442.06165"
       cx="258.88525"
       gradientTransform="matrix(1.449740,-0.120050,0.115892,1.399529,-167.6624,-145.5075)"
       gradientUnits="userSpaceOnUse"
       id="radialGradient4548"
       xlink:href="#linearGradient3554" />
    <radialGradient
       r="7.7925749"
       fy="442.06165"
       fx="258.88525"
       cy="442.06165"
       cx="258.88525"
       gradientTransform="matrix(1.449740,-0.120050,0.115892,1.399529,-167.6624,-145.5075)"
       gradientUnits="userSpaceOnUse"
       id="radialGradient4416"
       xlink:href="#linearGradient3554" />
    <radialGradient
       r="7.7925749"
       fy="442.06165"
       fx="258.88525"
       cy="442.06165"
       cx="258.88525"
       gradientTransform="matrix(1.449740,-0.120050,0.115892,1.399529,-167.6624,-145.5075)"
       gradientUnits="userSpaceOnUse"
       id="radialGradient4098"
       xlink:href="#linearGradient3554" />
    <radialGradient
       r="7.7925749"
       fy="442.06165"
       fx="258.88525"
       cy="442.06165"
       cx="258.88525"
       gradientTransform="matrix(1.449740,-0.120050,0.115892,1.399529,-167.6624,-145.5075)"
       gradientUnits="userSpaceOnUse"
       id="radialGradient3572"
       xlink:href="#linearGradient3554" />
    <linearGradient
       id="linearGradient3554">
      <stop
         id="stop3556"
         offset="0"
         style="stop-color:#ffffff;stop-opacity:1;" />
      <stop
         id="stop3558"
         offset="1"
         style="stop-color:#000000;stop-opacity:1;" />
    </linearGradient>
  </defs>
  <sodipodi:namedview
     borderopacity="1.0"
     bordercolor="#666666"
     pagecolor="#ffffff"
     id="base" />
  <path
     style="fill:none;fill-opacity:0.75;fill-rule:evenodd;stroke:#000000;stroke-width:1px;stroke-linecap:butt;stroke-linejoin:miter;stroke-opacity:1"
     d="M -384.02687,114.71639 C -383.90402,114.71639 -383.78117,114.71639 -384.02687,114.71639 z "
     id="path2997" />
  <g
     id="g3448">
    <path
       id="rect2571"
       d="M 377.23906,8.98575 L 9.5775791,8.98575 L 9.5339539,499.60205 C 18.050806,698.24229 178.67851,855.95406 374.85097,855.95404 L 377.23906,8.98575 z "
       style="opacity:1;fill:#d9251b;fill-opacity:1;fill-rule:evenodd;stroke:#000000;stroke-width:7.26096106;stroke-linecap:round;stroke-linejoin:round;stroke-miterlimit:4;stroke-dasharray:none;stroke-dashoffset:0;stroke-opacity:1" />
    <g
       transform="translate(-5.000000,0.000000)"
       id="g3326">
      <path
         id="path1312"
         d="M -4.7018302,8.5361896 C -4.1732907,8.5361896 -3.6447512,8.5361896 -4.7018302,8.5361896 z "
         style="fill:none;fill-opacity:0.75;fill-rule:evenodd;stroke:#000000;stroke-width:1.11829042px;stroke-linecap:butt;stroke-linejoin:miter;stroke-opacity:1" />
      <path
         id="path2189"
         d="M 296.73661,97.046117 C 296.20807,97.046117 295.67953,97.046117 296.73661,97.046117 z "
         style="fill:none;fill-opacity:0.75;fill-rule:evenodd;stroke:#000000;stroke-width:1.11829042px;stroke-linecap:butt;stroke-linejoin:miter;stroke-opacity:1" />
      <a
         style="fill:none;fill-opacity:1"
         id="a2345"
         transform="matrix(1.072924,0.000000,0.000000,1.165575,787.4207,-1.717934)">
        <path
           style="fill:#4f0108;fill-opacity:1;fill-rule:evenodd;stroke:none;stroke-width:1px;stroke-linecap:butt;stroke-linejoin:miter;stroke-opacity:1"
           d="M -480.79004,91.128264 C -492.01618,80.496289 -488.45868,63.318502 -482.29716,51.189511 C -473.6509,38.445476 -461.55157,36.060668 -446.87978,41.393213 C -436.16027,49.51274 -427.3517,59.543203 -412.96952,64.000055 C -362.60514,53.277689 -335.88786,95.031055 -338.86782,124.17217 C -341.1995,144.96064 -340.58001,167.80066 -331.4947,184.78346 C -323.25646,199.85469 -312.18633,216.00586 -309.97087,231.07709 C -272.15007,226.59 -231.24533,212.57247 -203.46157,188.0113 C -192.89901,183.74271 -196.69702,177.67904 -201.95445,171.43295 C -226.41148,155.25801 -228.5425,93.726927 -170.30487,84.773392 C -124.89289,79.479955 -89.055851,104.92784 -81.384629,169.92583 C -79.957977,208.10627 -87.406345,247.04028 -101.73079,284.46716 C -108.11794,349.1982 -127.26338,388.4201 -147.69803,431.41163 C -153.81316,439.08582 -158.13813,447.35673 -158.24789,457.03271 C -166.78825,463.0612 -172.31437,463.0612 -174.82624,457.03271 L -183.86898,441.96148 C -196.91949,451.63432 -207.34312,432.41157 -218.5328,421.61533 C -234.40525,436.99634 -244.76591,416.55075 -256.96443,408.05122 L -272.03566,410.31191 L -253.19662,434.42587 L -267.51429,441.20792 C -269.66003,448.49235 -263.23156,455.77677 -255.45731,463.0612 C -248.1866,470.51453 -242.66089,467.49777 -237.37183,463.0612 C -229.60113,455.00067 -220.40431,448.93672 -202.70801,454.77203 C -181.28343,455.73994 -183.15595,468.3564 -180.85473,478.88599 L -246.41457,478.88599 L -185.3761,479.63955 C -177.53424,495.04549 -181.66688,507.18565 -195.92596,516.56406 L -204.96869,501.49283 L -219.28636,500.73927 L -212.50431,512.79625 C -206.3265,539.79551 -222.70026,546.83443 -232.85047,550.47432 C -226.36727,537.78777 -228.53476,530.50789 -238.12539,527.86748 C -257.60422,521.98116 -256.57849,516.56202 -258.47155,506.76776 C -264.82507,500.13338 -266.57527,484.29238 -284.09264,499.98571 C -293.61323,504.61111 -303.60514,512.06448 -311.22085,505.26064 C -314.53911,509.7556 -320.66118,512.84865 -316.49578,521.08543 C -331.2125,519.63908 -345.31788,488.33306 -317.24934,484.16092 C -308.32318,475.40544 -296.31357,478.98376 -285.59976,477.37887 L -285.59976,469.08969 C -288.14246,464.76884 -289.35947,461.27655 -307.45304,447.23641 L -314.98866,464.56833 C -330.56959,457.04004 -334.6069,437.96814 -340.60974,420.86177 C -348.58645,429.52058 -357.02155,438.12846 -347.3918,448.74354 C -332.19169,464.30995 -333.70574,478.89317 -352.66673,492.4501 C -359.81441,565.44256 -305.42574,587.14219 -267.51429,554.99569 C -259.0068,591.78669 -269.0302,614.88095 -306.69948,617.54129 C -305.74618,629.11117 -308.07622,639.03938 -311.10138,648.62004 C -323.67451,650.71562 -335.32076,649.10367 -345.88467,643.16237 C -356.07401,664.31675 -369.35319,677.52095 -382.80918,689.88318 C -394.61497,679.46709 -406.42077,663.62446 -418.22656,643.16237 C -437.26456,648.97502 -436.65812,649.78714 -450.89893,649.67085 C -453.66369,638.69401 -454.88287,637.32797 -455.15107,616.78772 C -500.81966,617.32467 -508.08931,584.62794 -498.10407,558.7635 C -449.64735,583.27451 -413.21709,571.82667 -410.69095,490.94297 C -425.74472,482.08513 -432.22399,460.87552 -415.21232,452.51135 C -414.39703,444.76244 -411.80306,432.73927 -420.48725,426.89026 C -430.17046,436.01781 -436.17264,447.90613 -437.81916,463.0612 C -446.10148,464.05223 -450.82655,457.92878 -455.15107,451.00422 C -468.02935,456.31772 -478.3499,463.33638 -479.26504,476.6253 C -470.33321,480.00164 -448.92289,474.6673 -444.60121,483.40736 C -420.35836,487.42079 -422.28123,507.74805 -440.83341,520.33186 C -439.24781,514.16209 -438.70499,513.92946 -448.36902,510.53557 C -466.79806,518.09715 -470.50908,497.32941 -480.77216,496.2179 C -488.27438,492.87697 -491.46289,496.0066 -495.08983,498.47859 C -517.81987,503.82734 -498.9393,524.28086 -525.98584,531.63529 L -524.47872,547.46007 C -542.48137,545.77481 -555.76788,535.59602 -543.31775,512.79625 L -541.81063,505.26064 C -558.25868,497.16691 -560.99125,509.6464 -565.92459,518.82475 C -580.81678,509.6386 -588.66343,496.09445 -574.96733,484.16093 C -583.70342,458.9189 -565.52363,454.0272 -549.34624,454.77203 C -537.88656,453.64459 -527.91164,463.73117 -518.45023,465.32189 C -503.45867,471.29521 -495.26308,458.09064 -491.32202,440.45436 C -495.83587,441.59598 -500.22943,442.91803 -508.65393,438.19368 C -502.33506,429.65332 -495.30662,421.11295 -492.82914,412.57259 C -507.42166,419.56374 -505.94215,412.49186 -504.88612,405.79053 C -517.90334,418.68856 -535.52088,438.12821 -541.81063,419.35465 C -548.34149,435.09178 -567.6829,454.59324 -576.47445,439.7008 C -579.71328,455.84329 -588.05581,465.25501 -596.82061,467.58257 C -608.91864,437.55567 -656.11047,363.9627 -658.61264,290.49565 C -681.43335,230.20577 -702.18318,92.341999 -598.32773,85.526953 C -546.41006,80.672424 -515.9476,138.84571 -562.15679,176.70788 C -563.20456,180.97806 -564.41675,185.24824 -557.63542,189.51842 C -536.9098,204.86888 -502.79503,233.11065 -458.2555,229.24359 C -453.7653,213.39081 -448.11671,193.64618 -434.53064,183.70958 C -431.06642,174.58145 -430.75512,169.21857 -422.17474,165.50525 C -415.03429,160.6969 -419.31633,156.1019 -424.4399,153.87545 C -446.08631,141.05012 -449.89627,111.35443 -466.47237,92.635387 C -471.24493,85.14366 -476.01748,86.633979 -480.79004,91.128264 z "
           id="path2339" />
      </a>
      <g
         id="g2983"
         transform="translate(-19.51069,-1.888132)">
        <path
           style="fill:#ffff00;fill-opacity:1;fill-rule:evenodd;stroke:#ffff00;stroke-width:1.11829042px;stroke-linecap:butt;stroke-linejoin:miter;stroke-opacity:1"
           d="M 301.16647,85.665127 C 294.86319,65.980499 301.97963,51.240944 316.8655,51.418532 C 332.84503,57.251068 339.26632,72.439889 358.09972,77.768501 C 358.33777,96.095559 356.36551,116.42361 361.33377,130.46843 C 363.21748,144.49316 380.58258,147.52393 369.41892,169.11506 C 357.44736,173.39845 348.7021,167.66788 342.73795,153.30508 C 331.69279,131.91266 320.68844,110.34286 307.97184,96.213479 C 306.06764,90.72065 311.18515,87.379642 314.43995,89.186821 C 328.46826,106.99628 343.39738,123.94947 350.8231,148.03508 C 353.12891,163.05447 366.68959,163.95248 366.42048,150.5329 C 354.6504,120.9631 344.14807,106.14195 322.96863,87.244452 C 313.6027,69.253746 303.027,73.518967 301.16647,85.665127 z "
           id="path2348" />
        <path
           style="fill:#c6c6c6;fill-opacity:1;fill-rule:evenodd;stroke:none;stroke-width:1px;stroke-linecap:butt;stroke-linejoin:miter;stroke-opacity:1"
           d="M 369.31459,103.90021 C 376.33899,102.59118 381.00637,107.17008 383.92933,110.64852 C 378.57796,120.48138 387.69783,127.02798 393.90896,122.02923 C 397.4489,121.471 397.75028,127.00078 396.38545,128.75391 C 393.5464,133.19858 382.15187,132.88739 374.2023,123.59676 C 370.30723,118.65375 367.73174,115.30123 369.31459,103.90021 z "
           id="path2432" />
        <path
           style="fill:#ffffff;fill-opacity:1;fill-rule:evenodd;stroke:none;stroke-width:1px;stroke-linecap:butt;stroke-linejoin:miter;stroke-opacity:1"
           d="M 433.75655,128.7539 C 429.23031,104.82188 411.29349,79.48507 378.31863,76.863459 C 369.36586,77.598386 365.23605,87.917207 370.89391,95.146103 C 385.8177,101.77925 404.65778,110.46058 402.85508,133.2713 C 397.25519,137.48809 383.52413,138.79522 375.84372,131.71139 C 366.92934,143.84649 394.51605,158.05242 369.16147,172.84733 C 366.91356,195.59775 342.55882,199.29838 344.6599,216.40305 C 366.11138,219.08021 370.18688,202.09212 381.53601,203.76652 C 388.19309,204.9648 382.57285,221.04779 389.7032,218.01623 C 405.45442,216.63381 398.59825,204.01421 408.26499,204.57311 C 419.1902,209.56255 406.82028,219.1173 440.1913,217.20964 C 423.91777,180.32785 441.20167,152.36282 433.75655,128.7539 z "
           id="path2430" />
      </g>
      <path
         id="path2464"
         d="M 306.04034,253.11932 C 336.14596,254.54759 331.19712,233.83634 328.64293,218.07582 C 318.07948,216.9339 303.11472,239.28609 306.04034,253.11932 z "
         style="fill:#ffffff;fill-opacity:1;fill-rule:evenodd;stroke:none;stroke-width:1px;stroke-linecap:butt;stroke-linejoin:miter;stroke-opacity:1" />
      <path
         style="fill:#ffffff;fill-opacity:1;fill-rule:evenodd;stroke:none;stroke-width:1px;stroke-linecap:butt;stroke-linejoin:miter;stroke-opacity:1"
         d="M 441.82202,259.57119 C 411.97879,256.53399 415.82255,245.47985 422.80243,221.20218 C 433.33389,221.62757 446.00605,246.18217 441.82202,259.57119 z "
         id="path2466" />
      <g
         id="g2443"
         transform="matrix(1.072924,0.000000,0.000000,1.165575,787.4207,-1.717934)">
        <g
           id="g2373">
          <path
             id="path2444"
             d="M -455.13365,234.88942 C -458.49222,242.7642 -459.10765,262.81933 -456.81452,268.91392 C -512.91489,256.76065 -551.86731,249.22293 -568.37936,233.74063 C -592.47315,214.46423 -603.79632,211.79481 -605.77642,216.98888 C -604.98149,246.37709 -611.52129,261.87082 -621.69749,265.05634 C -635.85971,256.95358 -632.58237,230.56285 -639.10152,193.48898 C -638.45139,265.88646 -637.88496,281.57818 -651.69258,283.11566 C -663.95081,248.91392 -685.31669,176.22874 -649.513,121.25636 C -624.99581,85.60094 -565.8441,85.748925 -555.01292,113.00512 C -542.90428,140.99701 -555.66627,159.43242 -566.58541,170.29677 C -570.68166,176.70325 -573.05948,184.25207 -563.7831,192.1444 C -535.66905,221.66933 -476.0607,236.42692 -455.13365,234.88942 z "
             style="fill:#ffffff;fill-opacity:1;fill-rule:evenodd;stroke:none;stroke-width:1px;stroke-linecap:butt;stroke-linejoin:miter;stroke-opacity:1" />
          <g
             id="g2302">
            <path
               style="fill:#ffffff;fill-opacity:1;fill-rule:evenodd;stroke:none;stroke-width:1px;stroke-linecap:butt;stroke-linejoin:miter;stroke-opacity:1"
               d="M -600.76019,217.89853 C -604.87704,226.08142 -603.61134,267.29576 -588.08491,274.80029 C -574.84067,269.03946 -575.61934,242.25079 -576.48712,231.42684 C -584.43517,226.99808 -592.81215,225.2554 -600.76019,217.89853 z "
               id="path1379" />
            <path
               style="fill:#f7f7ff;fill-opacity:1;fill-rule:evenodd;stroke:none;stroke-width:1px;stroke-linecap:butt;stroke-linejoin:miter;stroke-opacity:1"
               d="M -571.57749,233.36641 C -571.36769,245.38435 -573.6644,276.45995 -561.57648,281.39527 C -549.1822,276.88962 -549.0859,248.96269 -548.72874,241.87384 C -556.4834,239.70734 -564.63598,236.34606 -571.57749,233.36641 z "
               id="path2254" />
            <path
               style="fill:#f7f7ff;fill-opacity:1;fill-rule:evenodd;stroke:none;stroke-width:1px;stroke-linecap:butt;stroke-linejoin:miter;stroke-opacity:1"
               d="M -544.09275,246.83521 C -544.43986,256.9784 -543.25506,282.74969 -533.85305,289.23696 C -527.46609,286.51965 -523.08277,266.03725 -521.73435,252.82299 C -529.11085,251.11572 -536.29776,248.96097 -544.09275,246.83521 z "
               id="path2256" />
            <path
               style="fill:#f7f7ff;fill-opacity:1;fill-rule:evenodd;stroke:none;stroke-width:1px;stroke-linecap:butt;stroke-linejoin:miter;stroke-opacity:1"
               d="M -517.42986,256.44692 C -518.19712,267.03035 -517.30593,289.33009 -508.9714,292.22906 C -502.16241,291.72644 -498.8832,272.97255 -498.34986,259.91862 C -503.92468,259.57231 -512.27476,257.63266 -517.42986,256.44692 z "
               id="path2260" />
            <path
               id="path2262"
               d="M -493.59319,263.58069 C -494.36045,274.16412 -493.09683,292.183 -484.7623,295.08197 C -477.95331,294.57935 -476.45963,278.61008 -475.92629,265.55615 C -481.50111,265.20984 -488.43809,264.76643 -493.59319,263.58069 z "
               style="fill:#f7f7ff;fill-opacity:1;fill-rule:evenodd;stroke:none;stroke-width:1px;stroke-linecap:butt;stroke-linejoin:miter;stroke-opacity:1" />
            <path
               style="fill:#f7f7ff;fill-opacity:1;fill-rule:evenodd;stroke:none;stroke-width:1px;stroke-linecap:butt;stroke-linejoin:miter;stroke-opacity:1"
               d="M -471.30265,268.13171 C -472.06991,278.71514 -471.98334,292.848 -463.64881,295.74697 C -456.83982,295.24435 -455.9147,281.58174 -455.38136,268.52781 C -462.53553,268.76337 -466.14755,268.23684 -471.30265,268.13171 z "
               id="path2264" />
            <g
               id="g2435"
               transform="translate(-750.0847,3.321207)">
              <path
                 id="path2243"
                 d="M 127.62244,184.88333 C 124.33866,201.04914 124.55233,227.70606 130.11227,239.45002 C 133.14096,236.4886 134.11171,215.9367 135.09189,207.64916 C 131.29669,201.10486 129.34898,193.08256 127.62244,184.88333 z "
                 style="fill:#4f0108;fill-opacity:1;fill-rule:evenodd;stroke:none;stroke-width:1px;stroke-linecap:butt;stroke-linejoin:miter;stroke-opacity:1" />
              <path
                 id="path2245"
                 d="M 157.31482,218.65868 C 157.52466,224.37095 157.93359,251.96141 162.07885,256.8866 C 164.55162,253.40976 164.89112,229.27656 165.28463,223.72045 L 157.31482,218.65868 z "
                 style="fill:#4f0108;fill-opacity:1;fill-rule:evenodd;stroke:none;stroke-width:1px;stroke-linecap:butt;stroke-linejoin:miter;stroke-opacity:1" />
              <path
                 style="fill:#4f0108;fill-opacity:1;fill-rule:evenodd;stroke:none;stroke-width:1px;stroke-linecap:butt;stroke-linejoin:miter;stroke-opacity:1"
                 d="M 188.1042,235.74362 C 188.71864,241.27654 187.18284,259.6544 190.06784,264.71488 C 192.1253,261.46862 193.85688,243.33021 194.02563,238.0906 L 188.1042,235.74362 z "
                 id="path2247" />
              <path
                 id="path2249"
                 d="M 214.7459,246.80186 C 215.36034,252.33478 213.90198,266.88492 217.57438,272.41784 C 220.99618,269.03657 220.02113,252.60714 221.20909,248.48126 L 214.7459,246.80186 z "
                 style="fill:#4f0108;fill-opacity:1;fill-rule:evenodd;stroke:none;stroke-width:1px;stroke-linecap:butt;stroke-linejoin:miter;stroke-opacity:1" />
              <path
                 style="fill:#4f0108;fill-opacity:1;fill-rule:evenodd;stroke:none;stroke-width:1px;stroke-linecap:butt;stroke-linejoin:miter;stroke-opacity:1"
                 d="M 263.92401,261.7658 C 263.87346,265.96874 262.98367,275.37924 265.90795,279.58218 C 268.11472,276.82085 268.96933,266.67653 269.33161,262.15777 L 263.92401,261.7658 z "
                 id="path2251" />
              <path
                 id="path2253"
                 d="M 283.50397,266.59383 C 284.11841,272.12675 283.33463,276.54611 287.00703,282.07903 C 289.95502,279.60248 288.55097,270.86704 289.39911,266.82327 L 283.50397,266.59383 z "
                 style="fill:#4f0108;fill-opacity:1;fill-rule:evenodd;stroke:none;stroke-width:1px;stroke-linecap:butt;stroke-linejoin:miter;stroke-opacity:1" />
              <path
                 style="fill:#4f0108;fill-opacity:1;fill-rule:evenodd;stroke:none;stroke-width:1px;stroke-linecap:butt;stroke-linejoin:miter;stroke-opacity:1"
                 d="M 240.17053,254.93869 C 240.11998,259.88974 238.58273,271.28787 242.25513,276.82079 C 244.13736,273.83626 245.26464,260.07626 245.4937,256.26514 L 240.17053,254.93869 z "
                 id="path2255" />
            </g>
            <path
               style="fill:none;fill-opacity:0.75;fill-rule:evenodd;stroke:#000000;stroke-width:1px;stroke-linecap:butt;stroke-linejoin:miter;stroke-opacity:1"
               d="M -515.90047,267.34741 C -515.95296,267.34741 -516.00546,267.34741 -515.90047,267.34741 z "
               id="path2258" />
          </g>
        </g>
        <g
           id="g2401">
          <path
             id="path2393"
             d="M -606.53338,260.67739 C -601.61009,326.04384 -567.92013,427.88863 -588.05041,449.39829 C -590.48238,457.23967 -592.91435,454.57853 -595.34632,453.77584 C -608.76654,423.28982 -642.20503,367.97126 -651.28164,288.88825 C -642.43615,288.51485 -636.45727,278.72146 -633.77145,269.91888 C -624.05803,315.69052 -617.26331,363.65212 -602.64224,400.27249 C -614.63591,357.95216 -621.5175,310.51975 -629.8803,266.51412 C -621.33161,271.43667 -612.35175,267.27281 -606.53338,260.67739 z "
             style="fill:#ffffff;fill-opacity:1;fill-rule:evenodd;stroke:none;stroke-width:1px;stroke-linecap:butt;stroke-linejoin:miter;stroke-opacity:1" />
          <path
             id="path2395"
             d="M -577.83614,273.81004 C -581.08811,276.79018 -584.82647,278.50774 -587.59205,280.86625 C -591.31173,280.30403 -594.05862,278.45213 -597.2919,276.24201 C -590.82975,329.28872 -570.56083,390.5505 -572.4858,432.3745 C -566.18779,445.10414 -544.41745,420.42947 -544.76134,401.24528 L -550.11168,281.10595 C -554.13625,282.96161 -558.11995,283.64012 -561.78392,286.61112 C -567.86885,283.74523 -568.77203,283.18142 -571.51301,278.67398 L -561.78514,390.05822 L -577.83614,273.81004 z "
             style="fill:#ffffff;fill-opacity:1;fill-rule:evenodd;stroke:none;stroke-width:1px;stroke-linecap:butt;stroke-linejoin:miter;stroke-opacity:1" />
          <path
             id="path2397"
             d="M -543.28834,288.87098 L -533.28464,295.39005 L -523.46532,288.74591 L -520.71386,376.79264 L -518.65026,292.18524 L -509.67587,298.25065 L -501.45363,294.24883 C -501.57606,323.5137 -501.10193,352.62944 -502.82936,382.29556 C -505.82353,398.74464 -516.74239,410.3388 -531.03183,417.37668 C -543.61773,416.48147 -536.94122,329.4446 -543.28834,288.87098 z "
             style="fill:#ffffff;fill-opacity:1;fill-rule:evenodd;stroke:none;stroke-width:1px;stroke-linecap:butt;stroke-linejoin:miter;stroke-opacity:1" />
          <path
             id="path2399"
             d="M -493.18389,296.01287 C -487.21669,301.77761 -482.92683,302.47271 -478.44122,297.12551 L -479.55388,364.44109 L -472.32163,297.12552 C -467.75403,298.75464 -463.10085,302.56616 -459.24794,299.90715 L -460.63876,348.86393 C -461.07449,368.5824 -472.0931,400.34306 -491.79307,402.54949 C -503.77225,397.31516 -487.71334,397.72799 -493.18389,296.01287 z "
             style="fill:#ffffff;fill-opacity:1;fill-rule:evenodd;stroke:none;stroke-width:1px;stroke-linecap:butt;stroke-linejoin:miter;stroke-opacity:1" />
        </g>
      </g>
      <g
         id="g2417"
         transform="matrix(1.072924,0.000000,0.000000,1.165575,787.4207,-1.717934)">
        <g
           id="g2353">
          <path
             style="opacity:1;fill:#ffff00;fill-opacity:1;fill-rule:nonzero;stroke:none;stroke-width:2.83464575;stroke-linecap:round;stroke-linejoin:round;stroke-miterlimit:4;stroke-dasharray:none;stroke-dashoffset:0;stroke-opacity:1"
             d="M -168.81582,116.19401 C -161.15143,113.70392 -157.522,119.21093 -156.24587,125.06775 C -152.81218,122.62097 -142.63039,120.94557 -139.45841,129.42972 C -136.23811,138.04308 -145.69783,144.29342 -152.54782,143.10178 C -146.28274,155.3794 -141.97038,169.79254 -142.32046,183.29392 C -147.5564,246.11749 -244.37709,263.29727 -304.49373,269.05851 L -303.95661,257.05874 C -227.09511,255.5916 -155.61303,221.48409 -153.45074,183.61325 C -152.76409,172.21886 -155.44644,156.78727 -161.23379,146.04366 C -164.32958,149.891 -175.53392,152.21266 -179.289,144.52809 C -183.32041,136.27802 -176.45576,130.40104 -171.71037,130.56837 C -174.82305,127.49254 -176.43185,118.92312 -168.81582,116.19401 z "
             id="path2426" />
          <path
             style="fill:#ffffff;fill-opacity:1;fill-rule:evenodd;stroke:#000000;stroke-width:1px;stroke-linecap:butt;stroke-linejoin:miter;stroke-opacity:1"
             d="M -302.18695,234.66397 C -306.5491,241.74908 -302.75968,247.28763 -301.19245,251.40805 C -248.52351,251.88946 -194.55858,230.92739 -178.04653,215.44509 C -156.2361,196.73953 -152.3557,181.99085 -160.19478,161.00763 C -162.44245,153.20395 -165.8055,151.05609 -171.09264,152.18555 C -181.74131,153.58269 -187.96669,138.58896 -177.94274,127.27613 C -182.6494,109.1309 -159.94765,101.8585 -152.09921,116.43016 C -129.11213,113.87965 -127.002,137.0171 -141.72029,144.45326 C -144.36177,149.51673 -141.13222,153.39366 -140.11629,156.52134 C -125.43907,201.70701 -152.20792,213.02213 -152.51437,224.26717 C -154.45099,246.23445 -149.76881,260.72914 -136.73841,263.34382 C -125.90864,257.6951 -126.04483,243.95862 -122.00034,232.88168 C -123.45676,260.90383 -120.31756,278.11327 -106.74332,280.8323 C -94.485092,246.63056 -73.119212,174.51622 -108.9229,119.54384 C -131.72757,79.321692 -193.73349,85.178084 -204.56467,112.43428 C -216.67331,140.42617 -205.62384,157.7199 -191.85049,170.29677 C -187.75424,176.70325 -186.5181,181.39787 -195.79448,189.2902 C -223.90853,218.81513 -281.2599,236.20147 -302.18695,234.66397 z "
             id="path2446" />
          <g
             transform="matrix(-1.000000,0.000000,0.000000,1.000000,-759.4669,0.000000)"
             id="g2319">
            <path
               id="path2321"
               d="M -601.18912,229.34871 C -605.30597,237.5316 -603.61134,267.29576 -588.08491,274.80029 C -574.84067,269.03946 -576.4772,257.25447 -577.34498,246.43052 C -585.29303,242.00176 -593.24108,236.70558 -601.18912,229.34871 z "
               style="fill:#ffffff;fill-opacity:1;fill-rule:evenodd;stroke:none;stroke-width:1px;stroke-linecap:butt;stroke-linejoin:miter;stroke-opacity:1" />
            <path
               id="path2323"
               d="M -572.43535,248.76492 C -572.22555,260.78286 -573.6644,276.45995 -561.57648,281.39527 C -549.1822,276.88962 -549.94376,264.3612 -549.5866,257.27235 C -557.34126,255.10585 -565.49384,251.74457 -572.43535,248.76492 z "
               style="fill:#f7f7ff;fill-opacity:1;fill-rule:evenodd;stroke:none;stroke-width:1px;stroke-linecap:butt;stroke-linejoin:miter;stroke-opacity:1" />
            <path
               id="path2325"
               d="M -544.09275,259.46989 C -544.43986,269.61308 -543.25506,282.74969 -533.85305,289.23696 C -527.46609,286.51965 -523.08277,278.67193 -521.73435,265.45767 C -529.11085,263.7504 -536.29776,261.59565 -544.09275,259.46989 z "
               style="fill:#f7f7ff;fill-opacity:1;fill-rule:evenodd;stroke:none;stroke-width:1px;stroke-linecap:butt;stroke-linejoin:miter;stroke-opacity:1" />
            <path
               id="path2327"
               d="M -518.28772,265.92293 C -519.05498,276.50636 -517.30593,289.33009 -508.9714,292.22906 C -502.16241,291.72644 -499.74106,282.44856 -499.20772,269.39463 C -504.78254,269.04832 -513.13262,267.10867 -518.28772,265.92293 z "
               style="fill:#f7f7ff;fill-opacity:1;fill-rule:evenodd;stroke:none;stroke-width:1px;stroke-linecap:butt;stroke-linejoin:miter;stroke-opacity:1" />
            <path
               style="fill:#f7f7ff;fill-opacity:1;fill-rule:evenodd;stroke:none;stroke-width:1px;stroke-linecap:butt;stroke-linejoin:miter;stroke-opacity:1"
               d="M -493.16426,270.6877 C -493.93152,281.27113 -493.09683,292.183 -484.7623,295.08197 C -477.95331,294.57935 -476.0307,285.71709 -475.49736,272.66316 C -481.07218,272.31685 -488.00916,271.87344 -493.16426,270.6877 z "
               id="path2329" />
            <path
               id="path2331"
               d="M -471.30265,273.26455 C -472.06991,283.84798 -471.98334,292.848 -463.64881,295.74697 C -456.83982,295.24435 -455.9147,286.71458 -455.38136,273.66065 C -462.53553,273.89621 -466.14755,273.36968 -471.30265,273.26455 z "
               style="fill:#f7f7ff;fill-opacity:1;fill-rule:evenodd;stroke:none;stroke-width:1px;stroke-linecap:butt;stroke-linejoin:miter;stroke-opacity:1" />
            <g
               transform="translate(-750.0847,3.321207)"
               id="g2333">
              <path
                 style="fill:#4f0108;fill-opacity:1;fill-rule:evenodd;stroke:none;stroke-width:1px;stroke-linecap:butt;stroke-linejoin:miter;stroke-opacity:1"
                 d="M 127.62244,184.88333 C 124.33866,201.04914 124.55233,215.46622 130.11227,227.21018 C 133.14096,224.24876 134.11171,215.9367 135.09189,207.64916 C 131.29669,201.10486 129.34898,193.08256 127.62244,184.88333 z "
                 id="path2335" />
              <path
                 style="fill:#4f0108;fill-opacity:1;fill-rule:evenodd;stroke:none;stroke-width:1px;stroke-linecap:butt;stroke-linejoin:miter;stroke-opacity:1"
                 d="M 158.17268,233.66236 C 158.38252,239.37463 157.50466,248.01307 161.64992,252.93826 C 164.12269,249.46142 164.89112,244.28024 165.28463,238.72413 L 158.17268,233.66236 z "
                 id="path2337" />
              <path
                 id="path2340"
                 d="M 186.81741,249.16797 C 187.43185,254.70089 187.18284,259.6544 190.06784,264.71488 C 192.1253,261.46862 192.57009,256.75456 192.73884,251.51495 L 186.81741,249.16797 z "
                 style="fill:#4f0108;fill-opacity:1;fill-rule:evenodd;stroke:none;stroke-width:1px;stroke-linecap:butt;stroke-linejoin:miter;stroke-opacity:1" />
              <path
                 style="fill:#4f0108;fill-opacity:1;fill-rule:evenodd;stroke:none;stroke-width:1px;stroke-linecap:butt;stroke-linejoin:miter;stroke-opacity:1"
                 d="M 214.7459,258.64687 C 215.36034,264.17979 213.90198,266.88492 217.57438,272.41784 C 220.99618,269.03657 220.02113,264.45215 221.20909,260.32627 L 214.7459,258.64687 z "
                 id="path2342" />
              <path
                 id="path2344"
                 d="M 263.49508,268.47797 C 263.44453,272.68091 262.98367,275.37924 265.90795,279.58218 C 268.11472,276.82085 268.5404,273.3887 268.90268,268.86994 L 263.49508,268.47797 z "
                 style="fill:#4f0108;fill-opacity:1;fill-rule:evenodd;stroke:none;stroke-width:1px;stroke-linecap:butt;stroke-linejoin:miter;stroke-opacity:1" />
              <path
                 style="fill:#4f0108;fill-opacity:1;fill-rule:evenodd;stroke:none;stroke-width:1px;stroke-linecap:butt;stroke-linejoin:miter;stroke-opacity:1"
                 d="M 283.9329,270.14733 C 284.54734,275.68025 283.33463,276.54611 287.00703,282.07903 C 289.95502,279.60248 288.9799,274.42054 289.82804,270.37677 L 283.9329,270.14733 z "
                 id="path2346" />
              <path
                 id="path2349"
                 d="M 239.7416,264.01986 C 239.69105,268.97091 238.58273,271.28787 242.25513,276.82079 C 244.13736,273.83626 244.83571,269.15743 245.06477,265.34631 L 239.7416,264.01986 z "
                 style="fill:#4f0108;fill-opacity:1;fill-rule:evenodd;stroke:none;stroke-width:1px;stroke-linecap:butt;stroke-linejoin:miter;stroke-opacity:1" />
            </g>
            <path
               id="path2351"
               d="M -515.90047,267.34741 C -515.95296,267.34741 -516.00546,267.34741 -515.90047,267.34741 z "
               style="fill:none;fill-opacity:0.75;fill-rule:evenodd;stroke:#000000;stroke-width:1px;stroke-linecap:butt;stroke-linejoin:miter;stroke-opacity:1" />
          </g>
        </g>
        <g
           id="g2407"
           transform="matrix(-1.000000,0.000000,0.000000,1.000000,-760.3191,0.443586)">
          <path
             style="fill:#ffffff;fill-opacity:1;fill-rule:evenodd;stroke:none;stroke-width:1px;stroke-linecap:butt;stroke-linejoin:miter;stroke-opacity:1"
             d="M -606.53338,260.67739 C -601.61009,326.04384 -567.92013,427.88863 -588.05041,449.39829 C -590.48238,457.23967 -592.91435,454.57853 -595.34632,453.77584 C -608.76654,423.28982 -642.20503,367.97126 -651.28164,288.88825 C -642.43615,288.51485 -636.45727,278.72146 -633.77145,269.91888 C -624.05803,315.69052 -617.26331,363.65212 -602.64224,400.27249 C -614.63591,357.95216 -621.5175,310.51975 -629.8803,266.51412 C -621.33161,271.43667 -612.35175,267.27281 -606.53338,260.67739 z "
             id="path2409" />
          <path
             style="fill:#ffffff;fill-opacity:1;fill-rule:evenodd;stroke:none;stroke-width:1px;stroke-linecap:butt;stroke-linejoin:miter;stroke-opacity:1"
             d="M -577.83614,273.81004 C -581.08811,276.79018 -584.82647,278.50774 -587.59205,280.86625 C -591.31173,280.30403 -594.05862,278.45213 -597.2919,276.24201 C -590.82975,329.28872 -570.56083,390.5505 -572.4858,432.3745 C -566.18779,445.10414 -544.41745,420.42947 -544.76134,401.24528 L -550.11168,281.10595 C -554.13625,282.96161 -558.11995,283.64012 -561.78392,286.61112 C -567.86885,283.74523 -568.77203,283.18142 -571.51301,278.67398 L -561.78514,390.05822 L -577.83614,273.81004 z "
             id="path2411" />
          <path
             style="fill:#ffffff;fill-opacity:1;fill-rule:evenodd;stroke:none;stroke-width:1px;stroke-linecap:butt;stroke-linejoin:miter;stroke-opacity:1"
             d="M -543.28834,288.87098 L -533.28464,295.39005 L -523.46532,288.74591 L -520.71386,376.79264 L -518.65026,292.18524 L -509.67587,298.25065 L -501.45363,294.24883 C -501.57606,323.5137 -501.10193,352.62944 -502.82936,382.29556 C -505.82353,398.74464 -516.74239,410.3388 -531.03183,417.37668 C -543.61773,416.48147 -536.94122,329.4446 -543.28834,288.87098 z "
             id="path2413" />
          <path
             style="fill:#ffffff;fill-opacity:1;fill-rule:evenodd;stroke:none;stroke-width:1px;stroke-linecap:butt;stroke-linejoin:miter;stroke-opacity:1"
             d="M -493.18389,296.01287 C -487.21669,301.77761 -482.92683,302.47271 -478.44122,297.12551 L -479.55388,364.44109 L -472.32163,297.12552 C -467.75403,298.75464 -463.10085,302.56616 -459.24794,299.90715 L -460.63876,348.86393 C -461.07449,368.5824 -472.0931,400.34306 -491.79307,402.54949 C -503.77225,397.31516 -487.71334,397.72799 -493.18389,296.01287 z "
             id="path2415" />
        </g>
      </g>
      <g
         id="g2395"
         transform="matrix(1.072924,0.000000,0.000000,1.165575,787.4207,-1.717934)">
        <path
           style="fill:#ffff00;fill-opacity:1;fill-rule:evenodd;stroke:none;stroke-width:2.83464575;stroke-linecap:butt;stroke-linejoin:miter;stroke-miterlimit:4;stroke-dasharray:none;stroke-opacity:1"
           d="M -441.0951,489.65697 C -429.90157,491.48623 -430.29941,504.74462 -437.94019,510.48612 C -438.85417,505.26988 -443.01323,505.43837 -445.54541,505.06192 C -449.02061,497.44762 -446.7339,492.71427 -441.0951,489.65697 z "
           id="path2218" />
        <path
           style="fill:#ffff00;fill-opacity:1;fill-rule:evenodd;stroke:none;stroke-width:0.58499998;stroke-linecap:butt;stroke-linejoin:miter;stroke-miterlimit:4;stroke-dasharray:none;stroke-opacity:1"
           d="M -537.60475,516.66245 C -530.62099,516.92232 -528.34751,518.89888 -525.9267,526.45947 C -531.33091,528.16231 -533.45237,532.5227 -532.33916,539.11498 C -545.87062,535.48448 -544.00143,520.9283 -537.60475,516.66245 z "
           id="path2216" />
        <path
           style="fill:#ffff00;fill-opacity:1;fill-rule:evenodd;stroke:none;stroke-width:2.83464575;stroke-linecap:butt;stroke-linejoin:miter;stroke-miterlimit:4;stroke-dasharray:none;stroke-opacity:1"
           d="M -558.40232,485.249 C -555.74077,489.48242 -554.04689,492.00297 -556.30599,497.78466 C -563.52257,501.03871 -567.77328,501.25507 -568.36871,506.0358 C -575.0258,502.03996 -577.60899,484.48595 -558.40232,485.249 z "
           id="path2214" />
        <path
           style="fill:#ffff00;fill-opacity:1;fill-rule:evenodd;stroke:none;stroke-width:0.58499998;stroke-linecap:butt;stroke-linejoin:miter;stroke-miterlimit:4;stroke-dasharray:none;stroke-opacity:1"
           d="M -557.92937,461.88573 C -554.65332,466.79249 -555.90705,470.79928 -558.10233,475.70604 C -567.09969,473.10811 -566.23323,473.10195 -571.44611,478.09519 C -573.30914,467.51227 -571.50342,460.97271 -557.92937,461.88573 z "
           id="path2212" />
        <path
           style="fill:#ffff00;fill-opacity:1;fill-rule:evenodd;stroke:none;stroke-width:0.70999998;stroke-linecap:butt;stroke-linejoin:miter;stroke-miterlimit:4;stroke-dasharray:none;stroke-opacity:1"
           d="M -479.5425,436.87468 C -488.73222,455.22172 -488.97726,464.78291 -504.05262,475.62494 C -513.31841,476.90184 -521.54605,473.12619 -528.10773,469.28642 C -533.18064,464.29159 -540.94614,460.05051 -549.22969,463.17038 C -548.26814,468.41947 -549.49394,470.36867 -551.28727,475.61776 C -547.04178,477.16852 -544.98748,478.60183 -538.92456,476.51773 C -527.20715,474.91405 -516.29523,475.42683 -507.90296,480.49869 C -521.20849,481.27337 -526.75688,482.90794 -534.62548,481.99223 C -542.63981,481.05957 -547.21345,478.68063 -552.48723,483.10673 C -550.29584,489.53522 -551.8351,491.90333 -551.84849,496.54238 C -546.02885,501.64179 -541.32088,498.35177 -535.50124,494.6154 C -533.17831,483.89854 -518.55378,488.26141 -512.70279,489.14527 C -514.30492,496.32967 -515.38789,495.03355 -518.21168,499.49633 C -528.29464,501.94314 -532.81108,505.52087 -531.98964,511.90496 C -528.42074,514.13358 -524.33534,517.12912 -521.33859,522.00197 C -517.83825,522.87732 -514.59361,518.4354 -514.49913,509.89332 C -504.20204,494.49829 -497.18267,479.17608 -467.07716,492.30377 C -466.81988,501.7572 -463.47536,501.77994 -451.7605,505.1466 C -452.88647,499.43334 -451.60243,492.74676 -447.99485,489.05699 C -451.64088,481.41573 -455.53985,481.13956 -464.76553,481.94912 L -477.77774,481.52569 C -486.5402,479.29937 -487.95189,479.32273 -484.07034,469.8864 C -475.32198,455.85834 -474.264,456.63349 -461.45561,444.22944 C -464.83127,439.61095 -472.497,434.24358 -479.5425,436.87468 z "
           id="path2210" />
      </g>
      <g
         transform="matrix(-1.072924,0.000000,0.000000,1.165575,-30.27056,-1.717934)"
         id="g2402">
        <path
           id="path2404"
           d="M -441.0951,489.65697 C -429.90157,491.48623 -430.29941,504.74462 -437.94019,510.48612 C -438.85417,505.26988 -443.01323,505.43837 -445.54541,505.06192 C -449.02061,497.44762 -446.7339,492.71427 -441.0951,489.65697 z "
           style="fill:#ffff00;fill-opacity:1;fill-rule:evenodd;stroke:none;stroke-width:2.83464575;stroke-linecap:butt;stroke-linejoin:miter;stroke-miterlimit:4;stroke-dasharray:none;stroke-opacity:1" />
        <path
           id="path2406"
           d="M -537.60475,516.66245 C -530.62099,516.92232 -528.34751,518.89888 -525.9267,526.45947 C -531.33091,528.16231 -533.45237,532.5227 -532.33916,539.11498 C -545.87062,535.48448 -544.00143,520.9283 -537.60475,516.66245 z "
           style="fill:#ffff00;fill-opacity:1;fill-rule:evenodd;stroke:none;stroke-width:0.58499998;stroke-linecap:butt;stroke-linejoin:miter;stroke-miterlimit:4;stroke-dasharray:none;stroke-opacity:1" />
        <path
           id="path2408"
           d="M -558.40232,485.249 C -555.74077,489.48242 -554.04689,492.00297 -556.30599,497.78466 C -563.52257,501.03871 -567.77328,501.25507 -568.36871,506.0358 C -575.0258,502.03996 -577.60899,484.48595 -558.40232,485.249 z "
           style="fill:#ffff00;fill-opacity:1;fill-rule:evenodd;stroke:none;stroke-width:2.83464575;stroke-linecap:butt;stroke-linejoin:miter;stroke-miterlimit:4;stroke-dasharray:none;stroke-opacity:1" />
        <path
           id="path2410"
           d="M -557.92937,461.88573 C -554.65332,466.79249 -555.90705,470.79928 -558.10233,475.70604 C -567.09969,473.10811 -566.23323,473.10195 -571.44611,478.09519 C -573.30914,467.51227 -571.50342,460.97271 -557.92937,461.88573 z "
           style="fill:#ffff00;fill-opacity:1;fill-rule:evenodd;stroke:none;stroke-width:0.58499998;stroke-linecap:butt;stroke-linejoin:miter;stroke-miterlimit:4;stroke-dasharray:none;stroke-opacity:1" />
        <path
           id="path2412"
           d="M -479.5425,436.87468 C -488.73222,455.22172 -488.97726,464.78291 -504.05262,475.62494 C -513.31841,476.90184 -521.54605,473.12619 -528.10773,469.28642 C -533.18064,464.29159 -540.94614,460.05051 -549.22969,463.17038 C -548.26814,468.41947 -549.49394,470.36867 -551.28727,475.61776 C -547.04178,477.16852 -544.98748,478.60183 -538.92456,476.51773 C -527.20715,474.91405 -516.29523,475.42683 -507.90296,480.49869 C -521.20849,481.27337 -526.75688,482.90794 -534.62548,481.99223 C -542.63981,481.05957 -547.21345,478.68063 -552.48723,483.10673 C -550.29584,489.53522 -551.8351,491.90333 -551.84849,496.54238 C -546.02885,501.64179 -541.32088,498.35177 -535.50124,494.6154 C -533.17831,483.89854 -518.55378,488.26141 -512.70279,489.14527 C -514.30492,496.32967 -515.38789,495.03355 -518.21168,499.49633 C -528.29464,501.94314 -532.81108,505.52087 -531.98964,511.90496 C -528.42074,514.13358 -524.33534,517.12912 -521.33859,522.00197 C -517.83825,522.87732 -514.59361,518.4354 -514.49913,509.89332 C -504.20204,494.49829 -497.18267,479.17608 -467.07716,492.30377 C -466.81988,501.7572 -463.47536,501.77994 -451.7605,505.1466 C -452.88647,499.43334 -451.60243,492.74676 -447.99485,489.05699 C -451.64088,481.41573 -455.53985,481.13956 -464.76553,481.94912 L -477.77774,481.52569 C -486.5402,479.29937 -487.95189,479.32273 -484.07034,469.8864 C -475.32198,455.85834 -474.264,456.63349 -461.45561,444.22944 C -464.83127,439.61095 -472.497,434.24358 -479.5425,436.87468 z "
           style="fill:#ffff00;fill-opacity:1;fill-rule:evenodd;stroke:none;stroke-width:0.70999998;stroke-linecap:butt;stroke-linejoin:miter;stroke-miterlimit:4;stroke-dasharray:none;stroke-opacity:1" />
      </g>
      <path
         d="M -346.7875 469.91071 A 34.198769 20.399265 0 1 1  -415.18504,469.91071 A 34.198769 20.399265 0 1 1  -346.7875 469.91071 z"
         id="path2414"
         style="opacity:1;fill:#ffff00;fill-opacity:1;fill-rule:nonzero;stroke:none;stroke-width:0.70999998;stroke-linecap:round;stroke-linejoin:round;stroke-miterlimit:4;stroke-dasharray:none;stroke-dashoffset:0;stroke-opacity:1"
         transform="matrix(1.072924,0.000000,0.000000,1.165575,787.4207,-1.717934)" />
      <path
         id="path2469"
         d="M 353.74243,216.28977 C 360.1261,214.70358 362.48248,211.10465 366.50653,208.48997 L 371.69194,219.32302 C 369.57876,227.73139 364.12958,228.8916 358.92784,230.58941 C 356.05098,227.90213 353.47797,224.66471 353.74243,216.28977 z "
         style="fill:#ffffff;fill-opacity:1;fill-rule:evenodd;stroke:none;stroke-width:1px;stroke-linecap:butt;stroke-linejoin:miter;stroke-opacity:1" />
      <path
         id="path2471"
         d="M 399.96812,211.28596 C 396.24526,215.46154 392.52241,220.4976 388.79954,221.25237 C 389.60529,231.62607 393.2271,232.82204 397.17598,232.95208 C 403.00854,232.05669 406.76662,227.78086 408.34456,219.95241 C 405.55241,218.93881 402.76027,215.76109 399.96812,211.28596 z "
         style="fill:#ffffff;fill-opacity:1;fill-rule:evenodd;stroke:none;stroke-width:1px;stroke-linecap:butt;stroke-linejoin:miter;stroke-opacity:1" />
      <path
         id="path2473"
         d="M 376.41633,222.83081 C 372.29459,227.59383 368.17286,234.29228 364.05112,233.66388 C 365.58735,239.28145 369.56382,243.93028 373.22531,244.93025 C 378.28938,244.80265 382.46741,240.93614 384.39389,236.26381 C 380.24524,235.02232 378.53635,228.47993 376.41633,222.83081 z "
         style="fill:#ffffff;fill-opacity:1;fill-rule:evenodd;stroke:none;stroke-width:1px;stroke-linecap:butt;stroke-linejoin:miter;stroke-opacity:1" />
      <path
         id="path2475"
         d="M 335.48231,222.32507 C 332.35465,241.17798 333.98742,254.85939 344.6565,258.72416 C 354.42745,256.71877 359.34617,250.75995 360.61162,241.82458 C 359.65844,232.76385 354.04172,231.80913 347.84752,231.85817 C 345.94927,215.79781 340.42932,220.72127 335.48231,222.32507 z "
         style="fill:#ffffff;fill-opacity:1;fill-rule:evenodd;stroke:none;stroke-width:1px;stroke-linecap:butt;stroke-linejoin:miter;stroke-opacity:1" />
      <path
         id="path2477"
         d="M 408.38868,225.86408 C 403.60216,233.19183 398.81562,236.52923 394.02909,239.29707 C 390.40613,237.09374 384.47885,245.86692 378.87173,250.13014 C 378.94899,257.88797 384.93961,260.05053 391.23694,264.42977 C 402.01017,259.07538 412.19815,252.73198 413.57409,231.49727 L 408.38868,225.86408 z "
         style="fill:#ffffff;fill-opacity:1;fill-rule:evenodd;stroke:none;stroke-width:1px;stroke-linecap:butt;stroke-linejoin:miter;stroke-opacity:1" />
      <path
         id="path2479"
         d="M 317.85646,259.35003 C 312.37412,259.5585 310.6292,260.55526 304.86935,257.77248 C 301.66355,268.57483 300.21558,299.71727 302.74817,301.34626 C 314.43284,306.52917 327.6826,281.87816 317.85646,259.35003 z "
         style="fill:#ffffff;fill-opacity:1;fill-rule:evenodd;stroke:none;stroke-width:1px;stroke-linecap:butt;stroke-linejoin:miter;stroke-opacity:1" />
      <path
         id="path2481"
         d="M 334.91992,253.10494 C 330.61143,256.11126 329.90416,260.0694 322.29584,261.06109 C 322.85392,282.94762 323.24495,304.0025 338.71175,306.61854 C 346.98084,305.02809 352.96809,295.19977 347.90377,264.14904 C 339.15515,262.0024 337.66433,256.91667 334.91992,253.10494 z "
         style="fill:#ffffff;fill-opacity:1;fill-rule:evenodd;stroke:none;stroke-width:1px;stroke-linecap:butt;stroke-linejoin:miter;stroke-opacity:1" />
      <path
         id="path2483"
         d="M 369.14129,272.60653 C 368.59016,273.71974 366.59047,250.50255 365.93859,251.71235 C 362.75925,257.61282 358.30019,264.05662 351.76567,265.13759 C 351.89444,284.1656 353.98056,301.0688 370.27806,302.54466 C 388.59255,295.81259 383.9063,278.1784 383.27181,262.4647 C 378.07133,261.42169 373.75954,256.23152 369.92077,251.12818 C 369.17698,250.13939 369.85258,273.55801 369.14129,272.60653 z "
         style="fill:#ffffff;fill-opacity:1;fill-rule:evenodd;stroke:none;stroke-width:1px;stroke-linecap:butt;stroke-linejoin:miter;stroke-opacity:1" />
      <path
         id="path2485"
         d="M 413.44191,252.04004 C 406.71221,262.19144 400.05696,266.70693 391.01335,269.5419 C 388.8964,287.18015 392.82864,299.70718 405.86042,304.54563 C 419.6155,300.29106 420.26729,282.5509 418.18034,261.99208 C 418.90097,255.55134 415.96487,254.07619 413.44191,252.04004 z "
         style="fill:#ffffff;fill-opacity:1;fill-rule:evenodd;stroke:none;stroke-width:1px;stroke-linecap:butt;stroke-linejoin:miter;stroke-opacity:1" />
      <path
         id="path2487"
         d="M 426.37913,262.33661 C 433.79454,266.32088 438.30616,267.42613 447.86,266.79786 C 450.11439,277.52722 449.90527,289.5947 448.80769,302.14477 C 430.42346,300.23163 426.78475,284.92604 426.37913,262.33661 z "
         style="fill:#ffffff;fill-opacity:1;fill-rule:evenodd;stroke:none;stroke-width:1px;stroke-linecap:butt;stroke-linejoin:miter;stroke-opacity:1" />
      <path
         id="path2489"
         d="M 317.02188,324.17333 C 316.26746,324.91328 318.18984,300.26527 317.44404,301.02394 C 312.99215,305.55262 308.54468,310.09094 302.32257,310.77344 C 302.48286,328.52761 298.59909,349.12447 315.743,354.94025 C 326.75188,355.35149 329.37753,335.72698 329.95287,311.20225 C 325.73916,309.28491 322.81076,305.97127 320.82307,301.63571 C 320.40486,300.72353 317.36001,325.1725 317.02188,324.17333 z "
         style="fill:#ffffff;fill-opacity:1;fill-rule:evenodd;stroke:none;stroke-width:1px;stroke-linecap:butt;stroke-linejoin:miter;stroke-opacity:1" />
      <path
         id="path2491"
         d="M 352.07413,325.15383 C 351.41641,325.85825 353.25304,302.55972 352.5633,303.3205 C 347.47404,308.93399 341.56716,315.47438 335.63898,313.97565 C 332.96128,330.15946 333.38751,348.35409 349.45414,361.14407 C 366.66988,349.37447 366.73395,343.87261 367.21647,315.26206 C 362.56082,311.24955 359.12345,307.23703 356.12691,303.22452 C 355.60092,302.5202 352.57716,325.85817 352.07413,325.15383 z "
         style="fill:#ffffff;fill-opacity:1;fill-rule:evenodd;stroke:none;stroke-width:1px;stroke-linecap:butt;stroke-linejoin:miter;stroke-opacity:1" />
      <path
         id="path2493"
         d="M 386.48435,299.73436 C 382.14782,307.88939 376.08228,311.43412 370.22859,313.97759 C 370.504,337.59993 374.08482,350.00804 392.11726,358.64587 C 410.51156,352.56053 413.58661,331.72321 409.03399,309.06791 C 403.07884,306.72571 397.13334,304.2875 391.74603,296.29026 C 393.16921,309.13252 391.78344,314.93603 390.63568,321.33594 C 388.08965,315.27328 387.21458,309.38562 386.48435,299.73436 z "
         style="fill:#ffffff;fill-opacity:1;fill-rule:evenodd;stroke:none;stroke-width:1px;stroke-linecap:butt;stroke-linejoin:miter;stroke-opacity:1" />
      <path
         id="path2495"
         d="M 422.68004,294.6812 C 420.12035,300.77893 418.04716,307.72254 414.32645,311.80155 C 414.66588,343.43224 420.17737,350.18144 432.51196,354.92899 C 441.84559,350.3584 448.18175,338.67919 445.46418,305.52884 C 437.71244,301.64017 428.48905,300.03802 426.72741,295.60529 L 429.49699,313.00706 C 426.32232,311.19226 424.39673,303.43376 422.68004,294.6812 z "
         style="fill:#ffffff;fill-opacity:1;fill-rule:evenodd;stroke:none;stroke-width:1px;stroke-linecap:butt;stroke-linejoin:miter;stroke-opacity:1" />
      <path
         id="path2497"
         d="M 314.50702,412.60641 C 314.50702,412.47658 314.50702,412.34675 314.50702,412.60641 z "
         style="fill:none;fill-opacity:0.75;fill-rule:evenodd;stroke:#000000;stroke-width:1.11829042px;stroke-linecap:butt;stroke-linejoin:miter;stroke-opacity:1" />
      <path
         id="path2499"
         d="M 313.60681,413.62529 C 296.55856,405.6444 302.10527,376.49056 301.41647,351.69467 C 306.60947,356.97191 313.34933,363.43984 320.41906,360.65318 C 320.40689,378.58614 325.22491,409.505 313.60681,413.62529 z "
         style="fill:#ffffff;fill-opacity:1;fill-rule:evenodd;stroke:none;stroke-width:1px;stroke-linecap:butt;stroke-linejoin:miter;stroke-opacity:1" />
      <path
         id="path2501"
         d="M 333.41419,350.67579 C 330.18734,355.86912 326.96047,358.70529 323.73362,360.8028 C 325.60452,381.60609 324.10182,404.85268 342.37767,413.77491 C 353.01845,409.23656 352.57493,388.95167 350.98263,367.03482 C 344.73032,364.59441 338.71603,360.344 333.41419,350.67579 z "
         style="fill:#ffffff;fill-opacity:1;fill-rule:evenodd;stroke:none;stroke-width:1px;stroke-linecap:butt;stroke-linejoin:miter;stroke-opacity:1" />
      <path
         id="path2503"
         d="M 370.07292,348.33879 C 366.2485,355.88323 360.98992,360.88108 357.1655,364.30832 C 355.67242,389.43 358.94896,408.83835 373.65832,412.21691 C 389.07889,411.22116 389.61769,389.3036 389.07552,365.86632 C 383.63514,362.37181 378.14536,355.97594 373.65832,348.33877 C 374.26341,358.34686 374.8117,369.31134 372.5827,375.21433 C 369.8605,369.70352 369.93283,360.06853 370.07292,348.33879 z "
         style="fill:#ffffff;fill-opacity:1;fill-rule:evenodd;stroke:none;stroke-width:1px;stroke-linecap:butt;stroke-linejoin:miter;stroke-opacity:1" />
      <path
         id="path2505"
         d="M 412.27743,346.93039 C 406.60795,354.99615 400.69035,362.52283 392.19921,364.45793 C 393.86191,381.73317 386.96272,405.02686 403.31394,411.97703 C 420.07829,404.22026 422.25866,381.55206 423.03362,357.44692 C 415.91028,355.47879 414.95988,350.82828 412.27743,346.93039 z "
         style="fill:#ffffff;fill-opacity:1;fill-rule:evenodd;stroke:none;stroke-width:1px;stroke-linecap:butt;stroke-linejoin:miter;stroke-opacity:1" />
      <path
         id="path2507"
         d="M 449.93955,350.67579 L 450.65663,401.70038 C 449.41896,409.26814 445.76508,411.5862 441.69313,412.99591 C 426.80507,414.96219 434.54111,379.24254 432.37111,360.0238 C 439.81453,359.7817 445.3572,356.09811 449.93955,350.67579 z "
         style="fill:#ffffff;fill-opacity:1;fill-rule:evenodd;stroke:none;stroke-width:1px;stroke-linecap:butt;stroke-linejoin:miter;stroke-opacity:1" />
      <path
         id="path2509"
         d="M 306.46705,418.28957 C 306.17564,431.5326 295.94528,444.15597 290.48488,457.399 C 305.92812,460.98938 317.20037,446.57782 325.41532,418.56695 C 319.49184,420.87101 314.2881,424.23127 306.46705,418.28957 z "
         style="fill:#ffffff;fill-opacity:1;fill-rule:evenodd;stroke:none;stroke-width:1px;stroke-linecap:butt;stroke-linejoin:miter;stroke-opacity:1" />
      <path
         id="path2511"
         d="M 451.1106,419.22793 C 454.85039,437.32885 461.49897,449.1098 469.03757,458.95701 C 455.18634,458.9236 439.93864,449.43982 433.9007,421.56493 C 440.57639,424.86649 446.347,424.23518 451.1106,419.22793 z "
         style="fill:#ffffff;fill-opacity:1;fill-rule:evenodd;stroke:none;stroke-width:1px;stroke-linecap:butt;stroke-linejoin:miter;stroke-opacity:1" />
      <path
         id="path2513"
         d="M 329.98748,434.10536 C 329.93165,446.84738 329.66137,459.64764 334.99997,470.92459 C 307.42451,480.08133 318.97902,436.62507 329.98748,434.10536 z "
         style="fill:#ffffff;fill-opacity:1;fill-rule:evenodd;stroke:none;stroke-width:1px;stroke-linecap:butt;stroke-linejoin:miter;stroke-opacity:1" />
      <path
         id="path2515"
         d="M 331.82014,413.94605 C 335.11363,416.20359 338.05776,419.59973 341.96789,419.84758 L 345.69997,435.58696 L 347.34056,418.89744 C 351.8536,419.35495 354.95261,412.50157 358.21368,410.2389 C 359.13059,426.49579 358.54516,450.90124 362.497,458.17801 C 364.1844,464.68864 359.02167,472.5272 353.06761,471.84104 C 330.69799,471.82677 337.08215,434.40374 331.82014,413.94605 z "
         style="fill:#ffffff;fill-opacity:1;fill-rule:evenodd;stroke:none;stroke-width:1px;stroke-linecap:butt;stroke-linejoin:miter;stroke-opacity:1" />
      <path
         id="path2517"
         d="M 364.21779,412.20233 C 367.53806,416.04975 370.31872,420.60062 376.96329,420.11441 C 382.45644,419.83797 386.61188,415.2019 390.74925,410.50689 C 390.26665,433.46706 396.42622,464.00219 378.52397,471.54288 C 365.68704,461.09277 366.6494,433.95631 364.21779,412.20233 z "
         style="fill:#ffffff;fill-opacity:1;fill-rule:evenodd;stroke:none;stroke-width:1px;stroke-linecap:butt;stroke-linejoin:miter;stroke-opacity:1" />
      <path
         id="path2519"
         d="M 409.47735,419.26668 C 406.33097,419.07731 402.56568,416.53471 398.0324,411.07203 C 398.727,432.33919 390.69909,464.97722 403.75488,470.13002 C 418.26914,462.37805 423.90951,437.75576 427.42511,409.09401 C 421.81132,413.88718 416.42001,419.52621 409.47735,419.26668 z "
         style="fill:#ffffff;fill-opacity:1;fill-rule:evenodd;stroke:none;stroke-width:1px;stroke-linecap:butt;stroke-linejoin:miter;stroke-opacity:1" />
      <path
         id="path2521"
         d="M 430.54646,428.30905 C 418.95152,454.15387 418.13135,471.97225 430.80657,479.73754 C 440.10111,472.22849 443.99242,445.89167 430.54646,428.30905 z "
         style="fill:#ffffff;fill-opacity:1;fill-rule:evenodd;stroke:none;stroke-width:1px;stroke-linecap:butt;stroke-linejoin:miter;stroke-opacity:1" />
      <path
         id="path2523"
         d="M 288.03458,468.74137 C 276.93782,461.86419 255.10818,492.54367 256.79136,505.16921 C 266.91258,505.24338 274.25859,499.53736 280.85495,491.73999 C 285.99905,485.6593 292.91427,472.05646 288.03458,468.74137 z "
         style="fill:#ffffff;fill-opacity:1;fill-rule:evenodd;stroke:none;stroke-width:1px;stroke-linecap:butt;stroke-linejoin:miter;stroke-opacity:1" />
      <path
         id="path2525"
         d="M 468.15128,465.57654 C 473.25518,461.20212 480.42525,468.56444 487.56753,476.69072 C 493.86083,483.85105 501.77993,491.68876 498.56214,499.74378 C 486.67133,505.79265 482.74964,496.29628 476.34622,488.26436 C 470.23588,480.60004 466.08844,470.91695 468.15128,465.57654 z "
         style="fill:#ffffff;fill-opacity:1;fill-rule:evenodd;stroke:none;stroke-width:1px;stroke-linecap:butt;stroke-linejoin:miter;stroke-opacity:1" />
      <path
         id="path2527"
         d="M 441.81304,471.09885 C 450.57934,477.5656 455.07191,524.54526 444.07231,525.51454 C 438.54106,515.2772 428.61397,498.36872 430.5867,485.9674 C 433.79176,483.68955 440.25146,478.40714 441.81304,471.09885 z "
         style="fill:#ffffff;fill-opacity:1;fill-rule:evenodd;stroke:none;stroke-width:1px;stroke-linecap:butt;stroke-linejoin:miter;stroke-opacity:1" />
      <path
         id="path2529"
         d="M 318.38598,475.71691 C 330.5178,480.51773 327.86393,496.75287 311.93519,523.25395 C 293.38522,502.45334 310.82171,490.26666 318.38598,475.71691 z "
         style="fill:#ffffff;fill-opacity:1;fill-rule:evenodd;stroke:none;stroke-width:1px;stroke-linecap:butt;stroke-linejoin:miter;stroke-opacity:1" />
      <path
         id="path2531"
         d="M 309.23002,464.05872 C 314.28609,474.31029 310.17694,476.3651 306.07668,485.1131 C 301.39909,495.09286 297.28268,504.72367 287.64812,504.94315 C 284.94503,487.7472 288.65623,485.28768 292.78589,478.05837 C 298.27949,468.44136 299.23187,460.74543 309.23002,464.05872 z "
         style="fill:#ffffff;fill-opacity:1;fill-rule:evenodd;stroke:none;stroke-width:1px;stroke-linecap:butt;stroke-linejoin:miter;stroke-opacity:1" />
      <path
         id="path2533"
         d="M 444.78576,464.25248 C 447.70426,478.07439 461.02353,507.97881 471.89689,505.71821 C 474.10201,491.57041 469.36564,486.00342 465.19815,476.4091 C 461.1941,467.19111 464.4243,461.06723 444.78576,464.25248 z "
         style="fill:#ffffff;fill-opacity:1;fill-rule:evenodd;stroke:none;stroke-width:1px;stroke-linecap:butt;stroke-linejoin:miter;stroke-opacity:1" />
      <path
         id="path2640"
         d="M 341.38409,473.95815 C 346.1102,476.36225 351.53361,478.02932 356.49216,475.97819 L 359.7462,517.8937 L 353.23811,519.91373 C 347.86115,513.53556 344.76832,506.39387 347.4138,497.33409 C 343.09565,490.37796 338.47344,483.53195 341.38409,473.95815 z "
         style="fill:#ffffff;fill-opacity:1;fill-rule:evenodd;stroke:none;stroke-width:1px;stroke-linecap:butt;stroke-linejoin:miter;stroke-opacity:1" />
      <path
         id="path2642"
         d="M 367.64887,466.88807 C 365.71195,471.86356 363.77502,474.08252 361.83809,475.72568 L 365.32457,515.87368 L 375.0867,515.36868 L 374.85427,475.97818 C 372.20046,473.35879 369.14398,471.39558 367.64887,466.88807 z "
         style="fill:#ffffff;fill-opacity:1;fill-rule:evenodd;stroke:none;stroke-width:1px;stroke-linecap:butt;stroke-linejoin:miter;stroke-opacity:1" />
      <path
         id="path2644"
         d="M 379.96777,476.48319 C 384.61406,475.46806 388.36699,469.98695 391.82179,466.38307 C 393.24519,469.14495 394.46394,473.28051 398.32988,474.71566 L 388.80018,515.62118 L 380.66506,514.61116 L 379.96777,476.48319 z "
         style="fill:#ffffff;fill-opacity:1;fill-rule:evenodd;stroke:none;stroke-width:1px;stroke-linecap:butt;stroke-linejoin:miter;stroke-opacity:1" />
      <path
         d="M 406.50372,498.28262 C 410.72641,493.03673 412.91457,481.16018 414.83254,468.40309 C 411.17073,471.84181 407.6495,475.50958 402.8623,477.11445 L 393.52856,515.917 L 402.51365,518.90372 C 407.05442,518.00948 405.64329,506.03085 406.50372,498.28262 z "
         style="fill:#ffffff;fill-opacity:1;fill-rule:evenodd;stroke:none;stroke-width:1px;stroke-linecap:butt;stroke-linejoin:miter;stroke-opacity:1"
         id="path2646" />
      <path
         id="path2763"
         d="M 353.20365,571.88949 C 349.86376,657.36739 313.80349,686.81939 257.70755,658.43712 C 248.27507,674.28804 261.16145,724.0261 317.85427,706.58283 C 335.54656,696.56615 351.67651,680.8496 359.53488,655.57131 C 364.26035,628.63264 364.10399,601.69397 364.8109,574.7553 L 353.20365,571.88949 z "
         style="fill:#ffffff;fill-opacity:1;fill-rule:evenodd;stroke:none;stroke-width:1px;stroke-linecap:butt;stroke-linejoin:miter;stroke-opacity:1" />
      <path
         id="path2765"
         d="M 354.78646,634.93743 C 347.21191,685.75701 305.53585,699.368 279.86687,684.22947 C 323.71745,687.45183 344.59703,666.75933 354.78646,634.93743 z "
         style="fill:#4f0108;fill-opacity:1;fill-rule:evenodd;stroke:none;stroke-width:1px;stroke-linecap:butt;stroke-linejoin:miter;stroke-opacity:1" />
      <path
         style="fill:#ffffff;fill-opacity:1;fill-rule:evenodd;stroke:none;stroke-width:1px;stroke-linecap:butt;stroke-linejoin:miter;stroke-opacity:1"
         d="M 401.56825,571.88949 C 404.90814,657.36739 444.13403,687.39255 494.95394,656.14447 C 506.49683,675.43437 493.61045,724.0261 436.91763,706.58283 C 419.22534,696.56615 403.09539,680.8496 395.23702,655.57131 C 390.51155,628.63264 390.66791,601.69397 389.961,574.7553 L 401.56825,571.88949 z "
         id="path2773" />
      <path
         style="fill:#4f0108;fill-opacity:1;fill-rule:evenodd;stroke:none;stroke-width:1px;stroke-linecap:butt;stroke-linejoin:miter;stroke-opacity:1"
         d="M 399.98544,634.93743 C 407.55999,685.75701 449.23605,699.368 474.90503,684.22947 C 431.05445,687.45183 410.17487,666.75933 399.98544,634.93743 z "
         id="path2775" />
      <path
         id="path2777"
         d="M 368.50412,577.04795 C 368.68,576.8569 368.85586,576.66584 368.50412,577.04795 z "
         style="fill:none;fill-opacity:0.75;fill-rule:evenodd;stroke:#000000;stroke-width:1.11829042px;stroke-linecap:butt;stroke-linejoin:miter;stroke-opacity:1" />
      <path
         id="path2779"
         d="M 367.97652,577.04795 L 374.30776,577.04795 L 375.89056,663.02244 C 378.94924,689.28894 381.09268,713.25901 376.41817,740.97263 C 372.32373,712.69658 373.16366,689.00583 377.47337,659.58346 L 378.52858,577.04795 L 386.44262,576.47479 C 386.41713,624.35815 391.07366,665.92819 402.2707,703.14386 C 409.5359,722.33277 406.48707,741.79892 401.2155,756.44804 C 395.53107,773.51981 385.26321,781.77945 376.94577,793.13048 C 367.8522,781.56593 360.22473,774.63487 350.56563,756.44803 C 342.2464,740.66065 347.68293,717.54494 351.62084,700.27805 C 365.77619,665.62393 366.992,627.1618 367.97652,577.04795 z "
         style="fill:#ffffff;fill-opacity:1;fill-rule:evenodd;stroke:#000000;stroke-width:1.11829042px;stroke-linecap:butt;stroke-linejoin:miter;stroke-opacity:1" />
      <path
         id="path2781"
         d="M 353.20365,682.50998 C 338.70372,699.82838 323.35502,713.39585 307.49013,717.18254 C 305.30473,726.83206 306.31262,736.48158 310.46782,746.13111 C 318.81531,747.27423 328.63669,744.57452 339.24378,739.8263 C 339.48213,718.89663 346.12242,700.96173 353.20365,682.50998 z "
         style="fill:#ffffff;fill-opacity:1;fill-rule:evenodd;stroke:none;stroke-width:1px;stroke-linecap:butt;stroke-linejoin:miter;stroke-opacity:1" />
      <path
         id="path2783"
         d="M 346.52168,693.22758 C 334.18354,705.77897 324.48622,717.38472 321.8952,728.28334 C 335.08272,722.61255 341.19549,708.40958 346.52168,693.22758 z "
         style="fill:#4f0108;fill-opacity:1;fill-rule:evenodd;stroke:none;stroke-width:1px;stroke-linecap:butt;stroke-linejoin:miter;stroke-opacity:1" />
      <path
         style="fill:#ffffff;fill-opacity:1;fill-rule:evenodd;stroke:none;stroke-width:1px;stroke-linecap:butt;stroke-linejoin:miter;stroke-opacity:1"
         d="M 402.44129,683.03879 C 416.94122,700.3572 432.28992,713.92466 448.15481,717.71135 C 450.34021,727.36088 451.40022,737.68433 447.24502,747.33386 C 438.89753,748.47698 427.00825,745.10333 416.40116,740.35511 C 416.16281,719.42544 409.52252,701.49054 402.44129,683.03879 z "
         id="path2791" />
      <path
         style="fill:#4f0108;fill-opacity:1;fill-rule:evenodd;stroke:none;stroke-width:1px;stroke-linecap:butt;stroke-linejoin:miter;stroke-opacity:1"
         d="M 409.12326,693.75639 C 421.4614,706.30778 431.15872,717.91353 433.74974,728.81216 C 420.56222,723.14137 414.44945,708.93839 409.12326,693.75639 z "
         id="path2793" />
      <path
         style="fill:#ffffff;fill-opacity:1;fill-rule:evenodd;stroke:#4f0108;stroke-width:5.31496048;stroke-linecap:butt;stroke-linejoin:miter;stroke-miterlimit:4;stroke-dasharray:none;stroke-opacity:1"
         d="M 302.40757,302.85774 C 223.5581,289.85858 169.26099,249.41857 110.2072,214.29483 C 100.17614,211.26041 98.775386,221.54623 104.55425,227.48505 C 165.72264,268.27858 225.84134,304.58592 301.53064,315.12754 L 302.40757,302.85774 z "
         id="path2988" />
    </g>
    <g
       transform="translate(3.869687e-5,0.000000)"
       id="g3310">
      <path
         style="opacity:1;fill:#009241;fill-opacity:1;fill-rule:evenodd;stroke:#000000;stroke-width:7.26096106;stroke-linecap:round;stroke-linejoin:round;stroke-miterlimit:4;stroke-dasharray:none;stroke-dashoffset:0;stroke-opacity:1"
         d="M 374.85097,855.95404 C 571.02331,855.95404 735.43214,697.81213 743.94915,499.17207 L 744.20323,8.98575 L 377.23906,8.98575 L 374.85097,855.95404 z "
         id="path2231" />
      <g
         id="g3024"
         transform="translate(819.3349,0.000000)">
        <g
           id="g3003">
          <path
             style="opacity:1;fill:#fff303;fill-opacity:1;fill-rule:evenodd;stroke:#000000;stroke-width:5.31496048;stroke-linecap:round;stroke-linejoin:miter;stroke-miterlimit:4;stroke-dasharray:none;stroke-dashoffset:0;stroke-opacity:1"
             d="M -337.22419,88.175607 L -337.22419,114.70685 L -383.66169,114.70685 L -383.66169,147.14435 L -409.09919,147.14435 L -409.09919,169.64435 L -383.66169,169.64435 L -383.66169,200.58185 L -337.22419,200.58185 L -337.22419,225.64435 L -313.25544,225.64435 L -313.25544,200.58185 L -266.09919,200.58185 L -266.09919,169.64435 L -240.28669,169.64435 L -240.28669,147.14435 L -266.09919,147.14435 L -266.09919,114.70685 L -313.25544,114.70685 L -313.25544,88.175607 L -337.22419,88.175607 z "
             id="rect2990" />
          <path
             style="fill:none;fill-opacity:0.75;fill-rule:evenodd;stroke:#000000;stroke-width:2.12598419;stroke-linecap:butt;stroke-linejoin:miter;stroke-miterlimit:4;stroke-dasharray:none;stroke-opacity:1"
             d="M -383.65832,114.71639 L -266.4601,199.85095"
             id="path2999" />
          <path
             style="fill:none;fill-opacity:0.75;fill-rule:evenodd;stroke:#000000;stroke-width:2.12598419;stroke-linecap:butt;stroke-linejoin:miter;stroke-miterlimit:4;stroke-dasharray:none;stroke-opacity:1"
             d="M -266.4601,115.45349 L -383.28978,200.21949"
             id="path3001" />
        </g>
        <g
           transform="translate(116.7500,235.5848)"
           id="g3008">
          <path
             id="path3010"
             d="M -337.22419,88.175607 L -337.22419,114.70685 L -383.66169,114.70685 L -383.66169,147.14435 L -409.09919,147.14435 L -409.09919,169.64435 L -383.66169,169.64435 L -383.66169,200.58185 L -337.22419,200.58185 L -337.22419,225.64435 L -313.25544,225.64435 L -313.25544,200.58185 L -266.09919,200.58185 L -266.09919,169.64435 L -240.28669,169.64435 L -240.28669,147.14435 L -266.09919,147.14435 L -266.09919,114.70685 L -313.25544,114.70685 L -313.25544,88.175607 L -337.22419,88.175607 z "
             style="opacity:1;fill:#fff303;fill-opacity:1;fill-rule:evenodd;stroke:#000000;stroke-width:5.31496048;stroke-linecap:round;stroke-linejoin:miter;stroke-miterlimit:4;stroke-dasharray:none;stroke-dashoffset:0;stroke-opacity:1" />
          <path
             id="path3012"
             d="M -383.65832,114.71639 L -266.4601,199.85095"
             style="fill:none;fill-opacity:0.75;fill-rule:evenodd;stroke:#000000;stroke-width:2.12598419;stroke-linecap:butt;stroke-linejoin:miter;stroke-miterlimit:4;stroke-dasharray:none;stroke-opacity:1" />
          <path
             id="path3014"
             d="M -266.4601,115.45349 L -383.28978,200.21949"
             style="fill:none;fill-opacity:0.75;fill-rule:evenodd;stroke:#000000;stroke-width:2.12598419;stroke-linecap:butt;stroke-linejoin:miter;stroke-miterlimit:4;stroke-dasharray:none;stroke-opacity:1" />
        </g>
        <g
           id="g3016"
           transform="translate(-5.613995e-6,471.1696)">
          <path
             style="opacity:1;fill:#fff303;fill-opacity:1;fill-rule:evenodd;stroke:#000000;stroke-width:5.31496048;stroke-linecap:round;stroke-linejoin:miter;stroke-miterlimit:4;stroke-dasharray:none;stroke-dashoffset:0;stroke-opacity:1"
             d="M -337.22419,88.175607 L -337.22419,114.70685 L -383.66169,114.70685 L -383.66169,147.14435 L -409.09919,147.14435 L -409.09919,169.64435 L -383.66169,169.64435 L -383.66169,200.58185 L -337.22419,200.58185 L -337.22419,225.64435 L -313.25544,225.64435 L -313.25544,200.58185 L -266.09919,200.58185 L -266.09919,169.64435 L -240.28669,169.64435 L -240.28669,147.14435 L -266.09919,147.14435 L -266.09919,114.70685 L -313.25544,114.70685 L -313.25544,88.175607 L -337.22419,88.175607 z "
             id="path3018" />
          <path
             style="fill:none;fill-opacity:0.75;fill-rule:evenodd;stroke:#000000;stroke-width:2.12598419;stroke-linecap:butt;stroke-linejoin:miter;stroke-miterlimit:4;stroke-dasharray:none;stroke-opacity:1"
             d="M -383.65832,114.71639 L -266.4601,199.85095"
             id="path3020" />
          <path
             style="fill:none;fill-opacity:0.75;fill-rule:evenodd;stroke:#000000;stroke-width:2.12598419;stroke-linecap:butt;stroke-linejoin:miter;stroke-miterlimit:4;stroke-dasharray:none;stroke-opacity:1"
             d="M -266.4601,115.45349 L -383.28978,200.21949"
             id="path3022" />
        </g>
      </g>
    </g>
  </g>
</svg>