<!-- Created with Inkscape (http://www.inkscape.org/) -->
<svg
   xmlns="http://www.w3.org/2000/svg"
   xmlns:xlink="http://www.w3.org/1999/xlink"
   id="svg2"
   version="1.0"><title>Herb Wiskitki alt</title>
  <metadata
     id="metadata7">
    <rdf:RDF>
      <cc:Work
         rdf:about="">
        <dc:format>image/svg+xml</dc:format>
        <dc:type
           rdf:resource="http://purl.org/dc/dcmitype/StillImage" />
      </cc:Work>
    </rdf:RDF>
  </metadata>
  <defs
     id="defs5">
    <linearGradient
       id="linearGradient3139">
      <stop
         style="stop-color:#ff2415;stop-opacity:1;"
         offset="0"
         id="stop3141" />
      <stop
         style="stop-color:#ffff15;stop-opacity:1;"
         offset="1"
         id="stop3143" />
    </linearGradient>
    <linearGradient
       xlink:href="#linearGradient3139"
       id="linearGradient3145"
       x1="-84.147217"
       y1="126.14191"
       x2="-84.147217"
       y2="-21.818302"
       gradientUnits="userSpaceOnUse"
       gradientTransform="matrix(4.7892094,0,0,4.7892094,777.90349,2.3946047)" />
  </defs>
  <sodipodi:namedview
     guidetolerance="10.0"
     gridtolerance="10.0"
     objecttolerance="10.0"
     borderopacity="1.0"
     bordercolor="#666666"
     pagecolor="#ffffff"
     id="base"
     width="744.09449px"
     height="1052.3622px"
     showguides="true" />
  <text
     style="font-size:40px;font-style:normal;font-weight:normal;fill:#000000;fill-opacity:1;stroke:none;stroke-width:1px;stroke-linecap:butt;stroke-linejoin:miter;stroke-opacity:1;font-family:Bitstream Vera Sans"
     x="-182.0331"
     y="-222.26465"
     id="text2191"><tspan
       id="tspan2193"
       x="-182.0331"
       y="-222.26465"> </tspan></text>
  <g
     id="g2250"
     transform="translate(-2.3946047,-2.3946047)">
    <path
       d="M 374.9049,821.34943 C 661.34143,658.27259 736.49133,398.36732 747.41517,139.24912 C 619.05412,93.630948 499.09843,48.012777 374.9049,2.3946047 C 250.71133,48.012777 130.75562,93.630948 2.3946047,139.24912 C 13.318504,398.36732 88.468336,658.27259 374.9049,821.34943 z "
       style="fill:url(#linearGradient3145);fill-opacity:1;fill-rule:evenodd;stroke:none;stroke-width:4.78920937px;stroke-linecap:butt;stroke-linejoin:miter;stroke-opacity:1"
       id="path2161" />
    <g
       transform="translate(883.92832,0)"
       id="g3187">
      <path
         id="path3165"
         d="M -223.30688,400.73181 C -223.30688,561.07705 -306.74187,691.21231 -502.89435,691.21231 C -694.86481,691.21231 -782.48181,561.07705 -782.48181,400.73181 C -782.48181,240.38658 -700.44084,110.25131 -502.89435,110.25131 C -305.34786,110.25131 -223.30688,240.38658 -223.30688,400.73181 z "
         style="fill:#ff0000;fill-opacity:1;fill-rule:nonzero;stroke:none;stroke-width:1.77165353;stroke-linecap:round;stroke-linejoin:round;stroke-miterlimit:4;stroke-opacity:1"
         transform="matrix(1.022737,0,0,1.0593843,5.0800267,-30.151446)" />
      <path
         id="path3167"
         d="M -509.25,102.71964 C -692.74452,101.29394 -782.20177,235.25823 -782.20179,394.375 C -782.20179,553.49177 -687.04314,686.49787 -509.25,687.73304 C -334.31445,688.91864 -236.29821,553.49176 -236.29821,394.375 C -236.29821,235.25823 -335.73541,101.29394 -509.25,102.71964 z M -509.25,117.8125 C -343.15473,117.8125 -252.25,241.70851 -252.25,394.375 C -252.24999,547.04149 -341.72902,670.9375 -509.25,670.9375 C -679.6224,670.9375 -766.25,547.04149 -766.25,394.375 C -766.25002,241.7085 -686.7509,119.2382 -509.25,117.8125 z M -509.25,162.59375 C -651.21902,162.59375 -717.37501,266.42805 -717.375,394.375 C -717.375,522.32195 -654.06695,627.89988 -509.25,626.15625 C -365.86096,624.44698 -301.125,522.32195 -301.125,394.375 C -301.125,266.42805 -378.68661,162.59375 -509.25,162.59375 z M -509.25,174.6875 C -378.97709,174.6875 -312,273.103 -312,394.375 C -311.99999,515.64701 -376.12567,609.78539 -509.25,614.0625 C -646.58057,618.47475 -706.5,515.64701 -706.5,394.375 C -706.49999,273.103 -639.52291,174.6875 -509.25,174.6875 z "
         style="fill:#ffff00;fill-opacity:1;fill-rule:nonzero;stroke:none;stroke-width:1.72740388;stroke-linecap:round;stroke-linejoin:round;stroke-miterlimit:4;stroke-opacity:1" />
    </g>
    <g
       transform="translate(4,0)"
       id="g3173">
      <g
         id="g3140"
         transform="translate(881.36842,0)">
        <path
           id="path2165"
           d="M -434.9515,315.30762 C -454.86954,337.7861 -486.73634,363.82429 -509.99844,380.42657 C -529.54585,364.28105 -549.09327,354.01739 -568.64068,330.42816 C -562.74339,323.90605 -556.836,317.40414 -550.11818,312.52308 C -541.38181,320.62744 -536.13564,328.7399 -521.42681,336.99626 C -510.68481,341.74809 -508.90269,338.99363 -500.72486,334.13266 L -477.88044,313.75791 C -464.20624,318.51412 -454.6355,317.96368 -434.9515,315.30762 z "
           style="fill:#000000;fill-rule:evenodd;stroke:none;stroke-width:1px;stroke-linecap:butt;stroke-linejoin:miter;stroke-opacity:1" />
        <path
           id="path3138"
           d="M -549.1622,313.4899 L -484.90633,256.65551 C -481.61644,256.49409 -477.80354,261.60228 -478.29397,264.84224 L -540.89857,321.93989 L -549.1622,313.4899 z "
           style="fill:#ffff00;fill-rule:evenodd;stroke:none;stroke-width:1px;stroke-linecap:butt;stroke-linejoin:miter;stroke-opacity:1" />
      </g>
      <g
         id="g4274"
         transform="matrix(0.5307214,0,0,0.5307214,599.95568,157.09217)"
         style="stroke:none">
        <path
           d="M -276.95968,215.667 C -379.16246,155.27317 -488.14166,156.21675 -587.33701,215.55337 C -596.64475,211.00144 -599.1489,204.18164 -602.09929,197.51059 C -624.83711,176.87699 -648.04288,157.64725 -675.09056,149.94324 C -669.02695,137.24262 -659.64826,136.48928 -649.69473,139.12881 C -649.77867,127.99447 -627.43642,124.90308 -626.70309,149.12311 C -621.90666,163.44649 -614.50462,167.53855 -602.94751,159.78476 C -588.97386,151.00865 -594.67998,144.56822 -597.84587,137.46046 C -610.01855,134.7267 -619.79434,114.95117 -609.48043,103.19602 C -596.12944,97.642648 -580.35867,115.06256 -586.18321,129.41198 C -581.4277,143.10183 -573.77397,148.39085 -560.86443,143.61075 C -546.85585,132.12261 -550.37617,123.59248 -559.79297,112.10434 C -575.22711,101.84229 -570.65344,82.723965 -562.20888,69.745982 C -541.32419,71.098927 -528.01274,85.424228 -534.13041,103.97763 C -538.24713,116.07717 -527.10466,130.25226 -510.18188,122.65603 C -497.73713,116.99494 -492.89573,110.61072 -499.7245,97.957277 C -510.53726,80.207767 -504.57383,63.954283 -497.28949,57.256637 C -487.71711,63.780852 -480.26793,67.591344 -480.81889,92.625696 C -484.07754,104.78619 -482.29898,120.5963 -464.05963,117.0215 C -450.76127,117.9836 -433.76951,105.97545 -449.15093,88.690243 C -468.47139,69.909054 -439.74182,48.850332 -432.26991,43.751203 C -424.798,48.850332 -396.06843,69.909054 -415.38889,88.690243 C -430.77031,105.97545 -413.77855,117.9836 -400.48019,117.0215 C -382.24084,120.5963 -380.46228,104.78619 -383.72093,92.625696 C -384.27189,67.591344 -376.82271,63.780852 -367.25033,57.256637 C -359.96599,63.954283 -354.00256,80.207767 -364.81532,97.957277 C -371.64409,110.61072 -366.80269,116.99494 -354.35794,122.65603 C -337.43516,130.25226 -326.29269,116.07717 -330.40941,103.97763 C -336.52708,85.424228 -323.21563,71.098927 -302.33094,69.745982 C -293.88638,82.723965 -289.31271,101.84229 -304.74685,112.10434 C -314.16365,123.59248 -317.68397,132.12261 -303.67539,143.61075 C -290.76585,148.39085 -283.11212,143.10183 -278.35661,129.41198 C -284.18115,115.06256 -268.41038,97.642648 -255.05939,103.19602 C -244.74548,114.95117 -254.52127,134.7267 -266.69395,137.46046 C -269.85984,144.56822 -275.56596,151.00865 -261.59231,159.78476 C -250.0352,167.53855 -242.63316,163.44649 -237.83673,149.12311 C -237.1034,124.90308 -214.76115,127.99447 -214.84509,139.12881 C -204.89156,136.48928 -195.51287,137.24262 -189.44926,149.94324 C -216.49694,157.64725 -239.70271,176.87699 -262.44053,197.51059 C -265.39092,204.18164 -267.65194,211.11507 -276.95968,215.667 z "
           style="fill:#ffff00;fill-rule:evenodd;stroke:none;stroke-width:5.31496048;stroke-linecap:butt;stroke-linejoin:miter;stroke-miterlimit:4;stroke-dasharray:none;stroke-opacity:1"
           id="path3285" />
        <path
           id="path3292"
           d="M -602.01483,197.54016 C -508.89221,136.33569 -368.64751,135.59078 -262.35444,197.1813"
           style="fill:none;fill-rule:evenodd;stroke:none;stroke-width:5.31496048;stroke-linecap:butt;stroke-linejoin:miter;stroke-miterlimit:4;stroke-dasharray:none;stroke-opacity:1" />
        <path
           style="fill:none;fill-rule:evenodd;stroke:none;stroke-width:5.31496048;stroke-linecap:butt;stroke-linejoin:miter;stroke-miterlimit:4;stroke-dasharray:none;stroke-opacity:1"
           d="M -602.01483,197.54016 C -589.1703,189.09814 -575.42927,181.80638 -561.00449,175.66978 C -550.17007,171.06059 -535.10779,153.27146 -537.11631,135.21399 C -529.43184,150.74235 -500.29405,157.00888 -486.26737,154.93896 C -451.27486,149.77511 -414.68052,150.11685 -378.67522,156.01487 C -364.65067,158.31222 -336.03811,151.17841 -327.31209,135.79061 C -330.3198,153.68891 -314.97685,172.43307 -304.24829,176.76017 C -289.8482,182.56809 -275.82854,189.37386 -262.35444,197.1813"
           id="path3294" />
        <path
           d="M -418.1497 139.29799 A 13.593102 11.65123 0 1 1  -445.3359,139.29799 A 13.593102 11.65123 0 1 1  -418.1497 139.29799 z"
           id="path4267"
           style="fill:#ffff00;fill-opacity:1;fill-rule:nonzero;stroke:none;stroke-width:5.31496048;stroke-linecap:round;stroke-linejoin:round;stroke-miterlimit:4;stroke-dasharray:none;stroke-opacity:1" />
        <path
           id="path4269"
           d="M -262.78271,196.18097 C -267.90306,190.69619 -268.24321,182.68279 -263.54197,178.29391 C -258.84072,173.90504 -250.86957,174.79447 -245.74922,180.27925 C -240.62887,185.76404 -257.66236,201.66576 -262.78271,196.18097 z "
           style="fill:#ffff00;fill-opacity:1;fill-rule:nonzero;stroke:none;stroke-width:5.31496;stroke-linecap:round;stroke-linejoin:round;stroke-miterlimit:4;stroke-opacity:1" />
        <path
           style="fill:#ffff00;fill-opacity:1;fill-rule:nonzero;stroke:none;stroke-width:5.31496;stroke-linecap:round;stroke-linejoin:round;stroke-miterlimit:4;stroke-opacity:1"
           d="M -600.48097,196.18097 C -595.36062,190.69619 -595.02047,182.68279 -599.72171,178.29391 C -604.42296,173.90504 -612.39411,174.79447 -617.51446,180.27925 C -622.63481,185.76404 -605.60132,201.66576 -600.48097,196.18097 z "
           id="path4272" />
      </g>
      <g
         id="g3375"
         transform="translate(10,-2)">
        <g
           transform="translate(866.41684,0)"
           id="g3359">
          <path
             style="fill:#000000;fill-rule:evenodd;stroke:none;stroke-width:1px;stroke-linecap:butt;stroke-linejoin:miter;stroke-opacity:1"
             d="M -550.67561,437.1298 C -578.95634,444.93405 -566.71696,468.77491 -608.45375,454.24924 C -585.71123,447.36853 -579.4722,414.68696 -558.52203,410.73732 C -523.3301,377.71002 -485.29078,377.90229 -444.39237,411.45062 C -417.64036,411.1781 -420.84205,436.39711 -386.61422,449.96938 C -421.8928,479.0243 -427.93351,429.78803 -449.38554,437.12979 C -449.875,459.9418 -463.10052,467.87783 -464.36505,483.49497 C -466.57692,495.58528 -465.16217,509.4889 -463.65174,523.44035 C -462.13988,537.07669 -465.50679,547.29789 -482.91112,547.6929 C -490.9953,555.45288 -506.21259,558.91534 -517.86333,549.11952 C -540.00892,545.16768 -536.04046,532.51115 -536.4094,521.30042 C -533.98086,508.9941 -530.39493,496.91925 -537.12271,482.78166 C -538.43603,466.66435 -551.60111,459.87521 -550.67561,437.1298 z "
             id="path3331" />
          <path
             style="fill:#ffff00;fill-rule:evenodd;stroke:none;stroke-width:1px;stroke-linecap:butt;stroke-linejoin:miter;stroke-opacity:1"
             d="M -557.58261,401.72539 C -566.858,412.67224 -573.4972,413.07429 -578.98193,408.85849 C -587.38519,401.62931 -578.73454,383.87268 -583.99567,369.83226 C -590.63759,352.10693 -606.06098,354.85071 -607.81046,349.87983 C -602.49502,341.46441 -576.31857,346.11761 -572.92691,360.98833 C -569.47395,376.1278 -561.33635,402.71089 -557.58261,401.72539 z "
             id="path3333" />
          <path
             id="path3335"
             d="M -455.27188,397.20338 C -445.99649,408.15023 -439.35729,408.55228 -433.87256,404.33648 C -425.4693,397.1073 -434.11995,379.35067 -428.85882,365.31025 C -422.2169,347.58492 -406.79351,350.3287 -405.04403,345.35782 C -410.35947,336.9424 -436.53592,341.5956 -439.92758,356.46632 C -443.38054,371.60579 -451.51814,398.18888 -455.27188,397.20338 z "
             style="fill:#ffff00;fill-rule:evenodd;stroke:none;stroke-width:1px;stroke-linecap:butt;stroke-linejoin:miter;stroke-opacity:1" />
          <g
             transform="matrix(0.5339433,0,0,0.5868656,-699.91181,148.83734)"
             style="stroke:#000000;stroke-width:3.16491389;stroke-miterlimit:4;stroke-dasharray:none;stroke-opacity:1"
             id="g3345">
            <path
               style="fill:#ffffff;fill-rule:evenodd;stroke:#000000;stroke-width:3.16491389;stroke-linecap:butt;stroke-linejoin:miter;stroke-miterlimit:4;stroke-dasharray:none;stroke-opacity:1"
               d="M 295.7873,509.57546 C 302.96582,508.97531 310.90751,505.09873 327.91832,517.87818 C 345.35237,532.39931 339.65072,539.19839 346.78708,548.61465 C 336.41961,550.96195 334.64046,531.22259 326.71171,529.88415 C 315.39418,539.51715 295.59299,525.99703 295.7873,509.57546 z "
               id="path3347" />
            <path
               style="fill:#ffffff;fill-rule:evenodd;stroke:#000000;stroke-width:3.16491389;stroke-linecap:butt;stroke-linejoin:miter;stroke-miterlimit:4;stroke-dasharray:none;stroke-opacity:1"
               d="M 296.32335,496.65924 C 306.59692,485.04836 338.0466,500.95433 337.00783,519.1112 C 329.53383,513.85345 326.84436,509.48179 316.9319,507.47531 C 313.18877,502.92249 309.35277,500.25405 296.32335,496.65924 z "
               id="path3349" />
            <path
               style="fill:#ffffff;fill-rule:evenodd;stroke:#000000;stroke-width:3.16491389;stroke-linecap:butt;stroke-linejoin:miter;stroke-miterlimit:4;stroke-dasharray:none;stroke-opacity:1"
               d="M 406.8234,517.31999 C 413.43563,514.37451 416.99864,507.69254 427.47413,504.41328 C 434.7751,498.59202 438.5813,496.40038 451.85348,491.50657 C 437.06875,486.70656 406.24854,492.18085 406.8234,517.31999 z "
               id="path3351" />
            <path
               id="path3353"
               d="M 450.72471,507.14417 C 443.54619,506.54402 435.6045,502.66744 418.59369,515.44689 C 401.15964,529.96802 406.86129,536.7671 399.72493,546.18336 C 410.0924,550.98002 411.87155,528.7913 419.8003,527.45286 C 431.89099,539.86744 451.88552,521.45641 450.72471,507.14417 z "
               style="fill:#ffffff;fill-rule:evenodd;stroke:#000000;stroke-width:3.16491389;stroke-linecap:butt;stroke-linejoin:miter;stroke-miterlimit:4;stroke-dasharray:none;stroke-opacity:1" />
            <path
               style="fill:#ffffff;fill-rule:evenodd;stroke:#000000;stroke-width:3.16491389;stroke-linecap:butt;stroke-linejoin:miter;stroke-miterlimit:4;stroke-dasharray:none;stroke-opacity:1"
               d="M 342.08829,573.91765 C 341.09294,594.44001 343.15874,616.02711 328.10838,631.66077 C 317.93634,645.01363 326.43946,662.00475 343.55644,656.3407 C 350.84343,651.98616 351.73262,640.8896 347.8112,637.4982 C 338.33024,635.33975 344.60931,654.83167 334.42739,646.23679 C 328.28016,626.52564 354.69847,630.84562 356.91682,634.08035 C 368.46545,642.41138 382.66272,641.66378 391.5627,634.08035 C 403.12061,625.98773 416.99281,636.96219 414.19009,648.79433 C 403.72173,657.95879 406.01889,639.61964 400.27785,646.16911 C 394.93689,649.05942 400.83434,658.71359 407.40382,657.48606 C 420.63525,659.9294 424.71496,644.81103 419.82505,634.23004 C 408.25215,626.5457 403.38398,601.42761 406.15043,576.33722 L 405.76387,576.46868 C 393.09866,580.0223 391.18277,604.01458 402.63365,623.1812 C 388.26674,622.74445 386.42072,633.74344 375.90639,632.09028 C 361.33117,633.95468 363.36085,622.35749 342.6779,624.62591 C 352.4904,605.45654 358.90949,582.25033 342.08829,573.91765 z "
               id="path3355" />
            <path
               style="fill:#ffffff;fill-rule:evenodd;stroke:#000000;stroke-width:3.16491389;stroke-linecap:butt;stroke-linejoin:miter;stroke-miterlimit:4;stroke-dasharray:none;stroke-opacity:1"
               d="M 348.45677,663.87405 C 357.08571,665.42046 364.24396,667.86338 375.18403,666.8264 C 388.37783,667.89752 392.44843,665.5156 399.91385,664.00811 C 399.65136,679.23563 388.81488,678.01751 374.70246,677.83965 C 360.72098,678.85561 345.18101,675.46019 348.45677,663.87405 z "
               id="path3357" />
          </g>
        </g>
        <path
           id="path3371"
           d="M 302.22078,427.93782 C 286.86673,425.24046 286.08743,446.29011 275.17545,451.97812 C 279.33047,457.23107 303.61479,442.89603 302.22078,427.93782 z "
           style="fill:#ffffff;fill-rule:evenodd;stroke:#000000;stroke-width:1px;stroke-linecap:butt;stroke-linejoin:miter;stroke-opacity:1" />
        <path
           style="fill:#ffffff;fill-rule:evenodd;stroke:#000000;stroke-width:1px;stroke-linecap:butt;stroke-linejoin:miter;stroke-opacity:1"
           d="M 434.50008,426.64995 C 449.85413,423.95259 450.63343,445.00224 461.54541,450.69025 C 457.39039,455.9432 433.10607,441.60816 434.50008,426.64995 z "
           id="path3373" />
      </g>
      <path
         style="fill:#ffe700;fill-opacity:1;fill-rule:evenodd;stroke:none;stroke-width:1px;stroke-linecap:butt;stroke-linejoin:miter;stroke-opacity:1"
         d="M 478.85521,574.40075 C 465.74765,571.37282 459.95517,581.32755 443.46455,582.44409 C 401.76604,589.41498 346.40915,588.34253 334.07525,596.11775 L 320.40158,588.87875 C 347.80489,569.79869 454.19132,614.89481 509.41987,512.4671 C 520.37105,483.07892 516.64052,433.22385 510.61811,407.38389 C 501.88501,369.9133 484.94986,347.42327 482.87687,321.03582 C 478.43687,277.80474 496.90554,255.097 522.2892,247.84151 C 506.3878,258.03462 492.02695,269.38314 491.72454,291.2755 C 496.38214,271.01728 507.62129,261.26679 526.5034,258.68293 C 509.19511,268.05337 498.14807,275.03611 493.3332,304.14483 C 499.31576,285.31524 509.49341,271.30903 531.01185,270.36284 C 509.76863,279.26153 499.06908,292.0618 494.94187,319.61302 C 500.18963,298.27292 514.83713,277.46085 535.4694,280.38492 C 515.61823,283.59355 498.17901,307.90783 499.76787,333.10082 C 504.0986,307.63726 519.62908,286.00079 539.23935,290.29532 C 516.66287,297.13493 505.59124,317.8653 503.10857,347.57882 C 506.61996,329.39273 517.40846,298.07304 541.85491,301.47344 C 516.96715,308.07778 510.88318,329.32231 507.8112,358.53025 C 512.57228,333.4586 524.68516,313.39599 544.51131,312.87247 C 522.91726,323.92251 513.64434,340.73015 512.5747,371.46208 C 518.40799,342.92995 529.43076,323.30858 548.46045,326.10856 C 531.10489,329.90528 517.51202,352.63094 516.78223,386.55854 C 520.00594,362.03636 532.46789,336.68198 552.66799,341.51424 C 532.95252,347.49766 523.618,366.04594 520.92726,399.36537 C 524.99809,375.9709 537.85507,353.15054 555.82281,355.37377 C 537.32803,362.87081 524.63103,386.93028 524.20709,414.39932 C 529.83279,385.8032 542.03407,370.58713 558.91678,373.19247 C 542.10334,376.6291 528.27277,400.32917 526.49673,430.36263 C 532.02234,403.62699 543.55464,385.58082 561.70152,389.34164 C 539.65021,396.65193 532.21442,419.05372 528.1679,445.64496 C 530.79782,426.67138 545.40084,402.67046 560.89718,405.4908 C 538.13105,416.87925 535.18921,436.76383 528.73049,455.14118 C 536.18311,433.21844 546.97973,418.4588 559.93172,423.02226 C 542.25702,426.03522 534.80817,447.97014 528.73049,465.84749 C 533.32753,449.1971 546.76967,437.02178 557.17867,439.54057 C 542.81912,444.41362 534.04183,458.77653 527.8128,477.47148 C 533.84641,466.72667 539.43688,455.24328 552.59026,456.36476 C 536.16352,462.86744 533.52066,477.41073 525.97744,489.09547 C 532.15219,480.62747 538.05889,471.2213 547.39005,473.80074 C 533.89952,479.28952 530.27175,490.25762 523.53028,499.49588 C 529.59042,492.06532 535.4166,483.75741 544.637,488.17779 C 527.83327,490.62501 525.78642,505.36962 517.71829,515.0965 C 521.79583,510.74986 528.98998,497.99963 539.74268,503.7784 C 526.8193,504.47871 520.63907,516.73872 513.12987,526.72049 C 519.3353,519.38724 525.8055,513.77498 533.6248,516.93187 C 521.61478,518.59822 514.93992,528.80085 506.70609,536.50911 C 512.92594,530.20561 519.1458,529.25919 525.36565,531.92069 C 513.65042,531.69989 507.66538,538.02787 501.50588,544.15647 C 508.1116,538.24786 511.91778,541.67101 516.18881,543.54468 C 505.37772,539.35735 499.99254,548.19221 492.94084,553.02741 C 499.35187,549.86652 503.14221,550.89872 505.48251,554.25099 C 498.86351,550.50183 491.12933,556.7893 483.764,559.75709 C 490.16376,556.75697 493.66088,558.40109 495.99978,561.89835 C 488.76028,557.93046 481.52077,563.30363 474.28127,566.18087 C 479.99504,564.23606 484.77671,564.15545 488.04652,567.09856 C 477.35789,565.09461 470.56494,570.88203 462.04549,573.21645 C 467.89573,572.93197 475.90355,566.71415 478.85521,574.40075 z "
         id="path2195" />
      <path
         id="path2199"
         d="M 267.24789,574.40075 C 280.35545,571.37282 286.14793,581.32755 302.63855,582.44409 C 344.33706,589.41498 399.69395,588.34253 412.02785,596.11775 L 425.70152,588.87875 C 398.29821,569.79869 291.91178,614.89481 236.68323,512.4671 C 225.73205,483.07892 229.46258,433.22385 235.48499,407.38389 C 244.21809,369.9133 261.15324,347.42327 263.22623,321.03582 C 267.66623,277.80474 249.19756,255.097 223.8139,247.84151 C 239.7153,258.03462 254.07615,269.38314 254.37856,291.2755 C 249.72096,271.01728 238.48181,261.26679 219.5997,258.68293 C 236.90799,268.05337 247.95503,275.03611 252.7699,304.14483 C 246.78734,285.31524 236.60969,271.30903 215.09125,270.36284 C 236.33447,279.26153 247.03402,292.0618 251.16123,319.61302 C 245.91347,298.27292 231.26597,277.46085 210.6337,280.38492 C 230.48487,283.59355 247.92409,307.90783 246.33523,333.10082 C 242.0045,307.63726 226.47402,286.00079 206.86375,290.29532 C 229.44023,297.13493 240.51186,317.8653 242.99453,347.57882 C 239.48314,329.39273 228.69464,298.07304 204.24819,301.47344 C 229.13595,308.07778 235.21992,329.32231 238.2919,358.53025 C 233.53082,333.4586 221.41794,313.39599 201.59179,312.87247 C 223.18584,323.92251 232.45876,340.73015 233.5284,371.46208 C 227.69511,342.92995 216.67234,323.30858 197.64265,326.10856 C 214.99821,329.90528 228.59108,352.63094 229.32087,386.55854 C 226.09716,362.03636 213.63521,336.68198 193.43511,341.51424 C 213.15058,347.49766 222.4851,366.04594 225.17584,399.36537 C 221.10501,375.9709 208.24803,353.15054 190.28029,355.37377 C 208.77507,362.87081 221.47207,386.93028 221.89601,414.39932 C 216.27031,385.8032 204.06903,370.58713 187.18632,373.19247 C 203.99976,376.6291 217.83033,400.32917 219.60637,430.36263 C 214.08076,403.62699 202.54846,385.58082 184.40158,389.34164 C 206.45289,396.65193 213.88868,419.05372 217.9352,445.64496 C 215.30528,426.67138 200.70226,402.67046 185.20592,405.4908 C 207.97205,416.87925 210.91389,436.76383 217.37261,455.14118 C 209.91999,433.21844 199.12337,418.4588 186.17138,423.02226 C 203.84608,426.03522 211.29493,447.97014 217.37261,465.84749 C 212.77557,449.1971 199.33343,437.02178 188.92443,439.54057 C 203.28398,444.41362 212.06127,458.77653 218.2903,477.47148 C 212.25669,466.72667 206.66622,455.24328 193.51284,456.36476 C 209.93958,462.86744 212.58244,477.41073 220.12566,489.09547 C 213.95091,480.62747 208.04421,471.2213 198.71305,473.80074 C 212.20358,479.28952 215.83135,490.25762 222.57282,499.49588 C 216.51268,492.06532 210.6865,483.75741 201.4661,488.17779 C 218.26983,490.62501 220.31668,505.36962 228.38481,515.0965 C 224.30727,510.74986 217.11312,497.99963 206.36042,503.7784 C 219.2838,504.47871 225.46403,516.73872 232.97323,526.72049 C 226.7678,519.38724 220.2976,513.77498 212.4783,516.93187 C 224.48832,518.59822 231.16318,528.80085 239.39701,536.50911 C 233.17716,530.20561 226.9573,529.25919 220.73745,531.92069 C 232.45268,531.69989 238.43772,538.02787 244.59722,544.15647 C 237.9915,538.24786 234.18532,541.67101 229.91429,543.54468 C 240.72538,539.35735 246.11056,548.19221 253.16226,553.02741 C 246.75123,549.86652 242.96089,550.89872 240.62059,554.25099 C 247.23959,550.50183 254.97377,556.7893 262.3391,559.75709 C 255.93934,556.75697 252.44222,558.40109 250.10332,561.89835 C 257.34282,557.93046 264.58233,563.30363 271.82183,566.18087 C 266.10806,564.23606 261.32639,564.15545 258.05658,567.09856 C 268.74521,565.09461 275.53816,570.88203 284.05761,573.21645 C 278.20737,572.93197 270.19955,566.71415 267.24789,574.40075 z "
         style="fill:#ffe700;fill-opacity:1;fill-rule:evenodd;stroke:none;stroke-width:1px;stroke-linecap:butt;stroke-linejoin:miter;stroke-opacity:1" />
    </g>
    <path
       d="M 408.66419,147.10234 L 414.2468,147.98222 C 414.1015,149.89484 414.41901,151.40943 415.19932,152.52594 C 415.97963,153.64247 417.22065,154.42094 418.92241,154.86134 C 420.72499,155.32785 422.18193,155.29804 423.29321,154.77192 C 424.40445,154.24579 425.09221,153.4722 425.35647,152.45117 C 425.5261,151.79568 425.47821,151.18813 425.21283,150.62852 C 424.94742,150.06892 424.37975,149.49499 423.50983,148.9067 C 422.91305,148.51018 421.52369,147.72021 419.34174,146.53683 C 416.53408,145.0167 414.66548,143.558 413.73591,142.16073 C 412.42889,140.19507 412.05919,138.11554 412.62683,135.92217 C 412.9922,134.51037 413.73414,133.29351 414.85268,132.27161 C 415.97119,131.24975 417.36682,130.61228 419.03958,130.35921 C 420.71229,130.1062 422.61383,130.25534 424.74418,130.80664 C 428.22329,131.70705 430.64472,133.14742 432.00849,135.12775 C 433.3722,137.10813 433.7687,139.38289 433.19799,141.95202 L 427.53752,140.74938 C 427.66661,139.263 427.418,138.10585 426.79166,137.27797 C 426.16528,136.45012 425.06425,135.8323 423.48858,135.42449 C 421.86244,135.00369 420.50283,135.00824 419.40975,135.43816 C 418.70636,135.71345 418.26169,136.21034 418.07576,136.92883 C 417.9061,137.58434 418.03826,138.21706 418.4722,138.82698 C 419.02478,139.60215 420.57928,140.66349 423.13572,142.01101 C 425.69212,143.35855 427.53377,144.54464 428.66068,145.56927 C 429.78753,146.59392 430.56554,147.79729 430.9947,149.17935 C 431.42381,150.56141 431.41166,152.12853 430.95823,153.8807 C 430.54715,155.469 429.72102,156.84227 428.47981,158.00053 C 427.23855,159.15877 425.72391,159.86631 423.93588,160.12314 C 422.14783,160.37996 420.04998,160.19683 417.64233,159.57374 C 414.13798,158.66682 411.65631,157.16044 410.19729,155.05454 C 408.73826,152.94865 408.22723,150.29793 408.66419,147.10234 L 408.66419,147.10234 z M 435.65099,163.06043 L 443.61303,135.55691 L 449.16626,137.16452 L 441.20422,164.66804 L 435.65099,163.06043 z M 463.00838,159.87684 L 465.60574,155.81153 L 476.10643,162.52051 L 469.96529,172.13243 C 468.31388,172.46797 466.27976,172.39289 463.86292,171.90718 C 461.44604,171.42144 459.24461,170.54413 457.2586,169.27526 C 454.73491,167.66285 452.87318,165.72784 451.67339,163.47021 C 450.4736,161.21258 450.03107,158.79753 450.34582,156.22507 C 450.66055,153.65261 451.55752,151.20879 453.03672,148.89358 C 454.64211,146.38089 456.5954,144.48449 458.89664,143.20437 C 461.19783,141.92428 463.6964,141.41149 466.39232,141.66602 C 468.45118,141.85352 470.63274,142.68336 472.93699,144.15553 C 475.93245,146.0694 477.87099,148.19254 478.7526,150.52498 C 479.63416,152.85744 479.60828,155.28611 478.67501,157.81102 L 473.25777,155.62464 C 473.67471,154.2223 473.63321,152.87854 473.13324,151.59336 C 472.63322,150.3082 471.68098,149.21694 470.27653,148.31959 C 468.14783,146.95958 466.02419,146.55304 463.90557,147.09995 C 461.78692,147.64687 459.87934,149.24801 458.18284,151.90334 C 456.3531,154.76717 455.61721,157.32165 455.97517,159.56676 C 456.33311,161.81189 457.54349,163.59342 459.60634,164.91139 C 460.62676,165.56335 461.7779,166.01684 463.05971,166.27182 C 464.34151,166.52679 465.53226,166.60384 466.63199,166.50298 L 468.5879,163.44165 L 463.00838,159.87684 z M 476.48151,177.84317 L 492.72326,154.2626 L 497.48442,157.54198 L 481.24267,181.12255 L 476.48151,177.84317 z M 492.01288,185.76886 L 509.3669,163.28976 L 513.94311,166.82263 L 499.53713,185.48307 L 510.91582,194.26749 L 507.96778,198.08615 L 492.01288,185.76886 z M 513.81544,202.11819 L 533.59992,181.74552 L 537.74732,185.77318 L 521.32375,202.68501 L 531.63619,212.69971 L 528.27527,216.16054 L 513.81544,202.11819 z M 553.34661,200.12803 L 556.82696,204.7443 L 544.44412,214.08012 C 542.47907,215.56162 541.24855,216.57903 540.75255,217.13237 C 539.96575,218.03539 539.56927,219.07219 539.5631,220.24278 C 539.55692,221.41337 540.03982,222.64328 541.01182,223.93252 C 541.99948,225.24253 543.01188,226.0284 544.049,226.29014 C 545.08611,226.55184 546.0455,226.45633 546.9272,226.0036 C 547.80886,225.55086 549.15424,224.64253 550.96334,223.27862 L 563.6113,213.74292 L 567.09166,218.35919 L 555.08311,227.41282 C 552.33827,229.4822 550.30517,230.81934 548.98379,231.42424 C 547.66237,232.02911 546.35898,232.29019 545.07363,232.2075 C 543.78825,232.12477 542.49094,231.69639 541.18172,230.92234 C 539.87247,230.14828 538.53589,228.85671 537.17198,227.04764 C 535.52586,224.86425 534.52968,223.01845 534.18345,221.51021 C 533.83721,220.00195 533.82006,218.61658 534.132,217.35407 C 534.44393,216.09157 534.96338,215.02321 535.69036,214.14898 C 536.77306,212.8598 538.59324,211.25106 541.15091,209.32275 L 553.34661,200.12803 z M 549.10164,241.32837 L 574.23475,227.61105 L 578.37988,235.20584 L 563.72483,249.12311 L 583.32972,244.27502 L 587.48421,251.88696 L 562.3511,265.60428 L 559.77794,260.88967 L 579.56211,250.09173 L 557.05506,255.90077 L 554.38832,251.01473 L 571.45899,235.24502 L 551.6748,246.04296 L 549.10164,241.32837 z M 588.49783,299.37925 L 588.49076,304.67169 C 585.57588,304.78057 583.19677,304.18277 581.35345,302.87826 C 579.51013,301.57371 578.17228,299.60276 577.3399,296.96538 C 576.31001,293.70215 576.57829,290.66825 578.1447,287.86364 C 579.71111,285.05903 582.42766,283.04655 586.29436,281.82622 C 590.38453,280.53533 593.89443,280.58886 596.82407,281.98679 C 599.75367,283.38472 601.76163,285.80469 602.84797,289.24671 C 603.79672,292.25289 603.67891,294.9751 602.49459,297.41338 C 601.79678,298.86243 600.55262,300.17673 598.76214,301.35627 L 596.03859,296.81503 C 597.22087,296.12237 598.03532,295.19868 598.48194,294.04393 C 598.92851,292.88918 598.94372,291.65244 598.52756,290.33377 C 597.95263,288.51217 596.83243,287.24056 595.16694,286.51892 C 593.50141,285.79727 591.20468,285.89849 588.27675,286.82256 C 585.16997,287.80307 583.13359,289.06018 582.16762,290.59391 C 581.20161,292.12762 581.00076,293.78852 581.56511,295.57658 C 581.98127,296.89528 582.75834,297.89732 583.89631,298.58271 C 585.03425,299.26807 586.56809,299.53359 588.49783,299.37925 L 588.49783,299.37925 z M 583.85551,315.10396 L 608.82626,308.73756 L 610.11169,313.77939 L 585.14095,320.1458 L 583.85551,315.10396 z M 588.13344,335.24258 L 612.51873,322.82208 L 613.23795,328.41863 L 595.1525,337.31795 L 614.87357,341.14601 L 615.5771,346.6205 L 588.84145,340.75195 L 588.13344,335.24258 z M 591.8788,359.93768 L 617.43478,356.627 L 618.10324,361.78701 L 592.54725,365.09768 L 591.8788,359.93768 z M 593.32436,379.1584 L 614.72986,378.71147 L 614.57024,371.06664 L 618.92867,370.97564 L 619.35615,391.4497 L 614.99772,391.5407 L 614.83847,383.91345 L 593.43298,384.36039 L 593.32436,379.1584 z M 593.17605,419.38068 L 593.34509,413.72306 L 599.2632,411.64887 L 599.57083,401.35267 L 593.78344,399.05186 L 593.94828,393.53479 L 619.40656,404.33703 L 619.24226,409.83652 L 593.17605,419.38068 z M 603.65293,410.10936 L 613.31722,406.84574 L 603.86292,403.08124 L 603.65293,410.10936 z M 591.61269,430.94694 L 612.83928,433.74465 L 613.83847,426.16372 L 618.16047,426.73337 L 615.48449,447.0363 L 611.16249,446.46665 L 612.15938,438.90316 L 590.9328,436.10545 L 591.61269,430.94694 z M 587.10334,453.21663 L 612.29803,458.62926 L 611.20516,463.71632 L 586.01046,458.30369 L 587.10334,453.21663 z M 592.93186,469.09892 L 591.65211,474.02166 C 589.95181,473.72307 588.56727,473.87407 587.49849,474.47465 C 586.42972,475.0752 585.62316,476.11821 585.07882,477.60365 C 584.50222,479.1771 584.4006,480.48466 584.77397,481.52636 C 585.14733,482.56802 585.77964,483.25216 586.67091,483.57879 C 587.24306,483.78844 587.79145,483.79906 588.31605,483.61066 C 588.84064,483.42221 589.4047,482.96432 590.00824,482.23696 C 590.41598,481.73735 591.24589,480.5625 592.49799,478.7124 C 594.10681,476.33152 595.57792,474.78631 596.91129,474.07679 C 598.78701,473.07924 600.68216,472.93126 602.59673,473.63287 C 603.82908,474.08446 604.85364,474.85617 605.67043,475.94802 C 606.48719,477.03986 606.93522,478.34604 607.01457,479.86657 C 607.09386,481.38707 606.79281,483.07711 606.1114,484.93668 C 604.9985,487.97354 603.49513,490.0155 601.60128,491.0626 C 599.70738,492.10962 597.63501,492.26441 595.38414,491.52698 L 596.95987,486.56291 C 598.27982,486.80947 599.33815,486.68869 600.13483,486.20059 C 600.93148,485.71248 601.58183,484.78073 602.08587,483.40534 C 602.606,481.98591 602.72166,480.76773 602.43285,479.75082 C 602.24823,479.09656 601.84235,478.65452 601.21518,478.42469 C 600.64298,478.21501 600.06465,478.27764 599.48012,478.61261 C 598.73717,479.03927 597.64963,480.33813 596.21754,482.5092 C 594.78542,484.68024 593.56085,486.22529 592.54387,487.1444 C 591.52685,488.06346 590.38051,488.65432 589.10484,488.917 C 587.82914,489.17962 586.42657,489.03071 584.89712,488.47026 C 583.51073,487.9622 582.35347,487.10129 581.42537,485.88754 C 580.49727,484.67376 579.99694,483.25481 579.92438,481.63071 C 579.85182,480.00655 580.20062,478.14368 580.97076,476.04208 C 582.09169,472.98318 583.65951,470.89306 585.67423,469.77171 C 587.68894,468.65037 590.10814,468.42611 592.93186,469.09892 L 592.93186,469.09892 z M 376.10598,156.31301 L 372.18595,147.30275 L 362.42689,148.44823 L 368.26999,140.54825 L 362.39844,132.6694 L 372.16157,133.77969 L 376.0491,124.75534 L 379.96912,133.76561 L 389.72819,132.62013 L 383.88508,140.52011 L 389.75663,148.39897 L 379.9935,147.28867 L 376.10598,156.31301 z M 155.80438,410.44381 L 129.88076,415.91061 L 130.022,410.58632 L 147.81996,407.17233 L 130.24994,401.99364 L 130.41403,395.80831 L 148.52749,391.76966 L 130.63871,387.33863 L 130.77762,382.10219 L 156.37214,389.04117 L 156.22577,394.55877 L 136.8308,399.17888 L 155.95401,404.8032 L 155.80438,410.44381 z M 156.21783,369.45692 L 130.44911,369.25285 L 130.49032,364.04988 L 156.25903,364.25395 L 156.21783,369.45692 z M 149.12896,354.46319 L 149.44857,349.38688 C 151.17463,349.35646 152.50515,348.94474 153.4401,348.15177 C 154.37506,347.35879 154.96841,346.18138 155.22014,344.61949 C 155.48679,342.96507 155.33772,341.66207 154.77296,340.71044 C 154.2082,339.75887 153.45726,339.20755 152.52013,339.0565 C 151.91852,338.95955 151.37814,339.05348 150.89897,339.33826 C 150.41983,339.6231 149.95321,340.17996 149.4991,341.00888 C 149.1939,341.57694 148.60271,342.88825 147.72555,344.94281 C 146.59918,347.58633 145.44899,349.38325 144.275,350.33354 C 142.62339,351.66979 140.79104,352.1757 138.77793,351.85124 C 137.48218,351.64241 136.32948,351.07974 135.31984,350.16328 C 134.31025,349.24682 133.62183,348.04977 133.25459,346.57212 C 132.8874,345.09448 132.86136,343.37804 133.17646,341.42279 C 133.69113,338.22964 134.77846,335.93889 136.43847,334.55056 C 138.09851,333.16227 140.10355,332.61595 142.45363,332.9116 L 141.85132,338.0848 C 140.50856,338.09393 139.49255,338.41389 138.80331,339.04466 C 138.1141,339.67546 137.65295,340.71395 137.41984,342.1601 C 137.17933,343.65258 137.29758,344.87051 137.77462,345.81389 C 138.08036,346.42106 138.56296,346.77779 139.22238,346.88407 C 139.82402,346.98103 140.37988,346.80948 140.88998,346.36941 C 141.53819,345.80918 142.35868,344.3271 143.35147,341.92318 C 144.3443,339.5193 145.25247,337.76945 146.07598,336.67361 C 146.89951,335.57782 147.91248,334.77961 149.11487,334.27898 C 150.31726,333.77841 151.72254,333.65769 153.33069,333.91686 C 154.78844,334.15183 156.08837,334.77679 157.23048,335.79174 C 158.37259,336.80674 159.1338,338.10455 159.51408,339.68518 C 159.89436,341.26584 159.90643,343.16105 159.55029,345.3708 C 159.03192,348.58712 157.89047,350.93739 156.12596,352.42162 C 154.36145,353.90586 152.02912,354.58639 149.12896,354.46319 L 149.12896,354.46319 z M 162.39518,325.72765 L 137.50529,319.05215 L 138.85314,314.02664 L 149.90588,316.99099 L 141.57616,303.87374 L 143.38848,297.11645 L 150.56941,309.08844 L 168.41496,303.28261 L 166.67096,309.78522 L 153.15495,313.49456 L 156.22173,318.68492 L 163.74302,320.70214 L 162.39518,325.72765 z M 171.19905,293.69815 L 147.15098,284.43754 L 149.02078,279.58201 L 173.06886,288.84263 L 171.19905,293.69815 z M 178.54355,273.10934 L 159.37883,263.56426 L 155.96987,270.40882 L 152.0677,268.46532 L 161.19744,250.13454 L 165.0996,252.07802 L 161.69847,258.90683 L 180.8632,268.4519 L 178.54355,273.10934 z M 188.95787,255.22904 L 166.91852,241.87479 L 169.61489,237.42481 L 179.40179,243.35498 L 175.06226,228.43469 L 178.68776,222.4513 L 182.24363,235.9513 L 201.00038,235.35454 L 197.51151,241.11244 L 183.49731,240.90378 L 184.99431,246.74365 L 191.65422,250.77907 L 188.95787,255.22904 z M 208.03593,229.10248 L 188.39711,212.41759 L 191.76596,208.45232 L 211.40478,225.13721 L 208.03593,229.10248 z M 305.81853,627.50724 L 297.72814,651.97383 L 290.33475,649.52906 L 291.41407,631.37173 L 281.50608,646.60967 L 274.096,644.15938 L 282.1864,619.69277 L 286.77598,621.21042 L 280.40742,640.46993 L 291.63258,622.81635 L 296.38905,624.38918 L 294.86039,645.24912 L 301.22896,625.98959 L 305.81853,627.50724 z M 255.21163,604.56681 L 260.09116,607.43518 L 259.06448,613.62163 L 267.94461,618.84171 L 272.7446,614.87337 L 277.50289,617.67048 L 255.79094,634.7995 L 251.04778,632.0113 L 255.21163,604.56681 z M 258.30382,618.21088 L 256.51894,628.25398 L 264.36535,621.77408 L 258.30382,618.21088 z M 237.49566,605.99404 L 234.58818,609.21859 L 226.25916,601.70859 L 233.13352,594.08454 C 234.64921,594.03108 236.44388,594.39878 238.51754,595.18766 C 240.59123,595.97658 242.41571,597.08122 243.99098,598.50159 C 245.99275,600.30652 247.35911,602.29986 248.09008,604.48163 C 248.82106,606.66341 248.85649,608.87286 248.19635,611.10996 C 247.53621,613.34708 246.37825,615.38383 244.72242,617.22023 C 242.92537,619.21327 240.91066,620.60769 238.6783,621.40354 C 236.44595,622.19934 234.15197,622.28478 231.79633,621.65982 C 229.99634,621.18866 228.18248,620.1291 226.35477,618.48115 C 223.97882,616.33879 222.57212,614.16706 222.13467,611.96596 C 221.69729,609.76485 222.07969,607.61262 223.28189,605.50928 L 227.76745,608.25199 C 227.18976,609.43521 227.02773,610.63427 227.28137,611.84919 C 227.53505,613.06409 228.21889,614.17378 229.33288,615.17826 C 231.02134,616.70065 232.84643,617.37588 234.80817,617.20391 C 236.76995,617.03194 238.70037,615.89286 240.59943,613.78668 C 242.64763,611.51513 243.67898,609.35631 243.69348,607.31024 C 243.708,605.26416 242.89715,603.50346 241.26093,602.02814 C 240.45154,601.29833 239.49674,600.72539 238.39654,600.30932 C 237.29637,599.89326 236.25068,599.64862 235.25949,599.5754 L 233.07005,602.00361 L 237.49566,605.99404 z M 228.67605,587.81743 L 209.96183,605.53317 L 196.82608,591.65709 L 199.99193,588.66014 L 209.55069,598.75765 L 213.69947,594.83022 L 204.80536,585.43482 L 207.95843,582.44997 L 216.85255,591.84537 L 221.94598,587.02369 L 212.04886,576.56876 L 215.20194,573.58392 L 228.67605,587.81743 z M 205.14019,575.33406 L 201.86124,571.44565 C 203.08722,570.23025 203.76379,569.01288 203.89098,567.79354 C 204.01818,566.57421 203.63275,565.31332 202.73471,564.01087 C 201.78346,562.63127 200.77484,561.79295 199.70886,561.49595 C 198.64291,561.19895 197.71919,561.31987 196.93772,561.85869 C 196.43606,562.2046 196.11059,562.6461 195.96133,563.18314 C 195.8121,563.7202 195.86002,564.44515 196.10508,565.35799 C 196.27734,565.9794 196.75689,567.33552 197.54374,569.42634 C 198.55776,572.11496 198.96922,574.2084 198.7781,575.70667 C 198.50879,577.81402 197.53478,579.44643 195.85606,580.60392 C 194.77555,581.34894 193.55375,581.73945 192.19067,581.77541 C 190.82762,581.81136 189.50262,581.42253 188.21563,580.60889 C 186.9287,579.79525 185.7231,578.5732 184.59885,576.94276 C 182.76289,574.27999 181.96459,571.87324 182.20395,569.72247 C 182.44337,567.57171 183.51419,565.79069 185.41643,564.37942 L 188.55811,568.53327 C 187.59436,569.46827 187.08155,570.4019 187.01973,571.33416 C 186.95796,572.26643 187.34281,573.33554 188.17431,574.5415 C 189.03246,575.78604 189.96,576.58418 190.95691,576.9359 C 191.59761,577.16316 192.19289,577.08721 192.74279,576.70803 C 193.2445,576.36211 193.52747,575.85385 193.59171,575.18322 C 193.67265,574.3303 193.24069,572.69226 192.29584,570.2691 C 191.35103,567.84595 190.79726,565.95382 190.63453,564.59274 C 190.47186,563.23167 190.65177,561.95463 191.17431,560.7616 C 191.69689,559.56858 192.62868,558.50975 193.96969,557.5851 C 195.1853,556.74694 196.55657,556.29965 198.08345,556.24324 C 199.61036,556.18685 201.05762,556.59815 202.42523,557.47714 C 203.79287,558.35617 205.11197,559.71703 206.38252,561.55973 C 208.23184,564.2418 209.03221,566.72897 208.78365,569.02127 C 208.5351,571.31358 207.32061,573.41784 205.14019,575.33406 L 205.14019,575.33406 z M 191.03346,541.46607 L 173.11176,553.17963 L 177.29518,559.58024 L 173.64608,561.96527 L 162.44223,544.82341 L 166.09133,542.43839 L 170.26511,548.82427 L 188.18682,537.11072 L 191.03346,541.46607 z M 173.01789,506.29261 L 175.44517,511.40591 L 171.12208,515.94871 L 175.53942,525.25425 L 181.73951,524.66551 L 184.10647,529.65177 L 156.52246,531.6353 L 154.16303,526.66493 L 173.01789,506.29261 z M 167.9159,519.31921 L 160.8,526.62765 L 170.93115,525.67111 L 167.9159,519.31921 z M 169.31634,495.10539 L 149.24339,502.55329 L 151.90335,509.72221 L 147.81624,511.23869 L 140.69243,492.03919 L 144.77953,490.5227 L 147.43339,497.67513 L 167.50633,490.22721 L 169.31634,495.10539 z M 164.34325,474.9016 L 139.36113,481.22324 L 138.08474,476.1791 L 163.06686,469.85747 L 164.34325,474.9016 z M 151.23952,463.73165 L 150.86434,458.65914 C 152.57015,458.39377 153.83214,457.80459 154.6503,456.89158 C 155.46847,455.9786 155.89583,454.73129 155.93235,453.14968 C 155.97104,451.47435 155.6458,450.20382 154.95662,449.33805 C 154.26744,448.47231 153.44837,448.02848 152.49939,448.00655 C 151.89019,447.9925 151.36765,448.15919 150.93176,448.50662 C 150.49591,448.85409 150.10953,449.46936 149.77263,450.35243 C 149.54769,450.95678 149.14073,452.33642 148.55175,454.49136 C 147.79616,457.26372 146.90158,459.20061 145.86805,460.30204 C 144.41396,461.85092 142.66763,462.60181 140.6291,462.55473 C 139.31696,462.52443 138.09835,462.12412 136.97324,461.3538 C 135.84816,460.58348 135.00305,459.49141 134.43785,458.07759 C 133.87271,456.66379 133.61299,454.9669 133.65868,452.98695 C 133.73338,449.75346 134.49839,447.33591 135.95368,445.73429 C 137.40906,444.13273 139.32094,443.31825 141.68937,443.29087 L 141.7977,448.49788 C 140.46872,448.68993 139.50579,449.14535 138.90894,449.86417 C 138.31212,450.58303 137.99679,451.67467 137.96296,453.13911 C 137.92808,454.65044 138.21122,455.84087 138.81237,456.71045 C 139.19801,457.2703 139.7247,457.55792 140.39248,457.57333 C 141.00172,457.58741 141.52902,457.34171 141.97437,456.83622 C 142.54017,456.19287 143.15103,454.6128 143.80696,452.09601 C 144.4629,449.57926 145.12414,447.72196 145.79061,446.52412 C 146.45713,445.32631 147.35186,444.39751 148.4748,443.7377 C 149.59778,443.07792 150.97349,442.76682 152.60196,442.80441 C 154.07812,442.83852 155.4511,443.2805 156.72087,444.13033 C 157.99065,444.9802 158.92162,446.16216 159.51377,447.67621 C 160.10592,449.19031 160.37617,451.06619 160.3245,453.30386 C 160.24928,456.56081 159.43878,459.04471 157.89302,460.75558 C 156.34724,462.46643 154.12942,463.45846 151.23952,463.73165 L 151.23952,463.73165 z M 232.01678,202.36782 L 228.19992,205.50305 L 216.38421,191.11847 C 216.06079,193.56798 215.2094,195.88242 213.83005,198.06183 L 210.98491,194.59812 C 211.71324,193.45393 212.28771,191.94703 212.7083,190.0774 C 213.12891,188.20781 213.05818,186.48777 212.49611,184.91728 L 215.59307,182.37339 L 232.01678,202.36782 z M 239.79092,169.52761 L 237.23092,165.72036 L 251.24917,156.29445 L 253.25009,159.27021 C 252.8579,161.18618 252.77974,163.61116 253.01564,166.54514 C 253.25152,169.47917 253.86177,172.35564 254.84638,175.17454 C 255.83098,177.99347 256.96244,180.34296 258.24071,182.22301 L 254.28759,184.8811 C 252.36783,181.87901 250.95097,178.45402 250.03706,174.60612 C 249.12313,170.75824 248.81481,166.9762 249.11211,163.26001 L 239.79092,169.52761 z M 289.08973,146.60966 L 284.67036,148.50906 C 284.27107,147.60173 283.76765,146.99568 283.16012,146.6909 C 282.55259,146.38618 281.87332,146.34833 281.12232,146.57739 C 280.12473,146.88172 279.41803,147.58736 279.00222,148.69433 C 278.5864,149.80133 278.72133,151.80009 279.40703,154.69062 C 280.15999,152.94174 281.41077,151.80059 283.15935,151.2672 C 285.13211,150.66545 287.05092,150.90101 288.9158,151.97389 C 290.78067,153.04679 292.07552,154.77137 292.80039,157.14764 C 293.56967,159.66964 293.44703,161.91851 292.43248,163.89422 C 291.4179,165.86995 289.75049,167.21171 287.43027,167.91946 C 284.94189,168.6785 282.60138,168.33572 280.40872,166.89112 C 278.21605,165.44652 276.44787,162.5217 275.10415,158.1166 C 273.72626,153.59944 273.56807,150.08854 274.62959,147.58389 C 275.6911,145.07929 277.55572,143.4201 280.22343,142.60633 C 282.09531,142.03537 283.80477,142.08669 285.35184,142.7603 C 286.89889,143.43396 288.14485,144.71707 289.08973,146.60966 L 289.08973,146.60966 z M 281.52352,160.18318 C 281.99194,161.71881 282.70659,162.79644 283.66748,163.41609 C 284.62835,164.03575 285.56275,164.2071 286.47068,163.93015 C 287.34497,163.66347 287.96925,163.09936 288.34356,162.23781 C 288.71784,161.37629 288.66737,160.16651 288.19212,158.60846 C 287.70317,157.0056 287.03117,155.9272 286.17612,155.37328 C 285.32104,154.81937 284.42274,154.68601 283.48119,154.97321 C 282.57326,155.25016 281.91402,155.84026 281.50345,156.74348 C 281.09285,157.64672 281.09955,158.79329 281.52352,160.18318 L 281.52352,160.18318 z M 329.68332,152.76651 L 330.4183,157.29514 L 313.32747,160.06893 C 313.2347,158.32693 313.52663,156.61449 314.20327,154.93162 C 314.87992,153.24875 316.37762,150.91916 318.69639,147.94284 C 320.5619,145.53872 321.68422,143.93194 322.06336,143.12244 C 322.57092,142.00721 322.74491,140.95797 322.58536,139.97472 C 322.40887,138.88741 321.98117,138.09908 321.30221,137.6097 C 320.62324,137.12038 319.76901,136.95925 318.73952,137.12631 C 317.72158,137.29154 316.96162,137.72949 316.45962,138.44016 C 315.95761,139.15087 315.77579,140.22512 315.91417,141.66291 L 310.97701,141.96557 C 310.83066,139.23502 311.42612,137.16168 312.76341,135.74554 C 314.10068,134.32945 315.91449,133.43553 318.20485,133.06379 C 320.71496,132.65643 322.79702,133.01304 324.45105,134.1336 C 326.10504,135.25422 327.09538,136.82089 327.42204,138.83358 C 327.60788,139.97877 327.5795,141.10232 327.3369,142.20424 C 327.09426,143.30618 326.6196,144.49622 325.91291,145.77436 C 325.44498,146.622 324.55632,147.87627 323.2469,149.53716 C 321.93747,151.19809 321.11498,152.29322 320.77944,152.82255 C 320.44389,153.3519 320.18454,153.857 320.0014,154.33785 L 329.68332,152.76651 z M 459.7373,619.81714 L 468.60304,644.01357 L 458.32038,647.78121 C 455.7346,648.72865 453.77615,649.19973 452.44502,649.19452 C 451.11393,649.18923 449.89267,648.75994 448.78122,647.90666 C 447.66983,647.05332 446.85205,645.91145 446.32791,644.48104 C 445.6627,642.66545 445.64704,640.97071 446.28094,639.3968 C 446.91487,637.82283 448.23722,636.49275 450.24797,635.40655 C 448.96588,635.1774 447.84591,634.82021 446.88806,634.33497 C 445.93023,633.84973 444.52343,632.87999 442.66763,631.42579 L 437.98362,627.78785 L 443.82641,625.64701 L 449.28767,629.61795 C 451.23148,631.0399 452.52418,631.91104 453.16572,632.23137 C 453.80728,632.55168 454.41989,632.70787 455.00356,632.69995 C 455.58726,632.692 456.44027,632.4824 457.56261,632.07119 L 458.55291,631.70834 L 454.85179,621.60723 L 459.7373,619.81714 z M 459.96804,635.57052 L 456.35344,636.89494 C 454.00972,637.75367 452.58256,638.38893 452.07194,638.80068 C 451.56135,639.21241 451.2297,639.72083 451.07698,640.32595 C 450.92428,640.93103 450.98098,641.59669 451.24706,642.32293 C 451.54542,643.13716 452.00363,643.71498 452.62169,644.05641 C 453.23978,644.39778 453.96913,644.48936 454.80974,644.33115 C 455.22603,644.24099 456.42447,643.83308 458.40507,643.1074 L 462.21774,641.7104 L 459.96804,635.57052 z M 430.7307,629.1051 L 435.56296,654.4175 L 416.79448,658.0005 L 415.97703,653.71847 L 429.63467,651.11115 L 428.56341,645.49961 L 415.8554,647.92562 L 415.04122,643.66084 L 427.74923,641.23482 L 426.43404,634.34557 L 412.29293,637.04517 L 411.47877,632.78039 L 430.7307,629.1051 z M 391.65775,643.97803 L 391.82834,648.31648 L 380.62216,648.75712 L 380.21882,638.49942 C 381.2664,637.40272 382.8078,636.41268 384.84299,635.52931 C 386.87824,634.64593 388.95557,634.16257 391.07501,634.07923 C 393.76825,633.97333 396.13826,634.446 398.18504,635.49725 C 400.23184,636.54851 401.80008,638.10527 402.88975,640.16757 C 403.97944,642.22986 404.57286,644.49637 404.67001,646.96713 C 404.77545,649.64864 404.30708,652.05366 403.26491,654.18221 C 402.22274,656.31071 400.64038,657.97378 398.51782,659.1714 C 396.90037,660.09111 394.86213,660.59932 392.40308,660.69604 C 389.20635,660.82171 386.6829,660.24951 384.83272,658.97946 C 382.98258,657.70935 381.75339,655.90176 381.14513,653.55669 L 386.27112,652.38758 C 386.68387,653.63793 387.40521,654.60937 388.43515,655.30188 C 389.46512,655.99434 390.72952,656.31112 392.22834,656.2522 C 394.50004,656.16286 396.27794,655.37169 397.56205,653.87869 C 398.84619,652.38567 399.43254,650.22229 399.32111,647.38856 C 399.20094,644.33231 398.43165,642.06685 397.01323,640.59215 C 395.59483,639.11744 393.78491,638.42337 391.58347,638.50994 C 390.49449,638.55275 389.41096,638.80939 388.33289,639.27985 C 387.25486,639.7503 386.33553,640.3054 385.57491,640.94516 L 385.70337,644.21217 L 391.65775,643.97803 z M 367.42714,636.22283 L 365.85464,661.94434 L 360.66121,661.62684 L 362.23371,635.90533 L 367.42714,636.22283 z M 326.9314,631.60139 L 332.5411,632.35543 L 333.99125,638.45651 L 344.20022,639.82877 L 347.08801,634.31078 L 352.55834,635.04607 L 339.17772,659.24878 L 333.72482,658.51582 L 326.9314,631.60139 z M 335.06788,642.98208 L 337.31311,652.93238 L 342.03646,643.91878 L 335.06788,642.98208 z M 582.11259,507.09627 L 580.67092,511.97406 C 578.98141,511.61947 577.59264,511.72466 576.50461,512.28961 C 575.41658,512.85453 574.57602,513.87033 573.98291,515.33698 C 573.35466,516.89053 573.20991,518.19403 573.54866,519.24748 C 573.88742,520.30091 574.49678,521.00556 575.37677,521.36144 C 575.9417,521.58989 576.48942,521.61862 577.01997,521.44763 C 577.5505,521.27662 578.12937,520.8376 578.75661,520.13058 C 579.18061,519.64471 580.04887,518.49791 581.36141,516.69019 C 583.048,514.36373 584.56934,512.86797 585.92542,512.20286 C 587.83307,511.26781 589.73206,511.18251 591.62242,511.94697 C 592.83918,512.43902 593.83769,513.24416 594.61797,514.3624 C 595.39821,515.4806 595.80287,516.80088 595.83195,518.3232 C 595.86098,519.8455 595.50427,521.52466 594.7618,523.3607 C 593.54921,526.35915 591.97921,528.35036 590.0518,529.33431 C 588.12435,530.31822 586.04801,530.40447 583.82274,529.59309 L 585.56155,524.68378 C 586.87264,524.9738 587.93438,524.88805 588.74675,524.42655 C 589.55909,523.96499 590.23985,523.05523 590.78904,521.69725 C 591.35578,520.29577 591.51162,519.08208 591.25655,518.05617 C 591.09365,517.39617 590.70257,516.94097 590.08334,516.69056 C 589.5184,516.46209 588.9383,516.50559 588.34303,516.82107 C 587.58638,517.22294 586.45654,518.48517 584.95351,520.60776 C 583.45047,522.73031 582.17555,524.23408 581.12875,525.11909 C 580.08194,526.00406 578.9167,526.55673 577.63304,526.77714 C 576.34938,526.99747 574.95249,526.80232 573.44239,526.19166 C 572.07353,525.63807 570.94535,524.73941 570.05783,523.49568 C 569.17033,522.25191 568.71715,520.81721 568.69827,519.19158 C 568.67941,517.56593 569.08953,515.71559 569.92867,513.64058 C 571.15004,510.62036 572.78604,508.58317 574.83668,507.52899 C 576.88731,506.47478 579.31262,506.33056 582.11259,507.09627 L 582.11259,507.09627 z M 551.32423,548.42862 L 554.30863,543.61917 L 560.46872,544.79369 L 565.89996,536.04111 L 562.04768,531.14748 L 564.95793,526.45754 L 581.56211,548.57344 L 578.66113,553.24845 L 551.32423,548.42862 z M 565.03843,545.66403 L 575.0359,547.6889 L 568.74576,539.68957 L 565.03843,545.66403 z M 547.2661,569.01589 L 542.72381,571.73207 C 541.13113,569.28834 540.42008,566.94059 540.59066,564.68883 C 540.76126,562.43703 541.76337,560.27594 543.59697,558.20556 C 545.8657,555.64388 548.60547,554.31341 551.81634,554.21415 C 555.0272,554.11488 558.15032,555.40938 561.18574,558.09765 C 564.3966,560.94131 566.15605,563.97884 566.46411,567.21026 C 566.77216,570.44164 565.72967,573.40836 563.33665,576.11042 C 561.24663,578.47029 558.85154,579.76948 556.15137,580.00799 C 554.54977,580.1549 552.78272,579.76397 550.85023,578.8352 L 553.34379,574.16373 C 554.54591,574.82134 555.75697,575.04468 556.97696,574.83373 C 558.19696,574.62274 559.26536,573.99966 560.18217,572.96448 C 561.44861,571.53449 561.96292,569.91975 561.72512,568.1203 C 561.4873,566.3208 560.21915,564.40325 557.92067,562.36763 C 555.48181,560.20768 553.35631,559.10795 551.54416,559.06843 C 549.732,559.0289 548.20437,559.71097 546.96123,561.11463 C 546.04443,562.14982 545.5848,563.33161 545.58235,564.66004 C 545.5799,565.98844 546.14115,567.44038 547.2661,569.01589 L 547.2661,569.01589 z M 533.36308,570.87092 L 551.12722,589.53919 L 543.19384,597.08834 C 541.19882,598.98671 539.58971,600.1984 538.36649,600.72344 C 537.14328,601.24841 535.85205,601.3407 534.49282,601.00031 C 533.1336,600.65985 531.9289,599.93783 530.87871,598.83423 C 529.5458,597.43344 528.85687,595.88497 528.81193,594.18878 C 528.767,592.49256 529.45066,590.74605 530.86293,588.94926 C 529.59556,589.24935 528.42595,589.36745 527.35412,589.30357 C 526.28229,589.23965 524.60574,588.91 522.32446,588.31462 L 516.57947,586.84168 L 521.08736,582.55211 L 527.67793,584.02117 C 530.02711,584.55193 531.55972,584.83657 532.27576,584.87507 C 532.9918,584.91354 533.61596,584.81299 534.14826,584.5734 C 534.68055,584.33378 535.37966,583.80199 536.24558,582.97802 L 537.00964,582.25097 L 529.59378,574.45767 L 533.36308,570.87092 z M 539.84511,585.23076 L 537.05633,587.88448 C 535.24808,589.60513 534.1917,590.75595 533.88716,591.33693 C 533.58263,591.91786 533.48074,592.51629 533.5815,593.13219 C 533.68227,593.74805 533.99923,594.33614 534.5324,594.89647 C 535.1302,595.52466 535.78053,595.87236 536.48343,595.93956 C 537.18632,596.00672 537.89186,595.80042 538.60004,595.32069 C 538.94605,595.07229 539.8831,594.22106 541.4112,592.767 L 544.3528,589.96787 L 539.84511,585.23076 z M 496.44298,602.33794 L 500.95579,598.92154 L 506.28282,602.23046 L 514.49559,596.01303 L 512.65829,590.06222 L 517.05898,586.73069 L 524.61064,613.33493 L 520.22395,616.65584 L 496.44298,602.33794 z M 510.23491,604.6842 L 518.83774,610.16513 L 515.84089,600.44023 L 510.23491,604.6842 z M 497.59383,601.85035 L 510.74886,624.00918 L 494.31869,633.76329 L 492.09327,630.01473 L 504.04938,622.91674 L 501.13301,618.00432 L 490.00825,624.60876 L 487.79182,620.87533 L 498.91657,614.27088 L 495.33616,608.23992 L 482.95686,615.58917 L 480.74042,611.85572 L 497.59383,601.85035 z "
       style="font-size:40px;font-style:normal;font-weight:bold;fill:#ffff00;fill-opacity:1;stroke:none;stroke-width:1px;stroke-linecap:butt;stroke-linejoin:miter;stroke-opacity:1;font-family:Bitstream Vera Sans"
       id="path2215" />
  </g>
</svg>