<!-- Created with Inkscape (http://www.inkscape.org/) -->
<svg
   xmlns="http://www.w3.org/2000/svg"
   id="svg2"
   version="1.0"><title>Herb Gorce dzielnica Boguszowa</title>
  <metadata
     id="metadata7">
    <rdf:RDF>
      <cc:Work
         rdf:about="">
        <dc:format>image/svg+xml</dc:format>
        <dc:type
           rdf:resource="http://purl.org/dc/dcmitype/StillImage" />
      </cc:Work>
    </rdf:RDF>
  </metadata>
  <defs
     id="defs5" />
  <sodipodi:namedview
     guidetolerance="10.0"
     gridtolerance="10.0"
     objecttolerance="10.0"
     borderopacity="1.0"
     bordercolor="#666666"
     pagecolor="#ffffff"
     id="base"
     width="744.09449px"
     height="1052.3622px" />
  <g
     id="g4325"
     transform="translate(232.24506,345.91947)">
    <g
       id="g4303">
      <path
         style="fill:#ff0000;fill-opacity:1;fill-rule:nonzero;stroke:#000000;stroke-width:5.31496048;stroke-linecap:round;stroke-linejoin:round;stroke-miterlimit:4;stroke-dasharray:none;stroke-dashoffset:0;stroke-opacity:1"
         d="M -229.58758,-343.26199 L -229.58758,216.45676 L -228.86883,216.45676 C -229.32108,381.12502 -76.00515,563.48868 138.50617,563.01926 C 352.88174,562.55014 508.66859,378.60145 505.75617,216.45676 L 506.63117,216.45676 C 506.63117,216.45676 507.18361,-195.04795 506.63117,-343.26199 L -229.58758,-343.26199 z "
         id="path2972" />
      <path
         id="path3305"
         d="M 476.74683,29.76012 L 476.62224,-312.87375 L -199.51055,-313.02167 L -199.47881,29.75988 L 476.74683,29.76012 z "
         style="fill:#fdec00;fill-opacity:1;fill-rule:nonzero;stroke:none;stroke-width:5.31496048;stroke-linecap:round;stroke-linejoin:round;stroke-miterlimit:4;stroke-dasharray:none;stroke-dashoffset:0;stroke-opacity:1" />
      <path
         id="path3301"
         d="M -200.60479,26.381936 L -200.59036,182.16438 C -205.41794,370.83555 -49.399221,517.69762 128.68376,529.29757 C 322.30336,523.9541 475.39529,378.784 475.67574,177.32003 L 475.62085,26.382176 L 475.54497,30.600536 L -200.60479,26.381936 z "
         style="fill:#00cccc;fill-opacity:1;fill-rule:nonzero;stroke:none;stroke-width:5.31496048;stroke-linecap:round;stroke-linejoin:round;stroke-miterlimit:4;stroke-dasharray:none;stroke-dashoffset:0;stroke-opacity:1" />
      <path
         style="fill:#00da00;fill-opacity:1;fill-rule:nonzero;stroke:#000000;stroke-width:5.31496048;stroke-linecap:round;stroke-linejoin:round;stroke-miterlimit:4;stroke-dasharray:none;stroke-dashoffset:0;stroke-opacity:1"
         d="M -171.35384,326.43852 C -119.07297,443.2221 -0.54249,524.18464 129.80974,532.67551 C 277.03282,528.61248 400.82415,443.70633 451.82125,314.67993 C 369.84152,228.14152 295.02656,244.76328 249.70416,290.82163 C 175.40825,239.89894 105.26203,248.15029 44.69822,293.05601 C -79.8072,214.45118 -139.24937,300.13651 -171.35384,326.43852 z "
         id="path3309" />
      <rect
         style="fill:#ff0000;fill-opacity:1;fill-rule:nonzero;stroke:#000000;stroke-width:4.94164181;stroke-linecap:round;stroke-linejoin:round;stroke-miterlimit:4;stroke-dasharray:none;stroke-opacity:1"
         id="rect3307"
         width="675.64886"
         height="31.656441"
         x="-199.11124"
         y="14.986513" />
      <path
         style="fill:none;fill-rule:evenodd;stroke:#000000;stroke-width:5.31496048;stroke-linecap:butt;stroke-linejoin:miter;stroke-miterlimit:4;stroke-dasharray:none;stroke-opacity:1"
         d="M -116.56007,417.10199 C -72.123671,365.66647 -9.8925162,332.02571 45.413015,291.45932 C 125.08834,241.59972 182.19162,248.60255 246.74405,288.43178 C 293.52355,312.77754 344.39035,361.64708 395.09323,409.53316"
         id="path3311" />
      <path
         id="path2292"
         d="M -199.51055,-313.02167 L -199.46438,185.54232 C -204.29196,374.21349 -48.27324,521.07556 129.80974,532.67551 C 323.42934,527.33204 476.52127,382.16194 476.80172,180.69797 L 476.62224,-312.87375 L -199.51055,-313.02167 z "
         style="fill:none;fill-opacity:1;fill-rule:nonzero;stroke:#000000;stroke-width:5.31496048;stroke-linecap:round;stroke-linejoin:round;stroke-miterlimit:4;stroke-dasharray:none;stroke-dashoffset:0;stroke-opacity:1" />
    </g>
    <path
       id="rect4312"
       d="M 193.03608,-256.3125 L 157.81733,-221.78125 L 190.34858,-188.59375 L 135.31733,-135.625 L 83.254835,-185.25 L 114.00483,-216.625 L 78.786085,-251.15625 L -3.3389144,-167.375 L 31.879835,-132.84375 L 65.442335,-167.0625 L 116.97358,-117.96875 L 48.411085,-52 L 65.973585,-33.59375 L 135.37983,-100.40625 L 205.50483,-33.59375 L 223.06733,-52 L 153.75483,-118.0625 L 208.16108,-170.4375 L 257.91108,-119.71875 L 275.16108,-172.53125 L 193.03608,-256.3125 z "
       style="fill:#000000;fill-opacity:1;fill-rule:nonzero;stroke:none;stroke-width:5.31496048;stroke-linecap:round;stroke-linejoin:round;stroke-miterlimit:4;stroke-dasharray:none;stroke-opacity:1" />
  </g>
</svg>