<svg viewBox="-22.24 -23.31 600.54 629.45"><title>Herb Drezdenko</title><path d="M556.059 0v304.789c0 152.914-125.113 278.031-278.027 278.031C125.114 582.82 0 457.707 0 304.789V0h556.063" style="stroke:none;fill-rule:evenodd;fill:#222"/><path d="M546.149 10.391v293.925c0 147.465-120.653 268.117-268.117 268.117-147.465 0-268.118-120.652-268.118-268.117V10.391h536.239zM317.723 423.535l24.82-.605-31.66 24.004q.083.064.172.136c12.496 11.324 30.922 6.391 35.637-12.156 18.758 14.176 8.89 45.18-24.137 46.766l5.363 14.668-22.734-14.125c-2 .058-4.004.121-6.008.179-4.738 26.473 18.684 29.914 30.609 14.68 4.918 27.867-11.804 56.906-37.007 34.414-1.594 12-10.914 15.41-17.133 25.465-6.176-8.941-15.793-12.559-18.504-22.485-38.16 27.782-48.629-16.742-38.738-32.828 8.867 14.02 32.132 10.774 36.836-13.82l-24.719 18.879 10.238-27.145c-35.996 26.618-58.551-12.886-36.387-34.558 2.606 22.933 17.426 17.254 37.875-1.613l-26.343-17.008 12.375-.242q-3.839-4.33-7.684-8.661c-5.387-7.707 1.723-15.378 7.082-12.847q19.98 8.987 33.352-9.407 1.253-13.762 2.511-27.531c-22.066-4.019-29.371 5.871-24.441 27.301-8.578.883-15.512-.719-20.785-4.816-6.91 4.586-6.895 10.172-8.043 15-.149 5.859-10.309 4.617-15.254 1.972-12.563 7.352-22.856 5.989-37.484 15.828-4.973 2.391-1.61 4.782 3.675 3.442 11.52-3.508 20.578-3.645 26.043 1.144 3.848 6.086 1.227 13.801-1.597 21.567-.559-3.344-1.469-6.617-4.797-9.407q-4.478 1.197-7.309-.917c-16.328-4.872-26.715-2.395-35.867 1.605-6.605 1.207-5.277 11.051-5.023 19.73q-.243 3.493-2.969 3.668-2.105 6.253-.91 15.829c-5.114-1.61-9.559-5.473-13.02-12.618-4.84-7.187-3.621-13.339 3.652-20.527 2.672-3.309 3.489-6.824-2.511-2.871q-8.338 5.73-16.676 11.469c-3.36 2.086-4.79 6.605-5.938 11.468-3.36-3.652-6.285-7.894-7.992-13.765.672-10.969 8.676-14.145 18.731-15.141 7.25-4.113 12.64-7.84 6.625-9.176-11.301-1.382-14.75 7.391-23.985 2.063-3.648-.715-7.676.469-11.879 2.519 3.125-7.21 7.368-11.949 13.25-13.074 2.86-4.074 9.172-3.394 16.446-1.375 10.898 1.535 22.129-.863 33.582-5.965 17.437-5.98 29.39-16.097 40.207-27.07-6.914-1.273-12.969-2.894-17.133-5.273 14.922-8.715 22.176-14.352 28.781-19.731 15.641-17.793 27.836-36.023 39.063-54.375q-1.595-.34-3.196-.687c-8.89 16.679-19.238 32.39-39.75 41.297q2.396-32.345 4.797-64.696c-7.316 7.129-9.25 52.36-16.617 73.254-9.84 29.274-45.66 65.074-74.988 32.051 28.894-14.602 39.226-45.566 41.121-83.969-11.879 25.906-21.199 46.055-28.965 60.336-12.301 19.113-38.59 20.883-66.754 3.215 29.898-11.352 52.274-54.84 73.332-103.93-13.25 20.813-27.531 41.453-44.09 61.715-2.05 2.129-5.852 1.731-3.426-3.668 12.692-14.765 24.657-29.777 34.04-45.652-46.2 52.312-73.883 35.844-77.215-1.606 24.433-1.718 27.652 1.496 66.25-40.379-14.074 9.61-28.626 19.028-45.461 27.532-3.532 1.312-4.586-1.59-.27-4.149 10.777-4.851 21.09-9.996 30.2-17.64-44.833 13.675-49.79-4.575-53.458-23.86 17.098 1.297 34.801-1.941 53-8.945-9.289.609-18.578 1.223-27.87 1.832-5.536-.281-5.017-3.68-.704-4.379 11.73.238 22.879-.488 34.059-1.352-35.622 2.997-55.016-6.035-54.829-29.593 20.329 2.343 39.524 3.926 53.227 1.832-17.558-1.563-32.176-4.114-44.777-7.34-2.442-.965-1.442-2.899 1.14-2.063 10.203 2.102 20.407 4.426 30.614 4.817-27.372-.926-38.473-15.469-36.094-41.297 14.824 9.047 29.852 15.711 45.23 18.125v-1.836c-13.601-3.645-25.699-10.32-36.55-19.5-1.395-1.91.168-2.988 1.597-1.375 10.508 8.207 22.051 15.031 35.867 18.813-37.863-19.622-53.808-42.43-49.8-68.141 19.265 13.558 37.96 25.594 53.914 30.281-46.157-30.867-53.7-44.199-52.13-81.086 32.016 18.149 63.45 41.559 95.618 56.078 3.699 1.668 2.844 1.535 6.032-1.008 7.796-6.23 14.414-10.183 16.043-4.496-1.696 10.504 8.894 17.184 25.585 23.399 18.301 11.117 23.793 28.937 9.899 45.519-7.027 8.391-18.613 13.336-37.086 20.551-14.203 5.731-3.016 18.945 10.734 12.156 16.262-9.875 29.778-12.73 39.977-7.109 14.207 5.602 25.383 4.359 35.18 0 8.671-4.398 15.058-12.09 19.875-22.023-3.899-6.727-6.235-13.461-2.969-20.188 9.668.965 15.082-2.988 17.59-10.32-6.485 1.574-13.832 1.672-18.614-.379-5.113-2.336-16.48.238-20.902-3.746-23.344 12.91-33.047 5.273-36.551-11.699 16.75 13.816 24.824-.922 45.918-11.239-10.547-.847-18.937 1.328-26.726 4.356 5.925-26.856 23.183-35.821 44.547-38.313 42.019-25.847 50.25 14.684 76.531-1.605 1.98 8.773-.059 15.972-7.992 20.875 2.851 14.664 10.394 20.476 22.613 17.433-.57 7.86-3.727 14.86-12.563 19.957 6.512 12.356-4.117 34.879 7.766 38.313 4.965 2.16 5.316 8.23.227 10.32-4.891 1.442-9.231 2.051-13.02 1.836-5.527 19.461 11.879 18.434 28.328 11.238 13.27-7.312 29.231 9.227 44.774 9.176 13.586.403 14.906-21.285.453-20.875-38.41-2.297-42.071-39.664-21.93-50.472 21.531-12.622 32.875-22.86 31.754-36.938 5.656 1.246 9.941 4.227 11.191 11.012 33.75-14.508 69.266-35.043 105.774-58.961-.61 7.652-1.965 15.566-2.883 23.953-5.492 15.965-18.16 32.289-38.465 49 12.41-5.301 24.824-11.297 37.238-18.813.399 31.208-20.972 48.809-45.461 64.469 15.223-5.008 29.153-12.179 42.719-19.957 3.403 17.285-5.918 32.567-30.609 45.426 9.324-.375 21.215-3.766 37.238-8.715 5.141 31.938-23.457 38.32-52.316 44.508 9.363 3.441 27.347 2.555 47.746.457-.613 4.766-12.52 7.148-44.547 5.273 14.012 5.379 31.09 9.727 48.43 13.993-16.563 20.308-35.325 25.156-55.743 18.351 8.176 6.039 16.895 12.082 26.727 18.125 2.168 1.692 1.25 2.61-2.738 2.75-7.809-5.32-14.543-9.558-21.242-13.762 16.566 19.422 25.027 26.145 46.144 21.563-1.922 34.66-25.949 48.793-44.211 32.355-6.601-6.808-14.32-15.14-22.039-25.703 1.75 11.137 8.809 24.176 18.273 38.082q1.98 4.864-2.968 1.606c-8.664-13.688-15.563-27.379-21.473-41.067 14.512 45.219 21.047 86.262 47.973 85.348-24.731 35.805-45.707 21.68-57.668.566-11.594-22.175-19.492-52.816-27.086-73.753.308 22.847 5.633 47.796 12.562 73.414 5.832 11.984 13.477 23.668 22.618 35.101-50.43 11.91-49.622-8.918-60.54-22.254-8.933-29.383-16.929-59.078-24.214-89.015-.586 19.839 1.093 43.097 2.738 66.304-22.184-6.078-31.867-25.48-35.867-50.929l-4.34 5.961c15.406 39.968 33.641 60.441 53.457 69.976q-3.31 2.52-6.625 5.047c10.152 18.266 25.543 26.09 43.512 33.887 8.308.656 18.547-2.481 29.816-5.438 7.152-1.582 13.188-.469 17.59 4.586.465.625-.586 1.442-1.598 1.606 4.192 6.039 2.699 12.078-1.367 18.125-.484-3.344-1.316-6.618-4.566-9.407-6.696 1.004-12.278.227-16.219-.421-1.399 1.066-1.324 3.253.226 4.324l14.391 4.586c2.902 10.093 1.504 19.148-9.363 25.922.765-4.106 1.047-8.145-2.055-11.7-2.016-1.023-3.312-2.254-3.566-3.804-4.969-4.922-9.106-7.188-11.739-4.68 3.973 4.789 5.325 9.871.911 15.598l-11.192 19.5q-1.024-7.57-2.055-15.141c-2.57-2.605-4.617-6.797-4.566-9.406 1.934-7.239 2.664-13.75-.91-17.664-7.598-8.676-22.961 2.132-36.551 8.488a586 586 0 0 1-2.512-.688c-3.738 1.348-6.726 4.598-9.363 8.715q-2.322-10.12 1.141-18.582c2.39-4.16 7.726-5.039 15.074-3.668 7.539-1.211 2.148-7.293-3.652-13.535q-11.761-9.175-23.528-18.351c-1.75 2.906-3.5 5.808-5.254 8.718-3.222 2.137-6.101 2.203-8.222-2.293l-10.735-19.269-10.507 9.406q-7.814 3.029-5.711-3.898c3.918-9.719 4.703-17.645.91-22.942-14.383-9.691-22.25.961-20.332 16.746 1.578 21.848 15.281 23.907 34.496 16.977 1.875 7.109 1 14.223-5.938 21.336-.343.375-.715.793-1.101 1.238" style="stroke:none;fill-rule:evenodd;fill:#fffdfd"/><path d="M353.016 385.937c7.144.926 12.687 1.051 15.891 0q13.763 23.474 46.746 35.071c17.613.371 33.566-9.832 43.422-3.895q-3.51 2.688-4.805 8.348l-14.965-.738c-7.145.863-5.355 9.339-.184 9.832l13.305 4.078c-4.004 2.285-7.266 5.07-9.793 8.347-3.633-4.078-8.004-6.863-13.117-8.347-1.969-1.36-3.449.492-4.434 5.566.614 3.649.305 7.297.922 10.945-3.445-.058-5.972.864-9.422 2.782-4.863-4.453.059-15.403-3.14-23.196-1.539-6.058-14.719-6.738-21.617-3.339-6.036 3.339-12.993 6.308-19.032 9.648-1.23-3.34-3.261-5.566-7.945-7.422 2.566-1.414 5.32-2.75 13.855-1.668 6.711-1.73 6.157-7.422 1.661-13.172q-15.059-11.965-30.118-23.937 2.493-4.454 2.77-8.906zm-166.395-1.453c-18.828 18.61-39.379 31.618-62.437 36.426-14.402 4.512-27.617-4.906-34.29.395 1.255 2.785 1.188 5.175-.194 7.961 5.019 1.39 12.617-3.383 20.414-3.184 6.902 1.027 10.011 3.215 4.754 7.961q-6.738 8.655-15.063 7.762c-6.012 2.285-9.117 4.941-10.898 7.761 4.523-.195 8.554.262 11.492 2.188q7.432-5.671 14.863-11.348c6.043-2.422 9.613-1.691 7.727 5.973-8.719 7.23-8.719 13.004-4.754 18.113 2.871-2.254 6.836-3.051 11.297-3.183-1.258-12.215-.204-19.118 9.117-24.286 9.547-4.711 19.324-6.832 37.855-.195.793-4.641 3.567-7.629 7.531-8.559-7.859-3.582-16.914.395-25.371.594-10.172.262-11.363-2.387-3.566-7.961 9.742-6.617 25.402-9.636 38.055-15.324-4.395-9.137-5.782-16.336-2.774-20.699a9.2 9.2 0 0 1-3.765-.399zm-1.187 46.383q-4.161 1.191-4.359 6.367c1.519.727 3.039 2.52 4.558 5.371.774-4.589 1.719-9.316-.195-11.742zm-65.809 36.027c2.508-1.527 5.02-2.789 7.532-2.187-.727 2.652-.922 6.102-.594 10.352q-5.05-2.885-6.938-8.161zM90.09 452.562c3.238-.265 6.149-.269 6.738 1.59-2.45 1.922-2.578 4.309-2.378 6.766-2.145-2.32-3.797-4.977-4.36-8.359zm-3.566-29.66c1.12 1.59 1.187 3.184.195 4.774-2.242-.465-4.488.461-6.738 1.59q2.472-4.778 6.539-6.368zm370.336 2.746c.769-2.347 1.691-4.082 2.953-4.453q2.584 4.08 1.476 10.391c-.921-2.535-2.027-4.891-4.433-5.938zm-11.641 23.383q3.6-4.637 7.203-6.308c.508 5.828-1.676 10.5-4.617 14.843.121-3.832-.738-6.679-2.586-8.535m-27.902 12.805q3.14-3.06 7.019-2.41c-.336 3.246-2.429 7.078-5.726 11.316.308-2.969.371-5.937-1.293-8.906m-54.325-25.051c2.77.738 4.555 2.473 5.356 5.195-1.969-.128-3.941 1.911-5.91 4.266-.738-3.152-1.172-6.309.551-9.461zm-84.265-35.094 18.047 24.285 40.39-1.449-29.843 22.629 16.23 43.774-41.566-25.864-46.887 35.446L255 448.98l-32.437-21.187 38.683-.813 17.473-25.285zm-10.055-190.562c32.043-32.863 55.641.16 43.926 22.621-6.699 14.684-23.414 27.93-36.801 48.211-14.937-21.754-40.441-29.293-45.672-44.582-8.617-26.922 13.067-50.774 38.551-26.254zm.926-111.328c.891 4.492 1.008 8.984 0 13.476-6.875-.82-11.891-.144-16.848.571-7.562-1.129-14.008-1.508-20.418-1.864 1.95-3.882 8.422-6.632 17.989-8.601 5.539-.797 10.562 1.75 19.273-3.582zm-15.137-40.867c-23.367 2.304-32.621 14.929-38.836 30.253 6.371-4.398 21.746-5.257 41.836-4.3-2.929-8.164-4.64-16.637-2.996-25.953" style="stroke:none;fill-rule:evenodd;fill:#fff101"/><path d="M257.172 88.473c2.973 1.027 6.258 3.605 9.992 8.457-11.992 3.871-25.699.714-35.98 11.613-26.426 14.359-30.422 5.183-34.41-1.004 16.144 6.918 25.734-7.922 40.406-14.191 6.66-3.293 13.324-4.641 19.988-4.875zm82.192 167.832c-1.047 12.863-4.422 24.269-12.926 32.453q-4.453 14.474-13.102 25.437-2.443-6.138-3.492-12.277c-1.801 8.129-3.894 16.086-8.035 22.805q-8.034-7.104-13.274-15.614c-2.414 4.735-5.675 9.473-9.957 14.211q-6.725-8.155-10.656-16.316c-2.066 5.289-5.094 10.262-8.558 15.086-9.797-7.305-18.137-14.965-16.246-25.09.64-2.922 3.898-2.981 3.492.348-1.141 7.82 4.273 13.816 11.527 19.296 4.336-6.781 7.363-13.273 7.512-19.121 0-3.859 3.316-3.683 3.668 0 .465 5.614 2.793 11.813 9.082 19.121 3.926-3.617 7.75-7.429 8.383-17.191.058-3.273 2.21-3.625 2.793 0 .898 6.984 5.558 12.543 11.355 19.121q3.927-9.647 6.461-20.699c.812-3.039 4.016-2.981 4.367-.348q1.22 4.91 2.445 9.825c2.852-6.376 5.704-12.747 8.559-19.122-3.93-11.257-10.102-19.91-8.383-33.507.113-3.684 4.074-3.45 3.492.171-1.57 11.403 3.668 20 7.161 28.946 7.156-6.086 10.082-16.074 11.179-28.242.176-3.508 3.145-3.274 3.145.699zM97.926 97.641c1.875-5.125 2.754-9.5-3.355-8.61-15.848-10.672-33.75-27.523-52.579-47.187C54.047 58.82 68.59 75.797 88.606 92.773q5.033.556 4.1 5.618c-2.858 7.863-.25 15.726 4.849 23.589q-10.811 9.176.742 22.844c-6.855 5.613-5.855 12.106-3.726 18.723-6.403 10.797-2.547 20.906 5.964 30.707q-2.051 20.596 13.797 20.222 4.658 22.091 24.239 18.723 10.254 23.217 35.425 11.981c2.145 3.125 7.012 6.515 14.161 9.925 2.328.497 3.953-2.273 1.5-3.183q-9.136-3.932-15.289-10.86-25.173 11.232-30.95-11.984c-12.304 3.121-22.129 0-26.476-16.852-7.594-.222-14.188-2.457-13.797-18.722-8.328-12.856-11.684-23.219-4.102-28.086q-5.588-12.171 2.235-19.848c-5.965-8.238-7.582-16.476.371-24.715-6.215-9.234-7.457-16.976-3.727-23.218zm176.34-29.809c7.176 5.48 14.48 9.133 21.867 11.652-9.242 7.239-16.676 4.387-26.051 8.719-.125-7.328.075-14.535 4.184-20.375zm5.742-3.606c8.813-2.472 14.793-8.054 14.957-7.464.164.586-5.543 7.129-14.355 9.601s-17.399-.98-17.563-1.57c-.164-.586 8.149 1.906 16.961-.563zm-11.926 143.415c34.098-31.157 59.524 2.394 47.055 26.296-7.129 15.625-24.914 29.719-39.16 51.301-15.895-23.148-43.035-31.168-48.598-47.437-9.168-28.649 15.801-53.387 40.703-30.16m10.391 190.453 19.992 25.91 16.598-.406c5.211-5.516 7.812-11.59 7.015-18.379-23.375 9.304-42.953-5.035-32.574-39.418 7.684-18.649 18.707-37.989 32.297-56.352 8.43-15.43 16.223-30.789 19.516-45.644 1.758-7.008 2.769-15.016 1.113-26.602.102-2.848 2.125-3.344 2.227-.84q.414 4.055.835 8.117c1.2 13.336 15.411 9.036 18.961 2.52 8.825 3.238 17.832 3.402 25.52-9.371 11.769 2.648 19.988-1.699 25.504-12.188 15.183 4.239 21.656-2.449 20.91-18.199 13.141-4.933 19.887-12.012 12.547-23.801-.496-5.597.16-11.199 2.508-16.8 2.879-6.45 5.761-12.739 8.644-14 2.176-1.305 2.36.238.555 3.359-.527 5.027-2.227 9.273-4.461 13.16q-2.976 8.004-.836 13.442c5.645 10.933-1.664 20.191-13.66 28.843-.738 15.356-9.586 20.539-23.981 18.762-6.039 10.176-14.781 13.57-25.375 12.32-8.168 10.606-16.902 13.5-26.21 8.68-4.243 5.754-11.829 4.805-19.52 3.641.711 2.238.426 4.476 0 6.718 5.945 5.102 11.894 8.633 17.844 1.118 1.773-1.719 3.761-2.868 7.25 0 5.277 3.425 10.703 7.804 13.66-3.918q1.645-3.54 5.855-2.797c9.352 2.07 15.868-1.547 18.961-12.039q1.08-3.556 5.574-1.118c7.094 3.727 13.836 2.993 19.797-7.558 11.395-1.25 18.7-6.606 17.008-21-.785-3.481.695-5.535 4.461-6.16 8.199-5.231 13.539-11.215 8.641-19.883-2.094-2.051-1.629-4.106 1.39-6.156 3.496-4.235 6.141-8.618 2.786-14q-4.677-2.792-1.672-6.438 4.838-5.408-.555-15.961 4.165-11.9-4.461-23.801c6.148-15.472.613-23.125-5.297-30.523 17.75-11.856 35.293-24.566 53.047-36.422-15.426 12.692-32.285 24.723-47.715 37.418 3.57 4.008 6.492 11.176 6.082 15.754 31.504-20.02 54.735-43.781 56.082-73.516C489.164 58.34 458.41 73.82 420.508 92.863c.152-4.621-.758-7.246-3.375-9.371q-7.87 16.741-23.422 24.922c-16.34 7.863-23.914 17.539-20.91 29.402 9.57 22.438 24.414 18.051 36.805 23.243 12.051 5.234 8.383 27.753-11.43 24.921-15.23-1.429-26.199-9.933-33.543-10.507-6.043.031-12.445 5.851-23.898 6.308-14.598 2.008-18.383-6.152-14.778-21.281 9.383-1.055 22.676-2.238 14.5-7.277-4.531-2.239-6.699-5.836-7.25-10.36-1.019-9.894 2.008-23.429-3.066-29.683q-2.943-3-4.18 0c-2.105 6.375-5.386 11.574-9.199 16.238-5.629-2.84-8.125-8.824-9.199-16.238-.043-2.571 2.894-3.211 3.066 0 .696 5.609 1.746 10.722 5.297 12.32 3.121-4.59 6.535-9.039 5.016-15.961 3.371-2.086 6.676-3.383 9.48.84 5.582-2.758 10.098-6.949 12.27-14.281-11.297 1.121-17.86-5.895-21.192-18.481-4.996-1.762-8.429-1.238-11.152-3.359-2.254-.938-1.73-2.446.277-1.957 9.961 1.781 18.707 1.418 18.961-14-2.761 1.332-5.308 3.093-8.922 3.359-8.004-.039-18.566-4.367-25.929-7.84-12.485-4.707-24.344-2.539-35.692 5.321-2.23 8.093-1.902 18.531 4.395 28.628 7.375 5.946 13.332 13.286 8.265 30.161-4.773 12.843-11.773 12.382-18.5 12.91-1.554 5.597-.546 10.344 4.723 15.941q3.616 2.28 8.086.278c1.953-1.625 3.629-1.25 5.016 1.117 5.031 18.718 10.777 10.836 16.386-.84.95-3.34 3.68-2.11 2.852 1.117-7.875 17.711-15.289 20.801-22.027 2.52-3.528 1.902-7.59 2.382-12.825-.278-2.382 5.078-5.941 9.77-10.035 14.281.219 6.559 3.289 7.118 9.199 1.68q3.212-4.148 5.575 1.117c2.609 30.922 8.215 21.438 16.386 5.317 2.157-2.586 2.969-1.746 2.852 2.519q-18.972 37.771-22.586-6.718c-9.219 9.214-12.965 6.253-14.219-2.239-6.258 7.344-11.734 14.188-16.281 23.25-6.648 8.352-11.328 11.836-19.617 10.203-2.129-.718-2.703-.558-1.809.633 2.934 6.688 9.809 7.192 8.555 12.485-9.504 31.851-3.524 62.808 19.398 89.523 10.875 18.945 25.801 40.039 32.625 56.848 1.469 2.429-2.812 4.437-3.902 2.797-7.012-17.883-19.145-34.911-28.719-52.368-11.254 19.293-24.726 36.52-37.117 51.246-7.941 7.258-16.598 12.805-26.176 17.922 11.188 3.301 25.215 2.207 42.66-4.199 3.563-1.933 5.129.145 6.411 2.797 2.382 16.285 9.699 14.613 16.73 14-6.867-20.512 6.426-34.383 32.477-26.652-2.137 10.172-1.715 21.418-3.852 31.593-4.48 11.504-20.184 17.297-34.199 12.141-5.117-2.91-9.985.781-5.856 6.16 2.211 3.793 5.274 7.445 8.758 11.028l27.074-.532 18.704-27.422zm42.898 80.324-9.945-27.199c14.078 10.965 29.637 4.832 36.676-10.907 10.09 15.836.805 34.625-26.731 38.106m-22.906-.375L281.7 467.629l-23.168 17.691c-.348 26.242-23.43 34.969-39.055 23.235-4.231 32.878 19.832 38.836 37.644 20.441 6.254 10.867 12.082 15.309 18.125 22.961 5.391-8.492 11.633-11.844 16.172-25.481 21.547 19.469 34.762 6.418 36.184-22.171-21.465 13.75-37.008.683-31.164-26.555q1.024.154 2.031.289zm-56.152-2.594 9.711-25.746-6.965-4.496c-18.75 17.844-35.469 27.848-42.742 7.621-9.918 29.359 13.953 40.176 40 22.621zM31.422 80.039c18.164 13.539 37.352 24.488 54.446 29.336-2.571 5.305-2.86 10.586-2.11 16.227-13.652-9.188-26.754-19.063-39.402-28.586 9.042 10.148 20.304 20.89 38.656 31.707-2.36 1.828-4.223 5.281-4.598 9.109C55.32 126.559 33.762 110.41 31.43 80.035zm3.887 52.988c13.644 7.52 28.761 14.66 44.23 16.438-.09 1.293.36 2.187 1.348 2.785-1.559 3.039-2.871 6.648-2.422 9.93-10.676.785-20.828-5.496-30.98-11.836 7.73 7.476 15.324 14.164 31.175 14.281-.32 1.434.453 3.262 1.168 4.695-31.918-1.176-44.726-11.312-44.523-36.301zm-3.606 42.27c19.508 2.441 39.211 4.015 53 1.762-1.636 3.355-2.937 7.105-2.433 10.566-9.692 2.316-22.516-.336-35.364-3.031 13.297 5.179 26.032 8.816 36.73 6.945 1.056 2.234 2.677 4.059 5.552 4.988-1.168.848-1.95 1.825-2.336 2.934-31.704 4.531-52.895-3.52-55.145-24.168zm-1.574 43.836c24.723-.453 37.777-4.739 57.582-13.719.973 4.059 1.625 7.887 3.344 10.078-11.692 4.848-26.293 8.602-40.989 12.32 15.301-1.41 30.243-3.906 44.059-9.8 3.25 2.75 7.063 4.57 11.43 5.461-38.657 19.484-71.028 26.765-75.43-4.34zm2.039 58.578c27.543 3.09 48.516-23.168 74.664-51.66.215 4.156 1.664 8.527 5.321 10.527C96.055 253.965 78.691 269.769 60.871 285c18.02-11.398 36.32-24.973 55.633-46.316 1.879.918 4.192 1.183 6.934.808-.106 3.293.965 6.586 2.578 9.879-40.86 47.086-81.72 81.199-93.852 28.34zm95.282-24.832c-24.102 67.445-46.067 100.996-73.06 113.695 26.47 15.918 52.196 11.25 67.075-29.316 10.512-18.981 20.27-45.137 29.684-77.938-2.879-1.398-4.645-3.547-5.297-6.437q-.973 3.358-5.297 3.359c-10.973 47.875-30.664 78.234-55.77 97.731 23.649-28.602 41.321-60.352 49.356-97.172-2.973.183-5.203-1.117-6.691-3.918zm26.492 9.519c-11.231 93.828-27.688 114.844-44.895 125.457 24 21.168 49.602-5.031 60.606-31.679 9.785-34.688 8.597-52.239 19.699-87.895-4.274-1.351-8.086-3.406-10.875-7q-2.787 4.056-5.574 3.637c-6.133 44.242-14.5 76.543-25.094 96.891 7.875-27.465 14.43-59.809 20.074-95.493q-8.644.84-13.941-3.918m59.113 115.379q-14.917 2.1-19.797 6.438c-.836 11.668 2.043 18.851 8.641 21.562q4.739 1.96 6.133-6.16c1.199-5.043 4.363-9.426 7.804-13.719.184-3.449-.742-6.16-2.785-8.117zm110.012-63.082c14.734 34.012 31.343 56.961 50.433 65.223-9.097 5.891-19.199 4.434-29.75-.363 6.469 5.918 4.957 14.179-.179 23.504-1.207 2.367-3.266 2.367-3.989 0l-12.515-23.321q-5.712 5.373-11.43 10.746c-1.875 1.766-3.211 1.16-1.812-2.367 7.355-17.816 2.441-27.305-17.051-29.515 1.781-4.887 3.961-9.383 6.711-13.297 3.988 2.425 7.98 6.859 11.972 12.203 1.934 2.73 3.688 1.699 1.993-1.453-3.141-5.282-6.465-10.508-11.067-15.305 4.684-9.125 10.067-17.898 16.688-26.051zm35.586-43.902c-.875 26.695.043 53.094 3.601 79.051-14.504-6.352-25.777-20.36-29.933-51.215 4.894-7.84 8.867-16.84 10.808-28.391-.199 17.871 3.149 33.715 8.867 47.875-3.3-18.183-6.121-36.367-7.203-54.554q5.264 6.4 13.856 7.234zm77.05-27.836c35.411 133.895 37.43 114.691 54.879 124.422-48.695 54.48-63.273-58.59-83.148-105.215q-.969.275-1.938.555c4.102 62.14 12.411 114.851 35.754 133.886-58.812 18.094-58.597-58.339-77.605-127.203 2.953-1.855 3.418-5.656 7.203-3.058q3.599 3.198 7.203 4.172c8.313 29.781 16.629 59.566 24.941 89.347l-20.507-90.183c2.402-2.129 4.531-4.45 4.711-8.071q2.49-4.032 6.093-1.39c6.895-.692 13.934-.918 18.567-9.184 1.199-5.656 3.512-5.473 7.758-1.945 7.789 30.73 17.691 60.758 27.714 90.742-8.285-30.34-16.394-60.68-22.449-91.02 4.34-.832 7.946-2.781 10.809-5.843zm12.032-7.18c25.215 7.059 38.675 51.481 70.175 41.918-11.921 52.504-44.949 35.399-78.992-36.074 14.16 17.082 29.094 32.223 44.735 45.594-15.035-15.434-28.571-31.774-39.911-49.434.723-.551 2.383-.547 3.989-2.004zm15.019-26.855c19.797 8.508 39.938 14.472 59.738 19.613-18.667 23.395-44.941 18.297-72.761 4.93 2.187-1.492 3.937-3.321 4.91-5.735 9.894 3.25 21.129 5.161 33.465 5.965-11.973-3.133-23.094-6.843-32.324-11.812.664-2.485.855-4.969 0-7.453q-1.027-2.695 2.968-3.555c1.938-.188 3.274-1.145 3.996-1.949zm9.883-29.793c19.906-3.289 38.047-7.469 53.969-12.762 3.328 26.223-25.559 34.16-59.051 39.485 2.891-3.25 4.383-6.504 4.484-9.758 14.7-2.489 27.508-7.118 39.02-13.211q-19.805 6.453-39.617 9.308-.599-3.15-2.391-5.101-1.715-2.25.746-3.903c1.567-.824 2.067-2.425 2.84-4.05zm1.344-28.078c17.519-6.285 33.058-12.727 46.195-21.02 2.238 16.656-11.558 32.438-45.598 46.692.946-3.852 1.145-7.856-.296-11.711 17.902-4.125 28.043-11.961 37.523-20.118-15.695 8.672-29.102 14.75-38.422 16.215 1.242-3.101 1.742-6.953.598-10.058m-4.336-39.035c19.765-7.786 36.894-16.032 53.07-25.821-3.094 17.629-7.433 35.496-50.383 60.805.207-.973-.195-2.098-.941-2.922 1.59-3.476 1.488-6.508.641-10.437 13.636-7.27 24.55-17.282 35.73-27.024-11.297 7.469-21.699 14.867-36.027 22.367-1.243-3.152-2.34-5.703-4.782-7.656 1.844-2.801 2.442-6.504 2.688-9.309zM223.387 188.75c1.57-4.789 5.004-9.535 7.723-13.754-7.942 2.434-18.211 1.938-25.586.375-12.723-2.133-13.289-7.269-24.52-5.336-8.312 1.496-16.84 7.922-28.355 10.703-14.528 3.168-20.555-12.047-7.629-18.875 15.972-6.664 30.805-13.469 37.644-21.281 9.516-11.473 10.289-28.063-11.711-40.606-12.324-4.828-24.058-9.843-24.324-20.441.504-5.117-1.195-6.238-4.672-3.359-2.004 1.648-3.8 2.66-5.379 4.527-2.957 2.742-5.699 5.848-10.152 3.738C94.262 68.879 64.441 47.527 33.77 29.605c.44 39.754 19.62 48.801 56.898 76.629-4.945 8.688-5.265 16.774-2.246 21.465q-12.329 10.317-4.18 24.922-7.857 6.751 3.903 24.641c-6.895 11.707-1.793 15.386 5.015 17.922-4.015 16.796 4.504 23.523 17.567 26.601-.367 12.567 6.301 15.707 16.172 14.559 2.043 15.226 8.07 19.605 18.078 13.125 1.898-1.559 3.586 1.164 5.062 3.675 9.918 10.27 18.911 13.11 26.555 5.098 2.477-3.074 3.887-1.219 5.512 1.059 9.41 9.242 14.125 3.918 21.191 5.879 3.508 1.332 3.324 4.168-.555 3.359q-4.91-1.565-6.41-.559c-1.484 23.801-2.972 47.606-4.461 71.407 13.61-6.598 25.27-18.016 32.625-40.043l-9.199-16.801c-9.941-21.336-13.547-44.109-5.855-69.449-2.602-5.039-8.403-8.153-7.805-15.121.387-2.239 2.168-1.84 4.855-1.102 5.688 1.508 11.215.25 16.907-8.133zm59.406-113.309c-.097 2.852-1.48 6.078-3.472 8.086 3.636-.07 8.41-1.168 12.55-3.566-3.183-1.16-6.316-2.297-9.078-4.52" style="stroke:none;fill-rule:evenodd;fill:#ec2a32"/></svg>