<!-- Created with Inkscape (http://www.inkscape.org/) -->
<svg role="img" viewBox="-4.44 -6.07 220.70 278.05"
   xmlns="http://www.w3.org/2000/svg"
   id="svg2"
   version="1.0"><title>Herb Oleśnica (świętokrzyskie)</title>
  <metadata
     id="metadata7">
    <rdf:RDF>
      <cc:Work
         rdf:about="">
        <dc:format>image/svg+xml</dc:format>
        <dc:type
           rdf:resource="http://purl.org/dc/dcmitype/StillImage" />
      </cc:Work>
    </rdf:RDF>
  </metadata>
  <defs
     id="defs5" />
  <sodipodi:namedview
     borderopacity="1.0"
     bordercolor="#666666"
     pagecolor="#ffffff"
     id="base" />
  <path
     id="path1364"
     style="fill:#dd0000;fill-opacity:1;fill-rule:evenodd;stroke:#000000;stroke-width:1px;stroke-linecap:butt;stroke-linejoin:miter;stroke-opacity:1"
     d="M 105.80049,261.67987 C 38.492551,260.57688 4.9000214,209.59906 3.7261414,180.56616 L 3.7261414,4.2320076 L 105.90023,4.2320076 L 208.0743,4.2320076 L 208.0743,180.56616 C 206.90042,209.59906 173.30789,260.57688 105.80049,261.67987 z " />
  <path
     id="path3154"
     style="fill:none;fill-opacity:0.75;fill-rule:evenodd;stroke:none;stroke-width:1px;stroke-linecap:butt;stroke-linejoin:miter;stroke-opacity:1"
     d="M 105.80049,261.67987 C 38.492551,260.57688 4.9000214,209.59906 3.7261414,180.56616 L 3.7261414,109.32716 L 105.90023,109.32716 L 208.0743,109.32716 L 208.0743,180.56616 C 206.90042,209.59906 173.30789,260.57688 105.80049,261.67987 z " />
  <path
     style="color:#000000;fill:#ffffff;fill-opacity:1;fill-rule:evenodd;stroke:none;stroke-width:1;stroke-linecap:butt;stroke-linejoin:miter;stroke-miterlimit:4;stroke-dashoffset:0;stroke-opacity:1;marker:none;marker-start:none;marker-mid:none;marker-end:none;visibility:visible;display:inline;overflow:visible"
     d="M 87.045059,4.6811438 L 122.61043,4.6811438 L 122.61043,259.75677 C 109.91772,261.91686 100.35494,261.78461 87.045059,259.53635 L 87.045059,4.6811438 z "
     id="rect2493" />
  <rect
     style="opacity:1;color:#000000;fill:#ffffff;fill-opacity:1;fill-rule:evenodd;stroke:none;stroke-width:1;stroke-linecap:butt;stroke-linejoin:miter;marker:none;marker-start:none;marker-mid:none;marker-end:none;stroke-miterlimit:4;stroke-dasharray:none;stroke-dashoffset:0;stroke-opacity:1;visibility:visible;display:inline;overflow:visible"
     id="rect2517"
     width="35.619499"
     height="203.37563"
     x="108.19025"
     y="-207.57516"
     transform="matrix(0,1,-1,0,0,0)" />
  <path
     d="M 147.37903,161.92082 L 147.37903,179.48321 L 156.56581,193.48221 L 165.75261,179.48321 L 174.93941,193.48221 L 184.12618,179.48321 L 184.12618,161.92082 L 174.93941,176.17435 L 165.75261,161.92082 L 156.56583,176.17435 L 147.37903,161.92082 z "
     style="fill:#ffffff;fill-opacity:1;fill-rule:evenodd;stroke:#000000;stroke-width:0;stroke-linecap:butt;stroke-linejoin:miter;stroke-miterlimit:4;stroke-dasharray:none;stroke-opacity:1"
     id="path5025" />
</svg>