<!-- Creator: CorelDRAW -->
<svg
   xmlns="http://www.w3.org/2000/svg"
   style="shape-rendering:geometricPrecision; text-rendering:geometricPrecision; image-rendering:optimizeQuality; fill-rule:evenodd; clip-rule:evenodd"
   viewBox="0 0 210 297"
   id="svg2"
   version="1.0"><title>Herb Krośniewice</title><metadata
   id="metadata17"><rdf:RDF><cc:Work
       rdf:about=""><dc:format>image/svg+xml</dc:format><dc:type
         rdf:resource="http://purl.org/dc/dcmitype/StillImage" /></cc:Work></rdf:RDF></metadata><sodipodi:namedview
   guidetolerance="10.0"
   gridtolerance="10.0"
   objecttolerance="10.0"
   borderopacity="1.0"
   bordercolor="#666666"
   pagecolor="#ffffff"
   id="base" />
 <defs
   id="defs4">
  <style
   type="text/css"
   id="style6">
   
    .str0 {stroke:#0A0B0C;stroke-width:1.4111}
    .fil0 {fill:#0A0B0C}
    .fil1 {fill:#DA251D}
    .fil2 {fill:white}
   
  </style>
 </defs>
 <g
   id="Warstwa_x0020_1"
   transform="matrix(1.3193412,0,0,1.3193412,-33.54842,-47.411469)">
  <metadata
   id="CorelCorpID_0Corel-Layer" />
  <path
   class="fil0"
   d="M 0,35.9643 L 210,35.9643 L 210,165.9293 C 205.2458,222.8931 161.8004,260.209 105.632,261.0359 C 53.5588,261.8344 1.445,223.2568 0,165.9296 L 0,35.9646 L 0,35.9643 z "
   id="path10"
   style="fill:#0a0b0c" />
  <path
   class="fil1"
   d="M 2.0588,38.1707 L 207.9408,38.1707 L 207.9408,165.5877 C 203.2799,221.4346 160.6863,258.0189 105.6188,258.8296 C 54.5666,259.6124 3.4738,221.7912 2.0588,165.588 L 2.0588,38.171 L 2.0588,38.1707 z "
   id="path12"
   style="fill:#da251d" />
  <polygon
   class="fil2 str0"
   points="38.7965,78.6075 29.6665,147.735 68.7952,218.493 104.337,158.821 139.879,218.493 180.312,148.061 174.769,78.2815 139.553,137.301 104.663,77.9554 69.1212,137.301 38.7965,78.6075 "
   id="polygon14"
   style="fill:#ffffff;stroke:#0a0b0c;stroke-width:1.41110003" />
 </g>
</svg>