<svg viewBox="-21.59 -26.05 582.97 703.45"><title>Herb Jaworzyna Śląska</title><path d="M0 0h539.789v416.34c0 105.379-96.707 139.133-172.211 160.984-40.644 11.762-77.929 29.907-98.14 74.016-15.738-38.238-50.926-59.887-99.067-74.016C95.351 555.313.011 514.567.011 416.34V0" style="stroke:none;fill-rule:evenodd;fill:#fff100"/><path d="M531.696 85.02v326.769c0 102.176-93.969 134.903-167.332 156.094-39.497 11.406-75.723 29-95.364 71.766-15.293-37.078-49.48-58.071-96.261-71.766C99.844 546.539 7.207 507.035 7.207 411.789V79.785c48.375 49.133 149.039 83.055 264.946 83.055 111.742 0 209.336-31.519 259.547-77.816" style="stroke:none;fill-rule:evenodd;fill:#39a66d"/><path d="M7.2 8.098h524.492v64.324c-47.133 49.223-145.442 83.215-258.645 83.215-119.32 0-222.102-37.758-265.844-91.316V8.102" style="stroke:none;fill-rule:evenodd;fill:#2c8dc5"/><path d="M225.739 189.696c8.296-.543 18.511-1.243 26.156 3.168 8.695.785 28.351.054 40.265-2.028 5.938-3.336 16.215-2.59 19.547 2.192 4.235 7.546-.836 11.925-7.66 13.941-10.804 5.91-14.133 14.66-8.504 30.113 1.305 2.629 3.071 5.422 5.231 8.36a25 25 0 0 1-2.012-6.739c-3.125-21.507 11.051-35.222 30.051-37.488 16.117-1.922 31.68 4.563 41.359 20.527 4.16 6.868-.508 27.051-3.867 33.922-3.957 8.094-11.242 14.621-13.688 24.399-1.289 5.16 2.817 3.656 7.141 4.164-2.547-9.246 3.559-8.727 6.844-9.817 4.164-1.382 10.254 4.235 7.437 15.172-1.757 6.836-12.988 7.367-19.339 6.547-.911-.117-2.024-.375-3.18-.75 9.793 12.133 18.996 26.828 11.902 60.031-12.398 35.164-35.91 39.262-71.562 59.407-4.18 1.66-2.535 5.668 2.16 7.355 2.652 3.352 3.89 8.168 3.273 9.324-1.515 3.211-4.718 6.719-7.824 7.551-.039 2.195-1.566 3.102 1.68 5.094 3.898 3.465 9.285 7.824 13.183 11.289 8.547 5.734 6.778 12.469-2.922 14.238-21.949 0-44.199.297-66.152.297-11.273-1.926-10.148-9.305-4.355-14.398 5.195-3.465 9.207-7.227 14.406-10.696 1.73-3.031 1.574-3.386.133-6.418-5.813-3.394-7.809-10.855-3.301-15.836 1.941-.828 4.695-1.66 4.602-3.98-.903-5.066-3.094-4.449-5.739-6.879-30.668-17.336-58.285-23.633-65.445-51.285-7.895-26.277-5.875-48.586 6.062-62.168a76 76 0 0 1 2.911-3.691 16 16 0 0 1-1.7.324c-6.347.82-17.578.289-19.339-6.547-2.813-10.934 3.269-16.559 7.437-15.172 3.281 1.09 9.391.57 6.844 9.816 4.32-.504 8.429.993 7.14-4.164-2.441-9.773-9.726-16.3-13.683-24.398-3.356-6.867-8.031-27.051-3.867-33.922 9.675-15.965 25.242-22.453 41.359-20.527 19 2.265 33.18 15.98 30.051 37.488-.5 3.449-1.774 6.726-3.586 9.711 11.594-15.363 10.82-27.945-2.684-40.527-4.543-1.114-9.586-4.415-10.34-8.122-1.058-5.019 3.082-8.722 3.571-8.878zm86.242 68.847c8.531 8.961 19.359 18.817 31.293 29.227-2.875-8.985-1.391-19.942 7.269-31.215 7.102-9.238 5.684-26.539-.593-36.004-5.149-7.758-17.844-7.969-25.887-3.27-7.211 4.215-10.848 14.954-9.52 24.696.684 5.015 9.84 9.672 15.77 8.328 2.015-.457-3.153-7.289-2.676-11.305.461-3.918 4.242-9.285 7.438-11.601 5.261-3.817 14.851 3.05 13.386 13.984-1.285 9.613-12.023 23-21.718 22.613-4.813-.191-10.086-2.191-14.758-5.449zM195.02 283.758c6.723-6.211 14.43-12.301 22.297-18.242 4.101-3.531 7.722-6.91 10.859-10.168-5.242 4.426-11.629 7.226-17.367 7.453-9.692.387-20.434-12.996-21.719-22.613-1.461-10.934 8.125-17.801 13.387-13.985 3.191 2.317 6.973 7.684 7.437 11.602.473 4.016-4.695 10.848-2.675 11.305 5.925 1.339 15.082-3.313 15.769-8.332 1.328-9.743-2.305-20.481-9.519-24.696-8.039-4.695-20.735-4.484-25.887 3.27-6.281 9.461-7.695 26.762-.594 36.004 7.774 10.113 9.766 19.98 8.012 28.394zm40.332-196.852c-6.801.739-12.008.11-14.047-3.234-24.398 2.731-35.133.547-39.652-3.875-27.168 5.945-40.032 1.32-48.895-6.258-19.777-1.59-26.433-5.363-27.129-10.136-9.59-.844-17.437-3.426-21.465-9.836-17.746-3.852-15.355-5.59-16.992-7.75-10.828-3.379-16.098-7.55-15.8-12.52-7.153-3.875-8.349-10.035-3.575-10.433 43.078-.645 86.707-.743 130.582-.594 19.399-.5 50.031-.664 55.153 6.855 5.32 8.176 5.222 20.25-1.192 23.254-2.582.695-3.18 3.774-1.785 9.238.941 2.051 4.07 1.161 7.16.606 5.313-18.813 18.254-32.152 33.313-32.152 16.461 0 30.39 15.933 34.593 37.539q5.55-2.989 8.403-7.782c.301-4.675-1.485-6.562-3.574-8.047-6.309-7.652-4.918-18.085.296-22.062 11.477-7.719 26.84-8.445 42.336-8.941 20.965.507 41.938 1.074 62.907 2.382 24.644.743 49.289.547 73.937-.296.57 8.164-6.773 14.027-10.137 15.5-.992.394-3.773 1.886-7.152 1.488 1.09 5.562-3.379 7.949-13.414 7.152-1.938 5.613-7.106 9.293-16.992 10.137.195 5.066-4.371 8.148-13.715 9.238a54.8 54.8 0 0 1-16.098 0c-.07 7.367-9.226 9.149-19.675 10.137q-11.776-.145-23.551-.297c-6.407 6.953-21.016 8.445-39.352 7.449-8.156 2.781-15.82 4.086-23.25 4.68-.578 5.914-1.875 11.512-3.754 16.609 27.555 4.219 55.305 14.508 86.16 37.227 16.118 13.187 31.012 31.281 44.84 51.312 20.5 34.719 36.266 73.895 40.387 122.266.57 63.004-14.801 103.711-37.43 133.047-28.461 39.84-69.258 69.75-138.672 72.734-38.929 4.953-77.992-2.465-115.566-22.969-25.965-11.609-39.457-27.16-40.793-45.628-5.914-.719-11.031-.899-16.035-2.758-18.906-7.461-34.656-24.489-32.15-75.692 1.919-12.273 6.056-22.336 10.705-27.789 13.199-15.965 28.273-14.867 36.695-25.886 10.859-13.508 9.39-24.852 6.555-37.446-1.758-3.168-7.981-11.07-33.274-9.035.5.719.492.188 1.672 2.336 3.473 3.219 1.687 8.547-4.676 9.492-1.039 1.379-1.34.028-.734 1.75 4.59 1.91 5.945 6.613 3.203 10.688-2.281 3.933-6.168 3.972-11.48 3.726-3.415-2.105-4.555-2.222-2.059.668 4.949 4.469 3.363 11.442 1.723 13.238-5.547 4.129-12.032 5.672-14-.996-.528-2.433-1-2.539-2.442.024-2.015 3.105-6.195 3.765-11.855 2.324-6.102-3.914-2.762-10.637 1.234-16.391-.141-2.019.172-1.14-1.785-.433-4.657 3.965-10.223 3.441-13.973.129-4.035-14.02 3.543-13.153 4.977-14.367-3.626.8-5.778-.922-5.766-3.305-1.617-7.859-.055-9.754 6.562-10.453 8.458-.949 13.473 5.468 15.223 4.754 1.078-.594-.058-1.985-1.547-2.457-4.921-2.016-7.226-6.563-7.601-11.766 1.527-7.852 6.07-12.578 11.582-8.035.766 1.14 2.5 2.433 5.543 3.152 1.973-.566 2.793-2.558 4.976-4.949 5.063-1.66 9.59 1.309 11.016 7.379-.574 4.418-.812 3.121-1.394 5.66.871.914 4.902-1.59 11.574-1.93 19.527-2.894 34.304 1.348 41.265 13.289 3.52 7.438 7.868 34.954-8.996 51.485-10.39 11.226-28.156 13.758-36.617 28.906-5.168 11.625-7.992 25.98-5.316 44.434 3.836 23 17.515 41.898 36.644 41.308.094-13.371 2.887-22.023 11.282-28.344 7.089-5.308 17.019-4.191 27.066 3.688 8.18 9.555 5.141 23.457-3.231 29.262-6.187 4.066-16.589 5.918-23.519 5.382 1.402 14.602 14.992 25.012 34.855 35.493 27.602 15.16 58.317 26.218 99.571 22.718 52.183-2.3 84.074-14.8 103.511-32.57 30.907-25.305 45.45-46.066 54.059-65.461 16.43-38.562 17.59-71.16 15.785-103.34-2.57-43.172-21.133-82.386-44.211-121.91-8.949-13.625-19.863-25.824-31.547-37.629-26.691-20.484-55.648-31.758-86.437-36.961-6.59 11.047-16.402 18.082-27.336 18.082-11.086 0-21.024-7.226-28.02-18.941-1.734.805-31.793 4.316-46.312 10.805-3.645-.118-5.93-4.504-4.121-8.715 14.707-4.317 31.543-8.18 46.254-11.133-1.965-5.672-3.266-11.551-3.473-17.527zm50.73-20.488-9.031 4.168c.879.094-.488 1.703.551 2.313 1.391.035 6.195-.903 9.637-1.153.316-2.625-.067-3.937-1.157-5.324zm-9.496 22.235c3.551 2.546 7.102 6.019 10.653 8.566.527-3.231.652-6.52-.231-8.336-3.473.383-6.945 0-10.418-.23zM275.43 99.77c.074.847-.074 1.695 0 2.547.77.074 1.773.152 2.547.23q-1.27-1.388-2.547-2.777m.23 12.043v11.578c3.625-2.008 5.094-5.953 6.25-11.047-2.39-.152-3.859-.375-6.25-.527zm-10.656-13.899c-1.078 1.313-2.625 2.625-3.703 3.934 1.156.074 2.547.152 3.703.23-.074-1.386.074-2.777 0-4.168zm-9.261 13.899c1.617 5.554 4.628 9.879 9.957 12.968v-13.66c-3.977-.097-8.614-.523-9.957.692m1.519-24.715c-3.238-.152-4.992-.141-8.234-.297-.614 4.859.074 8.023.691 12.273l9.723-8.101c-.446-2.563-2.168-3.344-2.184-3.867zm5.66-25.774V43.031c-4.207 1.977-7.449 5.297-8.566 12.043l8.566 6.254zm10.653-19.918v20.84c4.015-1.617 7.644-3.242 10.418-4.863-2.391-8.375-5.559-13.602-10.418-15.977M151.625 443.77c1.52-10.258 1.825-15.543 9.262-20.793 6.039-2.598 8.668 2.019 11.977 7.383 2.738 4.996 2.753 7.859-5.422 11.492-6.239 2.168-9.575 2.457-15.817 1.918" style="stroke:none;fill-rule:evenodd;fill:#222"/><path d="M269.407 77.074c13.867-1.695 31.39-2.328 38.21-7.875 8.336-5.015 12.352-12.117 9.262-15.05-6.945-5.825-7.719-18.024-5.094-20.84 6.348-7.238 27.075-10.594 46.782-9.727 43.343 1.02 81.59 3.789 123.207 1.617-.91 6.7-27.684 9.2-76.657 7.875-20.687-.539-42.304-2.933-62.066-3.007-19.605-.305-26.016 6.945-23.391 18.988.774 4.164 5.407 4.781 5.094 12.969-1.293 14.308-27.594 16.828-54.887 16.902-2.003-.152-1.542-1.078-.46-1.852" style="stroke:none;fill-rule:evenodd;fill:#a75659"/><path d="M267.766 302.961c-12.488-.433-11.77 22.957-17.328 27.293-5.051.43-7.219-3.754-6.496-12.562-8.664 2.453-12.129-11.985-18.196-10.828 5.629 10.972 9.532 23.25 11.696 37.691h60.652c2.164-14.441 6.063-26.719 11.695-37.691-6.062-1.153-9.531 13.285-18.195 10.828.719 8.808-1.441 12.996-6.496 12.562-5.559-4.336-4.836-27.73-17.328-27.293zm-26.215 29.899c1.789 0 3.25 1.554 3.25 3.464 0 1.907-1.457 3.465-3.25 3.465-1.789 0-3.246-1.554-3.246-3.465 0-1.906 1.457-3.464 3.246-3.464m8.809 0c1.789 0 3.25 1.554 3.25 3.464 0 1.907-1.457 3.465-3.25 3.465-1.789 0-3.25-1.554-3.25-3.465 0-1.906 1.457-3.464 3.25-3.464m8.812 0c1.785 0 3.246 1.554 3.246 3.464 0 1.907-1.457 3.465-3.246 3.465s-3.25-1.554-3.25-3.465c0-1.906 1.457-3.464 3.25-3.464m8.809 0c1.789 0 3.25 1.554 3.25 3.464 0 1.907-1.457 3.465-3.25 3.465-1.789 0-3.246-1.554-3.246-3.465 0-1.906 1.457-3.464 3.246-3.464m8.808 0c1.786 0 3.246 1.554 3.246 3.464 0 1.907-1.457 3.465-3.246 3.465s-3.25-1.554-3.25-3.465c0-1.906 1.461-3.464 3.25-3.464m8.809 0c1.789 0 3.25 1.554 3.25 3.464 0 1.907-1.457 3.465-3.25 3.465-1.789 0-3.25-1.554-3.25-3.465 0-1.906 1.457-3.464 3.25-3.464m8.812 0c1.79 0 3.247 1.554 3.247 3.464 0 1.907-1.457 3.465-3.247 3.465s-3.25-1.554-3.25-3.465c0-1.906 1.457-3.464 3.25-3.464M236.289 65.031q-3.24 1.389-7.41-1.85c-2.429-5.212-1.89-8.298 0-10.423 4.551-5.402 5.403-17.754 2.547-21.77-2.961-2.871-7.652-5.437-15.285-5.093-12.527-1.918-113.148-1.09-167.442-.461-1.863.222-2.718.992 3.473 5.558 24.703 1.282 49.379 2.606 75.961 1.387 24.008-1.195 48.016-1.273 72.024 0 6.406 2.082 13.738 1.387 20.609 2.082 3.859 1.387 6.406 6.25 2.312 12.504-2.855 4.246-4.476 11.27-2.082 14.82 3.317 3.493 6.637 6.926 9.957 8.567 5.25 3.781 6.25.769 5.325-5.324zm-97.269-23.39c-25.551 1.207-51.102.879-76.657.23q-11.577-7.64-8.336-8.8c9.418.328 18.837.906 28.255 1.851 17.445.848 34.894.77 52.339-.23q5.906 3.47 4.399 6.945zm.23-7.414q21.885.112 43.77.23 1.389 1.852 0 4.629c-13.379-.238-35.305 4.055-38.442 2.313l-5.324-7.18zm47.707 0q-1.037 1.851-.23 4.629c11.191.996 22.387.511 33.578.23.926-1.156.617-2.008-.926-2.547-10.804-1.164-21.613-2.41-32.422-2.312M153.84 51.133c-20.976.801-42.32.895-63.918.461-10.305-.344-18.488-2.043-22-6.715 11.297-1.465 48.676-.726 77.813-.691 4.246-.46 6.945 1.851 8.105 6.945m-.465-5.094c11.848.887 23.891 1.196 36.36.231q1.27-3.007-.231-5.094c-12.293-.383-24.219.691-35.894 2.777q-1.964 1.045-.231 2.082zm38.45-4.633c1.078 1.543 1.234 3.086.46 4.629l28.254-.226c.391-2.164.317-4.715-3.007-4.399-8.567-.769-17.137-.461-25.704 0zm25.937 13.665-23.391.691c-1.265-2.391-3.023-4.785-2.312-7.18 8.723-.074 18.836.074 27.558 0-1.078 1.774-1.695 4.242-1.851 6.485zm-26.172.23q-16.67.228-33.347.461c-1.93-2.391-2.161-4.785-1.618-7.18h32.188q0 3.82 2.777 6.715zm-33.117 5.328H97.797C93.399 58.778 90.313 56 89 54.145c21.383-.383 43 .152 64.383-.231 2.313 1.617 4.012 3.86 5.094 6.715zm2.086-1.851c-.617 1.078-.305 2.468.926 4.168 11.113.769 22.23.695 33.347.23-.382-4.168-1.386-5.863-3.007-5.094-10.637-.195-21.25-.351-31.266.692zm35.894-.235q-.229 3.24 1.387 6.485c6.715.48 15.981.363 22.695.23-.847-2.199-3.394-4.59-3.007-7.41l-21.075.691zm28.024 9.496c-7.563-.558-13.969-1.449-21.535-.691 2.16 3.086 5.25 4.937 9.261 5.555 7.411 2.625 22.231 3.628 21.305 1.617-.734-2.856-8.379-4.711-9.031-6.485zm-10.192 8.571c5.25 5.863 12.352 8.336 21.305 7.41q-.808-2.777-.691-6.485c-6.867.508-13.739-.187-20.61-.925zm1.622 5.328c-6.164 1.625-16.438.851-25.704 0q-6.83-2.313-7.179-6.485c8.011-1.527 17.359-1.05 26.633-.691.691 3.473 4.628 3.473 6.25 7.18zm-13.664-9.96q-14.472.11-28.95.229-6.365-4.513-5.324-6.25l22.231-.461 12.043 6.485zm-21.075 5.096c-9.183-.23-18.371 3.934-27.789 3.008-8.504-1.773-15.769-3.699-14.355-6.715 11.203.121 21.949-.945 25.703-3.933 3.933-.383 9.644 6.484 16.441 7.64m-15.746-9.496c-6.828 1.274-13.855 2.352-21.305 3.008-5.785.352-11.578.039-17.367-.23-5.617-1.055-11.55-1.157-16.441-4.399-1.93-1.234-2.16-2.469-1.387-3.937 15.574-.395 7.481 2.285 50.719 1.386q2.895 2.082 5.789 4.168zm103.754 13.895c-1.617 2.391 3.551 4.168 5.324 4.863 4.301.832 21.184 1.07 31.782-.859 6.043-1.102 13.14-2.078 20.394-3.055a156 156 0 0 0 5.524-6.558c-9.059 1.636-17.786-.075-33.387 5.152-10.344 1.254-19.297 1.058-29.645.461zm62.223.308c14.355-1.941 28.566-4.015 35.742-7.253-9.231-2.047-18.363-1.774-28.617.066-2.09 2.324-4.453 4.711-7.121 7.187zm-10.114-7.718q4.051-3.007 4.399-6.946c4.656-.14 9.316-.957 13.976-1.703a112 112 0 0 1-5.734 8.239c-3.469.882-8.101.601-12.641.41m24.903-9.578a59 59 0 0 1 5.664-.379c8.738-1.114 16.371-.016 23.851 1.386.352.067.711.133 1.067.192-2.754 2.406-6.016 4.613-9.906 6.574-5.207-.977-10.485-1.672-16.172-.746a49.7 49.7 0 0 0-9.727.23c2.028-2.464 3.75-4.875 5.219-7.261zm32.722 1.511c9.266 1.164 19.637.118 29.454.188 2.07 2.543-1.684 5.094-13.2 7.64-8.492.579-16.597.579-23.851-.691q-.073-.011-.145-.027A126 126 0 0 0 378.914 66zm-52.066-1.66c4.832.52 9.555.391 14.07-.972a80 80 0 0 0 3.594-6.739c-7.465-.844-12.719-.347-17.898.535 1.156 1.774.925 4.168.23 7.18zm21.07-2.871c9.684-.281 20.27.035 31.496.781.211.071.434.137.665.207a40.3 40.3 0 0 0 4.199-5.5c-11.403.551-22.813.356-34.215-.066a50 50 0 0 1-2.145 4.574zm33.973 1.438c11.309 2.351 37.668 1.41 49.867 1.2 4.555-1.618 6.946-3.552 7.18-5.79-17.254-2.067-34.508-3.446-51.762-1.637a93 93 0 0 1-5.285 6.223zM322.442 47.66c-.77 2.086 3.16 4.09 3.472 6.946 7.485.234 14.868.41 19.883-.895a59 59 0 0 0 2.051-5.765c-8.445.699-17.145.468-25.41-.282zm29.039 5.293c2.566 1.223 9.543 3.008 30.941 1.653q1.671-.07 3.336-.153c1.442-2.632 2.602-5.379 3.574-8.199-11.129-1.234-22.828-.754-34.937.942-.5.07-1.004.144-1.504.21a53 53 0 0 1-1.41 5.543zm37.476 1.332c16.387-.894 31.571-2.19 37.008.321 5.785 2.625 11.578 1.129 17.367.461 5.578-.555 9.703-3.528 13.43-7.18-21.043-1.758-42.086.574-63.129-1.109-1.328 2.507-2.898 5.015-4.68 7.503zm-66.746-8.476c-1.484-.797-.601-4.102.461-4.168 10.617 1.137 18.113.312 26.75-.883a47 47 0 0 1-.953 4.938c-8.684.472-17.789.464-26.258.11zm31.719-5.688c12.371-1.554 24.742-.394 37.117.493a93 93 0 0 1-.883 3.109c-1.402-.422-2.734-.805-4.261-.699-10.731-.696-17.059 3.007-32.192 2.312q-.218.013-.441.031.42-2.57.664-5.253zm42.23 1.149c4.696.586 9.649.867 14.75 1.293 18.836-3.86 39.524-1.93 58.825-2.778.922 2.856-1.543 4.477-7.41 4.864-22.473 1.589-44.61 1.492-66.465 0q-.597.027-1.153.007a50 50 0 0 0 1.457-3.386zm-72.097-1.485c1.519-5.19 8.191-5.468 14.125-6.25 3.84-.293 7.703-.457 11.582-.519a42 42 0 0 1-.067 5.125c-8.632 1.004-14.394 2.769-25.64 1.644m30.273-6.797c12.492.059 25.16 1.157 37.907 2.727-.204.914-.418 1.832-.641 2.742-12.328-1.949-24.824-1.601-37.481-.707q.152-2.325.215-4.762m43.508 2.844c24.426-.054 41.445.547 58.227-.906 19.144.152 27.402-6.406 28.949-6.02q3.24 1.736-7.41 8.106c-3.934 1.418-32.887 1.668-48.864 1.387-9.8-.532-21.175 2.976-31.914 1.019a38 38 0 0 0 1.012-3.586m-144.867 70.969-2.477-5.949 10.102-8.809q1.332 3.354 3.863 4.328zm50.707-17.918c.191 4.977-.961 9.84-3.238 14.82l.461.461c2.562-4.629 3.605-9.648 3.703-15.515l-.926.23zm-21.539-52.57c-19.52-3.797-28.895 7.859-35.434 23.851-4.258 13.496-2.101 30.664 1.617 44.696 3.997 10.683 8.922 17.132 16.903 22.23 6.871 2.32 13.199.543 19.453-2.082 2.824-1.289 8.031-6.793 11.578-10.883q-2.427 6.828-13.199 13.66c-6.481 3.02-13.426 4.649-22.231 1.387-7.371-4.976-14.328-9.984-17.367-17.828-4.652-9.703-7.625-20.09-6.715-32.887.887-16.597 5.594-27.25 12.043-35.199 6.625-7.633 13.262-12.383 25.242-11.578 8.571.609 15.208 6.324 20.379 13.66 5.789 7.254 8.18 15.359 9.032 23.852-2.778-10.418-5.942-18.219-9.957-22.465-4.321-5.789-8.258-8.953-11.348-10.418zm-16.906 3.703c2.004-2.469 4.242-2.699 6.254-.231v23.157c-1.774-1.696-3.86-1.391-6.254 0zm2.082 84.527c2.004 1.719 4.242 1.184 6.254-.328v-12.777a291 291 0 0 0-6.254-.367v13.476zm6.254-22.066v-5.254c-1.774 1.933-4.157 2.476-6.551.891l.297 4.257q3.132.019 6.254.102zm3.937 22.535c5.895-1.231 10.777-5.168 14.82-11.348-3.007-.769-5.711-1.234-8.105-1.386-1.195 6.328-3.668 10.113-6.715 12.734m5.441-22.305-8.777-6.461q1.501-1.211 2.996-4.281l9.621 7.32c2.52-1.207 3.543-4.113 2.528-10.164 5.015-.539 7.16-.539 12.175-.461.368 6.328-3.488 11.114-4.996 15.746-4.859-.668-7.746-1.378-13.55-1.691zm5.036-38.59-11.536 4.786c-.418-2.825-1.382-4.02-2.425-4.985l12.242-5.711c-2.653-8.172-5.981-14.289-10.606-17.722-2.636-1.313-4.035-2.395 3.243-1.852 9.96 4.152 18.058 11.992 21.437 31.195-3.625 1.93-5.074 2.457-10.555 1.918a166 166 0 0 0-1.796-7.625zm-35.684-2.082c.082-3.089.379-4.742 1.148-5.343l8.696 6.929c-1.246 1.578-3.328 3.649-2.805 5.805-3.746-3.62-3.293-3.77-7.043-7.391zm-3.047 6.004c-1.004 1.543-1.308 3.629-.461 5.789 3.16 1.387 5.676 1.012 9.461-.062-2.699-3.863-4.437-6.813-8.996-5.723zm-.465 9.727c-2.004 3.656-.203 5.258.461 5.79 3.395.69 5.004.604 8.399.065-.516-2.402-.715-4.41 0-6.019-4.016-.852-6.086-1.46-8.864.164zm25.879-3.34c.695-4.57-.594-7.949-3.875-10.137-4.469-1.09-6.953 1.586-8.941 5.364-2.711 6.023-3.059 12.011-1.489 16.992 1.684 4.777 5.161 9.445 8.348 10.136 3.774-.097 6.36-3.773 5.961-7.449-3.18-.988-6.16-2.179-7.75-4.769q-2.975-4.77 1.191-9.539c.911-.196 3.95-.395 6.559-.594" style="stroke:none;fill-rule:evenodd;fill:#fff100"/><path d="M227.227 191.778c8.293-.543 16.129-.946 24.07 2.867 20 1.082 29.242.648 41.156-1.731 5.34-2.742 14.727-2.886 17.762 1.297 3.34 6.653-1.43 9.246-7.363 11.262-11.695 6.207-14.731 17.039-9.098 32.492 7.352 14.797 29.16 35.016 55.024 56.754 10.234 12.453 19.957 25.168 12.562 59.789-12.402 35.164-33.234 37.473-68.887 57.621-6.859 3.246-7.593 7.852.969 12.117 2.653 3.348 1.809 5.785 1.192 6.942-1.516 3.211-3.829 5.23-6.93 6.062-.934 4.875-1.172 8.559 3.465 8.664l11.695 10.395q11.63 8.606-1.73 11.265h-65.856q-11.556-2.889-2.867-10.531c5.195-3.465 9.801-7.226 15-10.695q2.596-4.546.43-9.098c-5.813-4.183-8.403-8.375-3.899-12.562 4.113-1.621 5.844-3.645 5.195-6.063-.402-6.062-3.984-6.832-6.929-8.664-30.668-17.336-57.391-23.035-64.555-50.691q-11.843-39.411 6.063-59.785c8.351-11.309 21.179-21.977 35.093-32.493q44.637-36.549 14.297-62.386c-4.543-1.114-7.797-2.926-8.554-6.633-.422-5.02 2.398-6.043 2.675-6.199zm40.113 109.781c-13.051-.434-12.609 21.836-17.328 27.152-4.633.293-5.113-4.035-4.812-12.984-9.364 4.558-11.989-13.391-21.563-9.989 5.629 10.977 10.371 25.637 12.539 40.079h63.18c2.164-14.442 6.625-28.961 12.258-39.938-8.168-4.945-11.493 14.406-21.563 9.848.297 8.914-.043 13.308-4.391 12.984-5.136-5.035-4.414-28.148-18.312-27.152zm62.371-60.778c-.472 4.016 6.403 11.477 2.379 11.903-7.234.762-17.762-3.012-19.34-10.113-2.133-9.598 2.602-22.266 11.008-27.375 7.957-4.836 22.567-3.922 27.672 3.867 7.176 10.949 8.887 29.144.594 39.273-9.926 12.129-8.836 26.637-5.356 30.649 2.039 2.351 5.028 5.394 8.328 5.355 6.051-.066 15.997.266 17.258-5.652 2.227-10.481-1.785-12.692-5.355-11.899-3.375.746-7.305-.023-4.758 9.223-4.32.785-12.895 1.102-11.602-5.949 1.813-9.91 10.039-17.782 14.578-26.778 2.844-5.636 7.735-24.074 3.27-30.941-10.168-15.66-23.156-20.668-39.273-18.746-19 2.266-30.504 13.898-27.375 35.406 2.004 13.789 13.648 22.149 25.289 22.613 9.695.387 18.218-11.187 19.339-20.828 1.165-10.043-6.339-14.527-11.601-10.711-3.195 2.317-4.594 6.789-5.055 10.711zm-121.875-1.187c.473 4.016-6.402 11.477-2.379 11.902 7.235.762 17.762-3.011 19.34-10.113 2.133-9.598-2.601-22.266-11.008-27.375-7.957-4.836-22.566-3.922-27.672 3.867-7.175 10.949-8.886 29.141-.593 39.274 9.926 12.129 8.836 26.636 5.355 30.648-2.043 2.352-5.027 5.391-8.328 5.356-6.051-.067-15.996.265-17.258-5.653-2.226-10.484 1.785-12.691 5.356-11.902 3.379.746 7.308-.024 4.758 9.223 4.32.785 12.894 1.101 11.601-5.95-1.812-9.91-10.039-17.781-14.578-26.777-2.844-5.641-7.734-24.074-3.27-30.945 10.168-15.657 23.157-20.668 39.274-18.743 19 2.266 30.504 13.899 27.375 35.407-2.004 13.789-13.652 22.148-25.293 22.613-9.695.387-18.219-11.188-19.34-20.828-1.164-10.043 6.34-14.527 11.602-10.711 3.195 2.316 4.593 6.789 5.058 10.711zm48.696-129.73c46.855.562 90.281 10.734 128.953 40.414 11.679 11.8 22.769 24 31.718 37.628 23.075 39.524 42.149 79.762 44.723 122.938 1.801 32.18.473 65.461-15.957 104.023-8.609 19.391-23.664 40.493-54.57 65.801-19.434 17.77-51.836 30.266-104.024 32.57-41.254 3.497-72.48-7.558-100.082-22.718-20.176-10.321-34.906-22.633-35.711-37.535 6.93.535 17.5-1.141 23.692-5.211 8.015-5.801 11.367-17.828 3.742-27.383-10.043-7.512-18.609-8.629-25.703-3.86-8.395 6.317-10.844 15.313-10.938 28.684-20.804-.215-33.406-15.105-39.203-42.16q-2.794-27.675 5.317-45.113c8.222-15.149 25.832-17.336 36.445-28.567 16.93-16.058 13.043-43.617 9.848-50.629-6.957-11.941-20.887-15.675-40.582-12.609-5.79.769-10.457.957-15.758 5.316q-1.998-.159-.59-2.363c3.305-.32 4.738-3.461 5.316-7.879-1.625-5.871-4.843-8.101-9.652-6.699-1.602 2.391-3.258 4.555-5.316 5.121q-4.559-.891-5.711-3.152c-5.168-3.516-8.516-1.352-10.048 6.5.372 5.199 2.169 9.406 7.09 11.425 2.172.301 3.14 3.227 1.379 4.332-1.746 1.395-7.445-5.874-15.902-4.925-6.45.867-6.649 2.078-5.371 9.258-.008 2.382 2.476 3.253 6.105 2.453 1.364.82 1.364 1.191 0 2.468q-9.821.065-5.316 12.411 5.62 4.961 12.606-.981 2.94-1.06 3.152 1.969c-3.996 5.754-7.68 11.449-1.574 15.367 5.66 1.441 8.816-.242 10.836-3.348 1.437-1.882 2.425-1.949 2.953-.195 1.965 6.672 6.742 6.152 12.804 2.363q3.487-8.069-3.937-14.773-2.719-5.708 1.379-1.18c5.992 2.121 11.586 3.274 14.383-2.363 2.226-3.731 1.047-6.555-3.547-8.469-.774-1.379-.305-2.074.734-3.453 6.817-.945 7.922-5.93 3.992-9.152-1.175-2.149-3.554-2.301-6.105-2.164 28.058-3.977 36.98 3.3 40.437 8.863 2.836 12.594 4.305 25.301-6.55 38.809-8.422 11.015-24.18 10.261-37.379 26.226-4.25 5.848-7.993 14.43-10.02 26.594-1.992 50.687 12.731 67.375 31.637 74.836 5.344 1.601 11.031 1.836 16.547 2.758 1.566 18.23 13.851 33.285 39.597 45.113 37.575 20.504 76.465 28.098 115.395 23.141 69.41-2.985 109.699-32.555 138.16-72.395 22.629-29.336 38.004-69.191 37.43-132.195-4.117-48.368-19.887-87.036-40.387-121.754-13.824-20.032-28.211-37.442-44.328-50.633-47.352-34.867-86.875-40.289-130.125-39.598 1.273.489-3.25 2.973-1.977 6.078zM150.774 444.621c.754-10 2.078-17.558 10.113-23.011 6.039-2.598 9.691 2.875 13.004 8.234 3.137 4.996 2.582 9.566-6.106 13.199-6.234 2.457-10.769 2.754-17.007 1.574zm88.41-339.093c.793 1.8 2.191 5.519 3.047 6.832-14.805 2.902-31.528 5.089-45.879 10.726q-4.106-1.203-2.758-6.5c14.707-4.316 30.879-8.105 45.59-11.058" style="stroke:none;fill-rule:evenodd;fill:#fff"/></svg>