<!-- Created with Inkscape (http://www.inkscape.org/) -->
<svg
   xmlns="http://www.w3.org/2000/svg"
   xmlns:xlink="http://www.w3.org/1999/xlink"
   id="svg2609"
   version="1.0"><title>Herb Nowa Słupia</title>
  <metadata
     id="metadata2614">
    <rdf:RDF>
      <cc:Work
         rdf:about="">
        <dc:format>image/svg+xml</dc:format>
        <dc:type
           rdf:resource="http://purl.org/dc/dcmitype/StillImage" />
      </cc:Work>
    </rdf:RDF>
  </metadata>
  <defs
     id="defs2612">
    <linearGradient
       id="linearGradient2729">
      <stop
         style="stop-color:#000000;stop-opacity:1;"
         offset="0"
         id="stop2731" />
      <stop
         style="stop-color:#000000;stop-opacity:0;"
         offset="1"
         id="stop2733" />
    </linearGradient>
    <radialGradient
       xlink:href="#linearGradient2729"
       id="radialGradient2735"
       cx="88.901878"
       cy="90.900177"
       fx="88.901878"
       fy="90.900177"
       r="1.6174949"
       gradientUnits="userSpaceOnUse" />
  </defs>
  <sodipodi:namedview
     borderopacity="1.0"
     bordercolor="#666666"
     pagecolor="#ffffff"
     id="base" />
  <path
     style="fill:#e4e4e4;fill-opacity:1;fill-rule:evenodd;stroke:#000000;stroke-width:1.54363954;stroke-linecap:butt;stroke-linejoin:miter;stroke-miterlimit:4;stroke-dasharray:none;stroke-opacity:1"
     d="M 3.2752779,3.2567049 L 3.2752779,260.39756 C 2.9976489,298.06397 14.933144,331.4763 34.552508,358.92702 C 35.804113,358.85604 37.076632,358.6711 38.323083,358.61795 C 43.75567,358.38633 49.089871,358.29067 54.394386,358.24708 C 65.003418,358.15989 75.312846,358.18827 85.1153,357.3817 C 90.016528,356.9784 94.829838,356.3547 99.455848,355.40369 C 104.08186,354.45269 108.50565,353.19163 112.80739,351.44768 C 116.87661,350.19786 120.77588,348.76809 124.42818,347.24441 C 128.08048,345.72074 131.49558,344.1143 134.81271,342.42302 C 141.44699,339.04049 147.51061,335.39192 153.29471,331.97668 C 159.07882,328.56143 164.58167,325.36434 170.16958,322.76658 C 172.96354,321.46771 175.77039,320.30199 178.63792,319.36688 C 181.50546,318.43178 184.45429,317.7303 187.47714,317.26525 C 202.82393,325.0549 218.18085,334.56053 233.52761,342.17577 C 237.36431,344.07958 241.18808,345.88487 245.02478,347.49167 C 248.86147,349.09846 252.68524,350.56141 256.52194,351.75674 C 260.35864,352.95207 264.1824,353.8689 268.0191,354.53831 C 271.8558,355.20773 275.74138,355.62189 279.57808,355.65094 L 341.45259,358.98883 C 361.10172,331.52508 373.06951,298.09582 372.79164,260.39756 L 372.79164,3.2567049 L 188.77521,3.2567049 L 187.2917,3.2567049 L 3.2752779,3.2567049 z "
     id="path8036" />
  <path
     style="color:#000000;fill:#000000;fill-opacity:1;fill-rule:evenodd;stroke:#000000;stroke-width:0.47966659;stroke-linecap:butt;stroke-linejoin:miter;marker:none;marker-start:none;marker-mid:none;marker-end:none;stroke-miterlimit:4;stroke-dashoffset:0;stroke-opacity:1;visibility:visible;display:inline;overflow:visible"
     d="M 108.29506,53.572247 L 108.29506,65.378473 L 78.872217,65.378473 L 78.93403,103.64054 L 91.791072,103.64054 L 91.791072,78.235516 L 108.29506,78.235516 L 108.29506,91.957936 L 118.43235,91.957936 L 118.43235,78.235516 L 127.14794,78.235516 L 127.14794,111.11987 L 133.7619,111.11987 L 133.7619,78.235516 L 142.16843,78.235516 L 142.16843,65.378473 L 118.43235,65.378473 L 118.43235,53.572247 L 108.29506,53.572247 z "
     id="rect2737" />
  <path
     id="path2696"
     style="fill:#f00000;fill-opacity:1;fill-rule:evenodd;stroke:#000000;stroke-width:1.9780066px;stroke-linecap:butt;stroke-linejoin:miter;stroke-opacity:1"
     d="M 248.87409,366.78419 C 250.99444,343.40152 268.22984,300.82922 250.10724,276.76357 C 243.77703,269.61124 243.36598,260.23924 251.09377,247.16775 L 284.14245,280.95631 C 287.43086,303.81085 273.45506,363.41355 280.6896,363.57796 C 287.75971,334.55762 298.5293,314.90929 300.42015,293.53453 C 312.4229,267.7204 345.14272,198.99233 281.67613,190.93568 L 153.42756,190.93568 L 133.69702,163.3129 C 128.59996,158.70911 135.34123,154.10532 143.56229,149.50153 C 157.12704,153.20101 159.84,144.32226 161.31978,140.62278 C 151.61893,133.47045 144.3844,126.56476 142.57576,116.94612 C 156.22272,113.6577 158.52462,108.39622 168.71873,99.681892 C 163.29284,101.16168 157.86694,101.16168 152.44104,98.202101 C 164.11494,88.007986 168.38989,80.280187 171.18505,70.579335 C 169.04758,72.55239 165.92357,73.045654 163.29284,70.579335 C 159.42895,64.002485 160.49768,61.371746 162.79957,56.767952 C 168.71873,50.191104 171.18505,42.627727 161.31978,28.158658 C 161.31978,33.255716 158.85347,38.352774 155.40062,39.010459 C 150.13914,30.131712 142.41134,25.199076 124.81827,18.293384 C 144.95987,39.750354 149.0704,45.916151 152.68766,58.247742 C 150.46798,59.727534 148.24829,61.453956 145.28871,59.727534 C 145.12429,70.908176 142.74018,82.088821 148.49493,93.269463 C 141.67144,94.995887 138.30081,92.7762 134.68354,87.350301 C 133.94365,96.475679 133.94365,99.188628 128.76438,105.10779 C 118.40584,112.26012 112.24005,111.27359 99.168558,105.10779 C 94.893605,102.14821 95.058027,95.982414 95.222447,89.569986 C 87.330228,101.16522 79.43801,98.354896 71.545792,93.269463 C 69.161684,83.404189 67.764102,75.511971 69.572736,63.673643 C 65.626627,67.208699 61.680518,72.71681 57.734408,70.579335 C 54.528194,64.331328 56.007986,58.823217 57.734408,51.835314 C 62.913678,42.709937 72.532318,36.297508 84.370648,28.158658 C 68.997263,26.432234 64.968944,27.418763 53.541667,42.956568 C 47.951346,41.147935 46.060502,39.092669 41.456708,30.871607 C 44.169657,45.258466 43.923025,54.712686 42.936498,66.633226 C 39.401441,60.878483 36.113017,59.563112 27.152059,56.767952 C 35.373121,85.459457 47.786922,96.640099 69.572736,102.14821 C 67.106417,113.00001 77.464956,118.91918 81.411066,116.94612 L 81.411066,173.17819 C 72.378121,182.33266 68.771078,190.50058 76.509099,208.04054 C 76.99214,230.94821 82.407815,237.08492 94.23592,250.12732 C 94.564764,306.19496 108.97767,315.15864 115.71894,325.84603 C 111.97836,329.70992 110.93976,345.03947 112.37845,346.807 C 117.31108,351.73963 120.87216,352.72616 125.8048,346.807 C 125.8048,330.36488 134.61914,318.43597 143.56229,300.44021 L 143.56229,260.97912 C 143.6445,256.78638 156.05831,254.32006 162.30631,260.97912 C 165.34811,263.28102 201.43857,264.59638 204.72699,261.96565 C 210.31731,256.37533 214.67448,258.67723 215.5788,262.95218 C 252.0803,293.04126 242.21504,307.34593 248.87409,366.78419 z M 120.62553,319.92413 C 116.67942,308.168 111.74678,264.59638 117.91258,249.14079 C 129.50427,256.95081 123.83174,305.94833 120.62553,319.92413 z " />
  <path
     style="fill:#009500;fill-opacity:1;fill-rule:evenodd;stroke:#000000;stroke-width:1.54363954;stroke-linecap:butt;stroke-linejoin:miter;stroke-miterlimit:4;stroke-dasharray:none;stroke-opacity:1"
     d="M 341.45259,358.98883 L 279.57808,355.65094 C 275.74138,355.62189 271.8558,355.20773 268.0191,354.53831 C 264.1824,353.8689 260.35864,352.95207 256.52194,351.75674 C 252.68524,350.56141 248.86147,349.09846 245.02478,347.49167 C 241.18808,345.88487 237.36431,344.07958 233.52761,342.17577 C 218.18085,334.56053 202.82393,325.0549 187.47714,317.26525 C 184.45429,317.7303 181.50546,318.43178 178.63792,319.36688 C 175.77039,320.30199 172.96354,321.46771 170.16958,322.76658 C 164.58167,325.36434 159.07882,328.56143 153.29471,331.97668 C 147.51061,335.39192 141.44699,339.04049 134.81271,342.42302 C 131.49558,344.1143 128.08048,345.72074 124.42818,347.24441 C 120.77588,348.76809 116.87661,350.19786 112.80739,351.44768 C 108.50565,353.19163 104.08186,354.45269 99.455848,355.40369 C 94.829838,356.3547 90.016528,356.9784 85.1153,357.3817 C 75.312846,358.18827 65.003418,358.15989 54.394386,358.24708 C 49.089871,358.29067 43.75567,358.38633 38.323083,358.61795 C 37.076632,358.6711 35.804113,358.85604 34.552508,358.92702 C 69.337189,407.59652 128.47142,437.4123 188.03345,438.23272 C 247.56709,437.41269 306.66118,407.61711 341.45259,358.98883 z "
     id="path2888" />
  <path
     style="fill:#ffffff;fill-opacity:1;fill-rule:evenodd;stroke:#000000;stroke-width:0.47966659;stroke-linecap:butt;stroke-linejoin:miter;stroke-miterlimit:4;stroke-dasharray:none;stroke-opacity:1"
     d="M 141.68323,131.40992 L 131.77387,131.81234 C 130.12919,131.63356 129.52507,124.75499 131.83739,124.77003 L 141.93732,126.07788 C 143.18658,126.84918 142.97484,131.44345 141.68323,131.40992 z "
     id="path2699" />
  <path
     style="opacity:1;color:#000000;fill:#ffffff;fill-opacity:1;fill-rule:evenodd;stroke:#000000;stroke-width:0.24250001;stroke-linecap:butt;stroke-linejoin:miter;marker:none;marker-start:none;marker-mid:none;marker-end:none;stroke-miterlimit:4;stroke-dasharray:none;stroke-dashoffset:0;stroke-opacity:1;visibility:visible;display:inline;overflow:visible"
     id="path2703"
     d="M 89.961719 91.087212 A 0.81046593 0.93515301 0 1 1  88.340787,91.087212 A 0.81046593 0.93515301 0 1 1  89.961719 91.087212 z"
     transform="matrix(1.978007,0,0,1.978007,-39.68516,-51.75659)" />
  <path
     style="opacity:1;color:#000000;fill:url(#radialGradient2735);fill-opacity:1;fill-rule:evenodd;stroke:#000000;stroke-width:0.24250001;stroke-linecap:butt;stroke-linejoin:miter;marker:none;marker-start:none;marker-mid:none;marker-end:none;stroke-miterlimit:4;stroke-dasharray:none;stroke-dashoffset:0;stroke-opacity:1;visibility:visible;display:inline;overflow:visible"
     id="path2701"
     d="M 90.398123 90.900177 A 1.4962449 1.4962449 0 1 1  87.405633,90.900177 A 1.4962449 1.4962449 0 1 1  90.398123 90.900177 z"
     transform="matrix(1.978007,0,0,1.978007,-39.1919,-51.38665)" />
  <path
     style="fill:none;fill-opacity:0.75;fill-rule:evenodd;stroke:#000000;stroke-width:2.19400358px;stroke-linecap:butt;stroke-linejoin:miter;stroke-opacity:1"
     d="M 115.59861,326.13016 C 117.9166,324.16666 119.71186,322.32646 120.7486,318.78361"
     id="path2892" />
</svg>