<svg viewBox="-21.71 -26.92 586.04 726.94"><title>Herb Górzno</title><path d="M0 0h542.633v453.735C526.086 589.2 345.59 621.911 274.781 673.094 197.043 623.067 25.785 592.664.004 453.735V0" style="stroke:none;fill-rule:evenodd;fill:#222"/><path d="M13.852 12.704H529.93v435.835c-15.738 130.122-187.399 161.543-254.746 210.708C201.25 611.192 34.91 583.141 13.852 448.539zm270.152 419.222c7.547-19.156 14.395-22.988 21.246-34.828 7.547 15.387 15.094 12.25 22.641.695 11.027 8.821 21.594 4.528 21.246-8.707q7.835 2.962 11.492-6.617c8.649 4.555 15.035 1.942 18.11-11.144 11.609 4.64 16.718-1.391 15.324-18.11 9.054.461 13.004-5.57 11.844-18.109 12.738-1.762 15.374-10.492 8.609-26.188 9.683-11.879 7.293-21.898-7.168-30.066-21.813-13.398-41.887-22.273-58.129-49.609-3.043-34.411 6.445-64.989-18.539-103.231 25-24.633 8.781-52.66-19.043-37.582-11.356 3.34-12.965 24.793-34.074 10.02-20.293-12.075-34.317 8.242-18.039 28.562-8.086 5.34-14.668 12.563-19.043 22.551-26.883 8.098-53.219 10.133-79.176 8.016 4.387 7.468 9.937 12.734 18.039 16.492-7.551 7.281 1.211 13.402 16.535 15.574l14.028 13.527c-10.02 5.082-20.043 6.68-30.067 10.02 2.422 6.469 9.195 11.777 25.555 14.531q-1.311 5.262 8.515 10.524-7.488 26.056-8.015 52.113c-31.528 2.484-53.156 18.554-41.031 38.808-10.829 11.723-21.77 25.422-5.223 37.27-6.383 12.887-2.551 19.734 11.492 20.551.231 8.937 4.18 14.164 11.84 15.672 1.219 7.718 6.211 11.668 19.504 7.312 3.25 8.82 11.144 10.68 23.683 5.57 6.618 29.723 20.551 21.825-3.132 76.629-13.118 21.129-29.375 40.172-39.36 63.395-5.687 18.808 9.75 28.328 21.246 12.887 6.383 6.558 13.93 5.863 24.032-10.797q9.578 10.969 24.73-5.918c2.555 12.886 9.75 16.484 21.594 10.797 6.965 10.679 14.859 13.003 23.683 6.964 9.868 4.934 20.899-1.562 16.719-17.761l-22.988-40.403c-19.867-27.195-20.883-54.074-8.707-79.418" style="stroke:none;fill-rule:evenodd;fill:#3ba66d"/><path d="M470.047 253.766c18.738 0 34.02 15.281 34.02 34.02 0 18.738-15.282 34.019-34.02 34.019-18.734 0-34.019-15.281-34.019-34.019 0-18.735 15.281-34.02 34.019-34.02m-389.894 0c18.734 0 34.019 15.281 34.019 34.02 0 18.738-15.281 34.019-34.02 34.019-18.734 0-34.02-15.281-34.02-34.019 0-18.735 15.282-34.02 34.02-34.02" style="stroke:none;fill-rule:evenodd;fill:#fff101"/><path d="M276.403 102.621c-11.856 6.864 3.242 18.598 9.359 20.594 18.723.121 40.562-8.984 29.578-28.457-5.164-.433-11.168 14.063-19.187 14.324-6.2.204-13.403-.843-19.754-6.461zM270.41 100c-15.73-2.496-21.722 20.09 6.739 30.704 17.347 6.488 51.05-3.368 59.539-23.965 2.621-17.477-6.114-21.719-19.098-15.352 14.633 11.512 8.203 27.676-18.723 35.945-18.097 3.618-40.691-14.101-28.457-27.332m-5.617 29.582c17.41 10.047 37.258 10.422 60.66-1.496 17.973 24.215 17.223 41.688 17.973 67.028l-1.121 64.777c-1.613 24.152-3.606 46.434-9.711 68.336-4.75 17.035-14.367 32.578-22.863 48.492-12 21.235-28.121 34.235-36.004 63.711-5.223 19.328-3.953 38.656 3.801 57.984 10.062 18.063 24.441 33.192 32.546 53.61 2.594 14.746-6.683 18.476-13.824 6.824-3.941-10.496-9.578-20.812-13.004-31.492-3.879-12.09-6.976-23.988-11.445-35.887-3.609-4.289-5.652-1.523-3.187 3.586 4.285 12.043 5.773 23.246 10.066 35.152 3.559 9.864 7.836 15.168 13.004 29.418 6.301 10.829-12.582 13.426-15.106-6.914-4.121-13.91-5.941-28.203-6.925-42.632-.957-5.094-5.25-4.504-5.231.007.32 14.567 4.567 27.961 6.852 41.942 1.293 8.613-7.801 11.019-12.192.355-3.492-11.258-3.754-24.676-2.543-39.074.149-4.383-3.425-6.027-4.843-3.16-2.165 7.125-.016 23.273-.024 34.91-5.937 14.324-22.922 15.125-20.367 5.926l13.512-46.848-3.66-5.055-14.387 48.899c-9.781 21.308-22.309 24.129-18.176 11.398 10.672-23.41 21.348-44.078 32.02-70.234 1.316-5.637-2.848-7.156-4.86-3.383-10.211 26.227-21.703 51.172-34.531 74.785-6.902 16.981-15.77 10.309-12.285-3.351 10.273-24.407 32.238-48.367 46.113-78.52 13.117-35.515 5.375-46.488-6.094-70.273-17.453-40.317-22.691-89.231-13.187-148.52l4.117-22.465 32.949-19.097c.996-3.742.125-5.989-3.742-4.492l-29.953 18.722c-7.863 3.992-16.848-2.121 0-10.484 3.117-2.617-.496-7.488-4.117-4.492-12.981 7.113-21.844 4.617-28.832-2.246 18.472-5.739 35.074-8.485 53.172-22.84 2.867-1.621 1.621-5.118-2.618-4.868l-6.738 2.622c9.734-28.176 21.094-49.461 34.824-60.661zm-29.207 26.961c-26.461 11.981-43.933 4.493-65.902 6.739 13.726 12.105 31.953 6.613 46.805 8.238l3.742 3.742c-11.981.125-27.707-1.996-35.946.375-4.992 3.617-1.746 8.36 6.364 8.61l30.703-1.497c3.117.871 2.121 3.618-.746 3.743-6.676.496-12.418 2.242-16.102 6.738l9.36 8.609c3.96-1.933 7.519-4.679 10.484-8.609 2.059-12.231 6.176-24.465 11.23-36.695zm26.586-13.48c.371-6.363-.746-7.113-5.613-1.496-7.008 22-1.684 40.394 11.918 53.199 11.269 10.609 15.754 22.766 50.613 22.438 5.363-1.497 3.992-6.364-.746-6.739-26.633 1.965-33.793-5.426-44.324-18.066-8.188-9.828-20.875-25.274-11.84-49.332zm16.414 202.828c-12.14-1.551-17.445-7.762-19.648-16.09l4.57-.844c4.883 16.192 19.844 19.379 29.641-.336-6.903-3.144-9.133-7.804-10.16-13.21-12.5-.442-18.25-7.786-21.68-13.887l2.539-2.199c11.726 16.734 23.047 17.707 33.875-.336-5.223-4.149-6.406-8.61-5.758-13.211-17.742 4.969-29.91-1.016-34.215-12.024l3.387-1.183c4.578 12.543 29.574 18.062 34.215 2.199-13.098-6.039-14.848-14.793-15.41-24.727l4.23-.168c1.836 25.426 22.945 29.567 34.891 6.098l4.91 2.539c-6.832 9.824-14.227 15.695-22.867 15.582q-4.4 3.64-6.098 9.992c-.621 16.825 22.75 21.004 30.828 5.59h3.047c-2.144 10.418-13.379 14.762-28.625 11.008-3.219 5.645-7.734 10.84-13.211 14.227 2.766 14.679 24.445 18.066 28.965 6.605l4.234 1.859c-3.035 7.059-10.289 10.219-25.066 6.434-1.848 6.957-6.109 11.504-12.023 14.395-1.723 16.386 21.085 19.238 22.527 4.062l5.586 2.539c-5.481 11.699-14.617 13.93-27.778 5.758-2.722 6-7.324 9.586-13.211 11.516 1.887 11.8 8.153 17.39 24.051 9.316l3.215 1.691q-6.692 7.537-19.476 5.586c-6.719 16.598-24.899 16.543-31.676-.675l4.742-2.54c3.16 15.356 15.301 16.653 22.695.844-5.093-2.949-7.777-7.773-8.804-13.887-8.258-2.355-13.028-7.125-15.411-13.55l2.879-1.86q12.956 23.456 27.946 1.524l-1.86-8.637zm-72.914-44.77.024 23.141-35.305 35.516c-7.504 6.433-16.281-2.293-12.324-11.078 12.363-17.36 28.445-33.129 47.601-47.579zm.402-6.652c-14.109 2.188-27.007 6.652-37.234 16.125-4.918 9.313-3.469 19.965 4.527 12.481l32.704-28.606zm-.171 36.16q-16.148 18.254-33.754 33.602c-10.528.836-19.422 26.781 6.617 11.789l28.324-26.078-1.191-19.313zm2.488 25.266-27.867 25.176c-9.571 12.269-.399 21.629 8.402 14.429 4.145-4.515 7.195-10.308 11.344-14.824 3.429-3.738 7.953-6.203 11.383-9.945l-3.262-14.832zm7.351 28.945c-4.609 8.84-10.496 15.739-17.293 21.43-3.625 4.461-11.8 1.824-8.695-5.176 7.305-9.562 13.641-21.336 23.192-24.953l2.796 8.703zm1.579 7.477c2.011 6.41 4.312 12.531 6.812 18.461q-13.673 10.031-18.617-3.938l11.801-14.519zm130.66-142.098c13.258 10.227 19.027 26.711 29.336 36.68 9.093 8.797 20.429 12.301 29.644 21.371 10.063 13.93 7.43 24.227-5.105 20.434-9.043-9.926-20.176-14.973-27.133-29.774-4.617-13.957-15.594-22.617-27.668-30.363l.926-18.344zm-.93 22.988c10.543 6.805 16.523 13.954 20.887 23.782 5.859 13.195 21.394 24.004 30.429 35.89 5.805 10.371-1.933 20.2-8.824 14.395-7.32-9-13.719-15.676-17.094-29.785q-12.001-21.33-25.859-28.731l.465-15.554zm-1.391 18.809c10.977 9.367 19.731 20.449 23.809 33.859 3.098 10.204 12.777 18.204 18.684 27.907 4.488 11.609-2.09 18.574-9.985 9.75-2.562-3.887-3.039-9.399-7.695-11.661-10.746-9.734-16.617-30.617-28.527-40.585 2.242-5.883 3.328-12.77 3.714-19.274zm2.321-54.57c33.129 37.617 41.64 32.972 62.465 49.461 7.043 11.687 3.714 19.582-5.805 14.629-32.508-17.493-35.758-42.184-56.656-56.196v-7.894zm-6.735 78.953c10.758 10.215 9.907 18.808 23.918 36.922 13.071 6.461 11.867 31.929-2.554 24.843-4.254-5.105-1.082-9.984-3.715-14.628-6.422-11.918-9.828-24.766-19.969-36.688zm-4.179 14.629c5.804 14.242 15.324 24.304 18.109 43.886 3.016 9.211-7.43 13.157-10.445 3.481-.461-13.238-2.547-25.934-10.45-36.688zm-5.11 16.488c6.266 10.445 5.34 26.238 11.84 41.102 2.399 8.898-11.453 11.531-15.094 4.41-2.941-7.739-1.933-19.196-4.644-28.793q4.876-6.962 7.894-16.719zm-11.144 21.363c1.004 5.957 1.855 15.168 1.625 21.129.48 10.43-3.035 13.875-8.125 12.539-3.676-2.707-5.223-7.117-5.805-12.304 4.68-6.539 8.863-13.582 12.305-21.36zm-4.449-211.75c10.722 0 19.472 9.274 19.472 20.649 0 11.371-8.75 20.648-19.472 20.648s-19.473-9.273-19.473-20.648c0-11.371 8.746-20.649 19.473-20.649m.703 5.004c8.039 0 14.601 7.074 14.601 15.746s-6.558 15.746-14.601 15.746c-8.039 0-14.598-7.074-14.598-15.746s6.559-15.746 14.598-15.746m1.879 5.426c5.742 0 10.425 4.918 10.425 10.949 0 6.028-4.683 10.949-10.425 10.949s-10.43-4.918-10.43-10.949c0-6.027 4.683-10.949 10.43-10.949" style="stroke:none;fill-rule:evenodd;fill:#fffdfd"/></svg>