<!-- Creator: CorelDRAW -->
<svg
   xmlns="http://www.w3.org/2000/svg"
   style="shape-rendering:geometricPrecision; text-rendering:geometricPrecision; image-rendering:optimizeQuality; fill-rule:evenodd; clip-rule:evenodd"
   viewBox="0 0 210 297"
   id="svg2"
   version="1.0"><title>Herb Parczew</title><metadata
   id="metadata17"><rdf:RDF><cc:Work
       rdf:about=""><dc:format>image/svg+xml</dc:format><dc:type
         rdf:resource="http://purl.org/dc/dcmitype/StillImage" /></cc:Work></rdf:RDF></metadata><sodipodi:namedview
   guidetolerance="10.0"
   gridtolerance="10.0"
   objecttolerance="10.0"
   borderopacity="1.0"
   bordercolor="#666666"
   pagecolor="#ffffff"
   id="namedview15" />
 <defs
   id="defs4">
  <style
   type="text/css"
   id="style6">
   
    .fil0 {fill:#0A0B0C}
    .fil1 {fill:#DA251D}
    .fil2 {fill:#F8C300}
   
  </style>
 </defs>
 <g
   id="Warstwa_x0020_1"
   transform="matrix(1.2227607,0,0,1.2227607,-23.389874,-33.080583)">
  <metadata
   id="CorelCorpID_0Corel-Layer" />
  <sodipodi:namedview
   guidetolerance="10.0"
   gridtolerance="10.0"
   objecttolerance="10.0"
   borderopacity="1.0"
   bordercolor="#666666"
   pagecolor="#ffffff"
   id="base" />
  <path
   id="path17"
   class="fil0"
   d="M 210,166.596 C 209.9999,223.5199 162.8321,269.947 105,269.947 C 47.255,269.947 0,223.4347 0,166.596 L 0,27.054 L 210,27.054 L 210,166.596 L 210,166.596 z "
   style="fill:#0a0b0c" />
  <path
   id="path19"
   class="fil1"
   d="M 206.596,166.086 C 206.5959,221.4056 160.9571,266.524 105,266.524 C 49.1267,266.524 3.403,221.3224 3.403,166.086 L 3.403,30.477 L 206.596,30.477 L 206.596,166.086 L 206.5956,166.086 L 206.596,166.086 z "
   style="fill:#da251d" />
  <path
   id="path47"
   class="fil0"
   d="M 52.3868,127.824 C 52.0528,128.4181 51.7613,129.0426 51.5285,129.6993 C 49.892,134.3159 49.3806,139.4838 50.5167,144.2281 C 51.0706,146.541 52.0283,148.7538 53.437,150.7312 C 53.1356,151.9813 52.8272,153.1927 52.3697,154.38 C 51.9178,155.5532 51.6134,155.8559 50.7214,156.7446 C 48.1108,159.3453 45.7596,162.7267 44.0595,165.5778 C 43.1068,167.1756 42.3086,168.5564 41.9905,169.9091 C 41.4475,170.1049 40.9081,170.3043 40.433,170.5117 C 39.4459,170.9426 38.8607,171.6484 38.4663,172.342 C 37.9823,173.1931 37.6359,174.1032 37.3863,174.8544 C 36.8539,176.4565 37.3561,177.8343 37.8069,178.9811 C 38.524,180.8051 39.3006,182.8964 39.7509,184.9608 C 40.7492,189.5371 42.5734,198.9239 44.2187,207.1518 C 44.2567,207.3508 44.3609,207.5311 44.5142,207.6634 C 45.7401,208.7007 47.0741,209.7324 48.4704,210.7669 C 48.6215,211.8142 48.6859,212.8578 48.9024,214.0297 C 49.0694,214.9334 49.6566,216.085 51.0624,216.94 L 61.5099,223.2948 C 61.8254,223.4858 62.2255,223.4646 62.519,223.2413 C 62.8125,223.018 62.9398,222.6381 62.84,222.2831 L 61.9155,219.0886 L 63.3857,219.9071 C 63.6607,220.0631 63.9975,220.063 64.2725,219.9069 C 64.5475,219.7507 64.7202,219.4616 64.7272,219.1454 C 64.7927,216.7845 64.688,214.2328 63.8632,212.0743 C 63.0383,209.9158 61.3068,208.1409 58.5314,207.8794 C 57.4159,207.7743 56.1441,207.5352 54.9276,207.22 C 55.2305,206.7508 55.5465,206.2889 55.7916,205.8558 C 56.1323,205.254 56.2342,204.5194 56.019,203.8891 C 55.8038,203.2588 55.3628,202.776 54.814,202.343 C 53.8323,201.5686 52.328,200.8065 50.2439,199.7283 C 49.8229,198.4763 49.1133,195.5428 48.8683,191.6568 C 48.6757,188.6033 48.1567,185.1963 47.6064,183.2556 C 49.9955,179.4146 49.9176,178.0526 49.846,175.5933 C 51.1976,173.5983 53.35,171.5717 56.1554,169.5226 C 57.3685,168.6366 58.4092,167.7589 59.3954,166.7601 C 60.3073,165.8366 61.3758,164.9209 62.4412,164.1581 C 63.1765,165.5893 63.5275,166.8158 63.92,168.454 C 64.266,169.8981 65.1668,172.0911 66.1596,174.6156 C 67.1523,177.1401 68.2323,179.955 68.8993,182.403 C 69.3764,184.154 69.8465,185.0542 69.8429,187.9507 C 69.8425,188.3071 69.6513,190.2441 69.877,192.282 C 70.0902,194.2075 70.7015,196.3904 72.3553,197.8639 C 74.4399,205.492 75.5189,214.0976 76.3342,221.601 C 76.3957,222.1663 76.4772,222.634 76.4706,222.9311 C 76.4641,223.2282 76.4445,223.313 76.2547,223.4881 C 74.9771,224.6665 74.4691,225.3017 73.8786,227.0464 C 73.3958,228.4733 72.764,229.3922 71.9347,229.8089 C 71.7146,229.9206 71.5501,230.118 71.4799,230.3546 C 70.404,233.9974 69.3568,237.6976 68.2854,241.325 C 68.1788,241.6692 68.288,242.0438 68.563,242.2767 C 68.8379,242.5095 69.2255,242.5556 69.5473,242.3937 C 70.3388,242.0044 71.1435,241.5814 71.9368,241.1689 C 71.6509,241.9182 71.3583,242.6623 71.0593,243.4055 C 70.9338,243.7089 70.9838,244.0568 71.1898,244.3126 C 71.3959,244.5683 71.7251,244.6913 72.0484,244.6332 C 74.5387,244.1849 77.432,242.5792 79.8584,240.1768 C 82.2849,237.7745 84.2365,234.54 84.5649,230.8093 C 84.6044,230.3833 84.3381,229.9886 83.9283,229.8657 C 82.7554,229.511 82.4733,229.0973 82.3708,228.6266 C 82.2683,228.1559 82.4479,227.4102 82.8824,226.603 C 83.7515,224.9887 85.5629,223.2442 85.8836,222.9879 C 86.1407,222.785 86.267,222.4583 86.2133,222.1353 C 86.0415,221.0801 85.0579,219.8941 84.3375,219.1454 C 83.5246,218.3005 82.8154,217.2681 82.6437,216.9854 C 81.8023,213.0428 81.7083,207.493 81.7342,202.8432 C 81.7489,200.1978 81.4385,198.0875 80.9839,196.7043 C 82.2453,192.7299 80.2515,188.5038 79.0171,185.9158 C 78.7783,184.0323 78.4227,181.084 78.4032,177.7192 C 78.3858,174.6869 78.8047,171.3239 79.8822,168.1875 C 85.5955,170.0977 91.1243,171.0984 96.1606,171.5348 C 106.2865,172.4124 116.8873,171.6913 127.0143,168.795 C 128.1824,168.4609 129.1552,168.1475 130.0092,167.8744 C 132.2982,176.9587 139.0661,184.9639 143.362,194.0669 C 144.0399,195.5033 144.2204,196.4316 143.8963,197.4205 C 140.848,206.7212 135.6151,213.4298 130.4134,216.9172 C 130.2669,217.0147 130.1523,217.153 130.0838,217.3151 C 129.7178,218.2008 129.5679,219.1148 129.2311,221.0326 C 125.8247,223.396 122.451,227.1103 119.2042,232.2986 C 119.0702,232.5169 119.0357,232.7822 119.1095,233.0275 C 119.1834,233.2729 119.3585,233.4751 119.5908,233.5832 L 121.4386,234.4328 C 121.1001,234.8649 120.7647,235.2941 120.432,235.7205 C 120.2296,235.9842 120.1894,236.3382 120.3276,236.6406 C 120.4657,236.943 120.7595,237.1445 121.0914,237.1642 C 123.2096,237.2745 128.0572,237.0621 131.5275,235.027 C 132.2273,234.6166 132.8763,234.1551 133.3919,233.5491 C 133.9075,232.9431 134.2701,232.1449 134.2446,231.2527 C 134.2182,230.3351 134.0303,229.2415 133.8694,228.4106 C 133.8643,228.3842 133.8729,228.3967 133.8694,228.3765 C 133.9019,228.3671 133.9048,228.3632 133.949,228.3538 C 134.8156,228.1692 135.6846,227.9928 136.5523,227.8081 C 137.2943,227.6501 137.81,227.1184 138.0075,226.6485 C 141.9367,217.3015 147.7588,208.2925 151.5017,203.0592 C 152.4483,201.7356 153.7185,200.4124 154.6735,198.8529 C 155.7251,197.136 156.5379,195.0809 156.5379,192.6117 C 156.5384,192.238 156.3075,191.903 155.9581,191.7705 C 154.9445,191.3921 154.8623,189.6939 154.935,188.8147 C 155.0423,187.5153 155.6266,186.2095 156.2699,185.6014 C 158.7453,187.0731 161.2866,188.4449 163.3703,189.7924 C 166.0168,191.5039 168.0298,193.5036 167.9744,196.5679 C 167.9424,198.3421 167.6615,200.0218 167.4287,201.5586 C 166.528,207.5056 162.961,212.4003 159.4936,217.4629 C 158.8445,218.4107 158.2016,219.4231 157.5951,220.5437 C 157.4955,220.7278 157.4634,220.9409 157.5042,221.1462 L 158.0044,223.761 C 158.1183,224.3486 158.0746,224.4779 158.1408,224.2953 C 158.207,224.1126 158.1369,224.2604 157.6861,224.659 C 157.0039,225.2623 155.9102,226.1326 154.9236,227.1487 C 153.9369,228.1648 153.0055,229.3351 152.7636,230.7411 C 152.4002,232.8533 152.1043,235.9743 151.3084,239.3697 C 151.2332,239.6832 151.3318,240.013 151.5667,240.2339 C 151.8017,240.4547 152.137,240.5327 152.4453,240.4383 L 154.6941,239.7399 C 154.5484,240.4269 154.4013,241.1069 154.2529,241.7798 C 154.1766,242.1438 154.3325,242.5173 154.6451,242.7189 C 154.9577,242.9206 155.3622,242.9088 155.6625,242.6892 C 157.8991,241.0256 162.4248,238.202 164.6663,235.4931 C 165.6357,234.3214 165.8187,233.1282 165.6325,232.1621 C 165.4197,231.0573 165.2496,229.6435 165.0187,228.4447 C 164.9496,228.0861 164.9879,228.1028 164.9732,228.1264 C 164.9585,228.15 165.0652,228.0473 165.3597,227.8536 C 166.2608,227.2608 167.217,226.7393 168.2018,226.0915 C 168.4059,225.9554 168.5456,225.7419 168.5883,225.5003 C 170.2525,215.9433 172.9958,206.7127 176.603,197.5911 C 177.693,194.8347 178.5739,191.4155 177.8535,188.2804 C 177.8031,188.0692 177.6779,187.8834 177.5011,187.7574 C 172.6806,184.2445 168.0646,176.1688 165.3938,169.3066 C 164.4479,166.8762 164.5043,164.782 165.121,162.3947 C 165.7377,160.0074 166.9494,157.3654 168.2927,154.1185 C 169.6402,150.8616 170.2063,148.7331 169.3056,144.2243 C 169.8154,144.3848 170.3472,144.4518 170.8734,144.4441 C 172.3095,144.4229 173.7941,144.0198 175.4662,143.7847 C 175.774,143.7409 176.0373,143.5411 176.1622,143.2564 C 176.2872,142.9717 176.2561,142.6426 176.0801,142.3864 C 173.909,139.1931 172.6898,136.5045 171.419,134.133 C 169.0791,129.7661 165.4715,127.2603 160.9887,125.7376 C 160.8147,125.6785 160.6703,125.6262 160.5075,125.5423 C 149.2248,119.7227 142.2718,119.6592 132.346,121.8893 C 123.1446,123.9566 116.8199,124.3961 107.961,121.0366 C 104.9364,119.8897 101.2579,118.111 94.5122,115.8072 C 94.0644,115.6543 93.6272,115.5205 93.2002,115.4059 C 90.6533,111.1445 89.9493,104.7436 89.567,98.0271 C 89.1138,90.0671 89.39,78.8326 82.7857,67.3935 C 88.0807,73.0219 97.6911,77.9355 105.8692,78.8828 C 107.7807,79.1043 108.905,79.5289 110.0527,80.0765 C 111.2005,80.6241 112.3807,81.3184 114.1908,81.9182 C 122.3947,84.6365 130.9204,85.7851 139.3035,85.8857 C 145.5491,85.9607 151.0029,84.0389 155.8217,80.1106 C 159.9474,76.7474 163.576,72.0799 166.2806,65.8434 C 166.4611,65.4393 166.3206,64.964 165.9493,64.7231 C 165.5781,64.4822 165.0867,64.5475 164.7913,64.877 C 161.8657,68.0749 158.6346,70.8715 155.0145,73.1759 C 155.429,72.0373 155.6865,70.8221 155.8558,69.6404 C 156.2009,67.2305 156.142,65.0016 155.9467,63.7857 C 155.8838,63.3996 155.5782,63.0986 155.1912,63.0414 C 154.8042,62.9843 154.4247,63.1841 154.2529,63.5356 C 152.6265,66.8726 150.2187,71.4372 148.0457,74.2673 C 146.2414,76.6172 144.5468,78.3544 141.8045,78.6327 C 139.9975,78.8162 137.3949,78.7379 135.6883,78.3713 C 135.3145,78.291 134.6563,78.1815 134.9153,77.746 C 135.4201,76.8973 137.2077,74.946 139.4285,72.9258 C 141.6493,70.9057 144.3404,68.7292 146.7952,67.0939 C 147.1312,66.8727 147.2792,66.4552 147.1576,66.0718 C 147.0359,65.6884 146.6743,65.4325 146.2723,65.4455 C 139.4501,65.5993 132.5455,70.5484 126.6619,74.6425 C 125.8195,75.2287 124.5252,75.9981 122.6489,76.1772 C 121.4238,76.2941 119.7723,76.1263 118.363,75.8248 C 117.6431,75.6707 116.1718,75.3745 115.6005,74.8698 C 115.4445,74.7321 115.45,74.5725 115.6232,74.4378 C 119.1297,71.7114 127.5682,69.1409 130.6294,68.3558 C 131.0186,68.2563 131.2944,67.9105 131.305,67.509 C 131.3156,67.1074 131.0583,66.7476 130.6749,66.6278 C 123.0666,64.2761 117.7321,65.8952 114.5091,67.3553 C 111.2349,68.8378 108.0418,70.066 104.3799,70.1861 C 103.0167,70.2308 100.266,70.291 99.0936,69.4016 C 98.3689,68.8518 98.5957,68.5003 99.2414,68.1511 C 103.6445,65.7703 109.3945,63.9829 114.3841,64.0244 C 114.7589,64.0222 115.093,63.7874 115.2222,63.4355 C 115.3513,63.0835 115.2484,62.6884 114.9639,62.4442 C 114.3103,61.9009 112.9928,61.5399 112.1786,61.2051 C 109.796,60.2254 106.6009,59.6516 103.641,59.7045 C 100.7207,59.7567 98.4179,61.2995 95.8082,61.7053 C 94.4695,61.9135 93.4952,61.7057 92.4545,61.3074 C 91.7932,61.0543 91.1115,60.714 90.3479,60.3626 C 90.7878,59.9101 91.2549,59.4918 91.8293,59.2156 C 92.0712,59.0993 92.364,58.9904 92.7487,58.8271 C 96.146,58.8126 100.7938,57.133 103.55,55.8165 C 104.9183,55.163 105.8106,54.7791 106.6081,54.6797 C 107.4056,54.5802 108.2117,54.7168 109.5525,55.2708 C 113.8606,57.0509 117.0853,58.0818 124.229,57.0556 C 125.3518,56.8945 125.9063,56.78 126.912,57.4422 C 130.1242,59.5574 134.2381,60.7727 138.1666,59.8864 C 139.6133,59.56 141.1609,59.2645 143.0437,59.227 C 148.3798,59.1209 155.579,59.9313 160.5964,57.0215 C 163.2186,55.5008 165.7079,53.3576 167.2355,50.4052 C 167.4476,50.0213 167.3515,49.5404 167.0082,49.2674 C 166.6649,48.9945 166.1747,49.0093 165.8486,49.3024 C 165.3246,49.7488 163.64,50.534 161.8355,51.1668 C 159.6583,51.9304 157.111,52.8771 154.7644,52.8835 C 157.0093,50.4868 159.085,47.8646 161.1989,45.4713 C 161.5136,45.1332 161.5207,44.6117 161.2153,44.2651 C 160.9099,43.9186 160.3915,43.8601 160.0166,44.1299 C 155.6979,47.0461 149.694,49.772 144.9422,51.3829 C 142.7823,52.115 140.3623,52.596 137.9734,52.622 C 136.8897,52.6338 135.7442,52.6214 134.8471,52.4287 C 134.4656,52.347 133.7539,52.2057 133.9489,51.8182 C 134.2143,51.2899 135.1345,50.3022 135.6201,49.9618 C 139.211,47.4444 142.0446,46.3949 146.4428,45.2553 C 146.8397,45.1552 147.1188,44.7994 147.1215,44.39 C 147.1241,43.9807 146.8498,43.6213 146.4542,43.516 C 141.7629,42.2468 139.0337,41.7663 136.3704,42.3791 C 133.7072,42.992 131.3393,44.6088 127.1507,47.2789 C 123.1955,49.8002 119.1435,50.3743 115.43,49.9504 C 115.0403,49.906 114.9231,49.8265 114.8843,49.8026 C 114.9219,49.6523 115.2204,49.0859 115.6687,48.6317 C 118.8353,45.423 124.4119,43.4445 129.0947,40.8558 C 129.4488,40.6578 129.6263,40.2472 129.528,39.8536 C 129.4296,39.4601 129.0797,39.1813 128.6741,39.1733 C 126.0198,39.1277 122.4635,38.8426 119.784,39.3892 C 116.99,39.9592 114.2361,41.5169 111.8944,42.777 C 109.3599,44.1408 106.1111,46.1579 102.9816,47.8245 C 99.8521,49.4912 96.7836,50.7576 95.0465,50.7576 C 94.384,50.7576 93.7402,50.4973 93.3299,50.0187 C 92.9187,49.539 93.5289,48.6693 93.8415,48.2907 C 94.6284,47.3375 96.5357,45.8715 98.7981,44.4368 C 101.0604,43.0021 103.6891,41.5475 106.0284,40.4238 C 106.3805,40.2486 106.5779,39.8647 106.5154,39.4764 C 106.4528,39.0881 106.1449,38.7856 105.7555,38.7299 C 103.4926,38.4488 101.1759,38.41 98.9117,38.6958 C 95.7213,39.0985 93.4768,40.7646 90.8857,42.6861 C 87.2073,45.414 85.1208,48.7473 78.1481,53.5002 C 77.9948,53.3784 77.8399,53.2638 77.6836,53.1565 C 78.4048,51.8512 78.4097,50.5101 77.7666,49.1319 C 77.6515,48.8852 77.3632,48.0849 77.3233,47.222 C 77.2833,46.3592 77.4465,45.455 78.1418,44.6869 C 78.3789,44.4244 78.4399,44.0471 78.2976,43.7233 C 78.1553,43.3994 77.8362,43.1892 77.4824,43.1863 C 77.3859,43.1861 77.2899,43.2014 77.1982,43.2317 C 73.4627,44.4673 70.4876,46.1998 68.3764,47.9837 C 66.5433,49.5327 65.319,51.0797 64.9122,52.5869 C 62.4984,52.2175 59.6782,52.0382 57.5196,53.3609 C 56.8059,53.7983 56.2076,54.3317 55.7756,54.9427 C 55.6757,54.9486 55.5773,54.971 55.4847,55.0093 C 52.0578,56.2634 47.9823,58.3846 43.7412,61.1596 C 41.0781,62.9022 38.2298,64.6771 35.5673,65.9684 C 32.5419,67.4359 29.9367,68.6137 28.644,70.7204 C 28.2978,71.2848 28.1738,71.8786 28.1681,72.442 C 28.1627,72.9972 28.2269,73.7038 28.519,74.1877 C 28.5873,74.3008 28.5617,74.2646 28.5325,74.3993 C 28.4978,74.5593 28.4585,74.8295 28.5417,75.2791 C 28.8152,76.7553 29.4686,77.817 30.463,78.2803 C 30.7105,78.3957 30.9632,78.4745 31.2202,78.5247 C 31.2437,79.4571 31.5855,80.2696 32.1796,80.8041 C 32.9159,81.4665 33.8945,81.6853 34.8852,81.6908 C 37.5575,81.7059 39.9803,80.9888 42.2065,79.4967 C 42.4647,79.3237 42.7116,79.1499 42.9474,78.9774 C 47.53,80.3332 54.2619,80.6802 58.8318,80.0788 C 59.1767,85.8929 57.083,91.8372 55.2346,97.345 C 53.0448,103.8705 50.6318,111.4673 50.2666,118.4106 C 50.0546,122.4413 51.1381,125.8958 52.3868,127.824 L 52.3868,127.824 z "
   style="fill:#0a0b0c" />
  <path
   id="path47_0"
   class="fil2"
   d="M 81.0409,67.9638 C 87.5786,79.0587 87.3054,89.9545 87.7708,98.1294 C 88.1208,104.2776 88.6726,110.3161 90.9261,114.9661 C 88.517,114.6992 86.2084,115.1886 84.2466,116.6938 C 83.851,116.9952 83.7747,117.5602 84.0761,117.9557 C 84.3774,118.3513 84.9424,118.4276 85.3379,118.1262 C 87.5499,116.429 89.9543,116.1424 93.9324,117.501 C 100.5991,119.7778 104.1775,121.5143 107.3243,122.7077 C 116.5045,126.189 123.4066,125.7352 132.7326,123.6399 C 142.5432,121.4357 148.7228,121.4439 159.8688,127.2323 C 159.9127,127.255 159.9583,127.274 160.0052,127.2891 C 164.4091,128.7061 167.6522,130.8934 169.8388,134.9742 C 170.9109,136.9748 172.1315,139.4427 173.8973,142.2272 C 172.7091,142.4353 171.6323,142.6361 170.8392,142.6478 C 169.938,142.661 169.3803,142.5447 168.8323,141.9151 C 168.5005,141.5336 168.1432,140.7609 167.929,140.2945 C 167.6568,139.7023 167.3142,138.9633 166.9172,138.1686 C 166.1232,136.5793 165.1023,134.776 163.7795,133.4508 C 163.5578,133.1986 163.2141,133.091 162.8882,133.172 C 162.5623,133.2528 162.3088,133.5087 162.2308,133.8353 C 162.1528,134.1619 162.2634,134.5046 162.5176,134.724 C 163.5799,135.7883 164.5564,137.4588 165.3142,138.9758 C 165.6932,139.7343 166.0174,140.4474 166.2919,141.0448 C 166.5664,141.6423 166.7606,142.093 166.9967,142.4545 C 167.0282,142.5027 167.0602,142.5497 167.0927,142.5959 C 168.5705,148.4093 168.142,149.7888 166.633,153.4363 C 165.3059,156.6438 164.0598,159.3148 163.3816,161.9398 C 162.7035,164.5649 162.6359,167.1735 163.7227,169.9659 C 166.4159,176.8857 170.8514,184.9184 176.1255,188.951 C 176.6042,191.4298 175.9184,194.4367 174.9318,196.9316 C 171.3383,206.0188 168.6,215.2383 166.9058,224.784 C 166.0918,225.3 165.2486,225.7753 164.3707,226.3528 C 164.0923,226.536 163.7306,226.7206 163.4498,227.1714 C 163.1691,227.6221 163.1441,228.202 163.2566,228.7857 C 163.4694,229.8905 163.6395,231.3042 163.8705,232.5031 C 163.9963,233.1561 164.0271,233.4548 163.2907,234.3448 C 161.8184,236.1241 158.867,238.2026 156.4583,239.9153 C 156.9757,237.47 157.4984,235.0154 157.9703,232.4008 C 158.0582,231.9111 157.7324,231.4428 157.2427,231.3549 C 156.753,231.267 156.2847,231.5928 156.1968,232.0825 C 155.8489,234.01 155.4863,235.8924 155.1124,237.7277 L 153.3434,238.2782 C 153.9222,235.3793 154.2491,232.7218 154.537,231.048 C 154.6663,230.2969 155.3291,229.3158 156.2082,228.4105 C 157.0873,227.5052 158.1208,226.6729 158.8684,226.0118 C 159.2818,225.6462 159.624,225.4903 159.8347,224.909 C 160.0454,224.3278 159.8743,223.9763 159.7665,223.4198 L 159.3345,221.1461 C 159.8604,220.1993 160.4019,219.3176 160.9715,218.486 C 164.4151,213.4581 168.2301,208.3247 169.2136,201.8313 C 169.4435,200.313 169.7356,198.5401 169.7706,196.6019 C 169.8408,192.7186 167.186,190.123 164.3366,188.2803 C 160.8844,186.0477 156.4575,183.8536 153.1274,181.4252 C 149.9364,179.0982 146.098,176.0231 142.8163,172.0918 C 140.1109,168.8509 137.7652,164.7426 136.018,161.7466 C 133.7803,157.9094 131.4127,153.4677 128.856,151.4128 C 128.6928,151.2785 128.4875,151.206 128.2762,151.2081 C 127.8898,151.2069 127.546,151.4529 127.4223,151.8189 C 127.2985,152.1849 127.4227,152.589 127.7305,152.8224 C 129.6661,154.3781 132.2075,158.7926 134.4606,162.656 C 134.8943,163.3998 135.3681,164.2181 135.8796,165.0805 C 132.5504,164.8748 129.6473,166.1709 126.5141,167.067 C 116.6304,169.8936 106.2541,170.5994 96.3198,169.7385 C 91.4267,169.3145 86.0614,168.3534 80.5265,166.5111 C 81.0372,165.2949 81.6345,164.0623 82.1775,163.0198 C 83.2228,161.0136 83.4295,160.0894 83.394,157.2447 C 83.3818,156.2703 83.4834,155.9209 83.6895,155.6418 C 83.8957,155.3627 84.3828,155.0338 85.2697,154.4708 C 85.6294,154.2514 85.7883,153.8114 85.6518,153.4128 C 85.5153,153.0141 85.1201,152.7639 84.7013,152.8111 C 84.5637,152.8262 84.4314,152.8728 84.3148,152.9475 C 83.4354,153.5056 82.7526,153.8984 82.2457,154.5845 C 81.7389,155.2707 81.5836,156.1339 81.5978,157.2674 C 81.6326,160.0569 81.5944,160.2544 80.586,162.19 C 79.8842,163.5371 79.1031,165.1748 78.4942,166.76 C 77.1048,170.3772 76.587,174.2585 76.6071,177.7305 C 76.6275,181.277 77.0037,184.3807 77.2437,186.2681 C 77.2556,186.3627 77.2825,186.4547 77.3233,186.5409 C 78.5724,189.1619 80.3497,193.2239 79.2104,196.3859 C 79.142,196.5855 79.146,196.8028 79.2218,196.9998 C 79.5782,197.9654 79.9527,200.1838 79.938,202.8317 C 79.9117,207.558 79.9794,213.2417 80.9157,217.5083 C 80.9309,217.5912 80.9577,217.6715 80.9952,217.747 C 81.2915,218.2879 82.0422,219.3573 83.0415,220.3958 C 83.5192,220.8922 83.9737,221.4354 84.258,222.067 C 83.4575,222.7899 82.1976,224.0659 81.2908,225.7503 C 80.7515,226.7521 80.359,227.8664 80.6087,229.013 C 80.8135,229.9533 81.5407,230.7538 82.6437,231.2753 C 82.2067,234.2161 80.6334,236.8642 78.5851,238.8921 C 76.9559,240.5052 75.0569,241.7103 73.3784,242.3708 C 74.2316,240.1732 75.0449,237.945 75.7885,235.5498 C 75.9361,235.0758 75.6714,234.5719 75.1974,234.4244 C 74.7234,234.2768 74.2195,234.5415 74.0719,235.0155 C 73.6795,236.2794 73.2712,237.501 72.847,238.6977 C 72.8268,238.7086 72.8068,238.7204 72.7873,238.7329 C 72.0566,239.0923 71.3289,239.4671 70.5932,239.847 C 71.4366,236.9492 72.27,234.0369 73.117,231.1616 C 74.3102,230.3958 75.0763,229.1258 75.5839,227.6261 C 76.137,225.9919 76.2277,225.9641 77.4824,224.8068 C 78.044,224.2888 78.2538,223.567 78.2668,222.9764 C 78.2799,222.3859 78.1692,221.8691 78.1191,221.4076 C 77.2946,213.8209 76.2069,205.0503 74.0378,197.193 C 73.9868,197.0034 73.8749,196.8357 73.7195,196.7156 C 72.4365,195.7185 71.8619,193.8956 71.6618,192.0887 C 71.4618,190.2817 71.6382,188.711 71.6391,187.962 C 71.643,184.8567 71.0661,183.536 70.6273,181.9254 C 69.9235,179.3422 68.8275,176.4908 67.8307,173.9562 C 66.8339,171.4215 65.9299,169.1622 65.6594,168.0333 C 65.1589,165.9447 64.6467,164.2559 63.363,162.1331 C 62.6511,160.956 62.0391,159.8395 61.6008,158.6885 C 60.6092,156.0841 60.396,153.3511 62.192,149.7871 C 62.3832,149.4011 62.2735,148.9336 61.9305,148.673 C 59.6233,146.9322 57.7148,142.2558 57.9971,136.6567 C 58.0139,136.3986 57.9187,136.1458 57.7359,135.963 C 57.553,135.7801 57.3002,135.6849 57.0422,135.7017 C 56.5814,135.7308 56.2177,136.1043 56.2009,136.5657 C 55.9142,142.2519 57.5593,147.1351 60.339,149.6393 C 59.6894,151.0897 59.3226,152.4698 59.181,153.7796 C 55.3763,151.3023 53.2051,147.7705 52.2561,143.8073 C 51.2181,139.4728 51.688,134.6302 53.2224,130.3017 C 53.8418,128.5545 55.0097,126.9802 56.3259,125.5839 C 57.1968,124.66 58.0083,123.8402 58.9293,122.9351 C 59.2128,122.6686 59.2926,122.2499 59.1269,121.8978 C 58.9613,121.5457 58.5878,121.3403 58.2017,121.389 L 58.2017,121.389 C 58.0031,121.4154 57.8191,121.5074 57.6788,121.6504 C 56.7519,122.5614 55.9123,123.3966 55.0186,124.3447 C 54.4992,124.8957 53.9904,125.4825 53.5176,126.1082 C 52.7196,124.4362 51.9005,121.5882 52.0628,118.5014 C 52.4097,111.9068 54.7469,104.4141 56.9285,97.9133 C 58.783,92.3871 61.0485,86.1727 60.6239,79.8121 C 64.0703,79.2351 66.7435,78.3721 68.6379,76.9501 C 70.8457,75.2929 71.846,72.7854 71.5027,69.6744 C 71.4606,69.2009 71.057,68.8422 70.5818,68.8559 C 70.0535,68.8719 69.6509,69.3429 69.7178,69.8677 C 70.013,72.5424 69.3215,74.1825 67.5579,75.5064 C 65.7942,76.8302 62.8012,77.75 58.6223,78.303 C 54.7805,78.8113 48.8813,78.5566 44.6874,77.5819 C 45.3142,77.038 45.8035,76.5758 46.1626,76.2794 C 46.4679,76.0384 46.5834,75.6283 46.4489,75.2634 C 46.3143,74.8985 45.9601,74.6616 45.5715,74.6765 C 45.3666,74.6828 45.17,74.759 45.0144,74.8925 C 44.1137,75.6357 42.9627,76.8187 41.206,77.996 C 39.2498,79.3071 37.2479,79.9077 34.8966,79.8945 C 34.1869,79.8905 33.6604,79.7106 33.3846,79.4625 C 33.1662,79.266 33.0116,79.0164 33.0108,78.5204 C 33.2211,78.4911 33.4329,78.4553 33.6461,78.4167 C 35.5989,78.0629 37.7269,77.0968 38.8187,76.4272 C 39.1176,76.2716 39.3042,75.9618 39.3022,75.6248 C 39.3001,75.2878 39.1096,74.9804 38.8089,74.8284 C 38.5081,74.6765 38.1476,74.7056 37.8751,74.9038 C 37.0595,75.404 34.8998,76.3564 33.3164,76.6432 C 32.3151,76.8245 31.6047,76.8203 31.2246,76.6432 C 30.8446,76.4661 30.5321,76.1316 30.3152,74.9607 C 30.3422,75.1063 30.4569,74.6019 30.3379,73.9148 C 30.2765,73.56 30.0509,73.3615 29.9898,73.0328 C 29.8962,72.5293 29.9317,72.0665 30.1787,71.6639 C 31.0203,70.2924 33.3296,69.0485 36.3518,67.5826 C 39.143,66.2288 42.0454,64.4169 44.7302,62.6601 C 48.4384,60.2339 52.007,58.3262 55.0371,57.1012 C 55.0327,57.8365 55.2672,58.5865 55.7317,59.2537 C 55.2905,59.6793 54.5197,60.3569 53.8704,60.8867 C 53.5988,61.082 53.4583,61.4121 53.5056,61.7432 C 53.553,62.0743 53.7804,62.3518 54.0958,62.4632 C 54.4112,62.5746 54.7624,62.5016 55.0072,62.2736 C 55.5296,61.8474 56.0924,61.3678 56.5626,60.9375 C 56.6623,61.2911 56.8009,61.639 56.9853,61.9667 C 57.4831,62.8509 58.4104,63.5835 59.6569,63.5696 C 60.7923,63.557 61.6178,62.7596 62.067,61.9098 C 62.3234,61.4248 62.4887,60.9127 62.5676,60.4182 C 63.6458,60.9473 64.7608,61.5635 65.9435,61.8189 C 66.268,61.9177 66.6204,61.8254 66.8548,61.5802 C 67.0891,61.3351 67.1655,60.9789 67.0522,60.6592 C 66.9388,60.3396 66.6552,60.111 66.3187,60.0682 C 65.2913,59.8463 63.8098,58.9256 62.1806,58.272 C 61.2694,57.9064 60.2313,57.6024 59.1339,57.624 C 58.4659,57.6371 57.7721,57.7936 57.1267,58.1326 C 56.8003,57.6579 56.7581,57.2217 56.8716,56.76 C 57.0214,56.1506 57.551,55.4546 58.4632,54.8955 C 59.6387,54.1752 61.482,54.0271 63.2834,54.1907 C 65.0847,54.3544 66.7927,54.7914 67.7852,55.0092 C 68.0115,55.0577 68.2477,55.0169 68.4446,54.8955 C 68.9936,54.562 70.8517,53.6349 72.8669,53.5541 C 74.762,53.4781 76.782,54.0097 78.5103,56.5013 C 77.6838,57.262 77.129,58.0426 76.4365,58.5562 C 75.4772,59.2677 74.4905,59.5707 72.3326,59.2383 C 72.0072,59.1703 71.6708,59.2875 71.4582,59.543 C 71.2455,59.7986 71.1914,60.1506 71.3174,60.4582 C 71.4433,60.7659 71.7289,60.9788 72.0597,61.0117 C 74.503,61.3882 76.2096,60.9694 77.5165,60 C 78.6751,59.1406 79.3051,58.1298 80.1199,57.4875 C 80.9737,56.8144 81.8247,56.305 83.8032,56.021 C 86.0344,55.7008 88.7284,55.6576 90.9766,55.896 C 91.7333,55.9762 92.6455,56.075 93.3185,56.4644 C 93.1471,56.5985 92.9214,56.7684 92.5796,56.9305 C 91.3754,57.4999 90.4431,57.8019 89.4305,58.7494 C 88.2604,59.8445 87.1344,61.3833 85.8381,62.7966 C 83.9034,64.906 82.3356,65.8056 80.5632,66.2298 C 78.7909,66.654 76.7424,66.5704 74.0378,66.4913 C 73.5418,66.4756 73.127,66.8649 73.1113,67.361 C 73.0956,67.8569 73.485,68.2718 73.981,68.2875 C 76.6668,68.366 78.8545,68.4874 80.9725,67.9805 C 80.9953,67.9751 81.0181,67.9694 81.0409,67.9638 L 81.0409,67.9638 z M 137.0478,167.0108 C 138.3379,169.0927 139.8133,171.2904 141.4407,173.24 C 145.1175,177.6446 149.8012,181.5741 154.6764,184.6305 C 153.734,185.6771 153.2715,187.1977 153.1501,188.6668 C 153.0202,190.2392 153.3103,192.1626 154.7076,193.1346 C 154.6057,194.9759 154.0044,196.5259 153.1501,197.9206 C 152.3383,199.2463 151.0985,200.5423 150.0466,202.0132 C 146.2503,207.3212 140.3627,216.3924 136.3477,225.9436 C 136.3331,225.9782 136.3801,226.0027 136.1772,226.0459 C 135.31,226.2305 134.4412,226.4182 133.5738,226.6029 C 133.2536,226.6712 132.8243,226.7131 132.4256,227.1486 C 132.027,227.5842 132.0014,228.2045 132.1073,228.7515 C 132.2584,229.5321 132.428,230.6019 132.4484,231.3094 C 132.4607,231.7383 132.3303,232.0338 132.0277,232.3894 C 131.7252,232.745 131.2324,233.1092 130.6181,233.4694 C 128.4759,234.7256 125.2387,235.228 123.0013,235.3566 C 124.6314,233.2763 126.2784,231.1766 128.0943,228.9107 C 128.3335,228.6655 128.4124,228.3057 128.2979,227.9829 C 128.1833,227.66 127.8951,227.4305 127.5549,227.3909 C 127.2147,227.3514 126.8816,227.5087 126.696,227.7966 C 125.2581,229.5909 123.8915,231.313 122.5758,232.9845 L 121.3074,232.4008 C 124.3826,227.6771 127.5242,224.299 130.5612,222.2716 C 130.7654,222.1356 130.905,221.922 130.9478,221.6804 C 131.3163,219.6029 131.4423,218.8614 131.6867,218.2017 C 137.2078,214.3907 142.4955,207.4544 145.6015,197.9775 C 146.104,196.4443 145.7503,194.9212 144.9876,193.3051 C 140.5428,183.8867 133.8653,175.8822 131.732,167.3451 C 133.5262,166.8399 135.1833,166.7363 137.0478,167.0108 L 137.0478,167.0108 z M 61.5473,162.5951 C 60.3391,163.4418 59.1429,164.4529 58.1108,165.4981 C 57.1942,166.4264 56.2472,167.2281 55.0981,168.0674 C 52.0976,170.259 49.7247,172.4734 48.1976,174.8202 C 48.0978,174.9718 48.0462,175.1502 48.0498,175.3317 C 48.1205,178.2424 48.5699,178.4295 45.9012,182.6188 C 45.7582,182.8417 45.7207,183.1162 45.7988,183.3691 C 46.265,184.8474 46.8769,188.6745 47.0721,191.7704 C 47.3405,196.0272 48.1149,199.2373 48.6296,200.649 C 48.7073,200.8603 48.8614,201.0348 49.0616,201.1379 C 51.3701,202.3351 52.9372,203.1509 53.6999,203.7526 C 54.1216,204.0852 54.5385,204.4313 54.2342,204.969 C 53.8459,205.655 53.2639,206.5563 52.779,207.2654 C 52.6179,207.498 52.5757,207.7928 52.6651,208.0612 C 52.7546,208.3296 52.9653,208.5402 53.2337,208.6296 C 54.9056,209.1756 56.7666,209.5253 58.3609,209.6755 C 60.5122,209.8782 61.526,210.9682 62.192,212.7108 C 62.7082,214.0617 62.8528,215.8092 62.8855,217.5765 L 55.6438,213.5407 C 55.363,213.3765 55.0154,213.3769 54.735,213.5418 C 54.4545,213.7067 54.2852,214.0103 54.2921,214.3355 C 54.2991,214.6607 54.4813,214.9568 54.7685,215.1095 L 59.6826,217.8454 L 60.464,220.555 L 51.9946,215.4051 C 50.9722,214.7833 50.7598,214.2154 50.6645,213.6999 C 50.4531,212.5562 50.4107,211.4301 50.1984,210.1416 C 50.1584,209.9079 50.0277,209.6995 49.8346,209.5618 C 48.4331,208.5333 47.1351,207.5064 45.9125,206.481 C 44.2876,198.347 42.4972,189.1382 41.5016,184.5742 C 41.0141,182.3392 40.2042,180.1798 39.478,178.333 C 39.0376,177.2127 38.7563,176.4203 39.0915,175.4113 C 39.3199,174.724 39.6316,173.9183 40.0237,173.2286 C 40.3364,172.6787 40.5087,172.4396 41.1492,172.16 C 41.7156,171.9127 42.3452,171.6681 43.0364,171.4324 C 43.3621,171.3218 43.5961,171.0348 43.6389,170.6935 C 43.7485,169.8094 44.5337,168.2962 45.6056,166.4985 C 47.2516,163.7381 49.5561,160.4471 51.9946,158.0178 C 52.9091,157.1067 53.522,156.4041 54.0523,155.0279 C 54.3849,154.1646 54.6345,153.309 54.8513,152.4683 C 56.0434,153.7548 57.4676,154.9032 59.1411,155.8653 C 59.228,157.0879 59.5056,158.2413 59.9183,159.3251 C 60.3531,160.4669 60.9223,161.5358 61.5473,162.5951 L 61.5473,162.5951 z M 60.6109,59.9831 C 60.6109,59.8602 60.6017,59.7404 60.5842,59.6251 C 60.8335,59.6936 61.0838,59.7761 61.33,59.869 C 61.2991,60.3031 61.1681,60.8687 60.9301,61.3189 C 60.613,61.9188 60.2054,62.279 59.6455,62.2852 C 58.8625,62.2939 58.4364,61.9402 58.0994,61.3416 C 57.8679,60.9303 57.7265,60.4017 57.6699,59.8906 C 57.9174,59.7077 58.1731,59.5881 58.4444,59.5152 C 58.4144,59.6636 58.3981,59.8205 58.3981,59.9831 C 58.3981,60.8848 58.8951,61.6203 59.5045,61.6203 C 60.1139,61.6203 60.6109,60.8848 60.6109,59.9831 L 60.6109,59.9831 z M 34.7261,69.8451 C 33.3686,70.2833 32.3072,71.1951 31.4065,72.278 C 31.0895,72.661 31.1429,73.2285 31.5259,73.5455 C 31.9089,73.8626 32.4764,73.8091 32.7935,73.4261 C 33.2069,72.929 33.6308,72.5098 34.1008,72.1529 C 34.3493,71.9643 34.8297,71.6967 35.2831,71.5504 C 35.3036,71.5438 35.3084,71.5564 35.3286,71.5504 C 34.969,71.7514 34.7922,72.1713 34.8997,72.569 C 35.0072,72.9667 35.3714,73.2404 35.7834,73.2329 C 36.5547,73.2216 37.5456,73.062 37.9661,72.3348 C 38.5256,71.3673 37.9215,70.1029 36.8747,69.7428 C 36.159,69.4967 35.4271,69.6189 34.7261,69.8451 L 34.7261,69.8451 z M 78.8466,75.6202 C 78.5452,75.6329 78.2702,75.7961 78.1146,76.0546 C 77.959,76.3132 77.9436,76.6326 78.0736,76.9049 C 82.7269,87.1189 81.3454,94.5431 80.7338,96.7085 C 80.6334,97.0212 80.7118,97.3638 80.938,97.6019 C 81.1642,97.8399 81.5024,97.9356 81.8198,97.8513 C 82.1372,97.767 82.3834,97.5163 82.4618,97.1974 C 83.1742,94.6753 84.5559,86.8012 79.7106,76.1659 C 79.5642,75.822 79.2201,75.6047 78.8466,75.6202 z M 84.3839,66.4655 C 86.2545,65.2067 87.6642,63.4768 89.1019,61.7711 C 90.0116,62.1777 90.863,62.6289 91.8065,62.99 C 93.0232,63.4556 94.4117,63.7385 96.081,63.4789 C 99.1579,63.0004 101.4342,61.5408 103.6751,61.5008 C 105.9678,61.4598 108.4726,61.8772 110.462,62.5239 C 106.2172,63.1285 101.918,64.6566 98.3774,66.5711 C 97.5711,67.007 96.6664,67.6404 96.7745,68.6969 C 96.9688,70.5968 98.5794,71.3437 100.2191,71.6982 C 101.6552,72.0086 103.1866,72.0234 104.4368,71.9824 C 108.3424,71.8543 111.7623,70.577 115.2594,68.9925 C 117.7734,67.8536 121.485,66.6518 126.7983,67.5601 C 122.9262,68.7278 117.5761,70.6411 114.5205,73.0169 C 113.9259,73.4792 113.3986,74.1567 113.5542,74.9609 C 113.7684,76.0681 114.9472,76.6509 115.8961,76.9958 C 116.4991,77.2151 117.2146,77.4215 117.9878,77.587 C 119.5343,77.9179 121.2951,78.119 122.8194,77.9735 C 125.1127,77.7545 126.739,76.7788 127.685,76.1205 C 132.4236,72.8232 137.7473,69.2022 142.7481,67.8329 C 141.1638,69.0532 139.6111,70.3336 138.2235,71.5959 C 135.9431,73.6702 134.1482,75.5154 133.3692,76.8253 C 132.9186,77.583 132.9978,78.5789 133.4829,79.1558 C 133.9679,79.7327 134.6365,79.9881 135.3132,80.1335 C 137.3226,80.5652 139.9748,80.6219 141.9864,80.4177 C 145.4162,80.0695 147.5866,77.8075 149.4668,75.3588 C 151.1477,73.1695 152.7655,70.2855 154.2074,67.526 C 154.1735,68.144 154.1647,68.7358 154.071,69.3904 C 153.7532,71.6093 153.029,73.8676 151.8541,75.0859 C 151.5684,75.4051 151.5477,75.8816 151.8048,76.2243 C 152.0618,76.567 152.525,76.6805 152.9114,76.4956 C 156.274,74.7212 159.2868,72.5263 162.0629,70.0498 C 159.9093,73.6125 157.4156,76.4864 154.6849,78.7124 C 150.1531,82.4068 145.1958,84.1601 139.3262,84.0896 C 131.0935,83.9908 122.7545,82.8622 114.7592,80.2131 C 113.1164,79.6688 112.0612,79.0518 110.8258,78.4623 C 109.5904,77.8729 108.1825,77.3424 106.0738,77.0981 C 98.6091,76.2334 89.3632,71.5423 84.3839,66.4655 L 84.3839,66.4655 z M 95.2959,56.6996 C 95.3905,56.1807 95.1755,55.6613 94.8078,55.2937 C 93.952,54.4379 92.3074,54.2332 91.1585,54.1114 C 88.7909,53.8603 85.9055,53.8988 83.5531,54.2364 C 81.957,54.4655 80.8304,54.9054 79.9528,55.4252 C 79.7908,55.1977 79.6246,54.9829 79.4546,54.78 C 86.3796,50.0088 88.6375,46.5897 91.9543,44.13 C 94.5431,42.2102 96.4519,40.8199 99.1391,40.4807 C 100.1883,40.3483 101.2771,40.2901 102.3677,40.2988 C 100.8167,41.1302 99.2648,42.0048 97.8318,42.9135 C 95.4984,44.3932 93.5367,45.8319 92.4545,47.1425 C 92.0798,47.5965 91.6919,48.1699 91.4996,48.8705 C 91.3073,49.5712 91.3733,50.4986 91.9657,51.1897 C 92.7601,52.1165 93.9173,52.5539 95.0465,52.5539 C 97.5475,52.5539 100.6191,51.1111 103.8229,49.4049 C 107.0267,47.6986 110.3004,45.6739 112.747,44.3573 C 115.1067,43.0876 117.77,41.6365 120.1478,41.1514 C 121.4636,40.883 123.2186,40.8587 125.0135,40.89 C 121.2273,42.7162 117.2163,44.5116 114.3955,47.3699 C 113.7976,47.9757 113.1827,48.664 113.0653,49.6322 C 112.9028,50.9732 114.0862,51.6054 115.2253,51.7354 C 119.2718,52.1973 123.7939,51.5469 128.117,48.791 C 132.317,46.1136 134.5768,44.6369 136.7797,44.13 C 138.3956,43.7581 140.125,43.874 142.7481,44.4483 C 139.8393,45.3852 137.378,46.5264 134.5856,48.484 C 133.8017,49.0335 132.2654,50.6291 132.0959,51.6785 C 131.8626,53.1239 133.2566,53.9301 134.4719,54.1909 C 135.6498,54.4438 136.9019,54.4302 137.9961,54.4183 C 140.612,54.3899 143.204,53.8739 145.522,53.0882 C 148.8743,51.9518 152.7605,50.2876 156.3446,48.3817 C 155.3596,49.5424 154.369,50.6925 153.3547,51.7695 C 152.8523,52.3029 152.2964,53.0374 152.6044,53.8158 C 152.87,54.4868 153.5607,54.671 154.2074,54.6911 C 156.9958,54.778 159.8283,53.7721 162.4267,52.8608 C 162.8288,52.7198 163.1716,52.5727 163.5522,52.4288 C 162.4189,53.6317 161.1076,54.6583 159.6983,55.4756 C 155.4884,57.917 148.5311,57.321 143.0095,57.4309 C 140.9576,57.4717 139.2589,57.7995 137.7688,58.1357 C 134.4554,58.8833 130.7858,57.8413 127.901,55.9416 C 126.4912,55.0133 125.5555,55.0559 123.9789,55.2823 C 117.0648,56.2754 114.4932,55.3708 110.2346,53.6111 C 108.7455,52.9958 107.561,52.7492 106.3921,52.8949 C 105.2233,53.0407 104.1656,53.5277 102.777,54.1909 C 100.91,55.0827 97.8675,56.1666 95.2959,56.6996 L 95.2959,56.6996 z M 85.3038,58.0107 C 84.2643,57.83 83.0993,58.1 82.2457,58.5336 C 80.7415,59.298 78.9489,60.6193 77.6416,61.5235 C 77.1388,61.8713 76.7398,62.2095 76.5275,62.7172 C 76.3152,63.2249 76.4379,63.8338 76.7094,64.2633 C 76.9238,64.6024 77.2275,64.888 77.5961,65.0363 C 77.9648,65.1847 78.3624,65.1811 78.7102,65.0932 C 79.406,64.9173 79.9856,64.4787 80.6201,63.9336 C 80.8323,63.7557 80.9326,63.4777 80.883,63.2053 C 80.8333,62.933 80.6413,62.7083 80.38,62.6167 C 80.1188,62.5252 79.8285,62.5809 79.6197,62.7626 C 79.0577,63.2454 78.5684,63.5449 78.335,63.6039 C 78.1947,63.6394 78.0885,63.5584 78.0167,63.4447 C 77.8431,63.1699 78.3548,62.8975 78.5169,62.7854 C 79.8561,61.8591 81.6444,60.5558 82.9392,59.8978 C 83.4014,59.663 84.587,59.4455 85.031,59.5227 C 85.3101,59.5935 85.6055,59.5026 85.7966,59.2872 C 85.9876,59.0717 86.0425,58.7676 85.9388,58.4989 C 85.8351,58.2303 85.5901,58.0419 85.3038,58.0107 L 85.3038,58.0107 L 85.3038,58.0107 z M 76.0776,52.3029 C 74.9618,51.8657 73.831,51.7163 72.7873,51.7581 C 70.5293,51.8486 68.7904,52.6713 67.8876,53.1791 C 67.562,53.1054 67.1621,53.0132 66.7051,52.9167 C 67.0413,52.0117 67.9749,50.6671 69.5359,49.348 C 71.0544,48.0649 73.1469,46.7852 75.709,45.7215 C 75.5856,46.2681 75.5043,46.8107 75.5271,47.3017 C 75.5817,48.4814 75.9185,49.417 76.141,49.8937 C 76.5671,50.8069 76.5671,51.4719 76.0776,52.3029 L 76.0776,52.3029 z "
   style="fill:#f8c300" />
 </g>
</svg>