<svg xmlns="http://www.w3.org/2000/svg" style="shape-rendering:geometricPrecision;text-rendering:geometricPrecision;image-rendering:optimizeQuality;fill-rule:evenodd;clip-rule:evenodd" viewBox="-6.50 -7.83 216.00 252.03"><title>Herb Międzyświeć</title><defs><style>.str0{stroke:#605d5c;stroke-width:.7}.fil3{fill:#fff}.fil4{fill:#fbf101}.fil2{fill:#fff101}</style></defs><g id="Warstwa_x0020_1"><g id="_46810152"><path id="_44282632" d="M1.5 1.502h195.653l4.347 5.072v142.394c-3.553 64.696-68.258 85.108-101.45 85.867-32.14.733-83.163-17.1-98.549-85.867V1.5m-.001 0" style="fill:#222"/><path id="_45809136" d="m3.607 3.242-.024.224.133 143.419c9.556 59.593 65.705 95.157 122.929 77.836 27.963-8.465 56.55-26.61 69.393-71.256l.118-150.223z" style="fill:#3284bb"/><circle id="_45537408" cx="91.833" cy="57.369" r="13.362" class="fil2 str0"/><path id="_45542208" d="M91.477 70.908c1.429 7.254-1.275 11.657-3.372 13.526-1.12.998-3.06.541-4.774.266-2.005-.322-2.954-2.364-4.937-3.402-1.75-.917-3.715-.638-5.058-1.66-1.777-1.355-3.227-3.862-3.436-5.291-.185-3.696 5.22-7.542 10.288-10.18 2.454 4.861 6.25 7.028 11.289 6.741z" class="fil2 str0"/><path id="_45542680" d="M80.067 63.692c-5.17 4.983-10.188 5.093-12.818 4.363-1.404-.39-2.051-2.213-2.729-3.758-.792-1.806.376-3.655.18-5.821-.173-1.911-1.434-3.368-1.305-5.003.17-2.164 1.454-4.666 2.511-5.589 2.92-2.096 8.904.294 13.725 3.043-2.678 4.562-2.45 8.801.436 12.765z" class="fil2 str0"/><path id="_45544032" d="M80.189 50.634c-6.905-1.973-9.517-6.258-10.205-8.899-.368-1.41.885-2.885 1.882-4.246 1.165-1.591 3.35-1.508 5.126-2.764 1.566-1.109 2.194-2.93 3.672-3.64 1.958-.938 4.767-1.082 6.096-.63 3.278 1.475 4.212 7.85 4.252 13.398-5.29-.028-8.842 2.297-10.823 6.781z" class="fil2 str0"/><path id="_45546352" d="M91.828 43.902c-1.755-6.964.644-11.373 2.583-13.292 1.036-1.025 2.94-.68 4.618-.5 1.96.21 2.985 2.142 4.962 3.049 1.744.8 3.635.43 4.99 1.353 1.793 1.223 3.326 3.581 3.602 4.957.367 3.576-4.68 7.58-9.462 10.398-2.627-4.591-6.42-6.5-11.293-5.965z" class="fil2 str0"/><path id="_44648400" d="M103.198 50.14c5.071-5.278 10.177-5.585 12.883-4.946 1.445.342 2.176 2.173 2.926 3.72.877 1.81-.24 3.738.044 5.936.251 1.94 1.593 3.374 1.526 5.044-.089 2.21-1.299 4.809-2.34 5.79-2.892 2.248-9.078.05-14.095-2.562 2.548-4.75 2.15-9.059-.944-12.982z" class="fil2 str0"/><path id="_23237784" d="M103.572 63.738c7.34 1.961 10.182 6.447 10.958 9.227.414 1.485-.884 3.068-1.913 4.526-1.204 1.705-3.517 1.657-5.372 3.018-1.637 1.201-2.268 3.14-3.819 3.917-2.053 1.028-5.022 1.232-6.436.779-3.494-1.5-4.6-8.226-4.743-14.096 5.596-.067 9.311-2.59 11.325-7.37z" class="fil2 str0"/><path id="_46934168" d="M189.643 55.216c2.737 2.805 3.43 6.325 1.135 10.89-9.827 1.214-18.278 6.555-25.588 15.317l-23.267 44.335-12.522-.885 25.901-48.15c7.76-15.335 19.537-21.772 34.341-21.507z" class="fil2 str0"/><path id="_46972472" d="M193.797 72.67q1.65 5.07.096 10.703c-9.135 2.409-12.396 3.645-19.927 13.853l-15.436 29.806-12.52-.886 18.824-34.94c9.912-13.181 15.78-17.178 28.963-18.535z" class="fil2 str0"/><path id="_46931936" d="M163.08 81.384c3.358.117 6.112 1.837 8.415 4.961.22 3.032-1.037 4.737-3.189 5.41-4.176-.636-7.084-2.25-8.415-4.96-.162-2.544.846-4.426 3.189-5.41z" class="fil2 str0"/><path id="_46924248" d="M106.914 106.147c4.58-2.597 11.948-1.707 11.638 1.898l-14.266 26.302c.03 4.12-.623 10.518-3.889 16.59-5.855 10.884-22.476 19.106-26.02 19.3z" class="fil3 str0"/><path id="_44564744" d="m4.055 115.485.01 11.277 191.628 14.368.013-11.197z" class="fil2 str0"/><path id="_44562176" d="M42.597 109.491c16.785 0 30.398 13.613 30.398 30.398 0 16.786-13.613 30.398-30.399 30.398-16.785 0-30.398-13.612-30.398-30.398 0-16.785 13.613-30.398 30.398-30.398zm0 7.929c12.407 0 22.469 10.062 22.469 22.47s-10.062 22.469-22.47 22.469-22.469-10.062-22.469-22.47 10.062-22.47 22.47-22.47z" class="fil2 str0"/><path id="_44180184" d="m34.448 160.787 6.375-10.708.98-6.164-2.02-1.31L35.087 146l-7.434 10.602c2.608 2.27 4.814 3.549 6.795 4.185z" class="fil2 str0"/><path id="_44568656" d="M23.294 163.111c1.944 1.795 4.186 3.179 6.632 4.22l4.347-6.476a31 31 0 0 1-6.56-4.29z" class="fil4 str0"/><path id="_45546216" d="M50.275 118.627 43.9 129.335l-.98 6.164 2.02 1.31 4.697-3.395 7.433-10.602c-2.608-2.27-4.814-3.549-6.795-4.185z" class="fil2 str0"/><path id="_46870064" d="M61.429 116.304c-1.944-1.795-4.185-3.179-6.632-4.22l-4.347 6.475a31 31 0 0 1 6.56 4.292z" class="fil4 str0"/><path id="_44540272" d="m56.299 157.633-6.086-10.875-4.848-3.93-2.144 1.094.59 5.765 5.466 11.738c3.27-1.123 5.48-2.395 7.022-3.792z" class="fil2 str0"/><path id="_46923320" d="M52.735 168.454c2.526-.785 4.845-2.035 6.97-3.633l-3.434-7.003a31 31 0 0 1-6.997 3.536z" class="fil4 str0"/><path id="_46868256" d="m64.852 136.833-12.46-.167-5.829 2.233-.124 2.405 5.288 2.37 12.898 1.137c.663-3.395.667-5.944.227-7.978z" class="fil2 str0"/><path id="_45283512" d="M72.442 145.331c.583-2.58.66-5.214.34-7.853l-7.783-.527a31 31 0 0 1-.436 7.827z" class="fil4 str0"/><path id="_46974328" d="m27.976 122.521 6.086 10.875 4.847 3.93 2.145-1.094-.591-5.765-5.465-11.738c-3.271 1.123-5.48 2.395-7.022 3.792z" class="fil2 str0"/><path id="_46870144" d="M31.54 111.699c-2.527.785-4.846 2.035-6.971 3.633l3.435 7.003A31 31 0 0 1 35 118.799z" class="fil4 str0"/><path id="_46789912" d="m20.224 143.321 12.46.167 5.829-2.233.124-2.405-5.288-2.37-12.898-1.137c-.663 3.395-.667 5.944-.227 7.978z" class="fil2 str0"/><path id="_46810704" d="M12.634 134.823c-.583 2.58-.66 5.214-.34 7.853l7.783.527a31 31 0 0 1 .436-7.827z" class="fil4 str0"/><path id="_46810400" d="m124.426 135.912 33.327 2.5c-1.88 12.252-12.666 24.63-25.032 34.536l-26.974.037z" class="fil3 str0"/><path id="_46810224" d="M94.55 189.5c10.25-.214 22.134-2.063 34.157-4.05 15.688-3.18 30.86-5.401 44.786-5.31 2.188-1.453 3.917-3.416 4.975-6.126-14.657-3.8-29.588-3.341-44.747 1.163-7.444-.599-16.87-.731-26.463-.824-8.727-3.689-19.874-3.86-30.868-3.017-2.02.24-3.814.109-5.457-.279Q63.19 169 55.632 170.71c-6.561 1.85-13.397 1.911-20.461.49-8.639-3.257-16.797-3.722-24.178-.185a89 89 0 0 0 3.049 6.51c13.74-2.841 27.144-3.343 40.884-1.152-2.938.639-5.723 1.788-8.284 3.683-5.39 4.292-16.087 4.604-29.026 3.864 1.292 2.17 3.352 5.16 5.068 7.44 10.636 3.16 22.509-1.407 35.66-11.33 6.701-3.626 13.403-4.5 20.104-3.093-7.813 1.525-14.867 4.664-20.667 10.467q-4.539 4.782 3.377 3.904c26.803-15.153 45.174-14.11 72.448-12.61-11.57 2.523-24.698 3.661-38.533 4.17q-11.584 3.694-.522 6.632z" class="str0" style="fill:#000"/></g></g></svg>