<!-- Created with Inkscape (http://www.inkscape.org/) -->
<svg
   xmlns="http://www.w3.org/2000/svg"
   version="1.0"
   id="svg12144"><title>Herb Ostrów Wielkopolski</title>
  <metadata
     id="metadata1318">
    <rdf:RDF>
      <cc:Work
         rdf:about="">
        <dc:format>image/svg+xml</dc:format>
        <dc:type
           rdf:resource="http://purl.org/dc/dcmitype/StillImage" />
      </cc:Work>
    </rdf:RDF>
  </metadata>
  <sodipodi:namedview
     borderopacity="1.0"
     bordercolor="#666666"
     pagecolor="#ffffff"
     id="base" />
  <defs
     id="defs3" />
  <g
     style="fill:#dc2b19;fill-opacity:1"
     id="layer1">
    <path
       d="M 0.70625544,0.65098742 L 2.2915353,575.59957 C 12.400448,757.98882 176.45932,886.41243 376.13019,886.41243 C 582.31076,886.41243 749.69827,731.77588 749.69833,541.0527 L 748.95601,0.65098742 L 0.70625544,0.65098742 z "
       style="fill:#dc2b19;fill-opacity:1;stroke:#000000;stroke-opacity:1"
       id="path6847" />
  </g>
  <path
     style="fill:#fdf80a;fill-opacity:1"
     d="M 412.59375 278.09375 C 407.78709 277.2278 402.98662 276.37507 398.0625 275.875 C 394.84316 275.54806 391.57698 275.32173 388.3125 275.15625 C 385.04802 274.99077 381.77435 274.90625 378.46875 274.90625 C 375.16315 274.90625 371.88948 274.99077 368.625 275.15625 C 365.36052 275.32173 362.09434 275.54806 358.875 275.875 C 354.17293 276.35252 349.59525 277.18856 345 278 C 344.94363 333.16146 344.67673 411.69251 343.09375 441.96875 C 336.60558 442.5771 330.21841 443.39459 323.9375 444.3125 C 323.73685 444.34759 323.54435 444.33959 323.34375 444.375 C 323.11553 444.40873 322.88418 444.4971 322.65625 444.53125 C 322.48021 444.56263 322.30102 444.56213 322.125 444.59375 C 287.67182 450.78651 253.88746 461.65898 222.75 477.625 C 222.67426 477.66504 222.54436 477.74114 222.46875 477.78125 C 211.15998 484.42226 201.17531 491.80875 192.84375 499.75 C 192.10956 503.24638 191.87219 506.26097 191.875 509.09375 C 192.97216 513.90969 194.1099 518.70475 195.5625 523.375 C 196.81167 527.3912 198.3734 531.25821 199.875 535.15625 C 200.90477 537.43523 201.92292 539.56279 202.96875 542.25 C 203.20151 543.27773 203.95915 544.84864 204.5 546.1875 C 205.57881 548.53603 206.70513 550.86003 207.875 553.15625 C 212.25306 561.00831 218.22336 569.31689 221.3125 570.25 C 221.31625 570.25084 221.3891 570.25027 221.40625 570.25 C 256.24662 540.0751 313.30826 520.40625 377.71875 520.40625 C 443.45107 520.40628 501.53695 540.83265 536.15625 572.0625 C 537.6206 571.1503 539.00237 569.90778 540.34375 568.4375 C 542.57794 564.90008 544.8711 561.4076 546.875 557.71875 C 549.74593 552.43385 552.34565 546.97681 554.71875 541.40625 C 554.86982 541.03125 555.03865 540.65238 555.1875 540.28125 C 557.49553 534.76569 559.58246 529.13819 561.375 523.375 C 563.24038 517.37762 564.81807 511.26532 566.09375 505.03125 C 566.18805 504.57041 566.22151 504.08704 566.3125 503.625 C 566.29737 502.76249 566.35708 501.85182 566.28125 501.03125 C 566.28135 501.0249 566.28096 500.97522 566.28125 500.96875 C 566.25632 500.94429 566.24374 500.89946 566.21875 500.875 C 556.70949 491.57609 544.95023 483.02798 531.4375 475.5 C 531.27052 475.41769 531.10494 475.30049 530.9375 475.21875 C 530.93055 475.22014 530.85022 475.21841 530.84375 475.21875 C 523.75917 472.03989 516.29848 469.32626 509.65625 466.1875 C 485.56442 457.06089 460.74598 449.30694 435.40625 444.53125 C 435.38096 444.53171 435.30655 444.53079 435.28125 444.53125 C 435.27488 444.53183 435.19382 444.5311 435.1875 444.53125 C 434.76031 444.46724 434.33448 444.37507 433.90625 444.3125 C 427.07072 443.31355 420.08058 442.50159 413 441.875 L 412.59375 278.09375 z "
     id="path1338" />
  <path
     id="path3565"
     style="fill:#fdf80a;fill-opacity:1"
     d="M 633.80036,233.94817 L 634.1033,234.17537 C 634.10987,234.16841 634.17293,234.10659 634.17904,234.09963 C 634.18594,234.09971 634.24622,234.09913 634.25477,234.09963 C 634.27183,234.09946 634.32663,234.0992 634.3305,234.09963 C 634.33009,234.13553 634.33603,234.27357 634.3305,234.40257 L 652.80976,250.30685 L 630.61951,273.17872 L 675.00002,311.50045 L 643.4944,344.44503 L 624.10633,363.8331 L 599.87124,387.91672 L 557.23262,347.09574 L 556.77822,346.94427 L 245.58451,659.95561 L 257.24765,667.75628 C 281.50736,684.05665 296.95229,702.13554 296.93261,714.25735 C 296.91233,726.74293 275.02089,751.46047 261.79173,753.94231 C 244.37555,757.20962 231.87155,750.43814 218.47151,730.54031 L 210.51937,718.7257 L 206.58117,727.05651 C 201.15129,738.44305 185.78024,755.03079 176.96892,759.01654 C 162.20478,765.69498 144.48282,757.68179 130.92224,738.11377 C 123.18798,726.95325 122.33944,714.34528 128.65021,704.63905 C 134.68469,695.35777 146.29454,685.45221 156.89923,680.4797 C 161.61172,678.27002 161.63462,677.94384 165.23004,674.87533 C 160.17654,671.17599 138.83447,654.32822 134.55751,645.9447 C 128.48972,634.05086 128.46747,627.40795 134.48177,617.5442 C 145.40266,599.63316 159.39467,589.96547 172.87924,590.35546 C 173.20288,590.36481 173.54081,590.41025 173.86379,590.43119 C 177.63456,590.67563 181.40575,591.7499 184.99679,593.61205 C 192.97239,597.74786 208.86603,614.43084 218.09283,628.37425 C 221.43148,633.41961 223.71823,636.08981 226.12071,638.67417 L 633.80036,233.94817 z M 173.63659,612.0913 C 173.59195,612.08234 173.52942,612.09942 173.48512,612.0913 C 173.45943,612.09169 173.35924,612.09072 173.33365,612.0913 C 173.30796,612.09162 173.20778,612.09077 173.18218,612.0913 C 173.15647,612.09157 173.05633,612.09082 173.03071,612.0913 C 172.94259,612.07991 172.40807,612.08784 172.19763,612.0913 C 166.38344,612.18672 158.24658,618.56605 154.17278,626.17795 C 148.36986,637.02083 156.52768,648.90988 178.10494,661.01589 C 193.9694,669.91666 200.20792,674.93641 198.70476,677.60178 C 198.69601,677.61017 198.63601,677.67066 198.62903,677.67752 C 197.61847,678.89562 189.11811,683.56313 179.46816,688.20463 C 159.50959,697.8043 144.25157,710.70578 144.25154,717.89262 C 144.25154,717.91283 144.25113,717.94775 144.25154,717.96835 C 144.35748,720.61005 147.80831,726.20123 151.97648,730.46457 C 162.05391,740.77202 166.16903,742.73097 172.57631,740.31008 C 178.0633,738.23686 190.42567,720.45824 201.12827,699.33763 C 204.01004,693.65072 210.33179,687.52021 210.74657,687.14435 C 211.20362,687.57617 218.00833,694.61135 221.12222,701.00379 C 236.14592,731.84556 253.70157,741.08308 268.07771,725.69329 C 271.94483,721.55355 275.12105,716.69519 275.12103,714.93897 C 275.12103,704.47867 239.51721,677.45031 225.74203,677.45031 C 221.09886,677.45031 215.56761,675.75815 213.47302,673.66358 C 209.22774,669.41829 209.39219,669.8958 208.626,657.91077 C 207.71307,643.63063 185.02148,614.37524 173.63659,612.0913 z " />
  <path
     id="path2664"
     style="fill:#fdf80a;fill-opacity:1"
     d="M 122.03088,233.0067 L 121.72794,233.23391 C 121.72137,233.22695 121.65831,233.16513 121.6522,233.15817 C 121.64529,233.15825 121.58502,233.15766 121.57647,233.15817 C 121.55941,233.158 121.50461,233.15774 121.50073,233.15817 C 121.50114,233.19407 121.49521,233.33211 121.50073,233.46111 L 103.02148,249.36539 L 125.21173,272.23726 L 80.831222,310.55899 L 112.33684,343.50357 L 140.35866,317.90525 L 140.51013,317.98099 L 158.38351,335.85437 L 131.72491,362.89164 L 155.96,386.97526 L 198.59861,346.15428 L 199.05302,346.00281 L 510.24672,659.01415 L 498.58359,666.81482 C 474.32387,683.11519 458.87895,701.19408 458.89863,713.31589 C 458.91891,725.80147 480.81035,750.51901 494.03951,753.00085 C 511.45569,756.26816 523.95969,749.49668 537.35973,729.59885 L 545.31187,717.78424 L 549.25007,726.11505 C 554.67994,737.50159 570.051,754.08932 578.86232,758.07508 C 593.62646,764.75352 611.34842,756.74033 624.90899,737.17231 C 632.64326,726.01179 633.4918,713.40382 627.18103,703.69759 C 621.14654,694.4163 609.5367,684.51075 598.93201,679.53824 C 594.21952,677.32855 594.19661,677.00237 590.60119,673.93387 C 595.65469,670.23453 616.99677,653.38676 621.27373,645.00323 C 627.34152,633.1094 627.36376,626.46649 621.34946,616.60274 C 610.42857,598.6917 596.43657,589.02401 582.95199,589.414 C 582.62836,589.42335 582.29042,589.46879 581.96744,589.48973 C 578.19668,589.73417 574.42548,590.80844 570.83445,592.67059 C 562.85885,596.8064 546.96521,613.48938 537.7384,627.43279 C 534.39975,632.47815 532.113,635.14835 529.71053,637.73271 L 122.03088,233.0067 z M 582.19465,611.14984 C 582.23929,611.14088 582.30181,611.15796 582.34612,611.14984 C 582.3718,611.15023 582.47199,611.14926 582.49759,611.14984 C 582.52327,611.15016 582.62346,611.14931 582.64905,611.14984 C 582.67477,611.15011 582.77491,611.14936 582.80052,611.14984 C 582.88864,611.13845 583.42317,611.14638 583.6336,611.14984 C 589.4478,611.24526 597.58466,617.62459 601.65845,625.23649 C 607.46138,636.07937 599.30355,647.96842 577.7263,660.07443 C 561.86184,668.9752 555.62332,673.99495 557.12648,676.66032 C 557.13522,676.66871 557.19523,676.7292 557.20221,676.73606 C 558.21276,677.95416 566.71313,682.62167 576.36308,687.26317 C 596.32164,696.86284 611.57967,709.76431 611.57969,716.95116 C 611.57969,716.97137 611.5801,717.00629 611.57969,717.02689 C 611.47376,719.66859 608.02293,725.25977 603.85476,729.52311 C 593.77732,739.83056 589.6622,741.78951 583.25493,739.36862 C 577.76794,737.2954 565.40557,719.51678 554.70297,698.39617 C 551.8212,692.70926 545.49945,686.57875 545.08466,686.20289 C 544.62762,686.63471 537.82291,693.66989 534.70902,700.06233 C 519.68532,730.9041 502.12966,740.14162 487.75353,724.75183 C 483.88641,720.61209 480.71018,715.75373 480.71021,713.99751 C 480.71021,703.53721 516.31403,676.50885 530.0892,676.50885 C 534.73238,676.50885 540.26363,674.81668 542.35822,672.72212 C 546.6035,668.47683 546.43904,668.95434 547.20524,656.96931 C 548.11817,642.68917 570.80975,613.43378 582.19465,611.14984 z " />
  <path
     style="fill:#fdf80a;fill-opacity:1"
     d="M 335.75 58.5 C 326.42712 58.664532 319.97749 59.027046 318.625 59.34375 C 318.62104 59.344841 318.56773 59.341447 318.5625 59.34375 C 318.54821 59.351773 318.51372 59.430424 318.5 59.4375 C 318.49537 59.439149 318.41328 59.437573 318.40625 59.4375 C 318.40633 59.458368 318.4055 59.521058 318.40625 59.5625 C 318.65203 60.882295 321.37701 66.970923 324.625 73.4375 C 334.59841 93.294085 340.11372 111.84499 342.65625 134.03125 C 344.54061 150.47437 345.89511 157.8664 343.78125 160.90625 C 343.77347 160.91348 343.72554 160.96211 343.71875 160.96875 C 343.66422 161.03823 343.53283 161.20151 343.46875 161.28125 C 343.46093 161.28979 343.42142 161.36007 343.40625 161.375 C 343.38813 161.39291 343.33099 161.42001 343.3125 161.4375 C 343.30321 161.44591 343.26425 161.48524 343.25 161.5 C 343.17272 161.56433 343.02084 161.69157 342.9375 161.75 C 342.83718 161.81733 342.67159 161.9092 342.5625 161.96875 C 339.85719 163.3845 334.48733 162.5428 325.0625 161.8125 C 294.55189 159.44832 269.94004 154.73422 253.5 148.09375 C 246.01405 145.07002 239.24074 143.03149 237.59375 143.25 C 237.58704 143.2499 237.5391 143.25029 237.53125 143.25 C 237.52448 143.24988 237.44555 143.25038 237.4375 143.25 C 237.42412 143.26354 237.38762 143.32986 237.375 143.34375 C 237.35432 143.36382 237.32089 143.39786 237.3125 143.40625 C 237.29873 143.41924 237.23254 143.48631 237.21875 143.5 C 237.2064 143.5342 237.16839 143.58075 237.15625 143.625 C 235.63199 149.85411 235.68166 235.51652 237.21875 241.125 C 237.21854 241.13169 237.21952 241.18035 237.21875 241.1875 C 237.23255 241.20119 237.29871 241.23701 237.3125 241.25 C 237.3209 241.25839 237.3543 241.32368 237.375 241.34375 C 237.38132 241.35068 237.42182 241.39074 237.4375 241.40625 C 237.44555 241.40589 237.52446 241.40637 237.53125 241.40625 C 237.5391 241.40596 237.58701 241.40635 237.59375 241.40625 C 239.25235 241.61698 246.08508 239.58088 253.65625 236.5 C 273.66605 228.35762 292.83244 224.30676 321.4375 222.3125 L 345.0625 220.65625 C 345.06251 220.65625 345.02461 253.91691 345 278 C 349.59525 277.18856 354.17293 276.35252 358.875 275.875 C 362.09434 275.54806 365.36052 275.32173 368.625 275.15625 C 371.88948 274.99077 375.16315 274.90625 378.46875 274.90625 C 381.77435 274.90625 385.04802 274.99077 388.3125 275.15625 C 391.57698 275.32173 394.84316 275.54806 398.0625 275.875 C 402.98662 276.37507 407.78709 277.2278 412.59375 278.09375 L 412.46875 220.65625 L 435.125 222.1875 C 463.55256 224.06138 488.48525 229.22595 505.78125 236.875 C 512.46892 239.8326 518.59166 241.79511 520.25 241.5625 C 520.27679 241.54921 520.38097 241.51403 520.40625 241.5 C 520.41311 241.50015 520.46061 241.49951 520.46875 241.5 C 520.48255 241.48614 520.51767 241.42019 520.53125 241.40625 C 520.53824 241.40645 520.61632 241.40552 520.625 241.40625 C 520.62458 241.40203 520.62486 241.36076 520.625 241.34375 C 520.63183 241.32858 520.61822 241.26781 520.625 241.25 C 522.32162 236.09704 522.33452 147.89553 520.625 143.40625 C 520.61816 143.39107 520.63188 143.35626 520.625 143.34375 C 520.62487 143.32674 520.62456 143.25419 520.625 143.25 C 520.61634 143.25072 520.5382 143.2498 520.53125 143.25 C 520.51768 143.23606 520.48252 143.20136 520.46875 143.1875 C 520.46059 143.18802 520.41306 143.18736 520.40625 143.1875 C 520.38088 143.17355 520.27683 143.13828 520.25 143.125 C 518.6566 142.85648 512.93584 144.62905 506.6875 147.34375 C 489.89065 154.64142 459.91448 160.50055 434.75 161.375 L 414.125 162.03125 L 415.0625 143.875 C 416.18937 120.67634 422.65239 95.136633 432.3125 76 C 436.16308 68.372057 439.06119 61.702806 439.125 60.34375 C 439.12477 60.333765 439.12568 60.259209 439.125 60.25 C 439.10957 60.234391 439.0696 60.193971 439.0625 60.1875 C 439.06264 60.180473 439.06206 60.102717 439.0625 60.09375 C 439.0545 60.094525 438.97571 60.093556 438.96875 60.09375 C 438.96095 60.094234 438.91303 60.093629 438.90625 60.09375 C 435.0514 59.086587 385.30105 58.374777 350.96875 58.5 C 348.8371 58.507779 346.7804 58.484877 344.78125 58.5 C 343.46932 58.509936 342.15055 58.486476 340.90625 58.5 C 340.15451 58.508167 339.44323 58.490305 338.71875 58.5 C 338.37914 58.504556 338.0521 58.49508 337.71875 58.5 C 337.07291 58.509524 336.37154 58.489021 335.75 58.5 z "
     id="path3583" />
  <path
     id="path5365"
     style="fill:#2a0e72;fill-opacity:1;stroke:#000000;stroke-width:4.89960575;stroke-linecap:round;stroke-linejoin:round;stroke-miterlimit:4;stroke-dasharray:none;stroke-opacity:1"
     d="M 345.09755,277.82078 C 255.28812,293.64583 186.96359,372.07492 186.96359,466.40007 C 186.96359,494.41001 188.39493,499.18444 190.66975,507.2072 C 198.56108,493.10274 211.17437,484.40127 222.48314,477.76027 C 222.55876,477.72016 222.71035,477.64884 222.78608,477.6088 C 253.92354,461.64277 287.69676,450.78126 322.14995,444.58849 C 322.32597,444.55687 322.50405,444.54414 322.68009,444.51276 C 322.90802,444.47861 323.13348,444.39502 323.3617,444.36129 C 323.5623,444.32588 323.76694,444.32065 323.96758,444.28555 C 330.24849,443.36765 336.64028,442.54613 343.12845,441.93778 C 344.56162,414.52712 344.99116,333.79572 345.09755,277.82078 z M 412.65286,277.89651 L 413.03154,441.86204 C 420.11211,442.48864 427.09877,443.28661 433.9343,444.28555 C 434.36254,444.34813 434.79462,444.44875 435.22179,444.51276 C 435.22812,444.51261 435.29115,444.51334 435.29753,444.51276 C 435.32283,444.5123 435.42369,444.51322 435.449,444.51276 C 460.78872,449.28845 485.57712,457.04625 509.66896,466.17287 C 516.31119,469.31163 523.79009,472.00645 530.87466,475.18529 C 530.89192,475.18551 530.94693,475.186 530.9504,475.18529 C 531.11784,475.26704 531.31358,475.40591 531.48054,475.48823 C 544.99327,483.01621 556.73345,491.56043 566.24275,500.85934 C 566.26773,500.88379 566.29352,500.91062 566.31848,500.93508 C 566.31819,500.94155 566.31855,501.00446 566.31848,501.01081 C 566.39523,501.84125 570.02948,479.12325 570.02948,466.40007 C 570.02948,372.34073 502.08796,294.02865 412.65286,277.89651 z M 373.19511,520.39888 C 310.63845,521.29388 261.79512,541.1915 220.74867,571.36863 C 254.17906,627.40113 308.55208,657.93299 378.49653,657.93302 C 447.27036,657.93302 509.14453,621.93247 536.17609,572.04992 C 501.5568,540.82007 443.47149,520.39893 377.73919,520.39888 C 376.22956,520.39888 374.69647,520.37741 373.19511,520.39888 z " />
  <path
     style="fill:none;fill-opacity:0.75;fill-rule:evenodd;stroke:#000000;stroke-width:4.9000001;stroke-linecap:butt;stroke-linejoin:round;stroke-miterlimit:4;stroke-dasharray:none;stroke-opacity:1"
     d="M 344.59618,277.81844 C 383.19593,274.23862 413.23525,278.12973 413.23525,278.12973"
     id="path1346" />
</svg>