<!-- Created with Inkscape (http://www.inkscape.org/) -->

<svg
   xmlns="http://www.w3.org/2000/svg"
   version="1.0"
   id="svg2270"><title>Herb Wodzisław Śląski</title>
  <defs
     id="defs2272" />
  <metadata
     id="metadata2275">
    <rdf:RDF>
      <cc:Work
         rdf:about="">
        <dc:format>image/svg+xml</dc:format>
        <dc:type
           rdf:resource="http://purl.org/dc/dcmitype/StillImage" />
        <dc:title></dc:title>
      </cc:Work>
    </rdf:RDF>
  </metadata>
  <g
     transform="translate(43.574438,22.434722)"
     id="layer1">
    <g
       transform="matrix(1.0230805,0,0,1.0230805,-7.7153118,-9.6495489)"
       id="g4181">
      <path
         d="M 0.6875,0.65625 0.65625,510.3125 c 7.1179557,201.24306 171.77277,350.76264 367.3125,351.5 0.46914,0 0.93747,0.002 1.40625,0 195.55093,-0.73939 362.56939,-149.31609 369.6875,-351.9375 l 0.25,-509.21875 c -244.875,0 -493.75,0 -738.625,0 z"
         transform="translate(-35.706401,-13.152992)"
         id="path3983"
         style="fill:#000000;fill-opacity:1;fill-rule:evenodd;stroke:none" />
      <path
         d="M 373.375,6.65625 373.28125,66 c 38.62401,15.119414 83.50617,-2.5023 125.75,34.9375 10.48733,-0.38929 19.25512,4.72105 26.34375,9 17.28723,-16.363852 49.01403,-17.286831 78.59375,-14.96875 -5.84862,13.10151 -11.67629,26.21224 -13,40.6875 12.18116,5.49213 19.05867,15.77991 26.28125,25.75 -7.76395,0.63796 -15.54968,1.09927 -22.875,5.34375 4.44065,5.81609 6.64466,12.3687 6.90625,19.5625 46.89916,29.63989 42.87351,98.25902 103.8125,100.09375 -47.2562,34.80986 -5.43952,93.29464 -27.09375,151.25 L 689.71875,433.75 c 0.83385,9.05956 -0.13277,17.72534 -3.46875,25.84375 28.4052,14.12579 34.44545,41.83844 40.9375,64.3125 -16.6296,-5.36845 -29.617,-2.88925 -42.65625,-0.5625 -2.84769,11.16072 -6.08469,23.23872 -16.5625,33.84375 -2.11624,-3.57445 -4.39636,-8.88394 -11.25,-13.34375 l -6.6875,6.28125 c -6.09959,58.54076 -82.98043,73.34697 -62.96875,133 -48.90747,-26.39107 -89.65914,38.39726 -153.9375,36.1875 -6.3642,4.20509 -14.10701,5.10968 -21.8125,6.15625 -4.56282,24.79311 -19.89332,41.62006 -39.21875,55.9375 l -0.125,74.40625 c 196.17234,0 352.57674,-151.12136 361.09375,-345.9375 l 0.25,-503.21875 -359.9375,0 z"
         transform="translate(-35.706401,-13.152992)"
         id="path2890"
         style="fill:#db1e1a;fill-opacity:1;fill-rule:evenodd;stroke:none" />
      <path
         d="M 6.6875,6.65625 6.65625,510.3125 c 8.516852,194.81632 161.14004,345.50002 357.3125,345.5 l 0.0625,-39.1875 c -20.95373,-26.93384 -51.36198,-50.10928 -29.15625,-94.21875 -14.23959,11.1059 -17.16038,22.85089 -21.34375,34.53125 -28.34116,-30.40587 -26.70281,-58.59606 1.21875,-84.84375 -14.69415,-16.44288 -21.45189,-34.32683 -21.28125,-49.71875 25.69153,14.87914 50.17128,7.94928 55.5625,-27.6875 -7.43848,6.77574 -8.89293,12.47513 -11.53125,18.40625 l -4.40625,-19.78125 c -26.26191,14.22526 -63.82649,23.08881 -78.0625,43 -6.58697,8.05344 0.93525,8.9713 12.28125,9.34375 4.98392,0.22572 19.90869,1.62785 15.15625,15.53125 0.11161,15.65623 -1.07387,29.99632 -14.6875,36.28125 -0.76776,-5.15263 -0.002,-9.95121 -2.21875,-14.8125 -14.03674,-0.0645 -17.9342,-8.55229 -20.9375,-17.8125 -6.44218,-8.3409 -19.16719,-8.0878 -30.40625,-3.9375 -14.50667,5.35696 -23.46535,19.52849 -22.09375,31.65625 0.34085,5.43547 -10.38392,11.25407 -14.625,11.4375 -1.16449,6.94822 -0.9676,13.01492 -0.1875,18.65625 -12.90055,0.19995 -17.05982,-11.95986 -20.15625,-23.90625 -10.73477,-16.98224 3.32346,-28.18382 14.8125,-32.3125 7.87539,-2.83009 15.61356,-3.26817 15.96875,-9.59375 -4.17558,-6.91376 -18.41185,-3.29849 -23.65625,4.625 -6.88604,12.82034 -15.63444,14.79115 -25.75,8.90625 -7.50324,4.37116 -9.01444,9.56974 -11.9375,14.5625 -14.27389,-9.55607 -3.88689,-24.76471 1.5625,-33.59375 7.91656,-26.42908 24.88786,-3.58562 33.46875,-16.46875 6.64637,-0.57658 12.93553,-1.70439 21.125,0.21875 2.14978,1.36377 5.6001,1.13383 0.78125,-2.15625 -26.65716,-12.57124 -37.76274,10.42291 -49.375,-3.15625 -8.36479,0.3416 -12.35877,7.36857 -17.5,12.625 -8.23245,-14.11399 4.59511,-31.34105 14.625,-35.53125 6.72072,-15.66183 20.56002,-4.62859 33.0625,1.40625 14.86155,0.48104 29.71289,3.79468 44.5625,16.53125 24.80666,14.59969 60.01424,-38.43957 91.75,-61.625 -8.34188,-0.67951 -15.26189,-5.38545 -21.15625,-12.84375 20.70244,-7.22237 36.34264,-21.28841 44.25,-45.78125 L 318,503.59375 c 9.81753,-10.54839 10.99077,-28.63443 6.375,-48.15625 L 319,456.40625 c -4.67662,-17.30218 -10.67388,-33.01997 -18.40625,-46.625 0.44997,42.90315 -10.5498,126.56337 -33.21875,161.5 -29.37157,45.26647 -78.82318,24.58165 -104.15625,10.40625 29.93216,-4.6549 52.44841,-22.97249 61.25,-67.625 7.21211,-36.58904 8.73847,-110.34703 10.65625,-164.90625 l -2.6875,-1.375 C 229.72209,391.58823 229.36003,491.47061 191.125,532 c -31.87462,33.78729 -82.34263,9.89279 -96.28125,-0.6875 44.53575,-3.23237 57.90586,-43.92896 62.96875,-76.1875 4.83149,-30.78404 8.24781,-92.97052 7.96875,-138.46875 l -3.0625,-1.34375 c -1.52565,22.41014 -1.12572,104.87626 -24.75,137.8125 -25.55093,35.6223 -61.417199,28.05777 -94.1875,11.75 C 66.781187,461.99116 79.709675,444.08536 87.1875,417.59375 99.310236,374.64663 97.109215,311.86735 100.28125,270 c -0.896823,-0.0204 -1.788952,-0.40206 -2.6875,1.34375 -0.528179,28.04333 -5.779201,58.05782 -19.78125,77.375 C 64.254724,367.423 36.763998,376.4373 8.90625,363.28125 71.356354,316.59028 24.937827,211.17669 36.625,121.59375 44.520908,61.071119 96.291817,34.780591 140.0625,50.6875 c 54.92878,19.961918 55.73412,93.21433 9.15625,113.9375 15.84667,32.23372 77.55823,59.2527 125.40625,72.34375 l -0.9375,-2.90625 c 7.91185,-0.41304 15.81966,-0.78206 23.4375,-2.6875 l -2.875,-2.53125 c 50.72081,-16.93201 43.68246,-70.23448 13.53125,-89.09375 -7.15647,-7.61872 -20.10783,-21.71095 -38.21875,-13.25 8.62964,-22.23374 35.11365,-14.73498 50.0625,0.6875 3.14469,2.1129 3.77813,-0.72404 2.78125,-2.5625 -27.12435,-23.09303 -46.0715,-18.57511 -60.15625,-4.34375 -4.39278,4.43845 -13.05793,2.15996 -17.09375,-2.34375 -8.99405,-10.03685 -14.56279,-31.495466 -16.875,-40.21875 9.83956,14.644961 27.39873,22.77688 40.53125,17.25 7.76063,-3.266107 24.25704,-2.618135 49.75,19.15625 -9.24376,-15.452883 -20.64239,-23.35144 -34,-24.3125 -13.29031,-14.639545 -27.50268,-8.260948 -39.1875,2.09375 -7.10625,-35.817157 22.1728,-43.555458 54.59375,-31.375 12.62874,-26.294897 38.43922,-5.37948 65.3125,2.84375 l 0.0937,-56.71875 -358.6875,0 z"
         transform="translate(-35.706401,-13.152992)"
         id="rect2571"
         style="fill:#0096d1;fill-opacity:1;fill-rule:evenodd;stroke:none" />
      <path
         d="m 330.12458,799.0958 c 0,-0.53471 0,-1.06942 0,0 z"
         id="path2911"
         style="fill:none;stroke:#000000;stroke-width:3.52529526;stroke-linecap:butt;stroke-linejoin:miter;stroke-miterlimit:4;stroke-opacity:1;stroke-dasharray:none" />
      <path
         d="m 413.51275,381.78339 c -0.1408,42.72112 -34.88726,77.23926 -77.60833,77.09846 l 0.50991,-154.70682 c 42.48406,0.14002 76.90445,34.51707 77.09802,77.00095"
         id="path3943"
         style="fill:#e5231a;fill-opacity:1;stroke:#000000;stroke-width:1;stroke-opacity:1" />
      <path
         d="m 607.42212,528.30086 c 4.01339,62.17601 -69.987,74.82502 -63.71997,135.17604 -57.87395,-16.73917 -89.41674,49.80181 -154.23811,35.54745 61.52704,-9.63734 47.91803,-72.51384 92.25669,-106.09593 55.56269,-42.08316 108.35903,-17.33809 125.70139,-64.62756 z M 355.48029,479.38058 c 47.22541,30.96118 84.88268,70.47686 122.13915,110.3508 -33.42998,29.03526 -32.92938,74.88162 -63.47521,97.56482 -38.25113,28.40516 -74.08657,-23.79771 -76.31791,-45.90479 -7.36039,-72.92377 25.90555,-90.53854 17.65397,-162.01083 z m 49.81669,-54.10279 c 46.77174,71.48492 100.32839,-5.50535 170.70084,41.56371 26.01469,17.40009 41.11205,66.22306 1.63231,85.28763 -25.74131,12.43035 -63.05222,10.27803 -96.3328,35.4901 -34.76827,-45.27227 -90.17356,-111.93254 -76.00035,-162.34144 z m -6.61391,7.0014 c -1.70123,48.88777 38.16915,100.08006 63.8769,138.18289 -39.1349,-40.05316 -85.25843,-86.78069 -126.12132,-107.18002 22.32691,-2.57463 44.16651,-7.54461 62.24442,-31.00287 z M 532.5648,162.52392 c 81.08874,14.2885 64.66072,107.86832 128.12367,110.96092 -45.57729,29.44415 18.35595,138.66853 -42.13329,170.86534 10.07565,-51.45713 -47.20962,-60.6864 -65.79415,-138.53064 -6.34484,-26.57663 -3.31409,-38.75265 -1.98258,-71.66027 0.96943,-23.95892 -2.16619,-58.06542 -18.21365,-71.63535 z m 17.24977,145.42789 c 17.30618,58.7493 46.69991,72.52602 61.8171,110.44924 11.4133,28.6316 -9.24497,42.69539 -29.37347,39.90078 -81.46157,-11.31 -106.73486,-87.74813 -168.8964,-51.30993 32.3004,-60.35408 84.84087,-82.43908 136.45277,-99.04009 z m -154.33136,16.63316 c 36.28002,8.45863 90.94715,-2.95784 131.46139,-12.33905 -47.70518,19.08922 -77.59697,39.60271 -109.83023,77.95264 4.31141,-29.00246 -8.56247,-52.60076 -21.63116,-65.61359 z m -4.68331,-6.73773 c 44.79612,0.48965 47.89595,-118.35834 100.97341,-144.19634 24.01475,-11.69034 48.21256,-16.59536 54.70734,24.04444 5.48265,34.30691 -4.6026,74.59495 2.67049,107.56537 -26.10195,6.18993 -132.00166,31.0213 -158.35124,12.58653 z M 336.6113,204.55602 c 3.29957,36.48561 8.48883,66.69101 22.6987,98.82416 -8.86522,-2.67946 -16.38321,-3.66354 -23.52238,-4.17076 z m -0.58288,-94.0934 c 55.01896,-1.44325 87.61005,-26.265939 122.78085,-11.767611 28.82018,13.071531 33.6064,54.397071 18.43652,79.880491 -23.4468,45.68601 -110.37185,66.03622 -114.52771,125.14928 -25.20397,-45.16656 -27.74368,-129.571 -26.68966,-193.26216 z m -0.10005,-54.01516 c 51.59603,18.765256 102.73243,-6.996762 133.3779,47.6729 -38.22656,-28.686374 -80.53362,4.11895 -133.05599,0.80904 z"
         id="path3976"
         style="fill:#ffe001;fill-opacity:1;stroke:none" />
      <path
         d="m 341.84121,666.00634 c 11.19455,18.08529 29.16239,28.60113 49.60817,36.34766 -5.6966,2.26601 -11.46418,4.43365 -19.41779,3.57463 -1.05158,25.662 -18.6362,44.47887 -36.77332,56.07543 l -0.30192,-92.38178 c 10.48325,24.24426 14.22279,49.93638 6.22471,74.00601 11.45313,-17.82948 10.83391,-45.37186 0.0311,-70.75106 5.93213,11.0453 11.11027,22.6587 25.17736,27.57486 -11.80596,-11.32134 -18.76967,-22.85729 -24.54831,-34.44575 z m -6.44142,-198.88513 -0.20201,61.29047 c 2.43708,-15.73601 12.85883,-51.47564 2.30218,-51.69016 0.68518,-4.058 4.3087,-5.24111 6.39556,0.0211 7.68022,19.36605 -9.33585,40.80712 -7.79345,100.70499 26.06072,-73.26937 17.44943,-107.3885 -0.70228,-110.32639 z m 258.9616,-6.15718 c 18.02534,-3.68423 35.10897,-17.19788 44.98146,-31.74298 l 11.28069,-4.16405 c 2.01431,9.52745 -0.25638,16.89472 -2.94379,24.05194 23.10348,9.8151 32.77749,32.82591 39.42097,56.81233 -11.58447,-3.00219 -33.58747,-3.34373 -42.31338,-0.83463 -1.56124,11.47669 -3.93728,22.83423 -12.10627,33.34471 -2.69757,-7.23288 -7.85312,-13.05042 -13.13816,-18.63381 -1.99587,2.05267 -3.89194,4.10567 -6.10822,6.15762 -2.3184,-23.73031 -15.11429,-43.47476 -33.24432,-59.36427 23.15543,8.58514 39.19512,26.02864 50.63091,46.25641 -6.32564,-19.26395 -21.39942,-38.37589 -40.62275,-46.16803 30.75706,1.09441 59.62458,8.84109 84.82514,29.4973 -18.06618,-21.36555 -48.5445,-27.99121 -71.69836,-31.74562 14.13834,-1.68766 28.3473,-6.74843 36.78814,-13.48125 -12.99124,4.45111 -28.0592,11.11771 -45.75206,10.01433 z m -67.59038,-14.59051 c -34.18563,-3.4448 -67.32474,20.29156 -106.17467,-9.31533 -14.06984,-10.72237 -11.63016,-24.97227 3.09304,-31.71347 37.16309,-17.01557 67.03396,12.47101 87.94371,30.63424 -15.77752,-6.14645 -83.43373,-26.76684 -86.38235,-16.14655 13.35558,0.42119 18.63146,2.83407 26.1911,4.68396 -9.55194,-0.33749 -20.04529,2.11871 -27.80398,-3.53988 -1.72624,1.31415 -1.24019,4.24104 5.95641,6.22644 16.2642,4.48699 38.21659,-7.82142 97.17674,19.17059 z M 454.34326,213.1367 c -19.29114,33.99227 -29.27125,88.55937 -58.71967,100.10667 -15.01616,6.20762 -31.32283,-4.86635 -27.99719,-22.00446 7.03759,-27.99269 47.88977,-49.98542 70.40627,-67.57663 -16.54456,18.59095 -46.82799,52.28807 -49.62182,55.78484 -3.76412,5.48878 -7.19288,10.81125 -3.50016,12.60228 0.93898,0.28102 0.948,-0.99948 1.22673,-1.827 -1.54291,-3.60883 6.86444,-14.50283 13.90338,-20.90939 -3.89006,7.44695 -6.84335,19.69686 -12.02731,21.98145 -0.57363,0.67627 -1.02764,1.7112 -0.46338,2.39122 9.2065,4.95922 8.80018,-18.12125 19.84426,-33.30017 15.0299,-15.75165 28.43061,-31.50866 46.94889,-47.24881 z M 469.66928,89.578194 c 0.49257,1.770593 1.18833,3.272064 1.1118,5.796156 21.06017,22.37635 23.82068,50.74743 11.52084,78.04362 10.18801,-14.33644 15.7272,-29.25308 15.91309,-47.39063 0.59677,5.31572 0.95317,10.8703 1.91325,15.82507 10.03609,-24.64902 26.35767,-40.90974 49.28629,-48.67356 -23.75029,13.42672 -42.18513,32.43469 -52.37095,59.82089 10.83961,-11.66776 28.07567,-21.67096 51.79728,-17.56524 -27.74757,-0.7543 -44.21907,12.53844 -56.86073,30.67821 23.36463,-12.38077 48.31868,-10.38008 69.49777,3.70456 0.21075,-7.20662 -3.23827,-11.78843 -6.57963,-16.44742 6.4338,-5.1148 14.53863,-6.29487 22.74537,-7.2349 -6.04348,-8.90529 -14.53049,-16.7729 -26.24434,-23.27014 2.41617,-13.21647 5.82895,-26.190277 13.25543,-38.186798 -21.79571,-2.37132 -56.80072,-3.424722 -74.39863,18.697818 -5.05369,-8.872433 -12.98107,-10.955153 -20.58684,-13.797636 z"
         id="path3979"
         style="fill:#028f58;fill-opacity:1;stroke:none" />
      <path
         d="m 130.57474,671.48478 c 2.51058,-1.63817 10.57356,-1.69179 15.93257,2.90353 0.91302,1.27629 1.30773,2.39121 -0.14673,3.89818 -6.4389,6.67139 -7.24435,17.2823 -7.8164,28.00246 -5.05179,-3.82019 -9.34181,-9.19277 -10.91633,-17.3368 -1.40545,-7.26958 -0.90328,-14.9551 2.94689,-17.46737 z m -16.62905,-21.4574 c -12.04095,0.51751 -17.814271,7.76389 -23.738976,14.84775 -2.954034,-11.09262 -0.667182,-20.912 9.889426,-28.72229 3.68928,-2.68613 8.68248,-0.89756 12.78944,1.81753 3.35784,2.54097 7.77045,11.05507 1.06011,12.05701 z m -7.9667,-37.61963 c -12.133619,-1.22072 -17.911384,4.80416 -23.948696,10.08291 -1.967773,-14.25762 7.119458,-23.62616 14.818915,-27.49012 1.858705,-0.78656 3.715761,0.12291 5.572621,1.23281 4.4489,4.25293 6.33607,10.94191 3.55716,16.1744 z m 135.2824,33.71567 c 6.48601,8.46161 0.57693,26.92621 -4.73585,30.6807 0.2069,-8.83338 -2.90991,-17.3144 -10.14194,-18.81033 -4.63104,-4.79358 9.85118,-11.45783 14.87779,-11.87037 z m 28.88751,-92.67875 c -28.32031,17.06916 -66.81637,60.16108 -80.21767,62.98592 -10.22505,2.0287 -17.285,-1.4475 -22.90808,-5.92741 -9.7865,-7.43814 -17.98949,-9.56861 -26.04497,-10.23583 -10.23332,-1.46432 -13.50891,-3.60503 -17.80682,-6.36911 -5.68343,-3.76355 -17.42005,-9.35791 -20.60515,-2.13766 6.76967,5.7068 13.35357,18.7801 3.11969,24.35 3.2056,2.52304 8.86296,2.479 18.51329,-1.74581 9.60343,-2.61926 19.79663,-1.49092 30.38486,2.14741 3.68311,2.49256 3.0535,7.22019 -1.14922,8.60944 -6.15577,-0.25958 -18.1904,-5.0091 -25.40463,0.53828 -5.29793,5.75502 -27.32905,-4.72806 -28.390948,6.81562 7.941498,-2.60339 17.166788,2.1943 19.623768,8.17225 2.31321,5.62818 0.63629,11.54372 -9.07445,14.28119 4.28908,4.22993 10.61329,0.93041 14.32681,-6.68994 5.12844,-10.52379 27.53859,-19.97662 34.93539,-8.08081 -2.00477,8.22202 -9.20076,10.11812 -18.28386,13.54304 -10.90968,4.11368 -22.9742,9.80001 -17.44501,20.95283 1.18194,-7.28518 12.71623,-9.92955 21.381,-6.21204 5.05851,2.29631 7.80979,5.93693 5.08177,10.10358 -0.97514,1.48936 -3.36471,3.50089 -3.70045,6.05922 11.57758,-0.35626 7.61807,-16.09005 10.15377,-25.39534 5.77751,-12.15476 34.0242,-28.03215 52.75503,-14.76726 6.3692,4.91577 3.44238,17.80108 14.64883,21.18581 -15.36978,-12.43268 13.55606,-25.16817 21.1645,-23.02244 -2.89144,-9.87709 -17.1469,-8.55521 -28.11833,-9.44702 -6.47638,-0.57525 -8.58272,-5.11262 -3.64604,-10.7547 20.01871,-21.98123 42.07736,-29.08954 63.76822,-37.17344 3.1218,-1.48982 8.89654,-4.13036 13.64204,-7.18666 5.20073,-3.34944 7.10389,-6.85735 5.75031,-11.57459 -11.07987,6.46468 -20.35189,9.51297 -29.16516,11.69443 -0.17414,-8.08518 0.8917,-16.34805 2.71151,-24.71896 z M 272.978,97.290033 c -20.98854,-18.287652 -31.70472,-15.594515 -42.20944,-12.62645 -9.06387,2.560957 -18.23169,2.896348 -33.97532,-10.973785 4.71924,10.870073 8.38046,30.901872 22.69654,32.889102 8.07052,1.12027 12.34868,-12.649386 23.8568,-14.383446 9.94748,-1.498905 19.92594,-0.171678 29.63142,5.094579 z M 263.79879,49.80138 c -26.17995,-10.29844 -56.13463,-9.442332 -50.74307,22.196418 8.51213,-5.405477 23.356,-13.453965 38.08556,0.58502 13.72846,3.150118 33.89953,13.475094 39.13234,37.785962 0.28781,7.02448 -5.89457,5.73299 -7.58452,3.45714 -11.83149,-10.95488 -32.10662,-20.635443 -43.13434,-6.06063 30.56649,-6.70156 41.74691,35.38883 59.90228,25.4067 11.27922,-6.56149 9.58846,-29.37122 -6.46671,-44.736683 C 279.18478,77.660999 262.12756,62.829517 263.79879,49.80138 z"
         id="path4083"
         style="fill:#db1e1a;fill-opacity:1;stroke:none" />
      <path
         d="m 122.8492,299.02865 c 0.64589,25.80317 2.59491,100.9913 -24.991222,142.36363 -17.092078,27.75317 -52.400417,20.86913 -74.694633,10.3324 14.879177,-6.78338 28.640864,-17.96771 35.374299,-56.83075 7.368791,-48.04867 7.799898,-93.47695 7.493475,-138.62665 l 22.320504,20.83595 c -0.644007,49.64635 -0.659599,114.95771 -20.284054,154.22418 20.631234,-28.4551 22.170446,-96.30977 24.568543,-151.82287 z m 69.29812,33.92902 c 0.74975,44.47113 -0.74473,151.47762 -40.28371,186.53983 -25.3405,24.23539 -63.892815,12.71381 -80.571298,0.29136 28.32907,-5.08884 46.020458,-29.15588 53.783288,-70.93598 6.21732,-49.65037 6.66091,-99.48683 7.13138,-144.5738 l 27.21106,14.15071 c -1.04274,53.33981 -0.65512,155.91537 -27.77643,188.03899 31.3811,-27.99803 27.65169,-125.47916 32.92489,-185.80381 z m 46.19482,16.36879 8.65482,2.04925 13.81199,39.95173 c -2.34834,52.29607 -6.20096,144.50792 -48.65771,183.60784 -20.28541,16.74674 -51.65447,8.1384 -71.84698,-5.02742 12.18071,-2.6031 35.68257,-15.04967 48.24043,-51.84212 11.88124,-37.45171 11.42435,-119.67697 13.4509,-181.31079 l 31.73069,11.40083 c -1.10847,41.98731 -4.38495,184.02462 -32.52331,209.27751 31.12509,-20.51317 34.23614,-154.72147 37.13917,-208.10683 z m -0.26043,-29.19224 c 4.31611,8.29538 6.59388,17.50349 7.44822,27.34905 -9.22584,-1.88412 -18.21597,-5.18796 -27.05517,-9.40124 5.99675,-6.66457 12.10026,-13.19389 19.60695,-17.94781 z M 186.4061,268.23268 c 7.16102,3.7676 49.2271,14.60211 53.51543,15.44786 -3.30531,12.9463 -2.20332,21.89337 -1.83499,31.50615 -7.48097,6.19309 -14.96302,13.49635 -22.4423,17.94499 -14.05023,-13.91777 -33.68555,-37.06027 -29.23814,-64.899 z m -2.92744,9.66288 c 3.23679,26.60317 16.79981,42.05133 29.32693,58.61844 -21.56565,-7.42212 -40.50903,-15.48643 -59.25832,-26.09872 12.03627,-9.37509 20.42879,-20.31141 29.93139,-32.51972 z M 132.9909,244.77488 c -3.40257,19.63057 5.98756,39.83584 18.2419,60.16977 8.56284,-5.32287 26.8686,-18.28632 32.51389,-37.46469 -16.91994,-6.21388 -33.83858,-13.714 -50.75579,-22.70508 z m -3.6078,-0.78479 c -0.0852,18.87326 7.59215,40.76749 18.75257,65.11781 -18.08674,-9.33526 -37.87884,-20.57787 -54.61037,-34.68716 18.04336,-6.30024 28.74409,-17.21424 35.8578,-30.43065 z M 78.87775,228.83675 c 0.890819,14.72073 5.005764,28.8191 9.237991,42.19344 -7.89245,-4.80042 -15.117996,-11.28039 -21.632391,-19.5513 6.626657,-9.02189 9.82916,-16.34976 12.3944,-22.64214 z m 4.917437,-20.56642 c 12.395991,10.51992 25.358083,21.12212 42.498143,32.33153 -7.52431,15.82528 -19.06507,25.55108 -34.825243,28.86929 -8.258231,-20.08603 -11.772138,-40.43359 -7.6729,-61.20082 z M 48.54142,148.0836 c 5.364583,19.80511 15.200681,38.37072 33.452025,57.58097 -2.121531,17.67072 -6.755779,33.82777 -19.11613,43.20676 C 48.285891,220.28327 39.39895,181.84197 48.54142,148.0836 z m 45.665017,-44.47408 c 4.594692,-1.57232 18.561103,0.77252 13.823183,8.96031 -5.74669,8.85817 -12.766037,-3.33148 -13.823183,-8.96031 z m 1.014754,-2.72555 c 8.642769,0.41042 19.275129,-4.056999 12.155839,-10.979339 -7.663939,-6.165308 -11.469001,3.282359 -12.155839,10.979339 z m -3.965765,1.78536 c 1.199528,5.54721 -1.752261,18.18403 -10.301917,12.60007 -8.180959,-5.62793 4.083819,-13.15946 10.301917,-12.60007 z M 255.3506,233.59013 c -12.69447,13.28831 -15.36248,28.83803 -19.83985,43.97966 C 172.78084,261.89046 71.186207,224.33445 50.298293,143.40094 38.248146,96.710727 71.592111,75.255216 87.391803,95.242682 50.008229,89.923696 53.789672,162.29727 110.7324,152.35611 c 20.15785,38.43489 86.77915,62.54877 144.6182,81.23402 z M 58.642027,248.16707 C 61.660972,317.87349 36.146592,369.09222 -21.243185,349.14065 33.774263,309.37874 0.17307898,213.58668 1.0573489,141.09211 -0.06527731,73.052407 31.11551,27.919593 95.957915,37.406933 139.00729,47.130319 163.58697,99.075764 130.78087,133.89378 112.0842,156.66822 67.618432,157.11232 65.685969,117.12869 65.929486,97.33373 86.316005,92.130209 89.318409,99.770425 83.048194,102.96159 72.059305,110.0992 79.348042,118.33518 c 5.033071,2.9981 9.88479,3.30098 14.173932,-4.75735 3.592563,4.61479 11.742806,8.5023 16.867356,0.86886 2.08581,-6.10801 -1.49356,-8.95309 -4.54259,-12.10364 5.43978,-3.099308 10.08225,-10.796084 4.90775,-16.354485 -7.94957,-5.44775 -14.691737,4.026788 -17.553736,11.059169 -13.10154,-23.710045 -58.158235,-11.661497 -47.277519,47.667706 -9.360414,35.48798 -2.134743,69.75139 12.718792,103.45163 z m 270.483823,407.31526 -0.58313,139.15552 c -40.65571,-36.0817 -36.48151,-63.60118 -22.45439,-87.74754 7.16586,-12.3354 13.2346,-30.78534 13.93546,-42.68215 3.29595,-1.84566 6.19092,-5.31849 9.10206,-8.72583 z m -12.83192,11.73416 c -0.38155,12.52809 -4.30044,21.47553 -9.42022,29.20736 -13.79233,7.52328 -22.62311,21.25095 -29.70209,37.16905 -18.24007,-21.46821 -25.66544,-48.48687 4.24566,-73.33886 9.20039,7.04595 19.74431,11.47442 34.87665,6.96245 z m 12.93433,-99.15719 -0.0777,79.59176 c -20.78033,39.94427 -65.92588,0.86367 -66.87588,-34.07143 28.40841,13.13184 50.88001,-0.95222 52.70333,-36.02065 z m -38.29635,-77.36168 c -5.12149,19.10925 -18.50227,34.97911 -39.5449,47.84396 6.37901,5.51049 12.64543,11.27645 25.04454,3.13933 -4.89889,10.11057 -5.05777,20.96271 -3.3068,32.1136 9.69685,-1.92895 19.33253,-5.05381 28.53209,-16.71128 -0.9803,10.38025 -0.43503,20.76201 4.20846,31.14786 6.12665,-11.06539 14.4905,-18.50659 23.14572,-25.4758 l -0.13456,-59.56238 -9.83183,5.63498 c -5.71111,-7.07739 -5.04665,-15.75825 -7.10578,-23.75412 -7.00332,2.90556 -14.00613,5.29165 -21.00694,5.62385 z m 0.14611,-51.28957 6.5543,-3.49713 c 3.12244,6.6609 6.47234,13.23009 10.86716,19.37829 4.5026,-3.67594 8.83354,-7.43879 12.82395,-11.37411 l 7.40573,12.46484 0.24912,40.87631 c -2.0148,1.76571 -3.81084,3.63025 -7.22993,4.76166 -3.76106,-6.80568 -6.16801,-14.39131 -6.33555,-23.26673 -8.01148,4.72457 -16.3144,8.04423 -25.34431,7.85798 5.92874,-14.67851 7.09491,-32.02315 1.00953,-47.20111 z m 37.69682,-33.04228 0.0866,40.88979 c -1.94425,-2.67698 -4.12486,-6.58679 -5.81106,-10.56049 -3.31469,4.9163 -7.98423,9.04865 -13.08481,12.93163 -4.43715,-6.28072 -8.19542,-12.6979 -10.07644,-19.49244 -4.5659,3.0092 -9.02463,5.85638 -13.0801,8.09373 -6.60175,-17.33791 -13.54867,-34.58901 -21.17579,-51.66906 4.57956,-2.39811 8.4898,-5.84334 11.65868,-10.44872 3.84189,11.30163 11.21797,20.89635 18.608,30.4843 6.02272,-5.79077 10.47591,-11.58311 15.28951,-17.37509 3.51387,7.32575 7.34104,14.65181 11.36816,21.97806 1.53755,-0.712 3.94057,-2.87795 6.21727,-4.83171 z m 0.47547,-53.55296 -0.22597,47.82644 c -1.63479,2.15969 -3.40881,4.3895 -6.07732,7.07002 -4.36258,-8.14018 -8.47346,-16.35271 -11.02685,-25.01312 -3.78366,5.69574 -11.26674,12.21813 -17.13956,18.38071 -7.781,-10.52971 -16.08267,-20.8564 -15.99851,-34.45285 -4.60592,6.98914 -10.73293,12.13062 -18.53733,15.2344 -7.20599,-14.48675 -13.72789,-34.43568 -14.26931,-51.90545 7.44727,-1.17954 13.44771,-5.9569 19.15636,-11.45988 4.10953,12.84315 11.28244,23.79928 18.17713,34.92676 9.20373,-5.28901 15.72079,-12.21019 21.01532,-19.87403 5.36358,10.00546 11.03156,18.17736 16.64566,26.67316 2.69197,-2.8842 5.33956,-6.03918 8.28038,-7.40616 z m -58.35254,-81.56645 c 2.6736,10.1449 5.38918,20.28984 11.95024,30.43862 8.99677,-3.98202 17.73539,-9.18697 26.27537,-15.33292 3.9974,8.56145 7.59288,17.56188 13.33687,24.21552 2.12054,-2.1866 3.80275,-4.46221 6.60982,-6.5094 l -0.0428,43.75015 c -0.0666,1.33758 -7.42574,7.10085 -7.68495,6.66347 -6.102,-7.39267 -11.34972,-16.02939 -15.94617,-25.61441 -5.92214,7.40252 -12.10236,14.63416 -22.28636,19.21545 -5.11632,-7.55459 -10.5362,-14.95629 -14.49373,-23.09477 -1.10489,-3.53948 -1.23944,-8.47635 -1.28973,-13.53459 -5.23615,7.27859 -14.45188,14.21271 -25.3514,14.40298 -2.73098,-12.7176 -3.94309,-25.77458 -1.18973,-39.71767 0.69635,-1.50983 0.83096,-3.12113 3.99688,-4.18485 9.33551,-1.96946 17.65931,-6.50131 26.11562,-10.69758 z M 330.0268,53.379897 c -18.45757,-5.412105 -50.423,-29.945931 -60.96383,-4.901428 -3.81177,18.266249 37.61166,41.283389 40.41885,63.135801 2.01684,15.70019 -6.90182,29.70685 -17.21062,27.69145 14.2031,25.64634 6.55116,59.21882 -23.37044,75.25733 8.52474,5.90164 18.78484,6.90956 31.72315,0.36547 1.59083,8.19861 4.33467,16.95583 7.2458,24.71129 7.80815,-5.816 14.70596,-9.33959 21.65746,-12.99812 l 0.31209,-150.394029 c -6.25122,-4.807916 -12.62854,-8.604613 -19.32192,-9.867501 -9.98201,14.250874 -30.7509,10.6545 -30.72503,-7.208158 l -0.82452,-1.670016 c -2.32065,-1.486997 -3.54217,-3.083923 -1.48217,-5.009058 16.37788,4.607637 29.44782,2.639346 51.86232,19.247421 z m -33.36533,18.691376 c 3.99663,1.234518 8.48151,-1.719867 10.94385,-5.841991 1.06762,-3.000987 -3.73539,-5.01763 -4.54056,-1.549692 -0.94009,4.882962 -3.97868,5.515606 -6.40329,7.391683 z m -0.0835,-9.879779 c -0.56676,0.38354 -2.26929,5.014494 -3.94713,7.675071 1.67946,0.642936 5.15304,0.783825 7.04895,-4.019769 0.53757,-1.793976 0.64299,-4.536011 -3.10182,-3.655302 z m -6.76627,-0.615446 0.17762,7.960121 c -1.28032,-1.983518 -3.31735,-3.204568 -3.60912,-6.184259 -0.21445,-2.189972 2.77599,-4.890786 3.4315,-1.775862 z M 264.69017,219.0107 245.4362,221.34896 c 2.85134,4.10718 8.61916,7.75213 19.24131,10.62772 -17.22177,10.12307 -22.33242,26.54438 -24.54564,44.47245 13.2603,0.26458 24.26161,-4.81054 33.84929,-13.22693 -1.01463,10.87984 2.54145,22.00729 9.30165,33.30829 10.05096,-2.96344 19.06825,-8.90662 27.72644,-15.88517 1.97797,8.87323 4.73087,17.59066 10.76759,25.64802 2.42342,-1.87895 4.77395,-3.10073 7.59234,-8.53819 l 0.0639,-65.41924 c -9.32925,2.45933 -15.97045,8.16653 -23.74742,13.37654 -3.20692,-8.03817 -6.44058,-16.05842 -8.45026,-24.90122 -9.90018,3.43457 -21.01522,3.03973 -32.54522,-1.80053 z"
         id="path4176"
         style="fill:#ffe001;fill-opacity:1;fill-rule:evenodd;stroke:none" />
    </g>
  </g>
</svg>