<!-- Created with Inkscape (http://www.inkscape.org/) -->
<svg
   xmlns="http://www.w3.org/2000/svg"
   id="svg2"
   version="1.0"><title>Herb Nałęczów</title>
  <metadata
     id="metadata7">
    <rdf:RDF>
      <cc:Work
         rdf:about="">
        <dc:format>image/svg+xml</dc:format>
        <dc:type
           rdf:resource="http://purl.org/dc/dcmitype/StillImage" />
        <dc:title>Nałęczów_COA</dc:title>
        <dc:creator>
          <cc:Agent>
            <dc:title />
          </cc:Agent>
        </dc:creator>
        <cc:license
           rdf:resource="http://web.resource.org/cc/PublicDomain" />
      </cc:Work>
    </rdf:RDF>
  </metadata>
  <defs
     id="defs5" />
  <sodipodi:namedview
     borderopacity="1.0"
     bordercolor="#666666"
     pagecolor="#ffffff"
     id="base"
     borderlayer="top"
     showguides="true" />
  <g
     id="layer1"
     style="display:inline" />
  <g
     id="layer5"
     style="display:inline">
    <path
       style="color:#000000;fill:#358acb;fill-opacity:1;fill-rule:evenodd;stroke:none;stroke-width:2.00000262;stroke-linecap:butt;stroke-linejoin:miter;marker:none;marker-start:none;marker-mid:none;marker-end:none;stroke-miterlimit:4;stroke-dasharray:none;stroke-dashoffset:0;stroke-opacity:1;visibility:visible;display:inline;overflow:visible"
       d="M 249.98513,624.66105 C 234.45184,590.78505 180.77193,590.87129 117.02379,590.17644 C -0.73854454,588.90825 2.4949075,549.83805 2.4215879,377.09752 L 2.2626029,2.530058 L 250.39279,2.530058"
       id="path1478" />
    <path
       style="color:#000000;fill:#f13d55;fill-opacity:1;fill-rule:evenodd;stroke:none;stroke-width:2.00000262;stroke-linecap:butt;stroke-linejoin:miter;marker:none;marker-start:none;marker-mid:none;marker-end:none;stroke-miterlimit:4;stroke-dasharray:none;stroke-dashoffset:0;stroke-opacity:1;visibility:visible;display:inline;overflow:visible"
       d="M 251.27748,624.66105 C 266.81077,590.78505 320.49068,590.87128 384.23882,590.17644 C 502.00115,588.90825 498.7677,549.83804 498.84102,377.09752 L 499,2.5300513 L 250.86982,2.5300513"
       id="path1480" />
  </g>
  <g
     id="layer4"
     style="display:inline">
    <g
       id="g3270"
       transform="matrix(1.123747,0,0,1.123747,-37.557,26.12767)">
      <path
         id="path2310"
         d="M 458.78652,200.80684 C 460.30108,208.17613 461.79299,218.18959 456.98577,224.46122 C 457.85346,231.78927 457.26926,241.9305 451.78615,246.75437 C 453.89501,254.91905 449.85267,259.44429 444.63034,263.22228 C 443.85528,271.80044 441.21471,278.27833 434.32925,279.52684 C 430.56638,287.5498 427.12883,295.19972 415.58816,298.77879 C 401.58031,309.76998 385.04502,316.34891 367.3397,316.34891 C 349.28944,316.34891 332.45524,310.13124 318.27541,299.4031 C 307.20017,296.6165 304.88797,289.65688 301.2208,282.76594 C 292.37548,280.34933 291.55502,272.88297 290.00766,265.74038 C 283.31871,260.65651 282.44723,253.84496 281.96362,246.75437 C 275.61378,240.92675 276.59656,231.35729 277.57085,225.09623 C 272.13427,218.36696 273.72043,207.91637 275.89289,200.80684 C 274.21149,186.65023 277.9773,179.1009 282.61822,167.77958 C 283.3243,153.47013 287.78039,144.12915 298.45989,136.43378 C 302.97518,123.18915 314.11626,115.46048 326.83094,110.48049 C 336.46062,100.71865 350.0467,96.514842 367.3397,99.264764 C 383.75891,97.781104 399.1719,99.961133 412.49609,111.93628 C 424.66058,117.4143 433.74865,125.50997 437.93563,136.43378 C 447.46748,146.30757 454.36022,154.80782 452.80001,167.77958 C 457.04074,178.43999 462.73237,184.45957 458.78652,200.80684 z "
         style="color:#000000;fill:#ffffff;fill-opacity:1;fill-rule:nonzero;stroke:#000000;stroke-width:1.77975917;stroke-linecap:butt;stroke-linejoin:miter;marker:none;marker-start:none;marker-mid:none;marker-end:none;stroke-miterlimit:4;stroke-dashoffset:0;stroke-opacity:1;visibility:visible;display:inline;overflow:visible" />
      <path
         id="path2308"
         d="M 430.41742,216.99926 C 426.90288,223.47336 427.95803,228.79194 428.8563,234.38394 C 424.91934,239.23373 424.46436,243.9131 425.14732,248.37567 C 420.84162,250.48274 419.3667,254.73725 419.84039,260.41468 C 415.28483,261.89969 413.11971,268.68337 410.27249,274.371 C 399.01048,287.37436 383.91874,295.33048 367.3397,295.33048 C 354.04063,295.33048 341.69858,290.211 331.52263,281.47351 C 330.40034,276.77092 324.82119,272.5823 319.4102,267.90683 C 319.77459,262.7976 316.99603,257.11915 310.50426,250.99843 C 312.79426,248.26464 311.92164,243.14831 305.84942,234.5274 C 308.91531,230.53332 306.73589,221.51403 304.26198,214.49926 C 309.91631,208.42373 306.55806,200.91917 307.91386,190.68537 C 314.39338,187.53277 314.05968,177.9616 317.86869,168.41577 C 326.05231,167.35567 327.78488,157.77243 334.55772,150.0754 C 344.06574,150.52667 351.55746,141.28395 362.8397,137.66804 C 369.44685,143.10604 380.5118,139.82643 389.7588,143.50976 C 393.76532,150.57256 399.03826,148.41425 409.27332,157.76583 C 410.14528,165.67433 416.13181,167.15604 419.83378,174.09592 C 418.58931,187.55415 425.30847,185.06203 428.60768,193.96842 C 423.13855,203.41218 430.18134,208.81888 430.41742,216.99926 z "
         style="color:#000000;fill:#f13d55;fill-opacity:1;fill-rule:nonzero;stroke:#000000;stroke-width:1.77975929;stroke-linecap:butt;stroke-linejoin:miter;marker:none;marker-start:none;marker-mid:none;marker-end:none;stroke-miterlimit:4;stroke-dashoffset:0;stroke-opacity:1;visibility:visible;display:inline;overflow:visible" />
      <path
         id="path3187"
         d="M 301,282.5 C 313.02491,281.62516 319.99582,286.50696 330.5,281"
         style="fill:none;fill-opacity:0.75;fill-rule:evenodd;stroke:#000000;stroke-width:0.8898797px;stroke-linecap:butt;stroke-linejoin:miter;stroke-opacity:1;display:inline" />
      <path
         id="path3189"
         d="M 290,266 C 299,266.01448 319,271.07205 319,267"
         style="fill:none;fill-opacity:0.75;fill-rule:evenodd;stroke:#000000;stroke-width:0.8898797px;stroke-linecap:butt;stroke-linejoin:miter;stroke-opacity:1;display:inline" />
      <path
         id="path3191"
         d="M 281.5,246.5 C 292.62258,248.14946 299.77203,252.75863 311.5,252"
         style="fill:none;fill-opacity:0.75;fill-rule:evenodd;stroke:#000000;stroke-width:0.8898797px;stroke-linecap:butt;stroke-linejoin:miter;stroke-opacity:1;display:inline" />
      <path
         id="path3193"
         d="M 277.5,225.5 C 286.92387,228.72839 295.28152,234.15545 305.5,234.5"
         style="fill:none;fill-opacity:0.75;fill-rule:evenodd;stroke:#000000;stroke-width:0.8898797px;stroke-linecap:butt;stroke-linejoin:miter;stroke-opacity:1;display:inline" />
      <path
         id="path3195"
         d="M 276.5,201 C 289.5,205.68465 291.5,212.18683 304,213.5"
         style="fill:none;fill-opacity:0.75;fill-rule:evenodd;stroke:#000000;stroke-width:0.8898797px;stroke-linecap:butt;stroke-linejoin:miter;stroke-opacity:1;display:inline" />
      <path
         id="path3197"
         d="M 283.5,168 C 290.24582,175.5 295.26779,183 307,190.5"
         style="fill:none;fill-opacity:0.75;fill-rule:evenodd;stroke:#000000;stroke-width:0.8898797px;stroke-linecap:butt;stroke-linejoin:miter;stroke-opacity:1;display:inline" />
      <path
         id="path3199"
         d="M 298.5,136.5 C 306.14323,147.90469 306.39069,158.38853 317,168"
         style="fill:none;fill-opacity:0.75;fill-rule:evenodd;stroke:#000000;stroke-width:0.8898797px;stroke-linecap:butt;stroke-linejoin:miter;stroke-opacity:1;display:inline" />
      <path
         id="path3201"
         d="M 327.5,110.5 C 329.83479,126.59913 327.55219,138.86869 333.5,149.5"
         style="fill:none;fill-opacity:0.75;fill-rule:evenodd;stroke:#000000;stroke-width:0.8898797px;stroke-linecap:butt;stroke-linejoin:miter;stroke-opacity:1;display:inline" />
      <path
         id="path3203"
         d="M 368.5,99.499998 C 368.06689,116.16667 362.10046,125.83333 363,139"
         style="fill:none;fill-opacity:0.75;fill-rule:evenodd;stroke:#000000;stroke-width:0.8898797px;stroke-linecap:butt;stroke-linejoin:miter;stroke-opacity:1;display:inline" />
      <path
         id="path3205"
         d="M 412,112 C 404.83175,126.05503 393.68046,131.78237 390,143.5"
         style="fill:none;fill-opacity:0.75;fill-rule:evenodd;stroke:#000000;stroke-width:0.8898797px;stroke-linecap:butt;stroke-linejoin:miter;stroke-opacity:1;display:inline" />
      <path
         id="path3207"
         d="M 437.5,136.5 C 428.08813,144.7548 417.13972,148.47305 410,157.5"
         style="fill:none;fill-opacity:0.75;fill-rule:evenodd;stroke:#000000;stroke-width:0.8898797px;stroke-linecap:butt;stroke-linejoin:miter;stroke-opacity:1;display:inline" />
      <path
         id="path3209"
         d="M 453,168.5 C 439.66667,172.60839 431.33333,168.23415 420.5,173.5"
         style="fill:none;fill-opacity:0.75;fill-rule:evenodd;stroke:#000000;stroke-width:0.8898797px;stroke-linecap:butt;stroke-linejoin:miter;stroke-opacity:1;display:inline" />
      <path
         id="path3211"
         d="M 458,201 C 445.99581,200.02829 439.44569,192.86963 427.5,193.5"
         style="fill:none;fill-opacity:0.75;fill-rule:evenodd;stroke:#000000;stroke-width:0.8898797px;stroke-linecap:butt;stroke-linejoin:miter;stroke-opacity:1;display:inline" />
      <path
         id="path3213"
         d="M 456.5,224.5 C 447.66667,222.7626 438.83333,216.46345 430,215.5"
         style="fill:none;fill-opacity:0.75;fill-rule:evenodd;stroke:#000000;stroke-width:0.8898797px;stroke-linecap:butt;stroke-linejoin:miter;stroke-opacity:1;display:inline" />
      <path
         id="path3215"
         d="M 451.5,247.5 C 442.5,243.32707 438,236.31848 428.5,235"
         style="fill:none;fill-opacity:0.75;fill-rule:evenodd;stroke:#000000;stroke-width:0.8898797px;stroke-linecap:butt;stroke-linejoin:miter;stroke-opacity:1;display:inline" />
      <path
         id="path3217"
         d="M 445,263.5 C 436.11138,257.72195 434.35835,250.80831 425.5,248"
         style="fill:none;fill-opacity:0.75;fill-rule:evenodd;stroke:#000000;stroke-width:0.8898797px;stroke-linecap:butt;stroke-linejoin:miter;stroke-opacity:1;display:inline" />
      <path
         id="path3219"
         d="M 434,279.5 C 427.41739,272.58261 426.24719,264.75281 420.5,260"
         style="fill:none;fill-opacity:0.75;fill-rule:evenodd;stroke:#000000;stroke-width:0.8898797px;stroke-linecap:butt;stroke-linejoin:miter;stroke-opacity:1;display:inline" />
      <path
         id="path3221"
         d="M 415.5,298.5 C 412.33978,289.66667 415.81391,282.83333 410.5,275"
         style="fill:none;fill-opacity:0.75;fill-rule:evenodd;stroke:#000000;stroke-width:0.8898797px;stroke-linecap:butt;stroke-linejoin:miter;stroke-opacity:1;display:inline" />
      <path
         id="path3223"
         d="M 352.5,312 C 339.1916,321.28117 332.81492,339.22699 335.5,368.5 C 327.8775,377.28736 323.56428,362.30177 312.4543,355.73955 C 300.75217,348.82757 282.93967,352.05697 294.5,338.5 C 313.983,308.136 336.9032,296.77438 352.5,296"
         style="fill:#ffffff;fill-opacity:1;fill-rule:evenodd;stroke:#000000;stroke-width:1.77975941;stroke-linecap:butt;stroke-linejoin:miter;stroke-miterlimit:4;stroke-dasharray:none;stroke-opacity:1;display:inline" />
      <path
         id="path3225"
         d="M 384.38589,308.81039 C 396.96237,314.16044 400.14932,333.59477 399.44629,358.86408 C 399.7586,371.30594 410.58529,354.27882 420.49123,348.98638 C 427.53479,345.22322 446.80311,343.48543 435.76844,332.2869 C 417.25585,307.2709 400.23266,295.65948 384.38589,294.63589"
         style="fill:#ffffff;fill-opacity:1;fill-rule:evenodd;stroke:#000000;stroke-width:1.77975929;stroke-linecap:butt;stroke-linejoin:miter;stroke-miterlimit:4;stroke-dasharray:none;stroke-opacity:1;display:inline" />
      <path
         id="path3227"
         d="M 323,359 C 320.10938,330.11329 339.89555,314.35203 351.5,307"
         style="fill:none;fill-opacity:0.75;fill-rule:evenodd;stroke:#000000;stroke-width:0.8898797px;stroke-linecap:butt;stroke-linejoin:miter;stroke-opacity:1;display:inline" />
      <path
         id="path3229"
         d="M 409,350 C 404.91372,310.63791 386.00161,305.00054 386,305"
         style="fill:none;fill-opacity:0.75;fill-rule:evenodd;stroke:#000000;stroke-width:0.8898797px;stroke-linecap:butt;stroke-linejoin:miter;stroke-opacity:1;display:inline" />
      <path
         id="path3231"
         d="M 322,315 C 331.76399,308.91727 341.0038,299.68949 352,301"
         style="fill:none;fill-opacity:0.75;fill-rule:evenodd;stroke:#000000;stroke-width:0.8898797px;stroke-linecap:butt;stroke-linejoin:miter;stroke-opacity:1;display:inline" />
      <path
         id="path3233"
         d="M 385,298.5 C 394.00901,300.78826 402.80945,304.11942 410.5,313"
         style="fill:none;fill-opacity:0.75;fill-rule:evenodd;stroke:#000000;stroke-width:0.8898797px;stroke-linecap:butt;stroke-linejoin:miter;stroke-opacity:1;display:inline" />
      <path
         id="path3235"
         d="M 352.5,316 C 349.88892,313.5 349.70992,292.5 351,292.5 C 349.69142,286.75923 359.4188,290.23151 361.9982,292.18967 C 363.87836,289.67418 370.87426,289.73208 374.51304,291.09628 C 377.48954,289.64005 387.28921,288.37661 386.5,293 C 387.08113,300.83333 389.46694,306.16667 385,314 C 382.92084,322.7624 377.24779,318.19632 368.98998,318.25819 C 360.49278,318.32186 354.40584,323.40337 352.5,316 z "
         style="opacity:1;color:#000000;fill:#ffffff;fill-opacity:1;fill-rule:evenodd;stroke:#000000;stroke-width:1.77975941;stroke-linecap:butt;stroke-linejoin:miter;marker:none;marker-start:none;marker-mid:none;marker-end:none;stroke-miterlimit:4;stroke-dasharray:none;stroke-dashoffset:0;stroke-opacity:1;visibility:visible;display:inline;overflow:visible" />
      <path
         id="path3237"
         d="M 361.5,292.5 C 362.08298,302.72908 364.07748,307.56104 363,314.5"
         style="fill:none;fill-opacity:0.75;fill-rule:evenodd;stroke:#000000;stroke-width:0.8898797px;stroke-linecap:butt;stroke-linejoin:miter;stroke-opacity:1;display:inline" />
      <path
         id="path3239"
         d="M 374.5,291.5 C 373.36573,299 373.31394,306.5 373.5,314"
         style="fill:none;fill-opacity:0.75;fill-rule:evenodd;stroke:#000000;stroke-width:0.8898797px;stroke-linecap:butt;stroke-linejoin:miter;stroke-opacity:1;display:inline" />
    </g>
    <path
       style="color:#000000;fill:#ffffff;fill-opacity:1;fill-rule:evenodd;stroke:#000000;stroke-width:1.99999976;stroke-linecap:butt;stroke-linejoin:miter;marker:none;marker-start:none;marker-mid:none;marker-end:none;stroke-miterlimit:4;stroke-dashoffset:0;stroke-opacity:1;visibility:visible;display:inline;overflow:visible"
       d="M 103.10882,93.621728 L 103.10882,164.15107 L 40.782192,164.15107 L 40.782192,207.89889 L 103.10882,207.89889 L 103.10882,264.12606 L 40.782192,264.12606 L 40.782192,307.87388 L 103.10882,307.87388 L 103.10882,478.3782 L 146.85664,478.3782 L 146.85664,407.84886 L 181.80582,407.84886 L 212.3732,407.84886 L 212.3732,364.10104 L 181.80582,364.10104 L 146.85664,364.10104 L 146.85664,307.87388 L 160.38761,307.87388 L 212.3732,307.87388 L 212.3732,264.12606 L 160.38761,264.12606 L 146.85664,264.12606 L 146.85664,207.89889 L 160.38761,207.89889 L 212.3732,207.89889 L 212.3732,164.15107 L 160.38761,164.15107 L 146.85664,164.15107 L 146.85664,93.621728 L 103.10882,93.621728 z "
       id="rect3301" />
  </g>
  <g
     id="layer3"
     style="display:inline">
    <path
       style="fill:none;fill-opacity:0.75;fill-rule:evenodd;stroke:none;stroke-width:2;stroke-linecap:butt;stroke-linejoin:miter;stroke-miterlimit:4;stroke-dasharray:none;stroke-opacity:1;display:inline"
       d="M 8,494 L 492,494"
       id="path2273" />
  </g>
  <g
     id="layer2"
     style="display:inline">
    <path
       style="color:#000000;fill:none;fill-opacity:1;fill-rule:evenodd;stroke:#000000;stroke-width:2.00000262;stroke-linecap:butt;stroke-linejoin:miter;marker:none;marker-start:none;marker-mid:none;marker-end:none;stroke-miterlimit:4;stroke-dasharray:none;stroke-dashoffset:0;stroke-opacity:1;visibility:visible;display:inline;overflow:visible"
       d="M 250.48513,624.66105 C 234.95184,590.78505 180.77193,590.87129 117.02379,590.17644 C -0.73854454,588.90825 2.4949075,549.83805 2.4215879,377.09752 L 2.2626029,2.530058 L 250.89279,2.530058 L 250.48513,624.66105 z "
       id="path3989" />
    <path
       style="color:#000000;fill:none;fill-opacity:1;fill-rule:evenodd;stroke:#000000;stroke-width:2.00000262;stroke-linecap:butt;stroke-linejoin:miter;marker:none;marker-start:none;marker-mid:none;marker-end:none;stroke-miterlimit:4;stroke-dasharray:none;stroke-dashoffset:0;stroke-opacity:1;visibility:visible;display:inline;overflow:visible"
       d="M 251.27748,624.66105 C 266.81077,590.78505 320.49068,590.87128 384.23882,590.17644 C 502.00115,588.90825 498.7677,549.83804 498.84102,377.09752 L 499,2.5300513 L 250.86982,2.5300513"
       id="path1476" />
  </g>
</svg>