<!-- Created with Inkscape (http://www.inkscape.org/) -->
<svg role="img" viewBox="-21.58 -28.51 794.45 990.11"
   xmlns="http://www.w3.org/2000/svg"
   xmlns:xlink="http://www.w3.org/1999/xlink"
   id="svg2"
   version="1.0"><title>Herb Czerwionka-Leszczyny</title>
  <metadata
     id="metadata7">
    <rdf:RDF>
      <cc:Work
         rdf:about="">
        <dc:format>image/svg+xml</dc:format>
        <dc:type
           rdf:resource="http://purl.org/dc/dcmitype/StillImage" />
      </cc:Work>
    </rdf:RDF>
  </metadata>
  <defs
     id="defs5">
    <radialGradient
       r="7.7925749"
       fy="442.06165"
       fx="258.88525"
       cy="442.06165"
       cx="258.88525"
       gradientTransform="matrix(1.449740,-0.120050,0.115892,1.399529,-167.6624,-145.5075)"
       gradientUnits="userSpaceOnUse"
       id="radialGradient4548"
       xlink:href="#linearGradient3554" />
    <radialGradient
       r="7.7925749"
       fy="442.06165"
       fx="258.88525"
       cy="442.06165"
       cx="258.88525"
       gradientTransform="matrix(1.449740,-0.120050,0.115892,1.399529,-167.6624,-145.5075)"
       gradientUnits="userSpaceOnUse"
       id="radialGradient4416"
       xlink:href="#linearGradient3554" />
    <radialGradient
       r="7.7925749"
       fy="442.06165"
       fx="258.88525"
       cy="442.06165"
       cx="258.88525"
       gradientTransform="matrix(1.449740,-0.120050,0.115892,1.399529,-167.6624,-145.5075)"
       gradientUnits="userSpaceOnUse"
       id="radialGradient4098"
       xlink:href="#linearGradient3554" />
    <radialGradient
       r="7.7925749"
       fy="442.06165"
       fx="258.88525"
       cy="442.06165"
       cx="258.88525"
       gradientTransform="matrix(1.449740,-0.120050,0.115892,1.399529,-167.6624,-145.5075)"
       gradientUnits="userSpaceOnUse"
       id="radialGradient3572"
       xlink:href="#linearGradient3554" />
    <linearGradient
       id="linearGradient3554">
      <stop
         id="stop3556"
         offset="0"
         style="stop-color:#ffffff;stop-opacity:1;" />
      <stop
         id="stop3558"
         offset="1"
         style="stop-color:#000000;stop-opacity:1;" />
    </linearGradient>
  </defs>
  <sodipodi:namedview
     borderopacity="1.0"
     bordercolor="#666666"
     pagecolor="#ffffff"
     id="base"
     showguides="true" />
  <g
     id="g2992"
     transform="translate(776.7431,5.000000)">
    <path
       id="rect2571"
       d="M -767.92219,3.1575068 L -767.96581,562.43101 C -759.44896,761.70721 -598.82126,919.92391 -402.6488,919.92389 C -206.47646,919.92389 -42.067629,761.27568 -33.550619,561.99965 L -33.296539,3.1575068 L -767.92219,3.1575068 z "
       style="opacity:1;fill:#ffffff;fill-opacity:1;fill-rule:evenodd;stroke:#000000;stroke-width:7.2725749;stroke-linecap:round;stroke-linejoin:round;stroke-miterlimit:4;stroke-dasharray:none;stroke-dashoffset:0;stroke-opacity:1" />
    <path
       id="path1377"
       d="M -397.80984,3.1575068 L -767.92219,3.1575068 L -767.96581,562.43101 C -759.44896,761.70721 -598.82126,919.92391 -402.6488,919.92389 L -397.80984,3.1575068 z "
       style="opacity:1;fill:#fe0202;fill-opacity:1;fill-rule:evenodd;stroke:#000000;stroke-width:10.62992096;stroke-linecap:round;stroke-linejoin:round;stroke-miterlimit:4;stroke-dasharray:none;stroke-dashoffset:0;stroke-opacity:1" />
    <g
       id="g2693">
      <path
         style="fill:none;fill-opacity:0.75;fill-rule:evenodd;stroke:#000000;stroke-width:5.31496048;stroke-linecap:butt;stroke-linejoin:miter;stroke-miterlimit:4;stroke-dasharray:none;stroke-opacity:1"
         d="M -568.13062,877.24408 L -402.85227,877.24408"
         id="path2607" />
      <path
         style="fill:none;fill-opacity:0.75;fill-rule:evenodd;stroke:#000000;stroke-width:5.31496048;stroke-linecap:butt;stroke-linejoin:miter;stroke-miterlimit:4;stroke-dasharray:none;stroke-opacity:1"
         d="M -681.21462,787.3854 L -404.50092,787.3854"
         id="path2609" />
      <path
         style="fill:none;fill-opacity:0.75;fill-rule:evenodd;stroke:#000000;stroke-width:5.31496048;stroke-linecap:butt;stroke-linejoin:miter;stroke-miterlimit:4;stroke-dasharray:none;stroke-opacity:1"
         d="M -733.81483,704.92607 L -404.78223,704.64475"
         id="path2611" />
      <path
         style="fill:none;fill-opacity:0.75;fill-rule:evenodd;stroke:#000000;stroke-width:5.31496048;stroke-linecap:butt;stroke-linejoin:miter;stroke-miterlimit:4;stroke-dasharray:none;stroke-opacity:1"
         d="M -764.51787,616.43472 L -403.9579,616.43472"
         id="path2613" />
      <path
         style="fill:none;fill-opacity:0.75;fill-rule:evenodd;stroke:#000000;stroke-width:5.31496048;stroke-linecap:butt;stroke-linejoin:miter;stroke-miterlimit:4;stroke-dasharray:none;stroke-opacity:1"
         d="M -764.51787,530.95939 L -403.69619,530.39677"
         id="path2615" />
      <path
         style="fill:none;fill-opacity:0.75;fill-rule:evenodd;stroke:#000000;stroke-width:5.31496048;stroke-linecap:butt;stroke-linejoin:miter;stroke-miterlimit:4;stroke-dasharray:none;stroke-opacity:1"
         d="M -764.51787,447.67573 L -401.76622,447.67573"
         id="path2617" />
      <path
         style="fill:none;fill-opacity:0.75;fill-rule:evenodd;stroke:#000000;stroke-width:5.31496048;stroke-linecap:butt;stroke-linejoin:miter;stroke-miterlimit:4;stroke-dasharray:none;stroke-opacity:1"
         d="M -768.90122,364.67337 L -401.76622,364.39207"
         id="path2619" />
      <path
         style="fill:none;fill-opacity:0.75;fill-rule:evenodd;stroke:#000000;stroke-width:5.31496048;stroke-linecap:butt;stroke-linejoin:miter;stroke-miterlimit:4;stroke-dasharray:none;stroke-opacity:1"
         d="M -766.70955,276.72506 L -400.39888,276.72506"
         id="path2621" />
      <path
         style="fill:none;fill-opacity:0.75;fill-rule:evenodd;stroke:#000000;stroke-width:5.31496048;stroke-linecap:butt;stroke-linejoin:miter;stroke-miterlimit:4;stroke-dasharray:none;stroke-opacity:1"
         d="M -764.51787,191.24972 L -400.39888,191.79274"
         id="path2623" />
      <path
         style="fill:none;fill-opacity:0.75;fill-rule:evenodd;stroke:#000000;stroke-width:5.31496048;stroke-linecap:butt;stroke-linejoin:miter;stroke-miterlimit:4;stroke-dasharray:none;stroke-opacity:1"
         d="M -764.51787,103.58271 L -400.39888,104.12573"
         id="path2625" />
      <path
         style="fill:none;fill-opacity:0.75;fill-rule:evenodd;stroke:#000000;stroke-width:5.31496048;stroke-linecap:butt;stroke-linejoin:miter;stroke-miterlimit:4;stroke-dasharray:none;stroke-opacity:1"
         d="M -674.37788,6.324668 L -674.65919,101.39104"
         id="path2627" />
      <path
         style="fill:none;fill-opacity:0.75;fill-rule:evenodd;stroke:#000000;stroke-width:5.31496048;stroke-linecap:butt;stroke-linejoin:miter;stroke-miterlimit:4;stroke-dasharray:none;stroke-opacity:1"
         d="M -490.27716,7.148996 L -490.55846,101.39104"
         id="path2629" />
      <path
         id="path2631"
         d="M -582.001,103.12686 L -582.2823,194.89592"
         style="fill:none;fill-opacity:0.75;fill-rule:evenodd;stroke:#000000;stroke-width:5.31496048;stroke-linecap:butt;stroke-linejoin:miter;stroke-miterlimit:4;stroke-dasharray:none;stroke-opacity:1" />
      <path
         style="fill:none;fill-opacity:0.75;fill-rule:evenodd;stroke:#000000;stroke-width:5.31496048;stroke-linecap:butt;stroke-linejoin:miter;stroke-miterlimit:4;stroke-dasharray:none;stroke-opacity:1"
         d="M -493.78017,194.08396 L -492.2,274.22724"
         id="path2633" />
      <path
         id="path2635"
         d="M -584.47398,278.75841 L -584.75528,364.75717"
         style="fill:none;fill-opacity:0.75;fill-rule:evenodd;stroke:#000000;stroke-width:5.31496048;stroke-linecap:butt;stroke-linejoin:miter;stroke-miterlimit:4;stroke-dasharray:none;stroke-opacity:1" />
      <path
         style="fill:none;fill-opacity:0.75;fill-rule:evenodd;stroke:#000000;stroke-width:5.31496048;stroke-linecap:butt;stroke-linejoin:miter;stroke-miterlimit:4;stroke-dasharray:none;stroke-opacity:1"
         d="M -673.72484,364.41096 L -674.00614,449.5854"
         id="path2637" />
      <path
         style="fill:none;fill-opacity:0.75;fill-rule:evenodd;stroke:#000000;stroke-width:5.31496048;stroke-linecap:butt;stroke-linejoin:miter;stroke-miterlimit:4;stroke-dasharray:none;stroke-opacity:1"
         d="M -674.54916,532.2939 L -674.00614,619.71596"
         id="path2639" />
      <path
         id="path2641"
         d="M -491.99201,530.91469 L -491.44899,616.4623"
         style="fill:none;fill-opacity:0.75;fill-rule:evenodd;stroke:#000000;stroke-width:5.31496048;stroke-linecap:butt;stroke-linejoin:miter;stroke-miterlimit:4;stroke-dasharray:none;stroke-opacity:1" />
      <path
         style="fill:none;fill-opacity:0.75;fill-rule:evenodd;stroke:#000000;stroke-width:5.31496048;stroke-linecap:butt;stroke-linejoin:miter;stroke-miterlimit:4;stroke-dasharray:none;stroke-opacity:1"
         d="M -491.02818,704.5092 L -491.5223,787.4097"
         id="path2643" />
      <path
         id="path2645"
         d="M -675.3073,706.17656 L -676.41293,787.65578"
         style="fill:none;fill-opacity:0.75;fill-rule:evenodd;stroke:#000000;stroke-width:5.31496048;stroke-linecap:butt;stroke-linejoin:miter;stroke-miterlimit:4;stroke-dasharray:none;stroke-opacity:1" />
      <path
         style="fill:none;fill-opacity:0.75;fill-rule:evenodd;stroke:#000000;stroke-width:5.31496048;stroke-linecap:butt;stroke-linejoin:miter;stroke-miterlimit:4;stroke-dasharray:none;stroke-opacity:1"
         d="M -582.0672,787.68411 L -583.17283,869.70342"
         id="path2647" />
    </g>
    <g
       transform="translate(-772.4267,0.000000)"
       id="g2344">
      <path
         style="fill:#080808;fill-opacity:1;fill-rule:evenodd;stroke:#000000;stroke-width:1px;stroke-linecap:butt;stroke-linejoin:miter;stroke-opacity:1"
         d="M 205.15006,679.66497 L 223.23754,695.8485 C 214.96651,702.97027 208.14892,711.3638 209.90992,727.26359 C 188.8079,714.41197 187.6972,692.35793 205.15006,679.66497 z "
         id="path2338" />
      <path
         style="fill:#080808;fill-opacity:1;fill-rule:evenodd;stroke:#000000;stroke-width:1px;stroke-linecap:butt;stroke-linejoin:miter;stroke-opacity:1"
         d="M 184.68265,653.48573 L 196.58231,670.62123 C 182.68036,676.51686 176.21344,685.51042 177.54286,697.75245 C 157.23161,682.27931 165.48952,663.88233 184.68265,653.48573 z "
         id="path2336" />
      <path
         style="fill:#080808;fill-opacity:1;fill-rule:evenodd;stroke:#000000;stroke-width:1px;stroke-linecap:butt;stroke-linejoin:miter;stroke-opacity:1"
         d="M 298.44336,615.88282 L 298.44336,633.97029 C 307.06364,636.37335 318.17802,635.56971 318.43478,648.72587 C 324.83784,628.27869 317.24828,616.0384 298.44336,615.88282 z "
         id="path2342" />
      <path
         style="fill:#080808;fill-opacity:1;fill-rule:evenodd;stroke:#000000;stroke-width:1px;stroke-linecap:butt;stroke-linejoin:miter;stroke-opacity:1"
         d="M 241.801,696.32449 L 267.02827,696.80047 C 261.23022,707.25148 254.19437,717.15236 259.41249,732.49944 C 240.07148,728.23984 237.09935,714.50353 241.801,696.32449 z "
         id="path2340" />
      <path
         style="fill:#f9c300;fill-opacity:1;fill-rule:evenodd;stroke:#000000;stroke-width:3.54330707;stroke-linecap:butt;stroke-linejoin:miter;stroke-miterlimit:4;stroke-dasharray:none;stroke-opacity:1"
         d="M 258.93651,552.10066 L 247.03685,568.76018 C 246.475,603.93212 236.72752,633.00301 201.34217,638.73016 C 182.17073,642.23642 180.2195,655.3759 187.06259,663.00545 C 195.43149,680.88162 203.21397,669.81745 210.8619,662.52947 C 215.41685,654.69336 226.15006,643.35394 234.66121,637.77818 C 241.58268,635.77524 242.39161,633.22102 240.37305,642.53805 L 215.62176,669.66926 C 206.75234,673.15894 196.52137,676.03592 212.28986,690.61265 C 222.96991,701.0053 230.11098,697.04217 228.47339,687.28075 C 223.45169,672.59367 236.28369,663.51216 244.65692,654.91369 C 249.25814,649.04317 250.36873,656.81766 249.41678,662.52947 C 246.71952,674.70094 244.02227,676.96 241.32501,680.61694 C 234.27476,688.05592 238.11577,702.82831 255.12862,699.18041 C 268.45199,702.08939 274.30606,693.86431 266.55229,681.56891 C 260.59955,670.38569 255.23398,643.32764 261.31644,637.77818 C 273.00342,634.43052 282.47006,634.78343 290.3516,637.77818 C 297.19857,638.60825 302.02875,636.41313 301.29928,625.87853 C 301.66522,618.22628 300.49901,611.72316 290.82758,611.59894 C 283.98803,618.03576 276.56489,622.13822 268.45623,623.4986 C 252.05017,604.9 268.48526,591.48684 274.16806,576.37596 L 258.93651,552.10066 z "
         id="path2334" />
    </g>
    <g
       transform="translate(-768.2301,0.000000)"
       id="g2480">
      <g
         transform="matrix(-1.000000,0.000000,0.000000,1.000000,608.5086,-1.053059)"
         id="g2384">
        <path
           id="path2386"
           d="M 232.59932,299.58621 C 232.30872,318.80449 229.95149,339.49895 246.13237,346.95189 C 258.42494,341.2004 263.7271,328.45849 261.35705,308.04437 C 249.7671,286.52058 239.05827,273.22068 232.59932,299.58621 z "
           style="fill:#ffffff;fill-opacity:1;fill-rule:evenodd;stroke:#000000;stroke-width:3.54330707;stroke-linecap:butt;stroke-linejoin:miter;stroke-miterlimit:4;stroke-dasharray:none;stroke-opacity:1" />
        <path
           d="M 244.92379,335.00355 C 241.88922,334.3114 243.66253,301.99643 242.82244,291.83901 L 256.41884,305.26467 C 244.3095,304.15145 248.78517,334.89538 244.92379,335.00355 z "
           style="fill:#695841;fill-opacity:1;fill-rule:evenodd;stroke:none;stroke-width:1px;stroke-linecap:butt;stroke-linejoin:miter;stroke-opacity:1"
           id="path2388" />
      </g>
      <path
         style="fill:#ffffff;fill-opacity:1;fill-rule:evenodd;stroke:#000000;stroke-width:5.31496048;stroke-linecap:butt;stroke-linejoin:miter;stroke-miterlimit:4;stroke-dasharray:none;stroke-opacity:1"
         d="M 366.56992,164.68066 C 343.48924,152.35924 344.77861,110.81626 296.03085,128.25256 L 303.925,165.7498 L 312.31254,205.22058 C 315.99619,219.08804 317.13649,243.82525 311.81916,249.13182 C 290.85621,277.88348 274.15746,270.51182 244.22545,293.04306 C 221.28714,307.90643 199.32598,302.09576 184.03251,294.52322 C 152.72908,273.80106 155.90807,247.65167 135.18742,232.35674 C 170.6068,241.44459 188.43952,215.32408 186.00605,192.39258 C 172.86624,123.603 83.879039,129.75814 64.633401,174.63073 C 48.152384,216.07505 63.245136,257.51936 68.580479,298.96368 C 89.980015,371.3831 63.899503,386.82647 33.550163,397.14724 C 54.39035,425.11733 113.64602,427.1769 113.97188,374.45155 C 114.27058,386.51746 110.93066,396.76406 103.26721,404.84889 C 107.51998,466.06711 113.17512,528.60521 55.820112,531.83964 C 168.92621,611.7033 160.32841,464.39146 167.46033,381.12534 C 156.74275,455.51681 174.79647,644.89729 79.137294,623.07969 C 120.5973,693.09985 195.57276,645.40018 207.62674,549.36971 C 212.30986,511.77065 213.57922,444.44119 220.98716,422.25015 C 225.81428,411.74678 235.83756,411.63572 248.61055,417.0241 L 305.3505,543.19582 C 309.00822,558.6251 313.27621,574.05439 324.76153,589.48367 C 379.76179,688.38251 285.69808,789.23376 218.74742,726.85407 C 210.52057,769.6419 241.0554,783.39178 265.02502,781.92272 C 295.91426,780.02957 329.52556,748.39618 347.15888,704.45672 C 328.16767,756.38725 284.05771,773.44408 287.43262,823.16266 C 325.11798,812.62427 343.30012,769.96293 347.15888,703.71014 C 351.8859,751.93243 306.01869,813.32048 364.33018,841.08054 L 366.56992,164.68066 z "
         id="path2285" />
      <path
         style="fill:#ffffff;fill-opacity:1;fill-rule:nonzero;stroke:#000000;stroke-width:6.08605194;stroke-linecap:round;stroke-linejoin:round;stroke-miterlimit:4;stroke-dashoffset:0;stroke-opacity:1"
         d="M 336.78725,647.7168 L 363.50317,647.7168 L 363.50317,692.51149 L 336.78725,692.51149 C 325.20633,692.51149 315.88306,684.52012 315.88306,674.59361 L 315.88306,665.63467 C 315.88306,655.70817 325.20633,647.7168 336.78725,647.7168 z "
         id="rect2287" />
      <path
         style="fill:none;fill-opacity:0.75;fill-rule:evenodd;stroke:#000000;stroke-width:1px;stroke-linecap:butt;stroke-linejoin:miter;stroke-opacity:1"
         d="M 94.068858,260.98925 C 93.57114,260.98925 93.073421,260.98925 94.068858,260.98925 z "
         id="path2290" />
      <path
         style="fill:#695841;fill-opacity:1;fill-rule:evenodd;stroke:none;stroke-width:1px;stroke-linecap:butt;stroke-linejoin:miter;stroke-opacity:1"
         d="M 89.589389,258.00293 C 88.160025,302.88462 98.25358,363.47938 85.109919,392.38702 C 92.389619,390.46722 99.735244,385.57241 104.52095,367.00336 C 99.550827,330.53566 96.725196,253.32262 89.589389,258.00293 z "
         id="path2292" />
      <path
         style="fill:#695841;fill-opacity:1;fill-rule:evenodd;stroke:none;stroke-width:1px;stroke-linecap:butt;stroke-linejoin:miter;stroke-opacity:1"
         d="M 135.85057,365.95932 C 134.85629,426.30741 136.78399,490.41232 114.40048,523.25997 C 149.12511,508.37979 148.17985,438.01311 156.10898,381.45105 L 135.85057,365.95932 z "
         id="path2294" />
      <path
         style="fill:#695841;fill-opacity:1;fill-rule:evenodd;stroke:none;stroke-width:1px;stroke-linecap:butt;stroke-linejoin:miter;stroke-opacity:1"
         d="M 184.7091,411.24284 C 182.56273,480.93475 184.93382,554.01475 158.49233,605.48532 C 194.8564,564.87988 196.72198,486.63973 199.00916,408.8595 L 184.7091,411.24284 z "
         id="path2296" />
      <path
         style="fill:#ffffff;fill-opacity:1;fill-rule:evenodd;stroke:#000100;stroke-width:3.83385825;stroke-linecap:butt;stroke-linejoin:miter;stroke-miterlimit:4;stroke-dasharray:none;stroke-opacity:1"
         d="M 92.059475,271.7665 C 98.101875,308.88988 90.448477,356.77425 113.16091,380.79975 C 131.86831,373.39851 136.04589,348.11443 137.48522,319.46018 C 135.96348,348.07062 132.53,377.63693 154.40648,394.54827 C 174.13026,390.30027 172.22042,364.41864 175.55805,343.78449 C 176.77466,367.46667 163.10493,397.41678 187.19142,411.46953 C 210.6601,406.372 209.10887,374.32996 216.80362,352.24512 C 211.65664,384.04303 212.20273,413.35022 228.43699,435.79384 C 251.25113,418.8731 251.5414,384.43378 250.64614,349.07239"
         id="path2300" />
      <path
         style="fill:#695841;fill-opacity:1;fill-rule:evenodd;stroke:none;stroke-width:1px;stroke-linecap:butt;stroke-linejoin:miter;stroke-opacity:1"
         d="M 117.36736,294.25973 C 111.87998,315.3221 104.95502,336.8268 116.35991,352.69155 C 117.72646,334.75649 123.05298,322.10141 132.47903,314.91236 L 123.91575,288.21506 L 116.35991,291.2374"
         id="path2302" />
      <path
         style="fill:#695841;fill-opacity:1;fill-rule:evenodd;stroke:none;stroke-width:1px;stroke-linecap:butt;stroke-linejoin:miter;stroke-opacity:1"
         d="M 152.12421,320.45331 C 152.60758,335.6057 148.62513,359.68972 153.63538,365.78834 C 158.28937,360.94338 155.51778,340.40194 165.221,333.55009 L 157.16144,314.40864 L 152.12421,320.45331 z "
         id="path2304" />
      <path
         style="fill:#695841;fill-opacity:1;fill-rule:evenodd;stroke:none;stroke-width:1px;stroke-linecap:butt;stroke-linejoin:miter;stroke-opacity:1"
         d="M 186.88107,345.63943 C 185.29599,368.03166 192.0396,365.28143 195.94807,387.44841 C 198.63368,371.32837 203.01796,362.95168 208.54114,346.14316 L 204.00764,335.56498 C 199.60612,341.5378 193.96872,345.03887 186.88107,345.63943 z "
         id="path2306" />
      <path
         style="fill:#695841;fill-opacity:1;fill-rule:evenodd;stroke:none;stroke-width:1px;stroke-linecap:butt;stroke-linejoin:miter;stroke-opacity:1"
         d="M 224.15654,355.71389 C 224.62997,377.90754 221.7973,409.46848 229.69749,410.61964 C 233.50226,390.91736 229.67138,367.10549 240.77938,354.70644 L 224.15654,355.71389 z "
         id="path2308" />
      <path
         style="fill:none;fill-opacity:0.75;fill-rule:evenodd;stroke:#000000;stroke-width:5.6692915;stroke-linecap:round;stroke-linejoin:round;stroke-miterlimit:4;stroke-dasharray:none;stroke-opacity:1"
         d="M 91.758716,257.5172 C 88.416139,289.03561 107.86441,304.27584 123.49,289.52824 C 123.41271,321.85795 149.79125,330.81225 159.31009,312.91783 C 165.45714,346.82957 188.40788,351.61947 204.96752,337.3592 C 209.39334,356.36249 238.65721,364.0971 257.40107,343.31756"
         id="path2298" />
      <path
         style="fill:#695841;fill-opacity:1;fill-rule:evenodd;stroke:none;stroke-width:1px;stroke-linecap:butt;stroke-linejoin:miter;stroke-opacity:1"
         d="M 332.23839,699.1804 C 316.75094,726.42041 292.63385,763.2295 249.41678,759.63066 C 278.49204,782.88097 309.19715,754.79076 340.80614,698.22843 L 332.23839,699.1804 z "
         id="path2310" />
      <path
         style="fill:#695841;fill-opacity:1;fill-rule:evenodd;stroke:none;stroke-width:1px;stroke-linecap:butt;stroke-linejoin:miter;stroke-opacity:1"
         d="M 335.57029,733.45141 C 327.40858,757.65676 300.36494,789.15943 301.77526,796.75758 C 317.6462,784.24221 328.86054,761.19221 342.23409,738.68726 L 345.09001,712.50802 L 335.57029,733.45141 z "
         id="path2312" />
      <path
         style="fill:none;fill-opacity:0.75;fill-rule:evenodd;stroke:#695841;stroke-width:5.25118113;stroke-linecap:round;stroke-linejoin:miter;stroke-miterlimit:4;stroke-dasharray:none;stroke-opacity:1"
         d="M 359.3696,695.8485 L 359.3696,750.58692"
         id="path2314" />
      <path
         style="fill:#ffffff;fill-opacity:1;fill-rule:evenodd;stroke:#000000;stroke-width:3.54330707;stroke-linecap:butt;stroke-linejoin:miter;stroke-miterlimit:4;stroke-dasharray:none;stroke-opacity:1"
         d="M 238.94508,498.79021 L 257.98453,515.92571 C 266.95392,559.48343 255.33796,582.4558 216.09775,577.80392 C 237.46946,549.63189 232.62268,509.8193 238.94508,498.79021 z "
         id="path2326" />
      <path
         style="fill:#695841;fill-opacity:1;fill-rule:evenodd;stroke:none;stroke-width:1px;stroke-linecap:butt;stroke-linejoin:miter;stroke-opacity:1"
         d="M 249.89277,514.02176 C 248.39833,534.89867 242.33638,551.20808 233.23325,564.4763 C 237.73566,564.77569 241.89359,563.35266 245.1329,557.33651 C 247.98759,544.95594 251.3691,534.68266 257.98453,537.34509 L 249.41678,516.4017"
         id="path2328" />
      <g
         id="g2438">
        <path
           id="path2316"
           d="M 257.98453,435.96002 C 250.52741,444.2551 243.0703,450.73161 235.61318,464.99518 C 227.97606,477.35747 229.48739,518.8463 220.38162,524.01748 C 254.48743,525.35399 273.91819,478.79111 276.07201,476.41885 L 257.98453,435.96002 z "
           style="fill:#ffffff;fill-opacity:1;fill-rule:evenodd;stroke:#000000;stroke-width:3.54330707;stroke-linecap:butt;stroke-linejoin:miter;stroke-miterlimit:4;stroke-dasharray:none;stroke-opacity:1" />
        <path
           id="path2318"
           d="M 262.26841,446.90771 C 247.19192,459.73272 239.91163,473.91364 242.27698,500.21817 C 246.22834,498.59069 247.15134,470.96611 268.93222,462.61525 L 262.26841,446.90771 z "
           style="fill:#695841;fill-opacity:1;fill-rule:evenodd;stroke:none;stroke-width:1px;stroke-linecap:butt;stroke-linejoin:miter;stroke-opacity:1" />
      </g>
      <g
         transform="matrix(-1.000000,0.000000,0.000000,1.000000,507.7278,94.79055)"
         id="g2414">
        <path
           id="path2416"
           d="M 232.59932,299.58621 C 232.30872,318.80449 229.95149,339.49895 246.13237,346.95189 C 258.42494,341.2004 263.7271,328.45849 261.35705,308.04437 C 262.32247,296.91318 251.26951,279.50425 242.97971,277.6904 C 236.23352,276.2143 231.90583,287.7568 232.59932,299.58621 z "
           style="fill:#ffffff;fill-opacity:1;fill-rule:evenodd;stroke:#000000;stroke-width:3.54330707;stroke-linecap:butt;stroke-linejoin:miter;stroke-miterlimit:4;stroke-dasharray:none;stroke-opacity:1" />
        <path
           d="M 246.66646,335.2525 C 243.63189,334.56035 241.52837,291.35974 243.42675,278.2149 L 256.41884,298.59415 C 244.3095,297.48093 252.02155,334.89538 246.66646,335.2525 z "
           style="fill:#695841;fill-opacity:1;fill-rule:evenodd;stroke:none;stroke-width:1px;stroke-linecap:butt;stroke-linejoin:miter;stroke-opacity:1"
           id="path2418" />
      </g>
      <path
         style="fill:#ffffff;fill-opacity:1;fill-rule:evenodd;stroke:#000000;stroke-width:3.54330707;stroke-linecap:butt;stroke-linejoin:miter;stroke-miterlimit:4;stroke-dasharray:none;stroke-opacity:1"
         d="M 260.36446,534.96516 C 255.59468,562.85946 264.65914,580.2134 286.54371,587.79963 C 282.5166,559.56299 296.14891,543.68794 303.67921,523.54149 L 285.59173,498.31422 L 260.36446,534.96516 z "
         id="path2330" />
      <path
         style="fill:#695841;fill-opacity:1;fill-rule:evenodd;stroke:none;stroke-width:1px;stroke-linecap:butt;stroke-linejoin:miter;stroke-opacity:1"
         d="M 293.6835,512.59381 C 286.65852,527.47881 276.96088,540.58204 277.02398,560.19243 C 263.38842,544.99819 277.26836,522.92508 282.25983,503.07408 L 293.6835,512.59381 z "
         id="path2332" />
      <path
         style="fill:#ffffff;fill-opacity:1;fill-rule:evenodd;stroke:#000000;stroke-width:3.54330707;stroke-linecap:butt;stroke-linejoin:miter;stroke-miterlimit:4;stroke-dasharray:none;stroke-opacity:1"
         d="M 274.64405,472.13498 C 289.00639,501.68379 297.66528,529.4777 263.22038,544.0089 C 232.38089,512.35151 263.60024,494.48497 274.64405,472.13498 z "
         id="path2320" />
      <path
         style="fill:#695841;fill-opacity:1;fill-rule:evenodd;stroke:none;stroke-width:1px;stroke-linecap:butt;stroke-linejoin:miter;stroke-opacity:1"
         d="M 274.64405,476.41885 C 269.3854,486.33127 264.68038,499.20313 267.02827,519.25761 C 272.07587,516.83994 276.57703,507.86495 280.35589,490.22245 L 274.64405,476.41885 z "
         id="path2322" />
      <g
         transform="matrix(1.180310,0.000000,0.000000,1.081580,55.68831,206.1150)"
         id="g2466">
        <path
           id="path2468"
           d="M 232.59932,299.58621 C 232.30872,318.80449 229.95149,339.49895 246.13237,346.95189 C 258.42494,341.2004 263.7271,328.45849 261.35705,308.04437 C 262.32247,296.91318 251.26951,279.50425 242.97971,277.6904 C 236.23352,276.2143 231.90583,287.7568 232.59932,299.58621 z "
           style="fill:#ffffff;fill-opacity:1;fill-rule:evenodd;stroke:#000000;stroke-width:3.54330707;stroke-linecap:butt;stroke-linejoin:miter;stroke-miterlimit:4;stroke-dasharray:none;stroke-opacity:1" />
        <path
           d="M 245.9196,328.77975 C 242.88503,328.0876 246.25846,287.12756 237.70084,280.70443 C 241.529,275.13426 247.42481,281.28081 253.18246,286.64445 C 244.06054,286.52704 251.27469,328.42263 245.9196,328.77975 z "
           style="fill:#695841;fill-opacity:1;fill-rule:evenodd;stroke:none;stroke-width:1px;stroke-linecap:butt;stroke-linejoin:miter;stroke-opacity:1"
           id="path2470" />
      </g>
      <g
         id="g2460"
         transform="matrix(1.180310,0.000000,0.000000,1.081580,27.09533,188.0061)">
        <path
           style="fill:#ffffff;fill-opacity:1;fill-rule:evenodd;stroke:#000000;stroke-width:3.54330707;stroke-linecap:butt;stroke-linejoin:miter;stroke-miterlimit:4;stroke-dasharray:none;stroke-opacity:1"
           d="M 232.59932,299.58621 C 232.30872,318.80449 229.95149,339.49895 246.13237,346.95189 C 258.42494,341.2004 263.7271,328.45849 261.35705,308.04437 C 262.32247,296.91318 251.26951,279.50425 242.97971,277.6904 C 236.23352,276.2143 231.90583,287.7568 232.59932,299.58621 z "
           id="path2462" />
        <path
           id="path2464"
           style="fill:#695841;fill-opacity:1;fill-rule:evenodd;stroke:none;stroke-width:1px;stroke-linecap:butt;stroke-linejoin:miter;stroke-opacity:1"
           d="M 245.9196,328.77975 C 242.88503,328.0876 246.25846,287.12756 237.70084,280.70443 C 241.529,275.13426 247.42481,281.28081 253.18246,286.64445 C 244.06054,286.52704 251.27469,328.42263 245.9196,328.77975 z " />
      </g>
      <g
         transform="matrix(1.180310,0.000000,0.000000,1.081580,9.939541,144.1635)"
         id="g2442">
        <path
           id="path2444"
           d="M 232.59932,299.58621 C 232.30872,318.80449 229.95149,339.49895 246.13237,346.95189 C 258.42494,341.2004 263.7271,328.45849 261.35705,308.04437 C 262.32247,296.91318 251.26951,279.50425 242.97971,277.6904 C 236.23352,276.2143 231.90583,287.7568 232.59932,299.58621 z "
           style="fill:#ffffff;fill-opacity:1;fill-rule:evenodd;stroke:#000000;stroke-width:3.54330707;stroke-linecap:butt;stroke-linejoin:miter;stroke-miterlimit:4;stroke-dasharray:none;stroke-opacity:1" />
        <path
           d="M 245.9196,328.77975 C 242.88503,328.0876 246.25846,287.12756 237.70084,280.70443 C 241.529,275.13426 247.42481,281.28081 253.18246,286.64445 C 244.06054,286.52704 251.27469,328.42263 245.9196,328.77975 z "
           style="fill:#695841;fill-opacity:1;fill-rule:evenodd;stroke:none;stroke-width:1px;stroke-linecap:butt;stroke-linejoin:miter;stroke-opacity:1"
           id="path2446" />
      </g>
      <g
         id="g2472"
         transform="matrix(1.180310,0.000000,0.000000,1.081580,59.50071,143.2104)">
        <path
           style="fill:#ffffff;fill-opacity:1;fill-rule:evenodd;stroke:#000000;stroke-width:3.54330707;stroke-linecap:butt;stroke-linejoin:miter;stroke-miterlimit:4;stroke-dasharray:none;stroke-opacity:1"
           d="M 232.59932,299.58621 C 232.30872,318.80449 229.95149,339.49895 246.13237,346.95189 C 258.42494,341.2004 263.7271,328.45849 261.35705,308.04437 C 262.32247,296.91318 251.26951,279.50425 242.97971,277.6904 C 236.23352,276.2143 231.90583,287.7568 232.59932,299.58621 z "
           id="path2474" />
        <path
           id="path2476"
           style="fill:#695841;fill-opacity:1;fill-rule:evenodd;stroke:none;stroke-width:1px;stroke-linecap:butt;stroke-linejoin:miter;stroke-opacity:1"
           d="M 245.9196,328.77975 C 242.88503,328.0876 246.25846,287.12756 237.70084,280.70443 C 241.529,275.13426 247.42481,281.28081 253.18246,286.64445 C 244.06054,286.52704 251.27469,328.42263 245.9196,328.77975 z " />
      </g>
      <g
         transform="matrix(1.180310,0.000000,0.000000,1.081580,38.53252,134.6325)"
         id="g2448">
        <path
           id="path2450"
           d="M 232.59932,299.58621 C 232.30872,318.80449 229.95149,339.49895 246.13237,346.95189 C 258.42494,341.2004 263.7271,328.45849 261.35705,308.04437 C 262.32247,296.91318 251.26951,279.50425 242.97971,277.6904 C 236.23352,276.2143 231.90583,287.7568 232.59932,299.58621 z "
           style="fill:#ffffff;fill-opacity:1;fill-rule:evenodd;stroke:#000000;stroke-width:3.54330707;stroke-linecap:butt;stroke-linejoin:miter;stroke-miterlimit:4;stroke-dasharray:none;stroke-opacity:1" />
        <path
           d="M 245.9196,328.77975 C 242.88503,328.0876 246.25846,287.12756 237.70084,280.70443 C 241.529,275.13426 247.42481,281.28081 253.18246,286.64445 C 244.06054,286.52704 251.27469,328.42263 245.9196,328.77975 z "
           style="fill:#695841;fill-opacity:1;fill-rule:evenodd;stroke:none;stroke-width:1px;stroke-linecap:butt;stroke-linejoin:miter;stroke-opacity:1"
           id="path2452" />
      </g>
      <g
         id="g2432"
         transform="matrix(-1.000000,0.000000,0.000000,1.000000,525.6524,137.6103)">
        <path
           style="fill:#ffffff;fill-opacity:1;fill-rule:evenodd;stroke:#000000;stroke-width:3.54330707;stroke-linecap:butt;stroke-linejoin:miter;stroke-miterlimit:4;stroke-dasharray:none;stroke-opacity:1"
           d="M 232.59932,299.58621 C 232.30872,318.80449 229.95149,339.49895 246.13237,346.95189 C 258.42494,341.2004 263.7271,328.45849 261.35705,308.04437 C 262.32247,296.91318 251.26951,279.50425 242.97971,277.6904 C 236.23352,276.2143 231.90583,287.7568 232.59932,299.58621 z "
           id="path2434" />
        <path
           id="path2436"
           style="fill:#695841;fill-opacity:1;fill-rule:evenodd;stroke:none;stroke-width:1px;stroke-linecap:butt;stroke-linejoin:miter;stroke-opacity:1"
           d="M 246.66646,335.2525 C 243.63189,334.56035 241.52837,291.35974 243.42675,278.2149 C 248.56111,283.44372 254.93657,287.67966 257.13366,295.2583 C 245.02432,294.14508 252.02155,334.89538 246.66646,335.2525 z " />
      </g>
      <g
         id="g2454"
         transform="matrix(1.180310,0.000000,0.000000,1.081580,58.54761,81.25894)">
        <path
           style="fill:#ffffff;fill-opacity:1;fill-rule:evenodd;stroke:#000000;stroke-width:3.54330707;stroke-linecap:butt;stroke-linejoin:miter;stroke-miterlimit:4;stroke-dasharray:none;stroke-opacity:1"
           d="M 232.59932,299.58621 C 232.30872,318.80449 229.95149,339.49895 246.13237,346.95189 C 258.42494,341.2004 263.7271,328.45849 261.35705,308.04437 C 262.32247,296.91318 251.26951,279.50425 242.97971,277.6904 C 236.23352,276.2143 231.90583,287.7568 232.59932,299.58621 z "
           id="path2456" />
        <path
           id="path2458"
           style="fill:#695841;fill-opacity:1;fill-rule:evenodd;stroke:none;stroke-width:1px;stroke-linecap:butt;stroke-linejoin:miter;stroke-opacity:1"
           d="M 245.9196,328.77975 C 242.88503,328.0876 246.25846,287.12756 237.70084,280.70443 C 241.529,275.13426 247.42481,281.28081 253.18246,286.64445 C 244.06054,286.52704 251.27469,328.42263 245.9196,328.77975 z " />
      </g>
      <g
         id="g2426"
         transform="matrix(1.180310,0.000000,0.000000,1.081580,30.90773,76.49342)">
        <path
           style="fill:#ffffff;fill-opacity:1;fill-rule:evenodd;stroke:#000000;stroke-width:3.54330707;stroke-linecap:butt;stroke-linejoin:miter;stroke-miterlimit:4;stroke-dasharray:none;stroke-opacity:1"
           d="M 232.59932,299.58621 C 232.30872,318.80449 229.95149,339.49895 246.13237,346.95189 C 258.42494,341.2004 263.7271,328.45849 261.35705,308.04437 C 262.32247,296.91318 251.26951,279.50425 242.97971,277.6904 C 236.23352,276.2143 231.90583,287.7568 232.59932,299.58621 z "
           id="path2428" />
        <path
           id="path2430"
           style="fill:#695841;fill-opacity:1;fill-rule:evenodd;stroke:none;stroke-width:1px;stroke-linecap:butt;stroke-linejoin:miter;stroke-opacity:1"
           d="M 245.9196,328.77975 C 242.88503,328.0876 246.25846,287.12756 237.70084,280.70443 C 241.529,275.13426 247.42481,281.28081 253.18246,286.64445 C 244.06054,286.52704 251.27469,328.42263 245.9196,328.77975 z " />
      </g>
      <g
         id="g2420"
         transform="matrix(1.270285,0.000000,0.000000,1.159351,-19.67857,48.18332)">
        <path
           style="fill:#ffffff;fill-opacity:1;fill-rule:evenodd;stroke:#000000;stroke-width:3.54330707;stroke-linecap:butt;stroke-linejoin:miter;stroke-miterlimit:4;stroke-dasharray:none;stroke-opacity:1"
           d="M 232.59932,299.58621 C 232.30872,318.80449 229.95149,339.49895 246.13237,346.95189 C 258.42494,341.2004 263.7271,328.45849 261.35705,308.04437 C 262.32247,296.91318 251.26951,279.50425 242.97971,277.6904 C 236.23352,276.2143 231.90583,287.7568 232.59932,299.58621 z "
           id="path2422" />
        <path
           id="path2424"
           style="fill:#695841;fill-opacity:1;fill-rule:evenodd;stroke:none;stroke-width:1px;stroke-linecap:butt;stroke-linejoin:miter;stroke-opacity:1"
           d="M 247.41332,330.77136 C 244.37875,330.07921 242.27523,286.8786 244.17361,273.73376 L 257.1657,294.11301 C 245.05636,292.99979 252.76841,330.41424 247.41332,330.77136 z " />
      </g>
      <path
         style="fill:none;fill-opacity:0.75;fill-rule:evenodd;stroke:#000000;stroke-width:1px;stroke-linecap:butt;stroke-linejoin:miter;stroke-opacity:1"
         d="M 239.89706,500.21816 C 240.05572,500.21816 240.21438,500.21816 239.89706,500.21816 z "
         id="path2324" />
      <g
         id="g2390"
         transform="matrix(-1.000000,0.000000,0.000000,1.000000,506.7320,48.98333)">
        <path
           style="fill:#ffffff;fill-opacity:1;fill-rule:evenodd;stroke:#000000;stroke-width:3.54330707;stroke-linecap:butt;stroke-linejoin:miter;stroke-miterlimit:4;stroke-dasharray:none;stroke-opacity:1"
           d="M 232.59932,299.58621 C 232.30872,318.80449 229.95149,339.49895 246.13237,346.95189 C 258.42494,341.2004 263.7271,328.45849 261.35705,308.04437 C 262.32247,296.91318 251.26951,279.50425 242.97971,277.6904 C 236.23352,276.2143 231.90583,287.7568 232.59932,299.58621 z "
           id="path2392" />
        <path
           id="path2394"
           style="fill:#695841;fill-opacity:1;fill-rule:evenodd;stroke:none;stroke-width:1px;stroke-linecap:butt;stroke-linejoin:miter;stroke-opacity:1"
           d="M 246.66646,335.2525 C 243.63189,334.56035 241.52837,291.35974 243.42675,278.2149 L 256.41884,298.59415 C 244.3095,297.48093 252.02155,334.89538 246.66646,335.2525 z " />
      </g>
      <g
         id="g2362">
        <path
           id="path2353"
           d="M 232.59932,299.58621 C 232.30872,318.80449 229.95149,339.49895 246.13237,346.95189 C 258.42494,341.2004 263.7271,328.45849 261.35705,308.04437 L 232.59932,299.58621 z "
           style="fill:#ffffff;fill-opacity:1;fill-rule:evenodd;stroke:#000000;stroke-width:3.54330707;stroke-linecap:butt;stroke-linejoin:miter;stroke-miterlimit:4;stroke-dasharray:none;stroke-opacity:1" />
        <path
           d="M 244.46556,336.83647 C 241.43099,336.14432 242.55627,317.43808 241.71618,307.28066 L 256.60864,311.63383 C 244.4993,310.52061 248.32694,336.7283 244.46556,336.83647 z "
           style="fill:#695841;fill-opacity:1;fill-rule:evenodd;stroke:none;stroke-width:1px;stroke-linecap:butt;stroke-linejoin:miter;stroke-opacity:1"
           id="path2355" />
      </g>
      <g
         transform="translate(41.63520,49.97914)"
         id="g2396">
        <path
           id="path2398"
           d="M 232.59932,299.58621 C 232.30872,318.80449 229.95149,339.49895 246.13237,346.95189 C 258.42494,341.2004 263.7271,328.45849 261.35705,308.04437 C 262.32247,296.91318 251.26951,279.50425 242.97971,277.6904 C 236.23352,276.2143 231.90583,287.7568 232.59932,299.58621 z "
           style="fill:#ffffff;fill-opacity:1;fill-rule:evenodd;stroke:#000000;stroke-width:3.54330707;stroke-linecap:butt;stroke-linejoin:miter;stroke-miterlimit:4;stroke-dasharray:none;stroke-opacity:1" />
        <path
           d="M 247.41332,330.77136 C 244.37875,330.07921 242.27523,286.8786 244.17361,273.73376 L 257.1657,294.11301 C 245.05636,292.99979 252.76841,330.41424 247.41332,330.77136 z "
           style="fill:#695841;fill-opacity:1;fill-rule:evenodd;stroke:none;stroke-width:1px;stroke-linecap:butt;stroke-linejoin:miter;stroke-opacity:1"
           id="path2400" />
      </g>
      <g
         id="g2366"
         transform="matrix(-1.000000,0.000000,0.000000,1.000000,524.4674,1.145574)">
        <path
           style="fill:#ffffff;fill-opacity:1;fill-rule:evenodd;stroke:#000000;stroke-width:3.54330707;stroke-linecap:butt;stroke-linejoin:miter;stroke-miterlimit:4;stroke-dasharray:none;stroke-opacity:1"
           d="M 232.59932,299.58621 C 232.30872,318.80449 229.95149,339.49895 246.13237,346.95189 C 258.42494,341.2004 263.7271,328.45849 261.35705,308.04437 L 232.59932,299.58621 z "
           id="path2368" />
        <path
           id="path2370"
           style="fill:#695841;fill-opacity:1;fill-rule:evenodd;stroke:none;stroke-width:1px;stroke-linecap:butt;stroke-linejoin:miter;stroke-opacity:1"
           d="M 244.92379,335.00355 C 241.88922,334.3114 243.0145,315.60516 242.17441,305.44774 L 257.06687,309.80091 C 244.95753,308.68769 248.78517,334.89538 244.92379,335.00355 z " />
      </g>
      <g
         id="g2402"
         transform="translate(68.77100,49.23228)">
        <path
           style="fill:#ffffff;fill-opacity:1;fill-rule:evenodd;stroke:#000000;stroke-width:3.54330707;stroke-linecap:butt;stroke-linejoin:miter;stroke-miterlimit:4;stroke-dasharray:none;stroke-opacity:1"
           d="M 232.59932,299.58621 C 232.30872,318.80449 229.95149,339.49895 246.13237,346.95189 C 258.42494,341.2004 263.7271,328.45849 261.35705,308.04437 C 262.32247,296.91318 251.26951,279.50425 242.97971,277.6904 C 236.23352,276.2143 231.90583,287.7568 232.59932,299.58621 z "
           id="path2404" />
        <path
           id="path2406"
           style="fill:#695841;fill-opacity:1;fill-rule:evenodd;stroke:none;stroke-width:1px;stroke-linecap:butt;stroke-linejoin:miter;stroke-opacity:1"
           d="M 245.9196,328.77975 C 242.88503,328.0876 240.78151,284.88699 242.67989,271.74215 L 255.67198,292.1214 C 243.56264,291.00818 251.27469,328.42263 245.9196,328.77975 z " />
      </g>
      <g
         transform="matrix(-1.000000,0.000000,0.000000,1.000000,552.9809,-1.497764)"
         id="g2372">
        <path
           id="path2374"
           d="M 232.59932,299.58621 C 232.30872,318.80449 229.95149,339.49895 246.13237,346.95189 C 258.42494,341.2004 263.7271,328.45849 261.35705,308.04437 C 263.10813,287.85468 231.05365,273.22068 232.59932,299.58621 z "
           style="fill:#ffffff;fill-opacity:1;fill-rule:evenodd;stroke:#000000;stroke-width:3.54330707;stroke-linecap:butt;stroke-linejoin:miter;stroke-miterlimit:4;stroke-dasharray:none;stroke-opacity:1" />
        <path
           d="M 244.92379,335.00355 C 241.88922,334.3114 242.77313,293.10241 241.93304,282.94499 L 256.41884,298.59415 C 244.3095,297.48093 248.78517,334.89538 244.92379,335.00355 z "
           style="fill:#695841;fill-opacity:1;fill-rule:evenodd;stroke:none;stroke-width:1px;stroke-linecap:butt;stroke-linejoin:miter;stroke-opacity:1"
           id="path2376" />
      </g>
      <g
         transform="translate(95.90680,49.23228)"
         id="g2408">
        <path
           id="path2410"
           d="M 232.59932,299.58621 C 232.30872,318.80449 229.95149,339.49895 246.13237,346.95189 C 258.42494,341.2004 263.7271,328.45849 261.35705,308.04437 C 262.32247,296.91318 251.26951,279.50425 242.97971,277.6904 C 236.23352,276.2143 231.90583,287.7568 232.59932,299.58621 z "
           style="fill:#ffffff;fill-opacity:1;fill-rule:evenodd;stroke:#000000;stroke-width:3.54330707;stroke-linecap:butt;stroke-linejoin:miter;stroke-miterlimit:4;stroke-dasharray:none;stroke-opacity:1" />
        <path
           d="M 245.9196,328.77975 C 242.88503,328.0876 246.25846,287.12756 237.70084,280.70443 C 241.529,275.13426 247.42481,281.28081 253.18246,286.64445 C 244.06054,286.52704 251.27469,328.42263 245.9196,328.77975 z "
           style="fill:#695841;fill-opacity:1;fill-rule:evenodd;stroke:none;stroke-width:1px;stroke-linecap:butt;stroke-linejoin:miter;stroke-opacity:1"
           id="path2412" />
      </g>
      <g
         id="g2378"
         transform="matrix(-1.000000,0.000000,0.000000,1.000000,581.6978,-1.497760)">
        <path
           style="fill:#ffffff;fill-opacity:1;fill-rule:evenodd;stroke:#000000;stroke-width:3.54330707;stroke-linecap:butt;stroke-linejoin:miter;stroke-miterlimit:4;stroke-dasharray:none;stroke-opacity:1"
           d="M 232.59932,299.58621 C 232.30872,318.80449 229.95149,339.49895 246.13237,346.95189 C 258.42494,341.2004 263.7271,328.45849 261.35705,308.04437 C 249.7671,286.52058 239.05827,273.22068 232.59932,299.58621 z "
           id="path2380" />
        <path
           id="path2382"
           style="fill:#695841;fill-opacity:1;fill-rule:evenodd;stroke:none;stroke-width:1px;stroke-linecap:butt;stroke-linejoin:miter;stroke-opacity:1"
           d="M 244.92379,335.00355 C 241.88922,334.3114 243.66253,301.99643 242.82244,291.83901 L 256.41884,305.26467 C 244.3095,304.15145 248.78517,334.89538 244.92379,335.00355 z " />
      </g>
      <path
         style="fill:#ffffff;fill-opacity:1;fill-rule:evenodd;stroke:#000000;stroke-width:5.31496048;stroke-linecap:round;stroke-linejoin:round;stroke-miterlimit:4;stroke-dasharray:none;stroke-opacity:1"
         d="M 314.2921,241.36297 C 313.18098,252.40957 293.89869,270.42722 271.82828,277.54693 C 259.69811,282.22576 246.39274,291.02829 233.49644,299.20166 C 263.89013,321.8015 298.39884,303.7766 317.18089,267.16328 C 310.51571,284.44496 308.57482,300.4382 327.04874,310.86376 C 341.77716,303.65557 345.63266,289.48872 341.14566,269.98266 C 344.64409,284.05535 344.07069,301.17849 366.2382,306.63468 L 366.27393,244.65242"
         id="path2351" />
      <path
         style="fill:none;fill-opacity:0.75;fill-rule:evenodd;stroke:#000000;stroke-width:4.25196838;stroke-linecap:butt;stroke-linejoin:miter;stroke-miterlimit:4;stroke-dasharray:none;stroke-opacity:1"
         d="M 343.40407,579.73676 C 351.06703,604.98211 353.12732,623.76684 353.39978,647.84788"
         id="path2478" />
      <path
         style="fill:#fbe200;fill-opacity:1;fill-rule:evenodd;stroke:#000000;stroke-width:3.54330707;stroke-linecap:butt;stroke-linejoin:miter;stroke-miterlimit:4;stroke-dasharray:none;stroke-opacity:1"
         d="M 244.22545,162.78949 C 250.2919,178.94334 291.42592,190.74796 312.80593,209.16766 C 320.79523,203.33131 330.61149,183.81285 310.339,168.71011 C 297.73071,159.79761 314.3625,138.61696 294.55069,128.74594 C 279.55936,133.15024 217.02431,100.66439 236.82468,155.38872 C 252.96791,128.92646 297.94964,155.00096 309.35223,192.88596 C 297.69321,195.1959 284.0005,147.01208 244.22545,162.78949 z "
         id="path2279" />
      <path
         style="fill:#695841;fill-opacity:1;fill-rule:evenodd;stroke:#000000;stroke-width:3.54330707;stroke-linecap:butt;stroke-linejoin:miter;stroke-miterlimit:4;stroke-dasharray:none;stroke-opacity:1"
         d="M 308.85885,140.58718 C 332.39108,134.14406 336.76897,153.09753 346.35609,163.28288 C 338.67104,156.85476 329.07621,160.53268 320.2067,156.37549 C 313.74931,152.09263 318.4125,143.20964 308.85885,140.58718 z "
         id="path2281" />
      <path
         style="opacity:1;fill:#ffff00;fill-opacity:1;fill-rule:nonzero;stroke:none;stroke-width:3.54330707;stroke-linecap:round;stroke-linejoin:round;stroke-miterlimit:4;stroke-dasharray:none;stroke-dashoffset:0;stroke-opacity:1"
         id="path2283"
         d="M 327.60748,147.98795 A 3.2070007,2.9603086 0 1 1 327.60738,147.9647"
         transform="matrix(1.230769,0.000000,0.000000,1.416667,-75.60173,-62.89510)" />
    </g>
    <g
       id="g2573">
      <path
         style="opacity:1;fill:#029a02;fill-opacity:1;fill-rule:evenodd;stroke:#000000;stroke-width:10.62992096;stroke-linecap:round;stroke-linejoin:round;stroke-miterlimit:4;stroke-dasharray:none;stroke-dashoffset:0;stroke-opacity:1"
         d="M -33.508038,468.34365 L -33.296539,3.1575068 L -397.80984,3.1575068 L -400.26516,468.33053 L -33.508038,468.34365 z "
         id="path1379" />
      <path
         style="opacity:1;fill:#000000;fill-opacity:1;fill-rule:evenodd;stroke:#000000;stroke-width:10.62992096;stroke-linecap:round;stroke-linejoin:round;stroke-miterlimit:4;stroke-dasharray:none;stroke-dashoffset:0;stroke-opacity:1"
         d="M -400.26516,468.33053 L -402.6488,919.92389 C -206.47646,919.92389 -42.067629,761.27568 -33.550619,561.99965 L -33.508038,468.34365 L -400.26516,468.33053 z "
         id="path1385" />
      <g
         id="g2262">
        <g
           transform="translate(-763.8664,0.000000)"
           id="g2253">
          <g
             id="g2246">
            <path
               id="rect2235"
               d="M 522.26404,79.686218 L 583.10295,79.686218 L 583.10295,203.05403 C 560.30465,219.84509 540.56973,216.21365 522.26404,203.05403 L 522.26404,79.686218 z "
               style="fill:#fff700;fill-opacity:1;fill-rule:nonzero;stroke:#000000;stroke-width:5.71535444;stroke-linecap:round;stroke-linejoin:round;stroke-miterlimit:4;stroke-dasharray:none;stroke-dashoffset:0;stroke-opacity:1" />
            <path
               id="path2237"
               d="M 534.35714,81.192809 L 534.92046,198.92738"
               style="fill:none;fill-opacity:0.75;fill-rule:evenodd;stroke:#000000;stroke-width:5.71535444;stroke-linecap:butt;stroke-linejoin:miter;stroke-miterlimit:4;stroke-dasharray:none;stroke-opacity:1" />
            <path
               id="path2239"
               d="M 547.31357,80.066163 L 547.31357,213.01046"
               style="fill:none;fill-opacity:0.75;fill-rule:evenodd;stroke:#000000;stroke-width:5.71535444;stroke-linecap:butt;stroke-linejoin:miter;stroke-miterlimit:4;stroke-dasharray:none;stroke-opacity:1" />
            <path
               id="path2241"
               d="M 559.14336,80.066163 L 560.83333,209.0672"
               style="fill:none;fill-opacity:0.75;fill-rule:evenodd;stroke:#000000;stroke-width:5.71535444;stroke-linecap:butt;stroke-linejoin:miter;stroke-miterlimit:4;stroke-dasharray:none;stroke-opacity:1" />
            <path
               id="path2243"
               d="M 572.0998,80.629486 L 571.53648,198.36406"
               style="fill:none;fill-opacity:0.75;fill-rule:evenodd;stroke:#000000;stroke-width:5.71535444;stroke-linecap:butt;stroke-linejoin:miter;stroke-miterlimit:4;stroke-dasharray:none;stroke-opacity:1" />
          </g>
          <path
             style="opacity:1;fill:#fff700;fill-opacity:1;fill-rule:nonzero;stroke:#000000;stroke-width:3.77362204;stroke-linecap:round;stroke-linejoin:round;stroke-miterlimit:4;stroke-dasharray:none;stroke-dashoffset:0;stroke-opacity:1"
             d="M 522.40625,193.71875 C 522.22725,209.45589 526.57765,221.7617 543.34375,224.71875 L 543.34375,236.34375 C 539.5071,229.15385 531.45064,225.13719 522.40625,221.875 C 522.22725,237.61214 526.57765,249.91795 543.34375,252.875 L 543.34375,266.78125 C 542.11576,264.47546 540.45673,262.51246 538.46875,260.78125 C 538.43966,260.75592 538.40423,260.71273 538.375,260.6875 C 538.35711,260.66568 538.33047,260.64676 538.3125,260.625 C 538.29417,260.60928 538.29963,260.57818 538.28125,260.5625 C 538.25443,260.5302 538.21449,260.53215 538.1875,260.5 C 534.32846,255.90311 528.78126,252.80963 522.75,250.1875 C 522.74283,250.94779 522.77153,251.69257 522.78125,252.4375 C 522.66132,252.39384 522.52654,252.35589 522.40625,252.3125 C 522.30777,260.97039 523.60593,268.5921 527.5625,274.1875 C 527.56699,274.19386 527.558,274.2124 527.5625,274.21875 C 527.64691,274.33784 527.72564,274.44526 527.8125,274.5625 C 527.83998,274.60553 527.8785,274.64471 527.90625,274.6875 C 527.93548,274.72637 527.93925,274.74258 527.96875,274.78125 C 527.97434,274.78977 527.96315,274.80399 527.96875,274.8125 C 531.10606,279.57806 535.91249,282.85394 543.03125,284 C 543.07065,283.76014 543.12069,283.51762 543.15625,283.28125 C 543.22136,283.29309 543.27826,283.30095 543.34375,283.3125 L 543.34375,807.5625 L 560.6875,807.5625 L 560.6875,283.40625 C 578.01678,280.66481 582.4939,268.26059 582.3125,252.3125 C 572.66319,255.79287 564.16386,260.11395 560.6875,268.25 L 560.6875,253 C 578.01678,250.25856 582.4939,237.82309 582.3125,221.875 C 572.66319,225.35537 564.16386,229.7077 560.6875,237.84375 L 560.6875,224.84375 C 578.02118,222.10401 582.49391,209.66847 582.3125,193.71875 C 571.74948,197.52868 562.56543,202.36982 559.84375,212.09375 L 544.90625,212.09375 C 542.18457,202.36982 532.96927,197.52868 522.40625,193.71875 z "
             id="rect2217" />
        </g>
        <g
           transform="translate(-769.1895,0.000000)"
           id="g2207">
          <g
             id="g2197"
             transform="translate(4.738299,1.579445)">
            <rect
               style="opacity:1;fill:#fff700;fill-opacity:1;fill-rule:nonzero;stroke:#000000;stroke-width:6.77399445;stroke-linecap:round;stroke-linejoin:round;stroke-miterlimit:4;stroke-dasharray:none;stroke-dashoffset:0;stroke-opacity:1"
               id="rect2193"
               width="42.446293"
               height="246.89136"
               x="35.915607"
               y="614.33679"
               rx="0"
               ry="0"
               transform="matrix(0.703075,-0.711115,0.713026,0.701137,0.000000,0.000000)" />
            <rect
               transform="matrix(0.715866,0.698238,-0.699817,0.714323,0.000000,0.000000)"
               y="-109.92969"
               x="562.71814"
               height="110.07639"
               width="51.330837"
               id="rect2195"
               style="opacity:1;fill:#000000;fill-opacity:1;fill-rule:nonzero;stroke:#000000;stroke-width:6.18949986;stroke-linecap:round;stroke-linejoin:round;stroke-miterlimit:4;stroke-dasharray:none;stroke-dashoffset:0;stroke-opacity:1" />
          </g>
          <g
             id="g2203"
             transform="translate(1.579399,-4.738338)">
            <rect
               transform="matrix(0.687859,0.725845,-0.723970,0.689832,0.000000,0.000000)"
               ry="0"
               rx="0"
               y="-182.7354"
               x="700.51825"
               height="246.89122"
               width="42.446297"
               id="rect1318"
               style="opacity:1;fill:#fff700;fill-opacity:1;fill-rule:nonzero;stroke:#000000;stroke-width:6.77399302;stroke-linecap:round;stroke-linejoin:round;stroke-miterlimit:4;stroke-dasharray:none;stroke-dashoffset:0;stroke-opacity:1" />
            <path
               id="path2201"
               d="M 582.815,362.14496 L 671.26389,447.43496 L 690.21722,423.74329 L 679.16111,377.9394 L 620.72167,322.65884 L 582.815,362.14496 z "
               style="fill:#000000;fill-opacity:1;fill-rule:evenodd;stroke:#000000;stroke-width:1px;stroke-linecap:butt;stroke-linejoin:miter;stroke-opacity:1" />
          </g>
        </g>
      </g>
    </g>
  </g>
</svg>