<!-- Created with Inkscape (http://www.inkscape.org/) -->
<svg role="img" viewBox="-24.15 -26.39 795.38 855.90"
   xmlns="http://www.w3.org/2000/svg"
   version="1.0"
   id="svg3133"><title>Herb Małogoszcz</title>
  <metadata
     id="metadata10">
    <rdf:RDF>
      <cc:Work
         rdf:about="">
        <dc:format>image/svg+xml</dc:format>
        <dc:type
           rdf:resource="http://purl.org/dc/dcmitype/StillImage" />
      </cc:Work>
    </rdf:RDF>
  </metadata>
  <sodipodi:namedview
     guidetolerance="10.0"
     gridtolerance="10.0"
     objecttolerance="10.0"
     borderopacity="1.0"
     bordercolor="#666666"
     pagecolor="#ffffff"
     id="base" />
  <defs
     id="defs3135" />
  <g
     transform="translate(4.975672,-27.93834)"
     id="layer1">
    <g
       transform="translate(102.31217,316.35689)"
       id="g2471">
      <g
         transform="translate(-109.01306,-290.38484)"
         style="fill:#ff2a2a"
         id="g3143">
        <path
           d="M 7.0401785,7.28125 L 7.0401785,509.22222 L 7.7589285,509.22222 C 13.615519,643.60805 182.69141,799.78472 375.13393,799.78472 C 567.57646,799.78469 733.94044,643.60802 742.38393,509.22222 L 743.25893,509.22222 C 743.25893,509.22222 743.81137,155.49529 743.25893,7.28125 C 618.84028,7.28125 110.69725,7.28125 7.0401785,7.28125 z "
           style="fill:#ff2a2a;fill-opacity:1;fill-rule:nonzero;stroke:#000000;stroke-width:10.62992096;stroke-linecap:round;stroke-linejoin:round;stroke-miterlimit:4;stroke-dasharray:none;stroke-dashoffset:0;stroke-opacity:1"
           id="path2972" />
      </g>
      <path
         d="M 205.27488,-245.02373 L 220.27488,-104.89873 L 97.743633,-119.89873 L 97.743633,-37.08623 L 220.27488,-52.08623 L 217.27488,106.75752 L -12.037616,84.25752 L -12.037616,197.88252 L 217.27488,175.38252 L 195.27488,471.32002 L 327.61863,471.32002 L 305.61863,175.38252 L 544.55613,197.88252 L 544.55613,84.25752 L 305.61863,106.75752 L 302.61863,-52.08623 L 427.08738,-37.08623 L 427.08738,-119.89873 L 302.61863,-104.89873 L 317.61863,-245.02373 L 205.27488,-245.02373 z "
         style="opacity:1;fill:#ff9955;fill-opacity:1;fill-rule:evenodd;stroke:#000000;stroke-width:7.19645691;stroke-linecap:round;stroke-linejoin:round;stroke-miterlimit:4;stroke-dasharray:none;stroke-dashoffset:0;stroke-opacity:1"
         id="rect2464" />
    </g>
  </g>
</svg>